ply
format ascii 1.0
element vertex 639
property float x
property float y
property float z
element face 754
property list uchar int vertex_index
end_header
-35.858448 -26.456223 -40.717564
-40.031567 -81.838455 -26.799374
-38.808308 -51.995644 -33.808342
-23.661964 -83.095268 -19.847324
-29.23613 -49.417393 -26.074108
-30.947779 -84.855484 -24.225933
-31.975267 -68.749191 -26.407295
-39.614773 -67.098618 -30.230389
-33.657696 -15.549621 -46.753582
-41.250294 -22.430843 -44.006615
-47.610806 -77.6539 -24.318581
-48.015984 -63.967682 -30.39204
-47.339684 -49.824242 -35.877884
-45.519737 -35.388405 -40.111782
-38.319729 -37.201416 -37.301041
-27.735226 -65.971985 -21.750072
-33.298153 -52.288334 -29.894562
-32.927296 -37.273296 -34.490082
-35.159283 -90.920837 -25.160561
-30.196171 -92.376205 -23.739368
-35.521255 -83.761017 -26.091106
-35.563919 -76.195786 -27.249119
-39.99054 -74.552475 -28.485291
-36.555813 -11.851168 -49.677528
-32.033951 -9.864916 -50.117393
-47.291183 -83.672485 -21.511875
-51.128731 -75.976105 -22.274342
-47.807648 -56.89962 -33.286873
-43.805252 -28.423584 -42.05151
-25.840214 -74.557419 -20.540146
-35.33242 -60.499786 -30.279285
-32.60841 -60.476326 -28.025295
-35.541592 -52.555443 -32.039616
-35.80761 -44.795197 -33.880188
-38.653214 -44.428875 -35.555264
-31.219561 -43.45713 -30.338249
-23.998787 -99.972107 -21.822338
-25.467003 -92.60788 -21.659409
-26.914326 -84.654984 -21.947292
-28.271656 -76.348091 -22.728172
-31.487801 -76.922028 -25.116806
-35.39999 -68.411499 -28.653664
-39.132774 -59.580032 -32.019409
-39.771881 -88.699387 -25.209599
-35.077045 -21.382637 -43.365688
-37.789509 -18.071627 -45.730774
-38.180702 -24.485022 -42.178871
-43.75388 -86.169388 -23.794907
-44.033661 -79.662048 -26.066391
-47.922935 -70.975952 -27.338482
-44.161335 -72.63295 -28.443813
-43.959484 -65.409531 -30.794994
-43.489864 -58.176537 -33.026566
-42.934227 -50.916077 -35.078606
-46.61924 -42.645618 -38.11797
-42.367123 -43.577065 -36.940136
-41.616817 -36.332886 -38.695103
-40.321873 -29.707129 -40.465485
-37.357262 -30.888704 -39.111149
-25.623844 -63.330727 -20.087177
-28.994566 -57.504955 -23.576439
-29.585985 -67.878853 -23.967854
-30.779259 -59.416798 -25.634109
-31.476929 -51.181538 -27.748413
-33.568478 -44.456329 -32.024487
-35.594307 -37.577194 -35.863068
-34.565426 -31.2523 -38.089081
-37.712433 -86.438629 -25.983738
-35.375107 -87.406815 -25.598793
-37.822708 -82.866028 -26.624626
-37.84573 -79.192642 -27.301949
-40.058147 -78.229797 -27.633671
-33.434475 -7.807158 -51.768433
-24.7714 -78.841446 -20.13303
-37.044262 -56.253963 -32.103672
-35.405304 -56.521881 -31.148338
-37.040043 -52.366821 -32.9842
-37.082932 -48.500145 -33.867153
-38.723896 -48.196426 -34.68692
-30.287498 -46.479366 -28.186333
-26.617411 -99.785416 -22.771935
-30.599514 -88.680603 -23.934612
-27.767258 -92.66684 -22.728737
-28.321335 -88.862732 -22.853325
-26.202156 -88.68985 -21.741814
-28.836048 -84.93277 -23.091259
-29.311392 -80.904709 -23.446751
-31.2388 -80.928047 -24.619358
-37.633526 -71.663116 -28.765442
-35.490253 -72.323715 -27.920422
-37.44833 -67.844963 -29.553864
-37.263779 -64.001968 -30.378166
-39.367737 -63.346973 -31.121254
-37.338161 -93.142319 -24.817989
-39.60944 -91.878464 -24.465717
-35.056046 -13.58877 -48.22076
-37.249989 -14.919641 -47.690166
-35.775192 -16.592915 -46.358681
-36.360493 -19.63728 -44.551407
-34.419594 -18.471901 -45.023014
-47.439331 -80.762245 -22.881458
-45.556087 -84.900833 -22.711308
-45.696404 -81.853531 -23.96452
-43.895016 -83.001541 -24.909496
-45.852413 -78.620193 -25.272873
-49.942848 -63.450508 -29.94405
-49.869881 -66.919418 -28.261997
-48.006302 -67.492165 -28.873825
-46.08091 -71.749718 -27.989323
-46.096432 -68.201111 -29.353718
-44.103092 -69.028778 -29.629597
-46.029255 -64.628609 -30.694824
-47.603073 -53.368011 -34.626476
-45.677326 -57.488861 -33.242622
-45.423923 -53.921787 -34.424286
-43.213242 -54.555336 -34.077526
-45.136673 -50.339893 -35.534389
-46.130081 -39.012917 -39.133739
-44.457973 -43.094299 -37.550652
-44.03315 -39.450417 -38.483475
-42.035294 -39.918503 -37.822285
-43.509125 -35.844093 -39.39452
-42.642166 -25.258623 -43.034222
-41.999645 -29.041691 -41.227821
-40.94067 -26.033897 -42.155838
-39.366699 -26.866619 -41.349922
-39.648483 -23.418995 -43.057983
-25.834839 -69.015579 -20.127132
-26.750977 -64.727478 -20.832256
-27.443953 -60.48019 -21.721313
-28.471516 -61.71014 -22.579571
-30.206568 -72.649048 -24.500435
-28.932865 -72.123535 -23.293667
-30.666424 -68.461472 -25.183609
-32.968971 -56.356628 -28.930557
-31.626623 -60.068386 -26.818398
-32.064487 -55.914333 -27.76112
-31.222336 -55.254005 -26.632294
-32.393677 -51.831467 -28.790314
-32.54155 -47.856796 -29.913258
-33.523186 -48.308437 -30.922356
-37.086765 -40.995979 -35.655682
-35.794231 -41.092903 -34.846588
-36.910015 -37.472137 -36.584545
-36.543926 -34.187744 -37.550312
-37.934673 -33.886345 -38.199852
-31.471258 -36.92276 -33.873032
-32.243969 -33.978241 -35.854404
-33.027229 -31.104134 -37.686432
-33.758121 -34.204723 -36.378807
-32.355057 -95.214966 -24.352226
-29.757231 -95.914383 -23.629997
-32.686714 -91.775452 -24.585583
-32.977104 -88.176712 -24.885605
-33.201229 -84.447495 -25.260361
-33.351509 -80.616325 -25.715496
-35.582485 -80.014923 -26.64019
-37.777153 -75.450378 -28.015121
-39.834572 -70.836029 -29.351192
-34.25909 -10.657099 -50.053345
-32.846111 -12.672255 -48.477467
-48.994518 -82.502991 -20.282757
-49.168167 -79.741943 -21.751926
-49.359192 -76.774651 -23.296913
-49.943298 -59.952404 -31.593288
-47.948051 -60.432194 -31.869858
-49.869194 -56.445862 -33.184135
-49.721592 -52.935581 -34.69458
-49.499176 -49.412773 -36.108566
-44.755566 -31.831545 -41.078201
-44.452431 -24.594147 -43.981968
-24.749123 -73.319321 -19.586964
-26.841208 -70.261642 -21.075207
-33.659161 -64.68309 -28.360817
-32.269176 -64.615685 -27.181255
-33.826305 -60.620663 -29.196156
-34.055344 -56.561008 -30.077408
-34.313087 -52.532291 -30.996403
-34.538403 -48.570377 -31.953106
-35.698082 -48.63253 -32.948689
-37.121433 -44.692604 -34.754379
-38.540241 -40.742016 -36.422375
-30.690784 -39.871773 -31.788422
-32.08633 -40.375763 -32.460194
-27.189583 -96.316467 -22.707329
-24.723492 -96.378326 -21.69175
-24.272194 -88.15863 -20.672649
-25.196093 -84.030197 -20.856441
-26.10239 -79.830215 -21.164139
-27.601736 -80.532532 -22.277302
-29.761152 -76.803146 -23.91848
-31.722721 -72.856873 -25.71537
-33.439999 -76.707626 -26.254837
-33.495552 -72.740128 -26.879086
-33.556412 -68.727821 -27.584175
-35.335758 -64.467407 -29.443424
-37.120129 -60.136654 -31.231541
-38.941479 -55.795216 -32.917664
-28.00927 -52.257355 -24.06995
-34.90498 -94.272171 -24.772121
-37.538757 -89.875107 -25.381481
-39.925617 -85.341263 -25.988773
-30.744875 -12.129257 -48.423588
-31.549685 -14.889148 -46.873138
-32.386112 -17.706635 -45.256191
-35.5751 -24.159723 -41.87302
-39.627636 -20.019279 -44.925488
-38.117863 -21.275782 -43.878399
-36.752007 -22.656364 -42.872681
-36.880219 -25.549503 -41.374252
-45.451515 -87.737854 -21.514847
-41.705147 -90.528519 -23.744316
-41.838745 -87.448486 -24.659527
-41.984032 -84.177872 -25.613697
-42.103577 -80.750168 -26.601097
-51.350151 -72.964233 -23.989826
-49.555695 -73.623817 -24.911022
-49.734367 -70.324631 -26.574833
-47.782143 -74.378143 -25.811497
-45.991653 -75.237541 -26.621605
-44.132774 -76.191071 -27.250572
-42.160851 -77.206116 -27.609272
-42.131496 -73.587456 -28.625439
-42.009747 -69.929962 -29.640057
-41.808842 -66.257858 -30.647121
-45.884697 -61.055489 -31.995808
-43.746864 -61.791588 -31.930073
-41.556187 -62.581593 -31.642246
-41.285271 -58.899746 -32.620686
-41.026424 -55.204754 -33.576778
-40.798229 -51.490879 -34.50547
-47.01553 -46.252678 -37.038914
-44.818062 -46.73082 -36.573452
-42.656593 -47.253365 -36.030346
-40.600845 -47.762451 -35.405106
-40.412659 -44.040535 -36.279976
-40.191582 -40.366791 -37.140934
-39.881889 -36.803978 -38.002529
-42.844868 -32.344864 -40.305279
-41.061142 -32.897598 -39.574657
-39.426228 -33.433556 -38.876026
-38.780701 -30.352577 -39.758457
-37.928497 -27.675282 -40.618126
-36.615051 -28.327284 -39.99313
-26.236177 -59.111176 -21.057541
-27.86998 -56.308788 -22.803307
-29.257133 -53.393211 -24.744797
-26.986876 -75.584007 -21.592793
-27.841333 -71.312576 -22.1404
-28.6457 -67.035187 -22.808613
-31.145773 -64.260193 -25.958565
-30.214369 -63.635048 -24.74762
-29.363037 -62.772846 -23.603561
-29.940435 -58.551483 -24.534248
-30.317642 -54.403286 -25.608822
-30.442282 -50.365929 -26.829315
-31.48571 -47.23708 -28.985535
-32.448341 -44.027489 -31.136524
-33.376755 -40.768913 -33.211941
-34.654388 -44.717007 -32.956154
-34.587906 -41.015709 -34.019726
-34.291172 -37.504601 -35.157726
-35.178143 -34.291786 -36.941277
-35.986053 -31.205488 -38.55069
-35.302189 -28.556215 -39.578773
-33.822006 -28.401058 -39.328117
-22.309059 -84.623219 -19.307482
-23.096684 -85.195629 -19.764167
-22.965688 -82.499802 -19.384234
-22.309059 -84.623219 -19.307482
-24.216682 -80.968357 -19.990177
-23.520406 -80.372891 -19.527087
-22.965688 -82.499802 -19.384234
-29.090951 -47.519174 -26.804903
-28.557184 -48.895983 -25.782839
-29.761814 -47.94838 -27.130221
-29.616635 -46.050161 -27.861016
-29.090951 -47.519174 -26.804903
-27.96618 -99.527817 -23.181151
-26.35222 -101.419136 -22.834043
-39.540966 -93.365845 -24.107935
-38.37912 -94.046203 -24.375385
-45.824909 -37.200661 -39.62276
-46.864681 -37.008686 -39.986135
-46.559509 -35.19643 -40.475156
-49.837252 -81.950619 -19.679064
-48.913507 -83.77652 -19.580849
-49.756241 -83.224148 -18.977156
-50.148449 -77.859024 -22.013134
-50.036713 -79.266998 -21.193924
-51.016995 -77.384079 -21.455132
-50.906292 -58.042885 -32.27553
-50.917439 -59.783797 -31.399393
-50.86924 -56.289614 -33.070953
-49.906246 -58.199133 -32.388711
-50.906292 -58.042885 -32.27553
-50.65663 -51.029153 -35.456131
-50.746491 -52.786136 -34.664938
-50.545422 -49.26775 -36.163124
-49.610384 -51.174177 -35.401573
-50.65663 -51.029153 -35.456131
-44.611297 -22.738017 -45.038782
-45.398765 -24.331575 -44.477377
-43.708561 -23.084365 -44.503752
-44.611297 -22.738017 -45.038782
-25.294669 -73.93837 -20.063555
-24.147476 -75.470058 -19.388822
-24.693022 -76.089107 -19.865414
-30.955172 -41.664451 -31.063336
-30.278181 -41.326347 -30.721947
-30.542569 -43.119026 -29.996861
-22.346731 -101.650253 -21.449571
-22.011534 -103.346702 -21.550964
-23.66359 -101.668556 -21.923731
-22.758673 -99.886657 -21.328472
-22.346731 -101.650253 -21.449571
-23.93931 -94.342529 -21.165627
-23.567554 -96.227753 -21.181797
-25.095247 -94.493103 -21.675579
-24.402756 -92.396614 -21.13623
-23.93931 -94.342529 -21.165627
-27.285427 -53.625994 -23.15015
-27.313358 -51.645773 -23.824326
-26.589515 -53.014412 -22.904525
-34.777691 -95.853546 -24.597412
-33.461413 -96.371147 -24.471947
-30.172145 -13.34399 -47.556511
-29.823808 -12.023386 -48.232016
-30.57455 -14.723935 -46.781286
-31.14728 -13.509203 -47.648363
-30.172145 -13.34399 -47.556511
-31.824932 -18.87064 -44.474702
-31.392351 -17.488132 -45.239486
-32.796495 -19.127672 -44.448747
-31.824932 -18.87064 -44.474702
-37.688395 -12.661665 -49.355576
-37.346145 -11.105016 -50.39645
-38.562792 -17.383412 -46.334612
-38.293032 -15.80742 -47.314308
-37.519749 -16.495634 -46.71047
-38.708573 -19.045453 -45.328131
-39.481856 -18.357239 -45.931969
-38.562792 -17.383412 -46.334612
-46.371349 -85.705169 -21.513361
-46.3124 -87.052994 -20.86038
-47.232234 -85.020309 -20.858894
-43.697499 -87.652451 -23.261267
-44.598602 -87.018173 -22.719468
-44.654984 -85.535111 -23.253107
-42.729513 -88.348953 -23.769611
-42.673132 -89.832016 -23.235971
-43.697499 -87.652451 -23.261267
-51.452991 -71.374046 -24.878428
-52.377947 -71.142288 -24.471098
-50.555763 -71.703838 -25.339025
-50.452923 -73.294025 -24.450424
-51.452991 -71.374046 -24.878428
-47.705368 -42.459017 -38.374821
-47.44395 -40.645449 -38.940382
-46.817385 -44.449148 -37.578442
-47.903513 -44.262546 -37.835293
-47.705368 -42.459017 -38.374821
-24.574712 -64.695614 -19.384018
-25.183426 -65.469571 -19.704738
-24.9811 -62.566788 -19.808777
-24.574712 -64.695614 -19.384018
-25.930011 -61.220951 -20.572359
-25.287267 -60.457013 -20.293959
-24.9811 -62.566788 -19.808777
-33.029939 -6.421328 -52.524521
-34.177706 -6.896289 -52.558403
-32.348047 -7.471415 -51.683709
-33.029939 -6.421328 -52.524521
-31.647786 -8.500294 -50.858188
-32.734213 -8.836037 -50.942913
-32.348047 -7.471415 -51.683709
-52.025341 -75.606141 -21.775917
-51.016995 -77.384079 -21.455132
-24.158615 -78.231121 -19.661856
-23.520406 -80.372891 -19.527087
-25.305807 -76.699433 -20.336588
-24.693022 -76.089107 -19.865414
-24.158615 -78.231121 -19.661856
-30.076538 -44.630144 -28.920903
-29.616635 -46.050161 -27.861016
-30.753529 -44.968248 -29.262291
-30.542569 -43.119026 -29.996861
-30.076538 -44.630144 -28.920903
-24.972903 -101.57521 -22.39853
-26.35222 -101.419136 -22.834043
-25.308099 -99.878761 -22.297137
-23.66359 -101.668556 -21.923731
-24.972903 -101.57521 -22.39853
-37.243481 -94.678131 -24.551521
-35.994281 -95.28862 -24.620346
-38.4738 -92.510391 -24.641853
-37.243481 -94.678131 -24.551521
-38.37912 -94.046203 -24.375385
-49.906364 -65.184963 -29.103023
-50.855835 -64.994873 -28.832971
-50.892319 -63.260418 -29.673998
-47.199371 -38.829098 -39.448267
-46.864681 -37.008686 -39.986135
-46.37466 -40.829268 -38.625855
-47.44395 -40.645449 -38.940382
-47.199371 -38.829098 -39.448267
-25.288923 -68.311996 -19.724716
-24.735726 -70.463448 -19.437297
-25.746992 -66.167946 -20.077278
-25.288923 -68.311996 -19.724716
-26.292908 -66.871529 -20.479694
-26.18741 -64.029103 -20.459716
-25.183426 -65.469571 -19.704738
-25.746992 -66.167946 -20.077278
-31.066248 -35.298226 -34.611818
-30.713262 -36.71114 -33.588486
-31.452604 -33.825966 -35.602505
-31.066248 -35.298226 -34.611818
-31.857613 -35.4505 -34.863718
-31.816346 -32.423885 -36.571731
-31.452604 -33.825966 -35.602505
-32.635599 -32.541187 -36.770418
-32.207976 -30.986832 -37.487746
-31.816346 -32.423885 -36.571731
-31.056144 -95.564674 -23.991112
-29.53609 -97.5923 -23.610181
-30.835003 -97.242592 -23.971296
-36.159073 -10.363367 -50.637219
-37.346145 -11.105016 -50.39645
-34.598404 -8.341362 -51.682671
-34.177706 -6.896289 -52.558403
-35.010711 -9.766333 -50.825127
-34.598404 -8.341362 -51.682671
-33.846783 -9.232128 -50.910889
-35.407452 -11.254134 -49.865437
-36.159073 -10.363367 -50.637219
-35.010711 -9.766333 -50.825127
-48.083902 -84.435563 -20.244335
-48.913507 -83.77652 -19.580849
-48.14285 -83.087738 -20.897316
-47.232234 -85.020309 -20.858894
-48.083902 -84.435563 -20.244335
-49.949888 -80.647522 -20.459339
-49.837252 -81.950619 -19.679064
-49.081342 -81.122467 -21.017342
-49.949888 -80.647522 -20.459339
-50.036713 -79.266998 -21.193924
-50.917214 -61.532849 -30.574774
-50.892319 -63.260418 -29.673998
-49.943073 -61.701456 -30.768669
-50.917214 -61.532849 -30.574774
-50.917439 -59.783797 -31.399393
-50.820291 -54.541277 -33.909715
-50.86924 -56.289614 -33.070953
-49.795393 -54.690721 -33.939357
-50.820291 -54.541277 -33.909715
-50.746491 -52.786136 -34.664938
-46.137754 -33.393479 -40.999567
-46.559509 -35.19643 -40.475156
-45.755669 -31.615049 -41.482776
-45.137652 -33.609975 -40.594991
-46.137754 -33.393479 -40.999567
-45.234327 -29.865422 -42.005177
-45.755669 -31.615049 -41.482776
-44.75917 -28.161441 -42.491831
-44.280409 -30.127564 -41.564856
-45.234327 -29.865422 -42.005177
-45.08276 -26.246723 -43.45706
-45.398765 -24.331575 -44.477377
-44.128842 -26.508865 -43.016739
-44.75917 -28.161441 -42.491831
-45.08276 -26.246723 -43.45706
-42.803429 -23.416603 -44.029879
-43.547298 -24.926385 -43.508095
-43.708561 -23.084365 -44.503752
-42.107492 -22.002713 -44.516075
-41.94623 -23.844733 -43.520418
-42.803429 -23.416603 -44.029879
-23.554174 -74.768517 -18.962196
-24.147476 -75.470058 -19.388822
-24.192867 -72.615319 -19.167213
-23.554174 -74.768517 -18.962196
-25.291981 -71.16745 -19.857048
-24.735726 -70.463448 -19.437297
-24.192867 -72.615319 -19.167213
-29.961393 -39.585708 -31.492754
-30.278181 -41.326347 -30.721947
-30.323025 -38.185646 -32.546181
-29.961393 -39.585708 -31.492754
-31.081021 -38.397267 -32.830727
-30.713262 -36.71114 -33.588486
-30.323025 -38.185646 -32.546181
-28.187321 -97.849899 -23.200966
-27.96618 -99.527817 -23.181151
-29.53609 -97.5923 -23.610181
-23.121026 -98.089767 -21.263178
-22.758673 -99.886657 -21.328472
-24.36114 -98.175217 -21.757044
-23.121026 -98.089767 -21.263178
-23.567554 -96.227753 -21.181797
-24.770332 -90.4376 -21.177433
-24.402756 -92.396614 -21.13623
-25.834579 -90.648865 -21.700612
-23.805352 -90.171989 -20.642851
-24.770332 -90.4376 -21.177433
-25.237175 -88.42424 -21.207231
-22.834927 -89.78656 -20.152956
-23.805352 -90.171989 -20.642851
-23.401798 -87.72731 -20.17683
-22.834927 -89.78656 -20.152956
-23.863748 -85.663094 -20.268726
-23.401798 -87.72731 -20.17683
-24.734144 -86.094414 -20.764545
-24.429029 -83.562733 -20.351883
-23.096684 -85.195629 -19.764167
-23.863748 -85.663094 -20.268726
-27.943753 -50.315964 -24.78076
-27.313358 -51.645773 -23.824326
-28.6227 -50.837374 -25.072029
-28.557184 -48.895983 -25.782839
-27.943753 -50.315964 -24.78076
-32.186451 -96.842545 -24.261999
-30.835003 -97.242592 -23.971296
-33.630019 -94.743569 -24.562174
-32.186451 -96.842545 -24.261999
-33.461413 -96.371147 -24.471947
-36.121571 -93.707245 -24.795055
-34.777691 -95.853546 -24.597412
-35.994281 -95.28862 -24.620346
-31.021902 -9.65382 -49.980896
-31.647786 -8.500294 -50.858188
-30.377364 -10.785991 -49.133993
-29.823808 -12.023386 -48.232016
-31.389413 -10.997086 -49.270491
-31.021902 -9.65382 -49.980896
-30.377364 -10.785991 -49.133993
-30.974137 -16.079389 -46.04796
-30.57455 -14.723935 -46.781286
-31.967898 -16.297891 -46.064664
-30.974137 -16.079389 -46.04796
-31.392351 -17.488132 -45.239486
-33.813237 -19.510306 -44.332159
-33.402853 -18.089268 -45.139603
-32.796495 -19.127672 -44.448747
-34.141962 -20.965674 -43.503496
-34.748319 -19.927269 -44.194351
-33.813237 -19.510306 -44.332159
-34.520387 -22.368478 -42.735166
-34.141962 -20.965674 -43.503496
-34.769415 -23.757021 -41.988833
-35.326072 -22.77118 -42.619354
-34.520387 -22.368478 -42.735166
-35.103163 -25.093241 -41.302797
-34.769415 -23.757021 -41.988833
-35.244837 -26.241492 -40.725069
-35.716774 -25.307973 -41.295292
-35.103163 -25.093241 -41.302797
-41.251741 -20.676508 -45.017738
-42.107492 -22.002713 -44.516075
-38.035483 -14.195902 -48.361894
-37.688395 -12.661665 -49.355576
-36.902901 -13.385404 -48.683847
-38.035483 -14.195902 -48.361894
-38.293032 -15.80742 -47.314308
-40.440413 -19.470726 -45.477175
-39.481856 -18.357239 -45.931969
-40.438965 -21.225061 -44.466051
-41.251741 -20.676508 -45.017738
-40.440413 -19.470726 -45.477175
-45.416805 -89.046341 -20.93696
-46.3124 -87.052994 -20.86038
-44.51086 -89.810395 -21.605764
-45.416805 -89.046341 -20.93696
-44.546316 -88.436684 -22.121237
-45.503801 -86.319344 -22.113077
-44.598602 -87.018173 -22.719468
-44.51086 -89.810395 -21.605764
-44.546316 -88.436684 -22.121237
-41.657064 -91.962128 -23.302271
-42.673132 -89.832016 -23.235971
-40.588819 -92.690873 -23.747235
-41.657064 -91.962128 -23.302271
-40.657293 -91.203491 -24.105017
-39.540966 -93.365845 -24.107935
-40.588819 -92.690873 -23.747235
-52.152619 -74.173371 -22.67775
-52.025341 -75.606141 -21.775917
-52.263329 -72.667434 -23.535492
-52.377947 -71.142288 -24.471098
-51.239441 -74.470169 -23.132084
-52.152619 -74.173371 -22.67775
-52.263329 -72.667434 -23.535492
-50.797854 -66.695835 -27.921658
-50.855835 -64.994873 -28.832971
-50.730097 -68.398441 -27.078076
-50.797854 -66.695835 -27.921658
-49.802124 -68.622024 -27.418415
-50.6451 -70.054245 -26.170931
-50.730097 -68.398441 -27.078076
-49.645031 -71.974224 -25.742928
-50.555763 -71.703838 -25.339025
-50.6451 -70.054245 -26.170931
-50.408276 -47.496319 -36.900835
-50.545422 -49.26775 -36.163124
-49.346725 -47.637518 -36.763918
-50.408276 -47.496319 -36.900835
-48.266979 -47.843252 -36.648577
-48.41943 -49.618507 -35.993225
-49.346725 -47.637518 -36.763918
-48.104902 -46.057471 -37.229092
-47.903513 -44.262546 -37.835293
-47.177607 -48.03846 -36.458399
-48.266979 -47.843252 -36.648577
-48.104902 -46.057471 -37.229092
-25.55285 -58.370611 -20.823505
-25.287267 -60.457013 -20.293959
-26.398881 -57.052904 -21.643946
-25.55285 -58.370611 -20.823505
-27.215782 -55.651711 -22.516829
-26.398881 -57.052904 -21.643946
-27.053079 -57.709982 -21.930424
-27.939625 -54.283071 -23.436628
-27.285427 -53.625994 -23.15015
-27.215782 -55.651711 -22.516829
-32.595709 -29.629303 -38.382561
-32.207976 -30.986832 -37.487746
-32.993097 -28.277765 -39.203404
-32.595709 -29.629303 -38.382561
-33.424617 -29.752596 -38.507275
-33.415598 -27.00974 -40.008015
-32.993097 -28.277765 -39.203404
-34.226616 -27.213909 -40.030345
-33.415598 -27.00974 -40.008015
-34.966707 -27.291488 -40.155673
-34.226616 -27.213909 -40.030345
-34.562098 -28.478637 -39.453445
-35.580319 -27.506219 -40.148168
-35.244837 -26.241492 -40.725069
-34.966707 -27.291488 -40.155673
3 1 69 67
3 1 71 69
3 3 266 267
3 3 268 269
3 3 270 272
3 270 73 271
3 270 271 272
3 2 76 74
3 2 78 76
3 4 273 274
3 4 275 277
3 275 79 276
3 275 276 277
3 278 80 279
3 5 83 81
3 5 85 83
3 5 87 85
3 7 90 88
3 7 92 90
3 280 94 281
3 8 97 95
3 8 99 97
3 10 102 100
3 10 104 102
3 11 107 105
3 11 109 107
3 11 111 109
3 12 114 112
3 12 116 114
3 13 282 284
3 282 117 283
3 282 283 284
3 13 119 117
3 13 121 119
3 9 124 122
3 9 126 124
3 15 128 127
3 15 130 128
3 6 133 131
3 16 136 134
3 16 138 136
3 16 140 138
3 14 143 141
3 14 145 143
3 17 147 146
3 17 149 147
3 18 152 150
3 20 153 68
3 20 154 153
3 20 156 154
3 22 157 70
3 22 158 157
3 24 159 72
3 24 160 159
3 285 161 286
3 285 286 287
3 26 288 290
3 288 162 289
3 288 289 290
3 26 163 162
3 291 164 292
3 293 166 294
3 295 294 164
3 293 294 295
3 296 167 297
3 298 168 299
3 300 299 167
3 298 299 300
3 301 170 302
3 304 303 170
3 29 305 307
3 305 171 306
3 305 306 307
3 29 172 171
3 30 175 173
3 32 176 75
3 32 177 176
3 32 179 177
3 34 180 77
3 34 181 180
3 35 308 310
3 308 182 309
3 308 309 310
3 35 183 182
3 36 311 313
3 311 312 313
3 36 314 315
3 19 184 151
3 37 185 82
3 37 316 318
3 318 317 185
3 316 317 318
3 37 319 320
3 38 186 84
3 38 187 186
3 38 189 187
3 40 190 86
3 40 191 190
3 21 192 155
3 41 193 89
3 41 194 193
3 41 195 194
3 42 196 91
3 42 197 196
3 321 198 322
3 321 322 323
3 324 199 325
3 43 200 93
3 43 201 200
3 326 202 327
3 328 203 329
3 330 329 202
3 328 329 330
3 331 204 332
3 334 333 204
3 23 335 336
3 45 337 339
3 339 338 96
3 337 338 339
3 45 340 342
3 340 206 341
3 340 341 342
3 45 207 206
3 44 208 98
3 44 205 208
3 25 343 345
3 343 210 344
3 343 344 345
3 47 346 348
3 348 347 101
3 346 347 348
3 47 349 351
3 349 211 350
3 349 350 351
3 47 212 211
3 48 213 103
3 48 214 213
3 352 215 353
3 354 216 355
3 356 355 215
3 354 355 356
3 49 217 106
3 49 218 217
3 49 219 218
3 50 220 108
3 50 221 220
3 50 222 221
3 51 223 110
3 51 224 223
3 27 225 165
3 52 226 113
3 52 227 226
3 52 228 227
3 53 229 115
3 53 230 229
3 54 357 358
3 54 359 361
3 359 231 360
3 359 360 361
3 54 232 231
3 55 233 118
3 55 234 233
3 55 235 234
3 56 236 120
3 56 237 236
3 28 238 169
3 57 239 123
3 57 240 239
3 57 241 240
3 46 242 125
3 46 209 242
3 59 362 363
3 59 364 365
3 59 366 368
3 366 244 367
3 366 367 368
3 60 245 129
3 60 246 245
3 39 247 188
3 61 248 132
3 61 249 248
3 31 250 174
3 62 251 135
3 62 252 251
3 62 253 252
3 63 254 137
3 63 255 254
3 63 256 255
3 64 257 139
3 64 258 257
3 33 259 178
3 65 260 142
3 65 261 260
3 65 262 261
3 58 263 144
3 58 243 263
3 66 265 148
3 66 264 265
3 67 68 18
3 69 68 67
3 69 20 68
3 69 70 20
3 71 70 69
3 71 22 70
3 369 72 370
3 371 72 372
3 373 24 374
3 375 374 72
3 373 374 375
3 376 26 377
3 73 378 379
3 73 380 382
3 380 29 381
3 380 381 382
3 74 75 30
3 76 75 74
3 76 32 75
3 76 77 32
3 78 77 76
3 78 34 77
3 79 383 384
3 79 385 387
3 385 35 386
3 385 386 387
3 80 388 389
3 80 390 392
3 390 36 391
3 390 391 392
3 81 82 19
3 83 82 81
3 83 37 82
3 83 84 37
3 85 84 83
3 85 38 84
3 85 86 38
3 87 86 85
3 87 40 86
3 88 89 21
3 90 89 88
3 90 41 89
3 90 91 41
3 92 91 90
3 92 42 91
3 393 93 394
3 94 395 397
3 395 93 396
3 395 396 397
3 94 43 93
3 95 96 23
3 97 96 95
3 97 45 96
3 97 98 45
3 99 98 97
3 99 44 98
3 100 101 25
3 102 101 100
3 102 47 101
3 102 103 47
3 104 103 102
3 104 48 103
3 105 398 400
3 398 106 399
3 398 399 400
3 107 106 105
3 107 49 106
3 107 108 49
3 109 108 107
3 109 50 108
3 109 110 50
3 111 110 109
3 111 51 110
3 112 113 27
3 114 113 112
3 114 52 113
3 114 115 52
3 116 115 114
3 116 53 115
3 117 401 402
3 117 403 405
3 403 54 404
3 403 404 405
3 117 118 54
3 119 118 117
3 119 55 118
3 119 120 55
3 121 120 119
3 121 56 120
3 122 123 28
3 124 123 122
3 124 57 123
3 124 125 57
3 126 125 124
3 126 46 125
3 127 406 407
3 128 408 410
3 410 409 127
3 408 409 410
3 128 411 413
3 411 59 412
3 411 412 413
3 128 129 59
3 130 129 128
3 130 60 129
3 131 132 39
3 133 132 131
3 133 61 132
3 134 135 31
3 136 135 134
3 136 62 135
3 136 137 62
3 138 137 136
3 138 63 137
3 138 139 63
3 140 139 138
3 140 64 139
3 141 142 33
3 143 142 141
3 143 65 142
3 143 144 65
3 145 144 143
3 145 58 144
3 146 414 415
3 147 416 418
3 418 417 146
3 416 417 418
3 147 419 420
3 147 421 423
3 421 148 422
3 421 422 423
3 149 148 147
3 149 66 148
3 150 424 426
3 424 151 425
3 424 425 426
3 152 151 150
3 152 19 151
3 68 152 18
3 153 152 68
3 153 19 152
3 153 81 19
3 154 81 153
3 154 5 81
3 154 155 5
3 156 155 154
3 156 21 155
3 70 156 20
3 157 156 70
3 157 21 156
3 157 88 21
3 158 88 157
3 158 7 88
3 427 23 428
3 72 429 430
3 159 431 433
3 433 432 72
3 431 432 433
3 159 434 436
3 434 23 435
3 434 435 436
3 159 95 23
3 160 95 159
3 160 8 95
3 161 437 438
3 161 439 441
3 439 25 440
3 439 440 441
3 442 161 443
3 162 444 446
3 444 161 445
3 444 445 446
3 162 25 161
3 162 100 25
3 163 100 162
3 163 10 100
3 447 105 448
3 164 449 451
3 449 105 450
3 449 450 451
3 164 11 105
3 164 165 11
3 166 165 164
3 166 27 165
3 452 166 453
3 167 454 456
3 454 166 455
3 454 455 456
3 167 27 166
3 167 112 27
3 168 112 167
3 168 12 112
3 457 13 458
3 459 169 460
3 461 460 13
3 459 460 461
3 462 169 463
3 464 28 465
3 466 465 169
3 464 465 466
3 170 467 468
3 170 469 471
3 469 28 470
3 469 470 471
3 170 122 28
3 472 122 473
3 474 473 170
3 472 473 474
3 475 9 476
3 477 476 122
3 475 476 477
3 171 478 479
3 171 480 481
3 171 482 484
3 482 127 483
3 482 483 484
3 172 127 171
3 172 15 127
3 173 174 6
3 175 174 173
3 175 31 174
3 75 175 30
3 176 175 75
3 176 31 175
3 176 134 31
3 177 134 176
3 177 16 134
3 177 178 16
3 179 178 177
3 179 33 178
3 77 179 32
3 180 179 77
3 180 33 179
3 180 141 33
3 181 141 180
3 181 14 141
3 182 485 486
3 182 487 488
3 182 489 491
3 489 146 490
3 489 490 491
3 183 146 182
3 183 17 146
3 151 492 494
3 492 80 493
3 492 493 494
3 184 80 151
3 184 36 80
3 82 184 19
3 185 184 82
3 185 36 184
3 185 495 497
3 497 496 36
3 495 496 497
3 499 498 185
3 84 500 502
3 502 501 37
3 500 501 502
3 186 503 505
3 505 504 84
3 503 504 505
3 186 506 507
3 186 508 509
3 187 510 512
3 512 511 186
3 510 511 512
3 187 513 515
3 513 3 514
3 513 514 515
3 187 188 3
3 189 188 187
3 189 39 188
3 86 189 38
3 190 189 86
3 190 39 189
3 190 131 39
3 191 131 190
3 191 6 131
3 155 87 5
3 192 87 155
3 192 40 87
3 89 192 21
3 193 192 89
3 193 40 192
3 193 191 40
3 194 191 193
3 194 6 191
3 194 173 6
3 195 173 194
3 195 30 173
3 91 195 41
3 196 195 91
3 196 30 195
3 196 74 30
3 197 74 196
3 197 2 74
3 198 516 517
3 198 518 520
3 518 4 519
3 518 519 520
3 521 150 522
3 199 523 525
3 523 150 524
3 523 524 525
3 199 18 150
3 93 526 528
3 526 199 527
3 526 527 528
3 200 199 93
3 200 18 199
3 200 67 18
3 201 67 200
3 201 1 67
3 529 24 530
3 202 531 532
3 202 533 535
3 533 24 534
3 533 534 535
3 202 160 24
3 203 160 202
3 203 8 160
3 536 203 537
3 204 538 540
3 538 203 539
3 538 539 540
3 204 8 203
3 204 99 8
3 541 99 542
3 543 542 204
3 541 542 543
3 544 44 545
3 546 545 99
3 544 545 546
3 547 44 548
3 549 205 550
3 551 550 44
3 549 550 551
3 552 205 553
3 554 0 555
3 556 555 205
3 554 555 556
3 557 9 558
3 96 559 561
3 561 560 23
3 559 560 561
3 563 562 96
3 206 564 565
3 206 566 568
3 566 9 567
3 566 567 568
3 206 126 9
3 207 126 206
3 207 46 126
3 98 207 45
3 208 207 98
3 208 46 207
3 208 209 46
3 205 209 208
3 205 0 209
3 210 569 570
3 210 571 572
3 101 210 25
3 573 210 574
3 575 574 101
3 573 574 575
3 577 576 210
3 211 578 579
3 211 580 581
3 211 582 584
3 582 94 583
3 582 583 584
3 212 94 211
3 212 43 94
3 103 212 47
3 213 212 103
3 213 43 212
3 213 201 43
3 214 201 213
3 214 1 201
3 585 26 586
3 215 587 588
3 215 589 591
3 589 26 590
3 589 590 591
3 215 163 26
3 216 163 215
3 216 10 163
3 106 592 593
3 217 594 596
3 596 595 106
3 594 595 596
3 217 597 598
3 217 599 601
3 599 216 600
3 599 600 601
3 218 216 217
3 218 10 216
3 218 104 10
3 219 104 218
3 219 48 104
3 108 219 49
3 220 219 108
3 220 48 219
3 220 214 48
3 221 214 220
3 221 1 214
3 221 71 1
3 222 71 221
3 222 22 71
3 110 222 50
3 223 222 110
3 223 22 222
3 223 158 22
3 224 158 223
3 224 7 158
3 165 111 11
3 225 111 165
3 225 51 111
3 113 225 27
3 226 225 113
3 226 51 225
3 226 224 51
3 227 224 226
3 227 7 224
3 227 92 7
3 228 92 227
3 228 42 92
3 115 228 52
3 229 228 115
3 229 42 228
3 229 197 42
3 230 197 229
3 230 2 197
3 602 168 603
3 604 168 605
3 606 12 607
3 608 607 168
3 606 607 608
3 231 609 610
3 231 611 613
3 611 12 612
3 611 612 613
3 231 116 12
3 232 116 231
3 232 53 116
3 118 232 54
3 233 232 118
3 233 53 232
3 233 230 53
3 234 230 233
3 234 2 230
3 234 78 2
3 235 78 234
3 235 34 78
3 120 235 55
3 236 235 120
3 236 34 235
3 236 181 34
3 237 181 236
3 237 14 181
3 169 121 13
3 238 121 169
3 238 56 121
3 123 238 28
3 239 238 123
3 239 56 238
3 239 237 56
3 240 237 239
3 240 14 237
3 240 145 14
3 241 145 240
3 241 58 145
3 125 241 57
3 242 241 125
3 242 58 241
3 242 243 58
3 209 243 242
3 209 0 243
3 244 614 615
3 244 616 617
3 129 244 59
3 245 244 129
3 245 618 620
3 620 619 244
3 618 619 620
3 245 621 623
3 621 198 622
3 621 622 623
3 246 198 245
3 246 4 198
3 188 73 3
3 247 73 188
3 247 29 73
3 132 247 39
3 248 247 132
3 248 29 247
3 248 172 29
3 249 172 248
3 249 15 172
3 174 133 6
3 250 133 174
3 250 61 133
3 135 250 31
3 251 250 135
3 251 61 250
3 251 249 61
3 252 249 251
3 252 15 249
3 252 130 15
3 253 130 252
3 253 60 130
3 137 253 62
3 254 253 137
3 254 60 253
3 254 246 60
3 255 246 254
3 255 4 246
3 255 79 4
3 256 79 255
3 256 35 79
3 139 256 63
3 257 256 139
3 257 35 256
3 257 183 35
3 258 183 257
3 258 17 183
3 178 140 16
3 259 140 178
3 259 64 140
3 142 259 33
3 260 259 142
3 260 64 259
3 260 258 64
3 261 258 260
3 261 17 258
3 261 149 17
3 262 149 261
3 262 66 149
3 144 262 65
3 263 262 144
3 263 66 262
3 263 264 66
3 243 264 263
3 243 0 264
3 148 624 625
3 265 626 628
3 628 627 148
3 626 627 628
3 265 629 630
3 265 631 632
3 264 633 635
3 635 634 265
3 633 634 635
3 264 636 638
3 636 0 637
3 636 637 638
