ply
format ascii 1.0
element vertex 916
property float x
property float y
property float z
element face 1212
property list uchar int vertex_index
end_header
-45.400036 -86.574341 31.810211
-52.850601 -74.458397 43.839745
-52.526474 -69.792984 23.190603
-40.016655 -84.073975 48.984306
-45.184036 -98.729141 11.842463
-27.519571 -84.422577 45.103256
-37.25843 -101.365616 29.58073
-57.831512 -67.949242 39.924309
-49.987972 -70.74791 48.404732
-45.876541 -92.557465 22.219387
-48.178932 -89.137756 11.331538
-46.866779 -83.164093 19.715252
-43.506447 -88.177216 43.0163
-37.957424 -93.676849 42.487
-42.675873 -95.339355 33.250954
-41.905926 -101.659866 21.040045
-47.93259 -80.802078 39.245567
-47.384155 -77.660568 27.690174
-52.697014 -73.405891 34.070724
-59.11932 -66.94075 29.727039
-36.900009 -64.658722 48.27784
-35.113655 -75.167343 49.291267
-42.62093 -73.464813 48.518192
-46.980003 -79.979408 47.526886
-49.385509 -74.026253 16.132332
-25.764318 -92.772156 33.340504
-33.277184 -85.583252 47.480282
-32.068024 -94.31073 37.324112
-30.017879 -102.797394 24.016659
-34.128521 -108.646484 16.748699
-37.577251 -108.005997 9.18726
-45.541981 -89.549271 27.168438
-46.476921 -87.842224 21.24468
-45.992783 -84.871994 25.703562
-44.640457 -87.874329 37.736927
-42.790749 -91.902908 38.659046
-44.380825 -91.080673 33.072521
-44.522537 -94.182297 27.81094
-50.460625 -77.822784 41.793259
-50.152596 -77.048141 36.670296
-52.998028 -74.415344 39.276321
-58.507629 -67.728058 34.881512
-39.630035 -69.003937 47.795219
-43.464146 -68.145523 47.707409
-51.902527 -73.262314 47.054054
-48.76989 -75.497238 48.121307
-50.094505 -77.380058 45.845947
-47.835995 -81.10379 44.137321
-43.687157 -101.979141 6.569473
-46.518623 -97.151764 7.213075
-49.334381 -84.417664 10.238631
-49.6991 -87.15918 6.33637
-49.452171 -73.531342 25.404667
-47.823647 -75.77594 21.795273
-50.127441 -71.548882 19.738094
-26.737583 -88.310913 39.441677
-37.659943 -79.893646 49.350964
-34.170563 -80.515259 49.257622
-36.519485 -85.251129 48.541912
-37.606953 -97.715546 36.450439
-35.003574 -94.653625 40.251244
-34.612648 -98.629761 33.536285
-31.397564 -98.38327 30.432529
-33.853561 -102.490463 26.544121
-32.149452 -106.588074 20.298494
-36.25523 -104.9263 22.797335
-43.660095 -100.285309 16.486593
-40.240597 -104.782043 14.953961
-41.97155 -103.409164 10.78643
-54.556 -70.593796 45.775803
-55.342194 -71.262466 41.778847
-56.922287 -67.556671 44.449211
-47.220993 -67.129433 48.161678
-53.014656 -68.794449 48.202717
-45.867462 -95.605682 17.087057
-47.084053 -93.951767 11.988992
-46.984528 -90.869705 16.664846
-47.616196 -86.164597 15.537721
-48.500832 -81.537582 14.096596
-56.425537 -66.474396 21.163143
-41.969482 -86.960114 46.952003
-38.756397 -89.100464 46.812317
-40.862144 -91.371826 43.439331
-40.394203 -95.359695 38.278084
-40.237991 -98.930817 32.045212
-39.769516 -102.254395 25.416622
-42.584373 -98.549118 27.245358
-44.436371 -97.229477 22.218061
-46.100227 -83.662247 35.913288
-46.188248 -82.053932 29.899471
-47.614738 -79.480537 33.597424
-49.630905 -75.47052 31.101959
-52.389652 -71.767502 28.659275
-55.622501 -70.994362 36.892731
-55.7024 -70.007782 31.699839
-55.883682 -68.468536 26.443747
-32.917358 -70.689163 50.352173
-36.028374 -69.822289 48.653988
-38.740082 -74.412628 48.738979
-41.419792 -78.805901 49.26865
-46.46447 -72.273636 48.463253
-45.207745 -77.331078 48.873398
-43.571938 -82.244049 48.634125
-45.020126 -84.194366 45.971603
-45.80864 -84.558624 41.485371
-48.225975 -92.147049 7.05451
-46.545677 -80.252274 23.826097
-47.715607 -78.552383 17.964563
-31.952684 -75.76078 50.268879
-31.088272 -80.663597 49.169453
-30.330414 -85.147995 46.169052
-35.576607 -90.22641 45.515491
-32.578674 -90.161179 43.384155
-29.694 -89.24324 41.083267
-29.017675 -93.327957 34.681599
-27.883621 -97.889725 28.287685
-27.563839 -107.747177 18.92532
-29.291946 -111.054276 15.263133
-38.396584 -105.54007 18.970121
-35.873718 -108.930817 13.063439
-45.40501 -88.056366 29.539925
-45.800316 -87.208435 26.51063
-45.69368 -85.741776 28.758949
-45.060249 -87.309738 34.819191
-44.420307 -89.49173 35.49958
-44.956406 -88.840195 32.54937
-45.010227 -90.363983 30.138569
-51.720222 -76.202194 42.85355
-51.731163 -76.129845 40.536346
-53.005394 -74.577698 41.679478
-41.868462 -65.940659 47.378128
-52.492802 -74.026268 45.660149
-51.082893 -75.372604 46.480728
-51.516293 -75.958817 44.866886
-50.384644 -77.773842 44.001923
-44.535366 -100.335312 9.203323
-45.27766 -99.591248 6.994066
-45.879375 -97.952026 9.520179
-50.464432 -83.453247 7.761547
-50.867725 -71.60788 24.281042
-49.658806 -72.533554 22.558054
-51.144226 -70.585609 21.492596
-26.098387 -84.179718 44.824593
-25.656727 -86.086609 42.041069
-27.132235 -86.330795 42.406837
-38.882671 -82.103943 49.317379
-37.082733 -82.603783 49.187782
-38.246681 -84.759613 48.856476
-37.473003 -99.571671 33.059036
-36.131634 -98.353088 35.083794
-35.934193 -100.228149 31.583273
-34.319878 -100.549667 30.001638
-35.608749 -102.07634 28.071447
-35.074883 -103.942001 24.668268
-36.877052 -103.138229 26.128387
-44.443558 -99.507904 14.169056
-42.931744 -101.834396 13.622867
-43.747299 -101.080994 11.416284
-42.837425 -102.686417 8.678363
-55.135696 -68.512161 46.775528
-55.755054 -69.112747 45.106812
-56.314575 -67.079346 46.309311
-54.341141 -67.642868 48.022064
-53.889805 -69.843071 47.216797
-45.939575 -94.07486 19.671549
-46.533714 -93.238617 16.990099
-46.439247 -91.711929 19.425671
-46.652023 -85.496109 20.52387
-46.993065 -87.000671 18.349941
-47.233643 -84.665146 17.629288
-47.990433 -83.84111 14.83821
-47.566711 -82.346519 16.846558
-42.788349 -87.779678 45.197884
-41.333878 -89.212784 45.425751
-42.227798 -89.853348 43.388741
-42.689674 -93.656006 36.057655
-41.655922 -93.734833 38.649895
-41.573753 -95.534668 35.838531
-40.312824 -97.18959 35.252674
-41.537983 -97.25116 32.826096
-41.465897 -98.90303 29.682407
-42.668053 -96.96489 30.296089
-45.251148 -93.393921 25.022064
-44.541882 -95.70845 25.042904
-45.287769 -94.907791 22.362566
-45.19136 -96.427826 19.657553
-46.885273 -82.231979 37.683998
-46.819248 -81.558266 34.794991
-47.797455 -80.236382 36.477505
-51.373238 -75.205139 35.356232
-49.884769 -76.330811 33.915588
-51.122883 -74.452026 32.628525
-50.911903 -73.572586 29.861773
-52.514946 -72.644882 31.377035
-56.569221 -69.607544 40.811756
-55.526726 -71.231201 39.403114
-56.827232 -69.554962 38.367485
-58.812782 -67.407181 32.306412
-57.202026 -68.955391 33.250862
-57.375488 -68.433052 30.657345
-55.762367 -69.299721 29.075397
-57.574638 -67.769287 28.059872
-36.471416 -67.21315 48.394547
-41.13839 -71.262955 48.097183
-39.211128 -71.691284 48.245743
-40.666191 -73.964996 48.596828
-40.122791 -76.683205 49.055943
-42.06073 -76.137222 48.958206
-48.692448 -69.051254 48.427872
-46.900631 -69.707512 48.26561
-48.281097 -71.559143 48.444229
-47.93079 -77.774017 47.904022
-47.031845 -76.460632 48.540962
-46.208954 -78.835938 48.460945
-44.416756 -79.808167 48.889561
-45.305 -81.156639 48.166069
-44.384945 -83.422714 47.565117
-45.98262 -82.117332 46.905846
-47.961578 -81.111008 41.829571
-46.74506 -82.854599 42.947678
-46.875908 -82.686752 40.429222
-46.00219 -84.235931 38.788052
-47.678932 -91.541428 11.739542
-47.657463 -93.084869 9.495378
-48.279331 -90.629501 9.204854
-50.635231 -86.025726 3.964509
-46.698944 -79.833138 28.815769
-46.298111 -81.1521 26.852566
-46.78532 -78.904083 25.804066
-48.448738 -74.882935 18.921604
-47.604462 -77.113083 19.893995
-48.440239 -76.276962 17.055454
-48.72464 -77.751831 15.187735
-49.58707 -75.467178 14.327221
-52.439972 -68.530502 16.001375
-33.928806 -72.854858 49.602261
-33.467915 -75.481323 49.726082
-33.708439 -83.101776 48.641911
-32.577461 -80.642166 49.20163
-32.158649 -83.100769 48.291557
-30.693533 -82.965225 47.941017
-31.77322 -85.440887 46.82679
-38.289448 -91.455414 44.906006
-37.148991 -89.810745 46.297565
-36.754951 -92.150116 44.157791
-33.539322 -94.61972 38.818901
-33.767883 -92.535812 41.891705
-32.313343 -92.272629 40.541183
-31.133974 -89.764938 42.203979
-30.85968 -91.805832 39.192432
-29.382141 -91.254623 37.968903
-30.567116 -93.834824 35.899651
-30.828121 -100.527359 27.09527
-29.677097 -98.09816 29.171328
-28.946684 -100.429199 26.063141
-26.996378 -100.442322 25.47765
-27.95899 -102.923569 23.287027
-26.695765 -105.570511 20.899437
-28.931341 -105.207809 21.282932
-33.168495 -107.852005 18.526405
-30.857635 -108.77919 17.629169
-31.769527 -109.921112 15.863333
-30.112507 -112.054901 13.453334
-32.628647 -110.595963 14.073153
-40.891636 -102.101547 23.253872
-39.222717 -103.890991 22.141602
-40.259579 -103.688019 20.078257
-39.015316 -106.376053 12.025162
-38.152935 -106.910187 14.004572
-36.710651 -108.568237 11.143314
-34.247746 -110.68692 10.33458
-35.085224 -110.266937 8.394167
-45.724232 -91.049698 24.72221
-46.248547 -90.198303 21.828674
-46.013077 -88.696274 24.193996
-46.194977 -86.34584 23.494688
-46.361504 -84.006042 22.677969
-44.12402 -88.188614 40.497433
-43.048302 -90.075623 40.996407
-43.78318 -89.930923 38.338394
-43.638889 -91.622131 35.930515
-43.62645 -93.262604 33.322769
-43.665222 -94.858368 30.563005
-44.44305 -92.64241 30.497446
-45.135742 -91.880951 27.620611
-49.1609 -79.344391 40.605721
-49.014355 -78.918419 37.979088
-50.365372 -77.564346 39.319336
-51.596794 -75.78154 38.010818
-52.877209 -74.010422 36.717918
-59.146561 -66.310852 39.133682
-58.186913 -67.909225 37.433823
-38.560226 -64.192551 47.660744
-38.186874 -66.777176 47.807732
-39.998283 -66.357651 47.474449
-41.537521 -68.586563 47.666386
-43.08847 -70.798477 48.069576
-51.065952 -72.16391 47.968483
-49.458801 -73.151711 48.264088
-50.398193 -74.433449 47.621979
-49.560577 -76.620972 47.236771
-48.580551 -78.720062 46.743385
-47.517784 -80.735077 46.066963
-48.985424 -79.285866 45.086037
-49.167027 -79.483101 43.007378
-48.699631 -86.759003 10.81653
-48.886787 -88.192307 8.78968
-49.591175 -85.796478 8.2969
-50.634186 -84.746201 5.875464
-48.292953 -75.554016 26.546623
-47.485504 -76.707275 24.72739
-48.437904 -74.578369 23.640579
-48.842438 -73.624435 20.764593
-49.542267 -72.702591 17.943172
-25.203945 -88.140579 39.102676
-26.298698 -90.438446 36.363884
-36.383862 -77.546188 49.272465
-34.643471 -77.857727 49.429268
-35.868954 -80.266663 49.315147
-35.351784 -82.939011 48.952541
-34.858685 -85.526947 48.069359
-37.745045 -95.759659 39.633163
-36.476318 -94.346039 41.504333
-36.286861 -96.40538 38.437176
-34.813934 -96.68071 37.004272
-33.319748 -96.625854 35.445866
-31.786509 -96.328384 33.896431
-33.039711 -98.605087 31.937052
-32.620438 -100.611572 28.455582
-31.988752 -102.692947 25.14448
-31.091286 -104.881638 22.111246
-33.144577 -104.494278 23.282438
-34.271709 -105.860275 21.467161
-35.344215 -106.757324 19.657846
-42.821594 -101.025009 18.781101
-41.208359 -103.213745 17.965801
-42.090679 -102.566452 15.810397
-41.107559 -104.127029 12.882888
-39.89473 -105.717468 10.015421
-38.504368 -107.346069 7.21634
-40.807983 -105.018478 7.992207
-41.745289 -104.329315 5.969726
-53.800045 -72.584854 44.8018
-54.115517 -72.88736 42.798927
-55.03051 -71.059296 43.934654
-56.222733 -69.468765 43.088394
-57.418739 -67.83799 42.290352
-50.372894 -68.302521 48.591393
-51.56723 -69.828743 48.328281
-52.540863 -71.061783 47.617874
-53.282803 -71.981026 46.432369
-45.62426 -97.154968 14.474139
-46.281319 -96.351471 12.033022
-46.49181 -94.782898 14.524769
-47.104401 -92.400742 14.339523
-47.553459 -90.020172 13.960375
-46.760231 -89.351212 18.966503
-47.311565 -88.509003 16.162409
-47.947044 -87.654007 13.440247
-48.388138 -85.312759 12.830118
-48.954239 -83.00032 12.16889
-49.684605 -80.710754 11.478266
-54.396492 -68.086182 22.146984
-52.872253 -68.740242 20.456623
-27.920752 -82.509949 47.410439
-41.046577 -85.714386 48.216984
-39.344307 -86.630981 48.168331
-40.372772 -88.133331 47.031799
-39.825584 -90.458252 45.332649
-39.428974 -92.668091 43.140331
-41.856956 -91.841171 41.188759
-40.558403 -93.422668 41.034348
-39.177452 -94.750565 40.513092
-39.034538 -96.706787 37.536316
-38.937145 -98.552643 34.310501
-38.80442 -100.315948 30.940235
-38.549294 -102.030792 27.525642
-40.084549 -100.609604 28.740517
-41.274937 -100.512634 26.472202
-42.350601 -100.109131 24.145823
-43.672703 -96.42038 27.69384
-43.573944 -97.961319 24.752228
-43.306198 -99.492966 21.771116
-44.154846 -98.752838 19.358707
-44.919983 -97.959259 16.921373
-45.611355 -85.108459 33.946144
-45.782757 -84.306335 30.910711
-46.144196 -82.911179 32.932899
-46.734764 -80.736496 31.824137
-47.452232 -78.601562 30.656368
-48.784996 -78.264343 35.209362
-48.539307 -77.44561 32.356178
-48.35025 -76.523987 29.459444
-49.46328 -74.521866 28.258459
-50.806549 -72.612228 27.075071
-52.377304 -70.807999 25.92807
-54.263664 -72.913811 40.517456
-54.28611 -72.696236 38.050583
-54.228481 -72.269485 35.47506
-57.028397 -69.332443 35.83017
-55.668282 -70.578842 34.311798
-54.13858 -71.668228 32.843689
-54.065102 -70.924438 30.185987
-54.055866 -70.065742 27.514526
-54.154602 -69.114204 24.833591
-56.097221 -67.524231 23.805439
-34.400673 -70.245346 49.402157
-35.57552 -72.479561 48.988255
-37.781429 -69.411812 48.119289
-37.345306 -72.094032 48.537724
-36.878769 -74.812363 48.965107
-38.219505 -77.15387 49.154167
-39.520134 -79.402985 49.34219
-40.724895 -81.457588 49.318432
-45.370537 -67.665154 47.885315
-45.021767 -70.284897 48.135719
-44.566235 -72.904579 48.480965
-47.729065 -74.032791 48.505054
-45.898788 -74.817612 48.695545
-43.997963 -75.516525 48.84296
-43.326546 -78.113083 49.115253
-42.579479 -80.686104 49.177147
-41.801033 -83.225021 48.910557
-42.734352 -84.631851 48.010971
-43.523197 -85.632477 46.588596
-44.173782 -86.214752 44.679813
-46.456463 -82.678017 45.140083
-45.488914 -84.562561 43.913853
-44.695091 -86.398422 42.36499
-45.097431 -86.229919 39.743164
-45.395126 -85.774826 36.910316
-46.895004 -95.53241 9.612835
-48.927711 -89.634216 6.742739
-45.961342 -83.435913 27.848604
-46.2118 -82.550018 24.796146
-46.603947 -81.682899 21.787189
-47.06654 -77.989929 22.819902
-46.999836 -79.382751 20.852875
-47.201904 -80.848846 18.854807
-48.053104 -80.043404 16.028528
-49.180336 -79.246735 13.329049
-51.666115 -69.55928 18.726187
-50.878681 -70.582428 16.96636
-50.545574 -71.806213 15.199286
-33.016716 -78.090179 49.639072
-31.509012 -78.252594 49.910843
-30.110617 -78.363602 50.248383
-29.686871 -80.611206 49.182423
-29.290941 -82.745499 47.632633
-28.922256 -84.778046 45.572357
-37.655235 -87.338974 47.86578
-36.006763 -87.80159 47.328552
-34.418724 -87.998917 46.595352
-35.24519 -92.509598 43.129345
-34.053825 -90.335526 44.519135
-32.897068 -87.937561 45.723034
-31.431889 -87.656494 44.783478
-30.000656 -87.227295 43.859322
-28.575565 -86.74791 43.038403
-28.233757 -88.716293 40.12925
-27.863047 -90.755035 36.991058
-27.413378 -92.932312 33.795052
-30.19591 -95.913513 32.500893
-28.539501 -95.524719 31.399372
-26.824963 -95.298889 30.711666
-29.904264 -107.188843 19.416513
-28.436531 -109.601974 17.068075
-38.091026 -103.730988 24.156006
-37.367413 -105.445053 20.904303
-36.344872 -107.193253 17.82173
-39.346966 -105.286804 16.986155
-37.274197 -107.216705 15.93907
-35.024746 -108.987015 14.932673
-33.444168 -110.828918 12.231961
-26.808979 -84.301147 44.963925
-26.325304 -83.258766 46.071428
-27.035896 -83.380195 46.21076
-55.942846 -66.727677 47.048498
-55.725136 -67.795754 46.54242
-55.353407 -67.444084 47.281607
-54.956129 -67.009438 47.904875
-54.507992 -66.530014 48.425748
-55.353407 -67.444084 47.281607
-54.738419 -68.077515 47.398796
-54.956129 -67.009438 47.904875
-59.281212 -66.629536 28.437763
-58.508871 -67.043804 27.60418
-58.346979 -67.355018 28.893456
-36.685712 -65.935936 48.336194
-35.920299 -66.188252 48.788528
-36.134596 -64.911037 48.730175
-51.091623 -86.060189 1.846105
-50.555397 -86.676827 2.997403
-51.171458 -85.409088 2.813211
-24.929707 -92.851967 33.361723
-25.232623 -91.590844 34.75316
-25.42031 -94.056801 31.932231
-24.929707 -92.851967 33.361723
-36.788608 -108.841331 7.811351
-35.542595 -109.971801 7.414804
-36.331238 -109.136467 8.790713
-59.375132 -66.310745 37.874115
-59.824531 -65.50853 38.788983
-40.158712 -65.055174 47.401741
-39.279255 -65.275101 47.567597
-39.439684 -63.972624 47.494889
-44.08715 -101.625564 5.517608
-43.179242 -102.819985 5.262738
-46.234722 -97.983765 6.004055
-45.61424 -99.203507 5.894551
-45.898141 -98.371506 7.103571
-46.806512 -96.719918 6.070898
-46.234722 -97.983765 6.004055
-51.203659 -83.573151 5.63018
-50.549309 -84.099724 6.818506
-51.118782 -82.926674 6.573222
-51.232802 -84.172425 4.706446
-51.203659 -83.573151 5.63018
-43.179242 -102.819985 5.262738
-42.208308 -103.995071 4.962864
-42.716223 -103.154228 6.269599
-50.509731 -67.068771 48.716734
-49.679649 -67.41298 48.543079
-52.471691 -68.122673 48.465084
-53.186907 -67.642292 48.507496
-52.290943 -69.311596 48.265499
-51.747978 -68.63982 48.527866
-52.471691 -68.122673 48.465084
-55.614441 -66.733566 20.313074
-54.599919 -67.539459 20.804994
-55.411015 -67.280289 21.655064
-28.132976 -81.520756 48.336178
-27.474978 -81.496392 48.420313
-35.214523 -70.033817 49.028073
-34.641852 -68.961388 49.319547
-35.455702 -68.749859 48.945463
-46.295765 -67.397294 48.023497
-45.500416 -66.358609 47.828102
-46.425644 -66.090748 47.966284
-47.846276 -93.405327 7.139801
-47.56202 -93.874237 8.360235
-47.941719 -92.615959 8.274944
-48.115862 -92.927002 5.96582
-47.846276 -93.405327 7.139801
-49.605083 -78.101677 12.933759
-48.952488 -78.499283 14.258392
-49.377235 -77.354225 13.863102
-49.879505 -78.837559 12.046225
-49.605083 -78.101677 12.933759
-52.548595 -68.60902 18.2335
-52.269184 -69.149761 19.591405
-53.151664 -68.199501 19.098717
-51.392336 -70.103607 15.615009
-51.659326 -69.556465 16.483868
-52.172981 -69.077644 15.132516
-51.225783 -70.715499 14.731472
-50.712128 -71.194321 16.082823
-51.392336 -70.103607 15.615009
-32.250261 -70.92479 50.914974
-32.537211 -69.707542 50.984074
-31.502749 -74.681713 50.773992
-32.186784 -74.493736 50.320646
-31.258402 -75.888763 50.589381
-31.502749 -74.681713 50.773992
-26.961584 -97.883827 28.086966
-26.432255 -96.58841 29.298957
-27.354292 -96.594307 29.499676
-26.00462 -100.551072 25.448658
-26.421163 -101.807198 24.26372
-26.366083 -108.039497 18.9112
-25.932046 -106.951165 19.898259
-27.129802 -106.658844 19.912378
-26.75209 -109.063018 17.92167
-26.366083 -108.039497 18.9112
-28.008873 -111.570236 15.142578
-27.581165 -110.844086 16.045049
-28.864238 -110.328125 16.165604
-28.397481 -112.217858 14.203841
-28.008873 -111.570236 15.142578
-29.187035 -113.14048 12.344392
-30.505133 -112.325256 12.526457
-32.95946 -111.699806 10.010613
-33.362308 -111.584404 9.028681
-37.759268 -108.179314 5.851489
-39.000546 -107.005981 6.233674
-42.004616 -64.632996 47.321285
-41.093801 -64.846678 47.35358
-41.229956 -63.539015 47.296738
-42.813361 -65.725719 47.434011
-42.004616 -64.632996 47.321285
-43.611203 -66.828151 47.598652
-42.666304 -67.043091 47.542768
-42.813361 -65.725719 47.434011
-50.300097 -82.783764 8.693893
-49.899406 -83.935456 9.000089
-49.735071 -83.265973 9.932436
-50.995024 -82.304466 7.481117
-50.300097 -82.783764 8.693893
-51.118782 -82.926674 6.573222
-50.995024 -82.304466 7.481117
-25.629706 -83.244514 46.110573
-26.325304 -83.258766 46.071428
-25.371941 -84.159897 44.807156
-25.629706 -83.244514 46.110573
-25.877557 -85.133163 43.432831
-25.151111 -85.113342 43.415394
-25.371941 -84.159897 44.807156
-53.85015 -67.066502 48.417169
-54.507992 -66.530014 48.425748
-53.677898 -68.218659 48.112391
-53.186907 -67.642292 48.507496
-53.85015 -67.066502 48.417169
-56.652313 -65.900223 19.844243
-57.482489 -65.702973 20.707353
-57.698931 -67.36686 26.759639
-56.853453 -67.716484 25.951577
-56.72916 -68.118911 27.25181
-57.698931 -67.36686 26.759639
-58.508871 -67.043804 27.60418
-35.677223 -67.44529 48.815742
-35.920299 -66.188252 48.788528
-36.249895 -68.517719 48.524268
-35.455702 -68.749859 48.945463
-35.677223 -67.44529 48.815742
-50.142776 -87.28051 4.158749
-49.674711 -87.847237 5.34468
-50.167165 -86.592453 5.15044
-50.142776 -87.28051 4.158749
-50.555397 -86.676827 2.997403
-49.80845 -76.211899 13.432845
-49.377235 -77.354225 13.863102
-49.155855 -76.609504 14.757478
-53.318947 -67.53994 15.531603
-52.935524 -68.094631 16.871094
-52.943817 -68.010208 14.669638
-53.318947 -67.53994 15.531603
-52.676827 -68.55735 13.80078
-52.172981 -69.077644 15.132516
-52.943817 -68.010208 14.669638
-33.174845 -73.040775 49.987337
-32.669121 -71.957927 50.362293
-33.423082 -71.77201 49.977217
-32.944399 -74.354007 50.049248
-33.174845 -73.040775 49.987337
-33.69836 -74.168091 49.664171
-32.710299 -75.621051 49.99748
-32.186784 -74.493736 50.320646
-32.944399 -74.354007 50.049248
-26.902468 -103.047821 23.168409
-26.421163 -101.807198 24.26372
-27.477684 -101.682946 24.382338
-27.327378 -104.24704 22.093232
-26.270856 -104.371292 21.974614
-26.902468 -103.047821 23.168409
-31.763202 -111.595788 12.836367
-30.505133 -112.325256 12.526457
-31.370577 -111.325432 13.763243
-33.781047 -111.374413 8.058474
-33.362308 -111.584404 9.028681
-34.666485 -110.476928 9.364373
-34.225591 -111.135154 7.064089
-33.781047 -111.374413 8.058474
-34.225591 -111.135154 7.064089
-35.542595 -109.971801 7.414804
-58.895308 -67.109932 37.024186
-58.666737 -67.110039 38.283752
-59.375132 -66.310745 37.874115
-59.055666 -67.019348 35.74803
-58.347271 -67.818642 36.157668
-58.895308 -67.109932 37.024186
-59.271709 -66.957962 34.468096
-59.055666 -67.019348 35.74803
-59.424285 -66.797523 33.180546
-58.660206 -67.56762 33.593962
-59.271709 -66.957962 34.468096
-59.63298 -66.668083 31.894769
-59.424285 -66.797523 33.180546
-59.786249 -66.434868 30.605083
-58.966051 -67.173965 31.016725
-59.63298 -66.668083 31.894769
-59.992186 -66.227176 29.319606
-59.786249 -66.434868 30.605083
-40.933373 -66.149155 47.426288
-40.158712 -65.055174 47.401741
-41.093801 -64.846678 47.35358
-44.882402 -100.431618 5.729905
-44.08715 -101.625564 5.517608
-44.482408 -100.785194 6.78177
-44.882402 -100.431618 5.729905
-45.61424 -99.203507 5.894551
-51.233324 -84.812187 3.750968
-50.634709 -85.385964 4.919987
-51.232802 -84.172425 4.706446
-51.171458 -85.409088 2.813211
-51.233324 -84.812187 3.750968
-24.90262 -86.096802 42.020603
-25.151111 -85.113342 43.415394
-24.676229 -87.123787 40.551406
-24.90262 -86.096802 42.020603
-25.430336 -87.113594 40.571872
-24.424534 -88.213593 39.135407
-24.676229 -87.123787 40.551406
-24.952437 -89.275055 37.634247
-24.424534 -88.213593 39.135407
-25.499813 -90.423989 36.26485
-24.952437 -89.275055 37.634247
-25.751322 -89.289513 37.73328
-26.031508 -91.605301 34.852194
-25.232623 -91.590844 34.75316
-25.499813 -90.423989 36.26485
-40.152353 -105.842186 6.621607
-39.000546 -107.005981 6.233674
-39.656176 -106.182274 7.604273
-40.621006 -105.497604 5.610366
-40.152353 -105.842186 6.621607
-41.276636 -104.673896 6.980966
-41.135907 -105.16774 4.637564
-40.621006 -105.497604 5.610366
-41.135907 -105.16774 4.637564
-42.208308 -103.995071 4.962864
-56.526352 -66.038327 46.908396
-55.942846 -66.727677 47.048498
-56.891092 -66.319024 46.07233
-56.526352 -66.038327 46.908396
-57.194948 -66.557686 45.14228
-56.618431 -67.318008 45.379261
-56.891092 -66.319024 46.07233
-57.510277 -66.752212 44.136654
-57.194948 -66.557686 45.14228
-57.758503 -66.892872 43.057225
-57.170513 -67.69733 43.369782
-57.510277 -66.752212 44.136654
-58.034759 -67.015171 41.925736
-57.758503 -66.892872 43.057225
-58.241146 -67.070797 40.742714
-57.625125 -67.893616 41.107331
-58.034759 -67.015171 41.925736
-58.89867 -66.251602 40.3474
-58.489036 -67.130047 39.528996
-58.241146 -67.070797 40.742714
-59.537249 -65.431473 40.021919
-58.89867 -66.251602 40.3474
-59.824531 -65.50853 38.788983
-59.537249 -65.431473 40.021919
-47.336556 -65.839405 48.168219
-46.425644 -66.090748 47.966284
-48.103699 -66.826436 48.328222
-47.336556 -65.839405 48.168219
-48.839426 -67.787346 48.461319
-47.956721 -68.090344 48.294775
-48.103699 -66.826436 48.328222
-49.532671 -68.676887 48.509632
-48.839426 -67.787346 48.461319
-49.679649 -67.41298 48.543079
-51.15081 -67.876709 48.659422
-50.509731 -67.068771 48.716734
-50.970062 -69.065632 48.459837
-51.15081 -67.876709 48.659422
-51.747978 -68.63982 48.527866
-49.545 -82.5573 10.897565
-49.735071 -83.265973 9.932436
-49.14431 -83.708992 11.20376
-49.910183 -81.412518 10.552253
-49.545 -82.5573 10.897565
-49.319422 -81.855537 11.823578
-50.396696 -80.272731 10.233841
-49.910183 -81.412518 10.552253
-53.837799 -67.86649 19.959814
-53.634372 -68.413212 21.301803
-54.599919 -67.539459 20.804994
-53.151664 -68.199501 19.098717
-53.837799 -67.86649 19.959814
-55.614441 -66.733566 20.313074
-56.652313 -65.900223 19.844243
-27.236486 -82.423881 47.364351
-27.474978 -81.496392 48.420313
-27.720161 -83.466263 46.256847
-27.035896 -83.380195 46.21076
-27.236486 -82.423881 47.364351
-56.960222 -67.244332 24.632423
-55.990451 -67.996384 25.124593
-56.853453 -67.716484 25.951577
-57.118991 -66.771103 23.330451
-56.960222 -67.244332 24.632423
-57.28315 -66.246185 22.009303
-56.261379 -66.999313 22.484291
-57.118991 -66.771103 23.330451
-58.340101 -65.474762 21.553514
-57.482489 -65.702973 20.707353
-57.28315 -66.246185 22.009303
-59.281212 -66.629536 28.437763
-59.992186 -66.227176 29.319606
-33.179977 -69.434295 50.336506
-32.537211 -69.707542 50.984074
-33.921634 -69.212387 49.861498
-34.641852 -68.961388 49.319547
-33.659015 -70.467254 49.877165
-33.179977 -69.434295 50.336506
-33.921634 -69.212387 49.861498
-44.564398 -66.587967 47.687605
-45.500416 -66.358609 47.828102
-44.417341 -67.905338 47.796362
-43.611203 -66.828151 47.598652
-44.564398 -66.587967 47.687605
-36.372866 -63.680762 48.776529
-36.134596 -64.911037 48.730175
-37.102981 -63.406885 48.304193
-36.372866 -63.680762 48.776529
-37.93309 -63.1738 47.995646
-37.730117 -64.425636 47.969292
-37.102981 -63.406885 48.304193
-38.729996 -62.922323 47.677433
-37.93309 -63.1738 47.995646
-39.439684 -63.972624 47.494889
-38.729996 -62.922323 47.677433
-47.18079 -95.098007 8.418964
-47.276234 -94.308639 9.554106
-47.56202 -93.874237 8.360235
-46.992599 -95.907685 7.219083
-46.706813 -96.342087 8.412955
-47.18079 -95.098007 8.418964
-46.806512 -96.719918 6.070898
-46.992599 -95.907685 7.219083
-49.289017 -89.084755 5.547865
-49.313406 -88.396698 6.539554
-49.674711 -87.847237 5.34468
-48.869843 -90.371223 5.706964
-49.289017 -89.084755 5.547865
-48.518974 -91.62764 5.862849
-48.576843 -90.890632 6.898625
-48.869843 -90.371223 5.706964
-48.115862 -92.927002 5.96582
-48.518974 -91.62764 5.862849
-50.131639 -79.569569 11.120833
-49.43247 -79.978745 12.403657
-49.879505 -78.837559 12.046225
-50.396696 -80.272731 10.233841
-50.131639 -79.569569 11.120833
-52.053044 -69.044891 17.363781
-52.548595 -68.60902 18.2335
-52.935524 -68.094631 16.871094
-51.188505 -71.359955 13.874693
-51.225783 -70.715499 14.731472
-50.587225 -72.496632 14.323149
-51.188505 -71.359955 13.874693
-50.007193 -73.606651 14.789673
-49.965542 -72.916233 15.665809
-50.587225 -72.496632 14.323149
-50.107973 -74.327114 13.887117
-49.486289 -74.746715 15.229776
-50.007193 -73.606651 14.789673
-50.307531 -75.060974 13.02421
-50.107973 -74.327114 13.887117
-49.80845 -76.211899 13.432845
-50.307531 -75.060974 13.02421
-32.250261 -70.92479 50.914974
-32.669121 -71.957927 50.362293
-31.036566 -77.13467 50.410363
-31.258402 -75.888763 50.589381
-31.730848 -77.006687 50.089861
-30.337368 -77.190174 50.579133
-31.036566 -77.13467 50.410363
-30.809815 -78.308098 50.079613
-29.69662 -77.314743 50.940638
-30.337368 -77.190174 50.579133
-29.453997 -78.407875 50.450453
-29.69662 -77.314743 50.940638
-29.242124 -79.531677 49.917473
-29.453997 -78.407875 50.450453
-29.898744 -79.487404 49.715403
-29.016036 -80.571384 49.22217
-29.242124 -79.531677 49.917473
-28.818071 -81.638531 48.447275
-29.016036 -80.571384 49.22217
-29.488906 -81.678352 48.407528
-28.605846 -82.627724 47.521536
-28.132976 -81.520756 48.336178
-28.818071 -81.638531 48.447275
-25.950633 -95.320167 30.617812
-25.42031 -94.056801 31.932231
-26.29464 -94.035522 32.026085
-25.950633 -95.320167 30.617812
-26.432255 -96.58841 29.298957
-26.517962 -99.160126 26.681949
-26.961584 -97.883827 28.086966
-27.439999 -99.166023 26.882668
-26.517962 -99.160126 26.681949
-26.00462 -100.551072 25.448658
-25.561992 -105.804665 20.962263
-26.270856 -104.371292 21.974614
-24.798273 -107.185318 19.961085
-25.561992 -105.804665 20.962263
-25.932046 -106.951165 19.898259
-27.188435 -109.990417 16.993047
-26.75209 -109.063018 17.92167
-28.000185 -108.674576 17.996697
-27.188435 -109.990417 16.993047
-27.581165 -110.844086 16.045049
-28.807761 -112.71817 13.298942
-28.397481 -112.217858 14.203841
-29.702227 -111.554588 14.358234
-28.807761 -112.71817 13.298942
-29.187035 -113.14048 12.344392
-32.170963 -111.712265 11.915771
-31.763202 -111.595788 12.836367
-33.036407 -110.71244 13.152557
-32.557671 -111.770805 10.959304
-33.845957 -110.757919 11.283271
-32.95946 -111.699806 10.010613
-32.170963 -111.712265 11.915771
-32.557671 -111.770805 10.959304
-37.252167 -108.511368 6.825891
-36.788608 -108.841331 7.811351
-38.040809 -107.676033 8.2018
-37.252167 -108.511368 6.825891
-37.759268 -108.179314 5.851489
3 0 122 120
3 0 125 123
3 0 120 125
3 1 129 127
3 1 133 131
3 1 127 133
3 4 137 135
3 2 141 139
3 5 474 476
3 474 142 475
3 474 475 476
3 5 144 142
3 3 147 145
3 6 150 148
3 6 152 150
3 6 154 152
3 4 157 155
3 4 135 157
3 477 161 478
3 479 478 159
3 477 478 479
3 480 162 481
3 482 159 483
3 484 483 162
3 482 483 484
3 9 166 164
3 11 169 167
3 11 171 169
3 12 174 172
3 14 177 175
3 14 179 177
3 14 181 179
3 9 184 182
3 9 164 184
3 16 188 186
3 18 191 189
3 18 193 191
3 7 196 194
3 19 199 197
3 19 201 199
3 19 485 487
3 487 486 201
3 485 486 487
3 20 488 490
3 488 202 489
3 488 489 490
3 22 205 203
3 22 207 205
3 8 210 208
3 23 213 211
3 23 215 213
3 23 217 215
3 16 220 218
3 16 186 220
3 10 224 222
3 493 492 225
3 491 492 493
3 17 228 226
3 24 231 229
3 24 233 231
3 25 494 495
3 25 496 497
3 21 236 235
3 26 239 237
3 26 241 239
3 13 244 242
3 27 247 245
3 27 249 247
3 27 251 249
3 28 254 252
3 28 256 254
3 28 258 256
3 29 261 259
3 29 263 261
3 15 266 264
3 30 269 267
3 30 271 269
3 30 498 500
3 500 499 271
3 498 499 500
3 31 274 272
3 33 275 121
3 33 276 275
3 34 279 277
3 36 280 124
3 36 281 280
3 36 283 281
3 31 284 126
3 31 272 284
3 38 287 285
3 40 288 128
3 40 289 288
3 502 501 290
3 503 294 504
3 505 504 292
3 503 504 505
3 43 295 130
3 43 296 295
3 44 299 297
3 46 300 132
3 46 301 300
3 46 303 301
3 38 304 134
3 38 285 304
3 48 506 507
3 49 508 510
3 510 509 136
3 508 509 510
3 49 511 512
3 50 307 305
3 513 308 514
3 515 514 138
3 513 514 515
3 517 516 308
3 52 311 309
3 54 312 140
3 54 313 312
3 55 314 143
3 55 315 314
3 56 318 316
3 58 319 146
3 58 320 319
3 59 323 321
3 61 324 149
3 61 325 324
3 61 327 325
3 63 328 151
3 63 329 328
3 63 331 329
3 65 332 153
3 65 333 332
3 66 336 334
3 68 337 156
3 68 338 337
3 68 340 338
3 48 341 158
3 48 518 520
3 520 519 341
3 518 519 520
3 69 344 342
3 71 345 160
3 71 346 345
3 521 347 522
3 73 523 524
3 73 525 527
3 525 348 526
3 525 526 527
3 73 349 348
3 69 350 163
3 69 342 350
3 74 353 351
3 76 354 165
3 76 355 354
3 32 356 273
3 77 357 168
3 77 358 357
3 77 359 358
3 78 360 170
3 78 361 360
3 79 528 530
3 530 529 362
3 528 529 530
3 531 364 532
3 80 367 365
3 82 368 173
3 82 369 368
3 35 370 278
3 83 371 176
3 83 372 371
3 83 373 372
3 84 374 178
3 84 375 374
3 84 377 375
3 86 378 180
3 86 379 378
3 37 380 282
3 87 381 183
3 87 382 381
3 87 383 382
3 74 384 185
3 74 351 384
3 88 387 385
3 90 388 187
3 90 389 388
3 39 390 286
3 91 391 190
3 91 392 391
3 91 393 392
3 92 394 192
3 92 395 394
3 70 396 343
3 93 397 195
3 93 398 397
3 41 399 291
3 94 400 198
3 94 401 400
3 94 402 401
3 95 403 200
3 95 404 403
3 95 405 404
3 97 533 535
3 533 406 534
3 533 534 535
3 97 407 406
3 42 408 293
3 98 409 204
3 98 410 409
3 98 411 410
3 99 412 206
3 99 413 412
3 72 536 538
3 536 414 537
3 536 537 538
3 100 415 209
3 100 416 415
3 45 417 298
3 101 418 212
3 101 419 418
3 101 420 419
3 102 421 214
3 102 422 421
3 102 423 422
3 103 424 216
3 103 425 424
3 47 426 302
3 104 427 219
3 104 428 427
3 104 429 428
3 88 430 221
3 88 385 430
3 75 431 352
3 105 539 541
3 541 540 223
3 539 540 541
3 105 542 543
3 51 432 306
3 89 433 386
3 106 434 227
3 106 435 434
3 53 436 310
3 107 437 230
3 107 438 437
3 107 439 438
3 544 440 545
3 546 545 232
3 544 545 546
3 548 547 440
3 549 441 550
3 551 550 363
3 549 550 551
3 552 442 553
3 554 553 234
3 552 553 554
3 555 443 556
3 557 556 442
3 555 556 557
3 96 558 559
3 108 560 561
3 108 562 563
3 57 444 317
3 109 445 238
3 109 446 445
3 109 447 446
3 110 448 240
3 110 449 448
3 81 450 366
3 111 451 243
3 111 452 451
3 60 453 322
3 112 454 246
3 112 455 454
3 112 456 455
3 113 457 248
3 113 458 457
3 113 459 458
3 114 460 250
3 114 461 460
3 62 462 326
3 115 463 253
3 115 464 463
3 115 564 566
3 566 565 464
3 564 565 566
3 568 567 255
3 116 569 571
3 571 570 257
3 569 570 571
3 116 572 573
3 64 465 330
3 117 466 260
3 117 574 576
3 576 575 466
3 574 575 576
3 117 577 578
3 580 579 262
3 85 467 376
3 118 468 265
3 118 469 468
3 67 470 335
3 119 471 268
3 119 472 471
3 119 473 472
3 582 581 270
3 584 583 339
3 120 121 31
3 122 121 120
3 122 33 121
3 123 124 34
3 125 124 123
3 125 36 124
3 125 126 36
3 120 126 125
3 120 31 126
3 127 128 38
3 129 128 127
3 129 40 128
3 585 130 586
3 585 586 587
3 588 130 589
3 590 43 591
3 592 591 130
3 590 591 592
3 131 132 44
3 133 132 131
3 133 46 132
3 133 134 46
3 127 134 133
3 127 38 134
3 135 136 48
3 137 136 135
3 137 49 136
3 593 138 594
3 595 594 50
3 593 594 595
3 596 138 597
3 599 598 138
3 139 140 52
3 141 140 139
3 141 54 140
3 142 600 601
3 142 602 603
3 142 604 606
3 604 143 605
3 604 605 606
3 144 143 142
3 144 55 143
3 145 146 56
3 147 146 145
3 147 58 146
3 148 149 59
3 150 149 148
3 150 61 149
3 150 151 61
3 152 151 150
3 152 63 151
3 152 153 63
3 154 153 152
3 154 65 153
3 155 156 66
3 157 156 155
3 157 68 156
3 157 158 68
3 135 158 157
3 135 48 158
3 159 160 69
3 161 160 159
3 161 71 160
3 162 607 608
3 162 609 611
3 609 73 610
3 609 610 611
3 162 163 73
3 159 163 162
3 159 69 163
3 164 165 74
3 166 165 164
3 166 76 165
3 167 168 32
3 169 168 167
3 169 77 168
3 169 170 77
3 171 170 169
3 171 78 170
3 613 612 79
3 172 173 80
3 174 173 172
3 174 82 173
3 175 176 35
3 177 176 175
3 177 83 176
3 177 178 83
3 179 178 177
3 179 84 178
3 179 180 84
3 181 180 179
3 181 86 180
3 182 183 37
3 184 183 182
3 184 87 183
3 184 185 87
3 164 185 184
3 164 74 185
3 186 187 88
3 188 187 186
3 188 90 187
3 189 190 39
3 191 190 189
3 191 91 190
3 191 192 91
3 193 192 191
3 193 92 192
3 194 195 70
3 196 195 194
3 196 93 195
3 197 198 41
3 199 198 197
3 199 94 198
3 199 200 94
3 201 200 199
3 201 95 200
3 201 614 616
3 616 615 95
3 614 615 616
3 618 617 201
3 202 619 620
3 202 621 623
3 621 97 622
3 621 622 623
3 203 204 42
3 205 204 203
3 205 98 204
3 205 206 98
3 207 206 205
3 207 99 206
3 208 209 72
3 210 209 208
3 210 100 209
3 211 212 45
3 213 212 211
3 213 101 212
3 213 214 101
3 215 214 213
3 215 102 214
3 215 216 102
3 217 216 215
3 217 103 216
3 218 219 47
3 220 219 218
3 220 104 219
3 220 221 104
3 186 221 220
3 186 88 221
3 222 223 75
3 224 223 222
3 224 105 223
3 225 624 626
3 626 625 51
3 624 625 626
3 628 627 225
3 226 227 89
3 228 227 226
3 228 106 227
3 229 230 53
3 231 230 229
3 231 107 230
3 231 232 107
3 233 232 231
3 233 629 631
3 631 630 232
3 629 630 631
3 632 234 633
3 634 234 635
3 638 637 234
3 636 637 638
3 235 639 641
3 641 640 96
3 639 640 641
3 236 642 644
3 644 643 235
3 642 643 644
3 236 645 647
3 645 108 646
3 645 646 647
3 237 238 57
3 239 238 237
3 239 109 238
3 239 240 109
3 241 240 239
3 241 110 240
3 242 243 81
3 244 243 242
3 244 111 243
3 245 246 60
3 247 246 245
3 247 112 246
3 247 248 112
3 249 248 247
3 249 113 248
3 249 250 113
3 251 250 249
3 251 114 250
3 252 253 62
3 254 253 252
3 254 115 253
3 254 255 115
3 256 255 254
3 256 648 650
3 650 649 255
3 648 649 650
3 256 651 653
3 651 257 652
3 651 652 653
3 258 257 256
3 258 116 257
3 259 260 64
3 261 260 259
3 261 117 260
3 261 262 117
3 263 262 261
3 263 654 656
3 656 655 262
3 654 655 656
3 264 265 85
3 266 265 264
3 266 118 265
3 267 268 67
3 269 268 267
3 269 119 268
3 269 270 119
3 271 270 269
3 271 657 659
3 659 658 270
3 657 658 659
3 271 660 661
3 663 662 271
3 272 273 9
3 274 273 272
3 274 32 273
3 121 274 31
3 275 274 121
3 275 32 274
3 275 167 32
3 276 167 275
3 276 11 167
3 277 278 12
3 279 278 277
3 279 35 278
3 124 279 34
3 280 279 124
3 280 35 279
3 280 175 35
3 281 175 280
3 281 14 175
3 281 282 14
3 283 282 281
3 283 37 282
3 126 283 36
3 284 283 126
3 284 37 283
3 284 182 37
3 272 182 284
3 272 9 182
3 285 286 16
3 287 286 285
3 287 39 286
3 128 287 38
3 288 287 128
3 288 39 287
3 288 189 39
3 289 189 288
3 289 18 189
3 290 291 7
3 664 291 665
3 666 665 290
3 664 665 666
3 667 41 668
3 669 668 291
3 667 668 669
3 670 41 671
3 672 197 673
3 674 673 41
3 672 673 674
3 675 197 676
3 677 19 678
3 679 678 197
3 677 678 679
3 681 680 19
3 292 293 20
3 294 293 292
3 294 42 293
3 130 682 684
3 682 294 683
3 682 683 684
3 295 294 130
3 295 42 294
3 295 203 42
3 296 203 295
3 296 22 203
3 297 298 8
3 299 298 297
3 299 45 298
3 132 299 44
3 300 299 132
3 300 45 299
3 300 211 45
3 301 211 300
3 301 23 211
3 301 302 23
3 303 302 301
3 303 47 302
3 134 303 46
3 304 303 134
3 304 47 303
3 304 218 47
3 285 218 304
3 285 16 218
3 136 685 687
3 687 686 48
3 685 686 687
3 689 688 136
3 305 306 10
3 307 306 305
3 307 51 306
3 138 307 50
3 308 307 138
3 308 51 307
3 308 225 51
3 690 225 691
3 692 691 308
3 690 691 692
3 694 693 225
3 309 310 17
3 311 310 309
3 311 53 310
3 140 311 52
3 312 311 140
3 312 53 311
3 312 229 53
3 313 229 312
3 313 24 229
3 143 695 696
3 314 697 699
3 699 698 143
3 697 698 699
3 314 700 701
3 314 702 703
3 315 704 706
3 706 705 314
3 704 705 706
3 315 707 709
3 707 25 708
3 707 708 709
3 316 317 21
3 318 317 316
3 318 57 317
3 146 318 56
3 319 318 146
3 319 57 318
3 319 237 57
3 320 237 319
3 320 26 237
3 321 322 13
3 323 322 321
3 323 60 322
3 149 323 59
3 324 323 149
3 324 60 323
3 324 245 60
3 325 245 324
3 325 27 245
3 325 326 27
3 327 326 325
3 327 62 326
3 151 327 61
3 328 327 151
3 328 62 327
3 328 252 62
3 329 252 328
3 329 28 252
3 329 330 28
3 331 330 329
3 331 64 330
3 153 331 63
3 332 331 153
3 332 64 331
3 332 259 64
3 333 259 332
3 333 29 259
3 334 335 15
3 336 335 334
3 336 67 335
3 156 336 66
3 337 336 156
3 337 67 336
3 337 267 67
3 338 267 337
3 338 30 267
3 338 339 30
3 340 339 338
3 340 710 712
3 712 711 339
3 710 711 712
3 158 340 68
3 341 340 158
3 341 713 715
3 715 714 340
3 713 714 715
3 341 716 717
3 719 718 341
3 342 343 1
3 344 343 342
3 344 70 343
3 160 344 69
3 345 344 160
3 345 70 344
3 345 194 70
3 346 194 345
3 346 7 194
3 720 161 721
3 722 161 723
3 724 71 725
3 726 725 161
3 724 725 726
3 727 71 728
3 729 346 730
3 731 730 71
3 729 730 731
3 732 346 733
3 734 7 735
3 736 735 346
3 734 735 736
3 737 290 738
3 739 738 7
3 737 738 739
3 740 290 741
3 743 742 290
3 744 72 745
3 746 72 747
3 748 208 749
3 750 749 72
3 748 749 750
3 347 751 753
3 751 208 752
3 751 752 753
3 347 8 208
3 754 347 755
3 348 756 758
3 756 347 757
3 756 757 758
3 348 8 347
3 348 297 8
3 349 297 348
3 349 44 297
3 163 349 73
3 350 349 163
3 350 44 349
3 350 131 44
3 342 131 350
3 342 1 131
3 351 352 4
3 353 352 351
3 353 75 352
3 165 353 74
3 354 353 165
3 354 75 353
3 354 222 75
3 355 222 354
3 355 10 222
3 273 166 9
3 356 166 273
3 356 76 166
3 168 356 32
3 357 356 168
3 357 76 356
3 357 355 76
3 358 355 357
3 358 10 355
3 358 305 10
3 359 305 358
3 359 50 305
3 170 359 77
3 360 359 170
3 360 50 359
3 360 759 761
3 761 760 50
3 759 760 761
3 361 762 764
3 764 763 360
3 762 763 764
3 361 765 766
3 362 363 2
3 767 363 768
3 769 768 362
3 767 768 769
3 771 770 363
3 773 772 79
3 364 774 775
3 364 776 778
3 776 5 777
3 776 777 778
3 365 366 3
3 367 366 365
3 367 81 366
3 173 367 80
3 368 367 173
3 368 81 367
3 368 242 81
3 369 242 368
3 369 13 242
3 278 174 12
3 370 174 278
3 370 82 174
3 176 370 35
3 371 370 176
3 371 82 370
3 371 369 82
3 372 369 371
3 372 13 369
3 372 321 13
3 373 321 372
3 373 59 321
3 178 373 83
3 374 373 178
3 374 59 373
3 374 148 59
3 375 148 374
3 375 6 148
3 375 376 6
3 377 376 375
3 377 85 376
3 180 377 84
3 378 377 180
3 378 85 377
3 378 264 85
3 379 264 378
3 379 15 264
3 282 181 14
3 380 181 282
3 380 86 181
3 183 380 37
3 381 380 183
3 381 86 380
3 381 379 86
3 382 379 381
3 382 15 379
3 382 334 15
3 383 334 382
3 383 66 334
3 185 383 87
3 384 383 185
3 384 66 383
3 384 155 66
3 351 155 384
3 351 4 155
3 385 386 0
3 387 386 385
3 387 89 386
3 187 387 88
3 388 387 187
3 388 89 387
3 388 226 89
3 389 226 388
3 389 17 226
3 286 188 16
3 390 188 286
3 390 90 188
3 190 390 39
3 391 390 190
3 391 90 390
3 391 389 90
3 392 389 391
3 392 17 389
3 392 309 17
3 393 309 392
3 393 52 309
3 192 393 91
3 394 393 192
3 394 52 393
3 394 139 52
3 395 139 394
3 395 2 139
3 343 129 1
3 396 129 343
3 396 40 129
3 195 396 70
3 397 396 195
3 397 40 396
3 397 289 40
3 398 289 397
3 398 18 289
3 291 196 7
3 399 196 291
3 399 93 196
3 198 399 41
3 400 399 198
3 400 93 399
3 400 398 93
3 401 398 400
3 401 18 398
3 401 193 18
3 402 193 401
3 402 92 193
3 200 402 94
3 403 402 200
3 403 92 402
3 403 395 92
3 404 395 403
3 404 2 395
3 404 362 2
3 405 362 404
3 405 79 362
3 779 405 780
3 781 780 95
3 779 780 781
3 782 405 783
3 784 79 785
3 786 785 405
3 784 785 786
3 789 788 79
3 787 788 789
3 791 790 19
3 792 96 793
3 406 794 795
3 406 796 798
3 796 96 797
3 796 797 798
3 406 235 96
3 407 235 406
3 407 21 235
3 293 202 20
3 408 202 293
3 408 97 202
3 204 408 42
3 409 408 204
3 409 97 408
3 409 407 97
3 410 407 409
3 410 21 407
3 410 316 21
3 411 316 410
3 411 56 316
3 206 411 98
3 412 411 206
3 412 56 411
3 412 145 56
3 413 145 412
3 413 3 145
3 414 799 800
3 414 801 803
3 801 43 802
3 801 802 803
3 209 414 72
3 415 414 209
3 415 43 414
3 415 296 43
3 416 296 415
3 416 22 296
3 298 210 8
3 417 210 298
3 417 100 210
3 212 417 45
3 418 417 212
3 418 100 417
3 418 416 100
3 419 416 418
3 419 22 416
3 419 207 22
3 420 207 419
3 420 99 207
3 214 420 101
3 421 420 214
3 421 99 420
3 421 413 99
3 422 413 421
3 422 3 413
3 422 365 3
3 423 365 422
3 423 80 365
3 216 423 102
3 424 423 216
3 424 80 423
3 424 172 80
3 425 172 424
3 425 12 172
3 302 217 23
3 426 217 302
3 426 103 217
3 219 426 47
3 427 426 219
3 427 103 426
3 427 425 103
3 428 425 427
3 428 12 425
3 428 277 12
3 429 277 428
3 429 34 277
3 221 429 104
3 430 429 221
3 430 34 429
3 430 123 34
3 385 123 430
3 385 0 123
3 804 20 805
3 806 20 807
3 808 292 809
3 810 809 20
3 808 809 810
3 811 292 812
3 814 813 292
3 352 137 4
3 431 137 352
3 431 49 137
3 223 431 75
3 815 431 816
3 817 816 223
3 815 816 817
3 818 49 819
3 820 819 431
3 818 819 820
3 822 821 49
3 306 224 10
3 432 224 306
3 432 105 224
3 823 432 824
3 825 824 51
3 823 824 825
3 826 432 827
3 828 105 829
3 830 829 432
3 828 829 830
3 832 831 105
3 386 122 0
3 433 122 386
3 433 33 122
3 227 433 89
3 434 433 227
3 434 33 433
3 434 276 33
3 435 276 434
3 435 11 276
3 310 228 17
3 436 228 310
3 436 106 228
3 230 436 53
3 437 436 230
3 437 106 436
3 437 435 106
3 438 435 437
3 438 11 435
3 438 171 11
3 439 171 438
3 439 78 171
3 232 439 107
3 440 439 232
3 440 78 439
3 440 361 78
3 833 361 834
3 835 834 440
3 833 834 835
3 837 836 361
3 363 141 2
3 441 141 363
3 441 54 141
3 234 838 840
3 838 441 839
3 838 839 840
3 442 441 234
3 442 54 441
3 442 313 54
3 443 313 442
3 443 24 313
3 841 443 842
3 843 443 844
3 845 24 846
3 847 846 443
3 845 846 847
3 848 233 849
3 850 849 24
3 848 849 850
3 851 233 852
3 854 853 233
3 856 855 96
3 317 236 21
3 444 236 317
3 444 108 236
3 238 444 57
3 445 444 238
3 445 108 444
3 445 857 859
3 859 858 108
3 857 858 859
3 446 860 862
3 862 861 445
3 860 861 862
3 446 863 864
3 446 865 866
3 447 867 869
3 869 868 446
3 867 868 869
3 447 870 871
3 240 447 109
3 448 447 240
3 448 872 874
3 874 873 447
3 872 873 874
3 448 875 877
3 875 364 876
3 875 876 877
3 449 364 448
3 449 5 364
3 366 147 3
3 450 147 366
3 450 58 147
3 243 450 81
3 451 450 243
3 451 58 450
3 451 320 58
3 452 320 451
3 452 26 320
3 322 244 13
3 453 244 322
3 453 111 244
3 246 453 60
3 454 453 246
3 454 111 453
3 454 452 111
3 455 452 454
3 455 26 452
3 455 241 26
3 456 241 455
3 456 110 241
3 248 456 112
3 457 456 248
3 457 110 456
3 457 449 110
3 458 449 457
3 458 5 449
3 458 144 5
3 459 144 458
3 459 55 144
3 250 459 113
3 460 459 250
3 460 55 459
3 460 315 55
3 461 315 460
3 461 25 315
3 326 251 27
3 462 251 326
3 462 114 251
3 253 462 62
3 463 462 253
3 463 114 462
3 463 461 114
3 464 461 463
3 464 25 461
3 464 878 880
3 880 879 25
3 878 879 880
3 882 881 464
3 255 883 885
3 885 884 115
3 883 884 885
3 887 886 255
3 257 888 889
3 892 891 257
3 890 891 892
3 330 258 28
3 465 258 330
3 465 116 258
3 260 465 64
3 466 465 260
3 466 116 465
3 466 893 895
3 895 894 116
3 893 894 895
3 897 896 466
3 262 898 900
3 900 899 117
3 898 899 900
3 902 901 262
3 376 154 6
3 467 154 376
3 467 65 154
3 265 467 85
3 468 467 265
3 468 65 467
3 468 333 65
3 469 333 468
3 469 29 333
3 335 266 15
3 470 266 335
3 470 118 266
3 268 470 67
3 471 470 268
3 471 118 470
3 471 469 118
3 472 469 471
3 472 29 469
3 472 263 29
3 473 263 472
3 473 903 905
3 905 904 263
3 903 904 905
3 270 473 119
3 906 473 907
3 908 907 270
3 906 907 908
3 910 909 473
3 339 911 913
3 913 912 30
3 911 912 913
3 915 914 339
