ply
format ascii 1.0
element vertex 603
property float x
property float y
property float z
element face 730
property list uchar int vertex_index
end_header
-13.942536 -69.073807 -14.557272
-9.238657 -79.194824 -4.195185
-2.568136 -100.869583 -10.702463
-10.192057 -68.211891 -1.730318
-12.717447 -80.313629 1.102376
-1.128853 -112.538086 -8.877348
-19.21566 -99.265472 -19.868938
-12.34354 -59.852772 -12.915615
-22.938126 -60.164352 -19.15147
-6.135807 -119.773987 -15.378782
-10.043928 -64.76712 -7.456696
-7.826767 -75.291138 -9.489393
-3.603846 -90.380127 -5.833607
-7.773224 -85.735275 -12.029026
-7.141888 -108.973022 -16.60247
-11.945801 -94.064972 -16.163206
-18.462151 -77.27034 -16.544888
-12.663895 -64.365326 -13.926355
-15.08784 -56.810707 -15.548372
-16.290157 -60.793224 -16.307512
-20.198038 -56.690266 -18.727962
-18.529377 -64.901497 -16.746834
-10.937693 -73.606667 -3.327477
-10.161718 -66.695679 -4.656778
-9.676271 -71.988258 -6.017265
-9.130522 -69.88604 -8.691778
-7.67094 -77.496826 -6.786545
-1.078228 -102.291931 -6.776031
-2.35202 -96.928329 -4.255203
-2.292196 -95.798157 -7.840151
-4.440205 -88.507919 -9.014091
-4.778803 -93.578354 -11.260904
-6.193422 -114.968918 -16.419952
-11.142803 -111.447418 -18.926533
-21.397661 -91.41449 -19.633263
-15.198649 -97.188705 -18.042255
-18.035791 -89.003616 -17.863605
-15.212479 -85.777084 -16.17296
-20.966682 -80.512573 -18.066074
-23.636612 -71.911316 -18.747463
-11.805273 -74.602173 -0.507802
-11.360451 -80.205429 -1.616863
-0.666899 -107.635834 -5.447685
-1.401667 -107.294662 -10.061409
-17.373596 -106.372803 -20.4151
-12.479132 -55.91201 -11.099709
-26.561584 -54.994633 -22.23035
-10.718622 -58.10693 -8.284864
-10.623219 -62.484917 -10.207546
-10.098413 -67.368698 -11.369484
-10.07453 -72.5327 -12.156101
-8.634447 -85.854462 -2.186581
-5.13043 -91.427078 -2.828154
-6.265274 -84.812012 -4.788145
-5.538982 -83.069984 -7.575583
-7.211342 -80.691277 -10.464201
-11.016287 -77.515366 -13.116955
-2.989174 -116.697052 -12.303804
-3.154388 -111.627335 -13.438799
-4.250193 -105.349838 -13.816481
-12.791567 -104.769394 -18.486515
-9.127411 -101.906906 -16.382601
-6.418612 -98.096222 -13.90583
-9.431906 -90.209839 -14.074911
-12.827229 -81.953323 -14.510761
-16.028145 -73.460526 -15.349876
-21.178299 -68.668358 -17.469349
-13.179621 -66.729843 -14.252155
-14.392218 -62.651234 -15.132292
-15.184581 -64.876671 -15.401566
-17.311733 -62.866219 -16.524796
-16.206333 -67.069595 -15.658192
-10.343712 -76.389252 -3.834414
-10.287394 -72.867233 -4.681444
-9.478024 -75.627609 -5.138252
-8.782232 -74.724205 -6.444357
-8.298828 -78.416031 -5.478315
-1.517517 -101.750381 -8.800152
-1.565428 -99.167007 -7.313927
-2.23925 -98.39209 -9.195501
-3.218796 -94.828796 -9.60041
-3.550644 -97.309799 -10.968405
-10.667276 -114.383926 -19.01355
-13.533398 -112.173813 -19.970844
-22.531403 -87.29599 -19.681011
-19.63727 -90.33577 -18.724461
-20.956154 -86.151169 -18.767639
-19.51033 -84.781219 -17.912647
-22.269411 -81.904335 -18.921143
-23.54583 -77.620796 -19.190681
-12.375004 -77.582596 0.249649
-11.931114 -77.382721 -1.153193
-12.198822 -80.377754 -0.278955
-0.714663 -110.157593 -7.128193
-0.801683 -107.668808 -7.825901
-1.179642 -110.076691 -9.566843
-12.410183 -57.804413 -12.117765
-13.626623 -54.702038 -12.513807
-13.568371 -56.461548 -13.493744
-16.686882 -55.122322 -16.852787
-21.516975 -58.44492 -18.90823
-22.036377 -54.475639 -20.073593
-23.427391 -56.06974 -20.283886
-25.135208 -53.598869 -21.837177
-24.869522 -57.630047 -20.58947
-10.061941 -65.779037 -6.066914
-9.785086 -63.302513 -5.126932
-10.002903 -62.355927 -6.550728
-10.311804 -61.331898 -7.954767
-10.786535 -60.233177 -9.348146
-10.20615 -63.667908 -8.835659
-8.450939 -72.567429 -9.10828
-9.402119 -68.681213 -10.036152
-8.976742 -71.319626 -10.452326
-9.979685 -69.942467 -11.773462
-8.70274 -73.99102 -10.844162
-9.982601 -86.019516 -0.903833
-2.884684 -93.77182 -5.033831
-3.5819 -94.187027 -3.409451
-4.124714 -91.012726 -4.300085
-5.653818 -88.232971 -3.803995
-4.810621 -87.606384 -5.210869
-5.625217 -84.01683 -6.155489
-4.500536 -86.800018 -6.677965
-5.827847 -87.244492 -10.570679
-5.780022 -84.654037 -9.702944
-7.341202 -83.276169 -11.166941
-8.896204 -79.213379 -11.840982
-9.401962 -81.665268 -12.529955
-4.555338 -120.421799 -12.932932
-4.407759 -118.39003 -13.894581
-6.537622 -112.117386 -16.591095
-4.519409 -113.441315 -14.992012
-4.902239 -110.509048 -15.206108
-3.567169 -108.630142 -13.693396
-5.55283 -107.28653 -15.270863
-18.232784 -102.927246 -20.118542
-14.971439 -105.745407 -19.457043
-15.970545 -102.167236 -19.17775
-13.480274 -95.733948 -17.126724
-12.081499 -99.690979 -17.281425
-10.454199 -98.061172 -16.254356
-7.649706 -100.10199 -15.190378
-9.03886 -96.225449 -15.144402
-7.844555 -94.212173 -13.965479
-10.59351 -92.217194 -15.139482
-16.871246 -81.542343 -16.304024
-13.962676 -83.938278 -15.327538
-15.643669 -79.709793 -15.553829
-14.488407 -77.729675 -14.869843
-17.227646 -75.439514 -15.89772
-18.647232 -71.142624 -16.386724
-19.918629 -72.973427 -16.923134
-24.743008 -67.608414 -19.3223
-12.399185 -62.052261 -13.503651
-13.614653 -58.386829 -14.240818
-13.870346 -60.465397 -14.770094
-15.5384 -58.75156 -16.009296
-17.312849 -56.913811 -17.245895
-19.105019 -54.961506 -18.517387
-18.256523 -58.801159 -17.489502
-19.453768 -60.715725 -17.673527
-20.803156 -62.592701 -17.888618
-10.898516 -70.871796 -2.630997
-10.237005 -67.508362 -3.214449
-10.569216 -70.153831 -4.049448
-10.178032 -69.306732 -5.435066
-9.851589 -68.344055 -6.801517
-9.712223 -67.279358 -8.160822
-9.249607 -70.989754 -7.351095
-8.404085 -73.700882 -7.767357
-7.487898 -76.454964 -8.127377
-1.189215 -102.491318 -4.694796
-1.984293 -99.798798 -3.462332
-1.509821 -99.638077 -5.385612
-2.020119 -96.497421 -6.041441
-2.748451 -93.118195 -6.707453
-3.691689 -89.546692 -7.417042
-3.25996 -92.232101 -8.397511
-4.431414 -91.102417 -10.05158
-6.207365 -89.7117 -11.608942
-6.077463 -117.519455 -16.031881
-8.164913 -116.176346 -17.727718
-8.463184 -113.419098 -17.853287
-9.008095 -110.371582 -17.812889
-20.282694 -95.416443 -19.699833
-17.108294 -98.38208 -18.944016
-18.343372 -94.425339 -18.786545
-16.584877 -93.151459 -17.910057
-14.991791 -91.647797 -17.034393
-13.550535 -89.959167 -16.131052
-16.567612 -87.471222 -17.019619
-18.157425 -83.235168 -17.094177
-19.707287 -78.961372 -17.272892
-21.158764 -74.664566 -17.577705
-22.359224 -76.217712 -18.337429
-11.056395 -71.453049 -1.170298
-11.48317 -74.188019 -1.939278
-11.21357 -76.981949 -2.512024
-10.319681 -79.80262 -2.916212
-0.798262 -105.126648 -6.172895
-1.049553 -104.856842 -8.36348
-1.853422 -104.213089 -10.419092
-16.674129 -109.580673 -20.713181
-19.978065 -106.636169 -21.362564
-20.694675 -103.3284 -21.076805
-21.518559 -99.801208 -20.834606
-22.411617 -96.077179 -20.671844
-23.338509 -92.185349 -20.613052
-14.913335 -55.022346 -14.865278
-11.511057 -57.044434 -9.691481
-11.478996 -59.059006 -10.735607
-11.335144 -61.215698 -11.569656
-9.858406 -66.120987 -9.517986
-10.350811 -64.869225 -10.868694
-11.206211 -63.516773 -12.20142
-11.204403 -65.934875 -12.671511
-11.409269 -68.417244 -13.045021
-11.858021 -70.896622 -13.39657
-11.355379 -83.201004 -0.646494
-10.201727 -83.036636 -1.938755
-8.956104 -82.625443 -3.208572
-6.873495 -88.650742 -2.450186
-7.328424 -85.436951 -3.471916
-7.808277 -82.005859 -4.482141
-6.947771 -81.217026 -5.785442
-6.532743 -80.286407 -7.133081
-6.666355 -79.222504 -8.519711
-4.817133 -85.820511 -8.188753
-6.070066 -81.968201 -9.025955
-7.385523 -78.014801 -9.918314
-8.66301 -76.640518 -11.287857
-10.420628 -75.075783 -12.587589
-12.546535 -73.306061 -13.79302
-1.892004 -114.732574 -10.620806
-4.37306 -116.068008 -14.57058
-2.980522 -114.318115 -12.992235
-1.911598 -112.307358 -11.311098
-2.110098 -109.565063 -11.778786
-2.54488 -106.518799 -12.078163
-3.248074 -103.199509 -12.271782
-14.149647 -109.087784 -19.739288
-11.85548 -108.236359 -18.731113
-9.806774 -107.048523 -17.667385
-13.919641 -101.074829 -18.24361
-10.842545 -103.476364 -17.473969
-8.011387 -105.558121 -16.514189
-6.475243 -103.803986 -15.247139
-5.207424 -101.823654 -13.869493
-4.224173 -99.64975 -12.420013
-5.452377 -95.915344 -12.572477
-6.890907 -92.03775 -12.764233
-8.481552 -88.048782 -13.01734
-12.256163 -88.112915 -15.195356
-11.116673 -86.117493 -14.25165
-10.154194 -83.969421 -13.346045
-11.832222 -79.813156 -13.762356
-13.439915 -75.593307 -14.27903
-14.91226 -71.332237 -14.908476
-17.386997 -69.17041 -15.971323
-19.848669 -66.845757 -17.045887
-22.192543 -64.383766 -18.208813
-22.450804 -70.357986 -18.037155
-23.525581 -66.060501 -18.680859
-24.338356 -61.802849 -19.530376
-14.846114 -112.355423 -20.463052
-13.333137 -113.582664 -20.029686
-22.309059 -84.623219 -19.307482
-21.743779 -86.723579 -19.224325
-23.096684 -85.195629 -19.764167
-22.965688 -82.499802 -19.384234
-21.612783 -84.027752 -18.844391
-22.309059 -84.623219 -19.307482
-23.520406 -80.372891 -19.527087
-22.965688 -82.499802 -19.384234
-12.546226 -78.948113 0.676013
-12.426821 -77.588524 0.969804
-12.598043 -78.954041 1.396168
-0.921758 -111.34784 -8.002771
-0.714198 -111.236786 -6.674837
-0.921293 -112.427032 -7.549414
-17.300148 -53.479829 -17.243771
-17.509087 -54.223795 -17.516248
-9.741159 -66.580558 -1.952811
-9.533701 -66.930496 -1.180297
-9.292148 -116.60685 -18.32781
-8.122897 -117.408417 -17.552208
-24.147476 -75.470058 -19.388822
-24.693022 -76.089107 -19.865414
-11.387228 -73.251571 -0.086782
-11.818141 -74.729065 0.228688
-11.430834 -73.027611 -0.83905
-11.012789 -71.677009 -0.418031
-11.387228 -73.251571 -0.086782
-0.772727 -107.413147 -4.227048
-0.638316 -108.720146 -4.998573
-0.834862 -106.326034 -4.682868
-0.772727 -107.413147 -4.227048
-0.732581 -106.381241 -5.81029
-0.900544 -105.071441 -5.045473
-0.834862 -106.326034 -4.682868
-21.363552 -106.587844 -21.812483
-19.689917 -108.172707 -21.502945
-22.346731 -101.650253 -21.449571
-22.011534 -103.346702 -21.550964
-22.758673 -99.886657 -21.328472
-21.106617 -101.564804 -20.955706
-22.346731 -101.650253 -21.449571
-23.93931 -94.342529 -21.165627
-23.567554 -96.227753 -21.181797
-24.402756 -92.396614 -21.13623
-22.875063 -94.131264 -20.642448
-23.93931 -94.342529 -21.165627
-13.065574 -54.498255 -11.212198
-12.447943 -55.030045 -10.493019
-14.316333 -53.32186 -12.648861
-14.278559 -54.053888 -13.225537
-20.517173 -54.798361 -19.29718
-19.970664 -53.933981 -19.191893
-19.651528 -55.825886 -18.622675
-22.240036 -52.617117 -20.702341
-22.874661 -53.321666 -20.819967
-26.589515 -53.014412 -22.904525
-25.876327 -52.31653 -22.707939
-25.848396 -54.296751 -22.033763
-27.285427 -53.625994 -23.15015
-26.589515 -53.014412 -22.904525
-9.867776 -65.431686 -4.164364
-9.905419 -65.838028 -3.4432
-10.199362 -67.102021 -3.935614
-9.388797 -62.108387 -4.558169
-9.650876 -61.67127 -5.286053
-10.521405 -57.09272 -7.663395
-10.394879 -58.605776 -7.578859
-11.014967 -56.62491 -8.373359
-10.521405 -57.09272 -7.663395
-11.114839 -57.575682 -8.988173
-11.411184 -56.093663 -9.076667
-11.014967 -56.62491 -8.373359
-11.27005 -84.547539 -0.122264
-11.806468 -83.147686 0.019376
-2.76063 -97.00219 -3.384421
-2.576767 -98.437424 -2.987985
-2.168157 -98.363563 -3.858767
-4.910527 -92.882408 -2.336362
-4.136262 -94.262383 -2.62701
-4.356165 -92.807052 -3.118803
-5.787483 -91.50663 -2.118415
-4.910527 -92.882408 -2.336362
-6.001962 -90.03891 -2.63917
-6.659016 -90.118462 -1.929431
-5.787483 -91.50663 -2.118415
-2.483738 -116.772469 -10.987188
-3.049146 -117.736671 -11.822446
-2.440589 -115.714813 -11.462305
-1.935153 -115.79023 -10.145689
-2.483738 -116.772469 -10.987188
-24.574712 -64.695614 -19.384018
-24.134294 -66.834457 -19.001579
-25.183426 -65.469571 -19.704738
-24.9811 -62.566788 -19.808777
-23.931968 -63.931675 -19.105618
-24.574712 -64.695614 -19.384018
-25.287267 -60.457013 -20.293959
-24.9811 -62.566788 -19.808777
-11.900077 -114.687721 -19.551039
-10.543329 -115.71064 -18.970726
-12.100337 -113.278869 -19.492197
-11.900077 -114.687721 -19.551039
-13.333137 -113.582664 -20.029686
-24.158615 -78.231121 -19.661856
-22.907621 -79.762565 -19.055912
-23.520406 -80.372891 -19.527087
-24.693022 -76.089107 -19.865414
-24.158615 -78.231121 -19.661856
-12.103006 -76.219277 0.607414
-12.426821 -77.588524 0.969804
-12.090139 -76.092384 -0.129076
-11.818141 -74.729065 0.228688
-12.103006 -76.219277 0.607414
-0.662197 -109.981026 -5.838827
-0.714198 -111.236786 -6.674837
-0.690781 -108.896714 -6.287939
-0.638316 -108.720146 -4.998573
-0.662197 -109.981026 -5.838827
-14.249433 -54.933644 -13.715505
-14.278559 -54.053888 -13.225537
-13.597497 -55.581793 -13.003775
-16.535904 -54.301838 -16.546574
-15.736383 -55.146031 -15.894366
-15.887361 -55.966515 -16.200579
-16.535904 -54.301838 -16.546574
-17.300148 -53.479829 -17.243771
-23.570168 -54.118717 -20.925114
-22.874661 -53.321666 -20.819967
-22.731884 -55.272689 -20.178739
-24.281299 -54.834305 -21.060531
-24.424076 -52.883281 -21.701759
-23.570168 -54.118717 -20.925114
-9.759785 -61.197978 -5.997952
-9.650876 -61.67127 -5.286053
-9.893994 -62.82922 -5.83883
-10.037019 -60.730275 -6.711791
-9.759785 -61.197978 -5.997952
-10.19147 -60.21826 -7.413811
-10.037019 -60.730275 -6.711791
-10.157353 -61.843913 -7.252747
-10.515213 -59.719414 -8.119816
-10.394879 -58.605776 -7.578859
-10.19147 -60.21826 -7.413811
-9.819173 -87.35067 -0.355205
-10.583661 -85.956795 -0.250934
-9.128533 -87.417496 -1.015348
-9.819173 -87.35067 -0.355205
-8.454456 -87.334969 -1.656722
-9.308524 -85.936989 -1.545207
-9.128533 -87.417496 -1.015348
-3.832229 -119.599045 -12.13701
-3.913674 -120.500855 -11.512473
-3.758439 -118.58316 -12.617835
-3.832229 -119.599045 -12.13701
-4.481549 -119.405914 -13.413756
-3.698467 -117.543541 -13.099193
-3.049146 -117.736671 -11.822446
-3.758439 -118.58316 -12.617835
-25.288923 -68.311996 -19.724716
-24.18981 -69.759865 -19.034881
-24.735726 -70.463448 -19.437297
-25.746992 -66.167946 -20.077278
-25.288923 -68.311996 -19.724716
-25.183426 -65.469571 -19.704738
-25.746992 -66.167946 -20.077278
-12.788828 -80.173801 1.808693
-12.598043 -78.954041 1.396168
-1.152011 -113.608704 -8.413297
-0.921293 -112.427032 -7.549414
-17.82207 -55.11954 -17.712803
-17.509087 -54.223795 -17.516248
-16.999865 -56.018067 -17.049341
-18.208934 -55.937658 -17.881641
-18.718155 -54.143387 -18.348548
-17.82207 -55.11954 -17.712803
-1.586754 -101.145058 -4.078564
-1.858404 -101.0682 -3.037573
-1.460865 -102.41446 -3.653805
-7.079172 -118.079971 -16.70429
-6.106635 -118.646721 -15.705331
-7.108344 -119.207238 -16.37774
-7.121188 -116.8479 -16.879799
-7.079172 -118.079971 -16.70429
-8.122897 -117.408417 -17.552208
-9.416094 -115.280136 -18.370634
-9.292148 -116.60685 -18.32781
-10.543329 -115.71064 -18.970726
-23.554174 -74.768517 -18.962196
-22.952527 -76.919254 -18.764055
-24.147476 -75.470058 -19.388822
-24.192867 -72.615319 -19.167213
-22.997918 -74.064514 -18.542446
-23.554174 -74.768517 -18.962196
-24.735726 -70.463448 -19.437297
-24.192867 -72.615319 -19.167213
-10.075117 -68.510059 -0.965293
-9.533701 -66.930496 -1.180297
-10.507286 -70.130639 -0.685283
-11.012789 -71.677009 -0.418031
-10.624226 -69.83247 -1.450308
-10.075117 -68.510059 -0.965293
-10.507286 -70.130639 -0.685283
-1.09602 -103.753777 -4.306424
-1.460865 -102.41446 -3.653805
-0.993738 -103.808983 -5.433846
-1.09602 -103.753777 -4.306424
-0.900544 -105.071441 -5.045473
-18.037948 -109.644959 -21.178253
-16.416479 -111.058853 -20.834221
-18.326097 -108.108421 -21.037872
-18.037948 -109.644959 -21.178253
-19.689917 -108.172707 -21.502945
-21.65323 -105.000587 -21.693844
-21.363552 -106.587844 -21.812483
-20.33637 -104.982284 -21.219684
-21.65323 -105.000587 -21.693844
-22.011534 -103.346702 -21.550964
-23.121026 -98.089767 -21.263178
-22.758673 -99.886657 -21.328472
-21.965088 -97.939194 -20.753225
-23.121026 -98.089767 -21.263178
-23.567554 -96.227753 -21.181797
-24.770332 -90.4376 -21.177433
-24.402756 -92.396614 -21.13623
-23.805352 -90.171989 -20.642851
-24.770332 -90.4376 -21.177433
-22.834927 -89.78656 -20.152956
-22.368085 -91.79992 -20.123157
-23.805352 -90.171989 -20.642851
-23.401798 -87.72731 -20.17683
-21.964532 -89.35524 -19.657137
-22.834927 -89.78656 -20.152956
-23.863748 -85.663094 -20.268726
-23.401798 -87.72731 -20.17683
-23.096684 -85.195629 -19.764167
-23.863748 -85.663094 -20.268726
-13.639319 -53.893269 -11.919246
-13.065574 -54.498255 -11.212198
-13.052878 -55.307024 -11.806758
-13.639319 -53.893269 -11.919246
-14.316333 -53.32186 -12.648861
-14.921915 -54.214042 -14.401273
-14.249433 -54.933644 -13.715505
-14.240853 -55.741947 -14.179511
-15.649131 -54.25185 -15.552819
-15.000587 -55.916527 -15.206825
-15.736383 -55.146031 -15.894366
-15.629713 -53.518836 -15.120334
-15.649131 -54.25185 -15.552819
-14.921915 -54.214042 -14.401273
-15.629713 -53.518836 -15.120334
-19.525294 -53.194177 -19.039499
-18.718155 -54.143387 -18.348548
-19.525294 -53.194177 -19.039499
-19.970664 -53.933981 -19.191893
-21.436343 -53.691047 -19.969995
-20.517173 -54.798361 -19.29718
-21.117207 -55.582953 -19.400778
-21.436343 -53.691047 -19.969995
-22.240036 -52.617117 -20.702341
-25.163572 -51.684734 -22.531944
-24.424076 -52.883281 -21.701759
-25.163572 -51.684734 -22.531944
-25.876327 -52.31653 -22.707939
-4.6543 -121.302987 -12.302917
-3.913674 -120.500855 -11.512473
-5.430245 -121.083893 -13.679696
-4.6543 -121.302987 -12.302917
-6.220479 -120.759987 -14.902621
-5.345572 -120.097893 -14.155857
-5.430245 -121.083893 -13.679696
-7.147787 -120.295792 -16.063046
-6.220479 -120.759987 -14.902621
-7.108344 -119.207238 -16.37774
-7.147787 -120.295792 -16.063046
-9.763632 -66.228794 -2.694877
-9.741159 -66.580558 -1.952811
-10.214531 -67.860127 -2.472384
-9.763632 -66.228794 -2.694877
-9.905419 -65.838028 -3.4432
-9.67946 -63.735103 -4.399442
-9.867776 -65.431686 -4.164364
-9.973402 -64.999096 -4.891855
-9.67946 -63.735103 -4.399442
-9.388797 -62.108387 -4.558169
-11.963905 -55.596257 -9.788905
-11.411184 -56.093663 -9.076667
-11.995095 -56.478222 -10.395595
-12.447943 -55.030045 -10.493019
-11.963905 -55.596257 -9.788905
-12.759211 -81.515548 1.580575
-12.788828 -80.173801 1.808693
-12.830592 -81.375721 2.286892
-12.487502 -81.703999 0.893811
-12.759211 -81.515548 1.580575
-12.228189 -81.736061 0.203146
-12.458134 -80.345692 0.41171
-12.487502 -81.703999 0.893811
-11.7771 -81.789379 -0.462724
-12.228189 -81.736061 0.203146
-11.806468 -83.147686 0.019376
-10.66899 -84.61026 -0.775164
-11.27005 -84.547539 -0.122264
-10.583661 -85.956795 -0.250934
-2.415892 -99.714364 -2.521191
-1.858404 -101.0682 -3.037573
-2.415892 -99.714364 -2.521191
-2.576767 -98.437424 -2.987985
-3.375571 -95.631539 -2.961544
-2.76063 -97.00219 -3.384421
-2.96696 -95.557678 -3.832327
-3.375571 -95.631539 -2.961544
-4.136262 -94.262383 -2.62701
-7.573981 -88.733109 -1.788524
-6.659016 -90.118462 -1.929431
-7.753971 -87.252602 -2.318383
-8.454456 -87.334969 -1.656722
-7.573981 -88.733109 -1.788524
-1.533586 -114.705948 -9.285027
-1.935153 -115.79023 -10.145689
-1.510429 -113.63533 -9.749077
-1.152011 -113.608704 -8.413297
-1.533586 -114.705948 -9.285027
-15.103763 -110.877243 -20.342012
-14.846114 -112.355423 -20.463052
-16.416479 -111.058853 -20.834221
-25.55285 -58.370611 -20.823505
-24.603939 -59.716448 -20.059923
-25.287267 -60.457013 -20.293959
-26.398881 -57.052904 -21.643946
-25.715553 -56.31234 -21.40991
-25.55285 -58.370611 -20.823505
-27.215782 -55.651711 -22.516829
-26.398881 -57.052904 -21.643946
-27.285427 -53.625994 -23.15015
-27.215782 -55.651711 -22.516829
3 0 69 67
3 0 71 69
3 1 74 72
3 1 76 74
3 2 79 77
3 2 81 79
3 265 83 266
3 267 86 268
3 269 268 84
3 267 268 269
3 270 88 271
3 272 271 86
3 270 271 272
3 274 273 88
3 4 275 277
3 275 90 276
3 275 276 277
3 4 92 90
3 5 278 280
3 278 93 279
3 278 279 280
3 5 95 93
3 7 98 96
3 282 281 99
3 8 102 100
3 8 104 102
3 3 283 284
3 10 107 105
3 10 108 107
3 10 110 108
3 11 113 111
3 11 115 113
3 12 119 117
3 12 121 119
3 12 123 121
3 13 126 124
3 13 128 126
3 9 130 129
3 14 133 131
3 14 135 133
3 6 138 136
3 15 141 139
3 15 143 141
3 15 145 143
3 16 148 146
3 16 150 148
3 16 152 150
3 17 156 154
3 19 157 68
3 19 158 157
3 19 160 158
3 21 161 70
3 21 162 161
3 22 165 163
3 24 166 73
3 24 167 166
3 24 169 167
3 26 170 75
3 26 171 170
3 27 174 172
3 29 175 78
3 29 176 175
3 29 178 176
3 31 179 80
3 31 180 179
3 285 182 286
3 33 183 82
3 33 184 183
3 34 187 185
3 36 188 85
3 36 189 188
3 36 191 189
3 38 192 87
3 38 193 192
3 38 195 193
3 288 287 89
3 40 289 290
3 40 291 293
3 291 196 292
3 291 292 293
3 40 197 196
3 41 198 91
3 41 199 198
3 42 294 295
3 42 296 297
3 42 298 300
3 298 200 299
3 298 299 300
3 43 201 94
3 43 202 201
3 301 204 302
3 303 205 304
3 305 206 306
3 307 306 205
3 305 306 307
3 308 207 309
3 310 208 311
3 312 311 207
3 310 311 312
3 45 313 314
3 316 315 97
3 18 209 155
3 20 317 319
3 319 318 159
3 317 318 319
3 321 320 101
3 46 322 324
3 324 323 103
3 322 323 324
3 46 325 326
3 23 327 329
3 329 328 164
3 327 328 329
3 331 330 106
3 47 332 333
3 47 334 335
3 47 336 338
3 336 210 337
3 336 337 338
3 48 211 109
3 48 212 211
3 25 213 168
3 49 214 112
3 49 215 214
3 49 216 215
3 50 217 114
3 50 218 217
3 339 219 340
3 51 220 116
3 51 221 220
3 28 341 343
3 343 342 173
3 341 342 343
3 52 344 346
3 346 345 118
3 344 345 346
3 52 347 348
3 52 349 351
3 349 222 350
3 349 350 351
3 53 223 120
3 53 224 223
3 53 225 224
3 54 226 122
3 54 227 226
3 30 228 177
3 55 229 125
3 55 230 229
3 55 231 230
3 56 232 127
3 56 233 232
3 57 352 353
3 57 354 356
3 354 234 355
3 354 355 356
3 32 235 181
3 58 236 132
3 58 237 236
3 58 238 237
3 59 239 134
3 59 240 239
3 44 241 203
3 60 242 137
3 60 243 242
3 35 244 186
3 61 245 140
3 61 246 245
3 61 247 246
3 62 248 142
3 62 249 248
3 62 250 249
3 63 251 144
3 63 252 251
3 37 253 190
3 64 254 147
3 64 255 254
3 64 256 255
3 65 257 149
3 65 258 257
3 65 259 258
3 66 260 151
3 66 261 260
3 39 262 194
3 357 263 358
3 359 358 153
3 357 358 359
3 360 264 361
3 362 361 263
3 360 361 362
3 364 363 264
3 67 68 17
3 69 68 67
3 69 19 68
3 69 70 19
3 71 70 69
3 71 21 70
3 72 73 22
3 74 73 72
3 74 24 73
3 74 75 24
3 76 75 74
3 76 26 75
3 77 78 27
3 79 78 77
3 79 29 78
3 79 80 29
3 81 80 79
3 81 31 80
3 365 82 366
3 83 367 369
3 367 82 368
3 367 368 369
3 83 33 82
3 84 85 34
3 86 85 84
3 86 36 85
3 86 87 36
3 88 87 86
3 88 38 87
3 88 89 38
3 370 89 371
3 372 371 88
3 370 371 372
3 374 373 89
3 90 375 376
3 90 377 379
3 377 40 378
3 377 378 379
3 90 91 40
3 92 91 90
3 92 41 91
3 93 380 381
3 93 382 384
3 382 42 383
3 382 383 384
3 93 94 42
3 95 94 93
3 95 43 94
3 96 97 45
3 98 97 96
3 98 385 387
3 387 386 97
3 385 386 387
3 99 388 390
3 390 389 18
3 388 389 390
3 392 391 99
3 100 101 20
3 102 101 100
3 102 393 395
3 395 394 101
3 393 394 395
3 102 396 398
3 396 103 397
3 396 397 398
3 104 103 102
3 104 46 103
3 105 106 23
3 107 106 105
3 107 399 401
3 401 400 106
3 399 400 401
3 107 402 403
3 108 404 406
3 406 405 107
3 404 405 406
3 108 407 409
3 407 47 408
3 407 408 409
3 108 109 47
3 110 109 108
3 110 48 109
3 111 112 25
3 113 112 111
3 113 49 112
3 113 114 49
3 115 114 113
3 115 50 114
3 410 116 411
3 412 116 413
3 414 51 415
3 416 415 116
3 414 415 416
3 117 118 28
3 119 118 117
3 119 52 118
3 119 120 52
3 121 120 119
3 121 53 120
3 121 122 53
3 123 122 121
3 123 54 122
3 124 125 30
3 126 125 124
3 126 55 125
3 126 127 55
3 128 127 126
3 128 56 127
3 129 417 418
3 130 419 421
3 421 420 129
3 419 420 421
3 130 422 424
3 422 57 423
3 422 423 424
3 131 132 32
3 133 132 131
3 133 58 132
3 133 134 58
3 135 134 133
3 135 59 134
3 136 137 44
3 138 137 136
3 138 60 137
3 139 140 35
3 141 140 139
3 141 61 140
3 141 142 61
3 143 142 141
3 143 62 142
3 143 144 62
3 145 144 143
3 145 63 144
3 146 147 37
3 148 147 146
3 148 64 147
3 148 149 64
3 150 149 148
3 150 65 149
3 150 151 65
3 152 151 150
3 152 66 151
3 425 153 426
3 427 426 39
3 425 426 427
3 428 153 429
3 431 430 153
3 432 4 433
3 434 5 435
3 154 155 7
3 156 155 154
3 156 18 155
3 68 156 17
3 157 156 68
3 157 18 156
3 157 99 18
3 158 99 157
3 158 436 438
3 438 437 99
3 436 437 438
3 158 439 441
3 439 159 440
3 439 440 441
3 160 159 158
3 160 20 159
3 70 160 19
3 161 160 70
3 161 20 160
3 161 100 20
3 162 100 161
3 162 8 100
3 163 164 3
3 165 164 163
3 165 23 164
3 73 165 22
3 166 165 73
3 166 23 165
3 166 105 23
3 167 105 166
3 167 10 105
3 167 168 10
3 169 168 167
3 169 25 168
3 75 169 24
3 170 169 75
3 170 25 169
3 170 111 25
3 171 111 170
3 171 11 111
3 172 442 444
3 442 173 443
3 442 443 444
3 174 173 172
3 174 28 173
3 78 174 27
3 175 174 78
3 175 28 174
3 175 117 28
3 176 117 175
3 176 12 117
3 176 177 12
3 178 177 176
3 178 30 177
3 80 178 29
3 179 178 80
3 179 30 178
3 179 124 30
3 180 124 179
3 180 13 124
3 445 181 446
3 447 446 9
3 445 446 447
3 182 448 450
3 448 181 449
3 448 449 450
3 182 32 181
3 82 451 453
3 451 182 452
3 451 452 453
3 183 182 82
3 183 32 182
3 183 131 32
3 184 131 183
3 184 14 131
3 185 186 6
3 187 186 185
3 187 35 186
3 85 187 34
3 188 187 85
3 188 35 187
3 188 139 35
3 189 139 188
3 189 15 139
3 189 190 15
3 191 190 189
3 191 37 190
3 87 191 36
3 192 191 87
3 192 37 191
3 192 146 37
3 193 146 192
3 193 16 146
3 193 194 16
3 195 194 193
3 195 39 194
3 89 195 38
3 454 195 455
3 456 455 89
3 454 455 456
3 457 39 458
3 459 458 195
3 457 458 459
3 461 460 39
3 462 3 463
3 196 464 465
3 196 466 468
3 466 3 467
3 466 467 468
3 196 163 3
3 197 163 196
3 197 22 163
3 91 197 40
3 198 197 91
3 198 22 197
3 198 72 22
3 199 72 198
3 199 1 72
3 469 172 470
3 200 471 473
3 471 172 472
3 471 472 473
3 200 27 172
3 94 200 42
3 201 200 94
3 201 27 200
3 201 77 27
3 202 77 201
3 202 2 77
3 474 203 475
3 204 476 478
3 476 203 477
3 476 477 478
3 204 44 203
3 479 204 480
3 205 481 483
3 481 204 482
3 481 482 483
3 205 44 204
3 205 136 44
3 206 136 205
3 206 6 136
3 484 206 485
3 207 486 488
3 486 206 487
3 486 487 488
3 207 6 206
3 207 185 6
3 208 185 207
3 208 34 185
3 489 208 490
3 491 208 492
3 493 34 494
3 495 494 208
3 493 494 495
3 496 84 497
3 498 497 34
3 496 497 498
3 499 84 500
3 502 501 84
3 97 503 505
3 505 504 45
3 503 504 505
3 507 506 97
3 155 98 7
3 209 98 155
3 209 508 510
3 510 509 98
3 508 509 510
3 511 209 512
3 513 512 18
3 511 512 513
3 514 209 515
3 517 516 209
3 159 518 519
3 521 520 159
3 101 522 524
3 524 523 20
3 522 523 524
3 526 525 101
3 103 527 528
3 530 529 103
3 531 129 532
3 533 129 534
3 535 9 536
3 537 536 129
3 535 536 537
3 538 9 539
3 541 540 9
3 164 542 544
3 544 543 3
3 542 543 544
3 546 545 164
3 106 547 549
3 549 548 23
3 547 548 549
3 551 550 106
3 210 552 553
3 210 554 556
3 554 45 555
3 554 555 556
3 109 210 47
3 211 210 109
3 211 45 210
3 211 96 45
3 212 96 211
3 212 7 96
3 168 110 10
3 213 110 168
3 213 48 110
3 112 213 25
3 214 213 112
3 214 48 213
3 214 212 48
3 215 212 214
3 215 7 212
3 215 154 7
3 216 154 215
3 216 17 154
3 114 216 49
3 217 216 114
3 217 17 216
3 217 67 17
3 218 67 217
3 218 0 67
3 557 4 558
3 557 558 559
3 560 4 561
3 562 92 563
3 564 563 4
3 562 563 564
3 219 565 567
3 565 92 566
3 565 566 567
3 219 41 92
3 116 568 570
3 568 219 569
3 568 569 570
3 220 219 116
3 220 41 219
3 220 199 41
3 221 199 220
3 221 1 199
3 173 571 572
3 574 573 173
3 118 575 577
3 577 576 28
3 575 576 577
3 579 578 118
3 222 580 581
3 222 582 584
3 582 51 583
3 582 583 584
3 120 222 52
3 223 222 120
3 223 51 222
3 223 221 51
3 224 221 223
3 224 1 221
3 224 76 1
3 225 76 224
3 225 26 76
3 122 225 53
3 226 225 122
3 226 26 225
3 226 171 26
3 227 171 226
3 227 11 171
3 177 123 12
3 228 123 177
3 228 54 123
3 125 228 30
3 229 228 125
3 229 54 228
3 229 227 54
3 230 227 229
3 230 11 227
3 230 115 11
3 231 115 230
3 231 50 115
3 127 231 55
3 232 231 127
3 232 50 231
3 232 218 50
3 233 218 232
3 233 0 218
3 234 585 586
3 234 587 589
3 587 5 588
3 587 588 589
3 181 130 9
3 235 130 181
3 235 57 130
3 132 235 32
3 236 235 132
3 236 57 235
3 236 234 57
3 237 234 236
3 237 5 234
3 237 95 5
3 238 95 237
3 238 43 95
3 134 238 58
3 239 238 134
3 239 43 238
3 239 202 43
3 240 202 239
3 240 2 202
3 203 590 592
3 590 83 591
3 590 591 592
3 241 83 203
3 241 33 83
3 137 241 44
3 242 241 137
3 242 33 241
3 242 184 33
3 243 184 242
3 243 14 184
3 186 138 6
3 244 138 186
3 244 60 138
3 140 244 35
3 245 244 140
3 245 60 244
3 245 243 60
3 246 243 245
3 246 14 243
3 246 135 14
3 247 135 246
3 247 59 135
3 142 247 61
3 248 247 142
3 248 59 247
3 248 240 59
3 249 240 248
3 249 2 240
3 249 81 2
3 250 81 249
3 250 31 81
3 144 250 62
3 251 250 144
3 251 31 250
3 251 180 31
3 252 180 251
3 252 13 180
3 190 145 15
3 253 145 190
3 253 63 145
3 147 253 37
3 254 253 147
3 254 63 253
3 254 252 63
3 255 252 254
3 255 13 252
3 255 128 13
3 256 128 255
3 256 56 128
3 149 256 64
3 257 256 149
3 257 56 256
3 257 233 56
3 258 233 257
3 258 0 233
3 258 71 0
3 259 71 258
3 259 21 71
3 151 259 65
3 260 259 151
3 260 21 259
3 260 162 21
3 261 162 260
3 261 8 162
3 194 152 16
3 262 152 194
3 262 66 152
3 153 262 39
3 263 262 153
3 263 66 262
3 263 261 66
3 264 261 263
3 264 8 261
3 264 104 8
3 593 104 594
3 595 594 264
3 593 594 595
3 596 46 597
3 598 597 104
3 596 597 598
3 599 46 600
3 602 601 46
