ply
format ascii 1.0
element vertex 441
property float x
property float y
property float z
element face 461
property list uchar int vertex_index
end_header
2.688457 34.248611 -29.277363
0.115778 69.983734 -29.817879
-0.322243 77.399918 -18.274979
1.607151 62.96619 -23.496674
-1.18479 40.450409 -33.002716
-2.257914 19.18018 -28.632885
-2.803162 57.736675 -34.180843
2.193407 53.746761 -32.191376
5.602901 15.603798 -19.729252
1.16543 37.729015 -31.815128
-1.395979 30.22887 -30.842606
0.845982 26.91135 -29.468475
-1.804882 76.73317 -26.795479
-2.931692 71.44133 -30.638382
-0.881121 64.389847 -32.993835
0.400566 56.405552 -33.99649
1.394388 62.238316 -31.679756
2.570744 54.929028 -24.480408
3.799892 30.362846 -25.525734
2.56995 23.08213 -27.004913
4.092785 19.135284 -23.618511
-1.470705 80.622925 -21.207863
0.193396 74.315903 -24.726212
1.359312 66.940216 -27.287415
0.662479 70.498993 -21.359909
-4.291096 32.706596 -31.412994
-5.013493 22.362289 -29.237339
-6.665739 11.581594 -27.488277
0.105404 15.411327 -27.423397
-1.628469 49.605556 -34.284069
1.047157 47.551693 -33.540833
2.594971 44.470856 -31.281952
2.259064 58.887943 -28.698536
2.948895 50.221645 -28.769985
3.438866 40.77092 -27.537083
2.010839 36.060661 -30.720894
1.056538 32.435429 -30.662239
1.918493 30.659111 -29.542294
-0.749981 73.511032 -28.439369
-2.263905 74.258835 -28.957314
-1.16083 70.939316 -30.455956
-1.800434 68.046417 -31.972466
-0.258581 67.336823 -31.665176
0.467056 63.4995 -32.558445
0.8225 66.212265 -30.906223
3.956284 24.823658 -24.505772
-0.924189 80.48024 -16.433283
-1.529362 82.066147 -17.925919
-0.694715 79.210892 -19.873196
-0.555134 77.639404 -23.075428
-0.017948 76.006241 -21.627735
0.553257 72.533264 -23.167122
0.189655 74.049744 -19.924294
-2.70083 41.417698 -33.199356
-4.250193 37.534142 -32.414478
-2.640993 36.637672 -32.278957
-1.742285 24.777267 -29.688919
-3.076263 26.311123 -30.062462
-3.583618 20.862389 -28.983982
-5.717005 16.980263 -28.270981
-4.299921 15.329597 -28.053349
2.432232 17.262833 -26.064709
1.513535 19.258785 -27.330284
1.181068 13.412685 -26.499836
-2.117672 53.79211 -34.420483
1.464918 55.216747 -33.307117
0.79631 52.091961 -33.948784
1.764599 50.774784 -33.136276
1.946867 46.113552 -32.612999
2.439232 49.216976 -31.90659
1.537577 65.024475 -25.511883
1.835812 62.987431 -28.150108
1.990614 61.055721 -26.266418
3.031567 50.686314 -24.492657
2.820805 52.702526 -26.812389
3.185024 48.277409 -26.583794
3.21595 45.608654 -28.296577
3.512794 43.647896 -26.048817
3.810333 38.788818 -25.2701
6.327927 14.219677 -17.724949
0.10648 39.207642 -32.562283
-1.210829 35.46701 -31.985031
0.021528 34.052757 -31.465839
-0.194881 28.655914 -30.283848
-0.543606 23.063526 -29.1353
-3.0788 79.575851 -24.913441
-2.656719 64.867355 -32.994308
-1.739536 61.176167 -33.814995
-1.025951 57.257084 -34.275093
-0.153492 60.504551 -33.675175
1.036425 59.456226 -33.112019
1.847872 58.082653 -32.114391
1.706623 60.834721 -21.317112
2.091309 59.014515 -24.14489
2.261387 56.914043 -21.861206
3.262436 32.335884 -27.522545
2.652588 28.768044 -28.111641
3.314564 26.806938 -26.411194
3.338104 21.094456 -25.402695
3.318211 15.282669 -24.584362
4.849739 17.276527 -21.709435
-2.572451 84.485382 -15.811928
-2.597355 83.181793 -19.149155
-2.754183 81.553955 -22.208153
-1.548985 78.85202 -24.190502
-0.55839 75.744156 -25.957634
0.254669 72.311401 -27.483719
0.927254 68.624237 -28.745403
0.819496 70.72937 -26.137718
1.06238 68.857758 -24.46978
1.130173 66.795944 -22.559242
0.221403 71.878235 -18.045509
1.318369 62.423382 -18.304142
-2.76499 31.590233 -31.197124
-4.542412 27.630928 -30.317356
-7.205408 18.453144 -28.468891
-8.135906 13.203968 -27.646252
-9.337017 8.005354 -27.03059
1.753889 25.038158 -28.372429
0.5327 21.209332 -28.355816
-1.033306 17.349777 -28.126892
-1.680729 11.612379 -27.329899
-2.956739 13.52879 -27.758183
-5.239664 9.813929 -27.327213
-2.946724 45.918415 -33.864342
-1.321341 45.162533 -33.794849
-0.498903 53.111942 -34.362381
-0.143183 48.731274 -34.08223
0.054691 44.100449 -33.463223
1.165987 42.768185 -32.807384
2.024378 41.213291 -31.781368
2.67326 39.485641 -30.374378
1.488888 64.735046 -29.718849
1.958498 60.674709 -30.37833
2.345711 56.452869 -30.698826
2.420643 56.95332 -26.706356
2.630482 54.638821 -28.908733
2.655136 52.061031 -30.663704
2.891411 47.47765 -30.276058
3.062805 42.675514 -29.570026
3.181835 37.631119 -28.617043
3.629471 35.688744 -26.576145
1.698589 12.412648 -25.925987
1.80665 15.337759 -26.282272
2.324171 14.337722 -25.708424
-3.848679 57.787658 -33.970365
-3.252123 59.592426 -33.873163
-3.416792 55.925151 -34.177216
-3.848679 57.787658 -33.970365
-2.460417 55.764392 -34.300663
-3.074047 53.952869 -34.297035
-3.416792 55.925151 -34.177216
3.324657 47.267506 -25.388958
3.108295 49.481862 -25.538226
3.247929 48.471958 -24.34339
3.488542 44.95275 -25.121469
3.348909 45.962653 -26.316305
3.324657 47.267506 -25.388958
3.689919 42.632221 -24.838262
3.488542 44.95275 -25.121469
6.659749 13.73609 -16.728029
6.486973 16.077126 -17.009746
6.818795 15.593538 -16.012825
6.466829 11.701867 -17.466642
6.659749 13.73609 -16.728029
-2.698151 76.982452 -26.997435
-3.33511 78.403793 -26.056415
-2.441841 78.154511 -25.85446
-3.612862 72.983162 -29.831736
-3.278969 74.391915 -28.991202
-2.597798 72.850082 -29.797848
-4.051991 71.461556 -30.511236
-3.612862 72.983162 -29.831736
-3.363612 69.877495 -31.238497
-4.051991 71.461556 -30.511236
2.102469 57.791343 -20.448087
1.984005 58.874382 -21.589159
1.825087 59.751683 -20.17604
5.22632 16.440162 -20.719344
5.07179 19.147098 -21.043562
5.448372 18.310734 -20.05347
-2.124205 83.846123 -15.117057
-2.60329 84.98854 -14.040157
0.005806 72.443314 -16.321133
0.004645 73.587113 -17.26881
1.02963 64.241659 -17.804443
1.245793 63.527296 -19.393635
-5.121522 33.131809 -31.481098
-5.101071 35.545582 -31.98184
-4.270644 35.120369 -31.913736
-5.20817 30.709011 -30.963487
-5.121522 33.131809 -31.481098
-5.776268 23.007528 -29.344774
-5.540727 25.641848 -29.884783
-4.777952 24.996609 -29.777347
-6.109451 20.407716 -28.853115
-6.872225 21.052956 -28.96055
-5.776268 23.007528 -29.344774
-2.768603 9.770681 -27.217293
-2.094807 8.787637 -27.046114
-3.406607 10.728886 -27.431435
-2.318734 12.570585 -27.544041
-2.768603 9.770681 -27.217293
-4.54807 8.871455 -27.21595
-4.098202 11.67136 -27.542698
-3.406607 10.728886 -27.431435
-2.287597 47.761986 -34.074206
-3.166393 48.031937 -34.033883
-2.507266 49.875507 -34.243746
3.949173 36.239731 -24.805658
4.027641 37.768934 -24.068689
4.155619 26.596561 -23.939251
3.878088 27.593252 -25.015753
4.077423 29.366156 -24.449232
4.284479 23.848114 -23.487913
4.155619 26.596561 -23.939251
4.35273 21.003927 -23.044283
4.024534 21.979471 -24.062142
4.284479 23.848114 -23.487913
5.320917 13.641393 -20.424715
5.728414 12.922411 -19.467624
-1.226776 81.273193 -17.179601
-1.602661 82.636505 -16.174053
-1.300074 81.843551 -15.427734
-3.475512 39.47592 -32.806917
-4.33291 39.80941 -32.815331
-3.558228 41.751188 -33.207769
-2.751868 51.968784 -34.311953
-3.074047 53.952869 -34.297035
-1.873071 51.698833 -34.352276
-2.507266 49.875507 -34.243746
-2.751868 51.968784 -34.311953
3.838688 40.202682 -24.448904
3.661563 41.218357 -25.659458
3.689919 42.632221 -24.838262
4.027641 37.768934 -24.068689
3.838688 40.202682 -24.448904
5.793437 17.47032 -19.013247
5.448372 18.310734 -20.05347
6.15595 16.77826 -18.011095
6.486973 16.077126 -17.009746
5.965414 14.911738 -18.7271
5.793437 17.47032 -19.013247
6.15595 16.77826 -18.011095
6.090927 12.230351 -18.465473
5.728414 12.922411 -19.467624
5.965414 14.911738 -18.7271
6.090927 12.230351 -18.465473
6.466829 11.701867 -17.466642
-1.057225 80.975227 -14.630489
-1.300074 81.843551 -15.427734
-0.793707 79.498749 -15.589432
-1.057225 80.975227 -14.630489
-0.492734 77.958588 -16.51028
-0.623216 78.940079 -17.354131
-0.793707 79.498749 -15.589432
-0.267178 76.347954 -17.383545
-0.492734 77.958588 -16.51028
-4.119086 79.681358 -25.065315
-3.83562 80.76873 -23.869439
-4.119086 79.681358 -25.065315
-3.33511 78.403793 -26.056415
-2.927663 75.745285 -28.078352
-2.698151 76.982452 -26.997435
-2.034394 75.496003 -27.876396
-2.927663 75.745285 -28.078352
-3.278969 74.391915 -28.991202
-2.797983 68.180038 -31.905539
-3.363612 69.877495 -31.238497
-2.366063 69.743874 -31.305424
-3.226126 66.590508 -32.41646
-2.797983 68.180038 -31.905539
-2.228576 66.456886 -32.483387
-3.742443 64.895859 -32.794553
-3.226126 66.590508 -32.41646
-3.178901 63.157766 -33.279895
-3.742443 64.895859 -32.794553
-2.72031 61.312172 -33.690239
-3.178901 63.157766 -33.279895
-2.198128 63.021761 -33.404651
-2.271349 59.456421 -33.997919
-3.252123 59.592426 -33.873163
-2.72031 61.312172 -33.690239
2.42494 55.843879 -20.670128
2.102469 57.791343 -20.448087
2.538822 54.88073 -21.980324
2.42494 55.843879 -20.670128
2.6935 53.888222 -23.289925
2.416066 55.921536 -23.170807
2.538822 54.88073 -21.980324
2.923912 51.766865 -23.29605
2.801156 52.807671 -24.486533
2.6935 53.888222 -23.289925
3.192045 49.647091 -23.263091
2.923912 51.766865 -23.29605
3.247929 48.471958 -24.34339
3.192045 49.647091 -23.263091
2.767161 13.34764 -24.96825
2.324171 14.337722 -25.708424
2.875221 16.272751 -25.324535
4.731207 20.074548 -22.089745
5.07179 19.147098 -21.043562
4.471262 18.205906 -22.663973
4.35273 21.003927 -23.044283
4.731207 20.074548 -22.089745
4.944336 14.477758 -21.414806
5.22632 16.440162 -20.719344
5.320917 13.641393 -20.424715
4.518711 15.334427 -22.316748
4.944336 14.477758 -21.414806
4.140234 16.263805 -23.271286
4.471262 18.205906 -22.663973
4.518711 15.334427 -22.316748
3.752947 14.337498 -23.754211
3.705498 17.208976 -24.101436
4.140234 16.263805 -23.271286
3.271065 12.382974 -24.286617
3.752947 14.337498 -23.754211
2.767161 13.34764 -24.96825
3.271065 12.382974 -24.286617
-3.216583 85.436844 -14.686794
-2.60329 84.98854 -14.040157
-3.269744 84.860298 -16.370825
-3.216583 85.436844 -14.686794
-2.050906 83.275765 -16.868924
-2.124205 83.846123 -15.117057
-1.602661 82.636505 -16.174053
-3.282196 84.208504 -18.039439
-3.269744 84.860298 -16.370825
-2.584903 83.833587 -17.480542
-3.398859 83.47567 -19.595234
-3.282196 84.208504 -18.039439
-3.477273 82.661751 -21.124733
-3.398859 83.47567 -19.595234
-2.675769 82.367874 -20.678654
-3.673311 81.757782 -22.516794
-3.477273 82.661751 -21.124733
-2.916492 80.564903 -23.560797
-3.83562 80.76873 -23.869439
-3.673311 81.757782 -22.516794
-0.011229 74.672867 -18.208202
-0.066294 75.724831 -19.099636
-0.267178 76.347954 -17.383545
0.205529 72.963989 -18.984901
-0.011229 74.672867 -18.208202
0.004645 73.587113 -17.26881
0.226065 70.734101 -17.053143
0.005806 72.443314 -16.321133
0.44935 70.096276 -18.714693
0.226065 70.734101 -17.053143
0.669887 69.406655 -20.371893
0.441941 71.188614 -19.702709
0.44935 70.096276 -18.714693
0.903735 67.55513 -20.971559
0.896326 68.647469 -21.959575
0.669887 69.406655 -20.371893
1.151696 65.713577 -21.521185
0.903735 67.55513 -20.971559
1.390185 63.7987 -21.989901
1.368662 64.881067 -23.027958
1.151696 65.713577 -21.521185
1.43992 62.732965 -20.90012
1.656887 61.900455 -22.406893
1.390185 63.7987 -21.989901
1.512496 61.629052 -19.810627
1.43992 62.732965 -20.90012
1.245793 63.527296 -19.393635
1.630961 60.546013 -18.669556
1.825087 59.751683 -20.17604
1.512496 61.629052 -19.810627
1.13878 63.103363 -16.735046
1.02963 64.241659 -17.804443
0.850042 64.92164 -16.235348
1.483588 61.310284 -17.18387
1.13878 63.103363 -16.735046
1.630961 60.546013 -18.669556
1.483588 61.310284 -17.18387
-5.130211 37.838513 -32.430194
-4.33291 39.80941 -32.815331
-5.130211 37.838513 -32.430194
-5.101071 35.545582 -31.98184
-5.333828 28.171177 -30.415669
-5.20817 30.709011 -30.963487
-4.416754 30.168762 -30.865175
-5.333828 28.171177 -30.415669
-5.540727 25.641848 -29.884783
-7.980354 19.090851 -28.582009
-6.872225 21.052956 -28.96055
-8.425217 16.55668 -28.159704
-7.980354 19.090851 -28.582009
-8.890466 13.932092 -27.748385
-8.425217 16.55668 -28.159704
-7.670657 15.828556 -28.057572
-9.477147 11.405965 -27.424999
-8.890466 13.932092 -27.748385
-10.077703 8.806658 -27.117168
-9.477147 11.405965 -27.424999
-8.736462 10.604661 -27.338421
-10.802945 6.336319 -26.903568
-10.077703 8.806658 -27.117168
0.954221 10.513556 -26.204071
1.698589 12.412648 -25.925987
0.361606 11.517857 -26.611744
0.954221 10.513556 -26.204071
-0.176227 12.517178 -27.073525
0.643236 14.412006 -26.961616
0.361606 11.517857 -26.611744
-1.069293 10.617705 -27.026775
-2.094807 8.787637 -27.046114
-0.787662 13.511853 -27.376648
-0.176227 12.517178 -27.073525
-1.069293 10.617705 -27.026775
-5.827576 7.117339 -27.071072
-4.54807 8.871455 -27.21595
-6.554162 8.041543 -27.122767
-5.827576 7.117339 -27.071072
-7.2672 8.925375 -27.203299
-5.952701 10.697762 -27.407745
-6.554162 8.041543 -27.122767
-8.602839 7.137255 -26.974455
-8.001378 9.793474 -27.259434
-7.2672 8.925375 -27.203299
-10.07122 5.479527 -26.82782
-8.602839 7.137255 -26.974455
-10.802945 6.336319 -26.903568
-10.07122 5.479527 -26.82782
-3.867996 46.135349 -33.796885
-3.166393 48.031937 -34.033883
-3.681176 44.001547 -33.540262
-3.867996 46.135349 -33.796885
-2.823777 43.668057 -33.531849
-3.558228 41.751188 -33.207769
-3.681176 44.001547 -33.540262
3.858742 34.689694 -25.458681
3.719902 37.238781 -25.923122
3.949173 36.239731 -24.805658
3.943952 32.026744 -24.933476
3.714682 33.025795 -26.050939
3.858742 34.689694 -25.458681
4.077423 29.366156 -24.449232
3.943952 32.026744 -24.933476
3 0 37 35
3 1 40 38
3 1 42 40
3 1 44 42
3 2 48 46
3 2 50 48
3 2 52 50
3 4 55 53
3 5 58 56
3 5 60 58
3 142 63 143
3 144 143 61
3 142 143 144
3 6 145 146
3 6 147 148
3 6 149 151
3 149 64 150
3 149 150 151
3 7 67 65
3 7 69 67
3 3 72 70
3 152 75 153
3 154 153 73
3 152 153 154
3 155 77 156
3 157 156 75
3 155 156 157
3 159 158 77
3 160 79 161
3 160 161 162
3 164 163 79
3 9 82 80
3 11 83 36
3 11 84 83
3 12 165 167
3 167 166 85
3 165 166 167
3 13 168 170
3 170 169 39
3 168 169 170
3 13 171 172
3 13 173 174
3 14 86 41
3 14 87 86
3 14 89 87
3 16 90 43
3 16 91 90
3 175 94 176
3 177 176 92
3 175 176 177
3 18 97 95
3 20 98 45
3 20 99 98
3 8 178 180
3 178 100 179
3 178 179 180
3 181 101 182
3 21 102 47
3 21 103 102
3 21 104 103
3 22 105 49
3 22 106 105
3 22 108 106
3 24 109 51
3 24 110 109
3 183 111 184
3 185 112 186
3 25 187 189
3 189 188 54
3 187 188 189
3 25 190 191
3 10 113 81
3 26 114 57
3 26 192 194
3 194 193 114
3 192 193 194
3 26 195 197
3 195 115 196
3 195 196 197
3 27 116 59
3 27 117 116
3 19 118 96
3 28 119 62
3 28 120 119
3 198 121 199
3 200 122 201
3 202 201 121
3 200 201 202
3 203 123 204
3 205 204 122
3 203 204 205
3 29 206 208
3 206 124 207
3 206 207 208
3 29 125 124
3 15 126 88
3 30 127 66
3 30 128 127
3 30 129 128
3 31 130 68
3 31 131 130
3 23 132 107
3 32 133 71
3 32 134 133
3 17 135 93
3 33 136 74
3 33 137 136
3 33 138 137
3 34 139 76
3 34 140 139
3 34 141 140
3 210 209 78
3 35 36 9
3 37 36 35
3 37 11 36
3 38 39 12
3 40 39 38
3 40 13 39
3 40 41 13
3 42 41 40
3 42 14 41
3 42 43 14
3 44 43 42
3 44 16 43
3 211 45 212
3 213 212 18
3 211 212 213
3 214 45 215
3 216 20 217
3 218 217 45
3 216 217 218
3 220 219 8
3 46 221 223
3 221 47 222
3 221 222 223
3 48 47 46
3 48 21 47
3 48 49 21
3 50 49 48
3 50 22 49
3 50 51 22
3 52 51 50
3 52 24 51
3 53 224 226
3 224 54 225
3 224 225 226
3 55 54 53
3 55 25 54
3 56 57 10
3 58 57 56
3 58 26 57
3 58 59 26
3 60 59 58
3 60 27 59
3 61 62 19
3 63 62 61
3 63 28 62
3 64 227 228
3 64 229 231
3 229 29 230
3 229 230 231
3 65 66 15
3 67 66 65
3 67 30 66
3 67 68 30
3 69 68 67
3 69 31 68
3 70 71 23
3 72 71 70
3 72 32 71
3 73 74 17
3 75 74 73
3 75 33 74
3 75 76 33
3 77 76 75
3 77 34 76
3 77 78 34
3 232 78 233
3 234 233 77
3 232 233 234
3 236 235 78
3 237 8 238
3 79 239 240
3 79 241 243
3 241 8 242
3 241 242 243
3 79 244 246
3 246 245 8
3 244 245 246
3 248 247 79
3 249 46 250
3 251 46 252
3 253 2 254
3 255 254 46
3 253 254 255
3 257 256 2
3 80 81 4
3 82 81 80
3 82 10 81
3 36 82 9
3 83 82 36
3 83 10 82
3 83 56 10
3 84 56 83
3 84 5 56
3 85 258 259
3 261 260 85
3 39 262 264
3 264 263 12
3 262 263 264
3 266 265 39
3 41 267 269
3 269 268 13
3 267 268 269
3 86 270 272
3 272 271 41
3 270 271 272
3 86 273 274
3 86 275 276
3 87 277 279
3 279 278 86
3 277 278 279
3 87 280 282
3 280 6 281
3 280 281 282
3 87 88 6
3 89 88 87
3 89 15 88
3 43 89 14
3 90 89 43
3 90 15 89
3 90 65 15
3 91 65 90
3 91 7 65
3 92 93 3
3 94 93 92
3 94 17 93
3 283 94 284
3 285 94 286
3 287 17 288
3 289 288 94
3 287 288 289
3 290 73 291
3 292 291 17
3 290 291 292
3 293 73 294
3 296 295 73
3 95 96 0
3 97 96 95
3 97 19 96
3 45 97 18
3 98 97 45
3 98 19 97
3 98 61 19
3 99 61 98
3 99 297 299
3 299 298 61
3 297 298 299
3 100 300 301
3 100 302 304
3 302 20 303
3 302 303 304
3 305 100 306
3 307 306 8
3 305 306 307
3 308 100 309
3 310 20 311
3 312 311 100
3 310 311 312
3 313 99 314
3 315 314 20
3 313 314 315
3 316 99 317
3 319 318 99
3 101 320 321
3 101 322 323
3 47 324 326
3 324 101 325
3 324 325 326
3 102 101 47
3 102 327 329
3 329 328 101
3 327 328 329
3 102 330 331
3 103 332 334
3 334 333 102
3 332 333 334
3 103 335 336
3 103 337 339
3 337 85 338
3 337 338 339
3 104 85 103
3 104 12 85
3 49 104 21
3 105 104 49
3 105 12 104
3 105 38 12
3 106 38 105
3 106 1 38
3 106 107 1
3 108 107 106
3 108 23 107
3 51 108 22
3 109 108 51
3 109 23 108
3 109 70 23
3 110 70 109
3 110 3 70
3 340 52 341
3 342 341 2
3 340 341 342
3 111 343 345
3 343 52 344
3 343 344 345
3 111 24 52
3 346 111 347
3 348 111 349
3 350 24 351
3 352 351 111
3 350 351 352
3 353 110 354
3 355 354 24
3 353 354 355
3 356 110 357
3 358 3 359
3 360 359 110
3 358 359 360
3 361 92 362
3 363 362 3
3 361 362 363
3 112 364 366
3 364 92 365
3 364 365 366
3 112 367 369
3 369 368 92
3 367 368 369
3 370 112 371
3 370 371 372
3 373 112 374
3 376 375 112
3 54 377 378
3 380 379 54
3 81 55 4
3 113 55 81
3 113 25 55
3 57 113 10
3 114 113 57
3 114 25 113
3 114 381 383
3 383 382 25
3 381 382 383
3 385 384 114
3 115 386 387
3 115 388 389
3 59 115 26
3 116 115 59
3 116 390 392
3 392 391 115
3 390 391 392
3 116 393 394
3 117 395 397
3 397 396 116
3 395 396 397
3 117 398 399
3 96 37 0
3 118 37 96
3 118 11 37
3 62 118 19
3 119 118 62
3 119 11 118
3 119 84 11
3 120 84 119
3 120 5 84
3 400 63 401
3 402 63 403
3 404 28 405
3 406 405 63
3 404 405 406
3 121 407 408
3 121 409 411
3 409 28 410
3 409 410 411
3 121 120 28
3 122 120 121
3 122 5 120
3 122 60 5
3 123 60 122
3 123 27 60
3 412 123 413
3 414 123 415
3 416 27 417
3 418 417 123
3 416 417 418
3 419 117 420
3 421 420 27
3 419 420 421
3 422 117 423
3 425 424 117
3 124 426 427
3 124 428 429
3 124 430 432
3 430 53 431
3 430 431 432
3 125 53 124
3 125 4 53
3 88 64 6
3 126 64 88
3 126 29 64
3 66 126 15
3 127 126 66
3 127 29 126
3 127 125 29
3 128 125 127
3 128 4 125
3 128 80 4
3 129 80 128
3 129 9 80
3 68 129 30
3 130 129 68
3 130 9 129
3 130 35 9
3 131 35 130
3 131 0 35
3 107 44 1
3 132 44 107
3 132 16 44
3 71 132 23
3 133 132 71
3 133 16 132
3 133 91 16
3 134 91 133
3 134 7 91
3 93 72 3
3 135 72 93
3 135 32 72
3 74 135 17
3 136 135 74
3 136 32 135
3 136 134 32
3 137 134 136
3 137 7 134
3 137 69 7
3 138 69 137
3 138 31 69
3 76 138 33
3 139 138 76
3 139 31 138
3 139 131 31
3 140 131 139
3 140 0 131
3 140 95 0
3 141 95 140
3 141 18 95
3 78 141 34
3 433 141 434
3 435 434 78
3 433 434 435
3 436 18 437
3 438 437 141
3 436 437 438
3 440 439 18
