ply
format ascii 1.0
element vertex 450
property float x
property float y
property float z
element face 478
property list uchar int vertex_index
end_header
2.329779 81.102547 -20.01346
-1.752775 50.997208 -31.126356
5.171001 26.621136 -30.179827
-3.30654 35.183372 -24.032366
-0.354288 67.907143 -27.704775
1.994446 62.044792 -34.136856
1.679049 45.329498 -34.090981
-1.77342 13.171116 -24.338282
-0.623058 30.795406 -29.865072
5.803764 33.672356 -31.806059
4.359369 85.723862 -15.037514
2.389862 81.784668 -13.838078
1.061155 75.97847 -18.566946
-0.13155 69.136848 -22.504393
0.823519 75.040977 -24.304525
3.086376 69.406929 -32.155785
-2.560465 43.371758 -27.925692
-2.309774 32.997036 -27.667566
-1.617521 41.246269 -30.976141
0.207943 38.801868 -32.374084
-0.480284 48.487 -33.425438
4.910862 18.410606 -28.523306
8.852549 17.110886 -28.194517
3.059479 79.236282 -25.245634
-2.917078 45.236748 -23.594309
-2.136072 52.867111 -27.261957
-1.246965 61.434555 -25.449194
-1.256853 59.885239 -30.029173
1.455742 72.941994 -28.973886
0.322758 65.617195 -31.699526
-0.367008 57.448639 -33.228409
1.479836 53.990257 -34.787498
3.940144 49.594948 -34.981316
4.307619 41.744358 -33.690582
-3.007002 24.313438 -24.119432
-1.179867 22.074032 -26.988348
1.463388 20.089172 -28.380007
1.934399 28.621113 -30.515451
2.826559 36.159054 -32.36145
3.266441 83.620285 -17.597952
3.155724 84.03569 -14.500984
2.285103 81.573143 -17.010775
1.696384 79.030411 -16.287409
1.528246 78.754982 -19.364958
0.854513 75.633018 -21.536043
1.524912 78.225441 -22.257833
-5.165915 12.781273 -17.182302
-4.691439 16.966358 -18.761343
-2.195841 47.287926 -29.646574
-2.187613 42.34906 -29.644011
-1.778677 46.225136 -31.198076
-1.13386 45.0373 -32.333244
-1.238134 49.82769 -32.490967
4.99799 22.607006 -29.340994
6.846203 17.70932 -28.35956
6.841379 21.823132 -29.12343
-2.504343 49.888649 -23.087442
-2.505037 49.094978 -25.520399
-2.096254 53.618279 -24.895773
-0.336006 68.633591 -25.222879
-0.704277 65.390457 -24.111429
-0.868271 64.800583 -26.690733
-1.345919 60.754333 -27.880297
-0.844582 64.003342 -29.012159
3.791517 77.766563 -27.349474
2.19075 76.23777 -27.222509
2.899733 74.704597 -29.175585
2.471519 65.819588 -33.301941
1.537525 67.784348 -32.088211
1.044596 63.995964 -33.119133
-0.082632 61.633736 -32.624748
0.677835 60.013878 -33.832123
0.450562 55.846489 -34.208359
1.659374 58.098274 -34.636177
-3.252947 29.825275 -24.085249
-1.572245 31.898277 -28.967123
-1.87068 27.569611 -27.344027
-0.910376 26.485435 -28.432474
0.032307 21.047626 -27.86989
0.267511 25.435139 -29.128588
1.663643 24.42902 -29.458555
0.550409 29.697701 -30.364332
0.848274 42.304291 -33.340302
1.440336 37.490082 -32.49984
2.117462 40.801373 -33.32283
3.489079 39.262829 -33.09684
2.972023 43.566246 -33.971123
5.441093 30.348251 -31.010496
6.917891 25.751896 -29.941626
0.4569 72.671066 -20.648245
0.238018 72.249535 -23.497057
0.201633 71.591705 -26.128099
3.844286 72.780815 -30.729204
3.123047 59.775795 -34.781418
-2.912642 14.31152 -22.774641
-2.913393 39.319237 -26.027655
-2.871218 34.090191 -26.002825
-2.531061 38.281796 -27.88542
-1.988356 37.206242 -29.396574
-1.241529 36.087681 -30.508471
-0.268059 34.930893 -31.202185
-0.820126 40.060825 -31.884516
-0.25148 43.725578 -33.036842
0.50679 46.981033 -33.939865
4.889345 14.12133 -27.761148
7.051125 9.260456 -27.08555
4.716311 85.076813 -18.010965
3.562578 82.914009 -20.47637
2.576153 80.336472 -22.781008
4.08399 81.883759 -23.068884
-3.412584 41.333309 -21.540731
-3.189695 40.331188 -23.891062
-2.784983 44.327553 -25.885309
-2.420748 48.237213 -27.730474
-2.039141 52.003441 -29.363062
-1.012171 61.967117 -22.804972
-1.587427 57.904907 -23.992167
-1.734461 57.263351 -26.502241
-1.745813 56.490891 -28.774614
-1.568903 55.550964 -30.737612
1.735237 77.400085 -24.89908
1.014322 74.157684 -26.804968
0.392078 70.652283 -28.474081
2.153557 71.363159 -30.764433
0.836205 69.392036 -30.474512
-0.143106 66.913567 -29.882856
-0.590561 62.957962 -31.008314
-0.937735 58.791481 -31.828566
-1.162792 54.414543 -32.3256
-0.508722 53.064934 -33.495728
0.384417 51.499557 -34.240616
1.477219 49.730164 -34.596352
2.809877 55.901299 -35.076431
2.665207 51.897682 -35.019661
2.709816 47.780502 -34.634789
4.01066 45.683868 -34.448151
-3.425467 19.931549 -22.450602
-2.532061 18.728767 -24.193151
-2.637571 28.682667 -25.879496
-2.183035 23.163105 -25.728605
-1.464785 17.619514 -25.608343
-0.192894 16.602531 -26.660276
1.297686 15.678322 -27.34189
3.00058 14.849781 -27.684908
3.100674 19.206982 -28.568167
3.254593 23.481022 -29.493666
3.491817 27.58696 -30.41308
0.927361 33.750301 -31.505449
2.312859 32.569187 -31.495176
3.837015 31.420506 -31.286291
4.30208 34.860321 -32.086075
4.886131 37.766064 -32.78933
-5.285616 15.62294 -16.79615
-5.533148 13.585911 -15.946142
-5.652849 16.427578 -15.55999
-5.048378 17.715483 -17.58567
-4.928677 14.873815 -17.971823
-5.285616 15.62294 -16.79615
-2.23921 52.089344 -22.709929
-2.48547 50.26622 -21.788433
-2.220337 52.466915 -21.410919
-2.035166 53.954159 -23.614094
-2.300299 51.753464 -23.991608
-2.23921 52.089344 -22.709929
3.828753 75.303143 -29.115307
3.345625 76.23558 -28.262529
4.274644 76.834125 -28.202252
-1.217602 10.46018 -24.444275
-1.930833 10.973288 -23.759977
-1.099841 12.662532 -24.944055
-1.217602 10.46018 -24.444275
-3.279743 32.504323 -24.058808
-3.509838 30.413604 -23.053024
-3.536634 33.092653 -23.026583
6.439718 31.538155 -31.297701
6.258382 29.876103 -30.899919
5.622428 32.010303 -31.408278
4.263225 85.905686 -13.449571
4.99002 86.543983 -13.696866
2.782216 82.986797 -12.542519
3.165147 84.112309 -12.873972
2.772793 82.910179 -14.169531
2.486717 81.776298 -12.193385
2.782216 82.986797 -12.542519
2.180599 80.436699 -13.460155
2.486717 81.776298 -12.193385
1.224595 76.048642 -17.01196
1.542209 77.574612 -15.872191
1.378769 77.504441 -17.427177
0.933007 74.439461 -18.105207
1.224595 76.048642 -17.01196
0.759027 74.324768 -19.607596
0.63088 72.785759 -19.145857
0.933007 74.439461 -18.105207
-3.392792 14.944561 -21.836807
-3.10393 12.134272 -22.12097
-3.58408 12.767313 -21.183136
5.916005 15.954046 -28.098436
5.905246 13.809408 -27.717357
4.900104 16.265968 -28.142227
8.94767 15.04638 -27.866604
7.944497 15.345597 -27.949126
7.849376 17.410103 -28.277038
10.025081 14.843905 -27.829666
8.94767 15.04638 -27.866604
7.825257 23.447645 -29.448055
7.803209 25.377275 -29.870976
5.000007 84.599335 -19.364288
5.691184 85.486699 -18.113243
4.42314 83.517933 -20.596991
4.139444 83.995411 -19.243668
5.000007 84.599335 -19.364288
4.683846 83.002808 -21.893248
3.823284 82.398884 -21.772627
4.42314 83.517933 -20.596991
-3.164831 43.285028 -22.56752
-3.209951 43.726965 -21.327997
-2.962198 45.678685 -22.354786
8.321542 6.981411 -26.829102
8.17186 9.04373 -27.041778
-0.268064 67.476921 -21.922446
0.037626 69.299381 -21.058762
3.589349 56.558022 -35.09095
2.966462 57.838547 -34.928925
3.745934 58.49527 -34.943444
3.302676 50.746315 -35.000489
3.365482 52.672855 -35.117866
4.00295 51.521489 -35.098694
-3.216234 22.122494 -23.285017
-3.55998 22.729021 -22.330796
-3.350748 24.919965 -23.165211
4.950093 40.850164 -33.524204
5.239349 38.861018 -33.073578
4.596875 39.755211 -33.239956
6.550312 33.186279 -31.720861
6.018566 35.064363 -32.16624
-5.363602 10.74951 -16.416208
-5.533148 13.585911 -15.946142
-4.926281 9.957062 -17.621063
-5.363602 10.74951 -16.416208
-4.737685 12.038315 -18.316463
-4.926281 9.957062 -17.621063
-4.500446 14.130857 -19.105984
-4.737685 12.038315 -18.316463
-4.928677 14.873815 -17.971823
-4.282191 16.27198 -19.830158
-4.091198 13.43648 -20.174799
-4.500446 14.130857 -19.105984
-2.755831 48.004635 -22.101352
-2.48547 50.26622 -21.788433
-2.710711 47.562698 -23.340875
-2.962198 45.678685 -22.354786
-2.755831 48.004635 -22.101352
4.652986 50.181522 -35.05444
4.00295 51.521489 -35.098694
4.590279 48.351673 -34.867092
4.652986 50.181522 -35.05444
-3.47372 27.675884 -23.148119
-3.509838 30.413604 -23.053024
-3.129974 27.069357 -24.102341
-3.350748 24.919965 -23.165211
-3.47372 27.675884 -23.148119
6.996781 27.577925 -30.365485
6.179492 28.050073 -30.476061
6.258382 29.876103 -30.899919
7.803209 25.377275 -29.870976
6.996781 27.577925 -30.365485
6.439718 31.538155 -31.297701
6.550312 33.186279 -31.720861
3.661403 85.061599 -13.181306
4.263225 85.905686 -13.449571
3.757547 84.879776 -14.769249
3.661403 85.061599 -13.181306
3.165147 84.112309 -12.873972
1.83386 79.059571 -14.684821
2.180599 80.436699 -13.460155
2.043123 80.407539 -15.062743
1.83386 79.059571 -14.684821
1.542209 77.574612 -15.872191
0.331851 71.06649 -20.130688
0.63088 72.785759 -19.145857
0.162675 70.903957 -21.576319
0.037626 69.299381 -21.058762
0.331851 71.06649 -20.130688
4.880974 73.208256 -30.543354
4.301029 74.341251 -29.892117
4.413074 71.623977 -31.308403
4.880974 73.208256 -30.543354
4.03412 69.937035 -32.021693
3.465331 71.093872 -31.442495
4.413074 71.623977 -31.308403
3.648151 68.242951 -32.65783
4.03412 69.937035 -32.021693
3.340723 66.44928 -33.230908
2.778948 67.613259 -32.728863
3.648151 68.242951 -32.65783
3.031465 64.663376 -33.718788
3.340723 66.44928 -33.230908
2.792928 62.775978 -34.136246
2.232982 63.93219 -33.719398
3.031465 64.663376 -33.718788
3.357229 61.64148 -34.458527
2.558746 60.910294 -34.459137
2.792928 62.775978 -34.136246
3.980237 60.324573 -34.707878
3.357229 61.64148 -34.458527
3.745934 58.49527 -34.943444
3.980237 60.324573 -34.707878
-2.500444 11.543491 -22.978157
-3.10393 12.134272 -22.12097
-2.343031 13.741318 -23.556461
-1.930833 10.973288 -23.759977
-2.500444 11.543491 -22.978157
5.970235 11.690893 -27.423349
5.982168 9.535194 -27.08567
4.901277 11.96563 -27.423469
6.986136 11.378971 -27.379559
5.970235 11.690893 -27.423349
5.905246 13.809408 -27.717357
8.17186 9.04373 -27.041778
6.986136 11.378971 -27.379559
6.883675 15.603403 -28.016563
5.916005 15.954046 -28.098436
5.878533 18.059963 -28.441433
6.883675 15.603403 -28.016563
7.944497 15.345597 -27.949126
7.787001 21.483263 -29.038957
6.879635 23.787514 -29.532528
7.825257 23.447645 -29.448055
8.792586 19.12714 -28.574501
7.846964 19.467009 -28.658974
7.787001 21.483263 -29.038957
9.865128 16.865792 -28.160248
8.792586 19.12714 -28.574501
10.025081 14.843905 -27.829666
9.865128 16.865792 -28.160248
5.203611 86.24939 -15.223458
4.99002 86.543983 -13.696866
5.382082 85.925866 -16.710183
5.691184 85.486699 -18.113243
4.53784 85.400338 -16.52424
5.203611 86.24939 -15.223458
5.382082 85.925866 -16.710183
5.08382 82.355743 -23.080973
4.683846 83.002808 -21.893248
4.465849 81.189221 -24.191154
5.08382 82.355743 -23.080973
3.953594 79.865482 -25.279529
3.571734 80.560021 -24.157259
4.465849 81.189221 -24.191154
4.319612 79.130623 -26.331449
3.425498 78.501423 -26.297554
3.953594 79.865482 -25.279529
4.81678 78.241478 -27.257248
4.319612 79.130623 -26.331449
4.274644 76.834125 -28.202252
4.81678 78.241478 -27.257248
-3.487559 35.734797 -22.926432
-3.536634 33.092653 -23.026583
-3.517374 41.835434 -20.283892
-3.209951 43.726965 -21.327997
-3.707123 39.370092 -20.481358
-3.517374 41.835434 -20.283892
-3.54058 38.809765 -21.680615
-3.707123 39.370092 -20.481358
-3.429136 38.308704 -22.85578
-3.54058 38.809765 -21.680615
-3.301139 40.832248 -22.715896
-3.248118 37.75728 -23.961714
-3.487559 35.734797 -22.926432
-3.429136 38.308704 -22.85578
7.138068 7.157073 -26.844334
5.982168 9.535194 -27.08567
7.138068 7.157073 -26.844334
8.321542 6.981411 -26.829102
-0.554427 65.603725 -22.725963
-0.268064 67.476921 -21.922446
-0.417914 67.263653 -23.307911
-0.708374 63.892055 -22.072735
-0.554427 65.603725 -22.725963
-0.858224 63.678787 -23.458201
-0.852934 62.1791 -21.405577
-0.708374 63.892055 -22.072735
-1.184985 60.209823 -22.056349
-0.852934 62.1791 -21.405577
-1.472612 58.178719 -22.649946
-1.184985 60.209823 -22.056349
-1.299799 59.936012 -23.39857
-1.780752 56.097473 -23.162291
-1.472612 58.178719 -22.649946
-1.84184 55.761593 -24.44397
-2.035166 53.954159 -23.614094
-1.780752 56.097473 -23.162291
3.372009 73.742706 -29.952395
3.828753 75.303143 -29.115307
4.301029 74.341251 -29.892117
3.437817 54.674664 -35.146251
3.589349 56.558022 -35.09095
2.737542 53.89949 -35.048046
3.437817 54.674664 -35.146251
3.365482 52.672855 -35.117866
4.625537 46.396133 -34.60051
3.975402 47.639408 -34.714734
4.590279 48.351673 -34.867092
4.658451 44.580225 -34.287487
4.625537 46.396133 -34.60051
4.80693 42.61047 -33.908703
4.15914 43.714113 -34.069367
4.658451 44.580225 -34.287487
4.950093 40.850164 -33.524204
4.80693 42.61047 -33.908703
-4.772072 19.790304 -18.47377
-5.048378 17.715483 -17.58567
-4.438385 19.097319 -19.596272
-4.772072 19.790304 -18.47377
-4.282191 16.27198 -19.830158
-4.438385 19.097319 -19.596272
-3.805399 20.579914 -21.440901
-3.55998 22.729021 -22.330796
-3.649204 17.754576 -21.674788
-3.805399 20.579914 -21.440901
-3.169054 17.121534 -22.612621
-3.392792 14.944561 -21.836807
-3.649204 17.754576 -21.674788
-0.945523 14.886731 -25.579086
-1.099841 12.662532 -24.944055
-1.619102 15.395315 -24.973312
-0.309578 14.378239 -26.105052
-0.945523 14.886731 -25.579086
-0.828839 17.111022 -26.13431
0.475132 13.929369 -26.526554
-0.309578 14.378239 -26.105052
1.220422 13.467265 -26.867361
0.475132 13.929369 -26.526554
0.552396 16.140427 -27.001083
2.114184 13.076763 -27.113752
1.220422 13.467265 -26.867361
2.965631 12.662492 -27.285261
2.114184 13.076763 -27.113752
2.149133 15.264052 -27.513399
3.956895 12.329856 -27.38535
2.965631 12.662492 -27.285261
3.944962 14.485556 -27.723028
4.901277 11.96563 -27.423469
3.956895 12.329856 -27.38535
5.559749 37.111217 -32.657876
6.018566 35.064363 -32.16624
5.344947 35.71921 -32.297694
5.559749 37.111217 -32.657876
5.239349 38.861018 -33.073578
3 0 41 39
3 0 43 41
3 0 45 43
3 152 46 153
3 152 153 154
3 155 47 156
3 157 156 46
3 155 156 157
3 1 50 48
3 1 52 50
3 2 55 53
3 158 56 159
3 158 159 160
3 161 58 162
3 163 162 56
3 161 162 163
3 4 61 59
3 4 63 61
3 164 66 165
3 166 165 64
3 164 165 166
3 5 69 67
3 5 71 69
3 5 73 71
3 7 167 168
3 7 169 170
3 3 171 173
3 171 74 172
3 171 172 173
3 8 77 75
3 8 79 77
3 8 81 79
3 6 84 82
3 6 86 84
3 9 174 176
3 176 175 87
3 174 175 176
3 10 177 178
3 11 179 181
3 181 180 40
3 179 180 181
3 11 182 183
3 11 184 185
3 12 186 188
3 188 187 42
3 186 187 188
3 12 189 190
3 12 191 193
3 191 89 192
3 191 192 193
3 14 90 44
3 14 91 90
3 194 94 195
3 194 195 196
3 16 97 95
3 18 98 49
3 18 99 98
3 18 101 99
3 20 102 51
3 20 103 102
3 21 197 199
3 199 198 104
3 197 198 199
3 22 200 202
3 202 201 54
3 200 201 202
3 22 203 204
3 206 205 88
3 207 106 208
3 209 107 210
3 211 210 106
3 209 210 211
3 212 109 213
3 214 213 107
3 212 213 214
3 24 215 217
3 215 110 216
3 215 216 217
3 24 111 110
3 24 112 111
3 25 113 57
3 25 114 113
3 219 218 105
3 13 220 221
3 26 115 60
3 26 116 115
3 26 117 116
3 27 118 62
3 27 119 118
3 23 120 108
3 28 121 65
3 28 122 121
3 15 123 92
3 29 124 68
3 29 125 124
3 29 126 125
3 30 127 70
3 30 128 127
3 30 129 128
3 31 130 72
3 31 131 130
3 222 132 223
3 224 223 93
3 222 223 224
3 32 225 227
3 225 133 226
3 225 226 227
3 32 134 133
3 32 135 134
3 34 228 230
3 228 136 229
3 228 229 230
3 34 137 136
3 17 138 96
3 35 139 76
3 35 140 139
3 35 141 140
3 36 142 78
3 36 143 142
3 36 144 143
3 37 145 80
3 37 146 145
3 19 147 100
3 38 148 83
3 38 149 148
3 38 150 149
3 33 151 85
3 33 231 233
3 233 232 151
3 231 232 233
3 235 234 9
3 39 40 10
3 41 40 39
3 41 11 40
3 41 42 11
3 43 42 41
3 43 12 42
3 43 44 12
3 45 44 43
3 45 14 44
3 46 236 237
3 46 238 239
3 46 240 241
3 47 242 244
3 244 243 46
3 242 243 244
3 47 245 247
3 245 246 247
3 48 49 16
3 50 49 48
3 50 18 49
3 50 51 18
3 52 51 50
3 52 20 51
3 53 54 21
3 55 54 53
3 55 22 54
3 56 248 249
3 56 250 252
3 250 24 251
3 250 251 252
3 56 57 24
3 58 57 56
3 58 25 57
3 59 60 13
3 61 60 59
3 61 26 60
3 61 62 26
3 63 62 61
3 63 27 62
3 64 65 23
3 66 65 64
3 66 28 65
3 67 68 15
3 69 68 67
3 69 29 68
3 69 70 29
3 71 70 69
3 71 30 70
3 71 72 30
3 73 72 71
3 73 31 72
3 253 32 254
3 256 255 32
3 74 257 258
3 74 259 261
3 259 34 260
3 259 260 261
3 75 76 17
3 77 76 75
3 77 35 76
3 77 78 35
3 79 78 77
3 79 36 78
3 79 80 36
3 81 80 79
3 81 37 80
3 82 83 19
3 84 83 82
3 84 38 83
3 84 85 38
3 86 85 84
3 86 33 85
3 87 88 2
3 262 88 263
3 264 263 87
3 262 263 264
3 266 265 88
3 268 267 9
3 40 269 271
3 271 270 10
3 269 270 271
3 273 272 40
3 42 274 276
3 276 275 11
3 274 275 276
3 278 277 42
3 89 279 280
3 89 281 283
3 281 13 282
3 281 282 283
3 44 89 12
3 90 89 44
3 90 13 89
3 90 59 13
3 91 59 90
3 91 4 59
3 284 92 285
3 286 92 287
3 288 15 289
3 290 289 92
3 288 289 290
3 291 15 292
3 293 67 294
3 295 294 15
3 293 294 295
3 296 67 297
3 298 5 299
3 300 299 67
3 298 299 300
3 301 93 302
3 303 302 5
3 301 302 303
3 304 93 305
3 307 306 93
3 94 308 309
3 94 310 312
3 310 7 311
3 310 311 312
3 95 96 3
3 97 96 95
3 97 17 96
3 49 97 16
3 98 97 49
3 98 17 97
3 98 75 17
3 99 75 98
3 99 8 75
3 99 100 8
3 101 100 99
3 101 19 100
3 51 101 18
3 102 101 51
3 102 19 101
3 102 82 19
3 103 82 102
3 103 6 82
3 104 313 315
3 313 105 314
3 313 314 315
3 316 105 317
3 318 317 104
3 316 317 318
3 320 319 105
3 54 321 323
3 323 322 21
3 321 322 323
3 325 324 54
3 88 55 2
3 326 55 327
3 328 327 88
3 326 327 328
3 329 22 330
3 331 330 55
3 329 330 331
3 332 22 333
3 335 334 22
3 336 10 337
3 106 338 339
3 106 340 342
3 340 10 341
3 340 341 342
3 106 39 10
3 107 39 106
3 107 0 39
3 107 108 0
3 109 108 107
3 109 23 108
3 343 109 344
3 345 109 346
3 347 23 348
3 349 348 109
3 347 348 349
3 350 64 351
3 352 351 23
3 350 351 352
3 353 64 354
3 356 355 64
3 357 3 358
3 110 359 360
3 110 361 362
3 110 363 364
3 111 365 367
3 367 366 110
3 365 366 367
3 111 368 370
3 368 3 369
3 368 369 370
3 111 95 3
3 112 95 111
3 112 16 95
3 57 112 24
3 113 112 57
3 113 16 112
3 113 48 16
3 114 48 113
3 114 1 48
3 105 371 372
3 374 373 105
3 60 375 377
3 377 376 13
3 375 376 377
3 115 378 380
3 380 379 60
3 378 379 380
3 115 381 382
3 115 383 384
3 116 385 387
3 387 386 115
3 385 386 387
3 116 388 389
3 116 390 392
3 390 58 391
3 390 391 392
3 117 58 116
3 117 25 58
3 62 117 26
3 118 117 62
3 118 25 117
3 118 114 25
3 119 114 118
3 119 1 114
3 108 45 0
3 120 45 108
3 120 14 45
3 65 120 23
3 121 120 65
3 121 14 120
3 121 91 14
3 122 91 121
3 122 4 91
3 92 393 395
3 393 66 394
3 393 394 395
3 123 66 92
3 123 28 66
3 68 123 15
3 124 123 68
3 124 28 123
3 124 122 28
3 125 122 124
3 125 4 122
3 125 63 4
3 126 63 125
3 126 27 63
3 70 126 29
3 127 126 70
3 127 27 126
3 127 119 27
3 128 119 127
3 128 1 119
3 128 52 1
3 129 52 128
3 129 20 52
3 72 129 30
3 130 129 72
3 130 20 129
3 130 103 20
3 131 103 130
3 131 6 103
3 93 73 5
3 132 73 93
3 132 31 73
3 396 132 397
3 133 398 400
3 398 132 399
3 398 399 400
3 133 31 132
3 133 131 31
3 134 131 133
3 134 6 131
3 134 86 6
3 135 86 134
3 135 33 86
3 401 135 402
3 403 402 32
3 401 402 403
3 404 135 405
3 406 33 407
3 408 407 135
3 406 407 408
3 410 409 33
3 411 47 412
3 413 47 414
3 416 415 47
3 136 417 418
3 136 419 420
3 136 421 423
3 421 94 422
3 421 422 423
3 137 94 136
3 137 7 94
3 96 74 3
3 138 74 96
3 138 34 74
3 76 138 17
3 139 138 76
3 139 34 138
3 139 137 34
3 140 137 139
3 140 7 137
3 140 424 426
3 426 425 7
3 424 425 426
3 141 427 429
3 429 428 140
3 427 428 429
3 141 430 431
3 78 141 35
3 142 141 78
3 142 432 434
3 434 433 141
3 432 433 434
3 142 435 436
3 143 437 439
3 439 438 142
3 437 438 439
3 143 440 441
3 143 442 444
3 442 104 443
3 442 443 444
3 144 104 143
3 144 21 104
3 80 144 36
3 145 144 80
3 145 21 144
3 145 53 21
3 146 53 145
3 146 2 53
3 100 81 8
3 147 81 100
3 147 37 81
3 83 147 19
3 148 147 83
3 148 37 147
3 148 146 37
3 149 146 148
3 149 2 146
3 149 87 2
3 150 87 149
3 150 9 87
3 85 150 38
3 151 150 85
3 151 9 150
3 151 445 447
3 447 446 9
3 445 446 447
3 449 448 151
