ply
format ascii 1.0
element vertex 875
property float x
property float y
property float z
element face 1058
property list uchar int vertex_index
end_header
-64.724747 -68.124832 -9.054024
-62.315884 -17.907198 -43.59761
-64.425568 -44.320827 -14.268452
-67.995499 -45.98307 -27.300617
-65.86235 -19.380661 -28.043343
-51.108788 -79.834709 8.989416
-59.763653 -60.233524 2.75519
-44.108215 7.119026 -56.67881
-65.444244 -32.565613 -21.818504
-56.959625 -79.001694 -7.084108
-66.460739 -32.053951 -35.222004
-67.32251 -55.998566 -11.840799
-67.567581 -58.221107 -18.424923
-68.88221 -44.673256 -20.708767
-69.176323 -31.28429 -28.317932
-66.801224 -17.291466 -35.666943
-51.707684 -84.79245 1.661913
-58.336761 -75.270706 -0.11709
-55.746391 -70.417358 6.047113
-63.033287 -64.740814 -2.882072
-63.194962 -53.434086 -5.876457
-63.60701 -6.207873 -33.618492
-61.070885 -3.822349 -43.191689
-52.854301 8.579321 -48.775024
-61.166805 -73.735023 -7.970545
-59.375809 -75.505219 -11.313135
-63.432701 -69.710548 -12.451773
-64.794144 -24.935043 -39.32069
-66.253845 -50.0471 -13.234179
-68.285942 -50.636299 -16.375706
-66.927498 -44.541172 -17.516312
-65.90892 -26.036663 -25.041111
-67.950989 -31.779915 -25.09071
-67.902664 -24.919945 -28.465
-68.417343 -24.260529 -31.915455
-67.064713 -18.034071 -31.832405
-51.773132 -82.400101 5.384897
-54.830479 -79.987373 0.842501
-54.535477 -77.813713 4.323772
-54.636269 -67.641525 9.122419
-57.845207 -65.35498 4.348722
-59.583824 -67.957321 1.521924
-60.956787 -62.531532 -0.140606
-63.492458 -59.046001 -4.493874
-61.785309 -57.082909 -1.631521
-61.608974 0.122282 -35.935596
-62.959557 -4.601203 -38.480648
-59.970253 1.82518 -41.293442
-43.647507 12.994282 -54.564659
-48.391716 13.639507 -50.336632
-48.527985 8.2805 -53.317184
-53.474503 2.486261 -50.97081
-68.009338 -52.381031 -23.018612
-62.866066 -38.767673 -14.731834
-64.869873 -38.736855 -18.229
-63.105072 -33.22155 -18.300228
-63.630116 -27.215942 -21.419472
-64.094597 -20.965462 -24.115128
-39.11599 11.206589 -57.295738
-53.010132 -84.349411 -6.372038
-55.129444 -81.096375 -10.372124
-67.497253 -39.13784 -31.28994
-66.884918 -62.116474 -10.371033
-66.558853 -63.482475 -13.70623
-68.241028 -57.011356 -15.042976
-68.954857 -51.332954 -19.65324
-69.270325 -45.10334 -23.97683
-67.514015 -38.400284 -21.491867
-69.238052 -38.167152 -24.669392
-69.184593 -38.390358 -27.931095
-68.539368 -31.378479 -31.695808
-67.185852 -24.298685 -35.559074
-65.020515 -17.31566 -39.643265
-54.22789 -82.062195 -2.785286
-58.146896 -77.12661 -3.567379
-61.912693 -72.064476 -4.536953
-50.029831 -76.956619 12.538469
-51.905991 -69.624786 14.263657
-52.144722 -72.333199 10.87472
-53.400764 -75.237106 7.615459
-57.368248 -73.080658 3.059527
-61.29612 -70.229485 -1.352654
-64.583862 -66.56311 -5.799797
-65.649857 -60.727791 -7.315315
-65.222786 -54.880554 -8.848652
-63.985153 -49.209045 -10.096088
-62.920475 -43.69492 -10.841192
-64.10614 -14.646074 -26.489304
-65.077255 -12.743851 -30.927338
-65.375046 -11.243785 -35.23521
-64.324509 -10.470867 -39.518181
-61.973091 -10.494195 -43.799828
-56.525139 7.834194 -43.497143
-57.178104 2.599318 -46.35743
-58.065136 -3.861901 -47.699554
-58.861206 -11.044159 -47.838993
-63.081665 -70.987282 -8.483915
-62.409184 -71.806213 -10.197062
-64.234406 -68.902107 -10.758574
-63.669533 -21.404732 -41.445774
-65.372147 -47.158966 -13.812176
-66.612579 -47.378059 -15.401529
-65.650803 -44.467316 -15.909319
-65.970825 -22.713161 -26.559917
-67.032532 -25.445202 -26.765301
-66.920303 -22.048021 -28.358578
-67.592484 -21.470362 -30.140793
-66.607269 -18.653399 -29.944016
-50.135761 -82.114281 9.62624
-51.525616 -81.155685 7.200686
-53.096535 -80.102142 4.870922
-52.742165 -78.878281 6.613472
-57.397583 -64.093231 5.845468
-58.81176 -62.787861 3.521657
-59.447296 -64.021271 2.077032
-60.16626 -61.359676 1.270284
-61.405998 -59.794201 -0.925827
-60.838959 -58.715836 0.534358
-60.926624 1.081751 -38.646858
-59.50592 4.141405 -39.732224
-43.757656 10.203255 -55.823586
-46.051125 10.815252 -54.086006
-46.297989 7.79414 -55.178871
-48.882454 5.090654 -54.22979
-68.059517 -49.247879 -25.203838
-67.039612 -53.016624 -24.659386
-67.023621 -49.842628 -26.830135
-62.470806 -36.059566 -14.718212
-62.939949 -36.064705 -16.567398
-62.489048 -33.391521 -16.440083
-62.849468 -27.719837 -19.511242
-63.127083 -24.759361 -20.850872
-63.898022 -24.108728 -22.813759
-63.395901 -21.746202 -22.071037
-39.058407 13.787865 -56.12442
-54.902573 -81.634476 -6.703579
-54.086475 -82.764961 -8.398478
-56.107723 -80.01844 -8.770384
-67.050034 -35.611565 -33.245628
-66.258598 -39.635277 -32.947021
-65.76207 -36.089733 -34.940334
-67.31897 -59.049507 -11.098278
-67.664764 -59.638866 -12.701382
-67.977341 -56.496422 -13.410839
-68.614212 -47.728287 -18.58186
-68.827301 -50.94923 -17.995041
-69.099747 -47.960823 -20.206783
-69.156708 -48.2854 -21.861935
-69.298996 -44.833313 -22.329811
-65.148026 -35.711914 -20.074612
-66.217125 -38.583214 -19.883339
-66.512589 -35.426132 -21.727104
-68.786377 -31.471527 -26.694752
-68.733414 -34.896656 -24.921062
-69.277779 -34.75843 -26.518623
-69.445908 -38.20911 -26.28389
-69.343361 -34.756706 -28.1478
-68.942574 -34.906933 -29.818211
-69.083092 -31.249731 -29.982094
-67.719543 -20.760845 -33.768532
-67.996178 -24.189823 -33.710526
-67.141609 -20.683388 -35.649982
-66.210167 -20.789057 -37.576969
-66.071091 -17.211832 -37.639633
-51.424919 -86.021088 -0.232129
-52.500721 -84.630249 -2.439657
-52.913811 -83.46817 -0.584402
-56.5923 -77.646133 0.388523
-56.488853 -78.616745 -1.369684
-58.387482 -76.218018 -1.815485
-60.113449 -74.639633 -4.020653
-60.19138 -73.756981 -2.320267
-55.044937 -69.003448 7.557925
-53.353127 -69.992348 10.003668
-53.875179 -71.424278 8.41255
-52.718739 -73.800919 9.235721
-54.594193 -72.862534 6.856526
-55.348064 -74.232193 5.305466
-56.576202 -71.797699 4.560619
-61.391144 -66.450104 -0.684446
-60.526272 -69.153564 0.112303
-62.336491 -67.531746 -2.089077
-63.050102 -68.499359 -3.564051
-63.950119 -65.700874 -4.301165
-65.325424 -63.667297 -6.536991
-64.461731 -62.830357 -5.08832
-63.389526 -56.218769 -5.231443
-64.45961 -57.047207 -6.665546
-64.103134 -54.199703 -7.375389
-64.646004 -52.020649 -9.525066
-63.655964 -51.399124 -7.986694
-62.967529 -45.917076 -8.83399
-63.689129 -15.648048 -24.209141
-62.899143 -4.095563 -32.194756
-63.605469 -7.24404 -31.121632
-64.183128 -10.44025 -29.960926
-64.417442 -9.458454 -32.307919
-65.367447 -11.920365 -33.091095
-64.471054 -8.59734 -34.616463
-62.177464 -4.100964 -40.854282
-63.689804 -7.405167 -39.154308
-62.787544 -7.123878 -41.398598
-63.282421 -10.393317 -41.665871
-61.575668 -7.049277 -43.623123
-50.61919 11.265163 -49.666008
-50.661724 13.481548 -47.806446
-52.745361 11.06085 -47.099369
-54.672604 10.556725 -44.359955
-54.804417 8.343845 -46.206898
-56.804321 5.412336 -45.128674
-55.053722 5.667601 -47.669212
-53.941578 -0.91128 -51.50515
-55.837685 -0.640787 -49.43515
-56.304928 -4.106077 -49.791916
-58.494553 -7.385213 -47.90041
-67.148705 -60.925056 -16.066963
-65.849167 -64.228729 -15.40362
-66.360168 -61.654049 -17.755939
-59.086525 -76.389999 -7.506145
-58.23777 -77.319061 -9.200636
-60.375233 -74.600754 -9.677826
-61.477928 -72.658173 -11.864937
-65.715759 -28.489033 -37.243832
-66.940704 -52.993393 -12.565115
-67.869812 -53.393738 -14.118553
-67.388367 -50.352226 -14.793518
-67.748337 -47.550697 -16.984711
-68.0578 -44.591782 -19.109283
-65.715897 -29.329967 -23.468037
-66.780205 -32.162716 -23.475571
-66.971077 -28.825432 -25.146324
-68.010986 -28.364691 -26.790684
-68.68309 -28.000162 -28.433716
-68.898193 -27.775684 -30.105507
-68.386963 -24.511452 -30.172459
-67.87532 -21.028885 -31.936184
-67.140831 -17.569147 -33.73373
-51.831417 -83.598648 3.537428
-53.171989 -82.353424 1.263851
-53.240593 -81.246788 3.086679
-54.804977 -78.936722 2.60944
-56.425056 -76.617645 2.089804
-55.987473 -65.295761 8.253811
-56.217155 -66.552551 6.692543
-56.83033 -67.907745 5.202038
-57.676689 -69.272491 3.758038
-58.629753 -66.670509 2.919054
-60.367126 -65.265366 0.688745
-61.975315 -63.676357 -1.510025
-63.401192 -61.897854 -3.697321
-62.31834 -60.874416 -2.324324
-62.488819 -58.082329 -3.086594
-62.574295 -55.325336 -3.762297
-62.666397 -3.006784 -34.834209
-63.420086 -5.313255 -36.070301
-62.234112 -2.080227 -37.421791
-61.528797 -1.352953 -39.955948
-60.513317 -0.84934 -42.435905
-43.784794 15.33971 -52.934303
-46.217255 15.608425 -50.778305
-46.027615 13.471779 -52.608444
-48.3624 11.177307 -52.013084
-50.73748 8.551167 -51.16201
-53.101982 5.681635 -50.06588
-51.020859 5.479126 -52.272987
-51.449738 2.16889 -52.996323
-67.847694 -55.373024 -20.751789
-66.937759 -56.04673 -22.410854
-63.549141 -41.52441 -14.579891
-64.630768 -41.612839 -16.287642
-63.686062 -38.810585 -16.512861
-63.887905 -35.93943 -18.356483
-64.149338 -32.934368 -20.096252
-62.621914 -30.604675 -18.041405
-63.347797 -30.262699 -19.917938
-64.439728 -29.825006 -21.729321
-64.709732 -26.642433 -23.264278
-64.90316 -23.415077 -24.717293
-64.970108 -20.166067 -26.105797
-41.323902 12.230436 -56.145905
-41.54203 9.36688 -57.162781
-57.226341 -78.296684 -10.80929
-56.080727 -79.317551 -12.311308
-67.810364 -42.60463 -29.320229
-66.88855 -46.538994 -28.922295
-66.633484 -43.127602 -30.951824
-66.011551 -65.156693 -9.684584
-65.76104 -65.886154 -11.364401
-66.919754 -62.784107 -12.014193
-67.601059 -60.254936 -14.367363
-68.094681 -57.58028 -16.724407
-68.46489 -53.794949 -15.719429
-68.657967 -54.241875 -17.370483
-68.44043 -54.765278 -19.057796
-68.668442 -51.810764 -21.336975
-68.793602 -48.717651 -23.535892
-68.815804 -45.491936 -25.641048
-65.926865 -41.604424 -17.940441
-67.226593 -41.543419 -19.55212
-68.333664 -41.484047 -21.143932
-67.768906 -35.135777 -23.333363
-68.568497 -38.244148 -23.078712
-69.095535 -41.480446 -22.738434
-69.421234 -41.57663 -24.353039
-69.286209 -41.798256 -25.99461
-68.724625 -42.147911 -27.656925
-68.505592 -38.708336 -29.6063
-68.144653 -35.201714 -31.524818
-67.629425 -31.657995 -33.451454
-68.639877 -27.718597 -31.826073
-67.95829 -27.834282 -33.601089
-66.947464 -28.104343 -35.418308
-66.083984 -24.562185 -37.442955
-65.021072 -21.046198 -39.525173
-63.740196 -17.565208 -41.647728
-51.966599 -85.865494 -4.283957
-53.67746 -83.167633 -4.595659
-55.599258 -80.576439 -4.949163
-54.626171 -81.01368 -0.963623
-56.142948 -79.579453 -3.160078
-57.654297 -78.043266 -5.337376
-59.729271 -75.50428 -5.763977
-61.697243 -72.898926 -6.240202
-63.437462 -70.186829 -6.779066
-50.578674 -78.428383 10.763401
-53.176552 -68.654434 11.646139
-51.831436 -70.913696 12.550101
-50.628876 -73.18705 13.447013
-51.027992 -74.65477 11.7212
-51.605312 -76.13179 10.018587
-52.217346 -77.552643 8.323195
-54.044472 -76.583313 5.986939
-55.992752 -75.487244 3.725367
-57.984978 -74.236343 1.507616
-58.581093 -70.570312 2.321259
-59.378029 -71.753204 0.848582
-59.93964 -72.808701 -0.693878
-61.77771 -71.189438 -2.900919
-63.430828 -69.371735 -5.129217
-64.849892 -67.357529 -7.38891
-65.864265 -64.430267 -8.068256
-66.445381 -61.444672 -8.803204
-66.596008 -58.44627 -9.567789
-64.610497 -59.932594 -5.89003
-65.591705 -57.788155 -8.099199
-66.357307 -55.473011 -10.327116
-65.806938 -52.547428 -11.042345
-65.053322 -49.675735 -11.675966
-64.225266 -46.852402 -12.196264
-62.171333 -54.413128 -2.2325
-62.669235 -52.613251 -4.327616
-63.018597 -50.694733 -6.405901
-63.239986 -48.641586 -8.476654
-63.370304 -46.437183 -10.538811
-63.457047 -44.06736 -12.580219
-62.870949 -41.313301 -12.814766
-62.559929 -38.591549 -12.896872
-64.173203 -17.806044 -25.337418
-64.877411 -16.912582 -27.4422
-63.886234 -11.498916 -27.572308
-64.61293 -13.667123 -28.729599
-65.564171 -16.054102 -29.500462
-66.086304 -15.274611 -31.525444
-66.320847 -14.622882 -33.537033
-66.188858 -14.142335 -35.555191
-64.247665 -7.901419 -36.895363
-65.032837 -10.753476 -37.374359
-65.666527 -13.860441 -37.594051
-64.783669 -13.781185 -39.656872
-63.60891 -13.883307 -41.730518
-62.226852 -14.124495 -43.779556
-57.978378 7.053513 -40.676472
-58.297386 4.902822 -42.475887
-58.715458 2.332071 -43.867886
-59.193329 -0.575005 -44.856247
-55.408005 2.641378 -48.738358
-57.612419 -0.515625 -47.200558
-59.678253 -3.753078 -45.482681
-60.119507 -7.151313 -45.80555
-60.475761 -10.728778 -45.879581
-60.714714 -14.45048 -45.742836
-65.150818 -66.646927 -13.066628
-64.239944 -67.446564 -14.738503
-62.27146 -19.856695 -43.431448
-62.948284 -21.605462 -42.35553
-62.992708 -19.655965 -42.521692
-61.562247 -18.095533 -44.505302
-62.27146 -19.856695 -43.431448
-59.287706 -61.510693 3.138424
-58.706761 -62.217499 4.284925
-59.182707 -60.940331 3.901692
-59.332506 5.080225 -38.751023
-59.972938 3.643777 -38.322756
-45.428139 5.832647 -56.271473
-46.523026 6.170203 -55.521504
-45.203102 7.456583 -55.92884
-44.385643 5.494272 -56.890206
-45.428139 5.832647 -56.271473
-62.451748 -33.407556 -15.491039
-62.479927 -34.725544 -15.579148
-62.442627 -34.741579 -14.630104
-63.064339 -23.624251 -20.422926
-62.924646 -25.051334 -19.852312
-63.198748 -22.117672 -21.033009
-63.261492 -23.252781 -21.460954
-63.064339 -23.624251 -20.422926
-51.091623 -86.060189 1.846105
-51.171458 -85.409088 2.813211
-51.566302 -85.406769 0.714892
-50.950241 -86.674508 0.899084
-51.091623 -86.060189 1.846105
-55.383295 -4.273429 -50.739174
-55.123253 -2.508678 -50.648533
-54.20162 -2.676031 -51.595791
-56.536133 -5.903759 -49.814656
-55.383295 -4.273429 -50.739174
-62.905998 -70.130336 -13.265294
-61.928612 -71.604149 -12.971876
-62.455315 -71.18436 -12.158355
-64.575783 -26.934657 -39.170731
-65.036591 -28.711652 -38.132301
-65.254952 -26.712038 -38.282261
-51.203659 -83.573151 5.63018
-51.118782 -82.926674 6.573222
-51.802274 -82.999375 4.461162
-51.232802 -84.172425 4.706446
-51.203659 -83.573151 5.63018
-56.696636 -64.132955 7.839409
-56.110875 -64.756821 9.071866
-61.843229 -0.448828 -34.551237
-61.37668 1.034837 -34.984327
-62.137686 -1.442251 -35.384902
-62.371941 -2.013361 -34.000543
-61.843229 -0.448828 -34.551237
-50.422654 1.946292 -53.868416
-50.166096 3.629772 -53.613056
-49.139012 3.407174 -54.48515
-51.718243 0.440672 -53.166046
-50.422654 1.946292 -53.868416
-66.405693 -54.88101 -24.323435
-66.431748 -53.343622 -25.4371
-62.560862 -29.365514 -17.804278
-62.505192 -30.714029 -17.08437
-39.281776 9.767272 -57.671509
-40.494796 8.847417 -57.60503
-40.32901 10.286734 -57.229259
-52.628591 -84.982018 -7.236891
-52.172832 -85.767929 -6.23848
-54.14908 -82.532974 -10.197925
-53.627595 -83.367267 -9.211102
-54.607959 -81.930668 -9.385301
-54.585001 -81.664422 -11.128207
-54.14908 -82.532974 -10.197925
-56.492306 -78.358253 -13.276581
-57.145212 -77.879848 -12.575535
-55.448868 -79.846298 -13.009895
-56.492306 -78.358253 -13.276581
-65.768451 -41.649681 -32.727508
-65.567188 -39.891034 -33.737679
-51.488865 -86.589875 -3.20856
-51.22852 -87.27726 -4.157745
-49.605083 -78.101677 12.933759
-49.377235 -77.354225 13.863102
-50.304253 -77.692501 11.650935
-49.879505 -78.837559 12.046225
-49.605083 -78.101677 12.933759
-51.392336 -70.103607 15.615009
-52.172981 -69.077644 15.132516
-51.225783 -70.715499 14.731472
-51.392336 -70.103607 15.615009
-53.90641 -68.147979 10.384279
-53.912773 -67.536964 11.199098
-54.642632 -67.03051 9.937238
-62.402948 -53.099975 -2.47437
-62.219808 -53.977743 -1.43139
-62.651899 -52.200037 -3.521928
-62.420284 -53.513189 -3.280058
-62.402948 -53.099975 -2.47437
-62.990412 -49.344133 -6.607378
-62.939936 -50.319042 -5.588596
-63.101107 -48.31756 -7.642755
-63.129292 -49.66816 -7.441277
-62.990412 -49.344133 -6.607378
-62.697264 -38.44041 -11.963465
-62.643045 -39.78443 -11.949454
-62.566435 -37.253687 -12.86506
-62.697264 -38.44041 -11.963465
-63.703958 -9.938975 -28.077027
-63.674707 -10.538352 -26.791187
-48.49168 14.577343 -49.331046
-47.404449 15.561802 -49.551882
-47.304485 14.623966 -50.557468
-50.74602 14.269083 -46.720123
-51.713053 13.237215 -46.438709
-56.438835 8.796025 -42.492483
-55.512568 10.157291 -42.923889
-55.598872 9.19546 -43.928549
-57.251759 7.443853 -42.086807
-57.165454 8.405684 -41.082147
-56.438835 8.796025 -42.492483
-58.993496 -12.925289 -47.687221
-59.92025 -14.62845 -46.639143
-59.78796 -12.747319 -46.790914
-64.545963 -66.231361 -15.895876
-65.044556 -65.837647 -15.071061
-65.350574 -64.622444 -16.228434
-63.663703 -67.858421 -15.532027
-64.545963 -66.231361 -15.895876
-66.32267 -48.495346 -28.647503
-66.230934 -46.823464 -29.693469
-63.534605 -23.382469 -41.286185
-64.096911 -25.147625 -40.223642
-64.231839 -23.169888 -40.383232
-63.534605 -23.382469 -41.286185
-62.948284 -21.605462 -42.35553
-50.300097 -82.783764 8.693893
-49.735071 -83.265973 9.932436
-50.995024 -82.304466 7.481117
-50.300097 -82.783764 8.693893
-50.830689 -81.634983 8.413463
-51.649374 -81.777893 6.292791
-51.118782 -82.926674 6.573222
-50.995024 -82.304466 7.481117
-57.999672 -62.870184 5.446831
-57.401691 -63.53169 6.635237
-58.104671 -63.440546 4.683562
-57.999672 -62.870184 5.446831
-58.706761 -62.217499 4.284925
-61.024466 1.634215 -36.424442
-61.37668 1.034837 -34.984327
-60.68329 2.11395 -37.780073
-61.267799 0.602016 -37.291227
-61.024466 1.634215 -36.424442
-60.216272 2.611578 -39.189541
-60.68329 2.11395 -37.780073
-59.972938 3.643777 -38.322756
-47.815258 4.818461 -55.046963
-47.590221 6.442397 -54.70433
-46.523026 6.170203 -55.521504
-49.139012 3.407174 -54.48515
-47.815258 4.818461 -55.046963
-66.423752 -51.756624 -26.522474
-66.431748 -53.343622 -25.4371
-67.031617 -51.429626 -25.74476
-62.785839 -26.531572 -19.182497
-62.674639 -27.923095 -18.539196
-62.988276 -26.239599 -20.181057
-62.785839 -26.531572 -19.182497
-62.924646 -25.051334 -19.852312
-38.03896 14.296053 -55.927684
-39.172055 14.856661 -55.347515
-37.976988 13.173428 -56.589496
-38.03896 14.296053 -55.927684
-38.00578 11.88279 -57.175156
-39.087198 12.497227 -56.710079
-37.976988 13.173428 -56.589496
-38.090633 10.576901 -57.632347
-38.00578 11.88279 -57.175156
-58.792754 -75.973682 -12.076449
-59.858078 -74.521839 -12.375829
-65.318924 -38.118262 -34.734335
-65.567188 -39.891034 -33.737679
-66.010334 -37.862505 -33.943677
-50.798763 -87.352104 -0.077253
-50.950241 -86.674508 0.899084
-51.218025 -86.667672 -1.182646
-50.798763 -87.352104 -0.077253
-51.96282 -85.325669 -1.335893
-51.755926 -85.972252 -2.28641
-51.218025 -86.667672 -1.182646
-49.80845 -76.211899 13.432845
-49.377235 -77.354225 13.863102
-52.676827 -68.55735 13.80078
-52.172981 -69.077644 15.132516
-63.035539 -45.61879 -7.960063
-62.964878 -46.955305 -7.821423
-62.945904 -44.566944 -8.946362
-63.035539 -45.61879 -7.960063
-62.922376 -43.455866 -9.949963
-62.944002 -44.805998 -9.837591
-62.945904 -44.566944 -8.946362
-62.823318 -42.336115 -10.921613
-62.922376 -43.455866 -9.949963
-63.625452 -14.687264 -23.459938
-63.580612 -16.152178 -23.058332
-63.6675 -14.12428 -24.678987
-63.625452 -14.687264 -23.459938
-63.876005 -13.623293 -25.819069
-63.897634 -15.147061 -25.349222
-63.6675 -14.12428 -24.678987
-62.963146 -4.700652 -30.852447
-62.65692 -3.200983 -31.273306
-63.316309 -6.27489 -30.315886
-62.963146 -4.700652 -30.852447
-63.252306 -5.669802 -31.658194
-63.563576 -7.811537 -29.851689
-63.316309 -6.27489 -30.315886
-63.894298 -8.842145 -30.541279
-63.852406 -9.409642 -29.271335
-63.563576 -7.811537 -29.851689
-52.754871 12.026866 -46.085171
-51.713053 13.237215 -46.438709
-51.703542 12.271199 -47.452908
-53.708983 10.808788 -45.729662
-53.718492 11.774804 -44.715463
-52.754871 12.026866 -46.085171
-57.630946 -7.543327 -48.868903
-57.399741 -5.745645 -48.846163
-56.536133 -5.903759 -49.814656
-57.814272 -9.3728 -48.838194
-58.67788 -9.214686 -47.869702
-57.630946 -7.543327 -48.868903
-58.019554 -11.217198 -48.714358
-57.814272 -9.3728 -48.838194
-65.606075 -63.335104 -17.404594
-65.350574 -64.622444 -16.228434
-66.104668 -62.941389 -16.57978
-60.909137 -73.098317 -12.65173
-59.858078 -74.521839 -12.375829
-60.426868 -74.081696 -11.589036
-60.909137 -73.098317 -12.65173
-61.928612 -71.604149 -12.971876
-65.425339 -30.502499 -37.101639
-65.797829 -32.284958 -36.090725
-66.088249 -30.271492 -36.232918
-65.425339 -30.502499 -37.101639
-65.036591 -28.711652 -38.132301
-64.575783 -26.934657 -39.170731
-64.096911 -25.147625 -40.223642
-51.233324 -84.812187 3.750968
-51.232802 -84.172425 4.706446
-51.769551 -84.195549 2.59967
-51.171458 -85.409088 2.813211
-51.233324 -84.812187 3.750968
-55.318234 -65.857628 9.502934
-56.110875 -64.756821 9.071866
-55.311871 -66.468643 8.688115
-54.642632 -67.03051 9.937238
-55.318234 -65.857628 9.502934
-56.692528 -64.694496 7.04964
-56.696636 -64.132955 7.839409
-57.401691 -63.53169 6.635237
-62.488314 -2.557751 -32.680817
-62.65692 -3.200983 -31.273306
-62.78277 -3.551173 -33.514482
-62.488314 -2.557751 -32.680817
-62.371941 -2.013361 -34.000543
-45.001024 15.474068 -51.856304
-45.178967 16.346001 -50.875622
-43.962736 16.211643 -51.953621
-52.964163 -1.099413 -52.42046
-52.695658 0.628805 -52.250737
-51.718243 0.440672 -53.166046
-54.20162 -2.676031 -51.595791
-52.964163 -1.099413 -52.42046
-67.281475 -57.149718 -20.426384
-67.141419 -58.573759 -19.262951
-67.707638 -56.797066 -19.588356
-66.826507 -57.48657 -21.255916
-67.281475 -57.149718 -20.426384
-67.392727 -55.709877 -21.581322
-66.267983 -57.85544 -22.056596
-66.826507 -57.48657 -21.255916
-66.354766 -56.396063 -23.199169
-66.988686 -54.531677 -23.53512
-66.405693 -54.88101 -24.323435
-66.267983 -57.85544 -22.056596
-66.354766 -56.396063 -23.199169
-62.438759 -32.107452 -16.283709
-62.451748 -33.407556 -15.491039
-62.555481 -31.998098 -17.240744
-62.438759 -32.107452 -16.283709
-62.505192 -30.714029 -17.08437
-62.735691 -29.162256 -18.776324
-62.560862 -29.365514 -17.804278
-62.674639 -27.923095 -18.539196
-49.545 -82.5573 10.897565
-49.735071 -83.265973 9.932436
-49.910183 -81.412518 10.552253
-49.545 -82.5573 10.897565
-50.396696 -80.272731 10.233841
-50.622275 -80.974495 9.307828
-49.910183 -81.412518 10.552253
-59.805086 -59.731447 3.541812
-59.182707 -60.940331 3.901692
-60.250742 -58.971914 2.41614
-59.805086 -59.731447 3.541812
-42.734293 16.017204 -52.951065
-43.962736 16.211643 -51.953621
-42.579521 15.032159 -53.834648
-42.734293 16.017204 -52.951065
-42.510878 13.859445 -54.649826
-43.71615 14.166996 -53.749481
-42.579521 15.032159 -53.834648
-40.216328 14.256237 -55.429707
-39.172055 14.856661 -55.347515
-41.349075 13.477522 -55.440449
-40.216328 14.256237 -55.429707
-40.191154 13.009151 -56.135162
-42.485704 12.612359 -55.355282
-42.510878 13.859445 -54.649826
-41.349075 13.477522 -55.440449
-41.772694 7.821833 -57.456906
-43.055786 6.697906 -57.21492
-42.825122 8.242953 -56.920795
-41.772694 7.821833 -57.456906
-40.494796 8.847417 -57.60503
-39.281776 9.767272 -57.671509
-38.090633 10.576901 -57.632347
-53.166763 -84.189793 -8.250111
-52.628591 -84.982018 -7.236891
-53.548304 -83.557186 -7.385258
-53.166763 -84.189793 -8.250111
-53.627595 -83.367267 -9.211102
-57.718019 -77.369415 -11.824526
-58.301075 -76.900951 -11.061212
-58.792754 -75.973682 -12.076449
-56.653534 -78.807118 -11.560299
-57.718019 -77.369415 -11.824526
-57.145212 -77.879848 -12.575535
-55.060643 -80.775009 -12.097798
-54.585001 -81.664422 -11.128207
-55.605086 -80.206963 -11.341716
-55.060643 -80.775009 -12.097798
-55.448868 -79.846298 -13.009895
-66.103401 -45.117767 -30.708233
-66.230934 -46.823464 -29.693469
-66.761017 -44.833298 -29.937059
-65.955894 -43.395843 -31.72991
-66.446041 -41.381439 -31.949422
-65.768451 -41.649681 -32.727508
-66.103401 -45.117767 -30.708233
-65.955894 -43.395843 -31.72991
-65.448494 -34.302849 -35.94989
-66.111404 -34.071842 -35.081169
-65.797829 -32.284958 -36.090725
-65.062538 -36.335285 -35.745897
-65.448494 -34.302849 -35.94989
-65.318924 -38.118262 -34.734335
-65.062538 -36.335285 -35.745897
-51.651066 -86.52597 -5.19444
-51.22852 -87.27726 -4.157745
-52.488366 -85.107452 -5.327998
-52.172832 -85.767929 -6.23848
-51.651066 -86.52597 -5.19444
-52.23366 -85.247872 -3.361807
-51.488865 -86.589875 -3.20856
-51.755926 -85.972252 -2.28641
-50.131639 -79.569569 11.120833
-49.879505 -78.837559 12.046225
-50.843731 -79.131546 9.876409
-50.396696 -80.272731 10.233841
-50.131639 -79.569569 11.120833
-53.312107 -68.072174 12.49202
-53.912773 -67.536964 11.199098
-52.541272 -69.13961 12.954898
-52.676827 -68.55735 13.80078
-53.312107 -68.072174 12.49202
-51.188505 -71.359955 13.874693
-51.225783 -70.715499 14.731472
-51.868713 -70.269241 13.406879
-50.587225 -72.496632 14.323149
-51.188505 -71.359955 13.874693
-51.230156 -72.050373 12.998557
-50.007193 -73.606651 14.789673
-50.587225 -72.496632 14.323149
-50.107973 -74.327114 13.887117
-50.007193 -73.606651 14.789673
-50.307531 -75.060974 13.02421
-50.107973 -74.327114 13.887117
-50.828434 -73.92091 12.584107
-50.528911 -75.805695 12.129834
-49.80845 -76.211899 13.432845
-50.307531 -75.060974 13.02421
-60.788395 -58.21307 1.305724
-60.301306 -59.47468 1.644774
-60.250742 -58.971914 2.41614
-61.180762 -57.412041 0.215165
-60.788395 -58.21307 1.305724
-61.653937 -56.595578 -0.867775
-61.312134 -57.899372 -0.548582
-61.180762 -57.412041 0.215165
-61.846948 -55.260687 -1.168265
-62.219808 -53.977743 -1.43139
-61.978321 -55.748019 -1.932011
-61.653937 -56.595578 -0.867775
-61.846948 -55.260687 -1.168265
-62.765255 -51.278301 -4.549453
-62.651899 -52.200037 -3.521928
-62.843916 -51.653992 -5.366758
-62.765255 -51.278301 -4.549453
-62.939936 -50.319042 -5.588596
-63.103758 -47.279331 -8.655322
-63.101107 -48.31756 -7.642755
-62.964878 -46.955305 -7.821423
-62.798556 -41.145306 -11.9084
-62.895712 -42.504111 -11.827979
-62.823318 -42.336115 -10.921613
-62.715439 -39.952425 -12.855819
-62.798556 -41.145306 -11.9084
-62.643045 -39.78443 -11.949454
-62.521873 -35.987696 -13.77573
-62.515367 -37.325558 -13.807542
-62.566435 -37.253687 -12.86506
-62.442627 -34.741579 -14.630104
-62.521873 -35.987696 -13.77573
-63.333718 -20.665723 -21.539122
-63.198748 -22.117672 -21.033009
-63.496907 -20.224348 -22.628597
-63.333718 -20.665723 -21.539122
-63.846255 -19.833978 -23.650643
-63.745249 -21.355832 -23.093083
-63.496907 -20.224348 -22.628597
-63.643521 -17.175271 -23.697649
-63.580612 -16.152178 -23.058332
-63.885558 -18.254269 -24.261788
-63.643521 -17.175271 -23.697649
-63.931166 -16.727046 -24.77328
-64.1339 -19.385753 -24.726273
-63.846255 -19.833978 -23.650643
-63.885558 -18.254269 -24.261788
-63.766052 -12.049715 -26.360571
-63.674707 -10.538352 -26.791187
-63.996187 -13.072495 -27.030806
-63.876005 -13.623293 -25.819069
-63.766052 -12.049715 -26.360571
-64.034681 -10.969583 -28.766617
-63.703958 -9.938975 -28.077027
-63.852406 -9.409642 -29.271335
-46.395886 16.341593 -49.711003
-45.178967 16.346001 -50.875622
-46.395886 16.341593 -49.711003
-47.404449 15.561802 -49.551882
-49.626684 14.498363 -48.065953
-48.49168 14.577343 -49.331046
-49.52672 13.560527 -49.071539
-49.626684 14.498363 -48.065953
-50.74602 14.269083 -46.720123
-54.657423 11.368906 -43.269464
-53.718492 11.774804 -44.715463
-54.657423 11.368906 -43.269464
-55.512568 10.157291 -42.923889
-57.871914 7.867855 -39.597183
-57.165454 8.405684 -41.082147
-58.568735 6.536279 -39.223146
-57.871914 7.867855 -39.597183
-58.742149 5.597459 -40.204348
-59.332506 5.080225 -38.751023
-58.568735 6.536279 -39.223146
-60.761662 -16.367173 -45.577915
-61.562247 -18.095533 -44.505302
-61.515299 -16.178839 -44.670223
-60.761662 -16.367173 -45.577915
-59.92025 -14.62845 -46.639143
-58.993496 -12.925289 -47.687221
-58.019554 -11.217198 -48.714358
-44.385643 5.494272 -56.890206
-43.055786 6.697906 -57.21492
-63.309619 -68.998345 -14.408659
-62.905998 -70.130336 -13.265294
-63.836322 -68.578556 -13.595138
-63.309619 -68.998345 -14.408659
-63.663703 -67.858421 -15.532027
-66.537712 -60.29023 -18.928459
-66.963875 -59.937578 -18.090431
-67.141419 -58.573759 -19.262951
-65.828415 -62.03783 -18.569017
-66.537712 -60.29023 -18.928459
-65.606075 -63.335104 -17.404594
-65.828415 -62.03783 -18.569017
-66.390206 -50.147163 -27.601423
-66.956086 -48.190811 -27.876215
-66.32267 -48.495346 -28.647503
-66.423752 -51.756624 -26.522474
-66.390206 -50.147163 -27.601423
3 0 98 96
3 1 383 385
3 385 384 99
3 383 384 385
3 1 386 387
3 2 102 100
3 4 105 103
3 4 107 105
3 5 109 108
3 5 111 109
3 6 388 390
3 388 113 389
3 388 389 390
3 6 115 113
3 6 117 115
3 391 119 392
3 7 122 120
3 7 393 395
3 395 394 122
3 393 394 395
3 7 396 397
3 3 126 124
3 398 129 399
3 400 399 127
3 398 399 400
3 401 131 402
3 403 133 404
3 405 404 131
3 403 404 405
3 9 137 135
3 10 140 138
3 11 143 141
3 13 146 144
3 13 148 146
3 8 151 149
3 14 154 152
3 14 156 154
3 14 158 156
3 15 161 159
3 15 163 161
3 16 406 407
3 16 408 410
3 408 164 409
3 408 409 410
3 16 166 164
3 17 169 167
3 17 171 169
3 18 174 172
3 18 176 174
3 18 178 176
3 19 181 179
3 19 183 181
3 19 185 183
3 20 188 186
3 20 190 188
3 21 194 193
3 21 196 194
3 21 198 196
3 22 201 199
3 22 203 201
3 23 206 204
3 23 208 206
3 23 210 208
3 411 213 412
3 413 412 211
3 411 412 413
3 415 414 213
3 12 217 215
3 24 220 218
3 26 221 97
3 26 416 418
3 418 417 221
3 416 417 418
3 27 419 421
3 421 420 222
3 419 420 421
3 28 225 223
3 30 226 101
3 30 227 226
3 31 230 228
3 33 231 104
3 33 232 231
3 33 234 232
3 35 235 106
3 35 236 235
3 36 422 423
3 36 424 426
3 424 237 425
3 424 425 426
3 36 239 237
3 38 240 110
3 38 241 240
3 427 242 428
3 40 243 112
3 40 244 243
3 40 246 244
3 42 247 114
3 42 248 247
3 42 250 248
3 44 251 116
3 44 252 251
3 45 429 430
3 45 431 433
3 431 253 432
3 431 432 433
3 45 255 253
3 47 256 118
3 47 257 256
3 48 260 258
3 50 261 121
3 50 262 261
3 50 264 262
3 434 265 435
3 436 435 123
3 434 435 436
3 438 437 265
3 52 267 266
3 440 439 125
3 53 270 268
3 55 271 128
3 55 272 271
3 441 273 442
3 56 274 130
3 56 275 274
3 56 276 275
3 57 277 132
3 57 278 277
3 58 279 134
3 58 280 279
3 58 443 445
3 445 444 280
3 443 444 445
3 59 446 447
3 60 448 450
3 450 449 136
3 448 449 450
3 60 451 452
3 25 281 219
3 453 282 454
3 456 455 282
3 61 285 283
3 458 457 139
3 62 288 286
3 64 289 142
3 64 290 289
3 29 291 224
3 65 292 145
3 65 293 292
3 65 294 293
3 66 295 147
3 66 296 295
3 54 297 269
3 67 298 150
3 67 299 298
3 32 300 229
3 68 301 153
3 68 302 301
3 68 303 302
3 69 304 155
3 69 305 304
3 69 306 305
3 70 307 157
3 70 308 307
3 34 309 233
3 71 310 160
3 71 311 310
3 71 312 311
3 72 313 162
3 72 314 313
3 459 315 460
3 73 316 165
3 73 317 316
3 37 318 238
3 74 319 168
3 74 320 319
3 74 321 320
3 75 322 170
3 75 323 322
3 76 461 462
3 76 463 465
3 463 324 464
3 463 464 465
3 77 466 467
3 77 468 469
3 39 470 472
3 470 325 471
3 470 471 472
3 78 326 173
3 78 327 326
3 78 328 327
3 79 329 175
3 79 330 329
3 79 331 330
3 80 332 177
3 80 333 332
3 41 334 245
3 81 335 180
3 81 336 335
3 81 337 336
3 82 338 182
3 82 339 338
3 82 340 339
3 83 341 184
3 83 342 341
3 43 343 249
3 84 344 187
3 84 345 344
3 84 346 345
3 85 347 189
3 85 348 347
3 473 349 474
3 475 350 476
3 477 476 349
3 475 476 477
3 478 351 479
3 480 352 481
3 482 481 351
3 480 481 482
3 86 353 191
3 86 354 353
3 86 355 354
3 483 356 484
3 486 485 356
3 87 357 192
3 87 358 357
3 487 359 488
3 88 360 195
3 88 361 360
3 88 362 361
3 89 363 197
3 89 364 363
3 46 365 254
3 90 366 200
3 90 367 366
3 90 368 367
3 91 369 202
3 91 370 369
3 49 489 491
3 491 490 259
3 489 490 491
3 493 492 205
3 92 494 496
3 496 495 207
3 494 495 496
3 92 497 499
3 497 371 498
3 497 498 499
3 92 372 371
3 93 373 209
3 93 374 373
3 51 375 263
3 94 376 212
3 94 377 376
3 94 378 377
3 95 379 214
3 95 380 379
3 95 500 502
3 502 501 380
3 500 501 502
3 63 381 287
3 503 382 504
3 505 504 216
3 503 504 505
3 507 506 382
3 509 508 284
3 96 97 24
3 98 97 96
3 98 26 97
3 99 510 512
3 512 511 27
3 510 511 512
3 514 513 99
3 100 101 28
3 102 101 100
3 102 30 101
3 103 104 31
3 105 104 103
3 105 33 104
3 105 106 33
3 107 106 105
3 107 35 106
3 108 515 516
3 109 517 519
3 519 518 108
3 517 518 519
3 109 520 522
3 520 36 521
3 520 521 522
3 109 110 36
3 111 110 109
3 111 38 110
3 523 112 524
3 113 525 527
3 525 112 526
3 525 526 527
3 113 40 112
3 113 114 40
3 115 114 113
3 115 42 114
3 115 116 42
3 117 116 115
3 117 44 116
3 528 45 529
3 530 118 531
3 532 531 45
3 530 531 532
3 119 533 535
3 533 118 534
3 533 534 535
3 119 47 118
3 120 121 48
3 122 121 120
3 122 50 121
3 122 123 50
3 536 123 537
3 538 537 122
3 536 537 538
3 540 539 123
3 124 125 52
3 126 125 124
3 126 541 543
3 543 542 125
3 541 542 543
3 127 128 53
3 129 128 127
3 129 55 128
3 544 130 545
3 131 546 548
3 546 130 547
3 546 547 548
3 131 56 130
3 131 132 56
3 133 132 131
3 133 57 132
3 549 134 550
3 551 134 552
3 553 58 554
3 555 554 134
3 553 554 555
3 557 556 58
3 135 136 59
3 137 136 135
3 137 60 136
3 559 558 25
3 138 139 61
3 140 139 138
3 140 560 562
3 562 561 139
3 560 561 562
3 141 142 62
3 143 142 141
3 143 64 142
3 144 145 29
3 146 145 144
3 146 65 145
3 146 147 65
3 148 147 146
3 148 66 147
3 149 150 54
3 151 150 149
3 151 67 150
3 152 153 32
3 154 153 152
3 154 68 153
3 154 155 68
3 156 155 154
3 156 69 155
3 156 157 69
3 158 157 156
3 158 70 157
3 159 160 34
3 161 160 159
3 161 71 160
3 161 162 71
3 163 162 161
3 163 72 162
3 164 563 564
3 164 565 566
3 164 567 569
3 567 165 568
3 567 568 569
3 166 165 164
3 166 73 165
3 167 168 37
3 169 168 167
3 169 74 168
3 169 170 74
3 171 170 169
3 171 75 170
3 570 76 571
3 572 77 573
3 172 173 39
3 174 173 172
3 174 78 173
3 174 175 78
3 176 175 174
3 176 79 175
3 176 177 79
3 178 177 176
3 178 80 177
3 179 180 41
3 181 180 179
3 181 81 180
3 181 182 81
3 183 182 181
3 183 82 182
3 183 184 82
3 185 184 183
3 185 83 184
3 186 187 43
3 188 187 186
3 188 84 187
3 188 189 84
3 190 189 188
3 190 85 189
3 574 191 575
3 576 191 577
3 578 86 579
3 580 579 191
3 578 579 580
3 582 581 86
3 583 192 584
3 585 192 586
3 587 87 588
3 589 588 192
3 587 588 589
3 193 590 591
3 194 592 594
3 594 593 193
3 592 593 594
3 194 595 596
3 194 597 599
3 597 195 598
3 597 598 599
3 196 195 194
3 196 88 195
3 196 197 88
3 198 197 196
3 198 89 197
3 199 200 46
3 201 200 199
3 201 90 200
3 201 202 90
3 203 202 201
3 203 91 202
3 204 205 49
3 206 205 204
3 206 600 602
3 602 601 205
3 600 601 602
3 206 603 605
3 603 207 604
3 603 604 605
3 208 207 206
3 208 92 207
3 208 209 92
3 210 209 208
3 210 93 209
3 211 212 51
3 213 212 211
3 213 94 212
3 213 214 94
3 606 214 607
3 608 607 213
3 606 607 608
3 609 95 610
3 611 610 214
3 609 610 611
3 613 612 95
3 215 216 63
3 217 216 215
3 217 614 616
3 616 615 216
3 614 615 616
3 218 219 9
3 220 219 218
3 220 25 219
3 97 220 24
3 221 220 97
3 221 25 220
3 221 617 619
3 619 618 25
3 617 618 619
3 621 620 221
3 222 622 624
3 624 623 10
3 622 623 624
3 626 625 222
3 628 627 27
3 223 224 11
3 225 224 223
3 225 29 224
3 101 225 28
3 226 225 101
3 226 29 225
3 226 144 29
3 227 144 226
3 227 13 144
3 228 229 8
3 230 229 228
3 230 32 229
3 104 230 31
3 231 230 104
3 231 32 230
3 231 152 32
3 232 152 231
3 232 14 152
3 232 233 14
3 234 233 232
3 234 34 233
3 106 234 33
3 235 234 106
3 235 34 234
3 235 159 34
3 236 159 235
3 236 15 159
3 237 629 630
3 237 631 633
3 631 16 632
3 631 632 633
3 237 238 16
3 239 238 237
3 239 37 238
3 110 239 36
3 240 239 110
3 240 37 239
3 240 167 37
3 241 167 240
3 241 17 167
3 242 634 635
3 242 636 638
3 636 39 637
3 636 637 638
3 112 639 641
3 639 242 640
3 639 640 641
3 243 242 112
3 243 39 242
3 243 172 39
3 244 172 243
3 244 18 172
3 244 245 18
3 246 245 244
3 246 41 245
3 114 246 40
3 247 246 114
3 247 41 246
3 247 179 41
3 248 179 247
3 248 19 179
3 248 249 19
3 250 249 248
3 250 43 249
3 116 250 42
3 251 250 116
3 251 43 250
3 251 186 43
3 252 186 251
3 252 20 186
3 642 193 643
3 253 644 646
3 644 193 645
3 644 645 646
3 253 21 193
3 253 254 21
3 255 254 253
3 255 46 254
3 118 255 45
3 256 255 118
3 256 46 255
3 256 199 46
3 257 199 256
3 257 22 199
3 258 647 649
3 647 259 648
3 647 648 649
3 260 259 258
3 260 49 259
3 121 260 48
3 261 260 121
3 261 49 260
3 261 204 49
3 262 204 261
3 262 23 204
3 262 263 23
3 264 263 262
3 264 51 263
3 123 264 50
3 265 264 123
3 265 51 264
3 265 211 51
3 650 211 651
3 652 651 265
3 650 651 652
3 654 653 211
3 266 655 657
3 657 656 12
3 655 656 657
3 267 658 660
3 660 659 266
3 658 659 660
3 267 661 662
3 125 267 52
3 663 267 664
3 665 664 125
3 663 664 665
3 667 666 267
3 268 269 2
3 270 269 268
3 270 54 269
3 128 270 53
3 271 270 128
3 271 54 270
3 271 149 54
3 272 149 271
3 272 8 149
3 668 129 669
3 273 670 672
3 670 129 671
3 670 671 672
3 273 55 129
3 130 673 675
3 673 273 674
3 673 674 675
3 274 273 130
3 274 55 273
3 274 272 55
3 275 272 274
3 275 8 272
3 275 228 8
3 276 228 275
3 276 31 228
3 132 276 56
3 277 276 132
3 277 31 276
3 277 103 31
3 278 103 277
3 278 4 103
3 676 108 677
3 678 108 679
3 680 5 681
3 682 681 108
3 680 681 682
3 683 6 684
3 686 685 6
3 687 258 688
3 689 258 690
3 691 48 692
3 693 692 258
3 691 692 693
3 134 694 695
3 279 696 698
3 698 697 134
3 696 697 698
3 279 699 701
3 699 48 700
3 699 700 701
3 279 120 48
3 280 120 279
3 280 7 120
3 280 702 704
3 704 703 7
3 702 703 704
3 706 705 280
3 708 707 58
3 136 709 711
3 711 710 59
3 709 710 711
3 713 712 136
3 219 137 9
3 281 137 219
3 281 60 137
3 714 281 715
3 716 715 25
3 714 715 716
3 282 717 719
3 717 281 718
3 717 718 719
3 282 60 281
3 282 720 722
3 722 721 60
3 720 721 722
3 724 723 282
3 283 284 3
3 285 284 283
3 285 725 727
3 727 726 284
3 725 726 727
3 139 285 61
3 728 285 729
3 730 729 139
3 728 729 730
3 732 731 285
3 733 140 734
3 735 734 10
3 733 734 735
3 736 140 737
3 739 738 140
3 286 287 0
3 288 287 286
3 288 63 287
3 142 288 62
3 289 288 142
3 289 63 288
3 289 215 63
3 290 215 289
3 290 12 215
3 224 143 11
3 291 143 224
3 291 64 143
3 145 291 29
3 292 291 145
3 292 64 291
3 292 290 64
3 293 290 292
3 293 12 290
3 293 266 12
3 294 266 293
3 294 52 266
3 147 294 65
3 295 294 147
3 295 52 294
3 295 124 52
3 296 124 295
3 296 3 124
3 269 102 2
3 297 102 269
3 297 30 102
3 150 297 54
3 298 297 150
3 298 30 297
3 298 227 30
3 299 227 298
3 299 13 227
3 229 151 8
3 300 151 229
3 300 67 151
3 153 300 32
3 301 300 153
3 301 67 300
3 301 299 67
3 302 299 301
3 302 13 299
3 302 148 13
3 303 148 302
3 303 66 148
3 155 303 68
3 304 303 155
3 304 66 303
3 304 296 66
3 305 296 304
3 305 3 296
3 305 283 3
3 306 283 305
3 306 61 283
3 157 306 69
3 307 306 157
3 307 61 306
3 307 138 61
3 308 138 307
3 308 10 138
3 233 158 14
3 309 158 233
3 309 70 158
3 160 309 34
3 310 309 160
3 310 70 309
3 310 308 70
3 311 308 310
3 311 10 308
3 311 222 10
3 312 222 311
3 312 27 222
3 162 312 71
3 313 312 162
3 313 27 312
3 313 99 27
3 314 99 313
3 314 1 99
3 315 740 741
3 315 742 744
3 742 59 743
3 742 743 744
3 165 745 747
3 745 315 746
3 745 746 747
3 316 315 165
3 316 59 315
3 316 135 59
3 317 135 316
3 317 9 135
3 238 166 16
3 318 166 238
3 318 73 166
3 168 318 37
3 319 318 168
3 319 73 318
3 319 317 73
3 320 317 319
3 320 9 317
3 320 218 9
3 321 218 320
3 321 24 218
3 170 321 74
3 322 321 170
3 322 24 321
3 322 96 24
3 323 96 322
3 323 0 96
3 324 748 749
3 324 750 752
3 750 5 751
3 750 751 752
3 325 753 754
3 325 755 757
3 755 77 756
3 755 756 757
3 173 325 39
3 326 325 173
3 326 77 325
3 326 758 760
3 760 759 77
3 758 759 760
3 327 761 763
3 763 762 326
3 761 762 763
3 327 764 765
3 327 766 767
3 328 768 770
3 770 769 327
3 768 769 770
3 328 771 773
3 771 76 772
3 771 772 773
3 175 328 78
3 329 328 175
3 329 76 328
3 329 324 76
3 330 324 329
3 330 5 324
3 330 111 5
3 331 111 330
3 331 38 111
3 177 331 79
3 332 331 177
3 332 38 331
3 332 241 38
3 333 241 332
3 333 17 241
3 245 178 18
3 334 178 245
3 334 80 178
3 180 334 41
3 335 334 180
3 335 80 334
3 335 333 80
3 336 333 335
3 336 17 333
3 336 171 17
3 337 171 336
3 337 75 171
3 182 337 81
3 338 337 182
3 338 75 337
3 338 323 75
3 339 323 338
3 339 0 323
3 339 286 0
3 340 286 339
3 340 62 286
3 184 340 82
3 341 340 184
3 341 62 340
3 341 141 62
3 342 141 341
3 342 11 141
3 249 185 19
3 343 185 249
3 343 83 185
3 187 343 43
3 344 343 187
3 344 83 343
3 344 342 83
3 345 342 344
3 345 11 342
3 345 223 11
3 346 223 345
3 346 28 223
3 189 346 84
3 347 346 189
3 347 28 346
3 347 100 28
3 348 100 347
3 348 2 100
3 774 117 775
3 776 775 6
3 774 775 776
3 777 117 778
3 779 44 780
3 781 780 117
3 779 780 781
3 349 782 783
3 349 784 786
3 784 44 785
3 784 785 786
3 349 252 44
3 350 252 349
3 350 20 252
3 787 350 788
3 351 789 791
3 789 350 790
3 789 790 791
3 351 20 350
3 351 190 20
3 352 190 351
3 352 85 190
3 191 792 794
3 792 352 793
3 792 793 794
3 353 352 191
3 353 85 352
3 353 348 85
3 354 348 353
3 354 2 348
3 354 268 2
3 355 268 354
3 355 53 268
3 795 355 796
3 797 796 86
3 795 796 797
3 356 798 800
3 798 355 799
3 798 799 800
3 356 53 355
3 356 127 53
3 801 127 802
3 803 802 356
3 801 802 803
3 805 804 127
3 806 133 807
3 808 133 809
3 810 57 811
3 812 811 133
3 810 811 812
3 192 813 814
3 357 815 817
3 817 816 192
3 815 816 817
3 357 818 820
3 818 57 819
3 818 819 820
3 357 278 57
3 358 278 357
3 358 4 278
3 359 821 822
3 359 823 825
3 823 87 824
3 823 824 825
3 195 826 828
3 826 359 827
3 826 827 828
3 360 359 195
3 360 87 359
3 360 358 87
3 361 358 360
3 361 4 358
3 361 107 4
3 362 107 361
3 362 35 107
3 197 362 88
3 363 362 197
3 363 35 362
3 363 236 35
3 364 236 363
3 364 15 236
3 254 198 21
3 365 198 254
3 365 89 198
3 200 365 46
3 366 365 200
3 366 89 365
3 366 364 89
3 367 364 366
3 367 15 364
3 367 163 15
3 368 163 367
3 368 72 163
3 202 368 90
3 369 368 202
3 369 72 368
3 369 314 72
3 370 314 369
3 370 1 314
3 259 829 830
3 832 831 259
3 205 833 835
3 835 834 49
3 833 834 835
3 837 836 205
3 207 838 839
3 841 840 207
3 371 842 843
3 371 844 845
3 371 846 848
3 846 119 847
3 846 847 848
3 372 119 371
3 372 47 119
3 209 372 92
3 373 372 209
3 373 47 372
3 373 257 47
3 374 257 373
3 374 22 257
3 263 210 23
3 375 210 263
3 375 93 210
3 212 375 51
3 376 375 212
3 376 93 375
3 376 374 93
3 377 374 376
3 377 22 374
3 377 203 22
3 378 203 377
3 378 91 203
3 214 378 94
3 379 378 214
3 379 91 378
3 379 370 91
3 380 370 379
3 380 1 370
3 380 849 851
3 851 850 1
3 849 850 851
3 853 852 380
3 855 854 95
3 857 856 7
3 287 98 0
3 381 98 287
3 381 26 98
3 216 381 63
3 382 381 216
3 382 26 381
3 382 858 860
3 860 859 26
3 858 859 860
3 862 861 382
3 863 217 864
3 865 864 12
3 863 864 865
3 866 217 867
3 869 868 217
3 284 126 3
3 870 126 871
3 872 871 284
3 870 871 872
3 874 873 126
