ply
format ascii 1.0
element vertex 888
property float x
property float y
property float z
element face 1094
property list uchar int vertex_index
end_header
57.305038 -53.741222 4.077224
70.561867 -40.460625 -26.609884
62.341675 -24.61515 -19.588839
65.982262 -49.162354 -11.06752
60.066856 -69.387543 3.454607
62.637047 -68.58847 -13.459587
66.415741 -9.123349 -37.322098
59.847198 -42.306652 -8.202396
60.631027 -52.616642 -3.025936
53.903431 9.561432 -51.073845
54.57621 -77.284828 2.948848
62.736511 -69.50174 -4.964161
55.240547 -79.566299 -5.69832
68.524773 -30.525045 -23.853373
65.808983 -16.631737 -28.29756
69.805908 -24.550688 -31.535799
66.350418 -20.12406 -39.887909
67.099739 -37.529243 -33.698372
63.673462 -37.013596 -16.203604
70.167511 -44.238403 -18.93989
59.840019 -61.142136 3.84658
65.517723 -60.768314 -4.181496
68.69561 -57.673672 -12.475456
68.302597 -55.324787 -20.918177
61.158287 4.898516 -41.802475
61.474823 -4.093284 -46.644333
58.625893 -49.073757 -1.750443
58.488922 -53.392696 0.88679
50.002312 14.938248 -51.713982
54.601601 13.550018 -47.498169
55.095173 -78.526535 -1.392099
70.699593 -34.809647 -25.27286
69.829353 -27.366209 -27.642298
70.522453 -32.54982 -28.998243
69.203865 -30.580036 -32.763718
69.15448 -39.02697 -30.23807
62.328842 -45.610992 -9.925209
61.403156 -39.882568 -12.245672
64.903511 -43.102898 -13.892715
67.501892 -40.267464 -17.754683
68.410751 -46.698837 -15.021206
60.783699 -65.368225 3.697577
62.770279 -61.400982 -0.136478
63.311356 -65.637604 -0.432985
62.992073 -68.947868 -9.191139
66.256828 -63.97575 -8.770992
66.40583 -62.852291 -13.046158
68.896385 -56.212093 -16.720633
65.872154 -62.180626 -17.329668
66.776787 -12.644592 -32.755951
64.5354 -9.757874 -30.280653
64.86628 -5.568439 -35.109871
62.880089 1.194704 -36.798134
63.918472 -1.88969 -39.938835
61.490303 1.034113 -44.720482
64.561813 -6.27311 -41.986435
60.164841 -47.59111 -5.857338
63.259605 -51.215237 -7.060976
44.968361 14.985832 -54.956711
49.103928 10.260916 -54.799454
53.444496 4.328398 -53.42495
57.697136 -73.235329 3.177364
61.72897 -69.765411 -0.773264
58.600723 -73.927521 -1.096321
59.017822 -74.217331 -5.30805
58.907463 -74.427849 -9.549021
65.032547 -27.315819 -22.085421
64.080551 -20.729996 -23.914698
67.188171 -23.5779 -26.088427
68.477928 -19.935482 -30.153124
68.426849 -16.695812 -34.375946
66.97744 -14.026842 -38.802094
68.522362 -22.164593 -35.620018
67.175034 -28.743587 -36.608345
60.966759 -34.055183 -14.032915
62.732853 -30.864164 -18.0693
66.258423 -33.822239 -20.064962
69.603012 -37.416405 -21.536711
70.937523 -42.131958 -22.821589
56.994057 -55.929203 7.259382
58.222694 -57.011349 3.959323
57.485092 -60.067684 7.705623
56.546593 -72.065514 7.610638
53.976295 -75.784882 7.454169
60.661758 -57.203789 0.215954
63.572037 -56.571243 -3.749819
66.351746 -55.133663 -7.777079
65.229668 -65.084381 -4.571733
67.573204 -59.381557 -8.28941
68.567116 -53.122738 -11.830324
69.949295 -51.009819 -15.915129
70.382034 -49.271812 -20.010641
69.851906 -48.079468 -24.009378
68.43647 -47.189983 -27.724489
58.311546 10.949835 -42.70826
58.078423 7.748055 -46.621788
57.839897 3.110346 -49.324249
57.59901 -2.498753 -50.994232
64.423767 -11.873675 -43.360832
57.455032 -52.246521 3.266505
57.886864 -51.768684 1.46205
57.738106 -53.608295 2.662132
52.908836 15.940781 -47.549759
55.015968 14.885284 -45.245506
70.922119 -37.468407 -25.950144
70.771721 -33.636753 -27.134214
70.630028 -36.531429 -27.806391
70.060562 -35.657982 -29.646307
69.967842 -39.733124 -28.446184
64.154404 -47.349117 -10.562315
63.584915 -44.414856 -11.922812
65.495384 -46.136681 -12.544647
66.803612 -44.832352 -14.505032
67.257576 -47.957737 -13.050098
60.658218 -67.410385 3.587018
62.095085 -65.609192 1.630101
61.778179 -67.661385 1.487493
62.877251 -68.720474 -11.324238
64.799187 -65.987099 -11.128736
64.637566 -65.655708 -13.273928
66.211761 -62.445908 -15.195877
64.342583 -65.447113 -15.412872
66.783615 -10.807759 -35.024651
65.838348 -9.075702 -33.991852
65.713364 -7.188378 -36.340385
64.576439 -3.64617 -37.526466
65.214218 -5.460441 -38.701408
64.331848 -3.91384 -41.070183
65.667274 -7.610375 -39.645424
59.395111 -50.782036 -2.465717
59.309601 -48.382416 -3.801807
60.415688 -50.145115 -4.496979
61.57259 -49.366554 -6.532841
61.909508 -52.00177 -5.041971
43.942211 18.500267 -52.685204
43.107433 16.722572 -54.550728
45.643669 17.073074 -53.242126
51.928349 12.413734 -51.537636
49.493576 12.766054 -53.422287
51.551708 10.052286 -53.057121
51.273399 7.419935 -54.256798
53.637268 7.057232 -52.39994
56.155907 -75.203514 3.056856
58.197426 -73.643333 1.025508
56.526909 -75.721275 0.892951
55.223221 -79.060402 -3.541334
57.008537 -76.490784 -3.360943
57.075623 -76.794151 -5.483103
59.021629 -74.309464 -7.422398
57.027245 -77.092018 -7.617304
66.824097 -28.821201 -23.039507
66.176033 -25.454882 -24.085215
67.874008 -27.055496 -24.972055
69.989563 -25.90642 -29.569532
69.205353 -23.640093 -28.875204
69.37928 -22.057795 -30.874533
68.633995 -18.249666 -32.239899
69.199234 -20.593662 -32.922287
68.681427 -19.259155 -35.02562
69.302063 -23.305214 -33.551178
68.300293 -33.987309 -33.293892
68.248375 -29.656853 -34.676842
67.232239 -33.134247 -35.108727
62.466911 -38.499039 -14.236423
61.103165 -36.981388 -13.201864
62.037308 -35.515282 -15.200727
61.750103 -32.509594 -16.051622
63.14624 -33.949303 -17.185228
64.368515 -32.297062 -19.152502
64.962662 -35.446083 -18.146044
69.096306 -42.135056 -18.372309
68.649086 -38.824696 -19.65354
69.966202 -40.834843 -20.285715
70.582817 -39.614517 -22.187506
70.690964 -43.128284 -20.887686
57.142559 -57.964615 7.534975
58.299774 -66.359756 7.835892
55.337814 -73.897591 7.524544
59.027916 -59.034187 3.902179
59.338875 -57.210491 2.132464
60.367653 -59.264511 1.983129
64.204803 -61.194176 -2.152285
63.32753 -59.074112 -1.973274
64.774185 -58.648441 -3.982853
65.009094 -55.945332 -5.759787
66.106331 -58.01741 -6.00588
62.32703 -69.699219 -2.867985
63.593788 -67.575089 -2.682987
64.21109 -67.273621 -4.771902
67.625793 -60.894184 -10.644691
67.218163 -61.635082 -8.533081
68.255211 -58.531433 -10.372562
68.233696 -56.29213 -10.092669
68.967796 -55.318302 -12.158844
69.372765 -52.04533 -13.868574
69.465141 -54.365746 -14.239817
68.691498 -55.694687 -18.837137
69.762283 -52.76973 -18.423971
69.579071 -52.190845 -20.499567
70.23526 -48.613976 -22.032892
69.186508 -51.749855 -22.532469
64.993904 -18.6901 -26.098913
63.752045 -17.415812 -24.744028
64.49572 -15.305319 -27.03348
63.957939 -6.379697 -31.078821
62.189564 3.137457 -39.316963
61.877476 4.385962 -37.312279
60.968559 6.311493 -39.867073
59.735619 9.266687 -40.184494
59.738594 8.044609 -42.376617
58.185261 9.548403 -44.825401
59.78009 6.444199 -44.243179
61.530548 -1.391504 -45.784859
59.789127 2.179686 -47.059135
59.718067 -0.410477 -48.083168
57.712898 0.391027 -50.285378
59.609344 -3.226766 -48.887367
66.795372 -16.955204 -39.390854
65.813301 -12.89614 -41.075996
65.527824 -15.945345 -41.621506
58.542141 -51.307362 -0.465736
59.473274 -53.072144 -1.03586
48.165421 17.053505 -51.601128
50.607323 16.671108 -49.68502
52.386864 14.406391 -49.699959
54.228767 11.752665 -49.443085
53.095795 -79.535339 2.836582
54.86866 -77.939781 0.765172
53.347019 -80.347221 0.619023
53.529636 -81.112465 -1.57938
53.611202 -81.840637 -3.777777
69.87545 -32.502552 -24.582178
69.329636 -28.913742 -25.741568
70.333481 -31.095711 -26.449488
70.456802 -29.774448 -28.328848
70.246796 -28.545599 -30.230997
69.732376 -27.407444 -32.166306
69.982582 -31.536972 -30.87229
69.263428 -34.819687 -31.473795
68.178505 -38.303215 -31.98736
60.80558 -43.930531 -9.137062
60.523018 -41.152393 -10.233622
61.829697 -42.759403 -11.155151
63.00042 -41.464691 -13.1467
64.275925 -40.062946 -15.110163
65.598656 -38.580498 -17.045691
66.230354 -41.707275 -15.835741
68.023262 -43.482231 -16.446371
69.395081 -45.441738 -16.983915
60.476952 -63.269161 3.782195
61.285961 -61.381683 1.865068
61.907791 -63.509041 1.7535
63.300163 -63.52919 -0.280464
64.577667 -63.326958 -2.321295
62.95369 -69.229019 -7.070457
64.611343 -66.861954 -6.873793
64.800262 -66.409004 -8.992966
66.430504 -63.37952 -10.900747
67.804436 -60.187843 -12.775888
68.903694 -56.881527 -14.594492
67.776947 -59.582081 -14.919363
67.568054 -59.11808 -17.060579
67.196739 -58.803268 -19.175768
66.430977 -14.600533 -30.514872
65.153175 -13.180582 -29.338354
65.629303 -11.087871 -31.657747
64.829781 -7.620414 -32.693352
64.041847 -4.212818 -33.57177
63.267006 -0.88969 -34.254974
63.876823 -2.13674 -36.057976
63.395767 -0.195572 -38.530975
62.557957 1.572666 -40.984238
61.354561 3.138227 -43.409302
62.882423 -0.324629 -42.340576
63.088463 -2.557596 -43.437157
63.145119 -5.104816 -44.328941
65.686241 -23.452942 -40.25856
65.049973 -19.172628 -42.037018
59.284519 -45.900391 -5.035135
59.953617 -44.974121 -7.095465
61.178329 -46.671303 -7.901674
62.831795 -48.433052 -8.557384
64.633316 -50.261284 -9.071079
42.444351 14.493557 -56.068504
44.46072 12.529043 -56.317711
47.508652 15.133537 -53.485855
46.984932 12.805048 -55.03653
46.614357 10.185898 -56.233788
48.846535 7.531567 -55.829567
59.047077 -71.315918 3.313047
60.963722 -69.665466 1.330733
59.727673 -71.644531 1.172648
60.289524 -71.820694 -0.941565
60.703228 -71.860306 -3.042093
56.821198 -76.144272 -1.240736
58.878769 -74.106232 -3.202776
60.953011 -71.801643 -5.141455
61.040337 -71.6996 -7.249268
60.98217 -71.612869 -9.3696
60.803337 -71.58786 -11.498672
63.447075 -25.933084 -20.943701
63.166222 -22.713804 -21.74365
64.510948 -24.032074 -23.023428
65.558716 -22.075956 -25.108015
66.492737 -20.10047 -27.202845
68.689934 -25.31665 -26.912493
67.979729 -21.72427 -28.106676
67.220284 -18.148849 -29.316637
67.662796 -16.266947 -31.459139
67.763847 -14.496752 -33.638641
67.494293 -12.870119 -35.86013
66.854019 -11.40379 -38.123299
67.864204 -15.288528 -36.564499
67.863548 -18.051613 -37.184883
67.521095 -21.112352 -37.7379
68.963112 -26.349596 -34.141975
67.998032 -25.353931 -36.158607
66.892395 -24.396847 -38.205948
66.026978 -27.817215 -38.542145
60.383316 -38.341293 -11.192263
60.420387 -35.499924 -12.018511
61.629105 -29.478363 -16.801008
62.459976 -27.753448 -18.868204
63.853851 -29.127346 -20.081125
65.624687 -30.578892 -21.102537
67.474861 -32.171513 -21.964788
66.89801 -37.049736 -18.955446
68.095406 -35.505184 -20.843706
69.111572 -33.979881 -22.716673
70.302055 -36.071854 -23.408407
70.907875 -38.491875 -24.076609
70.893188 -41.249184 -24.732409
57.153549 -54.726303 5.471597
57.601345 -55.173183 4.020857
57.410141 -56.58469 5.664412
57.917248 -58.595699 5.756165
58.535545 -60.696548 5.797466
57.888435 -62.197403 7.804318
59.101112 -62.824078 5.802101
59.455414 -64.927071 5.770986
59.473381 -66.970123 5.703701
59.084721 -68.937759 5.605398
57.483932 -70.226364 7.702845
58.285126 -70.838242 5.488815
57.135117 -72.704742 5.370707
55.747185 -74.591072 5.264881
54.263489 -76.56192 5.175166
57.133205 -53.964458 6.814773
58.402161 -55.291794 2.342196
59.474648 -55.221977 0.491182
60.73494 -54.979256 -1.453695
61.832088 -59.279762 0.018824
62.099747 -56.992023 -1.75325
62.108841 -54.553993 -3.443937
63.530952 -53.938118 -5.451963
64.942741 -53.135944 -7.463396
66.291039 -52.169163 -9.47208
62.772266 -67.713928 -0.59964
64.371124 -65.455383 -2.497681
65.681168 -62.916607 -4.373777
65.860336 -64.569321 -6.661474
66.568863 -62.333588 -6.443237
66.653557 -60.148705 -6.226215
67.272057 -57.21439 -8.042089
67.550735 -54.174343 -9.800289
67.527679 -51.077686 -11.476847
68.610023 -49.916206 -13.479231
69.50174 -48.74704 -15.481451
70.173134 -47.630409 -17.484278
69.727425 -53.500671 -16.331484
70.286888 -50.07325 -17.965734
70.600594 -46.614235 -19.484663
70.768394 -45.725464 -21.473833
70.669159 -44.966259 -23.437799
70.306656 -44.314545 -25.358824
53.582561 -82.545403 -5.990969
55.153198 -80.067535 -7.871649
56.879448 -77.412552 -9.764666
58.696167 -74.599686 -11.681311
60.525261 -71.64537 -13.622599
62.290657 -68.562164 -15.576799
67.737442 -55.0653 -22.929785
68.593613 -51.403942 -24.491213
69.244644 -47.624191 -25.914328
69.69912 -43.729679 -27.219374
68.880447 -43.161438 -29.006632
67.897919 -42.559799 -30.715212
64.069199 -11.933146 -27.87591
56.884911 13.534378 -42.81443
56.591358 12.38883 -45.155357
56.333508 10.792267 -47.191437
56.099785 8.791172 -48.911583
59.808025 4.480104 -45.792442
57.965431 5.584896 -48.111191
55.887409 6.445086 -50.330322
55.70599 3.826534 -51.467545
55.569656 1.015619 -52.327225
65.869614 -10.098787 -40.421867
64.586639 -8.943423 -42.740913
63.059685 -7.919228 -45.053139
64.103287 -14.995388 -43.838486
62.856255 -10.935923 -45.614929
61.342049 -7.008033 -47.314842
55.239573 15.294148 -43.983459
54.244783 15.914348 -45.180531
62.359948 -23.033463 -19.909489
62.124153 -23.975501 -18.806738
45.198666 18.585367 -51.942036
44.421762 19.107601 -51.594234
46.049395 17.87177 -52.220497
44.79294 17.78667 -52.963665
45.198666 18.585367 -51.942036
66.534317 -37.105567 -34.535579
66.600567 -34.908069 -35.240757
67.165989 -35.331745 -34.403549
59.870758 -40.951589 -8.688271
59.739244 -41.531759 -7.674655
63.677998 -5.842951 -30.105947
63.685612 -4.725646 -31.387642
50.942871 17.271299 -48.522037
49.764161 17.56324 -49.544826
52.578779 -81.167851 1.6554
53.221407 -79.94128 1.727802
52.453167 -80.76191 2.76418
52.853414 -82.511905 -1.708181
52.782789 -82.039066 -0.578434
52.894198 -82.875991 -2.807379
53.570419 -81.476551 -2.678578
52.853414 -82.511905 -1.708181
65.042023 -22.976332 -41.265713
65.254917 -25.155618 -40.35199
58.711439 -47.903837 -2.35686
58.553406 -48.293222 -1.320024
52.273628 4.471026 -54.273174
51.18808 6.016795 -54.689099
52.358947 5.874166 -53.840874
53.388176 2.894529 -53.777878
52.273628 4.471026 -54.273174
60.807817 -33.342849 -13.376592
60.534632 -34.06522 -12.36939
60.693573 -34.777553 -13.025713
60.990261 -32.579055 -14.391075
60.807817 -33.342849 -13.376592
58.046734 -63.252411 7.824853
57.514532 -62.86795 8.856648
58.653072 -63.565748 6.823745
58.494774 -62.51074 6.80321
58.046734 -63.252411 7.824853
58.830223 -64.617245 6.808187
59.278263 -63.875574 5.786544
58.653072 -63.565748 6.823745
58.773786 -67.651413 6.743809
58.886578 -66.66494 6.769796
58.186983 -67.346229 7.809904
58.579456 -68.635231 6.694657
59.279051 -67.953941 5.654549
58.773786 -67.651413 6.743809
57.015263 -71.145939 7.656741
56.724327 -70.780625 8.79841
56.255657 -71.700199 8.752307
57.063631 -54.946831 7.037077
57.091928 -54.542278 7.80371
57.022354 -55.52465 8.026015
52.85051 -84.129845 -6.192861
52.894239 -83.686306 -5.04818
55.064453 -80.320931 -8.965155
54.302597 -81.650982 -8.047942
55.927578 -78.993439 -9.911664
56.016323 -78.740044 -8.818157
55.064453 -80.320931 -8.965155
58.548298 -74.712506 -12.74098
57.671948 -76.181557 -11.797821
59.462845 -73.235348 -13.711624
59.610714 -73.122528 -12.651955
58.548298 -74.712506 -12.74098
62.065928 -68.59026 -16.610475
61.223273 -70.16853 -15.646276
63.110218 -66.960507 -16.548179
62.065928 -68.59026 -16.610475
67.369182 -54.960064 -23.881861
66.86541 -56.773617 -23.058491
67.797268 -53.129385 -24.662575
68.165527 -53.234621 -23.710499
67.369182 -54.960064 -23.881861
68.840557 -47.407087 -26.819409
68.528931 -49.357586 -26.129052
68.124843 -49.140482 -27.034132
67.131695 -44.355759 -30.862848
67.680001 -44.638115 -30.069926
67.351776 -42.221558 -31.531244
67.131695 -44.355759 -30.862848
63.548912 -20.101817 -23.194206
63.091747 -21.093722 -22.108683
63.623386 -21.7219 -22.829174
63.372364 -16.819355 -23.930227
63.638306 -15.758309 -25.114483
62.688439 1.752229 -35.761265
62.881897 0.710032 -34.489685
63.073548 0.152507 -35.526554
61.795012 4.857009 -36.148254
61.36936 5.882242 -37.458371
58.399536 11.436829 -41.499184
59.111573 10.595254 -40.237301
59.023583 10.108261 -41.446377
57.598229 12.242107 -42.761345
57.686219 12.7291 -41.552269
58.399536 11.436829 -41.499184
56.540636 -2.204851 -51.939838
55.525959 -0.447665 -52.606335
56.584333 -0.741567 -51.660728
63.872169 -16.615057 -43.986027
64.57663 -17.084008 -42.937752
64.345512 -18.703677 -43.085293
62.001503 -10.500854 -46.696323
62.702904 -12.509933 -45.799785
61.2444 -8.536909 -47.54628
62.099152 -8.971978 -46.464885
62.001503 -10.500854 -46.696323
60.409849 -6.603101 -48.389103
61.2444 -8.536909 -47.54628
57.670948 -52.007603 2.364278
57.841484 -51.061916 1.8591
57.625568 -51.300835 2.761327
53.191217 16.442097 -46.332657
52.093627 16.906136 -47.454407
53.962402 15.413032 -46.397633
53.191217 16.442097 -46.332657
54.244783 15.914348 -45.180531
43.189809 18.926445 -52.24535
44.421762 19.107601 -51.594234
42.696428 18.219216 -53.246796
43.189809 18.926445 -52.24535
43.524822 17.61142 -53.617966
42.279039 17.330368 -54.179558
42.696428 18.219216 -53.246796
66.669468 -32.686489 -36.010334
66.640865 -30.491159 -36.760143
67.203637 -30.938917 -35.858536
66.669468 -32.686489 -36.010334
66.600567 -34.908069 -35.240757
56.970937 -57.574425 8.389602
57.068308 -56.946909 7.397178
56.896687 -56.556719 8.251805
56.970678 -58.628455 8.548172
56.970937 -57.574425 8.389602
57.141945 -59.679989 8.633496
57.313826 -59.016149 7.620299
56.970678 -58.628455 8.548172
57.764347 -65.98191 8.905023
58.252403 -65.333587 7.840641
57.702305 -66.976547 8.909421
57.764347 -65.98191 8.905023
58.186983 -67.346229 7.809904
57.702305 -66.976547 8.909421
55.751171 -72.603127 8.722746
56.255657 -71.700199 8.752307
55.146782 -73.519165 8.679699
55.942204 -72.981552 7.567591
55.751171 -72.603127 8.722746
54.542889 -74.435196 8.65587
55.146782 -73.519165 8.679699
53.862129 -75.378841 8.620683
54.657055 -74.841237 7.489356
54.542889 -74.435196 8.65587
56.896687 -56.556719 8.251805
57.022354 -55.52465 8.026015
67.651218 -48.966261 -27.894334
68.124843 -49.140482 -27.034132
67.949276 -46.953207 -28.574564
67.651218 -48.966261 -27.894334
64.010143 -14.703063 -26.259209
63.638306 -15.758309 -25.114483
64.123883 -16.360565 -25.888754
63.833454 -7.485399 -29.832822
64.122185 -9.174488 -29.433739
64.246669 -8.068786 -30.679737
63.833454 -7.485399 -29.832822
63.677998 -5.842951 -30.105947
60.914901 6.845007 -38.735767
61.36936 5.882242 -37.458371
61.423018 5.348727 -38.589676
60.352089 7.78909 -40.025784
60.298431 8.322604 -38.894478
60.914901 6.845007 -38.735767
58.373531 -49.391866 -0.737366
58.553406 -48.293222 -1.320024
58.004017 -50.73933 0.868881
57.841484 -51.061916 1.8591
58.331655 -50.508669 -0.095012
58.004017 -50.73933 0.868881
58.214503 -51.538023 0.498157
58.584017 -50.190559 -1.108089
58.373531 -49.391866 -0.737366
58.331655 -50.508669 -0.095012
48.54321 17.754438 -50.502881
47.310271 17.861986 -51.399998
49.386372 16.862307 -50.643074
48.54321 17.754438 -50.502881
49.764161 17.56324 -49.544826
51.75808 16.305944 -48.61739
50.942871 17.271299 -48.522037
52.093627 16.906136 -47.454407
52.69148 -81.656444 0.520767
52.578779 -81.167851 1.6554
53.438327 -80.729843 -0.480179
52.69148 -81.656444 0.520767
52.782789 -82.039066 -0.578434
63.727565 -3.642207 -32.634117
63.685612 -4.725646 -31.387642
63.999893 -5.296258 -32.325296
63.654426 -2.551254 -33.913372
63.340145 -1.980642 -32.975718
63.727565 -3.642207 -32.634117
64.723888 -20.836175 -42.154942
65.368107 -21.312785 -41.147789
65.042023 -22.976332 -41.265713
64.345512 -18.703677 -43.085293
64.723888 -20.836175 -42.154942
59.612533 -42.830625 -7.177907
59.739244 -41.531759 -7.674655
59.053293 -47.558166 -3.382543
58.711439 -47.903837 -2.35686
58.967747 -48.728087 -2.776125
59.040752 -46.317154 -3.999207
59.053293 -47.558166 -3.382543
59.29706 -47.141403 -4.418471
59.193208 -45.108639 -4.561457
59.040752 -46.317154 -3.999207
59.331194 -44.627495 -5.594277
59.193208 -45.108639 -4.561457
59.665743 -44.16436 -6.624441
59.331194 -44.627495 -5.594277
59.619068 -45.437256 -6.0653
59.900408 -43.640386 -7.648931
59.612533 -42.830625 -7.177907
59.665743 -44.16436 -6.624441
41.865963 16.362356 -55.012485
42.279039 17.330368 -54.179558
41.534422 15.247848 -55.771373
41.865963 16.362356 -55.012485
42.775892 15.608064 -55.309616
41.221609 14.076458 -56.419704
41.534422 15.247848 -55.771373
42.210699 13.215543 -56.638244
41.221609 14.076458 -56.419704
43.218884 12.233286 -56.762848
42.210699 13.215543 -56.638244
43.452535 13.5113 -56.193107
44.296824 11.176903 -56.80661
43.218884 12.233286 -56.762848
46.904545 17.063289 -52.421627
46.049395 17.87177 -52.220497
47.310271 17.861986 -51.399998
45.373642 10.005331 -56.764648
44.296824 11.176903 -56.80661
45.537538 11.35747 -56.27575
46.507622 8.786788 -56.640553
45.373642 10.005331 -56.764648
47.623711 7.459623 -56.438442
46.507622 8.786788 -56.640553
47.730446 8.858733 -56.031678
48.78315 6.103515 -56.154716
47.623711 7.459623 -56.438442
49.974648 6.072611 -55.475483
50.059967 7.475751 -55.043183
51.18808 6.016795 -54.689099
48.78315 6.103515 -56.154716
49.974648 6.072611 -55.475483
65.425286 -27.337755 -39.493782
65.254917 -25.155618 -40.35199
65.856609 -25.635078 -39.400352
66.066837 -30.027973 -37.727044
66.601006 -28.280401 -37.575245
66.640865 -30.491159 -36.760143
65.487381 -29.55114 -38.612778
66.066837 -30.027973 -37.727044
65.425286 -27.337755 -39.493782
65.487381 -29.55114 -38.612778
62.012516 -25.517468 -18.523203
62.124153 -23.975501 -18.806738
60.208668 -40.37446 -9.703885
59.870758 -40.951589 -8.688271
60.185108 -41.729523 -9.218009
60.138817 -38.96891 -10.183205
60.208668 -40.37446 -9.703885
60.453167 -39.746843 -10.712943
60.253526 -37.59539 -10.60188
60.138817 -38.96891 -10.183205
60.272062 -36.174706 -11.015004
60.253526 -37.59539 -10.60188
60.401851 -36.920609 -11.605387
60.481809 -34.785408 -11.368521
60.272062 -36.174706 -11.015004
60.481809 -34.785408 -11.368521
60.534632 -34.06522 -12.36939
61.381933 -31.806261 -15.400429
60.990261 -32.579055 -14.391075
61.358431 -33.282388 -15.042268
61.321434 -30.290646 -15.775122
61.381933 -31.806261 -15.400429
61.689604 -30.993979 -16.426315
61.438183 -28.80152 -16.080434
61.321434 -30.290646 -15.775122
61.656231 -27.949075 -17.129288
61.438183 -28.80152 -16.080434
62.071666 -27.086617 -18.162886
61.656231 -27.949075 -17.129288
62.04454 -28.615906 -17.834606
62.400825 -26.184299 -19.228521
62.012516 -25.517468 -18.523203
62.071666 -27.086617 -18.162886
57.219446 -60.745075 8.74074
57.141945 -59.679989 8.633496
57.421118 -61.809934 8.790087
57.514532 -62.86795 8.856648
57.686763 -61.132543 7.754971
57.219446 -60.745075 8.74074
57.421118 -61.809934 8.790087
58.877594 -65.643414 6.803439
58.830223 -64.617245 6.808187
58.252403 -65.333587 7.840641
57.087841 -69.862465 8.826399
56.724327 -70.780625 8.79841
57.779062 -69.279533 7.74338
57.087841 -69.862465 8.826399
58.284327 -69.582062 6.654122
58.579456 -68.635231 6.694657
57.779062 -69.279533 7.74338
53.217557 -76.340065 8.604162
53.862129 -75.378841 8.620683
53.28793 -76.788353 7.425117
53.217557 -76.340065 8.604162
53.431527 -77.176872 6.285616
54.119892 -76.173401 6.314668
53.28793 -76.788353 7.425117
53.545486 -77.620339 5.133304
53.431527 -77.176872 6.285616
53.701847 -77.981793 4.020145
54.419849 -76.923374 4.062007
53.545486 -77.620339 5.133304
52.96164 -79.107048 3.964012
53.836003 -78.410083 2.892715
53.701847 -77.981793 4.020145
52.325007 -80.260131 3.913377
52.96164 -79.107048 3.964012
52.453167 -80.76191 2.76418
52.325007 -80.260131 3.913377
57.36846 -53.530455 7.495669
57.091928 -54.542278 7.80371
57.363058 -52.992227 6.48298
57.36846 -53.530455 7.495669
57.184137 -53.459854 5.905473
57.363058 -52.992227 6.48298
57.194309 -53.840777 5.233885
57.184137 -53.459854 5.905473
57.143377 -54.345381 6.143185
57.229293 -54.233762 4.774411
57.270054 -53.348236 4.536698
57.194309 -53.840777 5.233885
57.545155 -51.673817 3.731823
57.625568 -51.300835 2.761327
57.34505 -52.600886 4.131339
57.545155 -51.673817 3.731823
57.270054 -53.348236 4.536698
57.380035 -52.993871 3.671864
57.34505 -52.600886 4.131339
52.908559 -83.333923 -3.941584
52.894198 -82.875991 -2.807379
53.596881 -82.19302 -4.884373
52.908559 -83.333923 -3.941584
52.894239 -83.686306 -5.04818
53.517279 -82.889916 -7.107602
52.85051 -84.129845 -6.192861
54.36788 -81.306469 -6.931309
53.517279 -82.889916 -7.107602
54.302597 -81.650982 -8.047942
56.763588 -77.58799 -10.839499
55.927578 -78.993439 -9.911664
57.787807 -76.006119 -10.722988
56.763588 -77.58799 -10.839499
57.671948 -76.181557 -11.797821
60.340575 -71.710133 -14.669176
59.462845 -73.235348 -13.711624
61.407959 -70.103767 -14.599699
60.340575 -71.710133 -14.669176
61.223273 -70.16853 -15.646276
64.136181 -65.402981 -16.466216
63.31662 -67.004638 -15.494836
63.110218 -66.960507 -16.548179
64.900966 -63.769738 -17.424614
65.107369 -63.813869 -16.37127
64.136181 -65.402981 -16.466216
65.635464 -62.110704 -18.373327
64.900966 -63.769738 -17.424614
66.297756 -60.422026 -19.296377
66.534447 -60.491947 -18.252718
65.635464 -62.110704 -18.373327
66.934299 -58.706621 -20.203629
66.297756 -60.422026 -19.296377
67.487229 -56.967381 -21.074833
67.749668 -57.064028 -20.046973
66.934299 -58.706621 -20.203629
67.204651 -56.837637 -22.080637
66.86541 -56.773617 -23.058491
68.02002 -55.195043 -21.923981
67.487229 -56.967381 -21.074833
67.204651 -56.837637 -22.080637
68.203415 -51.247462 -25.417494
67.797268 -53.129385 -24.662575
68.919128 -49.514066 -25.20277
68.203415 -51.247462 -25.417494
68.528931 -49.357586 -26.129052
68.171265 -44.938935 -29.215635
68.658458 -45.17571 -28.365561
67.949276 -46.953207 -28.574564
68.389183 -42.860619 -29.860922
68.171265 -44.938935 -29.215635
67.680001 -44.638115 -30.069926
67.492069 -40.093266 -32.167318
68.038212 -40.431507 -31.351286
67.351776 -42.221558 -31.531244
66.952686 -39.70628 -33.022824
67.639122 -37.916229 -32.842866
67.492069 -40.093266 -32.167318
66.377125 -39.316647 -33.803696
66.952686 -39.70628 -33.022824
66.534317 -37.105567 -34.535579
66.377125 -39.316647 -33.803696
62.772221 -22.082791 -20.986894
62.359948 -23.033463 -19.909489
62.753948 -23.664477 -20.666244
62.772221 -22.082791 -20.986894
63.091747 -21.093722 -22.108683
63.384659 -18.444725 -23.608871
63.548912 -20.101817 -23.194206
63.916298 -19.072904 -24.329363
63.384659 -18.444725 -23.608871
63.372364 -16.819355 -23.930227
63.796883 -13.016977 -26.680424
64.010143 -14.703063 -26.259209
64.28246 -13.619233 -27.454695
63.889084 -10.262124 -28.231367
64.3023 -10.84551 -29.078282
64.122185 -9.174488 -29.433739
63.726883 -11.368278 -26.990782
63.889084 -10.262124 -28.231367
63.796883 -13.016977 -26.680424
63.726883 -11.368278 -26.990782
63.074898 -0.381344 -33.184978
63.340145 -1.980642 -32.975718
63.074898 -0.381344 -33.184978
62.881897 0.710032 -34.489685
62.187132 3.347857 -36.018338
62.688439 1.752229 -35.761265
62.378782 2.790333 -37.055206
62.187132 3.347857 -36.018338
61.795012 4.857009 -36.148254
59.776043 9.680398 -38.941456
60.298431 8.322604 -38.894478
59.776043 9.680398 -38.941456
59.111573 10.595254 -40.237301
57.051222 13.86093 -41.515232
57.686219 12.7291 -41.552269
56.174044 14.618695 -42.767921
57.051222 13.86093 -41.515232
55.95044 14.209831 -44.029968
55.239573 15.294148 -43.983459
56.174044 14.618695 -42.767921
54.450756 1.23814 -53.229016
53.388176 2.894529 -53.777878
54.507076 2.672009 -52.876087
54.450756 1.23814 -53.229016
55.525959 -0.447665 -52.606335
63.32642 -14.539665 -44.911564
63.872169 -16.615057 -43.986027
63.479771 -12.965656 -44.726708
63.32642 -14.539665 -44.911564
62.702904 -12.509933 -45.799785
59.543497 -4.712467 -49.175365
60.475696 -5.1174 -48.101104
60.409849 -6.603101 -48.389103
58.53833 -4.348461 -50.228798
58.604177 -2.86276 -49.940799
59.543497 -4.712467 -49.175365
57.54854 -3.993673 -51.206654
58.53833 -4.348461 -50.228798
56.540636 -2.204851 -51.939838
57.54854 -3.993673 -51.206654
3 0 101 99
3 403 103 404
3 1 106 104
3 1 108 106
3 3 111 109
3 3 113 111
3 4 116 114
3 5 119 117
3 5 121 119
3 2 405 406
3 6 124 122
3 6 126 124
3 6 128 126
3 8 131 129
3 8 133 131
3 407 134 408
3 409 136 410
3 411 410 134
3 409 410 411
3 9 139 137
3 9 141 139
3 10 144 142
3 12 147 145
3 12 149 147
3 13 152 150
3 15 155 153
3 15 157 155
3 15 159 157
3 17 162 160
3 17 412 414
3 414 413 162
3 412 413 414
3 7 415 416
3 18 165 163
3 18 167 165
3 18 169 167
3 19 172 170
3 19 174 172
3 20 180 178
3 21 183 181
3 21 185 183
3 11 188 186
3 22 191 189
3 22 193 191
3 22 195 193
3 23 198 196
3 23 200 198
3 14 203 201
3 418 417 204
3 24 207 205
3 24 209 207
3 24 211 209
3 25 214 212
3 25 216 214
3 16 219 217
3 27 220 100
3 27 221 220
3 419 223 420
3 29 224 102
3 29 225 224
3 421 228 422
3 423 422 226
3 421 422 423
3 424 229 425
3 426 230 427
3 428 427 229
3 426 427 428
3 31 233 231
3 33 234 105
3 33 235 234
3 33 237 235
3 35 238 107
3 35 239 238
3 36 242 240
3 38 243 110
3 38 244 243
3 38 246 244
3 40 247 112
3 40 248 247
3 41 251 249
3 43 252 115
3 43 253 252
3 44 256 254
3 46 257 118
3 46 258 257
3 46 260 258
3 48 261 120
3 48 262 261
3 49 265 263
3 51 266 123
3 51 267 266
3 51 269 267
3 53 270 125
3 53 271 270
3 53 273 271
3 55 274 127
3 55 275 274
3 430 429 276
3 26 431 432
3 56 278 130
3 56 279 278
3 56 280 279
3 57 281 132
3 57 282 281
3 58 283 135
3 58 284 283
3 28 285 222
3 59 286 138
3 59 287 286
3 59 288 287
3 60 433 435
3 435 434 140
3 433 434 435
3 60 436 437
3 61 291 289
3 63 292 143
3 63 293 292
3 30 294 227
3 64 295 146
3 64 296 295
3 64 297 296
3 65 298 148
3 65 299 298
3 66 302 300
3 68 303 151
3 68 304 303
3 32 305 232
3 69 306 154
3 69 307 306
3 69 308 307
3 70 309 156
3 70 310 309
3 70 312 310
3 72 313 158
3 72 314 313
3 34 315 236
3 73 316 161
3 73 317 316
3 73 318 317
3 37 319 241
3 74 320 164
3 74 438 440
3 440 439 320
3 438 439 440
3 74 441 442
3 75 321 166
3 75 322 321
3 75 323 322
3 76 324 168
3 76 325 324
3 39 326 245
3 77 327 171
3 77 328 327
3 77 329 328
3 78 330 173
3 78 331 330
3 79 334 332
3 81 335 175
3 81 336 335
3 443 337 444
3 445 338 446
3 447 446 337
3 445 446 447
3 448 339 449
3 450 449 338
3 448 449 450
3 451 340 452
3 453 452 176
3 451 452 453
3 454 341 455
3 456 455 340
3 454 455 456
3 82 457 459
3 457 342 458
3 457 458 459
3 82 343 342
3 82 344 343
3 83 345 177
3 83 346 345
3 79 460 462
3 460 347 461
3 460 461 462
3 79 332 347
3 80 348 333
3 84 349 179
3 84 350 349
3 42 351 250
3 85 352 182
3 85 353 352
3 85 354 353
3 86 355 184
3 86 356 355
3 62 357 290
3 87 358 187
3 87 359 358
3 45 360 255
3 88 361 190
3 88 362 361
3 88 363 362
3 89 364 192
3 89 365 364
3 89 366 365
3 90 367 194
3 90 368 367
3 47 369 259
3 91 370 197
3 91 371 370
3 91 372 371
3 92 373 199
3 92 374 373
3 463 375 464
3 465 376 466
3 467 377 468
3 469 468 376
3 467 468 469
3 470 378 471
3 472 379 473
3 474 473 378
3 472 473 474
3 475 380 476
3 478 477 380
3 479 381 480
3 481 382 482
3 483 482 381
3 481 482 483
3 93 484 486
3 484 383 485
3 484 485 486
3 93 384 383
3 93 385 384
3 487 386 488
3 490 489 386
3 67 491 493
3 493 492 301
3 491 492 493
3 495 494 202
3 50 387 264
3 52 496 498
3 498 497 268
3 496 497 498
3 500 499 206
3 94 501 503
3 503 502 208
3 501 502 503
3 94 504 506
3 504 388 505
3 504 505 506
3 94 389 388
3 95 390 210
3 95 391 390
3 54 392 272
3 96 393 213
3 96 394 393
3 96 395 394
3 97 396 215
3 97 507 509
3 509 508 396
3 507 508 509
3 71 397 311
3 98 398 218
3 98 399 398
3 510 400 511
3 512 511 277
3 510 511 512
3 513 401 514
3 515 402 516
3 517 516 401
3 515 516 517
3 519 518 402
3 99 520 522
3 520 100 521
3 520 521 522
3 101 100 99
3 101 27 100
3 523 102 524
3 103 525 527
3 525 102 526
3 525 526 527
3 103 29 102
3 104 105 31
3 106 105 104
3 106 33 105
3 106 107 33
3 108 107 106
3 108 35 107
3 109 110 36
3 111 110 109
3 111 38 110
3 111 112 38
3 113 112 111
3 113 40 112
3 114 115 41
3 116 115 114
3 116 43 115
3 117 118 44
3 119 118 117
3 119 46 118
3 119 120 46
3 121 120 119
3 121 48 120
3 122 123 49
3 124 123 122
3 124 51 123
3 124 125 51
3 126 125 124
3 126 53 125
3 126 127 53
3 128 127 126
3 128 55 127
3 129 130 26
3 131 130 129
3 131 56 130
3 131 132 56
3 133 132 131
3 133 57 132
3 134 528 529
3 134 530 531
3 134 532 534
3 532 135 533
3 532 533 534
3 136 135 134
3 136 58 135
3 137 138 28
3 139 138 137
3 139 59 138
3 139 140 59
3 141 140 139
3 141 60 140
3 142 143 61
3 144 143 142
3 144 63 143
3 145 146 30
3 147 146 145
3 147 64 146
3 147 148 64
3 149 148 147
3 149 65 148
3 150 151 66
3 152 151 150
3 152 68 151
3 153 154 32
3 155 154 153
3 155 69 154
3 155 156 69
3 157 156 155
3 157 70 156
3 157 158 70
3 159 158 157
3 159 72 158
3 160 161 34
3 162 161 160
3 162 73 161
3 162 535 537
3 537 536 73
3 535 536 537
3 539 538 162
3 163 164 37
3 165 164 163
3 165 74 164
3 165 166 74
3 167 166 165
3 167 75 166
3 167 168 75
3 169 168 167
3 169 76 168
3 170 171 39
3 172 171 170
3 172 77 171
3 172 173 77
3 174 173 172
3 174 78 173
3 540 175 541
3 542 541 79
3 540 541 542
3 543 175 544
3 545 81 546
3 547 546 175
3 545 546 547
3 548 176 549
3 550 176 551
3 553 552 176
3 554 82 555
3 556 177 557
3 558 557 82
3 556 557 558
3 559 177 560
3 561 83 562
3 563 562 177
3 561 562 563
3 564 79 565
3 178 179 80
3 180 179 178
3 180 84 179
3 181 182 42
3 183 182 181
3 183 85 182
3 183 184 85
3 185 184 183
3 185 86 184
3 186 187 62
3 188 187 186
3 188 87 187
3 189 190 45
3 191 190 189
3 191 88 190
3 191 192 88
3 193 192 191
3 193 89 192
3 193 194 89
3 195 194 193
3 195 90 194
3 196 197 47
3 198 197 196
3 198 91 197
3 198 199 91
3 200 199 198
3 200 92 199
3 566 93 567
3 569 568 93
3 201 202 67
3 203 202 201
3 203 570 572
3 572 571 202
3 570 571 572
3 204 573 575
3 575 574 50
3 573 574 575
3 577 576 204
3 205 206 52
3 207 206 205
3 207 578 580
3 580 579 206
3 578 579 580
3 207 581 583
3 581 208 582
3 581 582 583
3 209 208 207
3 209 94 208
3 209 210 94
3 211 210 209
3 211 95 210
3 212 213 54
3 214 213 212
3 214 96 213
3 214 215 96
3 216 215 214
3 216 97 215
3 217 218 71
3 219 218 217
3 219 98 218
3 584 26 585
3 100 586 587
3 220 588 590
3 590 589 100
3 588 589 590
3 220 591 593
3 591 26 592
3 591 592 593
3 220 129 26
3 221 129 220
3 221 8 129
3 594 222 595
3 223 596 598
3 596 222 597
3 596 597 598
3 223 28 222
3 102 599 601
3 599 223 600
3 599 600 601
3 224 223 102
3 224 28 223
3 224 137 28
3 225 137 224
3 225 9 137
3 226 227 10
3 228 227 226
3 228 30 227
3 602 228 603
3 229 604 606
3 604 228 605
3 604 605 606
3 229 30 228
3 229 145 30
3 230 145 229
3 230 12 145
3 231 232 13
3 233 232 231
3 233 32 232
3 105 233 31
3 234 233 105
3 234 32 233
3 234 153 32
3 235 153 234
3 235 15 153
3 235 236 15
3 237 236 235
3 237 34 236
3 107 237 33
3 238 237 107
3 238 34 237
3 238 160 34
3 239 160 238
3 239 17 160
3 240 241 7
3 242 241 240
3 242 37 241
3 110 242 36
3 243 242 110
3 243 37 242
3 243 163 37
3 244 163 243
3 244 18 163
3 244 245 18
3 246 245 244
3 246 39 245
3 112 246 38
3 247 246 112
3 247 39 246
3 247 170 39
3 248 170 247
3 248 19 170
3 249 250 20
3 251 250 249
3 251 42 250
3 115 251 41
3 252 251 115
3 252 42 251
3 252 181 42
3 253 181 252
3 253 21 181
3 254 255 11
3 256 255 254
3 256 45 255
3 118 256 44
3 257 256 118
3 257 45 256
3 257 189 45
3 258 189 257
3 258 22 189
3 258 259 22
3 260 259 258
3 260 47 259
3 120 260 46
3 261 260 120
3 261 47 260
3 261 196 47
3 262 196 261
3 262 23 196
3 263 264 14
3 265 264 263
3 265 50 264
3 123 265 49
3 266 265 123
3 266 50 265
3 266 204 50
3 267 204 266
3 267 607 609
3 609 608 204
3 607 608 609
3 267 610 612
3 610 268 611
3 610 611 612
3 269 268 267
3 269 52 268
3 125 269 51
3 270 269 125
3 270 52 269
3 270 205 52
3 271 205 270
3 271 24 205
3 271 272 24
3 273 272 271
3 273 54 272
3 127 273 53
3 274 273 127
3 274 54 273
3 274 212 54
3 275 212 274
3 275 25 212
3 276 277 16
3 613 277 614
3 615 614 276
3 613 614 615
3 617 616 277
3 618 7 619
3 130 620 622
3 622 621 26
3 620 621 622
3 278 623 625
3 625 624 130
3 623 624 625
3 278 626 627
3 278 628 629
3 279 630 632
3 632 631 278
3 630 631 632
3 279 633 635
3 633 7 634
3 633 634 635
3 279 240 7
3 280 240 279
3 280 36 240
3 132 280 56
3 281 280 132
3 281 36 280
3 281 109 36
3 282 109 281
3 282 3 109
3 135 636 637
3 283 638 640
3 640 639 135
3 638 639 640
3 283 641 642
3 283 643 644
3 284 645 647
3 647 646 283
3 645 646 647
3 284 648 649
3 222 650 652
3 650 136 651
3 650 651 652
3 285 136 222
3 285 58 136
3 138 285 28
3 286 285 138
3 286 58 285
3 286 284 58
3 287 284 286
3 287 653 655
3 655 654 284
3 653 654 655
3 287 656 657
3 288 658 660
3 660 659 287
3 658 659 660
3 288 661 662
3 140 288 59
3 663 288 664
3 665 664 140
3 663 664 665
3 667 666 288
3 289 290 4
3 291 290 289
3 291 62 290
3 143 291 61
3 292 291 143
3 292 62 291
3 292 186 62
3 293 186 292
3 293 11 186
3 227 144 10
3 294 144 227
3 294 63 144
3 146 294 30
3 295 294 146
3 295 63 294
3 295 293 63
3 296 293 295
3 296 11 293
3 296 254 11
3 297 254 296
3 297 44 254
3 148 297 64
3 298 297 148
3 298 44 297
3 298 117 44
3 299 117 298
3 299 5 117
3 300 301 2
3 302 301 300
3 302 67 301
3 151 302 66
3 303 302 151
3 303 67 302
3 303 201 67
3 304 201 303
3 304 14 201
3 232 152 13
3 305 152 232
3 305 68 152
3 154 305 32
3 306 305 154
3 306 68 305
3 306 304 68
3 307 304 306
3 307 14 304
3 307 263 14
3 308 263 307
3 308 49 263
3 156 308 69
3 309 308 156
3 309 49 308
3 309 122 49
3 310 122 309
3 310 6 122
3 310 311 6
3 312 311 310
3 312 71 311
3 158 312 70
3 313 312 158
3 313 71 312
3 313 217 71
3 314 217 313
3 314 16 217
3 236 159 15
3 315 159 236
3 315 72 159
3 161 315 34
3 316 315 161
3 316 72 315
3 316 314 72
3 317 314 316
3 317 16 314
3 317 276 16
3 318 276 317
3 318 668 670
3 670 669 276
3 668 669 670
3 671 318 672
3 673 672 73
3 671 672 673
3 674 318 675
3 677 676 318
3 678 2 679
3 241 680 682
3 682 681 7
3 680 681 682
3 319 683 685
3 685 684 241
3 683 684 685
3 319 686 687
3 164 319 37
3 320 319 164
3 320 688 690
3 690 689 319
3 688 689 690
3 320 691 692
3 694 693 320
3 166 695 697
3 697 696 74
3 695 696 697
3 321 698 700
3 700 699 166
3 698 699 700
3 321 701 702
3 321 703 704
3 322 705 707
3 707 706 321
3 705 706 707
3 322 708 710
3 708 2 709
3 708 709 710
3 322 300 2
3 323 300 322
3 323 66 300
3 168 323 75
3 324 323 168
3 324 66 323
3 324 150 66
3 325 150 324
3 325 13 150
3 245 169 18
3 326 169 245
3 326 76 169
3 171 326 39
3 327 326 171
3 327 76 326
3 327 325 76
3 328 325 327
3 328 13 325
3 328 231 13
3 329 231 328
3 329 31 231
3 173 329 77
3 330 329 173
3 330 31 329
3 330 104 31
3 331 104 330
3 331 1 104
3 332 333 0
3 334 333 332
3 334 80 333
3 175 334 79
3 335 334 175
3 335 80 334
3 335 178 80
3 336 178 335
3 336 20 178
3 711 81 712
3 337 713 714
3 337 715 717
3 715 81 716
3 715 716 717
3 337 336 81
3 338 336 337
3 338 20 336
3 338 249 20
3 339 249 338
3 339 41 249
3 176 718 720
3 718 339 719
3 718 719 720
3 340 339 176
3 340 41 339
3 340 114 41
3 341 114 340
3 341 4 114
3 342 721 722
3 342 723 724
3 342 725 727
3 725 341 726
3 725 726 727
3 343 341 342
3 343 4 341
3 343 289 4
3 344 289 343
3 344 61 289
3 177 344 82
3 345 344 177
3 345 61 344
3 345 142 61
3 346 142 345
3 346 10 142
3 728 83 729
3 730 83 731
3 732 346 733
3 734 733 83
3 732 733 734
3 735 346 736
3 737 10 738
3 739 738 346
3 737 738 739
3 740 226 741
3 742 741 10
3 740 741 742
3 743 226 744
3 746 745 226
3 347 747 748
3 347 749 750
3 347 751 752
3 332 753 755
3 755 754 347
3 753 754 755
3 332 756 758
3 756 0 757
3 756 757 758
3 759 99 760
3 761 99 762
3 763 0 764
3 765 764 99
3 763 764 765
3 333 101 0
3 348 101 333
3 348 27 101
3 179 348 80
3 349 348 179
3 349 27 348
3 349 221 27
3 350 221 349
3 350 8 221
3 250 180 20
3 351 180 250
3 351 84 180
3 182 351 42
3 352 351 182
3 352 84 351
3 352 350 84
3 353 350 352
3 353 8 350
3 353 133 8
3 354 133 353
3 354 57 133
3 184 354 85
3 355 354 184
3 355 57 354
3 355 282 57
3 356 282 355
3 356 3 282
3 290 116 4
3 357 116 290
3 357 43 116
3 187 357 62
3 358 357 187
3 358 43 357
3 358 253 43
3 359 253 358
3 359 21 253
3 255 188 11
3 360 188 255
3 360 87 188
3 190 360 45
3 361 360 190
3 361 87 360
3 361 359 87
3 362 359 361
3 362 21 359
3 362 185 21
3 363 185 362
3 363 86 185
3 192 363 88
3 364 363 192
3 364 86 363
3 364 356 86
3 365 356 364
3 365 3 356
3 365 113 3
3 366 113 365
3 366 40 113
3 194 366 89
3 367 366 194
3 367 40 366
3 367 248 40
3 368 248 367
3 368 19 248
3 259 195 22
3 369 195 259
3 369 90 195
3 197 369 47
3 370 369 197
3 370 90 369
3 370 368 90
3 371 368 370
3 371 19 368
3 371 174 19
3 372 174 371
3 372 78 174
3 199 372 91
3 373 372 199
3 373 78 372
3 373 331 78
3 374 331 373
3 374 1 331
3 766 230 767
3 375 768 770
3 768 230 769
3 768 769 770
3 375 12 230
3 771 375 772
3 376 773 775
3 773 375 774
3 773 774 775
3 376 12 375
3 376 149 12
3 377 149 376
3 377 65 149
3 776 377 777
3 378 778 780
3 778 377 779
3 778 779 780
3 378 65 377
3 378 299 65
3 379 299 378
3 379 5 299
3 781 379 782
3 380 783 785
3 783 379 784
3 783 784 785
3 380 5 379
3 380 121 5
3 786 121 787
3 788 787 380
3 786 787 788
3 789 48 790
3 791 790 121
3 789 790 791
3 792 48 793
3 794 262 795
3 796 795 48
3 794 795 796
3 797 262 798
3 799 23 800
3 801 800 262
3 799 800 801
3 381 802 803
3 381 804 806
3 804 23 805
3 804 805 806
3 381 200 23
3 382 200 381
3 382 92 200
3 807 382 808
3 383 809 811
3 809 382 810
3 809 810 811
3 383 92 382
3 383 374 92
3 384 374 383
3 384 1 374
3 384 108 1
3 385 108 384
3 385 35 108
3 812 385 813
3 814 813 93
3 812 813 814
3 386 815 817
3 815 385 816
3 815 816 817
3 386 35 385
3 386 239 35
3 818 239 819
3 820 819 386
3 818 819 820
3 821 17 822
3 823 822 239
3 821 822 823
3 824 17 825
3 827 826 17
3 301 828 830
3 830 829 2
3 828 829 830
3 832 831 301
3 202 833 835
3 835 834 67
3 833 834 835
3 837 836 202
3 264 203 14
3 387 203 264
3 387 838 840
3 840 839 203
3 838 839 840
3 841 387 842
3 843 842 50
3 841 842 843
3 844 387 845
3 847 846 387
3 268 848 849
3 851 850 268
3 206 852 854
3 854 853 52
3 852 853 854
3 856 855 206
3 208 857 858
3 860 859 208
3 388 861 862
3 388 863 864
3 388 865 867
3 865 103 866
3 865 866 867
3 389 103 388
3 389 29 103
3 210 389 94
3 390 389 210
3 390 29 389
3 390 225 29
3 391 225 390
3 391 9 225
3 272 211 24
3 392 211 272
3 392 95 211
3 213 392 54
3 393 392 213
3 393 95 392
3 393 391 95
3 394 391 393
3 394 9 391
3 394 141 9
3 395 141 394
3 395 60 141
3 215 395 96
3 396 395 215
3 396 60 395
3 396 868 870
3 870 869 60
3 868 869 870
3 872 871 396
3 311 128 6
3 397 128 311
3 397 55 128
3 218 397 71
3 398 397 218
3 398 55 397
3 398 275 55
3 399 275 398
3 399 25 275
3 277 219 16
3 400 219 277
3 400 98 219
3 873 400 874
3 401 875 877
3 875 400 876
3 875 876 877
3 401 98 400
3 401 399 98
3 402 399 401
3 402 25 399
3 402 216 25
3 878 216 879
3 880 879 402
3 878 879 880
3 881 97 882
3 883 882 216
3 881 882 883
3 884 97 885
3 887 886 97
