ply
format ascii 1.0
element vertex 737
property float x
property float y
property float z
element face 901
property list uchar int vertex_index
end_header
-44.161617 38.495037 28.215233
-38.54821 71.942123 -11.548656
-29.345049 75.217224 8.430552
-38.110943 56.683262 30.259901
-43.842224 58.408619 10.793076
-24.534115 48.004314 44.954773
-25.331202 72.247284 18.817657
-29.067476 62.339397 28.429033
-34.579445 66.566422 19.66963
-42.32148 63.32159 -17.993347
-31.012531 72.238113 -19.451118
-42.081482 66.680679 -0.805864
-33.563477 75.587555 -2.007519
-26.274776 79.937592 -12.695824
-43.675068 48.884548 30.237331
-45.284904 48.864391 20.920286
-41.6082 59.112568 21.023319
-38.094154 68.501068 9.777433
-43.106026 38.031288 37.622181
-39.898808 46.834438 39.573532
-31.356678 52.763752 38.396225
-22.639645 59.493732 36.346397
-23.315058 70.143051 23.836004
-24.844154 65.368927 27.902725
-27.465372 67.245529 23.512409
-40.797188 68.115814 -15.321835
-37.350784 67.937393 -18.795151
-35.311974 72.851852 -15.909534
-40.72319 69.78949 -6.426493
-43.122337 66.837387 -10.842707
-31.348843 75.7659 3.183813
-27.971775 78.902847 -2.53882
-25.95545 78.910904 2.809823
-41.60305 53.154545 30.569351
-42.973057 54.029758 25.913298
-40.336105 58.242062 25.780804
-32.188038 71.124878 14.08439
-36.492947 67.990753 14.899585
-34.132481 72.165207 9.056622
-36.075008 72.364182 3.833848
-42.395859 42.874851 38.968651
-40.36261 41.678013 43.842533
-29.061016 44.949375 46.373817
-32.439713 47.787487 43.128723
-27.790401 50.532063 41.825935
-26.769913 55.729771 37.244133
-23.408756 53.989567 40.704948
-20.36413 52.171185 44.212738
-44.717354 53.704258 16.180542
-27.378868 74.022812 13.647836
-24.211105 78.371033 8.396294
-33.70863 59.594883 29.397369
-36.56522 61.667294 25.099186
-32.070053 64.498016 24.139626
-29.976942 69.368607 18.880859
-21.684612 45.413319 48.316948
-32.874382 66.21431 -21.405327
-42.99609 62.817432 5.027771
-36.021164 74.418793 -6.996656
-32.866352 76.29567 -12.086287
-30.323353 78.181503 -7.552744
-23.931526 81.514999 -8.002705
-44.296768 43.948593 29.401875
-45.105293 43.849968 24.90641
-44.424103 49.165791 25.56423
-43.726788 54.20525 21.102509
-42.50499 59.135349 15.97814
-38.572788 63.270756 20.528088
-39.906624 64.019257 15.587219
-41.183334 63.834835 10.336519
-39.863743 68.061081 4.446878
-38.267921 71.621796 -1.413443
-43.011902 32.709377 31.015831
-43.512383 38.399227 32.750313
-43.630066 43.60321 34.104023
-42.260719 48.075932 34.930531
-39.196114 51.763477 35.073055
-36.869461 45.047024 43.954002
-35.962631 50.007061 39.331505
-34.961147 54.786503 34.497219
-30.299015 57.546192 33.476051
-25.863949 60.637424 32.515602
-28.741987 76.934387 -16.564514
-24.174849 67.719162 25.798626
-39.734207 70.182816 -13.555666
-38.211216 70.55574 -15.637451
-37.070419 72.572708 -13.835468
-44.165745 35.657261 27.510906
-44.81879 38.425407 26.078169
-39.757004 71.001083 -9.06834
-41.962147 68.444626 -8.736225
-40.976273 69.465378 -11.244835
-42.09148 67.642181 -13.198317
-30.329901 75.574005 5.807246
-28.701609 77.322556 2.933846
-27.723621 77.107742 5.608519
-40.00938 55.011173 30.497423
-41.042755 55.695988 28.233738
-39.35548 57.527958 28.051094
-30.828945 73.227921 11.260568
-33.180122 71.745499 11.600941
-31.817278 73.721207 8.702879
-32.805561 74.030457 6.112
-41.534687 39.643547 43.403191
-26.765606 46.361721 45.610672
-28.392807 47.789616 44.090096
-26.114897 49.298977 43.399956
-25.546442 52.136005 41.207672
-23.922943 51.05077 42.826218
-21.839722 53.089283 42.419048
-22.396402 49.935131 44.479736
-44.288399 56.079258 13.553459
-26.364517 73.197617 16.239447
-24.953835 75.568558 13.754816
-31.375015 60.952053 28.888458
-32.943108 62.038876 26.776779
-30.612122 63.390308 26.303965
-26.472084 69.740295 21.146454
-28.749203 68.319687 21.215023
-27.626791 70.775192 18.719967
-28.744905 71.731125 16.264519
-40.646946 62.917507 -19.466927
-34.316795 70.1465 -19.09388
-35.220409 67.261765 -20.179741
-32.0028 69.347244 -20.530083
-42.568233 64.831818 2.101405
-44.14299 62.031765 2.46485
-43.769424 63.927128 -0.432486
-43.725697 63.350964 -16.244505
-34.768089 75.149292 -4.53927
-33.289139 76.389587 -7.273792
-32.043655 76.96907 -4.826382
-24.984402 80.530014 -2.681458
-26.033253 80.292648 -5.305302
-44.140717 46.492428 29.871544
-44.46521 46.58913 27.553211
-44.091034 49.098606 27.897488
-42.355316 56.581379 23.541901
-43.377388 54.209415 23.526958
-42.765476 56.732998 21.107021
-43.151634 56.68697 18.618406
-42.050323 59.228214 18.531637
-35.623951 64.143738 22.410408
-37.677357 62.558559 22.855669
-36.682796 65.015045 20.126301
-37.302677 68.365417 12.377981
-38.318207 66.129166 15.278785
-39.012711 66.329117 12.714499
-40.507294 64.03894 12.98862
-39.727898 66.290405 10.079214
-40.534515 66.022018 7.404638
-38.931141 68.398926 7.122625
-34.898647 74.052643 0.886789
-37.13203 72.119888 1.199094
-36.040054 73.722137 -1.70706
-37.245827 73.121902 -4.254301
-43.047287 35.474899 34.280357
-43.328819 38.246578 35.148106
-43.705513 41.083115 33.48296
-43.399887 40.861446 35.902725
-41.366905 44.964817 39.374168
-42.3806 45.503544 36.984482
-41.190857 47.50983 37.26799
-40.918446 50.01553 35.094734
-39.586899 49.31216 37.356575
-31.884945 50.312916 40.779343
-34.204048 48.968739 41.300655
-33.695229 51.402409 38.926682
-35.482697 52.404583 36.947361
-33.180939 53.790646 36.500114
-32.63884 56.16267 34.011902
-30.836382 55.165363 35.96257
-24.632099 57.488674 36.750088
-26.315517 58.211079 34.892265
-24.248632 60.013645 34.458241
-23.882959 62.441822 32.156773
-22.350763 62.044567 34.09127
-29.658247 78.185562 -12.383175
-30.91917 76.793488 -14.402124
-27.514166 78.644104 -14.745682
-45.303925 46.388462 23.006201
-45.804459 43.637611 22.731026
-46.008068 46.113033 20.77494
-24.301916 71.210968 21.365644
-26.866173 63.809856 28.087357
-28.324154 64.776947 25.93996
-26.1567 66.23053 25.754986
-25.310226 68.692993 23.52409
-41.67878 65.803131 -16.809044
-40.044003 65.645996 -18.46484
-39.217503 68.221634 -17.187225
-36.400024 70.54985 -17.478226
-33.281708 72.746246 -17.772385
-41.483261 68.340652 -3.660088
-43.31414 65.644989 -3.289547
-42.727375 67.160019 -6.070473
-43.031921 65.582214 -14.878357
-32.423031 75.779572 0.573436
-30.85643 77.28392 -2.297367
-29.742022 77.388351 0.294341
-26.921129 78.977509 0.100297
-24.037416 80.622208 0.04731
-42.834229 51.109608 30.477312
-43.420673 51.465809 28.140926
-42.406815 53.671238 28.260044
-41.809635 56.230175 25.916931
-41.067772 58.780399 23.440311
-33.435131 68.901505 16.890661
-35.601608 67.383621 17.329647
-34.436531 69.632919 14.48234
-35.353897 70.153748 11.993704
-36.233433 70.449692 9.429624
-37.127079 70.514999 6.807064
-35.084652 72.374512 6.461324
-33.82457 74.146515 3.500561
-42.767029 37.744431 40.157635
-42.961201 40.560135 38.376575
-42.343304 40.165226 40.885994
-41.471992 42.351147 41.419849
-40.151085 44.299572 41.734459
-33.028664 45.168789 45.465004
-30.716278 46.445164 44.811722
-30.105677 49.11208 42.495102
-29.546146 51.684811 40.169704
-29.026934 54.1777 37.811058
-27.253965 53.175716 39.552551
-25.057308 54.865147 38.999435
-22.986153 56.806164 38.552826
-21.048853 59.016285 38.212349
-21.392805 56.123486 40.343426
-22.796949 81.595764 -12.989065
-23.978292 80.362137 -15.115414
-45.071522 51.298946 18.642851
-46.001198 48.531445 18.616665
-45.819725 50.910992 16.260502
-28.368742 74.699326 11.045097
-26.787436 76.748001 8.307953
-25.869984 76.237259 11.024853
-35.982822 58.194897 29.877556
-37.396233 59.171627 27.720287
-35.23262 60.656612 27.275333
-34.372349 63.127956 24.62104
-33.401363 65.582932 21.933214
-29.740894 65.85144 23.741581
-31.083149 66.949951 21.504948
-32.319748 67.990112 19.226282
-31.125147 70.321335 16.507805
-29.811277 72.559097 13.780149
-27.485455 43.34074 47.866856
-25.232464 44.873943 47.126823
-23.05616 46.690868 46.568878
-23.795561 43.391975 48.716702
-38.131653 65.104141 -19.863037
-35.970768 64.193253 -21.056404
-33.613468 62.947124 -22.124115
-43.411339 60.665577 7.937777
-37.29435 73.356567 -9.346811
-35.840736 74.222504 -11.814453
-34.566582 75.488815 -9.614195
-31.587093 77.416016 -9.892088
-28.397707 79.189072 -10.176632
-29.109858 78.655212 -5.094921
-27.178141 79.867142 -7.809702
-25.067308 80.869949 -10.439726
-21.683685 82.503708 -10.634926
-25.059616 78.711731 5.578476
-44.255737 41.272995 28.846119
-44.705692 41.225151 26.635958
-44.630844 43.956905 27.128368
-44.81728 46.552967 25.265099
-44.785912 49.083706 23.237831
-43.832207 51.66605 25.787817
-44.168556 51.699535 23.417686
-44.545696 51.570858 21.03335
-44.139118 54.028973 18.648224
-43.628643 56.460552 16.091957
-43.077435 58.854069 13.387161
-38.573563 60.051495 25.501616
-39.50407 60.776707 23.209578
-40.216675 61.301899 20.832327
-37.565086 65.687485 17.751572
-39.29187 63.763561 18.105145
-40.778748 61.602184 18.365553
-41.285191 61.67371 15.816801
-41.839428 61.528263 13.206504
-42.530552 61.185421 10.566566
-42.003021 63.422787 7.668139
-41.478409 65.533157 4.730352
-40.916641 67.488083 1.789378
-38.080952 70.344955 4.152116
-39.125095 69.931793 1.497
-40.266155 69.265823 -1.121225
-39.474831 70.84935 -3.969131
-38.496658 72.220978 -6.721823
-43.543011 32.783993 28.819757
-43.56126 35.65274 29.667118
-43.218269 35.589191 31.923361
-43.755405 38.484909 30.438101
-43.95715 41.223343 31.128738
-43.997681 43.827271 31.728033
-43.736717 46.270679 32.219566
-43.111984 43.286037 36.522301
-43.167004 45.93771 34.593643
-43.08392 48.537762 32.583099
-42.007507 50.618763 32.796902
-40.529076 52.509403 32.842247
-38.708649 54.214893 32.710449
-38.781815 43.469391 44.027916
-38.436874 46.025928 41.814873
-34.722916 46.462223 43.638969
-36.420383 47.564297 41.662331
-38.064693 48.503048 39.556999
-37.651146 50.931126 37.245193
-37.178459 53.340504 34.866451
-36.627789 55.756634 32.410969
-34.376347 57.178074 31.977503
-32.044392 58.544247 31.467709
-29.717842 59.931789 30.953764
-28.526819 56.613102 35.40538
-28.019081 59.01659 32.959621
-27.47542 61.410267 30.504398
-25.386045 63.020535 30.162306
-23.508905 64.759369 29.920403
-20.976265 48.822857 46.244591
-34.121422 74.777328 -14.103172
-32.139221 74.978256 -16.205734
-29.918455 74.790039 -18.134304
-25.184669 78.735931 -16.988743
-26.372671 76.678162 -18.591518
-45.392853 41.081993 24.492922
-44.508741 56.9888 10.915285
-44.731829 55.82412 12.295477
-44.065311 57.243938 12.173267
-24.682783 73.494827 17.655233
-25.199441 73.969994 16.366128
-25.847859 72.72245 17.528552
-41.484213 63.119549 -18.730137
-41.660162 61.83453 -19.167561
-42.497429 62.036572 -18.430771
-29.786501 71.783554 -20.223434
-30.281636 70.33812 -20.762917
-31.507666 70.792678 -19.9906
-43.214486 62.170189 -17.632888
-43.916594 62.184876 -16.758468
-43.023589 63.336277 -17.118926
-42.497429 62.036572 -18.430771
-43.214486 62.170189 -17.632888
-23.940348 81.237335 -4.044345
-23.479536 81.371223 -2.676837
-43.025925 36.673975 37.176828
-42.961934 36.571015 38.443404
-43.217422 38.138933 36.385143
-43.137321 36.78162 35.939791
-43.025925 36.673975 37.176828
-21.716981 60.622192 36.175045
-21.57254 61.89761 35.047482
-22.495204 60.769149 35.218834
-22.783881 71.410607 22.878152
-23.27731 71.944565 21.642972
-23.808487 70.677009 22.600824
-43.523254 66.290177 -9.569641
-42.943159 67.093796 -8.5164
-42.542242 67.641007 -9.789466
-44.051682 65.481217 -10.5606
-43.523254 66.290177 -9.569641
-43.622015 65.923683 -11.765698
-44.051682 65.481217 -10.5606
-42.516285 37.551283 41.444857
-42.677578 36.290031 41.009703
-42.304423 38.76168 41.809036
-42.555166 38.954828 40.521814
-42.516285 37.551283 41.444857
-29.888647 45.69727 45.59277
-31.045505 45.061839 45.976189
-30.217875 44.313944 46.757237
-20.116166 53.794556 43.19709
-20.853962 54.253605 42.300245
-21.101926 52.630234 43.315893
-19.396505 53.428726 44.170758
-20.116166 53.794556 43.19709
-21.59969 81.782287 -14.227072
-21.059043 82.386818 -13.098861
-24.170759 76.719803 12.504869
-23.764653 76.381653 13.950534
-26.738357 42.514427 48.613716
-27.865296 41.798334 49.019911
-25.611861 43.281028 48.2437
-26.35896 44.107341 47.49684
-26.738357 42.514427 48.613716
-24.89341 42.540045 49.03864
-24.514012 44.132959 47.921762
-25.611861 43.281028 48.2437
-31.627538 65.522476 -21.979357
-31.997082 63.888883 -22.338751
-33.243925 64.580717 -21.764721
-43.739107 61.401775 5.197593
-43.946731 60.325847 6.652596
-43.203715 61.741504 6.482774
-44.913812 60.59676 2.686339
-44.758096 61.555797 1.249093
-44.159805 64.239485 -3.053123
-43.925785 65.021301 -4.448009
-43.277456 32.746685 29.917794
-43.306607 31.308695 29.428168
-43.041052 31.271387 30.526205
-37.825638 44.258207 43.990959
-38.048703 42.949549 45.120533
-37.092526 43.738366 45.083576
-22.806956 64.596855 30.877508
-23.695932 63.600596 31.038588
-22.993983 63.438082 31.995694
-22.703236 65.675636 29.804265
-22.806956 64.596855 30.877508
-20.139573 60.246216 38.0728
-20.27074 58.772487 39.157288
-23.367103 79.567077 -17.217371
-24.58148 79.549034 -16.052079
-22.763915 80.38018 -16.280707
-25.120945 76.339241 -19.552692
-24.545752 77.546174 -18.861044
-26.939433 75.435425 -19.256363
-25.120945 76.339241 -19.552692
-46.083765 42.247 22.56791
-46.287112 43.488726 21.662482
-46.483647 47.141644 18.593589
-46.482406 48.321934 17.476588
-22.392345 70.816398 24.176072
-22.870483 69.630668 24.979251
-23.627293 67.330979 26.835552
-24.509501 66.544044 26.850676
-23.961945 66.155861 27.887602
-23.300378 68.418724 25.960562
-23.627293 67.330979 26.835552
-22.870483 69.630668 24.979251
-23.744954 68.931106 24.817315
-23.300378 68.418724 25.960562
-44.626812 35.628671 26.477266
-44.283144 34.236384 27.11747
-44.953334 37.012744 25.760897
-44.626812 35.628671 26.477266
-44.492267 37.041334 26.794537
-45.298246 38.353151 25.046111
-44.953334 37.012744 25.760897
-41.560339 38.234884 44.358168
-41.900114 38.500841 43.067635
-41.043097 39.294981 44.646603
-41.560339 38.234884 44.358168
-40.457058 40.312214 44.866274
-40.948648 40.66078 43.622862
-41.043097 39.294981 44.646603
-44.905887 54.669144 13.638827
-45.120365 53.481644 14.952369
-44.502876 54.891758 14.867
-44.905887 54.669144 13.638827
-44.731829 55.82412 12.295477
-24.4941 75.155464 15.123812
-25.659176 74.383087 14.997131
-25.199441 73.969994 16.366128
-23.764653 76.381653 13.950534
-24.4941 75.155464 15.123812
-40.816277 61.521408 -19.836208
-41.660162 61.83453 -19.167561
-39.678709 62.533035 -20.083502
-40.816277 61.521408 -19.836208
-30.762076 68.760147 -21.192284
-31.197868 67.19368 -21.629906
-32.438591 67.780777 -20.967705
-30.762076 68.760147 -21.192284
-30.281636 70.33812 -20.762917
-44.571314 62.503479 -0.199575
-44.758096 61.555797 1.249093
-43.956207 62.979447 1.016182
-44.512722 62.137433 -15.824673
-44.299877 63.184692 -15.233422
-44.512722 62.137433 -15.824673
-43.916594 62.184876 -16.758468
-24.464773 81.118652 -5.356267
-25.508827 80.411331 -3.99338
-23.940348 81.237335 -4.044345
-23.41391 81.729827 -6.704968
-24.98239 80.903824 -6.654003
-24.464773 81.118652 -5.356267
-22.302112 82.337395 -8.041307
-23.41391 81.729827 -6.704968
-23.305478 79.392662 7.082762
-22.93716 79.227936 8.567716
-42.818897 31.203247 31.651387
-43.041052 31.271387 30.526205
-42.996555 35.395781 35.505916
-42.85152 33.97052 35.005795
-43.188053 36.860738 34.714231
-42.996555 35.395781 35.505916
-43.137321 36.78162 35.939791
-36.063423 44.453626 44.955032
-37.092526 43.738366 45.083576
-22.227885 63.239454 32.962942
-22.993983 63.438082 31.995694
-23.116861 62.243195 33.124021
-21.484397 63.173902 33.9086
-22.227885 63.239454 32.962942
-21.484397 63.173902 33.9086
-21.57254 61.89761 35.047482
-20.675673 46.582771 48.249168
-21.050721 44.816201 49.28367
-46.388916 44.726437 20.684439
-46.287112 43.488726 21.662482
-45.906264 44.875322 21.752983
-23.712921 72.491028 20.295538
-24.227564 73.009186 19.021544
-24.816559 71.729126 20.091651
-23.712921 72.491028 20.295538
-23.27731 71.944565 21.642972
-22.783881 71.410607 22.878152
-22.392345 70.816398 24.176072
-43.632402 65.778817 -5.838471
-43.925785 65.021301 -4.448009
-43.020758 66.402504 -4.68001
-43.325773 66.451493 -7.183524
-42.344761 67.802323 -7.403349
-42.943159 67.093796 -8.5164
-43.632402 65.778817 -5.838471
-43.325773 66.451493 -7.183524
-43.106586 66.32608 -12.943503
-43.622015 65.923683 -11.765698
-42.606909 67.239784 -12.020512
-43.576807 65.296097 -13.783523
-43.106586 66.32608 -12.943503
-42.561701 66.612197 -14.038337
-43.95299 64.300317 -14.550349
-43.576807 65.296097 -13.783523
-43.378809 64.466589 -15.561431
-44.299877 63.184692 -15.233422
-43.95299 64.300317 -14.550349
-23.006043 81.417321 -1.312453
-23.479536 81.371223 -2.676837
-24.510909 80.576111 -1.317074
-42.792435 36.427586 39.71113
-42.677578 36.290031 41.009703
-42.936527 37.88786 38.889908
-42.961934 36.571015 38.443404
-42.792435 36.427586 39.71113
-41.938996 39.904387 42.144593
-42.304423 38.76168 41.809036
-41.900114 38.500841 43.067635
-32.201698 44.423651 46.30283
-33.33761 43.806894 46.632391
-31.872471 45.806976 45.138363
-32.201698 44.423651 46.30283
-31.045505 45.061839 45.976189
-20.442715 57.326088 40.222826
-20.27074 58.772487 39.157288
-21.220829 57.569885 39.277888
-20.630503 55.770707 41.262434
-21.616263 54.606385 41.381237
-20.853962 54.253605 42.300245
-20.442715 57.326088 40.222826
-20.630503 55.770707 41.262434
-22.190362 81.165474 -15.290246
-23.387621 80.97895 -14.052239
-21.59969 81.782287 -14.227072
-22.763915 80.38018 -16.280707
-22.190362 81.165474 -15.290246
-46.39167 49.511707 16.298507
-46.482406 48.321934 17.476588
-45.910461 49.721218 17.438584
-45.67155 52.08501 14.992349
-45.26854 52.307625 16.220522
-45.120365 53.481644 14.952369
-46.313511 50.672584 15.084071
-45.67155 52.08501 14.992349
-46.39167 49.511707 16.298507
-46.313511 50.672584 15.084071
-24.628833 77.054153 11.139888
-25.41191 75.902908 12.389834
-24.170759 76.719803 12.504869
-23.799394 78.12104 9.825608
-25.040544 77.304146 9.710573
-24.628833 77.054153 11.139888
-22.93716 79.227936 8.567716
-23.799394 78.12104 9.825608
-24.682783 73.494827 17.655233
-24.227564 73.009186 19.021544
-29.420017 43.484621 47.533453
-30.217875 44.313944 46.757237
-28.632237 42.680303 48.279972
-27.865296 41.798334 49.019911
-28.273235 44.145058 47.120337
-29.420017 43.484621 47.533453
-28.632237 42.680303 48.279972
-24.185346 41.732359 49.821772
-24.89341 42.540045 49.03864
-23.124142 42.687629 49.582163
-24.185346 41.732359 49.821772
-22.068668 43.698301 49.382286
-22.740087 44.402647 48.516825
-23.124142 42.687629 49.582163
-21.050721 44.816201 49.28367
-22.068668 43.698301 49.382286
-38.421063 63.626352 -20.281557
-39.678709 62.533035 -20.083502
-39.389299 64.010824 -19.664982
-37.34062 63.170908 -20.878241
-38.421063 63.626352 -20.281557
-37.05121 64.648697 -20.45972
-36.257486 62.618986 -21.408537
-37.34062 63.170908 -20.878241
-35.078836 61.995922 -21.942393
-36.257486 62.618986 -21.408537
-34.792118 63.570189 -21.59026
-33.907518 61.297707 -22.429884
-35.078836 61.995922 -21.942393
-32.371483 62.178142 -22.639307
-33.907518 61.297707 -22.429884
-32.371483 62.178142 -22.639307
-31.997082 63.888883 -22.338751
-31.627538 65.522476 -21.979357
-31.197868 67.19368 -21.629906
-44.116737 59.243305 8.088014
-44.33218 58.114826 9.515663
-43.626781 59.537098 9.365426
-44.116737 59.243305 8.088014
-43.946731 60.325847 6.652596
-44.312557 61.008941 3.916133
-43.739107 61.401775 5.197593
-43.56954 62.424599 3.746311
-44.312557 61.008941 3.916133
-44.913812 60.59676 2.686339
-44.387447 63.380555 -1.624592
-43.541782 64.786058 -1.861017
-44.159805 64.239485 -3.053123
-44.571314 62.503479 -0.199575
-44.387447 63.380555 -1.624592
-20.50241 82.84079 -11.921791
-21.059043 82.386818 -13.098861
-22.240317 82.049736 -11.811996
-21.178192 82.831749 -9.357417
-22.807606 82.009354 -9.318815
-22.302112 82.337395 -8.041307
-20.013246 83.298889 -10.670466
-21.178192 82.831749 -9.357417
-20.50241 82.84079 -11.921791
-20.013246 83.298889 -10.670466
-23.729734 79.563011 5.673853
-24.63536 78.541382 6.987385
-23.305478 79.392662 7.082762
-24.12123 79.648826 4.223339
-23.729734 79.563011 5.673853
-24.569147 79.748413 2.839013
-25.507533 78.811318 4.194149
-24.12123 79.648826 4.223339
-23.61013 80.604065 1.457756
-24.996433 79.766556 1.428567
-24.569147 79.748413 2.839013
-22.600024 81.483452 0.116711
-23.61013 80.604065 1.457756
-23.006043 81.417321 -1.312453
-22.600024 81.483452 0.116711
-43.691357 31.366579 28.355969
-43.306607 31.308695 29.428168
-43.971777 32.79975 27.771896
-43.691357 31.366579 28.355969
-43.854378 34.220627 28.165332
-44.283144 34.236384 27.11747
-43.971777 32.79975 27.771896
-42.879032 32.654837 32.168094
-42.818897 31.203247 31.651387
-42.896724 34.037598 33.800358
-42.85152 33.97052 35.005795
-42.982215 34.094743 32.621859
-42.896724 34.037598 33.800358
-43.132778 35.532045 33.101859
-43.115085 34.149284 31.469596
-42.879032 32.654837 32.168094
-42.982215 34.094743 32.621859
-39.735868 41.242579 45.018664
-40.457058 40.312214 44.866274
-38.945471 42.138267 45.111355
-38.048703 42.949549 45.120533
-39.572212 42.573702 43.935225
-39.735868 41.242579 45.018664
-38.945471 42.138267 45.111355
-34.143024 44.514509 45.710533
-33.33761 43.806894 46.632391
-34.99015 45.161226 44.797516
-34.143024 44.514509 45.710533
-33.87579 45.815506 44.551986
-35.796188 45.754624 43.796486
-36.063423 44.453626 44.955032
-34.99015 45.161226 44.797516
-23.294321 65.851082 28.896441
-23.961945 66.155861 27.887602
-24.17653 65.064148 28.911564
-23.294321 65.851082 28.896441
-22.703236 65.675636 29.804265
-20.921585 60.383469 37.108021
-21.716981 60.622192 36.175045
-21.844249 59.255009 37.279373
-20.921585 60.383469 37.108021
-20.139573 60.246216 38.0728
-20.321499 48.28754 47.21299
-21.330438 47.118088 47.280769
-20.675673 46.582771 48.249168
-19.984659 50.039497 46.197655
-20.321499 48.28754 47.21299
-19.678591 51.713662 45.181729
-20.670198 50.497021 45.228665
-19.984659 50.039497 46.197655
-19.396505 53.428726 44.170758
-19.678591 51.713662 45.181729
-23.95175 78.575058 -18.059656
-23.367103 79.567077 -17.217371
-25.77867 77.707046 -17.790131
-23.95175 78.575058 -18.059656
-24.545752 77.546174 -18.861044
-28.712325 74.491364 -19.027755
-28.145563 75.7341 -18.362911
-26.939433 75.435425 -19.256363
-29.259363 73.215401 -19.686163
-30.465493 73.514076 -18.792711
-28.712325 74.491364 -19.027755
-29.786501 71.783554 -20.223434
-29.259363 73.215401 -19.686163
-45.585278 39.681444 24.253487
-45.298246 38.353151 25.046111
-45.105822 39.7537 25.285545
-45.877962 40.96919 23.448859
-45.598656 42.359802 23.611974
-46.083765 42.247 22.56791
-45.585278 39.681444 24.253487
-45.877962 40.96919 23.448859
-46.487082 45.932438 19.672726
-46.004633 47.322239 19.695802
-46.483647 47.141644 18.593589
-46.388916 44.726437 20.684439
-46.487082 45.932438 19.672726
-44.508741 56.9888 10.915285
-44.33218 58.114826 9.515663
3 1 86 84
3 0 88 87
3 1 91 89
3 1 84 91
3 2 95 93
3 3 98 96
3 2 101 99
3 2 93 101
3 5 106 104
3 5 108 106
3 5 110 108
3 4 330 332
3 332 331 111
3 330 331 332
3 6 333 335
3 335 334 112
3 333 334 335
3 7 116 114
3 6 119 117
3 6 112 119
3 9 336 338
3 336 121 337
3 336 337 338
3 10 124 122
3 10 339 341
3 341 340 124
3 339 340 341
3 11 127 125
3 9 342 344
3 344 343 128
3 342 343 344
3 9 345 346
3 12 131 129
3 348 347 132
3 14 136 134
3 16 139 137
3 16 141 139
3 8 144 142
3 17 147 145
3 17 149 147
3 17 151 149
3 12 154 152
3 12 129 154
3 18 349 350
3 18 351 353
3 351 157 352
3 351 352 353
3 18 159 157
3 19 162 160
3 19 164 162
3 20 167 165
3 20 169 167
3 20 171 169
3 21 174 172
3 21 176 174
3 21 354 356
3 356 355 176
3 354 355 356
3 13 179 177
3 15 182 180
3 22 357 359
3 359 358 183
3 357 358 359
3 23 186 184
3 22 187 83
3 22 183 187
3 25 190 188
3 27 191 85
3 27 192 191
3 28 195 193
3 29 360 362
3 362 361 90
3 360 361 362
3 29 363 364
3 29 365 366
3 25 196 92
3 25 188 196
3 30 199 197
3 32 200 94
3 32 201 200
3 33 204 202
3 35 205 97
3 35 206 205
3 36 209 207
3 38 210 100
3 38 211 210
3 38 213 211
3 30 214 102
3 30 197 214
3 367 215 368
3 369 217 370
3 371 370 215
3 369 370 371
3 41 218 103
3 41 219 218
3 42 372 374
3 372 221 373
3 372 373 374
3 44 222 105
3 44 223 222
3 44 225 223
3 46 226 107
3 46 227 226
3 46 229 227
3 47 375 377
3 377 376 109
3 375 376 377
3 47 378 379
3 381 380 230
3 48 234 232
3 49 237 235
3 383 382 113
3 51 240 238
3 53 241 115
3 53 242 241
3 24 243 185
3 54 244 118
3 54 245 244
3 54 246 245
3 49 247 120
3 49 235 247
3 384 248 385
3 386 249 387
3 388 387 248
3 386 387 388
3 389 251 390
3 391 390 249
3 389 390 391
3 26 252 189
3 56 253 123
3 56 254 253
3 56 392 394
3 394 393 254
3 392 393 394
3 57 395 397
3 397 396 255
3 395 396 397
3 399 398 126
3 401 400 194
3 58 258 256
3 60 259 130
3 60 260 259
3 31 261 198
3 61 262 133
3 61 263 262
3 61 264 263
3 50 265 236
3 62 268 266
3 64 269 135
3 64 270 269
3 34 271 203
3 65 272 138
3 65 273 272
3 65 274 273
3 66 275 140
3 66 276 275
3 52 277 239
3 67 278 143
3 67 279 278
3 37 280 208
3 68 281 146
3 68 282 281
3 68 283 282
3 69 284 148
3 69 285 284
3 69 286 285
3 70 287 150
3 70 288 287
3 39 289 212
3 71 290 153
3 71 291 290
3 71 292 291
3 58 293 155
3 58 256 293
3 72 402 404
3 402 294 403
3 402 403 404
3 72 295 294
3 73 296 156
3 73 297 296
3 73 298 297
3 74 299 158
3 74 300 299
3 40 301 216
3 75 302 161
3 75 303 302
3 75 304 303
3 76 305 163
3 76 306 305
3 77 405 407
3 405 307 406
3 405 406 407
3 77 308 307
3 43 309 220
3 78 310 166
3 78 311 310
3 78 312 311
3 79 313 168
3 79 314 313
3 79 315 314
3 80 316 170
3 80 317 316
3 45 318 224
3 81 319 173
3 81 320 319
3 81 321 320
3 408 322 409
3 410 409 175
3 408 409 410
3 412 411 322
3 414 413 228
3 55 323 250
3 59 324 257
3 82 325 178
3 82 326 325
3 415 327 416
3 417 416 231
3 415 416 417
3 418 328 419
3 421 420 328
3 63 329 267
3 423 422 181
3 425 424 233
3 427 426 22
3 428 83 429
3 430 429 23
3 428 429 430
3 431 83 432
3 433 22 434
3 435 434 83
3 433 434 435
3 84 85 25
3 86 85 84
3 86 27 85
3 87 436 437
3 88 438 440
3 440 439 87
3 438 439 440
3 88 441 442
3 89 90 28
3 91 90 89
3 91 29 90
3 91 92 29
3 84 92 91
3 84 25 92
3 93 94 30
3 95 94 93
3 95 32 94
3 96 97 33
3 98 97 96
3 98 35 97
3 99 100 36
3 101 100 99
3 101 38 100
3 101 102 38
3 93 102 101
3 93 30 102
3 443 103 444
3 445 103 446
3 447 41 448
3 449 448 103
3 447 448 449
3 104 105 42
3 106 105 104
3 106 44 105
3 106 107 44
3 108 107 106
3 108 46 107
3 108 109 46
3 110 109 108
3 110 47 109
3 111 450 452
3 452 451 48
3 450 451 452
3 454 453 111
3 112 113 49
3 455 113 456
3 457 456 112
3 455 456 457
3 459 458 113
3 114 115 51
3 116 115 114
3 116 53 115
3 117 118 24
3 119 118 117
3 119 54 118
3 119 120 54
3 112 120 119
3 112 49 120
3 121 460 461
3 121 462 463
3 122 123 26
3 124 123 122
3 124 56 123
3 124 464 466
3 466 465 56
3 464 465 466
3 468 467 124
3 125 126 57
3 127 126 125
3 127 469 471
3 471 470 126
3 469 470 471
3 128 472 473
3 475 474 128
3 129 130 58
3 131 130 129
3 131 60 130
3 132 133 31
3 476 133 477
3 478 477 132
3 476 477 478
3 479 61 480
3 481 480 133
3 479 480 481
3 483 482 61
3 485 484 50
3 134 135 62
3 136 135 134
3 136 64 135
3 137 138 34
3 139 138 137
3 139 65 138
3 139 140 65
3 141 140 139
3 141 66 140
3 142 143 52
3 144 143 142
3 144 67 143
3 145 146 37
3 147 146 145
3 147 68 146
3 147 148 68
3 149 148 147
3 149 69 148
3 149 150 69
3 151 150 149
3 151 70 150
3 152 153 39
3 154 153 152
3 154 71 153
3 154 155 71
3 129 155 154
3 129 58 155
3 486 72 487
3 488 156 489
3 157 490 492
3 490 156 491
3 490 491 492
3 157 73 156
3 157 158 73
3 159 158 157
3 159 74 158
3 160 161 40
3 162 161 160
3 162 75 161
3 162 163 75
3 164 163 162
3 164 76 163
3 493 77 494
3 165 166 43
3 167 166 165
3 167 78 166
3 167 168 78
3 169 168 167
3 169 79 168
3 169 170 79
3 171 170 169
3 171 80 170
3 172 173 45
3 174 173 172
3 174 81 173
3 174 175 81
3 176 175 174
3 176 495 497
3 497 496 175
3 495 496 497
3 176 498 499
3 501 500 176
3 503 502 55
3 177 178 59
3 179 178 177
3 179 82 178
3 180 181 63
3 182 181 180
3 182 504 506
3 506 505 181
3 504 505 506
3 183 507 509
3 509 508 6
3 507 508 509
3 511 510 183
3 513 512 22
3 184 185 7
3 186 185 184
3 186 24 185
3 83 186 23
3 187 186 83
3 187 24 186
3 187 117 24
3 183 117 187
3 183 6 117
3 188 189 9
3 190 189 188
3 190 26 189
3 85 190 25
3 191 190 85
3 191 26 190
3 191 122 26
3 192 122 191
3 192 10 122
3 193 194 11
3 195 194 193
3 195 514 516
3 516 515 194
3 514 515 516
3 90 195 28
3 517 195 518
3 519 518 90
3 517 518 519
3 521 520 195
3 92 522 524
3 524 523 29
3 522 523 524
3 196 525 527
3 527 526 92
3 525 526 527
3 196 528 529
3 196 530 532
3 530 128 531
3 530 531 532
3 188 128 196
3 188 9 128
3 197 198 12
3 199 198 197
3 199 31 198
3 94 199 30
3 200 199 94
3 200 31 199
3 200 132 31
3 201 132 200
3 201 533 535
3 535 534 132
3 533 534 535
3 202 203 14
3 204 203 202
3 204 34 203
3 97 204 33
3 205 204 97
3 205 34 204
3 205 137 34
3 206 137 205
3 206 16 137
3 207 208 8
3 209 208 207
3 209 37 208
3 100 209 36
3 210 209 100
3 210 37 209
3 210 145 37
3 211 145 210
3 211 17 145
3 211 212 17
3 213 212 211
3 213 39 212
3 102 213 38
3 214 213 102
3 214 39 213
3 214 152 39
3 197 152 214
3 197 12 152
3 215 536 537
3 215 538 540
3 538 18 539
3 538 539 540
3 215 216 18
3 217 216 215
3 217 40 216
3 103 541 543
3 541 217 542
3 541 542 543
3 218 217 103
3 218 40 217
3 218 160 40
3 219 160 218
3 219 19 160
3 544 220 545
3 221 546 548
3 546 220 547
3 546 547 548
3 221 43 220
3 105 221 42
3 222 221 105
3 222 43 221
3 222 165 43
3 223 165 222
3 223 20 165
3 223 224 20
3 225 224 223
3 225 45 224
3 107 225 44
3 226 225 107
3 226 45 225
3 226 172 45
3 227 172 226
3 227 21 172
3 227 228 21
3 229 228 227
3 229 549 551
3 551 550 228
3 549 550 551
3 109 229 46
3 552 229 553
3 554 553 109
3 552 553 554
3 556 555 229
3 230 231 13
3 557 231 558
3 559 558 230
3 557 558 559
3 561 560 231
3 232 233 15
3 234 233 232
3 234 562 564
3 564 563 233
3 562 563 564
3 565 234 566
3 567 566 48
3 565 566 567
3 568 234 569
3 571 570 234
3 235 236 2
3 237 236 235
3 237 50 236
3 113 237 49
3 572 237 573
3 574 573 113
3 572 573 574
3 575 50 576
3 577 576 237
3 575 576 577
3 579 578 50
3 581 580 6
3 238 239 3
3 240 239 238
3 240 52 239
3 115 240 51
3 241 240 115
3 241 52 240
3 241 142 52
3 242 142 241
3 242 8 142
3 185 116 7
3 243 116 185
3 243 53 116
3 118 243 24
3 244 243 118
3 244 53 243
3 244 242 53
3 245 242 244
3 245 8 242
3 245 207 8
3 246 207 245
3 246 36 207
3 120 246 54
3 247 246 120
3 247 36 246
3 247 99 36
3 235 99 247
3 235 2 99
3 582 42 583
3 248 584 585
3 248 586 588
3 586 42 587
3 586 587 588
3 248 104 42
3 249 104 248
3 249 5 104
3 249 250 5
3 251 250 249
3 251 55 250
3 589 251 590
3 591 251 592
3 593 55 594
3 595 594 251
3 593 594 595
3 597 596 55
3 189 121 9
3 252 121 189
3 252 598 600
3 600 599 121
3 598 599 600
3 123 252 26
3 253 252 123
3 253 601 603
3 603 602 252
3 601 602 603
3 253 604 605
3 254 606 608
3 608 607 253
3 606 607 608
3 254 609 610
3 254 611 612
3 614 613 254
3 616 615 56
3 255 617 619
3 619 618 4
3 617 618 619
3 621 620 255
3 126 622 624
3 624 623 57
3 622 623 624
3 626 625 126
3 194 127 11
3 627 127 628
3 629 628 194
3 627 628 629
3 631 630 127
3 256 257 1
3 258 257 256
3 258 59 257
3 130 258 58
3 259 258 130
3 259 59 258
3 259 177 59
3 260 177 259
3 260 13 177
3 198 131 12
3 261 131 198
3 261 60 131
3 133 261 31
3 262 261 133
3 262 60 261
3 262 260 60
3 263 260 262
3 263 13 260
3 263 230 13
3 264 230 263
3 264 632 634
3 634 633 230
3 632 633 634
3 635 264 636
3 637 636 61
3 635 636 637
3 638 264 639
3 641 640 264
3 236 95 2
3 265 95 236
3 265 32 95
3 642 265 643
3 644 643 50
3 642 643 644
3 645 265 646
3 647 32 648
3 649 648 265
3 647 648 649
3 650 201 651
3 652 651 32
3 650 651 652
3 653 201 654
3 656 655 201
3 266 267 0
3 268 267 266
3 268 63 267
3 135 268 62
3 269 268 135
3 269 63 268
3 269 180 63
3 270 180 269
3 270 15 180
3 203 136 14
3 271 136 203
3 271 64 136
3 138 271 34
3 272 271 138
3 272 64 271
3 272 270 64
3 273 270 272
3 273 15 270
3 273 232 15
3 274 232 273
3 274 48 232
3 140 274 65
3 275 274 140
3 275 48 274
3 275 111 48
3 276 111 275
3 276 4 111
3 239 98 3
3 277 98 239
3 277 35 98
3 143 277 52
3 278 277 143
3 278 35 277
3 278 206 35
3 279 206 278
3 279 16 206
3 208 144 8
3 280 144 208
3 280 67 144
3 146 280 37
3 281 280 146
3 281 67 280
3 281 279 67
3 282 279 281
3 282 16 279
3 282 141 16
3 283 141 282
3 283 66 141
3 148 283 68
3 284 283 148
3 284 66 283
3 284 276 66
3 285 276 284
3 285 4 276
3 285 255 4
3 286 255 285
3 286 57 255
3 150 286 69
3 287 286 150
3 287 57 286
3 287 125 57
3 288 125 287
3 288 11 125
3 212 151 17
3 289 151 212
3 289 70 151
3 153 289 39
3 290 289 153
3 290 70 289
3 290 288 70
3 291 288 290
3 291 11 288
3 291 193 11
3 292 193 291
3 292 28 193
3 155 292 71
3 293 292 155
3 293 28 292
3 293 89 28
3 256 89 293
3 256 1 89
3 294 657 658
3 294 659 660
3 294 661 663
3 661 87 662
3 661 662 663
3 295 87 294
3 295 0 87
3 664 72 665
3 156 666 667
3 296 668 670
3 670 669 156
3 668 669 670
3 296 671 673
3 671 72 672
3 671 672 673
3 296 295 72
3 297 295 296
3 297 0 295
3 297 266 0
3 298 266 297
3 298 62 266
3 158 298 73
3 299 298 158
3 299 62 298
3 299 134 62
3 300 134 299
3 300 14 134
3 216 159 18
3 301 159 216
3 301 74 159
3 161 301 40
3 302 301 161
3 302 74 301
3 302 300 74
3 303 300 302
3 303 14 300
3 303 202 14
3 304 202 303
3 304 33 202
3 163 304 75
3 305 304 163
3 305 33 304
3 305 96 33
3 306 96 305
3 306 3 96
3 674 41 675
3 307 676 677
3 307 678 680
3 678 41 679
3 678 679 680
3 307 219 41
3 308 219 307
3 308 19 219
3 220 681 682
3 309 683 685
3 685 684 220
3 683 684 685
3 309 686 688
3 686 77 687
3 686 687 688
3 166 309 43
3 310 309 166
3 310 77 309
3 310 308 77
3 311 308 310
3 311 19 308
3 311 164 19
3 312 164 311
3 312 76 164
3 168 312 78
3 313 312 168
3 313 76 312
3 313 306 76
3 314 306 313
3 314 3 306
3 314 238 3
3 315 238 314
3 315 51 238
3 170 315 79
3 316 315 170
3 316 51 315
3 316 114 51
3 317 114 316
3 317 7 114
3 224 171 20
3 318 171 224
3 318 80 171
3 173 318 45
3 319 318 173
3 319 80 318
3 319 317 80
3 320 317 319
3 320 7 317
3 320 184 7
3 321 184 320
3 321 23 184
3 175 321 81
3 322 321 175
3 322 23 321
3 322 689 691
3 691 690 23
3 689 690 691
3 693 692 322
3 228 694 696
3 696 695 21
3 694 695 696
3 698 697 228
3 250 110 5
3 323 110 250
3 323 47 110
3 699 323 700
3 701 700 55
3 699 700 701
3 702 323 703
3 704 47 705
3 706 705 323
3 704 705 706
3 708 707 47
3 257 86 1
3 324 86 257
3 324 27 86
3 178 324 59
3 325 324 178
3 325 27 324
3 325 192 27
3 326 192 325
3 326 10 192
3 231 179 13
3 327 179 231
3 327 82 179
3 709 327 710
3 328 711 713
3 711 327 712
3 711 712 713
3 328 82 327
3 328 326 82
3 714 326 715
3 716 715 328
3 714 715 716
3 717 10 718
3 719 718 326
3 717 718 719
3 721 720 10
3 267 88 0
3 329 88 267
3 329 722 724
3 724 723 88
3 722 723 724
3 181 329 63
3 725 329 726
3 727 726 181
3 725 726 727
3 729 728 329
3 233 182 15
3 730 182 731
3 732 731 233
3 730 731 732
3 734 733 182
3 736 735 4
