ply
format ascii 1.0
element vertex 404
property float x
property float y
property float z
element face 452
property list uchar int vertex_index
end_header
52.572174 43.289768 1.791972
47.481964 55.660614 9.429482
46.587601 64.070152 -11.347015
44.387497 35.317173 4.070744
51.473625 53.578568 -5.606697
47.220535 54.726784 -13.422504
46.326263 46.416252 -4.081184
38.21384 36.627705 -0.42765
53.383507 49.784485 3.517124
52.351662 44.822216 13.438243
47.873657 60.880127 -1.439663
48.848511 39.67392 2.597615
52.395519 48.531067 -1.839567
49.964645 50.027313 -5.5121
49.53849 45.153931 -1.149675
45.197739 41.351707 0.482942
50.653206 52.823265 6.016113
53.223366 47.438492 8.465079
50.140705 50.16684 11.410587
44.720406 64.184715 2.237878
47.733593 58.43811 3.891124
50.848164 55.213806 0.796498
47.392868 52.646004 15.071603
49.567951 58.739067 -8.875736
49.58989 54.651321 -9.730436
47.265182 50.726288 -9.000563
43.308098 46.664734 -7.123913
39.2514 41.787048 -5.059521
41.88026 42.174446 -2.042601
40.888275 36.515949 2.247145
54.253468 46.600441 2.075733
54.964775 41.15818 4.940167
55.225182 44.434402 6.28862
49.430107 47.257195 16.74044
47.571175 62.837631 -6.557182
50.523365 57.248726 -4.175072
52.783287 51.867645 -1.187019
50.893784 41.542385 2.075253
50.645348 38.652325 3.584949
52.48444 40.50053 3.327242
52.556923 45.955856 0.040083
51.235985 46.863358 -1.648607
51.105911 44.271839 0.306839
49.198128 42.50515 0.841825
49.033916 54.270821 7.620022
50.424339 51.525711 8.702747
48.842583 52.882248 10.385209
46.10173 58.496719 8.569998
46.156059 59.948723 5.767693
47.599457 57.083847 6.636743
49.21418 55.597275 4.893744
50.65213 56.132256 -7.331806
49.872063 56.67585 -9.504318
50.595505 54.216858 -7.710747
48.345703 48.2575 -4.929871
48.633774 50.501419 -7.280508
46.865776 48.640694 -6.548836
45.405853 48.749802 -8.154474
44.776409 46.689201 -5.588024
42.571983 44.555401 -4.52323
44.100632 44.4193 -3.07531
44.736992 38.457039 2.419588
42.946419 39.100285 1.408722
42.56004 36.029572 3.258709
54.121532 48.207153 2.656427
54.866409 45.542519 4.147772
54.402924 47.118088 4.939976
52.872086 46.16761 10.96876
54.264511 44.76202 9.6443
53.843422 43.479877 11.991651
53.197411 42.113209 14.27739
48.479141 49.934349 15.912949
46.293045 62.59259 0.3042
46.27409 63.750809 -2.357887
46.137569 64.773766 -4.971905
47.794388 61.931419 -4.02725
49.128208 60.025764 -5.446899
49.335655 59.08622 -2.948349
52.187668 52.47274 2.112988
52.050011 53.545815 -0.350225
53.178299 50.862328 1.128813
53.619774 49.236572 0.446042
47.848846 57.020851 -13.480118
38.652527 39.377411 -2.637449
37.683041 38.826424 -4.301439
37.272606 36.202106 -2.069788
46.618999 37.621227 3.293017
48.527782 36.650112 4.069952
52.046261 51.057182 -3.751574
51.034378 51.789078 -5.751032
51.230717 49.353737 -3.700119
49.816032 47.647354 -3.299397
47.927841 45.887032 -2.605169
45.744511 43.999031 -1.706253
47.461498 43.342373 -0.407927
47.010834 40.59161 1.577129
52.167847 51.325691 4.642399
53.396786 48.642746 5.969716
52.006054 50.112526 7.22681
51.72039 48.835655 9.842256
51.324974 47.492798 12.453185
44.710564 62.817429 5.003382
46.237007 61.319458 3.012003
47.840256 59.709091 1.199312
49.400986 58.020561 -0.391914
49.349297 56.851738 2.221659
50.803993 54.055511 3.376315
37.957024 33.552315 1.528563
46.115215 56.978485 11.408318
47.411415 54.179344 12.251036
46.213799 55.405891 14.260533
48.214554 61.39534 -10.213362
48.836151 59.185318 -11.080431
48.939331 56.987099 -11.564869
48.464745 54.834641 -11.643148
49.912292 52.344902 -7.687168
48.702293 52.675423 -9.550917
47.417305 52.735413 -11.32498
45.874989 50.661659 -10.659872
43.983135 48.552231 -9.736996
41.937088 46.320045 -8.678194
39.953663 43.866688 -7.624088
41.185925 44.375103 -6.044538
40.466827 42.144897 -3.49416
39.864265 39.597546 -1.118652
43.470146 41.896835 -0.717514
41.306171 39.495571 0.232679
39.426121 36.72702 1.017891
39.1665 33.549305 2.882276
53.726795 44.965534 1.786997
53.877739 42.244656 3.331319
54.694599 43.919361 3.606999
55.414047 42.829643 5.502057
55.846329 41.695747 7.457454
54.451912 45.971466 7.279763
55.309006 43.271435 8.472841
48.6591 51.436806 13.161805
49.812008 48.745773 14.103502
50.824913 46.077713 15.017756
45.373108 66.295563 -9.982391
45.848022 65.634361 -7.523504
47.17762 63.564949 -9.009121
48.760117 60.808647 -7.876961
50.127823 58.07885 -6.564802
51.278992 55.403275 -5.074032
50.760361 56.284683 -1.72031
51.746941 54.530327 -2.745548
52.209251 52.782555 -3.431257
52.918591 50.194466 -1.688112
53.417175 47.602737 0.081573
53.905552 39.411999 4.626633
38.237041 41.100727 -6.716383
46.180649 64.18695 -12.435499
45.634077 65.390236 -11.825595
44.270283 33.633722 4.755721
43.3514 34.009851 4.446907
43.3514 34.009851 4.446907
42.437672 34.366051 4.040889
43.473769 35.673372 3.664727
46.906669 55.734867 -14.321313
47.220825 56.881901 -14.350119
47.53469 55.873818 -13.451311
50.520782 37.123493 4.191033
51.489733 38.110962 4.082088
44.715736 62.085281 6.406001
44.018015 63.490017 6.065431
37.462824 31.761485 1.606774
37.915987 31.867836 2.373198
45.59684 56.802524 13.882979
46.164507 56.192188 12.834426
45.547548 57.588821 12.456871
45.547548 57.588821 12.456871
45.458034 58.39339 11.028105
55.208189 42.657019 9.567435
54.786758 44.016728 9.058571
54.685941 43.402311 10.153164
55.636375 41.889274 8.957611
55.208189 42.657019 9.567435
44.655461 67.322052 -9.180675
44.351239 67.615071 -10.40848
43.934145 65.569996 1.887021
43.978218 64.900078 3.277452
37.314898 38.391339 -5.190775
37.141646 37.140671 -4.088576
52.409279 39.035064 3.953235
51.489733 38.110962 4.082088
51.564894 39.576427 3.456095
46.128895 59.222721 7.168845
45.438484 60.650928 6.788157
45.41132 59.924926 8.189309
41.597228 34.641158 3.618663
40.761345 34.884346 3.112881
41.724158 36.272761 2.752927
41.597228 34.641158 3.618663
42.437672 34.366051 4.040889
54.475397 42.76124 11.326839
54.685941 43.402311 10.153164
54.053967 44.120948 10.817975
54.232473 42.106878 12.401812
54.475397 42.76124 11.326839
53.909468 41.423544 13.544681
54.232473 42.106878 12.401812
53.520416 42.796543 13.134521
53.531925 40.72251 14.579885
53.909468 41.423544 13.544681
47.939926 50.497681 16.883336
47.936004 51.290177 15.492276
47.396789 51.853508 16.462663
48.376564 49.152264 17.255627
47.939926 50.497681 16.883336
48.852047 47.813687 17.669373
48.954624 48.595772 16.326694
48.376564 49.152264 17.255627
45.494152 64.016087 -0.092062
44.707832 64.812149 0.874776
45.506726 63.388652 1.271039
45.484674 64.595196 -1.423106
45.494152 64.016087 -0.092062
46.283568 63.1717 -1.026844
45.42917 65.158626 -2.766382
45.484674 64.595196 -1.423106
46.20583 64.262287 -3.664896
45.36091 65.670105 -4.073391
45.42917 65.158626 -2.766382
55.029629 39.725582 5.464593
55.372558 40.597438 5.778982
47.32759 58.135818 -14.249028
47.884613 58.195458 -13.310468
47.32759 58.135818 -14.249028
47.220825 56.881901 -14.350119
36.936428 35.828512 -2.972751
37.141646 37.140671 -4.088576
37.477823 37.514265 -3.185614
46.463924 36.02824 4.005893
45.348173 34.876213 4.394756
45.503248 36.4692 3.681881
47.418316 35.542682 4.39436
46.463924 36.02824 4.005893
47.573391 37.135669 3.681484
48.393358 35.044752 4.659974
47.418316 35.542682 4.39436
49.462 36.122387 4.433535
49.586565 37.651218 3.82745
50.520782 37.123493 4.191033
48.393358 35.044752 4.659974
49.462 36.122387 4.433535
43.973298 64.216435 4.660204
44.018015 63.490017 6.065431
44.715485 63.501072 3.62063
43.978218 64.900078 3.277452
43.973298 64.216435 4.660204
45.433312 61.383076 5.385537
44.715736 62.085281 6.406001
45.438484 60.650928 6.788157
46.537258 54.515374 -14.235146
46.641149 53.609669 -13.206277
37.49581 33.395967 0.730606
37.624218 34.933662 -0.2475
38.085432 35.09001 0.550456
37.49581 33.395967 0.730606
37.462824 31.761485 1.606774
45.734383 55.972507 15.307989
45.59684 56.802524 13.882979
46.297607 54.59581 15.67767
45.734383 55.972507 15.307989
46.887142 53.215866 16.083205
46.803334 54.025948 14.666068
46.297607 54.59581 15.67767
47.396789 51.853508 16.462663
46.887142 53.215866 16.083205
45.451292 59.152507 9.608945
45.41132 59.924926 8.189309
46.108473 57.737602 9.989158
45.451292 59.152507 9.608945
45.458034 58.39339 11.028105
44.270283 33.633722 4.755721
45.348173 34.876213 4.394756
47.843441 61.56718 -11.315262
47.029964 62.904586 -11.882089
47.401077 62.732746 -10.780189
48.15424 60.46217 -11.748797
47.843441 61.56718 -11.315262
48.525352 60.290329 -10.646897
48.378265 59.277691 -12.110625
48.15424 60.46217 -11.748797
48.429856 58.178581 -12.352843
48.378265 59.277691 -12.110625
48.887741 58.086208 -11.32265
48.394089 57.003975 -12.522493
47.884613 58.195458 -13.310468
48.429856 58.178581 -12.352843
46.739534 52.613984 -12.157515
46.641149 53.609669 -13.206277
47.31892 53.731099 -12.373742
45.968376 51.577106 -11.824962
46.739534 52.613984 -12.157515
46.646147 51.698536 -10.992426
45.172324 50.473274 -11.452158
45.968376 51.577106 -11.824962
44.226396 49.41856 -10.99072
45.172324 50.473274 -11.452158
44.929062 49.606945 -10.198434
43.293385 48.29419 -10.510717
44.226396 49.41856 -10.99072
42.270361 47.178096 -9.981316
43.293385 48.29419 -10.510717
42.960111 47.436138 -9.207595
41.301553 45.987198 -9.457654
42.270361 47.178096 -9.981316
40.945375 45.093367 -8.151141
40.309841 44.760519 -8.930601
41.301553 45.987198 -9.457654
38.520725 31.866331 3.050055
37.915987 31.867836 2.373198
38.561762 33.55081 2.20542
39.900458 33.401024 3.430446
40.027388 35.032627 2.564711
40.761345 34.884346 3.112881
39.119686 31.822811 3.676969
39.900458 33.401024 3.430446
38.520725 31.866331 3.050055
39.119686 31.822811 3.676969
55.597195 41.43317 6.059927
55.372558 40.597438 5.778982
55.189411 41.993911 5.221112
55.813335 40.866222 7.037626
55.597195 41.43317 6.059927
55.630188 42.262695 6.479755
56.063173 40.284854 7.901973
55.813335 40.866222 7.037626
55.905037 41.10143 8.449917
55.577667 42.483591 7.965148
55.636375 41.889274 8.957611
56.063173 40.284854 7.901973
55.905037 41.10143 8.449917
49.200806 46.47527 18.011645
48.852047 47.813687 17.669373
49.822882 45.919453 17.117978
49.200806 46.47527 18.011645
50.520285 45.329712 16.256636
50.12751 46.667454 15.879098
49.822882 45.919453 17.117978
51.246956 44.73505 15.424319
50.520285 45.329712 16.256636
52.01033 44.107301 14.634563
51.588287 45.449965 14.227999
51.246956 44.73505 15.424319
52.433205 42.752798 15.054136
52.774536 43.467712 13.857817
52.01033 44.107301 14.634563
52.769782 41.381969 15.370672
52.433205 42.752798 15.054136
53.531925 40.72251 14.579885
52.769782 41.381969 15.370672
45.026831 66.502941 -11.143282
44.351239 67.615071 -10.40848
45.980355 65.182857 -10.664703
45.634077 65.390236 -11.825595
45.026831 66.502941 -11.143282
43.934145 65.569996 1.887021
44.707832 64.812149 0.874776
45.240919 66.159698 -5.392376
45.36091 65.670105 -4.073391
45.096145 66.589996 -6.668176
45.240919 66.159698 -5.392376
45.992795 65.204063 -6.247704
44.892917 66.991451 -7.951232
45.096145 66.589996 -6.668176
45.610565 65.964962 -8.752947
44.655461 67.322052 -9.180675
44.892917 66.991451 -7.951232
53.119835 38.490799 4.60293
52.409279 39.035064 3.953235
53.194996 39.956265 3.976938
54.500017 38.852491 5.307826
54.435164 40.285089 4.7834
55.029629 39.725582 5.464593
53.876513 37.932579 5.119315
54.500017 38.852491 5.307826
53.119835 38.490799 4.60293
53.876513 37.932579 5.119315
46.180649 64.18695 -12.435499
47.029964 62.904586 -11.882089
46.906669 55.734867 -14.321313
46.537258 54.515374 -14.235146
39.412377 43.45328 -8.433684
40.309841 44.760519 -8.930601
38.554066 42.070299 -7.979832
39.412377 43.45328 -8.433684
39.095352 42.483708 -7.170236
37.82329 40.603027 -7.578171
38.554066 42.070299 -7.979832
37.591898 39.52849 -6.398247
37.960041 39.963576 -5.508911
37.314898 38.391339 -5.190775
37.82329 40.603027 -7.578171
37.591898 39.52849 -6.398247
37.153601 34.720863 -1.068569
37.743223 36.414906 -1.248719
37.624218 34.933662 -0.2475
36.838421 34.405752 -1.971626
37.153601 34.720863 -1.068569
36.936428 35.828512 -2.972751
36.838421 34.405752 -1.971626
3 0 39 37
3 0 42 40
3 0 37 42
3 1 46 44
3 1 49 47
3 1 44 49
3 2 152 153
3 3 154 155
3 4 53 51
3 6 56 54
3 6 58 56
3 6 60 58
3 3 63 61
3 3 156 158
3 158 157 63
3 156 157 158
3 8 66 64
3 9 69 67
3 9 70 69
3 10 73 72
3 10 75 73
3 10 77 75
3 8 80 78
3 8 64 80
3 5 159 161
3 161 160 82
3 159 160 161
3 7 85 83
3 11 87 86
3 163 162 38
3 12 90 88
3 14 91 41
3 14 92 91
3 14 94 92
3 11 95 43
3 11 86 95
3 16 98 96
3 18 99 45
3 18 100 99
3 164 101 165
3 20 102 48
3 20 103 102
3 20 105 103
3 16 106 50
3 16 96 106
3 167 166 107
3 168 110 169
3 170 169 108
3 168 169 170
3 171 108 172
3 23 112 111
3 24 113 52
3 24 114 113
3 13 115 89
3 25 116 55
3 25 117 116
3 25 118 117
3 26 119 57
3 26 120 119
3 26 122 120
3 28 123 59
3 28 124 123
3 15 125 93
3 29 126 62
3 29 127 126
3 29 128 127
3 30 131 129
3 32 132 65
3 32 133 132
3 17 134 97
3 173 135 174
3 175 174 68
3 173 174 175
3 177 176 135
3 22 136 109
3 33 137 71
3 33 138 137
3 178 139 179
3 19 180 181
3 34 140 74
3 34 141 140
3 34 142 141
3 35 143 76
3 35 144 143
3 21 145 104
3 36 146 79
3 36 147 146
3 36 148 147
3 30 149 81
3 30 129 149
3 31 150 130
3 27 151 121
3 183 182 84
3 37 38 11
3 39 38 37
3 39 184 186
3 186 185 38
3 184 185 186
3 40 41 12
3 42 41 40
3 42 14 41
3 42 43 14
3 37 43 42
3 37 11 43
3 44 45 16
3 46 45 44
3 46 18 45
3 47 187 189
3 187 48 188
3 187 188 189
3 49 48 47
3 49 20 48
3 49 50 20
3 44 50 49
3 44 16 50
3 51 52 23
3 53 52 51
3 53 24 52
3 54 55 13
3 56 55 54
3 56 25 55
3 56 57 25
3 58 57 56
3 58 26 57
3 58 59 26
3 60 59 58
3 60 28 59
3 61 62 15
3 63 62 61
3 63 29 62
3 63 190 192
3 192 191 29
3 190 191 192
3 194 193 63
3 64 65 30
3 66 65 64
3 66 32 65
3 67 68 17
3 69 68 67
3 69 195 197
3 197 196 68
3 195 196 197
3 69 198 199
3 70 200 202
3 202 201 69
3 200 201 202
3 70 203 204
3 205 71 206
3 207 206 22
3 205 206 207
3 208 71 209
3 210 33 211
3 212 211 71
3 210 211 212
3 72 213 215
3 215 214 19
3 213 214 215
3 73 216 218
3 218 217 72
3 216 217 218
3 73 219 220
3 73 221 223
3 221 74 222
3 221 222 223
3 75 74 73
3 75 34 74
3 75 76 34
3 77 76 75
3 77 35 76
3 78 79 21
3 80 79 78
3 80 36 79
3 80 81 36
3 64 81 80
3 64 30 81
3 225 224 31
3 82 226 227
3 229 228 82
3 83 84 27
3 85 84 83
3 85 230 232
3 232 231 84
3 230 231 232
3 86 233 235
3 235 234 3
3 233 234 235
3 87 236 238
3 238 237 86
3 236 237 238
3 87 239 240
3 38 87 11
3 241 87 242
3 243 242 38
3 241 242 243
3 245 244 87
3 88 89 4
3 90 89 88
3 90 13 89
3 41 90 12
3 91 90 41
3 91 13 90
3 91 54 13
3 92 54 91
3 92 6 54
3 92 93 6
3 94 93 92
3 94 15 93
3 43 94 14
3 95 94 43
3 95 15 94
3 95 61 15
3 86 61 95
3 86 3 61
3 96 97 8
3 98 97 96
3 98 17 97
3 45 98 16
3 99 98 45
3 99 17 98
3 99 67 17
3 100 67 99
3 100 9 67
3 101 246 247
3 101 248 250
3 248 19 249
3 248 249 250
3 48 251 253
3 251 101 252
3 251 252 253
3 102 101 48
3 102 19 101
3 102 72 19
3 103 72 102
3 103 10 72
3 103 104 10
3 105 104 103
3 105 21 104
3 50 105 20
3 106 105 50
3 106 21 105
3 106 78 21
3 96 78 106
3 96 8 78
3 255 254 5
3 107 256 258
3 258 257 7
3 256 257 258
3 260 259 107
3 108 109 1
3 110 109 108
3 110 22 109
3 261 110 262
3 263 110 264
3 265 22 266
3 267 266 110
3 265 266 267
3 269 268 22
3 270 47 271
3 108 272 274
3 272 47 273
3 272 273 274
3 108 1 47
3 276 275 3
3 111 277 279
3 279 278 2
3 277 278 279
3 112 280 282
3 282 281 111
3 280 281 282
3 112 283 284
3 52 112 23
3 113 112 52
3 113 285 287
3 287 286 112
3 285 286 287
3 113 288 290
3 288 82 289
3 288 289 290
3 114 82 113
3 114 5 82
3 89 53 4
3 115 53 89
3 115 24 53
3 55 115 13
3 116 115 55
3 116 24 115
3 116 114 24
3 117 114 116
3 117 5 114
3 117 291 293
3 293 292 5
3 291 292 293
3 118 294 296
3 296 295 117
3 294 295 296
3 118 297 298
3 57 118 25
3 119 118 57
3 119 299 301
3 301 300 118
3 299 300 301
3 119 302 303
3 120 304 306
3 306 305 119
3 304 305 306
3 120 307 308
3 120 309 311
3 309 121 310
3 309 310 311
3 122 121 120
3 122 27 121
3 59 122 26
3 123 122 59
3 123 27 122
3 123 83 27
3 124 83 123
3 124 7 83
3 93 60 6
3 125 60 93
3 125 28 60
3 62 125 15
3 126 125 62
3 126 28 125
3 126 124 28
3 127 124 126
3 127 7 124
3 127 107 7
3 128 107 127
3 128 312 314
3 314 313 107
3 312 313 314
3 315 128 316
3 317 316 29
3 315 316 317
3 318 128 319
3 321 320 128
3 129 130 0
3 131 130 129
3 131 31 130
3 65 131 30
3 132 131 65
3 132 31 131
3 132 322 324
3 324 323 31
3 322 323 324
3 133 325 327
3 327 326 132
3 325 326 327
3 133 328 329
3 97 66 8
3 134 66 97
3 134 32 66
3 68 134 17
3 135 134 68
3 135 32 134
3 135 133 32
3 330 133 331
3 332 331 135
3 330 331 332
3 334 333 133
3 109 46 1
3 136 46 109
3 136 18 46
3 71 136 22
3 137 136 71
3 137 18 136
3 137 100 18
3 138 100 137
3 138 9 100
3 335 33 336
3 337 33 338
3 339 138 340
3 341 340 33
3 339 340 341
3 342 138 343
3 344 9 345
3 346 345 138
3 344 345 346
3 347 70 348
3 349 348 9
3 347 348 349
3 350 70 351
3 353 352 70
3 139 354 355
3 139 356 358
3 356 2 357
3 356 357 358
3 360 359 19
3 74 361 362
3 140 363 365
3 365 364 74
3 363 364 365
3 140 366 367
3 140 368 370
3 368 139 369
3 368 369 370
3 141 139 140
3 141 2 139
3 141 111 2
3 142 111 141
3 142 23 111
3 76 142 34
3 143 142 76
3 143 23 142
3 143 51 23
3 144 51 143
3 144 4 51
3 104 77 10
3 145 77 104
3 145 35 77
3 79 145 21
3 146 145 79
3 146 35 145
3 146 144 35
3 147 144 146
3 147 4 144
3 147 88 4
3 148 88 147
3 148 12 88
3 81 148 36
3 149 148 81
3 149 12 148
3 149 40 12
3 129 40 149
3 129 0 40
3 130 39 0
3 150 39 130
3 150 371 373
3 373 372 39
3 371 372 373
3 374 150 375
3 376 375 31
3 374 375 376
3 377 150 378
3 380 379 150
3 382 381 2
3 384 383 5
3 121 385 386
3 151 387 389
3 389 388 121
3 387 388 389
3 151 390 391
3 84 151 27
3 392 151 393
3 394 393 84
3 392 393 394
3 396 395 151
3 397 85 398
3 399 398 7
3 397 398 399
3 400 85 401
3 403 402 85
