ply
format ascii 1.0
element vertex 188
property float x
property float y
property float z
element face 174
property list uchar int vertex_index
end_header
52.955032 -15.226645 -4.944427
46.569439 -28.34927 10.645838
49.326271 -22.358913 3.234107
47.620766 -25.530552 7.016611
54.129723 -23.398014 2.918958
52.422123 -27.342125 6.372011
57.587776 -14.854855 -4.353504
58.661263 -10.309181 -8.437851
51.243683 -18.93449 -0.745335
55.980228 -19.212391 -0.596561
46.987526 -26.996532 8.848829
49.9188 -26.476198 6.714985
49.255531 -28.135283 8.499973
59.850899 -14.874396 -4.215815
60.387146 -12.522587 -6.121214
46.334236 -23.121124 5.290779
47.20435 -21.723892 3.270929
48.131699 -20.258343 1.194618
50.286186 -20.677963 1.271772
53.570419 -19.060637 -0.623219
52.615971 -21.000502 1.272275
56.687393 -23.955269 2.659515
57.557266 -21.741594 1.006392
45.57914 -24.450779 7.250484
48.418854 -23.978849 5.14687
51.653358 -22.888351 3.116664
50.73592 -24.718641 4.925393
53.231979 -25.410133 4.640667
55.840572 -26.108141 4.320829
55.265434 -15.013061 -4.60784
55.927917 -12.89196 -6.700787
58.204773 -12.607283 -6.354372
60.766479 -10.137935 -8.126987
49.938416 -17.085333 -3.104012
49.060303 -18.716381 -0.933147
52.148125 -17.120865 -2.818729
54.467804 -17.066906 -2.581409
56.835308 -17.055187 -2.436579
59.179459 -17.194983 -2.404467
55.062813 -21.328012 1.181532
58.402489 -19.485048 -0.67164
46.407455 -29.553778 12.405173
48.572323 -31.011305 12.086658
48.793945 -29.660686 10.289846
51.750534 -29.161432 8.134933
56.427933 -10.699355 -8.851456
46.778483 -27.672901 9.747333
45.811472 -26.929863 9.909615
45.602429 -27.606232 10.80812
53.291233 -14.2345 -6.028315
51.837816 -15.288977 -5.124595
61.12643 -13.805037 -5.118113
60.915199 -15.016706 -4.208738
58.354809 -23.126089 1.714856
57.96837 -24.281241 2.513799
46.599953 -24.990665 7.133548
45.287388 -25.077539 8.198125
46.308201 -25.617425 8.081188
61.719894 -10.215431 -8.038647
60.576813 -11.330261 -7.1241
61.530228 -11.407757 -7.035761
61.774948 -8.984633 -9.061112
61.719894 -10.215431 -8.038647
48.502941 -17.683228 -2.12139
48.913963 -16.954496 -3.2404
59.581303 -19.714631 -0.752614
57.979878 -20.613321 0.167376
59.158692 -20.842904 0.086402
59.913063 -18.523849 -1.576037
59.581303 -19.714631 -0.752614
46.468547 -30.063121 13.262199
45.575338 -29.169099 13.387883
49.916954 -30.91922 11.015369
49.78134 -31.652837 11.945222
50.027765 -30.24391 10.116963
48.683134 -30.335995 11.188252
49.916954 -30.91922 11.015369
51.506059 -29.994284 9.039506
50.272239 -29.411059 9.21239
50.027765 -30.24391 10.116963
45.991581 -26.350415 8.997297
45.811472 -26.929863 9.909615
47.304146 -26.263542 7.93272
46.308201 -25.617425 8.081188
45.991581 -26.350415 8.997297
61.394554 -12.629133 -6.070813
60.119022 -13.698491 -5.168515
61.12643 -13.805037 -5.118113
61.530228 -11.407757 -7.035761
61.394554 -12.629133 -6.070813
45.427023 -22.593479 5.32583
45.08152 -23.147656 6.348074
45.86208 -21.894863 4.315905
45.427023 -22.593479 5.32583
46.769293 -22.422508 4.280854
46.266365 -21.305464 3.258597
45.86208 -21.894863 4.315905
47.668025 -20.991118 2.232773
46.73004 -20.57269 2.220441
46.266365 -21.305464 3.258597
58.789745 -22.019251 0.888294
57.122329 -22.848432 1.832953
58.354809 -23.126089 1.714856
59.158692 -20.842904 0.086402
58.789745 -22.019251 0.888294
58.800673 -9.135314 -9.516579
59.818016 -9.014983 -9.334261
44.44566 -24.331411 8.308244
45.287388 -25.077539 8.198125
44.703972 -23.812484 7.327927
44.44566 -24.331411 8.308244
45.956688 -23.785951 6.270632
45.08152 -23.147656 6.348074
44.703972 -23.812484 7.327927
57.54496 -25.357677 3.344456
57.96837 -24.281241 2.513799
56.263982 -25.031705 3.490172
45.555357 -28.124859 11.680754
45.602429 -27.606232 10.80812
60.870624 -8.929361 -9.178829
59.818016 -9.014983 -9.334261
59.713871 -10.223558 -8.282419
60.870624 -8.929361 -9.178829
61.774948 -8.984633 -9.061112
50.329508 -16.21832 -4.204388
48.913963 -16.954496 -3.2404
51.446724 -16.155989 -4.02422
51.837816 -15.288977 -5.124595
50.329508 -16.21832 -4.204388
47.164049 -19.944169 1.134733
46.73004 -20.57269 2.220441
47.628351 -19.173188 0.07085
47.164049 -19.944169 1.134733
48.596001 -19.487362 0.130736
48.063885 -18.498751 -1.035957
47.628351 -19.173188 0.07085
49.499359 -17.900857 -2.018579
48.502941 -17.683228 -2.12139
48.063885 -18.498751 -1.035957
60.57948 -16.177 -3.303064
60.915199 -15.016706 -4.208738
59.515179 -16.034689 -3.310141
60.301548 -17.378817 -2.44245
58.790974 -18.340015 -1.538053
59.913063 -18.523849 -1.576037
60.57948 -16.177 -3.303064
60.301548 -17.378817 -2.44245
45.474365 -28.727113 12.560422
45.575338 -29.169099 13.387883
46.488447 -28.951524 11.525505
45.555357 -28.124859 11.680754
45.474365 -28.727113 12.560422
48.594412 -31.57862 12.985383
49.78134 -31.652837 11.945222
47.550981 -30.791885 13.102941
48.594412 -31.57862 12.985383
47.489889 -30.282542 12.245915
46.468547 -30.063121 13.262199
47.550981 -30.791885 13.102941
53.079376 -29.635852 7.963773
51.506059 -29.994284 9.039506
53.408006 -28.666871 7.078858
53.079376 -29.635852 7.963773
53.743801 -27.757217 6.197397
52.086329 -28.251779 7.253472
53.408006 -28.666871 7.078858
55.453026 -27.140225 5.171806
54.131348 -26.725133 5.34642
53.743801 -27.757217 6.197397
57.162527 -26.480503 4.160257
55.453026 -27.140225 5.171806
57.54496 -25.357677 3.344456
57.162527 -26.480503 4.160257
54.777676 -13.067158 -6.906494
53.291233 -14.2345 -6.028315
54.441474 -14.059302 -5.822607
55.027684 -11.970855 -7.981829
54.777676 -13.067158 -6.906494
56.177925 -11.795658 -7.776122
55.282452 -10.931394 -9.078917
55.027684 -11.970855 -7.981829
57.684008 -9.3304 -9.723382
57.544598 -10.504268 -8.644654
58.800673 -9.135314 -9.516579
56.587254 -9.568423 -9.94855
57.684008 -9.3304 -9.723382
55.282452 -10.931394 -9.078917
56.587254 -9.568423 -9.94855
3 1 46 48
3 46 10 47
3 46 47 48
3 1 12 10
3 0 49 50
3 52 51 13
3 2 16 15
3 2 18 16
3 2 20 18
3 54 53 21
3 3 55 57
3 55 23 56
3 55 56 57
3 3 24 23
3 3 26 24
3 5 27 11
3 5 28 27
3 6 31 29
3 58 32 59
3 60 59 14
3 58 59 60
3 62 61 32
3 63 33 64
3 8 34 17
3 8 35 34
3 8 36 35
3 9 37 19
3 9 38 37
3 4 39 25
3 65 40 66
3 67 66 22
3 65 66 67
3 69 68 40
3 70 41 71
3 72 42 73
3 74 43 75
3 76 75 42
3 74 75 76
3 77 44 78
3 79 78 43
3 77 78 79
3 7 45 30
3 10 80 81
3 10 82 84
3 82 3 83
3 82 83 84
3 10 11 3
3 12 11 10
3 12 5 11
3 13 14 6
3 85 14 86
3 87 86 13
3 85 86 87
3 89 88 14
3 15 90 91
3 16 92 94
3 94 93 15
3 92 93 94
3 16 95 96
3 16 97 99
3 97 17 98
3 97 98 99
3 18 17 16
3 18 8 17
3 18 19 8
3 20 19 18
3 20 9 19
3 21 22 4
3 100 22 101
3 102 101 21
3 100 101 102
3 104 103 22
3 106 105 7
3 23 107 108
3 23 109 110
3 23 111 113
3 111 15 112
3 111 112 113
3 24 15 23
3 24 2 15
3 24 25 2
3 26 25 24
3 26 4 25
3 11 26 3
3 27 26 11
3 27 4 26
3 27 21 4
3 28 21 27
3 28 114 116
3 116 115 21
3 114 115 116
3 117 1 118
3 29 30 0
3 31 30 29
3 31 7 30
3 14 31 6
3 32 31 14
3 32 7 31
3 32 119 121
3 121 120 7
3 119 120 121
3 123 122 32
3 33 124 125
3 33 126 128
3 126 0 127
3 126 127 128
3 17 129 130
3 34 131 133
3 133 132 17
3 131 132 133
3 34 134 135
3 34 136 138
3 136 33 137
3 136 137 138
3 35 33 34
3 35 0 33
3 35 29 0
3 36 29 35
3 36 6 29
3 19 36 8
3 37 36 19
3 37 6 36
3 37 13 6
3 38 13 37
3 38 139 141
3 141 140 13
3 139 140 141
3 25 20 2
3 39 20 25
3 39 9 20
3 22 39 4
3 40 39 22
3 40 9 39
3 40 38 9
3 142 38 143
3 144 143 40
3 142 143 144
3 146 145 38
3 41 147 148
3 41 149 151
3 149 1 150
3 149 150 151
3 42 152 153
3 42 154 155
3 42 156 158
3 156 41 157
3 156 157 158
3 43 41 42
3 43 1 41
3 43 12 1
3 44 12 43
3 44 5 12
3 159 44 160
3 161 44 162
3 163 5 164
3 165 164 44
3 163 164 165
3 166 28 167
3 168 167 5
3 166 167 168
3 169 28 170
3 172 171 28
3 30 173 175
3 175 174 0
3 173 174 175
3 45 176 178
3 178 177 30
3 176 177 178
3 45 179 180
3 181 45 182
3 183 182 7
3 181 182 183
3 184 45 185
3 187 186 45
