ply
format ascii 1.0
element vertex 674
property float x
property float y
property float z
element face 779
property list uchar int vertex_index
end_header
-8.314447 42.529835 -32.877678
-26.753277 38.959602 -28.741283
-20.882017 66.455368 -25.408886
-23.257025 14.230045 -31.034496
-17.440147 41.045692 -31.139942
-22.611906 27.397896 -30.774288
-15.135777 26.896774 -30.7178
-8.144985 24.716984 -29.674873
-31.888451 37.494434 -23.85228
-34.486629 47.515354 -24.480568
-24.519606 51.869358 -27.092197
-12.566252 56.237873 -31.080734
-16.539009 79.116287 -21.887619
-7.822794 71.090042 -29.747959
-28.76914 27.574516 -28.143581
-12.691938 42.033298 -32.146896
-15.638957 34.391907 -31.544178
-11.530058 34.588413 -31.715847
-27.819452 63.153751 -23.703583
-29.271122 56.145847 -24.752037
-22.81979 59.075939 -26.201847
-18.434872 54.188412 -28.870682
-16.271576 61.786274 -28.413769
-19.321136 83.177872 -13.208656
-21.549538 80.398224 -17.445999
-14.451715 83.260864 -18.195358
-5.899792 77.236404 -27.171719
-4.828167 64.924362 -32.594799
-30.077888 38.149044 -26.79586
-29.952122 32.822353 -26.103523
-27.518847 33.158371 -28.61969
-22.422962 20.85392 -30.815266
-25.928473 15.816944 -31.921837
-28.834412 12.719946 -34.984245
-26.688013 10.429516 -33.725163
-12.745764 17.033455 -28.497551
-25.999342 70.038834 -22.468388
-22.311308 39.952274 -30.035294
-24.05835 33.51709 -30.175171
-19.930695 33.950268 -31.05732
-18.885017 27.212807 -30.97123
-19.161568 19.924156 -30.259544
-4.415627 42.084679 -33.216183
-7.723143 34.138752 -31.642345
-33.282066 42.367847 -24.568493
-30.4044 43.613083 -26.707314
-30.193712 49.567722 -25.854469
-25.85248 45.148991 -28.102486
-20.462608 46.854382 -29.461147
-15.009011 48.530514 -31.097939
-9.915268 49.851917 -32.723759
-23.869219 76.00032 -20.513866
-18.759426 73.381241 -24.179943
-9.818621 81.29451 -22.917046
-11.801834 75.944611 -26.048832
-14.025398 69.24855 -27.699356
-10.126091 63.906078 -30.837967
-7.25 57.58749 -33.062069
-5.378384 50.346996 -33.891182
-25.997372 27.54496 -29.912853
-11.540688 26.172657 -30.203587
-15.920045 18.72686 -29.394154
-20.58585 12.423708 -29.824581
-24.742725 7.888527 -32.11013
-10.450159 42.37252 -32.556961
-11.96545 38.434944 -32.10778
-9.882551 38.553581 -32.292091
-24.375593 64.847214 -24.452183
-25.273474 61.224766 -24.913338
-21.876093 62.776432 -25.818626
-19.521879 60.47813 -27.231106
-18.482218 64.240005 -26.916424
-16.89053 83.454315 -15.729008
-28.592258 38.529987 -27.882095
-28.685881 35.745564 -27.770084
-27.117001 36.023628 -28.772999
-22.733452 17.528381 -30.850945
-24.213352 18.13205 -31.153107
-24.593597 15.049988 -31.531296
-26.28574 13.05595 -32.710827
-25.105936 12.056717 -32.117374
-10.818388 9.607962 -27.203747
-12.307125 11.062477 -27.472244
-29.521353 68.17305 -21.854485
-28.560471 71.328995 -20.99575
-19.88784 40.495384 -30.594833
-20.96059 37.049866 -30.687283
-18.670658 37.440182 -31.128834
-15.22392 30.744602 -31.251774
-17.219223 30.724606 -31.242661
-16.997711 27.085049 -30.890198
-18.865627 23.620037 -30.640057
-17.106842 23.287769 -30.384701
-34.940262 44.190445 -23.356766
-33.966949 44.87933 -24.624409
-32.091324 42.952141 -25.769962
-32.430172 45.65205 -25.597641
-26.836994 54.09837 -25.885033
-29.813055 52.782749 -25.303387
-27.463316 50.701321 -26.432938
-27.952572 47.450703 -26.979473
-25.24119 48.440304 -27.605656
-23.206808 45.991177 -28.750748
-22.378845 49.45705 -28.313908
-15.448972 55.269833 -29.957672
-16.589157 51.458317 -30.08984
-13.790543 52.369228 -31.090435
-12.402924 49.262905 -31.942829
-11.107119 53.153217 -32.070045
-19.046463 79.993408 -19.700211
-22.718832 78.414185 -19.130569
-20.182251 77.649734 -21.193764
-21.304775 74.896332 -22.367092
-17.650494 76.435562 -23.19746
-9.000135 83.388931 -20.739388
-6.968695 81.856598 -23.050148
-6.796902 74.324417 -28.675041
-8.667059 76.785904 -26.760147
-9.696545 73.705154 -27.977303
-12.899733 72.734756 -27.032875
-10.80265 70.322357 -28.815948
-11.953348 66.710358 -29.346115
-8.94379 67.593399 -30.443321
-3.701084 61.448177 -33.565483
-5.992773 61.330074 -32.973892
-4.894196 57.838642 -33.759888
-6.194239 54.086369 -33.668926
-4.030422 54.113628 -34.173588
-3.386063 50.145458 -34.203423
-32.270947 37.171501 -22.062851
-31.841814 34.73542 -21.439705
-31.462305 35.005978 -23.289368
-29.25293 30.245899 -27.145958
-30.245443 30.10638 -25.689774
-23.171875 30.529068 -30.575787
-24.980968 30.47044 -30.058071
-24.368179 27.478115 -30.443275
-28.873526 10.77487 -36.60067
-7.804365 29.541306 -30.694897
-9.562061 30.127251 -30.875393
-9.81579 25.552319 -29.927124
-14.324534 17.956581 -28.929661
-16.769608 14.511887 -28.852459
-18.255863 15.392353 -29.410831
-19.246773 11.411615 -29.166584
-15.028726 41.57275 -31.665478
-16.379856 37.826366 -31.516914
-14.135559 38.173775 -31.847172
-13.550266 34.544235 -31.667477
-13.276266 30.684155 -31.17944
-31.129499 61.409161 -23.154499
-31.751593 58.003315 -23.711224
-28.598066 59.622219 -24.224072
-26.099087 57.620228 -25.378078
-23.705788 55.424114 -26.618263
-21.479794 53.042248 -27.90099
-20.523521 56.727535 -27.54324
-17.366991 57.972767 -28.638481
-14.291384 59.115467 -29.831573
-20.402431 81.968811 -15.465078
-17.935179 81.918121 -17.874786
-15.459559 81.389496 -20.220814
-5.159372 79.786865 -25.21719
-3.591421 77.231735 -27.19939
-4.294033 74.524994 -29.025089
-5.172291 71.481781 -30.38409
-6.199167 68.148727 -31.305809
-3.795532 68.31366 -31.838612
-31.174339 37.810017 -25.44928
-30.845337 35.252323 -25.007214
-29.930113 35.492771 -26.514507
-28.872614 32.993469 -27.488079
-28.045652 30.342888 -28.364929
-22.370289 24.159046 -30.824947
-24.055807 24.393379 -30.702328
-24.017689 21.262032 -30.908119
-25.667555 18.688148 -31.320766
-27.258598 16.517944 -32.175957
-27.490376 13.98988 -33.195457
-27.728485 11.616377 -34.414707
-27.933731 9.396549 -35.831703
-8.755299 19.728558 -28.695126
-10.354362 20.797462 -28.976776
-11.184381 15.937603 -28.132072
-30.380695 64.830643 -22.553387
-26.95088 66.659225 -23.141296
-23.412281 68.401077 -23.927124
-24.630207 39.436161 -29.43576
-25.261538 36.33374 -29.557037
-23.183493 36.677219 -30.176586
-22.045807 33.72477 -30.678242
-21.238941 30.594933 -30.924248
-17.777544 34.181038 -31.341763
-19.237522 30.665142 -31.138489
-20.76947 27.311047 -30.940319
-20.629236 23.903687 -30.79504
-20.796963 20.411083 -30.590214
-21.24086 16.878876 -30.442013
-6.29644 42.448254 -33.100639
-7.894028 38.472385 -32.403019
-6.010229 38.142883 -32.445911
-5.951948 33.557022 -31.549202
-6.125244 28.711426 -30.513981
-6.539042 23.652767 -29.452209
-7.86866 6.269156 -26.91832
-33.02042 39.519909 -22.631435
-33.960312 41.839348 -23.07806
-32.54245 39.927334 -24.301628
-31.634691 40.356598 -25.720554
-30.273516 40.838947 -26.867432
-28.487898 41.385555 -27.772732
-34.775749 50.311176 -24.176857
-32.22102 54.686893 -24.253395
-32.505638 51.509762 -24.777378
-32.577816 48.497555 -25.245644
-30.390518 46.513737 -26.347424
-28.290354 44.349869 -27.452522
-26.349333 41.9935 -28.505161
-23.955084 42.651779 -29.148926
-21.409483 43.344948 -29.777691
-18.807411 44.053074 -30.433605
-19.469145 50.473766 -29.145889
-17.708899 47.712322 -30.252235
-16.223347 44.748795 -31.119099
-13.707611 45.39362 -31.804031
-11.289663 45.936611 -32.443413
-8.986446 46.317371 -32.995621
-27.506195 74.192688 -19.921207
-24.969143 73.185196 -21.6129
-22.386599 71.784943 -23.257809
-19.841179 70.023376 -24.891453
-12.07218 82.54776 -20.598133
-13.046228 80.353912 -22.497398
-7.747883 79.511597 -25.121265
-10.763191 78.810837 -24.68721
-14.101189 77.760651 -24.008568
-15.200153 74.786545 -25.148232
-16.310764 71.48558 -25.96273
-17.409466 67.93898 -26.523266
-15.154634 65.570221 -28.129444
-13.122427 62.949604 -29.654495
-11.340641 60.099949 -31.021084
-7.339878 64.586578 -31.850601
-8.557993 60.860836 -32.100204
-9.821453 57.032627 -32.144962
-8.565392 53.747334 -32.950989
-7.565754 50.23357 -33.38665
-6.812664 46.473736 -33.431335
-4.789267 46.352283 -33.729427
-30.773684 32.630882 -24.493069
-25.901711 33.329784 -29.504421
-26.616983 30.412571 -29.331676
-27.46933 27.583466 -29.152058
-25.653624 24.60117 -30.395866
-27.138695 24.766518 -29.874622
-9.585955 34.470051 -31.701603
-11.387587 30.494656 -31.045212
-13.314793 26.607376 -30.478474
-11.992697 21.664131 -29.314659
-13.66526 22.346867 -29.686333
-15.370673 22.875774 -30.055779
-17.53307 19.372307 -29.850235
-19.746387 16.173317 -29.952374
-21.921206 13.357803 -30.457161
-22.791845 9.898973 -30.710464
-23.944208 11.00416 -31.442848
-25.698591 9.183044 -32.94886
-27.091434 7.946016 -34.960426
-28.080673 7.311563 -37.405365
-12.265727 7.936475 -27.120365
-11.54363 7.137623 -26.990147
-29.786501 71.783554 -20.223434
-30.281636 70.33812 -20.762917
-34.226789 46.197342 -24.552489
-34.893743 45.7557 -24.037374
-35.153583 47.073712 -23.965454
-5.780568 81.909104 -22.937792
-6.658887 82.83976 -21.809567
-3.848679 57.787658 -33.970365
-4.29764 59.64341 -33.662685
-3.252123 59.592426 -33.873163
-3.416792 55.925151 -34.177216
-4.462309 55.976135 -33.966738
-3.848679 57.787658 -33.970365
-3.074047 53.952869 -34.297035
-3.416792 55.925151 -34.177216
-29.33322 27.536792 -27.517437
-29.575115 28.872484 -27.018625
-29.011035 28.910207 -27.64477
-29.247195 26.226904 -28.12792
-29.33322 27.536792 -27.517437
-29.298293 10.653192 -37.881466
-28.849706 9.871234 -37.475041
-17.333122 12.407553 -28.686172
-16.027012 14.00998 -28.585203
-18.571704 10.857417 -28.843235
-18.008191 12.961751 -29.009521
-17.333122 12.407553 -28.686172
-19.861784 82.573341 -14.336867
-21.59969 81.782287 -14.227072
-21.059043 82.386818 -13.098861
-2.698151 76.982452 -26.997435
-3.33511 78.403793 -26.056415
-3.612862 72.983162 -29.831736
-3.278969 74.391915 -28.991202
-4.051991 71.461556 -30.511236
-4.733162 73.003388 -29.70459
-3.612862 72.983162 -29.831736
-3.363612 69.877495 -31.238497
-4.483912 69.89772 -31.111351
-4.051991 71.461556 -30.511236
-10.414703 15.29891 -27.991295
-9.96984 17.833081 -28.413599
-9.200162 17.194387 -28.272821
-13.052076 11.712204 -27.659947
-13.720274 9.400022 -27.447338
-31.627538 65.522476 -21.979357
-31.997082 63.888883 -22.338751
-5.121522 33.131809 -31.481098
-5.101071 35.545582 -31.98184
-5.20817 30.709011 -30.963487
-6.038596 31.134224 -31.031592
-5.121522 33.131809 -31.481098
-5.776268 23.007528 -29.344774
-5.540727 25.641848 -29.884783
-6.872225 21.052956 -28.96055
-5.776268 23.007528 -29.344774
-8.59764 3.704368 -26.731102
-7.142074 5.344953 -26.866625
-9.337042 4.611427 -26.771685
-8.59764 3.704368 -26.731102
-33.596294 40.417963 -21.981254
-33.082453 39.299961 -21.708185
-34.794643 51.794914 -23.969776
-35.842748 51.132744 -23.657377
-23.367103 79.567077 -17.217371
-22.763915 80.38018 -16.280707
-25.120945 76.339241 -19.552692
-24.545752 77.546174 -18.861044
-23.294026 77.207253 -19.822218
-25.687707 75.096504 -20.217537
-26.939433 75.435425 -19.256363
-25.120945 76.339241 -19.552692
-3.166393 48.031937 -34.033883
-2.507266 49.875507 -34.243746
-31.828227 33.443979 -21.143245
-31.609181 33.571546 -22.077143
-30.646003 30.009804 -24.863774
-30.555739 28.724497 -25.555834
-25.605933 23.116507 -30.617628
-24.854716 24.497274 -30.549097
-24.807025 23.012611 -30.770859
-27.773525 23.476154 -29.984941
-27.082206 23.357188 -30.226209
-27.817809 24.816826 -29.49521
-27.773525 23.476154 -29.984941
-29.425117 13.212114 -35.187473
-29.370523 14.269178 -34.463358
-28.779818 13.777011 -34.26013
-23.767285 8.89375 -31.410297
-23.296022 8.223312 -30.970079
-24.271462 7.218089 -31.669912
-27.275789 6.771919 -35.664655
-26.706869 7.196126 -34.488451
-27.770409 6.454693 -36.887125
-27.586053 7.628789 -36.182896
-27.275789 6.771919 -35.664655
-16.420431 84.056198 -14.509887
-18.105833 83.316093 -14.468832
-17.635734 83.917976 -13.249711
-15.221355 84.111076 -15.781172
-16.420431 84.056198 -14.509887
-14.001947 84.014351 -17.014347
-15.671122 83.357589 -16.962183
-15.221355 84.111076 -15.781172
-11.562756 10.33522 -27.337995
-10.976075 12.861347 -27.66138
-10.231707 12.134089 -27.527132
-13.010095 8.663733 -27.254613
-11.562756 10.33522 -27.337995
-12.265727 7.936475 -27.120365
-13.720274 9.400022 -27.447338
-13.010095 8.663733 -27.254613
-30.762076 68.760147 -21.192284
-31.197868 67.19368 -21.629906
-29.040912 69.751023 -21.425117
-30.762076 68.760147 -21.192284
-30.281636 70.33812 -20.762917
-4.33291 39.80941 -32.815331
-3.558228 41.751188 -33.207769
-35.3804 45.411257 -23.403553
-35.737219 45.012003 -22.723638
-34.453605 44.534887 -23.990588
-35.3804 45.411257 -23.403553
-34.893743 45.7557 -24.037374
-7.674607 83.605927 -20.654187
-8.665067 84.251671 -19.46176
-7.984415 82.622765 -21.894768
-7.674607 83.605927 -20.654187
-6.658887 82.83976 -21.809567
-2.751868 51.968784 -34.311953
-3.708242 52.129543 -34.188506
-3.074047 53.952869 -34.297035
-2.507266 49.875507 -34.243746
-2.751868 51.968784 -34.311953
-32.056381 35.95346 -21.751278
-32.125629 35.76923 -20.813026
-32.340195 36.987271 -21.124599
-31.419427 33.706826 -23.001974
-31.609181 33.571546 -22.077143
-31.65206 34.870699 -22.364536
-30.071372 28.802725 -26.290534
-29.749187 30.17614 -26.417866
-29.575115 28.872484 -27.018625
-30.555739 28.724497 -25.555834
-30.071372 28.802725 -26.290534
-29.401359 11.410172 -36.913021
-29.381802 12.38271 -36.104809
-28.853969 11.747408 -35.792457
-29.401359 11.410172 -36.913021
-29.298293 10.653192 -37.881466
-14.804475 15.732326 -28.623804
-13.535149 17.495018 -28.713606
-14.01509 15.270764 -28.407749
-15.547071 16.234234 -28.89106
-14.804475 15.732326 -28.623804
-16.027012 14.00998 -28.585203
-25.170276 6.398731 -32.565368
-24.271462 7.218089 -31.669912
-25.532514 7.167381 -33.063303
-25.170276 6.398731 -32.565368
-35.491585 48.3633 -23.92454
-35.153583 47.073712 -23.965454
-31.440546 59.706238 -23.432862
-32.976581 58.825802 -23.223439
-32.665534 60.528725 -22.945076
-22.190362 81.165474 -15.290246
-21.59969 81.782287 -14.227072
-20.975984 81.183517 -16.455538
-22.763915 80.38018 -16.280707
-22.190362 81.165474 -15.290246
-4.119086 79.681358 -25.065315
-4.875906 80.874237 -24.021313
-3.83562 80.76873 -23.869439
-4.375396 78.5093 -26.20829
-4.119086 79.681358 -25.065315
-3.33511 78.403793 -26.056415
-2.927663 75.745285 -28.078352
-2.698151 76.982452 -26.997435
-3.942727 75.878365 -28.11224
-2.927663 75.745285 -28.078352
-3.278969 74.391915 -28.991202
-2.797983 68.180038 -31.905539
-3.363612 69.877495 -31.238497
-3.226126 66.590508 -32.41646
-2.797983 68.180038 -31.905539
-3.742443 64.895859 -32.794553
-4.31185 66.619011 -32.216706
-3.226126 66.590508 -32.41646
-3.178901 63.157766 -33.279895
-4.264625 63.18627 -33.080141
-3.742443 64.895859 -32.794553
-2.72031 61.312172 -33.690239
-3.178901 63.157766 -33.279895
-3.252123 59.592426 -33.873163
-2.72031 61.312172 -33.690239
-24.787966 21.446938 -30.873755
-24.807025 23.012611 -30.770859
-24.036748 22.827706 -30.805224
-25.612899 20.159996 -31.080078
-24.787966 21.446938 -30.873755
-24.842622 19.97509 -31.114442
-26.375999 18.935255 -31.321713
-25.612899 20.159996 -31.080078
-27.17152 17.850153 -31.749308
-26.375999 18.935255 -31.321713
-26.463076 17.603046 -31.748361
-27.920237 16.822968 -32.217304
-27.17152 17.850153 -31.749308
-27.991912 15.67601 -32.855986
-27.920237 16.822968 -32.217304
-28.1078 14.411978 -33.365736
-27.991912 15.67601 -32.855986
-27.374487 15.253912 -32.685707
-28.162394 13.354913 -34.089851
-28.779818 13.777011 -34.26013
-28.1078 14.411978 -33.365736
-28.379809 9.182074 -37.090557
-28.849706 9.871234 -37.475041
-28.403628 10.08571 -36.216186
-11.745753 13.50004 -27.802158
-10.414703 15.29891 -27.991295
-10.976075 12.861347 -27.66138
-12.490704 14.149767 -27.98986
-11.745753 13.50004 -27.802158
-13.052076 11.712204 -27.659947
-13.271396 14.697693 -28.1726
-11.965072 16.485529 -28.314812
-12.490704 14.149767 -27.98986
-14.01509 15.270764 -28.407749
-13.271396 14.697693 -28.1726
-32.371483 62.178142 -22.639307
-32.665534 60.528725 -22.945076
-33.907518 61.297707 -22.429884
-30.755097 63.119902 -22.853943
-32.371483 62.178142 -22.639307
-31.997082 63.888883 -22.338751
-29.951024 66.501846 -22.203936
-31.627538 65.522476 -21.979357
-31.197868 67.19368 -21.629906
-20.50241 82.84079 -11.921791
-21.059043 82.386818 -13.098861
-18.831971 83.635971 -11.957331
-20.50241 82.84079 -11.921791
-20.013246 83.298889 -10.670466
-17.635734 83.917976 -13.249711
-18.831971 83.635971 -11.957331
-5.130211 37.838513 -32.430194
-5.212928 40.113781 -32.831047
-4.33291 39.80941 -32.815331
-5.981089 35.849953 -31.997557
-5.130211 37.838513 -32.430194
-5.101071 35.545582 -31.98184
-5.333828 28.171177 -30.415669
-5.20817 30.709011 -30.963487
-6.332143 26.182097 -29.983095
-5.333828 28.171177 -30.415669
-5.540727 25.641848 -29.884783
-7.980354 19.090851 -28.582009
-7.647171 21.690663 -29.073667
-6.872225 21.052956 -28.96055
-8.425217 16.55668 -28.159704
-9.200162 17.194387 -28.272821
-7.980354 19.090851 -28.582009
-9.477147 11.405965 -27.424999
-10.231707 12.134089 -27.527132
-8.890466 13.932092 -27.748385
-10.077703 8.806658 -27.117168
-9.477147 11.405965 -27.424999
-10.802945 6.336319 -26.903568
-11.54363 7.137623 -26.990147
-10.077703 8.806658 -27.117168
-6.554162 8.041543 -27.122767
-5.827576 7.117339 -27.071072
-7.142074 5.344953 -26.866625
-7.2672 8.925375 -27.203299
-6.554162 8.041543 -27.122767
-8.602839 7.137255 -26.974455
-7.2672 8.925375 -27.203299
-10.07122 5.479527 -26.82782
-8.602839 7.137255 -26.974455
-9.337042 4.611427 -26.771685
-32.707716 38.125757 -21.423893
-32.340195 36.987271 -21.124599
-32.645684 38.345705 -22.347143
-32.707716 38.125757 -21.423893
-33.082453 39.299961 -21.708185
-35.14653 43.870558 -22.567768
-35.737219 45.012003 -22.723638
-34.656555 42.695009 -22.428415
-35.14653 43.870558 -22.567768
-34.450287 43.014896 -23.217413
-34.06624 41.577683 -22.204567
-34.656555 42.695009 -22.428415
-33.490366 40.679628 -22.854748
-33.596294 40.417963 -21.981254
-34.06624 41.577683 -22.204567
-35.636145 49.761211 -23.772684
-35.842748 51.132744 -23.657377
-34.631189 48.913265 -24.328713
-35.491585 48.3633 -23.92454
-35.636145 49.761211 -23.772684
-33.181962 57.203716 -23.494256
-32.976581 58.825802 -23.223439
-33.416675 55.545505 -23.765341
-33.181962 57.203716 -23.494256
-31.986307 56.345104 -23.982309
-33.517279 53.982772 -24.008045
-33.416675 55.545505 -23.765341
-33.659588 52.394207 -24.270036
-33.517279 53.982772 -24.008045
-32.363329 53.098327 -24.515386
-33.640693 50.910469 -24.477117
-34.794643 51.794914 -23.969776
-33.659588 52.394207 -24.270036
-23.95175 78.575058 -18.059656
-23.367103 79.567077 -17.217371
-22.134185 79.406205 -18.288284
-23.95175 78.575058 -18.059656
-24.545752 77.546174 -18.861044
-28.712325 74.491364 -19.027755
-26.939433 75.435425 -19.256363
-29.259363 73.215401 -19.686163
-28.712325 74.491364 -19.027755
-28.033333 72.760841 -20.458478
-29.786501 71.783554 -20.223434
-29.259363 73.215401 -19.686163
-12.832644 83.809181 -18.259338
-14.001947 84.014351 -17.014347
-10.106854 83.873215 -19.531353
-8.665067 84.251671 -19.46176
-11.642876 83.452629 -19.460726
-10.106854 83.873215 -19.531353
-10.536157 82.968345 -20.668761
-13.261947 82.904312 -19.396746
-12.832644 83.809181 -18.259338
-11.642876 83.452629 -19.460726
-6.064034 80.821731 -24.133669
-5.780568 81.909104 -22.937792
-4.875906 80.874237 -24.021313
-3.867996 46.135349 -33.796885
-4.087665 48.24887 -33.966425
-3.166393 48.031937 -34.033883
-3.681176 44.001547 -33.540262
-4.602447 44.218481 -33.472805
-3.867996 46.135349 -33.796885
-3.558228 41.751188 -33.207769
-3.681176 44.001547 -33.540262
-31.953197 34.586244 -20.503086
-32.237011 35.620055 -19.876407
-32.125629 35.76923 -20.813026
-31.953197 34.586244 -20.503086
-31.828227 33.443979 -21.143245
-31.075117 32.519278 -23.603825
-31.419427 33.706826 -23.001974
-31.117995 33.81843 -23.891219
-30.910124 31.272054 -24.265421
-30.509563 31.368631 -25.091421
-30.646003 30.009804 -24.863774
-31.075117 32.519278 -23.603825
-30.910124 31.272054 -24.265421
-26.339671 23.274513 -30.486832
-25.605933 23.116507 -30.617628
-26.396159 24.683844 -30.135244
-26.339671 23.274513 -30.486832
-27.082206 23.357188 -30.226209
-27.983126 26.2253 -29.133928
-27.304012 26.174992 -29.51334
-27.817809 24.816826 -29.49521
-28.633032 26.220825 -28.62969
-28.119235 27.578991 -28.64782
-27.983126 26.2253 -29.133928
-29.247195 26.226904 -28.12792
-28.633032 26.220825 -28.62969
-29.425117 13.212114 -35.187473
-29.381802 12.38271 -36.104809
-19.856902 9.453869 -29.171101
-18.571704 10.857417 -28.843235
-20.442093 10.072606 -29.555582
-19.856902 9.453869 -29.171101
-21.111632 10.578653 -29.88458
-19.916311 11.917661 -29.495582
-20.442093 10.072606 -29.555582
-22.214629 9.316285 -30.327522
-23.296022 8.223312 -30.970079
-21.688848 11.16134 -30.267522
-21.111632 10.578653 -29.88458
-22.214629 9.316285 -30.327522
-26.010447 7.81464 -33.482668
-25.220658 8.535785 -32.529495
-25.532514 7.167381 -33.063303
-26.395012 8.56453 -33.954643
-26.010447 7.81464 -33.482668
-26.706869 7.196126 -34.488451
-28.45328 8.139581 -37.877388
-28.379809 9.182074 -37.090557
-28.007202 8.354056 -36.618534
-28.118108 6.320323 -38.232973
-27.770409 6.454693 -36.887125
-28.386466 7.281991 -38.784538
-28.118108 6.320323 -38.232973
-28.759073 8.110008 -39.256562
-28.45328 8.139581 -37.877388
-28.386466 7.281991 -38.784538
3 0 66 64
3 2 69 67
3 2 71 69
3 1 75 73
3 3 78 76
3 3 80 78
3 270 269 81
3 271 84 272
3 4 87 85
3 6 90 88
3 6 92 90
3 9 273 275
3 273 94 274
3 273 274 275
3 9 96 94
3 10 99 97
3 10 101 99
3 10 103 101
3 11 106 104
3 11 108 106
3 12 111 109
3 12 113 111
3 276 115 277
3 13 118 116
3 13 120 118
3 13 122 120
3 278 125 279
3 280 279 123
3 278 279 280
3 281 127 282
3 283 282 125
3 281 282 283
3 285 284 127
3 8 131 129
3 14 286 288
3 288 287 132
3 286 287 288
3 14 289 290
3 5 136 134
3 292 291 137
3 7 140 138
3 293 142 294
3 295 144 296
3 297 296 142
3 295 296 297
3 15 147 145
3 17 148 65
3 17 149 148
3 18 152 150
3 20 153 68
3 20 154 153
3 20 156 154
3 22 157 70
3 22 158 157
3 23 298 300
3 298 159 299
3 298 299 300
3 25 160 72
3 25 161 160
3 301 163 302
3 303 164 304
3 305 165 306
3 307 306 164
3 305 306 307
3 308 167 309
3 310 309 165
3 308 309 310
3 28 170 168
3 30 171 74
3 30 172 171
3 31 175 173
3 32 176 77
3 32 177 176
3 32 178 177
3 34 179 79
3 34 180 179
3 311 183 312
3 313 312 181
3 311 312 313
3 315 314 82
3 316 184 317
3 36 185 83
3 36 186 185
3 37 189 187
3 39 190 86
3 39 191 190
3 16 192 146
3 40 193 89
3 40 194 193
3 40 195 194
3 41 196 91
3 41 197 196
3 42 200 198
3 318 201 319
3 320 202 321
3 322 321 201
3 320 321 322
3 323 203 324
3 326 325 203
3 327 204 328
3 330 329 204
3 331 205 332
3 44 206 93
3 44 207 206
3 44 208 207
3 45 209 95
3 45 210 209
3 333 211 334
3 19 212 151
3 46 213 98
3 46 214 213
3 46 215 214
3 47 216 100
3 47 217 216
3 47 218 217
3 48 219 102
3 48 220 219
3 21 221 155
3 49 222 105
3 49 223 222
3 49 224 223
3 50 225 107
3 50 226 225
3 24 335 336
3 51 337 339
3 339 338 110
3 337 338 339
3 51 340 342
3 340 227 341
3 340 341 342
3 51 228 227
3 52 229 112
3 52 230 229
3 53 231 114
3 53 232 231
3 26 233 162
3 54 234 117
3 54 235 234
3 54 236 235
3 55 237 119
3 55 238 237
3 55 239 238
3 56 240 121
3 56 241 240
3 27 242 166
3 57 243 124
3 57 244 243
3 57 245 244
3 58 246 126
3 58 247 246
3 58 248 247
3 344 343 128
3 346 345 130
3 29 249 169
3 348 347 133
3 38 250 188
3 59 251 135
3 59 252 251
3 349 253 350
3 351 350 174
3 349 350 351
3 352 254 353
3 355 354 254
3 33 356 358
3 356 357 358
3 43 255 199
3 60 256 139
3 60 257 256
3 35 258 182
3 61 259 141
3 61 260 259
3 61 261 260
3 62 262 143
3 62 263 262
3 63 359 361
3 359 264 360
3 359 360 361
3 63 265 264
3 63 266 265
3 362 267 363
3 364 268 365
3 366 365 267
3 364 365 366
3 64 65 15
3 66 65 64
3 66 17 65
3 67 68 18
3 69 68 67
3 69 20 68
3 69 70 20
3 71 70 69
3 71 22 70
3 367 72 368
3 369 368 23
3 367 368 369
3 370 72 371
3 372 25 373
3 374 373 72
3 372 373 374
3 73 74 28
3 75 74 73
3 75 30 74
3 76 77 31
3 78 77 76
3 78 32 77
3 78 79 32
3 80 79 78
3 80 34 79
3 81 375 377
3 375 82 376
3 375 376 377
3 378 82 379
3 380 379 81
3 378 379 380
3 382 381 82
3 383 83 384
3 84 385 387
3 385 83 386
3 385 386 387
3 84 36 83
3 85 86 37
3 87 86 85
3 87 39 86
3 88 89 16
3 90 89 88
3 90 40 89
3 90 91 40
3 92 91 90
3 92 41 91
3 389 388 42
3 390 93 391
3 94 392 394
3 392 93 393
3 392 393 394
3 94 44 93
3 94 95 44
3 96 95 94
3 96 45 95
3 97 98 19
3 99 98 97
3 99 46 98
3 99 100 46
3 101 100 99
3 101 47 100
3 101 102 47
3 103 102 101
3 103 48 102
3 104 105 21
3 106 105 104
3 106 49 105
3 106 107 49
3 108 107 106
3 108 50 107
3 109 110 24
3 111 110 109
3 111 51 110
3 111 112 51
3 113 112 111
3 113 52 112
3 395 114 396
3 115 397 399
3 397 114 398
3 397 398 399
3 115 53 114
3 116 117 26
3 118 117 116
3 118 54 117
3 118 119 54
3 120 119 118
3 120 55 119
3 120 121 55
3 122 121 120
3 122 56 121
3 123 124 27
3 125 124 123
3 125 57 124
3 125 126 57
3 127 126 125
3 127 58 126
3 127 128 58
3 400 128 401
3 402 401 127
3 400 401 402
3 404 403 128
3 129 405 407
3 405 130 406
3 405 406 407
3 131 130 129
3 131 408 410
3 410 409 130
3 408 409 410
3 132 133 29
3 411 133 412
3 413 412 132
3 411 412 413
3 415 414 133
3 134 135 38
3 136 135 134
3 136 59 135
3 137 416 418
3 418 417 33
3 416 417 418
3 420 419 137
3 138 139 43
3 140 139 138
3 140 60 139
3 421 141 422
3 423 422 35
3 421 422 423
3 142 424 426
3 424 141 425
3 424 425 426
3 142 61 141
3 142 143 61
3 144 143 142
3 144 62 143
3 427 63 428
3 430 429 63
3 145 146 4
3 147 146 145
3 147 16 146
3 65 147 15
3 148 147 65
3 148 16 147
3 148 88 16
3 149 88 148
3 149 6 88
3 431 9 432
3 150 433 435
3 433 151 434
3 433 434 435
3 152 151 150
3 152 19 151
3 68 152 18
3 153 152 68
3 153 19 152
3 153 97 19
3 154 97 153
3 154 10 97
3 154 155 10
3 156 155 154
3 156 21 155
3 70 156 20
3 157 156 70
3 157 21 156
3 157 104 21
3 158 104 157
3 158 11 104
3 159 436 437
3 159 438 440
3 438 24 439
3 438 439 440
3 72 159 23
3 160 159 72
3 160 24 159
3 160 109 24
3 161 109 160
3 161 12 109
3 441 162 442
3 441 442 443
3 163 444 446
3 444 162 445
3 444 445 446
3 163 26 162
3 447 163 448
3 164 449 451
3 449 163 450
3 449 450 451
3 164 26 163
3 164 116 26
3 165 116 164
3 165 13 116
3 165 166 13
3 167 166 165
3 167 27 166
3 452 167 453
3 454 167 455
3 456 27 457
3 458 457 167
3 456 457 458
3 459 123 460
3 461 460 27
3 459 460 461
3 462 123 463
3 465 464 123
3 168 169 8
3 170 169 168
3 170 29 169
3 74 170 28
3 171 170 74
3 171 29 170
3 171 132 29
3 172 132 171
3 172 14 132
3 173 174 5
3 175 174 173
3 175 466 468
3 468 467 174
3 466 467 468
3 77 175 31
3 176 175 77
3 176 469 471
3 471 470 175
3 469 470 471
3 176 472 473
3 177 474 476
3 476 475 176
3 474 475 476
3 177 477 478
3 177 479 480
3 178 481 483
3 483 482 177
3 481 482 483
3 178 484 486
3 484 33 485
3 484 485 486
3 79 178 32
3 179 178 79
3 179 33 178
3 179 137 33
3 180 137 179
3 180 487 489
3 489 488 137
3 487 488 489
3 181 182 7
3 183 182 181
3 183 35 182
3 82 490 492
3 490 183 491
3 490 491 492
3 493 183 494
3 495 494 82
3 493 494 495
3 496 35 497
3 498 497 183
3 496 497 498
3 500 499 35
3 501 150 502
3 501 502 503
3 184 504 506
3 504 150 505
3 504 505 506
3 184 18 150
3 83 507 509
3 507 184 508
3 507 508 509
3 185 184 83
3 185 18 184
3 185 67 18
3 186 67 185
3 186 2 67
3 187 188 1
3 189 188 187
3 189 38 188
3 86 189 37
3 190 189 86
3 190 38 189
3 190 134 38
3 191 134 190
3 191 5 134
3 146 87 4
3 192 87 146
3 192 39 87
3 89 192 16
3 193 192 89
3 193 39 192
3 193 191 39
3 194 191 193
3 194 5 191
3 194 173 5
3 195 173 194
3 195 31 173
3 91 195 40
3 196 195 91
3 196 31 195
3 196 76 31
3 197 76 196
3 197 3 76
3 510 23 511
3 512 23 513
3 512 513 514
3 516 515 23
3 198 199 0
3 200 199 198
3 200 43 199
3 517 200 518
3 519 518 42
3 517 518 519
3 201 520 522
3 520 200 521
3 520 521 522
3 201 43 200
3 201 138 43
3 202 138 201
3 202 7 138
3 523 202 524
3 203 525 527
3 525 202 526
3 525 526 527
3 203 7 202
3 203 181 7
3 528 181 529
3 530 529 203
3 528 529 530
3 533 532 181
3 531 532 533
3 534 81 535
3 534 535 536
3 537 81 538
3 541 540 81
3 539 540 541
3 204 542 544
3 542 543 544
3 204 545 546
3 204 547 548
3 551 550 204
3 549 550 551
3 552 129 553
3 205 554 556
3 554 129 555
3 554 555 556
3 205 8 129
3 93 557 558
3 206 559 561
3 561 560 93
3 559 560 561
3 206 562 563
3 206 564 566
3 564 205 565
3 564 565 566
3 207 205 206
3 207 8 205
3 207 168 8
3 208 168 207
3 208 28 168
3 95 208 44
3 209 208 95
3 209 28 208
3 209 73 28
3 210 73 209
3 210 1 73
3 211 567 568
3 211 569 571
3 569 9 570
3 569 570 571
3 151 572 573
3 212 574 576
3 576 575 151
3 574 575 576
3 212 577 578
3 98 212 19
3 213 212 98
3 213 579 581
3 581 580 212
3 579 580 581
3 213 582 584
3 582 211 583
3 582 583 584
3 214 211 213
3 214 9 211
3 214 96 9
3 215 96 214
3 215 45 96
3 100 215 46
3 216 215 100
3 216 45 215
3 216 210 45
3 217 210 216
3 217 1 210
3 217 187 1
3 218 187 217
3 218 37 187
3 102 218 47
3 219 218 102
3 219 37 218
3 219 85 37
3 220 85 219
3 220 4 85
3 155 103 10
3 221 103 155
3 221 48 103
3 105 221 21
3 222 221 105
3 222 48 221
3 222 220 48
3 223 220 222
3 223 4 220
3 223 145 4
3 224 145 223
3 224 15 145
3 107 224 49
3 225 224 107
3 225 15 224
3 225 64 15
3 226 64 225
3 226 0 64
3 110 585 587
3 587 586 24
3 585 586 587
3 589 588 110
3 227 590 591
3 227 592 593
3 227 594 596
3 594 84 595
3 594 595 596
3 228 84 227
3 228 36 84
3 112 228 51
3 229 228 112
3 229 36 228
3 229 186 36
3 230 186 229
3 230 2 186
3 597 25 598
3 114 599 600
3 231 601 603
3 603 602 114
3 601 602 603
3 231 604 606
3 604 25 605
3 604 605 606
3 231 161 25
3 232 161 231
3 232 12 161
3 162 607 609
3 607 115 608
3 607 608 609
3 233 115 162
3 233 53 115
3 117 233 26
3 234 233 117
3 234 53 233
3 234 232 53
3 235 232 234
3 235 12 232
3 235 113 12
3 236 113 235
3 236 52 113
3 119 236 54
3 237 236 119
3 237 52 236
3 237 230 52
3 238 230 237
3 238 2 230
3 238 71 2
3 239 71 238
3 239 22 71
3 121 239 55
3 240 239 121
3 240 22 239
3 240 158 22
3 241 158 240
3 241 11 158
3 166 122 13
3 242 122 166
3 242 56 122
3 124 242 27
3 243 242 124
3 243 56 242
3 243 241 56
3 244 241 243
3 244 11 241
3 244 108 11
3 245 108 244
3 245 50 108
3 126 245 57
3 246 245 126
3 246 50 245
3 246 226 50
3 247 226 246
3 247 0 226
3 247 198 0
3 248 198 247
3 248 42 198
3 128 248 58
3 610 248 611
3 612 611 128
3 610 611 612
3 613 42 614
3 615 614 248
3 613 614 615
3 617 616 42
3 130 618 620
3 618 619 620
3 622 621 130
3 169 131 8
3 249 131 169
3 249 623 625
3 625 624 131
3 623 624 625
3 133 249 29
3 626 249 627
3 628 627 133
3 626 627 628
3 630 629 249
3 188 75 1
3 250 75 188
3 250 30 75
3 135 250 38
3 251 250 135
3 251 30 250
3 251 172 30
3 252 172 251
3 252 14 172
3 174 136 5
3 253 136 174
3 253 59 136
3 631 253 632
3 254 633 635
3 633 253 634
3 633 634 635
3 254 59 253
3 254 252 59
3 636 252 637
3 638 637 254
3 636 637 638
3 639 14 640
3 641 640 252
3 639 640 641
3 643 642 14
3 645 644 33
3 199 66 0
3 255 66 199
3 255 17 66
3 139 255 43
3 256 255 139
3 256 17 255
3 256 149 17
3 257 149 256
3 257 6 149
3 182 140 7
3 258 140 182
3 258 60 140
3 141 258 35
3 259 258 141
3 259 60 258
3 259 257 60
3 260 257 259
3 260 6 257
3 260 92 6
3 261 92 260
3 261 41 92
3 143 261 61
3 262 261 143
3 262 41 261
3 262 197 41
3 263 197 262
3 263 3 197
3 646 144 647
3 648 144 649
3 650 62 651
3 652 651 144
3 650 651 652
3 264 653 654
3 264 655 657
3 655 62 656
3 655 656 657
3 264 263 62
3 265 263 264
3 265 3 263
3 265 80 3
3 266 80 265
3 266 34 80
3 658 266 659
3 660 659 63
3 658 659 660
3 267 661 663
3 661 266 662
3 661 662 663
3 267 34 266
3 267 180 34
3 268 180 267
3 268 664 666
3 666 665 180
3 664 665 666
3 667 268 668
3 669 268 670
3 673 672 268
3 671 672 673
