ply
format ascii 1.0
element vertex 529
property float x
property float y
property float z
element face 539
property list uchar int vertex_index
end_header
9.06921 -52.275688 -2.067638
2.908205 -60.620811 8.917184
13.753746 -53.225376 -6.852617
2.681173 -44.853928 2.657521
-1.707335 -53.446995 33.472031
-3.710997 -39.185684 33.964436
-3.097223 -52.56292 25.354908
-3.890162 -50.501801 17.137833
-2.400873 -47.3176 9.212727
5.887709 -56.510582 2.250235
10.740429 -56.459698 -2.904028
11.504934 -52.823639 -4.218313
-0.563812 -47.978203 41.290283
-0.562733 -53.739021 37.50243
-1.826376 -47.261848 37.56789
-4.683107 -38.297821 30.175673
-3.570173 -46.063583 29.821758
-4.461882 -45.303413 25.872234
-3.6024 -51.709614 21.26844
-5.366812 -44.281944 21.77438
-0.277529 -45.828987 5.747965
8.963499 -62.602951 2.223299
4.319586 -58.736343 5.363585
6.312893 -49.205544 -0.000854
-0.571917 -59.607494 33.544205
-1.402563 -59.444904 29.306894
-2.885695 -40.126194 37.686981
-2.776777 -46.66972 33.712372
-2.516085 -53.107666 29.413691
-1.776377 -59.05938 25.085653
-1.818979 -58.3587 20.905294
-1.642012 -57.312771 16.778313
-1.145981 -55.917542 12.749779
-3.587126 -48.979046 13.05632
-0.137772 -54.210735 8.94194
1.476097 -52.328518 5.507216
3.656706 -50.534058 2.533859
7.543495 -54.177197 -0.309404
9.951553 -59.751122 -0.679556
9.795219 -54.097164 -2.477957
11.10635 -54.691467 -3.676815
10.204737 -52.544216 -3.028381
-1.211306 -44.682259 41.275887
-1.230803 -47.597294 39.454338
-1.850447 -44.210556 39.484344
-5.942102 -33.65918 28.277409
-5.276674 -34.166733 30.24551
-5.28026 -37.833603 28.22789
-4.625612 -41.857262 28.078327
-5.182173 -41.401054 26.089001
-4.93709 -44.82959 23.845459
5.275217 -62.767124 7.210954
5.989471 -61.825188 5.429104
3.589193 -59.727955 7.092041
13.214285 -55.413311 -6.262758
4.543228 -47.157417 1.287055
6.206551 -46.861855 -0.011898
4.430147 -44.63316 1.218936
0.654497 -56.907532 39.62159
-1.171545 -53.587521 35.4944
-0.570852 -56.682137 35.518272
-1.132753 -56.596161 33.449081
-1.042896 -59.544888 31.425478
-1.604338 -56.496796 31.374498
-3.72658 -35.713852 35.874298
-3.305017 -39.642006 35.834038
-2.847666 -43.390694 35.752083
-3.255217 -43.018089 33.852608
-3.399645 -49.38266 27.61327
-3.043707 -49.676773 29.603598
-2.821379 -52.868732 27.385078
-2.242239 -56.169052 27.227833
-2.441889 -55.907043 25.161243
-1.827829 -58.751198 22.98954
-2.594572 -55.56493 23.09882
-3.794943 -51.150181 19.206099
-2.786963 -54.617287 18.979067
-2.792166 -54.006989 16.924768
-1.446516 -56.658054 14.745887
-2.689886 -53.308281 14.886436
-3.113192 -48.148617 11.092987
-2.014647 -51.687908 10.935505
-1.392252 -50.80748 9.068981
0.593584 -53.277988 7.170091
-0.569061 -49.921928 7.301119
1.105902 -45.259262 4.161401
1.650393 -48.298355 4.093014
3.019987 -47.646976 2.646548
4.930635 -49.783066 1.21897
7.374716 -59.555229 2.186047
9.491554 -61.248383 0.701971
8.028233 -58.255756 0.753713
8.65485 -56.888252 -0.525295
6.708836 -55.334297 0.892603
11.971775 -57.151608 -4.197304
12.273933 -55.113293 -4.948732
12.721933 -53.056622 -5.507378
0.097054 -51.127342 41.335686
0.080685 -53.922729 39.487957
-0.569462 -50.82716 39.444046
-1.204348 -50.573975 37.511948
-1.773535 -50.352478 35.550812
-4.67375 -34.668175 32.154285
-4.158987 -38.743027 32.081696
-3.66271 -42.64967 31.944872
-4.113272 -42.268379 30.024647
-3.997339 -45.710648 27.860214
-3.765871 -49.027042 25.610716
-3.359705 -52.17915 23.317762
-4.140535 -48.597908 23.586277
-4.49291 -48.087002 21.533436
-4.769358 -47.491508 19.45365
-1.451815 -46.529221 7.429816
8.360571 -63.792004 3.864721
6.693394 -60.752178 3.749848
5.088911 -57.656399 3.745294
9.150753 -50.68652 -2.202934
0.042803 -56.778934 37.577137
-0.022881 -59.656349 35.66
-2.397287 -40.649281 39.505714
-2.391459 -43.783535 37.635433
-2.338148 -46.958347 35.648415
-2.261221 -50.142929 33.573341
-3.173906 -46.377548 31.769855
-2.67544 -49.924328 31.589493
-2.153051 -53.294292 31.443256
-1.971064 -56.360851 29.299465
-1.642664 -59.287769 27.192345
-0.904591 -61.373531 20.925377
-0.708143 -60.929752 18.828396
-2.712206 -55.136272 21.038368
-1.759336 -57.879616 18.833906
-0.453653 -60.407097 16.755156
-0.136921 -59.804134 14.711788
0.254677 -59.118122 12.708153
0.73568 -58.346729 10.758186
-4.906359 -46.816338 17.3591
-3.835962 -49.772442 15.080006
-2.441099 -52.529835 12.882355
-0.715401 -55.097519 10.808251
1.31666 -57.490803 8.878752
2.00112 -56.557301 7.087353
2.785641 -55.56168 5.399714
3.662315 -54.529205 3.828325
0.449173 -49.071129 5.642101
2.501038 -51.399323 3.961356
4.62154 -53.495483 2.382312
5.652967 -52.507545 1.068084
6.743963 -51.629017 -0.111109
8.365395 -53.110451 -1.325375
10.953352 -64.280991 0.769003
11.533964 -60.995472 -2.061695
10.361128 -58.144783 -1.893421
9.252663 -55.494312 -1.619255
10.574085 -50.749977 -3.347015
12.022709 -50.899338 -4.599562
13.371025 -51.045437 -5.929522
14.547211 -51.150852 -7.318098
15.529999 -51.200832 -8.753807
-1.506197 -42.950283 41.269827
-1.147685 -43.259029 42.105568
-1.825767 -42.714432 40.374055
-1.530876 -44.446407 40.380116
-1.506197 -42.950283 41.269827
-5.593117 -37.584848 27.223779
-5.611181 -35.746392 28.252649
-5.924038 -35.497637 27.248539
-5.544073 -39.368574 26.154335
-5.231217 -39.617328 27.158445
-5.593117 -37.584848 27.223779
-5.455849 -41.144725 25.066461
-5.544073 -39.368574 26.154335
4.091711 -61.693967 8.064069
4.920931 -63.175469 8.147274
3.737425 -62.102312 9.00039
13.824506 -54.42054 -7.223925
13.554775 -55.514508 -6.928995
13.484015 -54.319344 -6.557688
14.161989 -53.276815 -7.542701
13.824506 -54.42054 -7.223925
0.682322 -55.530735 40.53323
0.932002 -56.994404 40.635342
-3.718788 -37.449768 34.919367
-3.944439 -35.446316 34.949797
-3.936647 -37.182232 33.994866
-2.757033 -47.733109 10.152857
-3.545151 -46.333945 11.160946
-3.188992 -45.918436 10.220816
11.356102 -56.805653 -3.550666
11.858773 -58.137877 -3.714084
11.243099 -57.791922 -3.067446
-0.208913 -48.195206 42.177002
-0.168949 -46.808266 43.027314
-0.523848 -46.591263 42.140595
-0.233379 -49.552773 41.312984
0.12152 -49.769775 42.199703
-0.208913 -48.195206 42.177002
8.025046 -64.300215 4.73877
9.162041 -65.274031 3.981763
7.060358 -49.036734 -0.585947
7.098214 -50.082363 -0.582814
7.099093 -46.814697 -0.649284
6.268441 -45.72942 -0.09347
-0.318974 -61.053139 33.66713
-0.044456 -61.077566 34.725027
-0.297399 -59.631922 34.602103
-0.533389 -61.030737 32.587742
-0.318974 -61.053139 33.66713
-1.110294 -60.908372 29.390446
-0.930461 -60.958365 30.449738
-1.22273 -59.494896 30.366186
-1.20752 -60.838976 28.313796
-1.110294 -60.908372 29.390446
-2.874714 -38.515337 38.592917
-3.100723 -38.206188 37.695263
-2.641491 -40.387738 38.596348
-2.63051 -38.776881 39.502283
-2.874714 -38.515337 38.592917
-1.427574 -60.541804 25.130462
-1.360718 -60.655998 26.183808
-1.70952 -59.173575 26.138999
-1.40555 -60.398898 24.063907
-1.427574 -60.541804 25.130462
-5.353998 -44.896828 17.446812
-5.292553 -45.238612 18.511935
-4.216133 -47.527738 14.164115
-4.06496 -47.138644 13.138008
-3.711544 -49.375744 14.068163
-4.340551 -47.924436 15.175959
-4.216133 -47.527738 14.164115
7.098214 -50.082363 -0.582814
7.313749 -51.2941 -0.637941
6.528428 -50.417281 -0.055981
9.958426 -63.441971 1.496151
10.734468 -64.954384 1.574284
9.739541 -64.115364 2.301432
10.61775 -61.239241 -0.699156
10.38775 -61.987871 -0.008392
9.721554 -60.499752 0.011207
10.742759 -60.373297 -1.370626
11.408955 -61.861416 -1.390225
10.61775 -61.239241 -0.699156
9.994538 -49.766201 -2.852301
9.862419 -50.718249 -2.774974
9.282872 -49.734473 -2.28026
12.369254 -49.951124 -4.75735
11.552302 -49.88102 -4.101338
13.043412 -50.024174 -5.42233
12.696867 -50.972387 -5.264542
12.369254 -49.951124 -4.75735
15.063025 -50.190035 -7.521704
14.389817 -50.144216 -6.804084
15.554419 -50.215025 -8.239558
15.038605 -51.175842 -8.035953
15.063025 -50.190035 -7.521704
-0.847595 -44.943291 42.133397
-1.147685 -43.259029 42.105568
-0.887559 -46.330231 41.283085
-0.523848 -46.591263 42.140595
-0.847595 -44.943291 42.133397
-5.609388 -33.912956 29.26146
-5.577501 -32.032942 30.227995
-5.910215 -31.779165 29.243944
-5.333308 -42.858993 23.94469
-5.059632 -43.115322 24.96723
-5.455849 -41.144725 25.066461
-5.548169 -42.585171 22.909151
-5.151951 -44.555767 22.809919
-5.333308 -42.858993 23.94469
6.121617 -64.214185 7.334316
4.920931 -63.175469 8.147274
6.482368 -63.787775 6.411886
6.121617 -64.214185 7.334316
5.632344 -62.296156 6.320029
6.839495 -63.316807 5.520962
6.482368 -63.787775 6.411886
13.356485 -56.710823 -6.530741
13.056844 -56.532593 -5.88163
13.356485 -56.710823 -6.530741
13.554775 -55.514508 -6.928995
5.38024 -44.615072 0.521946
6.268441 -45.72942 -0.09347
5.318349 -45.747507 0.603519
0.872205 -58.355076 39.748487
0.932002 -56.994404 40.635342
0.602861 -58.311318 38.696217
0.872205 -58.355076 39.748487
-3.929417 -33.665993 35.866516
-3.944439 -35.446316 34.949797
-3.713474 -33.992374 36.773777
-3.929417 -33.665993 35.866516
-3.521166 -36.000017 36.788922
-3.713474 -33.992374 36.773777
-3.310384 -37.964094 36.768791
-3.521166 -36.000017 36.788922
-3.515798 -37.677929 35.854168
-3.095356 -39.8841 36.760509
-3.100723 -38.206188 37.695263
-3.310384 -37.964094 36.768791
-3.827993 -46.723429 12.156341
-3.545151 -46.333945 11.160946
-3.350159 -48.563831 12.074654
-4.06496 -47.138644 13.138008
-3.827993 -46.723429 12.156341
12.35908 -58.511242 -4.37028
11.858773 -58.137877 -3.714084
12.435589 -57.401741 -4.848903
12.35908 -58.511242 -4.37028
12.586668 -56.382584 -5.224617
12.435589 -57.401741 -4.848903
12.122854 -56.132451 -4.573018
12.744109 -55.263302 -5.605745
13.056844 -56.532593 -5.88163
12.586668 -56.382584 -5.224617
2.623245 -43.514275 2.580401
1.748799 -43.583802 3.378486
0.425848 -51.304844 42.258339
0.12152 -49.769775 42.199703
0.4036 -52.64064 41.390278
0.425848 -51.304844 42.258339
0.08887 -52.525036 40.411822
0.395416 -54.038333 40.466414
0.4036 -52.64064 41.390278
-5.241739 -32.305851 31.193567
-5.577501 -32.032942 30.227995
-4.940277 -32.556572 32.147954
-5.241739 -32.305851 31.193567
-4.975212 -34.417454 31.199897
-4.647951 -32.840753 33.085977
-4.940277 -32.556572 32.147954
-4.418024 -34.923478 33.08979
-4.647951 -32.840753 33.085977
-4.160642 -36.960904 33.053495
-4.418024 -34.923478 33.08979
-4.416368 -36.705601 32.117991
-3.934992 -38.964355 33.023066
-3.936647 -37.182232 33.994866
-4.160642 -36.960904 33.053495
-2.772949 -45.551405 9.265599
-3.188992 -45.918436 10.220816
-2.29842 -45.157215 8.374144
-1.926344 -46.923411 8.321271
-2.772949 -45.551405 9.265599
-1.754437 -44.837002 7.463078
-2.29842 -45.157215 8.374144
-1.167293 -44.486885 6.622153
-0.864672 -46.179104 6.58889
-1.754437 -44.837002 7.463078
-0.503972 -44.235941 5.753902
-1.167293 -44.486885 6.622153
0.187743 -43.951079 4.96062
0.414186 -45.544124 4.954683
-0.503972 -44.235941 5.753902
0.961163 -43.786468 4.130426
0.187743 -43.951079 4.96062
1.748799 -43.583802 3.378486
1.893537 -45.056595 3.409461
0.961163 -43.786468 4.130426
9.438077 -64.709891 3.122143
9.162041 -65.274031 3.981763
8.662035 -63.197477 3.04401
9.739541 -64.115364 2.301432
9.438077 -64.709891 3.122143
7.175021 -62.808596 4.646913
8.025046 -64.300215 4.73877
6.839495 -63.316807 5.520962
-6.262606 -31.510971 28.239643
-5.910215 -31.779165 29.243944
-6.230719 -29.630956 29.206179
-6.271753 -33.396338 27.254694
-6.262606 -31.510971 28.239643
-5.924038 -35.497637 27.248539
-6.271753 -33.396338 27.254694
2.596493 -61.017782 9.870916
3.737425 -62.102312 9.00039
8.517144 -50.822851 -1.683854
9.109981 -51.481104 -2.135286
8.476373 -51.617435 -1.616206
8.479288 -49.777222 -1.686987
8.517144 -50.822851 -1.683854
9.282872 -49.734473 -2.28026
8.479288 -49.777222 -1.686987
7.007187 -47.86489 -0.591469
7.060358 -49.036734 -0.585947
6.259722 -48.033699 -0.006376
7.007187 -47.86489 -0.591469
7.099093 -46.814697 -0.649284
3.497732 -43.403891 1.861109
3.55566 -44.743544 1.938229
2.623245 -43.514275 2.580401
4.463171 -43.427843 1.089589
3.497732 -43.403891 1.861109
5.38024 -44.615072 0.521946
4.463171 -43.427843 1.089589
0.367591 -55.415131 39.554773
0.682322 -55.530735 40.53323
0.395416 -54.038333 40.466414
0.297015 -58.247018 37.673991
0.602861 -58.311318 38.696217
0.34865 -56.843233 38.599363
0.264172 -59.685726 36.715422
0.297015 -58.247018 37.673991
0.009961 -58.217641 36.618568
0.200068 -61.092615 35.804712
0.264172 -59.685726 36.715422
0.200068 -61.092615 35.804712
-0.044456 -61.077566 34.725027
-0.768879 -60.999433 31.528378
-0.533389 -61.030737 32.587742
-0.807407 -59.576191 32.484842
-0.768879 -60.999433 31.528378
-0.930461 -60.958365 30.449738
-2.35424 -39.110924 40.369366
-2.63051 -38.776881 39.502283
-2.099188 -40.933794 40.38474
-2.35424 -39.110924 40.369366
-2.123867 -42.429918 39.495029
-1.825767 -42.714432 40.374055
-2.099188 -40.933794 40.38474
-1.32757 -60.760408 27.256521
-1.20752 -60.838976 28.313796
-1.522613 -59.366337 28.24962
-1.32757 -60.760408 27.256521
-1.360718 -60.655998 26.183808
-1.431276 -60.244807 23.01585
-1.40555 -60.398898 24.063907
-1.802103 -58.905289 24.037596
-0.969657 -61.555973 21.983769
-1.431276 -60.244807 23.01585
-1.36621 -60.062365 21.957459
-0.426441 -62.778753 21.03208
-0.969657 -61.555973 21.983769
-0.262409 -62.570364 19.965944
-0.426441 -62.778753 21.03208
-0.164184 -62.348475 18.917454
-0.262409 -62.570364 19.965944
-0.806367 -61.151641 19.876887
0.031656 -62.10753 17.864682
-0.164184 -62.348475 18.917454
0.158901 -61.846203 16.828062
0.031656 -62.10753 17.864682
-0.580898 -60.668425 17.791776
0.382621 -61.572113 15.792116
0.158901 -61.846203 16.828062
0.540987 -61.270632 14.770433
0.382621 -61.572113 15.792116
-0.295287 -60.105615 15.733472
0.792646 -60.960459 13.755801
0.540987 -61.270632 14.770433
0.988445 -60.617452 12.753984
0.792646 -60.960459 13.755801
0.058878 -59.461128 13.709971
1.269729 -60.266437 11.7664
0.988445 -60.617452 12.753984
1.510231 -59.880741 10.791417
1.269729 -60.266437 11.7664
0.495178 -58.732426 11.733169
1.821943 -59.48377 9.837685
2.596493 -61.017782 9.870916
1.510231 -59.880741 10.791417
-5.778714 -42.298369 21.857602
-5.548169 -42.585171 22.909151
-5.52278 -43.971415 20.719575
-5.778714 -42.298369 21.857602
-5.224053 -45.576197 19.55921
-5.068085 -45.886726 20.614015
-5.52278 -43.971415 20.719575
-4.837859 -47.153923 18.406375
-5.224053 -45.576197 19.55921
-5.292553 -45.238612 18.511935
-4.875749 -46.446385 16.315506
-5.353998 -44.896828 17.446812
-4.371161 -48.29439 16.219553
-4.875749 -46.446385 16.315506
-4.340551 -47.924436 15.175959
8.124465 -52.034817 -1.245074
7.554679 -52.369734 -0.718242
7.313749 -51.2941 -0.637941
8.476373 -51.617435 -1.616206
8.717302 -52.69307 -1.696506
8.124465 -52.034817 -1.245074
11.608277 -65.801147 0.86876
10.734468 -64.954384 1.574284
11.724381 -65.028183 0.077253
12.379305 -66.548339 0.177009
11.608277 -65.801147 0.86876
11.11865 -63.504176 0.025124
10.222453 -62.764687 0.735487
10.38775 -61.987871 -0.008392
11.724381 -65.028183 0.077253
11.11865 -63.504176 0.025124
12.075377 -62.492452 -2.068982
11.408955 -61.861416 -1.390225
12.105935 -61.499544 -2.728194
12.075377 -62.492452 -2.068982
11.639867 -60.059809 -2.646279
12.105935 -61.499544 -2.728194
11.053449 -58.634464 -2.562143
11.639867 -60.059809 -2.646279
10.947546 -59.570127 -1.977558
10.550778 -57.30224 -2.398725
11.243099 -57.791922 -3.067446
11.053449 -58.634464 -2.562143
10.827991 -49.806339 -3.475065
9.994538 -49.766201 -2.852301
11.298397 -50.824658 -3.973288
10.827991 -49.806339 -3.475065
11.552302 -49.88102 -4.101338
13.801724 -50.091509 -6.109796
13.043412 -50.024174 -5.42233
13.959118 -51.098145 -6.62381
13.801724 -50.091509 -6.109796
14.389817 -50.144216 -6.804084
14.558722 -52.239553 -7.775441
14.161989 -53.276815 -7.542701
14.150479 -52.188114 -7.085358
15.050116 -52.264544 -8.493296
14.558722 -52.239553 -7.775441
15.038605 -51.175842 -8.035953
15.363408 -52.286938 -9.194062
15.050116 -52.264544 -8.493296
16.134183 -50.229191 -8.986055
15.554419 -50.215025 -8.239558
16.158603 -49.243384 -8.471806
15.935963 -51.196674 -9.490167
16.134183 -50.229191 -8.986055
15.769372 -52.28278 -9.930421
15.363408 -52.286938 -9.194062
15.935963 -51.196674 -9.490167
3 0 41 39
3 159 42 160
3 161 44 162
3 163 162 42
3 161 162 163
3 164 47 165
3 166 165 45
3 164 165 166
3 167 49 168
3 169 168 47
3 167 168 169
3 171 170 49
3 1 172 174
3 172 51 173
3 172 173 174
3 1 53 51
3 2 175 177
3 177 176 54
3 175 176 177
3 2 178 179
3 3 57 55
3 180 58 181
3 4 61 59
3 4 63 61
3 5 182 184
3 182 64 183
3 182 183 184
3 5 65 64
3 5 67 65
3 6 70 68
3 6 72 70
3 6 74 72
3 7 77 75
3 7 79 77
3 8 185 187
3 185 80 186
3 185 186 187
3 8 82 80
3 8 84 82
3 3 87 85
3 3 55 87
3 9 91 89
3 9 93 91
3 10 188 190
3 188 94 189
3 188 189 190
3 11 95 40
3 11 96 95
3 12 191 193
3 191 192 193
3 12 194 196
3 194 97 195
3 194 195 196
3 12 99 97
3 14 100 43
3 14 101 100
3 15 102 46
3 15 103 102
3 15 105 103
3 17 106 48
3 17 107 106
3 17 109 107
3 19 110 50
3 19 111 110
3 197 113 198
3 22 114 52
3 22 115 114
3 23 199 200
3 202 201 56
3 13 117 98
3 24 118 60
3 24 203 205
3 205 204 118
3 203 204 205
3 24 206 207
3 25 208 210
3 210 209 62
3 208 209 210
3 25 211 212
3 26 213 214
3 26 215 217
3 215 119 216
3 215 216 217
3 26 120 119
3 27 121 66
3 27 122 121
3 16 123 104
3 28 124 69
3 28 125 124
3 28 126 125
3 29 127 71
3 29 218 220
3 220 219 127
3 218 219 220
3 29 221 222
3 30 128 73
3 30 129 128
3 18 130 108
3 31 131 76
3 31 132 131
3 31 133 132
3 32 134 78
3 32 135 134
3 223 136 224
3 33 225 226
3 33 227 229
3 227 137 228
3 227 228 229
3 33 138 137
3 34 139 81
3 34 140 139
3 34 141 140
3 35 142 83
3 35 143 142
3 20 144 112
3 36 145 86
3 36 146 145
3 36 147 146
3 23 148 88
3 23 230 232
3 232 231 148
3 230 231 232
3 21 233 235
3 233 150 234
3 233 234 235
3 38 236 238
3 238 237 90
3 236 237 238
3 38 239 241
3 239 151 240
3 239 240 241
3 38 152 151
3 37 153 92
3 37 149 153
3 242 154 243
3 244 243 116
3 242 243 244
3 245 155 246
3 247 156 248
3 249 248 155
3 247 248 249
3 250 157 251
3 252 158 253
3 254 253 157
3 252 253 254
3 39 40 10
3 41 40 39
3 41 11 40
3 42 255 256
3 42 257 259
3 257 12 258
3 257 258 259
3 42 43 12
3 44 43 42
3 44 14 43
3 45 260 262
3 260 46 261
3 260 261 262
3 47 46 45
3 47 15 46
3 47 48 15
3 49 48 47
3 49 17 48
3 49 50 17
3 263 50 264
3 265 264 49
3 263 264 265
3 266 19 267
3 268 267 50
3 266 267 268
3 51 269 270
3 51 271 272
3 51 273 275
3 273 52 274
3 273 274 275
3 53 52 51
3 53 22 52
3 54 276 277
3 279 278 54
3 55 56 23
3 57 56 55
3 57 280 282
3 282 281 56
3 280 281 282
3 58 283 284
3 58 285 286
3 59 60 13
3 61 60 59
3 61 24 60
3 61 62 24
3 63 62 61
3 63 25 62
3 64 287 288
3 64 289 290
3 64 291 292
3 65 293 295
3 295 294 64
3 293 294 295
3 65 296 298
3 296 26 297
3 296 297 298
3 65 66 26
3 67 66 65
3 67 27 66
3 68 69 16
3 70 69 68
3 70 28 69
3 70 71 28
3 72 71 70
3 72 29 71
3 72 73 29
3 74 73 72
3 74 30 73
3 75 76 18
3 77 76 75
3 77 31 76
3 77 78 31
3 79 78 77
3 79 32 78
3 80 299 300
3 80 301 303
3 301 33 302
3 301 302 303
3 80 81 33
3 82 81 80
3 82 34 81
3 82 83 34
3 84 83 82
3 84 35 83
3 85 86 20
3 87 86 85
3 87 36 86
3 87 88 36
3 55 88 87
3 55 23 88
3 89 90 21
3 91 90 89
3 91 38 90
3 91 92 38
3 93 92 91
3 93 37 92
3 94 304 305
3 94 306 307
3 40 94 10
3 95 94 40
3 95 308 310
3 310 309 94
3 308 309 310
3 95 311 313
3 311 54 312
3 311 312 313
3 96 54 95
3 96 2 54
3 315 314 3
3 97 316 317
3 97 318 319
3 97 320 322
3 320 98 321
3 320 321 322
3 99 98 97
3 99 13 98
3 43 99 12
3 100 99 43
3 100 13 99
3 100 59 13
3 101 59 100
3 101 4 59
3 46 323 324
3 102 325 327
3 327 326 46
3 325 326 327
3 102 328 329
3 102 330 331
3 103 332 334
3 334 333 102
3 332 333 334
3 103 335 337
3 335 5 336
3 335 336 337
3 103 104 5
3 105 104 103
3 105 16 104
3 48 105 15
3 106 105 48
3 106 16 105
3 106 68 16
3 107 68 106
3 107 6 68
3 107 108 6
3 109 108 107
3 109 18 108
3 50 109 17
3 110 109 50
3 110 18 109
3 110 75 18
3 111 75 110
3 111 7 75
3 338 8 339
3 340 112 341
3 342 341 8
3 340 341 342
3 343 112 344
3 345 20 346
3 347 346 112
3 345 346 347
3 348 20 349
3 350 85 351
3 352 351 20
3 350 351 352
3 353 85 354
3 355 3 356
3 357 356 85
3 355 356 357
3 113 358 359
3 113 360 362
3 360 21 361
3 360 361 362
3 52 363 365
3 363 113 364
3 363 364 365
3 114 113 52
3 114 21 113
3 114 89 21
3 115 89 114
3 115 9 89
3 366 45 367
3 366 367 368
3 369 45 370
3 372 371 45
3 373 1 374
3 375 116 376
3 377 376 0
3 375 376 377
3 378 116 379
3 381 380 116
3 56 382 384
3 384 383 23
3 382 383 384
3 386 385 56
3 387 57 388
3 389 388 3
3 387 388 389
3 390 57 391
3 393 392 57
3 98 394 396
3 394 58 395
3 394 395 396
3 117 58 98
3 117 397 399
3 399 398 58
3 397 398 399
3 60 117 13
3 118 117 60
3 118 400 402
3 402 401 117
3 400 401 402
3 118 403 404
3 406 405 118
3 62 407 409
3 409 408 24
3 407 408 409
3 411 410 62
3 119 412 413
3 119 414 415
3 119 416 418
3 416 44 417
3 416 417 418
3 120 44 119
3 120 14 44
3 66 120 26
3 121 120 66
3 121 14 120
3 121 101 14
3 122 101 121
3 122 4 101
3 104 67 5
3 123 67 104
3 123 27 67
3 69 123 16
3 124 123 69
3 124 27 123
3 124 122 27
3 125 122 124
3 125 4 122
3 125 63 4
3 126 63 125
3 126 25 63
3 71 126 28
3 127 126 71
3 127 25 126
3 127 419 421
3 421 420 25
3 419 420 421
3 423 422 127
3 73 424 426
3 426 425 29
3 424 425 426
3 128 427 429
3 429 428 73
3 427 428 429
3 128 430 431
3 128 432 433
3 129 434 436
3 436 435 128
3 434 435 436
3 129 437 438
3 108 74 6
3 130 74 108
3 130 30 74
3 76 130 18
3 131 130 76
3 131 30 130
3 131 129 30
3 132 129 131
3 132 439 441
3 441 440 129
3 439 440 441
3 132 442 443
3 133 444 446
3 446 445 132
3 444 445 446
3 133 447 448
3 78 133 31
3 134 133 78
3 134 449 451
3 451 450 133
3 449 450 451
3 134 452 453
3 135 454 456
3 456 455 134
3 454 455 456
3 135 457 459
3 457 1 458
3 457 458 459
3 460 19 461
3 462 19 463
3 464 111 465
3 466 465 19
3 464 465 466
3 136 467 469
3 467 111 468
3 467 468 469
3 136 7 111
3 470 136 471
3 137 472 474
3 472 136 473
3 472 473 474
3 137 7 136
3 137 79 7
3 138 79 137
3 138 32 79
3 81 138 33
3 139 138 81
3 139 32 138
3 139 135 32
3 140 135 139
3 140 1 135
3 140 53 1
3 141 53 140
3 141 22 53
3 83 141 34
3 142 141 83
3 142 22 141
3 142 115 22
3 143 115 142
3 143 9 115
3 112 84 8
3 144 84 112
3 144 35 84
3 86 144 20
3 145 144 86
3 145 35 144
3 145 143 35
3 146 143 145
3 146 9 143
3 146 93 9
3 147 93 146
3 147 37 93
3 88 147 36
3 148 147 88
3 148 37 147
3 148 149 37
3 475 149 476
3 477 476 148
3 475 476 477
3 478 0 479
3 480 479 149
3 478 479 480
3 150 481 482
3 150 483 485
3 483 484 485
3 90 150 21
3 486 150 487
3 488 487 90
3 486 487 488
3 490 489 150
3 151 491 492
3 151 493 494
3 151 495 496
3 152 497 499
3 499 498 151
3 497 498 499
3 152 500 502
3 500 10 501
3 500 501 502
3 92 152 38
3 153 152 92
3 153 10 152
3 153 39 10
3 149 39 153
3 149 0 39
3 116 41 0
3 154 41 116
3 154 11 41
3 503 154 504
3 155 505 507
3 505 154 506
3 505 506 507
3 155 11 154
3 155 96 11
3 156 96 155
3 156 2 96
3 508 156 509
3 157 510 512
3 510 156 511
3 510 511 512
3 157 2 156
3 157 513 515
3 515 514 2
3 513 514 515
3 158 516 518
3 518 517 157
3 516 517 518
3 158 519 520
3 521 158 522
3 521 522 523
3 524 158 525
3 528 527 158
3 526 527 528
