ply
format ascii 1.0
element vertex 188
property float x
property float y
property float z
element face 169
property list uchar int vertex_index
end_header
30.246103 -15.23662 -45.833664
29.533188 -3.07889 -51.208328
28.642673 -8.074938 -47.171738
29.087294 -2.649885 -48.440498
32.694553 -10.782574 -49.414574
28.849384 -18.570335 -40.381004
28.566042 -13.796758 -44.875725
29.647896 -8.987889 -48.964699
32.037003 -4.427565 -52.605583
29.883675 2.458302 -52.208878
28.977097 -15.793559 -41.628784
28.553909 -16.201113 -42.675751
28.604658 -13.365813 -43.930229
28.903116 -5.558352 -49.249672
28.856693 -8.431789 -48.231255
29.53001 -5.991718 -50.219574
30.697948 -6.653664 -50.84668
30.544939 -3.626755 -52.086357
30.596498 7.195215 -49.472313
30.212337 4.695786 -47.849068
30.068111 4.937284 -50.149704
29.639385 2.503681 -50.459969
30.234407 5.038361 -52.154312
29.438669 -17.51667 -43.881432
28.743889 -10.586357 -44.985062
28.827915 -5.320884 -47.95414
29.055792 -2.768017 -49.986122
31.342646 -12.979372 -47.677467
28.597216 -19.091518 -41.248199
28.697292 -16.75849 -43.431091
29.125443 -14.408703 -45.512924
28.549948 -10.901971 -46.133018
28.928963 -11.382061 -46.973045
29.889242 -12.067581 -47.489372
30.967186 -9.768545 -49.35981
32.319477 -7.554974 -51.121017
29.302952 -0.073893 -50.400085
29.651745 -0.256641 -51.884697
30.601486 2.159451 -53.615616
30.511532 -0.686279 -53.025406
31.861084 -1.388708 -53.804794
29.069793 -14.42585 -42.162365
29.395774 -15.6278 -40.972557
28.883574 -13.211977 -43.313087
28.790878 -14.579686 -42.779506
29.069793 -14.42585 -42.162365
30.655851 7.320522 -50.592156
30.966561 8.415826 -50.181702
30.391658 6.191556 -50.930851
30.332304 6.066249 -49.811008
30.655851 7.320522 -50.592156
30.474806 6.242095 -51.933155
30.151259 4.987823 -51.152008
30.391658 6.191556 -50.930851
30.470954 -16.871097 -44.931732
30.067237 -18.011122 -43.955616
29.842386 -16.376645 -44.857548
28.957605 -3.985385 -48.197319
29.022483 -5.269181 -47.155323
29.152173 -3.933681 -47.398502
32.917041 -12.454143 -48.480626
32.241088 -13.552542 -47.612072
32.0186 -11.880973 -48.54602
29.111404 -19.726406 -39.19445
29.217202 -18.365302 -39.811798
28.816381 -19.97875 -39.678421
29.0784 -21.134821 -38.491867
29.111404 -19.726406 -39.19445
28.7233 -18.830927 -40.814601
28.690297 -20.239342 -40.112019
28.816381 -19.97875 -39.678421
32.968826 -4.953474 -52.68264
33.110063 -6.517178 -51.940357
32.17824 -5.991269 -51.8633
30.179851 3.44958 -46.962231
29.996658 3.537279 -48.124558
31.202319 1.862223 -54.137848
31.239638 3.291409 -54.37075
31.157342 0.439358 -53.842743
30.556509 0.736586 -53.320511
31.202319 1.862223 -54.137848
31.832118 0.088143 -54.232437
31.186308 -1.037494 -53.4151
31.157342 0.439358 -53.842743
29.298466 -2.648395 -47.519722
29.152173 -3.933681 -47.398502
33.684773 -11.407404 -49.278458
33.477657 -9.738938 -50.229523
29.281059 -16.976914 -40.435688
29.395774 -15.6278 -40.972557
28.913241 -17.181947 -41.004894
29.217202 -18.365302 -39.811798
29.281059 -16.976914 -40.435688
30.912253 8.220918 -48.960651
30.966561 8.415826 -50.181702
30.651137 7.024655 -48.216865
30.966892 8.050357 -47.705204
30.912253 8.220918 -48.960651
30.404418 5.9455 -48.660691
30.459057 5.77494 -47.405243
30.651137 7.024655 -48.216865
29.924545 3.658028 -49.274876
29.996658 3.537279 -48.124558
30.140224 4.816535 -48.999386
29.853748 3.720483 -50.304837
29.710182 2.441227 -49.430008
29.924545 3.658028 -49.274876
29.641974 -19.116574 -42.991672
29.187221 -18.654311 -42.852161
29.641974 -19.116574 -42.991672
30.067237 -18.011122 -43.955616
29.067465 -10.477678 -44.268547
28.953189 -11.822249 -43.840504
28.84955 -9.226968 -45.395791
29.067465 -10.477678 -44.268547
28.798941 -7.971259 -46.489128
28.693281 -9.330647 -46.0784
28.84955 -9.226968 -45.395791
28.891562 -6.594232 -46.88033
29.022483 -5.269181 -47.155323
28.735294 -6.697911 -47.562939
28.798941 -7.971259 -46.489128
28.891562 -6.594232 -46.88033
31.572356 -14.638727 -46.761009
31.024085 -15.767351 -45.839107
30.794374 -14.107996 -46.755566
32.470799 -15.211897 -46.695614
31.572356 -14.638727 -46.761009
32.241088 -13.552542 -47.612072
32.917041 -12.454143 -48.480626
33.684773 -11.407404 -49.278458
28.661845 -20.56659 -40.457661
28.690297 -20.239342 -40.112019
28.766494 -19.441735 -41.535545
28.661845 -20.56659 -40.457661
28.816532 -18.275221 -42.626991
28.766494 -19.441735 -41.535545
28.647254 -17.925004 -42.339645
29.067981 -17.13758 -43.656261
29.187221 -18.654311 -42.852161
28.816532 -18.275221 -42.626991
28.674273 -11.976085 -44.457645
28.883574 -13.211977 -43.313087
28.953189 -11.822249 -43.840504
33.290119 -8.125138 -51.082745
33.477657 -9.738938 -50.229523
32.507015 -9.168774 -50.267796
33.290119 -8.125138 -51.082745
33.110063 -6.517178 -51.940357
30.353195 4.5771 -46.582276
30.459057 5.77494 -47.405243
30.353195 4.5771 -46.582276
30.179851 3.44958 -46.962231
29.247046 -1.363407 -48.518406
29.298466 -2.648395 -47.519722
29.523092 1.213376 -49.528141
29.710182 2.441227 -49.430008
29.354875 -0.075411 -49.498199
29.523092 1.213376 -49.528141
29.471169 1.214894 -50.430027
29.195123 -1.361889 -49.420291
29.247046 -1.363407 -48.518406
29.354875 -0.075411 -49.498199
30.714912 6.251743 -52.889225
30.474806 6.242095 -51.933155
30.529309 4.963598 -52.987797
30.714912 6.251743 -52.889225
31.009814 6.176979 -53.72271
30.353943 3.673568 -53.015079
30.059041 3.748331 -52.181595
30.529309 4.963598 -52.987797
30.712848 3.524142 -53.718449
31.239638 3.291409 -54.37075
30.242581 2.308877 -52.912247
30.353943 3.673568 -53.015079
30.712848 3.524142 -53.718449
32.648163 -0.360119 -54.566921
31.832118 0.088143 -54.232437
32.74 -1.876132 -54.008335
32.648163 -0.360119 -54.566921
33.527079 -0.847543 -54.770462
32.827959 -3.395561 -53.408729
31.949044 -2.908137 -53.205189
32.74 -1.876132 -54.008335
32.968826 -4.953474 -52.68264
32.827959 -3.395561 -53.408729
30.470954 -16.871097 -44.931732
31.024085 -15.767351 -45.839107
3 41 10 42
3 43 12 44
3 45 44 10
3 43 44 45
3 1 15 13
3 1 17 15
3 46 18 47
3 48 20 49
3 50 49 18
3 48 49 50
3 51 22 52
3 53 52 20
3 51 52 53
3 0 54 56
3 56 55 23
3 54 55 56
3 3 57 59
3 57 25 58
3 57 58 59
3 3 26 25
3 4 60 62
3 62 61 27
3 60 61 62
3 5 63 64
3 5 65 67
3 65 66 67
3 5 68 70
3 68 28 69
3 68 69 70
3 6 29 11
3 6 30 29
3 2 31 24
3 7 32 14
3 7 33 32
3 7 34 33
3 8 35 16
3 8 71 73
3 73 72 35
3 71 72 73
3 75 74 19
3 9 36 21
3 9 37 36
3 76 38 77
3 78 39 79
3 80 79 38
3 78 79 80
3 81 40 82
3 83 82 39
3 81 82 83
3 84 3 85
3 87 86 4
3 10 88 89
3 10 90 92
3 90 5 91
3 90 91 92
3 10 11 5
3 12 11 10
3 12 6 11
3 13 14 2
3 15 14 13
3 15 7 14
3 15 16 7
3 17 16 15
3 17 8 16
3 18 93 94
3 18 95 97
3 95 96 97
3 18 98 100
3 98 19 99
3 98 99 100
3 20 19 18
3 20 101 103
3 103 102 19
3 101 102 103
3 20 104 106
3 104 21 105
3 104 105 106
3 22 21 20
3 22 9 21
3 23 107 108
3 110 109 23
3 111 24 112
3 113 24 114
3 115 2 116
3 117 116 24
3 115 116 117
3 25 118 119
3 25 120 122
3 120 2 121
3 120 121 122
3 25 13 2
3 26 13 25
3 26 1 13
3 27 123 125
3 125 124 0
3 123 124 125
3 128 127 27
3 126 127 128
3 130 129 4
3 28 131 132
3 28 133 134
3 11 28 5
3 29 28 11
3 29 135 137
3 137 136 28
3 135 136 137
3 29 138 140
3 138 23 139
3 138 139 140
3 30 23 29
3 30 0 23
3 24 141 143
3 141 12 142
3 141 142 143
3 31 12 24
3 31 6 12
3 14 31 2
3 32 31 14
3 32 6 31
3 32 30 6
3 33 30 32
3 33 0 30
3 33 27 0
3 34 27 33
3 34 4 27
3 16 34 7
3 35 34 16
3 35 4 34
3 35 144 146
3 146 145 4
3 144 145 146
3 148 147 35
3 19 149 150
3 152 151 19
3 153 3 154
3 21 155 156
3 36 157 159
3 159 158 21
3 157 158 159
3 36 160 162
3 160 3 161
3 160 161 162
3 36 26 3
3 37 26 36
3 37 1 26
3 163 22 164
3 165 22 166
3 165 166 167
3 168 9 169
3 170 169 22
3 168 169 170
3 38 171 172
3 38 173 175
3 173 9 174
3 173 174 175
3 38 37 9
3 39 37 38
3 39 1 37
3 39 17 1
3 40 17 39
3 40 8 17
3 176 40 177
3 178 40 179
3 178 179 180
3 181 8 182
3 183 182 40
3 181 182 183
3 185 184 8
3 187 186 0
