ply
format ascii 1.0
element vertex 559
property float x
property float y
property float z
element face 680
property list uchar int vertex_index
end_header
-2.518732 -36.854034 85.174385
0.244276 -6.560209 82.803253
1.928841 -28.353233 65.833199
0.533854 -45.019615 78.97171
3.38047 -41.620026 68.261215
-1.385149 -32.798794 75.856186
0.579529 -47.316475 87.757957
-0.418556 -27.919472 88.782555
-2.245325 -22.722704 83.696625
5.43852 -49.703064 62.152931
6.019957 -38.019035 58.297752
4.680784 -23.700863 57.22081
-1.435427 -17.521387 75.22155
1.029964 -12.588961 66.32
3.081182 -7.746293 58.332222
-1.419146 -41.100468 82.19104
-0.618658 -39.319019 77.148117
-2.34025 -34.932823 80.813881
-1.673006 -38.345165 88.353355
-0.048866 -43.291653 89.421875
-1.300272 -42.494034 86.483322
0.05167 -46.411976 83.857628
0.710598 -20.960861 88.189117
4.671547 -51.051052 67.229904
2.645782 -35.345467 66.642044
4.985376 -39.847824 63.055847
4.387995 -33.289349 61.725357
5.478487 -31.161673 57.339058
3.644299 -26.061476 61.259026
-1.140312 -14.751128 83.259972
-2.084654 -20.070324 79.662674
-1.272547 -11.873024 79.58651
-0.223736 -6.663473 71.205116
2.355394 -10.159456 62.170074
2.490606 -48.757187 75.711609
3.816372 -47.249786 70.375893
1.753569 -43.363972 73.650269
0.834612 -37.360783 71.857101
0.11776 -30.592783 70.763824
-0.304628 -3.500741 79.535019
2.259863 -47.585098 90.074715
1.622076 -50.156853 80.764801
-2.23303 -32.360302 87.507278
-2.797518 -30.200508 84.264587
-1.758249 -25.41008 86.892784
-0.535023 -17.831114 86.227203
1.134918 -9.937715 85.371284
5.541294 -48.349174 57.483086
5.172564 -45.732811 65.051636
6.073835 -44.193687 60.022057
6.083179 -42.577122 55.615578
5.981609 -36.094109 54.291222
5.396347 -28.944668 53.726494
4.535473 -21.271809 53.87529
-2.518164 -27.850916 80.002472
-1.624052 -25.469837 75.257912
-0.268726 -23.097549 70.442749
-0.977629 -9.194741 75.490417
-0.356415 -15.041361 70.70565
1.375185 -20.707771 65.81813
2.929865 -18.278969 61.535706
3.827644 -15.81496 57.709991
3.608416 -13.305792 54.419708
-2.118055 -39.019958 83.734833
-1.970209 -38.135902 81.437569
-2.542715 -35.932758 83.104073
-2.236853 -37.667336 86.948128
-1.646086 -40.444641 87.532669
-2.019556 -39.798965 85.792397
-1.490644 -41.860363 84.468704
2.27253 -31.937986 66.130173
3.559628 -34.324211 64.133041
3.192137 -30.854053 63.703255
4.021627 -29.754566 61.384621
2.832621 -27.215454 63.490662
-0.466644 -10.669547 83.043007
-1.259115 -13.284345 81.493233
-0.678848 -9.148891 81.382141
1.570671 -46.89933 77.344696
2.175428 -46.119659 74.687386
1.070763 -44.211399 76.338226
-1.067102 -36.166679 76.416275
0.043213 -38.351799 74.50959
-0.37499 -35.128204 73.813545
0.437153 -34.073975 71.21064
-0.689178 -31.700279 73.304832
0.174103 -45.315269 88.732544
1.055355 -45.482201 89.85891
1.275251 -47.533016 89.145103
1.076515 -49.293091 86.536133
0.181921 -45.76292 81.499596
0.862574 -48.297455 82.356346
1.119276 -47.634338 79.919403
1.975117 -49.481388 78.295975
-1.51185 -30.11149 88.294525
-2.109541 -28.986881 87.188698
-1.204657 -26.704411 88.02861
1.51265 -17.295248 87.720978
-0.003916 -19.40624 87.352951
0.810041 -15.59822 86.894867
0.261292 -13.90844 85.823883
-0.660688 -31.127787 88.984512
-1.567553 -33.295578 88.574806
5.588375 -49.031006 59.747063
3.661053 -44.505241 69.28907
4.520149 -46.491245 67.695763
4.435835 -43.690147 66.613441
5.609753 -38.943581 60.601807
5.734022 -42.040482 61.471085
6.122597 -41.19294 59.080956
6.20978 -43.397915 57.720779
6.258703 -40.321823 56.867203
6.105011 -39.423912 54.866486
6.156466 -37.069767 56.183403
5.098274 -27.497847 57.182602
5.60458 -30.064388 55.424484
5.210602 -26.339207 55.352661
4.987148 -25.160757 53.725662
4.773809 -22.495005 55.456253
-2.608782 -26.54401 83.951752
-2.74774 -29.036705 82.225349
-2.564554 -25.285385 81.952271
-1.816114 -18.783838 77.469437
-2.028101 -22.787018 77.512863
-1.573378 -21.558311 75.183624
-0.996155 -24.283638 72.839493
-1.008831 -20.339914 72.841377
-0.805332 -6.30378 77.651207
-0.69779 -4.966269 75.633102
0.28727 -9.645607 68.775436
-0.311541 -10.875978 70.952774
0.314854 -13.812732 68.488457
0.395056 -17.91102 68.243324
1.175873 -16.692451 66.029686
2.197174 -19.498356 63.626801
1.940985 -15.469996 63.891586
2.825466 -8.95323 60.207581
3.139957 -13.018445 59.886093
3.432821 -11.788519 58.039879
3.871906 -14.568644 55.99736
3.452755 -10.549077 56.307266
-0.501385 -43.094978 80.592255
-0.067806 -42.261711 78.019882
-1.117239 -40.243649 79.727722
-1.609007 -37.176064 78.975868
-1.944334 -33.881065 78.376663
-0.815891 -38.866585 89.333305
-0.013865 -41.255096 89.799248
-0.978958 -40.934246 88.885498
-0.823709 -42.976532 88.15696
-0.410807 -44.978931 87.173195
0.175877 -46.937836 85.97049
-0.70409 -44.482162 85.244743
-0.724707 -43.845081 83.024658
0.053459 -24.515331 88.534798
5.119438 -50.373734 64.660942
3.026581 -38.57135 67.361961
4.218014 -40.738014 65.620598
3.912252 -37.618752 64.779419
4.719353 -36.655067 62.2873
5.371698 -35.674786 59.918755
5.795219 -34.673012 57.710602
5.052738 -32.236256 59.449631
4.682142 -28.636314 59.201576
4.285175 -24.889889 59.161339
-1.744204 -18.779253 83.47258
-2.233183 -21.384396 81.755653
-1.787409 -17.372625 81.610092
-1.71163 -16.007421 79.605095
-1.525663 -14.682049 77.50116
0.302542 -5.444114 69.041588
0.934324 -8.43184 66.626671
1.733059 -11.37089 64.210777
1.57369 -7.23516 64.516434
3.188578 -50.605412 74.064911
3.800932 -49.883743 71.439941
3.121357 -48.007835 73.058914
2.888775 -45.316986 71.990646
2.539742 -42.496468 70.947357
0.540657 -41.373436 75.368134
1.28738 -40.453133 72.684631
2.132023 -39.516483 70.006065
1.717724 -36.357262 69.225273
1.334627 -33.010345 68.640633
1.004625 -29.477825 68.264893
-0.076555 -4.991323 81.248154
0.838026 -48.859406 84.587646
1.474682 -50.755539 83.058968
2.648886 -51.31868 76.631004
-2.566786 -34.62236 86.451233
-2.776079 -33.648945 84.664864
-2.635836 -31.318253 86.049118
-2.467081 -27.786915 85.719727
-2.09651 -24.072323 85.428917
-0.688 -23.120964 87.726608
-1.220194 -21.677006 86.580597
-1.563547 -20.220119 85.145798
-0.905602 -16.271053 84.850296
-0.15733 -12.258762 84.531952
0.64752 -8.210383 84.182541
2.051514 -5.942226 84.868431
1.474613 -4.148052 83.787743
-1.339396 -36.219048 88.91526
-2.093653 -35.488167 87.888474
5.285746 -47.65094 55.39315
4.430498 -49.164783 68.791939
5.019835 -48.451725 66.155403
5.511156 -47.741318 63.567062
5.14954 -42.870476 63.995468
5.71076 -44.969509 62.480057
5.849798 -47.026375 61.067451
5.989428 -46.298615 58.699409
5.89801 -45.551071 56.503319
5.562981 -44.779751 54.509659
5.681629 -41.729553 53.733421
5.650644 -38.499046 53.100708
5.487234 -35.092785 52.636795
5.929108 -33.646965 55.698738
5.736694 -32.596169 53.910118
5.213333 -31.521553 52.35331
4.430984 -23.961786 52.296486
-2.749285 -32.597755 82.602142
-2.518896 -31.496574 80.33786
-2.116167 -30.367664 77.941696
-2.363405 -24.029873 79.786255
-2.136602 -26.659311 77.661148
-1.56735 -29.225916 75.474205
-0.893875 -28.078827 72.985214
-0.116625 -26.927849 70.514069
0.737217 -25.770618 68.090828
-0.794727 -7.695665 79.57592
-1.180845 -10.512376 77.574905
-1.230207 -13.389866 75.337273
-0.657274 -7.913188 73.360085
-0.823837 -12.123141 73.146072
-0.946371 -16.276134 72.9571
-0.345671 -19.125895 70.519691
0.534533 -21.906897 68.095451
1.627377 -24.603373 65.738686
2.497108 -23.422962 63.476822
3.275188 -22.227978 61.323357
3.88372 -21.01878 59.296745
2.620501 -14.245018 61.840065
3.496716 -17.050987 59.559013
4.249994 -19.796406 57.414833
4.319586 -18.560846 55.690804
4.067375 -17.309422 54.127022
1.088851 -48.447246 87.940521
1.436712 -48.555517 88.634094
0.92739 -47.424746 88.45153
0.828022 -48.304783 87.147045
1.337344 -49.435554 87.329609
1.088851 -48.447246 87.940521
1.617906 -14.573726 87.01463
1.161345 -16.446734 87.307923
1.969211 -15.42224 87.427685
1.265195 -13.662557 86.626522
1.617906 -14.573726 87.01463
-0.539622 -29.523629 88.883533
-0.028085 -30.074124 89.049701
0.092982 -28.469967 88.948723
5.22603 -50.656328 61.477101
5.142482 -50.973282 62.681095
5.513447 -49.367035 60.949997
5.300957 -50.320299 60.274166
5.22603 -50.656328 61.477101
-0.553999 -2.849203 75.671963
-0.559835 -3.524504 76.658031
3.081081 -7.136777 57.440449
3.266868 -8.53817 56.427971
3.266968 -9.147685 57.319744
4.606244 -51.971498 66.458763
4.401916 -52.305908 67.714043
4.895492 -50.712393 65.945423
4.830189 -51.63284 65.174282
4.606244 -51.971498 66.458763
0.592271 -4.849429 67.961922
0.32545 -3.34188 69.131531
0.908162 -6.343292 66.754463
0.618433 -6.937977 67.83413
0.592271 -4.849429 67.961922
1.227845 -5.744953 65.699345
1.254007 -7.8335 65.571552
0.908162 -6.343292 66.754463
0.485994 -43.363647 89.826897
0.503494 -42.345369 90.015583
-0.031365 -42.273375 89.610562
2.24061 -46.534729 90.294072
1.638356 -45.483281 90.186169
1.657609 -46.53365 89.966813
2.886842 -47.534566 90.296738
2.24061 -46.534729 90.294072
2.877893 -48.629646 90.017521
3.504872 -48.579115 90.239544
2.886842 -47.534566 90.296738
1.808694 -51.39718 81.087834
1.734997 -51.696523 82.234917
1.548379 -50.456196 81.911884
1.928373 -51.080677 79.930722
1.808694 -51.39718 81.087834
2.513203 -3.941917 84.586331
2.874282 -4.914846 84.978993
2.224753 -3.04483 84.045986
1.763063 -5.045139 84.328087
2.513203 -3.941917 84.586331
1.882061 -2.119093 83.555344
2.224753 -3.04483 84.045986
-0.985294 -35.157652 89.060021
-0.820829 -36.507076 89.204239
5.197013 -49.349838 56.911507
5.280082 -49.665401 57.991982
5.41352 -48.000057 56.438118
5.069239 -49.000721 55.866539
5.197013 -49.349838 56.911507
5.124659 -28.373829 52.986508
5.033152 -29.662272 52.299915
5.30484 -30.233111 53.039902
4.254075 -20.65012 53.171325
4.20183 -21.995109 52.381923
4.483228 -22.616798 53.085888
-0.440505 -7.28833 72.282601
-0.560495 -5.795573 73.451797
-0.343726 -5.170716 72.374313
3.556194 -14.670977 53.564346
3.785673 -16.672792 53.418003
3.837896 -15.307607 54.273365
3.329774 -12.661132 53.68996
3.556194 -14.670977 53.564346
4.407675 -51.39567 68.525276
4.401916 -52.305908 67.714043
1.841833 -48.618576 89.212429
2.334139 -48.644617 89.677235
1.767557 -47.559057 89.609909
1.841833 -48.618576 89.212429
1.436712 -48.555517 88.634094
1.506316 -50.452293 86.686043
1.337344 -49.435554 87.329609
1.323335 -50.270925 85.822163
1.506316 -50.452293 86.686043
0.990821 -12.817667 86.09103
0.535667 -14.75333 86.359375
1.265195 -13.662557 86.626522
1.427634 -10.832304 85.864731
0.698105 -11.923078 85.597583
0.990821 -12.817667 86.09103
-0.108994 -31.567659 89.106381
-0.028085 -30.074124 89.049701
-0.645939 -32.612021 89.094646
-0.108994 -31.567659 89.106381
-1.114121 -32.211683 88.779659
-1.099372 -33.695917 88.889793
-0.645939 -32.612021 89.094646
5.303623 -50.006317 59.12397
5.300957 -50.320299 60.274166
5.564834 -48.69009 58.615074
5.280082 -49.665401 57.991982
5.303623 -50.006317 59.12397
-0.613606 -4.193259 77.667084
-0.55498 -4.90226 78.593113
-0.363254 -2.79174 78.60899
-0.751561 -5.635025 76.642155
-0.613606 -4.193259 77.667084
-0.559835 -3.524504 76.658031
3.317765 -9.919124 55.49596
3.395595 -11.297481 54.552181
3.530585 -11.927435 55.363487
3.317765 -9.919124 55.49596
3.266868 -8.53817 56.427971
-0.414878 -40.06084 89.566277
0.157773 -40.238349 89.828774
-0.24324 -39.044094 89.595802
0.533718 -25.168097 88.748749
-0.182549 -26.217402 88.658676
0.29771 -26.870167 88.872627
0.83861 -23.484251 88.616505
0.533718 -25.168097 88.748749
1.16718 -21.707016 88.443664
0.382028 -22.738096 88.361957
0.83861 -23.484251 88.616505
1.550126 -19.959036 88.23278
1.16718 -21.707016 88.443664
1.951152 -18.12623 87.998711
1.111624 -19.128055 87.955048
1.550126 -19.959036 88.23278
2.394125 -16.329644 87.705437
1.951152 -18.12623 87.998711
2.832626 -17.160626 87.98317
1.969211 -15.42224 87.427685
2.394125 -16.329644 87.705437
0.29771 -26.870167 88.872627
0.092982 -28.469967 88.948723
4.982941 -51.308617 63.935101
4.830189 -51.63284 65.174282
5.278979 -50.038399 63.406937
5.142482 -50.973282 62.681095
4.982941 -51.308617 63.935101
-0.165625 -4.549831 71.303024
-0.343726 -5.170716 72.374313
0.097513 -3.940152 70.22126
0.32545 -3.34188 69.131531
0.039403 -6.053793 70.123352
-0.165625 -4.549831 71.303024
0.097513 -3.940152 70.22126
1.516316 -5.164393 64.627682
1.227845 -5.744953 65.699345
1.856055 -6.644657 63.485462
1.516316 -5.164393 64.627682
2.246907 -8.106806 62.312282
1.964542 -8.697308 63.343254
1.856055 -6.644657 63.485462
2.481943 -7.503692 61.331036
2.59043 -9.556343 61.188828
2.246907 -8.106806 62.312282
2.693173 -6.918181 60.32943
2.481943 -7.503692 61.331036
2.82103 -6.314713 59.391751
2.953324 -8.349761 59.269902
2.693173 -6.918181 60.32943
2.932579 -5.728482 58.424247
2.82103 -6.314713 59.391751
3.494755 -50.244578 72.752426
3.695479 -51.162647 71.918296
3.389302 -51.523482 73.230782
0.441822 -3.717896 81.881184
0.083861 -5.775766 82.025703
0.602237 -4.502339 82.658733
0.2213 -2.912096 81.151223
0.441822 -3.717896 81.881184
0.107263 -2.166805 80.294655
-0.190591 -4.246032 80.391587
0.2213 -2.912096 81.151223
-0.065613 -1.405362 79.476562
0.107263 -2.166805 80.294655
-0.363254 -2.79174 78.60899
-0.065613 -1.405362 79.476562
0.611526 -41.331581 90.025483
0.157773 -40.238349 89.828774
0.611526 -41.331581 90.025483
0.503494 -42.345369 90.015583
1.038104 -44.458922 90.045414
0.485994 -43.363647 89.826897
0.503244 -44.386927 89.640392
1.038104 -44.458922 90.045414
1.638356 -45.483281 90.186169
2.877893 -48.629646 90.017521
2.334139 -48.644617 89.677235
1.20409 -50.054083 84.847919
1.323335 -50.270925 85.822163
0.957271 -49.076248 85.56189
1.522418 -51.00215 84.08358
1.20409 -50.054083 84.847919
1.156354 -49.807473 83.823307
1.724744 -51.972297 83.2854
1.522418 -51.00215 84.08358
1.724744 -51.972297 83.2854
1.734997 -51.696523 82.234917
2.104893 -50.742945 78.696309
1.928373 -51.080677 79.930722
1.798596 -49.81912 79.530388
2.441777 -51.661591 77.863823
2.104893 -50.742945 78.696309
2.312002 -50.400034 77.46349
2.638677 -52.581784 76.994934
2.441777 -51.661591 77.863823
2.857534 -52.233332 75.77658
2.638677 -52.581784 76.994934
3.127381 -51.876698 74.493534
2.857534 -52.233332 75.77658
2.918732 -50.962046 75.347958
3.389302 -51.523482 73.230782
3.127381 -51.876698 74.493534
1.914652 -8.877058 85.563026
1.427634 -10.832304 85.864731
2.37295 -6.879314 85.311599
2.874282 -4.914846 84.978993
1.593216 -7.939971 85.119857
1.914652 -8.877058 85.563026
2.37295 -6.879314 85.311599
1.217406 -3.29626 83.150979
0.602237 -4.502339 82.658733
0.859444 -5.354131 83.295498
1.217406 -3.29626 83.150979
1.882061 -2.119093 83.555344
-0.559077 -37.830845 89.413261
-0.24324 -39.044094 89.595802
0.013574 -38.008354 89.675758
-1.077643 -37.542817 89.124282
-0.559077 -37.830845 89.413261
-0.820829 -36.507076 89.204239
-1.453475 -34.757313 88.745033
-0.985294 -35.157652 89.060021
-1.099372 -33.695917 88.889793
4.902501 -48.679891 54.865997
5.069239 -49.000721 55.866539
5.056858 -47.29195 54.443787
4.673613 -48.320902 53.916634
4.902501 -48.679891 54.865997
3.972367 -50.812016 70.630295
3.695479 -51.162647 71.918296
4.287151 -50.452535 69.306294
3.972367 -50.812016 70.630295
4.115715 -49.524263 70.11594
4.551023 -50.107917 68.010921
4.407675 -51.39567 68.525276
4.287151 -50.452535 69.306294
5.195476 -45.856356 54.002041
5.056858 -47.29195 54.443787
5.424364 -46.215345 54.951404
5.278443 -44.382044 53.620083
5.195476 -45.856356 54.002041
5.337767 -42.856945 53.231964
5.278443 -44.382044 53.620083
5.622305 -43.254652 54.12154
5.350423 -41.29314 52.906666
5.337767 -42.856945 53.231964
5.334931 -39.677887 52.590309
5.350423 -41.29314 52.906666
5.666137 -40.1143 53.417064
5.282857 -38.024231 52.334339
5.334931 -39.677887 52.590309
5.201152 -36.321101 52.102383
5.282857 -38.024231 52.334339
5.568939 -36.795915 52.868752
5.092892 -34.580267 51.923542
5.201152 -36.321101 52.102383
4.955941 -32.794651 51.7818
5.092892 -34.580267 51.923542
5.350283 -33.307169 52.495052
4.801577 -30.97285 51.682049
4.955941 -32.794651 51.7818
4.801577 -30.97285 51.682049
5.033152 -29.662272 52.299915
4.92006 -26.481873 52.986092
5.124659 -28.373829 52.986508
5.191747 -27.052712 53.726078
4.641978 -25.882388 52.271504
4.92006 -26.481873 52.986092
4.709066 -24.561272 53.011074
4.22067 -25.300337 51.628391
4.641978 -25.882388 52.271504
4.006695 -23.350769 51.66605
4.22067 -25.300337 51.628391
4.006695 -23.350769 51.66605
4.20183 -21.995109 52.381923
-0.580753 -4.322114 74.588306
-0.553999 -2.849203 75.671963
-0.677532 -6.439728 74.496593
-0.580753 -4.322114 74.588306
-0.560495 -5.795573 73.451797
4.020026 -18.668927 53.297191
4.254075 -20.65012 53.171325
4.301424 -19.290616 54.001156
4.020026 -18.668927 53.297191
3.785673 -16.672792 53.418003
3.329774 -12.661132 53.68996
3.395595 -11.297481 54.552181
2.932478 -5.118966 57.532474
3.081081 -7.136777 57.440449
2.932579 -5.728482 58.424247
3 0 65 63
3 0 68 66
3 0 63 68
3 2 72 70
3 2 74 72
3 1 77 75
3 3 80 78
3 5 83 81
3 5 85 83
3 6 88 86
3 6 247 249
3 249 248 88
3 247 248 249
3 6 250 252
3 250 89 251
3 250 251 252
3 3 92 90
3 3 78 92
3 7 96 94
3 253 99 254
3 255 254 97
3 253 254 255
3 257 256 99
3 7 258 260
3 258 101 259
3 258 259 260
3 7 94 101
3 9 261 262
3 9 263 265
3 263 103 264
3 263 264 265
3 4 106 104
3 10 109 107
3 10 111 109
3 10 113 111
3 11 116 114
3 11 118 116
3 8 121 119
3 12 124 122
3 12 126 124
3 266 128 267
3 13 131 129
3 13 133 131
3 13 135 133
3 14 138 136
3 14 140 138
3 14 268 270
3 270 269 140
3 268 269 270
3 15 143 141
3 17 144 64
3 17 145 144
3 18 148 146
3 20 149 67
3 20 150 149
3 20 152 150
3 15 153 69
3 15 141 153
3 23 271 272
3 23 273 275
3 273 155 274
3 273 274 275
3 24 158 156
3 26 159 71
3 26 160 159
3 26 162 160
3 28 163 73
3 28 164 163
3 29 167 165
3 31 168 76
3 31 169 168
3 276 170 277
3 278 171 279
3 280 279 170
3 278 279 280
3 281 173 282
3 283 282 171
3 281 282 283
3 34 176 174
3 36 177 79
3 36 178 177
3 16 179 142
3 37 180 82
3 37 181 180
3 37 182 181
3 38 183 84
3 38 184 183
3 19 284 286
3 286 285 147
3 284 285 286
3 40 287 289
3 289 288 87
3 287 288 289
3 40 290 291
3 40 292 294
3 292 293 294
3 21 186 151
3 41 187 91
3 41 295 297
3 297 296 187
3 295 296 297
3 41 298 299
3 34 188 93
3 34 174 188
3 42 191 189
3 44 192 95
3 44 193 192
3 22 194 154
3 45 195 98
3 45 196 195
3 45 197 196
3 46 198 100
3 46 199 198
3 300 200 301
3 302 201 303
3 304 303 200
3 302 303 304
3 306 305 201
3 307 202 308
3 42 203 102
3 42 189 203
3 47 309 310
3 47 311 313
3 311 204 312
3 311 312 313
3 35 205 175
3 48 206 105
3 48 207 206
3 25 208 157
3 49 209 108
3 49 210 209
3 49 211 210
3 50 212 110
3 50 213 212
3 50 214 213
3 51 215 112
3 51 216 215
3 27 217 161
3 52 218 115
3 52 219 218
3 52 314 316
3 316 315 219
3 314 315 316
3 53 220 117
3 53 317 319
3 319 318 220
3 317 318 319
3 43 221 190
3 54 222 120
3 54 223 222
3 30 224 166
3 55 225 123
3 55 226 225
3 55 227 226
3 56 228 125
3 56 229 228
3 39 230 185
3 57 231 127
3 57 232 231
3 32 320 322
3 320 233 321
3 320 321 322
3 58 234 130
3 58 235 234
3 58 236 235
3 59 237 132
3 59 238 237
3 59 239 238
3 60 240 134
3 60 241 240
3 33 242 172
3 61 243 137
3 61 244 243
3 61 245 244
3 62 246 139
3 62 323 325
3 325 324 246
3 323 324 325
3 62 326 327
3 63 64 15
3 65 64 63
3 65 17 64
3 66 67 18
3 68 67 66
3 68 20 67
3 68 69 20
3 63 69 68
3 63 15 69
3 328 23 329
3 70 71 24
3 72 71 70
3 72 26 71
3 72 73 26
3 74 73 72
3 74 28 73
3 75 76 29
3 77 76 75
3 77 31 76
3 78 79 34
3 80 79 78
3 80 36 79
3 81 82 16
3 83 82 81
3 83 37 82
3 83 84 37
3 85 84 83
3 85 38 84
3 86 87 19
3 88 87 86
3 88 40 87
3 88 330 332
3 332 331 40
3 330 331 332
3 334 333 88
3 89 335 336
3 89 337 338
3 90 91 21
3 92 91 90
3 92 41 91
3 92 93 41
3 78 93 92
3 78 34 93
3 94 95 42
3 96 95 94
3 96 44 95
3 97 98 22
3 99 98 97
3 99 45 98
3 99 100 45
3 339 100 340
3 341 340 99
3 339 340 341
3 342 46 343
3 344 343 100
3 342 343 344
3 101 345 346
3 101 347 348
3 101 349 351
3 349 102 350
3 349 350 351
3 94 102 101
3 94 42 102
3 103 352 353
3 103 354 356
3 354 47 355
3 354 355 356
3 104 105 35
3 106 105 104
3 106 48 105
3 107 108 25
3 109 108 107
3 109 49 108
3 109 110 49
3 111 110 109
3 111 50 110
3 111 112 50
3 113 112 111
3 113 51 112
3 114 115 27
3 116 115 114
3 116 52 115
3 116 117 52
3 118 117 116
3 118 53 117
3 119 120 43
3 121 120 119
3 121 54 120
3 122 123 30
3 124 123 122
3 124 55 123
3 124 125 55
3 126 125 124
3 126 56 125
3 357 127 358
3 359 358 39
3 357 358 359
3 128 360 362
3 360 127 361
3 360 361 362
3 128 57 127
3 129 130 32
3 131 130 129
3 131 58 130
3 131 132 58
3 133 132 131
3 133 59 132
3 133 134 59
3 135 134 133
3 135 60 134
3 136 137 33
3 138 137 136
3 138 61 137
3 138 139 61
3 140 139 138
3 140 62 139
3 140 363 365
3 365 364 62
3 363 364 365
3 367 366 140
3 141 142 3
3 143 142 141
3 143 16 142
3 64 143 15
3 144 143 64
3 144 16 143
3 144 81 16
3 145 81 144
3 145 5 81
3 146 368 370
3 368 147 369
3 368 369 370
3 148 147 146
3 148 19 147
3 67 148 18
3 149 148 67
3 149 19 148
3 149 86 19
3 150 86 149
3 150 6 86
3 150 151 6
3 152 151 150
3 152 21 151
3 69 152 20
3 153 152 69
3 153 21 152
3 153 90 21
3 141 90 153
3 141 3 90
3 371 154 372
3 373 372 7
3 371 372 373
3 374 154 375
3 376 22 377
3 378 377 154
3 376 377 378
3 379 22 380
3 381 97 382
3 383 382 22
3 381 382 383
3 384 97 385
3 384 385 386
3 388 387 97
3 389 7 390
3 155 391 392
3 155 393 395
3 393 9 394
3 393 394 395
3 156 157 4
3 158 157 156
3 158 25 157
3 71 158 24
3 159 158 71
3 159 25 158
3 159 107 25
3 160 107 159
3 160 10 107
3 160 161 10
3 162 161 160
3 162 27 161
3 73 162 26
3 163 162 73
3 163 27 162
3 163 114 27
3 164 114 163
3 164 11 114
3 165 166 8
3 167 166 165
3 167 30 166
3 76 167 29
3 168 167 76
3 168 30 167
3 168 122 30
3 169 122 168
3 169 12 122
3 396 32 397
3 170 398 399
3 170 400 402
3 400 32 401
3 400 401 402
3 170 129 32
3 171 129 170
3 171 13 129
3 171 172 13
3 173 172 171
3 173 33 172
3 403 173 404
3 405 173 406
3 407 33 408
3 409 408 173
3 407 408 409
3 410 136 411
3 412 411 33
3 410 411 412
3 413 136 414
3 415 14 416
3 417 416 136
3 415 416 417
3 419 418 14
3 174 420 422
3 420 175 421
3 420 421 422
3 176 175 174
3 176 35 175
3 79 176 34
3 177 176 79
3 177 35 176
3 177 104 35
3 178 104 177
3 178 4 104
3 142 80 3
3 179 80 142
3 179 36 80
3 82 179 16
3 180 179 82
3 180 36 179
3 180 178 36
3 181 178 180
3 181 4 178
3 181 156 4
3 182 156 181
3 182 24 156
3 84 182 37
3 183 182 84
3 183 24 182
3 183 70 24
3 184 70 183
3 184 2 70
3 423 185 424
3 425 424 1
3 423 424 425
3 426 185 427
3 428 39 429
3 430 429 185
3 428 429 430
3 431 39 432
3 434 433 39
3 147 435 436
3 438 437 147
3 87 439 441
3 441 440 19
3 439 440 441
3 443 442 87
3 445 444 40
3 151 89 6
3 186 89 151
3 186 446 448
3 448 447 89
3 446 447 448
3 91 186 21
3 187 186 91
3 187 449 451
3 451 450 186
3 449 450 451
3 187 452 453
3 455 454 187
3 93 456 458
3 458 457 41
3 456 457 458
3 188 459 461
3 461 460 93
3 459 460 461
3 188 462 463
3 188 464 465
3 174 466 468
3 468 467 188
3 466 467 468
3 174 469 470
3 189 190 0
3 191 190 189
3 191 43 190
3 95 191 42
3 192 191 95
3 192 43 191
3 192 119 43
3 193 119 192
3 193 8 119
3 154 96 7
3 194 96 154
3 194 44 96
3 98 194 22
3 195 194 98
3 195 44 194
3 195 193 44
3 196 193 195
3 196 8 193
3 196 165 8
3 197 165 196
3 197 29 165
3 100 197 45
3 198 197 100
3 198 29 197
3 198 75 29
3 199 75 198
3 199 1 75
3 471 46 472
3 200 473 474
3 200 475 477
3 475 46 476
3 475 476 477
3 200 199 46
3 201 199 200
3 201 1 199
3 201 478 480
3 480 479 1
3 478 479 480
3 482 481 201
3 483 146 484
3 483 484 485
3 202 486 488
3 486 146 487
3 486 487 488
3 202 18 146
3 102 489 491
3 489 202 490
3 489 490 491
3 203 202 102
3 203 18 202
3 203 66 18
3 189 66 203
3 189 0 66
3 204 492 493
3 204 494 496
3 494 495 496
3 175 497 498
3 205 499 501
3 501 500 175
3 499 500 501
3 205 502 504
3 502 23 503
3 502 503 504
3 105 205 35
3 206 205 105
3 206 23 205
3 206 155 23
3 207 155 206
3 207 9 155
3 157 106 4
3 208 106 157
3 208 48 106
3 108 208 25
3 209 208 108
3 209 48 208
3 209 207 48
3 210 207 209
3 210 9 207
3 210 103 9
3 211 103 210
3 211 47 103
3 110 211 49
3 212 211 110
3 212 47 211
3 212 204 47
3 213 204 212
3 213 505 507
3 507 506 204
3 505 506 507
3 213 508 509
3 214 510 512
3 512 511 213
3 510 511 512
3 214 513 514
3 112 214 50
3 215 214 112
3 215 515 517
3 517 516 214
3 515 516 517
3 215 518 519
3 216 520 522
3 522 521 215
3 520 521 522
3 216 523 524
3 161 113 10
3 217 113 161
3 217 51 113
3 115 217 27
3 218 217 115
3 218 51 217
3 218 216 51
3 219 216 218
3 219 525 527
3 527 526 216
3 525 526 527
3 219 528 529
3 531 530 219
3 117 532 534
3 534 533 52
3 532 533 534
3 220 535 537
3 537 536 117
3 535 536 537
3 220 538 539
3 220 540 541
3 543 542 220
3 190 65 0
3 221 65 190
3 221 17 65
3 120 221 43
3 222 221 120
3 222 17 221
3 222 145 17
3 223 145 222
3 223 5 145
3 166 121 8
3 224 121 166
3 224 54 121
3 123 224 30
3 225 224 123
3 225 54 224
3 225 223 54
3 226 223 225
3 226 5 223
3 226 85 5
3 227 85 226
3 227 38 85
3 125 227 55
3 228 227 125
3 228 38 227
3 228 184 38
3 229 184 228
3 229 2 184
3 185 77 1
3 230 77 185
3 230 31 77
3 127 230 39
3 231 230 127
3 231 31 230
3 231 169 31
3 232 169 231
3 232 12 169
3 544 128 545
3 233 546 548
3 546 128 547
3 546 547 548
3 233 57 128
3 130 233 32
3 234 233 130
3 234 57 233
3 234 232 57
3 235 232 234
3 235 12 232
3 235 126 12
3 236 126 235
3 236 56 126
3 132 236 58
3 237 236 132
3 237 56 236
3 237 229 56
3 238 229 237
3 238 2 229
3 238 74 2
3 239 74 238
3 239 28 74
3 134 239 59
3 240 239 134
3 240 28 239
3 240 164 28
3 241 164 240
3 241 11 164
3 172 135 13
3 242 135 172
3 242 60 135
3 137 242 33
3 243 242 137
3 243 60 242
3 243 241 60
3 244 241 243
3 244 11 241
3 244 118 11
3 245 118 244
3 245 53 118
3 139 245 61
3 246 245 139
3 246 53 245
3 246 549 551
3 551 550 53
3 549 550 551
3 553 552 246
3 555 554 62
3 558 557 14
3 556 557 558
