ply
format ascii 1.0
element vertex 245
property float x
property float y
property float z
element face 251
property list uchar int vertex_index
end_header
-41.656693 53.175236 -19.803932
-34.201569 59.648289 -22.735653
-36.28595 44.248241 -18.430038
-39.186356 47.453564 -11.337683
-39.311306 48.57687 -19.351906
-36.534176 45.833561 -22.090511
-38.392075 50.735859 -22.246456
-44.136559 54.539707 -16.769016
-41.425095 50.444447 -16.19673
-37.926334 46.34502 -15.08511
-42.693184 58.167004 -19.444038
-39.131241 56.232433 -21.791656
-38.710472 62.148563 -20.700077
-45.336372 58.784 -16.216621
-33.657078 39.904522 -17.459991
-32.409443 36.80304 -20.186348
-34.172169 41.316017 -21.331074
-34.813538 53.278652 -23.762695
-35.601112 43.096081 -10.291086
-34.757515 41.909412 -14.113752
-40.62188 50.826885 -19.65921
-39.191502 49.622059 -20.995049
-40.122025 52.068905 -21.075661
-42.989708 54.012058 -18.380238
-42.937149 52.476269 -16.591022
-41.86483 51.792423 -18.201393
-40.446735 49.638081 -17.837151
-42.673378 60.751553 -18.868195
-40.985607 60.125309 -20.20549
-44.107491 61.018787 -17.27243
-44.126583 58.651608 -17.957439
-34.849609 42.089111 -17.920315
-34.02224 40.712757 -19.415092
-35.277786 42.887497 -19.934662
-35.820538 46.632069 -23.45034
-36.912483 57.909519 -22.32906
-37.04388 54.862263 -22.786388
-34.612331 56.404118 -23.277287
-41.169182 49.354061 -11.967022
-37.278 45.384052 -10.743702
-37.168854 45.404797 -16.812824
-36.227119 44.188801 -14.539536
-35.588951 43.243073 -16.291695
-34.241364 41.009464 -15.862642
-37.822624 46.397602 -18.925903
-36.655075 45.069462 -20.397945
-38.00362 47.299534 -20.761772
-37.580376 48.215656 -22.247299
-36.49654 49.211246 -23.368511
-45.129623 54.732159 -14.959435
-43.873436 52.84264 -14.815327
-42.281635 50.955944 -14.421324
-40.470737 49.03735 -13.867922
-38.584053 47.039829 -13.254772
-39.709312 48.414845 -15.666248
-38.837505 47.522305 -17.351643
-42.355488 55.627979 -19.744934
-40.73951 54.6497 -20.984936
-41.024807 57.348637 -20.702858
-39.054424 59.164715 -21.333714
-36.544205 61.04472 -21.76067
-44.948776 56.645672 -16.661594
-43.754234 56.303699 -18.315243
-32.820667 37.744694 -17.115677
-32.414948 36.359173 -18.382771
-33.03183 38.528633 -18.888588
-33.144485 39.080013 -20.784935
-35.352798 43.550671 -21.77877
-38.914314 53.411091 -22.093498
-36.909748 51.954311 -23.137897
-34.285561 40.55938 -10.072132
-36.777924 44.91251 -12.682386
-35.20282 42.612156 -12.24559
-33.981556 40.115108 -12.030174
-33.634781 39.493362 -13.89031
-33.239304 38.712036 -15.606348
-41.660162 61.83453 -19.167561
-42.497429 62.036572 -18.430771
-43.214486 62.170189 -17.632888
-43.916594 62.184876 -16.758468
-42.497429 62.036572 -18.430771
-43.390434 60.88517 -18.070312
-43.214486 62.170189 -17.632888
-34.893743 45.7557 -24.037374
-35.153583 47.073712 -23.965454
-39.486237 47.504948 -10.348981
-40.47765 48.455196 -10.66365
-40.177769 48.403813 -11.652352
-38.481945 46.512272 -10.045551
-39.486237 47.504948 -10.348981
-38.232178 46.418808 -11.040693
-37.527767 45.477516 -9.74856
-38.481945 46.512272 -10.045551
-45.843914 58.675693 -15.222881
-45.31806 59.85395 -15.810731
-45.652755 57.712814 -15.498518
-45.843914 58.675693 -15.222881
-45.142574 57.714836 -16.439107
-45.458957 56.64365 -15.721005
-45.652755 57.712814 -15.498518
-33.596294 40.417963 -21.981254
-33.082453 39.299961 -21.708185
-33.658327 40.198015 -21.058005
-34.794643 51.794914 -23.969776
-35.842748 51.132744 -23.657377
-35.861643 52.616481 -23.450296
-35.089769 41.945505 -9.173356
-35.798321 43.212791 -9.287947
-34.943337 41.827731 -10.181609
-34.431994 40.677155 -9.063879
-35.089769 41.945505 -9.173356
-32.237011 35.620055 -19.876407
-32.239764 35.398121 -18.974619
-32.412196 36.581107 -19.28456
-40.816277 61.521408 -19.836208
-41.829493 60.438431 -19.536842
-41.660162 61.83453 -19.167561
-39.678709 62.533035 -20.083502
-39.848039 61.136936 -20.452784
-40.816277 61.521408 -19.836208
-44.703619 60.971344 -16.338636
-44.512722 62.137433 -15.824673
-43.916594 62.184876 -16.758468
-44.721931 59.901393 -16.744526
-45.31806 59.85395 -15.810731
-44.703619 60.971344 -16.338636
-35.3804 45.411257 -23.403553
-35.737219 45.012003 -22.723638
-36.177357 46.232815 -22.770426
-35.3804 45.411257 -23.403553
-34.893743 45.7557 -24.037374
-41.512995 49.348049 -10.977765
-42.116266 50.248242 -12.242996
-41.512995 49.348049 -10.977765
-40.47765 48.455196 -10.66365
-36.636764 44.356777 -9.514254
-37.527767 45.477516 -9.74856
-36.439556 44.240066 -10.517394
-35.798321 43.212791 -9.287947
-36.636764 44.356777 -9.514254
-32.125629 35.76923 -20.813026
-32.340195 36.987271 -21.124599
-35.491585 48.3633 -23.92454
-35.153583 47.073712 -23.965454
-36.158539 47.921658 -23.409426
-32.976581 58.825802 -23.223439
-32.665534 60.528725 -22.945076
-44.92395 53.802033 -13.921762
-45.570135 54.657841 -13.963265
-44.295856 52.857273 -13.849708
-44.92395 53.802033 -13.921762
-44.50153 53.7874 -14.887381
-43.468393 51.992531 -13.667148
-44.295856 52.857273 -13.849708
-42.672493 51.049183 -13.470147
-43.468393 51.992531 -13.667148
-43.077535 51.899292 -14.618326
-41.725409 50.155003 -13.194173
-42.116266 50.248242 -12.242996
-42.672493 51.049183 -13.470147
-38.421063 63.626352 -20.281557
-39.678709 62.533035 -20.083502
-37.34062 63.170908 -20.878241
-38.421063 63.626352 -20.281557
-36.257486 62.618986 -21.408537
-37.627339 61.596642 -21.230373
-37.34062 63.170908 -20.878241
-35.078836 61.995922 -21.942393
-36.257486 62.618986 -21.408537
-33.907518 61.297707 -22.429884
-35.372887 60.346504 -22.248162
-35.078836 61.995922 -21.942393
-32.665534 60.528725 -22.945076
-33.907518 61.297707 -22.429884
-45.549381 55.686893 -14.869926
-45.570135 54.657841 -13.963265
-45.0392 55.688916 -15.810515
-45.549381 55.686893 -14.869926
-45.458957 56.64365 -15.721005
-32.617807 37.051934 -17.749224
-32.410615 36.115412 -17.665686
-32.613474 36.808172 -17.032139
-32.707716 38.125757 -21.423893
-32.340195 36.987271 -21.124599
-32.776964 37.941527 -20.485641
-32.707716 38.125757 -21.423893
-33.082453 39.299961 -21.708185
-35.14653 43.870558 -22.567768
-35.943487 44.692116 -21.934641
-35.737219 45.012003 -22.723638
-34.656555 42.695009 -22.428415
-35.14653 43.870558 -22.567768
-34.06624 41.577683 -22.204567
-34.762484 42.433344 -21.554922
-34.656555 42.695009 -22.428415
-33.596294 40.417963 -21.981254
-34.06624 41.577683 -22.204567
-35.636145 49.761211 -23.772684
-36.703144 50.582779 -23.253204
-35.842748 51.132744 -23.657377
-35.491585 48.3633 -23.92454
-35.636145 49.761211 -23.772684
-33.181962 57.203716 -23.494256
-34.40695 58.026203 -23.00647
-32.976581 58.825802 -23.223439
-33.416675 55.545505 -23.765341
-33.181962 57.203716 -23.494256
-33.517279 53.982772 -24.008045
-34.712935 54.841385 -23.519991
-33.416675 55.545505 -23.765341
-33.659588 52.394207 -24.270036
-33.517279 53.982772 -24.008045
-34.794643 51.794914 -23.969776
-33.659588 52.394207 -24.270036
-33.952248 39.259802 -9.108829
-34.098681 39.377577 -8.100576
-34.431994 40.677155 -9.063879
-33.850117 39.165749 -10.117298
-33.952248 39.259802 -9.108829
-33.698115 38.943613 -11.096319
-33.850117 39.165749 -10.117298
-34.133558 40.337244 -11.051153
-33.585302 38.770236 -12.071516
-33.698115 38.943613 -11.096319
-33.411915 38.459363 -13.001584
-33.585302 38.770236 -12.071516
-33.808168 39.804235 -12.960242
-33.279878 38.22546 -13.922483
-33.411915 38.459363 -13.001584
-33.08214 37.834797 -14.780503
-33.279878 38.22546 -13.922483
-33.437042 39.102699 -14.748329
-32.93928 37.561721 -15.615174
-33.08214 37.834797 -14.780503
-32.729962 37.078051 -16.369838
-32.93928 37.561721 -15.615174
-33.029985 38.228365 -16.361013
-32.613474 36.808172 -17.032139
-32.729962 37.078051 -16.369838
-32.317318 35.259811 -18.086334
-32.410615 36.115412 -17.665686
-32.317318 35.259811 -18.086334
-32.239764 35.398121 -18.974619
-32.237011 35.620055 -19.876407
-32.125629 35.76923 -20.813026
3 0 22 20
3 0 25 23
3 0 20 25
3 77 76 27
3 78 29 79
3 80 27 81
3 82 81 29
3 80 81 82
3 2 33 31
3 84 83 34
3 1 37 35
3 3 85 87
3 87 86 38
3 85 86 87
3 3 88 89
3 3 90 92
3 90 39 91
3 90 91 92
3 2 42 40
3 2 31 42
3 4 46 44
3 6 47 21
3 6 48 47
3 7 50 49
3 8 51 24
3 8 52 51
3 8 54 52
3 4 55 26
3 4 44 55
3 10 58 56
3 12 59 28
3 12 60 59
3 13 93 94
3 13 95 96
3 13 97 99
3 97 61 98
3 97 98 99
3 10 62 30
3 10 56 62
3 14 65 63
3 16 66 32
3 16 100 102
3 102 101 66
3 100 101 102
3 5 67 45
3 11 68 57
3 17 69 36
3 17 103 105
3 105 104 69
3 103 104 105
3 18 106 107
3 18 108 110
3 108 70 109
3 108 109 110
3 9 71 53
3 19 72 41
3 19 73 72
3 19 74 73
3 14 75 43
3 14 63 75
3 15 111 113
3 113 112 64
3 111 112 113
3 20 21 4
3 22 21 20
3 22 6 21
3 23 24 7
3 25 24 23
3 25 8 24
3 25 26 8
3 20 26 25
3 20 4 26
3 27 28 10
3 114 28 115
3 116 115 27
3 114 115 116
3 117 12 118
3 119 118 28
3 117 118 119
3 29 120 122
3 120 121 122
3 29 123 125
3 123 13 124
3 123 124 125
3 29 30 13
3 27 30 29
3 27 10 30
3 31 32 14
3 33 32 31
3 33 16 32
3 34 126 128
3 128 127 5
3 126 127 128
3 130 129 34
3 35 36 11
3 37 36 35
3 37 17 36
3 38 131 132
3 134 133 38
3 39 135 136
3 39 137 139
3 137 18 138
3 137 138 139
3 40 41 9
3 42 41 40
3 42 19 41
3 42 43 19
3 31 43 42
3 31 14 43
3 141 140 15
3 44 45 2
3 46 45 44
3 46 5 45
3 21 46 4
3 47 46 21
3 47 5 46
3 47 34 5
3 48 34 47
3 48 142 144
3 144 143 34
3 142 143 144
3 146 145 1
3 49 147 148
3 50 149 151
3 151 150 49
3 149 150 151
3 50 152 153
3 24 50 7
3 51 50 24
3 51 154 156
3 156 155 50
3 154 155 156
3 51 157 159
3 157 38 158
3 157 158 159
3 52 38 51
3 52 3 38
3 52 53 3
3 54 53 52
3 54 9 53
3 26 54 8
3 55 54 26
3 55 9 54
3 55 40 9
3 44 40 55
3 44 2 40
3 56 57 0
3 58 57 56
3 58 11 57
3 28 58 10
3 59 58 28
3 59 11 58
3 59 35 11
3 60 35 59
3 60 1 35
3 160 12 161
3 162 12 163
3 164 60 165
3 166 165 12
3 164 165 166
3 167 60 168
3 169 1 170
3 171 170 60
3 169 170 171
3 173 172 1
3 174 49 175
3 61 176 178
3 176 49 177
3 176 177 178
3 61 7 49
3 30 61 13
3 62 61 30
3 62 7 61
3 62 23 7
3 56 23 62
3 56 0 23
3 63 179 181
3 179 64 180
3 179 180 181
3 65 64 63
3 65 15 64
3 32 65 14
3 66 65 32
3 66 15 65
3 66 182 184
3 184 183 15
3 182 183 184
3 186 185 66
3 45 33 2
3 67 33 45
3 67 16 33
3 187 67 188
3 189 188 5
3 187 188 189
3 190 67 191
3 192 16 193
3 194 193 67
3 192 193 194
3 196 195 16
3 57 22 0
3 68 22 57
3 68 6 22
3 36 68 11
3 69 68 36
3 69 6 68
3 69 48 6
3 197 48 198
3 199 198 69
3 197 198 199
3 201 200 48
3 202 37 203
3 204 203 1
3 202 203 204
3 205 37 206
3 207 17 208
3 209 208 37
3 207 208 209
3 210 17 211
3 213 212 17
3 70 214 216
3 214 215 216
3 70 217 218
3 53 39 3
3 71 39 53
3 71 18 39
3 41 71 9
3 72 71 41
3 72 18 71
3 72 70 18
3 73 70 72
3 73 219 221
3 221 220 70
3 219 220 221
3 73 222 223
3 74 224 226
3 226 225 73
3 224 225 226
3 74 227 228
3 43 74 19
3 75 74 43
3 75 229 231
3 231 230 74
3 229 230 231
3 75 232 233
3 63 234 236
3 236 235 75
3 234 235 236
3 63 237 238
3 64 239 240
3 242 241 64
3 244 243 15
