ply
format ascii 1.0
element vertex 797
property float x
property float y
property float z
element face 1030
property list uchar int vertex_index
end_header
17.104214 -126.378906 -0.016056
49.892799 -87.475082 2.170938
37.262806 -110.290932 -3.178179
47.168373 -95.936012 -17.028105
23.878307 -120.099564 -18.598379
6.478184 -116.194283 21.28437
27.005423 -111.361488 14.723881
26.221745 -120.441315 -3.160427
31.754402 -117.302307 -12.993803
19.689968 -125.673592 -10.244291
41.956993 -96.531685 -22.793245
46.015797 -99.300568 -0.278154
49.567024 -92.42482 -7.603529
42.958527 -105.667023 -11.035622
37.286423 -109.558365 -19.439089
29.15435 -109.089119 -21.946951
11.189243 -123.543571 9.532655
10.066988 -126.653198 -1.48901
16.397757 -116.277229 17.632252
21.393114 -120.481041 7.494572
31.626381 -112.572151 6.000611
12.0634 -124.464005 -12.638765
15.296179 -116.884613 -18.845968
21.810196 -104.282059 -20.782812
21.122803 -124.316162 -1.741852
23.193382 -123.686829 -7.202225
18.086479 -126.556046 -4.725187
52.177193 -83.911346 -1.836981
38.435413 -95.645271 -23.745611
44.025726 -88.799484 -24.040495
42.272171 -104.900215 -1.895254
44.790222 -102.607834 -5.718697
40.300583 -108.464615 -7.32255
28.09935 -119.451736 -16.562773
34.621155 -114.148079 -16.697275
30.735184 -115.375755 -19.531878
33.378941 -109.896835 -21.43799
26.370268 -115.228088 -20.727453
8.397411 -120.125687 15.205566
9.778276 -113.639854 25.798429
14.531672 -113.229507 23.236801
11.143476 -117.072624 19.616247
13.458858 -120.333054 13.98012
31.983717 -108.416977 14.748684
34.237617 -108.834908 10.756348
29.286705 -112.625969 10.511135
26.51955 -116.876701 6.427307
24.151447 -116.118782 11.224169
10.938772 -126.227127 -7.416
18.169403 -111.133888 -20.073053
48.63343 -94.477119 -12.514507
51.63961 -87.362144 -11.018845
50.763596 -88.671799 -15.501421
31.709152 -115.557007 -3.6723
34.760036 -114.05014 -8.344942
28.873625 -119.27858 -8.383997
25.53923 -122.146439 -12.363556
21.661869 -123.569427 -15.095968
44.96479 -96.634224 -20.581755
49.298115 -89.407669 -19.402502
47.025299 -89.449944 -22.287771
48.318722 -93.410828 1.177897
50.008488 -90.02417 -2.681318
47.876305 -96.410896 -4.031988
46.800507 -99.202751 -9.266108
45.153889 -101.485725 -14.275841
37.79237 -111.713867 -12.428173
40.496468 -108.090157 -15.820734
42.833805 -102.994713 -18.506525
39.719009 -103.582237 -21.374392
35.977421 -103.217445 -22.698236
32.076988 -101.92276 -22.843378
14.337103 -125.752174 4.223652
13.784653 -127.246292 -0.828331
10.008675 -125.728996 4.325311
6.285885 -123.951195 4.253069
24.764872 -108.889572 18.944492
19.632641 -111.404213 20.705547
21.771799 -114.162247 15.824821
18.838121 -118.873329 12.538612
16.226284 -122.831688 8.669975
18.913204 -124.119774 3.476802
46.580063 -96.073509 5.201783
43.72213 -101.464073 3.657351
39.414719 -106.599182 2.197042
36.664639 -108.012459 6.490664
34.262909 -111.640099 1.331241
28.959915 -116.55072 1.367325
23.814484 -120.918808 2.241598
14.514046 -127.277916 -6.529997
15.858909 -125.956909 -12.027773
17.478765 -123.266273 -16.374857
13.373617 -121.355095 -16.493017
19.452917 -119.180275 -19.176508
22.014126 -113.765694 -20.699362
25.15086 -107.20359 -21.559412
28.519815 -99.698875 -22.370321
52.118458 -85.714287 -6.394754
18.867472 -125.632195 -0.838724
19.682751 -125.605362 -3.399363
17.495409 -126.583015 -2.10803
50.945103 -85.783905 0.141811
36.634102 -94.905479 -23.882822
39.586452 -91.615105 -24.301092
39.88496 -107.611404 -2.610809
41.349384 -106.69072 -4.629206
38.806976 -109.463684 -5.301939
26.042406 -119.975868 -17.783064
29.413708 -117.593903 -18.199469
27.294367 -117.901886 -19.207418
28.585434 -115.474236 -20.321058
25.085796 -117.83445 -19.812838
7.298084 -118.179901 18.190746
6.159304 -119.364273 15.669941
8.02845 -115.007576 23.64539
10.318031 -115.350548 22.64049
8.702148 -116.849815 20.518723
9.662771 -118.686577 17.514202
29.532814 -109.889183 14.581644
30.660044 -110.506195 12.580379
28.147772 -112.166801 12.64682
26.740709 -114.430618 10.763525
25.577917 -113.773582 12.976181
47.979042 -95.294312 -14.855526
49.641323 -91.681885 -14.033165
49.009537 -92.307976 -16.236483
28.933372 -118.079575 -3.543915
30.341183 -117.481789 -6.086349
27.509531 -119.944664 -5.822678
21.500931 -124.871994 -8.87262
24.330112 -123.043419 -9.868494
22.54418 -124.115898 -11.503242
23.65941 -123.065605 -13.909924
20.641727 -124.783936 -12.811052
43.551384 -96.682106 -21.861994
46.000195 -93.11557 -21.460714
44.587894 -93.012924 -22.593428
46.582973 -85.312439 -24.016195
47.321697 -96.385818 0.495493
48.181889 -94.91996 -1.42135
46.996002 -97.976929 -2.177553
43.947701 -104.192947 -8.409933
45.848064 -101.068634 -7.528372
45.048767 -102.486107 -10.166935
46.050831 -100.426605 -11.828239
44.101772 -103.759537 -12.717493
33.332348 -115.77903 -10.766094
36.302628 -113.016792 -10.468634
34.838306 -114.575241 -12.838972
35.984032 -112.037254 -18.182741
37.684788 -111.195847 -16.365778
38.989189 -108.958412 -17.814337
41.702961 -105.721817 -17.249205
40.214897 -106.353455 -19.064604
41.374252 -103.407768 -20.135889
38.529419 -106.728325 -20.491438
31.272844 -109.632668 -21.846792
34.689011 -106.688705 -22.120195
32.646519 -106.279434 -22.393538
34.013153 -102.685043 -22.881334
30.614281 -105.618637 -22.402544
12.752546 -124.834091 6.821157
12.131428 -125.956444 4.318621
10.440817 -124.780952 7.018332
6.338854 -123.336464 7.196893
15.364861 -114.775932 20.346415
17.062498 -112.455811 21.919632
18.000025 -113.943138 19.212549
20.648087 -112.846664 18.19252
19.091162 -115.348442 16.673607
20.281607 -116.59993 14.239058
17.576321 -117.668266 15.050557
12.213722 -122.051147 11.856512
14.820244 -121.715576 11.303747
13.670547 -123.406677 9.151277
15.15543 -124.447044 6.509538
41.72303 -104.053062 2.88314
40.364281 -104.901131 4.950818
32.948364 -110.663223 8.347715
35.41428 -108.538094 8.645756
34.170197 -110.307976 6.129504
35.483608 -109.771339 3.887574
32.894295 -112.179016 3.66562
31.601065 -114.12896 1.231054
30.294926 -114.54554 3.679238
23.962736 -118.802216 6.911457
25.158211 -118.946266 4.343479
22.621475 -120.836449 4.897065
21.325127 -122.701927 2.861435
20.103518 -122.419106 5.499201
11.895288 -127.168289 -1.199242
14.034872 -127.433884 -3.636147
12.2043 -127.245407 -4.140402
13.285423 -126.367973 -9.891291
13.934971 -125.419334 -12.46133
16.63796 -124.785934 -14.3866
14.629263 -124.128891 -14.697346
11.466768 -119.894211 -16.2778
14.227459 -119.288078 -17.842573
16.270092 -120.51104 -17.998701
17.312569 -118.189262 -19.087183
20.651831 -116.629791 -20.062647
18.554497 -115.541306 -19.872435
19.924885 -107.833725 -20.4522
21.626804 -109.357574 -20.849157
23.377264 -105.872986 -21.204321
26.834398 -103.558495 -21.938547
25.186104 -102.156288 -21.571585
49.85495 -91.253365 -5.132071
50.980904 -87.984596 -4.552181
50.809254 -89.028427 -6.931192
52.928925 -84.525276 -12.700314
53.23262 -83.901627 -10.469025
50.428452 -85.930969 -20.525583
51.312984 -85.799965 -18.844992
23.604445 -122.552704 -2.544006
24.760521 -122.184448 -5.276764
22.13332 -124.105026 -4.460449
20.546299 -125.360756 -6.126436
18.82856 -126.258553 -7.50152
40.230965 -96.185974 -23.403502
43.01059 -92.728493 -23.415964
41.322937 -92.263672 -23.967089
42.369999 -88.217918 -24.56629
44.33371 -102.136719 -1.095409
45.483139 -100.961685 -3.002159
43.59621 -103.862976 -3.840708
42.714676 -105.575508 -6.562748
41.693027 -107.220985 -9.235308
30.010033 -118.546646 -14.950071
33.205048 -115.894745 -14.967949
31.393827 -116.915909 -16.775961
32.760796 -114.92952 -18.321306
34.098953 -112.578529 -19.601748
35.403103 -109.873009 -20.648386
32.058529 -112.803185 -20.594412
29.914042 -112.708832 -21.178679
27.730972 -112.303078 -21.413069
9.715889 -121.945145 12.325394
8.84449 -123.231277 9.819958
7.397856 -121.392776 12.701983
11.653576 -112.034042 27.752274
13.931377 -111.678741 26.312399
12.084692 -113.642143 24.561745
12.785561 -115.263832 21.515205
13.730581 -116.871002 18.634119
14.869668 -118.406601 15.900773
12.210609 -118.757828 16.737173
10.854977 -120.449059 14.634664
33.104393 -108.815193 12.793259
31.789951 -110.752724 10.504837
30.435787 -112.745361 8.293064
29.072285 -114.778053 6.107745
27.899025 -114.758087 8.476398
25.339699 -116.653267 8.865414
22.749918 -118.366211 9.406588
8.377954 -125.699051 -1.685291
10.442335 -126.608574 -4.486588
16.612194 -114.159225 -19.564508
14.869333 -112.496147 -19.169016
18.452896 -106.040398 -19.984968
49.158516 -93.510147 -10.077465
50.525715 -90.011536 -9.3258
50.138718 -90.90654 -11.708748
51.258469 -88.075165 -13.301624
52.528503 -85.072433 -14.876753
34.507507 -112.945404 -3.544306
36.062103 -112.194878 -5.799032
33.212399 -114.878456 -6.071968
31.819031 -116.729012 -8.506229
30.298878 -118.413315 -10.789173
25.9832 -121.627441 -7.953793
27.278292 -120.860916 -10.500174
28.629402 -119.84845 -12.848835
26.802471 -120.960701 -14.611288
24.829285 -121.693184 -16.016394
22.740082 -122.011467 -17.032808
5.987562 -114.231911 24.457912
9.541203 -111.957001 29.039656
7.678627 -113.199249 26.854393
28.401276 -108.912842 16.54809
46.170597 -96.385254 -18.957769
48.209614 -92.762466 -18.249041
47.211124 -93.032822 -20.006117
48.266838 -89.517029 -20.989542
49.334213 -85.892593 -21.950502
45.596558 -89.209785 -23.296049
48.040771 -85.685257 -23.108782
49.126953 -90.419571 1.739603
50.017899 -88.759232 -0.251217
49.143524 -91.827736 -0.772554
49.003777 -93.217461 -3.296988
48.708778 -94.563713 -5.840544
46.500595 -99.550995 -4.855221
47.411102 -97.851067 -6.653364
48.2724 -95.83577 -8.394207
47.706116 -96.99894 -10.928122
47.008125 -98.018387 -13.39023
46.160824 -98.863533 -15.710047
37.618206 -111.288727 -7.935167
39.119995 -110.160599 -9.941141
40.524986 -108.742386 -11.809208
36.297852 -113.061523 -14.707962
39.194927 -110.083984 -14.213835
41.813911 -106.980873 -13.532614
42.993271 -104.84903 -15.106447
44.089287 -102.349312 -16.529539
45.137337 -99.511322 -17.807936
43.913799 -99.947495 -19.608706
42.48251 -100.165909 -21.056555
40.860512 -100.166267 -22.127508
36.671452 -106.839973 -21.504343
37.901737 -103.517792 -22.217199
39.08984 -99.951241 -22.834826
37.230362 -99.523575 -23.224627
35.348866 -98.883781 -23.363348
33.508774 -98.028572 -23.320772
15.853554 -126.264854 1.845835
15.608684 -126.935974 -0.407602
13.865156 -126.692421 1.794339
11.849552 -126.73938 1.640489
9.897465 -126.358772 1.474332
8.281036 -124.279602 7.13518
8.038897 -125.057495 4.294373
8.092859 -125.536072 1.334455
6.49234 -124.289772 1.237905
27.277836 -107.629967 18.546864
25.868759 -110.246384 16.797438
16.317429 -110.940269 24.831741
18.766756 -109.901184 23.423279
21.245605 -108.671204 22.195625
22.208744 -110.178978 19.686161
23.27833 -111.58271 17.36389
24.414818 -112.805992 15.153998
22.954025 -115.2752 13.526382
21.51569 -117.624382 11.836979
20.12487 -119.824799 10.034727
16.139214 -119.795197 13.2693
17.472771 -120.960167 10.684862
18.809998 -121.843132 8.103072
17.611393 -123.634895 6.060938
16.591015 -125.137413 3.957219
17.874174 -125.49424 1.545321
48.297089 -91.909508 3.777258
47.475952 -94.809448 3.169881
46.3797 -97.662285 2.453052
45.345268 -98.808144 4.45126
44.918316 -100.441223 1.666405
43.065605 -103.145302 0.866116
40.858181 -105.792564 0.118237
38.378696 -108.407516 -0.510221
36.596504 -106.872894 11.248533
39.041504 -105.69001 7.053786
38.002678 -107.345581 4.329333
36.894535 -109.125305 1.663024
35.729832 -111.00666 -0.96067
33.008347 -113.586334 -1.190639
30.287201 -116.115944 -1.178469
27.610416 -118.537842 -0.925226
27.71451 -116.823578 3.917495
26.362089 -118.840683 1.719473
25.000938 -120.773277 -0.455549
22.478207 -122.732605 0.179888
20.079773 -124.328201 0.895738
15.842052 -127.194878 -2.968597
16.338959 -127.128059 -5.752319
17.008331 -126.745491 -8.580624
12.692511 -126.977081 -7.078756
15.141198 -126.785767 -9.371994
17.793562 -126.043068 -11.295965
18.657953 -125.010452 -13.769768
19.585527 -123.634811 -15.909845
20.580585 -121.907143 -17.666803
10.276794 -123.138985 -12.611786
10.811666 -121.686455 -14.633444
12.674538 -123.080132 -14.759495
15.392361 -122.492737 -16.546045
18.405418 -121.396454 -17.965075
21.661634 -119.827263 -19.040777
22.84973 -117.402863 -20.070883
24.157272 -114.65184 -20.82416
25.579687 -111.599907 -21.381529
20.001522 -112.588814 -20.432112
23.526308 -110.61438 -21.170935
27.093134 -108.27668 -21.824926
28.658363 -104.711319 -22.228811
30.229445 -100.92923 -22.655752
31.76395 -96.950562 -23.154833
23.747129 -100.496513 -21.141756
26.987041 -98.222336 -22.014597
51.02726 -86.899345 -2.196898
52.205917 -84.827209 -4.105391
51.925919 -86.565559 -8.704834
53.451996 -83.234428 -8.224236
50.122078 -89.122726 -17.555983
52.002277 -85.50737 -16.944502
50.418951 -86.629493 1.156375
50.849886 -85.214775 1.311199
50.323734 -86.060363 2.325762
37.246657 -92.839886 -24.178199
35.758988 -94.431739 -23.878262
5.833343 -116.719479 20.006646
6.243294 -117.712288 18.459834
6.888134 -117.187092 19.737558
40.788732 -104.114059 6.358847
41.417374 -103.660553 5.322214
12.999185 -124.94167 -12.550047
12.712136 -125.465683 -11.313987
11.776351 -124.988019 -11.402705
14.761819 -118.086345 -18.344271
13.276616 -118.523964 -17.69804
13.810976 -117.322232 -18.199737
53.823484 -82.801304 -12.471381
53.652109 -83.036984 -13.545549
51.493151 -84.159969 -20.331493
51.005532 -84.154144 -21.091498
52.853414 -82.511905 -1.708181
52.106567 -83.438507 -0.707235
52.894198 -82.875991 -2.807379
52.853414 -82.511905 -1.708181
41.528578 -87.838184 -24.745531
40.978226 -89.916511 -24.433691
40.136804 -89.536777 -24.612932
42.877365 -86.145302 -24.901944
41.528578 -87.838184 -24.745531
5.744046 -119.884838 14.325298
5.183315 -118.773491 15.838821
32.544055 -108.616085 13.770972
33.72081 -107.876316 14.003849
33.160472 -107.677208 14.981562
8.591943 -125.619808 -3.184781
7.624525 -125.017586 -1.736612
13.344544 -112.954143 -18.611206
14.16068 -113.892406 -18.833534
16.82107 -106.719944 -19.550216
17.504512 -107.722736 -19.811472
5.125362 -113.636696 24.737671
5.921376 -113.277794 26.052957
9.564248 -111.122986 30.661464
10.512719 -111.19727 30.03346
6.766908 -112.761463 27.251198
7.669273 -112.315121 28.463279
5.921376 -113.277794 26.052957
6.833094 -113.71558 25.656153
6.766908 -112.761463 27.251198
29.062378 -107.685623 17.540358
29.629171 -108.267277 16.596264
48.544193 -83.769226 -23.538775
47.311872 -85.498848 -23.562489
47.815294 -83.582817 -23.992481
49.222574 -83.941795 -23.020489
48.544193 -83.769226 -23.538775
7.492993 -123.376114 8.579553
8.562763 -123.755439 8.477569
7.77472 -122.851952 9.921941
26.021354 -108.25977 18.745678
26.732156 -106.875054 19.603633
25.475674 -107.504856 19.802447
48.226695 -91.172943 5.085035
48.638056 -90.461433 4.01625
47.028008 -95.441479 4.185832
47.477843 -94.040123 4.514588
47.029898 -94.672154 5.530539
44.533699 -100.136109 4.054305
44.791462 -99.342724 5.470506
43.979893 -100.670688 5.073551
35.417061 -107.853901 11.00244
36.026714 -106.980827 12.260128
34.847271 -107.961834 12.014035
37.224715 -107.19347 7.827696
36.599535 -107.456288 8.905242
36.039459 -108.275277 7.56821
37.853071 -106.851235 6.772225
38.413147 -106.032246 8.109257
37.224715 -107.19347 7.827696
9.44039 -122.316566 -12.519358
9.236318 -122.904267 -11.377741
8.399914 -122.081848 -11.285314
24.704933 -98.492302 -21.369371
23.145361 -99.532723 -20.894564
26.324889 -97.355213 -21.805792
25.367085 -99.359424 -21.578176
24.704933 -98.492302 -21.369371
52.85051 -84.129845 -6.192861
52.894239 -83.686306 -5.04818
52.162188 -85.270748 -5.250072
54.213852 -81.904377 -9.141449
53.342308 -83.568027 -9.34663
54.104164 -82.237977 -10.263844
54.302597 -81.650982 -8.047942
54.213852 -81.904377 -9.141449
52.666531 -83.873718 -17.667724
51.65763 -85.653667 -17.894747
52.321884 -84.020016 -18.61797
52.963453 -83.728424 -16.701284
52.666531 -83.873718 -17.667724
51.490522 -84.374786 0.282161
50.849886 -85.214775 1.311199
51.561148 -84.847625 -0.847585
52.106567 -83.438507 -0.707235
51.490522 -84.374786 0.282161
38.722831 -91.194699 -24.387335
38.110277 -93.260292 -24.091957
37.246657 -92.839886 -24.178199
40.136804 -89.536777 -24.612932
38.722831 -91.194699 -24.387335
5.673903 -118.304474 17.199431
6.728694 -118.772087 16.930343
6.243294 -117.712288 18.459834
5.183315 -118.773491 15.838821
5.673903 -118.304474 17.199431
45.797577 -85.044182 -24.363075
45.30435 -87.055961 -24.028345
44.518953 -86.787705 -24.375225
47.069899 -83.32898 -24.406852
45.797577 -85.044182 -24.363075
47.815294 -83.582817 -23.992481
47.069899 -83.32898 -24.406852
5.58558 -122.311218 8.674906
6.521902 -122.904545 8.610409
5.502797 -122.656284 7.208062
5.58558 -122.311218 8.674906
5.476313 -122.96365 5.73615
6.31237 -123.64383 5.724981
5.502797 -122.656284 7.208062
5.538528 -123.197178 4.234916
5.476313 -122.96365 5.73615
24.24604 -108.131222 20.096023
25.475674 -107.504856 19.802447
46.612322 -95.311386 6.591689
47.029898 -94.672154 5.530539
43.096299 -101.942024 4.67548
43.979893 -100.670688 5.073551
42.096749 -103.236518 4.288374
42.72258 -102.758567 3.270245
43.096299 -101.942024 4.67548
41.043655 -104.477097 3.916979
42.096749 -103.236518 4.288374
41.417374 -103.660553 5.322214
12.387363 -125.940003 -10.028968
12.112098 -126.29755 -8.653645
11.214037 -125.86958 -8.791322
13.610197 -125.893653 -11.17631
12.387363 -125.940003 -10.028968
12.712136 -125.465683 -11.313987
11.89627 -118.827031 -16.915653
10.589878 -119.017914 -16.108202
12.847113 -119.591144 -17.060187
11.89627 -118.827031 -16.915653
13.276616 -118.523964 -17.69804
53.975332 -82.48948 -11.355736
53.080772 -84.213452 -11.58467
53.823484 -82.801304 -12.471381
54.104164 -82.237977 -10.263844
53.975332 -82.48948 -11.355736
51.935417 -84.094467 -19.491197
50.870718 -85.865467 -19.685288
51.493151 -84.159969 -20.331493
52.321884 -84.020016 -18.61797
51.935417 -84.094467 -19.491197
43.69109 -86.496921 -24.638123
44.518953 -86.787705 -24.375225
43.197862 -88.508701 -24.303393
43.69109 -86.496921 -24.638123
42.877365 -86.145302 -24.901944
7.051403 -121.932701 11.362954
7.77472 -122.851952 9.921941
8.121173 -122.312027 11.26097
6.363321 -120.89909 12.84132
6.77858 -120.378524 14.185962
5.744046 -119.884838 14.325298
7.051403 -121.932701 11.362954
6.363321 -120.89909 12.84132
12.792476 -111.856392 27.032336
13.748876 -110.906887 27.926932
12.609976 -111.084538 28.64687
34.280659 -107.951977 13.032491
33.72081 -107.876316 14.003849
33.671005 -108.825051 11.774804
34.847271 -107.961834 12.014035
34.280659 -107.951977 13.032491
9.624133 -126.074569 -4.58543
9.410145 -126.153813 -3.08594
8.591943 -125.619808 -3.184781
9.872352 -125.883846 -6.050135
10.690554 -126.417851 -5.951294
9.624133 -126.074569 -4.58543
10.115771 -125.64407 -7.491578
9.872352 -125.883846 -6.050135
11.214037 -125.86958 -8.791322
10.115771 -125.64407 -7.491578
10.924186 -124.362709 -11.438053
11.776351 -124.988019 -11.402705
14.374104 -116.08664 -18.67201
13.810976 -117.322232 -18.199737
15.032111 -114.723946 -19.031281
15.954186 -115.521919 -19.205238
14.374104 -116.08664 -18.67201
15.740763 -113.327686 -19.366762
15.032111 -114.723946 -19.031281
14.16068 -113.892406 -18.833534
14.114572 -111.525489 -18.925905
13.344544 -112.954143 -18.611206
15.712731 -110.950611 -19.403496
14.114572 -111.525489 -18.925905
17.362766 -110.269481 -19.855514
16.519368 -111.815017 -19.621035
15.712731 -110.950611 -19.403496
18.240507 -108.6194 -20.045088
19.047144 -109.483807 -20.262627
17.362766 -110.269481 -19.855514
19.18889 -106.937061 -20.218584
18.240507 -108.6194 -20.045088
17.504512 -107.722736 -19.811472
53.451898 -83.310562 -14.633768
53.652109 -83.036984 -13.545549
52.728714 -84.798855 -13.788533
5.264619 -114.674999 23.15975
5.50993 -115.656185 21.572979
6.232873 -115.213097 22.871141
5.264619 -114.674999 23.15975
5.125362 -113.636696 24.737671
11.568906 -111.23579 29.389769
12.609976 -111.084538 28.64687
10.597389 -111.995521 28.395965
11.568906 -111.23579 29.389769
10.512719 -111.19727 30.03346
8.600561 -111.693996 29.555911
9.564248 -111.122986 30.661464
8.609915 -112.578125 27.947025
8.600561 -111.693996 29.555911
7.669273 -112.315121 28.463279
32.59859 -107.39341 15.914832
33.160472 -107.677208 14.981562
31.420392 -108.019345 15.696561
32.59859 -107.39341 15.914832
30.194941 -108.755448 15.613041
30.758266 -109.15308 14.665164
31.420392 -108.019345 15.696561
28.967045 -109.401013 15.564867
30.194941 -108.755448 15.613041
29.629171 -108.267277 16.596264
50.458412 -84.134956 -21.803957
51.005532 -84.154144 -21.091498
49.881332 -85.911781 -21.238042
49.869295 -84.045464 -22.441349
48.687492 -85.788925 -22.529642
49.222574 -83.941795 -23.020489
50.458412 -84.134956 -21.803957
49.869295 -84.045464 -22.441349
34.196324 -95.993286 -23.597237
35.758988 -94.431739 -23.878262
35.071438 -96.467026 -23.601797
7.309945 -123.808033 7.166037
7.492993 -123.376114 8.579553
6.521902 -122.904545 8.610409
6.681718 -124.312947 -0.275014
7.624525 -125.017586 -1.736612
7.435147 -124.994411 -0.223693
5.641756 -123.366467 2.727334
6.389113 -124.120484 2.745487
5.538528 -123.197178 4.234916
5.808816 -123.475647 1.214586
5.641756 -123.366467 2.727334
6.681718 -124.312947 -0.275014
5.808816 -123.475647 1.214586
5.833343 -116.719479 20.006646
5.50993 -115.656185 21.572979
27.93697 -106.312424 19.517507
26.732156 -106.875054 19.603633
28.500658 -107.044186 18.539746
27.93697 -106.312424 19.517507
27.839556 -108.271404 17.547477
29.062378 -107.685623 17.540358
28.500658 -107.044186 18.539746
14.854032 -110.551147 27.12981
13.748876 -110.906887 27.926932
16.047058 -110.181911 26.389481
14.854032 -110.551147 27.12981
15.124403 -111.309505 25.57207
17.193766 -109.66098 25.602176
16.047058 -110.181911 26.389481
18.41843 -109.141437 24.897945
17.193766 -109.66098 25.602176
17.542093 -110.420727 24.12751
19.590166 -108.511024 24.18337
18.41843 -109.141437 24.897945
20.829591 -107.896034 23.569543
19.590166 -108.511024 24.18337
20.00618 -109.286194 22.809452
22.013662 -107.222206 22.98583
20.829591 -107.896034 23.569543
22.486407 -108.022038 21.721589
22.013662 -107.222206 22.98583
22.967976 -108.775925 20.466857
22.486407 -108.022038 21.721589
21.727175 -109.425091 20.940893
23.486808 -109.534275 19.315326
24.24604 -108.131222 20.096023
22.967976 -108.775925 20.466857
49.782445 -86.830795 3.387262
50.323734 -86.060363 2.325762
49.435911 -88.24422 3.21309
49.782445 -86.830795 3.387262
49.052988 -89.716465 2.997422
49.509876 -88.947327 1.955271
49.435911 -88.24422 3.21309
48.712021 -91.16454 2.75843
49.052988 -89.716465 2.997422
48.638056 -90.461433 4.01625
47.888411 -92.590153 4.818276
48.226695 -91.172943 5.085035
47.886521 -93.359478 3.473569
47.888411 -92.590153 4.818276
47.477843 -94.040123 4.514588
46.101664 -96.663864 6.236756
46.612322 -95.311386 6.591689
45.484266 -98.031182 5.861495
44.791462 -99.342724 5.470506
45.962665 -97.440827 4.826522
46.101664 -96.663864 6.236756
45.484266 -98.031182 5.861495
37.137156 -106.086391 12.611071
36.026714 -106.980827 12.260128
37.704569 -105.860813 11.593345
37.137156 -106.086391 12.611071
37.190647 -106.623688 10.20663
36.005392 -107.705494 9.947145
36.599535 -107.456288 8.905242
37.704569 -105.860813 11.593345
37.190647 -106.623688 10.20663
39.515079 -104.924641 8.455948
38.413147 -106.032246 8.109257
40.127344 -104.508499 7.410331
39.515079 -104.924641 8.455948
39.702893 -105.29557 6.002302
40.788732 -104.114059 6.358847
40.127344 -104.508499 7.410331
10.030883 -123.700199 -11.424564
9.236318 -122.904267 -11.377741
11.170097 -123.801495 -12.625276
10.924186 -124.362709 -11.438053
10.030883 -123.700199 -11.424564
10.271494 -119.941899 -15.321418
10.589878 -119.017914 -16.108202
9.943943 -120.83802 -14.49924
10.271494 -119.941899 -15.321418
11.139217 -120.790333 -15.455622
9.707826 -121.590301 -13.530188
9.943943 -120.83802 -14.49924
10.54423 -122.41272 -13.622615
9.44039 -122.316566 -12.519358
9.707826 -121.590301 -13.530188
33.323912 -95.454281 -23.514267
34.196324 -95.993286 -23.597237
32.636362 -97.489567 -23.237803
17.843114 -105.005661 -19.70956
16.82107 -106.719944 -19.550216
19.46528 -104.231942 -20.139461
17.843114 -105.005661 -19.70956
21.14393 -103.352772 -20.538384
20.131546 -105.161228 -20.38389
19.46528 -104.231942 -20.139461
22.112397 -101.459999 -20.717855
23.145361 -99.532723 -20.894564
22.778663 -102.389286 -20.962284
21.14393 -103.352772 -20.538384
22.112397 -101.459999 -20.717855
27.856503 -96.151612 -22.299008
26.324889 -97.355213 -21.805792
28.572409 -96.930633 -22.458856
27.856503 -96.151612 -22.299008
29.338795 -97.668903 -22.636719
27.753428 -98.960605 -22.192459
28.572409 -96.930633 -22.458856
30.960863 -96.294747 -23.028975
30.141883 -98.324719 -22.762577
29.338795 -97.668903 -22.636719
32.49765 -94.870606 -23.458094
30.960863 -96.294747 -23.028975
33.323912 -95.454281 -23.514267
32.49765 -94.870606 -23.458094
52.908559 -83.333923 -3.941584
52.894198 -82.875991 -2.807379
52.191555 -84.369277 -2.971186
52.908559 -83.333923 -3.941584
52.894239 -83.686306 -5.04818
53.517279 -82.889916 -7.107602
52.85051 -84.129845 -6.192861
52.785227 -84.474357 -7.309495
53.517279 -82.889916 -7.107602
54.302597 -81.650982 -8.047942
53.226566 -83.510955 -15.66741
52.26539 -85.289901 -15.910628
52.963453 -83.728424 -16.701284
53.451898 -83.310562 -14.633768
53.226566 -83.510955 -15.66741
3 0 100 98
3 1 396 398
3 396 101 397
3 396 397 398
3 400 399 102
3 2 106 104
3 4 109 107
3 4 111 109
3 5 401 403
3 403 402 112
3 401 402 403
3 5 116 114
3 5 112 116
3 6 120 118
3 6 122 120
3 3 125 123
3 7 128 126
3 9 131 129
3 9 133 131
3 10 136 134
3 11 140 138
3 13 143 141
3 13 145 143
3 8 148 146
3 14 151 149
3 14 153 151
3 14 155 153
3 15 158 156
3 15 160 158
3 16 163 161
3 18 167 165
3 18 169 167
3 18 171 169
3 16 174 172
3 16 161 174
3 404 177 405
3 20 180 178
3 20 182 180
3 20 184 182
3 19 187 185
3 19 189 187
3 17 192 190
3 21 406 408
3 406 194 407
3 406 407 408
3 21 196 194
3 22 409 411
3 409 198 410
3 409 410 411
3 22 200 198
3 22 202 200
3 23 205 203
3 23 207 205
3 12 210 208
3 413 412 211
3 415 414 213
3 24 217 215
3 26 218 99
3 26 219 218
3 27 416 417
3 27 418 419
3 28 222 220
3 420 223 421
3 422 421 103
3 420 421 422
3 424 423 223
3 30 226 224
3 32 227 105
3 32 228 227
3 33 231 229
3 35 232 108
3 35 233 232
3 35 235 233
3 37 236 110
3 37 237 236
3 38 240 238
3 426 425 113
3 39 243 241
3 41 244 115
3 41 245 244
3 41 247 245
3 38 248 117
3 38 238 248
3 43 427 429
3 427 249 428
3 427 428 429
3 45 250 119
3 45 251 250
3 45 253 251
3 47 254 121
3 47 255 254
3 431 430 256
3 432 259 433
3 434 260 435
3 50 263 261
3 52 264 124
3 52 265 264
3 53 268 266
3 55 269 127
3 55 270 269
3 25 271 216
3 56 272 130
3 56 273 272
3 56 274 273
3 57 275 132
3 57 276 275
3 437 436 277
3 438 278 439
3 440 279 441
3 442 277 443
3 444 443 279
3 442 443 444
3 445 280 446
3 58 283 281
3 60 284 135
3 60 285 284
3 29 286 221
3 447 287 448
3 449 448 137
3 447 448 449
3 451 450 287
3 61 290 288
3 63 291 139
3 63 292 291
3 31 293 225
3 64 294 142
3 64 295 294
3 64 296 295
3 65 297 144
3 65 298 297
3 54 299 267
3 66 300 147
3 66 301 300
3 34 302 230
3 67 303 150
3 67 304 303
3 67 305 304
3 68 306 152
3 68 307 306
3 68 308 307
3 69 309 154
3 69 310 309
3 36 311 234
3 70 312 157
3 70 313 312
3 70 314 313
3 71 315 159
3 71 316 315
3 72 319 317
3 74 320 162
3 74 321 320
3 452 322 453
3 454 453 239
3 452 453 454
3 75 323 164
3 75 324 323
3 75 325 324
3 76 455 457
3 455 326 456
3 455 456 457
3 76 327 326
3 40 328 242
3 77 329 166
3 77 330 329
3 77 331 330
3 78 332 168
3 78 333 332
3 78 334 333
3 79 335 170
3 79 336 335
3 42 337 246
3 80 338 173
3 80 339 338
3 80 340 339
3 72 341 175
3 72 317 341
3 458 343 459
3 82 460 462
3 460 344 461
3 460 461 462
3 82 345 344
3 83 463 465
3 463 346 464
3 463 464 465
3 83 347 346
3 83 348 347
3 84 349 176
3 84 350 349
3 44 466 468
3 466 351 467
3 466 467 468
3 85 469 471
3 471 470 179
3 469 470 471
3 85 472 474
3 472 352 473
3 472 473 474
3 85 353 352
3 86 354 181
3 86 355 354
3 86 356 355
3 87 357 183
3 87 358 357
3 46 359 252
3 88 360 186
3 88 361 360
3 88 362 361
3 81 363 188
3 81 342 363
3 73 364 318
3 89 365 191
3 89 366 365
3 48 367 257
3 90 368 193
3 90 369 368
3 90 370 369
3 91 371 195
3 91 372 371
3 475 373 476
3 475 476 477
3 92 374 197
3 92 375 374
3 92 376 375
3 93 377 199
3 93 378 377
3 93 379 378
3 94 380 201
3 94 381 380
3 49 382 258
3 95 383 204
3 95 384 383
3 95 385 384
3 96 386 206
3 96 387 386
3 478 388 479
3 480 389 481
3 482 481 388
3 480 481 482
3 62 390 289
3 97 391 209
3 97 483 485
3 485 484 391
3 483 484 485
3 51 392 262
3 486 393 487
3 488 487 212
3 486 487 488
3 490 489 393
3 59 394 282
3 491 395 492
3 493 492 214
3 491 492 493
3 495 494 395
3 98 99 24
3 100 99 98
3 100 26 99
3 101 496 497
3 101 498 500
3 498 27 499
3 498 499 500
3 102 103 28
3 501 103 502
3 503 502 102
3 501 502 503
3 505 504 103
3 104 105 30
3 106 105 104
3 106 32 105
3 107 108 33
3 109 108 107
3 109 35 108
3 109 110 35
3 111 110 109
3 111 37 110
3 112 113 38
3 506 113 507
3 508 507 112
3 506 507 508
3 510 509 113
3 114 115 39
3 116 115 114
3 116 41 115
3 116 117 41
3 112 117 116
3 112 38 117
3 118 119 43
3 120 119 118
3 120 45 119
3 120 121 45
3 122 121 120
3 122 47 121
3 123 124 50
3 125 124 123
3 125 52 124
3 126 127 53
3 128 127 126
3 128 55 127
3 129 130 25
3 131 130 129
3 131 56 130
3 131 132 56
3 133 132 131
3 133 57 132
3 134 135 58
3 136 135 134
3 136 60 135
3 511 137 512
3 513 512 29
3 511 512 513
3 514 137 515
3 517 516 137
3 138 139 61
3 140 139 138
3 140 63 139
3 141 142 31
3 143 142 141
3 143 64 142
3 143 144 64
3 145 144 143
3 145 65 144
3 146 147 54
3 148 147 146
3 148 66 147
3 149 150 34
3 151 150 149
3 151 67 150
3 151 152 67
3 153 152 151
3 153 68 152
3 153 154 68
3 155 154 153
3 155 69 154
3 156 157 36
3 158 157 156
3 158 70 157
3 158 159 70
3 160 159 158
3 160 71 159
3 161 162 72
3 163 162 161
3 163 74 162
3 518 164 519
3 520 164 521
3 522 75 523
3 524 523 164
3 522 523 524
3 526 525 75
3 527 76 528
3 165 166 40
3 167 166 165
3 167 77 166
3 167 168 77
3 169 168 167
3 169 78 168
3 169 170 78
3 171 170 169
3 171 79 170
3 172 173 42
3 174 173 172
3 174 80 173
3 174 175 80
3 161 175 174
3 161 72 175
3 529 82 530
3 531 83 532
3 533 176 534
3 535 534 83
3 533 534 535
3 177 536 538
3 536 176 537
3 536 537 538
3 177 84 176
3 178 179 44
3 180 179 178
3 180 85 179
3 180 181 85
3 182 181 180
3 182 86 181
3 182 183 86
3 184 183 182
3 184 87 183
3 185 186 46
3 187 186 185
3 187 88 186
3 187 188 88
3 189 188 187
3 189 81 188
3 190 191 73
3 192 191 190
3 192 89 191
3 539 193 540
3 541 540 48
3 539 540 541
3 194 542 544
3 542 193 543
3 542 543 544
3 194 90 193
3 194 195 90
3 196 195 194
3 196 91 195
3 545 197 546
3 198 547 549
3 547 197 548
3 547 548 549
3 198 92 197
3 198 199 92
3 200 199 198
3 200 93 199
3 200 201 93
3 202 201 200
3 202 94 201
3 203 204 49
3 205 204 203
3 205 95 204
3 205 206 95
3 207 206 205
3 207 96 206
3 208 209 62
3 210 209 208
3 210 97 209
3 211 212 51
3 550 212 551
3 552 551 211
3 550 551 552
3 554 553 212
3 213 214 59
3 555 214 556
3 557 556 213
3 555 556 557
3 559 558 214
3 215 216 7
3 217 216 215
3 217 25 216
3 99 217 24
3 218 217 99
3 218 25 217
3 218 129 25
3 219 129 218
3 219 9 129
3 220 221 10
3 222 221 220
3 222 29 221
3 103 222 28
3 223 222 103
3 223 29 222
3 223 560 562
3 562 561 29
3 560 561 562
3 564 563 223
3 224 225 11
3 226 225 224
3 226 31 225
3 105 226 30
3 227 226 105
3 227 31 226
3 227 141 31
3 228 141 227
3 228 13 141
3 229 230 8
3 231 230 229
3 231 34 230
3 108 231 33
3 232 231 108
3 232 34 231
3 232 149 34
3 233 149 232
3 233 14 149
3 233 234 14
3 235 234 233
3 235 36 234
3 110 235 35
3 236 235 110
3 236 36 235
3 236 156 36
3 237 156 236
3 237 15 156
3 238 239 16
3 240 239 238
3 240 565 567
3 567 566 239
3 565 566 567
3 113 240 38
3 568 240 569
3 570 569 113
3 568 569 570
3 572 571 240
3 241 573 575
3 573 242 574
3 573 574 575
3 243 242 241
3 243 40 242
3 115 243 39
3 244 243 115
3 244 40 243
3 244 165 40
3 245 165 244
3 245 18 165
3 245 246 18
3 247 246 245
3 247 42 246
3 117 247 41
3 248 247 117
3 248 42 247
3 248 172 42
3 238 172 248
3 238 16 172
3 249 576 577
3 249 578 580
3 578 44 579
3 578 579 580
3 119 249 43
3 250 249 119
3 250 44 249
3 250 178 44
3 251 178 250
3 251 20 178
3 251 252 20
3 253 252 251
3 253 46 252
3 121 253 45
3 254 253 121
3 254 46 253
3 254 185 46
3 255 185 254
3 255 19 185
3 256 257 17
3 581 257 582
3 583 582 256
3 581 582 583
3 584 48 585
3 586 585 257
3 584 585 586
3 587 48 588
3 590 589 48
3 591 21 592
3 593 22 594
3 595 258 596
3 597 596 22
3 595 596 597
3 259 598 600
3 598 258 599
3 598 599 600
3 259 49 258
3 601 259 602
3 603 259 604
3 605 49 606
3 607 606 259
3 605 606 607
3 608 203 609
3 610 609 49
3 608 609 610
3 260 611 613
3 611 203 612
3 611 612 613
3 260 23 203
3 261 262 12
3 263 262 261
3 263 51 262
3 124 263 50
3 264 263 124
3 264 51 263
3 264 211 51
3 265 211 264
3 265 614 616
3 616 615 211
3 614 615 616
3 266 267 2
3 268 267 266
3 268 54 267
3 127 268 53
3 269 268 127
3 269 54 268
3 269 146 54
3 270 146 269
3 270 8 146
3 216 128 7
3 271 128 216
3 271 55 128
3 130 271 25
3 272 271 130
3 272 55 271
3 272 270 55
3 273 270 272
3 273 8 270
3 273 229 8
3 274 229 273
3 274 33 229
3 132 274 56
3 275 274 132
3 275 33 274
3 275 107 33
3 276 107 275
3 276 4 107
3 277 617 619
3 619 618 5
3 617 618 619
3 621 620 277
3 622 241 623
3 278 624 626
3 624 241 625
3 624 625 626
3 278 39 241
3 627 278 628
3 279 629 631
3 629 278 630
3 629 630 631
3 279 39 278
3 279 114 39
3 277 114 279
3 277 5 114
3 632 43 633
3 634 43 635
3 636 118 637
3 638 637 43
3 636 637 638
3 280 639 641
3 639 118 640
3 639 640 641
3 280 6 118
3 281 282 3
3 283 282 281
3 283 59 282
3 135 283 58
3 284 283 135
3 284 59 283
3 284 213 59
3 285 213 284
3 285 642 644
3 644 643 213
3 642 643 644
3 221 136 10
3 286 136 221
3 286 60 136
3 137 286 29
3 287 286 137
3 287 60 286
3 287 285 60
3 645 285 646
3 647 646 287
3 645 646 647
3 649 648 285
3 288 289 1
3 290 289 288
3 290 62 289
3 139 290 61
3 291 290 139
3 291 62 290
3 291 208 62
3 292 208 291
3 292 12 208
3 225 140 11
3 293 140 225
3 293 63 140
3 142 293 31
3 294 293 142
3 294 63 293
3 294 292 63
3 295 292 294
3 295 12 292
3 295 261 12
3 296 261 295
3 296 50 261
3 144 296 64
3 297 296 144
3 297 50 296
3 297 123 50
3 298 123 297
3 298 3 123
3 267 106 2
3 299 106 267
3 299 32 106
3 147 299 54
3 300 299 147
3 300 32 299
3 300 228 32
3 301 228 300
3 301 13 228
3 230 148 8
3 302 148 230
3 302 66 148
3 150 302 34
3 303 302 150
3 303 66 302
3 303 301 66
3 304 301 303
3 304 13 301
3 304 145 13
3 305 145 304
3 305 65 145
3 152 305 67
3 306 305 152
3 306 65 305
3 306 298 65
3 307 298 306
3 307 3 298
3 307 281 3
3 308 281 307
3 308 58 281
3 154 308 68
3 309 308 154
3 309 58 308
3 309 134 58
3 310 134 309
3 310 10 134
3 234 155 14
3 311 155 234
3 311 69 155
3 157 311 36
3 312 311 157
3 312 69 311
3 312 310 69
3 313 310 312
3 313 10 310
3 313 220 10
3 314 220 313
3 314 28 220
3 159 314 70
3 315 314 159
3 315 28 314
3 315 102 28
3 316 102 315
3 316 650 652
3 652 651 102
3 650 651 652
3 317 318 0
3 319 318 317
3 319 73 318
3 162 319 72
3 320 319 162
3 320 73 319
3 320 190 73
3 321 190 320
3 321 17 190
3 239 163 16
3 322 163 239
3 322 74 163
3 164 653 655
3 653 322 654
3 653 654 655
3 323 322 164
3 323 74 322
3 323 321 74
3 324 321 323
3 324 17 321
3 324 256 17
3 325 256 324
3 325 656 658
3 658 657 256
3 656 657 658
3 659 325 660
3 661 660 75
3 659 660 661
3 662 325 663
3 665 664 325
3 667 666 5
3 326 668 669
3 326 670 671
3 326 672 674
3 672 280 673
3 672 673 674
3 327 280 326
3 327 6 280
3 242 675 676
3 328 677 679
3 679 678 242
3 677 678 679
3 328 680 681
3 166 328 40
3 329 328 166
3 329 682 684
3 684 683 328
3 682 683 684
3 329 685 686
3 330 687 689
3 689 688 329
3 687 688 689
3 330 690 691
3 330 692 693
3 331 694 696
3 696 695 330
3 694 695 696
3 331 697 699
3 697 76 698
3 697 698 699
3 168 331 77
3 332 331 168
3 332 76 331
3 332 327 76
3 333 327 332
3 333 6 327
3 333 122 6
3 334 122 333
3 334 47 122
3 170 334 78
3 335 334 170
3 335 47 334
3 335 255 47
3 336 255 335
3 336 19 255
3 246 171 18
3 337 171 246
3 337 79 171
3 173 337 42
3 338 337 173
3 338 79 337
3 338 336 79
3 339 336 338
3 339 19 336
3 339 189 19
3 340 189 339
3 340 81 189
3 175 340 80
3 341 340 175
3 341 81 340
3 341 342 81
3 317 342 341
3 317 0 342
3 700 1 701
3 702 1 703
3 704 288 705
3 706 705 1
3 704 705 706
3 343 707 709
3 707 288 708
3 707 708 709
3 343 61 288
3 710 343 711
3 344 712 714
3 712 343 713
3 712 713 714
3 344 61 343
3 344 138 61
3 345 138 344
3 345 11 138
3 715 82 716
3 346 717 718
3 346 719 721
3 719 82 720
3 719 720 721
3 346 345 82
3 347 345 346
3 347 11 345
3 347 224 11
3 348 224 347
3 348 30 224
3 176 348 83
3 349 348 176
3 349 30 348
3 349 104 30
3 350 104 349
3 350 2 104
3 351 722 723
3 351 724 725
3 179 351 44
3 726 351 727
3 728 727 179
3 726 727 728
3 730 729 351
3 352 731 732
3 352 733 734
3 352 735 737
3 735 177 736
3 735 736 737
3 353 177 352
3 353 84 177
3 181 353 85
3 354 353 181
3 354 84 353
3 354 350 84
3 355 350 354
3 355 2 350
3 355 266 2
3 356 266 355
3 356 53 266
3 183 356 86
3 357 356 183
3 357 53 356
3 357 126 53
3 358 126 357
3 358 7 126
3 252 184 20
3 359 184 252
3 359 87 184
3 186 359 46
3 360 359 186
3 360 87 359
3 360 358 87
3 361 358 360
3 361 7 358
3 361 215 7
3 362 215 361
3 362 24 215
3 188 362 88
3 363 362 188
3 363 24 362
3 363 98 24
3 342 98 363
3 342 0 98
3 318 100 0
3 364 100 318
3 364 26 100
3 191 364 73
3 365 364 191
3 365 26 364
3 365 219 26
3 366 219 365
3 366 9 219
3 257 192 17
3 367 192 257
3 367 89 192
3 193 367 48
3 368 367 193
3 368 89 367
3 368 366 89
3 369 366 368
3 369 9 366
3 369 133 9
3 370 133 369
3 370 57 133
3 195 370 90
3 371 370 195
3 371 57 370
3 371 276 57
3 372 276 371
3 372 4 276
3 373 738 739
3 373 740 742
3 740 21 741
3 740 741 742
3 197 743 744
3 374 745 747
3 747 746 197
3 745 746 747
3 374 748 749
3 374 750 752
3 750 373 751
3 750 751 752
3 375 373 374
3 375 21 373
3 375 196 21
3 376 196 375
3 376 91 196
3 199 376 92
3 377 376 199
3 377 91 376
3 377 372 91
3 378 372 377
3 378 4 372
3 378 111 4
3 379 111 378
3 379 37 111
3 201 379 93
3 380 379 201
3 380 37 379
3 380 237 37
3 381 237 380
3 381 15 237
3 258 202 22
3 382 202 258
3 382 94 202
3 204 382 49
3 383 382 204
3 383 94 382
3 383 381 94
3 384 381 383
3 384 15 381
3 384 160 15
3 385 160 384
3 385 71 160
3 206 385 95
3 386 385 206
3 386 71 385
3 386 316 71
3 387 316 386
3 387 753 755
3 755 754 316
3 753 754 755
3 756 260 757
3 758 260 759
3 760 23 761
3 762 761 260
3 760 761 762
3 388 763 764
3 388 765 767
3 765 23 766
3 765 766 767
3 388 207 23
3 389 207 388
3 389 96 207
3 768 389 769
3 770 389 771
3 772 96 773
3 774 773 389
3 772 773 774
3 775 387 776
3 777 776 96
3 775 776 777
3 778 387 779
3 781 780 387
3 289 101 1
3 390 101 289
3 390 27 101
3 209 390 62
3 391 390 209
3 391 27 390
3 391 782 784
3 784 783 27
3 782 783 784
3 786 785 391
3 262 210 12
3 392 210 262
3 392 97 210
3 212 392 51
3 393 392 212
3 393 97 392
3 393 787 789
3 789 788 97
3 787 788 789
3 791 790 393
3 282 125 3
3 394 125 282
3 394 52 125
3 214 394 59
3 395 394 214
3 395 52 394
3 395 265 52
3 792 265 793
3 794 793 395
3 792 793 794
3 796 795 265
