ply
format ascii 1.0
element vertex 974
property float x
property float y
property float z
element face 1224
property list uchar int vertex_index
end_header
-11.488285 -78.566772 6.409495
-4.192778 -53.289368 69.938187
-3.30929 -89.332047 39.680367
-3.242828 -89.619781 58.933296
-3.323248 -69.764748 75.747986
0.00713 -70.259232 56.205048
-3.291842 -47.547077 51.222927
-0.572479 -67.975571 36.834274
-2.035107 -79.558617 67.848854
-5.059523 -86.424789 29.708662
-4.883583 -51.376228 59.39801
0.06814 -80.667374 47.98737
-0.578346 -69.528137 46.014252
-1.030396 -79.537888 37.905888
-2.147373 -77.115189 28.699833
-2.636934 -90.613846 49.752094
-7.665945 -98.023895 49.475182
-2.49992 -61.900455 74.513718
-1.857832 -61.226097 63.784149
-0.541838 -70.362297 66.749084
-0.070463 -80.689125 58.360683
-3.369648 -53.670765 80.621803
-5.248362 -61.158401 82.943802
-9.163219 -80.607254 12.313556
-2.012274 -59.482075 53.710415
-1.474325 -56.770485 45.156799
0.844347 -65.863525 28.624966
-2.750475 -74.149933 20.030643
-4.517588 -71.774597 11.751742
-10.239424 -75.039536 5.499653
-11.544174 -74.976318 2.468179
-12.637691 -79.588593 3.928304
-4.091846 -88.044296 34.619877
-5.817709 -47.315758 61.791199
-4.722544 -52.56517 64.485123
-1.268017 -85.322357 43.870934
-0.379501 -80.261703 42.860802
-1.981215 -84.504852 38.810139
-2.896481 -83.331879 33.906906
-2.753765 -90.456375 54.506634
-4.972383 -94.861435 50.042152
-5.352936 -93.97287 54.246788
-2.47871 -65.872444 75.567108
-1.361021 -65.937981 70.753082
-1.570805 -70.19474 71.620148
-2.132961 -84.7603 63.511642
-0.761627 -80.295387 63.322189
-1.239735 -85.579163 58.952351
-0.860985 -85.893478 54.061806
-3.752539 -53.187523 84.982323
-4.158871 -57.595825 82.471809
-5.566311 -56.688835 85.8591
-7.996157 -81.633194 16.261808
-0.707052 -65.465454 60.14175
-1.910244 -60.505024 58.557682
-0.883165 -64.967422 54.956005
-0.782005 -68.847092 41.275337
-1.330219 -63.333359 45.421791
-1.010855 -62.306473 41.082718
-0.141935 -61.278954 37.007317
0.062551 -66.961578 32.666206
-4.609783 -80.214409 24.703579
-2.440306 -75.610703 24.346163
-5.284277 -78.648438 20.319653
-6.052387 -77.329361 16.070841
-1.931242 -66.817047 11.53966
-0.842249 -67.963913 15.668346
-4.866179 -73.569977 75.34201
-2.528969 -74.452789 71.894508
-6.059046 -84.645294 25.009418
-5.912357 -45.713638 57.05125
-4.435017 -49.666756 54.949528
0.360991 -75.483841 52.110882
-0.220692 -69.993576 51.008854
0.097118 -75.282196 46.924355
-0.326096 -74.833389 41.916553
-0.669146 -74.095467 37.161804
-0.736547 -73.071297 32.690662
-1.676306 -78.472351 33.18808
-3.821381 -81.851456 29.212795
-2.81909 -90.208206 44.769264
-4.617689 -94.199997 40.457996
-4.710571 -94.892456 45.417953
-6.777948 -99.024216 45.512135
-3.224525 -57.754627 72.552567
-3.286337 -57.295639 67.051216
-2.002644 -61.685795 69.208115
-0.824091 -65.781631 65.488159
-0.064501 -70.371902 61.512379
-0.981087 -75.026711 67.542915
-0.089737 -75.351059 62.604927
0.321688 -75.495705 57.384922
0.185539 -80.802513 53.192806
-0.881781 -85.788162 48.991886
-3.622637 -53.656361 75.439774
-3.431654 -57.892017 77.850563
-3.537397 -61.78191 79.264694
-4.320095 -65.438721 79.476501
-10.491348 -79.628021 8.881107
-3.377518 -56.497047 61.710987
-3.308002 -55.291439 56.806473
-2.919086 -53.68861 52.472118
-1.185314 -64.250427 50.043114
-1.951212 -58.189365 49.272476
-2.086756 -51.842548 48.631145
-0.803057 -50.015263 45.044632
1.413921 -64.748886 24.515202
-0.537571 -71.826195 28.428816
-0.298803 -70.483574 24.216745
-0.324896 -69.175667 19.945744
-3.372252 -72.864807 15.780493
-7.148821 -76.267342 12.099067
-8.605165 -75.423981 8.595432
-6.169491 -70.868896 8.05946
-11.030132 -77.063034 5.979619
-11.71813 -77.241524 4.591256
-12.124548 -79.056213 5.282143
-3.668541 -88.736023 37.138145
-4.528849 -90.4534 34.963966
-4.218355 -91.162079 37.522018
-4.615551 -50.886299 68.507721
-5.025684 -50.507324 65.784927
-4.48456 -52.977886 67.185455
-2.264269 -87.397751 41.792667
-1.589149 -84.958221 41.326401
-2.625132 -86.917908 39.254997
-3.052805 -86.344315 36.743172
-2.942324 -90.128937 56.765598
-3.979553 -92.382034 54.486046
-4.205259 -91.853195 56.598022
-2.797531 -67.825546 75.751953
-1.986311 -67.981743 73.613312
-2.348194 -70.020393 73.801704
-2.544643 -87.252975 61.243721
-1.611444 -85.236816 61.283417
-2.137705 -87.74704 59.035107
-1.865816 -88.082977 56.733391
-4.639009 -54.987637 85.61776
-5.37252 -54.380451 87.015785
-7.490238 -82.255569 18.362106
-0.3041 -67.790794 58.202412
-0.766594 -65.242126 57.518929
-0.38159 -67.628006 55.58292
-0.737398 -68.432426 39.016525
-0.97164 -65.6362 41.122154
-0.765709 -65.167908 38.957695
-0.635967 -61.787304 39.014999
-0.428419 -64.682266 36.864799
0.011786 -64.186279 34.832977
-0.296015 -67.482994 34.722488
-5.90172 -81.590637 22.639942
-4.95163 -79.408401 22.498245
-6.311924 -80.809776 20.445192
-6.729755 -80.104393 18.292196
0.255922 -65.32119 15.737931
0.538998 -65.897003 17.889341
-12.478638 -77.594452 1.68996
-11.831009 -74.855957 0.965178
-5.563433 -85.539673 27.331499
-5.500021 -49.386475 60.596706
-5.98514 -46.589943 59.333389
-5.478559 -48.617653 58.21217
-5.244751 -47.708332 56.014137
-4.745298 -50.584091 57.082073
0.327463 -78.116364 50.047546
0.260818 -75.410263 49.500378
0.194643 -78.013138 47.450207
-0.691685 -79.942223 40.35672
-0.25495 -77.608246 42.365662
-0.524048 -77.292511 39.899681
-0.523201 -74.501709 39.503815
-0.783398 -76.89502 37.496597
-1.00536 -76.415436 35.161316
-1.367268 -79.046913 35.515526
-4.030437 -84.938461 31.844267
-3.369612 -82.623322 31.533464
-4.533892 -84.131271 29.470724
-5.019342 -83.283508 27.148577
-2.690859 -90.474548 47.281937
-3.737942 -92.589981 45.137295
-3.714357 -92.793701 47.591465
-6.287443 -96.613831 49.895851
-6.008638 -96.957962 47.791943
-7.24589 -98.665283 47.563236
-7.879774 -100.706329 45.182625
-8.529045 -100.02565 47.023865
-2.798872 -59.85743 73.636047
-2.657309 -59.723724 70.934479
-2.195713 -61.826401 71.900269
-0.901293 -68.082672 68.772781
-1.030903 -65.88121 68.151146
-0.585648 -68.060242 66.176468
-0.392181 -68.003036 63.525265
-0.244904 -70.38269 64.155434
-2.233383 -76.966202 69.904144
-1.661728 -74.775726 69.812584
-1.43391 -77.336121 67.760391
-0.354321 -80.531212 60.880341
-0.344267 -77.847336 63.018471
-0.007401 -78.004379 60.493053
0.167189 -75.442902 60.013741
0.217972 -78.10659 57.908577
0.344645 -78.159088 55.292274
0.106277 -80.777565 55.790459
-1.645456 -88.32048 51.907467
-0.824793 -85.888306 51.540653
-1.672222 -88.249069 49.413933
-1.784491 -88.066818 46.887047
-3.434675 -53.713936 78.098389
-3.518055 -55.825382 76.741241
-3.561237 -55.814949 79.309723
-4.647264 -59.413498 82.895393
-3.949141 -59.71423 80.945282
-4.306007 -61.544014 81.27063
-3.829859 -63.632988 79.514473
-4.823858 -63.313148 81.259224
-9.823429 -80.131233 10.515786
-11.025911 -81.832169 8.878763
-5.212233 -96.613525 40.777935
-2.574348 -59.246704 65.466766
-3.341192 -56.94342 64.34153
-2.58555 -58.897625 62.787029
-1.966303 -60.031853 56.081207
-2.61488 -57.941509 57.70018
-2.593954 -57.326988 55.333134
-3.162575 -54.533531 54.567593
-2.519291 -56.627892 53.091965
-0.399 -69.787865 48.482765
-0.68981 -67.159653 50.502331
-0.861824 -66.847504 48.054539
-1.506714 -60.087708 45.255581
-1.624712 -60.687084 47.409222
-1.777813 -57.483231 47.181866
-2.108521 -55.046669 48.943626
-1.730797 -54.218178 46.99474
-1.493866 -50.908955 46.822727
-1.228197 -53.406227 45.097424
1.007267 -63.183342 30.870594
1.458838 -62.684608 28.887499
1.17354 -65.304276 26.588335
-1.271692 -75.233276 30.682312
-0.660135 -72.469696 30.542765
-1.316309 -74.555984 28.514904
-2.57518 -74.863945 22.185844
-1.330568 -73.125824 24.234488
-1.370018 -72.416016 22.092556
-0.261454 -69.818985 22.089348
-1.482496 -71.733276 19.945148
-1.702353 -71.086998 17.803169
-3.005045 -73.481979 17.889343
-7.70142 -78.931221 14.164153
-6.550791 -76.771194 14.037382
-8.293793 -78.432648 12.234839
-8.952969 -77.963326 10.434298
-3.200033 -69.362534 11.613988
-3.977255 -68.843826 9.68573
-5.292229 -71.298187 9.863708
-7.432306 -73.227585 8.329041
-6.595566 -73.611145 10.076262
-9.212864 -72.694366 5.041702
-10.003799 -72.481842 3.448187
-10.984938 -75.012688 3.984488
-12.239697 -77.457481 3.147725
-12.860209 -80.033974 2.51501
-4.562325 -87.268082 32.139931
-4.905991 -89.650681 32.429626
-5.336081 -50.013092 63.134365
-4.867018 -52.035355 61.876583
-0.465113 -83.079407 45.931103
-0.119673 -80.501266 45.408108
-0.721607 -82.823143 43.371117
-1.051258 -82.48455 40.84156
-1.434681 -82.05954 38.353905
-1.846888 -81.546265 35.917576
-2.42506 -83.961807 36.333977
-3.528858 -85.681442 34.269875
-2.656284 -90.612961 52.16489
-3.746492 -92.838043 49.975765
-3.832481 -92.706268 52.277142
-5.144321 -94.531113 52.198608
-6.557877 -96.016281 51.87677
-2.382107 -63.90081 75.159523
-1.909992 -63.893005 72.674088
-1.836422 -65.940796 73.243782
-1.360632 -68.061363 71.268791
-0.97599 -70.303635 69.252754
-1.981472 -82.177132 65.717674
-1.31414 -79.973114 65.655777
-1.353046 -82.627853 63.494839
-0.884432 -82.967133 61.152641
-0.552868 -83.200722 58.717525
-0.338638 -83.338089 56.214539
-0.995537 -85.794312 56.538559
-1.707058 -88.269699 54.352455
-3.465633 -53.503643 82.941727
-3.745483 -55.687965 81.694038
-4.09878 -55.419506 83.821503
-4.773874 -57.227551 84.353874
-5.516724 -58.95166 84.490189
-8.550533 -81.094063 14.238337
-1.223299 -63.285007 62.006523
-1.867823 -60.90147 61.131447
-1.25597 -63.004448 59.37326
-1.337473 -62.663498 56.810444
-1.446901 -62.257851 54.33115
-0.71904 -69.213806 43.609634
-0.993189 -66.485092 45.673096
-1.04142 -66.078438 43.361183
-1.242037 -62.826347 43.217468
-1.248846 -59.482521 43.166939
-1.033518 -56.077511 43.183594
-0.845577 -58.891407 41.137268
0.508387 -63.685219 32.843334
0.459118 -66.418922 30.642609
-3.302698 -78.752365 26.716671
-2.308006 -76.369392 26.513813
-3.563377 -77.959976 24.516346
-3.80335 -77.18222 22.334908
-4.054247 -76.44339 20.169189
-4.353689 -75.759766 18.025833
-5.639685 -77.953278 18.172453
-7.184326 -79.481339 16.192024
-1.316179 -67.386299 13.576282
-2.554333 -69.906021 13.617093
-3.681074 -88.927017 61.005245
-4.025097 -71.685547 75.598267
-2.895538 -72.050613 73.837387
-3.59656 -74.051529 73.749115
-3.227386 -76.514832 71.847427
-2.943665 -79.051605 69.868881
-2.790289 -81.615952 67.794189
-2.826365 -84.150558 65.617157
-3.110615 -86.60054 63.347183
-10.610655 -72.233032 1.876822
-10.969183 -71.90097 0.334237
-6.540287 -83.778305 22.740818
-5.574871 -44.694992 54.977871
-4.787693 -46.673439 54.020786
-3.947632 -48.644218 53.002892
0.236134 -72.841537 54.168407
-0.077091 -70.148766 53.585846
0.148615 -72.763855 51.551044
0.000744 -72.638428 48.970886
-0.184019 -72.45842 46.437401
-0.006302 -77.846291 44.885933
-0.108313 -75.092072 44.393127
-0.373875 -72.218521 43.959167
-0.532307 -71.915634 41.54467
-0.624739 -71.549187 39.2015
-0.626295 -71.121185 36.934101
-0.528158 -70.636154 34.740776
-0.742622 -73.616653 34.892513
-1.170475 -75.858215 32.892708
-1.93882 -77.823265 30.919638
-2.260706 -80.947083 33.538239
-2.651312 -80.27037 31.216211
-3.000906 -79.531448 28.945847
-4.236174 -81.038979 26.939068
-5.475224 -82.425476 24.873444
-3.024818 -89.82489 42.229828
-3.983177 -91.762146 40.083855
-3.824722 -92.241882 42.628834
-4.635307 -94.627914 42.971832
-5.450071 -96.939194 43.222191
-4.826958 -94.976273 47.779144
-5.723959 -97.060638 45.564846
-6.282404 -99.112549 43.319771
-6.834221 -95.162506 53.744846
-8.037271 -97.098557 51.26088
-9.084137 -99.029572 48.72501
-3.71097 -55.572273 71.303726
-3.869549 -55.323097 68.539146
-3.237917 -57.563808 69.802383
-2.590958 -59.520111 68.195877
-1.896904 -61.485783 66.488274
-1.579807 -63.817928 70.065163
-1.368706 -63.688808 67.387451
-1.255741 -63.511436 64.688187
-0.721407 -65.643555 62.806843
-0.303099 -67.913971 60.857208
0.01539 -70.331696 58.853546
-1.969179 -72.332489 71.822876
-1.236851 -72.541359 69.59687
-0.679512 -72.689728 67.204773
-0.811918 -77.627502 65.452774
-0.465221 -75.215134 65.126915
-0.273336 -72.789917 64.691483
0.004959 -72.851761 62.098488
0.174294 -72.880966 59.461807
0.248089 -72.878586 56.810879
0.383974 -75.510361 54.744053
0.379637 -78.163177 52.666168
0.171825 -80.766281 50.586636
-0.228144 -83.389008 53.666298
-0.214233 -83.360931 51.092331
-0.294022 -83.257721 48.509174
-1.03021 -85.598831 46.430626
-1.982204 -87.78154 44.341671
-4.156481 -51.16861 71.264305
-3.890427 -53.513397 72.703644
-3.580839 -55.740353 74.053848
-3.278023 -57.867405 75.253693
-3.043682 -59.912743 76.246872
-3.716785 -57.809525 80.279938
-3.419405 -59.872658 78.70578
-2.939968 -61.892788 76.990013
-3.01722 -63.821743 77.460823
-3.304375 -65.712006 77.66391
-3.804974 -67.574005 77.631104
-4.499739 -69.414284 77.414215
-11.090761 -79.084671 7.464862
-12.084583 -80.329857 6.191787
-11.651083 -81.180885 7.412093
-4.673058 -93.625275 37.897255
-4.019747 -54.985741 65.803131
-4.128124 -54.547947 63.135635
-4.165279 -53.997395 60.573803
-2.605293 -58.464691 60.189808
-3.373224 -55.947575 59.191486
-4.106195 -53.326691 58.149517
-3.930735 -52.537224 55.885033
-3.624561 -51.641212 53.78804
-3.180647 -50.661751 51.848408
-0.518402 -67.419258 53.013359
-1.033453 -64.636978 52.462852
-1.555933 -61.787796 51.940002
-1.298637 -63.812584 47.696606
-1.628611 -61.259861 49.634811
-2.018482 -58.862911 51.443947
-2.36554 -55.859829 50.96817
-2.563032 -52.781006 50.502853
-2.601326 -49.630962 50.038513
-1.900627 -48.586517 48.317883
-1.10605 -47.567238 46.641327
-0.258476 -46.608414 44.9683
1.547176 -64.201645 22.399069
-0.340473 -70.101189 32.611435
-0.090834 -69.525894 30.527546
0.181128 -68.922318 28.464989
-1.325333 -73.846161 26.371546
-0.403816 -71.158081 26.326473
0.431393 -68.304047 26.399267
0.61915 -67.68454 24.311506
0.712271 -67.074402 22.193157
0.689442 -66.478989 20.047775
-0.513571 -68.558075 17.798691
-2.05509 -70.47908 15.686292
-3.874166 -72.296738 13.727604
-4.738047 -75.137413 15.921577
-5.234676 -74.573929 13.880189
-5.855732 -74.06456 11.926208
-7.840992 -75.812424 10.280883
-9.646317 -77.519623 8.793617
-10.329185 -77.153549 7.335767
-4.855007 -68.344368 7.830195
-7.100527 -70.480774 6.323037
-8.326427 -72.927032 6.66153
-9.417482 -75.156067 7.020934
-12.687611 -81.291512 4.853419
-5.168128 -53.211839 87.474129
-4.81101 -53.541739 86.841713
-7.652297 -83.349472 18.370818
-7.251217 -82.614475 19.443241
-3.273789 -45.945847 50.913969
-3.703616 -46.543608 51.72533
-2.891488 -46.980112 50.396538
-3.273789 -45.945847 50.913969
-6.66206 -81.891579 20.484784
-6.106822 -81.200207 21.542567
-6.456958 -82.282009 21.582159
-7.251217 -82.614475 19.443241
-6.901081 -81.532672 19.403649
-6.66206 -81.891579 20.484784
1.052975 -64.779122 19.06717
1.005933 -64.508581 17.978332
-12.426821 -77.588524 0.969804
-12.598043 -78.954041 1.396168
-5.429818 -87.138038 28.602445
-5.681774 -86.695481 27.413863
-5.311478 -85.982231 28.52008
-3.186653 -52.597374 79.980495
-3.113859 -52.562464 81.209976
-3.402162 -53.692351 79.360096
-3.219167 -52.61896 78.718788
-3.186653 -52.597374 79.980495
-9.746037 -81.482429 11.42297
-10.076142 -81.244419 10.524085
-9.493324 -80.369243 11.414671
-5.28101 -97.585678 39.662588
-5.502714 -97.781364 40.885511
-4.780979 -91.279373 33.847727
-4.669933 -91.687012 35.13866
-3.327583 -52.221288 84.505795
-3.460111 -52.045166 85.467781
-3.609086 -53.345583 83.962025
-3.18413 -52.379348 83.485497
-3.327583 -52.221288 84.505795
-8.486508 -82.461373 15.258626
-8.763696 -82.191807 14.246891
-8.273345 -81.363629 15.250072
-0.229042 -59.804535 38.083622
-0.476058 -60.05871 39.087463
-0.388951 -61.533129 38.011158
0.077717 -59.543604 37.116276
-0.229042 -59.804535 38.083622
0.141774 -61.033136 36.026623
0.077717 -59.543604 37.116276
-4.340974 -89.554405 60.775222
-3.981672 -88.494187 61.992796
-3.638343 -77.486832 71.765789
-3.824715 -76.249725 72.701954
-3.496483 -78.755218 70.776516
-3.085526 -77.783219 70.858154
-3.638343 -77.486832 71.765789
-3.248836 -82.517433 67.686985
-3.291088 -81.285027 68.745659
-3.266873 -83.784737 66.598469
-2.808327 -82.883255 66.705673
-3.248836 -82.517433 67.686985
-3.696442 -87.330948 63.163765
-3.48315 -86.200897 64.340828
-3.981672 -88.494187 61.992796
-3.395844 -87.763779 62.176214
-3.696442 -87.330948 63.163765
-11.387228 -73.251571 -0.086782
-11.400096 -73.378464 0.649707
-11.818141 -74.729065 0.228688
-11.012789 -71.677009 -0.418031
-11.387228 -73.251571 -0.086782
-6.420362 -85.329658 23.906781
-6.660983 -84.896164 22.772481
-6.299667 -84.2118 23.875118
-5.980149 -45.891934 61.144735
-5.779638 -46.227156 62.406748
-6.105161 -44.678421 57.589674
-6.141552 -45.116574 58.730744
-5.948749 -46.151791 58.192319
-6.038339 -44.188978 56.503296
-6.105161 -44.678421 57.589674
-5.743614 -45.204315 56.014561
-5.869595 -43.679655 55.466606
-6.038339 -44.188978 56.503296
-6.967996 -100.048386 44.348726
-6.720225 -100.092553 43.252544
-6.530176 -99.068382 44.415953
-7.992531 -101.723732 43.958638
-8.458863 -101.37033 44.843331
-7.607132 -95.532295 53.345329
-6.990157 -94.612892 54.633173
-8.208657 -96.500321 52.103346
-7.435746 -96.130531 52.502863
-7.607132 -95.532295 53.345329
-9.802727 -99.309158 48.168915
-9.316157 -98.381248 49.520021
-9.467092 -100.003975 47.422045
-9.802727 -99.309158 48.168915
-3.940886 -50.057602 71.904072
-4.251539 -49.930077 70.530117
-3.66165 -52.512255 74.728425
-3.461228 -52.572763 76.082451
-3.756532 -53.584879 74.071709
-3.795545 -52.440773 73.36036
-3.66165 -52.512255 74.728425
-5.183875 -69.187359 78.089698
-4.753382 -68.312851 78.308678
-4.926899 -70.322823 77.242531
-5.183875 -69.187359 78.089698
-11.42951 -82.653107 8.095439
-11.077409 -82.98729 8.854944
-0.824292 -54.358897 43.207434
-0.751948 -55.752234 42.217408
1.755743 -63.228584 24.659409
1.620882 -63.470663 25.692774
1.480549 -64.475266 23.457135
1.82237 -62.954963 23.601343
1.755743 -63.228584 24.659409
-2.302258 -66.532917 10.553753
-1.320903 -65.482017 11.53804
-12.539266 -81.924984 5.415415
-12.386097 -80.810685 5.522603
-12.237752 -81.444157 6.084599
-4.514686 -92.041352 36.417686
-4.669933 -91.687012 35.13866
-4.373602 -90.807739 36.242992
-4.820617 -50.696811 67.146324
-4.983949 -49.427696 66.424278
-4.778883 -49.617183 67.785675
-4.001019 -52.945274 85.824982
-3.460111 -52.045166 85.467781
-4.444254 -53.845332 86.142701
-4.195774 -54.08758 85.300041
-4.001019 -52.945274 85.824982
-5.005764 -54.684044 86.316772
-4.444254 -53.845332 86.142701
-4.81101 -53.541739 86.841713
-7.931356 -83.036613 17.318891
-8.184316 -82.725426 16.268743
-7.743197 -81.944381 17.311957
-7.931356 -83.036613 17.318891
-7.652297 -83.349472 18.370818
0.864395 -64.220675 16.902627
0.759982 -63.943787 15.811825
0.39746 -65.609096 16.813636
0.864395 -64.220675 16.902627
1.005933 -64.508581 17.978332
-4.644111 -74.777298 74.449245
-5.338273 -74.476677 75.17234
-12.103006 -76.219277 0.607414
-12.154823 -76.225205 1.327569
-12.426821 -77.588524 0.969804
-11.818141 -74.729065 0.228688
-12.103006 -76.219277 0.607414
-5.924348 -86.22873 26.224579
-6.172154 -85.78154 25.063538
-5.81124 -85.092484 26.170459
-5.924348 -86.22873 26.224579
-5.681774 -86.695481 27.413863
-8.783498 -101.029991 45.76395
-8.458863 -101.37033 44.843331
-8.20441 -100.365989 46.103245
-3.367247 -52.601551 77.411758
-3.219167 -52.61896 78.718788
-3.528656 -53.685148 76.769081
-3.461228 -52.572763 76.082451
-3.367247 -52.601551 77.411758
-10.677384 -82.094887 9.705574
-10.42467 -80.981701 9.697274
-10.076142 -81.244419 10.524085
-11.077409 -82.98729 8.854944
-10.677384 -82.094887 9.705574
-5.124835 -96.359146 39.514843
-4.827562 -95.152382 39.354873
-4.914961 -95.406761 40.617965
-5.124835 -96.359146 39.514843
-5.28101 -97.585678 39.662588
1.2821 -61.522179 31.022703
1.008488 -61.748998 31.990385
1.507886 -61.272812 30.031155
1.2821 -61.522179 31.022703
1.233052 -62.933975 29.879047
1.743665 -61.054941 29.050845
1.507886 -61.272812 30.031155
1.643341 -62.438524 27.878923
1.743665 -61.054941 29.050845
1.500692 -63.748358 26.72934
1.643341 -62.438524 27.878923
1.316189 -63.994442 27.737917
1.293731 -65.026581 25.551769
1.620882 -63.470663 25.692774
1.500692 -63.748358 26.72934
-9.608332 -72.588104 4.244944
-9.010551 -71.297485 4.042193
-8.615084 -71.403748 4.83895
-12.788828 -80.173801 1.808693
-12.598043 -78.954041 1.396168
-12.669424 -78.814213 2.102485
-4.948842 -88.02108 31.038034
-5.197441 -87.599434 29.8224
-4.810924 -86.846436 30.924296
-5.120674 -89.212379 31.182882
-4.948842 -88.02108 31.038034
-4.734158 -88.459382 32.284779
-5.119582 -90.427109 31.302803
-5.120674 -89.212379 31.182882
-4.969551 -90.878014 32.580557
-4.71742 -90.052041 33.696796
-4.780979 -91.279373 33.847727
-5.119582 -90.427109 31.302803
-4.969551 -90.878014 32.580557
-5.63497 -47.606125 63.086758
-5.779638 -46.227156 62.406748
-5.238958 -49.201908 65.083622
-4.983949 -49.427696 66.424278
-5.394157 -48.954792 63.758341
-5.238958 -49.201908 65.083622
-5.180883 -50.260208 64.459646
-5.576895 -48.664425 62.462782
-5.63497 -47.606125 63.086758
-5.394157 -48.954792 63.758341
-3.161852 -52.478903 82.369938
-3.18413 -52.379348 83.485497
-3.417641 -53.587204 81.781765
-3.113859 -52.562464 81.209976
-3.161852 -52.478903 82.369938
-9.091769 -81.957867 13.286158
-9.398112 -81.714462 12.323767
-8.856876 -80.850659 13.275946
-9.091769 -81.957867 13.286158
-8.763696 -82.191807 14.246891
-8.486508 -82.461373 15.258626
-8.184316 -82.725426 16.268743
-0.657978 -57.159182 41.194244
-0.751948 -55.752234 42.217408
-0.939547 -57.484459 42.160431
-0.580863 -58.610761 40.148598
-0.740772 -60.339355 40.076133
-0.476058 -60.05871 39.087463
-0.657978 -57.159182 41.194244
-0.580863 -58.610761 40.148598
0.218635 -62.486799 34.939453
0.141774 -61.033136 36.026623
-0.065075 -62.732616 35.920147
0.466936 -62.236269 33.944631
0.218635 -62.486799 34.939453
0.260086 -63.935749 33.838155
0.759049 -61.999937 32.976755
0.466936 -62.236269 33.944631
0.757827 -63.43428 31.856964
1.008488 -61.748998 31.990385
0.759049 -61.999937 32.976755
-1.046161 -65.779122 12.577056
-1.320903 -65.482017 11.53804
0.047421 -65.031193 14.676191
0.759982 -63.943787 15.811825
-0.738629 -66.063748 13.595367
0.047421 -65.031193 14.676191
-0.530129 -66.353745 14.657107
-1.623711 -67.101673 12.557971
-1.046161 -65.779122 12.577056
-0.738629 -66.063748 13.595367
-4.108398 -90.021744 59.810127
-3.889276 -90.368126 58.774152
-3.461951 -89.273399 59.969271
-4.108398 -90.021744 59.810127
-4.340974 -89.554405 60.775222
-4.009302 -75.018074 73.652797
-4.231369 -73.810753 74.545563
-4.644111 -74.777298 74.449245
-3.411973 -75.283181 72.798271
-4.009302 -75.018074 73.652797
-3.824715 -76.249725 72.701954
-3.367776 -80.002854 69.783005
-3.496483 -78.755218 70.776516
-2.866977 -80.333778 68.831535
-3.367776 -80.002854 69.783005
-3.291088 -81.285027 68.745659
-3.341025 -84.975906 65.475815
-3.266873 -83.784737 66.598469
-2.96849 -85.375549 64.48217
-3.341025 -84.975906 65.475815
-3.48315 -86.200897 64.340828
-9.423009 -71.107826 3.21776
-9.010551 -71.297485 4.042193
-9.726437 -70.983421 2.432078
-9.423009 -71.107826 3.21776
-10.307227 -72.357437 2.662504
-10.057686 -70.770805 1.625386
-9.726437 -70.983421 2.432078
-10.23695 -70.604774 0.854093
-10.057686 -70.770805 1.625386
-10.789919 -72.067001 1.10553
-10.463679 -70.354599 0.066985
-10.23695 -70.604774 0.854093
-10.463679 -70.354599 0.066985
-11.012789 -71.677009 -0.418031
-6.914497 -84.478805 21.649096
-6.776242 -83.375843 21.632597
-6.914497 -84.478805 21.649096
-6.660983 -84.896164 22.772481
-6.420362 -85.329658 23.906781
-6.172154 -85.78154 25.063538
-5.429818 -87.138038 28.602445
-5.197441 -87.599434 29.8224
-6.063864 -45.529026 59.91583
-5.980149 -45.891934 61.144735
-5.901425 -46.95285 60.562294
-6.063864 -45.529026 59.91583
-6.141552 -45.116574 58.730744
-5.6485 -43.120662 54.494406
-5.869595 -43.679655 55.466606
-5.272979 -44.125406 54.052482
-5.6485 -43.120662 54.494406
-4.87939 -45.114629 53.57394
-5.272979 -44.125406 54.052482
-5.181282 -45.684216 54.499329
-4.451541 -46.106789 53.12426
-4.87939 -45.114629 53.57394
-4.031511 -47.092178 52.615313
-4.451541 -46.106789 53.12426
-4.367662 -47.658828 53.511839
-3.619737 -48.095647 52.11291
-3.703616 -46.543608 51.72533
-4.031511 -47.092178 52.615313
-6.776242 -83.375843 21.632597
-6.456958 -82.282009 21.582159
-6.221004 -82.684471 22.69038
-5.621633 -97.944198 42.10764
-5.502714 -97.781364 40.885511
-5.331152 -96.776359 42.000063
-6.037799 -99.030876 42.15643
-5.621633 -97.944198 42.10764
-5.866238 -98.025871 43.270981
-6.343746 -100.125061 42.173651
-6.037799 -99.030876 42.15643
-6.343746 -100.125061 42.173651
-6.720225 -100.092553 43.252544
-7.51891 -100.889443 44.183971
-6.967996 -100.048386 44.348726
-7.328861 -99.865273 45.34738
-7.51891 -100.889443 44.183971
-7.992531 -101.723732 43.958638
-4.370491 -91.484833 57.606516
-3.724043 -90.736488 57.765659
-3.889276 -90.368126 58.774152
-4.913212 -92.518166 56.395721
-4.370491 -91.484833 57.606516
-5.48705 -93.578003 55.220104
-4.779097 -92.913032 55.422405
-4.913212 -92.518166 56.395721
-6.227692 -94.172821 54.969133
-6.990157 -94.612892 54.633173
-6.093578 -94.567688 53.995817
-5.48705 -93.578003 55.220104
-6.227692 -94.172821 54.969133
-8.792725 -97.415741 50.787956
-8.208657 -96.500321 52.103346
-8.560704 -98.064065 49.992945
-8.792725 -97.415741 50.787956
-9.316157 -98.381248 49.520021
-9.189546 -100.502014 46.571472
-8.806591 -99.527611 47.874437
-9.467092 -100.003975 47.422045
-8.783498 -101.029991 45.76395
-9.189546 -100.502014 46.571472
-4.481075 -49.788922 69.151825
-4.778883 -49.617183 67.785675
-4.386016 -51.027455 69.886013
-4.481075 -49.788922 69.151825
-4.251539 -49.930077 70.530117
-3.928572 -51.26838 72.64069
-3.940886 -50.057602 71.904072
-4.023454 -52.341003 71.983974
-3.928572 -51.26838 72.64069
-3.795545 -52.440773 73.36036
-5.83368 -53.990818 87.491096
-5.168128 -53.211839 87.474129
-5.95109 -55.178703 86.975479
-5.83368 -53.990818 87.491096
-6.047986 -56.332895 86.397137
-5.469416 -55.534643 86.437443
-5.95109 -55.178703 86.975479
-6.057576 -57.504831 85.767582
-6.047986 -56.332895 86.397137
-6.032782 -58.636243 85.083126
-5.541517 -57.820247 85.174644
-6.057576 -57.504831 85.767582
-5.935738 -59.782337 84.360444
-6.032782 -58.636243 85.083126
-5.801557 -60.885707 83.58725
-5.382543 -60.055031 83.716995
-5.935738 -59.782337 84.360444
-5.619341 -62.00284 82.79327
-5.801557 -60.885707 83.58725
-5.407089 -63.080213 81.950981
-5.03611 -62.235774 82.101513
-5.619341 -62.00284 82.79327
-5.171827 -64.174762 81.106919
-5.407089 -63.080213 81.950981
-4.919946 -65.237549 80.215557
-4.571976 -64.375934 80.367863
-5.171827 -64.174762 81.106919
-4.66356 -66.325069 79.339821
-4.919946 -65.237549 80.215557
-4.406 -67.392711 78.417122
-4.062534 -66.506363 78.553802
-4.66356 -66.325069 79.339821
-4.152356 -68.494145 77.52266
-4.406 -67.392711 78.417122
-4.753382 -68.312851 78.308678
-4.689578 -71.458454 76.334557
-4.262418 -70.549915 76.506241
-4.926899 -70.322823 77.242531
-5.110119 -72.400669 76.206429
-4.445638 -72.627762 75.470139
-4.689578 -71.458454 76.334557
-5.596254 -73.290367 75.994655
-5.110119 -72.400669 76.206429
-5.338273 -74.476677 75.17234
-5.596254 -73.290367 75.994655
-12.021002 -81.869671 6.694752
-12.237752 -81.444157 6.084599
-11.867833 -80.755371 6.80194
-11.742096 -82.327465 7.362104
-11.338497 -81.506527 8.145428
-11.42951 -82.653107 8.095439
-12.021002 -81.869671 6.694752
-11.742096 -82.327465 7.362104
-9.746037 -81.482429 11.42297
-9.398112 -81.714462 12.323767
-4.742038 -93.27295 36.605305
-4.514686 -92.041352 36.417686
-4.445707 -92.393677 37.709637
-4.855247 -94.865021 38.074503
-4.645373 -93.912636 39.177626
-4.827562 -95.152382 39.354873
-4.810572 -94.530296 36.78293
-4.855247 -94.865021 38.074503
-4.742038 -93.27295 36.605305
-4.810572 -94.530296 36.78293
-2.546229 -48.022054 49.804331
-2.891488 -46.980112 50.396538
-2.946584 -48.589019 50.63072
-2.19588 -47.499832 48.944016
-2.546229 -48.022054 49.804331
-2.250977 -49.108739 49.178198
-1.74213 -46.934799 48.154856
-2.19588 -47.499832 48.944016
-1.344842 -46.42516 47.316578
-1.74213 -46.934799 48.154856
-1.503338 -48.076878 47.479605
-0.863112 -45.881487 46.537166
-1.344842 -46.42516 47.316578
-0.439325 -45.402075 45.700653
-0.863112 -45.881487 46.537166
-0.682263 -47.087826 45.804813
0.040887 -44.896264 44.908224
-0.439325 -45.402075 45.700653
-0.921632 -53.023255 44.164349
-1.130857 -54.741869 44.140509
-0.824292 -54.358897 43.207434
-0.709062 -51.327772 44.137953
-1.015627 -51.710745 45.071028
-0.921632 -53.023255 44.164349
-0.426154 -49.603292 44.157882
-0.709062 -51.327772 44.137953
-0.153863 -47.899868 44.119716
-0.530767 -48.311839 45.006466
-0.426154 -49.603292 44.157882
0.166431 -46.17317 44.119366
-0.153863 -47.899868 44.119716
0.040887 -44.896264 44.908224
0.166431 -46.17317 44.119366
1.907167 -62.715576 22.54073
1.82237 -62.954963 23.601343
1.557064 -63.931443 21.322034
1.907167 -62.715576 22.54073
1.128197 -65.070115 20.146387
1.557064 -63.931443 21.322034
1.118309 -65.340317 21.223422
0.61422 -66.187996 18.968558
1.052975 -64.779122 19.06717
1.128197 -65.070115 20.146387
-3.325264 -67.546307 9.626788
-2.302258 -66.532917 10.553753
-2.954248 -67.830437 10.612695
-3.76414 -67.296577 8.69902
-3.325264 -67.546307 9.626788
-4.416131 -68.594097 8.757962
-4.185933 -67.00983 7.746416
-3.76414 -67.296577 8.69902
-5.320591 -68.09946 6.934205
-4.185933 -67.00983 7.746416
-6.443351 -69.167664 6.180626
-5.320591 -68.09946 6.934205
-5.977767 -69.412571 7.076616
-7.558915 -70.296952 5.479617
-6.443351 -69.167664 6.180626
-8.156695 -71.58757 5.68237
-8.615084 -71.403748 4.83895
-7.558915 -70.296952 5.479617
-12.700458 -82.520375 4.70091
-12.539266 -81.924984 5.415415
-12.81398 -81.695645 4.156232
-12.700458 -82.520375 4.70091
-12.78902 -80.844185 3.693675
-12.662651 -80.440053 4.390861
-12.81398 -81.695645 4.156232
-12.900278 -81.066876 2.987027
-12.74895 -79.811284 3.221657
-12.78902 -80.844185 3.693675
-12.830592 -81.375721 2.286892
-12.900278 -81.066876 2.987027
-12.788828 -80.173801 1.808693
-12.830592 -81.375721 2.286892
3 0 116 114
3 2 119 117
3 1 122 120
3 2 125 123
3 2 117 125
3 3 129 127
3 4 132 130
3 3 135 133
3 3 127 135
3 459 138 460
3 462 461 139
3 6 463 464
3 6 465 466
3 5 142 140
3 7 145 143
3 7 147 145
3 7 149 147
3 467 152 468
3 469 468 150
3 467 468 469
3 470 139 471
3 472 471 152
3 470 471 472
3 473 155 474
3 476 475 156
3 9 477 479
3 479 478 158
3 477 478 479
3 10 161 159
3 10 163 161
3 11 166 164
3 13 169 167
3 13 171 169
3 13 173 171
3 9 176 174
3 9 158 176
3 15 180 178
3 16 183 181
3 16 185 183
3 17 188 186
3 19 191 189
3 19 193 191
3 8 196 194
3 20 199 197
3 20 201 199
3 20 203 201
3 15 206 204
3 15 178 206
3 21 480 481
3 21 482 484
3 482 208 483
3 482 483 484
3 21 210 208
3 22 213 211
3 22 215 213
3 23 485 487
3 487 486 216
3 485 486 487
3 489 488 218
3 18 221 219
3 24 224 222
3 24 226 224
3 12 229 227
3 25 232 230
3 25 234 232
3 25 236 234
3 26 238 237
3 26 239 238
3 14 242 240
3 27 245 243
3 27 247 245
3 27 249 247
3 23 252 250
3 23 216 252
3 28 256 254
3 28 258 256
3 29 261 259
3 31 262 115
3 31 263 262
3 32 265 264
3 491 490 118
3 34 266 121
3 34 267 266
3 35 270 268
3 37 271 124
3 37 272 271
3 37 274 272
3 32 275 126
3 32 264 275
3 39 278 276
3 41 279 128
3 41 280 279
3 42 283 281
3 44 284 131
3 44 285 284
3 45 288 286
3 47 289 134
3 47 290 289
3 47 292 290
3 39 293 136
3 39 276 293
3 49 492 493
3 49 494 496
3 494 294 495
3 494 495 496
3 49 296 294
3 51 297 137
3 51 298 297
3 52 497 499
3 499 498 299
3 497 498 499
3 53 302 300
3 55 303 141
3 55 304 303
3 56 307 305
3 58 308 144
3 58 309 308
3 58 311 309
3 59 500 502
3 502 501 146
3 500 501 502
3 59 503 504
3 59 505 506
3 60 312 148
3 60 313 312
3 61 316 314
3 63 317 151
3 63 318 317
3 63 320 318
3 52 321 153
3 52 299 321
3 66 322 154
3 66 323 322
3 508 507 324
3 67 327 325
3 509 328 510
3 511 329 512
3 513 512 328
3 511 512 513
3 514 330 515
3 516 331 517
3 518 517 330
3 516 517 518
3 519 332 520
3 521 324 522
3 523 522 332
3 521 522 523
3 30 333 260
3 524 334 525
3 526 525 157
3 524 525 526
3 528 527 334
3 69 529 531
3 531 530 335
3 529 530 531
3 33 532 533
3 70 534 536
3 536 535 160
3 534 535 536
3 70 537 538
3 70 539 541
3 539 336 540
3 539 540 541
3 71 337 162
3 71 338 337
3 72 341 339
3 74 342 165
3 74 343 342
3 36 344 269
3 75 345 168
3 75 346 345
3 75 347 346
3 76 348 170
3 76 349 348
3 76 351 349
3 78 352 172
3 78 353 352
3 38 354 273
3 79 355 175
3 79 356 355
3 79 357 356
3 69 358 177
3 69 335 358
3 80 361 359
3 82 362 179
3 82 363 362
3 40 364 277
3 83 365 182
3 83 366 365
3 83 542 544
3 544 543 366
3 542 543 544
3 546 545 184
3 547 367 548
3 549 368 550
3 551 550 367
3 549 550 551
3 552 369 553
3 555 554 369
3 84 372 370
3 86 373 187
3 86 374 373
3 43 375 282
3 87 376 190
3 87 377 376
3 87 378 377
3 88 379 192
3 88 380 379
3 68 381 326
3 89 382 195
3 89 383 382
3 46 384 287
3 90 385 198
3 90 386 385
3 90 387 386
3 91 388 200
3 91 389 388
3 91 390 389
3 92 391 202
3 92 392 391
3 48 393 291
3 93 394 205
3 93 395 394
3 93 396 395
3 80 397 207
3 80 359 397
3 556 398 557
3 94 558 559
3 94 560 562
3 560 399 561
3 560 561 562
3 94 400 399
3 95 401 209
3 95 402 401
3 50 403 295
3 96 404 212
3 96 405 404
3 96 406 405
3 97 407 214
3 97 408 407
3 563 409 564
3 566 565 409
3 98 412 410
3 568 567 217
3 81 413 360
3 85 414 371
3 99 415 220
3 99 416 415
3 54 417 301
3 100 418 223
3 100 419 418
3 100 420 419
3 101 421 225
3 101 422 421
3 73 423 340
3 102 424 228
3 102 425 424
3 57 426 306
3 103 427 231
3 103 428 427
3 103 429 428
3 104 430 233
3 104 431 430
3 104 432 431
3 105 433 235
3 105 434 433
3 570 569 310
3 106 571 572
3 106 573 575
3 573 435 574
3 573 574 575
3 77 436 350
3 107 437 241
3 107 438 437
3 62 439 315
3 108 440 244
3 108 441 440
3 108 442 441
3 109 443 246
3 109 444 443
3 109 445 444
3 110 446 248
3 110 447 446
3 64 448 319
3 111 449 251
3 111 450 449
3 111 451 450
3 98 452 253
3 98 410 452
3 65 576 577
3 113 454 255
3 113 455 454
3 113 456 455
3 112 457 257
3 112 453 457
3 578 458 579
3 580 579 411
3 578 579 580
3 114 115 29
3 116 115 114
3 116 31 115
3 117 118 32
3 119 118 117
3 119 581 583
3 583 582 118
3 581 582 583
3 120 584 586
3 584 121 585
3 584 585 586
3 122 121 120
3 122 34 121
3 123 124 35
3 125 124 123
3 125 37 124
3 125 126 37
3 117 126 125
3 117 32 126
3 127 128 39
3 129 128 127
3 129 41 128
3 130 131 42
3 132 131 130
3 132 44 131
3 133 134 45
3 135 134 133
3 135 47 134
3 135 136 47
3 127 136 135
3 127 39 136
3 587 49 588
3 589 137 590
3 591 590 49
3 589 590 591
3 138 592 594
3 592 137 593
3 592 593 594
3 138 51 137
3 139 595 597
3 597 596 52
3 595 596 597
3 599 598 139
3 140 141 53
3 142 141 140
3 142 55 141
3 143 144 56
3 145 144 143
3 145 58 144
3 145 146 58
3 147 146 145
3 147 59 146
3 147 148 59
3 149 148 147
3 149 60 148
3 150 151 61
3 152 151 150
3 152 63 151
3 152 153 63
3 139 153 152
3 139 52 153
3 600 154 601
3 155 602 604
3 602 154 603
3 602 603 604
3 155 66 154
3 606 605 67
3 156 157 30
3 607 157 608
3 609 608 156
3 607 608 609
3 611 610 157
3 158 612 614
3 614 613 69
3 612 613 614
3 616 615 158
3 159 160 33
3 161 160 159
3 161 70 160
3 161 162 70
3 163 162 161
3 163 71 162
3 164 165 72
3 166 165 164
3 166 74 165
3 167 168 36
3 169 168 167
3 169 75 168
3 169 170 75
3 171 170 169
3 171 76 170
3 171 172 76
3 173 172 171
3 173 78 172
3 174 175 38
3 176 175 174
3 176 79 175
3 176 177 79
3 158 177 176
3 158 69 177
3 178 179 80
3 180 179 178
3 180 82 179
3 181 182 40
3 183 182 181
3 183 83 182
3 183 184 83
3 185 184 183
3 185 617 619
3 619 618 184
3 617 618 619
3 186 187 84
3 188 187 186
3 188 86 187
3 189 190 43
3 191 190 189
3 191 87 190
3 191 192 87
3 193 192 191
3 193 88 192
3 194 195 68
3 196 195 194
3 196 89 195
3 197 198 46
3 199 198 197
3 199 90 198
3 199 200 90
3 201 200 199
3 201 91 200
3 201 202 91
3 203 202 201
3 203 92 202
3 204 205 48
3 206 205 204
3 206 93 205
3 206 207 93
3 178 207 206
3 178 80 207
3 208 620 621
3 208 622 624
3 622 94 623
3 622 623 624
3 208 209 94
3 210 209 208
3 210 95 209
3 211 212 50
3 213 212 211
3 213 96 212
3 213 214 96
3 215 214 213
3 215 97 214
3 216 217 98
3 625 217 626
3 627 626 216
3 625 626 627
3 629 628 217
3 218 630 632
3 632 631 81
3 630 631 632
3 634 633 218
3 219 220 85
3 221 220 219
3 221 99 220
3 222 223 54
3 224 223 222
3 224 100 223
3 224 225 100
3 226 225 224
3 226 101 225
3 227 228 73
3 229 228 227
3 229 102 228
3 230 231 57
3 232 231 230
3 232 103 231
3 232 233 103
3 234 233 232
3 234 104 233
3 234 235 104
3 236 235 234
3 236 105 235
3 237 635 636
3 238 637 639
3 639 638 237
3 637 638 639
3 238 640 641
3 238 642 643
3 239 644 646
3 646 645 238
3 644 645 646
3 239 647 649
3 647 106 648
3 647 648 649
3 240 241 77
3 242 241 240
3 242 107 241
3 243 244 62
3 245 244 243
3 245 108 244
3 245 246 108
3 247 246 245
3 247 109 246
3 247 248 109
3 249 248 247
3 249 110 248
3 250 251 64
3 252 251 250
3 252 111 251
3 252 253 111
3 216 253 252
3 216 98 253
3 254 255 65
3 256 255 254
3 256 113 255
3 256 257 113
3 258 257 256
3 258 112 257
3 259 650 652
3 650 260 651
3 650 651 652
3 261 260 259
3 261 30 260
3 115 261 29
3 262 261 115
3 262 30 261
3 262 156 30
3 263 156 262
3 263 653 655
3 655 654 156
3 653 654 655
3 264 656 658
3 658 657 9
3 656 657 658
3 265 659 661
3 661 660 264
3 659 660 661
3 265 662 663
3 118 265 32
3 664 265 665
3 666 665 118
3 664 665 666
3 668 667 265
3 669 33 670
3 121 671 672
3 266 673 675
3 675 674 121
3 673 674 675
3 266 676 678
3 676 33 677
3 676 677 678
3 266 159 33
3 267 159 266
3 267 10 159
3 268 269 11
3 270 269 268
3 270 36 269
3 124 270 35
3 271 270 124
3 271 36 270
3 271 167 36
3 272 167 271
3 272 13 167
3 272 273 13
3 274 273 272
3 274 38 273
3 126 274 37
3 275 274 126
3 275 38 274
3 275 174 38
3 264 174 275
3 264 9 174
3 276 277 15
3 278 277 276
3 278 40 277
3 128 278 39
3 279 278 128
3 279 40 278
3 279 181 40
3 280 181 279
3 280 16 181
3 281 282 17
3 283 282 281
3 283 43 282
3 131 283 42
3 284 283 131
3 284 43 283
3 284 189 43
3 285 189 284
3 285 19 189
3 286 287 8
3 288 287 286
3 288 46 287
3 134 288 45
3 289 288 134
3 289 46 288
3 289 197 46
3 290 197 289
3 290 20 197
3 290 291 20
3 292 291 290
3 292 48 291
3 136 292 47
3 293 292 136
3 293 48 292
3 293 204 48
3 276 204 293
3 276 15 204
3 294 679 680
3 294 681 683
3 681 21 682
3 681 682 683
3 294 295 21
3 296 295 294
3 296 50 295
3 137 296 49
3 297 296 137
3 297 50 296
3 297 211 50
3 298 211 297
3 298 22 211
3 299 684 686
3 686 685 23
3 684 685 686
3 688 687 299
3 690 689 52
3 300 301 18
3 302 301 300
3 302 54 301
3 141 302 53
3 303 302 141
3 303 54 302
3 303 222 54
3 304 222 303
3 304 24 222
3 305 306 12
3 307 306 305
3 307 57 306
3 144 307 56
3 308 307 144
3 308 57 307
3 308 230 57
3 309 230 308
3 309 25 230
3 309 310 25
3 311 310 309
3 311 691 693
3 693 692 310
3 691 692 693
3 146 311 58
3 694 311 695
3 696 695 146
3 694 695 696
3 698 697 311
3 148 699 701
3 701 700 59
3 699 700 701
3 312 702 704
3 704 703 148
3 702 703 704
3 312 705 706
3 312 707 709
3 707 237 708
3 707 708 709
3 313 237 312
3 313 26 237
3 314 315 14
3 316 315 314
3 316 62 315
3 151 316 61
3 317 316 151
3 317 62 316
3 317 243 62
3 318 243 317
3 318 27 243
3 318 319 27
3 320 319 318
3 320 64 319
3 153 320 63
3 321 320 153
3 321 64 320
3 321 250 64
3 299 250 321
3 299 23 250
3 710 65 711
3 154 712 713
3 322 714 716
3 716 715 154
3 714 715 716
3 322 717 719
3 717 65 718
3 717 718 719
3 322 254 65
3 323 254 322
3 323 28 254
3 324 720 722
3 722 721 3
3 720 721 722
3 724 723 324
3 325 326 4
3 327 326 325
3 327 68 326
3 725 327 726
3 727 726 67
3 725 726 727
3 328 728 730
3 728 327 729
3 728 729 730
3 328 68 327
3 328 194 68
3 329 194 328
3 329 8 194
3 731 329 732
3 330 733 735
3 733 329 734
3 733 734 735
3 330 8 329
3 330 286 8
3 331 286 330
3 331 45 286
3 736 331 737
3 332 738 740
3 738 331 739
3 738 739 740
3 332 45 331
3 332 133 45
3 324 133 332
3 324 3 133
3 260 741 742
3 333 743 745
3 745 744 260
3 743 744 745
3 333 746 747
3 157 333 30
3 334 333 157
3 334 748 750
3 750 749 333
3 748 749 750
3 334 751 752
3 754 753 334
3 335 755 756
3 758 757 335
3 760 759 69
3 762 761 9
3 160 763 765
3 765 764 33
3 763 764 765
3 767 766 160
3 336 768 769
3 336 770 771
3 162 336 70
3 337 336 162
3 337 772 774
3 774 773 336
3 772 773 774
3 337 775 776
3 338 777 779
3 779 778 337
3 777 778 779
3 338 780 782
3 780 6 781
3 780 781 782
3 339 340 5
3 341 340 339
3 341 73 340
3 165 341 72
3 342 341 165
3 342 73 341
3 342 227 73
3 343 227 342
3 343 12 227
3 269 166 11
3 344 166 269
3 344 74 166
3 168 344 36
3 345 344 168
3 345 74 344
3 345 343 74
3 346 343 345
3 346 12 343
3 346 305 12
3 347 305 346
3 347 56 305
3 170 347 75
3 348 347 170
3 348 56 347
3 348 143 56
3 349 143 348
3 349 7 143
3 349 350 7
3 351 350 349
3 351 77 350
3 172 351 76
3 352 351 172
3 352 77 351
3 352 240 77
3 353 240 352
3 353 14 240
3 273 173 13
3 354 173 273
3 354 78 173
3 175 354 38
3 355 354 175
3 355 78 354
3 355 353 78
3 356 353 355
3 356 14 353
3 356 314 14
3 357 314 356
3 357 61 314
3 177 357 79
3 358 357 177
3 358 61 357
3 358 150 61
3 335 150 358
3 335 783 785
3 785 784 150
3 783 784 785
3 359 360 2
3 361 360 359
3 361 81 360
3 179 361 80
3 362 361 179
3 362 81 361
3 362 218 81
3 363 218 362
3 363 786 788
3 788 787 218
3 786 787 788
3 277 180 15
3 364 180 277
3 364 82 180
3 182 364 40
3 365 364 182
3 365 82 364
3 365 363 82
3 366 363 365
3 366 789 791
3 791 790 363
3 789 790 791
3 366 792 793
3 795 794 366
3 184 796 798
3 798 797 83
3 796 797 798
3 800 799 184
3 801 129 802
3 803 802 3
3 801 802 803
3 804 129 805
3 806 41 807
3 808 807 129
3 806 807 808
3 367 809 810
3 367 811 813
3 811 41 812
3 811 812 813
3 367 280 41
3 368 280 367
3 368 16 280
3 814 368 815
3 369 816 818
3 816 368 817
3 816 817 818
3 369 16 368
3 369 185 16
3 819 185 820
3 821 820 369
3 819 820 821
3 823 822 185
3 370 371 1
3 372 371 370
3 372 85 371
3 187 372 84
3 373 372 187
3 373 85 372
3 373 219 85
3 374 219 373
3 374 18 219
3 282 188 17
3 375 188 282
3 375 86 188
3 190 375 43
3 376 375 190
3 376 86 375
3 376 374 86
3 377 374 376
3 377 18 374
3 377 300 18
3 378 300 377
3 378 53 300
3 192 378 87
3 379 378 192
3 379 53 378
3 379 140 53
3 380 140 379
3 380 5 140
3 326 132 4
3 381 132 326
3 381 44 132
3 195 381 68
3 382 381 195
3 382 44 381
3 382 285 44
3 383 285 382
3 383 19 285
3 287 196 8
3 384 196 287
3 384 89 196
3 198 384 46
3 385 384 198
3 385 89 384
3 385 383 89
3 386 383 385
3 386 19 383
3 386 193 19
3 387 193 386
3 387 88 193
3 200 387 90
3 388 387 200
3 388 88 387
3 388 380 88
3 389 380 388
3 389 5 380
3 389 339 5
3 390 339 389
3 390 72 339
3 202 390 91
3 391 390 202
3 391 72 390
3 391 164 72
3 392 164 391
3 392 11 164
3 291 203 20
3 393 203 291
3 393 92 203
3 205 393 48
3 394 393 205
3 394 92 393
3 394 392 92
3 395 392 394
3 395 11 392
3 395 268 11
3 396 268 395
3 396 35 268
3 207 396 93
3 397 396 207
3 397 35 396
3 397 123 35
3 359 123 397
3 359 2 123
3 824 120 825
3 398 826 828
3 826 120 827
3 826 827 828
3 398 1 120
3 829 398 830
3 399 831 833
3 831 398 832
3 831 832 833
3 399 1 398
3 399 370 1
3 400 370 399
3 400 84 370
3 209 400 94
3 401 400 209
3 401 84 400
3 401 186 84
3 402 186 401
3 402 17 186
3 295 210 21
3 403 210 295
3 403 95 210
3 212 403 50
3 404 403 212
3 404 95 403
3 404 402 95
3 405 402 404
3 405 17 402
3 405 281 17
3 406 281 405
3 406 42 281
3 214 406 96
3 407 406 214
3 407 42 406
3 407 130 42
3 408 130 407
3 408 4 130
3 834 138 835
3 836 138 837
3 838 51 839
3 840 839 138
3 838 839 840
3 841 51 842
3 843 298 844
3 845 844 51
3 843 844 845
3 846 298 847
3 848 22 849
3 850 849 298
3 848 849 850
3 851 22 852
3 853 215 854
3 855 854 22
3 853 854 855
3 856 215 857
3 858 97 859
3 860 859 215
3 858 859 860
3 861 97 862
3 863 408 864
3 865 864 97
3 863 864 865
3 409 866 868
3 866 408 867
3 866 867 868
3 409 4 408
3 409 325 4
3 869 325 870
3 871 870 409
3 869 870 871
3 872 67 873
3 874 873 325
3 872 873 874
3 875 67 876
3 878 877 67
3 410 411 0
3 412 411 410
3 412 879 881
3 881 880 411
3 879 880 881
3 217 412 98
3 882 412 883
3 884 883 217
3 882 883 884
3 886 885 412
3 888 887 23
3 360 119 2
3 413 119 360
3 413 889 891
3 891 890 119
3 889 890 891
3 892 413 893
3 894 893 81
3 892 893 894
3 895 413 896
3 898 897 413
3 371 122 1
3 414 122 371
3 414 34 122
3 220 414 85
3 415 414 220
3 415 34 414
3 415 267 34
3 416 267 415
3 416 10 267
3 301 221 18
3 417 221 301
3 417 99 221
3 223 417 54
3 418 417 223
3 418 99 417
3 418 416 99
3 419 416 418
3 419 10 416
3 419 163 10
3 420 163 419
3 420 71 163
3 225 420 100
3 421 420 225
3 421 71 420
3 421 338 71
3 422 338 421
3 422 6 338
3 340 142 5
3 423 142 340
3 423 55 142
3 228 423 73
3 424 423 228
3 424 55 423
3 424 304 55
3 425 304 424
3 425 24 304
3 306 229 12
3 426 229 306
3 426 102 229
3 231 426 57
3 427 426 231
3 427 102 426
3 427 425 102
3 428 425 427
3 428 24 425
3 428 226 24
3 429 226 428
3 429 101 226
3 233 429 103
3 430 429 233
3 430 101 429
3 430 422 101
3 431 422 430
3 431 6 422
3 431 899 901
3 901 900 6
3 899 900 901
3 432 902 904
3 904 903 431
3 902 903 904
3 432 905 906
3 235 432 104
3 433 432 235
3 433 907 909
3 909 908 432
3 907 908 909
3 433 910 911
3 434 912 914
3 914 913 433
3 912 913 914
3 434 915 916
3 310 236 25
3 917 236 918
3 919 918 310
3 917 918 919
3 920 105 921
3 922 921 236
3 920 921 922
3 923 105 924
3 925 434 926
3 927 926 105
3 925 926 927
3 928 434 929
3 931 930 434
3 435 932 933
3 435 934 935
3 350 149 7
3 436 149 350
3 436 60 149
3 241 436 77
3 437 436 241
3 437 60 436
3 437 313 60
3 438 313 437
3 438 26 313
3 315 242 14
3 439 242 315
3 439 107 242
3 244 439 62
3 440 439 244
3 440 107 439
3 440 438 107
3 441 438 440
3 441 26 438
3 441 239 26
3 442 239 441
3 442 106 239
3 246 442 108
3 443 442 246
3 443 106 442
3 443 435 106
3 444 435 443
3 444 936 938
3 938 937 435
3 936 937 938
3 444 939 941
3 939 155 940
3 939 940 941
3 445 155 444
3 445 66 155
3 248 445 109
3 446 445 248
3 446 66 445
3 446 323 66
3 447 323 446
3 447 28 323
3 319 249 27
3 448 249 319
3 448 110 249
3 251 448 64
3 449 448 251
3 449 110 448
3 449 447 110
3 450 447 449
3 450 28 447
3 450 258 28
3 451 258 450
3 451 112 258
3 253 451 111
3 452 451 253
3 452 112 451
3 452 453 112
3 410 453 452
3 410 0 453
3 255 942 944
3 944 943 65
3 942 943 944
3 454 945 947
3 947 946 255
3 945 946 947
3 454 948 949
3 454 950 951
3 455 952 954
3 954 953 454
3 952 953 954
3 455 955 956
3 455 957 959
3 957 259 958
3 957 958 959
3 456 259 455
3 456 29 259
3 257 456 113
3 457 456 257
3 457 29 456
3 457 114 29
3 453 114 457
3 453 0 114
3 411 116 0
3 458 116 411
3 458 31 116
3 960 458 961
3 962 458 963
3 964 31 965
3 966 965 458
3 964 965 966
3 967 263 968
3 969 968 31
3 967 968 969
3 970 263 971
3 973 972 263
