ply
format ascii 1.0
element vertex 991
property float x
property float y
property float z
element face 1289
property list uchar int vertex_index
end_header
66.567352 -42.63744 30.611313
38.294834 -47.216866 51.11499
54.75531 -52.193531 48.158661
53.000072 -31.874119 22.917637
66.253845 -26.89855 33.759777
64.694145 -38.424461 48.336937
64.633827 -54.137817 35.451302
41.726608 -56.387402 48.658722
63.288826 -29.135048 46.9468
58.153072 -35.688576 50.810493
61.222321 -54.129566 44.702721
59.377373 -38.0303 27.063494
56.434311 -37.580948 18.12295
65.849052 -41.438831 19.823408
69.885635 -46.011452 21.698719
44.337627 -39.800705 51.59536
51.873646 -42.390968 50.096649
46.104839 -49.182121 48.015335
50.03035 -22.791098 19.90122
59.016785 -21.578825 21.532215
60.460014 -29.765764 27.998539
64.295364 -35.81469 35.232738
66.557228 -23.323652 39.77034
66.633461 -32.428722 42.230412
67.418236 -41.001617 40.831326
59.823509 -45.372002 49.84993
65.543945 -47.186951 43.843513
68.462013 -47.725018 33.028332
66.357849 -52.066395 24.44595
47.663784 -31.927483 17.362925
57.829395 -30.816097 50.561684
54.674362 -34.151932 51.322388
63.238335 -40.404182 29.018539
62.007118 -40.429283 24.030262
66.007637 -42.470764 25.234264
68.871819 -43.531353 20.716988
68.628181 -44.670998 26.266201
41.009239 -43.448776 51.057022
44.684074 -44.312164 49.278549
41.88311 -47.917534 48.841621
66.253708 -23.637493 29.385178
63.334366 -24.886021 26.705526
63.871864 -28.430792 30.784777
62.136147 -33.013592 31.685635
64.91761 -31.473991 34.968727
64.96122 -21.536032 42.63092
63.961235 -33.785286 48.053635
65.550179 -30.738344 44.898945
66.119202 -35.258419 45.749359
66.906845 -36.825508 42.420204
66.661713 -39.7187 45.150414
53.136375 -47.339306 49.172897
55.979862 -43.993622 50.356178
57.179321 -48.807957 49.088737
63.243729 -54.38596 40.59687
63.378967 -50.640511 44.443844
65.408424 -50.937737 39.73238
67.288925 -47.655273 38.712418
66.899506 -50.802261 34.203537
68.012352 -50.15097 28.486351
65.62326 -53.37392 29.920244
51.089848 -27.731915 21.274376
47.493118 -28.084768 19.563187
49.899406 -32.307278 20.288174
39.628971 -51.621685 49.196945
67.792969 -22.135548 32.454285
62.957024 -24.482977 46.006824
60.605087 -27.56864 48.737709
60.959946 -32.329895 49.447952
61.687065 -37.118721 50.115494
56.359097 -56.809155 47.093742
58.389584 -53.379238 47.230042
59.282738 -57.588833 45.033058
62.393387 -57.592003 36.742287
62.997566 -56.770466 31.486479
43.283768 -26.770521 14.591257
55.80867 -35.256752 24.923059
53.319595 -35.643272 21.338409
57.519402 -38.257935 22.665377
61.423553 -39.558739 18.934561
69.289101 -41.568695 15.302434
70.407242 -44.080833 16.302322
69.429054 -46.997139 17.589994
51.291225 -37.49733 51.088821
47.888275 -40.857765 50.216095
48.844193 -45.729065 48.883873
50.540039 -50.714321 48.096802
43.738102 -52.770187 47.940857
48.228569 -54.203594 47.750244
52.57843 -55.628113 47.778496
54.45755 -22.276241 20.626911
55.222435 -26.949831 22.813341
63.22863 -20.784973 22.998125
59.471161 -25.969952 24.53714
56.653835 -30.9408 25.417446
58.885498 -34.304798 28.34621
61.797977 -37.153259 31.255156
64.861221 -39.655128 33.811783
67.866501 -20.408228 35.680588
67.145844 -25.163502 36.800621
65.107826 -26.168404 43.607948
66.513123 -27.942936 41.02951
66.513428 -29.747549 38.127514
66.137459 -34.175388 38.943581
66.318848 -38.376892 38.336872
67.213112 -42.071178 35.866119
55.04586 -39.065025 50.9412
58.921211 -40.578461 50.849731
62.464859 -41.86441 49.718254
60.648911 -49.931274 47.655285
63.067047 -46.427486 47.725014
65.26059 -42.95974 46.944298
67.107109 -43.927689 42.664188
68.077927 -44.6866 37.457523
68.461357 -45.012093 31.885984
69.266617 -47.220284 27.287159
68.846275 -48.88987 22.920496
63.343346 -55.432106 26.163612
63.563576 -53.614086 21.004688
46.146851 -22.971796 18.906128
44.799057 -27.784782 17.380707
46.52964 -30.572464 14.119224
51.656757 -35.140442 17.564596
50.960258 -33.52092 13.706636
54.777729 -31.741796 51.676109
53.088905 -33.424568 51.829567
65.029541 -41.520329 29.86235
64.520782 -41.586086 27.276077
66.250504 -42.65593 27.932308
67.540665 -43.535835 25.764463
67.62439 -43.762642 28.523777
39.559013 -45.32114 50.99292
41.301807 -45.622452 49.787338
39.988129 -47.483738 49.785416
66.208595 -25.328905 31.55904
65.029381 -26.05587 30.097158
65.228607 -27.691986 32.2547
64.342415 -30.008423 32.883476
65.532028 -29.209328 34.424419
64.337852 -36.108231 48.366089
65.188087 -34.511684 47.035164
65.523041 -36.797596 47.180035
66.398087 -37.504284 45.678871
65.828697 -39.068138 46.912815
53.922066 -49.78743 48.67337
55.211739 -48.10759 49.246437
55.934448 -50.500992 48.593689
64.002495 -54.32518 38.110786
64.320404 -52.651073 40.17709
65.117126 -52.608929 37.57122
66.210106 -50.928032 37.025192
65.798538 -52.446804 34.820141
66.387009 -52.157909 32.002335
65.166565 -53.821903 32.699394
51.932907 -29.903606 22.047661
50.157524 -30.184748 21.006313
51.359657 -32.17395 21.63221
68.174957 -20.474615 30.287241
68.518936 -19.701855 31.92412
57.917015 -33.243496 50.651093
59.370888 -31.577808 49.986839
59.607704 -33.99799 50.284218
61.296928 -34.72448 49.852295
59.947559 -36.423981 50.551392
57.939358 -57.256672 46.258018
61.909531 -57.798618 39.204712
61.628227 -58.985973 34.877365
57.518105 -36.707588 25.99761
56.340797 -36.959522 24.013464
58.359524 -38.24017 24.888842
63.868965 -41.086243 22.019629
61.629662 -40.116516 21.486858
63.76049 -40.489212 19.377647
65.942543 -40.5751 17.14303
67.727646 -41.568874 17.552629
69.648674 -44.718597 21.187151
69.881386 -43.83812 18.456589
70.158669 -45.133259 18.976212
70.160881 -45.494293 16.905529
69.90419 -46.531292 19.562229
47.790955 -38.518555 51.143471
46.043953 -40.245422 50.714996
45.280724 -46.714241 48.518112
46.723885 -44.972473 48.939758
47.4314 -47.436985 48.368492
49.622627 -48.219101 48.426735
48.323853 -49.935974 47.99493
40.605946 -53.971348 48.758949
41.602421 -52.142021 48.396187
42.694454 -54.58569 48.216274
47.167221 -55.987797 47.907036
49.405876 -56.702778 47.926865
50.450779 -54.933609 47.797604
51.558449 -57.383591 47.901878
53.570347 -58.004238 47.716145
58.902031 -19.159214 20.187729
56.589851 -19.441004 19.855314
56.74865 -21.942295 21.030144
54.769104 -24.698454 21.677103
56.995972 -24.288401 22.277428
65.036552 -20.344664 24.012093
61.794693 -27.35046 27.418941
61.485855 -25.442112 25.556673
59.883224 -27.940266 26.2192
57.87635 -28.501295 25.106026
58.568291 -30.374052 26.686914
57.668671 -32.695126 26.859943
59.45248 -32.101284 28.341211
63.185623 -34.460091 33.498581
61.753159 -35.164482 31.681393
63.079109 -36.532089 33.271896
63.360184 -38.433365 32.591965
64.415138 -37.821999 34.757984
66.65255 -20.970613 39.275902
67.216515 -21.885765 37.746384
67.50309 -22.801752 36.193966
67.014854 -24.247421 38.300106
63.069893 -26.805841 46.416168
64.078835 -25.311533 44.811859
64.256989 -27.626049 45.359875
66.277885 -31.570955 43.649818
66.09552 -29.320787 43.029243
66.556938 -30.198 41.691559
66.715904 -28.847176 39.618439
66.623535 -31.088951 40.230576
66.27655 -31.979824 38.660091
66.583206 -33.303001 40.653381
67.130577 -38.957787 41.869316
66.762451 -37.617584 40.450821
67.027351 -39.662712 39.665604
66.685371 -40.307762 37.330692
67.406731 -41.581264 38.402138
51.477592 -39.928246 50.557457
53.128876 -38.267075 50.936188
53.453568 -40.732922 50.609467
57.958336 -44.721378 50.265648
57.452831 -42.297295 50.732689
59.371578 -42.995651 50.508629
60.763687 -41.250813 50.469002
61.167221 -43.622189 49.928734
59.912148 -53.814159 46.180542
59.488487 -51.662193 47.445724
60.981697 -52.082336 46.23912
64.491226 -48.900688 44.206299
63.26635 -48.586521 46.202217
64.403229 -46.841713 45.982742
64.226929 -44.677998 47.458591
65.444351 -45.124802 45.57502
66.304138 -43.460434 44.960857
66.447281 -45.521988 43.333298
67.934532 -47.750687 35.901333
67.868835 -46.125244 38.119354
68.340134 -46.287766 35.313377
68.319954 -44.919678 34.691483
68.696579 -46.320518 32.460968
68.974548 -46.196892 29.603247
68.897636 -47.554882 30.145912
67.3442 -51.16555 26.385822
68.460678 -49.600471 25.674812
67.726776 -50.448486 23.648275
68.045197 -49.582375 20.972473
61.849388 -57.894516 29.645191
63.190163 -56.163696 28.813499
61.886055 -57.164085 27.029018
61.918343 -55.371914 21.914055
61.918327 -54.326027 19.431036
63.621071 -52.542942 18.50576
49.781246 -20.043715 19.19943
47.721107 -20.119446 18.901949
47.996582 -22.932144 19.464258
47.190487 -30.248381 18.685408
46.012825 -28.025188 18.543653
46.077995 -29.975201 17.363522
45.256008 -29.48402 15.923429
46.949196 -31.371445 15.776329
54.553879 -36.864136 19.904663
52.374233 -35.52224 19.471878
53.977921 -36.440571 17.801458
56.38765 -30.072155 51.27697
56.291866 -32.479172 51.077034
56.375801 -34.921726 51.022507
61.315979 -39.252289 28.080395
60.459984 -39.414787 25.743011
62.550552 -40.517994 26.544977
64.125145 -41.446915 24.658085
65.869606 -42.06839 22.526936
67.583427 -42.443748 20.267624
67.521362 -43.09848 23.009338
68.729019 -44.204559 23.479202
69.426788 -45.40509 23.957592
42.614632 -41.608253 51.274734
44.358719 -42.00116 50.301628
42.767616 -43.792946 49.97287
43.221794 -46.096127 48.970459
43.939198 -48.495384 48.269043
43.901745 -57.069256 48.346336
61.14003 -18.852852 20.663364
66.381508 -21.815556 27.264553
64.959915 -22.386362 25.949108
64.945168 -24.289272 27.985271
63.535423 -26.726105 28.712784
62.255051 -29.119576 29.363815
61.214577 -31.453606 29.836395
62.874161 -30.756296 31.35113
63.63237 -32.27182 33.336155
64.4814 -33.684368 35.275169
65.846184 -22.412874 41.211014
63.598045 -31.461334 47.532639
64.521935 -29.929123 45.986389
64.844276 -32.222351 46.590454
65.831711 -33.001251 45.447258
66.481079 -33.807812 44.084824
66.745697 -34.640778 42.513168
66.698662 -36.032074 44.200829
66.932777 -38.22908 43.892136
67.184837 -40.370056 43.101704
52.440201 -44.867565 49.645973
53.935081 -43.206421 50.250465
54.533508 -45.670403 49.802559
56.562561 -46.423313 49.812859
58.482491 -47.101021 49.541428
62.326378 -54.320686 42.821457
62.276146 -52.387512 44.592609
63.382118 -52.576973 42.547478
64.472374 -50.840462 42.236649
65.540413 -49.128246 41.857506
66.499725 -47.461445 41.389122
66.432076 -49.265511 39.247372
67.187332 -49.30228 36.469528
67.827431 -49.222767 33.606277
68.37233 -49.008438 30.721064
67.495384 -50.547775 31.339905
66.898918 -51.733585 29.177679
66.018326 -52.789726 27.159889
50.460579 -25.358465 20.573868
48.483795 -25.557131 19.965101
49.200356 -27.978306 20.462107
48.562782 -30.310841 19.894356
48.656364 -32.234833 18.867754
58.815865 -37.815907 16.09338
56.198467 -36.828617 15.85162
38.84444 -49.362625 49.984528
67.462044 -21.180439 28.720964
67.211304 -22.920229 30.884274
67.023491 -24.540127 33.078392
61.831902 -26.00432 47.470078
61.952911 -28.348249 47.839104
59.27034 -29.17519 49.776901
60.719551 -29.941307 49.041016
62.190289 -30.704201 48.323761
62.520531 -33.063374 48.835526
62.902626 -35.423325 49.24144
63.293785 -37.779999 49.398682
55.587341 -54.539768 47.636177
56.663132 -52.834145 47.86919
57.350712 -55.091084 47.091251
58.902405 -55.53619 46.166252
60.228111 -55.862343 44.831646
61.328342 -56.060921 43.098572
62.218437 -56.12714 41.014328
62.925789 -56.059292 38.651222
63.48484 -55.857666 36.092381
63.931145 -55.523312 33.418182
62.742943 -57.248035 34.146881
61.774719 -58.504444 32.273666
54.294621 -33.652885 23.883707
52.802917 -33.953426 22.351999
54.472862 -35.540421 23.155214
55.345886 -37.025063 21.980459
56.875027 -38.049114 20.403616
59.769718 -39.379501 23.358936
59.263672 -39.118607 20.940622
58.947033 -38.604767 18.508879
69.06147 -42.651421 17.987179
70.119965 -42.770004 15.77177
51.343433 -35.114586 51.762169
49.567734 -36.811073 51.514862
49.578461 -39.171558 50.699585
49.843597 -41.590797 50.042221
46.247959 -42.567833 49.716431
48.251549 -43.267776 49.47403
50.330429 -44.051373 49.489815
50.997894 -46.533371 49.004936
51.80278 -49.015877 48.572968
52.700104 -51.477966 48.194611
40.683689 -49.76561 48.917221
42.711559 -50.309566 48.226509
44.872944 -50.963184 47.868542
44.90633 -55.270176 47.964722
45.969528 -53.470211 47.758919
47.106323 -51.687908 47.76516
49.349808 -52.443298 47.81192
51.54512 -53.191395 47.888283
53.639587 -53.899273 47.869019
54.561626 -56.260479 47.576782
55.396687 -58.544044 47.270966
51.977711 -19.896433 19.418297
54.263733 -19.690794 19.61731
52.200584 -22.565691 20.269691
52.572647 -25.063198 21.126793
53.113945 -27.378124 22.042564
53.844139 -29.506065 23.052971
61.199253 -21.193403 22.177429
63.245407 -22.906233 24.794212
61.300606 -23.390327 23.805725
59.194557 -23.849995 22.974688
57.361351 -26.474525 23.631996
55.843071 -29.028971 24.060371
54.78001 -31.450296 24.169868
55.931141 -33.221069 25.379986
57.294151 -34.833618 26.649761
58.84639 -36.306213 27.933971
60.524345 -33.693634 30.022648
60.27943 -35.784821 29.827065
60.540482 -37.659508 29.185656
62.301582 -38.917519 30.364616
64.029175 -40.109135 31.443066
65.605309 -41.268764 32.408051
39.430943 -43.296459 52.5261
38.016941 -45.202988 52.573166
68.516335 -18.876413 33.589024
68.00161 -21.292049 34.063362
67.451828 -23.693375 34.63134
66.898575 -26.0525 35.281616
63.993866 -22.997719 44.3829
64.99659 -23.853304 43.065361
65.864601 -24.74272 41.733063
65.299164 -28.463554 44.24485
65.950943 -27.04731 42.355965
66.509911 -25.652618 40.362762
66.847183 -26.56942 38.941978
66.811127 -27.47805 37.470688
66.370033 -28.362705 35.959343
65.90152 -30.628374 36.571465
65.541359 -32.851673 37.001205
65.347511 -35.021263 37.12878
66.620056 -35.486034 40.760788
66.13974 -36.318626 38.863266
65.374382 -37.107712 36.853848
65.654709 -39.067627 36.11515
66.18338 -40.854805 34.902863
66.909363 -42.434044 33.260979
52.998951 -35.825523 51.314453
54.770821 -36.59864 51.10807
56.622467 -37.382118 51.023087
55.462269 -41.535355 50.718193
56.995277 -39.845547 50.962097
58.502113 -38.13784 50.918449
60.346603 -38.845776 50.652306
62.087608 -39.503662 50.103439
63.65934 -40.122261 49.188728
57.800087 -51.131657 48.214409
59.000992 -49.419754 48.584511
60.25544 -47.689518 48.882248
62.108406 -50.338043 46.269386
61.854568 -48.184113 47.773003
61.535828 -45.939812 49.017273
62.796021 -44.179916 48.919113
63.975243 -42.429924 48.543976
65.006577 -40.716835 47.874054
66.092789 -41.299271 46.173016
66.903015 -41.870934 44.135262
67.445335 -42.41954 41.830883
67.247917 -45.861477 40.818634
67.687706 -44.345234 40.136784
67.749092 -42.920345 39.334488
67.860657 -43.339684 36.712219
67.837036 -43.641197 34.015129
67.739113 -43.791267 31.278351
68.549881 -44.936024 29.071657
69.208435 -45.896118 26.764694
69.590721 -46.707703 24.469311
68.839859 -48.641777 27.856564
69.244919 -48.10968 25.036854
69.598099 -47.405785 22.271786
69.17038 -48.019562 20.226675
68.293259 -48.573799 18.356667
64.295769 -55.057106 30.696362
64.601471 -54.459419 27.977226
64.860954 -53.730755 25.293322
61.906307 -56.32077 24.448032
63.467934 -54.580246 23.557623
65.077011 -52.873119 22.661823
65.244064 -51.891918 20.0882
45.842094 -20.114367 18.47118
44.52549 -22.899715 18.182934
46.690899 -25.634172 19.251799
45.127396 -25.57148 18.394096
43.833019 -25.361271 17.363804
43.883106 -27.362516 16.063063
44.743221 -28.78442 14.370593
51.492287 -34.079319 20.768745
50.394009 -33.987888 19.124863
49.535301 -33.64463 17.421097
53.625977 -35.72921 15.695124
51.182426 -34.474773 15.63486
48.938202 -33.030384 15.668342
48.616501 -32.145935 13.884108
52.364208 -33.109735 52.230412
53.242611 -32.253069 52.182285
68.836701 -18.490645 31.706546
68.779861 -18.860493 30.858471
45.19079 -40.023063 51.155178
46.091375 -39.133572 51.335743
45.238213 -38.911213 51.775925
49.984127 -57.932525 48.071979
48.899974 -57.596353 48.086613
51.060414 -58.272932 48.059486
50.482163 -57.043185 47.914372
49.984127 -57.932525 48.071979
52.076825 -58.578383 47.971901
51.060414 -58.272932 48.059486
65.798416 -20.101731 24.616557
65.88964 -19.054944 23.643282
66.499184 -51.635374 23.118405
67.183647 -50.82642 22.719567
67.042313 -51.257441 24.047113
61.212904 -58.043397 27.447153
61.867722 -57.529301 28.337105
61.19457 -58.408613 28.75524
61.096624 -54.687309 18.661541
61.122837 -55.235979 19.872991
61.905974 -53.760573 18.214475
61.096624 -54.687309 18.661541
55.729134 -29.730518 51.745914
56.51616 -28.898485 51.46516
62.185234 -17.488416 20.208262
61.113629 -17.613461 19.950689
65.420658 -20.809883 41.704491
64.96204 -20.394532 42.442955
65.403702 -21.974453 41.920967
65.86314 -21.248303 40.994537
65.420658 -20.809883 41.704491
58.838074 -37.278216 14.911916
60.153627 -37.730738 15.008786
68.020477 -19.940405 28.434843
67.606327 -20.247022 27.665528
61.218494 -26.78648 48.103893
61.223374 -25.618081 48.025898
60.609966 -26.400241 48.659714
58.549867 -29.995643 50.169292
58.586254 -28.799992 50.199913
57.865781 -29.620445 50.592304
61.289751 -56.963389 42.277499
60.85593 -56.927716 43.259432
61.734798 -56.996498 41.235377
61.77339 -56.094031 42.05645
61.289751 -56.963389 42.277499
61.208625 -59.378986 32.659465
61.701473 -58.745209 33.575515
61.135379 -59.619751 33.961315
61.193562 -59.075598 31.363382
61.208625 -59.378986 32.659465
43.142947 -26.400807 13.783069
42.722292 -25.646397 14.664013
43.912521 -27.335484 13.653464
43.142947 -26.400807 13.783069
61.402904 -39.148583 17.668156
60.164644 -38.671596 17.455315
60.185293 -39.081753 18.72172
69.411953 -40.929468 13.992532
68.615094 -41.021572 15.093421
69.818798 -41.546272 14.223581
69.411953 -40.929468 13.992532
70.513183 -43.47337 14.992109
70.369545 -42.817955 14.726833
70.263603 -43.425418 16.037046
70.382721 -44.19437 15.301578
70.513183 -43.47337 14.992109
69.520946 -46.416714 16.297999
69.88686 -45.66529 15.955767
69.794967 -46.245716 17.247762
68.944831 -47.216602 16.69258
69.520946 -46.416714 16.297999
48.773724 -36.537799 51.90305
49.696005 -35.667107 52.02494
45.52832 -56.526001 48.106308
44.404038 -56.169716 48.155529
45.026028 -57.425541 48.297115
54.920271 -59.423364 47.445878
54.483517 -58.274141 47.493555
54.007101 -59.153461 47.668467
55.733747 -59.639776 47.075646
54.920271 -59.423364 47.445878
53.072447 -18.425272 19.005391
51.931109 -18.483201 18.966336
63.233219 -19.653956 22.159737
64.177757 -19.474435 22.593105
62.213942 -20.989188 22.587777
62.21853 -19.858171 21.749389
63.233219 -19.653956 22.159737
38.73419 -43.314464 53.43272
39.526726 -42.357799 53.445408
38.027189 -44.267729 53.456253
38.723942 -44.249724 52.549633
38.73419 -43.314464 53.43272
68.03656 -19.214905 35.461428
67.651436 -19.959262 36.480524
68.191418 -19.642321 34.634806
68.361477 -18.448997 34.415646
68.03656 -19.214905 35.461428
63.475445 -23.740348 45.194862
63.462158 -22.594569 45.048582
62.943737 -23.337198 45.860544
67.576176 -49.391554 18.776394
68.169228 -49.078087 19.66457
67.452145 -49.895842 20.084297
67.647621 -48.833597 17.506819
67.576176 -49.391554 18.776394
61.145947 -56.742138 23.617321
61.182062 -57.206326 24.876722
64.485791 -51.670362 18.037978
63.623348 -51.962196 17.281373
46.468547 -30.063121 13.262199
45.575338 -29.169099 13.387883
45.636431 -29.678442 14.244909
54.894863 -35.755157 14.659484
54.912222 -36.278914 15.773372
56.181109 -36.304861 14.737732
51.071342 -33.997846 14.670748
52.341697 -34.598167 14.625186
52.230614 -34.12124 13.661074
54.087023 -31.411683 52.105556
54.924174 -30.565339 51.945484
53.933317 -32.583182 51.752838
54.087023 -31.411683 52.105556
53.242611 -32.253069 52.182285
64.466904 -21.125294 43.337778
64.96204 -20.394532 42.442955
68.607872 -19.246873 30.040032
68.376934 -19.587493 29.217982
68.346947 -20.088235 31.10568
68.607872 -19.246873 30.040032
68.779861 -18.860493 30.858471
59.958458 -27.188904 49.228313
60.609966 -26.400241 48.659714
57.471007 -58.121537 46.3759
57.149227 -57.032913 46.67588
56.680876 -57.897778 46.793762
58.151905 -58.287079 45.801364
57.471007 -58.121537 46.3759
58.823595 -58.453159 45.188885
58.611048 -57.422753 45.645538
58.151905 -58.287079 45.801364
61.428383 -58.668005 39.494839
61.580345 -57.832237 40.330568
61.638514 -58.565273 38.304066
61.428383 -58.668005 39.494839
61.880442 -58.461965 37.072853
62.151459 -57.69531 37.9735
61.638514 -58.565273 38.304066
61.497861 -59.158951 36.140392
62.010807 -58.288988 35.809826
61.880442 -58.461965 37.072853
61.107123 -59.859285 35.240917
61.497861 -59.158951 36.140392
61.135379 -59.619751 33.961315
61.107123 -59.859285 35.240917
43.061051 -25.888824 15.368331
42.722292 -25.646397 14.664013
63.776969 -40.066439 18.067242
62.608501 -39.601202 17.845698
62.592022 -40.023976 19.156104
64.867996 -40.109382 16.949933
63.776969 -40.066439 18.067242
64.851517 -40.532156 18.260338
66.038384 -40.024519 15.827915
64.867996 -40.109382 16.949933
66.941814 -40.524774 16.013718
66.038384 -40.024519 15.827915
67.834366 -41.021662 16.218518
66.941814 -40.524774 16.013718
66.835094 -41.071987 17.347829
68.508374 -41.568784 16.427532
68.615094 -41.021572 15.093421
67.834366 -41.021662 16.218518
46.964877 -38.270138 51.549981
47.885334 -37.39154 51.717354
46.917454 -39.381988 50.929233
46.964877 -38.270138 51.549981
46.091375 -39.133572 51.335743
47.780647 -57.238863 48.076698
46.658766 -56.884811 48.077465
48.286548 -56.345287 47.91695
47.780647 -57.238863 48.076698
48.899974 -57.596353 48.086613
53.082774 -58.888706 47.879035
52.564398 -57.693915 47.809011
52.076825 -58.578383 47.971901
54.007101 -59.153461 47.668467
53.082774 -58.888706 47.879035
57.745941 -19.300109 20.021521
57.705532 -18.019687 19.378825
58.861622 -17.878792 19.545032
65.081718 -19.254281 23.100088
65.88964 -19.054944 23.643282
64.132591 -20.564819 23.505109
64.177757 -19.474435 22.593105
65.081718 -19.254281 23.100088
67.04446 -20.240454 38.278181
66.710717 -19.800028 39.060845
67.326443 -20.698031 37.513422
67.04446 -20.240454 38.278181
66.934533 -21.428189 38.511143
67.541508 -21.146997 36.713486
67.651436 -19.959262 36.480524
67.326443 -20.698031 37.513422
67.342858 -50.393364 21.381666
67.885987 -50.015431 22.310374
67.183647 -50.82642 22.719567
67.452145 -49.895842 20.084297
67.342858 -50.393364 21.381666
61.122845 -55.758922 21.1145
61.151965 -56.26771 22.350333
61.918335 -54.848971 20.672545
61.122845 -55.758922 21.1145
61.122837 -55.235979 19.872991
62.757345 -52.86903 17.751836
62.769699 -53.434484 18.968398
61.905974 -53.760573 18.214475
63.623348 -51.962196 17.281373
62.757345 -52.86903 17.751836
48.751176 -20.081581 19.050689
48.706804 -18.626188 18.656799
49.736874 -18.588323 18.80554
52.279778 -33.474602 12.649406
52.230614 -34.12124 13.661074
50.975307 -32.907645 12.755211
52.279778 -33.474602 12.649406
57.144909 -29.248474 50.949948
56.51616 -28.898485 51.46516
57.108522 -30.444126 50.919327
57.865781 -29.620445 50.592304
57.144909 -29.248474 50.949948
55.58269 -30.906976 51.47654
55.729134 -29.730518 51.745914
54.924174 -30.565339 51.945484
43.417479 -57.957602 48.6012
42.814177 -56.728329 48.502529
42.32991 -57.616675 48.757393
44.52881 -58.318342 48.534176
43.417479 -57.957602 48.6012
45.026028 -57.425541 48.297115
44.52881 -58.318342 48.534176
59.994629 -17.766642 19.712871
58.861622 -17.878792 19.545032
60.021031 -19.006033 20.425547
59.994629 -17.766642 19.712871
61.113629 -17.613461 19.950689
65.670711 -22.100959 26.606831
65.760098 -21.12258 25.585064
66.470894 -20.837176 26.242787
66.266323 -20.527173 40.026982
66.710717 -19.800028 39.060845
66.249367 -21.691744 40.243458
66.266323 -20.527173 40.026982
65.86314 -21.248303 40.994537
57.529375 -36.784571 14.791036
57.507166 -37.322262 15.9725
58.838074 -37.278216 14.911916
56.181109 -36.304861 14.737732
57.529375 -36.784571 14.791036
38.039627 -49.241226 50.709042
38.569637 -48.289746 50.549759
37.764824 -48.168346 51.274273
38.359651 -50.300221 50.181541
38.039627 -49.241226 50.709042
38.751917 -51.42975 49.78775
39.236705 -50.492155 49.590736
38.359651 -50.300221 50.181541
39.170016 -52.541561 49.427784
38.751917 -51.42975 49.78775
39.658503 -53.716392 49.208786
40.117458 -52.796516 48.977947
39.170016 -52.541561 49.427784
40.155304 -54.87187 49.019104
39.658503 -53.716392 49.208786
40.715635 -56.079897 48.968991
41.166277 -55.179375 48.708835
40.155304 -54.87187 49.019104
41.26852 -57.269326 48.941646
40.715635 -56.079897 48.968991
42.32991 -57.616675 48.757393
41.26852 -57.269326 48.941646
67.066059 -20.564581 26.937323
66.470894 -20.837176 26.242787
66.921776 -21.497998 27.992759
67.066059 -20.564581 26.937323
67.606327 -20.247022 27.665528
67.8185 -20.827527 29.504103
68.020477 -19.940405 28.434843
68.376934 -19.587493 29.217982
62.386984 -24.088555 46.621801
62.943737 -23.337198 45.860544
61.824423 -24.849226 47.353428
61.223374 -25.618081 48.025898
62.394463 -25.243648 46.738451
62.386984 -24.088555 46.621801
61.824423 -24.849226 47.353428
59.291084 -27.992179 49.74791
58.586254 -28.799992 50.199913
59.937714 -28.371915 49.257305
59.958458 -27.188904 49.228313
59.291084 -27.992179 49.74791
59.376888 -58.557181 44.426262
58.823595 -58.453159 45.188885
59.833128 -57.691671 44.226675
59.376888 -58.557181 44.426262
60.305814 -56.828427 44.125969
59.755425 -56.725588 44.932352
59.833128 -57.691671 44.226675
60.778227 -55.961632 43.965109
60.305814 -56.828427 44.125969
60.85593 -56.927716 43.259432
62.063984 -56.962879 40.10952
61.734798 -56.996498 41.235377
61.580345 -57.832237 40.330568
61.230896 -58.770634 30.049145
61.812053 -58.19948 30.959429
61.193562 -59.075598 31.363382
61.19457 -58.408613 28.75524
61.230896 -58.770634 30.049145
60.099061 -38.277166 16.247566
58.881449 -38.210337 17.30113
60.164644 -38.671596 17.455315
60.153627 -37.730738 15.008786
60.099061 -38.277166 16.247566
61.402904 -39.148583 17.668156
62.608501 -39.601202 17.845698
70.23423 -42.146926 14.45825
69.818798 -41.546272 14.223581
69.704533 -42.169349 15.537102
70.23423 -42.146926 14.45825
70.369545 -42.817955 14.726833
70.25954 -44.9011 15.603182
70.382721 -44.19437 15.301578
70.284062 -44.787563 16.603926
70.25954 -44.9011 15.603182
69.88686 -45.66529 15.955767
50.583855 -34.818863 52.148594
51.491472 -33.954745 52.196713
50.455584 -35.962829 51.638515
50.583855 -34.818863 52.148594
49.696005 -35.667107 52.02494
48.679344 -37.664814 51.329166
48.773724 -36.537799 51.90305
47.885334 -37.39154 51.717354
46.036775 -55.628986 47.935879
45.52832 -56.526001 48.106308
46.658766 -56.884811 48.077465
56.199671 -58.765223 46.882374
56.680876 -57.897778 46.793762
55.877892 -57.676599 47.182354
56.199671 -58.765223 46.882374
55.733747 -59.639776 47.075646
50.832876 -18.556842 18.856903
49.736874 -18.588323 18.80554
50.879479 -19.970074 19.308864
50.832876 -18.556842 18.856903
51.931109 -18.483201 18.966336
56.542843 -18.117488 19.279479
57.705532 -18.019687 19.378825
55.379784 -18.242383 19.160477
56.542843 -18.117488 19.279479
55.426792 -19.565899 19.736312
54.215458 -18.322453 19.104897
55.379784 -18.242383 19.160477
53.120722 -19.793613 19.517803
53.072447 -18.425272 19.005391
54.215458 -18.322453 19.104897
62.188919 -18.687896 20.992356
62.185234 -17.488416 20.208262
61.169641 -20.023128 21.420397
62.188919 -18.687896 20.992356
62.21853 -19.858171 21.749389
64.998233 -21.365513 24.980601
65.798416 -20.101731 24.616557
65.760098 -21.12258 25.585064
44.485399 -38.760937 52.378754
45.238213 -38.911213 51.775925
43.561061 -39.678198 52.233258
44.485399 -38.760937 52.378754
42.699564 -40.581972 52.072945
43.476129 -40.704479 51.435047
43.561061 -39.678198 52.233258
41.824646 -41.510734 51.957462
42.699564 -40.581972 52.072945
41.02195 -42.430996 51.848606
41.811936 -42.528514 51.165878
41.824646 -41.510734 51.957462
40.232802 -42.354838 52.583145
39.526726 -42.357799 53.445408
40.220091 -43.372618 51.791561
41.02195 -42.430996 51.848606
40.232802 -42.354838 52.583145
37.347995 -45.231396 53.526523
38.027189 -44.267729 53.456253
37.421488 -46.163178 52.690201
37.347995 -45.231396 53.526523
37.560434 -47.170117 51.961113
38.155888 -46.209927 51.844078
37.421488 -46.163178 52.690201
37.764824 -48.168346 51.274273
37.560434 -47.170117 51.961113
68.735035 -17.687482 33.385289
68.361477 -18.448997 34.415646
68.8354 -18.077925 32.538998
68.735035 -17.687482 33.385289
68.517635 -19.289134 32.756572
68.836701 -18.490645 31.706546
68.8354 -18.077925 32.538998
63.983227 -21.856138 44.213768
63.462158 -22.594569 45.048582
64.477543 -22.266875 43.50691
64.466904 -21.125294 43.337778
63.983227 -21.856138 44.213768
52.216169 -34.269577 51.795868
52.364208 -33.109735 52.230412
51.491472 -33.954745 52.196713
68.376934 -48.004932 17.075917
68.944831 -47.216602 16.69258
68.861156 -47.785469 17.973331
68.376934 -48.004932 17.075917
67.647621 -48.833597 17.506819
61.171936 -57.627983 26.167215
61.212904 -58.043397 27.447153
61.896181 -56.742428 25.738525
61.171936 -57.627983 26.167215
61.182062 -57.206326 24.876722
61.912325 -55.846342 23.181044
61.145947 -56.742138 23.617321
61.151965 -56.26771 22.350333
65.858765 -52.038736 22.226341
66.499184 -51.635374 23.118405
65.71743 -52.469757 23.553886
65.942291 -51.548136 20.939529
65.858765 -52.038736 22.226341
65.160538 -52.382519 21.375011
66.051579 -51.050613 19.642161
65.942291 -51.548136 20.939529
65.297287 -51.34485 18.829198
64.432568 -52.21743 19.29698
64.485791 -51.670362 18.037978
66.051579 -51.050613 19.642161
65.297287 -51.34485 18.829198
47.677322 -18.628125 18.563957
48.706804 -18.626188 18.656799
46.737815 -18.625586 18.348572
47.677322 -18.628125 18.563957
46.781601 -20.116906 18.686564
45.795276 -18.596879 18.186513
46.737815 -18.625586 18.348572
45.013985 -20.069721 18.165935
45.795276 -18.596879 18.186513
44.355683 -21.462395 18.021812
45.013985 -20.069721 18.165935
45.183792 -21.507041 18.327057
43.848129 -22.806914 17.722798
44.355683 -21.462395 18.021812
43.501894 -24.037692 17.313233
43.848129 -22.806914 17.722798
44.179254 -24.130493 17.773369
43.335676 -25.184199 16.754604
43.501894 -24.037692 17.313233
43.36072 -26.184821 16.104234
43.335676 -25.184199 16.754604
43.858063 -26.361894 16.713434
43.583437 -27.066519 15.32716
43.061051 -25.888824 15.368331
43.36072 -26.184821 16.104234
44.642248 -28.342434 13.543131
43.912521 -27.335484 13.653464
44.013495 -27.77747 14.480925
45.474365 -28.727113 12.560422
44.642248 -28.342434 13.543131
45.575338 -29.169099 13.387883
53.563473 -35.225386 14.655318
54.894863 -35.755157 14.659484
52.404201 -35.101991 15.664992
53.563473 -35.225386 14.655318
52.341697 -34.598167 14.625186
49.803428 -32.220152 12.843947
49.78838 -32.833427 13.795372
50.975307 -32.907645 12.755211
48.594412 -31.57862 12.985383
49.803428 -32.220152 12.843947
47.550981 -30.791885 13.102941
47.573071 -31.3592 14.001666
48.594412 -31.57862 12.985383
46.468547 -30.063121 13.262199
47.550981 -30.791885 13.102941
3 498 125 499
3 0 128 126
3 0 130 128
3 1 133 131
3 4 136 134
3 4 138 136
3 5 141 139
3 5 143 141
3 2 146 144
3 6 149 147
3 6 151 149
3 6 153 151
3 3 156 154
3 500 158 501
3 9 161 159
3 9 163 161
3 11 169 167
3 13 172 170
3 13 173 172
3 13 174 173
3 14 177 175
3 14 179 177
3 15 502 504
3 502 181 503
3 502 503 504
3 17 184 182
3 17 186 184
3 7 189 187
3 505 191 506
3 507 193 508
3 509 508 191
3 507 508 509
3 511 510 193
3 19 197 195
3 19 199 197
3 512 200 513
3 20 203 201
3 20 205 203
3 20 207 205
3 21 210 208
3 21 212 210
3 22 214 213
3 22 216 214
3 8 219 217
3 23 222 220
3 23 224 222
3 23 226 224
3 24 229 227
3 24 231 229
3 16 234 232
3 25 237 235
3 25 239 237
3 10 242 240
3 26 245 243
3 26 247 245
3 26 249 247
3 27 252 250
3 27 254 252
3 27 256 254
3 28 259 257
3 28 514 516
3 516 515 259
3 514 515 516
3 517 263 518
3 519 518 261
3 517 518 519
3 520 265 521
3 523 522 265
3 18 269 267
3 29 272 270
3 29 274 272
3 12 277 275
3 524 278 525
3 31 279 124
3 31 280 279
3 32 283 281
3 34 284 127
3 34 285 284
3 34 287 285
3 36 288 129
3 36 289 288
3 37 292 290
3 39 293 132
3 39 294 293
3 526 296 527
3 40 299 297
3 42 300 135
3 42 301 300
3 42 303 301
3 44 304 137
3 44 305 304
3 45 528 529
3 45 530 532
3 530 306 531
3 530 531 532
3 46 309 307
3 48 310 140
3 48 311 310
3 48 313 311
3 50 314 142
3 50 315 314
3 51 318 316
3 53 319 145
3 53 320 319
3 54 323 321
3 56 324 148
3 56 325 324
3 56 327 325
3 58 328 150
3 58 329 328
3 58 331 329
3 60 332 152
3 60 333 332
3 61 336 334
3 63 337 155
3 63 338 337
3 534 533 339
3 535 342 536
3 65 343 157
3 65 344 343
3 67 537 539
3 537 345 538
3 537 538 539
3 67 346 345
3 30 540 542
3 540 347 541
3 540 541 542
3 68 348 160
3 68 349 348
3 68 350 349
3 69 351 162
3 69 352 351
3 70 355 353
3 72 356 164
3 72 357 356
3 543 358 544
3 545 359 546
3 547 546 358
3 545 546 547
3 73 360 165
3 73 361 360
3 73 363 361
3 548 364 549
3 550 549 166
3 548 549 550
3 552 551 364
3 75 553 554
3 75 555 556
3 76 367 365
3 78 368 168
3 78 369 368
3 33 370 282
3 79 371 171
3 79 372 371
3 79 557 559
3 559 558 372
3 557 558 559
3 80 560 561
3 80 562 563
3 35 373 286
3 81 374 176
3 81 564 566
3 566 565 374
3 564 565 566
3 81 567 568
3 82 569 571
3 571 570 178
3 569 570 571
3 82 572 573
3 574 376 575
3 84 377 180
3 84 378 377
3 38 379 291
3 85 380 183
3 85 381 380
3 85 382 381
3 86 383 185
3 86 384 383
3 64 385 341
3 87 386 188
3 87 387 386
3 576 388 577
3 578 577 295
3 576 577 578
3 88 389 190
3 88 390 389
3 88 391 390
3 89 392 192
3 89 393 392
3 89 394 393
3 579 395 580
3 581 580 194
3 579 580 581
3 583 582 395
3 584 396 585
3 90 397 196
3 90 398 397
3 90 399 398
3 91 400 198
3 91 401 400
3 92 586 587
3 92 588 590
3 588 402 589
3 588 589 590
3 41 403 298
3 93 404 202
3 93 405 404
3 93 406 405
3 94 407 204
3 94 408 407
3 94 409 408
3 95 410 206
3 95 411 410
3 43 412 302
3 96 413 209
3 96 414 413
3 96 415 414
3 97 416 211
3 97 417 416
3 591 418 592
3 593 419 594
3 595 594 418
3 593 594 595
3 98 596 597
3 98 598 600
3 598 420 599
3 598 599 600
3 98 421 420
3 99 422 215
3 99 423 422
3 66 601 603
3 601 424 602
3 601 602 603
3 100 425 218
3 100 426 425
3 47 427 308
3 101 428 221
3 101 429 428
3 101 430 429
3 102 431 223
3 102 432 431
3 102 433 432
3 103 434 225
3 103 435 434
3 49 436 312
3 104 437 228
3 104 438 437
3 104 439 438
3 105 440 230
3 105 441 440
3 83 442 375
3 106 443 233
3 106 444 443
3 52 445 317
3 107 446 236
3 107 447 446
3 107 448 447
3 108 449 238
3 108 450 449
3 71 451 354
3 109 452 241
3 109 453 452
3 55 454 322
3 110 455 244
3 110 456 455
3 110 457 456
3 111 458 246
3 111 459 458
3 111 460 459
3 112 461 248
3 112 462 461
3 57 463 326
3 113 464 251
3 113 465 464
3 113 466 465
3 114 467 253
3 114 468 467
3 114 469 468
3 115 470 255
3 115 471 470
3 59 472 330
3 116 473 258
3 116 474 473
3 116 475 474
3 604 476 605
3 606 605 260
3 604 605 606
3 608 607 476
3 74 477 362
3 117 478 262
3 117 479 478
3 609 480 610
3 118 481 264
3 118 482 481
3 118 483 482
3 612 611 266
3 119 484 268
3 119 485 484
3 62 486 335
3 120 487 271
3 120 488 487
3 120 489 488
3 121 490 273
3 121 613 615
3 615 614 490
3 613 614 615
3 77 491 366
3 122 492 276
3 122 493 492
3 616 494 617
3 618 617 340
3 616 617 618
3 123 619 621
3 619 495 620
3 619 620 621
3 123 496 495
3 123 497 496
3 622 124 623
3 125 624 626
3 624 124 625
3 624 625 626
3 125 31 124
3 126 127 32
3 128 127 126
3 128 34 127
3 128 129 34
3 130 129 128
3 130 36 129
3 131 132 37
3 133 132 131
3 133 39 132
3 134 135 40
3 136 135 134
3 136 42 135
3 136 137 42
3 138 137 136
3 138 44 137
3 627 45 628
3 139 140 46
3 141 140 139
3 141 48 140
3 141 142 48
3 143 142 141
3 143 50 142
3 144 145 51
3 146 145 144
3 146 53 145
3 147 148 54
3 149 148 147
3 149 56 148
3 149 150 56
3 151 150 149
3 151 58 150
3 151 152 58
3 153 152 151
3 153 60 152
3 154 155 61
3 156 155 154
3 156 63 155
3 629 157 630
3 158 631 633
3 631 157 632
3 631 632 633
3 158 65 157
3 634 67 635
3 159 160 30
3 161 160 159
3 161 68 160
3 161 162 68
3 163 162 161
3 163 69 162
3 636 164 637
3 638 637 70
3 636 637 638
3 639 164 640
3 641 72 642
3 643 642 164
3 641 642 643
3 644 165 645
3 646 165 647
3 648 73 649
3 650 649 165
3 648 649 650
3 651 166 652
3 653 652 73
3 651 652 653
3 654 166 655
3 657 656 166
3 658 75 659
3 167 168 76
3 169 168 167
3 169 78 168
3 170 171 33
3 172 171 170
3 172 79 171
3 172 660 662
3 662 661 79
3 660 661 662
3 173 663 665
3 665 664 172
3 663 664 665
3 173 666 667
3 173 668 669
3 174 670 672
3 672 671 173
3 670 671 672
3 174 673 675
3 673 80 674
3 673 674 675
3 175 176 35
3 177 176 175
3 177 81 176
3 177 178 81
3 179 178 177
3 179 82 178
3 676 180 677
3 181 678 680
3 678 180 679
3 678 679 680
3 181 84 180
3 182 183 38
3 184 183 182
3 184 85 183
3 184 185 85
3 186 185 184
3 186 86 185
3 187 188 64
3 189 188 187
3 189 87 188
3 681 190 682
3 191 683 685
3 683 190 684
3 683 684 685
3 191 88 190
3 191 192 88
3 193 192 191
3 193 89 192
3 193 194 89
3 686 194 687
3 688 687 193
3 686 687 688
3 690 689 194
3 195 691 693
3 691 196 692
3 691 692 693
3 197 196 195
3 197 90 196
3 197 198 90
3 199 198 197
3 199 91 198
3 200 694 695
3 200 696 698
3 696 92 697
3 696 697 698
3 201 202 41
3 203 202 201
3 203 93 202
3 203 204 93
3 205 204 203
3 205 94 204
3 205 206 94
3 207 206 205
3 207 95 206
3 208 209 43
3 210 209 208
3 210 96 209
3 210 211 96
3 212 211 210
3 212 97 211
3 213 699 700
3 214 701 703
3 703 702 213
3 701 702 703
3 214 704 706
3 704 98 705
3 704 705 706
3 214 215 98
3 216 215 214
3 216 99 215
3 217 218 66
3 219 218 217
3 219 100 218
3 220 221 47
3 222 221 220
3 222 101 221
3 222 223 101
3 224 223 222
3 224 102 223
3 224 225 102
3 226 225 224
3 226 103 225
3 227 228 49
3 229 228 227
3 229 104 228
3 229 230 104
3 231 230 229
3 231 105 230
3 232 233 83
3 234 233 232
3 234 106 233
3 235 236 52
3 237 236 235
3 237 107 236
3 237 238 107
3 239 238 237
3 239 108 238
3 240 241 71
3 242 241 240
3 242 109 241
3 243 244 55
3 245 244 243
3 245 110 244
3 245 246 110
3 247 246 245
3 247 111 246
3 247 248 111
3 249 248 247
3 249 112 248
3 250 251 57
3 252 251 250
3 252 113 251
3 252 253 113
3 254 253 252
3 254 114 253
3 254 255 114
3 256 255 254
3 256 115 255
3 257 258 59
3 259 258 257
3 259 116 258
3 259 260 116
3 707 260 708
3 709 708 259
3 707 708 709
3 711 710 260
3 261 262 74
3 263 262 261
3 263 117 262
3 712 264 713
3 265 714 716
3 714 264 715
3 714 715 716
3 265 118 264
3 265 266 118
3 717 266 718
3 719 718 265
3 717 718 719
3 721 720 266
3 267 722 724
3 722 268 723
3 722 723 724
3 269 268 267
3 269 119 268
3 270 271 62
3 272 271 270
3 272 120 271
3 272 273 120
3 274 273 272
3 274 121 273
3 275 276 77
3 277 276 275
3 277 122 276
3 725 123 726
3 728 727 123
3 278 729 730
3 278 731 733
3 731 30 732
3 731 732 733
3 124 734 736
3 734 278 735
3 734 735 736
3 279 278 124
3 279 30 278
3 279 159 30
3 280 159 279
3 280 9 159
3 281 282 11
3 283 282 281
3 283 33 282
3 127 283 32
3 284 283 127
3 284 33 283
3 284 170 33
3 285 170 284
3 285 13 170
3 285 286 13
3 287 286 285
3 287 35 286
3 129 287 34
3 288 287 129
3 288 35 287
3 288 175 35
3 289 175 288
3 289 14 175
3 290 291 15
3 292 291 290
3 292 38 291
3 132 292 37
3 293 292 132
3 293 38 292
3 293 182 38
3 294 182 293
3 294 17 182
3 737 295 738
3 739 738 7
3 737 738 739
3 740 295 741
3 743 742 295
3 744 195 745
3 296 746 748
3 746 195 747
3 746 747 748
3 296 19 195
3 297 749 751
3 749 298 750
3 749 750 751
3 299 298 297
3 299 41 298
3 135 299 40
3 300 299 135
3 300 41 299
3 300 201 41
3 301 201 300
3 301 20 201
3 301 302 20
3 303 302 301
3 303 43 302
3 137 303 42
3 304 303 137
3 304 43 303
3 304 208 43
3 305 208 304
3 305 21 208
3 752 213 753
3 306 754 756
3 754 213 755
3 754 755 756
3 306 22 213
3 307 308 8
3 309 308 307
3 309 47 308
3 140 309 46
3 310 309 140
3 310 47 309
3 310 220 47
3 311 220 310
3 311 23 220
3 311 312 23
3 313 312 311
3 313 49 312
3 142 313 48
3 314 313 142
3 314 49 313
3 314 227 49
3 315 227 314
3 315 24 227
3 316 317 16
3 318 317 316
3 318 52 317
3 145 318 51
3 319 318 145
3 319 52 318
3 319 235 52
3 320 235 319
3 320 25 235
3 321 322 10
3 323 322 321
3 323 55 322
3 148 323 54
3 324 323 148
3 324 55 323
3 324 243 55
3 325 243 324
3 325 26 243
3 325 326 26
3 327 326 325
3 327 57 326
3 150 327 56
3 328 327 150
3 328 57 327
3 328 250 57
3 329 250 328
3 329 27 250
3 329 330 27
3 331 330 329
3 331 59 330
3 152 331 58
3 332 331 152
3 332 59 331
3 332 257 59
3 333 257 332
3 333 28 257
3 334 335 18
3 336 335 334
3 336 62 335
3 155 336 61
3 337 336 155
3 337 62 336
3 337 270 62
3 338 270 337
3 338 29 270
3 339 340 12
3 757 340 758
3 759 758 339
3 757 758 759
3 761 760 340
3 762 341 763
3 764 763 1
3 762 763 764
3 765 341 766
3 767 64 768
3 769 768 341
3 767 768 769
3 770 64 771
3 772 187 773
3 774 773 64
3 772 773 774
3 775 187 776
3 777 7 778
3 779 778 187
3 777 778 779
3 780 7 781
3 783 782 7
3 784 297 785
3 342 786 788
3 786 297 787
3 786 787 788
3 342 40 297
3 157 789 791
3 789 342 790
3 789 790 791
3 343 342 157
3 343 40 342
3 343 134 40
3 344 134 343
3 344 4 134
3 792 66 793
3 345 794 795
3 345 796 798
3 796 66 797
3 796 797 798
3 345 217 66
3 346 217 345
3 346 8 217
3 347 799 800
3 347 801 803
3 801 67 802
3 801 802 803
3 160 347 30
3 348 347 160
3 348 67 347
3 348 346 67
3 349 346 348
3 349 8 346
3 349 307 8
3 350 307 349
3 350 46 307
3 162 350 68
3 351 350 162
3 351 46 350
3 351 139 46
3 352 139 351
3 352 5 139
3 353 354 2
3 355 354 353
3 355 71 354
3 164 355 70
3 356 355 164
3 356 71 355
3 356 240 71
3 357 240 356
3 357 10 240
3 804 72 805
3 806 72 807
3 808 357 809
3 810 809 72
3 808 809 810
3 358 811 813
3 811 357 812
3 811 812 813
3 358 10 357
3 358 321 10
3 359 321 358
3 359 54 321
3 165 814 816
3 814 359 815
3 814 815 816
3 360 359 165
3 360 54 359
3 360 147 54
3 361 147 360
3 361 6 147
3 361 362 6
3 363 362 361
3 363 74 362
3 166 363 73
3 364 363 166
3 364 74 363
3 364 261 74
3 817 261 818
3 819 818 364
3 817 818 819
3 821 820 261
3 365 366 3
3 367 366 365
3 367 77 366
3 168 367 76
3 368 367 168
3 368 77 367
3 368 275 77
3 369 275 368
3 369 12 275
3 282 169 11
3 370 169 282
3 370 78 169
3 171 370 33
3 371 370 171
3 371 78 370
3 371 369 78
3 372 369 371
3 372 12 369
3 372 339 12
3 822 339 823
3 824 823 372
3 822 823 824
3 826 825 339
3 828 827 79
3 286 174 13
3 373 174 286
3 373 80 174
3 176 373 35
3 374 373 176
3 374 80 373
3 374 829 831
3 831 830 80
3 829 830 831
3 833 832 374
3 178 834 836
3 836 835 81
3 834 835 836
3 838 837 178
3 839 375 840
3 376 841 843
3 841 375 842
3 841 842 843
3 376 83 375
3 180 844 846
3 844 376 845
3 844 845 846
3 377 376 180
3 377 83 376
3 377 232 83
3 378 232 377
3 378 16 232
3 291 181 15
3 379 181 291
3 379 84 181
3 183 379 38
3 380 379 183
3 380 84 379
3 380 378 84
3 381 378 380
3 381 16 378
3 381 316 16
3 382 316 381
3 382 51 316
3 185 382 85
3 383 382 185
3 383 51 382
3 383 144 51
3 384 144 383
3 384 2 144
3 341 133 1
3 385 133 341
3 385 39 133
3 188 385 64
3 386 385 188
3 386 39 385
3 386 294 39
3 387 294 386
3 387 17 294
3 295 189 7
3 388 189 295
3 388 87 189
3 190 847 849
3 847 388 848
3 847 848 849
3 389 388 190
3 389 87 388
3 389 387 87
3 390 387 389
3 390 17 387
3 390 186 17
3 391 186 390
3 391 86 186
3 192 391 88
3 392 391 192
3 392 86 391
3 392 384 86
3 393 384 392
3 393 2 384
3 393 353 2
3 394 353 393
3 394 70 353
3 194 394 89
3 395 394 194
3 395 70 394
3 395 850 852
3 852 851 70
3 850 851 852
3 854 853 395
3 855 267 856
3 396 857 859
3 857 267 858
3 857 858 859
3 396 18 267
3 196 860 861
3 397 862 864
3 864 863 196
3 862 863 864
3 397 865 866
3 397 867 869
3 867 396 868
3 867 868 869
3 398 396 397
3 398 18 396
3 398 334 18
3 399 334 398
3 399 61 334
3 198 399 90
3 400 399 198
3 400 61 399
3 400 154 61
3 401 154 400
3 401 3 154
3 870 296 871
3 402 872 874
3 872 296 873
3 872 873 874
3 402 19 296
3 298 875 877
3 875 200 876
3 875 876 877
3 403 200 298
3 403 92 200
3 202 403 41
3 404 403 202
3 404 92 403
3 404 402 92
3 405 402 404
3 405 19 402
3 405 199 19
3 406 199 405
3 406 91 199
3 204 406 93
3 407 406 204
3 407 91 406
3 407 401 91
3 408 401 407
3 408 3 401
3 408 365 3
3 409 365 408
3 409 76 365
3 206 409 94
3 410 409 206
3 410 76 409
3 410 167 76
3 411 167 410
3 411 11 167
3 302 207 20
3 412 207 302
3 412 95 207
3 209 412 43
3 413 412 209
3 413 95 412
3 413 411 95
3 414 411 413
3 414 11 411
3 414 281 11
3 415 281 414
3 415 32 281
3 211 415 96
3 416 415 211
3 416 32 415
3 416 126 32
3 417 126 416
3 417 0 126
3 878 15 879
3 880 15 881
3 882 290 883
3 884 883 15
3 882 883 884
3 885 290 886
3 887 37 888
3 889 888 290
3 887 888 889
3 418 890 891
3 418 892 894
3 892 37 893
3 892 893 894
3 418 131 37
3 419 131 418
3 419 1 131
3 895 419 896
3 897 419 898
3 899 1 900
3 901 900 419
3 899 900 901
3 903 902 1
3 420 904 905
3 420 906 907
3 420 908 910
3 908 158 909
3 908 909 910
3 421 158 420
3 421 65 158
3 215 421 98
3 422 421 215
3 422 65 421
3 422 344 65
3 423 344 422
3 423 4 344
3 424 911 912
3 424 913 915
3 913 45 914
3 913 914 915
3 218 424 66
3 425 424 218
3 425 45 424
3 425 306 45
3 426 306 425
3 426 22 306
3 308 219 8
3 427 219 308
3 427 100 219
3 221 427 47
3 428 427 221
3 428 100 427
3 428 426 100
3 429 426 428
3 429 22 426
3 429 216 22
3 430 216 429
3 430 99 216
3 223 430 101
3 431 430 223
3 431 99 430
3 431 423 99
3 432 423 431
3 432 4 423
3 432 138 4
3 433 138 432
3 433 44 138
3 225 433 102
3 434 433 225
3 434 44 433
3 434 305 44
3 435 305 434
3 435 21 305
3 312 226 23
3 436 226 312
3 436 103 226
3 228 436 49
3 437 436 228
3 437 103 436
3 437 435 103
3 438 435 437
3 438 21 435
3 438 212 21
3 439 212 438
3 439 97 212
3 230 439 104
3 440 439 230
3 440 97 439
3 440 417 97
3 441 417 440
3 441 0 417
3 375 916 918
3 916 125 917
3 916 917 918
3 442 125 375
3 442 31 125
3 233 442 83
3 443 442 233
3 443 31 442
3 443 280 31
3 444 280 443
3 444 9 280
3 317 234 16
3 445 234 317
3 445 106 234
3 236 445 52
3 446 445 236
3 446 106 445
3 446 444 106
3 447 444 446
3 447 9 444
3 447 163 9
3 448 163 447
3 448 69 163
3 238 448 107
3 449 448 238
3 449 69 448
3 449 352 69
3 450 352 449
3 450 5 352
3 354 146 2
3 451 146 354
3 451 53 146
3 241 451 71
3 452 451 241
3 452 53 451
3 452 320 53
3 453 320 452
3 453 25 320
3 322 242 10
3 454 242 322
3 454 109 242
3 244 454 55
3 455 454 244
3 455 109 454
3 455 453 109
3 456 453 455
3 456 25 453
3 456 239 25
3 457 239 456
3 457 108 239
3 246 457 110
3 458 457 246
3 458 108 457
3 458 450 108
3 459 450 458
3 459 5 450
3 459 143 5
3 460 143 459
3 460 50 143
3 248 460 111
3 461 460 248
3 461 50 460
3 461 315 50
3 462 315 461
3 462 24 315
3 326 249 26
3 463 249 326
3 463 112 249
3 251 463 57
3 464 463 251
3 464 112 463
3 464 462 112
3 465 462 464
3 465 24 462
3 465 231 24
3 466 231 465
3 466 105 231
3 253 466 113
3 467 466 253
3 467 105 466
3 467 441 105
3 468 441 467
3 468 0 441
3 468 130 0
3 469 130 468
3 469 36 130
3 255 469 114
3 470 469 255
3 470 36 469
3 470 289 36
3 471 289 470
3 471 14 289
3 330 256 27
3 472 256 330
3 472 115 256
3 258 472 59
3 473 472 258
3 473 115 472
3 473 471 115
3 474 471 473
3 474 14 471
3 474 179 14
3 475 179 474
3 475 82 179
3 260 475 116
3 476 475 260
3 476 82 475
3 476 919 921
3 921 920 82
3 919 920 921
3 923 922 476
3 362 153 6
3 477 153 362
3 477 60 153
3 262 477 74
3 478 477 262
3 478 60 477
3 478 333 60
3 479 333 478
3 479 28 333
3 924 263 925
3 480 926 928
3 926 263 927
3 926 927 928
3 480 117 263
3 264 929 931
3 929 480 930
3 929 930 931
3 481 480 264
3 481 117 480
3 481 479 117
3 482 479 481
3 482 28 479
3 482 932 934
3 934 933 28
3 932 933 934
3 483 935 937
3 937 936 482
3 935 936 937
3 483 938 939
3 266 483 118
3 940 483 941
3 942 941 266
3 940 941 942
3 944 943 483
3 268 945 946
3 484 947 949
3 949 948 268
3 947 948 949
3 484 950 951
3 484 952 953
3 485 954 956
3 956 955 484
3 954 955 956
3 485 957 958
3 335 269 18
3 486 269 335
3 486 119 269
3 271 486 62
3 487 486 271
3 487 119 486
3 487 485 119
3 488 485 487
3 488 959 961
3 961 960 485
3 959 960 961
3 488 962 963
3 489 964 966
3 966 965 488
3 964 965 966
3 489 967 969
3 967 75 968
3 967 968 969
3 273 489 120
3 490 489 273
3 490 75 489
3 490 970 972
3 972 971 75
3 970 971 972
3 975 974 490
3 973 974 975
3 366 156 3
3 491 156 366
3 491 63 156
3 276 491 77
3 492 491 276
3 492 63 491
3 492 338 63
3 493 338 492
3 493 29 338
3 340 277 12
3 494 277 340
3 494 122 277
3 976 494 977
3 495 978 980
3 978 494 979
3 978 979 980
3 495 122 494
3 495 493 122
3 496 493 495
3 496 29 493
3 496 274 29
3 497 274 496
3 497 121 274
3 981 497 982
3 983 982 123
3 981 982 983
3 984 497 985
3 986 121 987
3 988 987 497
3 986 987 988
3 990 989 121
