ply
format ascii 1.0
element vertex 731
property float x
property float y
property float z
element face 864
property list uchar int vertex_index
end_header
-32.406281 35.871651 -16.948601
-38.96447 10.508842 -16.933002
-33.726894 17.953491 -30.275623
-37.674934 1.440115 -0.127955
-34.106476 25.127125 -14.480883
-37.710556 15.284595 -24.606236
-32.396568 26.775818 -22.018978
-38.086685 -2.621399 7.181417
-37.113029 15.812687 7.141715
-34.674217 20.235401 1.408885
-39.664848 -20.809399 14.168738
-45.10107 0.935953 -20.564217
-33.414673 37.772118 -10.162464
-39.208244 -17.659943 6.829954
-41.352806 -13.170429 -2.149315
-43.700638 -6.905521 -11.4102
-38.302097 5.764004 -8.492546
-34.252434 23.226307 -6.416525
-28.581875 17.127991 -32.258652
-32.675049 31.607906 -15.299158
-33.472126 25.975887 -18.314362
-32.146435 31.891373 -18.970425
-41.584366 -29.303324 10.569099
-41.847797 4.745193 -19.053162
-41.74395 8.081278 -23.293098
-35.986618 17.037182 -27.811638
-39.168457 13.751034 -30.80999
-36.747116 15.240807 -33.540661
-33.987442 15.471695 -35.168205
-39.924095 -13.943883 13.499281
-38.944008 -19.37776 10.828504
-38.824093 -12.490334 10.537216
-37.697269 -0.636316 3.71597
-38.813641 -8.892638 2.896078
-39.403046 -6.690345 -1.380789
-42.597069 -10.266764 -6.787601
-40.106728 -4.218551 -5.78743
-40.819466 -1.484697 -10.242615
-37.905315 3.570257 -4.238523
-33.997913 29.385067 0.493006
-34.275448 21.919285 -2.365231
-33.424889 30.711426 -3.363897
-33.223221 31.393661 -7.450052
-25.558243 21.631844 -30.83939
-36.348984 17.669495 -15.128487
-38.698368 12.994392 -20.918373
-35.859253 19.319298 -18.98877
-34.731621 20.79203 -22.605316
-33.035728 21.852268 -25.832771
-38.997406 -4.466969 10.144644
-36.587303 8.59824 4.457108
-36.045307 10.649652 1.012584
-35.609276 18.171307 4.642209
-40.213482 -26.59182 14.318583
-40.88554 11.225382 -27.286137
-32.924976 36.957558 -13.954657
-39.782921 -24.946905 10.924019
-40.50581 -22.907892 6.925001
-41.975414 -20.513515 2.532507
-38.533646 -10.81968 6.927027
-40.12888 -15.616653 2.434668
-43.765949 -17.685381 -2.076567
-45.524006 -14.31044 -6.770746
-47.020962 -10.343378 -11.469019
-44.575981 -3.137569 -15.998495
-41.454166 1.512341 -14.682423
-38.733177 8.069372 -12.760927
-35.909824 12.545357 -2.853071
-36.07354 14.302223 -6.951347
-36.32341 15.989819 -11.089964
-34.306053 24.249287 -10.504208
-33.048817 31.594246 -11.486715
-31.376549 32.407673 -22.714581
-30.866035 27.342613 -25.421894
-30.905136 22.316425 -28.410999
-28.408356 22.185791 -30.095261
-31.199982 17.934399 -31.771511
-31.275711 14.52383 -35.585522
-32.401237 34.12011 -16.117743
-32.424362 31.692554 -17.129314
-32.219688 34.16045 -17.789898
-40.367569 7.402119 -18.015003
-41.875835 6.414776 -21.194759
-40.3605 8.859388 -20.092018
-34.906254 17.612095 -29.15316
-36.460976 15.890686 -30.636711
-35.236847 16.352737 -31.789516
-35.383228 15.515911 -34.505859
-33.94175 16.534721 -32.679176
-39.261059 -13.242023 12.113998
-39.463779 -9.395038 11.779927
-37.64859 0.393667 1.834408
-38.356544 -3.883647 1.283623
-38.524326 -2.799486 -0.780077
-39.748833 -5.487418 -3.573498
-38.735764 -1.675419 -2.891964
-38.979027 -0.512676 -5.039742
-37.763874 2.499144 -2.157232
-34.08519 33.530235 -0.583759
-33.646034 30.132946 -1.386335
-33.706638 34.155815 -2.509792
-33.453213 34.576267 -4.518456
-35.159904 21.442097 -14.623587
-36.181351 18.504318 -17.084316
-34.938103 22.069637 -16.566959
-32.988007 26.391968 -20.186493
-34.074139 23.26189 -20.322968
-33.440079 23.787502 -22.121025
-33.945881 21.388481 -24.281963
-32.684067 24.230312 -23.838154
-37.029278 7.528912 5.976725
-36.632206 12.273441 6.065618
-36.060909 13.383873 4.649148
-36.291351 17.02066 5.991165
-38.301434 14.184303 -22.808861
-39.841141 11.715202 -24.068939
-39.283371 13.026211 -25.929802
-39.817978 -23.83798 14.319148
-39.832504 -25.826151 12.710169
-39.381557 -23.12796 12.713543
-38.971882 -18.555414 8.894548
-39.392601 -21.444553 8.955249
-39.758186 -20.482676 6.865612
-41.17466 -21.757935 4.765804
-40.299843 -19.43639 4.677371
-38.467045 -3.563671 8.734678
-38.522411 -7.75629 8.76993
-38.305096 -6.86333 7.048025
-39.860451 -11.365086 0.387534
-39.425713 -12.473486 2.599043
-40.723278 -14.448427 0.156204
-41.711281 -17.046587 0.111597
-42.488029 -15.677099 -2.22296
-44.666466 -16.07163 -4.419439
-43.260292 -14.176809 -4.570131
-43.172394 -8.641204 -9.103058
-44.686069 -10.76811 -9.260826
-45.306229 -8.866022 -11.593813
-47.631176 -8.155394 -13.812273
-45.849701 -6.84502 -13.918201
-46.305153 -4.720288 -16.237938
-44.172485 -5.067474 -13.708248
-39.522434 1.935987 -9.394049
-41.154228 -0.018843 -12.467945
-39.797962 3.229654 -11.576494
-40.050434 4.573944 -13.747438
-38.525463 6.899702 -10.632519
-35.305168 15.443947 1.341872
-35.931526 11.617601 -0.878531
-35.111435 16.376347 -0.508573
-34.233017 22.615902 -4.372898
-35.029755 18.040455 -4.46665
-35.093487 18.784836 -6.514767
-36.205688 15.149727 -9.026024
-35.180618 19.48534 -8.572802
-35.248699 20.154736 -10.619518
-34.291706 23.764938 -8.467678
-33.151642 34.853634 -8.61138
-33.152779 31.538845 -9.488333
-33.013344 34.764179 -10.620691
-32.839661 34.57233 -12.561687
-33.189049 37.425365 -12.112858
-29.897301 27.499069 -26.891293
-30.828285 24.782959 -26.87624
-29.72525 24.879292 -28.112259
-27.084442 19.182362 -31.322659
-27.025717 21.947857 -30.577797
-28.456207 19.589603 -31.126366
-29.778786 19.87812 -30.703976
-29.896799 17.612877 -32.133965
-31.293858 16.104038 -33.620174
-29.993519 15.553001 -33.691319
-33.255985 28.564198 -14.718571
-33.846416 25.551323 -16.413515
-32.983654 28.799751 -16.623001
-32.635002 29.073414 -18.50935
-32.209167 29.373875 -20.390602
-43.422001 2.587513 -19.933315
-45.16853 3.033327 -22.840725
-43.474495 4.472094 -22.143028
-43.362354 6.354168 -24.324467
-43.053669 8.18906 -26.462276
-36.931931 16.249847 -26.284397
-38.52066 14.191422 -27.668839
-37.569397 15.160477 -29.250702
-38.026115 14.645863 -32.296329
-39.717228 -17.506657 13.888338
-39.16412 -20.130053 12.597511
-39.14146 -16.830109 12.390396
-38.818962 -16.094051 10.696119
-38.72216 -15.296715 8.837772
-37.836929 -1.643646 5.503116
-38.223106 -5.919063 5.213376
-38.248886 -4.924784 3.286245
-39.084198 -7.825894 0.780001
-40.335213 -10.164865 -1.856916
-41.985279 -11.777136 -4.467405
-40.823242 -8.871334 -4.120893
-41.305664 -7.485022 -6.394264
-41.770092 -6.007836 -8.669552
-42.207539 -4.442558 -10.941385
-40.466557 -2.884411 -8.013256
-39.244675 0.689981 -7.211178
-38.089108 4.656555 -6.35582
-34.215519 24.918617 1.144853
-34.414249 21.126953 -0.426435
-33.902851 25.752407 -0.701424
-33.719135 26.452896 -2.652525
-33.634106 27.023846 -4.669836
-33.607857 27.477154 -6.717615
-33.298656 31.126263 -5.397812
-33.283798 34.801529 -6.565607
-33.618935 37.960224 -8.145527
-28.725225 14.834076 -33.536015
-37.624866 13.973915 -15.931187
-38.911293 11.757429 -18.954769
-37.516411 15.015736 -17.911957
-37.248257 16.040462 -19.835583
-36.803238 17.018341 -21.689957
-34.576176 22.681282 -18.467892
-35.374302 20.091648 -20.833618
-36.179333 17.913265 -23.458317
-35.388798 18.686817 -25.117455
-34.454308 19.303642 -26.637737
-33.403194 19.737087 -27.985466
-39.693607 -5.330829 11.391884
-38.392174 0.831387 8.66975
-37.851097 1.838797 7.292041
-37.438793 2.864256 5.773457
-37.141823 3.897736 4.126195
-36.947609 4.929348 2.362615
-36.845367 5.951271 0.496368
-36.261448 9.641565 2.797462
-35.619526 14.444366 3.068824
-35.070358 19.24736 3.107795
-35.292526 22.875092 4.375623
-34.676056 23.955788 2.848355
-34.504318 28.472446 2.231739
-34.618458 32.702522 1.213771
-40.587627 -24.441957 15.70703
-40.469601 -21.406923 15.515164
-40.565891 -18.120367 15.163157
-40.194649 10.310305 -22.115513
-41.420948 9.702082 -25.331478
-42.524406 9.922419 -28.532822
-40.131088 12.594038 -29.125332
-41.763489 11.493418 -30.503159
-32.639256 36.411407 -15.623999
-40.538868 -28.241394 12.562476
-40.558388 -27.260359 10.817497
-40.887318 -26.163616 8.942005
-39.252159 -22.327009 10.91534
-40.023869 -23.971035 8.986475
-41.472046 -24.968927 6.956485
-42.253613 -23.684444 4.879459
-43.172272 -22.308083 2.727071
-44.171066 -20.829063 0.513537
-38.901253 -8.599102 10.355654
-38.591045 -11.684723 8.798187
-38.817013 -14.432506 6.848727
-38.619259 -9.890123 4.95165
-39.064972 -13.493931 4.760151
-39.609135 -16.68372 4.667158
-40.967144 -18.29538 2.418175
-42.855213 -19.16124 0.245776
-43.999619 -12.540364 -6.918528
-46.314445 -12.399262 -9.122004
-46.656975 -2.511162 -18.558956
-44.893578 -1.129946 -18.28323
-42.608467 -2.79287 -13.206066
-42.959156 -1.064251 -15.461081
-43.239384 0.73423 -17.704384
-41.695541 3.104153 -16.879688
-40.251736 5.96759 -15.896782
-38.89217 9.274378 -14.864838
-36.82571 6.959242 -1.456638
-36.879051 7.953335 -3.477966
-36.993172 8.937849 -5.547194
-35.026222 17.240486 -2.454758
-35.964703 13.437485 -4.885841
-37.150707 9.920328 -7.643217
-37.327251 10.909674 -9.74588
-37.490902 11.913649 -11.837379
-37.603649 12.936031 -13.903051
-36.384861 16.8293 -13.127789
-35.254456 20.804432 -12.639595
-34.254459 24.697659 -12.51111
-33.59515 27.831802 -8.765612
-33.552299 28.11208 -10.790508
-33.445217 28.345875 -12.776825
-32.889408 31.599693 -13.426168
-32.626198 34.328773 -14.402979
-32.064579 34.437069 -19.566467
-31.81464 32.152538 -20.846786
-31.689468 29.664555 -22.249889
-31.046564 29.913227 -24.037773
-31.693306 27.099346 -23.780163
-31.813076 24.566544 -25.437744
-32.018246 22.163784 -27.221172
-32.261452 19.973675 -29.127716
-28.496923 24.867134 -29.115799
-29.701607 22.317436 -29.373829
-31.049183 20.015236 -30.038422
-32.482513 18.056808 -31.152905
-32.616753 16.443691 -33.289101
-32.606567 15.128685 -35.522781
-40.015052 -7.77618 12.118972
-39.845121 -9.771604 12.39913
-34.114508 35.709913 -2.301982
-33.895914 33.843025 -1.546776
-34.303783 35.397123 -1.338966
-33.916355 35.941923 -3.289084
-34.114508 35.709913 -2.301982
-37.223768 13.47019 7.224336
-37.590768 15.189915 7.615095
-36.872617 14.043064 6.603666
-36.983356 11.700567 6.686288
-37.223768 13.47019 7.224336
-46.029291 1.496598 -21.895386
-45.992306 0.347058 -20.725738
-29.33322 27.536792 -27.517437
-29.575115 28.872484 -27.018625
-29.247195 26.226904 -28.12792
-29.811276 26.18918 -27.501776
-29.33322 27.536792 -27.517437
-42.449951 -29.520131 9.519613
-42.220085 -30.210772 10.373545
-41.78573 -28.685485 9.673423
-42.449951 -29.520131 9.519613
-37.494186 14.941018 -34.45273
-38.133686 14.643546 -33.830564
-37.386615 14.943335 -32.918495
-36.768568 15.131554 -35.00692
-37.494186 14.941018 -34.45273
-34.642052 15.256117 -36.214037
-35.339945 15.278225 -35.882864
-34.685335 15.493803 -34.837032
-33.904274 15.091364 -36.439007
-34.642052 15.256117 -36.214037
-33.562004 36.378168 -6.333064
-33.368505 34.688898 -5.542032
-33.646711 36.265537 -5.309488
-33.729573 37.957515 -7.123024
-33.451366 36.380876 -7.355567
-33.562004 36.378168 -6.333064
-38.754326 2.561756 9.13232
-38.733341 0.340821 9.28179
-37.722491 4.142342 7.318592
-38.069409 3.600765 7.922845
-37.516339 4.655072 6.559299
-37.644945 2.351527 6.532749
-37.722491 4.142342 7.318592
-35.234377 25.141859 4.083349
-35.652757 24.544409 4.757719
-34.926142 25.682207 3.319716
-34.984291 23.41544 3.611989
-35.234377 25.141859 4.083349
-34.840273 27.940537 3.011407
-34.590187 26.214117 2.540047
-34.926142 25.682207 3.319716
-35.197121 34.168181 1.351616
-34.970145 32.194862 2.026513
-34.841801 34.632033 0.493968
-35.197121 34.168181 1.351616
-41.088832 -23.175773 16.163791
-41.144826 -24.682378 16.284697
-41.02982 -21.658257 16.067858
-40.528614 -22.92444 15.611097
-41.088832 -23.175773 16.163791
-41.273808 -16.658431 15.385623
-41.131851 -18.391644 15.68083
-40.697128 -16.35851 14.91599
-41.273808 -16.658431 15.385623
-46.008287 3.690581 -24.208098
-45.115822 4.079754 -23.973968
-42.083859 11.947938 -32.08713
-41.270104 12.166618 -31.417257
-42.596728 11.182116 -31.087046
-42.083859 11.947938 -32.08713
-40.376175 -27.416607 13.44053
-40.705342 -28.661886 13.35924
-40.542648 -27.837099 14.237293
-44.482185 -18.45833 -1.912326
-44.026817 -19.19626 -0.751155
-43.310581 -18.42331 -0.915395
-44.987928 -17.591543 -3.061011
-44.482185 -18.45833 -1.912326
-46.346685 -14.962687 -6.568976
-45.917915 -15.843281 -5.393322
-45.095236 -15.191035 -5.595092
-46.786574 -13.943638 -7.737362
-46.346685 -14.962687 -6.568976
-47.925083 -10.864964 -11.259415
-47.571825 -11.892907 -10.085908
-46.667704 -11.37132 -10.295511
-48.257971 -9.700003 -12.436165
-47.925083 -10.864964 -11.259415
-48.832685 -7.381586 -14.79018
-47.882338 -7.00474 -14.984444
-32.237011 35.620055 -19.876407
-32.239764 35.398121 -18.974619
-31.595595 32.280106 -21.780684
-31.828227 33.443979 -21.143245
-31.609181 33.571546 -22.077143
-30.9563 28.62792 -24.729834
-30.646003 30.009804 -24.863774
-30.555739 28.724497 -25.555834
-25.605933 23.116507 -30.617628
-24.807025 23.012611 -30.770859
-27.773525 23.476154 -29.984941
-27.082206 23.357188 -30.226209
-27.717036 22.066824 -30.336529
-28.45264 23.526463 -29.60553
-27.817809 24.816826 -29.49521
-27.773525 23.476154 -29.984941
-31.844753 14.296127 -36.708239
-32.510181 14.598555 -36.676868
-31.941139 14.826258 -35.554152
-29.370523 14.269178 -34.463358
-28.779818 13.777011 -34.26013
-41.545778 -29.852139 11.415749
-42.220085 -30.210772 10.373545
-39.743761 -11.695097 12.566166
-39.592577 -13.592953 12.806639
-40.075279 -12.046027 13.258807
-39.362419 -11.31853 11.946963
-39.743761 -11.695097 12.566166
-39.845121 -9.771604 12.39913
-33.789642 36.152149 -4.293416
-33.579926 34.366041 -3.514124
-33.916355 35.941923 -3.289084
-33.646711 36.265537 -5.309488
-33.789642 36.152149 -4.293416
-37.181893 9.328302 6.641841
-37.311581 6.9874 6.660934
-36.830742 9.901177 6.021171
-37.181893 9.328302 6.641841
-36.983356 11.700567 6.686288
-39.972588 13.295426 -31.570673
-39.378536 13.827677 -32.389395
-46.9916 -6.349553 -15.037408
-47.882338 -7.00474 -14.984444
-46.740439 -7.500207 -13.865237
-46.077427 -5.782654 -15.078069
-47.219326 -5.287187 -16.197276
-46.9916 -6.349553 -15.037408
-31.419427 33.706826 -23.001974
-31.609181 33.571546 -22.077143
-30.071372 28.802725 -26.290534
-29.575115 28.872484 -27.018625
-30.381668 27.420841 -26.156593
-30.555739 28.724497 -25.555834
-30.071372 28.802725 -26.290534
-37.576271 17.461436 7.416109
-37.590768 15.189915 7.615095
-37.048233 18.121582 6.974823
-37.576271 17.461436 7.416109
-44.268805 4.799138 -23.62512
-45.115822 4.079754 -23.973968
-44.321512 3.752711 -22.491877
-44.212734 5.740175 -24.71584
-44.268805 4.799138 -23.62512
-43.418425 5.413131 -23.233747
-44.057798 6.761277 -25.837692
-44.212734 5.740175 -24.71584
-43.903455 7.678723 -26.906597
-44.057798 6.761277 -25.837692
-43.208011 7.271614 -25.393372
-43.633608 8.646642 -28.006006
-43.903455 7.678723 -26.906597
-38.807365 14.275092 -33.132565
-39.378536 13.827677 -32.389395
-38.597286 14.198449 -31.553159
-38.807365 14.275092 -33.132565
-38.133686 14.643546 -33.830564
-36.086624 15.269106 -35.489519
-36.768568 15.131554 -35.00692
-36.065172 15.378359 -34.02326
-36.086624 15.269106 -35.489519
-35.339945 15.278225 -35.882864
-24.787966 21.446938 -30.873755
-24.807025 23.012611 -30.770859
-25.612899 20.159996 -31.080078
-24.787966 21.446938 -30.873755
-26.375999 18.935255 -31.321713
-26.321343 20.407103 -31.081025
-25.612899 20.159996 -31.080078
-27.17152 17.850153 -31.749308
-26.375999 18.935255 -31.321713
-27.920237 16.822968 -32.217304
-27.833158 18.155177 -31.790655
-27.17152 17.850153 -31.749308
-27.991912 15.67601 -32.855986
-28.65355 15.981034 -32.897334
-27.920237 16.822968 -32.217304
-28.1078 14.411978 -33.365736
-27.991912 15.67601 -32.855986
-28.779818 13.777011 -34.26013
-28.1078 14.411978 -33.365736
-40.295007 -3.673785 11.611211
-40.129966 -5.744075 11.924951
-39.8006 -3.215205 11.171584
-40.295007 -3.673785 11.611211
-39.4525 -2.783275 10.547963
-39.345506 -4.898899 10.768264
-39.8006 -3.215205 11.171584
-39.035957 -2.308356 10.019236
-39.4525 -2.783275 10.547963
-38.770777 -1.856707 9.314253
-38.732225 -4.01532 9.439661
-39.035957 -2.308356 10.019236
-38.429609 -1.366142 8.702214
-38.770777 -1.856707 9.314253
-38.733341 0.340821 9.28179
-38.339947 3.09706 8.611699
-38.754326 2.561756 9.13232
-38.121635 1.335092 7.980896
-38.339947 3.09706 8.611699
-38.069409 3.600765 7.922845
-37.234035 5.196584 5.875091
-37.516339 4.655072 6.559299
-37.311581 6.9874 6.660934
-36.637394 18.725569 6.399547
-36.70219 16.416674 6.56644
-37.048233 18.121582 6.974823
-36.177712 19.356899 5.846022
-36.637394 18.725569 6.399547
-35.836674 19.932223 5.171544
-35.950314 17.595983 5.316687
-36.177712 19.356899 5.846022
-35.678299 22.284115 5.038251
-35.652757 24.544409 4.757719
-35.450901 20.523199 4.508916
-35.836674 19.932223 5.171544
-35.678299 22.284115 5.038251
-34.913075 30.079824 2.535497
-34.840273 27.940537 3.011407
-34.561388 30.587484 1.722755
-34.913075 30.079824 2.535497
-34.970145 32.194862 2.026513
-34.575167 35.045889 -0.404797
-34.351824 33.116378 0.315006
-34.841801 34.632033 0.493968
-34.303783 35.397123 -1.338966
-34.575167 35.045889 -0.404797
-40.583479 -26.90734 15.022934
-40.542648 -27.837099 14.237293
-40.770551 -25.832408 15.717158
-41.144826 -24.682378 16.284697
-40.400554 -25.516889 15.012806
-40.583479 -26.90734 15.022934
-40.770551 -25.832408 15.717158
-41.083706 -20.034921 15.856833
-41.02982 -21.658257 16.067858
-40.517746 -19.763645 15.339161
-41.083706 -20.034921 15.856833
-41.131851 -18.391644 15.68083
-40.272796 -16.051655 14.278581
-40.141559 -17.813512 14.525747
-40.697128 -16.35851 14.91599
-40.37623 -14.270268 14.084052
-39.820661 -15.72527 13.69381
-40.272796 -16.051655 14.278581
-40.561821 -12.402628 13.775199
-40.37623 -14.270268 14.084052
-40.075279 -12.046027 13.258807
-40.561821 -12.402628 13.775199
-46.063021 2.545285 -23.03364
-46.029291 1.496598 -21.895386
-45.1348 1.98464 -21.702471
-46.063021 2.545285 -23.03364
-46.008287 3.690581 -24.208098
-43.368977 9.513322 -29.041279
-43.633608 8.646642 -28.006006
-42.789037 9.055739 -27.497549
-40.453903 12.716928 -30.728344
-39.649772 13.172536 -29.967661
-39.972588 13.295426 -31.570673
-40.947288 12.043728 -29.814245
-40.453903 12.716928 -30.728344
-41.270104 12.166618 -31.417257
-42.977186 10.396616 -30.101878
-42.143947 10.707918 -29.51799
-42.596728 11.182116 -31.087046
-43.368977 9.513322 -29.041279
-42.977186 10.396616 -30.101878
-32.410615 36.115412 -17.665686
-32.613474 36.808172 -17.032139
-34.098681 39.377577 -8.100576
-33.729573 37.957515 -7.123024
-33.952248 39.259802 -9.108829
-34.098681 39.377577 -8.100576
-33.850117 39.165749 -10.117298
-33.516804 37.866171 -9.153996
-33.952248 39.259802 -9.108829
-33.698115 38.943613 -11.096319
-33.850117 39.165749 -10.117298
-33.585302 38.770236 -12.071516
-33.301861 37.598742 -11.137661
-33.698115 38.943613 -11.096319
-33.411915 38.459363 -13.001584
-33.585302 38.770236 -12.071516
-33.279878 38.22546 -13.922483
-33.057012 37.191462 -13.033758
-33.411915 38.459363 -13.001584
-33.08214 37.834797 -14.780503
-33.279878 38.22546 -13.922483
-32.93928 37.561721 -15.615174
-32.782116 36.684483 -14.789328
-33.08214 37.834797 -14.780503
-32.729962 37.078051 -16.369838
-32.93928 37.561721 -15.615174
-32.613474 36.808172 -17.032139
-32.522768 36.141529 -16.2863
-32.729962 37.078051 -16.369838
-41.023029 -29.321174 12.412437
-40.705342 -28.661886 13.35924
-41.061617 -28.772359 11.565787
-41.545778 -29.852139 11.415749
-41.023029 -29.321174 12.412437
-41.272741 -27.664003 9.797622
-41.78573 -28.685485 9.673423
-41.071377 -28.281841 10.693298
-41.437207 -27.115631 8.859876
-41.272741 -27.664003 9.797622
-40.722853 -26.711987 9.879751
-41.77328 -26.441819 7.921663
-41.437207 -27.115631 8.859876
-42.065644 -25.844475 6.928902
-41.77328 -26.441819 7.921663
-41.179682 -25.566271 7.949245
-42.504785 -25.123223 5.952699
-42.065644 -25.844475 6.928902
-42.895569 -24.480981 4.914186
-42.504785 -25.123223 5.952699
-41.86283 -24.326685 5.917972
-43.405447 -23.715173 3.902906
-42.895569 -24.480981 4.914186
-43.864777 -23.026992 2.826712
-43.405447 -23.715173 3.902906
-42.712942 -22.996263 3.803265
-44.414631 -22.214009 1.782451
-43.864777 -23.026992 2.826712
-44.914028 -21.4745 0.675684
-44.414631 -22.214009 1.782451
-43.671669 -21.568573 1.620304
-45.476202 -20.607568 -0.399346
-44.914028 -21.4745 0.675684
-39.578693 -7.362933 11.585905
-40.015052 -7.77618 12.118972
-40.129966 -5.744075 11.924951
-44.684744 -20.030171 -0.617274
-43.51314 -19.995151 0.379657
-44.026817 -19.19626 -0.751155
-45.476202 -20.607568 -0.399346
-44.684744 -20.030171 -0.617274
-45.438187 -16.784667 -4.232447
-44.987928 -17.591543 -3.061011
-44.216207 -16.878505 -3.248003
-45.438187 -16.784667 -4.232447
-45.917915 -15.843281 -5.393322
-47.181793 -12.988049 -8.912992
-46.786574 -13.943638 -7.737362
-45.919225 -13.354851 -7.946375
-47.181793 -12.988049 -8.912992
-47.571825 -11.892907 -10.085908
-48.563078 -8.606011 -13.607792
-48.257971 -9.700003 -12.436165
-47.326069 -9.249386 -12.640646
-48.563078 -8.606011 -13.607792
-48.832685 -7.381586 -14.79018
-47.409408 -4.091827 -17.374016
-47.219326 -5.287187 -16.197276
-47.585319 -2.987264 -18.534525
-47.409408 -4.091827 -17.374016
-46.481064 -3.615725 -17.398447
-47.704699 -1.761544 -19.720434
-47.585319 -2.987264 -18.534525
-46.770258 -1.3765 -19.723108
-47.704699 -1.761544 -19.720434
-45.888559 -0.685892 -19.585245
-46.770258 -1.3765 -19.723108
-45.775277 -1.820554 -18.421093
-44.997324 -0.096996 -19.423724
-45.992306 0.347058 -20.725738
-45.888559 -0.685892 -19.585245
-32.317318 35.259811 -18.086334
-32.312984 35.01605 -17.36925
-32.410615 36.115412 -17.665686
-32.142133 34.29876 -18.678182
-32.317318 35.259811 -18.086334
-32.239764 35.398121 -18.974619
-31.953197 34.586244 -20.503086
-32.237011 35.620055 -19.876407
-31.93961 33.294804 -20.206626
-31.953197 34.586244 -20.503086
-31.828227 33.443979 -21.143245
-31.075117 32.519278 -23.603825
-31.419427 33.706826 -23.001974
-30.910124 31.272054 -24.265421
-30.646003 30.009804 -24.863774
-31.211557 31.16045 -23.376177
-31.075117 32.519278 -23.603825
-30.910124 31.272054 -24.265421
-26.339671 23.274513 -30.486832
-25.605933 23.116507 -30.617628
-26.29198 21.789851 -30.708593
-26.339671 23.274513 -30.486832
-27.082206 23.357188 -30.226209
-27.983126 26.2253 -29.133928
-27.817809 24.816826 -29.49521
-28.633032 26.220825 -28.62969
-27.983126 26.2253 -29.133928
-29.111086 24.873213 -28.614029
-29.247195 26.226904 -28.12792
-28.633032 26.220825 -28.62969
-33.213836 14.919859 -36.616295
-33.904274 15.091364 -36.439007
-33.297004 15.30019 -35.345493
-33.213836 14.919859 -36.616295
-32.510181 14.598555 -36.676868
-30.00467 14.628641 -34.54101
-29.359372 15.193538 -33.613667
-29.370523 14.269178 -34.463358
-30.645766 14.114055 -35.488112
-30.634615 15.038415 -34.63842
-30.00467 14.628641 -34.54101
-31.192988 13.842636 -36.619621
-30.645766 14.114055 -35.488112
-31.844753 14.296127 -36.708239
-31.192988 13.842636 -36.619621
3 0 80 78
3 1 83 81
3 2 86 84
3 2 88 86
3 306 90 307
3 3 93 91
3 3 95 93
3 3 97 95
3 308 100 309
3 310 309 98
3 308 309 310
3 312 311 100
3 4 104 102
3 6 107 105
3 6 109 107
3 8 313 314
3 8 315 317
3 315 111 316
3 315 316 317
3 8 113 111
3 11 318 319
3 5 116 114
3 10 119 117
3 13 122 120
3 13 124 122
3 7 127 125
3 14 130 128
3 14 132 130
3 14 134 132
3 15 137 135
3 15 139 137
3 15 141 139
3 16 144 142
3 16 146 144
3 9 149 147
3 17 152 150
3 17 154 152
3 17 156 154
3 12 159 157
3 12 161 159
3 320 162 321
3 322 164 323
3 324 323 162
3 322 323 324
3 18 167 165
3 18 169 167
3 18 171 169
3 19 174 172
3 21 175 79
3 21 176 175
3 22 325 326
3 22 327 328
3 23 179 177
3 24 180 82
3 24 181 180
3 25 184 182
3 27 185 85
3 27 329 331
3 331 330 185
3 329 330 331
3 27 332 333
3 28 334 336
3 336 335 87
3 334 335 336
3 28 337 338
3 29 188 186
3 31 189 89
3 31 190 189
3 32 193 191
3 34 194 92
3 34 195 194
3 34 197 195
3 36 198 94
3 36 199 198
3 36 201 199
3 38 202 96
3 38 203 202
3 39 206 204
3 41 207 99
3 41 208 207
3 41 210 208
3 339 211 340
3 341 340 101
3 339 340 341
3 342 212 343
3 344 343 211
3 342 343 344
3 44 216 214
3 46 217 103
3 46 218 217
3 20 219 173
3 47 220 106
3 47 221 220
3 47 222 221
3 48 223 108
3 48 224 223
3 345 226 346
3 347 227 348
3 349 228 350
3 351 350 227
3 349 350 351
3 50 229 110
3 50 230 229
3 50 232 230
3 52 233 112
3 52 234 233
3 352 235 353
3 354 236 355
3 356 355 235
3 354 355 356
3 357 237 358
3 359 358 236
3 357 358 359
3 360 238 361
3 363 362 238
3 364 239 365
3 366 240 367
3 368 367 239
3 366 367 368
3 369 241 370
3 372 371 241
3 374 373 178
3 45 242 215
3 54 243 115
3 54 244 243
3 26 245 183
3 375 246 376
3 378 377 246
3 53 379 381
3 379 248 380
3 379 380 381
3 56 249 118
3 56 250 249
3 30 251 187
3 57 252 121
3 57 253 252
3 57 254 253
3 58 255 123
3 58 256 255
3 49 257 225
3 59 258 126
3 59 259 258
3 33 260 192
3 60 261 129
3 60 262 261
3 60 263 262
3 61 264 131
3 61 382 384
3 384 383 264
3 382 383 384
3 61 385 386
3 62 387 389
3 389 388 133
3 387 388 389
3 62 390 391
3 35 265 196
3 63 266 136
3 63 392 394
3 394 393 266
3 392 393 394
3 63 395 396
3 398 397 138
3 64 267 140
3 64 268 267
3 37 269 200
3 65 270 143
3 65 271 270
3 65 272 271
3 66 273 145
3 66 274 273
3 51 275 231
3 67 276 148
3 67 277 276
3 40 278 205
3 68 279 151
3 68 280 279
3 68 281 280
3 69 282 153
3 69 283 282
3 69 284 283
3 70 285 155
3 70 286 285
3 42 287 209
3 71 288 158
3 71 289 288
3 71 290 289
3 55 291 160
3 55 247 291
3 399 292 400
3 72 401 403
3 401 293 402
3 401 402 403
3 72 294 293
3 73 404 406
3 404 295 405
3 404 405 406
3 73 296 295
3 73 297 296
3 74 298 163
3 74 299 298
3 43 407 408
3 75 409 411
3 411 410 166
3 409 410 411
3 75 412 414
3 412 300 413
3 412 413 414
3 75 301 300
3 76 302 168
3 76 303 302
3 76 304 303
3 77 305 170
3 77 415 417
3 417 416 305
3 415 416 417
3 419 418 213
3 78 79 19
3 80 79 78
3 80 21 79
3 420 22 421
3 81 82 23
3 83 82 81
3 83 24 82
3 84 85 25
3 86 85 84
3 86 27 85
3 86 87 27
3 88 87 86
3 88 28 87
3 422 89 423
3 424 423 29
3 422 423 424
3 90 425 427
3 425 89 426
3 425 426 427
3 90 31 89
3 91 92 32
3 93 92 91
3 93 34 92
3 93 94 34
3 95 94 93
3 95 36 94
3 95 96 36
3 97 96 95
3 97 38 96
3 98 99 39
3 100 99 98
3 100 41 99
3 100 101 41
3 428 101 429
3 430 429 100
3 428 429 430
3 432 431 101
3 102 103 44
3 104 103 102
3 104 46 103
3 105 106 20
3 107 106 105
3 107 47 106
3 107 108 47
3 109 108 107
3 109 48 108
3 433 110 434
3 111 435 437
3 435 110 436
3 435 436 437
3 111 50 110
3 111 112 50
3 113 112 111
3 113 52 112
3 114 115 45
3 116 115 114
3 116 54 115
3 439 438 26
3 117 118 53
3 119 118 117
3 119 56 118
3 120 121 30
3 122 121 120
3 122 57 121
3 122 123 57
3 124 123 122
3 124 58 123
3 125 126 49
3 127 126 125
3 127 59 126
3 128 129 33
3 130 129 128
3 130 60 129
3 130 131 60
3 132 131 130
3 132 61 131
3 132 133 61
3 134 133 132
3 134 62 133
3 135 136 35
3 137 136 135
3 137 63 136
3 137 138 63
3 139 138 137
3 139 440 442
3 442 441 138
3 440 441 442
3 139 443 445
3 443 140 444
3 443 444 445
3 141 140 139
3 141 64 140
3 142 143 37
3 144 143 142
3 144 65 143
3 144 145 65
3 146 145 144
3 146 66 145
3 147 148 51
3 149 148 147
3 149 67 148
3 150 151 40
3 152 151 150
3 152 68 151
3 152 153 68
3 154 153 152
3 154 69 153
3 154 155 69
3 156 155 154
3 156 70 155
3 157 158 42
3 159 158 157
3 159 71 158
3 159 160 71
3 161 160 159
3 161 55 160
3 446 72 447
3 162 448 449
3 162 450 452
3 450 73 451
3 450 451 452
3 162 163 73
3 164 163 162
3 164 74 163
3 165 166 43
3 167 166 165
3 167 75 166
3 167 168 75
3 169 168 167
3 169 76 168
3 169 170 76
3 171 170 169
3 171 77 170
3 172 173 4
3 174 173 172
3 174 20 173
3 79 174 19
3 175 174 79
3 175 20 174
3 175 105 20
3 176 105 175
3 176 6 105
3 453 8 454
3 456 455 8
3 177 178 11
3 179 178 177
3 179 457 459
3 459 458 178
3 457 458 459
3 82 179 23
3 180 179 82
3 180 460 462
3 462 461 179
3 460 461 462
3 180 463 464
3 181 465 467
3 467 466 180
3 465 466 467
3 181 468 469
3 182 183 5
3 184 183 182
3 184 26 183
3 85 184 25
3 185 184 85
3 185 26 184
3 185 470 472
3 472 471 26
3 470 471 472
3 474 473 185
3 87 475 477
3 477 476 27
3 475 476 477
3 479 478 87
3 186 187 10
3 188 187 186
3 188 30 187
3 89 188 29
3 189 188 89
3 189 30 188
3 189 120 30
3 190 120 189
3 190 13 120
3 191 192 7
3 193 192 191
3 193 33 192
3 92 193 32
3 194 193 92
3 194 33 193
3 194 128 33
3 195 128 194
3 195 14 128
3 195 196 14
3 197 196 195
3 197 35 196
3 94 197 34
3 198 197 94
3 198 35 197
3 198 135 35
3 199 135 198
3 199 15 135
3 199 200 15
3 201 200 199
3 201 37 200
3 96 201 36
3 202 201 96
3 202 37 201
3 202 142 37
3 203 142 202
3 203 16 142
3 204 205 9
3 206 205 204
3 206 40 205
3 99 206 39
3 207 206 99
3 207 40 206
3 207 150 40
3 208 150 207
3 208 17 150
3 208 209 17
3 210 209 208
3 210 42 209
3 101 210 41
3 211 210 101
3 211 42 210
3 211 157 42
3 212 157 211
3 212 12 157
3 480 43 481
3 482 43 483
3 484 165 485
3 486 485 43
3 484 485 486
3 487 165 488
3 489 18 490
3 491 490 165
3 489 490 491
3 492 213 493
3 494 493 18
3 492 493 494
3 495 213 496
3 498 497 213
3 214 215 1
3 216 215 214
3 216 45 215
3 103 216 44
3 217 216 103
3 217 45 216
3 217 114 45
3 218 114 217
3 218 5 114
3 173 104 4
3 219 104 173
3 219 46 104
3 106 219 20
3 220 219 106
3 220 46 219
3 220 218 46
3 221 218 220
3 221 5 218
3 221 182 5
3 222 182 221
3 222 25 182
3 108 222 47
3 223 222 108
3 223 25 222
3 223 84 25
3 224 84 223
3 224 2 84
3 499 225 500
3 501 225 502
3 503 49 504
3 505 504 225
3 503 504 505
3 506 49 507
3 508 125 509
3 510 509 49
3 508 509 510
3 226 511 513
3 511 125 512
3 511 512 513
3 226 7 125
3 514 226 515
3 227 516 518
3 516 226 517
3 516 517 518
3 227 7 226
3 227 191 7
3 228 191 227
3 228 32 191
3 110 519 521
3 519 228 520
3 519 520 521
3 229 228 110
3 229 32 228
3 229 91 32
3 230 91 229
3 230 3 91
3 230 231 3
3 232 231 230
3 232 51 231
3 112 232 50
3 233 232 112
3 233 51 232
3 233 147 51
3 234 147 233
3 234 9 147
3 522 113 523
3 524 523 8
3 522 523 524
3 525 113 526
3 527 52 528
3 529 528 113
3 527 528 529
3 235 530 531
3 235 532 534
3 532 52 533
3 532 533 534
3 235 234 52
3 236 234 235
3 236 9 234
3 236 204 9
3 237 204 236
3 237 39 204
3 535 237 536
3 238 537 539
3 537 237 538
3 537 538 539
3 238 39 237
3 238 98 39
3 540 98 541
3 542 541 238
3 540 541 542
3 544 543 98
3 545 53 546
3 239 547 548
3 239 549 551
3 549 53 550
3 549 550 551
3 239 117 53
3 240 117 239
3 240 10 117
3 552 240 553
3 241 554 556
3 554 240 555
3 554 555 556
3 241 10 240
3 241 186 10
3 557 186 558
3 559 558 241
3 557 558 559
3 560 29 561
3 562 561 186
3 560 561 562
3 563 29 564
3 566 565 29
3 178 567 569
3 569 568 11
3 567 568 569
3 571 570 178
3 215 83 1
3 242 83 215
3 242 24 83
3 115 242 45
3 243 242 115
3 243 24 242
3 243 181 24
3 244 181 243
3 244 572 574
3 574 573 181
3 572 573 574
3 183 116 5
3 245 116 183
3 245 54 116
3 575 245 576
3 577 576 26
3 575 576 577
3 246 578 580
3 578 245 579
3 578 579 580
3 246 54 245
3 246 244 54
3 581 244 582
3 583 582 246
3 581 582 583
3 585 584 244
3 587 586 0
3 588 212 589
3 590 212 591
3 592 12 593
3 594 593 212
3 592 593 594
3 595 12 596
3 597 161 598
3 599 598 12
3 597 598 599
3 600 161 601
3 602 55 603
3 604 603 161
3 602 603 604
3 605 55 606
3 607 247 608
3 609 608 55
3 607 608 609
3 610 247 611
3 612 0 613
3 614 613 247
3 612 613 614
3 248 615 616
3 248 617 619
3 617 22 618
3 617 618 619
3 118 248 53
3 249 248 118
3 249 22 248
3 249 620 622
3 622 621 22
3 620 621 622
3 250 623 625
3 625 624 249
3 623 624 625
3 250 626 627
3 187 119 10
3 251 119 187
3 251 56 119
3 121 251 30
3 252 251 121
3 252 56 251
3 252 250 56
3 253 250 252
3 253 628 630
3 630 629 250
3 628 629 630
3 253 631 632
3 254 633 635
3 635 634 253
3 633 634 635
3 254 636 637
3 123 254 57
3 255 254 123
3 255 638 640
3 640 639 254
3 638 639 640
3 255 641 642
3 256 643 645
3 645 644 255
3 643 644 645
3 256 646 647
3 225 648 650
3 648 90 649
3 648 649 650
3 257 90 225
3 257 31 90
3 126 257 49
3 258 257 126
3 258 31 257
3 258 190 31
3 259 190 258
3 259 13 190
3 192 127 7
3 260 127 192
3 260 59 127
3 129 260 33
3 261 260 129
3 261 59 260
3 261 259 59
3 262 259 261
3 262 13 259
3 262 124 13
3 263 124 262
3 263 58 124
3 131 263 60
3 264 263 131
3 264 58 263
3 264 256 58
3 651 256 652
3 653 652 264
3 651 652 653
3 655 654 256
3 133 656 658
3 658 657 61
3 656 657 658
3 660 659 133
3 196 134 14
3 265 134 196
3 265 62 134
3 136 265 35
3 266 265 136
3 266 62 265
3 266 661 663
3 663 662 62
3 661 662 663
3 665 664 266
3 138 666 668
3 668 667 63
3 666 667 668
3 670 669 138
3 140 671 672
3 267 673 675
3 675 674 140
3 673 674 675
3 267 676 677
3 267 678 679
3 268 680 682
3 682 681 267
3 680 681 682
3 268 683 685
3 683 11 684
3 683 684 685
3 200 141 15
3 269 141 200
3 269 64 141
3 143 269 37
3 270 269 143
3 270 64 269
3 270 268 64
3 271 268 270
3 271 11 268
3 271 177 11
3 272 177 271
3 272 23 177
3 145 272 65
3 273 272 145
3 273 23 272
3 273 81 23
3 274 81 273
3 274 1 81
3 231 97 3
3 275 97 231
3 275 38 97
3 148 275 51
3 276 275 148
3 276 38 275
3 276 203 38
3 277 203 276
3 277 16 203
3 205 149 9
3 278 149 205
3 278 67 149
3 151 278 40
3 279 278 151
3 279 67 278
3 279 277 67
3 280 277 279
3 280 16 277
3 280 146 16
3 281 146 280
3 281 66 146
3 153 281 68
3 282 281 153
3 282 66 281
3 282 274 66
3 283 274 282
3 283 1 274
3 283 214 1
3 284 214 283
3 284 44 214
3 155 284 69
3 285 284 155
3 285 44 284
3 285 102 44
3 286 102 285
3 286 4 102
3 209 156 17
3 287 156 209
3 287 70 156
3 158 287 42
3 288 287 158
3 288 70 287
3 288 286 70
3 289 286 288
3 289 4 286
3 289 172 4
3 290 172 289
3 290 19 172
3 160 290 71
3 291 290 160
3 291 19 290
3 291 78 19
3 247 78 291
3 247 0 78
3 686 80 687
3 688 687 0
3 686 687 688
3 292 689 691
3 689 80 690
3 689 690 691
3 292 21 80
3 692 292 693
3 293 694 696
3 694 292 695
3 694 695 696
3 293 21 292
3 293 176 21
3 294 176 293
3 294 6 176
3 697 72 698
3 295 699 700
3 295 701 703
3 701 72 702
3 701 702 703
3 295 294 72
3 296 294 295
3 296 6 294
3 296 109 6
3 297 109 296
3 297 48 109
3 163 297 73
3 298 297 163
3 298 48 297
3 298 224 48
3 299 224 298
3 299 2 224
3 166 704 706
3 706 705 43
3 704 705 706
3 708 707 166
3 300 709 710
3 300 711 712
3 300 713 715
3 713 164 714
3 713 714 715
3 301 164 300
3 301 74 164
3 168 301 75
3 302 301 168
3 302 74 301
3 302 299 74
3 303 299 302
3 303 2 299
3 303 88 2
3 304 88 303
3 304 28 88
3 170 304 76
3 305 304 170
3 305 28 304
3 305 716 718
3 718 717 28
3 716 717 718
3 720 719 305
3 213 171 18
3 721 171 722
3 723 722 213
3 721 722 723
3 724 77 725
3 726 725 171
3 724 725 726
3 727 77 728
3 730 729 77
