ply
format ascii 1.0
element vertex 617
property float x
property float y
property float z
element face 730
property list uchar int vertex_index
end_header
13.334026 -74.56987 -2.105564
9.012888 -81.193024 -10.802362
16.179115 -53.338146 -12.451799
9.300985 -108.816353 -16.79817
12.677906 -62.003616 -3.394693
12.822594 -64.293381 -8.120504
5.712626 -117.393219 -11.676729
2.458542 -106.336746 -8.564226
18.888882 -66.531219 -16.307661
18.014568 -81.919662 -16.008543
3.275688 -92.553642 -5.13854
7.99288 -78.167175 -5.72003
12.382881 -65.674911 -12.314407
7.430115 -96.397644 -12.941547
18.041145 -95.172699 -18.384069
12.899403 -57.651875 -5.500502
23.179457 -58.589863 -19.194124
23.553223 -65.88163 -18.373224
27.324219 -57.151211 -21.586893
11.309196 -80.837891 -0.692741
7.766632 -83.216057 -2.506655
10.676249 -76.54631 -3.876448
13.901382 -58.575817 -10.567568
11.957544 -64.965622 -10.221846
14.279205 -58.842766 -12.950336
15.907524 -59.106659 -15.174166
17.446957 -53.187786 -15.179287
6.80835 -113.818031 -14.895702
9.712988 -118.141617 -15.938604
11.819756 -113.41214 -18.053396
15.189245 -107.39949 -19.115465
5.247677 -87.382431 -7.959028
4.13665 -94.900162 -9.099644
7.883289 -88.987793 -11.360723
22.902317 -80.44017 -18.516497
17.679905 -88.982483 -16.992842
13.797455 -68.181259 -3.121788
12.796566 -69.857094 -5.229876
13.505239 -63.422733 -5.883423
13.799772 -58.257832 -8.07918
15.196817 -53.373043 -9.634317
3.611425 -112.318214 -10.393084
4.878407 -108.418213 -13.251961
13.88089 -74.1707 -13.585127
13.011673 -82.076019 -13.529577
18.553921 -74.303482 -15.77622
23.35268 -73.331741 -18.100752
5.270361 -85.354935 -4.85932
7.178905 -79.742355 -8.052641
10.7612 -71.066315 -7.102386
9.58009 -72.174294 -9.078432
10.584953 -73.303596 -11.301058
14.811499 -66.325272 -14.361176
19.052685 -59.143604 -17.196535
13.802053 -77.900253 1.193374
14.008818 -71.924179 0.042767
12.495409 -65.775375 -0.614498
8.603985 -121.494148 -12.426931
2.328968 -99.64048 -6.568405
3.995409 -102.026299 -11.117901
7.853437 -103.101562 -14.985306
12.396406 -89.651436 -14.42737
12.37595 -96.567963 -16.021334
13.253731 -102.538567 -17.74132
19.399494 -100.288544 -19.728331
24.8776 -54.62587 -20.785112
25.310581 -57.992954 -20.312925
26.828815 -53.829262 -22.035299
12.481852 -77.731682 -1.417446
10.942091 -78.872086 -2.281313
12.145452 -75.627533 -3.016037
14.897846 -55.867599 -11.576712
13.983379 -58.70631 -11.773909
15.240336 -55.904636 -12.867964
15.782816 -55.935265 -14.121168
16.730812 -53.277546 -13.836147
7.855177 -111.489265 -15.997972
9.108477 -113.856995 -16.646059
10.429506 -111.255753 -17.495035
13.359812 -110.554832 -18.682795
12.106983 -108.331833 -18.083845
6.937391 -84.40271 -9.381268
6.266479 -88.270233 -9.666407
8.37771 -85.119949 -10.937084
13.401791 -65.040329 -3.361145
13.620647 -65.895744 -4.562107
13.331127 -62.801777 -4.671482
13.498686 -58.008335 -6.798725
13.895266 -55.615704 -7.595232
14.344521 -55.742958 -8.931162
14.570232 -53.328255 -8.232784
2.264393 -107.936264 -6.931314
2.722021 -110.919609 -7.775217
2.910652 -109.433151 -9.534975
4.057529 -110.554489 -11.976999
3.40011 -107.567749 -11.013613
16.426846 -70.410843 -14.944212
16.124401 -74.356552 -14.687838
18.758633 -70.407768 -15.961729
25.742992 -65.151382 -19.589293
23.519411 -69.621437 -18.151075
7.722197 -80.83728 -4.087997
6.27158 -84.297592 -3.586653
6.576427 -81.756538 -5.174473
6.011263 -82.669464 -6.434849
7.270607 -78.953979 -6.816069
12.702389 -67.139664 -6.716135
11.790594 -70.495834 -6.17457
11.916557 -67.6147 -7.710262
11.939085 -65.312637 -11.267498
10.802307 -68.49913 -9.696398
10.855837 -68.960403 -10.732397
9.772612 -72.745567 -10.165201
11.466238 -69.427353 -11.795397
12.647247 -69.862221 -12.864479
13.345701 -66.027527 -13.350517
17.761473 -55.921703 -16.461657
17.307846 -59.175648 -16.206743
19.231808 -55.81583 -17.545038
20.969246 -55.590271 -18.595945
13.286192 -70.337738 1.300183
13.441221 -68.854202 -0.358341
7.072973 -119.570358 -12.113071
12.325773 -117.75985 -17.553507
2.9849 -94.680077 -3.713945
2.402369 -98.115334 -4.320337
2.665468 -96.12516 -5.735722
5.519045 -95.789124 -11.087992
3.940617 -98.533386 -10.043165
5.480019 -99.362823 -12.098253
5.683571 -102.755028 -13.18186
7.521385 -99.858101 -13.952452
15.466092 -82.150627 -14.792923
12.652016 -85.925926 -13.864693
15.185039 -85.902084 -15.178774
17.748615 -92.202904 -17.667299
14.986685 -92.900124 -16.473368
15.170965 -96.070877 -17.262022
12.688587 -99.685547 -16.90291
15.594797 -98.983086 -18.05266
16.279518 -101.618919 -18.787848
18.587086 -97.87133 -19.085161
11.74577 -59.124146 -3.230864
12.746386 -59.870876 -4.543257
2.051821 -104.783485 -6.02103
21.16596 -62.574894 -17.711512
21.224075 -66.333542 -17.299154
23.429892 -62.178516 -18.739153
25.619953 -61.529205 -19.89316
27.624092 -60.611336 -21.223925
9.535164 -82.078217 -1.568441
9.261568 -79.890427 -3.145144
9.202028 -77.376053 -4.755344
13.211567 -61.409458 -9.412479
12.311895 -64.633682 -9.177404
13.000383 -61.637829 -10.540804
12.989708 -61.871696 -11.649067
13.323002 -62.120834 -12.737236
14.091251 -62.37291 -13.797039
14.899818 -58.983231 -14.087383
16.609543 -55.949375 -15.322001
18.391281 -53.054623 -16.465841
6.124538 -115.786667 -13.457554
7.502993 -118.018394 -13.974655
8.149637 -116.114632 -15.483189
10.607601 -115.946907 -17.156713
13.452028 -115.288666 -18.498053
16.556129 -109.405075 -19.637976
4.018446 -90.109077 -6.546137
3.372395 -93.79866 -7.079109
4.576393 -91.170601 -8.382732
5.786589 -92.077751 -10.250731
7.558622 -92.760239 -12.048914
20.524464 -81.354691 -17.229151
17.788647 -85.542084 -16.422186
20.349117 -84.824715 -17.654413
20.318726 -88.089989 -18.203932
20.493074 -91.116234 -18.826925
20.912064 -93.87899 -19.469767
13.78348 -71.373878 -2.69133
13.034046 -72.359116 -3.68811
13.533152 -69.099518 -4.222702
13.3388 -66.58255 -5.676107
13.28521 -63.905117 -7.029369
13.334946 -60.431179 -5.823385
13.538826 -60.846622 -7.061924
13.449326 -61.158653 -8.256298
13.890337 -58.435661 -9.335798
14.640989 -55.819256 -10.261021
15.701649 -53.372261 -11.045338
4.328499 -116.289406 -9.102764
4.550886 -114.97422 -11.107677
4.969242 -113.297714 -12.795763
5.713406 -111.250885 -14.153496
6.864637 -108.843048 -15.192995
11.368021 -77.77449 -12.206642
10.807255 -81.738159 -12.194639
13.432476 -78.14299 -13.440819
15.794797 -78.286957 -14.628498
18.290649 -78.157974 -15.788382
21.17284 -70.155449 -17.011362
21.008743 -73.970932 -16.894323
20.770376 -77.721222 -16.968008
23.118156 -76.955078 -18.227167
3.841341 -91.221489 -3.372385
6.31192 -86.527443 -2.048807
4.952444 -87.758453 -3.332134
4.152798 -88.957108 -4.839354
4.9091 -86.39257 -6.330673
6.127539 -83.565285 -7.855024
7.770422 -80.506004 -9.400389
11.888533 -73.192871 -4.602966
10.595169 -73.921288 -5.487051
9.422367 -74.596474 -6.400364
11.211327 -68.055603 -8.69368
9.955336 -71.61573 -8.059738
8.613678 -75.261353 -7.393587
8.350473 -75.935822 -8.491791
8.729515 -76.609055 -9.686598
9.758505 -77.241516 -10.941397
11.98686 -73.799133 -12.451828
14.339464 -70.210251 -13.917055
16.70108 -66.512054 -15.3416
15.321262 -62.594326 -14.817795
16.976421 -62.736992 -15.796865
18.966911 -62.747322 -16.749128
21.050074 -58.962517 -18.175417
22.887154 -55.204849 -19.657393
12.81213 -79.45282 0.205173
13.614492 -76.429573 -0.482485
14.13282 -74.949181 0.569772
14.007088 -73.33902 -1.093899
13.950823 -70.20816 -1.582958
13.462547 -67.076385 -1.916433
12.616789 -63.989433 -2.076269
11.283947 -62.72736 -0.718756
9.076221 -119.989586 -14.365036
2.094252 -101.496254 -5.119896
2.26232 -103.059074 -7.545086
2.985874 -97.431099 -7.883081
2.862503 -100.966614 -8.875204
3.001184 -104.360054 -9.952648
4.306446 -105.334198 -12.218699
6.142004 -105.925468 -14.239613
8.443047 -106.094955 -15.953634
10.331547 -85.648613 -12.447878
9.974274 -89.467224 -12.962536
9.771103 -93.154549 -13.699902
15.007009 -89.498642 -15.756468
12.290279 -93.211815 -15.169601
9.75655 -96.670006 -14.592075
9.961521 -99.974312 -15.553358
10.411259 -103.033707 -16.497019
11.123529 -105.82386 -17.353491
14.086077 -105.111557 -18.485628
17.233332 -103.970924 -19.434153
20.477665 -102.423485 -20.293955
21.594948 -96.364487 -20.086443
22.543594 -98.568932 -20.647371
26.533031 -52.279688 -22.266138
25.853207 -54.227566 -21.410206
25.557423 -52.677992 -21.641044
27.402203 -51.783274 -22.967918
26.533031 -52.279688 -22.266138
13.824506 -54.42054 -7.223925
13.554775 -55.514508 -6.928995
14.161989 -53.276815 -7.542701
14.232749 -54.47198 -7.914008
13.824506 -54.42054 -7.223925
25.712363 -66.969059 -19.513295
26.721778 -64.64188 -20.290101
19.411582 -54.33456 -17.618277
18.49664 -55.868766 -17.003348
18.676414 -54.387497 -17.076586
20.133823 -54.18397 -18.20707
19.411582 -54.33456 -17.618277
12.589187 -69.471695 1.979473
13.128823 -70.926223 2.17736
12.774697 -68.829521 1.13435
12.589187 -69.471695 1.979473
6.3928 -118.481788 -11.8949
6.259123 -119.111542 -10.841652
5.578949 -118.022972 -10.62348
13.276616 -118.523964 -17.69804
13.810976 -117.322232 -18.199737
11.858773 -58.137877 -3.714084
11.243099 -57.791922 -3.067446
2.100379 -103.877399 -4.764855
2.068499 -105.4533 -5.153973
28.228229 -56.604227 -22.318655
28.378166 -58.334289 -22.137171
27.474156 -58.881274 -21.405409
10.42218 -81.458054 -1.130591
9.732197 -82.981667 -0.786211
10.619213 -82.361504 -0.348361
13.344544 -112.954143 -18.611206
14.16068 -113.892406 -18.833534
12.635892 -114.350403 -18.275724
16.82107 -106.719944 -19.550216
17.504512 -107.722736 -19.811472
15.872687 -108.402282 -19.37672
21.592375 -87.455223 -18.830278
21.556063 -85.915729 -18.571853
21.679549 -88.968345 -19.141775
20.4059 -89.603112 -18.515428
21.592375 -87.455223 -18.830278
21.832707 -90.382058 -19.423723
21.679549 -88.968345 -19.141775
3.82163 -115.516423 -7.721381
4.244236 -116.777916 -7.95866
3.512975 -113.013492 -9.449132
3.068272 -112.31419 -8.140199
3.166723 -111.618911 -9.08415
4.081156 -113.646217 -10.750381
3.982705 -114.341496 -9.806428
3.512975 -113.013492 -9.449132
4.419881 -90.527878 -2.604594
3.869403 -92.182102 -2.637363
7.039276 -84.87175 -2.277731
7.181073 -85.887852 -1.505387
7.908429 -84.232158 -1.734311
22.782318 -53.661127 -19.843866
21.9282 -55.39756 -19.126669
21.823364 -53.853838 -19.313142
23.664244 -53.361553 -20.439747
22.782318 -53.661127 -19.843866
13.307092 -78.676536 0.699273
12.934252 -80.107071 1.040021
13.429213 -79.330788 1.534122
14.070819 -73.43668 0.306269
14.026683 -74.124875 1.161525
13.964682 -72.612373 0.898022
10.61775 -61.239241 -0.699156
10.38775 -61.987871 -0.008392
11.408955 -61.861416 -1.390225
10.61775 -61.239241 -0.699156
8.399914 -122.081848 -11.285314
7.67308 -121.14064 -11.171767
9.44039 -122.316566 -12.519358
8.399914 -122.081848 -11.285314
22.667314 -94.28492 -20.336396
21.253506 -95.121738 -19.778105
22.325873 -93.042171 -20.028058
24.103165 -97.528512 -21.122179
23.558496 -96.526967 -20.883018
23.145361 -99.532723 -20.894564
24.103165 -97.528512 -21.122179
27.736557 -53.315874 -22.742714
27.98426 -54.976849 -22.518511
27.076517 -55.490237 -21.811096
27.736557 -53.315874 -22.742714
27.402203 -51.783274 -22.967918
22.847859 -82.09082 -18.728136
24.003437 -79.806907 -19.217419
13.356485 -56.710823 -6.530741
13.199044 -57.830105 -6.149614
13.056844 -56.532593 -5.88163
13.696976 -56.81202 -7.196979
13.356485 -56.710823 -6.530741
13.554775 -55.514508 -6.928995
2.493207 -109.427936 -7.353266
2.49353 -110.036846 -6.414379
2.264716 -108.545174 -5.992427
24.600572 -69.204087 -18.794185
24.631202 -67.386409 -18.870184
25.712363 -66.969059 -19.513295
24.517207 -71.059238 -18.769024
23.436045 -71.476589 -18.125913
24.600572 -69.204087 -18.794185
24.422787 -72.85186 -18.774708
24.517207 -71.059238 -18.769024
21.002542 -54.07119 -18.732523
20.100527 -55.703051 -18.070492
20.133823 -54.18397 -18.20707
21.823364 -53.853838 -19.313142
21.002542 -54.07119 -18.732523
13.821721 -78.436108 2.067204
13.429213 -79.330788 1.534122
13.603369 -71.819153 1.52673
13.128823 -70.926223 2.17736
13.647505 -71.130958 0.671475
13.964682 -72.612373 0.898022
13.603369 -71.819153 1.52673
12.852211 -68.087753 0.305088
13.363706 -69.59597 0.470921
12.774697 -68.829521 1.13435
12.379305 -66.548339 0.177009
12.968315 -67.314788 -0.48642
12.852211 -68.087753 0.305088
6.907574 -120.178745 -11.014837
6.259123 -119.111542 -10.841652
7.838479 -120.532253 -12.270001
7.67308 -121.14064 -11.171767
6.907574 -120.178745 -11.014837
11.89627 -118.827031 -16.915653
10.589878 -119.017914 -16.108202
11.019381 -117.950733 -16.746056
11.89627 -118.827031 -16.915653
13.276616 -118.523964 -17.69804
2.693634 -96.397706 -4.017141
2.725681 -97.281964 -3.279025
3.016946 -95.564335 -2.975829
12.35908 -58.511242 -4.37028
12.246078 -59.497511 -3.88706
11.858773 -58.137877 -3.714084
12.435589 -57.401741 -4.848903
12.822895 -58.761375 -5.021879
12.35908 -58.511242 -4.37028
12.586668 -56.382584 -5.224617
12.435589 -57.401741 -4.848903
13.056844 -56.532593 -5.88163
12.586668 -56.382584 -5.224617
2.174785 -107.02969 -5.609115
2.264716 -108.545174 -5.992427
2.158107 -106.359874 -6.476172
2.174785 -107.02969 -5.609115
2.068499 -105.4533 -5.153973
27.662329 -62.371857 -21.107416
26.721778 -64.64188 -20.290101
26.683542 -62.881359 -20.406609
28.499735 -60.017235 -21.989506
27.662329 -62.371857 -21.107416
28.499735 -60.017235 -21.989506
28.378166 -58.334289 -22.137171
28.228229 -56.604227 -22.318655
27.98426 -54.976849 -22.518511
8.792695 -83.663239 -1.265204
9.732197 -82.981667 -0.786211
8.650898 -82.647137 -2.037548
7.908429 -84.232158 -1.734311
8.792695 -83.663239 -1.265204
18.991318 -52.953957 -17.078678
18.676414 -54.387497 -17.076586
18.076377 -54.488163 -16.463749
14.374104 -116.08664 -18.67201
13.810976 -117.322232 -18.199737
12.888901 -116.524258 -18.02578
15.032111 -114.723946 -19.031281
14.374104 -116.08664 -18.67201
15.032111 -114.723946 -19.031281
14.16068 -113.892406 -18.833534
14.114572 -111.525489 -18.925905
13.344544 -112.954143 -18.611206
12.589784 -111.983486 -18.368095
15.712731 -110.950611 -19.403496
14.114572 -111.525489 -18.925905
14.95797 -109.979953 -19.160385
17.362766 -110.269481 -19.855514
15.712731 -110.950611 -19.403496
18.240507 -108.6194 -20.045088
17.362766 -110.269481 -19.855514
18.240507 -108.6194 -20.045088
17.504512 -107.722736 -19.811472
21.571258 -84.283093 -18.297094
21.625717 -82.632442 -18.085455
22.847859 -82.09082 -18.728136
20.333922 -86.457352 -17.929172
21.571258 -84.283093 -18.297094
21.556063 -85.915729 -18.571853
22.042202 -91.763435 -19.745144
20.702569 -92.497612 -19.148346
21.832707 -90.382058 -19.423723
22.325873 -93.042171 -20.028058
22.042202 -91.763435 -19.745144
4.886885 -117.471066 -9.336498
4.244236 -116.777916 -7.95866
5.020563 -116.841313 -10.389747
5.578949 -118.022972 -10.62348
4.886885 -117.471066 -9.336498
2.700267 -111.477058 -6.762225
2.49353 -110.036846 -6.414379
2.700267 -111.477058 -6.762225
3.068272 -112.31419 -8.140199
3.871511 -114.999088 -8.803972
3.82163 -115.516423 -7.721381
4.439692 -115.631813 -10.105221
3.871511 -114.999088 -8.803972
3.982705 -114.341496 -9.806428
24.305524 -74.663528 -18.837916
23.235418 -75.143409 -18.16396
24.422787 -72.85186 -18.774708
24.192579 -76.403027 -18.921625
24.305524 -74.663528 -18.837916
24.08466 -78.145573 -19.06629
23.010236 -78.697624 -18.371832
24.192579 -76.403027 -18.921625
24.003437 -79.806907 -19.217419
24.08466 -78.145573 -19.06629
3.441183 -93.911396 -2.808142
3.016946 -95.564335 -2.975829
3.41312 -92.950783 -3.543165
3.441183 -93.911396 -2.808142
3.869403 -92.182102 -2.637363
6.458808 -87.461529 -1.291932
7.181073 -85.887852 -1.505387
5.65517 -88.180855 -1.942805
6.458808 -87.461529 -1.291932
4.975433 -88.79636 -2.584468
5.65517 -88.180855 -1.942805
5.632182 -87.142948 -2.69047
4.396892 -89.489971 -3.352259
4.419881 -90.527878 -2.604594
4.975433 -88.79636 -2.584468
24.659467 -53.072063 -21.003607
23.882377 -54.91536 -20.221252
23.664244 -53.361553 -20.439747
25.557423 -52.677992 -21.641044
24.659467 -53.072063 -21.003607
11.496157 -81.618099 0.110332
10.619213 -82.361504 -0.348361
12.247625 -80.925564 0.559289
12.934252 -80.107071 1.040021
12.060663 -80.145355 -0.243784
11.496157 -81.618099 0.110332
12.247625 -80.925564 0.559289
13.955425 -77.042343 1.751117
13.821721 -78.436108 2.067204
13.975093 -77.578198 2.624948
14.120808 -75.566807 1.439316
14.026683 -74.124875 1.161525
13.967437 -76.424717 0.881573
13.955425 -77.042343 1.751117
14.120808 -75.566807 1.439316
11.724381 -65.028183 0.077253
12.379305 -66.548339 0.177009
11.11865 -63.504176 0.025124
10.38775 -61.987871 -0.008392
11.889678 -64.251368 -0.666627
11.724381 -65.028183 0.077253
11.11865 -63.504176 0.025124
12.075377 -62.492452 -2.068982
11.950368 -63.358396 -1.397512
11.408955 -61.861416 -1.390225
12.105935 -61.499544 -2.728194
12.647348 -62.996524 -2.735481
12.075377 -62.492452 -2.068982
11.639867 -60.059809 -2.646279
12.211838 -60.563881 -3.312779
12.105935 -61.499544 -2.728194
11.053449 -58.634464 -2.562143
11.639867 -60.059809 -2.646279
11.243099 -57.791922 -3.067446
11.053449 -58.634464 -2.562143
14.558722 -52.239553 -7.775441
14.161989 -53.276815 -7.542701
15.050116 -52.264544 -8.493296
14.558722 -52.239553 -7.775441
15.363408 -52.286938 -9.194062
14.883525 -53.350649 -8.93355
15.050116 -52.264544 -8.493296
15.769372 -52.28278 -9.930421
15.363408 -52.286938 -9.194062
16.021788 -52.282388 -10.635932
15.449233 -53.372652 -10.339827
15.769372 -52.28278 -9.930421
16.370387 -52.250481 -11.384241
16.021788 -52.282388 -10.635932
16.609119 -52.233423 -12.087471
15.940382 -53.355204 -11.748568
16.370387 -52.250481 -11.384241
16.938394 -52.175488 -12.838652
16.609119 -52.233423 -12.087471
17.214242 -52.145188 -13.530826
16.454963 -53.307846 -13.143973
16.938394 -52.175488 -12.838652
17.564549 -52.061148 -14.273869
17.214242 -52.145188 -13.530826
17.922622 -52.016267 -14.945439
17.088884 -53.232666 -14.507717
17.564549 -52.061148 -14.273869
18.329405 -51.902761 -15.669662
17.922622 -52.016267 -14.945439
18.801567 -51.83618 -16.312939
17.919119 -53.121205 -15.822564
18.329405 -51.902761 -15.669662
19.289609 -51.686064 -17.011333
18.801567 -51.83618 -16.312939
18.991318 -52.953957 -17.078678
19.289609 -51.686064 -17.011333
10.271494 -119.941899 -15.321418
9.394604 -119.065601 -15.15182
10.589878 -119.017914 -16.108202
9.943943 -120.83802 -14.49924
10.271494 -119.941899 -15.321418
9.707826 -121.590301 -13.530188
8.840103 -120.741867 -13.395983
9.943943 -120.83802 -14.49924
9.44039 -122.316566 -12.519358
9.707826 -121.590301 -13.530188
2.434681 -98.924912 -3.558906
2.725681 -97.281964 -3.279025
2.280622 -100.615371 -3.958686
2.434681 -98.924912 -3.558906
2.248311 -99.805794 -4.720116
2.121595 -102.233783 -4.314288
2.280622 -100.615371 -3.958686
2.073036 -103.13987 -5.570463
2.100379 -103.877399 -4.764855
2.121595 -102.233783 -4.314288
17.843114 -105.005661 -19.70956
16.82107 -106.719944 -19.550216
16.211289 -105.685207 -19.274809
19.46528 -104.231942 -20.139461
17.843114 -105.005661 -19.70956
18.855498 -103.197204 -19.864054
21.14393 -103.352772 -20.538384
19.46528 -104.231942 -20.139461
23.084173 -95.424744 -20.602555
22.667314 -94.28492 -20.336396
22.069271 -97.46671 -20.366907
23.084173 -95.424744 -20.602555
23.558496 -96.526967 -20.883018
22.112397 -101.459999 -20.717855
21.51063 -100.496208 -20.470663
23.145361 -99.532723 -20.894564
21.14393 -103.352772 -20.538384
22.112397 -101.459999 -20.717855
3 259 67 260
3 261 260 65
3 259 260 261
3 263 262 67
3 0 70 68
3 2 73 71
3 2 75 73
3 3 78 76
3 3 80 78
3 1 83 81
3 4 86 84
3 264 88 265
3 266 90 267
3 268 267 88
3 266 267 268
3 7 93 91
3 7 95 93
3 8 98 96
3 270 269 99
3 11 103 101
3 11 105 103
3 5 108 106
3 12 111 109
3 12 113 111
3 12 115 113
3 271 118 272
3 273 272 116
3 271 272 273
3 275 274 118
3 276 120 277
3 279 278 120
3 6 280 282
3 280 122 281
3 280 281 282
3 284 283 123
3 10 126 124
3 13 129 127
3 13 131 129
3 9 134 132
3 14 137 135
3 14 139 137
3 14 141 139
3 286 285 142
3 287 144 288
3 16 147 145
3 18 148 66
3 18 149 148
3 18 289 291
3 291 290 149
3 289 290 291
3 19 292 294
3 292 150 293
3 292 293 294
3 21 151 69
3 21 152 151
3 22 155 153
3 24 156 72
3 24 157 156
3 24 159 157
3 26 160 74
3 26 161 160
3 27 164 162
3 29 165 77
3 29 166 165
3 29 295 297
3 297 296 166
3 295 296 297
3 30 167 79
3 30 298 300
3 300 299 167
3 298 299 300
3 31 170 168
3 33 171 82
3 33 172 171
3 34 175 173
3 301 176 302
3 303 177 304
3 305 304 176
3 303 304 305
3 307 306 177
3 36 181 179
3 38 182 85
3 38 183 182
3 15 184 143
3 39 185 87
3 39 186 185
3 39 187 186
3 40 188 89
3 40 189 188
3 308 190 309
3 41 310 312
3 312 311 92
3 310 311 312
3 41 313 315
3 313 191 314
3 313 314 315
3 41 192 191
3 42 193 94
3 42 194 193
3 43 197 195
3 45 198 97
3 45 199 198
3 17 200 146
3 46 201 100
3 46 202 201
3 46 203 202
3 316 204 317
3 20 318 320
3 318 205 319
3 318 319 320
3 47 206 102
3 47 207 206
3 47 208 207
3 48 209 104
3 48 210 209
3 37 211 180
3 49 212 107
3 49 213 212
3 23 214 154
3 50 215 110
3 50 216 215
3 50 217 216
3 51 218 112
3 51 219 218
3 51 220 219
3 52 221 114
3 52 222 221
3 25 223 158
3 53 224 117
3 53 225 224
3 53 226 225
3 321 227 322
3 323 322 119
3 321 322 323
3 325 324 227
3 54 326 328
3 326 228 327
3 326 327 328
3 54 229 228
3 55 329 331
3 329 230 330
3 329 330 331
3 55 231 230
3 55 232 231
3 56 233 121
3 56 234 233
3 332 235 333
3 335 334 235
3 57 336 337
3 57 338 339
3 28 236 163
3 58 237 125
3 58 238 237
3 32 239 169
3 59 240 128
3 59 241 240
3 59 242 241
3 60 243 130
3 60 244 243
3 44 245 196
3 61 246 133
3 61 247 246
3 35 248 174
3 62 249 136
3 62 250 249
3 62 251 250
3 63 252 138
3 63 253 252
3 63 254 253
3 64 255 140
3 64 256 255
3 340 257 341
3 342 341 178
3 340 341 342
3 343 258 344
3 346 345 258
3 65 66 16
3 67 66 65
3 67 18 66
3 67 347 349
3 349 348 18
3 347 348 349
3 351 350 67
3 68 69 19
3 70 69 68
3 70 21 69
3 71 72 22
3 73 72 71
3 73 24 72
3 73 74 24
3 75 74 73
3 75 26 74
3 76 77 27
3 78 77 76
3 78 29 77
3 78 79 29
3 80 79 78
3 80 30 79
3 81 82 31
3 83 82 81
3 83 33 82
3 353 352 34
3 84 85 36
3 86 85 84
3 86 38 85
3 354 87 355
3 356 355 15
3 354 355 356
3 88 357 359
3 357 87 358
3 357 358 359
3 88 39 87
3 88 89 39
3 90 89 88
3 90 40 89
3 91 360 362
3 360 92 361
3 360 361 362
3 93 92 91
3 93 41 92
3 93 94 41
3 95 94 93
3 95 42 94
3 96 97 43
3 98 97 96
3 98 45 97
3 99 100 17
3 363 100 364
3 365 364 99
3 363 364 365
3 366 46 367
3 368 367 100
3 366 367 368
3 370 369 46
3 101 102 20
3 103 102 101
3 103 47 102
3 103 104 47
3 105 104 103
3 105 48 104
3 106 107 37
3 108 107 106
3 108 49 107
3 109 110 23
3 111 110 109
3 111 50 110
3 111 112 50
3 113 112 111
3 113 51 112
3 113 114 51
3 115 114 113
3 115 52 114
3 116 117 25
3 118 117 116
3 118 53 117
3 118 119 53
3 371 119 372
3 373 372 118
3 371 372 373
3 375 374 119
3 376 54 377
3 120 378 379
3 120 380 382
3 380 55 381
3 380 381 382
3 120 121 55
3 383 121 384
3 385 384 120
3 383 384 385
3 386 56 387
3 388 387 121
3 386 387 388
3 122 389 390
3 122 391 393
3 391 57 392
3 391 392 393
3 123 394 396
3 396 395 28
3 394 395 396
3 398 397 123
3 124 399 401
3 399 125 400
3 399 400 401
3 126 125 124
3 126 58 125
3 127 128 32
3 129 128 127
3 129 59 128
3 129 130 59
3 131 130 129
3 131 60 130
3 132 133 44
3 134 133 132
3 134 61 133
3 135 136 35
3 137 136 135
3 137 62 136
3 137 138 62
3 139 138 137
3 139 63 138
3 139 140 63
3 141 140 139
3 141 64 140
3 142 143 4
3 402 143 403
3 404 403 142
3 402 403 404
3 405 15 406
3 407 406 143
3 405 406 407
3 408 15 409
3 411 410 15
3 412 91 413
3 144 414 416
3 414 91 415
3 414 415 416
3 144 7 91
3 145 146 8
3 147 146 145
3 147 17 146
3 66 147 16
3 148 147 66
3 148 17 147
3 148 99 17
3 149 99 148
3 149 417 419
3 419 418 99
3 417 418 419
3 149 420 421
3 423 422 149
3 425 424 18
3 150 426 427
3 150 428 430
3 428 20 429
3 428 429 430
3 69 150 19
3 151 150 69
3 151 20 150
3 151 101 20
3 152 101 151
3 152 11 101
3 153 154 5
3 155 154 153
3 155 23 154
3 72 155 22
3 156 155 72
3 156 23 155
3 156 109 23
3 157 109 156
3 157 12 109
3 157 158 12
3 159 158 157
3 159 25 158
3 74 159 24
3 160 159 74
3 160 25 159
3 160 116 25
3 161 116 160
3 161 431 433
3 433 432 116
3 431 432 433
3 162 163 6
3 164 163 162
3 164 28 163
3 77 164 27
3 165 164 77
3 165 28 164
3 165 123 28
3 166 123 165
3 166 434 436
3 436 435 123
3 434 435 436
3 166 437 438
3 440 439 166
3 79 441 443
3 443 442 29
3 441 442 443
3 167 444 446
3 446 445 79
3 444 445 446
3 167 447 448
3 167 449 450
3 452 451 167
3 168 169 10
3 170 169 168
3 170 32 169
3 82 170 31
3 171 170 82
3 171 32 170
3 171 127 32
3 172 127 171
3 172 13 127
3 173 174 9
3 175 174 173
3 175 35 174
3 453 175 454
3 455 454 34
3 453 454 455
3 176 456 458
3 456 175 457
3 456 457 458
3 176 35 175
3 176 135 35
3 177 135 176
3 177 14 135
3 177 178 14
3 459 178 460
3 461 460 177
3 459 460 461
3 463 462 178
3 179 180 0
3 181 180 179
3 181 37 180
3 85 181 36
3 182 181 85
3 182 37 181
3 182 106 37
3 183 106 182
3 183 5 106
3 143 86 4
3 184 86 143
3 184 38 86
3 87 184 15
3 185 184 87
3 185 38 184
3 185 183 38
3 186 183 185
3 186 5 183
3 186 153 5
3 187 153 186
3 187 22 153
3 89 187 39
3 188 187 89
3 188 22 187
3 188 71 22
3 189 71 188
3 189 2 71
3 190 464 465
3 190 466 468
3 466 6 467
3 466 467 468
3 92 469 470
3 472 471 92
3 473 190 474
3 191 475 477
3 475 190 476
3 475 476 477
3 191 6 190
3 191 162 6
3 192 162 191
3 192 27 162
3 94 192 41
3 193 192 94
3 193 27 192
3 193 76 27
3 194 76 193
3 194 3 76
3 195 196 1
3 197 196 195
3 197 44 196
3 97 197 43
3 198 197 97
3 198 44 197
3 198 132 44
3 199 132 198
3 199 9 132
3 146 98 8
3 200 98 146
3 200 45 98
3 100 200 17
3 201 200 100
3 201 45 200
3 201 199 45
3 202 199 201
3 202 9 199
3 202 173 9
3 203 173 202
3 203 34 173
3 478 203 479
3 480 479 46
3 478 479 480
3 481 203 482
3 483 34 484
3 485 484 203
3 483 484 485
3 487 486 34
3 488 124 489
3 204 490 492
3 490 124 491
3 490 491 492
3 204 10 124
3 205 493 494
3 205 495 496
3 102 205 20
3 206 205 102
3 206 497 499
3 499 498 205
3 497 498 499
3 206 500 502
3 500 204 501
3 500 501 502
3 207 204 206
3 207 10 204
3 207 168 10
3 208 168 207
3 208 31 168
3 104 208 47
3 209 208 104
3 209 31 208
3 209 81 31
3 210 81 209
3 210 1 81
3 180 70 0
3 211 70 180
3 211 21 70
3 107 211 37
3 212 211 107
3 212 21 211
3 212 152 21
3 213 152 212
3 213 11 152
3 154 108 5
3 214 108 154
3 214 49 108
3 110 214 23
3 215 214 110
3 215 49 214
3 215 213 49
3 216 213 215
3 216 11 213
3 216 105 11
3 217 105 216
3 217 48 105
3 112 217 50
3 218 217 112
3 218 48 217
3 218 210 48
3 219 210 218
3 219 1 210
3 219 195 1
3 220 195 219
3 220 43 195
3 114 220 51
3 221 220 114
3 221 43 220
3 221 96 43
3 222 96 221
3 222 8 96
3 158 115 12
3 223 115 158
3 223 52 115
3 117 223 25
3 224 223 117
3 224 52 223
3 224 222 52
3 225 222 224
3 225 8 222
3 225 145 8
3 226 145 225
3 226 16 145
3 119 226 53
3 227 226 119
3 227 16 226
3 227 65 16
3 503 65 504
3 505 504 227
3 503 504 505
3 507 506 65
3 508 19 509
3 228 510 511
3 228 512 514
3 512 19 513
3 512 513 514
3 228 68 19
3 229 68 228
3 229 0 68
3 515 54 516
3 515 516 517
3 230 518 519
3 230 520 522
3 520 54 521
3 520 521 522
3 230 229 54
3 231 229 230
3 231 0 229
3 231 179 0
3 232 179 231
3 232 36 179
3 121 232 55
3 233 232 121
3 233 36 232
3 233 84 36
3 234 84 233
3 234 4 84
3 523 56 524
3 235 525 526
3 235 527 529
3 527 56 528
3 527 528 529
3 235 234 56
3 530 234 531
3 532 531 235
3 530 531 532
3 533 4 534
3 535 534 234
3 533 534 535
3 536 142 537
3 538 537 4
3 536 537 538
3 539 142 540
3 542 541 142
3 543 90 544
3 545 90 546
3 547 40 548
3 549 548 90
3 547 548 549
3 550 40 551
3 552 189 553
3 554 553 40
3 552 553 554
3 555 189 556
3 557 2 558
3 559 558 189
3 557 558 559
3 560 2 561
3 562 75 563
3 564 563 2
3 562 563 564
3 565 75 566
3 567 26 568
3 569 568 75
3 567 568 569
3 570 26 571
3 572 161 573
3 574 573 26
3 572 573 574
3 575 161 576
3 578 577 161
3 163 122 6
3 236 122 163
3 236 57 122
3 579 236 580
3 581 580 28
3 579 580 581
3 582 236 583
3 584 57 585
3 586 585 236
3 584 585 586
3 588 587 57
3 125 589 590
3 237 591 593
3 593 592 125
3 591 592 593
3 237 594 595
3 237 596 598
3 596 144 597
3 596 597 598
3 238 144 237
3 238 7 144
3 169 126 10
3 239 126 169
3 239 58 126
3 128 239 32
3 240 239 128
3 240 58 239
3 240 238 58
3 241 238 240
3 241 7 238
3 241 95 7
3 242 95 241
3 242 42 95
3 130 242 59
3 243 242 130
3 243 42 242
3 243 194 42
3 244 194 243
3 244 3 194
3 196 83 1
3 245 83 196
3 245 33 83
3 133 245 44
3 246 245 133
3 246 33 245
3 246 172 33
3 247 172 246
3 247 13 172
3 174 134 9
3 248 134 174
3 248 61 134
3 136 248 35
3 249 248 136
3 249 61 248
3 249 247 61
3 250 247 249
3 250 13 247
3 250 131 13
3 251 131 250
3 251 60 131
3 138 251 62
3 252 251 138
3 252 60 251
3 252 244 60
3 253 244 252
3 253 3 244
3 253 80 3
3 254 80 253
3 254 30 80
3 140 254 63
3 255 254 140
3 255 30 254
3 255 599 601
3 601 600 30
3 599 600 601
3 256 602 604
3 604 603 255
3 602 603 604
3 256 605 606
3 178 141 14
3 257 141 178
3 257 64 141
3 607 257 608
3 258 609 611
3 609 257 610
3 609 610 611
3 258 64 257
3 258 256 64
3 612 256 613
3 614 613 258
3 612 613 614
3 616 615 256
