ply
format ascii 1.0
element vertex 569
property float x
property float y
property float z
element face 680
property list uchar int vertex_index
end_header
-29.321566 22.250866 61.233482
-44.565247 11.4611 57.226658
-45.80938 15.642223 38.344353
-40.735886 36.092079 47.85704
-37.317734 17.287151 61.040794
-41.862019 23.703121 54.241764
-35.969055 30.431618 56.545963
-33.646557 42.445 47.799778
-27.514675 35.245281 53.928715
-38.841068 5.182144 61.323772
-29.544294 9.298367 62.950287
-22.003092 15.277103 64.747856
-22.2929 1.823748 66.9049
-42.506912 26.667946 33.507336
-46.036957 14.600281 48.68655
-42.705303 26.018341 43.736404
-33.360901 19.755928 61.645329
-36.744835 23.881615 59.571518
-32.860847 26.33979 59.376591
-31.88426 32.792587 55.597324
-28.711063 28.771687 58.154007
-24.593311 31.836151 56.890957
-25.398594 25.21637 60.467705
-35.015308 1.628941 62.763058
-34.10717 7.138123 62.205624
-30.102541 3.327431 63.298992
-25.627697 5.508015 64.201965
-44.041252 21.385822 31.13028
-43.366798 20.822346 35.900383
-47.896828 8.063898 54.773369
-45.760605 13.489559 53.44054
-41.171829 30.036549 51.420448
-42.642513 25.308468 49.149857
-42.222 31.452305 46.164562
-42.60865 32.113388 40.830444
-42.265541 37.358135 42.732079
-41.052341 14.559917 59.423908
-43.000542 17.42683 56.136429
-40.117371 20.94854 58.37603
-39.359985 27.488758 56.078575
-38.599331 33.82336 52.612328
-37.757141 39.69265 48.43119
-34.891243 36.659576 52.40229
-30.516312 39.011921 51.037827
-25.991259 41.688114 49.360577
-23.230927 38.5662 52.623245
-42.203144 8.572918 59.754978
-37.963593 10.976219 61.269012
-33.636559 13.261986 62.295071
-29.450125 15.704189 62.687717
-25.578226 18.594421 62.731892
-25.468596 11.956388 63.686535
-21.892296 8.381563 65.704178
-45.876213 15.14904 43.508587
-43.822662 19.23801 51.584927
-43.828434 20.087105 46.356758
-43.487549 20.452229 41.017708
-42.456795 26.347042 38.4487
-42.655754 32.466141 35.731232
-22.111269 22.191643 63.068451
-31.33914 20.975025 61.538815
-33.162079 23.053028 60.72876
-31.135815 24.256042 60.398788
-30.799919 27.519089 58.840645
-29.092922 25.518604 59.883163
-27.064882 26.916313 59.309376
-27.333807 23.644558 60.835228
-32.534962 2.440134 63.001884
-30.636101 0.601339 63.9263
-28.225929 1.460329 64.235947
-44.569653 18.420578 34.637428
-44.403778 18.129902 37.11277
-46.256516 9.786663 56.026409
-46.862953 10.745808 54.166664
-45.301441 12.596678 55.483734
-40.935223 33.116386 49.713032
-41.788723 30.869267 48.830517
-41.659027 33.896961 47.130516
-42.209023 34.449898 44.496407
-41.585991 36.826221 45.313145
-40.551506 38.946415 45.890015
-39.216099 15.966724 60.335453
-40.55304 17.715263 59.036922
-38.846142 19.199337 59.906338
-36.394814 27.182709 58.238445
-38.154091 25.791367 57.998787
-37.773003 29.060085 56.503418
-38.988663 30.702538 54.466888
-37.343315 32.253811 54.70668
-36.8634 35.342144 52.683201
-35.463631 33.597157 54.570705
-29.709476 33.955494 54.786083
-31.232452 35.934303 53.364609
-29.002588 37.124165 52.500683
-28.245138 40.255928 50.172966
-26.768944 38.472775 51.643921
-24.57513 40.072742 50.926842
-25.34374 36.758926 53.168625
-23.156981 30.37841 58.506344
-22.618858 33.771919 56.556789
-39.322247 2.514891 61.648499
-41.118256 4.165165 60.814346
-42.76836 5.75901 59.926296
-40.619545 6.915457 60.615829
-40.110592 9.80497 60.557072
-38.376278 8.005236 61.23901
-31.779814 8.171505 62.591892
-33.824345 10.13666 62.256306
-31.604462 11.2586 62.623947
-31.513439 14.445599 62.565208
-29.46702 12.467312 62.900654
-27.435631 13.795044 63.119278
-27.433546 10.551716 63.302338
-23.876354 3.657688 65.350433
-23.660198 6.853979 64.866379
-22.003502 5.033394 66.206696
-43.009186 23.913776 32.329765
-43.571995 24.166885 30.055792
-42.861206 26.854801 31.195305
-43.070202 29.833397 30.036579
-42.625893 29.697117 32.286942
-47.40184 12.032955 49.71862
-47.451378 12.431936 47.250237
-47.441952 12.746099 44.704849
-45.977646 14.911831 46.117935
-42.367783 20.53738 55.305893
-43.537987 18.470337 53.986019
-42.865032 21.53083 52.975338
-42.742851 25.744274 46.449287
-43.196487 22.716137 47.784409
-43.122982 23.009895 45.081306
-43.667656 20.294842 43.674423
-42.966537 23.197048 42.388062
-42.796932 23.343662 39.74498
-42.586319 26.199898 41.058758
-42.817841 35.110741 39.264626
-42.640793 32.308594 38.239441
-42.945824 35.316662 36.731476
-35.80233 41.145813 48.253143
-37.31559 42.429707 46.21315
-35.257385 43.860229 45.956062
-23.745773 16.914829 63.623318
-23.793447 20.293777 62.8241
-22.091866 18.742268 64.041664
-35.361168 18.540398 61.485733
-37.040768 20.568508 60.502598
-35.139828 21.841431 60.778637
-34.854805 25.14994 59.64447
-34.474846 28.429298 58.102753
-33.988728 31.650486 56.221523
-32.434544 29.591599 57.636509
-30.31991 30.753471 56.935623
-28.176508 32.012226 56.133369
-26.045979 33.463245 55.376587
-26.631508 30.18541 57.458237
-25.079533 28.519463 58.812557
-23.532209 27.013699 60.244957
-37.45874 0.835835 62.539513
-36.945641 3.411493 61.998108
-36.480556 6.157261 61.783978
-34.506153 4.295441 62.326359
-32.083633 5.221262 62.66066
-29.742678 6.237965 63.021637
-27.531075 7.384308 63.431458
-27.784502 4.338781 63.688847
-25.958113 2.470055 64.700089
-45.615448 19.156197 29.915371
-44.961792 18.768959 32.240192
-43.573528 21.081505 33.470032
-42.737278 23.687149 34.703903
-47.226898 11.486841 52.045952
-45.986427 14.145626 51.151413
-41.471504 26.884628 52.940727
-42.360378 24.644348 51.77364
-42.010986 27.77179 50.386341
-42.352024 28.392323 47.720692
-42.51955 28.802265 45.013863
-42.549988 29.068642 42.320366
-42.485737 31.845783 43.482742
-42.588127 34.835632 41.861771
-31.374733 43.678513 47.140656
-42.832138 13.057381 58.369652
-43.748058 14.397854 56.760555
-42.176929 16.111778 57.964226
-41.603428 19.256641 57.348789
-41.120529 22.465805 56.468887
-38.502579 22.48896 59.138565
-39.728287 24.221779 57.391945
-40.715263 25.700062 55.303108
-40.36414 28.912941 53.862164
-40.043236 32.059143 52.181385
-39.734055 35.102425 50.309902
-39.424923 38.020638 48.299404
-38.187569 36.824196 50.580021
-36.343853 38.307854 50.510246
-34.276031 39.609505 50.12421
-33.40593 34.79425 54.095306
-32.752411 37.85001 51.822315
-32.063313 40.812542 49.485558
-29.779018 42.019867 48.693089
-22.452724 41.983284 50.447624
-23.962698 35.182251 54.796532
-47.113678 7.043938 56.47839
-45.372719 8.614223 57.595638
-44.202911 7.257303 58.880356
-43.530361 10.105442 58.645027
-41.612358 11.508034 59.625572
-39.63599 12.826981 60.510735
-37.614929 14.078503 61.255188
-36.094994 9.065392 61.79092
-35.795605 12.117239 61.858723
-35.563797 15.286449 61.809612
-33.500587 16.480373 62.139717
-31.446449 17.695625 62.24369
-29.423723 18.97411 62.161777
-27.453655 20.363205 61.973797
-27.466656 17.074951 62.716339
-25.526075 15.270042 63.336971
-23.659184 13.529068 64.152512
-25.48035 8.687157 63.919033
-23.60704 10.161749 64.518936
-21.913082 11.812275 65.263565
-45.799194 15.376507 40.906685
-44.366276 15.489174 54.814537
-44.716835 16.31707 52.583256
-44.84705 16.898727 50.139301
-43.127323 22.24398 50.440216
-43.900974 19.758377 49.01556
-44.815273 17.280567 47.561008
-44.686279 17.528641 44.919975
-44.528351 17.714497 42.273582
-44.411263 17.900677 39.662632
-43.362015 20.616367 38.419674
-42.692841 23.49844 37.178299
-42.400375 26.497818 35.927216
-42.496456 29.254459 39.679001
-42.431122 29.407047 37.115845
-42.44239 29.552551 34.648178
-42.746162 32.600296 33.320358
-39.109127 40.807144 46.194794
-25.55426 21.910995 61.784245
-23.73756 23.65778 61.69873
-22.005554 25.626022 61.798115
-30.980052 -0.660214 64.44952
-31.879745 0.225064 63.827399
-29.746437 -0.307626 64.551491
-30.980052 -0.660214 64.44952
-45.886212 15.806407 37.091881
-46.739102 14.690136 37.704967
-45.106579 16.886063 37.728561
-45.183411 17.050247 36.47609
-45.886212 15.806407 37.091881
-22.230621 31.444744 58.482079
-22.448349 29.718742 59.375641
-21.40323 2.518193 67.422092
-21.258532 4.123017 67.072991
-22.148201 3.428571 66.555798
-43.025925 36.673975 37.176828
-42.881833 35.213701 37.998051
-42.961934 36.571015 38.443404
-43.137321 36.78162 35.939791
-43.025925 36.673975 37.176828
-36.237024 1.232388 62.651286
-36.530277 -0.00994 63.063534
-35.308561 0.386613 63.175307
-26.225013 1.045018 65.120087
-27.092021 1.965192 64.468018
-27.358921 0.540156 64.888016
-25.12458 1.548439 65.403717
-26.225013 1.045018 65.120087
-45.634045 17.565614 32.819101
-45.916294 17.784435 31.628351
-48.166562 8.47909 53.794145
-48.67754 7.198802 54.111227
-42.516285 37.551283 41.444857
-42.677578 36.290031 41.009703
-42.426834 36.096883 42.296925
-42.304423 38.76168 41.809036
-42.516285 37.551283 41.444857
-31.045505 45.061839 45.976189
-30.217875 44.313944 46.757237
-26.738357 42.514427 48.613716
-27.865296 41.798334 49.019911
-27.118198 40.972021 49.766772
-25.611861 43.281028 48.2437
-26.738357 42.514427 48.613716
-24.89341 42.540045 49.03864
-25.611861 43.281028 48.2437
-22.213568 39.631027 52.491709
-21.824466 41.339569 51.403898
-22.841825 40.274742 51.535434
-22.283982 35.4908 55.519262
-21.667082 34.886697 56.531166
-46.589742 6.446147 57.203167
-47.428452 5.698382 56.674492
-45.719263 7.23129 57.761791
-46.243198 7.82908 57.037014
-46.589742 6.446147 57.203167
-21.10438 9.232267 66.213982
-21.114773 10.947623 65.993675
-21.902689 10.096919 65.483871
-44.424051 21.550856 30.001753
-45.211149 20.436043 29.394298
-44.82835 20.271009 30.522825
-44.016683 24.297483 28.963527
-43.550272 25.606105 29.522359
-43.306607 31.308695 29.428168
-43.041052 31.271387 30.526205
-46.656898 14.093765 42.822241
-47.439768 12.892294 43.420372
-46.659082 13.94757 44.106718
-45.837704 15.262773 42.207636
-46.618389 14.207498 41.52129
-46.656898 14.093765 42.822241
-38.048703 42.949549 45.120533
-37.092526 43.738366 45.083576
-34.069349 0.738865 63.245778
-35.308561 0.386613 63.175307
-32.829176 1.144462 63.36519
-33.775135 2.034537 62.882471
-34.069349 0.738865 63.245778
-31.585532 1.520736 63.464092
-32.829176 1.144462 63.36519
-31.879745 0.225064 63.827399
-28.541351 0.121869 64.706314
-29.431015 1.030834 64.081123
-29.746437 -0.307626 64.551491
-27.358921 0.540156 64.888016
-28.541351 0.121869 64.706314
-45.266348 17.195585 35.238419
-45.437975 17.391424 34.017719
-44.486716 18.27524 35.875099
-45.266348 17.195585 35.238419
-45.183411 17.050247 36.47609
-41.560339 38.234884 44.358168
-41.900114 38.500841 43.067635
-41.925766 37.092178 44.022612
-41.043097 39.294981 44.646603
-41.560339 38.234884 44.358168
-41.068748 37.886318 45.60158
-40.457058 40.312214 44.866274
-41.043097 39.294981 44.646603
-21.96156 33.141498 57.507301
-22.887919 32.075164 57.531566
-22.230621 31.444744 58.482079
-21.667082 34.886697 56.531166
-21.96156 33.141498 57.507301
-40.434111 2.034058 61.442532
-39.544669 1.257584 61.96207
-41.332116 2.859195 61.025455
-40.434111 2.034058 61.442532
-40.220252 3.340028 61.231423
-42.176321 3.615162 60.52165
-41.332116 2.859195 61.025455
-41.943308 4.962087 60.370321
-43.001373 4.412084 60.077625
-42.176321 3.615162 60.52165
-21.172753 5.812773 66.739666
-21.11715 7.486857 66.488407
-21.947899 6.707479 65.955437
-21.172753 5.812773 66.739666
-21.258532 4.123017 67.072991
-43.194878 26.950063 30.092115
-43.550272 25.606105 29.522359
-43.2166 25.510843 30.625549
-42.965704 28.344099 30.615942
-43.299375 28.439362 29.512752
-43.194878 26.950063 30.092115
-42.818897 31.203247 31.651387
-43.041052 31.271387 30.526205
-42.848047 29.765257 31.16176
-48.187758 11.043036 49.003096
-48.088882 10.789315 50.177105
-48.212526 11.242527 47.768904
-48.187758 11.043036 49.003096
-47.426609 12.232446 48.484428
-48.272086 11.450481 46.540118
-48.212526 11.242527 47.768904
-47.446665 12.589018 45.977543
-48.267373 11.607562 45.267424
-48.272086 11.450481 46.540118
-42.996555 35.395781 35.505916
-42.85152 33.97052 35.005795
-42.800789 33.891402 36.231354
-42.996555 35.395781 35.505916
-43.137321 36.78162 35.939791
-36.063423 44.453626 44.955032
-37.092526 43.738366 45.083576
-36.286487 43.144968 46.084606
-22.635963 28.036386 60.244947
-22.448349 29.718742 59.375641
-23.344595 28.696054 59.37565
-37.713949 -0.370937 62.987202
-36.530277 -0.00994 63.063534
-38.612915 0.418056 62.407578
-37.713949 -0.370937 62.987202
-38.390493 1.675363 62.094006
-39.544669 1.257584 61.96207
-38.612915 0.418056 62.407578
-24.0837 2.142255 65.72889
-24.917234 3.063871 65.025261
-25.12458 1.548439 65.403717
-23.291973 1.225285 66.506123
-23.084627 2.740718 66.127667
-24.0837 2.142255 65.72889
-46.243122 17.978054 30.465941
-46.642475 18.206575 29.298792
-45.28862 18.962578 31.077782
-46.243122 17.978054 30.465941
-45.916294 17.784435 31.628351
-44.765723 18.594769 33.43881
-45.634045 17.565614 32.819101
-45.437975 17.391424 34.017719
-47.649624 9.820044 53.490793
-48.166562 8.47909 53.794145
-47.379891 9.404853 54.470016
-47.831597 10.190561 52.430437
-47.649624 9.820044 53.490793
-47.044925 11.116325 53.106308
-48.001412 10.516258 51.340771
-47.831597 10.190561 52.430437
-47.314369 11.759898 50.882286
-48.088882 10.789315 50.177105
-48.001412 10.516258 51.340771
-42.792435 36.427586 39.71113
-42.702984 34.973186 40.563198
-42.677578 36.290031 41.009703
-42.961934 36.571015 38.443404
-42.792435 36.427586 39.71113
-42.304423 38.76168 41.809036
-41.900114 38.500841 43.067635
-32.201698 44.423651 46.30283
-33.33761 43.806894 46.632391
-32.510645 43.061757 47.470217
-32.201698 44.423651 46.30283
-31.045505 45.061839 45.976189
-21.243567 16.23649 65.124775
-21.193973 14.454328 65.459457
-46.652948 14.500883 38.963074
-46.739102 14.690136 37.704967
-29.420017 43.484621 47.533453
-30.217875 44.313944 46.757237
-30.576875 42.84919 47.916872
-28.632237 42.680303 48.279972
-29.012078 41.137897 49.433028
-27.865296 41.798334 49.019911
-29.420017 43.484621 47.533453
-28.632237 42.680303 48.279972
-24.185346 41.732359 49.821772
-24.89341 42.540045 49.03864
-25.283195 40.880428 50.143709
-23.124142 42.687629 49.582163
-24.185346 41.732359 49.821772
-23.513927 41.028013 50.687233
-22.068668 43.698301 49.382286
-23.124142 42.687629 49.582163
-21.434777 43.101183 50.349008
-21.050721 44.816201 49.28367
-22.068668 43.698301 49.382286
-21.434777 43.101183 50.349008
-21.824466 41.339569 51.403898
-22.955902 36.195966 54.639133
-23.290778 34.477085 55.67666
-22.283982 35.4908 55.519262
-22.590017 37.887941 53.55249
-23.596812 36.874226 53.709888
-22.955902 36.195966 54.639133
-22.213568 39.631027 52.491709
-22.590017 37.887941 53.55249
-48.306871 6.741547 55.022389
-48.67754 7.198802 54.111227
-47.915296 6.231567 55.874899
-47.428452 5.698382 56.674492
-47.505253 7.553918 55.625879
-48.306871 6.741547 55.022389
-47.915296 6.231567 55.874899
-43.764522 5.134013 59.541078
-43.001373 4.412084 60.077625
-44.481798 5.883159 59.018108
-43.764522 5.134013 59.541078
-43.485636 6.508157 59.403326
-45.134359 6.552829 58.40415
-44.481798 5.883159 59.018108
-44.787815 7.935763 58.237997
-45.719263 7.23129 57.761791
-45.134359 6.552829 58.40415
-21.148967 12.721915 65.717312
-21.193973 14.454328 65.459457
-21.958087 13.544689 65.00571
-21.148967 12.721915 65.717312
-21.114773 10.947623 65.993675
-21.10438 9.232267 66.213982
-21.11715 7.486857 66.488407
-22.537803 0.31462 67.402752
-23.291973 1.225285 66.506123
-21.578961 0.912205 67.867859
-22.537803 0.31462 67.402752
-21.823865 -0.596923 68.365711
-21.40323 2.518193 67.422092
-21.578961 0.912205 67.867859
-46.078693 19.356644 28.781284
-47.105721 18.407023 28.164704
-46.642475 18.206575 29.298792
-46.078693 19.356644 28.781284
-45.211149 20.436043 29.394298
-44.189422 22.941387 29.464509
-44.424051 21.550856 30.001753
-43.806624 22.776353 30.593036
-44.189422 22.941387 29.464509
-44.016683 24.297483 28.963527
-43.454953 29.891281 28.96438
-43.299375 28.439362 29.512752
-43.691357 31.366579 28.355969
-43.454953 29.891281 28.96438
-43.306607 31.308695 29.428168
-48.318352 11.798599 44.011284
-48.267373 11.607562 45.267424
-48.318352 11.798599 44.011284
-47.439768 12.892294 43.420372
-46.647855 14.368025 40.24424
-46.618389 14.207498 41.52129
-45.804287 15.509365 39.625519
-46.652948 14.500883 38.963074
-46.647855 14.368025 40.24424
-42.879032 32.654837 32.168094
-42.818897 31.203247 31.651387
-42.686027 31.148706 32.80365
-42.896724 34.037598 33.800358
-42.700958 32.533219 34.525795
-42.85152 33.97052 35.005795
-42.982215 34.094743 32.621859
-42.896724 34.037598 33.800358
-42.879032 32.654837 32.168094
-42.982215 34.094743 32.621859
-39.735868 41.242579 45.018664
-40.457058 40.312214 44.866274
-39.830317 39.876779 46.042405
-38.945471 42.138267 45.111355
-38.212359 41.618426 46.203972
-38.048703 42.949549 45.120533
-39.735868 41.242579 45.018664
-38.945471 42.138267 45.111355
-34.143024 44.514509 45.710533
-34.451971 43.152614 46.87792
-33.33761 43.806894 46.632391
-34.99015 45.161226 44.797516
-34.143024 44.514509 45.710533
-36.063423 44.453626 44.955032
-34.99015 45.161226 44.797516
-21.872635 27.342548 61.021527
-22.635963 28.036386 60.244947
-22.768881 26.31986 61.021536
-21.287954 17.969072 64.771679
-22.047479 17.009685 64.39476
-21.243567 16.23649 65.124775
-21.319954 19.746315 64.335613
-21.287954 17.969072 64.771679
-21.329656 21.471002 63.849007
-22.101568 20.466955 63.555058
-21.319954 19.746315 64.335613
-21.314111 23.239242 63.286846
-21.329656 21.471002 63.849007
-21.261254 24.956432 62.651678
-22.058411 23.908832 62.433283
-21.314111 23.239242 63.286846
-21.175565 26.719011 61.958144
-21.261254 24.956432 62.651678
-21.872635 27.342548 61.021527
-21.175565 26.719011 61.958144
3 0 62 60
3 0 64 62
3 0 66 64
3 243 68 244
3 246 245 68
3 2 247 248
3 2 249 251
3 249 71 250
3 249 250 251
3 1 74 72
3 3 77 75
3 3 79 77
3 3 80 79
3 4 83 81
3 6 86 84
3 6 88 86
3 6 90 88
3 8 93 91
3 8 95 93
3 8 97 95
3 253 252 98
3 9 101 100
3 9 103 101
3 9 105 103
3 10 108 106
3 10 110 108
3 10 112 110
3 12 115 113
3 12 254 256
3 256 255 115
3 254 255 256
3 13 118 116
3 13 120 118
3 14 122 121
3 14 124 122
3 5 127 125
3 15 130 128
3 15 132 130
3 15 134 132
3 257 137 258
3 259 258 135
3 257 258 259
3 261 260 137
3 7 140 138
3 11 143 141
3 16 146 144
3 18 147 61
3 18 148 147
3 18 150 148
3 20 151 63
3 20 152 151
3 20 154 152
3 22 155 65
3 22 156 155
3 23 262 264
3 262 157 263
3 262 263 264
3 23 158 157
3 23 160 158
3 25 161 67
3 25 162 161
3 25 164 162
3 265 165 266
3 267 266 69
3 265 266 267
3 269 268 165
3 270 167 271
3 28 168 70
3 28 169 168
3 29 272 273
3 30 170 73
3 30 171 170
3 31 174 172
3 33 175 76
3 33 176 175
3 33 178 176
3 35 179 78
3 35 274 276
3 276 275 179
3 274 275 276
3 35 277 278
3 280 279 180
3 36 183 181
3 38 184 82
3 38 185 184
3 17 186 145
3 39 187 85
3 39 188 187
3 39 189 188
3 40 190 87
3 40 191 190
3 40 193 191
3 42 194 89
3 42 195 194
3 19 196 149
3 43 197 92
3 43 198 197
3 43 199 198
3 44 281 283
3 283 282 94
3 281 282 283
3 44 284 285
3 44 286 287
3 45 200 96
3 45 288 290
3 290 289 200
3 288 289 290
3 21 201 153
3 292 291 99
3 293 202 294
3 295 203 296
3 297 296 202
3 295 296 297
3 46 204 102
3 46 205 204
3 46 206 205
3 47 207 104
3 47 208 207
3 24 209 159
3 48 210 107
3 48 211 210
3 48 212 211
3 49 213 109
3 49 214 213
3 49 216 214
3 51 217 111
3 51 218 217
3 26 219 163
3 52 220 114
3 52 221 220
3 52 298 300
3 300 299 221
3 298 299 300
3 27 301 303
3 303 302 166
3 301 302 303
3 305 304 117
3 307 306 119
3 53 308 310
3 310 309 123
3 308 309 310
3 53 311 313
3 311 222 312
3 311 312 313
3 37 223 182
3 54 224 126
3 54 225 224
3 32 226 173
3 55 227 129
3 55 228 227
3 55 229 228
3 56 230 131
3 56 231 230
3 56 232 231
3 57 233 133
3 57 234 233
3 34 235 177
3 58 236 136
3 58 237 236
3 58 238 237
3 41 239 192
3 315 314 139
3 50 240 215
3 59 241 142
3 59 242 241
3 60 61 16
3 62 61 60
3 62 18 61
3 62 63 18
3 64 63 62
3 64 20 63
3 64 65 20
3 66 65 64
3 66 22 65
3 316 23 317
3 318 67 319
3 320 319 23
3 318 319 320
3 68 321 323
3 321 67 322
3 321 322 323
3 68 25 67
3 68 69 25
3 324 69 325
3 326 325 68
3 324 325 326
3 328 327 69
3 329 70 330
3 71 331 333
3 331 70 332
3 331 332 333
3 71 28 70
3 72 73 29
3 74 73 72
3 74 30 73
3 75 76 31
3 77 76 75
3 77 33 76
3 77 78 33
3 79 78 77
3 79 35 78
3 79 334 336
3 336 335 35
3 334 335 336
3 80 337 339
3 339 338 79
3 337 338 339
3 80 340 341
3 81 82 36
3 83 82 81
3 83 38 82
3 84 85 17
3 86 85 84
3 86 39 85
3 86 87 39
3 88 87 86
3 88 40 87
3 88 89 40
3 90 89 88
3 90 42 89
3 91 92 19
3 93 92 91
3 93 43 92
3 93 94 43
3 95 94 93
3 95 44 94
3 95 96 44
3 97 96 95
3 97 45 96
3 98 99 21
3 342 99 343
3 344 343 98
3 342 343 344
3 346 345 99
3 100 347 348
3 101 349 351
3 351 350 100
3 349 350 351
3 101 352 353
3 101 354 356
3 354 102 355
3 354 355 356
3 103 102 101
3 103 46 102
3 103 104 46
3 105 104 103
3 105 47 104
3 106 107 24
3 108 107 106
3 108 48 107
3 108 109 48
3 110 109 108
3 110 49 109
3 110 111 49
3 112 111 110
3 112 51 111
3 113 114 26
3 115 114 113
3 115 52 114
3 115 357 359
3 359 358 52
3 357 358 359
3 361 360 115
3 116 117 27
3 118 117 116
3 118 362 364
3 364 363 117
3 362 363 364
3 118 365 367
3 365 119 366
3 365 366 367
3 120 119 118
3 120 368 370
3 370 369 119
3 368 369 370
3 121 371 372
3 122 373 375
3 375 374 121
3 373 374 375
3 122 376 377
3 122 378 380
3 378 123 379
3 378 379 380
3 124 123 122
3 124 53 123
3 125 126 37
3 127 126 125
3 127 54 126
3 128 129 32
3 130 129 128
3 130 55 129
3 130 131 55
3 132 131 130
3 132 56 131
3 132 133 56
3 134 133 132
3 134 57 133
3 135 136 34
3 137 136 135
3 137 58 136
3 137 381 383
3 383 382 58
3 381 382 383
3 385 384 137
3 138 139 41
3 140 139 138
3 140 386 388
3 388 387 139
3 386 387 388
3 141 142 50
3 143 142 141
3 143 59 142
3 144 145 4
3 146 145 144
3 146 17 145
3 61 146 16
3 147 146 61
3 147 17 146
3 147 84 17
3 148 84 147
3 148 6 84
3 148 149 6
3 150 149 148
3 150 19 149
3 63 150 18
3 151 150 63
3 151 19 150
3 151 91 19
3 152 91 151
3 152 8 91
3 152 153 8
3 154 153 152
3 154 21 153
3 65 154 20
3 155 154 65
3 155 21 154
3 155 98 21
3 156 98 155
3 156 389 391
3 391 390 98
3 389 390 391
3 157 392 393
3 157 394 395
3 157 396 398
3 396 100 397
3 396 397 398
3 158 100 157
3 158 9 100
3 158 159 9
3 160 159 158
3 160 24 159
3 67 160 23
3 161 160 67
3 161 24 160
3 161 106 24
3 162 106 161
3 162 10 106
3 162 163 10
3 164 163 162
3 164 26 163
3 69 164 25
3 165 164 69
3 165 26 164
3 165 113 26
3 399 113 400
3 401 400 165
3 399 400 401
3 402 12 403
3 404 403 113
3 402 403 404
3 405 166 406
3 167 407 409
3 407 166 408
3 407 408 409
3 167 27 166
3 70 410 412
3 410 167 411
3 410 411 412
3 168 167 70
3 168 27 167
3 168 116 27
3 169 116 168
3 169 13 116
3 73 413 415
3 415 414 29
3 413 414 415
3 170 416 418
3 418 417 73
3 416 417 418
3 170 419 420
3 170 421 423
3 421 121 422
3 421 422 423
3 171 121 170
3 171 14 121
3 172 173 5
3 174 173 172
3 174 32 173
3 76 174 31
3 175 174 76
3 175 32 174
3 175 128 32
3 176 128 175
3 176 15 128
3 176 177 15
3 178 177 176
3 178 34 177
3 78 178 33
3 179 178 78
3 179 34 178
3 179 135 34
3 424 135 425
3 426 425 179
3 424 425 426
3 428 427 135
3 430 429 35
3 180 431 433
3 433 432 7
3 431 432 433
3 435 434 180
3 437 436 11
3 438 2 439
3 181 182 1
3 183 182 181
3 183 37 182
3 82 183 36
3 184 183 82
3 184 37 183
3 184 125 37
3 185 125 184
3 185 5 125
3 145 83 4
3 186 83 145
3 186 38 83
3 85 186 17
3 187 186 85
3 187 38 186
3 187 185 38
3 188 185 187
3 188 5 185
3 188 172 5
3 189 172 188
3 189 31 172
3 87 189 39
3 190 189 87
3 190 31 189
3 190 75 31
3 191 75 190
3 191 3 75
3 191 192 3
3 193 192 191
3 193 41 192
3 89 193 40
3 194 193 89
3 194 41 193
3 194 138 41
3 195 138 194
3 195 7 138
3 149 90 6
3 196 90 149
3 196 42 90
3 92 196 19
3 197 196 92
3 197 42 196
3 197 195 42
3 198 195 197
3 198 7 195
3 198 180 7
3 199 180 198
3 199 440 442
3 442 441 180
3 440 441 442
3 94 199 43
3 443 199 444
3 445 444 94
3 443 444 445
3 447 446 199
3 96 448 450
3 450 449 44
3 448 449 450
3 200 451 453
3 453 452 96
3 451 452 453
3 200 454 455
3 200 456 458
3 456 457 458
3 460 459 200
3 153 97 8
3 201 97 153
3 201 45 97
3 99 201 21
3 461 201 462
3 463 462 99
3 461 462 463
3 464 45 465
3 466 465 201
3 464 465 466
3 468 467 45
3 469 29 470
3 202 471 472
3 202 473 475
3 473 29 474
3 473 474 475
3 202 72 29
3 203 72 202
3 203 1 72
3 102 476 477
3 204 478 480
3 480 479 102
3 478 479 480
3 204 481 482
3 204 483 485
3 483 203 484
3 483 484 485
3 205 203 204
3 205 1 203
3 205 181 1
3 206 181 205
3 206 36 181
3 104 206 46
3 207 206 104
3 207 36 206
3 207 81 36
3 208 81 207
3 208 4 81
3 159 105 9
3 209 105 159
3 209 47 105
3 107 209 24
3 210 209 107
3 210 47 209
3 210 208 47
3 211 208 210
3 211 4 208
3 211 144 4
3 212 144 211
3 212 16 144
3 109 212 48
3 213 212 109
3 213 16 212
3 213 60 16
3 214 60 213
3 214 0 60
3 214 215 0
3 216 215 214
3 216 50 215
3 111 216 49
3 217 216 111
3 217 50 216
3 217 141 50
3 218 141 217
3 218 11 141
3 163 112 10
3 219 112 163
3 219 51 112
3 114 219 26
3 220 219 114
3 220 51 219
3 220 218 51
3 221 218 220
3 221 11 218
3 221 486 488
3 488 487 11
3 486 487 488
3 490 489 221
3 492 491 52
3 493 12 494
3 495 12 496
3 495 496 497
3 499 498 12
3 166 500 502
3 500 501 502
3 504 503 166
3 117 505 507
3 507 506 27
3 505 506 507
3 509 508 117
3 119 510 511
3 514 513 119
3 512 513 514
3 123 515 516
3 518 517 123
3 222 519 520
3 222 521 523
3 521 2 522
3 521 522 523
3 182 74 1
3 223 74 182
3 223 30 74
3 126 223 37
3 224 223 126
3 224 30 223
3 224 171 30
3 225 171 224
3 225 14 171
3 173 127 5
3 226 127 173
3 226 54 127
3 129 226 32
3 227 226 129
3 227 54 226
3 227 225 54
3 228 225 227
3 228 14 225
3 228 124 14
3 229 124 228
3 229 53 124
3 131 229 55
3 230 229 131
3 230 53 229
3 230 222 53
3 231 222 230
3 231 2 222
3 231 71 2
3 232 71 231
3 232 28 71
3 133 232 56
3 233 232 133
3 233 28 232
3 233 169 28
3 234 169 233
3 234 13 169
3 177 134 15
3 235 134 177
3 235 57 134
3 136 235 34
3 236 235 136
3 236 57 235
3 236 234 57
3 237 234 236
3 237 13 234
3 237 120 13
3 238 120 237
3 238 524 526
3 526 525 120
3 524 525 526
3 527 238 528
3 529 528 58
3 527 528 529
3 530 238 531
3 533 532 238
3 192 80 3
3 239 80 192
3 239 534 536
3 536 535 80
3 534 535 536
3 139 239 41
3 537 239 538
3 539 538 139
3 537 538 539
3 541 540 239
3 542 140 543
3 544 543 7
3 542 543 544
3 545 140 546
3 548 547 140
3 215 66 0
3 240 66 215
3 240 22 66
3 142 240 50
3 241 240 142
3 241 22 240
3 241 156 22
3 242 156 241
3 242 549 551
3 551 550 156
3 549 550 551
3 552 143 553
3 554 553 11
3 552 553 554
3 555 143 556
3 557 59 558
3 559 558 143
3 557 558 559
3 560 59 561
3 562 242 563
3 564 563 59
3 562 563 564
3 565 242 566
3 568 567 242
