ply
format ascii 1.0
element vertex 519
property float x
property float y
property float z
element face 619
property list uchar int vertex_index
end_header
5.996883 -7.704256 36.095192
-0.439129 -19.309406 48.04501
-1.569988 3.796032 53.395233
0.914143 -3.13341 47.662567
-2.854338 -10.933605 52.84005
4.723461 -25.084797 37.464714
7.158203 -22.975637 29.897484
6.453518 10.582523 32.656815
4.003414 4.672237 40.996742
3.757061 -12.830784 42.970955
2.462662 -28.929787 43.979141
-2.414633 -34.195454 48.994167
0.34025 -43.184113 44.848148
-2.168964 -0.728067 56.41914
-2.066908 -3.559383 53.168003
4.017384 -32.92202 37.802658
4.852188 -31.962177 34.206856
3.591499 13.324459 39.260078
2.38842 9.366972 43.354736
0.412281 -11.32775 47.923992
2.531281 -7.64751 45.329384
2.012445 -15.999638 45.766693
3.21386 -21.142952 43.495796
1.217978 -23.960777 46.138767
-4.971087 -43.55582 53.127094
-4.827387 -36.963051 51.581001
-3.085073 -41.053482 50.011929
-0.713364 -38.516571 47.300755
-1.583633 -45.283081 47.991829
6.383949 1.464207 34.700439
7.751804 3.30463 30.293148
7.329956 -5.975547 32.072128
-0.554199 8.468779 49.897785
0.972567 5.078697 47.032784
-0.633293 0.69113 50.271179
-1.121382 -7.159113 50.318264
-1.979652 -14.955071 50.175922
5.401699 -16.63995 36.948887
6.619873 -15.125963 33.214542
5.744793 -23.855164 33.867302
6.071918 -31.315037 30.363958
5.16753 7.958075 37.017982
5.184155 -1.042374 38.643288
2.672729 0.894779 44.572884
4.04377 -4.138992 42.207451
4.910667 -10.009625 39.705956
4.44104 -18.657646 40.375229
3.839382 -26.777353 40.861496
3.071823 -34.331467 41.263725
-3.87653 -18.335527 52.578491
-3.06027 -22.583088 50.145615
-4.109413 -29.946407 50.558735
-1.458736 -26.949213 48.334381
0.270172 -31.449884 46.643745
1.500154 -36.219032 44.465256
2.025423 -41.476387 41.510445
8.058643 -14.043366 28.983677
-2.492693 -4.005053 56.122482
3.630524 -36.634125 37.913872
4.022568 -36.154709 36.117287
1.484751 11.344597 44.619293
0.020735 -15.355077 47.982456
1.238115 -13.603702 46.837448
0.855446 -17.648905 46.959763
1.642076 -20.037386 45.945129
0.412491 -21.599108 47.094185
-4.115389 -45.540138 52.227734
-4.124941 -42.328911 51.485741
-3.255737 -44.344616 50.605011
-2.255301 -43.127617 49.100555
-2.491133 -46.413147 49.570148
6.224342 -3.130676 35.475697
6.885502 -2.154076 33.436905
6.635128 -6.768316 34.146011
-1.097269 6.129011 51.699238
-0.544468 4.597364 50.126881
-1.204845 2.337677 51.759895
-2.42613 -7.240344 53.009033
-1.693123 -5.28152 51.6833
-2.070368 -9.094697 51.569843
-1.510807 -11.071278 50.254917
-2.525454 -12.900584 51.437557
5.066624 -20.935589 37.236294
5.579422 -20.19132 35.453407
5.184925 -24.41667 35.697449
4.912598 -35.471199 32.419441
5.403187 -31.612131 32.331345
3.844372 9.033394 40.192451
4.427235 10.787756 38.131676
4.58329 6.38936 39.053478
5.217308 3.471586 37.906189
4.64946 1.94058 39.833641
1.000771 0.984112 47.40078
1.838131 3.090988 45.772263
1.849623 -1.104189 46.180962
3.210697 -10.157142 44.169941
3.359829 -5.856304 43.832138
3.936943 -8.517729 42.63385
4.537235 -6.972989 40.983353
4.377815 -11.364208 41.386436
4.69479 -14.389691 40.075687
4.163116 -15.665376 41.710232
2.863323 -25.104591 43.735359
3.596458 -23.895987 42.23164
3.246899 -27.800407 42.468666
3.483055 -30.619305 41.074123
2.844929 -31.568207 42.697517
-3.596422 -20.444542 51.269894
-4.156218 -24.15538 51.323532
-3.707394 -35.592415 50.216682
-4.527475 -33.503002 50.993446
-3.318356 -32.073078 49.743744
-2.845245 -28.457973 49.400368
-1.9594 -30.622105 48.613605
-0.564827 -29.17802 47.515533
-1.053261 -32.805359 47.83054
-0.087627 -40.786953 46.191708
0.451832 -37.324608 45.923676
0.938349 -39.728634 44.677971
1.842667 -38.775421 43.08564
1.238358 -42.272705 43.209694
6.898724 -19.024698 31.616507
7.339813 -14.537548 31.172384
7.640202 -18.568583 29.505753
-1.935728 1.495226 54.975571
-1.78072 0.116669 53.301159
-2.222788 -2.022575 54.754959
-2.56159 -5.52818 54.543915
-2.951241 -9.059937 54.352409
4.375984 -29.078552 37.651333
4.793427 -28.48378 35.88324
4.408573 -32.391846 36.022694
3.005215 11.401533 41.355064
3.243172 7.146835 42.159645
0.715033 -7.246156 47.828972
1.748606 -5.305266 46.480881
1.541058 -9.481236 46.689949
2.313576 -11.862181 45.572922
2.981262 -14.384893 44.437149
3.513405 -17.047089 43.248566
2.682121 -18.512424 44.66563
2.32373 -22.520571 44.884933
1.915119 -26.399937 45.116684
-5.72213 -41.546333 54.010941
-5.687668 -38.270332 53.152489
-4.981522 -40.316879 52.302219
-3.983751 -39.012123 50.805531
-2.797741 -37.671486 49.466839
-1.512281 -36.332756 48.211246
-1.920546 -39.770142 48.641415
-1.175732 -41.929653 47.650227
-0.620174 -44.195736 46.433006
6.463173 6.045328 33.760323
7.147961 7.068439 31.519356
7.059727 2.46909 32.562546
7.582275 -1.333702 31.267056
7.385792 -26.912531 28.04636
7.895966 -22.614115 27.708618
0.834517 9.124304 46.560074
0.149456 6.867369 48.395451
0.177458 2.883316 48.703724
0.095549 -1.133984 48.914165
-1.403191 -1.468626 51.751984
-0.826164 -3.233184 50.331341
-0.09808 -5.161703 49.031197
-0.398054 -9.177349 49.072033
-0.792294 -13.160398 49.066669
-1.262051 -17.093056 49.054893
5.71706 -12.219305 36.577747
6.322441 -11.336948 34.703381
5.964382 -15.822619 35.130562
6.193417 -19.559534 33.590267
6.415211 -23.382164 31.944164
5.29298 -27.991835 34.067577
5.909702 -27.582775 32.176582
6.628376 -27.231647 30.177704
5.028683 12.38685 35.981579
5.78833 9.360037 34.888523
5.815704 4.843996 35.884842
5.758015 0.291698 36.721985
5.625263 -4.263795 37.40332
1.714149 7.249504 45.249672
2.58387 5.155781 44.023293
3.381535 2.830967 42.840836
2.653809 -3.384295 45.004051
3.419182 -1.515099 43.395607
4.068424 0.269915 41.666943
4.63121 -2.525732 40.472992
5.077934 -5.548539 39.237118
5.430576 -8.785883 37.942944
5.188644 -13.237591 38.363823
4.913696 -17.585131 38.693863
4.616852 -21.801647 38.960754
3.901299 -19.848764 41.98381
4.155952 -22.790695 40.630951
4.303017 -25.87068 39.186714
3.968147 -29.788769 39.384178
3.598518 -33.566368 39.553596
3.173855 -37.226517 39.684349
-1.434113 7.478024 53.438976
-1.706152 5.050838 55.18288
-3.343193 -14.636349 52.684776
-3.042198 -16.688305 51.322914
-2.505894 -18.7966 50.124306
-1.782038 -20.960657 49.080658
-5.485359 -34.87899 52.437508
-5.139809 -31.386433 51.890823
-4.683989 -27.807203 51.522156
-3.607601 -26.303139 50.280624
-2.321314 -24.751783 49.185204
-0.941908 -23.176994 48.151501
-0.068657 -25.443434 47.272469
0.755756 -27.763966 46.368805
1.463142 -30.151714 45.370712
-0.224672 -35.028961 46.959145
0.973139 -33.787033 45.644089
2.009243 -32.628071 44.226376
2.379528 -35.217545 42.908909
2.588959 -37.939735 41.415386
2.675167 -40.800987 39.759224
7.004539 -10.585658 32.715889
7.721497 -9.956327 30.590729
3.623911 -38.21645 37.036438
3.411709 -38.439351 37.942704
1.042342 12.222555 45.306194
1.324885 13.351105 44.256935
-3.273789 -45.945847 50.913969
-3.685563 -44.942377 51.416372
-3.703616 -46.543608 51.72533
-2.891488 -46.980112 50.396538
-2.873435 -45.378882 50.08758
-3.273789 -45.945847 50.913969
5.21258 -35.345215 31.444415
4.941944 -37.212586 31.460185
-4.561866 -24.90401 52.004372
-4.292622 -23.084477 51.943945
6.799162 11.099922 31.485135
6.40237 12.817411 32.028632
-2.698751 -6.412076 55.228039
-2.527141 -4.766616 55.333198
-2.664302 -5.650513 56.017322
-2.893576 -8.177955 55.132286
-2.756416 -7.294059 54.448162
-2.698751 -6.412076 55.228039
4.224979 -35.964371 35.204724
4.017186 -37.802055 35.219355
2.696817 10.384253 42.3549
2.549683 12.452138 41.965817
2.241286 11.434857 42.965653
7.680634 -5.647818 30.963296
7.806793 -3.326896 30.56076
7.456116 -3.654624 31.669592
7.736534 -26.758102 26.911285
7.471044 -28.838911 27.050601
-0.202371 7.668074 49.146618
0.085478 8.832694 48.195257
-0.26635 9.633399 48.946424
6.444691 -31.178368 29.320092
6.722919 -29.136674 29.226965
6.350147 -29.273342 30.270831
3.885992 14.217079 38.168575
3.4212 15.424871 38.736591
-1.399744 9.315786 53.432077
-1.253462 8.686206 52.503828
-1.662888 5.569393 56.153404
-1.621814 6.846576 55.268219
-1.788966 3.83972 55.977027
-1.662888 5.569393 56.153404
-3.879257 -17.292137 53.316848
-4.139278 -19.103269 53.289133
-3.609862 -16.485938 52.631633
-3.612589 -15.442548 53.369991
-3.879257 -17.292137 53.316848
7.792425 5.607241 29.722704
7.490503 7.489146 30.335808
7.449882 5.186534 30.906252
8.231245 -11.741237 28.649166
8.062672 -9.697717 29.452692
7.89007 -11.999847 29.787203
8.114933 -20.394412 27.477682
8.214306 -22.447833 26.54387
-2.37866 -3.39357 56.902542
-2.330828 -2.36656 56.270811
-2.216795 -1.755077 57.050871
-2.528878 -4.847933 56.769128
-2.37866 -3.39357 56.902542
-2.664302 -5.650513 56.017322
-2.528878 -4.847933 56.769128
3.819933 -37.976742 36.138146
3.826546 -36.394417 37.01558
3.623911 -38.21645 37.036438
4.017186 -37.802055 35.219355
3.819933 -37.976742 36.138146
1.789451 12.42367 43.597931
1.324885 13.351105 44.256935
1.936586 10.355785 43.987015
2.241286 11.434857 42.965653
1.789451 12.42367 43.597931
5.457874 -33.415681 31.400367
5.157892 -33.541665 32.375393
5.21258 -35.345215 31.444415
5.79224 -33.267134 30.416674
5.737552 -31.463584 31.347651
5.457874 -33.415681 31.400367
6.142696 -33.151163 29.38802
5.79224 -33.267134 30.416674
-4.152778 -20.17455 52.571424
-4.139278 -19.103269 53.289133
-4.012724 -21.229057 51.917126
-3.736476 -19.390034 51.924193
-4.152778 -20.17455 52.571424
-3.87632 -22.299961 51.296713
-4.012724 -21.229057 51.917126
-4.292622 -23.084477 51.943945
8.079544 3.63798 29.089762
8.006528 1.319009 29.623341
4.417982 -34.08294 35.157427
4.215571 -34.273277 36.069991
4.224979 -35.964371 35.204724
4.63979 -33.868105 34.249508
4.63038 -32.177011 35.114775
4.417982 -34.08294 35.157427
4.669994 -35.622616 33.355801
4.882393 -33.716688 33.313148
4.63979 -33.868105 34.249508
4.679232 -37.323811 32.431742
4.669994 -35.622616 33.355801
4.941944 -37.212586 31.460185
4.679232 -37.323811 32.431742
3.133213 14.448158 39.849403
3.4212 15.424871 38.736591
2.840071 13.486695 40.896896
2.549683 12.452138 41.965817
3.298357 12.362996 40.307571
3.133213 14.448158 39.849403
2.840071 13.486695 40.896896
-5.704899 -39.908333 53.581715
-5.958734 -38.873779 54.059378
-5.975964 -40.51178 54.488604
7.921764 -1.000158 30.110295
8.006528 1.319009 29.623341
7.667039 0.985464 30.780102
7.921764 -1.000158 30.110295
7.806793 -3.326896 30.56076
7.991621 -24.608895 26.742415
7.640879 -24.763323 27.877489
7.736534 -26.758102 26.911285
8.214306 -22.447833 26.54387
7.991621 -24.608895 26.742415
0.428008 9.961161 47.277569
0.717224 11.112409 46.276584
0.491986 7.995837 47.477762
0.428008 9.961161 47.277569
0.085478 8.832694 48.195257
-5.943225 -42.105325 54.983141
-5.975964 -40.51178 54.488604
-5.6485 -43.120662 54.494406
-5.943225 -42.105325 54.983141
-5.272979 -44.125406 54.052482
-5.346609 -42.551076 53.569018
-5.6485 -43.120662 54.494406
-4.87939 -45.114629 53.57394
-5.272979 -44.125406 54.052482
-4.451541 -46.106789 53.12426
-4.543238 -44.547979 52.677414
-4.87939 -45.114629 53.57394
-4.031511 -47.092178 52.615313
-4.451541 -46.106789 53.12426
-3.703616 -46.543608 51.72533
-4.031511 -47.092178 52.615313
7.101628 -28.977116 28.161293
7.007084 -27.072089 29.112032
6.722919 -29.136674 29.226965
7.471044 -28.838911 27.050601
7.101628 -28.977116 28.161293
6.444691 -31.178368 29.320092
6.142696 -33.151163 29.38802
6.061882 12.197643 33.198341
6.40237 12.817411 32.028632
4.30386 12.948728 37.604374
3.885992 14.217079 38.168575
4.009367 12.056107 38.695877
4.604584 13.748275 36.529325
4.30386 12.948728 37.604374
4.727959 11.587303 37.056628
4.914131 14.560969 35.395128
4.604584 13.748275 36.529325
5.349464 13.099806 34.860724
4.914131 14.560969 35.395128
5.729288 11.5864 34.314195
5.349464 13.099806 34.860724
5.408506 10.873444 35.435051
6.120924 9.97128 33.772669
6.061882 12.197643 33.198341
5.729288 11.5864 34.314195
1.159634 10.234451 45.589683
1.042342 12.222555 45.306194
0.717224 11.112409 46.276584
3.183375 -38.735546 38.827942
3.411709 -38.439351 37.942704
3.402189 -36.930321 38.79911
-0.601326 10.380039 49.743997
-0.26635 9.633399 48.946424
-0.813505 9.181583 50.733232
-0.601326 10.380039 49.743997
-1.08504 8.011699 51.633959
-0.825734 7.298895 50.798512
-0.813505 9.181583 50.733232
-1.265691 6.803517 52.569107
-1.08504 8.011699 51.633959
-1.253462 8.686206 52.503828
-1.485794 8.060168 54.396267
-1.399744 9.315786 53.432077
-1.570132 6.264431 54.310928
-1.485794 8.060168 54.396267
-1.621814 6.846576 55.268219
-1.903754 2.061914 55.873373
-1.82094 3.273032 55.079225
-1.788966 3.83972 55.977027
-2.020372 0.950268 56.595157
-2.052346 0.383579 55.697356
-1.903754 2.061914 55.873373
-2.050702 -0.245664 57.2889
-2.020372 0.950268 56.595157
-2.216795 -1.755077 57.050871
-2.050702 -0.245664 57.2889
-3.081487 -9.871255 55.057804
-2.893576 -8.177955 55.132286
-3.172157 -10.848385 54.268223
-3.081487 -9.871255 55.057804
-3.123706 -11.785219 53.512043
-2.902789 -9.996771 53.596229
-3.172157 -10.848385 54.268223
-3.368133 -13.636591 53.434406
-3.612589 -15.442548 53.369991
-3.098765 -12.784977 52.762413
-3.123706 -11.785219 53.512043
-3.368133 -13.636591 53.434406
-5.902821 -37.217941 53.637526
-5.958734 -38.873779 54.059378
-5.801666 -35.52227 53.280035
-5.902821 -37.217941 53.637526
-5.586514 -36.574661 52.794999
-5.667415 -33.812397 52.945616
-5.801666 -35.52227 53.280035
-5.49464 -32.066119 52.672274
-5.667415 -33.812397 52.945616
-5.312584 -33.132711 52.164165
-5.296894 -30.31106 52.433012
-5.49464 -32.066119 52.672274
-5.068984 -28.521445 52.248678
-5.296894 -30.31106 52.433012
-4.911899 -29.596818 51.70649
-4.825752 -26.729922 52.103684
-5.068984 -28.521445 52.248678
-4.420103 -25.981292 51.422844
-4.561866 -24.90401 52.004372
-4.825752 -26.729922 52.103684
2.93403 -40.522782 38.86538
3.183375 -38.735546 38.827942
2.924511 -39.013752 39.721787
-2.546229 -48.022054 49.804331
-2.891488 -46.980112 50.396538
-2.19588 -47.499832 48.944016
-2.546229 -48.022054 49.804331
-1.74213 -46.934799 48.154856
-2.037383 -45.848114 48.780989
-2.19588 -47.499832 48.944016
-1.344842 -46.42516 47.316578
-1.74213 -46.934799 48.154856
-0.863112 -45.881487 46.537166
-1.101904 -44.739408 47.212418
-1.344842 -46.42516 47.316578
-0.439325 -45.402075 45.700653
-0.863112 -45.881487 46.537166
0.040887 -44.896264 44.908224
-0.139962 -43.689925 45.640577
-0.439325 -45.402075 45.700653
0.465795 -44.46102 44.05929
0.040887 -44.896264 44.908224
0.914848 -44.005316 43.240063
0.789304 -42.728409 44.028921
0.465795 -44.46102 44.05929
1.314479 -43.623306 42.372242
0.914848 -44.005316 43.240063
1.708012 -43.225147 41.522617
1.63189 -41.874546 42.360069
1.314479 -43.623306 42.372242
2.06073 -42.900387 40.636185
1.708012 -43.225147 41.522617
2.385602 -42.562687 39.760575
2.350295 -41.138687 40.634834
2.06073 -42.900387 40.636185
2.680737 -42.294731 38.859394
2.385602 -42.562687 39.760575
2.93403 -40.522782 38.86538
2.680737 -42.294731 38.859394
7.146383 9.34288 30.916406
6.799162 11.099922 31.485135
6.800739 8.825481 32.088085
7.146383 9.34288 30.916406
7.490503 7.489146 30.335808
7.792425 5.607241 29.722704
8.079544 3.63798 29.089762
7.876404 -7.638208 30.222597
7.680634 -5.647818 30.963296
7.525727 -7.965937 31.331429
7.876404 -7.638208 30.222597
8.062672 -9.697717 29.452692
7.987051 -18.371646 28.37625
7.768084 -20.591349 28.607185
8.114933 -20.394412 27.477682
8.196271 -16.109037 28.115212
7.849423 -16.305975 29.244715
7.987051 -18.371646 28.37625
8.376219 -13.83762 27.814473
8.196271 -16.109037 28.115212
8.231245 -11.741237 28.649166
8.376219 -13.83762 27.814473
3 223 222 58
3 224 60 225
3 1 63 61
3 1 65 63
3 226 68 227
3 228 227 66
3 226 227 228
3 229 70 230
3 231 230 68
3 229 230 231
3 0 73 71
3 2 76 74
3 4 79 77
3 4 81 79
3 5 84 82
3 233 232 85
3 8 89 87
3 8 91 89
3 3 94 92
3 9 97 95
3 9 99 97
3 9 101 99
3 10 104 102
3 10 106 104
3 234 108 235
3 11 111 109
3 11 113 111
3 11 115 113
3 12 118 116
3 12 120 118
3 7 236 237
3 6 123 121
3 13 126 124
3 238 127 239
3 240 239 57
3 238 239 240
3 241 128 242
3 243 242 127
3 241 242 243
3 15 131 129
3 245 244 59
3 18 246 248
3 246 132 247
3 246 247 248
3 18 133 132
3 19 136 134
3 21 137 62
3 21 138 137
3 21 140 138
3 23 141 64
3 23 142 141
3 24 145 143
3 26 146 67
3 26 147 146
3 26 149 147
3 28 150 69
3 28 151 150
3 29 154 152
3 31 155 72
3 31 249 251
3 251 250 155
3 249 250 251
3 253 252 156
3 32 254 256
3 254 159 255
3 254 255 256
3 34 160 75
3 34 161 160
3 14 162 125
3 35 163 78
3 35 164 163
3 35 165 164
3 36 166 80
3 36 167 166
3 37 170 168
3 39 171 83
3 39 172 171
3 16 173 130
3 40 174 86
3 40 175 174
3 40 257 259
3 259 258 175
3 257 258 259
3 17 260 261
3 41 176 88
3 41 177 176
3 41 178 177
3 42 179 90
3 42 180 179
3 33 181 158
3 43 182 93
3 43 183 182
3 20 184 135
3 44 185 96
3 44 186 185
3 44 187 186
3 45 188 98
3 45 189 188
3 45 190 189
3 46 191 100
3 46 192 191
3 22 193 139
3 47 194 103
3 47 195 194
3 47 196 195
3 48 197 105
3 48 198 197
3 262 199 263
3 264 200 265
3 267 266 200
3 49 268 269
3 49 270 272
3 270 201 271
3 270 271 272
3 49 202 201
3 50 203 107
3 50 204 203
3 25 205 144
3 51 206 110
3 51 207 206
3 51 208 207
3 52 209 112
3 52 210 209
3 52 211 210
3 53 212 114
3 53 213 212
3 27 214 148
3 54 215 117
3 54 216 215
3 54 217 216
3 55 218 119
3 55 219 218
3 30 273 275
3 275 274 153
3 273 274 275
3 38 220 169
3 56 221 122
3 56 276 278
3 278 277 221
3 276 277 278
3 280 279 157
3 281 57 282
3 283 282 13
3 281 282 283
3 284 57 285
3 287 286 57
3 58 59 15
3 288 59 289
3 290 289 58
3 288 289 290
3 292 291 59
3 60 293 294
3 60 295 297
3 295 18 296
3 295 296 297
3 61 62 19
3 63 62 61
3 63 21 62
3 63 64 21
3 65 64 63
3 65 23 64
3 66 67 24
3 68 67 66
3 68 26 67
3 68 69 26
3 70 69 68
3 70 28 69
3 71 72 29
3 73 72 71
3 73 31 72
3 74 75 32
3 76 75 74
3 76 34 75
3 77 78 14
3 79 78 77
3 79 35 78
3 79 80 35
3 81 80 79
3 81 36 80
3 82 83 37
3 84 83 82
3 84 39 83
3 85 86 16
3 298 86 299
3 300 299 85
3 298 299 300
3 301 40 302
3 303 302 86
3 301 302 303
3 305 304 40
3 87 88 17
3 89 88 87
3 89 41 88
3 89 90 41
3 91 90 89
3 91 42 90
3 92 93 33
3 94 93 92
3 94 43 93
3 95 96 20
3 97 96 95
3 97 44 96
3 97 98 44
3 99 98 97
3 99 45 98
3 99 100 45
3 101 100 99
3 101 46 100
3 102 103 22
3 104 103 102
3 104 47 103
3 104 105 47
3 106 105 104
3 106 48 105
3 306 49 307
3 308 107 309
3 310 309 49
3 308 309 310
3 108 311 313
3 311 107 312
3 311 312 313
3 108 50 107
3 109 110 25
3 111 110 109
3 111 51 110
3 111 112 51
3 113 112 111
3 113 52 112
3 113 114 52
3 115 114 113
3 115 53 114
3 116 117 27
3 118 117 116
3 118 54 117
3 118 119 54
3 120 119 118
3 120 55 119
3 315 314 30
3 121 122 38
3 123 122 121
3 123 56 122
3 124 125 2
3 126 125 124
3 126 14 125
3 57 126 13
3 127 126 57
3 127 14 126
3 127 77 14
3 128 77 127
3 128 4 77
3 129 130 5
3 131 130 129
3 131 16 130
3 59 131 15
3 316 131 317
3 318 317 59
3 316 317 318
3 319 16 320
3 321 320 131
3 319 320 321
3 322 85 323
3 324 323 16
3 322 323 324
3 325 85 326
3 328 327 85
3 329 17 330
3 132 331 332
3 132 333 335
3 333 17 334
3 333 334 335
3 132 87 17
3 133 87 132
3 133 8 87
3 134 135 3
3 136 135 134
3 136 20 135
3 62 136 19
3 137 136 62
3 137 20 136
3 137 95 20
3 138 95 137
3 138 9 95
3 138 139 9
3 140 139 138
3 140 22 139
3 64 140 21
3 141 140 64
3 141 22 140
3 141 102 22
3 142 102 141
3 142 10 102
3 143 336 338
3 336 144 337
3 336 337 338
3 145 144 143
3 145 25 144
3 67 145 24
3 146 145 67
3 146 25 145
3 146 109 25
3 147 109 146
3 147 11 109
3 147 148 11
3 149 148 147
3 149 27 148
3 69 149 26
3 150 149 69
3 150 27 149
3 150 116 27
3 151 116 150
3 151 12 116
3 152 153 7
3 154 153 152
3 154 30 153
3 72 154 29
3 155 154 72
3 155 30 154
3 155 339 341
3 341 340 30
3 339 340 341
3 343 342 155
3 156 157 6
3 344 157 345
3 346 345 156
3 344 345 346
3 348 347 157
3 349 158 350
3 159 351 353
3 351 158 352
3 351 352 353
3 159 33 158
3 75 159 32
3 160 159 75
3 160 33 159
3 160 92 33
3 161 92 160
3 161 3 92
3 125 76 2
3 162 76 125
3 162 34 76
3 78 162 14
3 163 162 78
3 163 34 162
3 163 161 34
3 164 161 163
3 164 3 161
3 164 134 3
3 165 134 164
3 165 19 134
3 80 165 35
3 166 165 80
3 166 19 165
3 166 61 19
3 167 61 166
3 167 1 61
3 354 143 355
3 356 143 357
3 358 24 359
3 360 359 143
3 358 359 360
3 361 24 362
3 363 66 364
3 365 364 24
3 363 364 365
3 366 66 367
3 369 368 66
3 168 169 0
3 170 169 168
3 170 38 169
3 83 170 37
3 171 170 83
3 171 38 170
3 171 121 38
3 172 121 171
3 172 6 121
3 130 84 5
3 173 84 130
3 173 39 84
3 86 173 16
3 174 173 86
3 174 39 173
3 174 172 39
3 175 172 174
3 175 6 172
3 175 156 6
3 370 156 371
3 372 371 175
3 370 371 372
3 374 373 156
3 376 375 40
3 377 7 378
3 88 379 381
3 381 380 17
3 379 380 381
3 176 382 384
3 384 383 88
3 382 383 384
3 176 385 386
3 176 387 388
3 177 389 391
3 391 390 176
3 389 390 391
3 177 392 394
3 392 7 393
3 392 393 394
3 177 152 7
3 178 152 177
3 178 29 152
3 90 178 41
3 179 178 90
3 179 29 178
3 179 71 29
3 180 71 179
3 180 0 71
3 158 395 397
3 395 60 396
3 395 396 397
3 181 60 158
3 181 18 60
3 93 181 33
3 182 181 93
3 182 18 181
3 182 133 18
3 183 133 182
3 183 8 133
3 135 94 3
3 184 94 135
3 184 43 94
3 96 184 20
3 185 184 96
3 185 43 184
3 185 183 43
3 186 183 185
3 186 8 183
3 186 91 8
3 187 91 186
3 187 42 91
3 98 187 44
3 188 187 98
3 188 42 187
3 188 180 42
3 189 180 188
3 189 0 180
3 189 168 0
3 190 168 189
3 190 37 168
3 100 190 45
3 191 190 100
3 191 37 190
3 191 82 37
3 192 82 191
3 192 5 82
3 139 101 9
3 193 101 139
3 193 46 101
3 103 193 22
3 194 193 103
3 194 46 193
3 194 192 46
3 195 192 194
3 195 5 192
3 195 129 5
3 196 129 195
3 196 15 129
3 105 196 47
3 197 196 105
3 197 15 196
3 197 58 15
3 198 58 197
3 198 398 400
3 400 399 58
3 398 399 400
3 401 32 402
3 403 32 404
3 405 74 406
3 407 406 32
3 405 406 407
3 199 408 410
3 408 74 409
3 408 409 410
3 199 2 74
3 411 199 412
3 200 413 415
3 413 199 414
3 413 414 415
3 200 2 199
3 200 124 2
3 416 124 417
3 418 417 200
3 416 417 418
3 419 13 420
3 421 420 124
3 419 420 421
3 422 13 423
3 425 424 13
3 426 128 427
3 428 128 429
3 430 4 431
3 432 431 128
3 430 431 432
3 201 433 434
3 201 435 437
3 435 4 436
3 435 436 437
3 201 81 4
3 202 81 201
3 202 36 81
3 107 202 49
3 203 202 107
3 203 36 202
3 203 167 36
3 204 167 203
3 204 1 167
3 144 438 439
3 205 440 442
3 442 441 144
3 440 441 442
3 205 443 444
3 110 205 25
3 206 205 110
3 206 445 447
3 447 446 205
3 445 446 447
3 206 448 449
3 207 450 452
3 452 451 206
3 450 451 452
3 207 453 454
3 207 455 457
3 455 108 456
3 455 456 457
3 208 108 207
3 208 50 108
3 112 208 51
3 209 208 112
3 209 50 208
3 209 204 50
3 210 204 209
3 210 1 204
3 210 65 1
3 211 65 210
3 211 23 65
3 114 211 52
3 212 211 114
3 212 23 211
3 212 142 23
3 213 142 212
3 213 10 142
3 148 115 11
3 214 115 148
3 214 53 115
3 117 214 27
3 215 214 117
3 215 53 214
3 215 213 53
3 216 213 215
3 216 10 213
3 216 106 10
3 217 106 216
3 217 48 106
3 119 217 54
3 218 217 119
3 218 48 217
3 218 198 48
3 219 198 218
3 219 458 460
3 460 459 198
3 458 459 460
3 461 70 462
3 463 70 464
3 465 28 466
3 467 466 70
3 465 466 467
3 468 28 469
3 470 151 471
3 472 471 28
3 470 471 472
3 473 151 474
3 475 12 476
3 477 476 151
3 475 476 477
3 478 12 479
3 480 120 481
3 482 481 12
3 480 481 482
3 483 120 484
3 485 55 486
3 487 486 120
3 485 486 487
3 488 55 489
3 490 219 491
3 492 491 55
3 490 491 492
3 493 219 494
3 496 495 219
3 153 497 499
3 499 498 7
3 497 498 499
3 501 500 153
3 503 502 30
3 169 73 0
3 220 73 169
3 220 31 73
3 122 220 38
3 221 220 122
3 221 31 220
3 221 504 506
3 506 505 31
3 504 505 506
3 508 507 221
3 157 123 6
3 509 123 510
3 511 510 157
3 509 510 511
3 512 56 513
3 514 513 123
3 512 513 514
3 515 56 516
3 518 517 56
