ply
format ascii 1.0
element vertex 425
property float x
property float y
property float z
element face 462
property list uchar int vertex_index
end_header
5.51931 27.925911 26.882267
0.599932 13.100513 45.993095
-1.320612 43.338524 39.24865
2.835175 21.626522 37.068356
5.996712 46.090199 7.061603
3.484844 43.662945 19.576954
-0.780308 52.059643 25.521458
0.837196 37.18626 31.773525
-0.755529 28.28548 43.049576
-1.349445 18.456566 53.21122
6.953442 29.848137 21.384491
7.547474 21.333427 24.847305
1.716337 17.547356 41.703934
4.879776 45.456074 13.303198
-1.142218 51.175541 36.977783
-1.199747 47.994343 32.503166
-0.070536 44.671894 28.762617
-0.801781 40.420868 35.141296
-0.10317 32.921547 37.545689
-1.215002 35.725754 41.263435
-1.298092 25.73938 52.725452
-1.234495 38.341412 45.719856
4.093853 25.142521 32.121613
6.157364 19.438412 30.007553
4.79958 16.735088 34.808678
6.065094 37.92791 17.524588
4.606735 36.010853 23.389292
0.974173 48.21944 22.182144
2.067709 40.843422 25.762974
3.142323 33.162323 29.083796
1.856918 29.546383 34.546524
0.807287 25.362377 39.738136
-0.062035 20.814526 44.634251
-1.364536 30.804504 47.123985
-1.166405 23.450859 48.28093
-0.803869 16.057957 49.213287
-1.365374 11.153549 53.425179
6.250172 29.001095 24.16185
7.287968 25.639622 23.167736
6.595768 24.795059 25.86755
1.165018 15.357613 43.894577
2.094152 13.502743 42.576569
-1.257505 47.23341 38.145744
-1.302853 49.592693 34.653896
-1.292267 45.723866 35.909454
-1.038538 44.19519 33.852306
-1.21015 41.896347 37.10321
-1.045319 38.113129 38.235741
-1.311373 39.502815 40.286903
3.44083 23.466412 34.632549
4.484684 20.988747 33.516083
3.848007 19.338211 35.904877
4.200966 44.697578 16.444555
5.509666 41.769287 15.454922
4.806076 40.963116 18.498789
5.351448 37.094372 20.473358
4.068527 39.894047 21.521128
-0.445686 53.792248 21.972271
0.450701 51.79269 20.310604
-0.037642 50.196339 23.754223
0.362598 40.942715 30.298248
0.906322 42.852737 27.174282
1.419853 39.105896 28.794781
2.613262 37.04208 27.457111
1.945951 35.304108 30.352482
2.470272 31.438431 31.84705
1.341068 33.392544 33.189461
-0.462465 30.636669 40.331696
0.336805 29.161869 38.667736
-0.069937 26.898567 41.302917
0.355087 23.122383 42.22435
-0.423185 24.569054 43.866875
-1.140291 35.770844 48.855972
-1.341909 34.538498 46.455017
-1.287367 31.998848 49.44392
-1.343479 22.092247 53.004673
-1.351017 24.627422 50.406071
-1.287954 20.977318 50.788807
-0.988728 19.772572 48.775238
-1.197617 17.315823 51.110329
-1.114904 13.624199 51.371067
-1.346115 14.813503 53.350155
6.351223 15.052299 31.400448
7.049313 16.096043 28.95826
2.266537 19.645378 39.426765
3.2509 17.525284 38.213104
2.674927 15.571857 40.438728
5.488358 45.923641 10.169037
3.542217 48.28632 14.323052
2.863472 47.309925 17.564339
-0.996347 55.141407 35.746914
-1.256418 53.489468 33.339748
-1.291349 51.813213 31.096909
-1.031555 50.117016 29.03673
-0.453808 48.37788 27.168121
-0.787977 46.366817 30.537983
-0.477789 42.618145 31.981834
-0.103258 38.870178 33.366058
0.328869 35.114563 34.69212
-0.487944 36.667427 36.371284
-0.793823 34.366085 39.310425
-1.026831 31.994434 42.18277
-1.192297 29.421524 52.368011
-1.187975 23.127865 55.407425
-1.276131 19.493439 55.507694
0.0215 10.798018 47.995064
-0.803341 52.729877 39.451927
-1.171267 44.767246 41.566345
-1.297503 40.869263 42.518349
-1.058416 42.222801 44.914303
4.791893 26.634811 29.537266
5.877296 23.731228 28.496151
5.165127 22.458244 31.04653
5.460949 18.182686 32.453232
5.670246 13.812763 33.739868
4.180485 15.109699 37.077072
6.545902 33.948757 19.502514
5.833855 33.103516 22.362211
5.092831 32.019993 25.177635
1.582621 49.654194 18.845686
2.178293 46.06348 20.795679
0.416931 46.54929 25.492264
1.51754 44.569206 24.003128
2.763981 42.370853 22.686956
3.328236 38.580029 24.510496
3.861336 34.693768 26.262241
4.353104 30.712582 27.939445
3.641075 29.198284 30.640593
2.975143 27.496716 33.276001
2.362926 25.62991 35.841988
0.80505 31.335583 35.962498
1.304501 27.512188 37.177979
1.801029 23.621822 38.335472
1.277754 21.497452 40.753204
0.778301 19.28149 43.091507
0.290974 16.996628 45.346451
-1.352205 37.043194 43.403374
-1.318937 33.284061 44.225471
-1.193993 29.574284 44.989414
-1.356884 28.292076 49.959179
-1.301085 27.118149 47.731277
-0.988871 25.886883 45.6996
-0.729023 22.190594 46.358528
-0.44924 18.4561 46.965229
-0.187393 14.661858 47.514107
-0.648453 12.2913 49.59021
-1.072811 9.894388 51.56868
-1.537476 8.642313 55.353558
6.864407 20.491405 27.470757
1.042342 12.222555 45.306194
1.324885 13.351105 44.256935
0.882475 14.229063 44.943836
6.188957 46.020802 5.532635
5.792435 47.692654 4.357737
5.600189 47.762051 5.886705
6.556672 44.287521 6.706091
6.188957 46.020802 5.532635
6.344038 44.314316 8.211607
6.556672 44.287521 6.706091
-0.911695 53.88601 24.678618
-0.994232 52.961346 26.503616
-0.612997 52.925945 23.746865
-0.744385 54.752312 22.904025
-0.911695 53.88601 24.678618
-1.153643 32.579954 50.685671
-1.213829 33.884846 49.149946
-1.080105 34.465952 50.391697
6.799162 11.099922 31.485135
6.748015 13.33481 30.856952
6.40237 12.817411 32.028632
7.437396 28.052536 20.896514
7.275978 30.152621 19.973262
7.859108 21.64584 23.497803
7.729355 23.798937 22.658019
7.417721 23.486525 24.00752
7.94718 19.45259 24.312025
7.859108 21.64584 23.497803
2.549683 12.452138 41.965817
2.241286 11.434857 42.965653
2.879072 49.557496 14.910495
3.191948 50.003968 13.239272
2.5397 49.069298 16.531138
3.202844 47.798123 15.943696
2.879072 49.557496 14.910495
-1.106996 21.779613 56.692285
-1.035562 23.605442 56.68713
-1.151073 19.962401 56.74242
-1.232053 21.310652 55.45756
-1.106996 21.779613 56.692285
-1.211689 18.149853 56.695678
-1.151073 19.962401 56.74242
0.085478 8.832694 48.195257
-0.26635 9.633399 48.946424
-0.600032 53.473613 40.745632
-0.708857 54.733562 38.869814
-1.005593 45.472637 42.800506
-1.084458 46.747757 41.055494
-0.949167 44.200414 44.474486
-1.114842 43.495024 43.240324
-1.005593 45.472637 42.800506
3.885992 14.217079 38.168575
3.715693 16.317491 37.645088
3.4212 15.424871 38.736591
5.513775 43.877018 12.853314
5.818066 44.110802 11.286234
5.184067 45.689858 11.736117
6.391184 38.212906 16.039991
6.11347 40.133595 15.005159
5.78738 39.848598 16.489755
6.632048 36.235859 17.067478
6.391184 38.212906 16.039991
6.305498 35.938333 18.513551
6.872452 34.246282 18.056441
6.632048 36.235859 17.067478
-1.399744 9.315786 53.432077
-1.253462 8.686206 52.503828
-1.219092 10.523968 52.49693
-1.57855 7.36513 56.238743
-1.47945 9.132408 56.397337
-1.662888 5.569393 56.153404
-1.621814 6.846576 55.268219
-1.57855 7.36513 56.238743
7.388623 16.516724 27.686127
7.436897 14.277708 28.406267
1.789451 12.42367 43.597931
1.629585 14.430178 43.235573
1.324885 13.351105 44.256935
2.241286 11.434857 42.965653
1.789451 12.42367 43.597931
-0.619911 55.563313 21.068845
-0.744385 54.752312 22.904025
-0.241235 54.540066 20.189495
-0.415459 56.311131 19.286069
-0.619911 55.563313 21.068845
0.002507 52.792469 21.141438
0.206959 53.540287 19.358662
-0.241235 54.540066 20.189495
7.09706 13.856682 29.635858
6.700268 15.574171 30.179354
6.748015 13.33481 30.856952
7.436897 14.277708 28.406267
7.09706 13.856682 29.635858
7.604659 25.948279 21.788137
7.437396 28.052536 20.896514
7.120705 27.743879 22.276114
7.604659 25.948279 21.788137
7.729355 23.798937 22.658019
3.133213 14.448158 39.849403
3.4212 15.424871 38.736591
2.962913 16.548571 39.325916
2.840071 13.486695 40.896896
2.384539 14.5373 41.507649
2.549683 12.452138 41.965817
3.133213 14.448158 39.849403
2.840071 13.486695 40.896896
5.370436 47.724907 7.469295
5.600189 47.762051 5.886705
5.116259 47.641628 9.023013
5.742535 46.00692 8.61532
5.370436 47.724907 7.469295
4.834395 47.448929 10.628404
5.116259 47.641628 9.023013
4.530103 47.215145 12.195485
5.184067 45.689858 11.736117
4.834395 47.448929 10.628404
3.861324 48.630268 12.705412
3.191948 50.003968 13.239272
4.210997 46.871197 13.813125
4.530103 47.215145 12.195485
3.861324 48.630268 12.705412
-1.082416 56.266541 33.860261
-0.918934 57.119388 35.101818
-1.212452 55.440571 32.656678
-1.082416 56.266541 33.860261
-1.126383 54.315438 34.543331
-1.288731 54.564133 31.490565
-1.212452 55.440571 32.656678
-1.306196 53.726005 30.369146
-1.288731 54.564133 31.490565
-1.273884 52.651341 32.218328
-1.249752 52.838131 29.291342
-1.306196 53.726005 30.369146
-1.119855 51.990032 28.261252
-1.249752 52.838131 29.291342
-1.161452 50.965114 30.06682
-0.905932 51.08833 27.279094
-0.994232 52.961346 26.503616
-1.119855 51.990032 28.261252
-1.033627 29.961914 53.648151
-1.106108 31.291292 52.147717
-1.12497 28.106383 53.792324
-1.033627 29.961914 53.648151
-1.177868 26.26531 53.971044
-1.245194 27.580452 52.546731
-1.12497 28.106383 53.792324
-1.12281 24.959553 55.312031
-1.035562 23.605442 56.68713
-1.243034 24.433622 54.066439
-1.177868 26.26531 53.971044
-1.12281 24.959553 55.312031
-1.310546 17.682499 55.516873
-1.347203 17.164062 54.368635
-1.312788 18.975002 54.359457
-1.310546 17.682499 55.516873
-1.211689 18.149853 56.695678
0.428008 9.961161 47.277569
0.717224 11.112409 46.276584
0.310716 11.949265 46.994079
0.428008 9.961161 47.277569
0.085478 8.832694 48.195257
-0.80536 55.939327 37.017308
-0.918934 57.119388 35.101818
-0.899844 53.935642 37.59942
-0.80536 55.939327 37.017308
-0.708857 54.733562 38.869814
-0.706372 51.458691 41.26473
-0.600032 53.473613 40.745632
-0.900496 50.729073 39.998285
-0.706372 51.458691 41.26473
-1.069934 49.951904 38.761213
-0.972779 51.952709 38.214855
-0.900496 50.729073 39.998285
-1.127578 47.980839 39.345194
-1.199861 49.204476 37.561763
-1.069934 49.951904 38.761213
-1.214386 46.000328 39.856044
-1.127578 47.980839 39.345194
-1.084458 46.747757 41.055494
-0.870225 42.88664 46.180544
-0.949167 44.200414 44.474486
-0.994061 40.922104 46.552883
-0.870225 42.88664 46.180544
-1.082101 38.981409 46.955659
-1.146456 40.282106 45.317079
-0.994061 40.922104 46.552883
-1.034999 37.696125 48.523718
-1.187393 37.056128 47.287914
-1.082101 38.981409 46.955659
-0.965909 36.372139 50.127943
-1.034999 37.696125 48.523718
-1.080105 34.465952 50.391697
-0.965909 36.372139 50.127943
6.061882 12.197643 33.198341
6.40237 12.817411 32.028632
6.010734 14.432531 32.570158
4.30386 12.948728 37.604374
3.885992 14.217079 38.168575
4.604584 13.748275 36.529325
4.30386 12.948728 37.604374
4.914131 14.560969 35.395128
4.490032 15.922394 35.942875
4.604584 13.748275 36.529325
5.349464 13.099806 34.860724
5.234913 15.273926 34.274273
4.914131 14.560969 35.395128
5.729288 11.5864 34.314195
5.349464 13.099806 34.860724
6.061882 12.197643 33.198341
5.729288 11.5864 34.314195
1.042342 12.222555 45.306194
0.717224 11.112409 46.276584
6.089861 44.231037 9.765324
6.344038 44.314316 8.211607
5.742535 46.00692 8.61532
6.089861 44.231037 9.765324
5.818066 44.110802 11.286234
5.82872 42.033625 13.929177
5.513775 43.877018 12.853314
5.194721 43.61268 14.37906
5.82872 42.033625 13.929177
6.11347 40.133595 15.005159
7.072209 32.202931 19.032274
6.872452 34.246282 18.056441
6.749672 31.898447 20.443503
7.275978 30.152621 19.973262
7.072209 32.202931 19.032274
0.721477 52.466583 18.582107
0.206959 53.540287 19.358662
1.287437 51.397335 17.849649
0.721477 52.466583 18.582107
1.016661 50.723442 19.578145
1.899274 50.241433 17.171812
1.287437 51.397335 17.849649
2.223046 48.482059 18.205013
2.5397 49.069298 16.531138
1.899274 50.241433 17.171812
-1.239832 30.710186 50.905966
-1.153643 32.579954 50.685671
-1.106108 31.291292 52.147717
-0.601326 10.380039 49.743997
-0.26635 9.633399 48.946424
-0.313476 11.544659 48.792637
-0.813505 9.181583 50.733232
-0.601326 10.380039 49.743997
-0.860632 11.092844 50.579445
-1.08504 8.011699 51.633959
-0.813505 9.181583 50.733232
-1.08504 8.011699 51.633959
-1.253462 8.686206 52.503828
-1.345538 15.342531 54.438103
-1.34778 16.635034 53.280687
-1.347203 17.164062 54.368635
-1.38464 13.533562 54.410874
-1.345538 15.342531 54.438103
-1.39427 11.703584 54.448386
-1.355745 12.983526 53.387667
-1.38464 13.533562 54.410874
-1.480321 10.447966 55.412575
-1.47945 9.132408 56.397337
-1.451425 9.897931 54.389369
-1.39427 11.703584 54.448386
-1.480321 10.447966 55.412575
-1.485794 8.060168 54.396267
-1.399744 9.315786 53.432077
-1.451425 9.897931 54.389369
-1.485794 8.060168 54.396267
-1.621814 6.846576 55.268219
7.296169 18.714405 26.942375
6.95686 18.293724 28.214509
7.388623 16.516724 27.686127
7.637703 19.135416 25.630649
7.205941 20.912416 26.159031
7.296169 18.714405 26.942375
7.94718 19.45259 24.312025
7.637703 19.135416 25.630649
3 0 39 37
3 1 149 151
3 151 150 40
3 149 150 151
3 2 44 42
3 2 46 44
3 2 48 46
3 3 51 49
3 4 152 154
3 152 153 154
3 4 155 156
3 4 157 158
3 5 54 52
3 5 56 54
3 6 159 160
3 6 161 163
3 161 57 162
3 161 162 163
3 6 59 57
3 7 62 60
3 7 64 62
3 7 66 64
3 8 69 67
3 8 71 69
3 164 74 165
3 166 165 72
3 164 165 166
3 9 77 75
3 9 79 77
3 9 81 79
3 169 168 82
3 167 168 169
3 10 170 171
3 11 172 174
3 174 173 38
3 172 173 174
3 11 175 176
3 12 86 84
3 178 177 41
3 179 88 180
3 181 89 182
3 183 182 88
3 181 182 183
3 14 91 90
3 15 92 43
3 15 93 92
3 15 95 93
3 17 96 45
3 17 97 96
3 17 99 97
3 19 100 47
3 19 101 100
3 184 103 185
3 186 104 187
3 188 187 103
3 186 187 188
3 190 189 104
3 192 191 105
3 193 106 194
3 195 107 196
3 197 109 198
3 199 198 107
3 197 198 199
3 22 112 110
3 24 113 50
3 24 114 113
3 200 115 201
3 202 201 85
3 200 201 202
3 13 203 205
3 205 204 87
3 203 204 205
3 25 206 208
3 208 207 53
3 206 207 208
3 25 209 210
3 25 211 213
3 211 116 212
3 211 212 213
3 26 117 55
3 26 118 117
3 27 119 58
3 27 120 119
3 16 121 94
3 28 122 61
3 28 123 122
3 28 124 123
3 29 125 63
3 29 126 125
3 29 127 126
3 30 128 65
3 30 129 128
3 18 130 98
3 31 131 68
3 31 132 131
3 31 133 132
3 32 134 70
3 32 135 134
3 21 136 108
3 33 137 73
3 33 138 137
3 20 139 102
3 34 140 76
3 34 141 140
3 34 142 141
3 35 143 78
3 35 144 143
3 35 145 144
3 36 146 80
3 36 214 216
3 216 215 146
3 214 215 216
3 217 147 218
3 221 220 147
3 219 220 221
3 23 148 111
3 223 222 83
3 37 38 10
3 39 38 37
3 39 11 38
3 40 41 12
3 224 41 225
3 226 225 40
3 224 225 226
3 228 227 41
3 42 43 14
3 44 43 42
3 44 15 43
3 44 45 15
3 46 45 44
3 46 17 45
3 46 47 17
3 48 47 46
3 48 19 47
3 49 50 22
3 51 50 49
3 51 24 50
3 52 53 13
3 54 53 52
3 54 25 53
3 54 55 25
3 56 55 54
3 56 26 55
3 57 229 230
3 57 231 233
3 231 232 233
3 57 234 236
3 234 58 235
3 234 235 236
3 59 58 57
3 59 27 58
3 60 61 16
3 62 61 60
3 62 28 61
3 62 63 28
3 64 63 62
3 64 29 63
3 64 65 29
3 66 65 64
3 66 30 65
3 67 68 18
3 69 68 67
3 69 31 68
3 69 70 31
3 71 70 69
3 71 32 70
3 72 73 21
3 74 73 72
3 74 33 73
3 75 76 20
3 77 76 75
3 77 34 76
3 77 78 34
3 79 78 77
3 79 35 78
3 79 80 35
3 81 80 79
3 81 36 80
3 82 83 23
3 237 83 238
3 239 238 82
3 237 238 239
3 241 240 83
3 38 242 244
3 244 243 10
3 242 243 244
3 246 245 38
3 84 85 3
3 86 85 84
3 86 247 249
3 249 248 85
3 247 248 249
3 41 86 12
3 250 86 251
3 252 251 41
3 250 251 252
3 254 253 86
3 255 4 256
3 257 87 258
3 259 258 4
3 257 258 259
3 260 87 261
3 262 13 263
3 264 263 87
3 262 263 264
3 88 265 266
3 88 267 269
3 267 13 268
3 267 268 269
3 88 52 13
3 89 52 88
3 89 5 52
3 90 270 271
3 91 272 274
3 274 273 90
3 272 273 274
3 91 275 276
3 43 91 14
3 92 91 43
3 92 277 279
3 279 278 91
3 277 278 279
3 92 280 281
3 93 282 284
3 284 283 92
3 282 283 284
3 93 285 287
3 285 6 286
3 285 286 287
3 93 94 6
3 95 94 93
3 95 16 94
3 45 95 15
3 96 95 45
3 96 16 95
3 96 60 16
3 97 60 96
3 97 7 60
3 97 98 7
3 99 98 97
3 99 18 98
3 47 99 17
3 100 99 47
3 100 18 99
3 100 67 18
3 101 67 100
3 101 8 67
3 288 102 289
3 290 102 291
3 292 20 293
3 294 293 102
3 292 293 294
3 103 295 296
3 103 297 299
3 297 20 298
3 297 298 299
3 103 75 20
3 104 75 103
3 104 9 75
3 104 300 302
3 302 301 9
3 300 301 302
3 304 303 104
3 105 305 307
3 307 306 1
3 305 306 307
3 309 308 105
3 310 90 311
3 106 312 314
3 312 90 313
3 312 313 314
3 106 14 90
3 315 106 316
3 317 106 318
3 319 14 320
3 321 320 106
3 319 320 321
3 322 42 323
3 324 323 14
3 322 323 324
3 107 325 327
3 325 42 326
3 325 326 327
3 107 2 42
3 107 108 2
3 109 108 107
3 109 21 108
3 328 109 329
3 330 109 331
3 332 21 333
3 334 333 109
3 332 333 334
3 335 72 336
3 337 336 21
3 335 336 337
3 338 72 339
3 341 340 72
3 110 111 0
3 112 111 110
3 112 23 111
3 50 112 22
3 113 112 50
3 113 23 112
3 113 82 23
3 114 82 113
3 114 342 344
3 344 343 82
3 342 343 344
3 85 51 3
3 115 51 85
3 115 24 51
3 345 115 346
3 347 115 348
3 349 24 350
3 351 350 115
3 349 350 351
3 352 114 353
3 354 353 24
3 352 353 354
3 355 114 356
3 358 357 114
3 360 359 1
3 87 361 363
3 363 362 4
3 361 362 363
3 365 364 87
3 53 366 368
3 368 367 13
3 366 367 368
3 370 369 53
3 116 371 372
3 116 373 375
3 373 10 374
3 373 374 375
3 55 116 25
3 117 116 55
3 117 10 116
3 117 37 10
3 118 37 117
3 118 0 37
3 58 376 377
3 119 378 380
3 380 379 58
3 378 379 380
3 119 381 382
3 119 383 385
3 383 89 384
3 383 384 385
3 120 89 119
3 120 5 89
3 94 59 6
3 121 59 94
3 121 27 59
3 61 121 16
3 122 121 61
3 122 27 121
3 122 120 27
3 123 120 122
3 123 5 120
3 123 56 5
3 124 56 123
3 124 26 56
3 63 124 28
3 125 124 63
3 125 26 124
3 125 118 26
3 126 118 125
3 126 0 118
3 126 110 0
3 127 110 126
3 127 22 110
3 65 127 29
3 128 127 65
3 128 22 127
3 128 49 22
3 129 49 128
3 129 3 49
3 98 66 7
3 130 66 98
3 130 30 66
3 68 130 18
3 131 130 68
3 131 30 130
3 131 129 30
3 132 129 131
3 132 3 129
3 132 84 3
3 133 84 132
3 133 12 84
3 70 133 31
3 134 133 70
3 134 12 133
3 134 40 12
3 135 40 134
3 135 1 40
3 108 48 2
3 136 48 108
3 136 19 48
3 73 136 21
3 137 136 73
3 137 19 136
3 137 101 19
3 138 101 137
3 138 8 101
3 102 386 388
3 386 74 387
3 386 387 388
3 139 74 102
3 139 33 74
3 76 139 20
3 140 139 76
3 140 33 139
3 140 138 33
3 141 138 140
3 141 8 138
3 141 71 8
3 142 71 141
3 142 32 71
3 78 142 34
3 143 142 78
3 143 32 142
3 143 135 32
3 144 135 143
3 144 1 135
3 144 105 1
3 145 105 144
3 145 389 391
3 391 390 105
3 389 390 391
3 80 145 35
3 146 145 80
3 146 392 394
3 394 393 145
3 392 393 394
3 146 395 396
3 398 397 146
3 399 81 400
3 401 400 9
3 399 400 401
3 402 81 403
3 404 36 405
3 406 405 81
3 404 405 406
3 147 407 408
3 147 409 411
3 409 36 410
3 409 410 411
3 147 412 414
3 414 413 36
3 412 413 414
3 416 415 147
3 111 39 0
3 148 39 111
3 148 11 39
3 83 148 23
3 417 148 418
3 419 418 83
3 417 418 419
3 420 11 421
3 422 421 148
3 420 421 422
3 424 423 11
