ply
format ascii 1.0
element vertex 498
property float x
property float y
property float z
element face 563
property list uchar int vertex_index
end_header
3.129343 -18.759716 51.199524
1.177444 13.231487 49.276947
-4.440439 -8.152911 39.76226
4.827971 -46.932961 53.494423
-1.801088 -41.218307 41.263767
4.698549 -34.067749 51.210289
1.590399 -43.936737 47.391239
0.016348 -29.78319 46.657738
-5.569643 -22.317596 33.733498
1.564367 -2.631432 51.638565
-1.336836 -13.380199 46.330704
-2.026014 3.377621 44.861824
-5.001673 9.020395 36.435493
-3.417261 -25.581194 40.935364
4.010357 -26.638889 50.960297
2.487127 -31.955694 48.85424
1.72654 -24.23772 48.742546
1.208286 5.342613 50.935921
-0.229101 0.28372 48.411682
-0.350163 8.346231 47.126335
-0.258049 -42.499619 44.505756
-3.112738 -10.650192 43.297478
-2.641584 -19.264673 43.772079
-3.96501 -16.950161 40.509941
-5.878328 -29.899151 30.21048
-4.622152 -31.013332 34.01767
5.019217 -40.856728 52.07991
3.409195 -45.444855 50.229843
3.088934 -39.053322 49.341743
0.801565 -37.216389 46.937435
-1.265234 -35.416206 44.301407
-5.745737 -6.07616 35.850246
-5.105898 -14.96637 36.88739
-6.477571 -13.383007 32.96701
2.248291 -10.689334 51.584404
0.923079 -16.126425 48.854965
0.220676 -7.893178 48.879723
-1.804213 -4.948284 45.895012
-3.437815 -2.045382 42.412971
-1.97555 11.531096 43.004288
-3.570814 6.387915 40.85524
-4.807924 0.550394 38.467796
-6.239523 2.637743 34.135883
2.811523 -5.280045 54.852478
-0.706306 -21.750168 46.497726
-2.042875 -27.61694 44.070415
-2.740652 -33.742268 41.171402
-4.411882 -23.799725 37.438225
-3.700369 -32.270897 37.673256
3.582405 -22.739752 51.035614
2.937452 -25.450813 49.816277
2.514416 -21.491041 49.88916
1.157377 9.298466 50.227631
0.460907 6.806667 49.058273
0.465252 10.774803 48.208694
-1.084064 -41.8358 42.935249
-0.483883 -45.204323 42.990906
-3.808516 -9.358706 41.583546
-3.597582 -13.724793 41.934216
-4.212526 -12.553713 40.189331
4.91507 -37.549416 51.56797
4.135246 -39.962757 50.632713
3.946428 -36.578663 50.236572
1.237356 -30.874313 47.776615
1.604874 -34.591335 47.921722
0.402842 -33.586304 46.778717
-0.290754 -36.306381 45.675285
-0.712286 -32.585197 45.549526
-6.134058 -9.658585 34.445854
1.87085 -6.651355 51.683167
1.27507 -9.315526 50.242935
0.949034 -5.250346 50.225601
-1.153494 1.821852 46.69101
-1.028368 -2.289028 47.157291
-1.949247 -0.766378 45.47168
-2.673037 -3.474983 44.21814
-2.780523 0.741974 43.662102
-1.079834 13.92643 43.989868
-3.556028 10.518822 39.774071
-4.28414 7.766451 38.692078
-4.233271 3.566799 39.690147
-4.930464 4.818178 37.550484
-5.504583 1.665401 36.349686
-5.652716 5.931749 35.317841
3.182774 -9.289171 54.684654
3.08098 -6.527262 56.548676
2.526873 -44.688065 48.786644
-0.244789 -14.762459 47.643948
0.107683 -18.909472 47.653828
-1.036413 -17.588482 46.428303
-3.100363 -22.370827 42.401672
-2.359831 -23.493073 43.933517
-2.809114 -26.573921 42.563805
-2.475637 -30.646301 42.694221
-3.102934 -29.737568 41.073292
-5.356531 -18.591404 35.350121
-4.761045 -19.408924 37.211174
-4.946348 -23.022404 35.611694
-4.162298 -35.17878 34.025295
-4.132254 -31.618135 35.858734
-3.315752 -36.286182 37.703545
4.38982 -30.424147 51.010788
3.671904 -33.021282 49.971573
3.32955 -29.304409 49.835648
2.119722 -28.162817 48.757271
0.859608 -27.001698 47.693657
1.34219 1.366327 51.400864
0.699553 -1.20664 50.04834
0.536573 2.812424 49.668274
-0.330746 4.330408 47.883369
-1.200811 5.897223 46.014496
-5.743059 10.130753 34.089802
0.646948 -43.203247 45.981155
-2.297674 -12.000427 44.88401
-2.045069 -16.267851 45.070618
-2.892809 -14.971167 43.568893
-3.36133 -18.074545 42.197952
-3.700991 -21.305866 40.751724
-5.746904 -26.102493 32.024963
-5.093611 -26.714981 33.925953
-5.206804 -30.444969 32.141624
0.537388 14.711498 47.126141
4.993906 -43.984337 52.730507
4.190645 -46.19598 51.7827
4.221361 -43.168087 51.152985
3.29261 -42.337105 49.737732
2.265678 -41.499634 48.423782
2.81506 -35.590996 49.047142
1.95224 -38.135201 48.136154
1.203197 -40.665409 47.139412
0.166708 -39.845123 45.816383
-0.788853 -39.049698 44.40345
-1.62179 -38.289391 42.875179
-5.071104 -7.054069 37.849628
-4.806364 -11.477987 38.355461
-5.438013 -10.51084 36.442505
-5.756994 -14.124174 34.969479
-6.036413 -17.86025 33.421009
-6.77392 -17.20965 31.403709
-6.464899 -25.527924 30.050074
2.676044 -14.732854 51.402184
2.080996 -17.460001 50.017738
1.65991 -13.391956 50.154243
0.549076 -12.010609 48.903168
-0.562185 -10.594247 47.589325
-0.04327 -3.791995 48.731766
-0.828156 -6.430799 47.442932
-1.596735 -9.15842 46.16724
-2.509756 -7.727944 44.612953
-3.296556 -6.33359 42.924198
-3.989241 -5.007314 41.113564
-0.295507 12.327675 46.136917
-1.173784 9.933672 45.113522
-2.033697 7.478151 44.042152
-2.743223 13.096363 40.794876
-2.815313 9.032267 41.960449
-2.828203 4.912958 42.915264
-3.530615 2.19829 41.73119
-4.133055 -0.693779 40.491539
-4.641748 -3.777655 39.197952
-5.30739 -2.666523 37.188801
-6.016729 -1.688023 35.086952
-6.404295 6.895176 32.990059
4.852972 -27.80299 52.246521
3.972677 -20.028431 52.467361
3.503971 -16.036161 52.708984
3.051132 -12.016472 52.960213
2.639406 -7.9946 53.154366
2.290581 -3.986611 53.226189
2.510332 -1.289425 54.86084
2.020056 0.000763 53.119347
1.834448 3.967533 52.792511
1.730904 7.916204 52.222588
1.698723 11.847456 51.404388
1.322054 -20.213486 48.786575
0.479919 -23.00164 47.659882
-0.354076 -25.82748 46.567825
-1.758959 -20.497721 45.208038
-1.442705 -24.652151 45.323311
-1.095186 -28.692535 45.433952
-1.681429 -31.600367 44.191689
-2.08436 -34.557739 42.797035
-2.311193 -37.572567 41.233017
-4.523222 -15.910081 38.734341
-4.229055 -20.315002 39.013973
-3.925852 -24.653433 39.217365
-4.536974 -27.377193 35.77557
-4.060537 -28.099115 37.587822
-3.607798 -28.886158 39.360458
-3.260542 -32.978535 39.452473
-2.863733 -36.90448 39.498852
4.43128 -47.99304 52.997612
4.673613 -48.320902 53.916634
-1.506197 -42.950283 41.269827
-1.147685 -43.259029 42.105568
-1.442576 -41.527054 42.099508
-1.825767 -42.714432 40.374055
-1.506197 -42.950283 41.269827
-4.642907 8.393423 37.563786
-4.282511 9.834596 38.092304
-4.641278 10.461569 36.964012
3.081081 -7.136777 57.440449
3.266868 -8.53817 56.427971
1.764055 -45.489491 47.54608
2.232293 -45.865155 48.243782
2.058636 -44.312401 48.088942
-3.944439 -35.446316 34.949797
-3.936647 -37.182232 33.994866
0.02383 -44.138106 44.564161
0.476328 -44.489919 45.301861
0.194449 -42.851433 45.243455
-0.168949 -46.808266 43.027314
-0.523848 -46.591263 42.140595
-6.893234 -19.150951 30.574428
-7.138046 -16.921535 30.340641
-6.524891 -19.44345 31.594625
-6.893234 -19.150951 30.574428
-6.738723 -23.310088 29.897611
-6.37038 -23.602587 30.917808
-0.236629 14.297598 45.53188
0.12094 13.519586 46.631529
0.179819 15.48951 46.026491
-3.113996 13.842875 39.642589
-2.67847 15.099365 40.112337
-6.501879 0.894212 33.509659
-6.390482 -1.268671 33.985193
-6.128126 0.47486 34.611418
-6.453678 8.990819 32.321463
-6.073677 8.512965 33.53993
-6.12306 10.608607 32.871334
5.124659 -28.373829 52.986508
5.033152 -29.662272 52.299915
4.254075 -20.65012 53.171325
4.20183 -21.995109 52.381923
3.556194 -14.670977 53.564346
3.785673 -16.672792 53.418003
3.329774 -12.661132 53.68996
3.277551 -14.026317 52.834598
3.556194 -14.670977 53.564346
2.398764 0.695312 54.761032
2.520008 0.088494 55.714764
2.153625 1.340406 53.890285
2.265194 -0.644331 53.990094
2.398764 0.695312 54.761032
2.060822 3.323791 53.726867
1.927252 1.984148 52.955929
2.153625 1.340406 53.890285
1.897305 9.240798 52.878712
1.936094 7.273447 53.222889
1.881214 11.206424 52.469612
1.714813 9.88183 51.813488
1.897305 9.240798 52.878712
3.416253 -46.914852 50.519149
3.806978 -47.290415 51.295578
3.79992 -45.820417 51.006271
-2.874714 -38.515337 38.592917
-3.089742 -36.595331 38.601198
-3.100723 -38.206188 37.695263
-2.63051 -38.776881 39.502283
-2.874714 -38.515337 38.592917
-0.847595 -44.943291 42.133397
-0.783973 -43.520061 42.963077
-1.147685 -43.259029 42.105568
-0.523848 -46.591263 42.140595
-0.847595 -44.943291 42.133397
-5.577501 -32.032942 30.227995
-5.910215 -31.779165 29.243944
-6.303974 -7.442406 34.101127
-5.939897 -7.867373 35.14805
-6.109813 -5.651193 34.803323
-6.505914 -9.290392 33.398037
-6.303974 -7.442406 34.101127
-6.677671 -11.152603 32.658615
-6.305815 -11.520796 33.706432
-6.505914 -9.290392 33.398037
-1.003546 15.897229 43.324848
-0.628792 15.096975 44.458355
-1.468265 14.729159 42.872425
-1.003546 15.897229 43.324848
-1.916122 13.531491 42.379635
-1.527692 12.728763 43.497078
-1.468265 14.729159 42.872425
-3.918455 11.210782 38.633301
-3.520399 12.554104 39.132187
-3.920084 9.142637 39.233075
-3.918455 11.210782 38.633301
-4.282511 9.834596 38.092304
3.317765 -9.919124 55.49596
3.395595 -11.297481 54.552181
3.131877 -7.908216 55.616665
3.317765 -9.919124 55.49596
3.266868 -8.53817 56.427971
2.620584 -46.199442 49.005893
3.061745 -46.577837 49.727493
2.968034 -45.06646 49.508244
2.620584 -46.199442 49.005893
2.232293 -45.865155 48.243782
-3.929417 -33.665993 35.866516
-4.147276 -33.398457 34.942014
-3.944439 -35.446316 34.949797
-3.713474 -33.992374 36.773777
-3.916311 -31.944516 36.765995
-3.929417 -33.665993 35.866516
-3.521166 -36.000017 36.788922
-3.508061 -34.278539 37.688401
-3.713474 -33.992374 36.773777
-3.310384 -37.964094 36.768791
-3.521166 -36.000017 36.788922
-3.100723 -38.206188 37.695263
-3.310384 -37.964094 36.768791
-5.008219 11.089061 35.779877
-4.641278 10.461569 36.964012
-5.378912 11.64424 34.607031
-5.372366 9.575574 35.262647
-5.008219 11.089061 35.779877
-5.755621 12.198645 33.381323
-5.378912 11.64424 34.607031
-6.12306 10.608607 32.871334
-5.755621 12.198645 33.381323
0.885568 -44.79808 46.081696
1.357294 -45.164825 46.786738
1.118673 -43.569992 46.686197
0.885568 -44.79808 46.081696
0.476328 -44.489919 45.301861
-0.089088 -45.490458 43.806736
0.02383 -44.138106 44.564161
-0.370966 -43.851971 43.748331
-0.089088 -45.490458 43.806736
-0.168949 -46.808266 43.027314
-5.241739 -32.305851 31.193567
-5.542566 -30.17206 31.176052
-5.577501 -32.032942 30.227995
-4.940277 -32.556572 32.147954
-5.241739 -32.305851 31.193567
-4.647951 -32.840753 33.085977
-4.914478 -30.72915 33.079647
-4.940277 -32.556572 32.147954
-4.418024 -34.923478 33.08979
-4.392225 -33.096056 34.021483
-4.647951 -32.840753 33.085977
-4.160642 -36.960904 33.053495
-4.418024 -34.923478 33.08979
-3.936647 -37.182232 33.994866
-4.160642 -36.960904 33.053495
0.895637 15.922541 47.612339
0.857416 13.971493 48.201544
1.215666 15.182535 48.687742
0.600808 16.658704 46.478235
0.895637 15.922541 47.612339
0.179819 15.48951 46.026491
0.600808 16.658704 46.478235
-6.850796 -13.061147 31.913511
-6.677671 -11.152603 32.658615
-6.99897 -14.974469 31.131861
-7.138046 -16.921535 30.340641
-6.625746 -15.296328 32.18536
-6.850796 -13.061147 31.913511
-6.99897 -14.974469 31.131861
-6.156137 -19.76875 32.603275
-6.405166 -17.53495 32.412359
-6.524891 -19.44345 31.594625
-5.922752 -21.997423 32.75952
-5.803028 -20.088923 33.577253
-6.156137 -19.76875 32.603275
-6.011383 -23.889871 31.905252
-5.658273 -24.210045 32.87923
-5.922752 -21.997423 32.75952
-6.105901 -25.815208 31.037518
-6.011383 -23.889871 31.905252
-6.37038 -23.602587 30.917808
-6.81992 -25.254577 29.015275
-6.738723 -23.310088 29.897611
-6.524004 -27.445343 29.125976
-6.81992 -25.254577 29.015275
-6.230719 -29.630956 29.206179
-6.171613 -27.713538 30.130277
-6.524004 -27.445343 29.125976
-5.910215 -31.779165 29.243944
-6.230719 -29.630956 29.206179
-0.68767 13.127052 45.063392
-0.236629 14.297598 45.53188
-0.628792 15.096975 44.458355
-2.299959 14.314125 41.274929
-2.67847 15.099365 40.112337
-2.359386 12.31373 41.899582
-1.916122 13.531491 42.379635
-2.299959 14.314125 41.274929
-3.149625 11.807593 40.284474
-3.113996 13.842875 39.642589
-3.520399 12.554104 39.132187
-6.245309 -3.457125 34.421676
-6.109813 -5.651193 34.803323
-5.881233 -3.882092 35.468599
-6.245309 -3.457125 34.421676
-6.390482 -1.268671 33.985193
-6.781746 7.298707 31.774845
-6.453678 8.990819 32.321463
-6.699738 5.177913 32.403872
-6.781746 7.298707 31.774845
-6.617351 3.049197 32.976783
-6.321909 4.766459 33.562971
-6.699738 5.177913 32.403872
-6.501879 0.894212 33.509659
-6.617351 3.049197 32.976783
5.056858 -47.29195 54.443787
4.673613 -48.320902 53.916634
5.195476 -45.856356 54.002041
5.056858 -47.29195 54.443787
5.278443 -44.382044 53.620083
4.910939 -45.458649 53.112465
5.195476 -45.856356 54.002041
5.337767 -42.856945 53.231964
5.278443 -44.382044 53.620083
5.350423 -41.29314 52.906666
5.006562 -42.420532 52.405209
5.337767 -42.856945 53.231964
5.334931 -39.677887 52.590309
5.350423 -41.29314 52.906666
5.282857 -38.024231 52.334339
4.967144 -39.203072 51.82394
5.334931 -39.677887 52.590309
5.201152 -36.321101 52.102383
5.282857 -38.024231 52.334339
5.092892 -34.580267 51.923542
4.806809 -35.808582 51.38913
5.201152 -36.321101 52.102383
4.955941 -32.794651 51.7818
5.092892 -34.580267 51.923542
4.801577 -30.97285 51.682049
4.544185 -32.245948 51.110539
4.955941 -32.794651 51.7818
4.621396 -29.113568 51.628654
4.801577 -30.97285 51.682049
5.033152 -29.662272 52.299915
4.92006 -26.481873 52.986092
5.124659 -28.373829 52.986508
4.641978 -25.882388 52.271504
4.92006 -26.481873 52.986092
4.22067 -25.300337 51.628391
4.431665 -27.22094 51.603409
4.641978 -25.882388 52.271504
4.006695 -23.350769 51.66605
3.796381 -24.689321 50.997956
4.22067 -25.300337 51.628391
3.777541 -21.384092 51.751487
4.006695 -23.350769 51.66605
4.20183 -21.995109 52.381923
4.020026 -18.668927 53.297191
4.254075 -20.65012 53.171325
3.738324 -18.032296 52.588172
4.020026 -18.668927 53.297191
3.785673 -16.672792 53.418003
3.116953 -10.652821 53.822434
3.329774 -12.661132 53.68996
3.395595 -11.297481 54.552181
2.932478 -5.118966 57.532474
3.081081 -7.136777 57.440449
2.925847 -4.523475 56.601464
2.932478 -5.118966 57.532474
2.791119 -3.899866 55.753365
2.946251 -5.903654 55.700577
2.925847 -4.523475 56.601464
2.640523 -1.904556 55.757546
2.520008 0.088494 55.714764
2.660928 -3.284735 54.856659
2.791119 -3.899866 55.753365
2.640523 -1.904556 55.757546
1.987866 5.299112 53.507851
2.060822 3.323791 53.726867
1.782676 5.941868 52.507549
1.987866 5.299112 53.507851
1.936094 7.273447 53.222889
1.869553 13.165627 52.002101
1.881214 11.206424 52.469612
1.71089 13.80223 50.87582
1.869553 13.165627 52.002101
1.450251 14.494245 49.8121
1.438083 12.539471 50.340667
1.71089 13.80223 50.87582
1.215666 15.182535 48.687742
1.450251 14.494245 49.8121
4.112617 -47.62455 52.141751
4.43128 -47.99304 52.997612
4.509308 -46.56447 52.638561
4.112617 -47.62455 52.141751
3.806978 -47.290415 51.295578
3.416253 -46.914852 50.519149
3.061745 -46.577837 49.727493
1.764055 -45.489491 47.54608
1.357294 -45.164825 46.786738
-2.35424 -39.110924 40.369366
-2.587463 -37.238523 40.365934
-2.63051 -38.776881 39.502283
-2.099188 -40.933794 40.38474
-2.05614 -39.395437 41.248392
-2.35424 -39.110924 40.369366
-1.825767 -42.714432 40.374055
-2.099188 -40.933794 40.38474
3 0 51 49
3 1 54 52
3 3 191 192
3 4 193 195
3 195 194 55
3 193 194 195
3 4 196 197
3 2 59 57
3 5 62 60
3 7 65 63
3 7 67 65
3 9 71 69
3 11 74 72
3 11 76 74
3 12 198 200
3 198 79 199
3 198 199 200
3 12 81 79
3 12 83 81
3 201 85 202
3 6 203 205
3 205 204 86
3 203 204 205
3 10 89 87
3 13 92 90
3 13 94 92
3 8 97 95
3 207 206 98
3 14 103 101
3 16 104 50
3 16 105 104
3 17 108 106
3 19 109 53
3 19 110 109
3 20 208 210
3 210 209 112
3 208 209 210
3 212 211 56
3 21 115 113
3 23 116 58
3 23 117 116
3 24 120 118
3 26 124 122
3 28 125 61
3 28 126 125
3 15 127 102
3 29 128 64
3 29 129 128
3 29 130 129
3 30 131 66
3 30 132 131
3 31 135 133
3 33 136 68
3 33 137 136
3 213 138 214
3 216 215 138
3 217 139 218
3 34 142 140
3 36 143 70
3 36 144 143
3 18 145 107
3 37 146 73
3 37 147 146
3 37 148 147
3 38 149 75
3 38 150 149
3 219 151 220
3 221 220 121
3 219 220 221
3 39 152 77
3 39 153 152
3 222 154 223
3 40 155 78
3 40 156 155
3 40 157 156
3 41 158 80
3 41 159 158
3 41 160 159
3 42 161 82
3 42 224 226
3 226 225 161
3 224 225 226
3 227 162 228
3 229 228 111
3 227 228 229
3 230 163 231
3 232 164 233
3 234 165 235
3 236 166 237
3 238 237 165
3 236 237 238
3 43 167 84
3 43 168 167
3 239 169 240
3 241 170 242
3 243 242 169
3 241 242 243
3 244 171 245
3 246 245 170
3 244 245 246
3 247 172 248
3 249 173 250
3 251 250 172
3 249 250 251
3 27 252 254
3 254 253 123
3 252 253 254
3 35 174 141
3 44 175 88
3 44 176 175
3 22 177 114
3 45 178 91
3 45 179 178
3 45 180 179
3 46 181 93
3 46 182 181
3 32 183 134
3 47 184 96
3 47 185 184
3 25 186 119
3 48 187 99
3 48 188 187
3 48 189 188
3 255 190 256
3 257 256 100
3 255 256 257
3 259 258 190
3 49 50 14
3 51 50 49
3 51 16 50
3 52 53 17
3 54 53 52
3 54 19 53
3 55 56 20
3 260 56 261
3 262 261 55
3 260 261 262
3 264 263 56
3 57 58 21
3 59 58 57
3 59 23 58
3 266 265 24
3 60 61 26
3 62 61 60
3 62 28 61
3 63 64 15
3 65 64 63
3 65 29 64
3 65 66 29
3 67 66 65
3 67 30 66
3 267 68 268
3 269 268 31
3 267 268 269
3 270 68 271
3 272 33 273
3 274 273 68
3 272 273 274
3 69 70 34
3 71 70 69
3 71 36 70
3 72 73 18
3 74 73 72
3 74 37 73
3 74 75 37
3 76 75 74
3 76 38 75
3 275 77 276
3 277 77 278
3 279 39 280
3 281 280 77
3 279 280 281
3 282 78 283
3 79 284 286
3 284 78 285
3 284 285 286
3 79 40 78
3 79 80 40
3 81 80 79
3 81 41 80
3 81 82 41
3 83 82 81
3 83 42 82
3 287 84 288
3 85 289 291
3 289 84 290
3 289 290 291
3 85 43 84
3 86 292 294
3 294 293 27
3 292 293 294
3 296 295 86
3 87 88 35
3 89 88 87
3 89 44 88
3 90 91 22
3 92 91 90
3 92 45 91
3 92 93 45
3 94 93 92
3 94 46 93
3 95 96 32
3 97 96 95
3 97 47 96
3 98 99 25
3 297 99 298
3 299 298 98
3 297 298 299
3 300 48 301
3 302 301 99
3 300 301 302
3 303 100 304
3 305 304 48
3 303 304 305
3 306 100 307
3 309 308 100
3 101 102 5
3 103 102 101
3 103 15 102
3 50 103 14
3 104 103 50
3 104 15 103
3 104 63 15
3 105 63 104
3 105 7 63
3 106 107 9
3 108 107 106
3 108 18 107
3 53 108 17
3 109 108 53
3 109 18 108
3 109 72 18
3 110 72 109
3 110 11 72
3 310 12 311
3 312 111 313
3 314 313 12
3 312 313 314
3 315 111 316
3 318 317 111
3 112 319 321
3 321 320 6
3 319 320 321
3 323 322 112
3 56 324 326
3 326 325 20
3 324 325 326
3 328 327 56
3 113 114 10
3 115 114 113
3 115 22 114
3 58 115 21
3 116 115 58
3 116 22 115
3 116 90 22
3 117 90 116
3 117 13 90
3 118 119 8
3 120 119 118
3 120 25 119
3 329 120 330
3 331 330 24
3 329 330 331
3 332 120 333
3 334 25 335
3 336 335 120
3 334 335 336
3 337 98 338
3 339 338 25
3 337 338 339
3 340 98 341
3 343 342 98
3 344 121 345
3 346 345 1
3 344 345 346
3 347 121 348
3 350 349 121
3 122 123 3
3 124 123 122
3 124 27 123
3 61 124 26
3 125 124 61
3 125 27 124
3 125 86 27
3 126 86 125
3 126 6 86
3 102 62 5
3 127 62 102
3 127 28 62
3 64 127 15
3 128 127 64
3 128 28 127
3 128 126 28
3 129 126 128
3 129 6 126
3 129 112 6
3 130 112 129
3 130 20 112
3 66 130 29
3 131 130 66
3 131 20 130
3 131 55 20
3 132 55 131
3 132 4 55
3 133 134 2
3 135 134 133
3 135 32 134
3 68 135 31
3 136 135 68
3 136 32 135
3 136 95 32
3 137 95 136
3 137 8 95
3 351 33 352
3 138 353 354
3 138 355 357
3 355 33 356
3 355 356 357
3 138 137 33
3 358 137 359
3 360 359 138
3 358 359 360
3 361 8 362
3 363 362 137
3 361 362 363
3 364 118 365
3 366 365 8
3 364 365 366
3 139 367 369
3 367 118 368
3 367 368 369
3 139 24 118
3 370 139 371
3 372 139 373
3 374 24 375
3 376 375 139
3 374 375 376
3 378 377 24
3 140 141 0
3 142 141 140
3 142 35 141
3 70 142 34
3 143 142 70
3 143 35 142
3 143 87 35
3 144 87 143
3 144 10 87
3 107 71 9
3 145 71 107
3 145 36 71
3 73 145 18
3 146 145 73
3 146 36 145
3 146 144 36
3 147 144 146
3 147 10 144
3 147 113 10
3 148 113 147
3 148 21 113
3 75 148 37
3 149 148 75
3 149 21 148
3 149 57 21
3 150 57 149
3 150 2 57
3 121 54 1
3 151 54 121
3 151 19 54
3 77 379 381
3 379 151 380
3 379 380 381
3 152 151 77
3 152 19 151
3 152 110 19
3 153 110 152
3 153 11 110
3 154 382 383
3 154 384 386
3 384 39 385
3 384 385 386
3 78 387 389
3 387 154 388
3 387 388 389
3 155 154 78
3 155 39 154
3 155 153 39
3 156 153 155
3 156 11 153
3 156 76 11
3 157 76 156
3 157 38 76
3 80 157 40
3 158 157 80
3 158 38 157
3 158 150 38
3 159 150 158
3 159 2 150
3 159 133 2
3 160 133 159
3 160 31 133
3 82 160 41
3 161 160 82
3 161 31 160
3 161 390 392
3 392 391 31
3 390 391 392
3 394 393 161
3 111 83 12
3 162 83 111
3 162 42 83
3 395 162 396
3 397 162 398
3 399 42 400
3 401 400 162
3 399 400 401
3 403 402 42
3 404 3 405
3 406 3 407
3 408 122 409
3 410 409 3
3 408 409 410
3 411 122 412
3 413 26 414
3 415 414 122
3 413 414 415
3 416 26 417
3 418 60 419
3 420 419 26
3 418 419 420
3 421 60 422
3 423 5 424
3 425 424 60
3 423 424 425
3 426 5 427
3 428 101 429
3 430 429 5
3 428 429 430
3 163 431 433
3 431 101 432
3 431 432 433
3 163 14 101
3 434 163 435
3 436 163 437
3 438 14 439
3 440 439 163
3 438 439 440
3 441 49 442
3 443 442 14
3 441 442 443
3 164 444 446
3 444 49 445
3 444 445 446
3 164 0 49
3 447 164 448
3 165 449 451
3 449 164 450
3 449 450 451
3 165 0 164
3 165 140 0
3 166 140 165
3 166 34 140
3 84 452 454
3 452 166 453
3 452 453 454
3 167 166 84
3 167 34 166
3 167 69 34
3 168 69 167
3 168 9 69
3 455 85 456
3 457 85 458
3 459 43 460
3 461 460 85
3 459 460 461
3 169 462 463
3 169 464 466
3 464 43 465
3 464 465 466
3 169 168 43
3 170 168 169
3 170 9 168
3 170 106 9
3 171 106 170
3 171 17 106
3 467 171 468
3 172 469 471
3 469 171 470
3 469 470 471
3 172 17 171
3 172 52 17
3 173 52 172
3 173 1 52
3 472 173 473
3 474 173 475
3 476 1 477
3 478 477 173
3 476 477 478
3 480 479 1
3 123 481 483
3 483 482 3
3 481 482 483
3 485 484 123
3 487 486 27
3 489 488 6
3 141 51 0
3 174 51 141
3 174 16 51
3 88 174 35
3 175 174 88
3 175 16 174
3 175 105 16
3 176 105 175
3 176 7 105
3 114 89 10
3 177 89 114
3 177 44 89
3 91 177 22
3 178 177 91
3 178 44 177
3 178 176 44
3 179 176 178
3 179 7 176
3 179 67 7
3 180 67 179
3 180 30 67
3 93 180 45
3 181 180 93
3 181 30 180
3 181 132 30
3 182 132 181
3 182 4 132
3 134 59 2
3 183 59 134
3 183 23 59
3 96 183 32
3 184 183 96
3 184 23 183
3 184 117 23
3 185 117 184
3 185 13 117
3 119 97 8
3 186 97 119
3 186 47 97
3 99 186 25
3 187 186 99
3 187 47 186
3 187 185 47
3 188 185 187
3 188 13 185
3 188 94 13
3 189 94 188
3 189 46 94
3 100 189 48
3 190 189 100
3 190 46 189
3 190 182 46
3 490 182 491
3 492 491 190
3 490 491 492
3 493 4 494
3 495 494 182
3 493 494 495
3 497 496 4
