ply
format ascii 1.0
element vertex 765
property float x
property float y
property float z
element face 946
property list uchar int vertex_index
end_header
40.055321 61.472893 24.367535
45.925564 42.342335 30.133554
34.284664 75.107491 4.032663
35.550652 49.124489 41.492172
43.255672 60.191452 17.780977
47.382755 49.420944 20.558455
44.648949 52.900566 28.089344
37.077663 68.749542 15.412534
41.869514 66.840141 6.497102
32.650387 64.993118 24.216349
28.320986 74.338974 13.851702
27.156483 51.93084 43.421219
30.293816 79.457817 -7.564821
37.203312 73.832993 -14.605633
40.755836 71.730392 -4.651949
21.382917 63.843437 36.157383
29.436125 58.668625 34.006535
38.331142 55.429962 32.294575
42.800831 45.874969 37.1213
41.702991 61.308571 21.643847
44.220554 56.571342 23.120121
42.382607 57.76255 26.239641
38.646358 64.899513 20.517519
40.493336 64.984352 16.528133
36.926064 63.156677 24.361565
34.764042 67.501564 19.740753
47.012798 45.967979 25.613358
48.406494 44.047676 21.701973
46.884094 40.516239 26.13467
44.948124 36.763996 30.142876
32.56348 77.493805 -1.820795
36.016434 75.967834 -6.1068
37.493473 73.980278 -0.463465
44.720909 61.353134 7.80862
31.179878 75.204163 8.790934
26.309021 78.22686 8.123588
29.275816 78.189423 2.916615
26.913677 80.713203 -3.028765
31.327078 50.547386 42.663307
28.219009 55.453293 38.878441
32.515892 53.679108 38.006416
33.885742 56.832291 33.241474
36.937847 52.14917 36.853752
41.025543 50.725601 35.162445
39.54715 47.565895 39.656624
42.484344 69.252289 -13.130596
39.980633 68.870346 -17.06378
44.71077 64.217583 -15.493031
44.979881 58.199158 13.505424
45.585632 54.836746 19.165779
46.113552 51.32003 24.539944
45.950821 47.698013 29.447199
35.686287 72.221146 9.826101
38.517868 71.498489 5.273478
39.413681 68.479042 10.984397
42.386566 63.672859 12.174652
28.213837 67.244583 24.343405
25.918097 72.615814 19.276278
30.334967 69.843414 19.247292
32.904449 71.628212 14.452335
22.23782 48.719284 48.641853
23.117477 53.434311 44.337093
26.23373 47.795509 47.611588
30.344126 47.009094 47.043175
34.399349 46.017654 46.076149
38.150303 44.595505 44.236885
27.349192 80.753609 -12.954399
30.832235 77.638504 -16.12137
33.848232 77.333839 -11.426394
39.425827 73.270241 -9.917042
43.937813 68.348541 -8.37896
41.460205 69.547951 0.870136
44.584251 66.566444 -3.174877
23.954252 82.73069 -8.853134
24.154634 57.521973 39.807472
25.299618 61.062325 34.911507
26.591434 64.260071 29.666729
30.879385 61.868912 29.01733
35.372398 60.145729 28.61327
39.443897 58.82058 27.960453
42.100971 54.202499 30.701767
44.129601 49.270706 32.71431
44.870388 44.116913 33.905457
41.224266 42.769024 41.533501
43.253582 40.737595 38.157658
44.263081 38.709877 34.284805
43.082855 32.981133 34.036331
33.953346 72.959206 -18.428919
36.409904 66.929779 -20.031752
40.852142 61.492821 23.218401
42.158302 59.519547 23.985432
41.133919 59.871887 25.243652
39.431385 63.026962 22.705627
40.263897 63.26564 21.018003
38.732983 62.271492 24.401443
37.754795 64.240166 22.412151
46.563881 44.16798 27.93615
47.054077 43.264755 25.951427
46.344368 41.441864 28.136124
45.945705 38.656303 28.17531
45.500362 39.588192 30.215439
33.480927 76.353691 1.104715
35.144638 75.821228 -1.146095
35.880104 74.678276 1.751211
32.713364 75.279884 6.37823
30.270363 76.762787 5.87231
31.850872 76.661568 3.443318
30.88826 77.927887 0.490812
33.44347 49.849304 42.152721
31.895838 52.135307 40.361191
34.062077 51.37043 39.828461
34.731503 52.891167 37.482212
36.225761 50.617737 39.170715
38.331566 49.865417 38.36673
37.605556 48.364075 40.662048
44.680553 66.71032 -12.304174
43.739349 66.826241 -14.438482
44.051758 59.285179 15.655032
45.254967 56.539124 16.355444
44.472519 57.545998 18.461472
44.539112 54.739525 25.651318
45.269714 53.973038 23.857384
45.474571 52.15197 26.406628
46.147156 49.51564 27.056517
45.457153 50.321564 28.844654
36.364742 70.554695 12.657304
37.658752 70.482674 10.401423
38.245476 68.80204 13.216505
41.937489 62.696487 17.135395
41.416176 64.481979 14.381429
42.779198 61.959511 14.998921
43.708401 60.979111 12.813101
30.411552 66.037971 24.222446
29.20891 68.616066 21.75539
31.442776 67.438652 21.792873
35.909973 68.310822 17.577768
33.801628 69.618546 17.157104
35.073292 70.262993 14.90416
34.284019 72.087715 12.127665
23.812321 45.756546 50.028641
24.213163 48.222679 48.014214
25.818819 45.455894 49.591103
29.916473 44.968311 49.098503
31.950953 44.673164 48.789467
32.391605 46.558701 46.652176
35.825089 43.735325 47.554192
47.400711 51.061012 17.853722
48.273987 48.370178 18.598305
28.90942 80.220543 -10.320295
30.688951 79.099556 -12.19418
32.071434 78.540215 -9.580206
38.515862 73.969048 -5.37463
37.742599 74.784042 -8.076014
40.186836 72.595657 -7.333649
41.80806 70.911186 -9.163982
42.375633 70.173134 -6.588022
40.288101 69.30368 5.886543
39.966209 70.666252 3.042406
41.67717 68.25676 3.674017
44.695259 65.439583 -0.488325
27.05143 73.574387 16.517834
26.028671 75.861359 13.75661
28.561878 80.160759 -5.380657
25.510965 81.803032 -5.969933
27.167192 81.096123 -8.244808
25.611229 81.844398 -11.020781
25.119699 52.658585 43.815674
23.619793 55.555527 42.110085
25.625507 54.628075 41.608501
28.80549 57.076805 36.475025
26.72736 58.163994 36.914124
27.326855 59.799202 34.42733
25.918205 62.690849 32.320541
27.973896 61.394241 31.874409
28.68924 62.971497 29.294024
30.122581 60.262627 31.506844
36.146278 56.092651 32.81749
34.61882 58.481857 30.894043
36.846092 57.77607 30.54962
37.513268 59.448112 28.362274
38.938114 57.144608 30.086016
40.798035 56.558929 29.418407
40.345463 54.810249 31.609436
42.064461 48.327629 36.259468
42.735126 50.008789 34.042961
43.537132 47.53331 34.932106
44.683399 46.720718 33.415848
43.99268 44.999802 35.594986
39.170837 42.209087 45.282204
39.798649 43.72258 42.981613
40.532887 41.253193 43.796997
42.46183 39.122993 40.307587
43.029701 38.022797 38.365562
43.857822 39.714241 36.271839
43.398079 36.9384 36.327301
43.667107 35.885162 34.221466
42.849148 34.068951 36.237473
34.137535 75.827347 -15.345377
32.460945 75.498146 -17.374105
35.703808 73.599464 -16.633005
38.313961 68.096893 -18.658953
42.497871 60.875114 19.803398
43.763401 58.390656 20.494297
43.019272 59.047432 22.365921
43.408558 57.225021 24.826912
43.593399 55.401848 27.208395
37.842567 66.842842 18.05257
38.883751 67.004135 15.955522
39.571781 65.135139 18.575466
41.110725 63.143288 19.157965
34.85564 64.053177 24.281525
33.669502 66.369598 21.942146
35.805019 65.329666 22.160667
36.807125 66.279831 20.103254
47.273506 47.722595 23.152279
47.998009 46.738068 21.181267
47.602875 45.034821 23.635769
47.712021 42.319275 23.984358
46.602646 37.701374 26.159897
45.500366 35.799255 28.068184
44.426762 33.868855 29.944267
31.507425 78.534103 -4.720491
33.263443 77.772858 -6.843147
34.280815 76.855499 -4.020182
36.828007 75.03653 -3.307901
39.121368 73.000427 -2.602858
43.325466 64.162605 7.12748
43.236031 65.61544 4.317026
29.706429 74.887383 11.278677
27.337387 76.364365 11.023839
28.758575 76.66404 8.397055
27.744122 78.290794 5.459864
26.625414 79.783554 2.483613
25.37429 81.153404 -0.511421
28.164421 79.503685 -0.057846
29.798344 79.095047 -2.45895
29.227196 51.234344 43.064697
27.670059 53.752861 41.196117
29.760414 52.925285 40.801224
30.337673 54.529587 38.459114
30.960291 56.100433 36.056694
31.630676 57.682549 33.622734
33.181812 55.232872 35.623219
35.433701 54.458588 35.137016
37.652382 53.752701 34.556641
39.752956 53.0867 33.836708
39.064556 51.433655 36.09045
40.305241 49.10408 37.40081
41.302544 46.733582 38.476002
39.991467 71.638611 -13.880539
38.687298 71.514198 -15.929674
41.37339 69.24659 -15.218395
42.526276 66.595421 -16.342276
46.381416 53.785728 17.094807
46.568295 52.119667 19.874372
44.907078 55.773071 21.203627
45.900391 53.096077 21.903383
46.701454 50.406883 22.563757
46.703236 48.648895 25.135014
46.512276 46.854248 27.573023
46.100365 45.040459 29.879242
35.006794 73.736298 6.945076
36.518108 73.417274 4.651553
37.09663 72.022316 7.539865
38.958893 70.057175 8.138597
40.607986 67.810783 8.733498
39.920174 66.778 13.790841
40.973419 66.196777 11.571612
42.090843 65.306976 9.334266
43.469826 62.611221 9.963493
44.800854 59.808296 10.647892
26.098148 68.641853 24.601192
24.927242 71.489166 22.112213
27.02824 69.960045 21.859192
28.09831 71.145645 19.185482
29.305813 72.157234 16.596199
32.580631 68.657158 19.443682
31.576582 70.866142 16.818249
30.63114 72.952164 14.090561
32.043686 73.494728 11.656511
33.510841 73.76049 9.27863
22.655441 51.153809 46.50927
24.648222 50.525391 45.946152
26.678106 49.952019 45.557137
27.862377 45.210106 49.323715
28.283936 47.40596 47.327316
28.73634 49.407097 45.24086
30.811104 48.856178 44.894859
32.886242 48.266335 44.4338
34.937813 47.613228 43.800728
36.929993 46.884636 42.969036
36.333321 45.364517 45.273598
37.586334 43.044563 46.545418
27.345013 79.293198 -16.935369
29.110023 79.37616 -14.652563
32.449871 77.654388 -13.867785
35.574879 75.775703 -13.102478
35.031242 76.749565 -8.826321
36.77108 75.405586 -10.666632
38.440037 73.703178 -12.356117
41.024174 71.418411 -11.611252
43.329369 68.934578 -10.834568
38.044209 72.803375 2.402258
39.592216 71.897942 0.209101
41.167694 70.708458 -1.909262
43.147884 66.955276 1.536165
43.006256 68.170631 -1.213892
42.762627 69.24942 -3.927542
44.344269 67.545631 -5.812847
24.984348 77.982033 10.908309
22.178688 58.644348 40.424919
22.744028 60.605972 38.001839
26.161884 56.452888 39.310287
24.714911 59.349205 37.410515
23.330132 62.42617 35.481232
23.938379 64.123039 32.857475
27.347429 65.781349 26.992592
29.495825 64.529633 26.730484
31.719633 63.464844 26.577734
32.352486 59.298859 31.19363
33.129448 60.938927 28.807482
33.963741 62.552795 26.496824
36.140465 61.74411 26.42823
38.137089 61.001091 26.293465
39.825981 60.337204 25.982677
41.07505 58.265701 27.285423
42.356575 55.991905 28.470741
43.539146 53.576126 29.53075
41.643219 52.433113 32.931885
43.244198 51.767548 31.805447
44.512398 51.069077 30.439949
45.188904 48.502396 31.175476
45.514374 45.890038 31.721657
45.480705 43.2314 32.072979
38.812859 46.080658 41.936081
40.524921 45.211632 40.71262
42.002556 44.294792 39.312981
41.635311 40.21167 42.127468
42.382462 41.764137 39.918259
43.195812 43.350437 37.750092
44.087029 42.397743 36.036423
44.706036 41.450798 34.18911
45.135303 40.515526 32.235664
44.580788 37.728836 32.228622
43.965302 34.865219 32.081818
43.463287 31.937126 31.832502
42.692039 30.025478 33.770416
29.012093 77.222939 -18.176916
37.108006 70.999115 -17.735979
35.278362 70.073387 -19.307768
45.227125 65.507035 -12.914078
45.634077 65.390236 -11.825595
24.618361 44.349243 50.763149
23.625313 44.449641 51.00972
25.621611 44.198917 50.544381
24.81557 45.60622 49.809872
24.618361 44.349243 50.763149
32.736464 43.501628 49.611317
31.748933 43.623539 49.808521
32.941854 44.473444 48.542431
32.736464 43.501628 49.611317
20.717477 65.507874 35.193487
20.402435 64.550266 36.558588
21.690273 64.741196 34.824566
20.717477 65.507874 35.193487
40.250989 40.471119 44.948853
39.851862 41.73114 44.5396
39.569964 40.949066 45.691456
42.830608 36.611515 38.384784
42.669346 37.191757 39.435367
43.014798 36.069316 37.365654
43.21389 37.480598 37.346431
42.830608 36.611515 38.384784
42.740332 34.634592 37.32074
43.123614 35.503675 36.282387
43.014798 36.069316 37.365654
47.274073 40.032152 25.155298
47.688036 40.93367 24.080142
47.298057 41.417757 25.059514
46.74337 39.108807 26.147284
47.133348 38.624719 25.167912
47.274073 40.032152 25.155298
44.715736 62.085281 6.406001
44.018015 63.490017 6.065431
44.023187 62.757869 7.46805
44.047062 63.996552 -16.357259
42.954815 65.185471 -16.781881
43.618523 65.406502 -15.917654
45.59684 56.802524 13.882979
45.547548 57.588821 12.456871
45.547548 57.588821 12.456871
45.458034 58.39339 11.028105
44.890367 59.003727 12.076658
21.277138 49.006443 49.104869
22.050427 47.431362 49.691322
21.471142 50.282868 47.984169
21.277138 49.006443 49.104869
22.44663 49.936547 47.575561
21.679952 51.50013 46.917878
21.471142 50.282868 47.984169
28.687599 43.962601 50.187652
27.661042 44.013262 50.275955
37.355045 42.202501 47.691086
36.705711 43.389944 47.049805
36.474423 42.547882 48.195473
38.124067 41.824974 47.071956
37.355045 42.202501 47.691086
48.688999 44.87051 20.492411
48.484757 46.215706 20.232059
48.202252 45.392872 21.44162
28.229608 80.064885 -13.803481
27.365509 80.175831 -15.047187
26.485093 80.864555 -14.198105
44.655461 67.322052 -9.180675
44.351239 67.615071 -10.40848
43.633591 68.641559 -9.606764
43.934145 65.569996 1.887021
43.191958 66.285358 2.926596
43.978218 64.900078 3.277452
24.862857 73.436451 19.39661
24.36743 72.873127 20.814577
25.422669 72.05249 20.694246
25.443962 81.554157 -3.264995
24.674268 81.774258 -2.006324
26.143983 80.933303 -1.770093
23.188061 83.10498 -7.656325
23.966418 82.641152 -6.214724
24.732608 82.266861 -7.411534
22.341107 83.540947 -9.106623
23.188061 83.10498 -7.656325
23.103919 83.07967 -10.252233
22.341107 83.540947 -9.106623
25.62579 81.540795 -13.317876
24.756808 82.086189 -12.351067
26.48021 81.299003 -11.98759
26.485093 80.864555 -14.198105
25.62579 81.540795 -13.317876
22.380031 54.982403 43.553881
22.132671 53.84843 44.700676
25.587518 64.988445 29.90595
25.250903 64.203834 31.232856
26.254819 63.47546 30.993635
25.942075 65.741242 28.522398
25.587518 64.988445 29.90595
26.969431 65.02071 28.32966
26.320072 66.50188 27.18533
25.942075 65.741242 28.522398
41.712007 38.867082 42.319334
41.325159 39.429243 43.258499
42.679372 28.549976 33.616949
42.437523 29.085952 34.776447
42.971293 29.504722 32.645272
42.679372 28.549976 33.616949
32.26283 73.853272 -18.810472
31.51663 75.122742 -18.283065
33.207146 74.228676 -17.901512
32.972695 72.428326 -19.222279
32.26283 73.853272 -18.810472
34.830004 67.838669 -20.359112
34.264233 69.410473 -19.99712
35.844133 68.501583 -19.66976
35.369644 66.165428 -20.636555
34.830004 67.838669 -20.359112
45.438484 60.650928 6.788157
45.41132 59.924926 8.189309
44.756523 65.564995 -13.981233
44.209951 66.768281 -13.371328
45.227125 65.507035 -12.914078
45.242233 64.260666 -14.508507
44.22506 65.521912 -14.965757
44.756523 65.564995 -13.981233
22.837677 45.949993 50.384716
23.625313 44.449641 51.00972
23.02507 47.237915 49.335247
22.050427 47.431362 49.691322
22.837677 45.949993 50.384716
30.731693 43.771113 49.96304
29.714647 43.841704 50.075046
30.933713 44.820737 48.943985
30.731693 43.771113 49.96304
31.748933 43.623539 49.808521
33.16218 45.416213 47.473785
32.171279 45.615932 47.720821
32.941854 44.473444 48.542431
34.166052 45.145689 47.185772
33.395477 46.288178 46.364162
33.16218 45.416213 47.473785
34.878922 44.004525 47.924793
35.112219 44.87649 46.815171
34.166052 45.145689 47.185772
35.610383 42.834967 48.668453
34.878922 44.004525 47.924793
36.474423 42.547882 48.195473
35.610383 42.834967 48.668453
47.939926 50.497681 16.883336
47.396789 51.853508 16.462663
48.376564 49.152264 17.255627
47.939926 50.497681 16.883336
47.837349 49.715595 18.226014
48.852047 47.813687 17.669373
48.376564 49.152264 17.255627
48.947056 43.522031 20.77863
48.520628 42.682537 21.891607
45.494152 64.016087 -0.092062
44.707832 64.812149 0.874776
45.484674 64.595196 -1.423106
45.494152 64.016087 -0.092062
45.42917 65.158626 -2.766382
44.639755 66.003014 -1.831601
45.484674 64.595196 -1.423106
45.36091 65.670105 -4.073391
45.42917 65.158626 -2.766382
25.950542 74.365433 16.555133
25.383876 73.886146 17.934355
26.484763 73.095101 17.897056
25.439163 75.508919 15.174521
25.950542 74.365433 16.555133
26.54005 74.717873 15.137222
24.904689 76.700336 13.782726
25.439163 75.508919 15.174521
25.090828 79.07676 8.053898
25.750999 79.079422 6.644403
42.38541 37.741855 40.40638
42.125267 38.322744 41.409394
42.745766 38.572895 39.336574
42.38541 37.741855 40.40638
42.669346 37.191757 39.435367
39.674166 67.041328 -18.326329
39.147297 68.48362 -17.861367
40.507502 67.428055 -17.528742
38.798809 66.544521 -19.031174
39.674166 67.041328 -18.326329
37.84678 65.960964 -19.717574
37.361932 67.513336 -19.345353
38.798809 66.544521 -19.031174
36.864768 65.284165 -20.324524
37.84678 65.960964 -19.717574
48.173392 41.818337 23.0328
48.520628 42.682537 21.891607
48.059258 43.183476 22.843165
48.173392 41.818337 23.0328
47.688036 40.93367 24.080142
47.080288 37.202022 25.179655
47.133348 38.624719 25.167912
46.471648 36.257479 26.097771
47.080288 37.202022 25.179655
45.920507 35.306419 27.051914
46.471648 36.257479 26.097771
46.051506 36.750315 27.114041
45.332033 34.338631 27.953592
45.920507 35.306419 27.051914
44.795231 33.37343 28.891633
45.332033 34.338631 27.953592
44.963564 34.834055 29.006225
44.266751 32.397211 29.799242
44.795231 33.37343 28.891633
43.973298 64.216435 4.660204
43.280749 64.889023 5.722253
44.018015 63.490017 6.065431
43.978218 64.900078 3.277452
43.973298 64.216435 4.660204
44.715736 62.085281 6.406001
45.438484 60.650928 6.788157
26.468549 79.111389 5.312541
25.750999 79.079422 6.644403
27.026572 78.258827 6.791726
25.909195 79.857769 3.824416
26.468549 79.111389 5.312541
27.184768 79.037174 3.971738
25.289979 80.635482 2.325513
25.909195 79.857769 3.824416
25.999852 80.468479 0.986096
24.664417 81.320407 0.827996
25.289979 80.635482 2.325513
21.084373 62.870022 37.440928
20.402435 64.550266 36.558588
41.780323 66.290593 -17.16799
40.507502 67.428055 -17.528742
41.253455 67.732883 -16.703028
41.780323 66.290593 -17.16799
42.954815 65.185471 -16.781881
45.734383 55.972507 15.307989
45.59684 56.802524 13.882979
45.117424 57.369141 14.930434
46.297607 54.59581 15.67767
45.734383 55.972507 15.307989
45.818191 55.162426 16.725125
46.887142 53.215866 16.083205
46.297607 54.59581 15.67767
46.891064 52.42337 17.474265
47.396789 51.853508 16.462663
46.887142 53.215866 16.083205
45.451292 59.152507 9.608945
45.41132 59.924926 8.189309
44.760881 60.580715 9.228256
45.451292 59.152507 9.608945
45.458034 58.39339 11.028105
25.512695 70.065509 23.356703
24.497652 70.853607 23.553585
25.083105 69.42995 24.798074
21.901653 52.708179 45.786765
21.679952 51.50013 46.917878
22.886459 52.29406 45.423181
22.132671 53.84843 44.700676
21.901653 52.708179 45.786765
26.639263 44.136156 50.409649
25.621611 44.198917 50.544381
26.840598 45.333 49.457409
26.639263 44.136156 50.409649
27.661042 44.013262 50.275955
28.889425 45.089208 49.211109
28.687599 43.962601 50.187652
29.714647 43.841704 50.075046
38.916319 41.407236 46.440349
38.378585 42.626825 45.913811
38.124067 41.824974 47.071956
39.569964 40.949066 45.691456
38.916319 41.407236 46.440349
48.622746 47.031761 18.940577
48.135998 47.554123 19.889786
48.484757 46.215706 20.232059
48.852047 47.813687 17.669373
48.622746 47.031761 18.940577
48.688999 44.87051 20.492411
48.947056 43.522031 20.77863
26.483004 80.13435 -16.18859
25.547612 80.050789 -17.352739
28.227518 79.334679 -15.793966
26.483004 80.13435 -16.18859
27.365509 80.175831 -15.047187
45.026831 66.502941 -11.143282
44.004961 67.822449 -11.569371
44.351239 67.615071 -10.40848
45.634077 65.390236 -11.825595
45.026831 66.502941 -11.143282
43.921571 66.197429 0.52392
43.934145 65.569996 1.887021
44.707832 64.812149 0.874776
45.240919 66.159698 -5.392376
44.46426 67.056038 -4.493862
45.36091 65.670105 -4.073391
45.096145 66.589996 -6.668176
45.240919 66.159698 -5.392376
44.892917 66.991451 -7.951232
44.141041 67.947086 -7.095903
45.096145 66.589996 -6.668176
44.655461 67.322052 -9.180675
44.892917 66.991451 -7.951232
23.911604 72.331909 22.307097
24.497652 70.853607 23.553585
23.911604 72.331909 22.307097
24.36743 72.873127 20.814577
24.862857 73.436451 19.39661
25.383876 73.886146 17.934355
24.382528 77.760673 12.358576
24.904689 76.700336 13.782726
25.506509 76.921696 12.332459
24.428491 78.954346 9.446259
25.646684 78.104446 9.515949
25.090828 79.07676 8.053898
23.825167 78.859341 10.920687
24.428491 78.954346 9.446259
24.382528 77.760673 12.358576
23.825167 78.859341 10.920687
23.972747 82.022514 -0.679239
24.664417 81.320407 0.827996
23.972747 82.022514 -0.679239
24.674268 81.774258 -2.006324
24.742606 82.099072 -4.73558
25.443962 81.554157 -3.264995
26.212321 81.258117 -4.499349
24.742606 82.099072 -4.73558
23.966418 82.641152 -6.214724
23.932408 82.636524 -11.336057
23.103919 83.07967 -10.252233
24.782741 82.287544 -9.936958
23.932408 82.636524 -11.336057
24.756808 82.086189 -12.351067
22.631189 56.043011 42.440376
22.380031 54.982403 43.553881
23.368635 54.494919 43.223589
21.910636 57.587422 41.597794
22.631189 56.043011 42.440376
22.899241 57.099937 41.267502
21.196424 59.218769 40.818168
21.910636 57.587422 41.597794
21.482258 60.270477 39.574696
21.196424 59.218769 40.818168
21.764928 61.251289 38.363155
21.482258 60.270477 39.574696
22.461358 59.62516 39.213379
22.063472 62.224705 37.079611
21.084373 62.870022 37.440928
21.764928 61.251289 38.363155
22.66388 64.032562 34.486491
21.690273 64.741196 34.824566
22.356524 63.134804 35.819308
22.968004 64.880997 33.174612
22.66388 64.032562 34.486491
23.634256 63.274605 34.169353
23.286719 65.708282 31.791994
22.968004 64.880997 33.174612
24.26099 64.919929 31.501323
24.928292 63.406944 32.589008
25.250903 64.203834 31.232856
23.286719 65.708282 31.791994
24.26099 64.919929 31.501323
25.695431 67.932132 25.989629
25.083105 69.42995 24.798074
26.722789 67.211601 25.796892
25.695431 67.932132 25.989629
26.320072 66.50188 27.18533
40.773947 39.950005 44.093263
40.250989 40.471119 44.948853
41.084099 40.732432 42.962232
40.773947 39.950005 44.093263
41.325159 39.429243 43.258499
42.04857 39.667332 41.217528
41.712007 38.867082 42.319334
42.125267 38.322744 41.409394
43.785013 31.431347 30.74336
44.266751 32.397211 29.799242
43.945025 32.902991 30.888385
42.528951 33.174236 37.273419
42.740332 34.634592 37.32074
42.616562 32.596268 36.13987
42.528951 33.174236 37.273419
42.733415 32.052359 35.039299
42.966002 33.525042 35.136902
42.616562 32.596268 36.13987
42.538007 30.574531 34.906341
42.437523 29.085952 34.776447
42.887447 31.503305 33.903374
42.733415 32.052359 35.039299
42.538007 30.574531 34.906341
43.356916 30.460546 31.676315
43.077663 30.981302 32.801459
42.971293 29.504722 32.645272
43.785013 31.431347 30.74336
43.356916 30.460546 31.676315
26.385151 79.040897 -17.988264
25.547612 80.050789 -17.352739
27.218691 78.005768 -18.609037
26.385151 79.040897 -17.988264
28.178553 78.258069 -17.556142
28.021377 76.796566 -19.112215
27.218691 78.005768 -18.609037
29.792204 75.985138 -18.684471
30.736519 76.360543 -17.77551
31.51663 75.122742 -18.283065
28.021377 76.796566 -19.112215
29.792204 75.985138 -18.684471
33.635203 70.985416 -19.661703
32.972695 72.428326 -19.222279
34.615854 71.516296 -18.868344
33.635203 70.985416 -19.661703
34.264233 69.410473 -19.99712
35.369644 66.165428 -20.636555
36.864768 65.284165 -20.324524
45.611492 63.004692 -14.968166
45.242233 64.260666 -14.508507
45.013567 62.865853 -15.872899
45.611492 63.004692 -14.968166
44.047062 63.996552 -16.357259
45.013567 62.865853 -15.872899
3 0 91 89
3 0 89 92
3 0 92 94
3 1 98 96
3 1 100 98
3 2 103 101
3 2 106 104
3 2 101 106
3 3 110 108
3 3 112 110
3 3 114 112
3 351 350 115
3 4 119 117
3 6 122 120
3 6 124 122
3 7 127 125
3 4 130 128
3 4 117 130
3 9 134 132
3 7 137 135
3 7 125 137
3 352 139 353
3 354 141 355
3 356 355 139
3 354 355 356
3 357 143 358
3 360 359 143
3 5 147 146
3 12 150 148
3 14 153 151
3 14 155 153
3 8 158 156
3 10 161 160
3 12 164 162
3 12 148 164
3 15 361 362
3 15 363 364
3 11 168 166
3 16 171 169
3 16 173 171
3 16 175 173
3 17 178 176
3 17 180 178
3 17 182 180
3 18 185 183
3 18 187 185
3 365 190 366
3 367 366 188
3 365 366 367
3 368 192 369
3 370 194 371
3 372 371 192
3 370 371 372
3 373 196 374
3 375 374 194
3 373 374 375
3 13 199 197
3 19 203 201
3 21 204 90
3 21 205 204
3 22 208 206
3 19 209 93
3 19 201 209
3 24 212 210
3 22 213 95
3 22 206 213
3 26 216 214
3 28 217 97
3 28 376 378
3 378 377 217
3 376 377 378
3 28 379 381
3 379 218 380
3 379 380 381
3 29 219 99
3 29 220 219
3 30 223 221
3 32 224 102
3 32 225 224
3 33 382 384
3 384 383 226
3 382 383 384
3 34 230 228
3 36 231 105
3 36 232 231
3 36 234 232
3 30 235 107
3 30 221 235
3 38 238 236
3 40 239 109
3 40 240 239
3 40 242 240
3 42 243 111
3 42 244 243
3 42 246 244
3 44 247 113
3 44 248 247
3 45 251 249
3 47 252 116
3 47 385 387
3 387 386 252
3 385 386 387
3 48 388 389
3 49 253 118
3 49 254 253
3 20 255 202
3 50 256 121
3 50 257 256
3 50 258 257
3 51 259 123
3 51 260 259
3 52 263 261
3 54 264 126
3 54 265 264
3 23 266 207
3 55 267 129
3 55 268 267
3 55 269 268
3 48 270 131
3 48 390 392
3 392 391 270
3 390 391 392
3 56 273 271
3 58 274 133
3 58 275 274
3 25 276 211
3 59 277 136
3 59 278 277
3 59 279 278
3 52 280 138
3 52 261 280
3 60 393 394
3 60 395 396
3 60 397 399
3 397 281 398
3 397 398 399
3 62 282 140
3 62 283 282
3 400 284 401
3 63 285 142
3 63 286 285
3 63 287 286
3 64 288 144
3 64 289 288
3 64 291 289
3 402 292 403
3 404 403 145
3 402 403 404
3 406 405 292
3 27 407 409
3 409 408 215
3 407 408 409
3 66 410 412
3 410 294 411
3 410 411 412
3 68 295 149
3 68 296 295
3 31 297 222
3 69 298 152
3 69 299 298
3 69 300 299
3 70 301 154
3 70 413 415
3 415 414 301
3 413 414 415
3 53 302 262
3 71 303 157
3 71 304 303
3 416 305 417
3 418 417 227
3 416 417 418
3 72 306 159
3 72 307 306
3 72 308 307
3 57 419 421
3 421 420 272
3 419 420 421
3 35 309 229
3 37 422 424
3 424 423 233
3 422 423 424
3 73 425 427
3 427 426 163
3 425 426 427
3 73 428 429
3 73 430 431
3 66 432 434
3 434 433 165
3 432 433 434
3 66 435 436
3 61 437 438
3 74 310 167
3 74 311 310
3 39 312 237
3 75 313 170
3 75 314 313
3 75 315 314
3 76 439 441
3 441 440 172
3 439 440 441
3 76 442 443
3 76 444 446
3 444 316 445
3 444 445 446
3 77 317 174
3 77 318 317
3 41 319 241
3 78 320 177
3 78 321 320
3 78 322 321
3 79 323 179
3 79 324 323
3 79 325 324
3 80 326 181
3 80 327 326
3 43 328 245
3 81 329 184
3 81 330 329
3 81 331 330
3 82 332 186
3 82 333 332
3 65 334 290
3 83 335 189
3 83 336 335
3 447 337 448
3 84 338 191
3 84 339 338
3 84 340 339
3 85 341 193
3 85 342 341
3 85 343 342
3 86 344 195
3 86 345 344
3 449 346 450
3 452 451 346
3 67 347 293
3 87 453 455
3 455 454 198
3 453 454 455
3 87 456 457
3 46 348 250
3 88 349 200
3 88 458 460
3 460 459 349
3 458 459 460
3 88 461 462
3 89 90 19
3 91 90 89
3 91 21 90
3 92 93 22
3 89 93 92
3 89 19 93
3 94 95 24
3 92 95 94
3 92 22 95
3 96 97 26
3 98 97 96
3 98 28 97
3 98 99 28
3 100 99 98
3 100 29 99
3 101 102 30
3 103 102 101
3 103 32 102
3 464 463 33
3 104 105 34
3 106 105 104
3 106 36 105
3 106 107 36
3 101 107 106
3 101 30 107
3 108 109 38
3 110 109 108
3 110 40 109
3 110 111 40
3 112 111 110
3 112 42 111
3 112 113 42
3 114 113 112
3 114 44 113
3 115 116 45
3 465 116 466
3 467 466 115
3 465 466 467
3 468 47 469
3 470 469 116
3 468 469 470
3 117 118 48
3 119 118 117
3 119 49 118
3 120 121 20
3 122 121 120
3 122 50 121
3 122 123 50
3 124 123 122
3 124 51 123
3 125 126 52
3 127 126 125
3 127 54 126
3 128 129 23
3 130 129 128
3 130 55 129
3 130 131 55
3 117 131 130
3 117 48 131
3 132 133 56
3 134 133 132
3 134 58 133
3 135 136 25
3 137 136 135
3 137 59 136
3 137 138 59
3 125 138 137
3 125 52 138
3 139 471 472
3 139 473 475
3 473 60 474
3 473 474 475
3 139 140 60
3 141 140 139
3 141 62 140
3 476 142 477
3 143 478 480
3 478 142 479
3 478 479 480
3 143 63 142
3 143 144 63
3 481 144 482
3 483 482 143
3 481 482 483
3 484 64 485
3 486 485 144
3 484 485 486
3 487 145 488
3 489 488 64
3 487 488 489
3 490 145 491
3 493 492 145
3 146 494 495
3 147 496 498
3 498 497 146
3 496 497 498
3 147 499 500
3 502 501 27
3 148 149 66
3 150 149 148
3 150 68 149
3 151 152 31
3 153 152 151
3 153 69 152
3 153 154 69
3 155 154 153
3 155 70 154
3 156 157 53
3 158 157 156
3 158 71 157
3 503 159 504
3 505 159 506
3 507 72 508
3 509 508 159
3 507 508 509
3 511 510 72
3 160 512 514
3 514 513 57
3 512 513 514
3 161 515 517
3 517 516 160
3 515 516 517
3 161 518 519
3 521 520 35
3 162 163 37
3 164 163 162
3 164 73 163
3 164 165 73
3 148 165 164
3 148 66 165
3 166 167 61
3 168 167 166
3 168 74 167
3 169 170 39
3 171 170 169
3 171 75 170
3 171 172 75
3 173 172 171
3 173 76 172
3 173 174 76
3 175 174 173
3 175 77 174
3 176 177 41
3 178 177 176
3 178 78 177
3 178 179 78
3 180 179 178
3 180 79 179
3 180 181 79
3 182 181 180
3 182 80 181
3 183 184 43
3 185 184 183
3 185 81 184
3 185 186 81
3 187 186 185
3 187 82 186
3 188 189 65
3 190 189 188
3 190 83 189
3 522 191 523
3 192 524 526
3 524 191 525
3 524 525 526
3 192 84 191
3 192 193 84
3 194 193 192
3 194 85 193
3 194 195 85
3 196 195 194
3 196 86 195
3 197 198 67
3 199 198 197
3 199 87 198
3 527 200 528
3 529 528 46
3 527 528 529
3 530 200 531
3 532 88 533
3 534 533 200
3 532 533 534
3 536 535 88
3 201 202 4
3 203 202 201
3 203 20 202
3 90 203 19
3 204 203 90
3 204 20 203
3 204 120 20
3 205 120 204
3 205 6 120
3 206 207 7
3 208 207 206
3 208 23 207
3 93 208 22
3 209 208 93
3 209 23 208
3 209 128 23
3 201 128 209
3 201 4 128
3 210 211 9
3 212 211 210
3 212 25 211
3 95 212 24
3 213 212 95
3 213 25 212
3 213 135 25
3 206 135 213
3 206 7 135
3 214 215 5
3 216 215 214
3 216 27 215
3 97 216 26
3 217 216 97
3 217 27 216
3 217 537 539
3 539 538 27
3 537 538 539
3 541 540 217
3 218 542 543
3 218 544 545
3 99 218 28
3 219 218 99
3 219 546 548
3 548 547 218
3 546 547 548
3 219 549 550
3 220 551 553
3 553 552 219
3 551 552 553
3 220 554 555
3 221 222 12
3 223 222 221
3 223 31 222
3 102 223 30
3 224 223 102
3 224 31 223
3 224 151 31
3 225 151 224
3 225 14 151
3 226 227 8
3 556 227 557
3 558 557 226
3 556 557 558
3 560 559 227
3 562 561 33
3 228 229 10
3 230 229 228
3 230 35 229
3 105 230 34
3 231 230 105
3 231 35 230
3 231 563 565
3 565 564 35
3 563 564 565
3 232 566 568
3 568 567 231
3 566 567 568
3 232 569 570
3 232 571 573
3 571 233 572
3 571 572 573
3 234 233 232
3 234 37 233
3 107 234 36
3 235 234 107
3 235 37 234
3 235 162 37
3 221 162 235
3 221 12 162
3 574 15 575
3 236 237 11
3 238 237 236
3 238 39 237
3 109 238 38
3 239 238 109
3 239 39 238
3 239 169 39
3 240 169 239
3 240 16 169
3 240 241 16
3 242 241 240
3 242 41 241
3 111 242 40
3 243 242 111
3 243 41 242
3 243 176 41
3 244 176 243
3 244 17 176
3 244 245 17
3 246 245 244
3 246 43 245
3 113 246 42
3 247 246 113
3 247 43 246
3 247 183 43
3 248 183 247
3 248 18 183
3 249 250 13
3 251 250 249
3 251 46 250
3 116 251 45
3 252 251 116
3 252 46 251
3 252 576 578
3 578 577 46
3 576 577 578
3 580 579 252
3 118 581 583
3 583 582 48
3 581 582 583
3 253 584 586
3 586 585 118
3 584 585 586
3 253 587 588
3 253 589 591
3 589 146 590
3 589 590 591
3 254 146 253
3 254 5 146
3 202 119 4
3 255 119 202
3 255 49 119
3 121 255 20
3 256 255 121
3 256 49 255
3 256 254 49
3 257 254 256
3 257 5 254
3 257 214 5
3 258 214 257
3 258 26 214
3 123 258 50
3 259 258 123
3 259 26 258
3 259 96 26
3 260 96 259
3 260 1 96
3 261 262 2
3 263 262 261
3 263 53 262
3 126 263 52
3 264 263 126
3 264 53 263
3 264 156 53
3 265 156 264
3 265 8 156
3 207 127 7
3 266 127 207
3 266 54 127
3 129 266 23
3 267 266 129
3 267 54 266
3 267 265 54
3 268 265 267
3 268 8 265
3 268 226 8
3 269 226 268
3 269 33 226
3 131 269 55
3 270 269 131
3 270 33 269
3 270 592 594
3 594 593 33
3 592 593 594
3 596 595 270
3 271 597 599
3 597 272 598
3 597 598 599
3 273 272 271
3 273 57 272
3 133 273 56
3 274 273 133
3 274 57 273
3 274 160 57
3 275 160 274
3 275 10 160
3 211 134 9
3 276 134 211
3 276 58 134
3 136 276 25
3 277 276 136
3 277 58 276
3 277 275 58
3 278 275 277
3 278 10 275
3 278 228 10
3 279 228 278
3 279 34 228
3 138 279 59
3 280 279 138
3 280 34 279
3 280 104 34
3 261 104 280
3 261 2 104
3 281 600 601
3 281 602 604
3 602 61 603
3 602 603 604
3 140 281 60
3 282 281 140
3 282 61 281
3 282 166 61
3 283 166 282
3 283 11 166
3 605 141 606
3 284 607 609
3 607 141 608
3 607 608 609
3 284 62 141
3 142 610 612
3 610 284 611
3 610 611 612
3 285 284 142
3 285 62 284
3 285 283 62
3 286 283 285
3 286 11 283
3 286 236 11
3 287 236 286
3 287 38 236
3 144 287 63
3 288 287 144
3 288 38 287
3 288 108 38
3 289 108 288
3 289 3 108
3 289 290 3
3 291 290 289
3 291 65 290
3 145 291 64
3 292 291 145
3 292 65 291
3 292 188 65
3 613 188 614
3 615 614 292
3 613 614 615
3 617 616 188
3 215 147 5
3 618 147 619
3 620 619 215
3 618 619 620
3 622 621 147
3 624 623 27
3 625 293 626
3 294 627 629
3 627 293 628
3 627 628 629
3 294 67 293
3 149 294 66
3 295 294 149
3 295 67 294
3 295 197 67
3 296 197 295
3 296 13 197
3 222 150 12
3 297 150 222
3 297 68 150
3 152 297 31
3 298 297 152
3 298 68 297
3 298 296 68
3 299 296 298
3 299 13 296
3 299 249 13
3 300 249 299
3 300 45 249
3 154 300 69
3 301 300 154
3 301 45 300
3 301 115 45
3 630 115 631
3 632 631 301
3 630 631 632
3 634 633 115
3 262 103 2
3 302 103 262
3 302 32 103
3 157 302 53
3 303 302 157
3 303 32 302
3 303 225 32
3 304 225 303
3 304 14 225
3 227 158 8
3 305 158 227
3 305 71 158
3 159 635 637
3 635 305 636
3 635 636 637
3 306 305 159
3 306 71 305
3 306 304 71
3 307 304 306
3 307 14 304
3 307 155 14
3 308 155 307
3 308 70 155
3 638 308 639
3 640 639 72
3 638 639 640
3 641 308 642
3 643 70 644
3 645 644 308
3 643 644 645
3 647 646 70
3 272 648 649
3 651 650 272
3 653 652 57
3 229 161 10
3 309 161 229
3 309 654 656
3 656 655 161
3 654 655 656
3 657 309 658
3 659 658 35
3 657 658 659
3 660 309 661
3 663 662 309
3 233 664 665
3 667 666 233
3 163 668 670
3 670 669 37
3 668 669 670
3 672 671 163
3 165 673 675
3 675 674 73
3 673 674 675
3 677 676 165
3 167 678 680
3 680 679 61
3 678 679 680
3 310 681 683
3 683 682 167
3 681 682 683
3 310 684 685
3 310 686 687
3 311 688 690
3 690 689 310
3 688 689 690
3 311 691 693
3 691 15 692
3 691 692 693
3 237 168 11
3 312 168 237
3 312 74 168
3 170 312 39
3 313 312 170
3 313 74 312
3 313 311 74
3 314 311 313
3 314 15 311
3 314 694 696
3 696 695 15
3 694 695 696
3 315 697 699
3 699 698 314
3 697 698 699
3 315 700 701
3 172 315 75
3 702 315 703
3 704 703 172
3 702 703 704
3 706 705 315
3 707 271 708
3 316 709 711
3 709 271 710
3 709 710 711
3 316 56 271
3 174 316 76
3 317 316 174
3 317 56 316
3 317 132 56
3 318 132 317
3 318 9 132
3 241 175 16
3 319 175 241
3 319 77 175
3 177 319 41
3 320 319 177
3 320 77 319
3 320 318 77
3 321 318 320
3 321 9 318
3 321 210 9
3 322 210 321
3 322 24 210
3 179 322 78
3 323 322 179
3 323 24 322
3 323 94 24
3 324 94 323
3 324 0 94
3 324 91 0
3 325 91 324
3 325 21 91
3 181 325 79
3 326 325 181
3 326 21 325
3 326 205 21
3 327 205 326
3 327 6 205
3 245 182 17
3 328 182 245
3 328 80 182
3 184 328 43
3 329 328 184
3 329 80 328
3 329 327 80
3 330 327 329
3 330 6 327
3 330 124 6
3 331 124 330
3 331 51 124
3 186 331 81
3 332 331 186
3 332 51 331
3 332 260 51
3 333 260 332
3 333 1 260
3 290 114 3
3 334 114 290
3 334 44 114
3 189 334 65
3 335 334 189
3 335 44 334
3 335 248 44
3 336 248 335
3 336 18 248
3 712 190 713
3 337 714 716
3 714 190 715
3 714 715 716
3 337 83 190
3 191 717 719
3 717 337 718
3 717 718 719
3 338 337 191
3 338 83 337
3 338 336 83
3 339 336 338
3 339 18 336
3 339 187 18
3 340 187 339
3 340 82 187
3 193 340 84
3 341 340 193
3 341 82 340
3 341 333 82
3 342 333 341
3 342 1 333
3 342 100 1
3 343 100 342
3 343 29 100
3 195 343 85
3 344 343 195
3 344 29 343
3 344 220 29
3 345 220 344
3 345 720 722
3 722 721 220
3 720 721 722
3 723 196 724
3 725 196 726
3 727 86 728
3 729 728 196
3 727 728 729
3 346 730 731
3 346 732 734
3 732 86 733
3 732 733 734
3 346 345 86
3 735 345 736
3 737 736 346
3 735 736 737
3 739 738 345
3 293 740 741
3 347 742 744
3 744 743 293
3 742 743 744
3 347 745 746
3 198 347 67
3 747 347 748
3 749 748 198
3 747 748 749
3 751 750 347
3 250 199 13
3 348 199 250
3 348 87 199
3 200 348 46
3 349 348 200
3 349 87 348
3 349 752 754
3 754 753 87
3 752 753 754
3 756 755 349
3 758 757 88
3 759 47 760
3 761 47 762
3 764 763 47
