ply
format ascii 1.0
element vertex 587
property float x
property float y
property float z
element face 696
property list uchar int vertex_index
end_header
34.883873 -93.958 -23.873701
36.002796 -6.775681 -52.556732
36.840179 -37.967403 -36.152702
27.14016 -77.567055 -21.449865
44.38781 -57.398571 -32.334053
27.700565 -64.132378 -20.990908
33.342098 -57.469273 -28.121805
32.292004 -45.537918 -29.001463
45.985985 -80.676727 -25.463095
50.118759 -63.651058 -29.787161
39.767792 -76.252441 -27.229063
37.36837 -20.935324 -44.3283
43.312828 -29.997295 -40.771652
29.223103 -87.831116 -22.990675
34.929256 -68.476196 -27.944872
39.666199 -48.538616 -34.285576
48.7052 -39.047516 -38.343628
30.693691 -54.717499 -24.705126
40.687157 -87.45845 -24.924772
42.800152 -78.836945 -26.4788
37.428879 -85.355507 -25.304251
33.619537 -17.600502 -45.568596
36.755039 -13.520237 -48.5755
40.759132 -17.216223 -46.7789
22.866024 -86.820457 -19.456625
23.739681 -92.205353 -20.586348
27.660194 -83.211777 -22.21739
32.286602 -78.409485 -25.147696
30.950947 -73.458336 -24.76779
35.422951 -47.476471 -32.122055
36.090755 -53.124187 -31.596472
38.171501 -43.281456 -35.191383
41.74807 -39.01683 -37.447548
39.751465 -33.919445 -38.76886
47.207874 -60.8134 -31.111921
49.550819 -51.719894 -34.112946
46.699562 -48.091721 -35.265701
27.392748 -71.091522 -20.966108
30.618229 -67.645546 -24.431555
30.83375 -61.258953 -24.357016
33.187012 -51.395905 -28.414156
34.517639 -41.922909 -32.765938
47.975426 -72.281815 -27.335794
44.937458 -69.905457 -28.538153
42.054821 -66.848885 -29.611162
48.019768 -19.424166 -46.47538
34.899994 -33.099018 -37.138611
34.492344 -25.005413 -41.423019
37.482269 -29.093727 -40.182076
40.611763 -25.176603 -42.562027
44.215782 -21.740879 -44.59124
47.157059 -26.514105 -42.666977
25.662737 -96.488091 -21.596987
31.714642 -91.389351 -23.570326
34.542114 -82.371536 -25.362745
37.058025 -72.817551 -27.719492
39.43026 -63.027561 -30.462366
33.698029 -63.287167 -28.020597
37.351143 -58.412441 -31.086695
41.776245 -53.311596 -33.372643
44.024609 -43.848785 -36.314491
45.897682 -34.784538 -39.347313
37.859211 -90.774292 -24.473577
39.027069 -86.509331 -25.160711
36.189865 -89.72847 -24.529425
34.260761 -8.695303 -51.044472
34.674992 -12.032234 -49.142342
36.375446 -10.073765 -50.636436
38.532909 -11.693174 -49.936104
38.214085 -8.314295 -52.022812
25.104557 -79.173645 -19.918341
22.7934 -83.74147 -18.939775
25.095573 -82.296753 -20.323729
25.306238 -85.18589 -20.793375
27.275019 -80.509415 -21.815695
29.384239 -78.412949 -23.384619
29.062609 -75.64801 -23.086309
36.221741 -42.649406 -34.141525
36.698647 -45.397091 -33.763054
37.535088 -40.599464 -35.664398
39.040775 -38.532791 -36.971954
38.207157 -35.941933 -37.56134
45.784584 -59.184071 -31.743505
48.382458 -56.258785 -32.566597
46.961548 -54.562851 -33.194534
48.119087 -49.976185 -34.710739
45.559113 -52.719925 -33.780174
25.681734 -68.786736 -19.437296
25.492893 -72.371979 -19.448664
27.593935 -67.646004 -20.905737
29.251467 -66.208755 -22.556231
29.388952 -62.828465 -22.589434
31.660027 -50.072418 -26.80261
32.023434 -53.152592 -26.515482
32.874283 -48.408524 -28.670969
33.975967 -46.589958 -30.574305
33.433311 -43.790916 -30.892466
45.01218 -84.775925 -24.709955
47.556824 -81.34552 -24.79751
48.532307 -77.319229 -25.676893
49.525433 -73.233566 -26.681086
46.967228 -76.510818 -26.331205
41.254066 -77.644699 -26.883581
43.855957 -74.401657 -27.441977
42.355591 -73.08313 -27.930246
43.473572 -68.467598 -29.096464
40.908867 -71.572426 -28.36899
33.763741 -35.054939 -35.378326
35.522133 -19.146769 -45.045441
34.088234 -21.222385 -43.518967
35.861507 -22.953178 -42.946289
36.077858 -26.937275 -40.84613
37.508732 -24.921711 -42.234833
38.977421 -27.104599 -41.441559
39.07328 -22.954849 -43.478905
42.617706 -15.655169 -47.906044
42.562679 -19.397587 -45.693481
44.449196 -17.957239 -46.731239
46.114655 -20.39168 -45.563759
26.508459 -90.177406 -21.764605
24.573399 -94.485001 -21.118666
27.500038 -92.263741 -22.201952
28.725964 -94.080887 -22.583418
30.367603 -89.740105 -23.311354
33.175423 -86.961395 -24.389456
31.896986 -85.211754 -24.213148
33.648602 -73.4841 -26.482775
34.643108 -75.684906 -26.510931
35.899231 -70.759888 -27.860807
38.251755 -67.930634 -29.056681
37.110806 -65.788445 -29.301378
32.065968 -62.559975 -26.213247
32.12326 -65.555466 -26.253904
33.437653 -60.436588 -28.057169
37.763836 -50.848595 -33.048187
36.615997 -55.837246 -31.347311
38.523735 -53.438641 -32.691483
39.477329 -55.879765 -32.317032
40.641079 -51.004284 -33.83699
42.92654 -48.541946 -34.84108
41.770775 -46.204727 -35.348228
42.610931 -34.42963 -39.067772
43.783775 -36.892036 -38.397232
44.591019 -32.435593 -39.99942
46.605057 -30.512575 -40.959686
45.237663 -28.174717 -41.706978
49.463837 -34.70573 -39.938622
29.375378 -59.423134 -22.755087
29.13224 -56.057243 -23.050417
30.26062 -51.545738 -25.04524
43.384731 -84.072685 -25.237597
44.38678 -79.84343 -26.011614
41.751415 -83.194099 -25.643927
40.151764 -82.12706 -25.961031
38.614769 -80.856186 -26.20471
33.13953 -14.125712 -47.546677
35.109928 -15.510485 -47.123711
37.101448 -17.136417 -46.453133
39.004814 -19.001532 -45.594521
38.810307 -15.249569 -47.765343
40.634586 -13.556295 -49.001656
23.17234 -89.647881 -20.020521
25.77379 -87.817108 -21.286051
28.312464 -85.655167 -22.619139
30.817337 -83.204529 -23.975382
29.9711 -80.936646 -23.691168
31.489187 -76.053329 -24.966673
32.886036 -71.049583 -26.414026
34.460125 -52.426991 -30.10581
34.63562 -55.342915 -29.937551
35.725136 -50.318932 -31.849932
37.177654 -48.150421 -33.401535
38.855457 -45.947998 -34.733536
40.753403 -43.726822 -35.865265
39.860989 -41.150166 -36.405113
40.742432 -36.469624 -38.086128
41.46492 -31.926727 -39.816208
48.651596 -62.299572 -30.454821
51.25053 -59.26585 -31.227175
49.811356 -57.822975 -31.905989
50.977982 -53.340069 -33.471275
50.669891 -47.207653 -35.736145
49.21347 -45.434883 -36.281288
47.76585 -43.526314 -36.786285
33.90065 -5.479382 -52.759697
25.267002 -75.850975 -19.616083
27.206553 -74.414505 -21.155962
28.980854 -72.667038 -22.828852
29.076231 -69.505676 -22.643156
30.709356 -64.50029 -24.349451
32.114048 -59.457657 -26.230291
30.865046 -57.977531 -24.472712
32.142685 -56.302151 -26.325872
33.302505 -54.436581 -28.2348
34.283783 -49.48922 -30.313501
35.060127 -44.657223 -32.425148
35.628017 -39.970566 -34.541626
50.549576 -69.08432 -27.825102
49.024494 -67.993088 -28.487562
45.398689 -75.540604 -26.911173
46.440361 -71.173874 -27.950029
47.524166 -66.755234 -29.132597
46.055008 -65.368805 -29.764532
44.617111 -63.825871 -30.372225
43.214905 -62.114868 -30.938879
33.618916 -2.363556 -54.211876
33.720966 -39.333076 -33.138924
34.82095 -37.421051 -34.959824
35.983334 -35.448658 -36.649734
34.77853 -28.961483 -39.294289
36.128376 -31.102573 -38.749062
37.262497 -33.445198 -38.160767
38.691383 -31.438667 -39.477074
40.278042 -29.460024 -40.619797
42.007309 -27.548801 -41.640709
40.76329 -21.090508 -44.617455
42.36792 -23.364998 -43.595993
43.844166 -25.757675 -42.603394
45.735489 -24.155594 -43.555168
47.609161 -22.835096 -44.495384
30.157776 -95.638931 -22.903116
33.23135 -92.790649 -23.761354
34.617435 -88.46257 -24.496889
35.923973 -83.981049 -25.370028
37.164806 -79.366379 -26.378061
33.316872 -80.516159 -25.285646
35.829182 -77.645218 -26.479486
38.360229 -74.64679 -27.509516
39.531586 -69.857758 -28.746767
40.696754 -65.038124 -30.068468
41.866219 -60.224072 -31.451891
30.672749 -70.645294 -24.579851
32.37994 -68.397751 -26.329115
34.189041 -65.977982 -27.990667
34.930172 -58.18082 -29.791616
35.425869 -60.891788 -29.649839
36.156124 -63.43684 -29.493048
38.299557 -60.816109 -30.797422
40.60535 -58.145607 -31.908667
43.039391 -55.443768 -32.875908
44.20155 -50.715485 -34.324814
45.3228 -46.051315 -35.792137
46.360641 -41.466644 -37.282364
42.831978 -41.493797 -36.85955
45.028755 -39.250694 -37.808044
47.267494 -36.993561 -38.808044
48.002747 -32.695152 -40.381096
36.371542 -92.366146 -24.173639
37.246657 -92.839886 -24.178199
35.758988 -94.431739 -23.878262
26.69115 -66.459557 -20.214102
25.712363 -66.969059 -19.513295
26.721778 -64.64188 -20.290101
44.507065 -16.177088 -47.851914
43.533451 -16.806204 -47.318641
43.59132 -15.026053 -48.439316
45.422928 -17.406879 -47.223621
44.507065 -16.177088 -47.851914
51.412668 -62.120138 -30.163304
50.864959 -64.259939 -29.449999
49.843593 -37.809161 -38.951363
49.446914 -40.001331 -38.121559
49.084519 -36.876623 -39.141125
50.222912 -35.638267 -39.74886
49.843593 -37.809161 -38.951363
28.228229 -56.604227 -22.318655
28.378166 -58.334289 -22.137171
29.922362 -50.040184 -25.252092
29.45246 -52.174112 -24.247684
30.641641 -49.337217 -26.107738
29.922362 -50.040184 -25.252092
41.528578 -87.838184 -24.745531
40.136804 -89.536777 -24.612932
42.035944 -85.765568 -25.081184
42.877365 -86.145302 -24.901944
41.528578 -87.838184 -24.745531
32.917041 -12.454143 -48.480626
32.241088 -13.552542 -47.612072
40.530748 -11.827459 -50.102643
39.583748 -12.624735 -49.46888
39.479909 -10.895899 -50.569867
41.598272 -12.843362 -49.581825
40.530748 -11.827459 -50.102643
21.592375 -87.455223 -18.830278
21.556063 -85.915729 -18.571853
22.829712 -85.280964 -19.1982
21.679549 -88.968345 -19.141775
21.592375 -87.455223 -18.830278
23.019182 -88.234169 -19.738573
21.832707 -90.382058 -19.423723
21.679549 -88.968345 -19.141775
50.83086 -50.291332 -34.623654
51.544441 -51.101419 -34.302818
50.2644 -52.529981 -33.79211
50.110355 -49.463774 -34.924546
51.390396 -48.035212 -35.435253
50.83086 -50.291332 -34.623654
32.968826 -4.953474 -52.68264
33.110063 -6.517178 -51.940357
34.510745 -1.439438 -54.914894
33.527079 -0.847543 -54.770462
34.644199 -2.98117 -54.229206
34.510745 -1.439438 -54.914894
33.197266 -38.137805 -33.329129
33.169265 -40.242981 -32.196762
32.964222 -18.669886 -44.732628
32.710802 -16.949292 -45.706574
33.653351 -24.162405 -41.641475
33.451296 -22.270891 -42.68945
34.290289 -23.113899 -42.470993
33.877392 -26.030508 -40.587833
33.653351 -24.162405 -41.641475
34.635437 -26.983448 -40.358654
34.020485 -28.008543 -39.523468
33.877392 -26.030508 -40.587833
48.699749 -20.684189 -45.909061
48.494445 -22.389654 -44.919064
47.814464 -21.129631 -45.485382
22.667314 -94.28492 -20.336396
22.325873 -93.042171 -20.028058
24.103165 -97.528512 -21.122179
23.558496 -96.526967 -20.883018
25.118068 -95.486546 -21.357827
24.704933 -98.492302 -21.369371
23.145361 -99.532723 -20.894564
24.103165 -97.528512 -21.122179
26.324889 -97.355213 -21.805792
24.704933 -98.492302 -21.369371
47.853436 -27.595916 -42.332947
47.577435 -29.595151 -41.479301
46.881058 -28.51334 -41.813332
48.051536 -25.801835 -43.151459
47.853436 -27.595916 -42.332947
52.535425 -57.759418 -31.660874
51.824583 -57.05779 -32.011002
38.722831 -91.194699 -24.387335
37.246657 -92.839886 -24.178199
39.273184 -89.116371 -24.699174
40.136804 -89.536777 -24.612932
38.722831 -91.194699 -24.387335
34.467877 -10.363768 -50.093407
33.684773 -11.407404 -49.278458
33.477657 -9.738938 -50.229523
39.320498 -9.206459 -51.61322
39.479909 -10.895899 -50.569867
38.373497 -10.003735 -50.979458
23.948978 -81.457558 -19.429058
22.847859 -82.09082 -18.728136
24.003437 -79.806907 -19.217419
24.600572 -69.204087 -18.794185
25.712363 -66.969059 -19.513295
24.517207 -71.059238 -18.769024
24.600572 -69.204087 -18.794185
25.587314 -70.579358 -19.44298
24.422787 -72.85186 -18.774708
24.517207 -71.059238 -18.769024
45.797577 -85.044182 -24.363075
44.518953 -86.787705 -24.375225
47.069899 -83.32898 -24.406852
45.797577 -85.044182 -24.363075
46.284502 -83.060722 -24.753732
48.302219 -81.599357 -24.383139
47.815294 -83.582817 -23.992481
47.069899 -83.32898 -24.406852
48.803646 -79.656616 -24.852157
48.302219 -81.599357 -24.383139
49.291387 -77.643471 -25.291849
48.803646 -79.656616 -24.852157
48.044566 -79.332375 -25.237201
49.795023 -75.673561 -25.814324
49.291387 -77.643471 -25.291849
49.02887 -75.276398 -26.17899
50.291586 -73.63073 -26.31642
49.795023 -75.673561 -25.814324
33.134367 -33.986335 -35.569431
33.218653 -35.998737 -34.44883
33.680014 -33.009299 -36.483188
33.134367 -33.986335 -35.569431
34.24814 -32.031339 -37.363331
34.331868 -34.076978 -36.258468
33.680014 -33.009299 -36.483188
46.255657 -18.624099 -46.639881
45.281925 -19.17446 -46.147499
45.422928 -17.406879 -47.223621
47.208214 -18.140342 -47.095692
47.067211 -19.907923 -46.01957
46.255657 -18.624099 -46.639881
50.498146 -33.526245 -40.591831
50.222912 -35.638267 -39.74886
49.731029 -32.651211 -40.7477
50.498146 -33.526245 -40.591831
27.662329 -62.371857 -21.107416
26.721778 -64.64188 -20.290101
28.499735 -60.017235 -21.989506
28.537972 -61.777756 -21.872998
27.662329 -62.371857 -21.107416
29.253809 -57.740189 -22.902752
28.499735 -60.017235 -21.989506
28.378166 -58.334289 -22.137171
28.88827 -54.429865 -23.250273
28.228229 -56.604227 -22.318655
27.98426 -54.976849 -22.518511
29.69643 -53.80149 -24.047829
28.88827 -54.429865 -23.250273
29.45246 -52.174112 -24.247684
31.341344 -48.600557 -26.986424
30.960324 -50.809078 -25.923925
30.641641 -49.337217 -26.107738
31.657332 -46.333307 -28.08585
31.976015 -47.805168 -27.902037
31.341344 -48.600557 -26.986424
43.69109 -86.496921 -24.638123
44.518953 -86.787705 -24.375225
44.198456 -84.424305 -24.973776
43.69109 -86.496921 -24.638123
42.877365 -86.145302 -24.901944
32.470799 -15.211897 -46.695614
32.241088 -13.552542 -47.612072
33.379534 -15.863107 -46.557637
32.710802 -16.949292 -45.706574
32.470799 -15.211897 -46.695614
33.907261 -13.078973 -48.34451
32.917041 -12.454143 -48.480626
33.684773 -11.407404 -49.278458
42.589832 -13.892799 -49.034019
41.626146 -14.605732 -48.45385
41.598272 -12.843362 -49.581825
43.59132 -15.026053 -48.439316
42.589832 -13.892799 -49.034019
21.571258 -84.283093 -18.297094
22.847859 -82.09082 -18.728136
21.571258 -84.283093 -18.297094
21.556063 -85.915729 -18.571853
22.042202 -91.763435 -19.745144
21.832707 -90.382058 -19.423723
23.45601 -90.926617 -20.303435
22.325873 -93.042171 -20.028058
22.042202 -91.763435 -19.745144
51.104996 -56.336353 -32.350409
51.824583 -57.05779 -32.011002
50.530943 -58.544412 -31.566582
51.688309 -54.0949 -33.133052
51.104996 -56.336353 -32.350409
50.394669 -55.581522 -32.688632
52.252636 -51.877598 -33.972977
51.688309 -54.0949 -33.133052
52.252636 -51.877598 -33.972977
51.544441 -51.101419 -34.302818
51.912232 -45.804823 -36.307781
51.390396 -48.035212 -35.435253
51.17623 -44.970799 -36.57986
51.912232 -45.804823 -36.307781
50.448019 -44.084413 -36.852432
51.17623 -44.970799 -36.57986
49.941681 -46.321268 -36.008717
49.701049 -43.195015 -37.090389
50.448019 -44.084413 -36.852432
48.977239 -42.24073 -37.342888
49.701049 -43.195015 -37.090389
48.48966 -44.480598 -36.533787
48.235525 -41.286915 -37.564957
49.446914 -40.001331 -38.121559
48.977239 -42.24073 -37.342888
33.290119 -8.125138 -51.082745
33.477657 -9.738938 -50.229523
34.080706 -7.087343 -51.902085
33.290119 -8.125138 -51.082745
33.110063 -6.517178 -51.940357
24.305524 -74.663528 -18.837916
24.422787 -72.85186 -18.774708
24.192579 -76.403027 -18.921625
24.305524 -74.663528 -18.837916
25.379948 -74.111477 -19.532373
24.08466 -78.145573 -19.06629
24.192579 -76.403027 -18.921625
25.18578 -77.51231 -19.767212
24.003437 -79.806907 -19.217419
24.08466 -78.145573 -19.06629
50.802099 -71.628852 -26.900605
50.291586 -73.63073 -26.31642
51.314171 -69.55423 -27.472613
50.802099 -71.628852 -26.900605
50.037504 -71.158943 -27.253094
51.834687 -67.514816 -28.120874
51.314171 -69.55423 -27.472613
51.080368 -66.97657 -28.46897
51.834687 -67.514816 -28.120874
50.317827 -66.430954 -28.800199
51.080368 -66.97657 -28.46897
49.787035 -68.538704 -28.156332
49.571626 -65.822073 -29.137362
50.864959 -64.259939 -29.449999
50.317827 -66.430954 -28.800199
34.196324 -95.993286 -23.597237
35.758988 -94.431739 -23.878262
32.74 -1.876132 -54.008335
33.527079 -0.847543 -54.770462
32.827959 -3.395561 -53.408729
32.74 -1.876132 -54.008335
33.759783 -3.921469 -53.485787
32.968826 -4.953474 -52.68264
32.827959 -3.395561 -53.408729
34.785066 -4.539083 -53.503117
33.759783 -3.921469 -53.485787
34.644199 -2.98117 -54.229206
35.83614 -5.187233 -53.401634
34.951723 -6.127531 -52.658214
34.785066 -4.539083 -53.503117
36.946562 -5.929756 -53.240082
35.83614 -5.187233 -53.401634
38.052206 -6.699063 -52.973122
37.108441 -7.544988 -52.289772
36.946562 -5.929756 -53.240082
39.192741 -7.565392 -52.648907
38.052206 -6.699063 -52.973122
39.320498 -9.206459 -51.61322
39.192741 -7.565392 -52.648907
48.200533 -17.800529 -47.531235
47.208214 -18.140342 -47.095692
48.964153 -19.195099 -46.853004
48.200533 -17.800529 -47.531235
48.699749 -20.684189 -45.909061
48.964153 -19.195099 -46.853004
31.870151 -44.193123 -29.190213
31.657332 -46.333307 -28.08585
32.454785 -43.345401 -30.128031
31.870151 -44.193123 -29.190213
33.025438 -42.471901 -31.073532
32.862657 -44.664417 -29.946964
32.454785 -43.345401 -30.128031
33.577139 -41.561996 -32.015695
33.025438 -42.471901 -31.073532
33.169265 -40.242981 -32.196762
33.742354 -37.194007 -34.258625
33.197266 -38.137805 -33.329129
33.218653 -35.998737 -34.44883
33.198571 -20.480828 -43.707814
32.964222 -18.669886 -44.732628
33.853886 -19.411443 -44.543782
33.198571 -20.480828 -43.707814
33.451296 -22.270891 -42.68945
34.187409 -29.962571 -38.44117
34.020485 -28.008543 -39.523468
34.839262 -31.030251 -38.21645
34.24814 -32.031339 -37.363331
34.187409 -29.962571 -38.44117
48.277587 -23.962331 -44.065663
48.051536 -25.801835 -43.151459
47.38311 -24.674601 -43.581181
48.277587 -23.962331 -44.065663
48.494445 -22.389654 -44.919064
33.323912 -95.454281 -23.514267
34.196324 -95.993286 -23.597237
23.084173 -95.424744 -20.602555
22.667314 -94.28492 -20.336396
24.15654 -93.345177 -20.852507
23.084173 -95.424744 -20.602555
23.558496 -96.526967 -20.883018
27.856503 -96.151612 -22.299008
26.324889 -97.355213 -21.805792
27.19435 -95.284489 -22.090203
28.572409 -96.930633 -22.458856
27.856503 -96.151612 -22.299008
29.44187 -94.859909 -22.743267
29.338795 -97.668903 -22.636719
28.572409 -96.930633 -22.458856
30.960863 -96.294747 -23.028975
29.338795 -97.668903 -22.636719
32.49765 -94.870606 -23.458094
30.960863 -96.294747 -23.028975
31.694563 -94.21479 -23.332235
34.057612 -93.374325 -23.817528
33.323912 -95.454281 -23.514267
32.49765 -94.870606 -23.458094
49.000484 -31.645922 -40.968937
49.731029 -32.651211 -40.7477
48.733292 -33.700441 -40.159859
48.27628 -30.686439 -41.190006
47.303902 -31.603863 -40.670391
47.577435 -29.595151 -41.479301
49.000484 -31.645922 -40.968937
48.27628 -30.686439 -41.190006
51.978554 -59.927534 -30.883311
51.412668 -62.120138 -30.163304
50.684644 -61.458454 -30.507168
51.978554 -59.927534 -30.883311
52.535425 -57.759418 -31.660874
3 0 247 249
3 247 62 248
3 247 248 249
3 0 64 62
3 1 67 65
3 1 69 67
3 3 72 70
3 3 74 72
3 3 76 74
3 2 79 77
3 2 81 79
3 4 84 82
3 4 86 84
3 5 250 252
3 250 87 251
3 250 251 252
3 5 89 87
3 5 91 89
3 7 94 92
3 7 96 94
3 8 98 97
3 8 99 98
3 8 101 99
3 10 104 102
3 10 106 104
3 11 110 108
3 11 112 110
3 11 114 112
3 253 117 254
3 255 254 115
3 253 254 255
3 257 256 117
3 13 121 119
3 13 123 121
3 13 125 123
3 14 128 126
3 14 130 128
3 6 133 131
3 15 136 134
3 15 138 136
3 15 140 138
3 12 143 141
3 12 145 143
3 9 258 259
3 16 260 261
3 16 262 264
3 262 146 263
3 262 263 264
3 265 148 266
3 267 149 268
3 270 269 149
3 18 271 272
3 18 273 275
3 273 150 274
3 273 274 275
3 18 152 150
3 20 153 63
3 20 154 153
3 276 155 277
3 22 156 66
3 22 157 156
3 22 159 157
3 278 160 279
3 280 279 68
3 278 279 280
3 282 281 160
3 24 283 285
3 285 284 71
3 283 284 285
3 24 286 287
3 24 288 290
3 288 161 289
3 288 289 290
3 26 162 73
3 26 163 162
3 26 165 163
3 28 166 75
3 28 167 166
3 29 170 168
3 31 171 78
3 31 172 171
3 31 174 172
3 33 175 80
3 33 176 175
3 34 179 177
3 35 180 83
3 35 291 293
3 293 292 180
3 291 292 293
3 35 294 296
3 294 181 295
3 294 295 296
3 36 182 85
3 36 183 182
3 297 184 298
3 37 185 88
3 37 186 185
3 37 188 186
3 39 189 90
3 39 190 189
3 17 191 147
3 40 192 93
3 40 193 192
3 40 194 193
3 41 195 95
3 41 196 195
3 42 197 100
3 42 198 197
3 19 199 151
3 43 200 103
3 43 201 200
3 43 202 201
3 44 203 105
3 44 204 203
3 299 205 300
3 302 301 205
3 303 206 304
3 46 207 107
3 46 208 207
3 21 305 306
3 47 307 309
3 309 308 109
3 307 308 309
3 47 310 311
3 47 312 314
3 312 209 313
3 312 313 314
3 48 210 111
3 48 211 210
3 48 212 211
3 49 213 113
3 49 214 213
3 23 215 158
3 50 216 116
3 50 217 216
3 50 218 217
3 45 219 118
3 45 315 317
3 317 316 219
3 315 316 317
3 25 318 319
3 52 320 322
3 322 321 120
3 320 321 322
3 52 323 325
3 323 324 325
3 52 326 327
3 53 220 122
3 53 221 220
3 53 222 221
3 54 223 124
3 54 224 223
3 27 225 164
3 55 226 127
3 55 227 226
3 55 228 227
3 56 229 129
3 56 230 229
3 38 231 187
3 57 232 132
3 57 233 232
3 30 234 169
3 58 235 135
3 58 236 235
3 58 237 236
3 59 238 137
3 59 239 238
3 59 240 239
3 60 241 139
3 60 242 241
3 32 243 173
3 61 244 142
3 61 245 244
3 61 246 245
3 51 328 330
3 330 329 144
3 328 329 330
3 51 331 332
3 334 333 178
3 62 335 336
3 62 337 339
3 337 18 338
3 337 338 339
3 62 63 18
3 64 63 62
3 64 20 63
3 65 340 342
3 340 66 341
3 340 341 342
3 67 66 65
3 67 22 66
3 67 68 22
3 69 68 67
3 69 343 345
3 345 344 68
3 343 344 345
3 70 346 348
3 346 71 347
3 346 347 348
3 72 71 70
3 72 24 71
3 72 73 24
3 74 73 72
3 74 26 73
3 74 75 26
3 76 75 74
3 76 28 75
3 77 78 29
3 79 78 77
3 79 31 78
3 79 80 31
3 81 80 79
3 81 33 80
3 82 83 34
3 84 83 82
3 84 35 83
3 84 85 35
3 86 85 84
3 86 36 85
3 87 349 350
3 87 351 352
3 87 353 355
3 353 88 354
3 353 354 355
3 89 88 87
3 89 37 88
3 89 90 37
3 91 90 89
3 91 39 90
3 92 93 17
3 94 93 92
3 94 40 93
3 94 95 40
3 96 95 94
3 96 41 95
3 97 356 357
3 98 358 360
3 360 359 97
3 358 359 360
3 98 361 363
3 361 362 363
3 98 364 365
3 99 366 368
3 368 367 98
3 366 367 368
3 99 369 370
3 99 371 373
3 371 100 372
3 371 372 373
3 101 100 99
3 101 42 100
3 102 103 19
3 104 103 102
3 104 43 103
3 104 105 43
3 106 105 104
3 106 44 105
3 374 107 375
3 376 107 377
3 378 46 379
3 380 379 107
3 378 379 380
3 108 109 21
3 110 109 108
3 110 47 109
3 110 111 47
3 112 111 110
3 112 48 111
3 112 113 48
3 114 113 112
3 114 49 113
3 115 116 23
3 117 116 115
3 117 50 116
3 117 118 50
3 381 118 382
3 383 382 117
3 381 382 383
3 384 45 385
3 386 385 118
3 384 385 386
3 119 120 25
3 121 120 119
3 121 52 120
3 121 122 52
3 123 122 121
3 123 53 122
3 123 124 53
3 125 124 123
3 125 54 124
3 126 127 27
3 128 127 126
3 128 55 127
3 128 129 55
3 130 129 128
3 130 56 129
3 131 132 38
3 133 132 131
3 133 57 132
3 134 135 30
3 136 135 134
3 136 58 135
3 136 137 58
3 138 137 136
3 138 59 137
3 138 139 59
3 140 139 138
3 140 60 139
3 141 142 32
3 143 142 141
3 143 61 142
3 143 144 61
3 145 144 143
3 145 51 144
3 146 387 388
3 146 389 390
3 391 5 392
3 393 147 394
3 395 394 5
3 393 394 395
3 148 396 398
3 396 147 397
3 396 397 398
3 148 17 147
3 399 148 400
3 399 400 401
3 149 402 404
3 402 148 403
3 402 403 404
3 149 17 148
3 149 92 17
3 405 92 406
3 407 406 149
3 405 406 407
3 408 7 409
3 410 409 92
3 408 409 410
3 411 97 412
3 150 413 415
3 413 97 414
3 413 414 415
3 150 8 97
3 150 151 8
3 152 151 150
3 152 19 151
3 63 152 18
3 153 152 63
3 153 19 152
3 153 102 19
3 154 102 153
3 154 10 102
3 155 416 417
3 155 418 420
3 418 21 419
3 418 419 420
3 66 421 423
3 421 155 422
3 421 422 423
3 156 155 66
3 156 21 155
3 156 108 21
3 157 108 156
3 157 11 108
3 157 158 11
3 159 158 157
3 159 23 158
3 68 159 22
3 160 159 68
3 160 23 159
3 160 115 23
3 424 115 425
3 426 425 160
3 424 425 426
3 428 427 115
3 71 429 430
3 432 431 71
3 161 433 434
3 161 435 437
3 435 25 436
3 435 436 437
3 73 161 24
3 162 161 73
3 162 25 161
3 162 119 25
3 163 119 162
3 163 13 119
3 163 164 13
3 165 164 163
3 165 27 164
3 75 165 26
3 166 165 75
3 166 27 165
3 166 126 27
3 167 126 166
3 167 14 126
3 168 169 6
3 170 169 168
3 170 30 169
3 78 170 29
3 171 170 78
3 171 30 170
3 171 134 30
3 172 134 171
3 172 15 134
3 172 173 15
3 174 173 172
3 174 32 173
3 80 174 31
3 175 174 80
3 175 32 174
3 175 141 32
3 176 141 175
3 176 12 141
3 177 178 9
3 179 178 177
3 179 438 440
3 440 439 178
3 438 439 440
3 83 179 34
3 180 179 83
3 180 441 443
3 443 442 179
3 441 442 443
3 180 444 445
3 447 446 180
3 181 448 449
3 181 450 451
3 85 181 35
3 182 181 85
3 182 452 454
3 454 453 181
3 452 453 454
3 182 455 456
3 183 457 459
3 459 458 182
3 457 458 459
3 183 460 462
3 460 16 461
3 460 461 462
3 463 65 464
3 184 465 467
3 465 65 466
3 465 466 467
3 184 1 65
3 88 468 469
3 185 470 472
3 472 471 88
3 470 471 472
3 185 473 474
3 185 475 477
3 475 70 476
3 475 476 477
3 186 70 185
3 186 3 70
3 186 187 3
3 188 187 186
3 188 38 187
3 90 188 37
3 189 188 90
3 189 38 188
3 189 131 38
3 190 131 189
3 190 6 131
3 147 91 5
3 191 91 147
3 191 39 91
3 93 191 17
3 192 191 93
3 192 39 191
3 192 190 39
3 193 190 192
3 193 6 190
3 193 168 6
3 194 168 193
3 194 29 168
3 95 194 40
3 195 194 95
3 195 29 194
3 195 77 29
3 196 77 195
3 196 2 77
3 100 478 479
3 197 480 482
3 482 481 100
3 480 481 482
3 197 483 484
3 197 485 486
3 198 487 489
3 489 488 197
3 487 488 489
3 198 490 492
3 490 9 491
3 490 491 492
3 151 101 8
3 199 101 151
3 199 42 101
3 103 199 19
3 200 199 103
3 200 42 199
3 200 198 42
3 201 198 200
3 201 9 198
3 201 177 9
3 202 177 201
3 202 34 177
3 105 202 43
3 203 202 105
3 203 34 202
3 203 82 34
3 204 82 203
3 204 4 82
3 493 0 494
3 205 495 496
3 205 497 498
3 205 499 501
3 499 184 500
3 499 500 501
3 502 184 503
3 504 503 205
3 502 503 504
3 505 1 506
3 507 506 184
3 505 506 507
3 508 1 509
3 510 69 511
3 512 511 1
3 510 511 512
3 513 69 514
3 516 515 69
3 517 45 518
3 519 45 520
3 522 521 45
3 523 7 524
3 525 7 526
3 527 96 528
3 529 528 7
3 527 528 529
3 206 530 532
3 530 96 531
3 530 531 532
3 206 41 96
3 107 533 535
3 533 206 534
3 533 534 535
3 207 206 107
3 207 41 206
3 207 196 41
3 208 196 207
3 208 2 196
3 109 536 538
3 538 537 21
3 536 537 538
3 540 539 109
3 209 541 542
3 209 543 545
3 543 46 544
3 543 544 545
3 111 209 47
3 210 209 111
3 210 46 209
3 210 208 46
3 211 208 210
3 211 2 208
3 211 81 2
3 212 81 211
3 212 33 81
3 113 212 48
3 213 212 113
3 213 33 212
3 213 176 33
3 214 176 213
3 214 12 176
3 158 114 11
3 215 114 158
3 215 49 114
3 116 215 23
3 216 215 116
3 216 49 215
3 216 214 49
3 217 214 216
3 217 12 214
3 217 145 12
3 218 145 217
3 218 51 145
3 118 218 50
3 219 218 118
3 219 51 218
3 219 546 548
3 548 547 51
3 546 547 548
3 550 549 219
3 551 0 552
3 120 553 555
3 555 554 25
3 553 554 555
3 557 556 120
3 122 558 560
3 560 559 52
3 558 559 560
3 220 561 563
3 563 562 122
3 561 562 563
3 220 564 565
3 220 566 567
3 221 568 570
3 570 569 220
3 568 569 570
3 221 571 573
3 571 0 572
3 571 572 573
3 221 64 0
3 222 64 221
3 222 20 64
3 124 222 53
3 223 222 124
3 223 20 222
3 223 154 20
3 224 154 223
3 224 10 154
3 164 125 13
3 225 125 164
3 225 54 125
3 127 225 27
3 226 225 127
3 226 54 225
3 226 224 54
3 227 224 226
3 227 10 224
3 227 106 10
3 228 106 227
3 228 44 106
3 129 228 55
3 229 228 129
3 229 44 228
3 229 204 44
3 230 204 229
3 230 4 204
3 187 76 3
3 231 76 187
3 231 28 76
3 132 231 38
3 232 231 132
3 232 28 231
3 232 167 28
3 233 167 232
3 233 14 167
3 169 133 6
3 234 133 169
3 234 57 133
3 135 234 30
3 235 234 135
3 235 57 234
3 235 233 57
3 236 233 235
3 236 14 233
3 236 130 14
3 237 130 236
3 237 56 130
3 137 237 58
3 238 237 137
3 238 56 237
3 238 230 56
3 239 230 238
3 239 4 230
3 239 86 4
3 240 86 239
3 240 36 86
3 139 240 59
3 241 240 139
3 241 36 240
3 241 183 36
3 242 183 241
3 242 16 183
3 173 140 15
3 243 140 173
3 243 60 140
3 142 243 32
3 244 243 142
3 244 60 243
3 244 242 60
3 245 242 244
3 245 16 242
3 245 146 16
3 246 146 245
3 246 574 576
3 576 575 146
3 574 575 576
3 144 246 61
3 577 246 578
3 579 578 144
3 577 578 579
3 581 580 246
3 178 582 584
3 584 583 9
3 582 583 584
3 586 585 178
