ply
format ascii 1.0
element vertex 453
property float x
property float y
property float z
element face 504
property list uchar int vertex_index
end_header
-7.012196 -82.973381 20.524376
-0.39283 -103.353973 21.09186
-5.421814 -92.310623 20.632877
-4.6152 -96.307098 30.761295
-5.793194 -98.949203 40.993088
-8.081692 -89.805389 12.202354
-1.904495 -100.291794 11.831027
1.287533 -112.346069 9.740324
-3.12326 -106.666702 31.340057
0.000381 -114.857574 19.251377
-1.681715 -122.978607 4.881916
-5.333174 -91.203537 30.17598
-4.811018 -92.920624 35.313354
-9.615503 -85.089508 12.309174
-8.246586 -86.058731 16.247568
-2.775496 -97.619965 20.883301
-3.610941 -95.929871 16.180063
-0.678278 -101.591949 16.15798
0.438597 -106.217926 11.139754
1.142765 -107.666489 15.703194
-7.097744 -103.101166 40.791138
-5.109737 -102.861359 36.368122
-5.852997 -107.084015 35.701668
-2.622412 -115.186569 23.697714
-2.35158 -119.455505 16.788845
-0.244686 -119.219437 12.249696
-7.095104 -87.457977 20.564932
-6.121305 -89.273407 25.223454
-4.7651 -94.285706 25.549335
-2.749964 -99.668945 26.049568
-9.037951 -102.034332 44.504036
-11.128906 -84.14241 8.831125
-6.548208 -90.780945 16.169851
-5.11812 -94.828644 12.084479
-4.988951 -97.965622 36.005394
-3.559452 -101.58287 31.34782
-1.219172 -105.234726 26.316374
-3.986628 -111.049606 30.038166
-1.076462 -110.595032 25.663275
0.683617 -109.268784 20.699497
1.294823 -113.753754 14.422335
0.529457 -118.148346 7.579461
-8.372475 -83.817657 16.275677
-7.814356 -84.443375 18.37953
-1.474777 -100.442917 21.023912
-1.654079 -99.509872 18.539019
-0.401772 -102.428024 18.563091
0.420715 -104.59549 16.013857
0.535929 -105.430603 18.462894
-7.913792 -104.763962 40.199364
-6.628277 -105.104279 38.305603
-7.37159 -106.770615 37.556419
-2.656389 -121.501587 13.18915
-6.285263 -86.917786 25.117659
-5.800114 -87.851288 27.496227
-5.071142 -93.718582 30.449881
-5.284065 -92.73674 27.875195
-4.624491 -95.318176 28.132982
-3.769922 -96.938477 25.791348
-3.834888 -97.974045 28.427231
-10.328856 -82.357605 10.532385
-9.0842 -87.415573 12.259197
-9.901754 -87.007721 10.45429
-8.954758 -89.418671 10.396812
-6.447115 -89.830444 20.579815
-6.993227 -89.033401 18.338438
-5.928801 -91.472702 18.339657
-2.681099 -98.029099 14.009546
-4.295322 -95.310394 14.055351
-3.463892 -97.498474 11.991541
-1.333956 -102.638763 9.592399
1.066576 -109.285004 10.538335
0.547245 -108.587814 8.434166
0.920073 -111.605682 7.576805
0.548342 -113.745361 4.468337
0.900688 -114.570023 6.537403
-5.037436 -96.104767 38.251751
-5.349787 -98.557831 38.547241
-4.207834 -104.767715 33.920929
-4.255182 -102.329483 33.916737
-3.209227 -104.178207 31.46735
-2.416157 -103.383102 28.893291
-2.046143 -106.044098 28.885849
-1.157522 -115.153534 21.5583
-1.64316 -113.025452 24.844231
-0.37923 -112.685486 22.544287
-0.037134 -110.002457 23.220898
0.565845 -112.144012 20.118444
1.172104 -111.47493 17.640472
0.821215 -114.369003 16.84885
-0.831512 -121.225586 8.597958
0.300217 -118.76387 9.900546
-0.407196 -120.725677 6.273749
-0.254721 -120.040451 4.003826
-1.347704 -122.392654 2.585512
-5.335358 -88.774078 29.936138
-5.03311 -92.105347 32.731487
-4.957949 -94.630112 33.05764
-9.633005 -82.821671 12.333979
-8.976858 -83.289551 14.255445
-8.903231 -85.536621 14.227452
-8.316349 -87.848053 14.176484
-4.145756 -94.906586 20.7384
-4.577662 -94.026993 18.382238
-3.097246 -96.705597 18.459837
-2.064713 -98.696625 16.193884
-1.194145 -100.879425 13.90885
-0.571436 -103.205811 11.560463
0.035469 -103.850082 13.704202
0.914215 -106.909241 13.346781
1.387564 -110.004578 12.797621
-6.405088 -101.137573 41.027531
-5.672529 -100.924072 38.715672
-6.077158 -103.131546 38.666687
-5.368052 -105.092896 36.209633
-4.411572 -107.033417 33.624393
-2.338076 -117.324951 20.301027
-0.98575 -117.322647 18.122749
0.041945 -117.062912 15.810097
-1.130816 -119.468018 14.568202
-1.57679 -121.499832 10.923687
-2.298992 -123.31871 7.214334
-7.288706 -85.179306 20.557373
-6.781679 -86.014023 22.804144
-6.587639 -88.329025 22.853567
-5.978472 -90.742706 22.923035
-5.700003 -90.246506 27.667908
-5.589088 -91.728241 25.359512
-5.032478 -93.264511 23.041372
-3.874643 -95.895447 23.216656
-2.657841 -98.628067 23.425648
-1.540434 -101.444382 23.612253
-7.158045 -101.072556 43.185318
-8.105288 -102.741135 42.73465
-9.146513 -104.04834 41.899094
-10.369137 -84.651947 10.504663
-10.734884 -86.533737 8.768047
-7.645945 -86.695755 18.361713
-7.616819 -88.374466 16.203342
-7.271097 -90.236542 14.125078
-5.161077 -93.294403 16.163227
-5.88039 -92.717972 14.086064
-6.711386 -92.270523 12.146683
-0.214014 -105.581635 9.103277
-4.948086 -95.435318 35.668606
-4.738621 -97.203522 33.398098
-5.012218 -100.461975 36.267044
-4.467737 -99.787277 33.709885
-4.069624 -98.94191 31.081944
-3.052441 -100.675766 28.707878
-1.855446 -102.448288 26.254719
-0.664846 -104.312927 23.696301
-4.919916 -109.056732 32.952637
-3.371954 -108.980484 30.880222
-3.189013 -113.089233 26.95055
-2.407551 -110.968857 27.955452
-2.028347 -108.596146 28.594206
-0.940386 -107.972855 26.142895
-0.14098 -107.186523 23.590523
0.352377 -106.314728 21.007833
1.074818 -108.468597 18.17173
1.438652 -110.744537 15.18033
1.435877 -113.066895 12.035477
0.724182 -116.608459 13.43442
1.065849 -116.015427 11.061554
1.102638 -115.327469 8.747383
0.502108 -117.407303 5.335688
-7.413276 -83.708378 19.451953
-7.652297 -83.349472 18.370818
-7.251217 -82.614475 19.443241
-8.126 -106.415832 38.375959
-7.642691 -105.767289 38.877892
-8.397101 -105.412506 39.697432
-6.66206 -81.891579 20.484784
-6.456958 -82.282009 21.582159
-7.251217 -82.614475 19.443241
-6.66206 -81.891579 20.484784
-5.429818 -87.138038 28.602445
-5.681774 -86.695481 27.413863
-9.746037 -81.482429 11.42297
-10.076142 -81.244419 10.524085
-7.851086 -90.846458 11.268802
-8.287619 -90.653099 10.366032
-8.518225 -89.61203 11.299583
-2.327018 -100.042282 10.87751
-3.106717 -98.645622 10.957766
-2.684194 -98.895134 11.911284
-1.619225 -101.465278 10.711713
-2.041749 -101.215767 9.758195
-2.327018 -100.042282 10.87751
-5.57149 -98.753517 39.770164
-5.28101 -97.585678 39.662588
-5.502714 -97.781364 40.885511
-2.219318 -123.684639 3.008258
-2.052313 -123.391662 1.860056
-1.514709 -122.685631 3.733714
-4.922064 -92.512985 34.02242
-4.780979 -91.279373 33.847727
-4.669933 -91.687012 35.13866
-8.486508 -82.461373 15.258626
-8.763696 -82.191807 14.246891
-2.344828 -118.390228 18.544936
-3.106593 -118.225532 19.571468
-3.113345 -119.290809 17.815376
-2.406484 -122.435379 10.224483
-2.116589 -121.500709 12.056418
-2.946284 -122.436256 11.357215
-2.767586 -123.344818 8.369807
-1.937891 -122.409271 9.06901
-2.406484 -122.435379 10.224483
-3.185706 -124.144836 6.515916
-2.767586 -123.344818 8.369807
-6.420362 -85.329658 23.906781
-6.660983 -84.896164 22.772481
-6.967996 -100.048386 44.348726
-6.720225 -100.092553 43.252544
-8.57162 -102.387733 43.619343
-7.992531 -101.723732 43.958638
-8.458863 -101.37033 44.843331
-11.481008 -83.808228 8.07162
-11.42951 -82.653107 8.095439
-11.077409 -82.98729 8.854944
-11.329878 -85.018394 8.021339
-11.481008 -83.808228 8.07162
-10.294356 -87.757637 8.736438
-10.318319 -86.770729 9.611168
-9.877791 -87.994629 9.57956
-10.732748 -87.460403 7.94734
-10.294356 -87.757637 8.736438
-5.577346 -94.628029 11.170457
-6.373979 -93.348968 11.201559
-5.914753 -93.549583 12.115581
0.231935 -108.235855 7.468872
0.484841 -109.710174 7.003998
0.28838 -114.668769 2.855413
0.425816 -115.15126 3.839711
-4.453272 -110.053169 31.495401
-5.335444 -109.914612 32.413367
-4.868799 -110.911048 30.956132
-2.905712 -114.137901 25.324132
-3.768232 -113.98912 26.279687
-3.484932 -115.037789 24.653269
-0.274863 -119.61924 2.91878
-0.740825 -120.818794 2.189316
-4.514686 -92.041352 36.417686
-4.669933 -91.687012 35.13866
-7.931356 -83.036613 17.318891
-8.184316 -82.725426 16.268743
-8.093415 -84.130516 17.327604
-7.931356 -83.036613 17.318891
-7.652297 -83.349472 18.370818
-3.201574 -120.319114 16.057418
-3.113345 -119.290809 17.815376
-3.353978 -121.342155 14.257571
-2.503984 -120.478546 14.988997
-3.201574 -120.319114 16.057418
-3.574891 -122.297432 12.469145
-3.353978 -121.342155 14.257571
-2.946284 -122.436256 11.357215
-3.574891 -122.297432 12.469145
-5.924348 -86.22873 26.224579
-6.172154 -85.78154 25.063538
-6.042688 -87.384537 26.306943
-5.924348 -86.22873 26.224579
-5.681774 -86.695481 27.413863
-8.783498 -101.029991 45.76395
-8.458863 -101.37033 44.843331
-10.677384 -82.094887 9.705574
-10.076142 -81.244419 10.524085
-10.728881 -83.250008 9.681755
-11.077409 -82.98729 8.854944
-10.677384 -82.094887 9.705574
-9.404293 -89.200104 9.550821
-9.877791 -87.994629 9.57956
-9.428256 -88.213196 10.425551
-8.760197 -90.446495 9.518519
-9.404293 -89.200104 9.550821
-8.760197 -90.446495 9.518519
-8.287619 -90.653099 10.366032
-3.9126 -97.277809 11.061788
-4.739714 -95.942894 11.108258
-4.291006 -96.163559 12.03801
-3.9126 -97.277809 11.061788
-3.106717 -98.645622 10.957766
-1.754811 -102.364189 8.694006
-2.041749 -101.215767 9.758195
-1.147376 -103.79718 8.418215
-1.754811 -102.364189 8.694006
0.671254 -111.219109 6.575318
0.484841 -109.710174 7.003998
0.733659 -110.096748 8.005485
0.734208 -112.675522 6.022571
0.485389 -112.288948 5.021083
0.671254 -111.219109 6.575318
0.601989 -115.563591 4.874244
0.425816 -115.15126 3.839711
0.724515 -114.157692 5.50287
-5.124835 -96.359146 39.514843
-4.827562 -95.152382 39.354873
-5.193611 -97.331299 38.399496
-5.124835 -96.359146 39.514843
-5.28101 -97.585678 39.662588
-4.474657 -111.929001 29.425667
-4.868799 -110.911048 30.956132
-1.287316 -121.994895 1.48016
-0.740825 -120.818794 2.189316
-0.801212 -121.216553 3.294669
-1.911348 -123.039017 0.73294
-1.287316 -121.994895 1.48016
-2.615957 -124.038025 0.007485
-1.911348 -123.039017 0.73294
-2.052313 -123.391662 1.860056
-4.948842 -88.02108 31.038034
-5.197441 -87.599434 29.8224
-5.120674 -89.212379 31.182882
-4.948842 -88.02108 31.038034
-5.119582 -90.427109 31.302803
-5.334266 -89.988808 30.056059
-5.120674 -89.212379 31.182882
-4.969551 -90.878014 32.580557
-4.780979 -91.279373 33.847727
-5.183142 -91.654442 31.453733
-5.119582 -90.427109 31.302803
-4.969551 -90.878014 32.580557
-9.091769 -81.957867 13.286158
-9.398112 -81.714462 12.323767
-9.304932 -83.055611 13.294712
-9.091769 -81.957867 13.286158
-8.763696 -82.191807 14.246891
-8.674667 -83.553604 15.265561
-8.486508 -82.461373 15.258626
-8.184316 -82.725426 16.268743
-3.298582 -116.096741 22.987551
-3.484932 -115.037789 24.653269
-3.156414 -117.165931 21.289207
-3.106593 -118.225532 19.571468
-2.480244 -116.25576 21.999371
-3.298582 -116.096741 22.987551
-3.156414 -117.165931 21.289207
-2.784518 -124.075561 5.339962
-2.47588 -123.90551 4.173753
-1.990354 -123.148658 6.048125
-2.784518 -124.075561 5.339962
-3.185706 -124.144836 6.515916
-6.914497 -84.478805 21.649096
-7.150451 -84.076344 20.540875
-6.776242 -83.375843 21.632597
-7.035192 -85.596665 21.680758
-6.914497 -84.478805 21.649096
-6.660983 -84.896164 22.772481
-6.533471 -86.465904 23.960901
-6.420362 -85.329658 23.906781
-6.172154 -85.78154 25.063538
-5.567736 -88.312683 28.716183
-5.429818 -87.138038 28.602445
-5.197441 -87.599434 29.8224
-6.776242 -83.375843 21.632597
-6.456958 -82.282009 21.582159
-5.621633 -97.944198 42.10764
-5.502714 -97.781364 40.885511
-6.037799 -99.030876 42.15643
-5.621633 -97.944198 42.10764
-6.343746 -100.125061 42.173651
-6.099141 -100.043388 41.01031
-6.037799 -99.030876 42.15643
-6.781567 -101.105064 42.106425
-6.343746 -100.125061 42.173651
-6.720225 -100.092553 43.252544
-7.51891 -100.889443 44.183971
-6.967996 -100.048386 44.348726
-7.631666 -101.906846 42.959984
-7.51891 -100.889443 44.183971
-7.992531 -101.723732 43.958638
-9.013461 -105.054695 40.547297
-8.397101 -105.412506 39.697432
-8.530152 -104.406151 41.049229
-9.444 -101.506355 45.311558
-8.783498 -101.029991 45.76395
-9.189546 -100.502014 46.571472
-9.64789 -102.492577 43.966355
-9.444 -101.506355 45.311558
-9.702172 -103.499581 42.663883
-9.092232 -103.041336 43.201565
-9.64789 -102.492577 43.966355
-9.719938 -104.495293 41.272438
-9.702172 -103.499581 42.663883
-9.013461 -105.054695 40.547297
-9.719938 -104.495293 41.272438
-9.98093 -82.589638 11.433182
-9.746037 -81.482429 11.42297
-9.398112 -81.714462 12.323767
-11.132867 -86.214058 7.9898
-11.329878 -85.018394 8.021339
-10.931895 -85.338074 8.799586
-11.132867 -86.214058 7.9898
-10.732748 -87.460403 7.94734
-7.165933 -92.079025 11.240967
-7.851086 -90.846458 11.268802
-7.396539 -91.037956 12.174518
-7.165933 -92.079025 11.240967
-6.373979 -93.348968 11.201559
-5.577346 -94.628029 11.170457
-4.739714 -95.942894 11.108258
-0.587405 -105.268616 8.173654
-1.147376 -103.79718 8.418215
-0.773985 -104.110199 9.347838
-0.148694 -106.732765 7.803428
0.166615 -107.084724 8.768721
0.231935 -108.235855 7.468872
-0.587405 -105.268616 8.173654
-0.148694 -106.732765 7.803428
0.3445 -113.287872 3.519053
0.485389 -112.288948 5.021083
0.3445 -113.287872 3.519053
0.28838 -114.668769 2.855413
-4.742038 -93.27295 36.605305
-4.514686 -92.041352 36.417686
-4.855247 -94.865021 38.074503
-4.827562 -95.152382 39.354873
-4.810572 -94.530296 36.78293
-4.855247 -94.865021 38.074503
-4.992761 -95.770042 36.960178
-4.879552 -94.177971 35.49098
-4.742038 -93.27295 36.605305
-4.810572 -94.530296 36.78293
-7.849979 -107.420937 36.969642
-8.126 -106.415832 38.375959
-6.986406 -107.769013 36.171398
-7.849979 -107.420937 36.969642
-6.227109 -107.925713 35.244022
-6.612293 -106.927315 36.629043
-6.986406 -107.769013 36.171398
-5.760568 -108.912071 33.869507
-5.335444 -109.914612 32.413367
-5.386456 -108.070373 34.327152
-6.227109 -107.925713 35.244022
-5.760568 -108.912071 33.869507
-4.075849 -112.948814 27.881859
-4.655068 -113.848702 27.210996
-3.768232 -113.98912 26.279687
-3.587821 -112.069419 28.494358
-4.474657 -111.929001 29.425667
-4.075849 -112.948814 27.881859
0.402699 -116.982231 4.273386
0.601989 -115.563591 4.874244
0.701398 -115.988663 5.936546
0.103551 -118.302666 3.584711
0.123694 -118.723877 4.669757
-0.274863 -119.61924 2.91878
0.402699 -116.982231 4.273386
0.103551 -118.302666 3.584711
-2.219318 -123.684639 3.008258
-2.47588 -123.90551 4.173753
3 0 167 169
3 167 43 168
3 167 168 169
3 1 46 44
3 1 48 46
3 170 51 171
3 172 171 49
3 170 171 172
3 0 173 174
3 0 175 176
3 177 54 178
3 3 57 55
3 3 59 57
3 179 60 180
3 5 63 61
3 5 181 183
3 183 182 63
3 181 182 183
3 2 66 64
3 6 69 67
3 6 184 186
3 186 185 69
3 184 185 186
3 6 187 189
3 187 70 188
3 187 188 189
3 7 73 71
3 7 75 73
3 4 190 192
3 190 77 191
3 190 191 192
3 8 80 78
3 8 82 80
3 9 85 83
3 9 87 85
3 9 89 87
3 10 92 90
3 10 94 92
3 10 193 195
3 195 194 94
3 193 194 195
3 12 196 198
3 196 96 197
3 196 197 198
3 12 97 96
3 199 99 200
3 14 100 42
3 14 101 100
3 15 104 102
3 17 105 45
3 17 106 105
3 17 108 106
3 19 109 47
3 19 110 109
3 20 113 111
3 22 114 50
3 22 115 114
3 24 201 203
3 201 116 202
3 201 202 203
3 24 117 116
3 24 119 117
3 204 120 205
3 206 205 52
3 204 205 206
3 207 121 208
3 209 208 120
3 207 208 209
3 211 210 121
3 212 123 213
3 27 124 53
3 27 125 124
3 11 126 95
3 28 127 56
3 28 128 127
3 28 129 128
3 29 130 58
3 29 131 130
3 214 132 215
3 30 216 218
3 216 133 217
3 216 217 218
3 30 134 133
3 31 219 221
3 219 220 221
3 31 222 223
3 13 135 98
3 224 136 225
3 226 225 62
3 224 225 226
3 228 227 136
3 26 137 122
3 32 138 65
3 32 139 138
3 16 140 103
3 33 141 68
3 33 142 141
3 33 229 231
3 231 230 142
3 229 230 231
3 18 143 107
3 233 232 72
3 235 234 74
3 34 144 76
3 34 145 144
3 21 146 112
3 35 147 79
3 35 148 147
3 35 149 148
3 36 150 81
3 36 151 150
3 37 236 238
3 236 152 237
3 236 237 238
3 37 153 152
3 23 239 241
3 239 154 240
3 239 240 241
3 38 155 84
3 38 156 155
3 38 157 156
3 39 158 86
3 39 159 158
3 39 160 159
3 40 161 88
3 40 162 161
3 25 163 118
3 41 164 91
3 41 165 164
3 41 166 165
3 243 242 93
3 244 12 245
3 246 42 247
3 43 248 250
3 248 42 249
3 248 249 250
3 43 14 42
3 44 45 15
3 46 45 44
3 46 17 45
3 46 47 17
3 48 47 46
3 48 19 47
3 49 50 20
3 51 50 49
3 51 22 50
3 251 24 252
3 253 52 254
3 255 254 24
3 253 254 255
3 256 52 257
3 259 258 52
3 260 53 261
3 54 262 264
3 262 53 263
3 262 263 264
3 54 27 53
3 55 56 11
3 57 56 55
3 57 28 56
3 57 58 28
3 59 58 57
3 59 29 58
3 265 30 266
3 60 267 268
3 60 269 271
3 269 31 270
3 269 270 271
3 61 62 13
3 63 62 61
3 63 272 274
3 274 273 62
3 272 273 274
3 63 275 276
3 278 277 63
3 64 65 26
3 66 65 64
3 66 32 65
3 67 68 16
3 69 68 67
3 69 33 68
3 69 279 281
3 281 280 33
3 279 280 281
3 283 282 69
3 70 284 285
3 70 286 287
3 71 72 18
3 73 72 71
3 73 288 290
3 290 289 72
3 288 289 290
3 73 291 293
3 291 74 292
3 291 292 293
3 75 74 73
3 75 294 296
3 296 295 74
3 294 295 296
3 297 76 298
3 77 299 301
3 299 76 300
3 299 300 301
3 77 34 76
3 78 79 21
3 80 79 78
3 80 35 79
3 80 81 35
3 82 81 80
3 82 36 81
3 302 37 303
3 83 84 23
3 85 84 83
3 85 38 84
3 85 86 38
3 87 86 85
3 87 39 86
3 87 88 39
3 89 88 87
3 89 40 88
3 90 91 25
3 92 91 90
3 92 41 91
3 92 93 41
3 94 93 92
3 94 304 306
3 306 305 93
3 304 305 306
3 94 307 308
3 311 310 94
3 309 310 311
3 312 95 313
3 314 95 315
3 316 11 317
3 318 317 95
3 316 317 318
3 96 319 320
3 96 321 323
3 321 11 322
3 321 322 323
3 96 55 11
3 97 55 96
3 97 3 55
3 324 98 325
3 99 326 328
3 326 98 327
3 326 327 328
3 99 13 98
3 42 329 331
3 329 99 330
3 329 330 331
3 100 99 42
3 100 13 99
3 100 61 13
3 101 61 100
3 101 5 61
3 102 103 2
3 104 103 102
3 104 16 103
3 45 104 15
3 105 104 45
3 105 16 104
3 105 67 16
3 106 67 105
3 106 6 67
3 106 107 6
3 108 107 106
3 108 18 107
3 47 108 17
3 109 108 47
3 109 18 108
3 109 71 18
3 110 71 109
3 110 7 71
3 111 112 4
3 113 112 111
3 113 21 112
3 50 113 20
3 114 113 50
3 114 21 113
3 114 78 21
3 115 78 114
3 115 8 78
3 332 23 333
3 116 334 335
3 116 336 338
3 336 23 337
3 336 337 338
3 116 83 23
3 117 83 116
3 117 9 83
3 117 118 9
3 119 118 117
3 119 25 118
3 52 119 24
3 120 119 52
3 120 25 119
3 120 90 25
3 121 90 120
3 121 10 90
3 121 339 341
3 341 340 10
3 339 340 341
3 343 342 121
3 344 122 345
3 346 345 0
3 344 345 346
3 123 347 349
3 347 122 348
3 347 348 349
3 123 26 122
3 53 350 352
3 350 123 351
3 350 351 352
3 124 123 53
3 124 26 123
3 124 64 26
3 125 64 124
3 125 2 64
3 95 353 355
3 353 54 354
3 353 354 355
3 126 54 95
3 126 27 54
3 56 126 11
3 127 126 56
3 127 27 126
3 127 125 27
3 128 125 127
3 128 2 125
3 128 102 2
3 129 102 128
3 129 15 102
3 58 129 28
3 130 129 58
3 130 15 129
3 130 44 15
3 131 44 130
3 131 1 44
3 356 0 357
3 358 4 359
3 360 4 361
3 362 111 363
3 364 363 4
3 362 363 364
3 132 365 367
3 365 111 366
3 365 366 367
3 132 20 111
3 368 132 369
3 133 370 372
3 370 132 371
3 370 371 372
3 133 20 132
3 133 49 20
3 134 49 133
3 134 373 375
3 375 374 49
3 373 374 375
3 376 30 377
3 376 377 378
3 379 30 380
3 381 134 382
3 383 382 30
3 381 382 383
3 384 134 385
3 387 386 134
3 98 388 390
3 388 60 389
3 388 389 390
3 135 60 98
3 135 31 60
3 62 135 13
3 136 135 62
3 136 31 135
3 136 391 393
3 393 392 31
3 391 392 393
3 395 394 136
3 122 43 0
3 137 43 122
3 137 14 43
3 65 137 26
3 138 137 65
3 138 14 137
3 138 101 14
3 139 101 138
3 139 5 101
3 103 66 2
3 140 66 103
3 140 32 66
3 68 140 16
3 141 140 68
3 141 32 140
3 141 139 32
3 142 139 141
3 142 5 139
3 142 396 398
3 398 397 5
3 396 397 398
3 400 399 142
3 402 401 33
3 107 70 6
3 143 70 107
3 143 403 405
3 405 404 70
3 403 404 405
3 72 143 18
3 406 143 407
3 408 407 72
3 406 407 408
3 410 409 143
3 74 411 412
3 414 413 74
3 415 12 416
3 76 417 418
3 144 419 421
3 421 420 76
3 419 420 421
3 144 422 424
3 422 12 423
3 422 423 424
3 144 97 12
3 145 97 144
3 145 3 97
3 112 77 4
3 146 77 112
3 146 34 77
3 79 146 21
3 147 146 79
3 147 34 146
3 147 145 34
3 148 145 147
3 148 3 145
3 148 59 3
3 149 59 148
3 149 29 59
3 81 149 35
3 150 149 81
3 150 29 149
3 150 131 29
3 151 131 150
3 151 1 131
3 425 51 426
3 427 51 428
3 429 22 430
3 431 430 51
3 429 430 431
3 152 432 433
3 152 434 436
3 434 22 435
3 434 435 436
3 152 115 22
3 153 115 152
3 153 8 115
3 154 437 439
3 437 438 439
3 154 440 442
3 440 37 441
3 440 441 442
3 84 154 23
3 155 154 84
3 155 37 154
3 155 153 37
3 156 153 155
3 156 8 153
3 156 82 8
3 157 82 156
3 157 36 82
3 86 157 38
3 158 157 86
3 158 36 157
3 158 151 36
3 159 151 158
3 159 1 151
3 159 48 1
3 160 48 159
3 160 19 48
3 88 160 39
3 161 160 88
3 161 19 160
3 161 110 19
3 162 110 161
3 162 7 110
3 118 89 9
3 163 89 118
3 163 40 89
3 91 163 25
3 164 163 91
3 164 40 163
3 164 162 40
3 165 162 164
3 165 7 162
3 165 75 7
3 166 75 165
3 166 443 445
3 445 444 75
3 443 444 445
3 93 166 41
3 446 166 447
3 448 447 93
3 446 447 448
3 450 449 166
3 452 451 10
