ply
format ascii 1.0
element vertex 490
property float x
property float y
property float z
element face 558
property list uchar int vertex_index
end_header
-43.123726 27.043858 7.050142
-54.909988 14.855797 5.535781
-52.671986 18.7906 19.331789
-53.868011 36.377544 12.080198
-45.883362 27.379391 24.821579
-52.695183 27.580383 16.441805
-48.528469 37.821651 20.01033
-37.709122 33.209209 4.305387
-49.265808 20.708775 6.645533
-56.853912 18.741833 9.837709
-54.936447 26.020901 8.384621
-51.546059 33.316715 6.653518
-44.400543 32.815506 26.724035
-47.101212 32.743702 22.734703
-45.777702 38.280895 24.014053
-42.191345 19.181519 8.387702
-39.1507 13.304451 8.832346
-39.390617 22.097881 7.773809
-37.004948 24.912209 6.257298
-40.223915 30.253292 6.158838
-52.175598 17.73745 5.964091
-55.267059 19.087677 14.437245
-53.560413 32.065941 14.631819
-54.883076 27.157082 12.063441
-54.752048 31.202419 10.66583
-53.543938 29.66708 7.715134
-53.904816 35.146461 8.70997
-48.776989 22.648693 22.346451
-52.091297 23.047775 17.849596
-49.269226 27.5868 20.735596
-50.571243 32.511795 18.763145
-51.680504 37.206009 16.016569
-35.176228 27.408627 3.791076
-45.26125 16.334393 8.261321
-46.201008 23.815891 7.127885
-49.909851 18.123791 24.063698
-45.876781 22.049164 26.679264
-43.528549 27.045326 28.988926
-56.779884 17.411667 6.540452
-54.784794 23.051666 13.179343
-55.869778 22.354137 8.960024
-54.90184 20.642029 6.29235
-52.819889 23.917892 6.440952
-50.347218 27.259296 6.552577
-47.548584 30.698448 6.267757
-44.632843 34.160954 5.342397
-41.851597 37.447269 3.613961
-45.087879 35.600082 25.443626
-42.589188 23.194332 7.735015
-40.748211 20.639942 8.18565
-41.113026 24.74334 7.507874
-39.713223 26.278549 7.05985
-41.638947 28.664017 6.718205
-51.915268 14.455036 6.263003
-53.559418 16.287224 5.689037
-54.791878 17.120392 17.725037
-55.931351 17.249828 15.226385
-54.042759 18.999424 16.891369
-53.815536 34.24474 13.458311
-54.442528 31.702862 12.582941
-54.424324 33.781979 11.519966
-54.427689 33.186214 9.765114
-54.197662 35.825424 10.276662
-47.170052 24.905613 23.661045
-48.858284 25.095448 21.554733
-47.49585 27.502716 22.790493
-47.85033 35.326279 21.473024
-48.807007 32.647568 20.765383
-49.525795 35.127991 19.501598
-51.201126 34.891499 17.503056
-50.132706 37.532467 18.018789
-38.068508 14.567142 8.088476
-37.232796 29.191891 5.438393
-36.012989 26.213726 5.139815
-36.196686 30.507465 4.256063
-48.833637 17.232632 7.01281
-46.851566 14.963802 7.997645
-47.261375 18.66909 7.364175
-45.68409 20.143852 7.629699
-47.745705 22.24358 6.936859
-48.693436 17.706017 26.373852
-47.72422 19.947319 25.409561
-46.541939 19.557091 27.647196
-57.550476 17.016747 10.49003
-57.859337 16.56675 8.491041
-57.753845 15.838924 6.926077
-57.047409 18.219254 7.953798
-52.297344 25.303654 17.165951
-53.584839 23.116196 15.513807
-53.744057 25.272339 14.888427
-55.200989 26.696438 10.068111
-55.398018 24.755703 10.506989
-55.435226 24.189079 8.659721
-55.640358 21.64032 7.364129
-54.921177 23.370232 7.234078
-53.904297 22.275066 6.344393
-54.116394 25.101604 7.145392
-52.615067 31.490105 7.245424
-52.136414 28.582584 6.888083
-50.958061 30.343864 6.636017
-48.97736 28.968056 6.477311
-49.679367 32.119946 6.261238
-46.946041 35.671417 5.063085
-45.560135 37.403973 4.208322
-43.209167 35.842342 4.585814
-44.958717 30.03447 25.83564
-46.400921 30.084534 23.834251
-45.599983 32.801086 24.70718
-46.333771 35.486412 23.44202
-47.03569 38.074512 22.000637
-41.896904 15.037357 9.049876
-40.509941 16.392044 8.79937
-39.219482 17.756325 8.351164
-38.039513 19.110184 7.690504
-36.983437 20.430477 6.80793
-38.136765 23.530994 7.134623
-38.412224 27.771667 6.373225
-38.905163 31.779823 5.356647
-50.38715 15.830139 6.626767
-50.745182 19.209015 6.302751
-57.784851 15.548065 13.652399
-56.881538 17.229412 12.779814
-56.236404 19.016609 12.046827
-53.156212 29.841652 15.614634
-54.016754 27.43866 14.228592
-54.283527 29.587036 13.475876
-54.888741 29.192688 11.422833
-54.901131 28.622715 9.580795
-54.316257 27.845772 8.084103
-54.444153 30.532848 9.003386
-53.807312 32.430168 8.307545
-52.996094 34.317547 7.478263
-50.637775 20.617325 20.891125
-52.190765 20.860348 18.554768
-50.442024 22.88271 20.130978
-50.616806 25.234894 19.395126
-51.057755 27.619617 18.621996
-48.086205 30.097828 21.844994
-49.885597 30.070854 19.825008
-51.634933 29.992615 17.746832
-52.216679 32.325363 16.712307
-52.691616 34.604763 15.477017
-52.984314 36.828735 14.020466
-36.064072 21.693138 5.700879
-43.701824 17.742081 8.403239
-44.119934 21.655392 7.765536
-44.652603 25.420578 7.177182
-53.557083 16.875591 20.209593
-51.262207 18.491333 21.723028
-49.115013 20.306595 23.168797
-47.222061 22.365585 24.516792
-45.675499 24.679165 25.752028
-44.80685 21.715889 28.873226
-44.461372 24.428082 27.871262
-44.540298 27.224232 26.873974
-43.839703 29.949165 27.892181
-57.212135 14.803829 5.920475
-56.053551 16.293781 5.714664
-53.654755 21.010342 16.16464
-54.904404 21.033447 13.765247
-55.822624 20.888298 11.446453
-54.814117 25.103493 12.630903
-55.573463 22.811958 10.948626
-56.315956 20.530361 9.337609
-56.327736 19.917999 7.588624
-55.845253 19.018158 6.341092
-54.899483 17.810009 5.697114
-53.715851 19.342609 5.824941
-52.474686 20.889778 6.043376
-51.160477 22.456455 6.29357
-53.191975 26.836876 7.0455
-51.633415 25.576908 6.526761
-49.772057 24.050415 6.518895
-48.320694 25.677288 6.668891
-46.82618 27.336384 6.700732
-45.313137 29.018372 6.578804
-50.55574 39.865948 16.300865
-51.956085 39.459473 14.296697
-53.061447 39.000134 12.343773
-53.70401 38.466064 10.503611
-53.765926 37.834045 8.859737
-53.200249 37.082954 7.503105
-52.035919 36.192924 6.510928
-50.366516 35.141838 5.926236
-48.33075 33.901707 5.742577
-46.090031 32.436764 5.896923
-43.808556 30.70509 6.273532
-42.340843 32.370949 5.760626
-40.939491 33.984894 5.021503
-39.634434 35.511948 4.045009
-54.165025 13.979191 5.758126
-54.910797 13.314522 5.684985
-54.234703 15.57151 5.612409
-53.48974 14.694904 5.834754
-54.165025 13.979191 5.758126
-37.223768 13.47019 7.224336
-37.701508 12.847418 7.697717
-37.590768 15.189915 7.615095
-37.184504 33.857447 3.657819
-36.428286 32.506574 3.633157
-36.952904 31.858337 4.280725
-48.181469 17.481485 27.528033
-49.389296 16.688686 26.897056
-47.105721 18.407023 28.164704
-47.617688 18.631554 27.010524
-48.181469 17.481485 27.528033
-46.0452 38.921146 3.530156
-46.690681 38.065331 4.120406
-44.884018 38.236248 3.687399
-46.0452 38.921146 3.530156
-57.3457 15.543481 14.895927
-58.355438 14.759525 14.149427
-39.141209 11.050739 9.037586
-39.751051 12.674025 9.105695
-35.234377 25.141859 4.083349
-35.652757 24.544409 4.757719
-35.594608 26.811177 4.465445
-34.926142 25.682207 3.319716
-35.234377 25.141859 4.083349
-34.840273 27.940537 3.011407
-34.926142 25.682207 3.319716
-45.080355 14.371937 8.651665
-45.875513 13.686642 8.519827
-46.056408 15.649097 8.129483
-44.313333 15.020725 8.691822
-45.080355 14.371937 8.651665
-44.481537 17.038237 8.33228
-43.53362 15.724569 8.762781
-44.313333 15.020725 8.691822
-54.182254 16.000909 20.699872
-54.722853 16.132169 19.440299
-51.111958 17.332175 23.357385
-50.523554 17.128706 24.556385
-50.586029 18.307562 22.893363
-51.788135 17.515946 22.18705
-51.111958 17.332175 23.357385
-44.424051 21.550856 30.001753
-45.211149 20.436043 29.394298
-43.99496 25.736704 28.430094
-44.016683 24.297483 28.963527
-43.550272 25.606105 29.522359
-49.959339 41.221484 16.351869
-49.801733 40.050157 17.311749
-51.986584 40.558512 13.326456
-51.361526 40.798701 14.323901
-52.539265 40.328843 12.349995
-52.508766 39.229804 13.320235
-51.986584 40.558512 13.326456
-53.522854 39.487703 9.626622
-53.315986 39.793531 10.484887
-53.553812 39.171694 8.804685
-53.734968 38.150055 9.681674
-53.522854 39.487703 9.626622
-52.774128 38.036262 6.829155
-53.178696 38.443649 7.395129
-52.191963 37.591247 6.333066
-52.618084 36.637939 7.007016
-52.774128 38.036262 6.829155
-49.739435 36.046993 5.490594
-50.664822 36.594381 5.666474
-48.721552 35.426928 5.398764
-49.348633 34.521772 5.834407
-49.739435 36.046993 5.490594
-44.626812 35.628671 26.477266
-44.744211 34.207794 26.08383
-44.283144 34.236384 27.11747
-44.953334 37.012744 25.760897
-44.626812 35.628671 26.477266
-45.298246 38.353151 25.046111
-45.43279 36.940489 24.728839
-44.953334 37.012744 25.760897
-52.667665 13.77881 6.121737
-51.791725 12.751749 6.602855
-52.737343 15.37113 5.97602
-52.667665 13.77881 6.121737
-53.48974 14.694904 5.834754
-55.361615 17.18511 16.475711
-56.418949 16.394363 15.68292
-55.849213 16.329645 16.932246
-38.118234 12.26523 8.227685
-38.65933 11.633885 8.59962
-38.609604 13.935797 8.460411
-38.118234 12.26523 8.227685
-37.701508 12.847418 7.697717
-35.759259 31.097333 3.547659
-35.24903 29.547914 3.315165
-35.686457 28.958046 4.023569
-35.759259 31.097333 3.547659
-36.428286 32.506574 3.633157
-47.842602 16.098217 7.505228
-47.654045 14.296506 7.826532
-48.645081 15.430922 7.334115
-49.915346 16.919819 25.711462
-49.389296 16.688686 26.897056
-49.301643 17.914904 25.218775
-50.523554 17.128706 24.556385
-49.915346 16.919819 25.711462
-43.194878 26.950063 30.092115
-43.550272 25.606105 29.522359
-43.299375 28.439362 29.512752
-43.194878 26.950063 30.092115
-58.177304 15.999569 9.850072
-57.996742 16.197123 10.896011
-58.331734 15.77457 8.850577
-58.177304 15.999569 9.850072
-57.704906 16.791748 9.490536
-58.332189 15.443198 8.002013
-58.331734 15.77457 8.850577
-57.806591 16.202837 7.708559
-58.279443 15.079284 7.219531
-58.332189 15.443198 8.002013
-47.383634 37.199053 4.547788
-48.029198 36.311782 5.059018
-46.253088 36.537695 4.635703
-47.383634 37.199053 4.547788
-46.690681 38.065331 4.120406
-43.708534 37.455433 3.876145
-44.384651 36.623158 4.397068
-44.884018 38.236248 3.687399
-43.029749 38.257896 3.390219
-42.530382 36.644806 4.099888
-43.708534 37.455433 3.876145
-41.124153 13.540478 9.21446
-41.778883 12.918657 9.394056
-40.430672 14.217822 9.089208
-41.124153 13.540478 9.21446
-41.203423 15.7147 8.924623
-39.83032 14.848247 8.815858
-39.751051 12.674025 9.105695
-40.430672 14.217822 9.089208
-37.576271 17.461436 7.416109
-37.590768 15.189915 7.615095
-38.054011 16.838663 7.88949
-37.511475 19.770331 7.249217
-37.048233 18.121582 6.974823
-37.576271 17.461436 7.416109
-50.989635 13.390407 6.774097
-51.791725 12.751749 6.602855
-50.225577 14.077958 6.955979
-50.989635 13.390407 6.774097
-51.151209 15.142588 6.444885
-49.421837 14.729675 7.141093
-50.225577 14.077958 6.955979
-49.610394 16.531385 6.819788
-48.645081 15.430922 7.334115
-49.421837 14.729675 7.141093
-58.657066 14.688598 12.954204
-58.355438 14.759525 14.149427
-58.113929 15.462782 12.477196
-58.657066 14.688598 12.954204
-56.858101 16.398947 14.439392
-57.3457 15.543481 14.895927
-56.418949 16.394363 15.68292
-57.662273 16.303455 12.040903
-58.113929 15.462782 12.477196
-57.333195 16.388738 13.216107
-57.216007 17.123079 11.634922
-57.996742 16.197123 10.896011
-57.662273 16.303455 12.040903
-55.57925 14.151692 5.545025
-54.910797 13.314522 5.684985
-39.141209 11.050739 9.037586
-38.65933 11.633885 8.59962
-36.637394 18.725569 6.399547
-37.048233 18.121582 6.974823
-36.177712 19.356899 5.846022
-36.637394 18.725569 6.399547
-36.523755 21.061808 6.254404
-35.836674 19.932223 5.171544
-36.177712 19.356899 5.846022
-35.678299 22.284115 5.038251
-36.038531 23.953432 5.420347
-35.652757 24.544409 4.757719
-35.836674 19.932223 5.171544
-35.678299 22.284115 5.038251
-34.913075 30.079824 2.535497
-34.840273 27.940537 3.011407
-35.24903 29.547914 3.315165
-46.667184 13.055217 8.419462
-47.654045 14.296506 7.826532
-46.667184 13.055217 8.419462
-45.875513 13.686642 8.519827
-42.631161 14.372208 9.086099
-41.778883 12.918657 9.394056
-42.799364 16.389719 8.726557
-42.631161 14.372208 9.086099
-43.53362 15.724569 8.762781
-55.34025 16.25457 18.198021
-55.849213 16.329645 16.932246
-54.174481 16.997991 18.967315
-55.34025 16.25457 18.198021
-54.722853 16.132169 19.440299
-52.935574 16.708075 21.430333
-54.182254 16.000909 20.699872
-52.409645 17.683462 20.96631
-52.935574 16.708075 21.430333
-51.788135 17.515946 22.18705
-46.078693 19.356644 28.781284
-47.105721 18.407023 28.164704
-45.674394 20.63649 28.260211
-46.078693 19.356644 28.781284
-45.211149 20.436043 29.394298
-44.189422 22.941387 29.464509
-44.424051 21.550856 30.001753
-44.634111 23.071986 28.372244
-44.189422 22.941387 29.464509
-44.016683 24.297483 28.963527
-43.454953 29.891281 28.96438
-43.684126 28.497245 28.440554
-43.299375 28.439362 29.512752
-43.691357 31.366579 28.355969
-43.454953 29.891281 28.96438
-43.971777 32.79975 27.771896
-44.120123 31.382335 27.308108
-43.691357 31.366579 28.355969
-44.283144 34.236384 27.11747
-43.971777 32.79975 27.771896
-58.079901 14.597473 6.632076
-58.279443 15.079284 7.219531
-57.809046 14.079925 6.129275
-58.079901 14.597473 6.632076
-57.48299 15.321376 6.423276
-57.404739 13.438874 5.849646
-57.809046 14.079925 6.129275
-56.730323 14.125708 5.737372
-57.404739 13.438874 5.849646
-56.151032 14.870683 5.634467
-56.730323 14.125708 5.737372
-56.632843 15.548805 5.817569
-55.481769 15.574789 5.625222
-55.57925 14.151692 5.545025
-56.151032 14.870683 5.634467
-45.585278 39.681444 24.253487
-45.298246 38.353151 25.046111
-46.070386 39.568641 23.209424
-45.585278 39.681444 24.253487
-45.877962 40.96919 23.448859
-46.699381 39.46545 22.202716
-46.406696 38.177703 23.007345
-46.070386 39.568641 23.209424
-47.320831 39.321126 21.177318
-46.699381 39.46545 22.202716
-48.067221 39.194696 20.182164
-47.78208 37.948082 21.005484
-47.320831 39.321126 21.177318
-48.788097 39.028009 19.166481
-48.067221 39.194696 20.182164
-49.590216 38.883417 18.17071
-49.330588 37.677059 19.01456
-48.788097 39.028009 19.166481
-50.344223 38.699207 17.159827
-49.590216 38.883417 18.17071
-49.801733 40.050157 17.311749
-50.661354 41.001938 15.325985
-49.959339 41.221484 16.351869
-51.255913 39.662711 15.298781
-50.661354 41.001938 15.325985
-51.361526 40.798701 14.323901
-52.994705 40.060566 11.404968
-52.539265 40.328843 12.349995
-53.382728 38.733099 11.423692
-52.994705 40.060566 11.404968
-53.315986 39.793531 10.484887
-53.461534 38.819195 8.073445
-53.553812 39.171694 8.804685
-53.483087 37.4585 8.181421
-53.461534 38.819195 8.073445
-53.178696 38.443649 7.395129
-51.499523 37.119924 5.95882
-52.191963 37.591247 6.333066
-51.201217 35.667381 6.218582
-51.499523 37.119924 5.95882
-50.664822 36.594381 5.666474
-47.638396 34.786562 5.402831
-48.721552 35.426928 5.398764
-48.029198 36.311782 5.059018
-42.38747 39.038443 2.772163
-43.029749 38.257896 3.390219
-41.221767 38.19272 3.01756
-42.38747 39.038443 2.772163
-40.113186 37.22506 3.233084
-40.743015 36.479608 3.829485
-41.221767 38.19272 3.01756
-39.044351 36.213133 3.437429
-40.113186 37.22506 3.233084
-38.081695 35.061763 3.567617
-38.671778 34.360579 4.175198
-39.044351 36.213133 3.437429
-37.184504 33.857447 3.657819
-38.081695 35.061763 3.567617
3 0 50 48
3 0 52 50
3 1 190 191
3 1 192 194
3 192 54 193
3 192 193 194
3 2 57 55
3 3 60 58
3 3 62 60
3 4 65 63
3 6 68 66
3 6 70 68
3 197 196 71
3 195 196 197
3 7 74 72
3 7 198 200
3 200 199 74
3 198 199 200
3 8 77 75
3 8 79 77
3 201 80 202
3 203 82 204
3 205 204 80
3 203 204 205
3 9 84 83
3 9 86 84
3 5 89 87
3 10 92 90
3 10 94 92
3 10 96 94
3 11 99 97
3 11 101 99
3 206 103 207
3 209 208 103
3 12 107 105
3 14 108 47
3 14 109 108
3 15 111 110
3 17 112 49
3 17 113 112
3 17 115 113
3 19 116 51
3 19 117 116
3 20 118 53
3 20 119 118
3 210 120 211
3 21 121 56
3 21 122 121
3 22 125 123
3 24 126 59
3 24 127 126
3 24 129 127
3 26 130 61
3 26 131 130
3 27 134 132
3 29 135 64
3 29 136 135
3 13 137 106
3 30 138 67
3 30 139 138
3 30 140 139
3 31 141 69
3 31 142 141
3 16 212 213
3 18 143 114
3 32 214 216
3 216 215 73
3 214 215 216
3 32 217 218
3 32 219 220
3 33 221 223
3 223 222 76
3 221 222 223
3 33 224 225
3 33 226 228
3 226 144 227
3 226 227 228
3 34 145 78
3 34 146 145
3 229 147 230
3 35 231 232
3 35 233 235
3 233 148 234
3 233 234 235
3 35 149 148
3 36 150 81
3 36 151 150
3 236 152 237
3 37 238 240
3 238 153 239
3 238 239 240
3 37 154 153
3 37 155 154
3 38 156 85
3 38 157 156
3 28 158 133
3 39 159 88
3 39 160 159
3 23 161 124
3 40 162 91
3 40 163 162
3 40 164 163
3 41 165 93
3 41 166 165
3 41 167 166
3 42 168 95
3 42 169 168
3 25 170 128
3 43 171 98
3 43 172 171
3 43 173 172
3 44 174 100
3 44 175 174
3 241 176 242
3 243 177 244
3 245 178 246
3 247 246 177
3 245 246 247
3 248 179 249
3 250 180 251
3 252 251 179
3 250 251 252
3 253 181 254
3 255 182 256
3 257 256 181
3 255 256 257
3 258 183 259
3 260 184 261
3 262 261 183
3 260 261 262
3 45 185 102
3 45 186 185
3 45 187 186
3 46 188 104
3 46 189 188
3 263 47 264
3 265 264 12
3 263 264 265
3 266 47 267
3 268 14 269
3 270 269 47
3 268 269 270
3 48 49 15
3 50 49 48
3 50 17 49
3 50 51 17
3 52 51 50
3 52 19 51
3 271 53 272
3 54 273 275
3 273 53 274
3 273 274 275
3 54 20 53
3 55 276 278
3 276 56 277
3 276 277 278
3 57 56 55
3 57 21 56
3 58 59 22
3 60 59 58
3 60 24 59
3 60 61 24
3 62 61 60
3 62 26 61
3 63 64 27
3 65 64 63
3 65 29 64
3 66 67 13
3 68 67 66
3 68 30 67
3 68 69 30
3 70 69 68
3 70 31 69
3 71 279 281
3 281 280 16
3 279 280 281
3 283 282 71
3 72 73 18
3 74 73 72
3 74 32 73
3 74 284 286
3 286 285 32
3 284 285 286
3 288 287 74
3 75 289 291
3 289 76 290
3 289 290 291
3 77 76 75
3 77 33 76
3 77 78 33
3 79 78 77
3 79 34 78
3 80 292 293
3 80 294 296
3 294 35 295
3 294 295 296
3 80 81 35
3 82 81 80
3 82 36 81
3 297 37 298
3 300 299 37
3 83 301 302
3 84 303 305
3 305 304 83
3 303 304 305
3 84 306 307
3 84 308 310
3 308 85 309
3 308 309 310
3 86 85 84
3 86 38 85
3 87 88 28
3 89 88 87
3 89 39 88
3 90 91 23
3 92 91 90
3 92 40 91
3 92 93 40
3 94 93 92
3 94 41 93
3 94 95 41
3 96 95 94
3 96 42 95
3 97 98 25
3 99 98 97
3 99 43 98
3 99 100 43
3 101 100 99
3 101 44 100
3 311 102 312
3 103 313 315
3 313 102 314
3 313 314 315
3 103 45 102
3 103 104 45
3 316 104 317
3 318 317 103
3 316 317 318
3 319 46 320
3 321 320 104
3 319 320 321
3 105 106 4
3 107 106 105
3 107 13 106
3 47 107 12
3 108 107 47
3 108 13 107
3 108 66 13
3 109 66 108
3 109 6 66
3 110 322 323
3 111 324 326
3 326 325 110
3 324 325 326
3 111 327 329
3 327 16 328
3 327 328 329
3 49 111 15
3 112 111 49
3 112 16 111
3 112 71 16
3 113 71 112
3 113 330 332
3 332 331 71
3 330 331 332
3 113 333 335
3 333 114 334
3 333 334 335
3 115 114 113
3 115 18 114
3 51 115 17
3 116 115 51
3 116 18 115
3 116 72 18
3 117 72 116
3 117 7 72
3 53 336 337
3 118 338 340
3 340 339 53
3 338 339 340
3 118 341 342
3 118 343 345
3 343 75 344
3 343 344 345
3 119 75 118
3 119 8 75
3 120 346 347
3 120 348 349
3 56 350 352
3 350 120 351
3 350 351 352
3 121 120 56
3 121 353 355
3 355 354 120
3 353 354 355
3 121 356 358
3 356 83 357
3 356 357 358
3 122 83 121
3 122 9 83
3 123 124 5
3 125 124 123
3 125 23 124
3 59 125 22
3 126 125 59
3 126 23 125
3 126 90 23
3 127 90 126
3 127 10 90
3 127 128 10
3 129 128 127
3 129 25 128
3 61 129 24
3 130 129 61
3 130 25 129
3 130 97 25
3 131 97 130
3 131 11 97
3 359 1 360
3 132 133 2
3 134 133 132
3 134 28 133
3 64 134 27
3 135 134 64
3 135 28 134
3 135 87 28
3 136 87 135
3 136 5 87
3 106 65 4
3 137 65 106
3 137 29 65
3 67 137 13
3 138 137 67
3 138 29 137
3 138 136 29
3 139 136 138
3 139 5 136
3 139 123 5
3 140 123 139
3 140 22 123
3 69 140 30
3 141 140 69
3 141 22 140
3 141 58 22
3 142 58 141
3 142 3 58
3 362 361 16
3 114 363 364
3 143 365 367
3 367 366 114
3 365 366 367
3 143 368 369
3 73 143 18
3 370 143 371
3 372 371 73
3 370 371 372
3 374 373 143
3 377 376 32
3 375 376 377
3 76 378 379
3 381 380 76
3 382 110 383
3 144 384 386
3 384 110 385
3 384 385 386
3 144 15 110
3 78 144 33
3 145 144 78
3 145 15 144
3 145 48 15
3 146 48 145
3 146 0 48
3 387 55 388
3 147 389 391
3 389 55 390
3 389 390 391
3 147 2 55
3 392 147 393
3 148 394 396
3 394 147 395
3 394 395 396
3 148 2 147
3 148 132 2
3 149 132 148
3 149 27 132
3 81 149 35
3 150 149 81
3 150 27 149
3 150 63 27
3 151 63 150
3 151 4 63
3 397 82 398
3 152 399 401
3 399 82 400
3 399 400 401
3 152 36 82
3 402 152 403
3 153 404 406
3 404 152 405
3 404 405 406
3 153 36 152
3 153 151 36
3 154 151 153
3 154 4 151
3 154 105 4
3 155 105 154
3 155 12 105
3 407 155 408
3 409 408 37
3 407 408 409
3 410 155 411
3 412 12 413
3 414 413 155
3 412 413 414
3 416 415 12
3 85 417 418
3 156 419 421
3 421 420 85
3 419 420 421
3 156 422 423
3 156 424 425
3 157 426 428
3 428 427 156
3 426 427 428
3 157 429 431
3 429 1 430
3 429 430 431
3 133 57 2
3 158 57 133
3 158 21 57
3 88 158 28
3 159 158 88
3 159 21 158
3 159 122 21
3 160 122 159
3 160 9 122
3 124 89 5
3 161 89 124
3 161 39 89
3 91 161 23
3 162 161 91
3 162 39 161
3 162 160 39
3 163 160 162
3 163 9 160
3 163 86 9
3 164 86 163
3 164 38 86
3 93 164 40
3 165 164 93
3 165 38 164
3 165 157 38
3 166 157 165
3 166 1 157
3 166 54 1
3 167 54 166
3 167 20 54
3 95 167 41
3 168 167 95
3 168 20 167
3 168 119 20
3 169 119 168
3 169 8 119
3 128 96 10
3 170 96 128
3 170 42 96
3 98 170 25
3 171 170 98
3 171 42 170
3 171 169 42
3 172 169 171
3 172 8 169
3 172 79 8
3 173 79 172
3 173 34 79
3 100 173 43
3 174 173 100
3 174 34 173
3 174 146 34
3 175 146 174
3 175 0 146
3 432 14 433
3 434 14 435
3 434 435 436
3 437 109 438
3 439 438 14
3 437 438 439
3 440 109 441
3 442 6 443
3 444 443 109
3 442 443 444
3 445 6 446
3 447 70 448
3 449 448 6
3 447 448 449
3 176 450 452
3 450 70 451
3 450 451 452
3 176 31 70
3 453 176 454
3 177 455 457
3 455 176 456
3 455 456 457
3 177 31 176
3 177 142 31
3 178 142 177
3 178 3 142
3 458 178 459
3 179 460 462
3 460 178 461
3 460 461 462
3 179 3 178
3 179 62 3
3 180 62 179
3 180 26 62
3 463 180 464
3 181 465 467
3 465 180 466
3 465 466 467
3 181 26 180
3 181 131 26
3 182 131 181
3 182 11 131
3 468 182 469
3 183 470 472
3 470 182 471
3 470 471 472
3 183 11 182
3 183 101 11
3 184 101 183
3 184 44 101
3 102 473 475
3 473 184 474
3 473 474 475
3 185 184 102
3 185 44 184
3 185 175 44
3 186 175 185
3 186 0 175
3 186 52 0
3 187 52 186
3 187 19 52
3 104 187 45
3 188 187 104
3 188 19 187
3 188 117 19
3 189 117 188
3 189 7 117
3 476 46 477
3 478 46 479
3 480 189 481
3 482 481 46
3 480 481 482
3 483 189 484
3 485 7 486
3 487 486 189
3 485 486 487
3 489 488 7
