ply
format ascii 1.0
element vertex 700
property float x
property float y
property float z
element face 814
property list uchar int vertex_index
end_header
50.343964 -24.053705 -44.472748
53.287331 -1.474695 -54.474251
56.071259 -67.613022 -26.800783
62.446362 -33.611233 -40.036118
44.132927 9.824764 -57.295509
51.582611 -82.377319 -21.657412
35.176552 5.436583 -57.136673
44.215004 -1.799307 -56.575638
44.564934 -14.396937 -48.972588
52.845589 -13.260794 -51.396118
54.375294 -81.548691 -14.390783
60.567055 -68.763847 -21.456987
65.052704 -54.293442 -28.189619
59.996002 -51.310184 -32.978561
54.585487 -45.974083 -36.250626
56.71302 -28.525669 -43.966263
60.501053 -16.359247 -47.876183
33.109623 12.046621 -54.015938
32.105373 7.158064 -55.175423
35.575718 10.999767 -56.834152
48.719765 4.675463 -56.479866
43.967274 4.0723 -57.937431
48.756363 -1.152611 -56.443459
48.859573 -7.0068 -54.407509
53.237244 -7.380136 -53.857033
40.42691 -10.098624 -51.203629
53.87896 -75.118759 -24.076361
56.074715 -75.514832 -21.386412
58.644745 -68.538559 -24.554976
63.12397 -61.810841 -24.985243
60.844772 -61.142776 -27.767229
62.628086 -53.165413 -30.862261
58.12339 -59.702122 -29.793745
52.398636 -54.849731 -32.79483
51.682568 -42.733944 -37.423576
64.823593 -26.858294 -40.445419
63.641052 -18.234726 -44.133568
62.212494 -24.800062 -43.941635
59.161499 -22.590216 -46.558418
59.808037 -31.161064 -42.473549
39.998867 13.659359 -56.770905
49.047615 -81.853195 -23.968767
51.057739 -74.027893 -25.951754
53.119797 -65.945312 -28.416647
64.816742 -35.748047 -37.003578
31.803152 1.564995 -54.66008
35.402573 -0.51532 -55.617912
39.378979 8.224506 -58.116219
39.450535 2.369883 -57.568108
39.901051 -3.671761 -55.095421
44.509468 -7.845903 -53.321777
48.652172 -13.035687 -50.721069
51.798691 -19.070889 -47.735252
49.998222 -30.596691 -41.556778
54.975708 -80.574326 -10.058662
58.400429 -74.825325 -13.80065
53.330784 -82.240067 -18.390947
57.522411 -75.311523 -17.863333
61.841198 -68.618355 -17.644152
64.789909 -61.978943 -21.417982
67.000923 -54.854828 -24.833937
66.365471 -46.151718 -31.010485
63.98642 -44.625038 -33.868416
61.547638 -42.537163 -36.370773
55.251045 -57.542637 -31.373102
57.32695 -48.852257 -34.751244
59.020771 -39.997578 -38.480423
56.22023 -37.132942 -40.025948
53.116867 -34.006912 -40.940651
53.314064 -25.9643 -44.481537
61.146751 -10.065785 -47.777718
57.38308 -8.521705 -51.504974
56.881767 -14.576948 -50.458977
55.603432 -20.479523 -47.84008
34.152336 11.747091 -55.618629
36.08614 13.492607 -56.018044
51.03336 1.716736 -55.61364
48.703045 1.766628 -56.701637
51.037399 -1.211519 -55.680054
51.066803 -4.141141 -55.270172
53.274544 -4.429379 -54.398491
54.991512 -71.406296 -25.399549
56.278458 -71.827309 -24.284231
57.427399 -68.172012 -25.778421
59.796234 -64.906029 -26.168062
58.509445 -64.410858 -27.309645
59.521057 -60.521782 -28.859426
57.116051 -63.716854 -28.269751
63.753418 -30.264317 -40.386261
63.559731 -25.853842 -42.267258
62.500114 -29.174833 -41.967957
61.154518 -28.02302 -43.366333
61.177349 -32.419445 -41.354324
50.050468 -77.967712 -24.906805
66.106697 -32.238731 -36.911942
65.968895 -36.681892 -35.372787
33.448647 6.481318 -56.348587
31.87779 4.423368 -55.125885
33.370121 3.621405 -56.053444
33.435242 0.66847 -55.329048
35.228409 2.495169 -56.597542
41.977047 11.937529 -57.207985
39.587009 11.030558 -57.663841
41.706451 9.172689 -57.932991
44.062439 1.143999 -57.515999
41.663635 3.367552 -57.976387
41.812977 0.414455 -57.23748
39.648804 -0.621851 -56.554192
42.01619 -2.573503 -56.004959
42.231697 -5.630115 -54.341637
44.377579 -4.782035 -55.150009
50.96991 -10.005982 -52.986427
48.810394 -9.985215 -52.714859
50.749607 -12.970045 -51.235298
50.38868 -15.963767 -49.255768
52.407299 -16.188616 -49.638115
46.39666 -16.856518 -47.716003
54.718044 -81.077332 -12.242447
56.647728 -77.763428 -11.914331
56.335648 -78.128052 -14.041643
52.55785 -82.388969 -20.137403
58.333023 -72.138443 -21.402662
56.885788 -75.473045 -19.715509
59.087608 -72.078911 -19.652208
59.685066 -71.937973 -17.740858
61.274803 -68.706985 -19.619856
63.398735 -65.354919 -19.557348
62.735363 -65.375 -21.481707
64.168228 -58.130463 -26.639151
65.158241 -58.346684 -25.001184
66.100693 -54.620705 -26.595404
67.813217 -51.090981 -26.343775
66.865967 -50.742538 -28.06418
67.462082 -46.716431 -29.424639
65.782677 -50.296879 -29.638582
61.322533 -52.325275 -31.975378
63.3629 -48.955536 -32.365181
62.098801 -48.034294 -33.551155
62.769501 -43.646603 -35.162109
60.827553 -46.958946 -34.644119
51.61116 -64.86882 -29.112837
54.18042 -61.784637 -29.837252
52.706577 -60.589218 -30.539446
53.52729 -50.415127 -34.474678
54.923523 -51.871456 -33.765274
55.972736 -47.45813 -35.538002
58.250862 -44.435394 -36.576233
56.909691 -43.028267 -37.39917
57.663635 -38.600342 -39.334312
55.50811 -41.540237 -38.106697
50.188629 -40.955147 -37.89949
52.52169 -38.320175 -39.163589
50.981987 -36.570805 -39.559097
51.532455 -32.34676 -41.245041
62.12735 -17.296717 -46.107735
62.549553 -14.083942 -45.984642
60.879608 -13.200961 -47.984901
59.318062 -9.257927 -49.77095
59.096252 -12.351741 -49.751534
57.200367 -11.559086 -51.195312
58.752846 -15.440285 -49.352097
58.088875 -25.606464 -45.380928
57.436913 -21.495089 -47.380577
56.373795 -24.411522 -45.928352
54.585461 -23.303127 -46.173187
55.024029 -27.211449 -44.328362
32.509518 9.720861 -54.802071
33.699974 9.210577 -56.201553
35.280746 8.288214 -57.214577
46.400887 7.387678 -57.047318
43.9771 6.979649 -57.850739
46.330154 4.501127 -57.433525
46.369446 1.585596 -57.342674
46.47176 -1.335859 -56.737556
46.58577 -4.271431 -55.618416
48.826557 -4.072154 -55.673943
51.062595 -7.068329 -54.361969
53.11198 -10.322845 -52.83992
42.561958 -12.130429 -50.161995
52.738861 -78.771744 -22.832769
53.821976 -78.920151 -21.463472
55.071068 -75.40274 -22.84355
57.39827 -72.066002 -22.953463
59.694149 -68.72496 -23.111994
61.920319 -65.348473 -23.246897
60.940067 -65.20903 -24.8155
62.05571 -61.564983 -26.481108
63.036331 -57.77187 -28.082567
63.883568 -53.818871 -29.608541
61.788498 -57.230988 -29.33359
60.460083 -56.492798 -30.415125
59.087406 -55.564075 -31.363817
52.110901 -48.86277 -35.134361
53.154572 -44.401993 -36.879417
64.397804 -22.499722 -42.272865
63.024132 -21.522429 -44.186951
61.548092 -20.518196 -45.924599
59.949913 -19.499342 -47.404259
60.753288 -23.704865 -45.395164
59.687584 -26.824451 -44.519836
58.318596 -29.854477 -43.351219
51.10276 4.613655 -55.121399
53.331856 1.460661 -54.130806
50.404377 -82.198334 -22.932196
51.469467 -78.453491 -23.972715
52.526119 -74.65889 -25.099981
53.575356 -70.802238 -26.329054
54.61972 -66.865929 -27.662722
52.078766 -70.024139 -27.120123
64.947784 -31.285065 -38.683411
63.648621 -34.723534 -38.569984
30.824211 4.888834 -53.821281
35.669483 -3.598784 -54.246536
37.691147 12.490171 -57.029457
37.340282 9.811249 -57.664169
37.19017 6.977215 -57.842255
41.613667 6.295397 -58.202072
39.346375 5.32214 -58.091774
37.208252 4.053587 -57.540367
37.355225 1.072222 -56.760178
37.593719 -1.96629 -55.533012
37.890327 -5.083832 -53.923431
40.171398 -6.81649 -53.275002
42.423847 -8.800755 -52.351021
44.579414 -11.037175 -51.214668
46.663895 -7.252413 -54.03624
46.669998 -10.319242 -52.094658
46.582993 -13.510052 -49.936409
48.381298 -16.176893 -48.58709
49.908539 -18.966032 -47.230629
49.37973 -21.944212 -45.342743
51.064526 -21.803055 -45.905525
48.946014 -25.089565 -43.635941
48.549812 -28.677727 -41.998917
50.286743 -26.899292 -43.138069
53.924629 -81.949478 -16.458067
54.704643 -78.904495 -19.866259
55.397224 -78.743454 -18.066866
55.928833 -78.470024 -16.108477
58.01638 -75.077957 -15.87554
60.155888 -71.774895 -15.715754
63.929779 -65.358849 -17.51956
65.398773 -62.040783 -19.416986
66.67186 -58.609974 -21.231489
64.035088 -61.926979 -23.287924
65.993378 -58.481934 -23.187197
66.805634 -41.883316 -32.347275
64.60173 -49.708981 -31.067732
65.193459 -45.460167 -32.487915
65.65451 -41.10405 -33.909019
64.481468 -40.208782 -35.40464
63.301773 -39.196915 -36.829826
62.107414 -38.076614 -38.167412
55.659637 -62.834621 -29.095095
56.690308 -58.700676 -30.616758
57.699287 -54.466415 -32.219452
53.82032 -56.252987 -32.094574
56.311058 -53.227257 -33.014153
58.664101 -50.143654 -33.898674
59.549686 -45.75164 -35.653496
60.306679 -41.314758 -37.484009
60.872536 -36.860672 -39.38739
59.56448 -35.563221 -40.452057
58.157646 -34.198524 -41.325928
56.644859 -32.781387 -41.987961
54.040962 -39.972778 -38.691277
54.695354 -35.601044 -40.553177
55.044384 -31.328682 -42.442665
53.401413 -29.860064 -42.727844
51.785751 -28.391851 -42.918594
51.682976 -24.862015 -44.499268
55.482262 -1.91095 -52.885445
59.47765 -6.198169 -49.463364
57.49807 -5.488594 -51.419075
55.424698 -4.890806 -53.092682
55.351513 -7.882296 -52.891022
55.199265 -10.863755 -52.240616
54.902603 -13.825422 -51.145271
58.218925 -18.495949 -48.551498
56.363674 -17.55773 -49.313881
54.412491 -16.756962 -49.671333
53.706318 -19.630442 -47.947517
52.790474 -22.378202 -46.153778
36.453409 14.580993 -55.407151
35.45343 13.750427 -55.319726
66.534317 -37.105567 -34.535579
66.600567 -34.908069 -35.240757
44.507065 -16.177088 -47.851914
43.59132 -15.026053 -48.439316
45.480797 -15.626728 -48.344296
45.422928 -17.406879 -47.223621
44.507065 -16.177088 -47.851914
54.546669 -81.313012 -13.316615
53.823484 -82.801304 -12.471381
53.652109 -83.036984 -13.545549
52.070231 -82.383144 -20.897407
51.493151 -84.159969 -20.331493
51.005532 -84.154144 -21.091498
51.412668 -62.120138 -30.163304
52.158868 -62.729019 -29.826141
50.864959 -64.259939 -29.449999
49.843593 -37.809161 -38.951363
50.585308 -38.762976 -38.729293
49.446914 -40.001331 -38.121559
50.222912 -35.638267 -39.74886
49.843593 -37.809161 -38.951363
32.777174 11.997578 -53.026432
33.509626 13.053465 -53.427605
32.420991 10.942279 -53.520043
32.777174 11.997578 -53.026432
32.80957 10.883741 -54.409004
32.120939 9.7794 -53.913109
32.420991 10.942279 -53.520043
40.530748 -11.827459 -50.102643
39.479909 -10.895899 -50.569867
41.494434 -11.114527 -50.682812
41.598272 -12.843362 -49.581825
40.530748 -11.827459 -50.102643
50.83086 -50.291332 -34.623654
51.544441 -51.101419 -34.302818
51.390396 -48.035212 -35.435253
50.83086 -50.291332 -34.623654
64.610698 -24.679008 -41.359142
65.042023 -22.976332 -41.265713
65.254917 -25.155618 -40.35199
52.273628 4.471026 -54.273174
51.18808 6.016795 -54.689099
53.388176 2.894529 -53.777878
52.217308 3.037158 -54.626103
52.273628 4.471026 -54.273174
48.544193 -83.769226 -23.538775
47.815294 -83.582817 -23.992481
49.725996 -82.025765 -23.450482
49.222574 -83.941795 -23.020489
48.544193 -83.769226 -23.538775
31.464792 6.023449 -54.498352
31.009814 6.176979 -53.72271
31.650395 7.311594 -54.399781
31.202319 1.862223 -54.137848
31.239638 3.291409 -54.37075
31.840471 2.994181 -54.892983
31.157342 0.439358 -53.842743
31.202319 1.862223 -54.137848
31.832118 0.088143 -54.232437
31.157342 0.439358 -53.842743
34.510745 -1.439438 -54.914894
33.527079 -0.847543 -54.770462
34.418908 0.076575 -55.47348
35.536028 -2.057052 -54.932224
34.644199 -2.98117 -54.229206
34.510745 -1.439438 -54.914894
38.845007 13.074765 -56.900181
37.976896 13.705037 -56.500229
39.130756 14.289631 -56.370953
48.699749 -20.684189 -45.909061
48.494445 -22.389654 -44.919064
47.853436 -27.595916 -42.332947
47.577435 -29.595151 -41.479301
48.051536 -25.801835 -43.151459
48.747913 -26.883646 -42.817429
47.853436 -27.595916 -42.332947
54.213852 -81.904377 -9.141449
54.104164 -82.237977 -10.263844
55.064453 -80.320931 -8.965155
54.302597 -81.650982 -8.047942
54.213852 -81.904377 -9.141449
55.927578 -78.993439 -9.911664
55.064453 -80.320931 -8.965155
58.548298 -74.712506 -12.74098
57.671948 -76.181557 -11.797821
57.524079 -76.294376 -12.857491
59.462845 -73.235348 -13.711624
58.548298 -74.712506 -12.74098
52.666531 -83.873718 -17.667724
52.321884 -84.020016 -18.61797
53.627707 -82.094773 -17.424507
52.963453 -83.728424 -16.701284
52.666531 -83.873718 -17.667724
62.065928 -68.59026 -16.610475
61.223273 -70.16853 -15.646276
60.998543 -70.196625 -16.679953
62.885489 -66.988602 -17.581856
63.110218 -66.960507 -16.548179
62.065928 -68.59026 -16.610475
67.369182 -54.960064 -23.881861
66.86541 -56.773617 -23.058491
66.497151 -56.668381 -24.010567
67.797268 -53.129385 -24.662575
67.369182 -54.960064 -23.881861
68.528931 -49.357586 -26.129052
68.124843 -49.140482 -27.034132
67.131695 -44.355759 -30.862848
67.680001 -44.638115 -30.069926
66.913776 -46.434075 -30.217562
66.585553 -44.017517 -31.67888
67.351776 -42.221558 -31.531244
67.131695 -44.355759 -30.862848
53.109478 -55.551359 -32.444702
52.535425 -57.759418 -31.660874
51.824583 -57.05779 -32.011002
56.540636 -2.204851 -51.939838
55.525959 -0.447665 -52.606335
63.872169 -16.615057 -43.986027
64.345512 -18.703677 -43.085293
62.001503 -10.500854 -46.696323
62.702904 -12.509933 -45.799785
61.848152 -12.074863 -46.88118
61.2444 -8.536909 -47.54628
62.001503 -10.500854 -46.696323
60.312201 -8.131977 -48.620541
60.409849 -6.603101 -48.389103
61.2444 -8.536909 -47.54628
33.965172 13.027434 -54.318672
33.509626 13.053465 -53.427605
34.486528 12.877669 -55.120018
33.630979 11.896856 -54.817284
33.965172 13.027434 -54.318672
35.119238 12.619849 -55.818337
34.486528 12.877669 -55.120018
35.45343 13.750427 -55.319726
39.320498 -9.206459 -51.61322
39.479909 -10.895899 -50.569867
48.302219 -81.599357 -24.383139
47.815294 -83.582817 -23.992481
48.803646 -79.656616 -24.852157
49.549042 -79.910454 -24.437786
48.302219 -81.599357 -24.383139
49.291387 -77.643471 -25.291849
48.803646 -79.656616 -24.852157
49.795023 -75.673561 -25.814324
50.554103 -75.997803 -25.429279
49.291387 -77.643471 -25.291849
50.291586 -73.63073 -26.31642
49.795023 -75.673561 -25.814324
66.669468 -32.686489 -36.010334
66.640865 -30.491159 -36.760143
66.037796 -34.460312 -36.142364
66.669468 -32.686489 -36.010334
66.600567 -34.908069 -35.240757
46.255657 -18.624099 -46.639881
45.422928 -17.406879 -47.223621
47.208214 -18.140342 -47.095692
46.255657 -18.624099 -46.639881
53.975332 -82.48948 -11.355736
53.823484 -82.801304 -12.471381
54.846876 -80.825829 -11.150555
54.104164 -82.237977 -10.263844
53.975332 -82.48948 -11.355736
51.935417 -84.094467 -19.491197
51.493151 -84.159969 -20.331493
52.944317 -82.314518 -19.264175
52.321884 -84.020016 -18.61797
51.935417 -84.094467 -19.491197
67.651218 -48.966261 -27.894334
68.124843 -49.140482 -27.034132
67.339592 -50.916759 -27.203978
67.164024 -48.729484 -28.744409
67.949276 -46.953207 -28.574564
67.651218 -48.966261 -27.894334
50.498146 -33.526245 -40.591831
51.257221 -34.458782 -40.402069
50.222912 -35.638267 -39.74886
49.731029 -32.651211 -40.7477
50.765338 -31.471726 -41.400909
50.498146 -33.526245 -40.591831
31.852467 8.592992 -54.213105
32.120939 9.7794 -53.913109
32.307446 8.439462 -54.988747
31.650395 7.311594 -54.399781
31.852467 8.592992 -54.213105
42.589832 -13.892799 -49.034019
41.598272 -12.843362 -49.581825
43.563446 -13.263683 -49.567291
43.59132 -15.026053 -48.439316
42.589832 -13.892799 -49.034019
53.451898 -83.310562 -14.633768
53.652109 -83.036984 -13.545549
51.104996 -56.336353 -32.350409
51.824583 -57.05779 -32.011002
51.688309 -54.0949 -33.133052
51.104996 -56.336353 -32.350409
52.252636 -51.877598 -33.972977
52.962963 -52.632429 -33.634754
51.688309 -54.0949 -33.133052
52.819096 -49.638948 -34.804519
52.252636 -51.877598 -33.972977
51.544441 -51.101419 -34.302818
51.912232 -45.804823 -36.307781
52.632737 -46.632381 -36.006889
51.390396 -48.035212 -35.435253
51.17623 -44.970799 -36.57986
52.41857 -43.567968 -37.151496
51.912232 -45.804823 -36.307781
50.448019 -44.084413 -36.852432
51.17623 -44.970799 -36.57986
49.701049 -43.195015 -37.090389
50.935598 -41.844545 -37.661533
50.448019 -44.084413 -36.852432
48.977239 -42.24073 -37.342888
49.701049 -43.195015 -37.090389
49.446914 -40.001331 -38.121559
48.977239 -42.24073 -37.342888
64.723888 -20.836175 -42.154942
65.042023 -22.976332 -41.265713
64.019428 -20.367224 -43.203216
64.345512 -18.703677 -43.085293
64.723888 -20.836175 -42.154942
40.31168 14.830749 -56.122574
39.130756 14.289631 -56.370953
41.221609 14.076458 -56.419704
40.31168 14.830749 -56.122574
41.534422 15.247848 -55.771373
42.210699 13.215543 -56.638244
40.987957 12.798444 -56.989445
41.221609 14.076458 -56.419704
43.218884 12.233286 -56.762848
42.210699 13.215543 -56.638244
44.296824 11.176903 -56.80661
43.054987 10.881146 -57.251747
43.218884 12.233286 -56.762848
45.373642 10.005331 -56.764648
44.296824 11.176903 -56.80661
46.507622 8.786788 -56.640553
45.266907 8.606221 -57.171413
45.373642 10.005331 -56.764648
47.623711 7.459623 -56.438442
46.507622 8.786788 -56.640553
48.78315 6.103515 -56.154716
47.560326 6.03157 -56.763592
47.623711 7.459623 -56.438442
49.974648 6.072611 -55.475483
51.18808 6.016795 -54.689099
49.911263 4.644559 -55.800632
48.78315 6.103515 -56.154716
49.974648 6.072611 -55.475483
50.458412 -84.134956 -21.803957
51.005532 -84.154144 -21.091498
49.869295 -84.045464 -22.441349
49.222574 -83.941795 -23.020489
50.993494 -82.287826 -22.294804
50.458412 -84.134956 -21.803957
49.869295 -84.045464 -22.441349
50.802099 -71.628852 -26.900605
51.568252 -72.026016 -26.535939
50.291586 -73.63073 -26.31642
51.314171 -69.55423 -27.472613
50.802099 -71.628852 -26.900605
51.834687 -67.514816 -28.120874
52.599282 -67.984725 -27.768385
51.314171 -69.55423 -27.472613
51.080368 -66.97657 -28.46897
52.365478 -65.407066 -28.764742
51.834687 -67.514816 -28.120874
50.317827 -66.430954 -28.800199
51.080368 -66.97657 -28.46897
50.864959 -64.259939 -29.449999
50.317827 -66.430954 -28.800199
65.425286 -27.337755 -39.493782
65.254917 -25.155618 -40.35199
66.066837 -30.027973 -37.727044
66.640865 -30.491159 -36.760143
65.487381 -29.55114 -38.612778
66.066837 -30.027973 -37.727044
65.527241 -31.761898 -37.797677
64.885689 -29.07168 -39.564415
65.425286 -27.337755 -39.493782
65.487381 -29.55114 -38.612778
30.529309 4.963598 -52.987797
31.009814 6.176979 -53.72271
30.353943 3.673568 -53.015079
30.529309 4.963598 -52.987797
30.712848 3.524142 -53.718449
31.351 4.656101 -54.473583
31.239638 3.291409 -54.37075
30.353943 3.673568 -53.015079
30.712848 3.524142 -53.718449
32.648163 -0.360119 -54.566921
31.832118 0.088143 -54.232437
32.619197 1.116732 -54.994564
32.648163 -0.360119 -54.566921
33.527079 -0.847543 -54.770462
34.785066 -4.539083 -53.503117
34.644199 -2.98117 -54.229206
35.83614 -5.187233 -53.401634
34.785066 -4.539083 -53.503117
37.174393 14.206255 -55.994523
36.453409 14.580993 -55.407151
36.888644 12.991389 -56.523751
37.174393 14.206255 -55.994523
37.976896 13.705037 -56.500229
36.946562 -5.929756 -53.240082
35.83614 -5.187233 -53.401634
36.779905 -4.341308 -54.084983
38.052206 -6.699063 -52.973122
36.946562 -5.929756 -53.240082
39.192741 -7.565392 -52.648907
38.052206 -6.699063 -52.973122
39.030862 -5.950161 -53.599216
40.299154 -8.457557 -52.239316
39.320498 -9.206459 -51.61322
39.192741 -7.565392 -52.648907
48.200533 -17.800529 -47.531235
47.208214 -18.140342 -47.095692
47.388979 -16.516706 -48.151547
48.964153 -19.195099 -46.853004
48.200533 -17.800529 -47.531235
49.144919 -17.571462 -47.90886
49.644134 -20.455122 -46.286686
48.699749 -20.684189 -45.909061
48.964153 -19.195099 -46.853004
48.277587 -23.962331 -44.065663
48.051536 -25.801835 -43.151459
49.162872 -23.516889 -44.489342
48.277587 -23.962331 -44.065663
48.494445 -22.389654 -44.919064
49.000484 -31.645922 -40.968937
49.731029 -32.651211 -40.7477
48.27628 -30.686439 -41.190006
47.577435 -29.595151 -41.479301
49.274017 -29.637209 -41.777848
49.000484 -31.645922 -40.968937
48.27628 -30.686439 -41.190006
56.763588 -77.58799 -10.839499
55.927578 -78.993439 -9.911664
55.811718 -79.168877 -10.986497
56.763588 -77.58799 -10.839499
57.671948 -76.181557 -11.797821
53.226566 -83.510955 -15.66741
52.963453 -83.728424 -16.701284
54.149962 -81.749085 -15.424425
53.451898 -83.310562 -14.633768
53.226566 -83.510955 -15.66741
60.340575 -71.710133 -14.669176
59.462845 -73.235348 -13.711624
59.278159 -73.30011 -14.758202
60.340575 -71.710133 -14.669176
61.223273 -70.16853 -15.646276
64.136181 -65.402981 -16.466216
63.110218 -66.960507 -16.548179
64.900966 -63.769738 -17.424614
64.136181 -65.402981 -16.466216
65.635464 -62.110704 -18.373327
64.900966 -63.769738 -17.424614
64.664276 -63.699816 -18.468273
66.297756 -60.422026 -19.296377
65.635464 -62.110704 -18.373327
66.934299 -58.706621 -20.203629
66.297756 -60.422026 -19.296377
66.035316 -60.325378 -20.324238
67.487229 -56.967381 -21.074833
66.934299 -58.706621 -20.203629
67.204651 -56.837637 -22.080637
66.332619 -58.545954 -22.209343
66.86541 -56.773617 -23.058491
67.487229 -56.967381 -21.074833
67.204651 -56.837637 -22.080637
68.203415 -51.247462 -25.417494
67.797268 -53.129385 -24.662575
67.40707 -52.972904 -25.588856
68.203415 -51.247462 -25.417494
68.528931 -49.357586 -26.129052
68.171265 -44.938935 -29.215635
67.949276 -46.953207 -28.574564
68.171265 -44.938935 -29.215635
67.680001 -44.638115 -30.069926
67.492069 -40.093266 -32.167318
67.351776 -42.221558 -31.531244
66.952686 -39.70628 -33.022824
67.492069 -40.093266 -32.167318
66.377125 -39.316647 -33.803696
66.952686 -39.70628 -33.022824
66.230072 -41.493683 -33.128147
65.811702 -38.892971 -34.640903
66.534317 -37.105567 -34.535579
66.377125 -39.316647 -33.803696
51.978554 -59.927534 -30.883311
51.412668 -62.120138 -30.163304
53.263449 -58.421103 -31.31701
51.978554 -59.927534 -30.883311
52.535425 -57.759418 -31.660874
54.450756 1.23814 -53.229016
53.388176 2.894529 -53.777878
54.407059 -0.225144 -53.508125
54.450756 1.23814 -53.229016
55.525959 -0.447665 -52.606335
63.32642 -14.539665 -44.911564
63.872169 -16.615057 -43.986027
63.095303 -16.159334 -45.059105
63.32642 -14.539665 -44.911564
62.702904 -12.509933 -45.799785
59.543497 -4.712467 -49.175365
60.409849 -6.603101 -48.389103
58.53833 -4.348461 -50.228798
59.543497 -4.712467 -49.175365
57.54854 -3.993673 -51.206654
58.53833 -4.348461 -50.228798
58.48786 -5.843381 -50.44122
56.490166 -3.699772 -52.15226
56.540636 -2.204851 -51.939838
57.54854 -3.993673 -51.206654
3 283 75 284
3 1 78 76
3 1 80 78
3 2 83 81
3 2 85 83
3 2 87 85
3 3 90 88
3 3 92 90
3 285 95 286
3 6 98 96
3 6 100 98
3 4 103 101
3 7 106 104
3 7 108 106
3 7 110 108
3 9 113 111
3 9 115 113
3 8 287 288
3 8 289 291
3 289 116 290
3 289 290 291
3 10 292 294
3 292 117 293
3 292 293 294
3 10 119 117
3 5 295 297
3 295 120 296
3 295 296 297
3 11 123 121
3 11 125 123
3 11 127 125
3 12 130 128
3 12 132 130
3 12 134 132
3 13 137 135
3 13 139 137
3 298 142 299
3 300 299 140
3 298 299 300
3 14 145 143
3 14 147 145
3 14 149 147
3 301 152 302
3 303 302 150
3 301 302 303
3 305 304 152
3 16 156 154
3 16 158 156
3 16 160 158
3 15 163 161
3 15 165 163
3 17 306 307
3 17 308 309
3 17 310 312
3 310 166 311
3 310 311 312
3 19 167 74
3 19 168 167
3 20 171 169
3 22 172 77
3 22 173 172
3 22 175 173
3 24 176 79
3 24 177 176
3 25 313 314
3 25 315 317
3 315 178 316
3 315 316 317
3 26 181 179
3 28 182 82
3 28 183 182
3 28 185 183
3 30 186 84
3 30 187 186
3 30 189 187
3 32 190 86
3 32 191 190
3 318 192 319
3 321 320 192
3 35 322 324
3 322 194 323
3 322 323 324
3 37 195 89
3 37 196 195
3 37 198 196
3 39 199 91
3 39 200 199
3 325 201 326
3 327 202 328
3 329 328 201
3 327 328 329
3 41 330 331
3 41 332 334
3 332 203 333
3 332 333 334
3 41 204 203
3 42 205 93
3 42 206 205
3 42 208 206
3 44 209 94
3 44 210 209
3 18 335 337
3 335 211 336
3 335 336 337
3 45 338 340
3 340 339 97
3 338 339 340
3 45 341 342
3 45 343 344
3 46 345 347
3 347 346 99
3 345 346 347
3 46 348 350
3 348 212 349
3 348 349 350
3 40 351 353
3 351 213 352
3 351 352 353
3 47 214 102
3 47 215 214
3 21 216 170
3 48 217 105
3 48 218 217
3 48 219 218
3 49 220 107
3 49 221 220
3 49 222 221
3 50 223 109
3 50 224 223
3 23 225 174
3 51 226 112
3 51 227 226
3 51 228 227
3 52 229 114
3 52 231 229
3 354 230 355
3 356 233 357
3 358 232 359
3 360 359 233
3 358 359 360
3 54 361 362
3 54 363 365
3 363 364 365
3 54 366 367
3 55 368 370
3 370 369 118
3 368 369 370
3 55 371 372
3 56 373 374
3 56 375 377
3 375 235 376
3 375 376 377
3 27 236 180
3 57 237 122
3 57 238 237
3 57 239 238
3 58 240 124
3 58 378 380
3 380 379 240
3 378 379 380
3 58 381 383
3 381 241 382
3 381 382 383
3 59 242 126
3 59 243 242
3 29 244 184
3 60 245 129
3 60 384 386
3 386 385 245
3 384 385 386
3 60 387 388
3 390 389 131
3 61 391 393
3 393 392 133
3 391 392 393
3 61 394 396
3 394 246 395
3 394 395 396
3 31 247 188
3 62 248 136
3 62 249 248
3 62 250 249
3 63 251 138
3 63 252 251
3 43 253 207
3 64 254 141
3 64 255 254
3 33 397 399
3 397 256 398
3 397 398 399
3 65 257 144
3 65 258 257
3 65 259 258
3 66 260 146
3 66 261 260
3 66 262 261
3 67 263 148
3 67 264 263
3 34 265 193
3 68 266 151
3 68 267 266
3 68 268 267
3 53 269 153
3 53 234 269
3 400 271 401
3 36 402 403
3 70 404 406
3 406 405 155
3 404 405 406
3 70 407 408
3 70 409 411
3 409 272 410
3 409 410 411
3 71 273 157
3 71 274 273
3 71 275 274
3 72 276 159
3 72 277 276
3 38 278 197
3 73 279 162
3 73 280 279
3 73 281 280
3 69 282 164
3 69 270 282
3 412 17 413
3 414 74 415
3 416 415 17
3 414 415 416
3 75 417 419
3 417 74 418
3 417 418 419
3 75 19 74
3 76 77 20
3 78 77 76
3 78 22 77
3 78 79 22
3 80 79 78
3 80 24 79
3 420 25 421
3 81 82 26
3 83 82 81
3 83 28 82
3 83 84 28
3 85 84 83
3 85 30 84
3 85 86 30
3 87 86 85
3 87 32 86
3 88 89 35
3 90 89 88
3 90 37 89
3 90 91 37
3 92 91 90
3 92 39 91
3 422 41 423
3 424 93 425
3 426 425 41
3 424 425 426
3 427 93 428
3 429 42 430
3 431 430 93
3 429 430 431
3 433 432 42
3 434 94 435
3 95 436 438
3 436 94 437
3 436 437 438
3 95 44 94
3 96 97 18
3 98 97 96
3 98 45 97
3 98 99 45
3 100 99 98
3 100 46 99
3 101 102 40
3 103 102 101
3 103 47 102
3 104 105 21
3 106 105 104
3 106 48 105
3 106 107 48
3 108 107 106
3 108 49 107
3 108 109 49
3 110 109 108
3 110 50 109
3 111 112 23
3 113 112 111
3 113 51 112
3 113 114 51
3 115 114 113
3 115 52 114
3 116 439 440
3 116 441 442
3 117 443 444
3 117 445 447
3 445 54 446
3 445 446 447
3 117 118 54
3 119 118 117
3 119 55 118
3 120 448 449
3 120 450 452
3 450 56 451
3 450 451 452
3 121 122 27
3 123 122 121
3 123 57 122
3 123 124 57
3 125 124 123
3 125 58 124
3 125 126 58
3 127 126 125
3 127 59 126
3 128 129 29
3 130 129 128
3 130 60 129
3 130 131 60
3 132 131 130
3 132 453 455
3 455 454 131
3 453 454 455
3 132 456 458
3 456 133 457
3 456 457 458
3 134 133 132
3 134 61 133
3 135 136 31
3 137 136 135
3 137 62 136
3 137 138 62
3 139 138 137
3 139 63 138
3 140 141 43
3 142 141 140
3 142 64 141
3 143 144 33
3 145 144 143
3 145 65 144
3 145 146 65
3 147 146 145
3 147 66 146
3 147 148 66
3 149 148 147
3 149 67 148
3 150 151 34
3 152 151 150
3 152 68 151
3 152 153 68
3 459 153 460
3 461 460 152
3 459 460 461
3 462 53 463
3 464 463 153
3 462 463 464
3 154 155 36
3 156 155 154
3 156 70 155
3 156 157 70
3 158 157 156
3 158 71 157
3 158 159 71
3 160 159 158
3 160 72 159
3 161 162 38
3 163 162 161
3 163 73 162
3 163 164 73
3 165 164 163
3 165 69 164
3 166 465 466
3 166 467 469
3 467 18 468
3 467 468 469
3 74 166 17
3 167 166 74
3 167 18 166
3 167 96 18
3 168 96 167
3 168 6 96
3 169 170 4
3 171 170 169
3 171 21 170
3 77 171 20
3 172 171 77
3 172 21 171
3 172 104 21
3 173 104 172
3 173 7 104
3 173 174 7
3 175 174 173
3 175 23 174
3 79 175 22
3 176 175 79
3 176 23 175
3 176 111 23
3 177 111 176
3 177 9 111
3 178 470 471
3 178 472 474
3 472 8 473
3 472 473 474
3 475 10 476
3 179 180 5
3 181 180 179
3 181 27 180
3 82 181 26
3 182 181 82
3 182 27 181
3 182 121 27
3 183 121 182
3 183 11 121
3 183 184 11
3 185 184 183
3 185 29 184
3 84 185 28
3 186 185 84
3 186 29 185
3 186 128 29
3 187 128 186
3 187 12 128
3 187 188 12
3 189 188 187
3 189 31 188
3 86 189 30
3 190 189 86
3 190 31 189
3 190 135 31
3 191 135 190
3 191 13 135
3 477 33 478
3 479 33 480
3 481 143 482
3 483 482 33
3 481 482 483
3 192 484 486
3 484 143 485
3 484 485 486
3 192 14 143
3 192 193 14
3 487 193 488
3 489 488 192
3 487 488 489
3 490 34 491
3 492 491 193
3 490 491 492
3 493 34 494
3 495 150 496
3 497 496 34
3 495 496 497
3 498 150 499
3 501 500 150
3 194 502 503
3 194 504 506
3 504 36 505
3 504 505 506
3 89 194 35
3 195 194 89
3 195 36 194
3 195 154 36
3 196 154 195
3 196 16 154
3 196 197 16
3 198 197 196
3 198 38 197
3 91 198 37
3 199 198 91
3 199 38 198
3 199 161 38
3 200 161 199
3 200 15 161
3 507 40 508
3 509 40 510
3 509 510 511
3 512 101 513
3 514 513 40
3 512 513 514
3 515 101 516
3 517 4 518
3 519 518 101
3 517 518 519
3 520 4 521
3 522 169 523
3 524 523 4
3 522 523 524
3 525 169 526
3 527 20 528
3 529 528 169
3 527 528 529
3 201 530 531
3 201 532 534
3 532 20 533
3 532 533 534
3 201 76 20
3 202 76 201
3 202 1 76
3 535 5 536
3 203 537 538
3 203 539 541
3 539 5 540
3 539 540 541
3 203 179 5
3 204 179 203
3 204 26 179
3 93 204 41
3 205 204 93
3 205 26 204
3 205 81 26
3 206 81 205
3 206 2 81
3 206 207 2
3 208 207 206
3 208 43 207
3 542 208 543
3 544 543 42
3 542 543 544
3 545 208 546
3 547 43 548
3 549 548 208
3 547 548 549
3 550 140 551
3 552 551 43
3 550 551 552
3 553 140 554
3 556 555 140
3 557 35 558
3 94 559 560
3 209 561 563
3 563 562 94
3 561 562 563
3 209 564 566
3 564 35 565
3 564 565 566
3 209 88 35
3 210 88 209
3 210 3 88
3 211 567 568
3 211 569 570
3 97 211 18
3 571 211 572
3 573 572 97
3 571 572 573
3 575 574 211
3 99 576 578
3 578 577 45
3 576 577 578
3 580 579 99
3 212 581 582
3 212 583 584
3 585 75 586
3 213 587 589
3 587 75 588
3 587 588 589
3 213 19 75
3 102 213 40
3 214 213 102
3 214 19 213
3 214 168 19
3 215 168 214
3 215 6 168
3 170 103 4
3 216 103 170
3 216 47 103
3 105 216 21
3 217 216 105
3 217 47 216
3 217 215 47
3 218 215 217
3 218 6 215
3 218 100 6
3 219 100 218
3 219 46 100
3 107 219 48
3 220 219 107
3 220 46 219
3 220 212 46
3 221 212 220
3 221 590 592
3 592 591 212
3 590 591 592
3 221 593 594
3 222 595 597
3 597 596 221
3 595 596 597
3 222 598 600
3 598 25 599
3 598 599 600
3 109 222 49
3 223 222 109
3 223 25 222
3 223 178 25
3 224 178 223
3 224 8 178
3 174 110 7
3 225 110 174
3 225 50 110
3 112 225 23
3 226 225 112
3 226 50 225
3 226 224 50
3 227 224 226
3 227 8 224
3 227 116 8
3 228 116 227
3 228 601 603
3 603 602 116
3 601 602 603
3 114 228 51
3 229 228 114
3 229 604 606
3 606 605 228
3 604 605 606
3 229 607 609
3 607 230 608
3 607 608 609
3 231 230 229
3 231 0 230
3 610 232 611
3 230 612 614
3 612 232 613
3 612 613 614
3 230 0 232
3 615 53 616
3 233 617 618
3 233 619 621
3 619 53 620
3 619 620 621
3 233 234 53
3 232 234 233
3 232 0 234
3 118 622 624
3 624 623 54
3 622 623 624
3 626 625 118
3 235 627 628
3 235 629 631
3 629 10 630
3 629 630 631
3 180 120 5
3 236 120 180
3 236 56 120
3 122 236 27
3 237 236 122
3 237 56 236
3 237 235 56
3 238 235 237
3 238 10 235
3 238 119 10
3 239 119 238
3 239 55 119
3 124 239 57
3 240 239 124
3 240 55 239
3 240 632 634
3 634 633 55
3 632 633 634
3 636 635 240
3 241 637 638
3 241 639 640
3 126 241 58
3 242 241 126
3 242 641 643
3 643 642 241
3 641 642 643
3 242 644 645
3 243 646 648
3 648 647 242
3 646 647 648
3 243 649 650
3 184 127 11
3 244 127 184
3 244 59 127
3 129 244 29
3 245 244 129
3 245 59 244
3 245 243 59
3 651 243 652
3 653 652 245
3 651 652 653
3 655 654 243
3 131 656 658
3 658 657 60
3 656 657 658
3 660 659 131
3 133 661 662
3 664 663 133
3 246 665 666
3 246 667 668
3 188 134 12
3 247 134 188
3 247 61 134
3 136 247 31
3 248 247 136
3 248 61 247
3 248 246 61
3 249 246 248
3 249 669 671
3 671 670 246
3 669 670 671
3 249 672 674
3 672 95 673
3 672 673 674
3 250 95 249
3 250 44 95
3 138 250 62
3 251 250 138
3 251 44 250
3 251 210 44
3 252 210 251
3 252 3 210
3 207 87 2
3 253 87 207
3 253 32 87
3 141 253 43
3 254 253 141
3 254 32 253
3 254 191 32
3 255 191 254
3 255 13 191
3 675 142 676
3 256 677 679
3 677 142 678
3 677 678 679
3 256 64 142
3 144 256 33
3 257 256 144
3 257 64 256
3 257 255 64
3 258 255 257
3 258 13 255
3 258 139 13
3 259 139 258
3 259 63 139
3 146 259 65
3 260 259 146
3 260 63 259
3 260 252 63
3 261 252 260
3 261 3 252
3 261 92 3
3 262 92 261
3 262 39 92
3 148 262 66
3 263 262 148
3 263 39 262
3 263 200 39
3 264 200 263
3 264 15 200
3 193 149 14
3 265 149 193
3 265 67 149
3 151 265 34
3 266 265 151
3 266 67 265
3 266 264 67
3 267 264 266
3 267 15 264
3 267 165 15
3 268 165 267
3 268 69 165
3 153 268 68
3 269 268 153
3 269 69 268
3 269 270 69
3 234 270 269
3 234 0 270
3 680 202 681
3 271 682 684
3 682 202 683
3 682 683 684
3 271 1 202
3 155 685 687
3 687 686 36
3 685 686 687
3 689 688 155
3 272 690 691
3 272 692 693
3 157 272 70
3 273 272 157
3 273 694 696
3 696 695 272
3 694 695 696
3 273 697 699
3 697 271 698
3 697 698 699
3 274 271 273
3 274 1 271
3 274 80 1
3 275 80 274
3 275 24 80
3 159 275 71
3 276 275 159
3 276 24 275
3 276 177 24
3 277 177 276
3 277 9 177
3 197 160 16
3 278 160 197
3 278 72 160
3 162 278 38
3 279 278 162
3 279 72 278
3 279 277 72
3 280 277 279
3 280 9 277
3 280 115 9
3 281 115 280
3 281 52 115
3 164 281 73
3 282 281 164
3 282 52 281
3 282 231 52
3 270 231 282
3 270 0 231
