ply
format ascii 1.0
element vertex 527
property float x
property float y
property float z
element face 631
property list uchar int vertex_index
end_header
31.830742 32.267654 57.599022
25.445385 7.587471 64.112534
42.060555 9.645266 60.409027
41.602715 28.147312 47.305573
23.753832 31.643494 58.30323
25.424402 42.94194 51.497658
33.521976 42.330093 50.433167
39.96909 39.689045 46.100708
38.768085 31.851524 55.085793
28.84304 19.897362 61.44178
37.016335 20.778332 61.015808
33.732109 8.571697 62.718834
42.631516 35.200233 38.404007
42.493549 23.39209 37.610298
42.665787 19.714642 55.656502
45.536674 16.442116 46.387421
27.70676 31.837177 57.60141
24.640656 37.479931 55.0756
28.694269 37.593384 54.605713
29.512821 42.715096 51.05159
32.754425 37.741081 54.353607
36.406982 37.379368 53.223007
35.681694 32.4333 57.042152
23.35014 13.514912 63.951736
24.887285 19.6078 61.949722
27.018826 13.636684 62.546623
31.167946 14.071674 62.299515
29.411558 7.938459 63.082924
40.957127 34.181957 47.082581
41.788704 37.522495 42.5112
41.669304 31.75206 42.74926
41.93494 29.293617 38.120834
41.900845 25.677834 42.492928
39.393333 14.976948 60.995399
40.31358 20.617443 59.062683
42.703201 14.813931 58.527649
28.126638 2.212547 64.94043
37.123756 41.360439 48.836754
39.231331 36.173855 50.730858
40.732979 30.352982 51.681137
45.517693 9.593935 57.612015
26.421553 25.757256 59.98983
30.532089 26.198605 59.955452
34.604614 26.655514 59.894485
33.037827 20.406841 61.547142
35.433556 14.630371 62.115471
38.061451 9.240513 62.049919
32.325089 2.873922 64.008904
36.683426 3.726633 63.261955
42.666706 27.074474 33.463482
38.135414 26.645126 58.667984
40.682606 25.82151 55.858452
42.12991 24.169994 51.770729
45.288956 14.053318 54.865814
44.225452 18.181366 51.252205
42.856529 22.017525 46.988487
43.617153 19.879238 42.003551
45.190235 18.185452 37.097775
29.772652 32.050194 57.591667
28.23245 34.775703 56.179558
30.295855 34.952873 56.150902
30.748058 37.697689 54.529388
32.3288 35.101204 56.07618
34.273289 35.147263 55.805901
33.821449 32.418476 57.460297
24.342346 10.507118 63.981026
25.107082 13.534687 63.053246
26.17923 10.576418 63.218811
28.159586 10.731396 62.79921
27.364857 7.719124 63.455902
41.269619 31.211796 47.277161
41.415874 32.994823 44.973583
41.532097 29.984612 45.014
41.663536 28.72406 42.665955
41.773361 26.914848 44.926552
40.687252 12.235186 60.729874
41.142475 14.971249 59.93045
42.462978 12.246794 59.563087
22.343231 34.66048 57.509087
25.037167 40.273857 53.328003
23.07901 40.403919 53.895996
23.438305 43.142735 51.990799
31.546913 42.573914 50.827576
33.932755 44.273724 48.295395
35.395676 41.934608 49.782715
37.658669 34.692589 54.28566
37.945461 36.887592 52.146446
38.992409 34.12635 52.971382
40.038765 33.334549 51.322838
39.90052 31.211594 53.540878
26.810537 19.710415 61.542854
25.673599 22.68066 60.999557
27.660173 22.830963 60.775276
28.452446 25.948433 59.891014
29.726255 23.05685 60.789062
31.818924 23.319065 60.876976
30.937237 20.143356 61.499069
32.400505 11.256781 62.530914
33.312431 14.355206 62.272522
34.569374 11.57016 62.40609
36.704651 11.864759 62.117981
35.918209 8.921202 62.475563
30.187294 2.503899 64.399666
38.830437 4.135094 62.720467
42.30899 36.360718 40.505173
41.98217 26.302944 37.876671
42.183006 28.146427 35.782478
42.406937 25.209381 35.495293
43.143326 24.210255 33.149483
43.17099 22.404484 35.21022
35.841434 23.734074 60.615433
36.469479 26.736687 59.473312
37.64431 23.772091 60.01326
41.609318 20.260132 57.518997
40.561104 23.292591 57.61264
41.62273 22.743225 55.859398
41.531826 25.085781 53.938805
42.43409 22.003372 53.818817
45.526382 11.861609 56.343613
46.538521 14.70322 48.47187
45.697929 15.437927 50.864914
44.869659 17.303097 48.848297
43.535149 20.129368 49.176231
43.99577 19.121784 46.709709
43.179752 20.914165 44.49868
44.525459 18.159893 44.216599
25.686113 31.688866 57.793221
24.21767 34.592484 56.73436
26.19149 34.63855 56.325211
26.643709 37.500629 54.737572
27.059843 40.237968 53.035583
27.459707 42.816418 51.228195
29.113129 40.250542 52.891663
31.155365 40.246456 52.747688
33.140316 40.155323 52.46228
35.01931 39.915573 51.926071
34.65913 37.653378 53.947205
36.069267 35.026245 55.228752
37.348965 32.255886 56.260132
23.108461 19.594158 62.762321
24.099789 16.549919 62.909103
25.944059 16.606846 62.271255
27.923649 16.749847 61.992554
29.997993 16.967148 61.95034
29.053495 13.821472 62.340187
30.247894 10.965687 62.615204
31.548195 8.231886 62.880241
40.550594 37.01421 46.69677
41.015007 38.646816 44.38953
41.282738 35.891857 44.774445
41.76054 34.697716 42.708656
42.039482 33.480167 40.541939
42.208755 32.279522 38.309364
41.804947 30.504593 40.453178
41.773277 27.48304 40.275631
42.102604 24.490269 40.044384
38.181889 17.840572 61.120491
38.774578 20.784012 60.235352
39.921906 17.831512 60.182976
41.453659 17.65897 58.876495
42.767342 17.312225 57.232986
47.430187 14.024017 46.031944
46.308647 15.665207 43.912109
24.839842 4.690107 65.300438
26.701042 4.806356 64.411964
22.719223 37.567101 55.737083
38.6618 40.605385 47.598495
36.74292 39.48526 51.0765
38.263878 38.848354 49.900452
39.542171 38.014503 48.424126
40.236893 35.258743 49.022377
40.790264 32.347305 49.401634
41.283306 29.313786 49.578438
43.45863 7.213995 60.084526
43.861469 9.680798 59.150558
23.241646 28.660175 59.79055
23.80905 22.624779 61.58931
24.487226 25.658752 60.399529
25.117636 28.68631 59.145424
27.103668 28.818836 58.867683
29.160097 29.034096 58.837959
31.235613 29.2841 58.896164
33.271137 29.505123 58.87133
32.603699 26.455185 60.01152
33.878502 23.564423 60.8685
35.084728 20.636425 61.42765
32.117325 17.229465 61.989311
34.226311 17.494793 61.949562
36.266846 17.714577 61.692757
37.477238 14.851864 61.714027
38.75795 12.09877 61.576454
40.120163 9.492043 61.373039
28.698774 5.013664 63.830154
30.801939 5.30711 63.467056
32.972836 5.665373 63.210632
34.502979 3.293695 63.6633
35.170864 6.05575 62.944351
37.354927 6.440212 62.564438
39.485764 6.781269 61.99115
41.528957 7.046841 61.172867
42.383976 31.123585 36.042267
35.202763 29.628716 58.611748
36.96545 29.592651 58.008316
38.499153 29.350628 57.007095
39.230667 23.633774 59.01152
39.550079 26.344578 57.454491
39.75787 28.878872 55.608864
40.719944 28.178947 53.857407
41.394997 27.275967 51.821358
41.826408 26.214951 49.577492
44.073242 12.120636 58.089844
44.076965 14.502029 56.822418
43.880363 16.80154 55.306915
46.384239 13.506577 52.715057
44.836189 16.159325 53.162712
43.517384 19.006199 53.543648
43.045822 21.112816 51.566811
42.541443 23.125759 49.431091
42.08939 25.054958 47.19812
42.283432 23.861576 44.74411
42.520878 22.698425 42.262932
42.913288 21.618591 39.789413
45.213898 17.303249 41.732243
44.263325 18.961166 39.531525
43.557697 20.657177 37.34655
44.524334 19.826729 34.945381
24.893866 9.047294 64.04678
24.011343 9.023332 64.555237
24.562863 7.563508 64.620991
23.048531 33.151987 57.906159
22.14078 33.185176 58.36121
22.84608 31.676684 58.758281
24.618361 44.349243 50.763149
23.625313 44.449641 51.00972
24.431354 43.042338 51.744229
25.621611 44.198917 50.544381
24.618361 44.349243 50.763149
32.736464 43.501628 49.611317
31.748933 43.623539 49.808521
32.534444 42.452004 50.630371
33.727366 43.301908 49.364281
32.941854 44.473444 48.542431
32.736464 43.501628 49.611317
40.250989 40.471119 44.948853
39.569964 40.949066 45.691456
42.830608 36.611515 38.384784
42.669346 37.191757 39.435367
42.470253 35.780475 39.45459
43.014798 36.069316 37.365654
42.830608 36.611515 38.384784
42.740332 34.634592 37.32074
43.014798 36.069316 37.365654
22.556128 13.536467 64.612804
23.010412 12.013317 64.547737
22.883306 15.042931 63.962455
22.556128 13.536467 64.612804
23.724964 15.032415 63.430419
23.258131 16.560434 63.441139
22.883306 15.042931 63.962455
48.489638 12.948391 45.832037
47.943472 13.188359 47.041744
47.932741 13.741421 44.806602
48.489638 12.948391 45.832037
24.601768 3.298217 66.055729
23.986973 4.670547 65.921161
25.508347 3.352403 65.511944
24.601768 3.298217 66.055729
22.14307 40.523838 54.358211
22.301291 41.924141 53.349548
28.687599 43.962601 50.187652
27.661042 44.013262 50.275955
28.486264 42.765757 51.139893
37.355045 42.202501 47.691086
36.474423 42.547882 48.195473
37.892778 40.982912 48.217624
38.124067 41.824974 47.071956
37.355045 42.202501 47.691086
44.35959 7.242964 59.403694
44.118618 6.069505 59.920017
22.962654 27.160947 60.503483
22.369965 28.697685 60.325351
35.593203 3.510164 63.462627
35.289229 2.205172 63.954773
36.379452 2.421641 63.7541
40.19867 5.633554 61.984241
39.158101 5.458182 62.355808
39.871006 4.310467 62.3489
41.220266 5.766341 61.5751
40.507361 6.914055 61.582009
40.19867 5.633554 61.984241
42.214645 5.900367 61.083774
41.220266 5.766341 61.5751
41.712007 38.867082 42.319334
41.325159 39.429243 43.258499
41.401855 38.084655 43.450365
42.679372 28.549976 33.616949
42.437523 29.085952 34.776447
42.424856 27.61045 34.62298
42.958626 28.029221 32.491805
42.971293 29.504722 32.645272
42.679372 28.549976 33.616949
43.072502 26.574234 32.322443
42.958626 28.029221 32.491805
43.696787 23.753471 31.997779
43.672079 22.869276 33.001095
46.902161 13.21227 51.570839
47.233875 12.284647 52.465523
46.233702 16.162916 41.591574
45.761273 16.484228 42.822176
46.781076 15.343895 42.681507
44.72678 18.573309 38.31465
45.197789 17.775804 39.40466
45.661243 17.387948 38.187784
23.506515 10.509421 64.562382
24.011343 9.023332 64.555237
23.846243 12.011015 63.966381
23.010412 12.013317 64.547737
23.506515 10.509421 64.562382
21.46307 34.74651 58.098931
22.14078 33.185176 58.36121
21.620928 36.212913 57.146489
21.46307 34.74651 58.098931
22.480938 43.293549 52.39695
22.301291 41.924141 53.349548
23.258657 41.773327 52.943398
22.650669 44.643088 51.365795
22.480938 43.293549 52.39695
22.837677 45.949993 50.384716
22.650669 44.643088 51.365795
23.625313 44.449641 51.00972
30.731693 43.771113 49.96304
29.714647 43.841704 50.075046
30.529867 42.644505 50.939583
30.731693 43.771113 49.96304
31.748933 43.623539 49.808521
33.16218 45.416213 47.473785
32.941854 44.473444 48.542431
34.166052 45.145689 47.185772
33.16218 45.416213 47.473785
34.878922 44.004525 47.924793
34.166052 45.145689 47.185772
35.610383 42.834967 48.668453
34.878922 44.004525 47.924793
34.664215 43.104166 49.039055
36.259716 41.647523 49.309735
36.474423 42.547882 48.195473
35.610383 42.834967 48.668453
29.945075 1.171246 65.063663
29.156966 2.358223 64.670048
28.914747 1.02557 65.334046
30.992164 1.358108 64.792797
29.945075 1.171246 65.063663
32.061061 1.543119 64.597416
31.256191 2.68891 64.204285
30.992164 1.358108 64.792797
37.437416 2.650225 63.466488
36.379452 2.421641 63.7541
38.510922 2.854455 63.195744
37.756932 3.930864 62.991211
37.437416 2.650225 63.466488
39.540957 3.060916 62.826042
38.510922 2.854455 63.195744
39.871006 4.310467 62.3489
39.540957 3.060916 62.826042
42.38541 37.741855 40.40638
42.125267 38.322744 41.409394
42.048847 36.941606 41.508187
42.38541 37.741855 40.40638
42.669346 37.191757 39.435367
43.685911 21.96639 34.031464
43.672079 22.869276 33.001095
43.157158 23.30737 34.179851
46.283382 10.629454 56.083076
45.522037 10.727772 56.977814
46.279038 9.495617 56.717277
46.187973 11.678031 55.356384
46.283382 10.629454 56.083076
46.06926 12.773885 54.617485
45.407669 12.957463 55.604714
46.187973 11.678031 55.356384
46.118225 15.070574 49.668392
46.559005 14.177945 50.645767
46.979302 13.810592 49.449245
46.257862 17.108441 36.978901
45.661243 17.387948 38.187784
45.814249 17.867884 35.900869
46.257862 17.108441 36.978901
22.762467 18.082554 63.367748
22.299443 19.623148 63.388725
23.604125 18.072038 62.835712
22.762467 18.082554 63.367748
23.258131 16.560434 63.441139
47.497639 13.52796 48.261707
46.979302 13.810592 49.449245
46.984354 14.363619 47.251907
47.497639 13.52796 48.261707
47.943472 13.188359 47.041744
47.371971 14.562016 43.746685
46.869417 14.844612 44.972026
47.932741 13.741421 44.806602
46.781076 15.343895 42.681507
47.371971 14.562016 43.746685
24.260091 6.114826 65.214943
23.986973 4.670547 65.921161
25.142614 6.138789 64.706486
24.562863 7.563508 64.620991
24.260091 6.114826 65.214943
26.438947 3.410527 65.067707
25.770442 4.748232 64.856201
25.508347 3.352403 65.511944
27.151744 2.113622 65.33194
27.41384 3.509451 64.676197
26.438947 3.410527 65.067707
27.90609 0.883069 65.689571
27.151744 2.113622 65.33194
26.931197 0.784145 66.081082
28.914747 1.02557 65.334046
27.90609 0.883069 65.689571
21.808923 37.666224 56.260486
21.620928 36.212913 57.146489
22.531227 36.113791 56.623085
21.963176 39.105429 55.278755
22.899116 38.98551 54.816539
22.14307 40.523838 54.358211
21.808923 37.666224 56.260486
21.963176 39.105429 55.278755
26.639263 44.136156 50.409649
25.621611 44.198917 50.544381
26.442055 42.879179 51.362927
26.639263 44.136156 50.409649
27.661042 44.013262 50.275955
28.687599 43.962601 50.187652
29.714647 43.841704 50.075046
38.916319 41.407236 46.440349
38.124067 41.824974 47.071956
39.315445 40.147215 46.849601
39.569964 40.949066 45.691456
38.916319 41.407236 46.440349
44.56101 8.476365 58.93671
43.660049 8.447396 59.617542
44.35959 7.242964 59.403694
45.389122 8.432934 58.167439
44.689581 9.637366 58.381287
44.56101 8.476365 58.93671
46.225728 8.409155 57.356651
45.389122 8.432934 58.167439
46.279038 9.495617 56.717277
46.225728 8.409155 57.356651
22.589987 30.185024 59.501942
22.369965 28.697685 60.325351
23.497739 30.151834 59.04689
22.84608 31.676684 58.758281
22.589987 30.185024 59.501942
22.600745 21.126179 62.687161
22.299443 19.623148 63.388725
22.95104 22.641489 62.100655
22.600745 21.126179 62.687161
23.458755 21.109468 62.175815
23.246356 24.143249 61.402862
22.95104 22.641489 62.100655
23.585444 25.660236 60.807972
23.246356 24.143249 61.402862
24.148138 24.141765 60.994419
23.864436 27.159464 60.095039
22.962654 27.160947 60.503483
23.585444 25.660236 60.807972
33.12904 1.761994 64.366089
32.061061 1.543119 64.597416
34.217985 1.971881 64.193287
35.289229 2.205172 63.954773
33.414034 3.083808 63.836102
33.12904 1.761994 64.366089
34.217985 1.971881 64.193287
43.179482 5.983944 60.539604
42.493793 7.130418 60.628696
42.214645 5.900367 61.083774
44.118618 6.069505 59.920017
43.179482 5.983944 60.539604
40.773947 39.950005 44.093263
40.250989 40.471119 44.948853
40.492048 39.16793 45.245119
40.773947 39.950005 44.093263
41.325159 39.429243 43.258499
41.712007 38.867082 42.319334
42.125267 38.322744 41.409394
42.528951 33.174236 37.273419
42.740332 34.634592 37.32074
42.420136 33.739877 38.356685
42.616562 32.596268 36.13987
42.528951 33.174236 37.273419
42.296365 31.701553 37.175815
42.733415 32.052359 35.039299
42.616562 32.596268 36.13987
42.538007 30.574531 34.906341
42.283491 29.635006 35.912373
42.437523 29.085952 34.776447
42.733415 32.052359 35.039299
42.538007 30.574531 34.906341
43.310812 25.142125 32.165443
43.072502 26.574234 32.322443
42.905016 25.642364 33.306483
43.310812 25.142125 32.165443
43.696787 23.753471 31.997779
46.616901 12.500515 53.542107
47.233875 12.284647 52.465523
45.836597 13.779948 53.790436
46.06926 12.773885 54.617485
46.616901 12.500515 53.542107
46.041084 14.472252 51.789986
46.902161 13.21227 51.570839
46.559005 14.177945 50.645767
45.673075 16.946846 40.505018
46.233702 16.162916 41.591574
44.738612 18.132207 40.631884
45.673075 16.946846 40.505018
45.197789 17.775804 39.40466
44.362583 20.677513 33.899044
43.685911 21.96639 34.031464
43.847662 21.115606 35.0778
45.481299 18.688522 34.824672
44.857285 19.00609 36.021578
45.814249 17.867884 35.900869
45.185274 19.471297 33.764721
45.481299 18.688522 34.824672
46.142239 18.33309 33.644013
44.362583 20.677513 33.899044
45.185274 19.471297 33.764721
3 0 60 58
3 0 62 60
3 0 64 62
3 1 226 228
3 226 65 227
3 226 227 228
3 1 67 65
3 1 69 67
3 3 72 70
3 3 74 72
3 2 77 75
3 4 229 231
3 229 78 230
3 229 230 231
3 5 81 79
3 5 232 234
3 234 233 81
3 232 233 234
3 5 235 236
3 6 237 239
3 239 238 82
3 237 238 239
3 6 240 242
3 240 83 241
3 240 241 242
3 6 84 83
3 8 87 85
3 8 89 87
3 9 92 90
3 9 94 92
3 9 96 94
3 11 99 97
3 11 101 99
3 7 243 244
3 12 245 247
3 247 246 104
3 245 246 247
3 12 248 249
3 12 250 251
3 13 107 105
3 13 109 107
3 10 112 110
3 14 115 113
3 14 117 115
3 15 121 119
3 15 123 121
3 15 125 123
3 16 128 126
3 18 129 59
3 18 130 129
3 18 132 130
3 20 133 61
3 20 134 133
3 20 136 134
3 22 137 63
3 22 138 137
3 23 252 253
3 23 254 255
3 23 256 258
3 256 140 257
3 256 257 258
3 25 141 66
3 25 142 141
3 25 144 142
3 27 145 68
3 27 146 145
3 28 149 147
3 30 150 71
3 30 151 150
3 30 153 151
3 32 154 73
3 32 155 154
3 33 158 156
3 35 159 76
3 35 160 159
3 259 161 260
3 262 261 161
3 263 163 264
3 266 265 163
3 17 165 127
3 268 267 80
3 19 269 271
3 271 270 131
3 269 270 271
3 37 272 273
3 37 274 276
3 274 166 275
3 274 275 276
3 21 167 135
3 38 168 86
3 38 169 168
3 38 170 169
3 39 171 88
3 39 172 171
3 278 277 173
3 279 175 280
3 24 176 139
3 41 177 91
3 41 178 177
3 41 179 178
3 42 180 93
3 42 181 180
3 42 183 181
3 44 184 95
3 44 185 184
3 26 186 143
3 45 187 98
3 45 188 187
3 45 189 188
3 46 190 100
3 46 191 190
3 36 192 164
3 47 193 102
3 47 194 193
3 48 281 283
3 281 195 282
3 281 282 283
3 48 196 195
3 48 197 196
3 284 198 285
3 286 285 103
3 284 285 286
3 287 199 288
3 289 288 198
3 287 288 289
3 291 290 199
3 29 292 294
3 294 293 148
3 292 293 294
3 31 200 152
3 49 295 297
3 297 296 106
3 295 296 297
3 49 298 300
3 298 299 300
3 49 301 302
3 304 303 108
3 43 201 182
3 50 202 111
3 50 203 202
3 34 204 157
3 51 205 114
3 51 206 205
3 51 207 206
3 52 208 116
3 52 209 208
3 40 210 174
3 53 211 118
3 53 212 211
3 305 213 306
3 54 214 120
3 54 215 214
3 54 216 215
3 55 217 122
3 55 218 217
3 55 219 218
3 56 220 124
3 56 221 220
3 307 222 308
3 309 308 162
3 307 308 309
3 57 310 312
3 310 223 311
3 310 311 312
3 57 224 223
3 57 225 224
3 58 59 16
3 60 59 58
3 60 18 59
3 60 61 18
3 62 61 60
3 62 20 61
3 62 63 20
3 64 63 62
3 64 22 63
3 65 313 314
3 65 315 317
3 315 23 316
3 315 316 317
3 65 66 23
3 67 66 65
3 67 25 66
3 67 68 25
3 69 68 67
3 69 27 68
3 70 71 28
3 72 71 70
3 72 30 71
3 72 73 30
3 74 73 72
3 74 32 73
3 75 76 33
3 77 76 75
3 77 35 76
3 78 318 319
3 78 320 321
3 79 80 17
3 81 80 79
3 81 322 324
3 324 323 80
3 322 323 324
3 81 325 326
3 329 328 81
3 327 328 329
3 82 330 332
3 332 331 19
3 330 331 332
3 334 333 82
3 83 335 336
3 83 337 338
3 83 339 340
3 84 341 343
3 343 342 83
3 341 342 343
3 84 344 346
3 344 37 345
3 344 345 346
3 85 86 21
3 87 86 85
3 87 38 86
3 87 88 38
3 89 88 87
3 89 39 88
3 90 91 24
3 92 91 90
3 92 41 91
3 92 93 41
3 94 93 92
3 94 42 93
3 94 95 42
3 96 95 94
3 96 44 95
3 97 98 26
3 99 98 97
3 99 45 98
3 99 100 45
3 101 100 99
3 101 46 100
3 347 102 348
3 349 348 36
3 347 348 349
3 350 102 351
3 352 47 353
3 354 353 102
3 352 353 354
3 355 48 356
3 357 103 358
3 359 358 48
3 357 358 359
3 360 103 361
3 363 362 103
3 104 364 366
3 366 365 29
3 364 365 366
3 368 367 104
3 105 106 31
3 107 106 105
3 107 49 106
3 107 108 49
3 109 108 107
3 109 369 371
3 371 370 108
3 369 370 371
3 110 111 43
3 112 111 110
3 112 50 111
3 113 114 34
3 115 114 113
3 115 51 114
3 115 116 51
3 117 116 115
3 117 52 116
3 372 118 373
3 374 373 40
3 372 373 374
3 375 118 376
3 377 53 378
3 379 378 118
3 377 378 379
3 119 380 382
3 380 120 381
3 380 381 382
3 121 120 119
3 121 54 120
3 121 122 54
3 123 122 121
3 123 55 122
3 123 124 55
3 125 124 123
3 125 56 124
3 383 57 384
3 386 385 57
3 126 127 4
3 128 127 126
3 128 17 127
3 59 128 16
3 129 128 59
3 129 17 128
3 129 79 17
3 130 79 129
3 130 5 79
3 130 131 5
3 132 131 130
3 132 19 131
3 61 132 18
3 133 132 61
3 133 19 132
3 133 82 19
3 134 82 133
3 134 6 82
3 134 135 6
3 136 135 134
3 136 21 135
3 63 136 20
3 137 136 63
3 137 21 136
3 137 85 21
3 138 85 137
3 138 8 85
3 387 139 388
3 140 389 391
3 389 139 390
3 389 390 391
3 140 24 139
3 66 140 23
3 141 140 66
3 141 24 140
3 141 90 24
3 142 90 141
3 142 9 90
3 142 143 9
3 144 143 142
3 144 26 143
3 68 144 25
3 145 144 68
3 145 26 144
3 145 97 26
3 146 97 145
3 146 11 97
3 147 148 7
3 149 148 147
3 149 29 148
3 71 149 28
3 150 149 71
3 150 29 149
3 150 104 29
3 151 104 150
3 151 12 104
3 151 152 12
3 153 152 151
3 153 31 152
3 73 153 30
3 154 153 73
3 154 31 153
3 154 105 31
3 155 105 154
3 155 13 105
3 156 157 10
3 158 157 156
3 158 34 157
3 76 158 33
3 159 158 76
3 159 34 158
3 159 113 34
3 160 113 159
3 160 14 113
3 392 119 393
3 161 394 396
3 394 119 395
3 394 395 396
3 161 15 119
3 161 162 15
3 397 162 398
3 399 398 161
3 397 398 399
3 401 400 162
3 163 402 403
3 163 404 406
3 404 1 405
3 404 405 406
3 163 164 1
3 407 164 408
3 409 408 163
3 407 408 409
3 410 36 411
3 412 411 164
3 410 411 412
3 413 36 414
3 413 414 415
3 417 416 36
3 127 78 4
3 165 78 127
3 165 418 420
3 420 419 78
3 418 419 420
3 80 165 17
3 421 165 422
3 423 422 80
3 421 422 423
3 425 424 165
3 131 426 428
3 428 427 5
3 426 427 428
3 430 429 131
3 432 431 19
3 166 433 434
3 166 435 437
3 435 7 436
3 435 436 437
3 135 84 6
3 167 84 135
3 167 37 84
3 86 167 21
3 168 167 86
3 168 37 167
3 168 166 37
3 169 166 168
3 169 7 166
3 169 147 7
3 170 147 169
3 170 28 147
3 88 170 38
3 171 170 88
3 171 28 170
3 171 70 28
3 172 70 171
3 172 3 70
3 173 174 2
3 438 174 439
3 440 439 173
3 438 439 440
3 441 40 442
3 443 442 174
3 441 442 443
3 444 40 445
3 447 446 40
3 175 448 449
3 175 450 452
3 450 4 451
3 450 451 452
3 139 453 454
3 176 455 457
3 457 456 139
3 455 456 457
3 176 458 459
3 91 176 24
3 177 176 91
3 177 460 462
3 462 461 176
3 460 461 462
3 177 463 465
3 463 175 464
3 463 464 465
3 178 175 177
3 178 4 175
3 178 126 4
3 179 126 178
3 179 16 126
3 93 179 41
3 180 179 93
3 180 16 179
3 180 58 16
3 181 58 180
3 181 0 58
3 181 182 0
3 183 182 181
3 183 43 182
3 95 183 42
3 184 183 95
3 184 43 183
3 184 110 43
3 185 110 184
3 185 10 110
3 143 96 9
3 186 96 143
3 186 44 96
3 98 186 26
3 187 186 98
3 187 44 186
3 187 185 44
3 188 185 187
3 188 10 185
3 188 156 10
3 189 156 188
3 189 33 156
3 100 189 45
3 190 189 100
3 190 33 189
3 190 75 33
3 191 75 190
3 191 2 75
3 164 69 1
3 192 69 164
3 192 27 69
3 102 192 36
3 193 192 102
3 193 27 192
3 193 146 27
3 194 146 193
3 194 11 146
3 466 47 467
3 195 468 469
3 195 470 472
3 470 47 471
3 470 471 472
3 195 194 47
3 196 194 195
3 196 11 194
3 196 101 11
3 197 101 196
3 197 46 101
3 103 197 48
3 198 197 103
3 198 46 197
3 198 191 46
3 199 191 198
3 199 2 191
3 199 173 2
3 473 173 474
3 475 474 199
3 473 474 475
3 477 476 173
3 148 478 480
3 480 479 7
3 478 479 480
3 482 481 148
3 484 483 29
3 152 485 487
3 487 486 12
3 485 486 487
3 200 488 490
3 490 489 152
3 488 489 490
3 200 491 492
3 106 200 31
3 493 200 494
3 495 494 106
3 493 494 495
3 497 496 200
3 108 498 500
3 500 499 49
3 498 499 500
3 502 501 108
3 182 64 0
3 201 64 182
3 201 22 64
3 111 201 43
3 202 201 111
3 202 22 201
3 202 138 22
3 203 138 202
3 203 8 138
3 157 112 10
3 204 112 157
3 204 50 112
3 114 204 34
3 205 204 114
3 205 50 204
3 205 203 50
3 206 203 205
3 206 8 203
3 206 89 8
3 207 89 206
3 207 39 89
3 116 207 51
3 208 207 116
3 208 39 207
3 208 172 39
3 209 172 208
3 209 3 172
3 174 77 2
3 210 77 174
3 210 35 77
3 118 210 40
3 211 210 118
3 211 35 210
3 211 160 35
3 212 160 211
3 212 14 160
3 213 503 504
3 213 505 507
3 505 53 506
3 505 506 507
3 120 508 510
3 508 213 509
3 508 509 510
3 214 213 120
3 214 53 213
3 214 212 53
3 215 212 214
3 215 14 212
3 215 117 14
3 216 117 215
3 216 52 117
3 122 216 54
3 217 216 122
3 217 52 216
3 217 209 52
3 218 209 217
3 218 3 209
3 218 74 3
3 219 74 218
3 219 32 74
3 124 219 55
3 220 219 124
3 220 32 219
3 220 155 32
3 221 155 220
3 221 13 155
3 162 125 15
3 222 125 162
3 222 56 125
3 511 222 512
3 223 513 515
3 513 222 514
3 513 514 515
3 223 56 222
3 223 221 56
3 224 221 223
3 224 13 221
3 224 109 13
3 225 109 224
3 225 516 518
3 518 517 109
3 516 517 518
3 519 225 520
3 521 520 57
3 519 520 521
3 522 225 523
3 522 523 524
3 526 525 225
