ply
format ascii 1.0
element vertex 342
property float x
property float y
property float z
element face 335
property list uchar int vertex_index
end_header
26.237247 -50.730114 -22.496977
28.770947 -24.248219 -37.430534
19.591356 -52.853291 -17.691515
25.883593 -41.957405 -22.698122
28.692789 -36.446182 -30.166445
32.164204 -29.076363 -37.951195
29.584103 -48.53463 -25.458944
28.473654 -33.857342 -29.679007
28.815264 -30.154228 -33.97776
30.289608 -32.941429 -34.095543
29.625711 -26.123791 -38.184998
28.935772 -19.791952 -41.822891
22.677483 -52.117405 -20.03034
17.727951 -49.212692 -10.762667
19.385601 -48.887589 -13.945679
21.016479 -48.221149 -17.107676
22.994665 -47.138847 -20.127211
25.3927 -45.528236 -23.086138
27.244276 -39.476257 -26.36537
27.981943 -43.291882 -26.234266
30.444031 -40.402184 -29.750109
32.673565 -36.942535 -33.519333
31.200338 -21.889322 -42.102455
28.6443 -52.802486 -23.450129
27.975592 -49.737286 -23.900537
29.181973 -23.62611 -36.633324
29.003443 -26.39435 -35.135262
28.821264 -29.197807 -33.528481
28.79203 -27.164589 -35.759483
29.139482 -28.172203 -36.104424
28.919138 -25.06266 -37.947662
21.035839 -52.552109 -18.869101
16.738367 -49.257549 -9.218304
20.175472 -48.600384 -15.5403
21.990557 -46.515987 -16.371321
23.634579 -45.301624 -19.737257
24.510277 -44.491058 -21.389898
24.149979 -46.406712 -21.600355
25.438358 -43.537601 -23.038561
28.334984 -34.988808 -30.059378
27.919247 -36.625122 -28.032587
27.954481 -38.025928 -28.245279
27.42075 -41.188805 -26.420259
28.440105 -39.792877 -28.196386
29.243509 -41.926376 -27.945158
29.455891 -38.25486 -30.03998
31.180862 -31.045069 -36.051727
31.471462 -34.799248 -33.859955
32.504993 -32.917732 -35.760536
33.596287 -30.963659 -37.588051
29.84528 -20.716478 -42.101913
30.695805 -18.505573 -44.0298
31.022661 -47.128696 -27.170237
28.938755 -31.144342 -31.277784
28.609863 -32.05468 -31.829504
28.79896 -33.240063 -32.104736
29.466785 -34.747074 -32.123055
29.340639 -31.392605 -34.155014
29.989162 -29.460699 -36.186958
30.771536 -27.459679 -38.169983
31.802067 -16.298082 -45.844551
28.783377 -21.387165 -38.975838
28.726473 -22.041662 -39.667122
24.441334 -51.518257 -21.222101
16.341927 -51.192516 -10.226526
17.039124 -51.1287 -11.723143
18.590736 -49.090294 -12.345188
17.697672 -51.012829 -13.225504
18.398287 -50.844749 -14.711592
19.211853 -50.617737 -16.160036
20.187937 -50.317505 -17.556826
22.802486 -45.974571 -18.065256
21.94945 -47.738651 -18.635798
21.347637 -49.923382 -18.901976
22.681633 -49.411217 -20.213148
24.152699 -48.756805 -21.52434
25.702587 -47.939072 -22.87945
28.35375 -35.544121 -27.539541
27.521931 -38.135208 -26.028929
26.556633 -40.78904 -24.520727
26.413668 -42.437431 -24.707029
26.684875 -44.492222 -24.620382
27.262743 -46.942566 -24.321947
28.767801 -45.759407 -25.883509
30.169579 -44.390862 -27.574526
31.448298 -42.848328 -29.378962
30.463072 -36.585072 -31.938101
31.580379 -38.733723 -31.623487
32.617565 -41.152885 -31.254599
29.257927 -22.908051 -40.069084
30.306589 -24.024065 -40.192635
31.709187 -25.406271 -40.070786
32.308907 -19.739271 -43.89666
32.814358 -23.319397 -41.859932
33.26244 -27.055603 -39.752647
26.533031 -52.279688 -22.266138
25.557423 -52.677992 -21.641044
27.10642 -50.2337 -23.198757
27.402203 -51.783274 -22.967918
26.533031 -52.279688 -22.266138
19.411582 -54.33456 -17.618277
18.676414 -54.387497 -17.076586
20.313598 -52.7027 -18.280308
20.133823 -54.18397 -18.20707
19.411582 -54.33456 -17.618277
22.467144 -45.80636 -15.903892
21.57649 -46.724058 -15.518711
25.196935 -43.224232 -22.04401
24.860694 -43.733306 -21.13651
25.547352 -42.46648 -21.790623
30.470954 -16.871097 -44.931732
30.067237 -18.011122 -43.955616
29.922362 -50.040184 -25.252092
29.45246 -52.174112 -24.247684
29.114202 -50.668558 -24.454536
30.303382 -47.831663 -26.314591
30.641641 -49.337217 -26.107738
29.922362 -50.040184 -25.252092
29.139322 -29.802518 -32.042163
29.312943 -30.784495 -30.874198
28.816381 -19.97875 -39.678421
29.0784 -21.134821 -38.491867
28.690297 -20.239342 -40.112019
28.816381 -19.97875 -39.678421
22.782318 -53.661127 -19.843866
21.823364 -53.853838 -19.313142
23.559408 -51.817831 -20.62622
23.664244 -53.361553 -20.439747
22.782318 -53.661127 -19.843866
18.988169 -48.988941 -13.145433
19.431801 -48.159607 -12.657519
19.829234 -48.058255 -13.457765
23.659945 -44.906887 -18.565724
23.287847 -45.260364 -17.656204
28.413702 -34.700732 -28.609274
28.712093 -34.26367 -28.283668
28.772044 -33.420281 -29.353401
33.197266 -38.137805 -33.329129
33.169265 -40.242981 -32.196762
32.645565 -39.04771 -32.386966
32.964222 -18.669886 -44.732628
32.055487 -18.018676 -44.870605
32.710802 -16.949292 -45.706574
33.653351 -24.162405 -41.641475
33.451296 -22.270891 -42.68945
33.877392 -26.030508 -40.587833
33.038399 -25.1875 -40.80629
33.653351 -24.162405 -41.641475
34.020485 -28.008543 -39.523468
33.877392 -26.030508 -40.587833
27.736557 -53.315874 -22.742714
27.98426 -54.976849 -22.518511
28.309946 -51.269886 -23.675333
27.736557 -53.315874 -22.742714
27.402203 -51.783274 -22.967918
29.438879 -24.706971 -35.440124
29.60032 -23.370962 -36.108006
29.349614 -26.091091 -34.691093
29.438879 -24.706971 -35.440124
29.092708 -25.01023 -35.884293
29.171665 -27.427521 -33.970901
29.349614 -26.091091 -34.691093
28.912354 -27.796079 -34.331871
29.080576 -28.82925 -33.167511
29.171665 -27.427521 -33.970901
21.002542 -54.07119 -18.732523
20.133823 -54.18397 -18.20707
21.856661 -52.334757 -19.44972
21.823364 -53.853838 -19.313142
21.002542 -54.07119 -18.732523
16.763922 -48.362063 -8.683563
16.158603 -49.243384 -8.471806
17.430516 -48.372926 -9.456699
16.763922 -48.362063 -8.683563
17.925308 -48.350498 -10.228881
17.233159 -49.23512 -9.990486
17.430516 -48.372926 -9.456699
20.274013 -47.909859 -14.30589
19.829234 -48.058255 -13.457765
20.668948 -47.766256 -15.1032
19.780537 -48.743986 -14.74299
20.274013 -47.909859 -14.30589
21.083014 -47.558186 -15.95581
20.668948 -47.766256 -15.1032
21.57649 -46.724058 -15.518711
24.422845 -44.138589 -20.31019
24.075992 -44.570414 -19.401724
24.072428 -44.896341 -20.563578
24.422845 -44.138589 -20.31019
24.860694 -43.733306 -21.13651
33.134367 -33.986335 -35.569431
33.218653 -35.998737 -34.44883
32.589279 -34.930133 -34.639935
33.680014 -33.009299 -36.483188
33.134367 -33.986335 -35.569431
33.05064 -31.940696 -36.674294
34.24814 -32.031339 -37.363331
33.680014 -33.009299 -36.483188
29.641974 -19.116574 -42.991672
29.390526 -20.254215 -41.962402
29.187221 -18.654311 -42.852161
30.270542 -19.611025 -43.065857
29.641974 -19.116574 -42.991672
30.067237 -18.011122 -43.955616
28.88827 -54.429865 -23.250273
27.98426 -54.976849 -22.518511
28.88827 -54.429865 -23.250273
29.45246 -52.174112 -24.247684
31.341344 -48.600557 -26.986424
30.641641 -49.337217 -26.107738
31.657332 -46.333307 -28.08585
31.341344 -48.600557 -26.986424
18.991318 -52.953957 -17.078678
18.676414 -54.387497 -17.076586
26.269364 -41.338482 -22.389372
25.547352 -42.46648 -21.790623
29.004595 -32.063781 -30.15279
29.312943 -30.784495 -30.874198
28.706204 -32.500842 -30.478395
28.772044 -33.420281 -29.353401
29.004595 -32.063781 -30.15279
28.880009 -30.171075 -32.403132
29.139322 -29.802518 -32.042163
29.080576 -28.82925 -33.167511
31.572356 -14.638727 -46.761009
31.024085 -15.767351 -45.839107
32.470799 -15.211897 -46.695614
31.572356 -14.638727 -46.761009
32.710802 -16.949292 -45.706574
32.470799 -15.211897 -46.695614
29.277698 -22.254294 -37.32061
29.60032 -23.370962 -36.108006
28.982675 -22.506638 -37.804581
29.277698 -22.254294 -37.32061
29.0784 -21.134821 -38.491867
28.661845 -20.56659 -40.457661
28.754925 -21.714413 -39.32148
28.690297 -20.239342 -40.112019
28.766494 -19.441735 -41.535545
28.831122 -20.916807 -40.745007
28.661845 -20.56659 -40.457661
28.816532 -18.275221 -42.626991
28.766494 -19.441735 -41.535545
29.187221 -18.654311 -42.852161
28.816532 -18.275221 -42.626991
24.659467 -53.072063 -21.003607
23.664244 -53.361553 -20.439747
25.339291 -51.124185 -21.859539
25.557423 -52.677992 -21.641044
24.659467 -53.072063 -21.003607
16.134183 -50.229191 -8.986055
16.158603 -49.243384 -8.471806
15.935963 -51.196674 -9.490167
16.134183 -50.229191 -8.986055
16.540147 -50.225032 -9.722415
15.769372 -52.28278 -9.930421
15.935963 -51.196674 -9.490167
16.021788 -52.282388 -10.635932
15.769372 -52.28278 -9.930421
16.370387 -52.250481 -11.384241
16.021788 -52.282388 -10.635932
16.690525 -51.160608 -10.974835
16.609119 -52.233423 -12.087471
16.370387 -52.250481 -11.384241
18.500943 -48.312412 -11.034394
17.925308 -48.350498 -10.228881
18.932336 -48.251213 -11.825654
19.431801 -48.159607 -12.657519
18.159343 -49.151493 -11.553928
18.500943 -48.312412 -11.034394
18.932336 -48.251213 -11.825654
16.938394 -52.175488 -12.838652
16.609119 -52.233423 -12.087471
17.368398 -51.070765 -12.474324
17.214242 -52.145188 -13.530826
16.938394 -52.175488 -12.838652
17.564549 -52.061148 -14.273869
17.214242 -52.145188 -13.530826
18.04798 -50.928789 -13.968548
17.922622 -52.016267 -14.945439
17.564549 -52.061148 -14.273869
18.329405 -51.902761 -15.669662
17.922622 -52.016267 -14.945439
18.80507 -50.731243 -15.435814
18.801567 -51.83618 -16.312939
18.329405 -51.902761 -15.669662
19.289609 -51.686064 -17.011333
18.801567 -51.83618 -16.312939
19.699895 -50.467621 -16.858431
19.889647 -51.585398 -17.62417
18.991318 -52.953957 -17.078678
19.289609 -51.686064 -17.011333
22.881883 -45.531073 -16.809236
22.467144 -45.80636 -15.903892
22.396521 -46.245279 -17.218288
22.881883 -45.531073 -16.809236
23.287847 -45.260364 -17.656204
23.218532 -45.638098 -18.901257
23.659945 -44.906887 -18.565724
24.075992 -44.570414 -19.401724
26.497664 -40.731093 -23.372261
26.269364 -41.338482 -22.389372
28.747787 -35.117249 -27.167654
28.712093 -34.26367 -28.283668
28.275148 -36.319527 -26.479414
28.747787 -35.117249 -27.167654
27.859238 -37.615071 -25.724108
28.275148 -36.319527 -26.479414
27.937841 -36.839664 -26.784235
27.316834 -38.819994 -25.037664
27.859238 -37.615071 -25.724108
26.834184 -40.14691 -24.283563
27.316834 -38.819994 -25.037664
27.039282 -39.462124 -25.274828
26.220113 -41.373222 -23.609425
26.497664 -40.731093 -23.372261
26.834184 -40.14691 -24.283563
31.870151 -44.193123 -29.190213
31.657332 -46.333307 -28.08585
31.23548 -44.988512 -28.2746
32.454785 -43.345401 -30.128031
31.870151 -44.193123 -29.190213
32.032932 -42.000607 -30.316781
33.025438 -42.471901 -31.073532
32.454785 -43.345401 -30.128031
33.025438 -42.471901 -31.073532
33.169265 -40.242981 -32.196762
33.197266 -38.137805 -33.329129
33.218653 -35.998737 -34.44883
31.248936 -17.401827 -44.937176
30.470954 -16.871097 -44.931732
31.024085 -15.767351 -45.839107
33.198571 -20.480828 -43.707814
32.964222 -18.669886 -44.732628
32.561633 -21.529334 -42.878296
33.198571 -20.480828 -43.707814
33.451296 -22.270891 -42.68945
34.187409 -29.962571 -38.44117
33.429363 -29.009631 -38.670349
34.020485 -28.008543 -39.523468
34.24814 -32.031339 -37.363331
34.187409 -29.962571 -38.44117
3 0 95 96
3 0 97 99
3 97 24 98
3 97 98 99
3 1 26 25
3 1 28 26
3 1 30 28
3 2 100 101
3 2 102 104
3 102 31 103
3 102 103 104
3 105 34 106
3 3 107 109
3 107 36 108
3 107 108 109
3 3 38 36
3 4 41 39
3 4 43 41
3 4 45 43
3 5 48 46
3 5 49 48
3 110 51 111
3 6 112 114
3 114 113 23
3 112 113 114
3 6 115 117
3 115 52 116
3 115 116 117
3 118 53 119
3 8 54 27
3 8 55 54
3 8 57 55
3 10 58 29
3 10 59 58
3 120 61 121
3 123 122 61
3 12 124 125
3 12 126 128
3 126 63 127
3 126 127 128
3 13 64 32
3 13 65 64
3 14 129 131
3 129 66 130
3 129 130 131
3 14 67 66
3 14 68 67
3 15 69 33
3 15 70 69
3 132 71 133
3 16 72 35
3 16 73 72
3 16 74 73
3 17 75 37
3 17 76 75
3 7 134 136
3 134 77 135
3 134 135 136
3 18 78 40
3 18 79 78
3 18 80 79
3 19 81 42
3 19 82 81
3 19 83 82
3 20 84 44
3 20 85 84
3 9 86 56
3 21 87 47
3 21 88 87
3 21 137 139
3 139 138 88
3 137 138 139
3 11 89 62
3 22 90 50
3 22 91 90
3 140 92 141
3 142 141 60
3 140 141 142
3 143 93 144
3 145 94 146
3 147 146 93
3 145 146 147
3 149 148 94
3 150 23 151
3 24 152 154
3 152 23 153
3 152 153 154
3 24 6 23
3 25 155 156
3 26 157 159
3 159 158 25
3 157 158 159
3 26 160 161
3 26 162 164
3 162 27 163
3 162 163 164
3 28 27 26
3 28 8 27
3 28 29 8
3 30 29 28
3 30 10 29
3 31 165 166
3 31 167 169
3 167 12 168
3 167 168 169
3 170 32 171
3 172 32 173
3 174 13 175
3 176 175 32
3 174 175 176
3 177 14 178
3 179 33 180
3 181 180 14
3 179 180 181
3 34 182 184
3 182 33 183
3 182 183 184
3 34 15 33
3 185 35 186
3 36 187 189
3 187 35 188
3 187 188 189
3 36 16 35
3 36 37 16
3 38 37 36
3 38 17 37
3 39 40 7
3 41 40 39
3 41 18 40
3 41 42 18
3 43 42 41
3 43 19 42
3 43 44 19
3 45 44 43
3 45 20 44
3 46 47 9
3 48 47 46
3 48 21 47
3 48 190 192
3 192 191 21
3 190 191 192
3 49 193 195
3 195 194 48
3 193 194 195
3 49 196 197
3 198 50 199
3 200 199 11
3 198 199 200
3 51 201 203
3 201 50 202
3 201 202 203
3 51 22 50
3 23 204 205
3 207 206 23
3 52 208 209
3 52 210 211
3 212 2 213
3 214 3 215
3 53 216 217
3 53 218 220
3 218 7 219
3 218 219 220
3 27 221 223
3 221 53 222
3 221 222 223
3 54 53 27
3 54 7 53
3 54 39 7
3 55 39 54
3 55 4 39
3 55 56 4
3 57 56 55
3 57 9 56
3 29 57 8
3 58 57 29
3 58 9 57
3 58 46 9
3 59 46 58
3 59 5 46
3 224 60 225
3 226 60 227
3 229 228 60
3 230 25 231
3 61 232 234
3 232 25 233
3 232 233 234
3 61 1 25
3 61 62 1
3 235 62 236
3 237 236 61
3 235 236 237
3 238 11 239
3 240 239 62
3 238 239 240
3 241 11 242
3 244 243 11
3 63 245 246
3 63 247 249
3 247 0 248
3 247 248 249
3 32 250 251
3 64 252 254
3 254 253 32
3 252 253 254
3 64 255 256
3 64 257 258
3 65 259 261
3 261 260 64
3 259 260 261
3 65 262 263
3 264 13 265
3 66 266 267
3 66 268 270
3 268 13 269
3 268 269 270
3 66 65 13
3 67 65 66
3 67 271 273
3 273 272 65
3 271 272 273
3 67 274 275
3 68 276 278
3 278 277 67
3 276 277 278
3 68 279 280
3 33 68 14
3 69 68 33
3 69 281 283
3 283 282 68
3 281 282 283
3 69 284 285
3 70 286 288
3 288 287 69
3 286 287 288
3 70 289 291
3 289 2 290
3 289 290 291
3 292 34 293
3 71 294 296
3 294 34 295
3 294 295 296
3 71 15 34
3 35 297 299
3 297 71 298
3 297 298 299
3 72 71 35
3 72 15 71
3 72 70 15
3 73 70 72
3 73 2 70
3 73 31 2
3 74 31 73
3 74 12 31
3 37 74 16
3 75 74 37
3 75 12 74
3 75 63 12
3 76 63 75
3 76 0 63
3 300 3 301
3 77 302 303
3 77 304 305
3 40 77 7
3 78 77 40
3 78 306 308
3 308 307 77
3 306 307 308
3 78 309 310
3 79 311 313
3 313 312 78
3 311 312 313
3 79 314 316
3 314 3 315
3 314 315 316
3 79 38 3
3 80 38 79
3 80 17 38
3 42 80 18
3 81 80 42
3 81 17 80
3 81 76 17
3 82 76 81
3 82 0 76
3 82 24 0
3 83 24 82
3 83 6 24
3 44 83 19
3 84 83 44
3 84 6 83
3 84 52 6
3 85 52 84
3 85 317 319
3 319 318 52
3 317 318 319
3 56 45 4
3 86 45 56
3 86 20 45
3 47 86 9
3 87 86 47
3 87 20 86
3 87 85 20
3 88 85 87
3 88 320 322
3 322 321 85
3 320 321 322
3 88 323 324
3 326 325 88
3 328 327 21
3 62 30 1
3 89 30 62
3 89 10 30
3 50 89 11
3 90 89 50
3 90 10 89
3 90 59 10
3 91 59 90
3 91 5 59
3 60 329 331
3 329 51 330
3 329 330 331
3 92 51 60
3 92 22 51
3 332 92 333
3 93 334 336
3 334 92 335
3 334 335 336
3 93 22 92
3 93 91 22
3 94 91 93
3 94 5 91
3 94 49 5
3 337 49 338
3 339 338 94
3 337 338 339
3 341 340 49
