ply
format ascii 1.0
element vertex 574
property float x
property float y
property float z
element face 692
property list uchar int vertex_index
end_header
-2.24815 -4.416752 58.641224
0.997042 -6.024637 75.093018
-4.622086 -30.344624 60.4174
1.548695 -32.919533 81.037666
-4.963737 -52.043228 87.932472
-0.880171 -6.559622 83.195709
1.337702 -19.870312 78.004242
0.137815 -20.225912 86.174049
-5.24769 -42.843502 64.323936
-6.229799 -39.477226 54.966267
-3.184181 -16.642799 59.084152
-0.330755 -19.363407 67.890106
-0.925852 -32.407429 70.630714
-1.919603 -44.160847 75.113373
0.17182 -33.094994 87.887283
-0.375378 -44.263664 84.75959
-4.967514 -25.652641 52.685211
-2.835911 -7.295973 55.912163
-2.800684 -7.429359 85.592766
-0.399723 -13.473104 84.756157
-2.247421 -14.270407 87.031746
-4.942215 -48.348068 67.063629
-0.132444 -12.438888 66.909477
0.836246 -12.941881 71.652069
1.559549 -26.470516 79.50589
0.784613 -26.372211 74.3564
0.660759 -32.74979 75.982437
-1.333529 -38.49987 72.62413
0.218931 -38.837097 77.934677
-1.184616 -43.672943 87.842148
-2.449722 -48.562458 86.74263
-2.098106 -49.157444 82.861549
-3.918207 -23.573986 59.483421
-4.575722 -21.269646 55.621223
-5.499937 -28.308636 56.105965
0.419939 -6.185523 79.527596
1.126669 -13.095175 76.524101
0.713388 -13.161424 81.080406
1.153034 -19.919142 82.619148
1.509706 -26.579889 84.005356
-5.109741 -36.806633 62.042187
-6.151142 -35.094131 57.331894
-6.302057 -41.473831 59.298523
-1.398897 -4.897962 61.741615
-2.603233 -9.892662 58.899849
-1.489429 -11.457021 62.587933
-1.852386 -18.353024 63.206448
-2.362511 -25.147129 64.045509
0.813507 -19.79155 72.930206
-0.615904 -26.020967 69.085541
-2.864548 -31.677906 65.354492
-3.284447 -37.886078 67.238068
-3.594545 -43.679371 69.688705
-3.72529 -48.946594 72.543839
-1.814096 -20.90616 88.169434
0.434307 -26.851961 87.225822
1.453245 -33.035179 85.223625
0.625574 -38.880646 86.464256
0.976744 -38.979362 82.75676
-0.713139 -44.379181 80.299782
-2.635521 -49.229439 77.938477
-3.631863 -14.167906 55.651459
-5.849472 -32.745804 53.453724
-2.565062 -5.690814 57.415775
-2.527287 -10.879588 86.329895
1.03492 -9.529491 73.427689
1.603621 -29.722427 80.260643
1.272787 -29.665257 77.755287
1.210432 -32.845894 78.578323
0.494165 -35.843395 76.908409
1.036922 -35.948799 79.466911
-4.421097 -49.691353 88.591003
-3.021139 -48.025612 88.097595
-3.671894 -50.381912 87.493988
-3.167683 -50.902809 85.953239
-4.2495 -52.703026 86.667641
-4.286694 -26.990578 59.869232
-4.824955 -25.987673 57.7244
-5.213488 -29.413506 58.164047
-0.146133 -6.326545 81.490707
0.539515 -9.710632 80.30043
0.020958 -9.829652 82.277603
-0.119581 -16.862238 85.497803
0.503256 -16.660482 83.836235
0.758173 -20.027693 84.565994
1.360537 -23.260782 83.33786
0.973824 -23.375719 85.229156
-1.95343 -3.37641 83.79995
-1.016741 -2.997625 82.403847
-0.23917 -2.742306 80.700226
-5.22921 -39.885723 63.109924
-5.892307 -39.195908 60.597706
-5.886761 -42.235291 61.747795
-1.407473 -8.09594 62.229645
-0.75174 -8.551673 64.250671
-0.211815 -15.929401 67.38636
-0.908278 -15.490189 65.076416
-1.072319 -18.940647 65.489189
-2.099909 -21.77766 63.578594
-1.266718 -22.335825 65.961273
1.222099 -16.513041 77.257263
1.109869 -16.488228 74.78051
1.159111 -19.855623 75.489822
0.056635 -29.458168 72.472672
0.149475 -26.246237 71.710358
-0.765587 -29.247017 69.808258
-1.677555 -28.920561 67.183968
-1.878849 -32.105984 67.966064
-3.086246 -34.826729 66.222076
-2.080248 -35.215343 68.876732
-1.603792 -41.395817 73.809875
-2.504894 -41.15744 71.103897
-2.72681 -43.954971 72.409386
-3.688139 -46.383614 71.083611
-2.942181 -46.614162 73.813126
-0.519709 -27.050148 88.192703
0.394411 -30.049755 87.592987
1.122536 -29.944229 86.321785
0.96595 -33.075832 86.781334
-0.626741 -44.034378 86.512642
-0.155285 -41.425774 87.144547
0.278706 -41.635021 85.634766
0.954601 -38.965988 84.793289
0.401817 -41.739632 83.729118
0.236353 -41.753822 81.511536
-0.414347 -44.372353 82.659943
-2.85807 -51.454163 81.798149
-2.273895 -49.246979 80.490662
-3.003658 -51.523983 79.339188
-3.299818 -51.489166 76.725128
-2.866665 -13.208521 58.988155
-3.17963 -12.065555 57.294785
-3.553602 -15.504477 57.279057
-4.927172 -23.477858 54.05983
-4.402027 -19.871012 53.999775
-4.429026 -22.013573 52.564358
-6.388508 -37.329163 56.060444
-6.18877 -33.991356 55.270626
-6.117973 -36.16555 54.122562
-1.769445 -6.919297 84.580009
-0.665094 -10.045419 83.981194
-1.515808 -10.389552 85.347748
-1.230335 -13.804432 86.092583
-0.952711 -17.179493 86.785042
-5.154104 -45.666946 65.654404
-5.741568 -45.138554 63.022297
-5.452232 -47.896492 64.382317
-0.112179 -8.921412 66.413849
0.431934 -9.204879 68.687294
0.427456 -12.745077 69.24324
0.380581 -16.228094 69.796997
1.458895 -23.185532 78.7556
1.215277 -23.166533 76.22197
1.262398 -26.435013 76.975174
0.747034 -29.586763 75.13829
-0.064127 -32.612175 73.316025
-1.110386 -35.496567 71.565681
-0.235971 -35.698097 74.256531
-0.480776 -38.694561 75.309242
-0.812126 -41.572884 76.480804
-2.048244 -43.179878 88.694786
-2.435787 -45.627964 88.490242
-1.739935 -46.156586 87.365768
-1.337088 -46.534561 85.793701
-1.218245 -46.766567 83.840187
-2.1472 -48.936272 84.972832
-2.902626 -51.255054 84.029266
-3.542048 -20.11451 59.23415
-3.966818 -19.003342 57.317677
-4.399565 -22.509506 57.452637
-5.055624 -24.810678 55.780632
-5.424225 -27.046671 54.274994
0.805183 -6.097419 77.373138
1.054239 -9.600748 75.80751
0.88632 -9.648351 78.120255
1.006433 -13.11841 78.875488
1.162548 -16.521477 79.641403
0.246351 -13.267254 83.064743
0.926331 -16.557228 81.859886
1.340218 -19.877947 80.405891
1.514473 -23.205643 81.153519
1.651093 -26.510643 81.876076
1.708363 -29.780472 82.578911
-4.902403 -33.621311 61.1413
-5.536839 -32.768188 58.789459
-5.770075 -36.034668 59.604118
-6.300323 -38.34388 58.232002
-6.430498 -40.552078 57.023735
-6.142588 -44.468109 60.498272
-6.297964 -43.643204 58.128098
-6.16432 -42.664318 55.955341
-1.918087 -4.633013 59.991676
-2.397263 -6.839702 58.78384
-1.986685 -7.544675 60.389816
-2.12306 -10.762019 60.652332
-2.326351 -14.142929 60.857098
-0.795721 -12.011971 64.682198
-1.64212 -14.898148 62.892712
-2.5877 -17.589655 61.064774
-2.889372 -21.03928 61.328186
-3.208321 -24.453516 61.690414
-3.521177 -27.810406 62.183159
1.070997 -13.048871 74.095917
0.827526 -16.405195 72.275833
0.310503 -19.638586 70.382004
0.800913 -23.109728 73.622665
0.231802 -22.975561 71.016479
-0.469866 -22.727676 68.450424
-1.472466 -25.663507 66.520111
-2.621439 -28.449295 64.632111
-3.808317 -31.096943 62.82695
-4.055401 -34.303009 63.632229
-4.252224 -37.417488 64.600197
-4.389906 -40.426933 65.722961
-2.287956 -38.237968 69.922684
-3.456224 -40.842201 68.398239
-4.458509 -43.31678 66.983124
-4.447023 -46.074219 68.353256
-4.346598 -48.691544 69.795929
-3.446728 -14.861729 87.559502
-1.999388 -17.612356 87.660683
-0.719557 -20.521414 87.386185
-0.564131 -23.821295 87.861008
0.335148 -23.562927 86.755203
1.10984 -26.692642 85.812599
1.556313 -29.852997 84.626816
1.640163 -32.981701 83.281441
-0.905739 -41.104866 88.192284
-0.022104 -38.712906 87.694237
0.596031 -36.020557 87.227692
1.155159 -36.06591 85.826797
1.401279 -36.063332 84.011337
1.351774 -36.022186 81.862129
0.719082 -38.933132 80.441963
-0.182678 -41.69392 79.069199
-1.23081 -44.303841 77.761215
-1.359503 -46.869247 81.586937
-1.724775 -46.865116 79.117477
-2.269249 -46.775482 76.506241
-3.136505 -49.125572 75.271881
-3.700663 -51.368149 74.017075
-2.853077 -8.762903 57.335743
-3.211733 -10.682573 55.763199
-3.393074 -12.636833 54.184036
-4.092247 -17.710943 55.592014
-3.881985 -16.248747 54.055206
-5.875452 -31.742792 56.620483
-5.856707 -30.557503 54.674164
-5.453979 -29.235687 52.975201
-2.406606 -5.053783 58.028499
-2.414845 -4.236451 57.549188
-2.256388 -3.599419 58.161913
1.015981 -7.777064 74.260354
1.01066 -7.732836 73.088112
0.991721 -5.98041 73.920777
-5.168128 -53.211839 87.474129
-4.81101 -53.541739 86.841713
-4.606618 -52.373127 87.300057
0.968306 -4.201192 74.71785
0.875905 -4.244913 75.850724
0.991721 -5.98041 73.920777
0.968306 -4.201192 74.71785
-0.458009 -6.986783 65.044368
-0.767838 -6.860353 63.981523
0.283116 -31.572375 87.740135
-0.114476 -30.104184 87.992935
-0.225772 -31.626804 88.140083
-3.186653 -52.597374 79.980495
-2.930864 -51.489073 80.568669
-3.113859 -52.562464 81.209976
-3.219167 -52.61896 78.718788
-3.186653 -52.597374 79.980495
-4.561866 -24.90401 52.004372
-4.292622 -23.084477 51.943945
-4.69827 -23.833107 52.624785
-2.698751 -6.412076 55.228039
-2.664302 -5.650513 56.017322
-2.893576 -8.177955 55.132286
-2.698751 -6.412076 55.228039
-2.91285 -5.66748 85.21508
-3.50362 -6.014451 85.53659
-2.285064 -7.174328 85.086388
-2.39723 -5.41245 84.708702
-2.91285 -5.66748 85.21508
0.602821 -7.507935 69.540844
0.404255 -7.42206 68.382435
0.631851 -12.843479 70.447654
0.625954 -11.074662 70.140747
0.830349 -11.173064 71.345161
-3.149237 -46.479467 88.738231
-2.926773 -45.293798 88.810119
-3.327583 -52.221288 84.505795
-3.035154 -51.078931 84.991253
-3.460111 -52.045166 85.467781
-3.18413 -52.379348 83.485497
-3.327583 -52.221288 84.505795
0.388701 -4.38101 79.137772
0.059146 -2.659401 79.724087
0.090385 -4.463914 80.113911
0.612561 -6.141471 78.450367
0.581322 -4.336958 78.060543
0.388701 -4.38101 79.137772
-5.980149 -45.891934 61.144735
-5.942078 -44.803331 61.760284
-5.779638 -46.227156 62.406748
-6.105161 -44.678421 57.589674
-6.141552 -45.116574 58.730744
-6.038339 -44.188978 56.503296
-6.231142 -43.153761 57.041719
-6.105161 -44.678421 57.589674
-5.869595 -43.679655 55.466606
-6.038339 -44.188978 56.503296
-3.940886 -50.057602 71.904072
-4.251539 -49.930077 70.530117
-4.035944 -48.819069 71.169884
-4.132338 -15.206654 87.626931
-4.22517 -13.569078 87.322365
-4.91078 -13.914003 87.389793
-1.906742 -19.259258 87.915059
-2.626101 -17.878105 87.888859
-2.533454 -19.525007 88.143235
-3.66165 -52.512255 74.728425
-3.500241 -51.428657 75.371102
-3.461228 -52.572763 76.082451
-3.795545 -52.440773 73.36036
-3.66165 -52.512255 74.728425
-1.426674 -3.4127 61.384744
-1.142853 -3.409823 62.365788
-1.658492 -4.765487 60.866646
-1.686269 -3.280226 60.509775
-1.426674 -3.4127 61.384744
-3.879257 -17.292137 53.316848
-4.142006 -18.05988 54.02749
-4.139278 -19.103269 53.289133
-3.612589 -15.442548 53.369991
-3.879257 -17.292137 53.316848
-2.528878 -4.847933 56.769128
-2.37866 -3.39357 56.902542
-2.414845 -4.236451 57.549188
-2.700487 -6.493393 56.663969
-2.664302 -5.650513 56.017322
-2.528878 -4.847933 56.769128
-3.243623 -9.488659 86.266983
-2.663985 -9.154473 85.961331
-3.380321 -7.763545 85.898418
-3.110095 -11.197331 86.617783
-3.243623 -9.488659 86.266983
-2.970162 -12.892741 86.968708
-2.387354 -12.574998 86.68082
-3.110095 -11.197331 86.617783
-3.380321 -7.763545 85.898418
-3.50362 -6.014451 85.53659
-4.983949 -49.427696 66.424278
-4.778883 -49.617183 67.785675
0.929686 -9.466869 72.232971
1.01066 -7.732836 73.088112
0.935583 -11.235686 72.539879
0.830349 -11.173064 71.345161
0.929686 -9.466869 72.232971
-3.721118 -48.858483 88.344299
-3.441914 -47.678292 88.541908
-4.141892 -48.511162 88.788612
-4.001019 -52.945274 85.824982
-3.460111 -52.045166 85.467781
-3.708591 -51.802917 86.31044
-4.444254 -53.845332 86.142701
-4.001019 -52.945274 85.824982
-4.444254 -53.845332 86.142701
-4.81101 -53.541739 86.841713
-1.996462 -1.562329 83.397541
-2.557354 -1.836308 83.928204
-1.528118 -1.372936 82.699489
-1.996462 -1.562329 83.397541
-1.485085 -3.187018 83.101899
-1.038357 -1.17353 81.99506
-1.528118 -1.372936 82.699489
-0.627955 -2.869966 81.552036
-0.649571 -1.04587 81.143249
-1.038357 -1.17353 81.99506
-1.095705 -6.632487 62.97101
-1.403185 -6.496951 61.98563
-1.091417 -5.033497 62.726996
-1.079606 -8.323806 63.240158
-1.095705 -6.632487 62.97101
-0.767838 -6.860353 63.981523
-2.473367 -21.13214 88.345391
-2.533454 -19.525007 88.143235
-0.571536 -28.60438 88.292793
-1.128645 -27.160595 88.441326
-0.062649 -28.549951 87.892845
-0.571536 -28.60438 88.292793
-0.114476 -30.104184 87.992935
-3.367247 -52.601551 77.411758
-3.151738 -51.506574 78.032158
-3.219167 -52.61896 78.718788
-3.461228 -52.572763 76.082451
-3.367247 -52.601551 77.411758
-1.091417 -5.033497 62.726996
-1.142853 -3.409823 62.365788
-4.152778 -20.17455 52.571424
-4.139278 -19.103269 53.289133
-4.415527 -20.942293 53.282066
-4.012724 -21.229057 51.917126
-4.152778 -20.17455 52.571424
-4.012724 -21.229057 51.917126
-4.292622 -23.084477 51.943945
-2.489222 -3.641006 84.318672
-2.557354 -1.836308 83.928204
-1.861438 -5.147854 84.189979
-2.489222 -3.641006 84.318672
-2.39723 -5.41245 84.708702
-5.63497 -47.606125 63.086758
-5.779638 -46.227156 62.406748
-5.5969 -46.517523 63.702307
-5.238958 -49.201908 65.083622
-5.197223 -48.12228 65.722973
-4.983949 -49.427696 66.424278
-5.394157 -48.954792 63.758341
-5.238958 -49.201908 65.083622
-5.63497 -47.606125 63.086758
-5.394157 -48.954792 63.758341
0.132199 -7.280327 67.245712
-0.138229 -7.171653 66.125957
0.159878 -9.063146 67.550571
0.132199 -7.280327 67.245712
0.404255 -7.42206 68.382435
0.628193 -9.304562 69.862774
0.602821 -7.507935 69.540844
0.429695 -10.974978 68.965267
0.628193 -9.304562 69.862774
0.625954 -11.074662 70.140747
-0.372385 -33.088764 88.194755
-0.225772 -31.626804 88.140083
-2.733002 -44.069755 88.912391
-2.624188 -42.874809 88.874157
-2.242015 -44.403921 88.592514
-2.733002 -44.069755 88.912391
-2.926773 -45.293798 88.810119
-2.728463 -46.826788 88.293918
-3.149237 -46.479467 88.738231
-3.441914 -47.678292 88.541908
-3.161852 -52.478903 82.369938
-2.880348 -51.354608 82.913708
-3.18413 -52.379348 83.485497
-3.113859 -52.562464 81.209976
-3.161852 -52.478903 82.369938
-5.958734 -38.873779 54.059378
-5.975964 -40.51178 54.488604
-4.914939 -49.269516 88.901062
-4.141892 -48.511162 88.788612
-5.156154 -50.454655 88.662312
-4.914939 -49.269516 88.901062
-5.427475 -51.630592 88.333046
-4.692417 -50.86729 88.261738
-5.156154 -50.454655 88.662312
-5.629288 -52.822207 87.94944
-5.427475 -51.630592 88.333046
-0.248045 -0.907681 80.288891
-0.649571 -1.04587 81.143249
-0.248045 -0.907681 80.288891
0.059146 -2.659401 79.724087
0.779975 -4.281304 76.990783
0.581322 -4.336958 78.060543
0.901112 -6.061028 76.233078
0.875905 -4.244913 75.850724
0.779975 -4.281304 76.990783
-6.063864 -45.529026 59.91583
-5.980149 -45.891934 61.144735
-6.220276 -44.055656 59.313185
-6.063864 -45.529026 59.91583
-6.141552 -45.116574 58.730744
-5.943225 -42.105325 54.983141
-5.975964 -40.51178 54.488604
-6.197059 -41.070772 55.460804
-5.6485 -43.120662 54.494406
-5.943225 -42.105325 54.983141
-5.869595 -43.679655 55.466606
-0.431959 -8.736542 65.33226
-0.458009 -6.986783 65.044368
-0.138229 -7.171653 66.125957
-4.481075 -49.788922 69.151825
-4.778883 -49.617183 67.785675
-4.644407 -48.519806 68.429779
-4.481075 -49.788922 69.151825
-4.251539 -49.930077 70.530117
-3.569816 -13.188402 87.232586
-4.22517 -13.569078 87.322365
-2.847074 -14.566068 87.295624
-2.970162 -12.892741 86.968708
-3.569816 -13.188402 87.232586
-3.34977 -16.502792 87.838268
-4.132338 -15.206654 87.626931
-2.723058 -16.237043 87.610093
-3.34977 -16.502792 87.838268
-2.626101 -17.878105 87.888859
-1.765888 -22.521579 88.343574
-2.473367 -21.13214 88.345391
-1.118695 -25.593573 88.355209
-1.128645 -27.160595 88.441326
-1.140906 -23.979146 88.189361
-1.118695 -25.593573 88.355209
-0.54192 -25.435721 88.026855
-1.189113 -22.363727 88.015221
-1.765888 -22.521579 88.343574
-1.140906 -23.979146 88.189361
-0.051976 -34.506739 88.020557
-0.372385 -33.088764 88.194755
-2.004018 -41.927942 88.719146
-2.579962 -41.622873 88.898517
-2.624188 -42.874809 88.874157
-1.432766 -40.890436 88.467895
-2.004018 -41.927942 88.719146
-1.476992 -42.142372 88.443535
-0.943588 -39.781559 88.313187
-1.432766 -40.890436 88.467895
-0.50177 -38.585579 88.064164
-0.943588 -39.781559 88.313187
-0.463921 -39.908886 87.943261
-0.148938 -37.315695 87.924034
-0.50177 -38.585579 88.064164
0.160129 -35.969521 87.690762
-0.148938 -37.315695 87.924034
0.286963 -37.366732 87.460965
0.383925 -34.557775 87.557488
-0.051976 -34.506739 88.020557
0.160129 -35.969521 87.690762
-3.928572 -51.26838 72.64069
-3.940886 -50.057602 71.904072
-3.712976 -50.157371 73.280457
-3.928572 -51.26838 72.64069
-3.795545 -52.440773 73.36036
-5.83368 -53.990818 87.491096
-5.168128 -53.211839 87.474129
-5.629288 -52.822207 87.94944
-1.918703 -3.372057 59.63149
-1.686269 -3.280226 60.509775
-2.083118 -4.524883 59.31645
-2.083734 -3.263927 58.956265
-1.918703 -3.372057 59.63149
-2.083734 -3.263927 58.956265
-2.256388 -3.599419 58.161913
-3.081487 -9.871255 55.057804
-2.893576 -8.177955 55.132286
-3.023822 -8.989273 55.837681
-3.172157 -10.848385 54.268223
-3.081487 -9.871255 55.057804
-3.302404 -11.659703 54.973618
-3.123706 -11.785219 53.512043
-3.172157 -10.848385 54.268223
-3.368133 -13.636591 53.434406
-3.637529 -14.44279 54.119621
-3.612589 -15.442548 53.369991
-3.123706 -11.785219 53.512043
-3.368133 -13.636591 53.434406
-5.902821 -37.217941 53.637526
-6.173886 -37.821388 54.544415
-5.958734 -38.873779 54.059378
-5.801666 -35.52227 53.280035
-5.902821 -37.217941 53.637526
-5.667415 -33.812397 52.945616
-5.983722 -34.455677 53.788143
-5.801666 -35.52227 53.280035
-5.49464 -32.066119 52.672274
-5.667415 -33.812397 52.945616
-5.296894 -30.31106 52.433012
-5.651725 -30.990745 53.214462
-5.49464 -32.066119 52.672274
-5.068984 -28.521445 52.248678
-5.296894 -30.31106 52.433012
-4.825752 -26.729922 52.103684
-5.210747 -27.444164 52.830206
-5.068984 -28.521445 52.248678
-4.561866 -24.90401 52.004372
-4.825752 -26.729922 52.103684
3 0 249 251
3 249 63 250
3 249 250 251
3 1 252 254
3 252 65 253
3 252 253 254
3 3 68 66
3 3 70 68
3 4 73 71
3 4 75 73
3 4 255 257
3 257 256 75
3 255 256 257
3 1 258 259
3 1 260 261
3 2 78 76
3 5 81 79
3 7 84 82
3 7 86 84
3 5 88 87
3 5 79 88
3 8 92 90
3 262 94 263
3 11 97 95
3 11 99 97
3 6 102 100
3 12 105 103
3 12 107 105
3 12 109 107
3 13 112 110
3 13 114 112
3 14 264 266
3 264 116 265
3 264 265 266
3 14 118 116
3 15 121 119
3 15 123 121
3 15 125 123
3 267 128 268
3 269 268 126
3 267 268 269
3 271 270 128
3 10 132 130
3 16 135 133
3 16 272 274
3 274 273 135
3 272 273 274
3 9 138 136
3 17 275 276
3 17 277 278
3 18 141 139
3 20 142 64
3 20 143 142
3 18 279 280
3 18 281 283
3 281 139 282
3 281 282 283
3 21 146 144
3 284 148 285
3 23 286 288
3 286 149 287
3 286 287 288
3 23 150 149
3 24 153 151
3 26 154 67
3 26 155 154
3 26 157 155
3 28 158 69
3 28 159 158
3 289 161 290
3 30 162 72
3 30 163 162
3 30 165 163
3 291 166 292
3 293 292 74
3 291 292 293
3 295 294 166
3 32 169 167
3 34 170 77
3 34 171 170
3 35 174 172
3 37 175 80
3 37 176 175
3 19 177 140
3 38 178 83
3 38 179 178
3 38 180 179
3 39 181 85
3 39 182 181
3 35 296 298
3 298 297 89
3 296 297 298
3 35 299 301
3 299 172 300
3 299 300 301
3 40 185 183
3 42 186 91
3 42 187 186
3 302 188 303
3 304 303 145
3 302 303 304
3 305 189 306
3 307 190 308
3 309 308 189
3 307 308 309
3 311 310 190
3 43 193 191
3 45 194 93
3 45 195 194
3 22 196 147
3 46 197 96
3 46 198 197
3 46 199 198
3 47 200 98
3 47 201 200
3 36 202 173
3 48 203 101
3 48 204 203
3 25 205 152
3 49 206 104
3 49 207 206
3 49 208 207
3 50 209 106
3 50 210 209
3 50 211 210
3 51 212 108
3 51 213 212
3 27 214 156
3 52 215 111
3 52 216 215
3 52 217 216
3 53 218 113
3 53 312 314
3 314 313 218
3 312 313 314
3 315 219 316
3 315 316 317
3 54 318 320
3 318 220 319
3 318 319 320
3 54 221 220
3 55 222 115
3 55 223 222
3 55 224 223
3 56 225 117
3 56 226 225
3 29 227 160
3 57 228 120
3 57 229 228
3 57 230 229
3 58 231 122
3 58 232 231
3 58 233 232
3 59 234 124
3 59 235 234
3 31 236 164
3 60 237 127
3 60 238 237
3 60 239 238
3 321 240 322
3 323 322 129
3 321 322 323
3 325 324 240
3 43 326 327
3 43 328 330
3 328 191 329
3 328 329 330
3 44 241 192
3 61 242 131
3 61 243 242
3 33 244 168
3 331 245 332
3 333 332 134
3 331 332 333
3 335 334 245
3 41 246 184
3 62 247 137
3 62 248 247
3 63 336 338
3 336 337 338
3 63 339 341
3 339 17 340
3 339 340 341
3 342 64 343
3 344 343 18
3 342 343 344
3 345 64 346
3 347 20 348
3 349 348 64
3 347 348 349
3 350 18 351
3 353 352 21
3 65 354 355
3 65 356 358
3 356 23 357
3 356 357 358
3 66 67 24
3 68 67 66
3 68 26 67
3 68 69 26
3 70 69 68
3 70 28 69
3 71 359 361
3 359 72 360
3 359 360 361
3 73 72 71
3 73 30 72
3 73 74 30
3 75 74 73
3 75 362 364
3 364 363 74
3 362 363 364
3 75 365 366
3 368 367 75
3 76 77 32
3 78 77 76
3 78 34 77
3 79 80 35
3 81 80 79
3 81 37 80
3 82 83 19
3 84 83 82
3 84 38 83
3 84 85 38
3 86 85 84
3 86 39 85
3 87 369 370
3 88 371 373
3 373 372 87
3 371 372 373
3 88 374 375
3 88 376 378
3 376 89 377
3 376 377 378
3 79 89 88
3 79 35 89
3 90 91 40
3 92 91 90
3 92 42 91
3 379 93 380
3 381 380 43
3 379 380 381
3 94 382 384
3 382 93 383
3 382 383 384
3 94 45 93
3 95 96 22
3 97 96 95
3 97 46 96
3 97 98 46
3 99 98 97
3 99 47 98
3 100 101 36
3 102 101 100
3 102 48 101
3 103 104 25
3 105 104 103
3 105 49 104
3 105 106 49
3 107 106 105
3 107 50 106
3 107 108 50
3 109 108 107
3 109 51 108
3 110 111 27
3 112 111 110
3 112 52 111
3 112 113 52
3 114 113 112
3 114 53 113
3 385 54 386
3 387 115 388
3 116 389 391
3 389 115 390
3 389 390 391
3 116 55 115
3 116 117 55
3 118 117 116
3 118 56 117
3 119 120 29
3 121 120 119
3 121 57 120
3 121 122 57
3 123 122 121
3 123 58 122
3 123 124 58
3 125 124 123
3 125 59 124
3 126 127 31
3 128 127 126
3 128 60 127
3 128 129 60
3 392 129 393
3 394 393 128
3 392 393 394
3 396 395 129
3 397 43 398
3 130 131 44
3 132 131 130
3 132 61 131
3 133 134 33
3 135 134 133
3 135 399 401
3 401 400 134
3 399 400 401
3 135 402 403
3 405 404 135
3 136 137 41
3 138 137 136
3 138 62 137
3 139 140 5
3 141 140 139
3 141 19 140
3 64 141 18
3 142 141 64
3 142 19 141
3 142 82 19
3 143 82 142
3 143 7 82
3 406 87 407
3 139 408 410
3 408 87 409
3 408 409 410
3 139 5 87
3 144 145 8
3 146 145 144
3 146 411 413
3 413 412 145
3 411 412 413
3 414 146 415
3 416 415 21
3 414 415 416
3 417 146 418
3 420 419 146
3 421 147 422
3 148 423 425
3 423 147 424
3 423 424 425
3 148 22 147
3 426 148 427
3 149 428 430
3 428 148 429
3 428 429 430
3 149 22 148
3 149 95 22
3 150 95 149
3 150 11 95
3 151 152 6
3 153 152 151
3 153 25 152
3 67 153 24
3 154 153 67
3 154 25 153
3 154 103 25
3 155 103 154
3 155 12 103
3 155 156 12
3 157 156 155
3 157 27 156
3 69 157 26
3 158 157 69
3 158 27 157
3 158 110 27
3 159 110 158
3 159 13 110
3 431 14 432
3 433 160 434
3 161 435 437
3 435 160 436
3 435 436 437
3 161 29 160
3 72 438 440
3 438 161 439
3 438 439 440
3 162 161 72
3 162 29 161
3 162 119 29
3 163 119 162
3 163 15 119
3 163 164 15
3 165 164 163
3 165 31 164
3 74 165 30
3 166 165 74
3 166 31 165
3 166 126 31
3 441 126 442
3 443 442 166
3 441 442 443
3 445 444 126
3 167 168 10
3 169 168 167
3 169 33 168
3 77 169 32
3 170 169 77
3 170 33 169
3 170 133 33
3 171 133 170
3 171 16 133
3 447 446 9
3 172 173 1
3 174 173 172
3 174 36 173
3 80 174 35
3 175 174 80
3 175 36 174
3 175 100 36
3 176 100 175
3 176 6 100
3 140 81 5
3 177 81 140
3 177 37 81
3 83 177 19
3 178 177 83
3 178 37 177
3 178 176 37
3 179 176 178
3 179 6 176
3 179 151 6
3 180 151 179
3 180 24 151
3 85 180 38
3 181 180 85
3 181 24 180
3 181 66 24
3 182 66 181
3 182 3 66
3 448 71 449
3 450 71 451
3 452 4 453
3 454 453 71
3 452 453 454
3 456 455 4
3 89 457 458
3 460 459 89
3 172 461 462
3 172 463 465
3 463 1 464
3 463 464 465
3 183 184 2
3 185 184 183
3 185 41 184
3 91 185 40
3 186 185 91
3 186 41 185
3 186 136 41
3 187 136 186
3 187 9 136
3 145 92 8
3 188 92 145
3 188 42 92
3 466 188 467
3 189 468 470
3 468 188 469
3 468 469 470
3 189 42 188
3 189 187 42
3 190 187 189
3 190 9 187
3 190 471 473
3 473 472 9
3 471 472 473
3 476 475 190
3 474 475 476
3 191 192 0
3 193 192 191
3 193 44 192
3 93 193 43
3 194 193 93
3 194 44 193
3 194 130 44
3 195 130 194
3 195 10 130
3 147 477 479
3 477 94 478
3 477 478 479
3 196 94 147
3 196 45 94
3 96 196 22
3 197 196 96
3 197 45 196
3 197 195 45
3 198 195 197
3 198 10 195
3 198 167 10
3 199 167 198
3 199 32 167
3 98 199 46
3 200 199 98
3 200 32 199
3 200 76 32
3 201 76 200
3 201 2 76
3 173 65 1
3 202 65 173
3 202 23 65
3 101 202 36
3 203 202 101
3 203 23 202
3 203 150 23
3 204 150 203
3 204 11 150
3 152 102 6
3 205 102 152
3 205 48 102
3 104 205 25
3 206 205 104
3 206 48 205
3 206 204 48
3 207 204 206
3 207 11 204
3 207 99 11
3 208 99 207
3 208 47 99
3 106 208 49
3 209 208 106
3 209 47 208
3 209 201 47
3 210 201 209
3 210 2 201
3 210 183 2
3 211 183 210
3 211 40 183
3 108 211 50
3 212 211 108
3 212 40 211
3 212 90 40
3 213 90 212
3 213 8 90
3 156 109 12
3 214 109 156
3 214 51 109
3 111 214 27
3 215 214 111
3 215 51 214
3 215 213 51
3 216 213 215
3 216 8 213
3 216 144 8
3 217 144 216
3 217 21 144
3 113 217 52
3 218 217 113
3 218 21 217
3 218 480 482
3 482 481 21
3 480 481 482
3 484 483 218
3 219 485 486
3 219 487 489
3 487 20 488
3 487 488 489
3 490 219 491
3 220 492 494
3 492 219 493
3 492 493 494
3 220 20 219
3 220 143 20
3 221 143 220
3 221 7 143
3 495 54 496
3 115 497 498
3 222 499 501
3 501 500 115
3 499 500 501
3 222 502 504
3 502 54 503
3 502 503 504
3 222 221 54
3 223 221 222
3 223 7 221
3 223 86 7
3 224 86 223
3 224 39 86
3 117 224 55
3 225 224 117
3 225 39 224
3 225 182 39
3 226 182 225
3 226 3 182
3 505 14 506
3 160 507 509
3 507 508 509
3 227 510 512
3 512 511 160
3 510 511 512
3 227 513 514
3 120 227 29
3 228 227 120
3 228 515 517
3 517 516 227
3 515 516 517
3 228 518 519
3 229 520 522
3 522 521 228
3 520 521 522
3 229 523 525
3 523 14 524
3 523 524 525
3 229 118 14
3 230 118 229
3 230 56 118
3 122 230 57
3 231 230 122
3 231 56 230
3 231 226 56
3 232 226 231
3 232 3 226
3 232 70 3
3 233 70 232
3 233 28 70
3 124 233 58
3 234 233 124
3 234 28 233
3 234 159 28
3 235 159 234
3 235 13 159
3 164 125 15
3 236 125 164
3 236 59 125
3 127 236 31
3 237 236 127
3 237 59 236
3 237 235 59
3 238 235 237
3 238 13 235
3 238 114 13
3 239 114 238
3 239 53 114
3 129 239 60
3 240 239 129
3 240 53 239
3 240 526 528
3 528 527 53
3 526 527 528
3 530 529 240
3 533 532 4
3 531 532 533
3 191 534 535
3 191 536 538
3 536 0 537
3 536 537 538
3 539 0 540
3 192 63 0
3 241 63 192
3 241 17 63
3 131 241 44
3 242 241 131
3 242 17 241
3 242 541 543
3 543 542 17
3 541 542 543
3 243 544 546
3 546 545 242
3 544 545 546
3 243 547 548
3 168 132 10
3 244 132 168
3 244 61 132
3 134 244 33
3 245 244 134
3 245 61 244
3 245 243 61
3 549 243 550
3 551 550 245
3 549 550 551
3 553 552 243
3 184 78 2
3 246 78 184
3 246 34 78
3 137 246 41
3 247 246 137
3 247 34 246
3 247 171 34
3 248 171 247
3 248 16 171
3 554 138 555
3 556 555 9
3 554 555 556
3 557 138 558
3 559 62 560
3 561 560 138
3 559 560 561
3 562 62 563
3 564 248 565
3 566 565 62
3 564 565 566
3 567 248 568
3 569 16 570
3 571 570 248
3 569 570 571
3 573 572 16
