ply
format ascii 1.0
element vertex 421
property float x
property float y
property float z
element face 454
property list uchar int vertex_index
end_header
9.123188 -100.854187 42.884499
2.159775 -99.487511 19.652565
0.994892 -109.714188 22.150612
4.906343 -101.004333 31.823755
3.271881 -119.705025 10.213242
0.504147 -110.498337 9.934438
7.34086 -90.860718 27.094389
7.849922 -89.148964 16.277082
8.1049 -104.870918 38.885803
5.018684 -105.385651 33.477936
7.142529 -101.362465 37.642426
10.803829 -103.17907 43.560825
6.70495 -122.472626 10.023925
4.207327 -118.182709 16.0077
0.767963 -104.826469 21.184561
0.100344 -110.056145 15.915972
0.465427 -104.749847 15.134365
2.320681 -99.273369 14.078753
7.459536 -91.969917 32.741745
9.419134 -84.970367 19.708715
10.444981 -84.566612 14.727353
11.447102 -84.665405 10.18141
5.85519 -112.323677 27.648003
2.95381 -113.649841 22.209942
3.281422 -109.381973 28.233801
2.372601 -105.179817 27.452108
3.080078 -100.20063 25.692106
8.140327 -97.17942 40.841885
3.574671 -120.582787 4.195117
1.360279 -114.69828 16.249866
1.181688 -115.557693 10.157408
7.110027 -96.877975 35.336426
5.898642 -96.004669 29.476341
4.991602 -94.928749 23.559498
8.493141 -85.9263 24.966795
7.399645 -89.768486 21.516331
4.765823 -94.155258 17.936649
8.760494 -102.892929 41.02803
7.482359 -103.274223 38.44783
8.208998 -101.234459 40.343281
9.861813 -102.219765 43.435875
9.556488 -104.188423 41.30954
5.188503 -117.244675 18.728922
1.279316 -102.182587 20.463631
0.45499 -104.739136 18.107199
1.105423 -102.030746 17.481457
1.223516 -102.004745 14.631403
2.11401 -99.306725 16.790951
10.652824 -82.492058 16.381166
11.275173 -82.399796 13.976517
10.967567 -84.581116 12.393229
11.866972 -82.412079 11.671248
12.392609 -82.45166 9.479191
6.076414 -110.466797 30.767588
4.372355 -111.037689 28.118172
4.84873 -109.09623 31.07518
4.792475 -103.304543 32.78656
3.596111 -105.336388 30.523329
3.572163 -103.067986 29.758026
2.542353 -102.756027 26.656956
3.905777 -100.625229 28.773388
4.832306 -121.285973 10.152919
4.66674 -121.976105 7.219231
4.791172 -122.443161 4.216763
3.297352 -120.240067 7.213628
1.761536 -111.831192 22.30661
1.976881 -114.194725 19.270283
0.959902 -112.164482 19.243093
0.168879 -110.27285 12.876438
0.445107 -112.81414 13.076459
0.666769 -113.110565 10.061674
1.512682 -115.864647 7.159228
1.098518 -113.348816 7.129273
7.67944 -97.115387 38.146988
7.578369 -94.803078 36.840881
7.395464 -91.44001 29.926849
6.936024 -93.973526 31.166027
6.61009 -93.424889 28.261686
5.379431 -95.461411 26.502832
6.345728 -92.850952 25.362753
8.860514 -86.978836 17.986059
8.513998 -87.316498 20.585672
7.570206 -89.376381 18.839775
6.168472 -91.880081 19.74235
6.306145 -91.599365 17.092562
4.947517 -94.005539 15.324634
6.586668 -91.494522 14.583439
5.619446 -107.18222 33.810593
6.555428 -105.252968 36.273701
6.126266 -103.394638 35.694691
6.01218 -101.269981 34.79351
5.328787 -120.405403 12.980656
3.566088 -119.009201 13.156673
0.665716 -107.358223 21.763477
0.366674 -109.869789 19.022907
0.201334 -107.373253 18.633293
0.083733 -107.454002 15.569869
0.273554 -107.598816 12.612359
0.688482 -107.781342 9.781874
0.748123 -104.853409 12.295929
1.571676 -102.092834 11.934004
7.496826 -92.413979 35.508057
7.792007 -88.939346 28.748539
10.021233 -82.72757 18.866278
9.921095 -84.688408 17.171816
9.269831 -86.808395 15.49091
8.219166 -89.09446 13.8475
9.718979 -86.797546 13.117979
4.541676 -115.118088 21.861588
4.263161 -113.041481 25.017429
2.912912 -111.470589 25.283159
1.977856 -109.566505 25.240952
4.017124 -107.366707 30.983761
2.612831 -107.409439 27.999077
1.478706 -107.385483 24.905861
1.414503 -104.988823 24.319002
1.763971 -102.439789 23.539516
2.485424 -99.800407 22.634258
8.564241 -99.149055 41.986423
3.397961 -115.904007 19.096224
2.595142 -116.612816 16.203505
2.150434 -117.243568 13.228168
0.525629 -112.492302 16.149469
1.106327 -115.158875 13.19822
2.05094 -117.776649 10.211599
2.244984 -118.182487 7.190253
2.641453 -118.42952 4.19626
7.867287 -99.283676 39.347656
7.040302 -99.20649 36.569775
6.159559 -98.947586 33.672684
7.275431 -94.445335 34.036995
6.495386 -96.494522 32.434727
5.300972 -98.55024 30.688915
4.534891 -98.070297 27.660778
3.923494 -97.573311 24.636816
3.517496 -97.128143 21.667215
7.997351 -88.352051 25.99651
8.944983 -85.397148 22.315462
8.230999 -87.791672 23.265406
7.331318 -90.28318 24.279009
6.186977 -92.314491 22.509996
4.778793 -94.474037 20.691086
3.349241 -96.796242 18.797987
3.421959 -96.618233 16.064873
3.699539 -96.60096 13.489043
9.492501 -101.536976 43.160187
9.835165 -101.213741 44.353783
9.465853 -100.530952 44.078094
5.833343 -116.719479 20.006646
6.243294 -117.712288 18.459834
11.483885 -81.337608 13.603237
11.131587 -81.382477 14.787384
11.779784 -81.34375 12.450603
11.571072 -82.405937 12.823882
11.483885 -81.337608 13.603237
12.108436 -81.332249 11.311819
11.779784 -81.34375 12.450603
5.724776 -108.864201 32.400421
5.462572 -109.781514 30.921384
6.338618 -109.549485 32.246625
6.338618 -109.549485 32.246625
7.007801 -110.073841 31.987092
0.751706 -110.596054 8.519725
1.048891 -112.021293 7.117142
0.801333 -111.923576 8.531856
7.524797 -93.77597 37.5208
7.686672 -94.912526 38.196285
7.330164 -105.061943 37.579752
6.940983 -106.01577 36.360415
7.715719 -105.824745 37.666466
11.282817 -102.513004 44.617612
10.753681 -102.21333 44.625726
11.376079 -103.429726 43.389455
11.855068 -102.763661 44.446243
11.282817 -102.513004 44.617612
10.704274 -104.119664 42.344698
11.376079 -103.429726 43.389455
8.566261 -105.479087 38.88417
9.292055 -105.13784 40.096039
8.830694 -104.529671 40.097672
7.715719 -105.824745 37.666466
8.566261 -105.479087 38.88417
4.768057 -119.294056 14.494178
5.744046 -119.884838 14.325298
5.183315 -118.773491 15.838821
2.514438 -99.319474 12.803522
2.139935 -100.729206 11.731148
1.946179 -100.683101 13.006379
7.704254 -88.010036 29.524943
7.692236 -89.220951 30.120154
10.138183 -81.649956 18.451723
9.762094 -81.819241 19.695222
10.803922 -85.779678 10.529511
10.564155 -85.737533 11.63542
11.207334 -84.623261 11.287319
10.988795 -85.834877 9.477343
10.803922 -85.779678 10.529511
11.638406 -84.691688 9.139456
10.988795 -85.834877 9.477343
12.868427 -81.313198 8.094127
12.600141 -82.432663 8.443426
12.660896 -81.332195 9.129893
5.059176 -112.682579 26.332716
5.125362 -113.636696 24.737671
5.921376 -113.277794 26.052957
6.766908 -112.761463 27.251198
7.669273 -112.315121 28.463279
6.757555 -111.877335 28.860084
5.921376 -113.277794 26.052957
6.766908 -112.761463 27.251198
7.492993 -123.376114 8.579553
7.77472 -122.851952 9.921941
4.349982 -121.622154 2.693192
4.958232 -122.552342 2.704015
4.182921 -121.512974 4.20594
3.788468 -120.64518 2.69645
4.349982 -121.622154 2.693192
2.315765 -117.237331 4.211823
2.077068 -117.147084 5.677744
1.75138 -115.954895 5.693307
2.882747 -118.459225 2.728365
2.315765 -117.237331 4.211823
0.949287 -107.867005 8.433027
0.948748 -106.398205 9.692826
8.273374 -86.215294 26.301865
8.30781 -85.039803 25.773354
8.245246 -87.139175 25.481653
8.025479 -87.428169 26.816723
8.273374 -86.215294 26.301865
9.182059 -85.183757 21.012089
9.16686 -84.251602 21.862559
9.403935 -84.038211 20.559186
4.489741 -95.310315 13.179521
4.323528 -95.303249 14.406838
5.11373 -94.012604 14.097316
3.901209 -96.655102 12.282747
4.489741 -95.310315 13.179521
7.59015 -90.319996 13.036835
8.423551 -89.135532 12.704172
10.282673 -101.733677 44.563251
9.835165 -101.213741 44.353783
10.332821 -102.699417 43.49835
10.753681 -102.21333 44.625726
10.282673 -101.733677 44.563251
5.673903 -118.304474 17.199431
6.243294 -117.712288 18.459834
4.697915 -117.713692 17.368311
5.183315 -118.773491 15.838821
5.673903 -118.304474 17.199431
10.820412 -81.428608 15.989709
10.453979 -81.5322 17.209167
10.963999 -82.445927 15.178842
10.820412 -81.428608 15.989709
11.131587 -81.382477 14.787384
12.371255 -81.35204 10.21579
12.129791 -82.43187 10.575219
12.108436 -81.332249 11.311819
12.660896 -81.332195 9.129893
12.371255 -81.35204 10.21579
6.868167 -110.948894 30.419877
7.007801 -110.073841 31.987092
5.965802 -111.395237 29.207795
6.757555 -111.877335 28.860084
6.868167 -110.948894 30.419877
5.58558 -122.311218 8.674906
6.521902 -122.904545 8.610409
5.768628 -121.8793 10.088422
5.502797 -122.656284 7.208062
5.58558 -122.311218 8.674906
4.749523 -121.631039 8.686075
5.476313 -122.96365 5.73615
5.502797 -122.656284 7.208062
4.728956 -122.209633 5.717997
5.538528 -123.197178 4.234916
5.476313 -122.96365 5.73615
1.544298 -114.696979 5.67833
1.75138 -115.954895 5.693307
1.3056 -114.606731 7.144251
1.358354 -113.418014 5.711239
1.544298 -114.696979 5.67833
1.358354 -113.418014 5.711239
1.048891 -112.021293 7.117142
7.737208 -96.06868 38.849339
7.909883 -97.147403 39.494436
7.967651 -96.100696 40.196787
7.628904 -95.959232 37.493935
7.737208 -96.06868 38.849339
7.686672 -94.912526 38.196285
8.624643 -84.761605 24.477496
8.30781 -85.039803 25.773354
5.933306 -92.757095 13.726719
5.11373 -94.012604 14.097316
5.767093 -92.750031 14.954037
6.472992 -106.980396 35.128861
6.110134 -107.907196 33.768127
6.087437 -106.217594 35.042147
6.472992 -106.980396 35.128861
6.940983 -106.01577 36.360415
10.080603 -104.62434 41.219055
10.704274 -104.119664 42.344698
10.180159 -103.683746 42.435182
10.080603 -104.62434 41.219055
9.292055 -105.13784 40.096039
7.051403 -121.932701 11.362954
7.77472 -122.851952 9.921941
6.363321 -120.89909 12.84132
5.744046 -119.884838 14.325298
6.016869 -121.439015 11.502291
7.051403 -121.932701 11.362954
6.363321 -120.89909 12.84132
0.978569 -104.934238 10.949854
0.948748 -106.398205 9.692826
0.718303 -106.317375 11.038901
1.390346 -103.553951 10.768891
0.978569 -104.934238 10.949854
1.1599 -103.473121 12.114966
1.808857 -102.170681 10.663534
1.390346 -103.553951 10.768891
1.808857 -102.170681 10.663534
2.139935 -100.729206 11.731148
7.309241 -91.417946 36.17833
7.484025 -92.581421 36.854388
7.43664 -91.209274 34.853651
7.309241 -91.417946 36.17833
7.417994 -90.987244 33.470495
7.478181 -92.191948 34.124901
7.43664 -91.209274 34.853651
7.526001 -90.736236 32.116757
7.417994 -90.987244 33.470495
7.493965 -90.471283 30.709309
7.4275 -91.704963 31.334297
7.526001 -90.736236 32.116757
7.593735 -90.189678 29.337694
7.493965 -90.471283 30.709309
7.692236 -89.220951 30.120154
9.704985 -82.916813 20.137968
9.762094 -81.819241 19.695222
9.720184 -83.848968 19.287497
9.403935 -84.038211 20.559186
9.704985 -82.916813 20.137968
10.337029 -82.609814 17.623722
10.138183 -81.649956 18.451723
10.453979 -81.5322 17.209167
9.173458 -87.987076 12.339411
8.423551 -89.135532 12.704172
8.969072 -87.946003 13.48274
9.93986 -86.845748 11.997795
10.343273 -85.689331 12.755604
10.564155 -85.737533 11.63542
9.173458 -87.987076 12.339411
9.93986 -86.845748 11.997795
12.111159 -83.584816 8.788346
11.638406 -84.691688 9.139456
11.919856 -83.558533 9.8303
12.111159 -83.584816 8.788346
12.600141 -82.432663 8.443426
5.264619 -114.674999 23.15975
5.50993 -115.656185 21.572979
4.402418 -114.079785 23.439509
5.264619 -114.674999 23.15975
5.125362 -113.636696 24.737671
5.234088 -108.139225 32.442887
5.724776 -108.864201 32.400421
6.110134 -107.907196 33.768127
8.813869 -98.967331 43.233762
8.843715 -100.001621 42.435461
9.093342 -99.819896 43.6828
8.49987 -98.100815 42.69776
8.813869 -98.967331 43.233762
8.287913 -97.115997 42.12549
8.352284 -98.164237 41.414154
8.49987 -98.100815 42.69776
8.009863 -96.132431 41.497751
8.287913 -97.115997 42.12549
7.967651 -96.100696 40.196787
8.009863 -96.132431 41.497751
9.093342 -99.819896 43.6828
9.465853 -100.530952 44.078094
7.492993 -123.376114 8.579553
6.521902 -122.904545 8.610409
5.641756 -123.366467 2.727334
5.538528 -123.197178 4.234916
5.808816 -123.475647 1.214586
5.641756 -123.366467 2.727334
4.958232 -122.552342 2.704015
4.865089 -116.181382 20.295255
5.833343 -116.719479 20.006646
5.50993 -115.656185 21.572979
3.321859 -119.568546 2.697021
3.788468 -120.64518 2.69645
3.108062 -119.506153 4.195688
3.321859 -119.568546 2.697021
2.882747 -118.459225 2.728365
0.843873 -109.237556 8.443443
0.751706 -110.596054 8.519725
0.596315 -109.139839 9.858156
0.843873 -109.237556 8.443443
0.949287 -107.867005 8.433027
7.537598 -93.608529 36.174469
7.524797 -93.77597 37.5208
7.484025 -92.581421 36.854388
7.922808 -87.721817 28.192737
7.704254 -88.010036 29.524943
7.894679 -88.645699 27.372525
7.922808 -87.721817 28.192737
8.025479 -87.428169 26.816723
8.850564 -84.497028 23.151829
9.16686 -84.251602 21.862559
8.719062 -85.661724 23.641129
8.624643 -84.761605 24.477496
8.850564 -84.497028 23.151829
3.203867 -97.983269 12.508668
2.514438 -99.319474 12.803522
3.01011 -97.937164 13.783898
3.203867 -97.983269 12.508668
3.901209 -96.655102 12.282747
6.773901 -91.520027 13.404804
7.402917 -90.294491 14.21547
7.59015 -90.319996 13.036835
5.933306 -92.757095 13.726719
6.773901 -91.520027 13.404804
3 0 39 37
3 0 145 147
3 145 40 146
3 145 146 147
3 0 37 40
3 148 42 149
3 1 45 43
3 1 47 45
3 150 49 151
3 152 51 153
3 154 153 49
3 152 153 154
3 156 155 51
3 157 55 158
3 159 158 53
3 157 158 159
3 3 58 56
3 3 60 58
3 160 53 161
3 4 62 61
3 4 64 62
3 2 67 65
3 5 70 68
3 5 72 70
3 5 162 164
3 164 163 72
3 162 163 164
3 165 74 166
3 6 77 75
3 6 79 77
3 7 82 80
3 7 84 82
3 7 86 84
3 8 167 169
3 167 88 168
3 167 168 169
3 10 89 38
3 10 90 89
3 11 170 171
3 11 172 174
3 172 173 174
3 11 175 176
3 8 177 179
3 179 178 41
3 177 178 179
3 8 180 181
3 13 182 184
3 182 91 183
3 182 183 184
3 13 92 91
3 14 95 93
3 16 96 44
3 16 97 96
3 16 99 97
3 17 100 46
3 17 185 187
3 187 186 100
3 185 186 187
3 188 102 189
3 190 103 191
3 20 104 48
3 20 105 104
3 20 107 105
3 21 192 194
3 194 193 50
3 192 193 194
3 21 195 196
3 21 197 198
3 201 200 52
3 199 200 201
3 22 202 204
3 202 109 203
3 202 203 204
3 24 110 54
3 24 111 110
3 9 112 87
3 25 113 57
3 25 114 113
3 25 115 114
3 26 116 59
3 26 117 116
3 22 205 207
3 205 206 207
3 22 208 209
3 12 210 211
3 28 212 214
3 214 213 63
3 212 213 214
3 28 215 216
3 23 119 108
3 29 120 66
3 29 121 120
3 15 122 94
3 30 123 69
3 30 124 123
3 30 125 124
3 217 126 218
3 219 218 71
3 217 218 219
3 221 220 126
3 223 222 98
3 27 127 118
3 31 128 73
3 31 129 128
3 18 130 101
3 32 131 76
3 32 132 131
3 32 133 132
3 33 134 78
3 33 135 134
3 34 224 225
3 34 226 228
3 226 136 227
3 226 227 228
3 19 229 231
3 229 137 230
3 229 230 231
3 35 138 81
3 35 139 138
3 35 140 139
3 36 141 83
3 36 142 141
3 36 143 142
3 232 144 233
3 234 233 85
3 232 233 234
3 236 235 144
3 238 237 106
3 37 38 8
3 39 38 37
3 39 10 38
3 40 239 240
3 40 241 243
3 241 11 242
3 241 242 243
3 40 41 11
3 37 41 40
3 37 8 41
3 42 244 245
3 42 246 248
3 246 13 247
3 246 247 248
3 43 44 14
3 45 44 43
3 45 16 44
3 45 46 16
3 47 46 45
3 47 17 46
3 249 48 250
3 49 251 253
3 251 48 252
3 251 252 253
3 49 20 48
3 49 50 20
3 51 50 49
3 51 21 50
3 51 52 21
3 254 52 255
3 256 255 51
3 254 255 256
3 258 257 52
3 53 54 22
3 55 54 53
3 55 24 54
3 56 57 9
3 58 57 56
3 58 25 57
3 58 59 25
3 60 59 58
3 60 26 59
3 53 259 260
3 53 261 263
3 261 22 262
3 261 262 263
3 61 264 266
3 266 265 12
3 264 265 266
3 62 267 269
3 269 268 61
3 267 268 269
3 62 270 271
3 62 272 274
3 272 63 273
3 272 273 274
3 64 63 62
3 64 28 63
3 65 66 23
3 67 66 65
3 67 29 66
3 68 69 15
3 70 69 68
3 70 30 69
3 70 71 30
3 72 71 70
3 72 275 277
3 277 276 71
3 275 276 277
3 72 278 279
3 281 280 72
3 282 73 283
3 284 283 27
3 282 283 284
3 74 285 287
3 285 73 286
3 285 286 287
3 74 31 73
3 75 76 18
3 77 76 75
3 77 32 76
3 77 78 32
3 79 78 77
3 79 33 78
3 288 34 289
3 80 81 19
3 82 81 80
3 82 35 81
3 82 83 35
3 84 83 82
3 84 36 83
3 84 85 36
3 86 85 84
3 86 290 292
3 292 291 85
3 290 291 292
3 293 87 294
3 88 295 297
3 295 87 296
3 295 296 297
3 88 9 87
3 38 88 8
3 89 88 38
3 89 9 88
3 89 56 9
3 90 56 89
3 90 3 56
3 41 298 300
3 300 299 11
3 298 299 300
3 302 301 41
3 303 12 304
3 91 305 306
3 91 307 309
3 307 12 308
3 307 308 309
3 91 61 12
3 92 61 91
3 92 4 61
3 93 94 2
3 95 94 93
3 95 15 94
3 44 95 14
3 96 95 44
3 96 15 95
3 96 68 15
3 97 68 96
3 97 5 68
3 97 98 5
3 99 98 97
3 99 310 312
3 312 311 98
3 310 311 312
3 46 99 16
3 100 99 46
3 100 313 315
3 315 314 99
3 313 314 315
3 100 316 317
3 319 318 100
3 320 101 321
3 322 101 323
3 324 18 325
3 326 325 101
3 324 325 326
3 327 18 328
3 329 75 330
3 331 330 18
3 329 330 331
3 102 332 334
3 332 75 333
3 332 333 334
3 102 6 75
3 103 335 336
3 103 337 339
3 337 19 338
3 337 338 339
3 48 340 342
3 340 103 341
3 340 341 342
3 104 103 48
3 104 19 103
3 104 80 19
3 105 80 104
3 105 7 80
3 105 106 7
3 107 106 105
3 107 343 345
3 345 344 106
3 343 344 345
3 50 107 20
3 346 107 347
3 348 347 50
3 346 347 348
3 350 349 107
3 52 351 353
3 353 352 21
3 351 352 353
3 355 354 52
3 356 108 357
3 109 358 360
3 358 108 359
3 358 359 360
3 109 23 108
3 54 109 22
3 110 109 54
3 110 23 109
3 110 65 23
3 111 65 110
3 111 2 65
3 87 361 363
3 361 55 362
3 361 362 363
3 112 55 87
3 112 24 55
3 57 112 9
3 113 112 57
3 113 24 112
3 113 111 24
3 114 111 113
3 114 2 111
3 114 93 2
3 115 93 114
3 115 14 93
3 59 115 25
3 116 115 59
3 116 14 115
3 116 43 14
3 117 43 116
3 117 1 43
3 364 118 365
3 366 365 0
3 364 365 366
3 367 118 368
3 369 27 370
3 371 370 118
3 369 370 371
3 372 27 373
3 375 374 27
3 376 0 377
3 379 378 12
3 63 380 381
3 384 383 63
3 382 383 384
3 108 385 387
3 385 42 386
3 385 386 387
3 119 42 108
3 119 13 42
3 66 119 23
3 120 119 66
3 120 13 119
3 120 92 13
3 121 92 120
3 121 4 92
3 94 67 2
3 122 67 94
3 122 29 67
3 69 122 15
3 123 122 69
3 123 29 122
3 123 121 29
3 124 121 123
3 124 4 121
3 124 64 4
3 125 64 124
3 125 28 64
3 71 125 30
3 126 125 71
3 126 28 125
3 126 388 390
3 390 389 28
3 388 389 390
3 392 391 126
3 98 393 395
3 395 394 5
3 393 394 395
3 397 396 98
3 118 39 0
3 127 39 118
3 127 10 39
3 73 127 27
3 128 127 73
3 128 10 127
3 128 90 10
3 129 90 128
3 129 3 90
3 101 398 400
3 398 74 399
3 398 399 400
3 130 74 101
3 130 31 74
3 76 130 18
3 131 130 76
3 131 31 130
3 131 129 31
3 132 129 131
3 132 3 129
3 132 60 3
3 133 60 132
3 133 26 60
3 78 133 32
3 134 133 78
3 134 26 133
3 134 117 26
3 135 117 134
3 135 1 117
3 401 102 402
3 136 403 405
3 403 102 404
3 403 404 405
3 136 6 102
3 137 406 407
3 137 408 410
3 408 34 409
3 408 409 410
3 81 137 19
3 138 137 81
3 138 34 137
3 138 136 34
3 139 136 138
3 139 6 136
3 139 79 6
3 140 79 139
3 140 33 79
3 83 140 35
3 141 140 83
3 141 33 140
3 141 135 33
3 142 135 141
3 142 1 135
3 142 47 1
3 143 47 142
3 143 17 47
3 85 143 36
3 144 143 85
3 144 17 143
3 144 411 413
3 413 412 17
3 411 412 413
3 415 414 144
3 106 86 7
3 416 86 417
3 418 417 106
3 416 417 418
3 420 419 86
