ply
format ascii 1.0
element vertex 584
property float x
property float y
property float z
element face 632
property list uchar int vertex_index
end_header
3.192894 -40.244576 37.971535
-2.725733 -58.574894 3.758702
-12.098032 -52.460793 -8.529631
1.566952 -63.66124 20.244999
-8.017303 -70.113129 4.636198
4.971291 -38.953972 30.500929
4.542828 -51.595329 21.361744
3.046612 -52.785965 29.880951
0.56901 -46.854198 3.881376
-7.204556 -55.622253 -2.746944
0.85845 -54.307819 37.471218
4.815029 -49.501839 12.0087
0.476433 -61.371796 11.594064
4.011803 -39.449402 34.321423
3.978996 -46.022102 30.342216
3.136776 -46.523685 34.175537
-0.648872 -52.657364 3.75296
-3.5539 -51.311855 0.392324
-4.916077 -57.096714 0.354098
-0.470379 -55.426956 41.251221
1.00971 -60.314655 33.110176
3.069283 -57.761196 20.812439
3.171631 -56.794361 16.305086
1.264042 -62.566383 15.88572
-5.352266 -64.487366 4.040823
-7.077211 -63.194149 0.656917
-9.504717 -69.308578 1.373949
6.300911 -38.536591 26.30925
6.1171 -45.070107 21.671295
4.983414 -45.614967 26.210052
3.799015 -52.224201 25.787231
2.697853 -58.594971 25.138893
1.126078 -41.122078 3.834917
-2.70756 -40.738636 0.115228
-3.012867 -45.910263 0.47125
-9.547672 -54.106873 -5.662798
-8.438137 -61.728798 -2.493168
-9.516666 -60.040028 -5.445175
0.719959 -48.458305 41.486748
2.108765 -47.299438 37.867374
2.108297 -53.445641 33.726044
2.028492 -59.425274 29.214191
4.274754 -41.940304 7.762568
3.309433 -48.119366 7.689372
1.536551 -54.141243 7.558913
5.071495 -50.711361 16.678967
2.774094 -55.578999 11.804773
-0.862133 -60.026714 7.517542
-3.516859 -65.675293 7.662637
3.617298 -39.798775 36.159004
3.588432 -43.020531 34.285912
3.17057 -43.358307 36.134548
-1.590036 -55.605217 3.726772
-2.804085 -54.867855 1.987303
-3.79657 -57.835354 2.013212
2.343479 -60.747829 20.512161
2.330906 -60.249744 18.306818
1.472868 -63.120159 18.067322
-6.711256 -67.359131 4.299847
-7.567223 -66.839043 2.609109
-8.842218 -69.73381 2.987334
5.512562 -35.219231 30.469389
6.213474 -34.987289 28.412083
5.601391 -38.75145 28.463156
5.633907 -42.15152 26.301985
5.007366 -42.352409 28.433537
3.514465 -49.426018 30.147629
3.927025 -49.192596 28.134949
3.42997 -52.50161 27.873001
3.252007 -55.431549 25.479147
2.932961 -55.770447 27.554127
0.896818 -43.9869 3.905067
-0.922787 -43.600113 2.117215
-1.145737 -46.338181 2.140731
-5.497156 -53.468632 -1.221449
-5.168362 -50.71241 -1.165936
-6.919718 -52.803123 -2.727253
-8.378117 -52.145844 -4.194954
-8.362408 -54.874657 -4.219353
-8.875345 -65.649101 -0.630276
-7.80743 -62.486889 -0.946453
-9.29026 -64.949226 -2.175304
-10.071135 -59.104622 -6.872854
0.177826 -54.834564 39.350342
0.074537 -51.94331 41.381676
0.791649 -51.329201 39.539322
1.453299 -47.827202 39.68557
1.483307 -50.802414 37.697731
2.106873 -50.359505 35.850006
1.516251 -53.846676 35.601662
1.556934 -59.861015 31.174812
1.827843 -62.19244 26.870346
4.934799 -45.688602 9.849297
4.229942 -48.814888 9.788375
2.52195 -51.146454 7.619688
3.33194 -51.875732 9.712772
5.325245 -48.391052 21.554237
5.730465 -48.002007 19.193506
4.865574 -51.194328 19.039753
2.00246 -59.142323 13.872629
3.058254 -56.22044 14.038893
1.640368 -58.511406 11.691381
1.109482 -57.828251 9.566748
-0.121536 -60.717319 9.521282
-2.177269 -62.89238 7.560797
-1.386892 -63.531651 9.516066
-4.936111 -43.096664 -1.339001
4.427391 -35.774033 34.29216
4.445866 -39.176422 32.444042
4.460293 -42.543579 30.459442
3.998901 -42.75679 32.401527
3.556946 -46.248154 32.285236
3.100796 -49.685669 32.0914
0.068621 -49.740807 3.815653
-1.492336 -49.11911 2.090935
-2.033613 -51.960205 2.024187
-4.117855 -54.1549 0.343363
-6.056721 -56.360298 -1.227999
-0.316149 -58.330116 39.159927
0.297369 -57.808254 37.225235
0.939095 -57.329147 35.318645
0.425484 -60.787319 35.045929
3.792229 -54.712078 21.106747
4.003418 -54.287991 18.826141
3.162205 -57.303654 18.571945
2.223469 -59.71925 16.085974
0.935099 -61.9869 13.721338
-0.710564 -64.146988 11.53642
-0.161079 -64.741196 13.614451
-4.001715 -61.545902 3.861216
-4.967661 -60.842754 2.121093
-6.25021 -63.85812 2.319322
-8.299751 -66.27475 0.965056
-9.958176 -68.808228 -0.200268
6.817463 -31.0417 28.276226
6.952564 -34.744846 26.228958
6.99052 -38.280334 24.034613
6.878155 -41.601997 21.706841
6.287441 -41.909725 24.056122
5.561108 -45.374054 23.990576
4.848518 -48.703125 23.841537
4.448448 -45.820713 28.323843
4.370682 -48.960953 26.036129
4.173054 -51.930664 23.615986
3.535835 -55.085796 23.32888
2.914124 -58.185394 23.00584
2.267159 -61.229507 22.68239
-12.416754 -54.148079 -9.886328
-13.497885 -51.555553 -9.981915
1.343307 -38.241028 3.621072
-0.731358 -40.881058 1.963096
-2.881227 -43.310966 0.377402
-4.985548 -45.557278 -1.155792
-3.206104 -48.568474 0.454769
-5.026415 -48.083672 -1.120857
-6.920303 -47.646622 -2.661707
-9.877131 -51.479916 -5.644344
-10.785254 -53.306652 -7.094368
-5.922642 -60.120296 0.454003
-6.842569 -59.376099 -1.143776
-7.720751 -58.605671 -2.679832
-9.573833 -64.167694 -3.671951
-8.992508 -60.914261 -3.989407
-8.570892 -57.803337 -4.165442
-9.424667 -56.963039 -5.614506
-10.324188 -56.07851 -7.041925
-11.311312 -55.142891 -8.461853
-0.615067 -52.640282 43.231274
-0.04925 -49.191322 43.271133
0.591339 -45.737926 43.270432
1.3906 -44.973907 41.53479
2.096037 -44.324387 39.761925
2.686306 -43.788475 37.959564
2.66658 -46.868809 36.032234
2.64286 -49.991501 33.986065
2.615616 -53.095848 31.82575
1.553171 -56.891254 33.420616
2.098009 -56.490067 31.50845
2.55574 -56.119282 29.559422
2.407593 -59.004997 27.206829
2.097565 -61.708282 24.803616
3.029663 -38.443615 5.633408
2.815445 -41.47699 5.757556
2.521164 -44.476234 5.771875
3.886589 -45.053795 7.747198
2.073685 -47.454697 5.723162
1.423258 -50.424187 5.653682
0.554346 -53.391579 5.595778
-0.513987 -56.356312 5.571238
6.557583 -44.6842 19.277357
5.973152 -47.524582 16.794952
5.079208 -50.14307 14.319892
4.125084 -53.794914 16.510841
4.094921 -53.223534 14.194016
3.847755 -52.577801 11.914883
2.275703 -54.879253 9.635195
0.391745 -57.103966 7.520981
-1.737247 -59.308796 5.594224
-3.059376 -62.229729 5.674938
-4.425089 -65.090454 5.821389
-5.786175 -67.854553 6.038215
-2.673273 -66.248787 9.567846
3.405096 -40.021676 37.065269
3.623911 -38.21645 37.036438
3.411709 -38.439351 37.942704
1.052975 -64.779122 19.06717
1.005933 -64.508581 17.978332
1.51991 -63.390699 19.15616
-12.565774 -51.253052 -8.543579
-11.762379 -51.623524 -7.811459
5.241926 -37.086602 30.485159
5.21258 -35.345215 31.444415
4.941944 -37.212586 31.460185
-9.741159 -66.580558 -1.952811
-9.082802 -65.299163 -1.40279
-9.533701 -66.930496 -1.180297
4.522486 -49.158364 10.898537
4.929028 -47.577129 10.932595
5.221571 -47.920605 12.042758
-5.997674 -43.008926 -2.193145
-5.983682 -44.174524 -2.05098
4.219597 -37.611717 34.306792
4.224979 -35.964371 35.204724
4.017186 -37.802055 35.219355
-0.229042 -59.804535 38.083622
-0.476058 -60.05871 39.087463
0.077717 -59.543604 37.116276
-0.00939 -58.069185 38.192581
-0.229042 -59.804535 38.083622
0.141774 -61.033136 36.026623
0.361426 -59.297787 36.135582
0.077717 -59.543604 37.116276
6.444691 -31.178368 29.320092
6.722919 -29.136674 29.226965
-13.065574 -54.498255 -11.212198
-13.034385 -53.616289 -10.605507
-12.447943 -55.030045 -10.493019
-5.937082 -49.117367 -1.898047
-5.097389 -49.398041 -1.143397
-6.008056 -50.431736 -1.920587
-6.884026 -48.898842 -2.668473
-5.973359 -47.865147 -1.891282
-5.937082 -49.117367 -1.898047
-7.748527 -48.627621 -3.409981
-6.884026 -48.898842 -2.668473
-9.867776 -65.431686 -4.164364
-9.905419 -65.838028 -3.4432
-9.254587 -60.477145 -4.717291
-9.388797 -62.108387 -4.558169
-9.650876 -61.67127 -5.286053
-10.521405 -57.09272 -7.663395
-10.197661 -57.591566 -6.957389
-10.394879 -58.605776 -7.578859
-11.014967 -56.62491 -8.373359
-10.81775 -55.610701 -7.751889
-10.521405 -57.09272 -7.663395
-11.411184 -56.093663 -9.076667
-11.014967 -56.62491 -8.373359
-0.542723 -54.033619 42.241248
-0.824292 -54.358897 43.207434
-0.751948 -55.752234 42.217408
1.755743 -63.228584 24.659409
1.962704 -61.950361 25.836981
1.620882 -63.470663 25.692774
1.82237 -62.954963 23.601343
1.755743 -63.228584 24.659409
3.870148 -36.988436 6.570279
3.136137 -36.904228 5.495148
3.5451 -41.708647 6.760062
3.670754 -40.12307 6.726968
4.400408 -40.354727 7.729474
-2.302258 -66.532917 10.553753
-1.691918 -65.197887 10.552133
-1.320903 -65.482017 11.53804
-2.554053 -39.450518 -0.120461
-1.593426 -39.447374 0.872985
-14.836801 -49.907719 -10.75618
-14.095779 -50.396921 -10.016172
-14.238906 -51.06635 -10.721923
3.819933 -37.976742 36.138146
3.623911 -38.21645 37.036438
3.81455 -39.624088 35.240214
4.017186 -37.802055 35.219355
3.819933 -37.976742 36.138146
0.864395 -64.220675 16.902627
0.759982 -63.943787 15.811825
1.368455 -62.843271 16.976521
0.864395 -64.220675 16.902627
1.005933 -64.508581 17.978332
5.457874 -33.415681 31.400367
5.21258 -35.345215 31.444415
5.79224 -33.267134 30.416674
5.457874 -33.415681 31.400367
5.863018 -35.10326 29.440736
6.142696 -33.151163 29.38802
5.79224 -33.267134 30.416674
-6.883734 -51.477092 -2.701245
-6.008056 -50.431736 -1.920587
-6.04404 -51.757767 -1.946595
-7.648917 -52.474483 -3.461104
-7.612933 -51.148453 -3.435096
-6.883734 -51.477092 -2.701245
-9.759785 -61.197978 -5.997952
-9.650876 -61.67127 -5.286053
-10.037019 -60.730275 -6.711791
-9.7939 -59.572325 -6.159014
-9.759785 -61.197978 -5.997952
-10.19147 -60.21826 -7.413811
-10.037019 -60.730275 -6.711791
-10.394879 -58.605776 -7.578859
-10.19147 -60.21826 -7.413811
1.2821 -61.522179 31.022703
1.283322 -60.087835 32.142494
1.008488 -61.748998 31.990385
1.507886 -61.272812 30.031155
1.2821 -61.522179 31.022703
1.743665 -61.054941 29.050845
1.792713 -59.643145 30.194502
1.507886 -61.272812 30.031155
1.643341 -62.438524 27.878923
1.928168 -60.808857 28.042268
1.743665 -61.054941 29.050845
1.500692 -63.748358 26.72934
1.643341 -62.438524 27.878923
1.620882 -63.470663 25.692774
1.500692 -63.748358 26.72934
5.021511 -40.570757 8.801214
4.400408 -40.354727 7.729474
5.281456 -46.013987 10.963056
5.595054 -44.382978 10.97855
4.58237 -47.251745 9.818836
5.281456 -46.013987 10.963056
4.929028 -47.577129 10.932595
-4.852466 -41.879227 -1.531985
-3.73819 -40.700212 -0.80487
-3.821836 -41.91765 -0.611886
-4.852466 -41.879227 -1.531985
-5.997674 -43.008926 -2.193145
-9.010551 -71.297485 4.042193
-8.615084 -71.403748 4.83895
4.417982 -34.08294 35.157427
4.224979 -35.964371 35.204724
4.63979 -33.868105 34.249508
4.417982 -34.08294 35.157427
4.669994 -35.622616 33.355801
4.63979 -33.868105 34.249508
4.679232 -37.323811 32.431742
4.669994 -35.622616 33.355801
4.436628 -37.475228 33.368101
4.708578 -39.065197 31.472486
4.941944 -37.212586 31.460185
4.679232 -37.323811 32.431742
-0.657978 -57.159182 41.194244
-0.751948 -55.752234 42.217408
-0.580863 -58.610761 40.148598
-0.476058 -60.05871 39.087463
-0.393264 -56.878536 40.205574
-0.657978 -57.159182 41.194244
-0.580863 -58.610761 40.148598
0.218635 -62.486799 34.939453
0.141774 -61.033136 36.026623
0.466936 -62.236269 33.944631
0.218635 -62.486799 34.939453
0.759049 -61.999937 32.976755
0.717597 -60.550987 34.078052
0.466936 -62.236269 33.944631
1.008488 -61.748998 31.990385
0.759049 -61.999937 32.976755
5.38874 -48.232529 13.207341
5.221571 -47.920605 12.042758
-1.046161 -65.779122 12.577056
-1.320903 -65.482017 11.53804
-0.435821 -64.444092 12.575436
0.047421 -65.031193 14.676191
0.551482 -63.65379 14.750086
0.759982 -63.943787 15.811825
-0.738629 -66.063748 13.595367
0.047421 -65.031193 14.676191
-1.046161 -65.779122 12.577056
-0.738629 -66.063748 13.595367
-10.075117 -68.510059 -0.965293
-9.533701 -66.930496 -1.180297
-9.41676 -67.228665 -0.415272
-9.423009 -71.107826 3.21776
-8.429761 -69.92347 3.811766
-9.010551 -71.297485 4.042193
-9.726437 -70.983421 2.432078
-9.423009 -71.107826 3.21776
-10.057686 -70.770805 1.625386
-9.173468 -69.521194 2.180642
-9.726437 -70.983421 2.432078
-10.23695 -70.604774 0.854093
-10.057686 -70.770805 1.625386
-10.463679 -70.354599 0.066985
-9.731447 -69.058403 0.586841
-10.23695 -70.604774 0.854093
-10.507286 -70.130639 -0.685283
-10.463679 -70.354599 0.066985
-11.012789 -71.677009 -0.418031
-10.075117 -68.510059 -0.965293
-10.507286 -70.130639 -0.685283
7.101628 -28.977116 28.161293
6.722919 -29.136674 29.226965
7.18688 -30.903495 27.165534
7.471044 -28.838911 27.050601
7.101628 -28.977116 28.161293
6.515468 -33.014494 28.344155
6.444691 -31.178368 29.320092
6.142696 -33.151163 29.38802
7.25443 -32.755069 26.1419
7.18688 -30.903495 27.165534
6.885013 -32.893273 27.252592
7.292278 -34.605993 25.075232
7.25443 -32.755069 26.1419
7.311256 -36.373737 23.978059
7.292278 -34.605993 25.075232
6.971542 -36.51259 25.131785
7.277494 -38.121532 22.845626
7.311256 -36.373737 23.978059
6.934337 -39.941165 22.870727
7.221311 -39.782364 21.68174
7.277494 -38.121532 22.845626
-13.57495 -52.320026 -10.653301
-12.95732 -52.851816 -9.934121
-13.034385 -53.616289 -10.605507
-14.238906 -51.06635 -10.721923
-13.57495 -52.320026 -10.653301
3.183375 -38.735546 38.827942
3.411709 -38.439351 37.942704
0.432007 -38.198571 2.625907
1.485348 -36.784302 3.42325
-0.605325 -39.518586 1.79692
0.432007 -38.198571 2.625907
0.305975 -39.561043 2.792084
-1.719459 -40.809847 1.039162
-1.593426 -39.447374 0.872985
-0.605325 -39.518586 1.79692
-6.0084 -45.404831 -1.959375
-5.983682 -44.174524 -2.05098
-4.96083 -44.326971 -1.247397
-6.975777 -46.449503 -2.712333
-6.0084 -45.404831 -1.959375
-5.952925 -46.60195 -1.908749
-7.89413 -47.438399 -3.425192
-6.975777 -46.449503 -2.712333
-7.89413 -47.438399 -3.425192
-7.748527 -48.627621 -3.409981
-8.477435 -50.877232 -4.176604
-7.612933 -51.148453 -3.435096
-9.226942 -50.544268 -4.9013
-8.477435 -50.877232 -4.176604
-9.127624 -51.81288 -4.919649
-10.113706 -50.27039 -5.639399
-9.226942 -50.544268 -4.9013
-10.651929 -51.133085 -6.368816
-10.113706 -50.27039 -5.639399
-11.105991 -52.046453 -7.093828
-10.651929 -51.133085 -6.368816
-10.331193 -52.393284 -6.369356
-11.441643 -52.883723 -7.812
-11.762379 -51.623524 -7.811459
-11.105991 -52.046453 -7.093828
-9.763632 -66.228794 -2.694877
-9.741159 -66.580558 -1.952811
-9.432047 -64.55846 -2.923628
-9.763632 -66.228794 -2.694877
-9.905419 -65.838028 -3.4432
-9.67946 -63.735103 -4.399442
-9.867776 -65.431686 -4.164364
-9.283171 -62.540977 -3.830679
-9.67946 -63.735103 -4.399442
-9.388797 -62.108387 -4.558169
-11.963905 -55.596257 -9.788905
-11.864033 -54.645485 -9.174091
-11.411184 -56.093663 -9.076667
-12.447943 -55.030045 -10.493019
-11.963905 -55.596257 -9.788905
2.93403 -40.522782 38.86538
3.183375 -38.735546 38.827942
-0.921632 -53.023255 44.164349
-0.824292 -54.358897 43.207434
-0.709062 -51.327772 44.137953
-0.921632 -53.023255 44.164349
-0.426154 -49.603292 44.157882
-0.709062 -51.327772 44.137953
-0.332159 -50.915802 43.251204
-0.153863 -47.899868 44.119716
-0.426154 -49.603292 44.157882
0.166431 -46.17317 44.119366
-0.153863 -47.899868 44.119716
0.271044 -47.464624 43.270782
0.465795 -44.46102 44.05929
0.040887 -44.896264 44.908224
0.166431 -46.17317 44.119366
0.914848 -44.005316 43.240063
0.465795 -44.46102 44.05929
1.314479 -43.623306 42.372242
0.914848 -44.005316 43.240063
0.99097 -45.355916 42.402611
1.708012 -43.225147 41.522617
1.314479 -43.623306 42.372242
2.06073 -42.900387 40.636185
1.708012 -43.225147 41.522617
1.743318 -44.649147 40.648358
2.385602 -42.562687 39.760575
2.06073 -42.900387 40.636185
2.680737 -42.294731 38.859394
2.385602 -42.562687 39.760575
2.391172 -44.056431 38.860744
2.9396 -42.016526 37.96555
2.93403 -40.522782 38.86538
2.680737 -42.294731 38.859394
1.907167 -62.715576 22.54073
2.182362 -61.468894 23.743003
1.82237 -62.954963 23.601343
1.557064 -63.931443 21.322034
1.917056 -62.445374 21.463695
1.907167 -62.715576 22.54073
1.128197 -65.070115 20.146387
1.557064 -63.931443 21.322034
1.052975 -64.779122 19.06717
1.128197 -65.070115 20.146387
2.292959 -36.802934 4.48898
1.485348 -36.784302 3.42325
2.186485 -38.342321 4.62724
2.292959 -36.802934 4.48898
3.136137 -36.904228 5.495148
3.777862 -38.606383 6.664894
3.870148 -36.988436 6.570279
2.922554 -39.960302 5.695482
3.777862 -38.606383 6.664894
3.670754 -40.12307 6.726968
4.856917 -42.213606 8.819303
5.021511 -40.570757 8.801214
5.186939 -44.087755 9.862668
5.595054 -44.382978 10.97855
4.662834 -43.770352 8.811618
5.186939 -44.087755 9.862668
4.410694 -45.371199 8.798248
4.080671 -43.49705 7.754883
4.856917 -42.213606 8.819303
4.662834 -43.770352 8.811618
7.088508 -41.408699 20.496405
7.221311 -39.782364 21.68174
6.928223 -42.9498 19.281663
7.088508 -41.408699 20.496405
6.717869 -43.143098 20.492099
6.668988 -44.44804 18.064258
6.928223 -42.9498 19.281663
6.376772 -45.868231 16.823055
6.668988 -44.44804 18.064258
6.265367 -46.104391 18.036154
5.967802 -47.243901 15.600466
6.376772 -45.868231 16.823055
5.52083 -48.553145 14.362936
5.967802 -47.243901 15.600466
5.52618 -48.833826 15.557422
4.947119 -49.822454 13.164296
5.38874 -48.232529 13.207341
5.52083 -48.553145 14.362936
-3.325264 -67.546307 9.626788
-2.302258 -66.532917 10.553753
-3.76414 -67.296577 8.69902
-3.325264 -67.546307 9.626788
-4.185933 -67.00983 7.746416
-3.095066 -65.96204 8.615241
-3.76414 -67.296577 8.69902
-5.320591 -68.09946 6.934205
-4.651517 -66.764923 6.850426
-4.185933 -67.00983 7.746416
-6.443351 -69.167664 6.180626
-5.320591 -68.09946 6.934205
-7.558915 -70.296952 5.479617
-6.901739 -68.983841 5.337207
-6.443351 -69.167664 6.180626
-8.615084 -71.403748 4.83895
-7.558915 -70.296952 5.479617
-2.554053 -39.450518 -0.120461
-3.73819 -40.700212 -0.80487
-13.265701 -50.800432 -9.269721
-12.565774 -51.253052 -8.543579
-12.797959 -52.008173 -9.255773
-13.265701 -50.800432 -9.269721
-14.095779 -50.396921 -10.016172
3 0 202 204
3 202 49 203
3 202 203 204
3 0 51 49
3 1 54 52
3 3 57 55
3 3 205 207
3 207 206 57
3 205 206 207
3 2 208 209
3 4 60 58
3 5 210 212
3 210 61 211
3 210 211 212
3 5 63 61
3 5 65 63
3 7 68 66
3 7 70 68
3 8 73 71
3 9 76 74
3 9 78 76
3 213 81 214
3 215 214 79
3 213 214 215
3 10 85 83
3 10 87 85
3 10 89 87
3 11 216 218
3 216 93 217
3 216 217 218
3 11 95 93
3 6 98 96
3 12 101 99
3 12 103 101
3 12 105 103
3 220 219 106
3 13 221 223
3 221 107 222
3 221 222 223
3 13 108 107
3 13 110 108
3 15 111 50
3 15 112 111
3 16 115 113
3 18 116 53
3 18 117 116
3 224 118 225
3 226 119 227
3 228 227 118
3 226 227 228
3 229 121 230
3 231 230 119
3 229 230 231
3 21 124 122
3 23 125 56
3 23 126 125
3 23 128 126
3 24 131 129
3 26 132 59
3 26 133 132
3 232 134 233
3 27 135 62
3 27 136 135
3 27 138 136
3 29 139 64
3 29 140 139
3 14 141 109
3 30 142 67
3 30 143 142
3 30 144 143
3 31 145 69
3 31 146 145
3 236 235 147
3 234 235 236
3 32 150 149
3 34 151 72
3 34 152 151
3 17 153 114
3 237 154 238
3 239 238 75
3 237 238 239
3 240 155 241
3 242 241 154
3 240 241 242
3 244 243 155
3 35 156 77
3 35 157 156
3 25 158 130
3 36 159 80
3 36 160 159
3 245 161 246
3 37 247 249
3 247 162 248
3 247 248 249
3 37 163 162
3 37 164 163
3 250 165 251
3 252 251 82
3 250 251 252
3 253 166 254
3 255 254 165
3 253 254 255
3 257 256 166
3 19 258 260
3 258 167 259
3 258 259 260
3 38 168 84
3 38 169 168
3 38 170 169
3 39 171 86
3 39 172 171
3 39 173 172
3 40 174 88
3 40 175 174
3 20 176 120
3 41 177 90
3 41 178 177
3 41 179 178
3 261 180 262
3 263 262 91
3 261 262 263
3 265 264 180
3 266 181 267
3 42 268 270
3 268 182 269
3 268 269 270
3 42 183 182
3 43 184 92
3 43 185 184
3 43 186 185
3 44 187 94
3 44 188 187
3 28 189 137
3 45 190 97
3 45 191 190
3 22 192 123
3 46 193 100
3 46 194 193
3 46 195 194
3 47 196 102
3 47 197 196
3 47 198 197
3 48 199 104
3 48 200 199
3 271 201 272
3 273 272 127
3 271 272 273
3 33 274 275
3 278 277 148
3 276 277 278
3 49 279 280
3 49 281 283
3 281 13 282
3 281 282 283
3 49 50 13
3 51 50 49
3 51 15 50
3 52 53 16
3 54 53 52
3 54 18 53
3 55 56 21
3 57 56 55
3 57 23 56
3 57 284 286
3 286 285 23
3 284 285 286
3 288 287 57
3 58 59 24
3 60 59 58
3 60 26 59
3 61 289 290
3 61 291 292
3 61 293 295
3 293 62 294
3 293 294 295
3 63 62 61
3 63 27 62
3 63 64 27
3 65 64 63
3 65 29 64
3 66 67 14
3 68 67 66
3 68 30 67
3 68 69 30
3 70 69 68
3 70 31 69
3 71 72 32
3 73 72 71
3 73 34 72
3 74 75 17
3 76 75 74
3 76 296 298
3 298 297 75
3 296 297 298
3 76 299 301
3 299 77 300
3 299 300 301
3 78 77 76
3 78 35 77
3 79 80 25
3 81 80 79
3 81 36 80
3 302 37 303
3 304 82 305
3 306 305 37
3 304 305 306
3 307 82 308
3 310 309 82
3 83 84 19
3 85 84 83
3 85 38 84
3 85 86 38
3 87 86 85
3 87 39 86
3 87 88 39
3 89 88 87
3 89 40 88
3 311 90 312
3 313 312 20
3 311 312 313
3 314 90 315
3 316 41 317
3 318 317 90
3 316 317 318
3 319 91 320
3 321 320 41
3 319 320 321
3 322 91 323
3 325 324 91
3 326 42 327
3 328 92 329
3 93 330 332
3 330 92 331
3 330 331 332
3 93 43 92
3 93 94 43
3 95 94 93
3 95 44 94
3 96 97 28
3 98 97 96
3 98 45 97
3 99 100 22
3 101 100 99
3 101 46 100
3 101 102 46
3 103 102 101
3 103 47 102
3 103 104 47
3 105 104 103
3 105 48 104
3 106 333 335
3 335 334 33
3 333 334 335
3 337 336 106
3 339 338 4
3 107 340 341
3 107 342 343
3 107 344 345
3 108 346 348
3 348 347 107
3 346 347 348
3 108 349 351
3 349 5 350
3 349 350 351
3 108 109 5
3 110 109 108
3 110 14 109
3 50 110 13
3 111 110 50
3 111 14 110
3 111 66 14
3 112 66 111
3 112 7 66
3 113 114 8
3 115 114 113
3 115 17 114
3 53 115 16
3 116 115 53
3 116 17 115
3 116 74 17
3 117 74 116
3 117 9 74
3 352 19 353
3 118 354 355
3 118 356 358
3 356 19 357
3 356 357 358
3 118 83 19
3 119 83 118
3 119 10 83
3 119 120 10
3 121 120 119
3 121 20 120
3 359 121 360
3 361 121 362
3 363 20 364
3 365 364 121
3 363 364 365
3 367 366 20
3 368 11 369
3 122 123 6
3 124 123 122
3 124 22 123
3 56 124 21
3 125 124 56
3 125 22 124
3 125 99 22
3 126 99 125
3 126 12 99
3 126 127 12
3 128 127 126
3 128 370 372
3 372 371 127
3 370 371 372
3 373 128 374
3 375 374 23
3 373 374 375
3 376 128 377
3 379 378 128
3 129 130 1
3 131 130 129
3 131 25 130
3 59 131 24
3 132 131 59
3 132 25 131
3 132 79 25
3 133 79 132
3 133 380 382
3 382 381 79
3 380 381 382
3 383 60 384
3 385 384 4
3 383 384 385
3 386 60 387
3 388 26 389
3 390 389 60
3 388 389 390
3 391 26 392
3 393 133 394
3 395 394 26
3 393 394 395
3 396 133 397
3 396 397 398
3 400 399 133
3 134 401 402
3 134 403 405
3 403 404 405
3 62 406 408
3 406 134 407
3 406 407 408
3 135 134 62
3 135 409 411
3 411 410 134
3 409 410 411
3 135 412 413
3 136 414 416
3 416 415 135
3 414 415 416
3 136 417 418
3 136 419 421
3 419 137 420
3 419 420 421
3 138 137 136
3 138 28 137
3 64 138 27
3 139 138 64
3 139 28 138
3 139 96 28
3 140 96 139
3 140 6 96
3 109 65 5
3 141 65 109
3 141 29 65
3 67 141 14
3 142 141 67
3 142 29 141
3 142 140 29
3 143 140 142
3 143 6 140
3 143 122 6
3 144 122 143
3 144 21 122
3 69 144 30
3 145 144 69
3 145 21 144
3 145 55 21
3 146 55 145
3 146 3 55
3 147 148 2
3 422 148 423
3 424 423 147
3 422 423 424
3 426 425 148
3 427 0 428
3 149 429 430
3 150 431 433
3 433 432 149
3 431 432 433
3 150 434 436
3 434 33 435
3 434 435 436
3 72 150 32
3 151 150 72
3 151 33 150
3 151 106 33
3 152 106 151
3 152 437 439
3 439 438 106
3 437 438 439
3 114 73 8
3 153 73 114
3 153 34 73
3 75 153 17
3 154 153 75
3 154 34 153
3 154 152 34
3 155 152 154
3 155 440 442
3 442 441 152
3 440 441 442
3 155 443 444
3 446 445 155
3 77 447 448
3 156 449 451
3 451 450 77
3 449 450 451
3 156 452 453
3 156 454 455
3 157 456 458
3 458 457 156
3 456 457 458
3 157 459 461
3 459 2 460
3 459 460 461
3 130 54 1
3 158 54 130
3 158 18 54
3 80 158 25
3 159 158 80
3 159 18 158
3 159 117 18
3 160 117 159
3 160 9 117
3 462 81 463
3 161 464 466
3 464 81 465
3 464 465 466
3 161 36 81
3 467 161 468
3 162 469 471
3 469 161 470
3 469 470 471
3 162 36 161
3 162 160 36
3 163 160 162
3 163 9 160
3 163 78 9
3 164 78 163
3 164 35 78
3 82 164 37
3 165 164 82
3 165 35 164
3 165 157 35
3 166 157 165
3 166 2 157
3 166 147 2
3 472 147 473
3 474 473 166
3 472 473 474
3 476 475 147
3 477 0 478
3 167 479 480
3 167 481 482
3 84 167 19
3 168 167 84
3 168 483 485
3 485 484 167
3 483 484 485
3 168 486 487
3 169 488 490
3 490 489 168
3 488 489 490
3 169 491 493
3 491 492 493
3 169 494 495
3 170 496 498
3 498 497 169
3 496 497 498
3 170 499 500
3 86 170 38
3 171 170 86
3 171 501 503
3 503 502 170
3 501 502 503
3 171 504 505
3 172 506 508
3 508 507 171
3 506 507 508
3 172 509 511
3 509 0 510
3 509 510 511
3 172 51 0
3 173 51 172
3 173 15 51
3 88 173 39
3 174 173 88
3 174 15 173
3 174 112 15
3 175 112 174
3 175 7 112
3 120 89 10
3 176 89 120
3 176 40 89
3 90 176 20
3 177 176 90
3 177 40 176
3 177 175 40
3 178 175 177
3 178 7 175
3 178 70 7
3 179 70 178
3 179 31 70
3 91 179 41
3 180 179 91
3 180 31 179
3 180 146 31
3 512 146 513
3 514 513 180
3 512 513 514
3 515 3 516
3 517 516 146
3 515 516 517
3 518 3 519
3 521 520 3
3 522 149 523
3 181 524 526
3 524 149 525
3 524 525 526
3 181 32 149
3 527 181 528
3 182 529 531
3 529 181 530
3 529 530 531
3 182 32 181
3 182 71 32
3 183 71 182
3 183 8 71
3 532 42 533
3 92 534 535
3 184 536 538
3 538 537 92
3 536 537 538
3 184 539 541
3 539 42 540
3 539 540 541
3 184 183 42
3 185 183 184
3 185 8 183
3 185 113 8
3 186 113 185
3 186 16 113
3 94 186 43
3 187 186 94
3 187 16 186
3 187 52 16
3 188 52 187
3 188 1 52
3 137 542 543
3 189 544 546
3 546 545 137
3 544 545 546
3 189 547 548
3 97 189 28
3 190 189 97
3 190 549 551
3 551 550 189
3 549 550 551
3 190 552 553
3 191 554 556
3 556 555 190
3 554 555 556
3 191 557 559
3 557 11 558
3 557 558 559
3 123 98 6
3 192 98 123
3 192 45 98
3 100 192 22
3 193 192 100
3 193 45 192
3 193 191 45
3 194 191 193
3 194 11 191
3 194 95 11
3 195 95 194
3 195 44 95
3 102 195 46
3 196 195 102
3 196 44 195
3 196 188 44
3 197 188 196
3 197 1 188
3 197 129 1
3 198 129 197
3 198 24 129
3 104 198 47
3 199 198 104
3 199 24 198
3 199 58 24
3 200 58 199
3 200 4 58
3 127 105 12
3 201 105 127
3 201 48 105
3 560 201 561
3 562 201 563
3 564 48 565
3 566 565 201
3 564 565 566
3 567 200 568
3 569 568 48
3 567 568 569
3 570 200 571
3 572 4 573
3 574 573 200
3 572 573 574
3 576 575 4
3 578 577 33
3 148 579 581
3 581 580 2
3 579 580 581
3 583 582 148
