ply
format ascii 1.0
element vertex 383
property float x
property float y
property float z
element face 385
property list uchar int vertex_index
end_header
7.359165 19.914791 -13.461033
3.022797 54.22295 -14.312969
0.917259 57.477436 11.303925
4.95668 26.397987 -21.151928
2.506313 58.240627 -2.260046
5.861725 37.297432 -14.221491
3.464291 46.257603 -24.194122
6.265396 22.715164 -16.840439
4.581264 46.177761 -14.629206
4.780293 49.378681 -9.482582
1.842192 58.484745 4.369421
4.33252 52.565205 2.350189
3.424545 52.315868 8.836615
2.215927 50.828671 15.497937
1.943552 58.668644 -19.034969
3.225574 50.712337 -19.631618
4.401314 42.002594 -19.153545
1.387388 61.495144 -12.986744
2.849934 56.776836 -8.498795
0.92247 63.345654 -6.581097
0.408689 64.095261 0.155144
-0.216171 63.662457 7.234134
8.035919 22.277199 -10.161642
4.771458 51.555759 -3.798845
-0.831696 62.048771 14.602974
-0.036783 55.287884 18.406719
4.244949 36.74905 -22.867279
5.408394 32.519882 -18.025387
6.884739 21.132282 -14.935665
6.646019 17.934574 -16.294542
7.230473 16.988052 -14.430553
3.828182 50.306995 -14.587454
4.689842 47.89909 -12.126661
3.843548 51.875202 -11.907249
1.4002 58.135227 7.806239
2.634575 55.482166 6.584925
2.118738 55.002224 9.971655
2.841679 51.721615 12.155491
1.559473 54.216724 13.401024
2.37875 56.472858 -16.692478
2.588493 54.773716 -19.47905
3.112999 52.582767 -17.044579
3.820892 48.502277 -17.129166
4.354954 28.369465 -23.37273
4.612675 22.87257 -22.470055
0.641258 64.909775 -11.939058
1.151491 62.550152 -9.824078
0.360023 65.791702 -8.639843
-0.149817 66.76767 -1.827171
-0.402893 66.838364 1.696908
0.106583 64.028458 3.65305
-0.656658 66.621307 5.304435
0.959192 63.783344 -15.165951
2.712765 57.654789 -5.431107
3.787155 54.253323 -6.174549
3.652939 55.024723 -3.133179
5.203667 49.433903 4.711808
5.537601 49.19495 1.615105
3.867043 41.616547 -23.627708
5.082912 39.72604 -16.647068
4.925354 37.343925 -18.631771
5.622906 35.064106 -16.20997
6.102165 30.306614 -15.746349
5.603695 24.495125 -18.947041
5.293842 21.01767 -20.377689
5.983974 19.336842 -18.297241
5.262341 41.833462 -14.484976
5.453678 43.690956 -12.158628
5.630928 45.309978 -9.677937
5.759583 46.686642 -7.050472
2.216015 58.519787 1.009703
3.41766 55.493099 0.015636
3.075127 55.646908 3.260194
3.93066 52.599186 5.561209
4.74416 49.359615 7.876988
4.180431 48.974216 11.087772
2.816257 52.847416 -22.099442
3.352524 48.607868 -22.033524
3.858906 44.170067 -21.690811
3.83374 46.460247 -19.50906
4.481213 44.215961 -16.978134
2.195873 57.943264 -13.781096
2.943401 55.626186 -11.460716
2.029711 59.17384 -10.767313
1.857929 60.147015 -7.659634
1.654924 60.843464 -4.459139
0.101416 66.41539 -5.270773
0.679699 63.865047 -3.255875
1.400478 61.246639 -1.165211
1.086153 61.345661 2.220531
0.718157 61.136326 5.692205
0.31629 60.620785 9.23913
1.648808 60.197186 -16.063597
7.67329 20.959358 -12.011118
3.840683 53.196644 -9.100908
4.818584 50.603916 -6.704346
4.613598 52.214634 -0.775911
5.736431 48.648052 -1.390343
-0.538034 63.000111 10.889021
-0.09041 59.806545 12.846262
-1.070753 60.819843 18.357029
-0.469999 58.7057 16.495188
0.427004 56.522953 14.843978
0.992252 53.140476 16.853611
4.088013 33.690643 -24.341217
4.606255 31.66357 -22.008739
4.332798 39.518986 -21.127506
4.778088 34.660374 -20.423981
5.200676 29.630058 -19.670811
5.854202 27.606594 -17.412498
6.521866 25.592926 -15.319294
7.709526 16.908749 -12.64543
8.120419 17.663975 -10.757156
0.178414 67.003662 -9.647612
0.500641 65.350739 -10.289451
0.319032 66.562698 -11.297219
-0.696227 68.176628 2.573246
-0.594603 68.214569 0.75602
-0.823109 68.0681 4.37701
-0.529775 66.729836 3.500672
-0.696227 68.176628 2.573246
0.319032 66.562698 -11.297219
0.49257 66.082756 -12.978481
6.268889 35.980528 -13.067626
6.119088 34.964686 -14.069746
5.792435 47.692654 4.357737
5.600189 47.762051 5.886705
3.324657 47.267506 -25.388958
3.247929 48.471958 -24.34339
3.488542 44.95275 -25.121469
3.324657 47.267506 -25.388958
3.665667 43.937075 -23.910915
3.689919 42.632221 -24.838262
3.488542 44.95275 -25.121469
6.119088 34.964686 -14.069746
5.999678 33.848022 -15.063985
5.742316 36.180769 -15.21573
6.486973 16.077126 -17.009746
6.818795 15.593538 -16.012825
2.879072 49.557496 14.910495
3.191948 50.003968 13.239272
2.528803 51.275143 13.826714
2.5397 49.069298 16.531138
2.879072 49.557496 14.910495
2.102469 57.791343 -20.448087
1.825087 59.751683 -20.17604
5.07179 19.147098 -21.043562
5.448372 18.310734 -20.05347
-0.228574 67.904442 -4.506565
-0.09977 67.673523 -6.250523
5.287947 49.68082 -4.041522
5.31151 49.204899 -5.494273
4.795021 51.079837 -5.251596
6.182031 47.078937 -0.185205
5.637016 48.921501 0.112381
6.082617 47.352386 1.317519
6.235 46.711775 -1.627807
6.182031 47.078937 -0.185205
-0.684865 62.524441 12.745997
-0.824124 64.160296 11.821002
-0.970955 63.684626 13.677979
-1.15328 60.074211 20.243315
-1.21336 61.859032 19.390059
-0.253391 56.996792 17.450953
-0.632068 58.020038 18.330303
-0.415459 56.311131 19.286069
4.166481 35.219847 -23.604248
3.949173 36.239731 -24.805658
4.027641 37.768934 -24.068689
6.663563 26.776795 -14.48657
6.312016 27.94977 -15.532822
6.453712 29.133638 -14.700098
6.831787 24.557617 -14.405869
6.663563 26.776795 -14.48657
7.638685 14.886429 -13.195281
7.882605 15.019092 -12.178647
7.111021 15.120277 -15.080831
6.818795 15.593538 -16.012825
6.938246 17.461313 -15.362547
4.155619 26.596561 -23.939251
4.077423 29.366156 -24.449232
4.284479 23.848114 -23.487913
4.155619 26.596561 -23.939251
4.483815 25.621018 -22.921392
4.35273 21.003927 -23.044283
4.284479 23.848114 -23.487913
-0.468065 68.179222 -1.00602
-0.35419 68.080582 -2.784764
-0.276355 66.803017 -0.065132
-0.468065 68.179222 -1.00602
-0.594603 68.214569 0.75602
0.651537 65.519541 -14.591928
0.850042 64.92164 -16.235348
0.800225 64.346559 -13.552504
0.651537 65.519541 -14.591928
0.49257 66.082756 -12.978481
5.959402 47.573177 2.809385
5.370634 49.314426 3.163457
5.792435 47.692654 4.357737
6.082617 47.352386 1.317519
5.959402 47.573177 2.809385
-1.050027 63.146876 15.586341
-0.970955 63.684626 13.677979
-0.241235 54.540066 20.189495
-0.415459 56.311131 19.286069
0.206959 53.540287 19.358662
-0.241235 54.540066 20.189495
3.838688 40.202682 -24.448904
3.689919 42.632221 -24.838262
4.055996 39.182798 -23.247493
4.027641 37.768934 -24.068689
3.838688 40.202682 -24.448904
6.239308 31.469276 -14.832175
5.862535 32.68536 -15.97816
5.999678 33.848022 -15.063985
6.453712 29.133638 -14.700098
6.239308 31.469276 -14.832175
8.268278 20.53587 -9.423016
8.215488 22.987196 -9.12535
5.793437 17.47032 -19.013247
5.448372 18.310734 -20.05347
5.638908 20.177256 -19.337465
6.15595 16.77826 -18.011095
6.314996 18.635708 -17.295891
6.486973 16.077126 -17.009746
5.793437 17.47032 -19.013247
6.15595 16.77826 -18.011095
5.690268 40.549065 -13.273791
5.98996 38.28105 -13.142048
5.562033 39.565447 -14.353233
5.785937 41.477812 -12.110616
5.690268 40.549065 -13.273791
5.358009 42.762209 -13.321802
5.910801 42.343403 -10.949045
5.785937 41.477812 -12.110616
5.999426 43.152914 -9.708699
5.910801 42.343403 -10.949045
5.542303 44.500467 -10.918283
6.103924 43.904526 -8.468597
5.999426 43.152914 -9.708699
6.168252 44.592858 -7.154865
6.103924 43.904526 -8.468597
5.695256 45.99831 -8.364204
6.234426 45.225883 -5.840519
6.168252 44.592858 -7.154865
5.370436 47.724907 7.469295
5.600189 47.762051 5.886705
4.973914 49.396759 6.294398
5.116259 47.641628 9.023013
5.370436 47.724907 7.469295
4.834395 47.448929 10.628404
5.116259 47.641628 9.023013
4.462295 49.166916 9.48238
4.530103 47.215145 12.195485
4.834395 47.448929 10.628404
3.861324 48.630268 12.705412
3.511055 50.347915 11.621631
3.191948 50.003968 13.239272
4.530103 47.215145 12.195485
3.861324 48.630268 12.705412
2.42494 55.843879 -20.670128
2.102469 57.791343 -20.448087
2.266023 56.72118 -19.25701
2.538822 54.88073 -21.980324
2.42494 55.843879 -20.670128
2.702375 53.810566 -20.789246
2.6935 53.888222 -23.289925
2.538822 54.88073 -21.980324
2.923912 51.766865 -23.29605
2.6935 53.888222 -23.289925
3.192045 49.647091 -23.263091
2.923912 51.766865 -23.29605
3.08439 50.727642 -22.066483
3.408408 47.432736 -23.113823
3.247929 48.471958 -24.34339
3.192045 49.647091 -23.263091
4.731207 20.074548 -22.089745
4.953259 21.94512 -21.423872
5.07179 19.147098 -21.043562
4.35273 21.003927 -23.044283
4.731207 20.074548 -22.089745
0.029533 67.361679 -7.935059
0.178414 67.003662 -9.647612
0.230719 66.103546 -6.955308
0.029533 67.361679 -7.935059
-0.09977 67.673523 -6.250523
-0.0242 66.59153 -3.548972
-0.228574 67.904442 -4.506565
-0.35419 68.080582 -2.784764
1.630961 60.546013 -18.669556
1.825087 59.751683 -20.17604
1.13878 63.103363 -16.735046
0.850042 64.92164 -16.235348
1.483588 61.310284 -17.18387
1.13878 63.103363 -16.735046
1.304 61.990265 -15.614774
1.79618 59.432915 -17.549283
1.630961 60.546013 -18.669556
1.483588 61.310284 -17.18387
7.407499 22.240833 -12.751781
7.516227 20.437075 -12.736076
7.250437 21.71855 -13.476739
7.567941 23.147545 -11.90345
7.407499 22.240833 -12.751781
7.749256 23.806466 -10.978712
7.854604 21.618279 -11.08638
7.567941 23.147545 -11.90345
7.924242 24.641312 -10.010064
7.749256 23.806466 -10.978712
8.215488 22.987196 -9.12535
7.924242 24.641312 -10.010064
6.268889 35.980528 -13.067626
5.98996 38.28105 -13.142048
5.78201 47.246262 -5.667336
5.289084 48.645279 -6.877409
5.31151 49.204899 -5.494273
6.234426 45.225883 -5.840519
5.78201 47.246262 -5.667336
5.770433 48.226967 -2.837271
5.287947 49.68082 -4.041522
5.253944 50.101906 -2.594594
5.770433 48.226967 -2.837271
6.235 46.711775 -1.627807
-0.911091 67.890541 6.234559
-0.823109 68.0681 4.37701
-0.777847 66.367965 7.14863
-0.911091 67.890541 6.234559
-0.557603 64.888541 8.11348
-0.436414 65.141882 6.269284
-0.777847 66.367965 7.14863
-0.718535 64.557367 9.940923
-0.824124 64.160296 11.821002
-0.377103 63.331284 9.061578
-0.557603 64.888541 8.11348
-0.718535 64.557367 9.940923
-1.169555 62.532411 17.463369
-1.21336 61.859032 19.390059
-0.951225 61.434307 16.480002
-1.050027 63.146876 15.586341
-1.169555 62.532411 17.463369
-0.932445 59.07711 19.261224
-1.15328 60.074211 20.243315
-0.770376 59.762771 17.426108
-0.932445 59.07711 19.261224
-0.632068 58.020038 18.330303
0.721477 52.466583 18.582107
0.477735 54.21418 17.630165
0.206959 53.540287 19.358662
1.287437 51.397335 17.849649
0.721477 52.466583 18.582107
1.899274 50.241433 17.171812
1.60409 51.984573 16.175774
1.287437 51.397335 17.849649
2.5397 49.069298 16.531138
1.899274 50.241433 17.171812
3.858742 34.689694 -25.458681
3.949173 36.239731 -24.805658
3.943952 32.026744 -24.933476
3.858742 34.689694 -25.458681
4.221483 31.030054 -23.856974
4.077423 29.366156 -24.449232
3.943952 32.026744 -24.933476
7.013224 22.327295 -14.214055
6.703302 23.362604 -15.127479
6.831787 24.557617 -14.405869
7.250437 21.71855 -13.476739
7.121952 20.523536 -14.198349
7.013224 22.327295 -14.214055
8.088051 15.396705 -11.23451
7.882605 15.019092 -12.178647
7.914973 17.286362 -11.701293
8.310528 18.229258 -9.720773
8.078169 19.970587 -10.459399
8.268278 20.53587 -9.423016
8.296862 15.791582 -10.163845
8.310528 18.229258 -9.720773
8.088051 15.396705 -11.23451
8.296862 15.791582 -10.163845
7.399159 14.92608 -14.087843
7.47 16.9484 -13.537992
7.638685 14.886429 -13.195281
7.111021 15.120277 -15.080831
7.399159 14.92608 -14.087843
3 0 30 28
3 1 33 31
3 2 36 34
3 2 38 36
3 1 41 39
3 1 31 41
3 3 44 43
3 113 47 114
3 115 114 45
3 113 114 115
3 116 49 117
3 118 51 119
3 120 119 49
3 118 119 120
3 121 45 122
3 5 123 124
3 4 55 53
3 126 125 56
3 6 127 128
3 6 129 130
3 6 131 133
3 131 58 132
3 131 132 133
3 5 61 59
3 5 134 136
3 136 135 61
3 134 135 136
3 7 65 63
3 138 137 29
3 8 67 66
3 9 68 32
3 9 69 68
3 10 72 70
3 12 73 35
3 12 74 73
3 12 75 74
3 13 139 141
3 141 140 37
3 139 140 141
3 13 142 143
3 14 144 145
3 15 76 40
3 15 77 76
3 15 79 77
3 8 80 42
3 8 66 80
3 147 146 64
3 17 83 81
3 19 84 46
3 19 85 84
3 148 86 149
3 20 87 48
3 20 88 87
3 20 89 88
3 21 90 50
3 21 91 90
3 17 92 52
3 17 81 92
3 18 94 82
3 23 95 54
3 23 150 152
3 152 151 95
3 150 151 152
3 11 96 71
3 153 97 154
3 155 154 57
3 153 154 155
3 157 156 97
3 24 158 160
3 158 98 159
3 158 159 160
3 24 99 98
3 161 100 162
3 25 163 165
3 163 101 164
3 163 164 165
3 25 102 101
3 25 103 102
3 26 166 168
3 166 104 167
3 166 167 168
3 26 105 104
3 16 106 78
3 27 107 60
3 27 108 107
3 27 109 108
3 169 110 170
3 171 170 62
3 169 170 171
3 173 172 110
3 22 112 93
3 175 174 111
3 28 29 7
3 30 29 28
3 30 176 178
3 178 177 29
3 176 177 178
3 31 32 8
3 33 32 31
3 33 9 32
3 34 35 10
3 36 35 34
3 36 12 35
3 36 37 12
3 38 37 36
3 38 13 37
3 39 40 14
3 41 40 39
3 41 15 40
3 41 42 15
3 31 42 41
3 31 8 42
3 43 179 180
3 44 181 183
3 183 182 43
3 181 182 183
3 44 184 185
3 45 46 17
3 47 46 45
3 47 19 46
3 186 48 187
3 49 188 190
3 188 48 189
3 188 189 190
3 49 20 48
3 49 50 20
3 51 50 49
3 51 21 50
3 191 52 192
3 45 193 195
3 193 52 194
3 193 194 195
3 45 17 52
3 53 54 18
3 55 54 53
3 55 23 54
3 56 57 11
3 196 57 197
3 198 197 56
3 196 197 198
3 200 199 57
3 201 24 202
3 203 25 204
3 206 205 25
3 58 207 208
3 58 209 211
3 209 26 210
3 209 210 211
3 59 60 16
3 61 60 59
3 61 27 60
3 61 62 27
3 212 62 213
3 214 213 61
3 212 213 214
3 216 215 62
3 218 217 22
3 63 64 3
3 65 64 63
3 65 219 221
3 221 220 64
3 219 220 221
3 29 65 7
3 222 65 223
3 224 223 29
3 222 223 224
3 226 225 65
3 66 227 229
3 229 228 5
3 227 228 229
3 67 230 232
3 232 231 66
3 230 231 232
3 67 233 234
3 32 67 8
3 68 67 32
3 68 235 237
3 237 236 67
3 235 236 237
3 68 238 239
3 69 240 242
3 242 241 68
3 240 241 242
3 69 243 244
3 70 71 4
3 72 71 70
3 72 11 71
3 35 72 10
3 73 72 35
3 73 11 72
3 73 56 11
3 74 56 73
3 74 245 247
3 247 246 56
3 245 246 247
3 74 248 249
3 75 250 252
3 252 251 74
3 250 251 252
3 75 253 254
3 37 75 12
3 255 75 256
3 257 256 37
3 255 256 257
3 259 258 75
3 40 260 262
3 262 261 14
3 260 261 262
3 76 263 265
3 265 264 40
3 263 264 265
3 76 266 267
3 76 268 269
3 77 270 272
3 272 271 76
3 270 271 272
3 77 273 275
3 273 6 274
3 273 274 275
3 77 78 6
3 79 78 77
3 79 16 78
3 42 79 15
3 80 79 42
3 80 16 79
3 80 59 16
3 66 59 80
3 66 5 59
3 64 44 3
3 276 44 277
3 278 277 64
3 276 277 278
3 280 279 44
3 81 82 1
3 83 82 81
3 83 18 82
3 46 83 17
3 84 83 46
3 84 18 83
3 84 53 18
3 85 53 84
3 85 4 53
3 281 47 282
3 86 283 285
3 283 47 284
3 283 284 285
3 86 19 47
3 48 286 288
3 286 86 287
3 286 287 288
3 87 86 48
3 87 19 86
3 87 85 19
3 88 85 87
3 88 4 85
3 88 70 4
3 89 70 88
3 89 10 70
3 50 89 20
3 90 89 50
3 90 10 89
3 90 34 10
3 91 34 90
3 91 2 34
3 289 14 290
3 52 291 292
3 92 293 295
3 295 294 52
3 293 294 295
3 92 296 298
3 296 14 297
3 296 297 298
3 92 39 14
3 81 39 92
3 81 1 39
3 299 93 300
3 301 300 0
3 299 300 301
3 302 93 303
3 304 22 305
3 306 305 93
3 304 305 306
3 307 22 308
3 310 309 22
3 312 311 5
3 82 33 1
3 94 33 82
3 94 9 33
3 54 94 18
3 95 94 54
3 95 9 94
3 95 69 9
3 313 69 314
3 315 314 95
3 313 314 315
3 317 316 69
3 71 55 4
3 96 55 71
3 96 23 55
3 57 96 11
3 97 96 57
3 97 23 96
3 97 318 320
3 320 319 23
3 318 319 320
3 322 321 97
3 323 51 324
3 325 51 326
3 327 21 328
3 329 328 51
3 327 328 329
3 98 330 331
3 98 332 334
3 332 21 333
3 332 333 334
3 98 91 21
3 99 91 98
3 99 2 91
3 100 335 336
3 100 337 339
3 337 24 338
3 337 338 339
3 340 100 341
3 101 342 344
3 342 100 343
3 342 343 344
3 101 24 100
3 101 99 24
3 102 99 101
3 102 2 99
3 102 38 2
3 103 38 102
3 103 13 38
3 345 103 346
3 347 346 25
3 345 346 347
3 348 103 349
3 350 13 351
3 352 351 103
3 350 351 352
3 354 353 13
3 104 355 356
3 104 357 358
3 104 359 361
3 359 43 360
3 359 360 361
3 105 43 104
3 105 3 43
3 78 58 6
3 106 58 78
3 106 26 58
3 60 106 16
3 107 106 60
3 107 26 106
3 107 105 26
3 108 105 107
3 108 3 105
3 108 63 3
3 109 63 108
3 109 7 63
3 62 109 27
3 110 109 62
3 110 7 109
3 110 28 7
3 362 28 363
3 364 363 110
3 362 363 364
3 365 0 366
3 367 366 28
3 365 366 367
3 93 111 0
3 112 111 93
3 112 368 370
3 370 369 111
3 368 369 370
3 371 112 372
3 373 372 22
3 371 372 373
3 374 112 375
3 377 376 112
3 111 30 0
3 378 30 379
3 380 379 111
3 378 379 380
3 382 381 30
