ply
format ascii 1.0
element vertex 356
property float x
property float y
property float z
element face 377
property list uchar int vertex_index
end_header
3.62484 -98.800415 1.014847
4.467888 -120.595085 -1.732639
2.215578 -110.527573 -0.653854
8.464184 -86.885422 0.577958
3.166445 -99.522499 9.137257
9.259214 -89.393875 7.417199
13.704596 -79.669525 4.778914
2.450436 -104.762596 0.245845
2.265038 -109.154083 -5.053541
2.148937 -102.971313 -3.50868
1.209015 -105.015068 9.603779
8.627937 -89.176605 11.560843
12.06287 -84.619576 6.140661
6.871096 -124.336121 -1.787933
7.777819 -123.529396 -7.561543
2.903324 -115.879265 -1.351109
5.197063 -119.589027 -7.175062
3.314762 -114.743439 -6.339998
5.703695 -92.829529 1.206652
3.048992 -96.448593 -2.237713
4.998421 -89.834267 -1.836802
1.990078 -116.045143 4.227386
1.524126 -110.806213 4.392855
2.1555 -105.243256 4.646094
3.805567 -99.642326 4.796871
5.279943 -94.019669 12.869998
6.043673 -94.297218 8.432982
6.277014 -94.188919 4.572034
9.201134 -88.884415 3.800022
11.973747 -83.532745 2.568504
2.920362 -101.792244 0.675177
2.322983 -104.055443 -1.719412
2.696606 -100.960114 -1.137346
5.565819 -122.614929 -1.801954
7.325418 -124.083466 -4.74901
6.014402 -122.29364 -4.697701
2.446497 -113.267746 -1.039286
3.173569 -115.453659 -3.939552
2.62483 -112.803551 -3.490126
7.026041 -89.859726 0.993984
5.297098 -91.536224 -0.337931
6.605696 -88.395615 -0.535057
1.618189 -113.487213 4.293205
0.999264 -110.693771 7.105012
2.046038 -102.248528 9.393064
1.721817 -105.172585 7.055979
2.517368 -102.394333 7.001493
2.86224 -102.43277 4.751196
3.568848 -99.651375 6.896229
9.001888 -89.314407 9.418742
7.348808 -91.686234 10.021674
7.653753 -91.812317 7.964351
6.265377 -94.351784 6.434971
7.790993 -91.799446 6.04579
7.714254 -91.526779 4.255749
9.334444 -89.288788 5.548388
13.069986 -82.183792 5.456623
12.111958 -84.255013 4.30302
13.15303 -81.658539 3.617907
13.056374 -80.761322 1.87487
13.841389 -78.971962 2.941034
11.489302 -125.512032 -10.166645
5.445272 -118.652725 -9.570232
6.742176 -120.787132 -9.916603
2.215895 -107.683807 -0.213852
2.294422 -110.005745 -2.950329
2.19133 -107.080986 -2.344959
2.085176 -106.123116 -4.286915
9.92923 -83.885117 -0.003981
8.050226 -85.24826 -0.961967
2.708195 -99.365578 11.528292
10.160742 -86.893951 10.877611
10.530489 -87.004349 8.773277
10.761808 -87.009613 6.802726
11.82971 -84.717972 8.097502
12.807673 -82.413666 7.40766
13.392836 -80.053421 6.72268
8.805931 -125.540565 -4.684271
9.29277 -125.061012 -7.567156
9.784971 -124.261414 -10.237341
3.579201 -118.3339 -1.582422
4.879831 -120.228584 -4.543024
3.929354 -117.936806 -4.290421
4.159973 -117.266426 -6.814556
2.678513 -112.034508 -5.749233
3.414524 -113.708771 -8.50518
4.558155 -95.809082 1.206823
3.318495 -97.826485 -0.671345
4.189539 -94.680305 -0.38895
3.897465 -93.142715 -1.90234
5.125292 -122.661522 1.191267
4.002266 -120.707573 1.197783
3.124041 -118.48893 1.26047
2.489561 -116.06279 1.382415
2.099564 -113.477669 1.56463
1.95612 -110.773079 1.802267
1.210091 -107.952667 7.084181
1.705326 -108.045578 4.516973
2.060305 -107.982246 2.080703
2.410133 -105.135513 2.373048
2.999653 -102.261917 2.640475
3.818533 -99.387688 2.83629
4.102879 -96.709244 11.07645
6.961134 -91.545532 12.226169
5.680735 -94.147324 10.574906
4.520969 -96.866875 8.82156
4.835949 -96.967171 6.714516
4.956825 -96.891808 4.747017
4.850515 -96.532417 2.913518
6.06971 -93.704552 2.834467
7.43511 -90.898857 2.579584
8.885311 -88.097176 2.152826
10.806782 -86.78669 4.958284
10.653673 -86.230957 3.22552
10.336044 -85.272896 1.581878
11.683119 -82.398308 0.913405
6.408199 -121.688797 -7.425409
8.195843 -122.669548 -10.143696
2.466993 -99.734489 -2.797476
0.751706 -110.596054 8.519725
1.048891 -112.021293 7.117142
12.712136 -125.465683 -11.313987
11.776351 -124.988019 -11.402705
6.259123 -119.111542 -10.841652
5.578949 -118.022972 -10.62348
2.100379 -103.877399 -4.764855
2.068499 -105.4533 -5.153973
2.117057 -104.547214 -3.897797
9.732197 -82.981667 -0.786211
10.619213 -82.361504 -0.348361
2.514438 -99.319474 12.803522
2.139935 -100.729206 11.731148
10.803922 -85.779678 10.529511
10.564155 -85.737533 11.63542
10.988795 -85.834877 9.477343
10.345616 -86.94915 9.825444
10.803922 -85.779678 10.529511
11.638406 -84.691688 9.139456
11.1801 -85.861161 8.435389
10.988795 -85.834877 9.477343
12.868427 -81.313198 8.094127
12.600141 -82.432663 8.443426
13.161009 -80.133075 7.751637
13.100255 -81.233543 7.06517
12.868427 -81.313198 8.094127
7.838513 -124.938343 -3.236102
8.591943 -125.619808 -3.184781
7.624525 -125.017586 -1.736612
3.82163 -115.516423 -7.721381
4.244236 -116.777916 -7.95866
3.737367 -116.004932 -6.577277
3.512975 -113.013492 -9.449132
3.068272 -112.31419 -8.140199
3.982705 -114.341496 -9.806428
3.512975 -113.013492 -9.449132
4.419881 -90.527878 -2.604594
3.869403 -92.182102 -2.637363
4.447943 -91.488491 -1.869571
7.181073 -85.887852 -1.505387
7.908429 -84.232158 -1.734311
4.349982 -121.622154 2.693192
4.958232 -122.552342 2.704015
3.788468 -120.64518 2.69645
4.563779 -121.684548 1.194525
4.349982 -121.622154 2.693192
2.315765 -117.237331 4.211823
1.75138 -115.954895 5.693307
2.55706 -117.267036 2.743928
2.882747 -118.459225 2.728365
2.315765 -117.237331 4.211823
1.209553 -106.483868 8.34398
0.949287 -107.867005 8.433027
0.948748 -106.398205 9.692826
4.489741 -95.310315 13.179521
5.11373 -94.012604 14.097316
4.691411 -95.364456 11.973224
3.901209 -96.655102 12.282747
4.489741 -95.310315 13.179521
7.794536 -90.361068 11.893506
7.59015 -90.319996 13.036835
8.423551 -89.135532 12.704172
12.934252 -80.107071 1.040021
13.429213 -79.330788 1.534122
8.399914 -122.081848 -11.285314
7.46901 -121.72834 -10.03015
7.67308 -121.14064 -11.171767
9.236318 -122.904267 -11.377741
8.399914 -122.081848 -11.285314
2.49353 -110.036846 -6.414379
2.264716 -108.545174 -5.992427
1.544298 -114.696979 5.67833
1.75138 -115.954895 5.693307
1.358354 -113.418014 5.711239
1.804134 -114.766178 4.260295
1.544298 -114.696979 5.67833
1.308727 -112.090492 5.699109
1.358354 -113.418014 5.711239
1.048891 -112.021293 7.117142
5.933306 -92.757095 13.726719
5.11373 -94.012604 14.097316
13.821721 -78.436108 2.067204
13.429213 -79.330788 1.534122
13.448881 -79.866642 2.407952
12.387363 -125.940003 -10.028968
11.214037 -125.86958 -8.791322
12.387363 -125.940003 -10.028968
12.712136 -125.465683 -11.313987
6.907574 -120.178745 -11.014837
6.093724 -119.719929 -9.743417
6.259123 -119.111542 -10.841652
7.67308 -121.14064 -11.171767
6.907574 -120.178745 -11.014837
2.725681 -97.281964 -3.279025
3.016946 -95.564335 -2.975829
2.174785 -107.02969 -5.609115
2.264716 -108.545174 -5.992427
2.175107 -107.638599 -4.670228
2.174785 -107.02969 -5.609115
2.068499 -105.4533 -5.153973
8.792695 -83.663239 -1.265204
8.989728 -84.566688 -0.482974
9.732197 -82.981667 -0.786211
7.908429 -84.232158 -1.734311
8.792695 -83.663239 -1.265204
0.978569 -104.934238 10.949854
0.948748 -106.398205 9.692826
1.390346 -103.553951 10.768891
0.978569 -104.934238 10.949854
1.808857 -102.170681 10.663534
1.627526 -103.631798 9.498421
1.390346 -103.553951 10.768891
2.377116 -100.807053 10.460678
1.808857 -102.170681 10.663534
2.139935 -100.729206 11.731148
9.173458 -87.987076 12.339411
8.423551 -89.135532 12.704172
9.93986 -86.845748 11.997795
10.564155 -85.737533 11.63542
9.39434 -88.035278 11.219227
9.173458 -87.987076 12.339411
9.93986 -86.845748 11.997795
12.111159 -83.584816 8.788346
11.638406 -84.691688 9.139456
12.318691 -83.565819 7.752581
12.111159 -83.584816 8.788346
12.600141 -82.432663 8.443426
9.624133 -126.074569 -4.58543
8.591943 -125.619808 -3.184781
9.872352 -125.883846 -6.050135
9.624133 -126.074569 -4.58543
10.115771 -125.64407 -7.491578
9.872352 -125.883846 -6.050135
9.04935 -125.300789 -6.125713
10.391036 -125.286522 -8.8669
11.214037 -125.86958 -8.791322
10.115771 -125.64407 -7.491578
10.924186 -124.362709 -11.438053
11.776351 -124.988019 -11.402705
10.637137 -124.886723 -10.201993
4.886885 -117.471066 -9.336498
4.802623 -117.959575 -8.192394
4.244236 -116.777916 -7.95866
5.578949 -118.022972 -10.62348
4.886885 -117.471066 -9.336498
2.700267 -111.477058 -6.762225
2.471776 -110.594296 -5.401387
2.49353 -110.036846 -6.414379
3.046519 -112.87164 -7.127206
2.700267 -111.477058 -6.762225
3.068272 -112.31419 -8.140199
3.871511 -114.999088 -8.803972
3.82163 -115.516423 -7.721381
3.364643 -114.226105 -7.422589
3.871511 -114.999088 -8.803972
3.982705 -114.341496 -9.806428
3.441183 -93.911396 -2.808142
3.016946 -95.564335 -2.975829
3.473229 -94.795654 -2.070026
3.441183 -93.911396 -2.808142
3.869403 -92.182102 -2.637363
6.458808 -87.461529 -1.291932
7.327961 -86.821938 -0.748512
7.181073 -85.887852 -1.505387
5.65517 -88.180855 -1.942805
5.802058 -89.114941 -1.18593
6.458808 -87.461529 -1.291932
4.975433 -88.79636 -2.584468
5.65517 -88.180855 -1.942805
4.419881 -90.527878 -2.604594
4.975433 -88.79636 -2.584468
6.681718 -124.312947 -0.275014
7.624525 -125.017586 -1.736612
5.808816 -123.475647 1.214586
4.958232 -122.552342 2.704015
5.998194 -123.498822 -0.298333
6.681718 -124.312947 -0.275014
5.808816 -123.475647 1.214586
3.321859 -119.568546 2.697021
3.788468 -120.64518 2.69645
3.563153 -119.598252 1.229127
3.321859 -119.568546 2.697021
2.882747 -118.459225 2.728365
0.843873 -109.237556 8.443443
0.751706 -110.596054 8.519725
1.104677 -109.323219 7.094596
0.843873 -109.237556 8.443443
0.949287 -107.867005 8.433027
3.203867 -97.983269 12.508668
2.514438 -99.319474 12.803522
3.405537 -98.037411 11.302371
3.203867 -97.983269 12.508668
3.901209 -96.655102 12.282747
6.773901 -91.520027 13.404804
7.59015 -90.319996 13.036835
6.120539 -92.782601 12.548084
5.933306 -92.757095 13.726719
6.773901 -91.520027 13.404804
11.496157 -81.618099 0.110332
10.619213 -82.361504 -0.348361
10.806175 -83.141712 0.454712
12.247625 -80.925564 0.559289
12.369746 -81.579815 1.394138
12.934252 -80.107071 1.040021
11.496157 -81.618099 0.110332
12.247625 -80.925564 0.559289
13.20647 -78.983307 7.410631
13.161009 -80.133075 7.751637
13.466425 -78.830662 6.392881
13.20647 -78.983307 7.410631
13.622305 -78.638714 5.420998
13.548716 -79.861473 5.750797
13.466425 -78.830662 6.392881
13.807498 -78.362751 4.457315
13.622305 -78.638714 5.420998
13.875894 -78.01397 3.538375
13.772993 -79.320743 3.859974
13.807498 -78.362751 4.457315
13.975093 -77.578198 2.624948
13.875894 -78.01397 3.538375
13.821721 -78.436108 2.067204
13.975093 -77.578198 2.624948
10.030883 -123.700199 -11.424564
8.990407 -123.465481 -10.190518
9.236318 -122.904267 -11.377741
10.924186 -124.362709 -11.438053
10.030883 -123.700199 -11.424564
2.434681 -98.924912 -3.558906
2.757993 -98.091541 -2.517594
2.725681 -97.281964 -3.279025
2.280622 -100.615371 -3.958686
2.434681 -98.924912 -3.558906
2.121595 -102.233783 -4.314288
2.307965 -101.352901 -3.153078
2.280622 -100.615371 -3.958686
2.100379 -103.877399 -4.764855
2.121595 -102.233783 -4.314288
3 0 32 30
3 1 35 33
3 2 38 36
3 3 41 39
3 119 43 120
3 4 46 44
3 4 48 46
3 5 51 49
3 5 53 51
3 5 55 53
3 6 58 56
3 6 60 58
3 122 121 61
3 124 123 62
3 7 66 64
3 9 67 31
3 9 125 127
3 127 126 67
3 125 126 127
3 129 128 68
3 130 70 131
3 132 71 133
3 134 72 135
3 136 135 71
3 134 135 136
3 137 74 138
3 139 138 72
3 137 138 139
3 140 75 141
3 142 76 143
3 144 143 75
3 142 143 144
3 13 145 147
3 145 77 146
3 145 146 147
3 14 78 34
3 14 79 78
3 15 82 80
3 17 83 37
3 17 148 150
3 150 149 83
3 148 149 150
3 8 84 65
3 151 85 152
3 154 153 85
3 18 88 86
3 20 89 40
3 20 155 157
3 157 156 89
3 155 156 157
3 159 158 69
3 160 90 161
3 162 91 163
3 164 163 90
3 162 163 164
3 21 165 166
3 21 167 169
3 167 92 168
3 167 168 169
3 21 93 92
3 22 94 42
3 22 95 94
3 10 170 172
3 170 96 171
3 170 171 172
3 23 97 45
3 23 98 97
3 23 99 98
3 24 100 47
3 24 101 100
3 25 173 174
3 25 175 177
3 175 102 176
3 175 176 177
3 11 178 180
3 178 103 179
3 178 179 180
3 26 104 50
3 26 105 104
3 26 106 105
3 27 107 52
3 27 108 107
3 27 109 108
3 28 110 54
3 28 111 110
3 12 112 73
3 29 113 57
3 29 114 113
3 29 115 114
3 182 181 59
3 16 116 81
3 183 117 184
3 185 184 63
3 183 184 185
3 187 186 117
3 19 118 87
3 30 31 7
3 32 31 30
3 32 9 31
3 33 34 13
3 35 34 33
3 35 14 34
3 36 37 15
3 38 37 36
3 38 17 37
3 189 188 8
3 39 40 18
3 41 40 39
3 41 20 40
3 190 21 191
3 192 42 193
3 194 193 21
3 192 193 194
3 43 195 197
3 195 42 196
3 195 196 197
3 43 22 42
3 44 45 10
3 46 45 44
3 46 23 45
3 46 47 23
3 48 47 46
3 48 24 47
3 198 25 199
3 49 50 11
3 51 50 49
3 51 26 50
3 51 52 26
3 53 52 51
3 53 27 52
3 53 54 27
3 55 54 53
3 55 28 54
3 56 57 12
3 58 57 56
3 58 29 57
3 58 59 29
3 60 59 58
3 60 200 202
3 202 201 59
3 200 201 202
3 61 203 204
3 206 205 61
3 62 63 16
3 207 63 208
3 209 208 62
3 207 208 209
3 211 210 63
3 213 212 19
3 64 65 2
3 66 65 64
3 66 8 65
3 31 66 7
3 67 66 31
3 67 8 66
3 67 214 216
3 216 215 8
3 214 215 216
3 218 217 67
3 68 69 3
3 219 69 220
3 221 220 68
3 219 220 221
3 223 222 69
3 224 10 225
3 226 10 227
3 228 44 229
3 230 229 10
3 228 229 230
3 70 231 233
3 231 44 232
3 231 232 233
3 70 4 44
3 234 11 235
3 71 236 237
3 71 238 240
3 238 11 239
3 238 239 240
3 71 49 11
3 72 49 71
3 72 5 49
3 72 73 5
3 74 73 72
3 74 12 73
3 241 74 242
3 75 243 245
3 243 74 244
3 243 244 245
3 75 12 74
3 75 56 12
3 76 56 75
3 76 6 56
3 77 246 247
3 77 248 249
3 34 77 13
3 78 77 34
3 78 250 252
3 252 251 77
3 250 251 252
3 78 253 255
3 253 61 254
3 253 254 255
3 79 61 78
3 79 256 258
3 258 257 61
3 256 257 258
3 80 81 1
3 82 81 80
3 82 16 81
3 37 82 15
3 83 82 37
3 83 16 82
3 83 62 16
3 259 62 260
3 261 260 83
3 259 260 261
3 263 262 62
3 65 38 2
3 84 38 65
3 84 17 38
3 264 84 265
3 266 265 8
3 264 265 266
3 85 267 269
3 267 84 268
3 267 268 269
3 85 17 84
3 85 270 272
3 272 271 17
3 270 271 272
3 274 273 85
3 86 87 0
3 88 87 86
3 88 19 87
3 40 88 18
3 89 88 40
3 89 19 88
3 89 275 277
3 277 276 19
3 275 276 277
3 279 278 89
3 69 41 3
3 280 41 281
3 282 281 69
3 280 281 282
3 283 20 284
3 285 284 41
3 283 284 285
3 286 20 287
3 289 288 20
3 290 13 291
3 90 292 293
3 90 294 296
3 294 13 295
3 294 295 296
3 90 33 13
3 91 33 90
3 91 1 33
3 297 91 298
3 92 299 301
3 299 91 300
3 299 300 301
3 92 1 91
3 92 80 1
3 93 80 92
3 93 15 80
3 42 93 21
3 94 93 42
3 94 15 93
3 94 36 15
3 95 36 94
3 95 2 36
3 302 43 303
3 96 304 306
3 304 43 305
3 304 305 306
3 96 22 43
3 45 96 10
3 97 96 45
3 97 22 96
3 97 95 22
3 98 95 97
3 98 2 95
3 98 64 2
3 99 64 98
3 99 7 64
3 47 99 23
3 100 99 47
3 100 7 99
3 100 30 7
3 101 30 100
3 101 0 30
3 307 70 308
3 102 309 311
3 309 70 310
3 309 310 311
3 102 4 70
3 103 312 313
3 103 314 316
3 314 25 315
3 314 315 316
3 50 103 11
3 104 103 50
3 104 25 103
3 104 102 25
3 105 102 104
3 105 4 102
3 105 48 4
3 106 48 105
3 106 24 48
3 52 106 26
3 107 106 52
3 107 24 106
3 107 101 24
3 108 101 107
3 108 0 101
3 108 86 0
3 109 86 108
3 109 18 86
3 54 109 27
3 110 109 54
3 110 18 109
3 110 39 18
3 111 39 110
3 111 3 39
3 73 55 5
3 112 55 73
3 112 28 55
3 57 112 12
3 113 112 57
3 113 28 112
3 113 111 28
3 114 111 113
3 114 3 111
3 114 68 3
3 115 68 114
3 115 317 319
3 319 318 68
3 317 318 319
3 59 115 29
3 320 115 321
3 322 321 59
3 320 321 322
3 324 323 115
3 325 76 326
3 327 76 328
3 329 6 330
3 331 330 76
3 329 330 331
3 332 6 333
3 334 60 335
3 336 335 6
3 334 335 336
3 337 60 338
3 340 339 60
3 81 35 1
3 116 35 81
3 116 14 35
3 63 116 16
3 117 116 63
3 117 14 116
3 117 79 14
3 341 79 342
3 343 342 117
3 341 342 343
3 345 344 79
3 87 32 0
3 118 32 87
3 118 9 32
3 346 118 347
3 348 347 19
3 346 347 348
3 349 118 350
3 351 9 352
3 353 352 118
3 351 352 353
3 355 354 9
