ply
format ascii 1.0
element vertex 352
property float x
property float y
property float z
element face 369
property list uchar int vertex_index
end_header
-1.269779 -119.455109 -3.612608
-5.426655 -97.988327 5.072063
-0.605923 -109.002121 2.118323
-1.732515 -102.337601 -2.612814
-11.5261 -87.532394 5.66717
-7.868162 -91.44458 -0.020724
-0.236984 -114.483932 -0.537788
-0.551962 -111.64299 -3.441158
-1.244701 -116.521637 -6.759668
-8.859602 -92.719269 5.470083
-10.330582 -90.133606 2.756076
-6.844727 -95.51944 2.372836
-2.420549 -103.420944 4.031309
-3.521292 -100.905518 1.392601
-1.306992 -106.329819 -0.575954
-3.582781 -123.457214 -6.78026
-3.272011 -120.57991 -10.092014
-12.390921 -82.558456 5.977412
-9.853828 -88.981537 8.70483
-7.0007 -94.016159 8.554932
-3.661013 -99.310059 8.175034
-0.960796 -104.955597 7.24403
0.422436 -110.832535 5.57383
0.303291 -116.557159 3.211085
-1.226929 -121.597137 0.374807
-12.614647 -84.733017 3.132225
-11.184721 -85.894073 0.401966
-4.306929 -96.910889 -0.830265
-0.585835 -117.061951 -2.044121
-0.689041 -115.727112 -3.679098
-1.282682 -118.100571 -5.307966
-7.158703 -95.339478 5.324802
-7.961416 -94.278381 3.921852
-6.189056 -96.938705 3.679315
-1.338346 -106.203156 3.183363
-1.843071 -105.062485 1.783187
-1.007866 -107.807266 0.678581
-0.713734 -112.315979 -6.221481
-0.609732 -109.804459 -4.549461
-5.188053 -124.957626 -8.296122
-4.964037 -123.694489 -10.119957
-6.785734 -124.890411 -11.575005
-8.565636 -91.474319 8.640226
-7.62048 -91.887527 10.335251
-4.361309 -97.057144 10.132036
-2.749542 -99.79277 9.923992
-2.175667 -102.089615 7.795613
-2.474993 -123.685379 -1.119631
-12.218239 -84.994217 5.80012
-12.713305 -83.749237 4.548402
-12.174841 -86.332794 4.334029
-9.213541 -90.964828 1.359988
-10.842375 -88.219604 1.534545
-9.655745 -88.681824 0.193423
-8.274466 -88.815475 -1.126863
-2.559055 -101.813522 -0.573772
-3.934311 -99.105591 0.240418
-2.847492 -99.629929 -1.58005
-3.109119 -118.776291 -11.341089
-0.239525 -111.77887 0.86441
-0.538713 -110.529388 -0.633341
-0.435999 -113.185867 -2.104019
-0.724104 -114.160461 -5.074957
-1.175169 -114.679321 -7.949247
-10.367071 -90.116104 5.567616
-11.119108 -88.971329 4.186588
-9.661772 -91.624374 4.068057
-8.649261 -92.831741 2.601554
-7.398623 -93.689133 1.142519
-3.809177 -100.679977 4.654828
-4.501581 -99.618408 3.272632
-3.024137 -102.327057 2.649308
-2.241402 -103.617004 0.538025
-1.529974 -104.515625 -1.663414
-0.742992 -109.017731 -1.920115
-0.878555 -107.19046 -3.006411
-1.002825 -105.016235 -3.918051
-2.2731 -121.60553 -5.204353
-2.201578 -120.253433 -6.948195
-3.432396 -122.134232 -8.563925
-4.753262 -122.184174 -11.672903
-11.833109 -83.474045 7.312115
-11.530851 -85.894379 7.211553
-10.730612 -88.38707 7.126633
-9.498491 -90.920212 7.052423
-7.958229 -93.484329 6.96358
-6.263706 -96.087296 6.817883
-6.036572 -94.427414 10.256434
-5.314222 -96.622238 8.414206
-4.571875 -98.744995 6.564648
-3.021265 -101.470734 6.156017
-1.719007 -104.265915 5.557412
-0.736603 -107.115189 4.753863
-0.083374 -107.883896 6.503579
-0.112581 -109.985733 3.750759
0.140657 -112.830383 2.569769
0.028418 -115.592178 1.242489
-0.43442 -118.208755 -0.195128
-0.295006 -119.198029 1.833734
-1.230061 -120.615967 -1.705338
-2.342216 -122.750214 -3.247705
-3.757647 -124.550629 -4.776293
-12.940348 -82.099777 3.459045
-12.800976 -82.717468 2.058775
-11.706718 -87.426529 2.912445
-12.092916 -85.461151 1.746517
-12.257557 -83.094368 0.685246
-5.088667 -98.207062 1.991533
-5.585934 -96.399139 0.795162
-6.025534 -94.184525 -0.332607
-3.169241 -97.07605 -2.513638
-4.690624 -94.337738 -1.84457
-6.444536 -91.586182 -1.408676
-2.098553 -118.677383 -8.444555
-1.978302 -116.847885 -9.670572
-0.714198 -111.236786 -6.674837
-0.921293 -112.427032 -7.549414
-6.931511 -125.475212 -10.637254
-5.986893 -124.924019 -9.935564
-6.13267 -125.50882 -8.997813
-7.851086 -90.846458 11.268802
-8.287619 -90.653099 10.366032
-2.327018 -100.042282 10.87751
-3.106717 -98.645622 10.957766
-2.041749 -101.215767 9.758195
-2.327018 -100.042282 10.87751
-0.772727 -107.413147 -4.227048
-0.744144 -108.497459 -3.777936
-0.638316 -108.720146 -4.998573
-0.834862 -106.326034 -4.682868
-0.94069 -106.103347 -3.462231
-0.772727 -107.413147 -4.227048
-0.900544 -105.071441 -5.045473
-0.834862 -106.326034 -4.682868
-5.642183 -122.816834 -12.415385
-4.85865 -122.939332 -10.89643
-5.74757 -123.571991 -11.638912
-5.529207 -121.96508 -13.049682
-5.642183 -122.816834 -12.415385
-11.481008 -83.808228 8.07162
-11.42951 -82.653107 8.095439
-11.329878 -85.018394 8.021339
-11.68198 -84.684212 7.261834
-11.481008 -83.808228 8.07162
-10.294356 -87.757637 8.736438
-9.877791 -87.994629 9.57956
-10.29222 -88.684303 7.915731
-10.732748 -87.460403 7.94734
-10.294356 -87.757637 8.736438
-5.577346 -94.628029 11.170457
-6.373979 -93.348968 11.201559
0.169531 -109.358216 6.038704
0.231935 -108.235855 7.468872
0.484841 -109.710174 7.003998
0.165854 -116.074669 2.226787
0.28838 -114.668769 2.855413
0.425816 -115.15126 3.839711
-0.760968 -120.397583 1.10427
-0.274863 -119.61924 2.91878
-0.740825 -120.818794 2.189316
-3.891002 -124.974312 -3.685891
-3.11632 -124.118004 -2.947962
-3.249675 -124.541687 -1.85756
-4.61108 -125.255951 -5.506937
-3.891002 -124.974312 -3.685891
-12.539266 -81.924984 5.415415
-12.237752 -81.444157 6.084599
-11.27005 -84.547539 -0.122264
-11.806468 -83.147686 0.019376
-11.721139 -84.494221 0.543606
-2.76063 -97.00219 -3.384421
-2.576767 -98.437424 -2.987985
-4.910527 -92.882408 -2.336362
-4.136262 -94.262383 -2.62701
-5.787483 -91.50663 -2.118415
-5.56758 -92.96196 -1.626623
-4.910527 -92.882408 -2.336362
-6.659016 -90.118462 -1.929431
-5.787483 -91.50663 -2.118415
-2.483738 -116.772469 -10.987188
-2.54371 -117.812088 -10.505831
-3.049146 -117.736671 -11.822446
-1.935153 -115.79023 -10.145689
-2.483738 -116.772469 -10.987188
-0.662197 -109.981026 -5.838827
-0.661733 -111.060219 -5.385471
-0.714198 -111.236786 -6.674837
-0.638316 -108.720146 -4.998573
-0.662197 -109.981026 -5.838827
-6.658418 -124.169952 -12.366436
-5.74757 -123.571991 -11.638912
-5.874885 -124.29245 -10.847481
-9.404293 -89.200104 9.550821
-9.877791 -87.994629 9.57956
-8.760197 -90.446495 9.518519
-9.209732 -90.227928 8.672528
-9.404293 -89.200104 9.550821
-8.093058 -91.680923 9.487738
-8.760197 -90.446495 9.518519
-8.287619 -90.653099 10.366032
-3.9126 -97.277809 11.061788
-4.739714 -95.942894 11.108258
-3.555426 -98.424957 10.028014
-3.9126 -97.277809 11.061788
-3.106717 -98.645622 10.957766
-1.754811 -102.364189 8.694006
-2.462604 -100.941192 8.859803
-2.041749 -101.215767 9.758195
-1.147376 -103.79718 8.418215
-1.568232 -103.522606 7.519822
-1.754811 -102.364189 8.694006
0.671254 -111.219109 6.575318
0.484841 -109.710174 7.003998
0.485389 -112.288948 5.021083
0.671254 -111.219109 6.575318
0.601989 -115.563591 4.874244
0.425816 -115.15126 3.839711
-1.287316 -121.994895 1.48016
-0.740825 -120.818794 2.189316
-1.911348 -123.039017 0.73294
-1.850961 -122.641258 -0.372412
-1.287316 -121.994895 1.48016
-2.615957 -124.038025 0.007485
-1.911348 -123.039017 0.73294
-3.249675 -124.541687 -1.85756
-2.615957 -124.038025 0.007485
-9.819173 -87.35067 -0.355205
-10.583661 -85.956795 -0.250934
-10.420233 -87.287948 0.297694
-9.128533 -87.417496 -1.015348
-9.819173 -87.35067 -0.355205
-8.965105 -88.748649 -0.46672
-8.454456 -87.334969 -1.656722
-9.128533 -87.417496 -1.015348
-3.832229 -119.599045 -12.13701
-3.190565 -119.6781 -10.716552
-3.913674 -120.500855 -11.512473
-3.758439 -118.58316 -12.617835
-3.832229 -119.599045 -12.13701
-3.049146 -117.736671 -11.822446
-3.758439 -118.58316 -12.617835
-1.152011 -113.608704 -8.413297
-0.921293 -112.427032 -7.549414
-0.944451 -113.49765 -7.085364
-1.858404 -101.0682 -3.037573
-1.460865 -102.41446 -3.653805
-1.09602 -103.753777 -4.306424
-1.460865 -102.41446 -3.653805
-1.36767 -103.676918 -3.265433
-1.09602 -103.753777 -4.306424
-0.900544 -105.071441 -5.045473
-4.6543 -121.302987 -12.302917
-3.913674 -120.500855 -11.512473
-4.012637 -121.382042 -10.882459
-4.6543 -121.302987 -12.302917
-5.529207 -121.96508 -13.049682
-7.834448 -125.287704 -12.226562
-6.931511 -125.475212 -10.637254
-7.688941 -124.615875 -13.042075
-7.834448 -125.287704 -12.226562
-6.658418 -124.169952 -12.366436
-7.688941 -124.615875 -13.042075
-12.021002 -81.869671 6.694752
-12.237752 -81.444157 6.084599
-11.742096 -82.327465 7.362104
-11.42951 -82.653107 8.095439
-12.112015 -83.016251 6.644763
-12.021002 -81.869671 6.694752
-11.742096 -82.327465 7.362104
-11.132867 -86.214058 7.9898
-11.329878 -85.018394 8.021339
-11.130731 -87.140725 7.169093
-11.132867 -86.214058 7.9898
-10.732748 -87.460403 7.94734
-7.165933 -92.079025 11.240967
-7.851086 -90.846458 11.268802
-6.828526 -93.157471 10.295842
-7.165933 -92.079025 11.240967
-6.373979 -93.348968 11.201559
-5.19894 -95.742279 10.194235
-5.577346 -94.628029 11.170457
-4.739714 -95.942894 11.108258
-0.587405 -105.268616 8.173654
-1.147376 -103.79718 8.418215
-0.148694 -106.732765 7.803428
0.231935 -108.235855 7.468872
-0.522085 -106.419747 6.873805
-0.587405 -105.268616 8.173654
-0.148694 -106.732765 7.803428
0.3445 -113.287872 3.519053
0.281546 -111.831459 4.0718
0.485389 -112.288948 5.021083
0.084538 -114.211281 1.906129
0.3445 -113.287872 3.519053
0.28838 -114.668769 2.855413
0.402699 -116.982231 4.273386
0.601989 -115.563591 4.874244
0.103551 -118.302666 3.584711
-0.274863 -119.61924 2.91878
0.004142 -117.877594 2.52241
0.402699 -116.982231 4.273386
0.103551 -118.302666 3.584711
-5.326284 -125.45945 -7.266851
-4.47285 -124.754128 -6.536207
-4.61108 -125.255951 -5.506937
-6.13267 -125.50882 -8.997813
-5.326284 -125.45945 -7.266851
-12.700458 -82.520375 4.70091
-12.539266 -81.924984 5.415415
-12.552113 -83.153847 5.262907
-12.81398 -81.695645 4.156232
-12.700458 -82.520375 4.70091
-12.826826 -82.924507 4.003724
-12.78902 -80.844185 3.693675
-12.81398 -81.695645 4.156232
-12.900278 -81.066876 2.987027
-12.78902 -80.844185 3.693675
-12.830592 -81.375721 2.286892
-12.900278 -81.066876 2.987027
-12.870662 -82.408623 2.75891
-12.759211 -81.515548 1.580575
-12.830592 -81.375721 2.286892
-12.487502 -81.703999 0.893811
-12.759211 -81.515548 1.580575
-12.529267 -82.905918 1.372011
-12.228189 -81.736061 0.203146
-12.487502 -81.703999 0.893811
-12.228189 -81.736061 0.203146
-11.806468 -83.147686 0.019376
-11.27005 -84.547539 -0.122264
-10.583661 -85.956795 -0.250934
-2.415892 -99.714364 -2.521191
-2.290004 -100.983765 -2.096432
-1.858404 -101.0682 -3.037573
-3.008367 -98.35299 -2.046844
-2.415892 -99.714364 -2.521191
-2.576767 -98.437424 -2.987985
-3.375571 -95.631539 -2.961544
-2.76063 -97.00219 -3.384421
-3.929932 -95.706894 -2.179104
-3.375571 -95.631539 -2.961544
-4.136262 -94.262383 -2.62701
-7.573981 -88.733109 -1.788524
-7.359501 -90.200829 -1.267769
-6.659016 -90.118462 -1.929431
-8.454456 -87.334969 -1.656722
-7.573981 -88.733109 -1.788524
-1.533586 -114.705948 -9.285027
-1.576735 -115.763603 -8.809909
-1.935153 -115.79023 -10.145689
-1.152011 -113.608704 -8.413297
-1.533586 -114.705948 -9.285027
3 0 30 28
3 1 33 31
3 2 36 34
3 116 115 37
3 117 41 118
3 119 118 39
3 117 118 119
3 120 43 121
3 122 45 123
3 125 124 45
3 4 50 48
3 5 53 51
3 5 54 53
3 3 57 55
3 6 61 59
3 8 62 29
3 8 63 62
3 9 66 64
3 11 67 32
3 11 68 67
3 12 71 69
3 14 72 35
3 14 73 72
3 7 74 60
3 126 75 127
3 128 127 38
3 126 127 128
3 129 76 130
3 131 130 75
3 129 130 131
3 133 132 76
3 15 79 77
3 134 80 135
3 136 135 40
3 134 135 136
3 138 137 80
3 139 81 140
3 141 82 142
3 143 142 81
3 141 142 143
3 18 144 145
3 18 146 148
3 146 83 147
3 146 147 148
3 18 84 83
3 19 85 42
3 19 86 85
3 149 87 150
3 20 88 44
3 20 89 88
3 20 90 89
3 21 91 46
3 21 92 91
3 22 151 153
3 151 93 152
3 151 152 153
3 22 94 93
3 22 95 94
3 23 154 156
3 154 96 155
3 154 155 156
3 23 97 96
3 24 157 159
3 157 98 158
3 157 158 159
3 24 99 98
3 24 100 99
3 160 101 161
3 162 161 47
3 160 161 162
3 164 163 101
3 17 165 166
3 25 102 49
3 25 103 102
3 10 104 65
3 26 105 52
3 26 106 105
3 26 167 169
3 169 168 106
3 167 168 169
3 13 107 70
3 27 108 56
3 27 109 108
3 170 110 171
3 172 111 173
3 174 112 175
3 176 175 111
3 174 175 176
3 178 177 112
3 16 113 78
3 179 114 180
3 181 180 58
3 179 180 181
3 183 182 114
3 28 29 6
3 30 29 28
3 30 8 29
3 31 32 9
3 33 32 31
3 33 11 32
3 34 35 12
3 36 35 34
3 36 14 35
3 37 38 7
3 184 38 185
3 186 185 37
3 184 185 186
3 188 187 38
3 39 40 15
3 41 40 39
3 41 189 191
3 191 190 40
3 189 190 191
3 192 18 193
3 194 42 195
3 196 195 18
3 194 195 196
3 43 197 199
3 197 42 198
3 197 198 199
3 43 19 42
3 200 44 201
3 45 202 204
3 202 44 203
3 202 203 204
3 45 20 44
3 45 46 20
3 205 46 206
3 207 206 45
3 205 206 207
3 208 21 209
3 210 209 46
3 208 209 210
3 211 22 212
3 214 213 22
3 215 23 216
3 217 24 218
3 219 47 220
3 221 220 24
3 219 220 221
3 222 47 223
3 225 224 47
3 48 49 17
3 50 49 48
3 50 25 49
3 51 52 10
3 53 52 51
3 53 26 52
3 53 226 228
3 228 227 26
3 226 227 228
3 54 229 231
3 231 230 53
3 229 230 231
3 54 232 233
3 55 56 13
3 57 56 55
3 57 27 56
3 234 58 235
3 236 235 16
3 234 235 236
3 237 58 238
3 240 239 58
3 59 60 2
3 61 60 59
3 61 7 60
3 29 61 6
3 62 61 29
3 62 7 61
3 62 37 7
3 63 37 62
3 63 241 243
3 243 242 37
3 241 242 243
3 64 65 4
3 66 65 64
3 66 10 65
3 32 66 9
3 67 66 32
3 67 10 66
3 67 51 10
3 68 51 67
3 68 5 51
3 245 244 3
3 69 70 1
3 71 70 69
3 71 13 70
3 35 71 12
3 72 71 35
3 72 13 71
3 72 55 13
3 73 55 72
3 73 3 55
3 60 36 2
3 74 36 60
3 74 14 36
3 38 74 7
3 75 74 38
3 75 14 74
3 75 73 14
3 76 73 75
3 76 3 73
3 76 246 248
3 248 247 3
3 246 247 248
3 250 249 76
3 77 78 0
3 79 78 77
3 79 16 78
3 40 79 15
3 80 79 40
3 80 16 79
3 80 251 253
3 253 252 16
3 251 252 253
3 255 254 80
3 256 41 257
3 258 41 259
3 261 260 41
3 262 17 263
3 81 264 265
3 81 266 268
3 266 17 267
3 266 267 268
3 81 48 17
3 82 48 81
3 82 4 48
3 269 82 270
3 83 271 273
3 271 82 272
3 271 272 273
3 83 4 82
3 83 64 4
3 84 64 83
3 84 9 64
3 42 84 18
3 85 84 42
3 85 9 84
3 85 31 9
3 86 31 85
3 86 1 31
3 274 43 275
3 87 276 278
3 276 43 277
3 276 277 278
3 87 19 43
3 44 279 281
3 279 87 280
3 279 280 281
3 88 87 44
3 88 19 87
3 88 86 19
3 89 86 88
3 89 1 86
3 89 69 1
3 90 69 89
3 90 12 69
3 46 90 20
3 91 90 46
3 91 12 90
3 91 34 12
3 92 34 91
3 92 2 34
3 282 21 283
3 93 284 285
3 93 286 288
3 286 21 287
3 286 287 288
3 93 92 21
3 94 92 93
3 94 2 92
3 94 59 2
3 95 59 94
3 95 6 59
3 289 95 290
3 291 290 22
3 289 290 291
3 96 292 294
3 292 95 293
3 292 293 294
3 96 6 95
3 96 28 6
3 97 28 96
3 97 0 28
3 295 23 296
3 98 297 298
3 98 299 301
3 299 23 300
3 299 300 301
3 98 97 23
3 99 97 98
3 99 0 97
3 99 77 0
3 100 77 99
3 100 15 77
3 47 100 24
3 101 100 47
3 101 15 100
3 101 39 15
3 302 39 303
3 304 303 101
3 302 303 304
3 306 305 39
3 49 307 309
3 309 308 17
3 307 308 309
3 102 310 312
3 312 311 49
3 310 311 312
3 102 313 314
3 102 315 316
3 103 317 319
3 319 318 102
3 317 318 319
3 103 320 321
3 65 50 4
3 104 50 65
3 104 25 50
3 52 104 10
3 105 104 52
3 105 25 104
3 105 103 25
3 106 103 105
3 106 322 324
3 324 323 103
3 322 323 324
3 106 325 326
3 328 327 106
3 330 329 26
3 70 33 1
3 107 33 70
3 107 11 33
3 56 107 13
3 108 107 56
3 108 11 107
3 108 68 11
3 109 68 108
3 109 5 68
3 331 57 332
3 333 332 3
3 331 332 333
3 110 334 336
3 334 57 335
3 334 335 336
3 110 27 57
3 337 110 338
3 111 339 341
3 339 110 340
3 339 340 341
3 111 27 110
3 111 109 27
3 112 109 111
3 112 5 109
3 112 54 5
3 342 54 343
3 344 343 112
3 342 343 344
3 346 345 54
3 78 30 0
3 113 30 78
3 113 8 30
3 58 113 16
3 114 113 58
3 114 8 113
3 114 63 8
3 347 63 348
3 349 348 114
3 347 348 349
3 351 350 63
