ply
format ascii 1.0
element vertex 509
property float x
property float y
property float z
element face 561
property list uchar int vertex_index
end_header
47.362888 20.020355 28.231661
54.830681 33.506935 15.139504
38.113705 22.738529 5.855444
51.511284 17.427155 7.569449
43.972466 20.809525 8.364885
51.978668 31.279736 6.164499
50.027161 26.796013 21.242685
57.118088 21.557362 12.451482
56.280018 38.873962 8.346491
48.745644 38.519024 22.287096
44.106739 30.925568 29.654217
56.896919 26.69276 8.462997
48.258934 33.439392 5.249997
52.334118 37.569599 4.579227
48.11525 23.301266 24.51976
52.407539 21.35136 19.984167
46.340649 34.813583 26.035645
38.611416 14.669212 7.729095
47.73888 19.175411 8.167545
56.22813 36.363567 11.829028
56.718315 32.942413 9.046719
56.863907 30.349213 11.538561
59.102226 16.017471 11.120312
58.433861 18.089466 8.864546
40.529278 29.737328 5.437211
40.636677 22.113564 7.698039
44.021858 28.385693 6.568343
47.904968 26.536652 6.902242
51.693432 24.513195 6.878565
52.520584 30.276848 18.214123
55.742085 27.469574 14.118795
53.990852 24.39526 16.874199
56.444424 19.014748 15.312115
55.107372 42.042603 10.662028
53.86644 39.33181 14.882379
50.830978 41.86845 18.112537
51.68708 36.214241 18.695045
49.003517 32.695896 22.11702
46.440998 28.920731 25.421843
44.6675 25.12891 28.94096
44.200832 21.528297 32.852707
40.904266 14.000488 9.444124
55.120007 35.313824 6.700931
55.01091 29.03587 7.163147
54.897209 22.433052 6.948667
57.487854 24.182434 10.19205
57.151421 20.281399 7.512169
47.569473 21.624592 26.318253
49.659309 20.795052 24.039885
38.351685 18.757645 6.869
49.651768 18.308979 7.885608
47.673733 15.393154 8.875329
55.679955 34.983494 13.516178
56.578117 33.390682 11.862485
56.059868 31.986568 13.326954
37.94025 26.563145 4.650766
42.315304 32.70253 4.823069
42.197281 29.149708 6.126059
44.153069 31.950272 5.440697
50.171326 32.376564 5.715784
48.051796 30.059696 6.170893
49.985218 29.015495 6.39004
49.842209 25.53447 6.906108
51.821152 27.946323 6.583191
51.246685 28.554562 19.715551
53.142159 27.298672 17.618416
52.036964 25.639477 19.089718
54.118267 18.947491 19.348179
54.533234 20.248672 17.644424
40.634415 33.252743 3.978616
54.621525 40.733879 12.811973
48.634762 41.317398 22.081242
49.487617 42.996387 19.855288
49.849152 40.243969 20.264503
51.302597 39.084446 18.528675
50.115639 37.412338 20.46846
50.372292 34.499447 20.441961
48.831932 35.640728 22.30007
45.1637 32.878006 27.838999
46.241714 31.870934 25.780741
45.091576 29.927448 27.518105
45.417255 27.011429 27.138054
44.146236 27.986107 29.308762
42.225594 21.522961 8.163486
40.77042 18.095119 8.609745
42.300621 17.533833 9.02692
55.780342 40.036697 6.617798
55.094482 38.292984 5.989019
55.993767 37.144405 7.413429
56.815601 29.848003 8.873598
56.119217 31.055309 7.940697
56.116951 27.882214 7.766338
54.94352 25.76659 7.075564
56.121235 24.64724 7.45155
56.350891 24.476353 13.304847
56.855282 25.893425 12.078945
57.385498 22.874371 11.24983
58.272865 16.063976 7.781489
57.898689 19.183128 8.077644
57.349445 17.055611 7.271176
56.222366 18.055904 6.997033
46.308849 34.435253 4.718769
50.396217 35.594662 4.797118
52.156197 34.493114 5.518784
48.956116 25.034042 22.833857
51.033619 23.981586 20.634014
50.218239 22.357689 22.278572
47.664051 39.548065 24.175926
47.55793 36.702671 24.199413
45.827618 20.015995 8.347946
43.991768 16.874969 9.179853
45.798904 16.153137 9.111584
56.432926 37.655426 10.095437
56.55632 35.955647 8.883872
56.752602 34.710011 10.375437
56.973614 31.680557 10.280743
57.153107 28.588223 9.872414
58.045605 18.737232 11.687844
58.041519 19.914394 10.473776
58.813427 17.025078 9.880653
39.114792 26.409325 5.809049
39.252293 22.53389 6.934885
40.542702 26.009583 6.659462
42.178757 25.409229 7.21805
43.97142 24.659275 7.517926
46.086327 31.051891 5.872793
45.944412 27.498875 6.809005
45.866295 23.808922 7.605517
47.807259 22.898998 7.536097
49.73629 21.957848 7.370046
51.5942 21.000549 7.170314
53.748253 31.934479 16.699427
55.255943 30.495647 14.764886
54.250053 28.926613 16.18737
54.894638 25.944653 15.463963
55.731445 23.04248 14.631434
53.132004 22.853348 18.374012
55.095535 21.62265 16.073971
56.775551 20.260578 13.804646
58.004154 17.614777 13.089809
39.072872 30.096317 4.471662
55.963745 40.507114 9.442381
55.753387 39.248459 11.416742
55.220455 37.903927 13.340206
54.391716 36.461243 15.182022
48.971504 45.693344 19.28285
50.215656 44.581711 17.495516
51.668999 43.392387 15.830882
52.342152 40.65073 16.463953
52.872635 37.826492 16.846054
53.316307 34.914661 16.928873
52.063438 33.266865 18.587446
50.717403 31.530136 20.182882
49.370773 29.72604 21.753304
47.515602 33.785416 24.056511
47.664276 30.82642 23.761881
48.11718 27.883595 23.342209
47.044922 26.035748 24.990494
46.231533 24.214512 26.729612
45.738564 22.44574 28.576756
43.250546 28.983967 31.520128
43.478298 26.073994 31.181404
44.250248 23.296688 30.846075
45.606014 20.745029 30.532978
45.846214 19.115864 32.584061
39.442169 18.51738 7.896645
39.642525 14.408043 8.739037
53.847473 36.453159 5.611998
53.739452 33.367561 6.270094
56.092361 34.147984 7.848783
55.079903 32.223915 7.073769
53.613377 30.165581 6.636653
53.494179 26.863705 6.797951
53.39682 23.480061 6.875297
53.323997 20.031551 7.000626
56.429665 28.943535 12.815775
57.14909 27.268978 10.938694
57.344536 25.459206 9.267268
57.913864 21.11702 9.451595
57.587223 22.318089 8.616827
57.001312 23.497925 7.956746
56.154526 21.367271 7.146785
54.877365 19.049984 6.923466
53.266235 16.533577 7.289663
48.383737 19.665218 27.076033
48.48703 20.467337 26.119329
47.466181 20.822474 27.274957
48.420393 18.96241 28.069676
48.383737 19.665218 27.076033
38.232695 20.748087 6.362222
37.939228 18.767836 6.196118
37.820239 20.758278 5.68934
50.53846 16.018549 8.05154
49.608702 16.459461 8.209619
50.581526 17.868067 7.727529
51.467854 15.619148 7.863198
50.53846 16.018549 8.05154
37.683295 22.714918 5.157029
37.596567 24.627226 4.55469
38.026978 24.650837 5.253105
37.820239 20.758278 5.68934
37.683295 22.714918 5.157029
44.270283 33.633722 4.755721
43.234186 32.326401 5.131883
43.3514 34.009851 4.446907
55.158167 18.396853 18.159356
55.10458 17.85926 19.058789
43.3514 34.009851 4.446907
42.437672 34.366051 4.040889
57.464388 15.441824 7.303252
57.811155 16.559793 7.526332
57.926097 14.946006 7.558408
56.832056 15.889929 7.192779
57.464388 15.441824 7.303252
51.365167 36.58213 4.688173
50.520782 37.123493 4.191033
51.489733 38.110962 4.082088
50.774252 20.355793 22.878453
50.643608 19.680119 23.806537
47.274073 40.032152 25.155298
47.688036 40.93367 24.080142
47.133348 38.624719 25.167912
47.274073 40.032152 25.155298
38.373095 12.658396 7.438404
38.222256 14.708179 7.069985
38.733382 12.596075 8.098278
38.373095 12.658396 7.438404
46.711384 13.822473 9.411416
47.628614 13.485758 9.291635
55.208189 42.657019 9.567435
54.685941 43.402311 10.153164
55.535559 41.274859 10.052204
55.636375 41.889274 8.957611
55.208189 42.657019 9.567435
48.688999 44.87051 20.492411
48.484757 46.215706 20.232059
42.958626 28.029221 32.491805
42.971293 29.504722 32.645272
43.072502 26.574234 32.322443
43.364422 27.52898 31.350766
42.958626 28.029221 32.491805
44.22554 22.412492 31.849391
43.696787 23.753471 31.997779
43.672079 22.869276 33.001095
46.92863 18.071297 32.460977
46.142239 18.33309 33.644013
46.680145 18.803606 31.415442
46.92863 18.071297 32.460977
40.360508 12.127617 9.470327
39.729637 12.331394 9.117783
40.273395 14.204265 9.09158
43.179406 15.179626 9.520091
43.993599 14.883895 9.597504
54.876457 17.340262 7.019979
55.549865 18.552944 6.960249
55.548958 16.843222 7.056763
54.070892 16.082058 7.203078
54.0718 17.791781 7.106565
54.876457 17.340262 7.019979
53.235674 14.767575 7.555122
54.070892 16.082058 7.203078
52.409279 39.035064 3.953235
51.489733 38.110962 4.082088
49.531948 20.052566 24.980145
48.614391 21.209822 25.179069
48.48703 20.467337 26.119329
50.643608 19.680119 23.806537
49.531948 20.052566 24.980145
38.092391 16.752396 6.639938
37.939228 18.767836 6.196118
38.48155 16.713428 7.299048
38.222256 14.708179 7.069985
38.092391 16.752396 6.639938
48.619684 15.001548 8.70448
48.662751 16.851067 8.380469
49.608702 16.459461 8.209619
47.628614 13.485758 9.291635
48.619684 15.001548 8.70448
59.383657 15.108614 10.34154
59.667538 14.69693 10.9684
37.496652 26.500822 3.919385
37.9076 28.373251 3.9343
37.496652 26.500822 3.919385
37.596567 24.627226 4.55469
55.365651 19.047443 17.307479
54.32575 19.598081 18.496302
55.158167 18.396853 18.159356
56.321246 18.430481 16.141324
55.488829 19.63171 16.478269
55.365651 19.047443 17.307479
57.21559 17.793631 14.990022
56.321246 18.430481 16.141324
41.597228 34.641158 3.618663
40.761345 34.884346 3.112881
41.474859 32.977637 4.400843
41.597228 34.641158 3.618663
42.437672 34.366051 4.040889
54.475397 42.76124 11.326839
54.685941 43.402311 10.153164
54.232473 42.106878 12.401812
54.864448 41.388241 11.737001
54.475397 42.76124 11.326839
53.909468 41.423544 13.544681
54.232473 42.106878 12.401812
53.531925 40.72251 14.579885
54.243983 40.032844 13.847176
53.909468 41.423544 13.544681
49.061189 42.156892 20.968265
48.947056 43.522031 20.77863
48.520628 42.682537 21.891607
43.685911 21.96639 34.031464
43.672079 22.869276 33.001095
55.437412 39.16484 6.303408
55.029629 39.725582 5.464593
55.372558 40.597438 5.778982
56.268517 16.390076 7.055708
56.785905 17.555757 7.134104
56.832056 15.889929 7.192779
55.548958 16.843222 7.056763
56.268517 16.390076 7.055708
46.463924 36.02824 4.005893
45.348173 34.876213 4.394756
47.418316 35.542682 4.39436
46.463924 36.02824 4.005893
48.393358 35.044752 4.659974
47.283892 33.937323 4.984383
47.418316 35.542682 4.39436
49.462 36.122387 4.433535
50.520782 37.123493 4.191033
49.327576 34.517027 5.023557
48.393358 35.044752 4.659974
49.462 36.122387 4.433535
51.053717 21.137111 21.997797
49.938774 21.57637 23.159229
50.774252 20.355793 22.878453
52.148367 20.633947 20.850594
51.312889 21.854525 21.131369
51.053717 21.137111 21.997797
53.003731 19.432012 20.532601
53.262903 20.149425 19.666173
52.148367 20.633947 20.850594
54.011122 18.341397 20.264817
53.003731 19.432012 20.532601
55.10458 17.85926 19.058789
54.011122 18.341397 20.264817
48.173392 41.818337 23.0328
48.520628 42.682537 21.891607
48.149406 40.432732 23.128584
48.173392 41.818337 23.0328
47.688036 40.93367 24.080142
47.080288 37.202022 25.179655
47.61099 38.125368 24.187669
47.133348 38.624719 25.167912
46.471648 36.257479 26.097771
46.949289 35.758127 25.117529
47.080288 37.202022 25.179655
45.920507 35.306419 27.051914
46.471648 36.257479 26.097771
45.332033 34.338631 27.953592
45.752174 33.845794 26.937322
45.920507 35.306419 27.051914
44.795231 33.37343 28.891633
45.332033 34.338631 27.953592
44.266751 32.397211 29.799242
44.635219 31.901787 28.746608
44.795231 33.37343 28.891633
44.897167 14.522979 9.563369
43.993599 14.883895 9.597504
44.895336 16.514053 9.145719
45.773969 14.202465 9.529543
46.736318 15.773146 8.993457
46.711384 13.822473 9.411416
44.897167 14.522979 9.563369
45.773969 14.202465 9.529543
59.239258 15.612417 9.721711
58.957826 16.521275 10.500483
59.383657 15.108614 10.34154
58.921039 16.064255 9.213071
59.239258 15.612417 9.721711
58.731257 16.596449 8.705018
58.623644 17.557272 9.372599
58.921039 16.064255 9.213071
58.650759 15.583704 8.163489
58.353363 17.076721 8.323018
58.731257 16.596449 8.705018
58.478924 14.513146 7.797339
58.650759 15.583704 8.163489
57.926097 14.946006 7.558408
58.478924 14.513146 7.797339
45.230959 33.192763 5.079733
44.270283 33.633722 4.755721
45.348173 34.876213 4.394756
57.995455 17.093646 13.878868
57.224289 18.314763 14.200962
57.21559 17.793631 14.990022
58.683162 16.35294 12.828138
57.995455 17.093646 13.878868
59.232198 15.554287 11.84339
58.55319 16.816124 12.105061
58.683162 16.35294 12.828138
59.667538 14.69693 10.9684
59.232198 15.554287 11.84339
39.900458 33.401024 3.430446
40.761345 34.884346 3.112881
39.119686 31.822811 3.676969
39.900458 33.401024 3.430446
39.853643 31.67453 4.225139
38.473911 30.139837 3.844748
38.520725 31.866331 3.050055
39.119686 31.822811 3.676969
38.506561 28.329731 4.561214
37.9076 28.373251 3.9343
38.473911 30.139837 3.844748
55.597195 41.43317 6.059927
55.372558 40.597438 5.778982
55.813335 40.866222 7.037626
55.597195 41.43317 6.059927
56.063173 40.284854 7.901973
56.03018 39.455329 7.482145
55.813335 40.866222 7.037626
55.905037 41.10143 8.449917
55.636375 41.889274 8.957611
56.121882 39.690538 8.894436
56.063173 40.284854 7.901973
55.905037 41.10143 8.449917
48.622746 47.031761 18.940577
48.484757 46.215706 20.232059
49.200806 46.47527 18.011645
48.852047 47.813687 17.669373
48.622746 47.031761 18.940577
49.229561 44.344865 19.569069
48.688999 44.87051 20.492411
48.947056 43.522031 20.77863
49.822882 45.919453 17.117978
49.200806 46.47527 18.011645
49.59358 45.137528 18.389183
50.520285 45.329712 16.256636
49.822882 45.919453 17.117978
51.246956 44.73505 15.424319
50.520285 45.329712 16.256636
50.942328 43.987049 16.663199
52.01033 44.107301 14.634563
51.246956 44.73505 15.424319
52.433205 42.752798 15.054136
52.01033 44.107301 14.634563
52.769782 41.381969 15.370672
52.433205 42.752798 15.054136
52.005575 42.021558 16.147417
53.104296 39.99127 15.673166
53.531925 40.72251 14.579885
52.769782 41.381969 15.370672
43.785013 31.431347 30.74336
44.266751 32.397211 29.799242
43.356916 30.460546 31.676315
42.971293 29.504722 32.645272
43.678642 29.954767 30.587173
43.785013 31.431347 30.74336
43.356916 30.460546 31.676315
43.310812 25.142125 32.165443
43.072502 26.574234 32.322443
43.864273 24.685341 31.013739
43.310812 25.142125 32.165443
43.696787 23.753471 31.997779
44.362583 20.677513 33.899044
43.685911 21.96639 34.031464
45.185274 19.471297 33.764721
46.142239 18.33309 33.644013
45.023523 20.32208 32.718384
44.362583 20.677513 33.899044
45.185274 19.471297 33.764721
46.560045 19.618188 30.3899
45.726114 19.930446 31.558519
46.680145 18.803606 31.415442
47.438482 19.255851 29.239241
46.484451 20.382692 29.38232
46.560045 19.618188 30.3899
48.420393 18.96241 28.069676
47.438482 19.255851 29.239241
39.248936 12.46549 8.60325
38.733382 12.596075 8.098278
39.12697 14.538628 8.234066
39.336049 10.388841 8.981996
39.248936 12.46549 8.60325
39.729637 12.331394 9.117783
42.333832 15.509058 9.443624
43.146195 17.204401 9.103386
43.179406 15.179626 9.520091
41.635655 13.742386 9.652226
41.602443 15.767161 9.235522
42.333832 15.509058 9.443624
40.953884 11.93803 9.839753
41.635655 13.742386 9.652226
40.360508 12.127617 9.470327
40.953884 11.93803 9.839753
53.119835 38.490799 4.60293
52.409279 39.035064 3.953235
54.500017 38.852491 5.307826
55.029629 39.725582 5.464593
53.876513 37.932579 5.119315
54.500017 38.852491 5.307826
54.470978 37.373071 5.800508
53.090795 37.011379 5.095612
53.119835 38.490799 4.60293
53.876513 37.932579 5.119315
52.345329 15.17236 7.723306
51.467854 15.619148 7.863198
52.38876 16.980366 7.429556
52.345329 15.17236 7.723306
53.235674 14.767575 7.555122
3 0 184 186
3 186 185 47
3 184 185 186
3 0 187 188
3 2 189 191
3 189 49 190
3 189 190 191
3 3 192 194
3 194 193 50
3 192 193 194
3 3 195 196
3 1 54 52
3 2 197 199
3 199 198 55
3 197 198 199
3 2 200 201
3 202 58 203
3 204 203 56
3 202 203 204
3 5 61 59
3 5 63 61
3 6 66 64
3 206 205 67
3 207 56 208
3 9 73 71
3 9 75 73
3 9 77 75
3 10 80 78
3 10 82 80
3 4 85 83
3 8 88 86
3 11 91 89
3 11 93 91
3 7 96 94
3 209 99 210
3 211 210 97
3 209 210 211
3 213 212 99
3 13 214 216
3 214 102 215
3 214 215 216
3 13 103 102
3 14 106 104
3 218 217 48
3 219 107 220
3 222 221 107
3 17 223 224
3 17 225 226
3 18 111 109
3 228 227 51
3 19 114 112
3 21 115 53
3 21 116 115
3 22 119 117
3 24 122 120
3 26 123 57
3 26 124 123
3 12 125 101
3 27 126 60
3 27 127 126
3 27 128 127
3 28 129 62
3 28 130 129
3 29 133 131
3 31 134 65
3 31 135 134
3 15 136 105
3 32 137 68
3 32 138 137
3 32 139 138
3 24 140 69
3 24 120 140
3 33 229 230
3 33 231 233
3 231 141 232
3 231 232 233
3 33 142 141
3 34 143 70
3 34 144 143
3 234 145 235
3 35 146 72
3 35 147 146
3 35 148 147
3 36 149 74
3 36 150 149
3 36 151 150
3 37 152 76
3 37 153 152
3 16 154 108
3 38 155 79
3 38 156 155
3 38 157 156
3 39 158 81
3 39 159 158
3 236 160 237
3 238 161 239
3 240 239 160
3 238 239 240
3 40 241 243
3 241 162 242
3 241 242 243
3 40 163 162
3 244 164 245
3 247 246 164
3 25 165 121
3 41 166 84
3 41 248 250
3 250 249 166
3 248 249 250
3 252 251 110
3 42 167 87
3 42 168 167
3 20 169 113
3 43 170 90
3 43 171 170
3 43 172 171
3 44 173 92
3 44 174 173
3 30 175 132
3 45 176 95
3 45 177 176
3 23 178 118
3 46 179 98
3 46 180 179
3 46 181 180
3 253 182 254
3 255 254 100
3 253 254 255
3 256 183 257
3 258 257 182
3 256 257 258
3 260 259 183
3 261 13 262
3 47 48 14
3 263 48 264
3 265 264 47
3 263 264 265
3 267 266 48
3 49 268 269
3 49 270 272
3 270 17 271
3 270 271 272
3 50 51 18
3 273 51 274
3 275 274 50
3 273 274 275
3 277 276 51
3 52 53 19
3 54 53 52
3 54 21 53
3 279 278 22
3 55 280 281
3 283 282 55
3 56 57 24
3 58 57 56
3 58 26 57
3 59 60 12
3 61 60 59
3 61 27 60
3 61 62 27
3 63 62 61
3 63 28 62
3 64 65 29
3 66 65 64
3 66 31 65
3 67 68 15
3 284 68 285
3 286 285 67
3 284 285 286
3 287 32 288
3 289 288 68
3 287 288 289
3 291 290 32
3 292 69 293
3 56 294 296
3 294 69 295
3 294 295 296
3 56 24 69
3 297 33 298
3 299 70 300
3 301 300 33
3 299 300 301
3 302 70 303
3 304 34 305
3 306 305 70
3 304 305 306
3 71 307 309
3 307 72 308
3 307 308 309
3 73 72 71
3 73 35 72
3 73 74 35
3 75 74 73
3 75 36 74
3 75 76 36
3 77 76 75
3 77 37 76
3 78 79 16
3 80 79 78
3 80 38 79
3 80 81 38
3 82 81 80
3 82 39 81
3 310 40 311
3 83 84 25
3 85 84 83
3 85 41 84
3 86 312 314
3 312 87 313
3 312 313 314
3 88 87 86
3 88 42 87
3 89 90 20
3 91 90 89
3 91 43 90
3 91 92 43
3 93 92 91
3 93 44 92
3 94 95 30
3 96 95 94
3 96 45 95
3 97 98 23
3 99 98 97
3 99 46 98
3 99 100 46
3 315 100 316
3 317 316 99
3 315 316 317
3 319 318 100
3 320 101 321
3 322 101 323
3 324 12 325
3 326 325 101
3 324 325 326
3 102 327 328
3 102 329 331
3 329 12 330
3 329 330 331
3 102 59 12
3 103 59 102
3 103 5 59
3 104 105 6
3 106 105 104
3 106 15 105
3 48 106 14
3 332 106 333
3 334 333 48
3 332 333 334
3 335 15 336
3 337 336 106
3 335 336 337
3 338 67 339
3 340 339 15
3 338 339 340
3 341 67 342
3 344 343 67
3 345 71 346
3 107 347 349
3 347 71 348
3 347 348 349
3 107 9 71
3 107 108 9
3 350 108 351
3 352 351 107
3 350 351 352
3 353 16 354
3 355 354 108
3 353 354 355
3 356 16 357
3 358 78 359
3 360 359 16
3 358 359 360
3 361 78 362
3 363 10 364
3 365 364 78
3 363 364 365
3 109 110 4
3 111 110 109
3 111 366 368
3 368 367 110
3 366 367 368
3 51 111 18
3 369 111 370
3 371 370 51
3 369 370 371
3 373 372 111
3 112 113 8
3 114 113 112
3 114 20 113
3 53 114 19
3 115 114 53
3 115 20 114
3 115 89 20
3 116 89 115
3 116 11 89
3 117 118 7
3 119 118 117
3 119 23 118
3 374 119 375
3 376 375 22
3 374 375 376
3 377 119 378
3 379 23 380
3 381 380 119
3 379 380 381
3 382 97 383
3 384 383 23
3 382 383 384
3 385 97 386
3 388 387 97
3 120 121 2
3 122 121 120
3 122 25 121
3 57 122 24
3 123 122 57
3 123 25 122
3 123 83 25
3 124 83 123
3 124 4 83
3 101 389 391
3 389 58 390
3 389 390 391
3 125 58 101
3 125 26 58
3 60 125 12
3 126 125 60
3 126 26 125
3 126 124 26
3 127 124 126
3 127 4 124
3 127 109 4
3 128 109 127
3 128 18 109
3 62 128 27
3 129 128 62
3 129 18 128
3 129 50 18
3 130 50 129
3 130 3 50
3 131 132 1
3 133 132 131
3 133 30 132
3 65 133 29
3 134 133 65
3 134 30 133
3 134 94 30
3 135 94 134
3 135 7 94
3 105 66 6
3 136 66 105
3 136 31 66
3 68 136 15
3 137 136 68
3 137 31 136
3 137 135 31
3 138 135 137
3 138 7 135
3 138 117 7
3 139 117 138
3 139 22 117
3 392 139 393
3 394 393 32
3 392 393 394
3 395 139 396
3 397 22 398
3 399 398 139
3 397 398 399
3 401 400 22
3 69 402 403
3 140 404 406
3 406 405 69
3 404 405 406
3 140 407 409
3 407 408 409
3 140 410 412
3 410 55 411
3 410 411 412
3 120 55 140
3 120 2 55
3 413 86 414
3 415 86 416
3 417 8 418
3 419 418 86
3 417 418 419
3 141 420 421
3 141 422 424
3 422 8 423
3 422 423 424
3 141 112 8
3 142 112 141
3 142 19 112
3 70 142 33
3 143 142 70
3 143 19 142
3 143 52 19
3 144 52 143
3 144 1 52
3 145 425 426
3 145 427 429
3 427 428 429
3 72 430 432
3 430 145 431
3 430 431 432
3 146 145 72
3 146 433 435
3 435 434 145
3 433 434 435
3 146 436 437
3 147 438 440
3 440 439 146
3 438 439 440
3 147 441 442
3 147 443 444
3 148 445 447
3 447 446 147
3 445 446 447
3 148 448 450
3 448 34 449
3 448 449 450
3 74 148 35
3 149 148 74
3 149 34 148
3 149 144 34
3 150 144 149
3 150 1 144
3 150 131 1
3 151 131 150
3 151 29 131
3 76 151 36
3 152 151 76
3 152 29 151
3 152 64 29
3 153 64 152
3 153 6 64
3 108 77 9
3 154 77 108
3 154 37 77
3 79 154 16
3 155 154 79
3 155 37 154
3 155 153 37
3 156 153 155
3 156 6 153
3 156 104 6
3 157 104 156
3 157 14 104
3 81 157 38
3 158 157 81
3 158 14 157
3 158 47 14
3 159 47 158
3 159 0 47
3 451 10 452
3 160 453 454
3 160 455 457
3 455 10 456
3 455 456 457
3 160 82 10
3 161 82 160
3 161 39 82
3 458 161 459
3 162 460 462
3 460 161 461
3 460 461 462
3 162 39 161
3 162 159 39
3 163 159 162
3 163 0 159
3 463 40 464
3 164 465 466
3 164 467 469
3 467 40 468
3 467 468 469
3 164 163 40
3 470 163 471
3 472 471 164
3 470 471 472
3 473 0 474
3 475 474 163
3 473 474 475
3 477 476 0
3 121 49 2
3 165 49 121
3 165 17 49
3 84 165 25
3 166 165 84
3 166 17 165
3 166 478 480
3 480 479 17
3 478 479 480
3 483 482 166
3 481 482 483
3 110 85 4
3 484 85 485
3 486 485 110
3 484 485 486
3 487 41 488
3 489 488 85
3 487 488 489
3 490 41 491
3 493 492 41
3 494 13 495
3 87 496 497
3 167 498 500
3 500 499 87
3 498 499 500
3 167 501 503
3 501 13 502
3 501 502 503
3 167 103 13
3 168 103 167
3 168 5 103
3 113 88 8
3 169 88 113
3 169 42 88
3 90 169 20
3 170 169 90
3 170 42 169
3 170 168 42
3 171 168 170
3 171 5 168
3 171 63 5
3 172 63 171
3 172 28 63
3 92 172 43
3 173 172 92
3 173 28 172
3 173 130 28
3 174 130 173
3 174 3 130
3 132 54 1
3 175 54 132
3 175 21 54
3 95 175 30
3 176 175 95
3 176 21 175
3 176 116 21
3 177 116 176
3 177 11 116
3 118 96 7
3 178 96 118
3 178 45 96
3 98 178 23
3 179 178 98
3 179 45 178
3 179 177 45
3 180 177 179
3 180 11 177
3 180 93 11
3 181 93 180
3 181 44 93
3 100 181 46
3 182 181 100
3 182 44 181
3 182 174 44
3 183 174 182
3 183 3 174
3 183 504 506
3 506 505 3
3 504 505 506
3 508 507 183
