ply
format ascii 1.0
element vertex 314
property float x
property float y
property float z
element face 293
property list uchar int vertex_index
end_header
-1.347937 56.535416 -10.884073
0.287195 54.229294 14.779689
-5.405317 18.464607 -16.409998
-4.670412 39.688534 -14.200459
-0.696503 57.159447 1.810526
-3.441458 50.145958 -6.92811
-3.287683 48.695206 -12.907389
-3.091448 46.993805 -18.492838
-1.650404 55.495735 -16.803247
-2.306288 49.692497 12.117985
-2.988646 50.854851 5.759041
-0.244209 56.180031 8.330876
-3.872942 15.577602 -20.898973
-4.291563 26.80341 -20.059015
-4.001661 37.406876 -19.421984
-3.376993 50.972878 -0.648504
-1.053736 57.200272 -4.645496
1.872847 60.498238 11.856041
1.600449 62.289001 5.209222
1.220146 63.187943 -1.407177
-2.333799 53.347878 -8.991837
-3.380766 49.473457 -9.963095
-2.365408 52.754906 -12.008228
-2.391176 52.086098 -14.934671
-1.494223 56.043968 -13.887289
-0.94953 52.094185 13.34024
-1.284464 52.998787 10.155321
0.013485 55.321281 11.570832
-6.044542 20.04517 -13.884245
-4.664438 33.467743 -17.295759
-4.333261 38.545464 -16.874804
-2.466597 50.643791 -20.489424
-3.007318 46.120621 -21.115263
-1.837442 54.06395 3.707608
-3.224424 51.044044 2.551459
-2.038343 54.213432 0.476505
-2.184031 54.122063 -2.731815
-0.886398 57.287056 -1.435526
1.746716 61.507965 8.536106
0.976227 63.343643 -4.665852
-3.766729 31.001934 -22.0208
-3.694494 25.526493 -22.210989
-4.58568 46.884552 -4.727907
-4.465918 46.160851 -7.783976
-4.282682 45.295547 -10.752481
-4.065035 44.341743 -13.620892
-3.839441 43.345207 -16.381716
-3.185743 47.857452 -15.752819
-2.424189 51.376274 -17.76491
-4.074751 47.504349 7.923113
-2.677999 50.401276 8.953188
-1.5837 53.659081 6.93989
-0.481997 56.793694 5.07225
0.573729 52.921318 17.946762
-5.460863 24.074951 -15.758066
-4.852705 22.61425 -18.186197
-4.837687 28.140205 -17.712248
-4.225809 32.216736 -19.74299
-3.668577 36.286221 -21.820498
-3.622164 42.337559 -19.027052
-4.361383 47.742683 4.747204
-4.544031 47.709778 1.563481
-4.617083 47.414879 -1.603779
-3.446222 50.66153 -3.816458
-2.278788 53.819557 -5.894688
-1.204496 56.935249 -7.800114
1.323967 56.126617 16.467333
1.128433 57.398941 13.231035
0.935217 58.448448 9.963038
0.7423 59.263725 6.675525
0.547623 59.840309 3.382384
1.426908 62.844482 1.889652
0.348906 60.184105 0.09984
0.143326 60.313416 -3.154217
-0.072615 60.2584 -6.362234
-0.30279 60.057213 -9.509426
-4.185331 21.228279 -20.4312
-0.331168 53.16174 14.059964
-0.769027 51.528751 14.912347
-0.150665 52.596306 15.632072
-5.652849 16.427578 -15.55999
-5.972461 17.217859 -14.297114
-5.72493 19.254888 -15.147122
-5.285616 15.62294 -16.79615
-5.652849 16.427578 -15.55999
-5.048378 17.715483 -17.58567
-5.285616 15.62294 -16.79615
-5.097353 37.849054 -13.096474
-4.835837 40.247473 -12.805078
-4.88443 37.215006 -14.453796
-5.097353 37.849054 -13.096474
-4.501836 39.116999 -15.537631
-4.715855 36.643471 -15.790969
-4.88443 37.215006 -14.453796
-2.48547 50.26622 -21.788433
-2.220337 52.466915 -21.410919
-3.509838 30.413604 -23.053024
-3.536634 33.092653 -23.026583
-1.732815 55.203159 -18.213592
-2.119708 53.143428 -18.694424
-2.037297 53.436005 -17.284078
-2.779022 47.9706 13.149711
-2.097809 49.219456 13.680269
-3.002329 48.346634 11.59507
-2.779022 47.9706 13.149711
-2.492144 50.046886 10.535587
-3.188185 48.701024 10.012672
-3.002329 48.346634 11.59507
-3.58408 12.767313 -21.183136
-4.091198 13.43648 -20.174799
-3.392792 14.944561 -21.836807
-3.58408 12.767313 -21.183136
0.722288 52.169522 19.503802
0.182353 51.274662 18.762949
-5.409534 26.798822 -15.482021
-5.74515 24.828682 -14.467537
-5.097946 28.83145 -16.459112
-5.149275 26.107578 -16.735157
-5.409534 26.798822 -15.482021
-3.209951 43.726965 -21.327997
-2.962198 45.678685 -22.354786
1.708689 56.971664 17.445169
1.423795 55.386654 18.063588
1.92953 59.881439 13.505993
2.191651 61.430104 12.937
1.50064 58.948589 12.543538
1.557323 58.331791 14.19349
1.92953 59.881439 13.505993
1.323527 63.016212 0.241238
1.761656 64.34856 1.243464
1.658275 64.520291 -0.40495
0.310669 61.801167 -7.117534
0.451806 61.801022 -5.514043
0.83509 63.343788 -6.269343
0.195582 61.700573 -8.69113
-0.187702 60.157806 -7.93583
0.310669 61.801167 -7.117534
-3.55998 22.729021 -22.330796
-3.350748 24.919965 -23.165211
-1.41943 50.420299 14.291396
-0.769027 51.528751 14.912347
-1.627909 50.893341 12.729112
-2.097809 49.219456 13.680269
-1.41943 50.420299 14.291396
-6.293655 18.063488 -12.978502
-6.335767 20.855306 -12.548495
-6.293655 18.063488 -12.978502
-5.972461 17.217859 -14.297114
-4.282191 16.27198 -19.830158
-4.091198 13.43648 -20.174799
-4.881443 34.10461 -16.001447
-5.011322 31.495219 -16.250867
-4.49885 36.006603 -17.085282
-4.881443 34.10461 -16.001447
-4.715855 36.643471 -15.790969
-2.755831 48.004635 -22.101352
-2.736957 48.382206 -20.802343
-2.48547 50.26622 -21.788433
-2.962198 45.678685 -22.354786
-2.755831 48.004635 -22.101352
2.168928 62.028908 11.258646
2.191651 61.430104 12.937
2.105863 62.533772 9.598679
1.809781 61.003101 10.196074
2.168928 62.028908 11.258646
2.06762 63.023033 7.91644
2.105863 62.533772 9.598679
1.994487 63.413551 6.252997
1.673582 61.898483 6.872664
2.06762 63.023033 7.91644
1.541926 64.702496 -2.059157
1.658275 64.520291 -0.40495
1.419967 64.780346 -3.688495
1.098186 63.265793 -3.036515
1.541926 64.702496 -2.059157
1.27287 64.881214 -5.320816
1.419967 64.780346 -3.688495
0.83509 63.343788 -6.269343
1.27287 64.881214 -5.320816
-3.47372 27.675884 -23.148119
-3.730612 28.264213 -22.115895
-3.509838 30.413604 -23.053024
-3.350748 24.919965 -23.165211
-3.47372 27.675884 -23.148119
-5.061371 44.831944 -5.120465
-5.133352 45.204988 -3.582002
-5.00149 44.470093 -6.648499
-5.061371 44.831944 -5.120465
-4.525799 46.522701 -6.255942
-4.883228 44.007744 -8.147078
-5.00149 44.470093 -6.648499
-4.79161 43.575092 -9.631331
-4.883228 44.007744 -8.147078
-4.3743 45.728199 -9.268228
-4.641972 43.050979 -11.081089
-4.79161 43.575092 -9.631331
-4.533148 42.574078 -12.515294
-4.641972 43.050979 -11.081089
-4.173858 44.818645 -12.186687
-4.367724 42.015138 -13.910675
-4.835837 40.247473 -12.805078
-4.533148 42.574078 -12.515294
-2.140912 52.777187 -20.056681
-2.445393 51.010033 -19.127167
-2.119708 53.143428 -18.694424
-2.220337 52.466915 -21.410919
-2.140912 52.777187 -20.056681
-3.88656 47.25256 9.497635
-4.558008 45.753382 9.038775
-3.376375 48.952813 8.438151
-3.88656 47.25256 9.497635
-3.188185 48.701024 10.012672
-0.007398 51.942318 17.215609
0.182353 51.274662 18.762949
0.430462 53.575306 16.363225
-0.150665 52.596306 15.632072
-0.007398 51.942318 17.215609
-6.036989 22.813792 -13.530627
-6.335767 20.855306 -12.548495
-5.752702 22.06006 -14.821155
-6.036989 22.813792 -13.530627
-5.74515 24.828682 -14.467537
-4.751062 30.803974 -17.504003
-5.097946 28.83145 -16.459112
-5.011322 31.495219 -16.250867
-3.487559 35.734797 -22.926432
-3.536634 33.092653 -23.026583
-3.717653 33.644077 -21.920649
-3.517374 41.835434 -20.283892
-3.314741 44.22909 -20.071157
-3.209951 43.726965 -21.327997
-3.707123 39.370092 -20.481358
-3.811913 39.872217 -19.224518
-3.517374 41.835434 -20.283892
-3.54058 38.809765 -21.680615
-3.835119 36.846548 -20.621241
-3.707123 39.370092 -20.481358
-3.429136 38.308704 -22.85578
-3.54058 38.809765 -21.680615
-3.487559 35.734797 -22.926432
-3.429136 38.308704 -22.85578
-4.729798 45.897604 7.469739
-4.558008 45.753382 9.038775
-4.873114 46.016771 5.881785
-4.729798 45.897604 7.469739
-4.218067 47.623516 6.335159
-4.986284 46.024154 4.301641
-4.873114 46.016771 5.881785
-5.077608 46.007702 2.709779
-4.986284 46.024154 4.301641
-4.452707 47.72623 3.155342
-5.126904 45.877531 1.129847
-5.077608 46.007702 2.709779
-5.163429 45.730081 -0.453783
-5.126904 45.877531 1.129847
-4.580557 47.562328 -0.020149
-5.149054 45.470152 -2.019938
-5.163429 45.730081 -0.453783
-4.601382 47.149715 -3.165843
-5.133352 45.204988 -3.582002
-5.149054 45.470152 -2.019938
1.048676 53.784004 18.803303
0.722288 52.169522 19.503802
0.948848 54.523967 17.207048
1.048676 53.784004 18.803303
1.423795 55.386654 18.063588
1.655091 57.695629 15.811639
1.708689 56.971664 17.445169
1.2262 56.762779 14.849184
1.655091 57.695629 15.811639
1.557323 58.331791 14.19349
1.934775 63.794117 4.573434
1.994487 63.413551 6.252997
1.848004 64.071857 2.91365
1.761656 64.34856 1.243464
1.513679 62.566741 3.549437
1.934775 63.794117 4.573434
1.848004 64.071857 2.91365
0.036391 61.640575 -10.263689
0.195582 61.700573 -8.69113
-0.426526 59.903366 -11.047385
0.036391 61.640575 -10.263689
-0.949099 58.142467 -11.734708
-0.825363 58.296314 -10.196749
-0.426526 59.903366 -11.047385
-1.022242 57.896743 -13.236317
-1.42108 56.289692 -12.385681
-0.949099 58.142467 -11.734708
-1.154575 57.706398 -14.735183
-1.022242 57.896743 -13.236317
-1.232665 57.432282 -16.193161
-1.572313 55.769852 -15.345268
-1.154575 57.706398 -14.735183
-1.370175 57.215626 -17.649269
-1.232665 57.432282 -16.193161
-1.732815 55.203159 -18.213592
-1.370175 57.215626 -17.649269
-4.772072 19.790304 -18.47377
-5.048378 17.715483 -17.58567
-5.129011 20.539428 -17.298098
-4.438385 19.097319 -19.596272
-4.772072 19.790304 -18.47377
-4.519018 21.921264 -19.308698
-4.029136 18.40294 -20.665087
-4.282191 16.27198 -19.830158
-4.438385 19.097319 -19.596272
-3.805399 20.579914 -21.440901
-3.939913 23.377386 -21.321095
-3.55998 22.729021 -22.330796
-3.649204 17.754576 -21.674788
-4.029136 18.40294 -20.665087
-3.805399 20.579914 -21.440901
-3.392792 14.944561 -21.836807
-3.649204 17.754576 -21.674788
3 0 22 20
3 0 24 22
3 1 77 79
3 77 25 78
3 77 78 79
3 1 27 25
3 2 80 82
3 82 81 28
3 80 81 82
3 2 83 84
3 2 85 86
3 3 87 88
3 3 89 90
3 3 91 93
3 91 30 92
3 91 92 93
3 95 94 31
3 4 35 33
3 4 37 35
3 97 96 40
3 5 43 42
3 6 44 21
3 6 45 44
3 6 47 45
3 8 48 23
3 8 98 100
3 100 99 48
3 98 99 100
3 9 101 102
3 9 103 104
3 9 105 107
3 105 50 106
3 105 106 107
3 11 51 26
3 11 52 51
3 12 108 109
3 12 110 111
3 112 53 113
3 114 54 115
3 116 56 117
3 118 117 54
3 116 117 118
3 14 57 29
3 14 58 57
3 7 59 46
3 120 119 32
3 10 60 49
3 15 61 34
3 15 62 61
3 15 63 62
3 16 64 36
3 16 65 64
3 121 66 122
3 17 123 124
3 17 125 127
3 125 67 126
3 125 126 127
3 17 68 67
3 18 69 38
3 18 70 69
3 19 128 130
3 128 71 129
3 128 129 130
3 19 72 71
3 19 73 72
3 131 74 132
3 133 132 39
3 131 132 133
3 134 75 135
3 136 135 74
3 134 135 136
3 13 76 55
3 138 137 41
3 20 21 5
3 22 21 20
3 22 6 21
3 22 23 6
3 24 23 22
3 24 8 23
3 25 139 140
3 25 141 143
3 141 9 142
3 141 142 143
3 25 26 9
3 27 26 25
3 27 11 26
3 28 144 145
3 147 146 28
3 148 12 149
3 150 29 151
3 30 152 154
3 152 29 153
3 152 153 154
3 30 14 29
3 31 32 7
3 155 32 156
3 157 156 31
3 155 156 157
3 159 158 32
3 33 34 10
3 35 34 33
3 35 15 34
3 35 36 15
3 37 36 35
3 37 16 36
3 160 17 161
3 162 38 163
3 164 163 17
3 162 163 164
3 165 38 166
3 167 18 168
3 169 168 38
3 167 168 169
3 170 19 171
3 172 39 173
3 174 173 19
3 172 173 174
3 175 39 176
3 178 177 39
3 40 41 13
3 179 41 180
3 181 180 40
3 179 180 181
3 183 182 41
3 42 184 185
3 43 186 188
3 188 187 42
3 186 187 188
3 43 189 190
3 21 43 5
3 44 43 21
3 44 191 193
3 193 192 43
3 191 192 193
3 44 194 195
3 45 196 198
3 198 197 44
3 196 197 198
3 45 199 201
3 199 3 200
3 199 200 201
3 45 46 3
3 47 46 45
3 47 7 46
3 23 47 6
3 48 47 23
3 48 7 47
3 48 31 7
3 202 31 203
3 204 203 48
3 202 203 204
3 206 205 31
3 207 49 208
3 50 209 211
3 209 49 210
3 209 210 211
3 50 10 49
3 26 50 9
3 51 50 26
3 51 10 50
3 51 33 10
3 52 33 51
3 52 4 33
3 53 212 213
3 53 214 216
3 214 1 215
3 214 215 216
3 217 28 218
3 54 219 221
3 219 28 220
3 219 220 221
3 54 2 28
3 54 55 2
3 56 55 54
3 56 13 55
3 29 222 224
3 222 56 223
3 222 223 224
3 57 56 29
3 57 13 56
3 57 40 13
3 58 40 57
3 58 225 227
3 227 226 40
3 225 226 227
3 46 30 3
3 59 30 46
3 59 14 30
3 32 59 7
3 228 59 229
3 230 229 32
3 228 229 230
3 231 14 232
3 233 232 59
3 231 232 233
3 234 58 235
3 236 235 14
3 234 235 236
3 237 58 238
3 240 239 58
3 49 241 242
3 60 243 245
3 245 244 49
3 243 244 245
3 60 246 247
3 34 60 10
3 61 60 34
3 61 248 250
3 250 249 60
3 248 249 250
3 61 251 252
3 62 253 255
3 255 254 61
3 253 254 255
3 62 256 257
3 62 258 260
3 258 42 259
3 258 259 260
3 63 42 62
3 63 5 42
3 36 63 15
3 64 63 36
3 64 5 63
3 64 20 5
3 65 20 64
3 65 0 20
3 261 53 262
3 66 263 265
3 263 53 264
3 263 264 265
3 66 1 53
3 266 66 267
3 67 268 270
3 268 66 269
3 268 269 270
3 67 1 66
3 67 27 1
3 68 27 67
3 68 11 27
3 38 68 17
3 69 68 38
3 69 11 68
3 69 52 11
3 70 52 69
3 70 4 52
3 271 18 272
3 71 273 274
3 71 275 277
3 275 18 276
3 275 276 277
3 71 70 18
3 72 70 71
3 72 4 70
3 72 37 4
3 73 37 72
3 73 16 37
3 39 73 19
3 74 73 39
3 74 16 73
3 74 65 16
3 75 65 74
3 75 0 65
3 278 75 279
3 280 75 281
3 282 0 283
3 284 283 75
3 282 283 284
3 285 24 286
3 287 286 0
3 285 286 287
3 288 24 289
3 290 8 291
3 292 291 24
3 290 291 292
3 293 8 294
3 296 295 8
3 55 297 299
3 299 298 2
3 297 298 299
3 76 300 302
3 302 301 55
3 300 301 302
3 76 303 305
3 303 12 304
3 303 304 305
3 41 76 13
3 306 76 307
3 308 307 41
3 306 307 308
3 309 12 310
3 311 310 76
3 309 310 311
3 313 312 12
