ply
format ascii 1.0
element vertex 241
property float x
property float y
property float z
element face 236
property list uchar int vertex_index
end_header
40.666019 45.65435 -10.237114
41.794807 62.963242 -18.702749
41.055084 51.244164 -19.044291
36.391624 40.342949 -16.410173
44.469658 50.284889 -12.244444
44.364254 53.565018 -16.51309
41.613773 48.615288 -15.16765
38.707893 45.933609 -17.840536
38.3894 43.452721 -13.332739
37.409538 40.105328 -8.43996
47.92038 59.370064 -13.140818
37.972618 60.311935 -21.071066
45.483276 58.799431 -16.684042
42.227085 56.903214 -19.389647
38.362106 53.909767 -21.546289
37.473827 48.083733 -21.32102
45.773697 64.303749 -13.523983
42.603634 48.036148 -11.284437
43.049595 49.595665 -13.746052
41.26543 47.211983 -12.789064
39.963089 46.108566 -14.251642
39.487564 44.687225 -11.789904
37.922569 41.921745 -10.886477
38.87109 43.039871 -9.24328
41.03437 65.985764 -17.993704
39.283657 64.992149 -19.403395
37.319633 63.63855 -20.617296
39.974327 61.795662 -19.966043
46.806335 59.250786 -15.017939
46.592804 56.74295 -15.220121
42.758698 52.531967 -17.833628
43.572968 55.216896 -18.132196
41.834946 54.010468 -19.344133
40.34824 55.519539 -20.505377
39.984276 52.564911 -20.45669
38.063454 50.928001 -21.527998
39.281555 49.747719 -20.19145
37.453766 43.223118 -17.096224
37.260448 44.312897 -19.141905
36.255558 41.516193 -18.51174
35.486851 38.540943 -17.966852
35.681747 37.212917 -15.914225
43.383354 63.77552 -17.221487
46.061764 52.492554 -12.990051
45.853981 54.303963 -15.047789
44.635525 51.934845 -14.533268
43.139183 51.073418 -15.955599
41.578556 49.939369 -17.274729
39.967213 48.575226 -18.521833
40.163994 47.380447 -16.524488
38.692314 44.765362 -15.682013
37.359638 41.991447 -14.869551
36.344604 38.966904 -14.218803
37.087048 40.55014 -12.545088
47.472328 61.739021 -12.417162
35.208023 61.971947 -21.707701
35.855263 58.566238 -22.095934
46.512215 61.791801 -14.4433
45.316364 61.514122 -16.252768
43.877098 60.884232 -17.826136
45.16571 56.138367 -16.768686
43.950439 58.010071 -18.133043
42.207336 59.906502 -19.173231
40.341255 58.611259 -20.337831
38.330296 57.0467 -21.386751
36.235802 55.266792 -22.395426
38.326935 47.023857 -19.733564
46.180649 64.18695 -12.435499
45.227125 65.507035 -12.914078
45.634077 65.390236 -11.825595
46.906669 55.734867 -14.321313
47.220825 56.881901 -14.350119
44.047062 63.996552 -16.357259
42.954815 65.185471 -16.781881
37.076187 39.469784 -9.325024
37.332702 40.377993 -10.548283
37.666054 41.013537 -9.663218
36.91316 38.450114 -8.191821
37.076187 39.469784 -9.325024
37.34272 53.015736 -22.06193
36.279568 53.694248 -22.486498
37.298954 54.588279 -21.970858
36.796762 48.610676 -21.964602
37.091576 50.03281 -22.068091
37.768641 49.505867 -21.424509
36.573017 47.181515 -21.894085
36.796762 48.610676 -21.964602
36.973548 44.8157 -20.042183
36.552267 43.429003 -19.795901
36.059478 37.300635 -14.0362
36.275674 38.147911 -13.117028
44.756523 65.564995 -13.981233
45.227125 65.507035 -12.914078
45.242233 64.260666 -14.508507
44.756523 65.564995 -13.981233
39.674166 67.041328 -18.326329
40.507502 67.428055 -17.528742
38.798809 66.544521 -19.031174
39.674166 67.041328 -18.326329
40.159014 65.488957 -18.698549
37.84678 65.960964 -19.717574
38.798809 66.544521 -19.031174
38.301645 64.315349 -20.010345
36.864768 65.284165 -20.324524
37.84678 65.960964 -19.717574
47.32759 58.135818 -14.249028
47.363357 59.310425 -14.079379
47.884613 58.195458 -13.310468
46.699569 57.996868 -15.11903
47.32759 58.135818 -14.249028
47.220825 56.881901 -14.350119
36.049822 42.030651 -19.480818
36.552267 43.429003 -19.795901
36.758003 42.914545 -18.826822
35.684708 40.592441 -19.22718
36.049822 42.030651 -19.480818
35.300354 39.104816 -18.954736
35.684708 40.592441 -19.22718
35.871205 40.028568 -18.239296
35.071053 37.576571 -18.758665
35.300354 39.104816 -18.954736
35.290411 36.933477 -17.804308
35.071053 37.576571 -18.758665
35.387859 36.269464 -16.777994
35.290411 36.933477 -17.804308
35.584299 37.87693 -16.940538
35.554287 35.504936 -15.822744
35.387859 36.269464 -16.777994
41.780323 66.290593 -17.16799
40.507502 67.428055 -17.528742
42.208862 64.880642 -17.607596
41.780323 66.290593 -17.16799
42.954815 65.185471 -16.781881
45.957872 53.398258 -14.01892
46.537258 54.515374 -14.235146
46.641149 53.609669 -13.206277
36.646896 38.939529 -12.280171
36.275674 38.147911 -13.117028
36.715826 39.758522 -13.381946
36.914942 39.69219 -11.377588
37.504809 41.235943 -11.715782
37.332702 40.377993 -10.548283
36.646896 38.939529 -12.280171
36.914942 39.69219 -11.377588
47.843441 61.56718 -11.315262
47.029964 62.904586 -11.882089
48.15424 60.46217 -11.748797
47.843441 61.56718 -11.315262
48.378265 59.277691 -12.110625
47.696354 60.554542 -12.77899
48.15424 60.46217 -11.748797
48.429856 58.178581 -12.352843
48.378265 59.277691 -12.110625
47.884613 58.195458 -13.310468
48.429856 58.178581 -12.352843
46.739534 52.613984 -12.157515
46.641149 53.609669 -13.206277
45.968376 51.577106 -11.824962
46.739534 52.613984 -12.157515
45.172324 50.473274 -11.452158
45.265711 51.388722 -12.617247
45.968376 51.577106 -11.824962
44.226396 49.41856 -10.99072
45.172324 50.473274 -11.452158
43.293385 48.29419 -10.510717
43.536646 49.160518 -11.76444
44.226396 49.41856 -10.99072
42.270361 47.178096 -9.981316
43.293385 48.29419 -10.510717
41.301553 45.987198 -9.457654
41.634827 46.845249 -10.760776
42.270361 47.178096 -9.981316
40.309841 44.760519 -8.930601
41.301553 45.987198 -9.457654
35.824509 64.519813 -20.929327
36.864768 65.284165 -20.324524
34.768704 63.686512 -21.47453
35.824509 64.519813 -20.929327
36.263828 62.805249 -21.162498
33.678297 62.767842 -22.0373
34.768704 63.686512 -21.47453
34.115902 61.011307 -22.232715
33.678297 62.767842 -22.0373
34.439522 59.308453 -22.426832
34.115902 61.011307 -22.232715
35.531643 60.269092 -21.901817
34.773611 57.590225 -22.607518
34.439522 59.308453 -22.426832
46.623013 63.021385 -12.970572
46.180649 64.18695 -12.435499
47.029964 62.904586 -11.882089
45.611492 63.004692 -14.968166
45.242233 64.260666 -14.508507
46.142956 63.047775 -13.983642
45.013567 62.865853 -15.872899
45.611492 63.004692 -14.968166
45.914289 61.652962 -15.348034
44.349859 62.644821 -16.737127
44.047062 63.996552 -16.357259
45.013567 62.865853 -15.872899
46.223393 55.523457 -15.133955
46.906669 55.734867 -14.321313
46.537258 54.515374 -14.235146
34.963881 55.940502 -22.757264
34.773611 57.590225 -22.607518
36.045533 56.916515 -22.24568
35.177868 54.292492 -22.912678
34.963881 55.940502 -22.757264
35.177868 54.292492 -22.912678
36.279568 53.694248 -22.486498
37.193394 51.524853 -22.052784
37.34272 53.015736 -22.06193
38.21278 52.418884 -21.537143
37.193394 51.524853 -22.052784
37.091576 50.03281 -22.068091
37.506792 46.17118 -20.338013
37.793691 45.668377 -19.437735
36.973548 44.8157 -20.042183
37.080238 46.701118 -21.13174
37.900381 47.553795 -20.527292
37.506792 46.17118 -20.338013
36.573017 47.181515 -21.894085
37.080238 46.701118 -21.13174
35.72805 36.423641 -14.883911
36.013176 38.089911 -15.066514
36.059478 37.300635 -14.0362
35.554287 35.504936 -15.822744
35.72805 36.423641 -14.883911
39.412377 43.45328 -8.433684
39.768555 44.34711 -9.740197
40.309841 44.760519 -8.930601
38.554066 42.070299 -7.979832
39.412377 43.45328 -8.433684
37.82329 40.603027 -7.578171
38.140314 41.572599 -8.84162
38.554066 42.070299 -7.979832
37.178146 39.03079 -7.260035
37.82329 40.603027 -7.578171
37.591898 39.52849 -6.398247
36.91316 38.450114 -8.191821
37.178146 39.03079 -7.260035
3 67 16 68
3 67 68 69
3 0 19 17
3 0 21 19
3 0 23 21
3 1 25 24
3 1 27 25
3 70 29 71
3 2 32 30
3 2 34 32
3 2 36 34
3 3 39 37
3 3 40 39
3 3 41 40
3 72 42 73
3 4 45 43
3 6 46 18
3 6 47 46
3 6 49 47
3 8 50 20
3 8 51 50
3 8 53 51
3 9 74 76
3 76 75 22
3 74 75 76
3 9 77 78
3 11 55 26
3 11 56 55
3 10 57 54
3 12 58 28
3 12 59 58
3 5 60 44
3 13 61 31
3 13 62 61
3 13 63 62
3 14 64 33
3 14 65 64
3 14 79 81
3 81 80 65
3 79 80 81
3 15 82 84
3 84 83 35
3 82 83 84
3 15 85 86
3 7 66 48
3 88 87 38
3 90 89 52
3 16 91 92
3 16 93 94
3 17 18 4
3 19 18 17
3 19 6 18
3 19 20 6
3 21 20 19
3 21 8 20
3 21 22 8
3 23 22 21
3 23 9 22
3 24 95 96
3 25 97 99
3 99 98 24
3 97 98 99
3 25 100 101
3 25 102 104
3 102 26 103
3 102 103 104
3 27 26 25
3 27 11 26
3 105 28 106
3 107 106 10
3 105 106 107
3 29 108 110
3 108 28 109
3 108 109 110
3 29 12 28
3 30 31 5
3 32 31 30
3 32 13 31
3 32 33 13
3 34 33 32
3 34 14 33
3 34 35 14
3 36 35 34
3 36 15 35
3 37 38 7
3 39 38 37
3 39 111 113
3 113 112 38
3 111 112 113
3 39 114 115
3 40 116 118
3 118 117 39
3 116 117 118
3 40 119 120
3 40 121 122
3 41 123 125
3 125 124 40
3 123 124 125
3 41 126 127
3 128 24 129
3 42 130 132
3 130 24 131
3 130 131 132
3 42 1 24
3 43 133 135
3 133 44 134
3 133 134 135
3 45 44 43
3 45 5 44
3 18 45 4
3 46 45 18
3 46 5 45
3 46 30 5
3 47 30 46
3 47 2 30
3 47 48 2
3 49 48 47
3 49 7 48
3 20 49 6
3 50 49 20
3 50 7 49
3 50 37 7
3 51 37 50
3 51 3 37
3 51 52 3
3 53 52 51
3 53 136 138
3 138 137 52
3 136 137 138
3 22 53 8
3 139 53 140
3 141 140 22
3 139 140 141
3 143 142 53
3 144 54 145
3 146 54 147
3 148 10 149
3 150 149 54
3 148 149 150
3 151 10 152
3 154 153 10
3 155 43 156
3 157 43 158
3 159 4 160
3 161 160 43
3 159 160 161
3 162 4 163
3 164 17 165
3 166 165 4
3 164 165 166
3 167 17 168
3 169 0 170
3 171 170 17
3 169 170 171
3 173 172 0
3 26 174 175
3 55 176 178
3 178 177 26
3 176 177 178
3 55 179 180
3 55 181 182
3 56 183 185
3 185 184 55
3 183 184 185
3 56 186 187
3 54 188 190
3 188 16 189
3 188 189 190
3 57 16 54
3 57 191 193
3 193 192 16
3 191 192 193
3 28 57 10
3 58 57 28
3 58 194 196
3 196 195 57
3 194 195 196
3 58 197 199
3 197 42 198
3 197 198 199
3 59 42 58
3 59 1 42
3 44 200 202
3 200 29 201
3 200 201 202
3 60 29 44
3 60 12 29
3 31 60 5
3 61 60 31
3 61 12 60
3 61 59 12
3 62 59 61
3 62 1 59
3 62 27 1
3 63 27 62
3 63 11 27
3 33 63 13
3 64 63 33
3 64 11 63
3 64 56 11
3 65 56 64
3 65 203 205
3 205 204 56
3 203 204 205
3 65 206 207
3 209 208 65
3 35 210 212
3 212 211 14
3 210 211 212
3 214 213 35
3 48 36 2
3 66 36 48
3 66 15 36
3 38 66 7
3 215 66 216
3 217 216 38
3 215 216 217
3 218 15 219
3 220 219 66
3 218 219 220
3 222 221 15
3 52 41 3
3 223 41 224
3 225 224 52
3 223 224 225
3 227 226 41
3 228 23 229
3 230 229 0
3 228 229 230
3 231 23 232
3 233 9 234
3 235 234 23
3 233 234 235
3 236 9 237
3 236 237 238
3 240 239 9
