ply
format ascii 1.0
element vertex 315
property float x
property float y
property float z
element face 326
property list uchar int vertex_index
end_header
-4.643549 25.224438 30.175343
-0.439602 34.470009 33.39624
-2.920248 40.487057 22.250427
1.485544 47.925331 27.065704
-1.681707 19.47451 40.314415
-5.041265 44.002415 10.154436
1.41721 37.992821 35.159859
0.487524 41.364658 29.968483
0.758041 31.295033 38.522457
-6.116068 27.334583 24.710213
-1.441568 47.585472 18.319355
-4.083036 42.669525 16.306097
-3.164606 22.548519 35.385902
-3.48477 14.589386 38.490303
-4.963575 17.234436 33.629074
-2.580011 30.254181 31.770861
-3.984072 32.996925 26.295553
-1.688745 37.663418 27.963276
-0.492823 44.721798 24.300434
0.870848 51.417725 21.060843
-0.17775 16.267521 44.926842
0.208733 23.970242 41.952587
-1.170252 27.150761 36.993729
-5.348253 35.164963 20.590027
-5.611185 44.305626 3.856078
1.754442 41.069252 33.738106
-5.596998 22.375511 29.34186
-5.387426 26.357864 27.474781
-0.588524 50.963318 16.484455
-1.88933 48.746414 15.242553
-3.90135 23.948807 32.813099
-4.094477 19.991531 34.530613
-4.842043 21.255604 31.970646
-5.72159 18.346008 31.082928
-1.503771 32.455616 32.570915
-2.174643 33.999641 29.869562
-1.064289 36.090977 30.718613
0.990978 44.674843 28.439642
-0.003511 43.082428 27.182476
0.585905 46.448486 25.574833
0.183834 48.113045 22.614086
1.176294 49.742287 24.107464
0.835051 22.441051 44.351028
1.042473 26.192829 42.726749
0.174631 32.854206 35.994026
-0.169611 29.260441 37.765339
-0.832447 30.86134 35.202667
-1.875929 28.731049 34.415817
-3.505934 36.78392 24.276482
-4.677786 34.163765 23.471432
-4.157495 37.963623 21.393112
-4.599401 43.454647 13.25419
-5.358316 39.773987 15.458668
-5.858351 40.355572 12.40955
-5.384844 44.290859 7.016365
-0.927258 17.868027 42.659828
-1.856695 15.531887 41.754982
-4.280882 11.902742 37.492531
0.557539 36.313866 34.259285
0.004059 37.969429 31.633476
0.967831 39.636753 32.634373
1.387182 42.851292 31.176252
1.789 46.0093 29.903934
1.280685 29.827881 41.006363
1.541557 33.299675 39.254307
1.079609 34.738705 36.789078
-2.228003 44.091564 20.252853
-3.516455 41.671902 19.305584
-2.755613 45.270691 17.243265
-3.251757 46.248703 14.181438
-3.69837 47.000771 11.072156
-2.42734 21.046932 37.888466
-2.613718 17.102367 39.429798
-3.355291 18.599396 37.019119
-4.219183 15.976868 36.099236
-5.014765 13.157726 35.12426
-5.768183 14.266537 32.672844
-3.633238 27.848259 30.978634
-4.360441 29.140171 28.272995
-3.282721 31.685764 29.062735
-2.842665 35.453487 27.103035
-2.308542 39.141033 25.138
-0.560564 39.632614 28.908064
-1.124487 41.23872 26.094208
-1.681803 42.737606 23.205526
-0.973789 46.23455 21.341606
-0.209023 49.628006 19.579136
0.664228 18.605911 45.83033
-0.007187 20.153976 43.520485
-0.722567 21.747746 41.151752
0.465273 27.693722 40.267754
-0.46944 25.551273 39.504166
-1.452932 23.350945 38.713848
-2.182535 24.925373 36.203697
-2.908113 26.434895 33.623661
-5.084372 30.290298 25.508577
-5.788702 31.280807 22.68441
-4.782438 38.96833 18.453808
-5.971392 35.978996 17.649879
-0.769027 51.528751 14.912347
-0.150665 52.596306 15.632072
1.375173 27.329434 43.102018
1.284755 25.485449 43.945093
-5.648603 42.345408 9.733605
-6.057146 40.521986 10.861162
-5.449808 42.178994 11.281993
-5.213055 44.146637 8.585401
-5.820393 42.489629 8.16457
-5.648603 42.345408 9.733605
-4.282511 9.834596 38.092304
-4.641278 10.461569 36.964012
1.728234 43.454674 31.874065
1.570812 41.960272 32.457179
1.911864 42.563654 33.154992
1.929143 45.033678 31.237906
1.588091 44.430296 30.540093
1.728234 43.454674 31.874065
1.829603 34.316469 39.588503
1.725307 32.653742 40.481087
1.24841 36.365763 35.974469
1.445083 35.640994 37.175297
1.613884 37.268051 36.360687
-6.582142 25.735287 24.290479
-6.229277 25.336968 25.676603
-6.458754 27.737316 23.294453
-6.582142 25.735287 24.290479
-2.779022 47.9706 13.149711
-2.570543 47.497558 14.711996
-2.097809 49.219456 13.680269
-3.002329 48.346634 11.59507
-3.475064 46.624737 12.626797
-2.779022 47.9706 13.149711
-3.188185 48.701024 10.012672
-3.002329 48.346634 11.59507
-6.1255 16.782454 30.609729
-6.099703 18.823559 29.771152
0.722288 52.169522 19.503802
0.182353 51.274662 18.762949
0.330912 50.522865 20.319989
1.018896 19.797914 46.273577
0.959058 17.869747 46.964433
-5.89789 33.629238 20.194043
-6.118114 31.68716 21.241234
-5.568478 33.222885 21.637218
-6.24493 36.280682 16.150332
-5.664854 37.876492 16.554274
-5.938392 38.178177 15.054727
-6.500756 34.343345 17.248921
-6.24493 36.280682 16.150332
-6.137729 42.420946 3.445431
-6.070162 42.528883 5.018629
-5.660481 44.175455 2.276146
-6.137729 42.420946 3.445431
-0.236629 14.297598 45.53188
0.179819 15.48951 46.026491
-3.113996 13.842875 39.642589
-2.67847 15.099365 40.112337
-3.049244 15.845876 38.96005
1.910253 40.274462 34.903009
1.585826 39.531036 34.448982
1.741637 38.736246 35.613886
2.026706 41.624317 34.357271
1.910253 40.274462 34.903009
1.911864 42.563654 33.154992
2.026706 41.624317 34.357271
1.741637 38.736246 35.613886
1.613884 37.268051 36.360687
-5.969741 22.857432 27.992427
-6.037407 20.83831 28.900618
-5.864955 24.848608 27.058888
-5.969741 22.857432 27.992427
-5.492212 24.366687 28.408321
-5.751747 26.846224 26.092497
-6.229277 25.336968 25.676603
-5.864955 24.848608 27.058888
-1.41943 50.420299 14.291396
-1.238927 49.854866 15.863504
-0.769027 51.528751 14.912347
-2.097809 49.219456 13.680269
-1.41943 50.420299 14.291396
-6.037407 20.83831 28.900618
-6.099703 18.823559 29.771152
-5.659294 20.36076 30.212394
1.181044 23.60956 44.757233
1.104307 21.715485 45.533926
0.938762 24.31694 43.538888
1.181044 23.60956 44.757233
1.284755 25.485449 43.945093
-6.18841 38.46897 13.530168
-5.938392 38.178177 15.054727
-5.608334 40.06478 13.934109
-6.409738 38.652783 12.002985
-6.18841 38.46897 13.530168
-6.409738 38.652783 12.002985
-6.057146 40.521986 10.861162
-5.956991 42.521499 6.598773
-5.820393 42.489629 8.16457
-5.498015 44.298243 5.436222
-6.070162 42.528883 5.018629
-5.956991 42.521499 6.598773
-1.003546 15.897229 43.324848
-0.628792 15.096975 44.458355
-0.552504 17.067774 43.793335
-1.468265 14.729159 42.872425
-1.003546 15.897229 43.324848
-1.391976 16.699957 42.207405
-1.916122 13.531491 42.379635
-1.468265 14.729159 42.872425
-3.918455 11.210782 38.633301
-3.520399 12.554104 39.132187
-3.882826 13.246064 37.991417
-3.918455 11.210782 38.633301
-4.282511 9.834596 38.092304
1.594871 30.917845 41.357115
1.494279 29.14696 42.241825
1.411121 31.563778 40.130335
1.594871 30.917845 41.357115
1.725307 32.653742 40.481087
1.676057 34.921478 38.407911
1.829603 34.316469 39.588503
1.310583 34.01919 38.021693
1.676057 34.921478 38.407911
1.445083 35.640994 37.175297
-3.88656 47.25256 9.497635
-4.558008 45.753382 9.038775
-4.369817 45.501593 10.613296
-3.88656 47.25256 9.497635
-3.188185 48.701024 10.012672
-5.008219 11.089061 35.779877
-4.641278 10.461569 36.964012
-4.647823 12.530234 36.308396
-5.378912 11.64424 34.607031
-5.008219 11.089061 35.779877
-5.755621 12.198645 33.381323
-5.378912 11.64424 34.607031
-5.391474 13.712131 33.898552
-6.135622 12.676499 32.162855
-6.12306 10.608607 32.871334
-5.755621 12.198645 33.381323
-6.148796 14.742718 31.404687
-5.744886 16.306272 31.877886
-6.1255 16.782454 30.609729
-6.135622 12.676499 32.162855
-6.148796 14.742718 31.404687
-0.007398 51.942318 17.215609
-0.398774 50.295662 18.031796
0.182353 51.274662 18.762949
-0.150665 52.596306 15.632072
-0.007398 51.942318 17.215609
0.600808 16.658704 46.478235
0.895637 15.922541 47.612339
0.959058 17.869747 46.964433
0.243239 17.436716 45.378586
0.179819 15.48951 46.026491
0.600808 16.658704 46.478235
0.74964 20.523481 45.090679
1.018896 19.797914 46.273577
1.104307 21.715485 45.533926
1.161579 28.010355 41.866556
1.375173 27.329434 43.102018
1.494279 29.14696 42.241825
-6.29507 29.710428 22.281551
-6.458754 27.737316 23.294453
-5.952385 29.307695 23.697311
-6.29507 29.710428 22.281551
-6.118114 31.68716 21.241234
-6.209459 34.036254 18.723969
-5.89789 33.629238 20.194043
-5.659822 35.571979 19.119953
-6.209459 34.036254 18.723969
-6.500756 34.343345 17.248921
-4.729798 45.897604 7.469739
-5.213055 44.146637 8.585401
-4.558008 45.753382 9.038775
-4.873114 46.016771 5.881785
-4.729798 45.897604 7.469739
-4.986284 46.024154 4.301641
-5.498015 44.298243 5.436222
-4.873114 46.016771 5.881785
-5.077608 46.007702 2.709779
-4.986284 46.024154 4.301641
-5.126904 45.877531 1.129847
-5.660481 44.175455 2.276146
-5.077608 46.007702 2.709779
-0.236629 14.297598 45.53188
-0.628792 15.096975 44.458355
-2.299959 14.314125 41.274929
-2.235206 16.317127 40.59239
-2.67847 15.099365 40.112337
-1.916122 13.531491 42.379635
-2.299959 14.314125 41.274929
-3.113996 13.842875 39.642589
-3.520399 12.554104 39.132187
2.059817 46.538071 30.761375
1.929143 45.033678 31.237906
1.964901 47.582428 29.355328
2.059817 46.538071 30.761375
1.813173 48.540443 27.936212
1.637272 46.967315 28.484819
1.964901 47.582428 29.355328
1.710737 49.531395 26.458984
1.813173 48.540443 27.936212
1.556112 50.439873 24.979864
1.330919 48.833809 25.586584
1.710737 49.531395 26.458984
1.452239 51.359509 23.450944
1.556112 50.439873 24.979864
1.299516 52.197227 21.927633
1.023571 50.580006 22.584153
1.452239 51.359509 23.450944
1.197235 53.032207 20.360343
1.299516 52.197227 21.927633
1.048676 53.784004 18.803303
0.722288 52.169522 19.503802
1.197235 53.032207 20.360343
3 0 27 26
3 100 99 28
3 0 32 30
3 0 26 32
3 1 36 34
3 3 39 37
3 3 41 39
3 101 43 102
3 1 46 44
3 1 34 46
3 2 50 48
3 5 53 51
3 5 103 105
3 105 104 53
3 103 104 105
3 5 106 108
3 106 54 107
3 106 107 108
3 4 56 55
3 110 109 57
3 6 60 58
3 111 61 112
3 113 112 25
3 111 112 113
3 114 62 115
3 116 115 61
3 114 115 116
3 117 64 118
3 6 119 121
3 119 65 120
3 119 120 121
3 6 58 65
3 9 122 123
3 9 124 125
3 10 68 66
3 126 69 127
3 128 127 29
3 126 127 128
3 129 70 130
3 131 130 69
3 129 130 131
3 133 132 70
3 12 73 71
3 14 74 31
3 14 75 74
3 14 76 75
3 135 134 33
3 15 79 77
3 17 80 35
3 17 81 80
3 7 82 59
3 18 83 38
3 18 84 83
3 18 85 84
3 19 86 40
3 19 136 138
3 138 137 86
3 136 137 138
3 139 87 140
3 21 88 42
3 21 89 88
3 8 90 63
3 22 91 45
3 22 92 91
3 22 93 92
3 15 94 47
3 15 77 94
3 16 95 78
3 23 96 49
3 23 141 143
3 143 142 96
3 141 142 143
3 11 97 67
3 144 98 145
3 146 145 52
3 144 145 146
3 148 147 98
3 24 149 150
3 24 151 152
3 20 153 154
3 13 155 157
3 157 156 72
3 155 156 157
3 158 25 159
3 160 159 6
3 158 159 160
3 161 25 162
3 164 163 25
3 165 6 166
3 26 167 168
3 27 169 171
3 171 170 26
3 169 170 171
3 27 172 174
3 172 9 173
3 172 173 174
3 28 29 10
3 175 29 176
3 177 176 28
3 175 176 177
3 179 178 29
3 30 31 12
3 32 31 30
3 32 14 31
3 32 33 14
3 26 33 32
3 26 180 182
3 182 181 33
3 180 181 182
3 34 35 15
3 36 35 34
3 36 17 35
3 37 38 7
3 39 38 37
3 39 18 38
3 39 40 18
3 41 40 39
3 41 19 40
3 183 42 184
3 43 185 187
3 185 42 186
3 185 186 187
3 43 21 42
3 44 45 8
3 46 45 44
3 46 22 45
3 46 47 22
3 34 47 46
3 34 15 47
3 48 49 16
3 50 49 48
3 50 23 49
3 51 52 11
3 53 52 51
3 53 188 190
3 190 189 52
3 188 189 190
3 53 191 192
3 194 193 53
3 54 195 196
3 54 197 199
3 197 24 198
3 197 198 199
3 55 200 202
3 202 201 20
3 200 201 202
3 56 203 205
3 205 204 55
3 203 204 205
3 56 206 207
3 57 208 210
3 210 209 13
3 208 209 210
3 212 211 57
3 58 59 1
3 60 59 58
3 60 7 59
3 25 60 6
3 61 60 25
3 61 7 60
3 61 37 7
3 62 37 61
3 62 3 37
3 213 63 214
3 64 215 217
3 215 63 216
3 215 216 217
3 64 8 63
3 218 64 219
3 65 220 222
3 220 64 221
3 220 221 222
3 65 8 64
3 65 44 8
3 58 44 65
3 58 1 44
3 66 67 2
3 68 67 66
3 68 11 67
3 29 68 10
3 69 68 29
3 69 11 68
3 69 51 11
3 70 51 69
3 70 5 51
3 70 223 225
3 225 224 5
3 223 224 225
3 227 226 70
3 71 72 4
3 73 72 71
3 73 13 72
3 31 73 12
3 74 73 31
3 74 13 73
3 74 57 13
3 75 57 74
3 75 228 230
3 230 229 57
3 228 229 230
3 75 231 232
3 76 233 235
3 235 234 75
3 233 234 235
3 76 236 238
3 236 237 238
3 33 76 14
3 239 76 240
3 241 240 33
3 239 240 241
3 243 242 76
3 77 78 0
3 79 78 77
3 79 16 78
3 35 79 15
3 80 79 35
3 80 16 79
3 80 48 16
3 81 48 80
3 81 2 48
3 59 36 1
3 82 36 59
3 82 17 36
3 38 82 7
3 83 82 38
3 83 17 82
3 83 81 17
3 84 81 83
3 84 2 81
3 84 66 2
3 85 66 84
3 85 10 66
3 40 85 18
3 86 85 40
3 86 10 85
3 86 28 10
3 244 28 245
3 246 245 86
3 244 245 246
3 248 247 28
3 87 249 251
3 249 250 251
3 87 252 254
3 252 20 253
3 252 253 254
3 42 255 257
3 255 87 256
3 255 256 257
3 88 87 42
3 88 20 87
3 88 55 20
3 89 55 88
3 89 4 55
3 63 258 260
3 258 43 259
3 258 259 260
3 90 43 63
3 90 21 43
3 45 90 8
3 91 90 45
3 91 21 90
3 91 89 21
3 92 89 91
3 92 4 89
3 92 71 4
3 93 71 92
3 93 12 71
3 47 93 22
3 94 93 47
3 94 12 93
3 94 30 12
3 77 30 94
3 77 0 30
3 78 27 0
3 95 27 78
3 95 9 27
3 49 95 16
3 96 95 49
3 96 9 95
3 96 261 263
3 263 262 9
3 261 262 263
3 265 264 96
3 67 50 2
3 97 50 67
3 97 23 50
3 52 97 11
3 98 97 52
3 98 23 97
3 98 266 268
3 268 267 23
3 266 267 268
3 270 269 98
3 271 54 272
3 273 272 5
3 271 272 273
3 274 54 275
3 276 24 277
3 278 277 54
3 276 277 278
3 279 24 280
3 283 282 24
3 281 282 283
3 285 284 20
3 72 56 4
3 286 56 287
3 288 287 72
3 286 287 288
3 290 289 56
3 292 291 13
3 293 62 294
3 295 62 296
3 297 3 298
3 299 298 62
3 297 298 299
3 300 3 301
3 302 41 303
3 304 303 3
3 302 303 304
3 305 41 306
3 307 19 308
3 309 308 41
3 307 308 309
3 310 19 311
3 314 313 19
3 312 313 314
