ply
format ascii 1.0
element vertex 222
property float x
property float y
property float z
element face 221
property list uchar int vertex_index
end_header
-46.781338 -20.386074 -1.312229
-49.361092 -31.904053 5.432495
-54.145748 -23.138411 -0.305429
-42.659241 -26.720022 6.90132
-58.262611 -13.448835 -7.171316
-44.363514 -32.747383 9.678873
-45.64782 -29.556152 6.380133
-50.316528 -21.926119 -0.50862
-56.496765 -18.408571 -3.442852
-52.660053 -17.592731 -4.395256
-54.538231 -12.809087 -8.688961
-58.060993 -24.635185 -0.738565
-51.582253 -27.667133 2.530345
-47.819878 -25.902664 3.031682
-44.557281 -23.745901 2.926353
-60.186455 -19.674494 -3.299179
-61.645996 -14.697287 -6.413799
-42.855804 -31.118221 10.177991
-48.496628 -21.247795 -0.866531
-51.530968 -19.810501 -2.402035
-49.665981 -19.259775 -2.934612
-50.762737 -17.147137 -5.07748
-47.882908 -18.52696 -3.517826
-52.455208 -30.833508 3.507326
-53.607662 -28.559612 2.137994
-50.391052 -29.834665 3.952561
-44.056473 -28.226938 6.713692
-46.658295 -27.774036 4.719073
-45.012554 -26.614164 4.908518
-46.114548 -24.913458 3.048917
-43.537525 -25.277519 4.948912
-56.10231 -23.827238 -0.468904
-59.184723 -22.158976 -1.978769
-57.297157 -21.406082 -1.817888
-57.467106 -15.960117 -5.222549
-59.286682 -16.478662 -4.884275
-60.009926 -13.968779 -6.682699
-60.532032 -11.428505 -8.68508
-58.871063 -10.876105 -9.293303
-46.612427 -32.579399 7.512151
-47.41925 -30.766319 5.930099
-44.860802 -31.22514 8.031013
-43.315536 -29.736938 8.470127
-41.987095 -28.067646 8.777747
-52.209373 -22.526636 -0.311694
-55.376495 -20.799109 -1.814381
-53.445194 -20.291426 -2.01071
-54.582336 -17.979479 -3.826164
-55.585052 -15.580343 -5.774212
-56.429401 -13.088165 -7.860117
-53.670387 -15.260624 -6.491919
-51.755081 -14.898102 -7.290554
-54.848724 -26.216206 0.830163
-52.85873 -25.429527 1.126712
-48.45562 -28.828575 4.384035
-49.648758 -26.797838 2.850644
-50.923546 -24.694521 1.297454
-49.06102 -23.953564 1.296495
-47.295856 -23.127386 1.126496
-45.65699 -22.119936 0.837831
-58.373371 -18.957003 -3.273737
-61.017025 -17.186687 -4.761282
-57.101276 -10.505829 -10.080214
-45.198421 -19.231279 -1.748085
-46.209908 -17.497705 -4.045454
-50.412746 -32.454169 5.205445
-48.961517 -32.871021 6.214193
-50.90815 -31.36878 4.469911
-51.959805 -31.918896 4.242861
-50.412746 -32.454169 5.205445
-42.449951 -29.520131 9.519613
-43.08567 -30.42758 9.324059
-42.220085 -30.210772 10.373545
-41.78573 -28.685485 9.673423
-42.651315 -28.902292 8.623937
-42.449951 -29.520131 9.519613
-45.230875 -33.488018 9.409698
-44.286404 -33.415943 10.499481
-45.487971 -32.663391 8.595512
-46.355331 -33.404026 8.326337
-45.230875 -33.488018 9.409698
-50.33901 -15.712407 -6.530862
-51.258909 -16.02262 -6.184017
-49.842838 -16.836924 -5.424325
-50.813187 -14.636951 -7.677131
-50.33901 -15.712407 -6.530862
-59.53982 -23.858624 -1.480498
-59.032086 -25.110067 -0.883733
-61.049788 -20.130347 -3.379923
-60.548921 -21.372588 -2.719718
-59.685589 -20.916735 -2.638974
-61.410221 -18.891673 -4.056432
-61.049788 -20.130347 -3.379923
-62.396736 -15.177027 -6.378405
-62.082251 -16.421726 -5.552147
-61.33151 -15.941987 -5.58754
-62.543676 -13.965967 -7.253716
-62.396736 -15.177027 -6.378405
-44.482185 -18.45833 -1.912326
-44.026817 -19.19626 -0.751155
-44.987928 -17.591543 -3.061011
-45.704165 -18.364492 -2.89677
-44.482185 -18.45833 -1.912326
-42.794685 -31.727874 11.004221
-43.609659 -31.932802 9.928432
-43.54854 -32.542456 10.754662
-42.181497 -30.759588 11.220195
-42.794685 -31.727874 11.004221
-42.220085 -30.210772 10.373545
-42.181497 -30.759588 11.220195
-43.54854 -32.542456 10.754662
-44.286404 -33.415943 10.499481
-48.402923 -17.526835 -4.644498
-49.842838 -16.836924 -5.424325
-49.322823 -17.837049 -4.297653
-53.031435 -29.69656 2.82266
-54.660317 -29.033538 1.950832
-54.08409 -30.170486 2.635498
-53.545175 -31.343658 3.324134
-51.959805 -31.918896 4.242861
-54.08409 -30.170486 2.635498
-53.545175 -31.343658 3.324134
-61.036072 -13.088682 -7.484977
-61.854107 -13.452936 -7.350527
-60.827961 -14.333033 -6.548249
-61.297125 -11.818545 -8.486167
-61.036072 -13.088682 -7.484977
-60.270979 -12.698642 -7.683889
-61.401823 -10.577405 -9.538616
-61.297125 -11.818545 -8.486167
-60.693587 -10.146899 -9.788187
-61.401823 -10.577405 -9.538616
-59.863102 -9.8707 -10.092299
-60.693587 -10.146899 -9.788187
-59.701548 -11.152305 -8.989192
-59.080551 -9.564066 -10.437496
-59.863102 -9.8707 -10.092299
-54.892943 -11.526279 -9.834177
-53.578883 -12.659432 -9.127913
-47.587185 -33.208695 7.254021
-46.355331 -33.404026 8.326337
-47.986759 -32.241726 6.472323
-48.961517 -32.871021 6.214193
-47.587185 -33.208695 7.254021
-52.187308 -13.70394 -8.428709
-53.578883 -12.659432 -9.127913
-53.146656 -13.853594 -7.989758
-52.187308 -13.70394 -8.428709
-50.813187 -14.636951 -7.677131
-57.470219 -25.863333 -0.125333
-59.032086 -25.110067 -0.883733
-55.243553 -27.825547 1.312947
-54.660317 -29.033538 1.950832
-55.864084 -26.653844 0.659031
-55.243553 -27.825547 1.312947
-54.228193 -27.387909 1.484078
-56.454859 -25.425695 0.045799
-57.470219 -25.863333 -0.125333
-55.864084 -26.653844 0.659031
-60.101684 -22.62052 -2.1006
-59.53982 -23.858624 -1.480498
-58.622858 -23.397081 -1.358667
-60.101684 -22.62052 -2.1006
-60.548921 -21.372588 -2.719718
-61.825506 -17.647769 -4.787483
-61.410221 -18.891673 -4.056432
-60.60174 -18.430591 -4.030231
-61.825506 -17.647769 -4.787483
-62.082251 -16.421726 -5.552147
-62.543676 -13.965967 -7.253716
-61.854107 -13.452936 -7.350527
-58.195657 -9.378929 -10.830951
-59.080551 -9.564066 -10.437496
-57.98617 -10.690967 -9.686758
-56.174465 -10.37465 -10.529803
-55.819754 -11.657458 -9.384588
-54.892943 -11.526279 -9.834177
-57.347515 -9.17622 -11.252821
-56.174465 -10.37465 -10.529803
-58.195657 -9.378929 -10.830951
-57.347515 -9.17622 -11.252821
-41.272741 -27.664003 9.797622
-41.78573 -28.685485 9.673423
-41.437207 -27.115631 8.859876
-41.272741 -27.664003 9.797622
-41.77328 -26.441819 7.921663
-42.323168 -27.393834 7.839533
-41.437207 -27.115631 8.859876
-42.065644 -25.844475 6.928902
-41.77328 -26.441819 7.921663
-42.504785 -25.123223 5.952699
-43.098383 -25.99877 5.925116
-42.065644 -25.844475 6.928902
-42.895569 -24.480981 4.914186
-42.504785 -25.123223 5.952699
-43.405447 -23.715173 3.902906
-44.047403 -24.51171 3.937633
-42.895569 -24.480981 4.914186
-43.864777 -23.026992 2.826712
-43.405447 -23.715173 3.902906
-44.414631 -22.214009 1.782451
-45.107135 -22.932918 1.882092
-43.864777 -23.026992 2.826712
-44.914028 -21.4745 0.675684
-44.414631 -22.214009 1.782451
-45.476202 -20.607568 -0.399346
-46.219164 -21.253005 -0.237199
-44.914028 -21.4745 0.675684
-44.684744 -20.030171 -0.617274
-44.026817 -19.19626 -0.751155
-45.98988 -19.808677 -1.530157
-45.476202 -20.607568 -0.399346
-44.684744 -20.030171 -0.617274
-47.566423 -17.012208 -4.908312
-48.402923 -17.526835 -4.644498
-47.046408 -18.012332 -3.78164
-45.438187 -16.784667 -4.232447
-44.987928 -17.591543 -3.061011
-46.689636 -16.556319 -5.20633
-45.438187 -16.784667 -4.232447
-47.566423 -17.012208 -4.908312
-46.689636 -16.556319 -5.20633
3 0 20 18
3 0 22 20
3 1 25 23
3 3 28 26
3 3 30 28
3 1 65 66
3 1 67 69
3 67 23 68
3 67 68 69
3 2 33 31
3 4 36 34
3 4 37 36
3 4 38 37
3 5 41 39
3 70 42 71
3 72 71 17
3 70 71 72
3 73 43 74
3 75 74 42
3 73 74 75
3 5 76 77
3 5 78 80
3 78 39 79
3 78 79 80
3 7 46 44
3 9 47 19
3 9 48 47
3 9 50 48
3 81 51 82
3 83 82 21
3 81 82 83
3 85 84 51
3 12 52 24
3 12 53 52
3 6 54 40
3 13 55 27
3 13 56 55
3 13 57 56
3 14 58 29
3 14 59 58
3 11 86 87
3 15 88 90
3 90 89 32
3 88 89 90
3 15 91 92
3 8 60 45
3 16 61 35
3 16 93 95
3 95 94 61
3 93 94 95
3 16 96 97
3 10 62 49
3 98 63 99
3 100 64 101
3 102 101 63
3 100 101 102
3 103 17 104
3 105 104 5
3 103 104 105
3 106 17 107
3 109 108 17
3 110 5 111
3 18 19 7
3 20 19 18
3 20 9 19
3 20 21 9
3 22 21 20
3 22 112 114
3 114 113 21
3 112 113 114
3 23 115 117
3 115 24 116
3 115 116 117
3 25 24 23
3 25 12 24
3 26 27 6
3 28 27 26
3 28 13 27
3 28 29 13
3 30 29 28
3 30 14 29
3 23 118 119
3 23 120 121
3 31 32 11
3 33 32 31
3 33 15 32
3 34 35 8
3 36 35 34
3 36 16 35
3 36 122 124
3 124 123 16
3 122 123 124
3 37 125 127
3 127 126 36
3 125 126 127
3 37 128 129
3 37 130 131
3 38 132 134
3 134 133 37
3 132 133 134
3 38 135 136
3 138 137 10
3 39 40 1
3 41 40 39
3 41 6 40
3 17 41 5
3 42 41 17
3 42 6 41
3 42 26 6
3 43 26 42
3 43 3 26
3 39 139 140
3 39 141 143
3 141 1 142
3 141 142 143
3 44 45 2
3 46 45 44
3 46 8 45
3 19 46 7
3 47 46 19
3 47 8 46
3 47 34 8
3 48 34 47
3 48 4 34
3 48 49 4
3 50 49 48
3 50 10 49
3 21 50 9
3 51 50 21
3 51 10 50
3 51 144 146
3 146 145 10
3 144 145 146
3 148 147 51
3 149 11 150
3 24 151 152
3 52 153 155
3 155 154 24
3 153 154 155
3 52 156 158
3 156 11 157
3 156 157 158
3 52 31 11
3 53 31 52
3 53 2 31
3 40 25 1
3 54 25 40
3 54 12 25
3 27 54 6
3 55 54 27
3 55 12 54
3 55 53 12
3 56 53 55
3 56 2 53
3 56 44 2
3 57 44 56
3 57 7 44
3 29 57 13
3 58 57 29
3 58 7 57
3 58 18 7
3 59 18 58
3 59 0 18
3 32 159 161
3 161 160 11
3 159 160 161
3 163 162 32
3 45 33 2
3 60 33 45
3 60 15 33
3 35 60 8
3 61 60 35
3 61 15 60
3 61 164 166
3 166 165 15
3 164 165 166
3 168 167 61
3 170 169 16
3 49 38 4
3 62 38 49
3 62 171 173
3 173 172 38
3 171 172 173
3 174 62 175
3 176 175 10
3 174 175 176
3 177 62 178
3 180 179 62
3 181 43 182
3 183 43 184
3 185 3 186
3 187 186 43
3 185 186 187
3 188 3 189
3 190 30 191
3 192 191 3
3 190 191 192
3 193 30 194
3 195 14 196
3 197 196 30
3 195 196 197
3 198 14 199
3 200 59 201
3 202 201 14
3 200 201 202
3 203 59 204
3 205 0 206
3 207 206 59
3 205 206 207
3 63 208 209
3 63 210 212
3 210 0 211
3 210 211 212
3 63 22 0
3 64 22 63
3 64 213 215
3 215 214 22
3 213 214 215
3 216 64 217
3 218 64 219
3 221 220 64
