ply
format ascii 1.0
element vertex 737
property float x
property float y
property float z
element face 893
property list uchar int vertex_index
end_header
6.655773 38.4352 -33.075203
23.75021 80.80838 -17.770109
21.823481 8.710073 -29.095102
9.998684 64.695969 -32.218971
20.324636 36.093727 -31.753332
33.691959 56.614212 -23.119101
13.850243 8.308388 -26.999857
12.213037 23.880409 -29.976263
15.905793 75.587906 -25.743494
21.493032 61.556236 -26.877401
29.884037 70.431129 -21.443853
10.181911 84.713005 -20.462393
4.757772 75.901688 -29.055029
28.197561 35.128887 -28.282503
25.967995 23.560497 -31.09078
6.982426 51.358734 -35.054306
12.271032 37.570675 -33.429329
15.316761 50.134987 -32.290161
25.680761 47.385567 -27.897837
33.918861 44.344112 -23.644773
19.201355 22.955685 -31.11706
27.245014 11.163868 -32.600075
8.688526 25.002655 -29.800325
8.796366 31.982243 -31.630175
19.773472 79.108261 -21.978067
22.845596 73.367645 -23.393942
27.030661 76.370193 -20.047514
20.432968 83.814522 -14.342196
16.599089 83.338814 -19.35116
12.87849 80.914307 -23.85359
31.101881 34.144939 -25.800409
29.683651 29.174137 -28.311827
18.133251 8.2605 -27.693434
8.141315 58.196533 -34.319084
10.78145 51.227997 -34.149879
12.738132 57.546776 -32.395973
27.788845 59.200493 -24.671629
23.802834 54.215355 -27.296793
29.471317 52.253166 -25.369967
30.408924 45.937431 -25.962446
34.286232 50.189392 -23.648008
7.216644 70.983757 -31.282473
5.466129 64.404495 -33.815689
4.368822 57.214745 -35.105469
16.10141 36.717701 -32.892197
15.427614 30.164825 -32.199768
19.18808 29.725487 -31.973055
26.271555 17.338352 -31.789843
9.292595 8.827005 -26.998007
12.878061 16.241657 -28.213964
16.692226 15.823837 -28.879908
12.584885 70.618546 -29.207952
15.429079 63.52523 -29.645628
18.843212 68.926353 -26.538965
25.542118 66.476395 -24.103373
32.148571 63.563736 -22.366899
7.108955 81.16304 -25.087946
9.683651 76.644913 -27.864344
24.51651 35.665569 -30.217726
23.015848 29.622494 -31.224421
26.579617 29.575916 -30.009108
6.518005 44.444134 -34.396523
9.027424 38.302338 -33.35778
9.569941 44.743111 -34.426636
13.367311 43.953384 -33.640076
17.804625 42.921249 -32.105316
18.050085 56.042389 -29.78583
20.427177 48.770393 -30.007582
22.557625 41.99918 -30.252024
27.059729 41.119434 -28.313986
30.723396 40.053993 -26.048525
33.223351 38.611008 -23.119425
35.844086 42.545109 -20.449896
34.655254 36.612198 -19.550478
11.956772 30.949566 -31.949911
15.703634 23.198959 -30.574759
20.186821 15.880066 -29.927031
22.668373 23.140648 -31.303686
23.368168 16.417835 -30.959585
24.823805 9.68615 -30.838003
6.233368 36.456371 -32.526421
7.29686 32.700203 -31.635664
7.534086 35.618519 -32.440895
21.78117 80.194481 -19.942919
23.403234 77.829636 -20.988062
25.425289 78.788597 -19.041159
22.063915 82.462341 -16.207434
18.531044 83.806358 -16.910891
20.135534 82.173149 -18.591345
18.171263 81.411118 -20.837416
32.267502 33.402584 -24.356188
20.063988 8.420774 -28.32498
8.981756 61.501335 -33.416382
10.340996 58.025032 -33.485756
11.387236 61.190804 -32.368233
30.838873 57.930626 -23.841757
28.713238 55.654694 -25.007967
31.546576 54.500702 -24.200903
32.038609 51.231316 -24.531763
34.119934 53.318192 -23.42993
8.595028 67.984352 -31.880869
6.256516 67.785316 -32.683479
7.607719 64.777328 -33.17112
6.793848 61.425629 -34.180611
18.185764 36.370087 -32.383682
17.59272 33.182529 -32.440468
19.610641 32.963428 -32.027397
10.456635 24.381584 -29.81143
10.628805 20.576302 -28.91482
12.501053 20.123444 -29.038218
14.822339 15.975315 -28.473516
14.334654 19.782803 -29.311563
14.158823 73.252342 -27.514059
15.629454 69.89743 -27.894617
17.403851 72.392441 -26.240114
26.390392 71.974266 -22.345781
24.247452 70.02243 -23.799173
27.707726 68.604263 -22.782732
28.895721 65.069221 -23.146074
31.09568 67.060486 -21.939631
6.083651 82.827728 -23.093061
8.560108 83.179199 -22.847372
14.380997 78.441849 -24.969427
11.196547 78.986122 -25.922251
12.66604 76.301247 -26.880774
11.121744 73.801521 -28.68799
26.444876 35.433441 -29.310087
25.512585 32.595745 -30.096678
27.264812 32.423824 -29.225996
11.578953 8.509598 -26.937628
12.011824 4.473301 -26.538225
6.664667 47.884926 -34.875374
7.945538 44.801136 -34.501457
8.280073 48.133125 -34.794266
12.961613 50.748764 -33.316757
12.071104 47.60408 -33.92662
14.238256 47.07238 -33.149193
15.519213 43.433662 -32.942619
16.564613 46.484665 -32.208488
18.402897 62.607178 -28.228994
16.770187 59.789673 -29.720392
19.686726 58.857887 -28.337595
24.803858 50.722832 -27.59041
22.029835 51.546295 -28.678621
23.073895 48.079628 -28.913118
21.522522 45.319016 -30.146544
24.022413 44.758968 -29.138945
24.879726 41.567837 -29.299719
26.427195 44.195198 -28.157827
32.351017 45.161896 -24.891676
30.613131 42.969692 -26.078936
32.255772 42.273235 -24.847216
32.122898 39.389713 -24.676451
33.546555 41.503277 -23.417707
35.113857 39.66869 -19.942621
5.67098 54.396614 -35.174988
4.065756 53.448029 -35.216072
5.365828 50.768097 -35.127563
5.240414 47.108398 -34.752869
10.569931 37.984512 -33.451691
10.402294 34.736195 -32.682198
12.028358 34.299438 -32.804504
17.240803 26.508259 -31.600164
15.459693 26.7374 -31.449488
17.450806 23.020195 -30.879213
17.876926 19.440636 -30.106688
19.591047 19.445946 -30.511503
24.461811 26.522747 -31.04624
22.699139 26.424866 -31.35882
24.34763 23.341438 -31.245607
26.69315 14.23138 -32.154381
24.851355 16.842564 -31.402876
25.400734 13.58754 -31.515917
24.023722 13.037846 -30.842428
26.093334 10.367619 -31.727423
27.888611 8.155363 -33.143166
7.075672 29.403954 -30.789343
8.715685 28.623184 -30.70503
10.36167 27.99696 -30.778658
17.793999 77.559502 -23.90288
19.325161 74.587433 -24.550306
21.346134 76.418159 -22.810884
24.950443 75.075882 -21.769686
28.52487 73.565216 -20.831259
17.032631 85.155281 -14.899389
15.122677 84.933472 -17.506601
13.245926 84.220955 -19.993479
11.458603 82.998505 -22.355165
14.695663 82.37571 -21.664057
16.232819 80.160736 -22.958174
29.750673 34.710869 -27.114447
28.86034 32.145088 -28.224672
30.297297 31.716484 -27.090193
16.050627 8.224461 -27.245401
16.753538 4.378294 -26.857786
7.474808 54.807175 -34.87339
8.787592 51.471138 -34.73407
9.474504 54.777267 -34.292099
11.667387 54.418701 -33.437729
14.045723 53.839447 -32.357559
24.644741 60.413124 -25.678141
22.694147 57.84285 -27.057398
25.72979 56.771042 -25.944307
26.691277 53.248535 -26.267241
27.505878 49.881882 -26.617239
28.157011 46.675789 -26.936228
30.038334 49.018036 -25.709204
32.300312 48.12838 -24.779345
34.200504 47.214584 -23.727808
5.917662 73.635696 -30.357504
4.981863 70.46714 -31.887602
4.209927 67.078972 -33.159874
3.59141 63.507164 -34.135635
4.837427 60.873352 -34.634338
6.148441 57.957581 -34.858925
14.11977 37.129356 -33.246704
13.774815 33.870403 -32.828796
15.635705 33.488071 -32.711464
17.280472 29.895905 -32.155327
19.057018 26.386803 -31.640184
26.018194 20.458416 -31.457552
27.926146 14.940674 -32.75592
28.31625 12.054159 -33.450081
28.780567 9.223555 -34.221352
29.618879 10.388142 -35.279961
6.921148 13.497486 -27.673567
9.042791 12.981873 -27.538691
11.197613 12.576923 -27.464815
8.732624 21.143394 -28.954485
10.877707 16.620697 -28.125978
13.33205 12.284311 -27.53216
15.400944 12.105864 -27.780523
17.370968 12.04447 -28.207777
19.221842 12.104244 -28.778879
11.197897 67.748833 -30.793974
12.615635 64.248375 -31.01362
14.029764 67.164825 -29.50017
17.048855 66.317917 -28.105322
20.208138 65.28138 -26.725012
20.78949 71.296936 -24.971518
22.168144 67.770897 -25.247889
23.454456 64.10923 -25.460531
26.72547 62.835365 -24.37702
29.945631 61.47847 -23.489244
33.023781 60.050667 -22.75773
4.847708 80.494682 -25.313425
5.842043 78.716393 -27.165022
9.807915 81.278687 -24.586138
8.326233 79.104347 -26.676344
7.029306 76.534935 -28.608839
8.356434 73.955803 -29.661715
9.764191 71.008995 -30.368395
22.456692 35.870789 -31.028357
21.639883 32.817039 -31.492228
23.624554 32.709854 -30.848574
24.848589 29.617176 -30.675016
26.149162 26.61097 -30.623907
28.191528 29.444935 -29.221609
27.748507 26.63501 -30.091066
25.620995 80.975502 -15.441811
23.902388 82.32798 -13.681353
6.528809 41.16338 -33.729805
7.677013 38.461861 -33.210693
7.762884 41.540043 -33.933533
9.229492 41.500618 -34.023712
10.884567 41.210995 -33.967842
10.082851 47.995193 -34.482292
11.37953 44.420471 -34.142982
12.712152 40.785751 -33.728531
14.700785 40.314831 -33.29512
16.827894 39.861485 -32.690514
19.052399 39.458382 -31.959654
13.99194 60.590721 -31.102583
15.316752 56.859398 -31.127234
16.590883 53.129555 -31.136797
20.897648 55.150772 -28.481234
19.26923 52.353035 -29.879332
17.820286 49.46096 -31.156351
19.011919 45.89315 -31.183443
20.173244 42.443443 -31.192293
21.315281 39.108501 -31.147875
23.545856 38.791344 -30.280909
25.671041 38.472305 -29.355574
27.625319 38.112179 -28.344133
28.650307 43.605366 -27.160036
29.025787 40.623501 -27.247923
29.359486 37.674206 -27.208952
30.846704 37.127197 -25.919924
32.084831 36.445034 -24.468039
33.094421 35.60376 -22.870531
30.572315 74.747337 -19.192026
31.992044 71.897446 -20.015638
33.250103 68.747559 -20.686472
34.329384 65.401077 -21.241358
36.323334 52.121704 -22.57757
36.119698 49.137619 -22.608183
35.672207 46.279297 -22.46715
36.686649 45.318504 -20.942461
35.080662 43.477268 -22.169054
34.487511 40.643608 -21.775953
34.051456 37.69503 -21.396021
5.306242 43.476582 -34.126823
5.592566 39.955971 -33.357826
8.901052 35.158146 -32.532127
10.341623 31.429508 -31.760435
12.026258 27.486858 -30.973623
13.650898 30.522949 -32.118233
13.722416 27.067181 -31.221453
13.959747 23.487309 -30.252279
16.125835 19.5541 -29.687994
18.480392 15.79089 -29.38331
20.945402 12.289343 -29.441568
21.114603 29.64399 -31.659082
20.886726 26.366711 -31.558802
20.946251 23.001575 -31.261377
24.48756 20.104191 -31.337824
22.902531 19.79557 -31.140032
21.267912 19.568184 -30.862741
21.814781 16.091423 -30.462893
22.543194 12.601608 -30.143045
23.407166 9.131855 -29.949167
32.513279 31.839214 -24.42427
32.771935 32.930977 -23.586727
22.301692 6.943612 -28.991748
21.421945 6.798963 -28.606687
20.943734 8.565423 -28.710041
23.092368 7.211588 -29.490845
22.301692 6.943612 -28.991748
9.638578 85.402752 -19.327393
11.062685 85.224392 -19.20492
8.842648 84.710422 -20.587418
9.638578 85.402752 -19.327393
9.371009 83.946102 -21.654882
8.031747 83.94352 -21.779907
8.842648 84.710422 -20.587418
14.135262 6.336787 -26.803491
12.999617 6.437392 -26.772377
12.714598 8.408993 -26.968742
3.828753 75.303143 -29.115307
4.274644 76.834125 -28.202252
6.439718 31.538155 -31.297701
6.258382 29.876103 -30.899919
18.732799 84.484902 -14.620793
17.975423 85.046089 -13.539496
19.675591 84.375709 -13.2609
18.54336 6.387721 -27.511143
17.502049 6.369701 -27.287126
17.091939 8.24248 -27.469417
28.638804 13.9746 -33.514843
28.52893 15.309046 -33.036476
29.241588 14.342972 -33.795399
28.833855 12.531343 -33.861924
28.121198 13.497416 -33.103001
28.638804 13.9746 -33.514843
29.48517 11.698334 -34.776864
28.967565 11.221151 -34.365021
28.833855 12.531343 -33.861924
5.916005 15.954046 -28.098436
5.905246 13.809408 -27.717357
8.94767 15.04638 -27.866604
7.944497 15.345597 -27.949126
10.025081 14.843905 -27.829666
10.120202 12.779398 -27.501753
8.94767 15.04638 -27.866604
8.710575 23.073025 -29.377405
7.825257 23.447645 -29.448055
7.803209 25.377275 -29.870976
28.384073 25.239748 -30.29229
28.505028 26.587819 -29.769253
27.635941 25.190712 -30.465746
28.384073 25.239748 -30.29229
27.365509 80.175831 -15.047187
26.485093 80.864555 -14.198105
25.62579 81.540795 -13.317876
24.756808 82.086189 -12.351067
26.485093 80.864555 -14.198105
24.761691 81.651741 -14.561582
25.62579 81.540795 -13.317876
9.442277 6.764685 -26.78533
8.321542 6.981411 -26.829102
8.17186 9.04373 -27.041778
12.250843 2.490476 -26.391699
13.522168 2.483161 -26.433663
17.124171 2.490938 -26.723984
18.281558 2.609819 -26.971357
32.26283 73.853272 -18.810472
31.51663 75.122742 -18.283065
32.972695 72.428326 -19.222279
31.282179 73.322392 -19.603832
32.26283 73.853272 -18.810472
34.830004 67.838669 -20.359112
34.264233 69.410473 -19.99712
35.369644 66.165428 -20.636555
33.789744 67.074318 -20.963915
34.830004 67.838669 -20.359112
37.34272 53.015736 -22.06193
36.279568 53.694248 -22.486498
36.796762 48.610676 -21.964602
37.091576 50.03281 -22.068091
36.573017 47.181515 -21.894085
35.895952 47.708458 -22.537667
36.796762 48.610676 -21.964602
36.265367 43.931806 -20.696179
36.973548 44.8157 -20.042183
36.552267 43.429003 -19.795901
34.283981 35.595299 -20.358934
33.982082 36.136715 -21.281706
34.353355 37.153614 -20.47325
34.620041 34.976815 -19.48115
34.283981 35.595299 -20.358934
3.589349 56.558022 -35.09095
3.745934 58.49527 -34.943444
3.365482 52.672855 -35.117866
4.00295 51.521489 -35.098694
4.950093 40.850164 -33.524204
5.239349 38.861018 -33.073578
25.273022 8.038024 -30.89686
24.564703 7.760877 -30.452442
24.115485 9.409002 -30.393585
29.601349 7.135599 -35.688549
29.034771 7.839208 -34.637211
29.347145 8.519946 -35.27269
6.765114 34.578287 -32.081042
6.550312 33.186279 -31.720861
6.018566 35.064363 -32.16624
31.928403 32.252615 -25.096151
31.345592 32.623793 -25.818262
31.684691 33.773761 -25.078298
31.928403 32.252615 -25.096151
32.513279 31.839214 -24.42427
20.518409 6.600094 -28.171332
19.553041 6.519958 -27.855559
19.098619 8.340637 -28.009207
20.518409 6.600094 -28.171332
21.421945 6.798963 -28.606687
6.793518 83.767784 -21.902752
5.683677 83.474793 -21.905336
7.321879 83.003463 -22.970216
6.793518 83.767784 -21.902752
8.031747 83.94352 -21.779907
29.4726 27.857382 -28.879633
30.192349 27.726303 -28.505068
13.216052 4.419243 -26.572676
11.795389 6.491449 -26.737927
12.999617 6.437392 -26.772377
13.522168 2.483161 -26.433663
13.216052 4.419243 -26.572676
36.049822 42.030651 -19.480818
36.552267 43.429003 -19.795901
35.684708 40.592441 -19.22718
35.478972 41.106899 -20.196258
36.049822 42.030651 -19.480818
35.300354 39.104816 -18.954736
35.684708 40.592441 -19.22718
35.071053 37.576571 -18.758665
34.884556 38.140444 -19.74655
35.300354 39.104816 -18.954736
35.290411 36.933477 -17.804308
34.874612 35.969105 -18.596121
35.071053 37.576571 -18.758665
4.652986 50.181522 -35.05444
4.00295 51.521489 -35.098694
4.715792 52.108063 -35.171818
5.303121 48.938248 -34.940216
4.590279 48.351673 -34.867092
4.652986 50.181522 -35.05444
26.489429 8.78691 -31.888973
25.854665 8.446175 -31.444263
25.458569 10.026884 -31.282713
27.387068 7.680782 -32.596844
26.489429 8.78691 -31.888973
26.990972 9.261491 -32.435294
28.23721 6.686114 -33.452446
27.735667 6.211533 -32.906124
27.387068 7.680782 -32.596844
6.996781 27.577925 -30.365485
6.258382 29.876103 -30.899919
7.882099 27.203305 -30.294834
7.803209 25.377275 -29.870976
6.996781 27.577925 -30.365485
7.186266 31.052079 -31.212503
6.439718 31.538155 -31.297701
6.550312 33.186279 -31.720861
16.361555 85.716969 -13.736251
17.975423 85.046089 -13.539496
15.415515 85.701336 -15.106679
16.361555 85.716969 -13.736251
14.460538 85.590431 -16.410285
15.415515 85.701336 -15.106679
16.077654 85.044376 -16.202995
13.533068 85.334625 -17.727024
14.460538 85.590431 -16.410285
12.594693 84.978367 -18.970463
13.533068 85.334625 -17.727024
14.184302 84.577213 -18.75004
11.713919 84.46698 -20.227936
11.062685 85.224392 -19.20492
12.594693 84.978367 -18.970463
30.9433 31.409565 -26.463154
30.699589 32.930712 -26.445301
31.345592 32.623793 -25.818262
30.682825 30.218552 -27.190018
30.9433 31.409565 -26.463154
30.376002 28.947378 -27.800835
29.990474 30.445311 -27.70101
30.682825 30.218552 -27.190018
30.192349 27.726303 -28.505068
30.376002 28.947378 -27.800835
17.853504 4.446618 -27.093319
16.402082 6.301378 -27.051594
17.502049 6.369701 -27.287126
18.281558 2.609819 -26.971357
17.853504 4.446618 -27.093319
18.54336 6.387721 -27.511143
19.553041 6.519958 -27.855559
4.880974 73.208256 -30.543354
4.301029 74.341251 -29.892117
5.337717 74.768692 -29.706266
4.413074 71.623977 -31.308403
4.880974 73.208256 -30.543354
5.449763 72.051418 -31.122553
4.03412 69.937035 -32.021693
4.413074 71.623977 -31.308403
3.648151 68.242951 -32.65783
4.03412 69.937035 -32.021693
4.595895 68.773056 -32.523738
3.340723 66.44928 -33.230908
3.648151 68.242951 -32.65783
3.031465 64.663376 -33.718788
3.340723 66.44928 -33.230908
3.900669 65.293068 -33.647755
2.792928 62.775978 -34.136246
3.031465 64.663376 -33.718788
3.357229 61.64148 -34.458527
2.792928 62.775978 -34.136246
3.980237 60.324573 -34.707878
3.357229 61.64148 -34.458527
4.214418 62.190258 -34.384986
4.603124 59.044049 -34.869903
3.745934 58.49527 -34.943444
3.980237 60.324573 -34.707878
26.757633 20.63572 -31.479084
25.993094 22.009456 -31.274166
26.732533 22.18676 -31.295698
26.830122 19.163204 -31.789174
26.757633 20.63572 -31.479084
26.956803 17.603172 -31.95532
26.144875 18.898384 -31.623697
26.830122 19.163204 -31.789174
27.784098 16.404333 -32.438358
28.52893 15.309046 -33.036476
27.09885 16.139513 -32.272882
26.956803 17.603172 -31.95532
27.784098 16.404333 -32.438358
29.766301 9.10224 -35.801994
29.347145 8.519946 -35.27269
29.199723 9.805848 -34.750657
30.042271 11.002309 -35.795048
29.48517 11.698334 -34.776864
30.077374 9.831587 -36.423607
30.042271 11.002309 -35.795048
30.224797 8.545685 -36.94564
29.766301 9.10224 -35.801994
30.077374 9.831587 -36.423607
6.986136 11.378971 -27.379559
5.905246 13.809408 -27.717357
8.106872 11.162246 -27.335787
8.17186 9.04373 -27.041778
6.986136 11.378971 -27.379559
6.883675 15.603403 -28.016563
5.916005 15.954046 -28.098436
7.981969 13.23968 -27.606129
6.883675 15.603403 -28.016563
7.944497 15.345597 -27.949126
7.787001 21.483263 -29.038957
7.825257 23.447645 -29.448055
8.792586 19.12714 -28.574501
7.787001 21.483263 -29.038957
9.865128 16.865792 -28.160248
8.792586 19.12714 -28.574501
9.805165 18.882046 -28.540231
11.03766 14.59881 -27.795397
10.025081 14.843905 -27.829666
9.865128 16.865792 -28.160248
5.08382 82.355743 -23.080973
4.683846 83.002808 -21.893248
5.683677 83.474793 -21.905336
4.465849 81.189221 -24.191154
5.08382 82.355743 -23.080973
5.46568 81.661205 -24.203243
3.953594 79.865482 -25.279529
4.465849 81.189221 -24.191154
4.319612 79.130623 -26.331449
3.953594 79.865482 -25.279529
4.81678 78.241478 -27.257248
4.319612 79.130623 -26.331449
5.344876 79.605537 -26.239224
5.299907 77.30904 -28.110025
4.274644 76.834125 -28.202252
4.81678 78.241478 -27.257248
28.726539 27.992781 -29.334524
28.93759 29.309536 -28.766718
29.4726 27.857382 -28.879633
27.970018 28.039973 -29.656337
28.726539 27.992781 -29.334524
28.505028 26.587819 -29.769253
26.836269 25.178692 -30.732166
26.948835 26.62299 -30.357487
27.635941 25.190712 -30.465746
26.745685 23.653455 -30.965602
26.058578 25.085733 -30.857343
26.836269 25.178692 -30.732166
26.732533 22.18676 -31.295698
26.745685 23.653455 -30.965602
26.483004 80.13435 -16.18859
25.547612 80.050789 -17.352739
24.685603 80.891941 -16.60596
26.483004 80.13435 -16.18859
27.365509 80.175831 -15.047187
21.343277 83.621586 -12.996764
19.675591 84.375709 -13.2609
23.077987 82.878315 -12.666343
23.932408 82.636524 -11.336057
24.756808 82.086189 -12.351067
22.167678 83.071251 -14.011774
21.343277 83.621586 -12.996764
23.077987 82.878315 -12.666343
10.801891 4.587834 -26.555439
9.442277 6.764685 -26.78533
10.65221 6.650153 -26.768116
10.801891 4.587834 -26.555439
12.250843 2.490476 -26.391699
15.586909 4.37174 -26.732456
14.135262 6.336787 -26.803491
15.30189 6.343341 -26.928821
15.586909 4.37174 -26.732456
17.124171 2.490938 -26.723984
33.185394 34.031565 -22.843899
32.771935 32.930977 -23.586727
32.680961 34.503172 -23.61336
26.385151 79.040897 -17.988264
24.58775 79.798488 -18.405634
25.547612 80.050789 -17.352739
27.218691 78.005768 -18.609037
26.385151 79.040897 -17.988264
28.021377 76.796566 -19.112215
26.227975 77.579395 -19.544337
27.218691 78.005768 -18.609037
29.792204 75.985138 -18.684471
31.51663 75.122742 -18.283065
28.801488 75.558765 -19.61977
28.021377 76.796566 -19.112215
29.792204 75.985138 -18.684471
33.635203 70.985416 -19.661703
32.972695 72.428326 -19.222279
32.621074 70.322502 -20.351055
33.635203 70.985416 -19.661703
34.264233 69.410473 -19.99712
35.824509 64.519813 -20.929327
35.369644 66.165428 -20.636555
36.864768 65.284165 -20.324524
34.768704 63.686512 -21.47453
35.824509 64.519813 -20.929327
33.678297 62.767842 -22.0373
33.238977 64.482406 -21.804129
34.768704 63.686512 -21.47453
34.115902 61.011307 -22.232715
32.586176 61.807201 -22.562314
33.678297 62.767842 -22.0373
34.439522 59.308453 -22.426832
34.115902 61.011307 -22.232715
34.773611 57.590225 -22.607518
33.35787 58.332439 -22.938415
34.439522 59.308453 -22.426832
34.963881 55.940502 -22.757264
34.773611 57.590225 -22.607518
35.177868 54.292492 -22.912678
33.905946 54.966202 -23.274515
34.963881 55.940502 -22.757264
35.221634 52.719948 -23.00375
35.177868 54.292492 -22.912678
36.279568 53.694248 -22.486498
37.193394 51.524853 -22.052784
37.34272 53.015736 -22.06193
36.221516 50.629661 -22.592877
37.193394 51.524853 -22.052784
37.091576 50.03281 -22.068091
37.506792 46.17118 -20.338013
36.973548 44.8157 -20.042183
37.080238 46.701118 -21.13174
37.506792 46.17118 -20.338013
36.179428 45.798901 -21.704805
36.573017 47.181515 -21.894085
37.080238 46.701118 -21.13174
33.503564 35.09108 -22.018961
33.572938 36.649395 -22.133276
33.982082 36.136715 -21.281706
33.185394 34.031565 -22.843899
33.503564 35.09108 -22.018961
34.620041 34.976815 -19.48115
34.874612 35.969105 -18.596121
3.828753 75.303143 -29.115307
4.301029 74.341251 -29.892117
3.437817 54.674664 -35.146251
3.589349 56.558022 -35.09095
4.217289 55.331387 -35.16077
3.437817 54.674664 -35.146251
3.365482 52.672855 -35.117866
4.625537 46.396133 -34.60051
4.590279 48.351673 -34.867092
4.658451 44.580225 -34.287487
4.625537 46.396133 -34.60051
5.273328 45.29249 -34.439846
4.80693 42.61047 -33.908703
4.658451 44.580225 -34.287487
5.449404 41.716276 -33.742325
4.950093 40.850164 -33.524204
4.80693 42.61047 -33.908703
5.559749 37.111217 -32.657876
6.018566 35.064363 -32.16624
5.912967 38.206171 -32.942124
5.559749 37.111217 -32.657876
5.239349 38.861018 -33.073578
23.88421 7.422479 -29.917877
23.092368 7.211588 -29.490845
22.615324 8.920964 -29.522134
23.88421 7.422479 -29.917877
24.564703 7.760877 -30.452442
26.303883 6.798049 -31.50312
25.273022 8.038024 -30.89686
25.854665 8.446175 -31.444263
28.588793 7.305112 -34.098118
28.334589 8.689459 -33.682259
29.034771 7.839208 -34.637211
28.937393 5.835864 -34.407398
28.23721 6.686114 -33.452446
28.588793 7.305112 -34.098118
3 0 82 80
3 1 85 83
3 1 88 86
3 1 83 88
3 322 321 90
3 2 323 325
3 325 324 91
3 323 324 325
3 2 326 327
3 3 94 92
3 5 97 95
3 5 99 97
3 3 102 100
3 3 92 102
3 4 106 104
3 7 109 107
3 7 111 109
3 8 114 112
3 10 117 115
3 10 119 117
3 11 328 329
3 11 330 331
3 11 332 334
3 332 121 333
3 332 333 334
3 8 124 122
3 8 112 124
3 13 128 126
3 6 335 337
3 337 336 129
3 335 336 337
3 15 133 131
3 17 136 134
3 17 138 136
3 9 141 139
3 18 144 142
3 18 146 144
3 18 148 146
3 19 151 149
3 19 153 151
3 12 338 339
3 15 157 155
3 15 131 157
3 16 161 159
3 20 164 162
3 20 166 164
3 14 169 167
3 21 172 170
3 21 174 172
3 21 175 174
3 340 176 341
3 23 177 81
3 23 178 177
3 24 181 179
3 26 182 84
3 26 183 182
3 27 342 344
3 342 184 343
3 342 343 344
3 28 185 87
3 28 186 185
3 28 188 186
3 24 189 89
3 24 179 189
3 30 192 190
3 32 345 347
3 347 346 193
3 345 346 347
3 33 197 195
3 35 198 93
3 35 199 198
3 36 202 200
3 38 203 96
3 38 204 203
3 38 206 204
3 40 207 98
3 40 208 207
3 41 210 209
3 42 211 101
3 42 212 211
3 42 213 212
3 33 214 103
3 33 195 214
3 44 217 215
3 46 218 105
3 46 219 218
3 348 221 349
3 348 349 350
3 351 222 352
3 353 352 221
3 351 352 353
3 354 224 355
3 356 355 222
3 354 355 356
3 357 225 358
3 359 226 360
3 361 227 362
3 363 362 226
3 361 362 363
3 22 364 366
3 364 228 365
3 364 365 366
3 49 229 108
3 49 230 229
3 49 231 230
3 50 232 110
3 50 233 232
3 51 236 234
3 53 237 113
3 53 238 237
3 25 239 180
3 54 240 116
3 54 241 240
3 54 242 241
3 55 243 118
3 55 244 243
3 56 245 120
3 56 246 245
3 29 247 187
3 57 248 123
3 57 249 248
3 57 250 249
3 51 251 125
3 51 234 251
3 58 254 252
3 60 255 127
3 60 256 255
3 31 257 191
3 367 258 368
3 370 369 258
3 372 371 259
3 373 260 374
3 375 259 376
3 377 376 260
3 375 376 377
3 48 378 380
3 378 379 380
3 382 381 130
3 384 383 194
3 61 263 261
3 63 264 132
3 63 265 264
3 34 266 196
3 64 267 135
3 64 268 267
3 64 269 268
3 65 270 137
3 65 271 270
3 52 272 235
3 66 273 140
3 66 274 273
3 37 275 201
3 67 276 143
3 67 277 276
3 67 278 277
3 68 279 145
3 68 280 279
3 68 281 280
3 69 282 147
3 69 283 282
3 39 284 205
3 70 285 150
3 70 286 285
3 70 287 286
3 71 288 152
3 71 289 288
3 385 290 386
3 387 291 388
3 389 388 290
3 387 388 389
3 390 292 391
3 392 293 393
3 394 393 292
3 392 393 394
3 395 294 396
3 397 295 398
3 399 296 400
3 401 400 295
3 399 400 401
3 72 402 404
3 402 297 403
3 402 403 404
3 72 298 297
3 72 299 298
3 73 300 154
3 73 405 407
3 407 406 300
3 405 406 407
3 73 408 409
3 43 410 411
3 413 412 156
3 61 301 158
3 61 261 301
3 414 302 415
3 62 303 262
3 74 304 160
3 74 305 304
3 45 306 216
3 75 307 163
3 75 308 307
3 75 309 308
3 76 310 165
3 76 311 310
3 59 312 253
3 77 313 168
3 77 314 313
3 47 315 220
3 78 316 171
3 78 317 316
3 78 318 317
3 79 319 173
3 79 320 319
3 79 416 418
3 418 417 320
3 416 417 418
3 421 420 223
3 419 420 421
3 80 422 424
3 422 81 423
3 422 423 424
3 82 81 80
3 82 23 81
3 83 84 24
3 85 84 83
3 85 26 84
3 86 87 27
3 88 87 86
3 88 28 87
3 88 89 28
3 83 89 88
3 83 24 89
3 90 425 427
3 427 426 30
3 425 426 427
3 429 428 90
3 91 430 432
3 432 431 32
3 430 431 432
3 434 433 91
3 92 93 33
3 94 93 92
3 94 35 93
3 95 96 36
3 97 96 95
3 97 38 96
3 97 98 38
3 99 98 97
3 99 40 98
3 100 101 41
3 102 101 100
3 102 42 101
3 102 103 42
3 92 103 102
3 92 33 103
3 104 105 44
3 106 105 104
3 106 46 105
3 107 108 22
3 109 108 107
3 109 49 108
3 109 110 49
3 111 110 109
3 111 50 110
3 112 113 51
3 114 113 112
3 114 53 113
3 115 116 25
3 117 116 115
3 117 54 116
3 117 118 54
3 119 118 117
3 119 55 118
3 435 120 436
3 121 437 439
3 437 120 438
3 437 438 439
3 121 56 120
3 122 123 29
3 124 123 122
3 124 57 123
3 124 125 57
3 112 125 124
3 112 51 125
3 126 127 58
3 128 127 126
3 128 60 127
3 441 440 31
3 129 130 48
3 442 130 443
3 444 443 129
3 442 443 444
3 446 445 130
3 131 132 61
3 133 132 131
3 133 63 132
3 134 135 34
3 136 135 134
3 136 64 135
3 136 137 64
3 138 137 136
3 138 65 137
3 139 140 52
3 141 140 139
3 141 66 140
3 142 143 37
3 144 143 142
3 144 67 143
3 144 145 67
3 146 145 144
3 146 68 145
3 146 147 68
3 148 147 146
3 148 69 147
3 149 150 39
3 151 150 149
3 151 70 150
3 151 152 70
3 153 152 151
3 153 71 152
3 447 72 448
3 449 154 450
3 451 450 72
3 449 450 451
3 452 154 453
3 454 73 455
3 456 455 154
3 454 455 456
3 459 458 73
3 457 458 459
3 155 156 43
3 157 156 155
3 157 460 462
3 462 461 156
3 460 461 462
3 157 463 465
3 463 158 464
3 463 464 465
3 131 158 157
3 131 61 158
3 159 160 62
3 161 160 159
3 161 74 160
3 162 163 45
3 164 163 162
3 164 75 163
3 164 165 75
3 166 165 164
3 166 76 165
3 167 168 59
3 169 168 167
3 169 77 168
3 170 171 47
3 172 171 170
3 172 78 171
3 172 173 78
3 174 173 172
3 174 79 173
3 174 466 468
3 468 467 79
3 466 467 468
3 175 469 471
3 471 470 174
3 469 470 471
3 175 472 474
3 472 473 474
3 176 475 476
3 176 477 479
3 477 22 478
3 477 478 479
3 81 480 482
3 480 176 481
3 480 481 482
3 177 176 81
3 177 22 176
3 177 107 22
3 178 107 177
3 178 7 107
3 179 180 8
3 181 180 179
3 181 25 180
3 84 181 24
3 182 181 84
3 182 25 181
3 182 115 25
3 183 115 182
3 183 10 115
3 184 483 484
3 184 485 486
3 87 184 27
3 185 184 87
3 185 487 489
3 489 488 184
3 487 488 489
3 185 490 491
3 186 492 494
3 494 493 185
3 492 493 494
3 186 495 497
3 495 11 496
3 495 496 497
3 186 187 11
3 188 187 186
3 188 29 187
3 89 188 28
3 189 188 89
3 189 29 188
3 189 122 29
3 179 122 189
3 179 8 122
3 190 191 13
3 192 191 190
3 192 31 191
3 498 192 499
3 500 499 30
3 498 499 500
3 501 192 502
3 503 31 504
3 505 504 192
3 503 504 505
3 507 506 31
3 193 194 6
3 508 194 509
3 510 509 193
3 508 509 510
3 512 511 194
3 514 513 32
3 195 196 15
3 197 196 195
3 197 34 196
3 93 197 33
3 198 197 93
3 198 34 197
3 198 134 34
3 199 134 198
3 199 17 134
3 200 201 9
3 202 201 200
3 202 37 201
3 96 202 36
3 203 202 96
3 203 37 202
3 203 142 37
3 204 142 203
3 204 18 142
3 204 205 18
3 206 205 204
3 206 39 205
3 98 206 38
3 207 206 98
3 207 39 206
3 207 149 39
3 208 149 207
3 208 19 149
3 209 515 517
3 517 516 12
3 515 516 517
3 210 518 520
3 520 519 209
3 518 519 520
3 210 521 522
3 101 210 41
3 211 210 101
3 211 523 525
3 525 524 210
3 523 524 525
3 211 526 527
3 212 528 530
3 530 529 211
3 528 529 530
3 212 531 532
3 212 533 534
3 213 535 537
3 537 536 212
3 535 536 537
3 213 538 540
3 538 43 539
3 538 539 540
3 103 213 42
3 214 213 103
3 214 43 213
3 214 155 43
3 195 155 214
3 195 15 155
3 215 216 16
3 217 216 215
3 217 45 216
3 105 217 44
3 218 217 105
3 218 45 217
3 218 162 45
3 219 162 218
3 219 20 162
3 541 220 542
3 543 542 14
3 541 542 543
3 544 220 545
3 546 47 547
3 548 547 220
3 546 547 548
3 221 549 550
3 221 551 553
3 551 47 552
3 551 552 553
3 221 170 47
3 222 170 221
3 222 21 170
3 222 223 21
3 224 223 222
3 224 554 556
3 556 555 223
3 554 555 556
3 557 224 558
3 559 224 560
3 563 562 224
3 561 562 563
3 225 564 565
3 225 566 568
3 566 48 567
3 566 567 568
3 569 225 570
3 226 571 573
3 571 225 572
3 571 572 573
3 226 48 225
3 226 129 48
3 227 129 226
3 227 6 129
3 228 574 575
3 228 576 577
3 108 228 22
3 229 228 108
3 229 578 580
3 580 579 228
3 578 579 580
3 229 581 583
3 581 227 582
3 581 582 583
3 230 227 229
3 230 6 227
3 230 193 6
3 231 193 230
3 231 32 193
3 110 231 49
3 232 231 110
3 232 32 231
3 232 91 32
3 233 91 232
3 233 2 91
3 234 235 3
3 236 235 234
3 236 52 235
3 113 236 51
3 237 236 113
3 237 52 236
3 237 139 52
3 238 139 237
3 238 9 139
3 180 114 8
3 239 114 180
3 239 53 114
3 116 239 25
3 240 239 116
3 240 53 239
3 240 238 53
3 241 238 240
3 241 9 238
3 241 200 9
3 242 200 241
3 242 36 200
3 118 242 54
3 243 242 118
3 243 36 242
3 243 95 36
3 244 95 243
3 244 5 95
3 120 584 586
3 584 585 586
3 245 587 589
3 589 588 120
3 587 588 589
3 245 590 591
3 245 592 593
3 246 594 596
3 596 595 245
3 594 595 596
3 246 597 599
3 597 12 598
3 597 598 599
3 187 121 11
3 247 121 187
3 247 56 121
3 123 247 29
3 248 247 123
3 248 56 247
3 248 246 56
3 249 246 248
3 249 12 246
3 249 209 12
3 250 209 249
3 250 41 209
3 125 250 57
3 251 250 125
3 251 41 250
3 251 100 41
3 234 100 251
3 234 3 100
3 252 253 4
3 254 253 252
3 254 59 253
3 127 254 58
3 255 254 127
3 255 59 254
3 255 167 59
3 256 167 255
3 256 14 167
3 191 128 13
3 257 128 191
3 257 60 128
3 600 257 601
3 602 601 31
3 600 601 602
3 258 603 605
3 603 257 604
3 603 604 605
3 258 60 257
3 258 256 60
3 606 256 607
3 608 607 258
3 606 607 608
3 609 14 610
3 611 610 256
3 609 610 611
3 613 612 14
3 259 614 616
3 616 615 1
3 614 615 616
3 618 617 259
3 619 27 620
3 260 621 623
3 621 622 623
3 260 624 626
3 624 27 625
3 624 625 626
3 260 86 27
3 259 86 260
3 259 1 86
3 130 627 629
3 629 628 48
3 627 628 629
3 631 630 130
3 194 632 634
3 634 633 6
3 632 633 634
3 636 635 194
3 261 262 0
3 263 262 261
3 263 62 262
3 132 263 61
3 264 263 132
3 264 62 263
3 264 159 62
3 265 159 264
3 265 16 159
3 196 133 15
3 266 133 196
3 266 63 133
3 135 266 34
3 267 266 135
3 267 63 266
3 267 265 63
3 268 265 267
3 268 16 265
3 268 215 16
3 269 215 268
3 269 44 215
3 137 269 64
3 270 269 137
3 270 44 269
3 270 104 44
3 271 104 270
3 271 4 104
3 235 94 3
3 272 94 235
3 272 35 94
3 140 272 52
3 273 272 140
3 273 35 272
3 273 199 35
3 274 199 273
3 274 17 199
3 201 141 9
3 275 141 201
3 275 66 141
3 143 275 37
3 276 275 143
3 276 66 275
3 276 274 66
3 277 274 276
3 277 17 274
3 277 138 17
3 278 138 277
3 278 65 138
3 145 278 67
3 279 278 145
3 279 65 278
3 279 271 65
3 280 271 279
3 280 4 271
3 280 252 4
3 281 252 280
3 281 58 252
3 147 281 68
3 282 281 147
3 282 58 281
3 282 126 58
3 283 126 282
3 283 13 126
3 205 148 18
3 284 148 205
3 284 69 148
3 150 284 39
3 285 284 150
3 285 69 284
3 285 283 69
3 286 283 285
3 286 13 283
3 286 190 13
3 287 190 286
3 287 30 190
3 152 287 70
3 288 287 152
3 288 30 287
3 288 90 30
3 289 90 288
3 289 637 639
3 639 638 90
3 637 638 639
3 640 85 641
3 642 641 1
3 640 641 642
3 643 85 644
3 645 26 646
3 647 646 85
3 645 646 647
3 290 648 649
3 290 650 652
3 650 26 651
3 650 651 652
3 290 183 26
3 291 183 290
3 291 10 183
3 653 291 654
3 292 655 657
3 655 291 656
3 655 656 657
3 292 10 291
3 292 119 10
3 293 119 292
3 293 55 119
3 658 293 659
3 658 659 660
3 661 293 662
3 663 55 664
3 665 664 293
3 663 664 665
3 666 244 667
3 668 667 55
3 666 667 668
3 669 244 670
3 671 5 672
3 673 672 244
3 671 672 673
3 674 5 675
3 676 99 677
3 678 677 5
3 676 677 678
3 294 679 681
3 679 99 680
3 679 680 681
3 294 40 99
3 682 294 683
3 295 684 686
3 684 294 685
3 684 685 686
3 295 40 294
3 295 208 40
3 296 208 295
3 296 19 208
3 297 687 688
3 297 689 690
3 297 691 693
3 691 296 692
3 691 692 693
3 298 296 297
3 298 19 296
3 298 153 19
3 299 153 298
3 299 71 153
3 154 299 72
3 300 299 154
3 300 71 299
3 300 289 71
3 694 289 695
3 696 695 300
3 694 695 696
3 698 697 289
3 700 699 73
3 702 701 12
3 156 703 705
3 705 704 43
3 703 704 705
3 707 706 156
3 158 708 709
3 301 710 712
3 712 711 158
3 710 711 712
3 301 713 714
3 301 715 717
3 715 302 716
3 715 716 717
3 261 302 301
3 261 0 302
3 718 80 719
3 302 720 722
3 720 80 721
3 720 721 722
3 302 0 80
3 262 82 0
3 303 82 262
3 303 23 82
3 160 303 62
3 304 303 160
3 304 23 303
3 304 178 23
3 305 178 304
3 305 7 178
3 216 161 16
3 306 161 216
3 306 74 161
3 163 306 45
3 307 306 163
3 307 74 306
3 307 305 74
3 308 305 307
3 308 7 305
3 308 111 7
3 309 111 308
3 309 50 111
3 165 309 75
3 310 309 165
3 310 50 309
3 310 233 50
3 311 233 310
3 311 2 233
3 253 106 4
3 312 106 253
3 312 46 106
3 168 312 59
3 313 312 168
3 313 46 312
3 313 219 46
3 314 219 313
3 314 20 219
3 220 169 14
3 315 169 220
3 315 77 169
3 171 315 47
3 316 315 171
3 316 77 315
3 316 314 77
3 317 314 316
3 317 20 314
3 317 166 20
3 318 166 317
3 318 76 166
3 173 318 78
3 319 318 173
3 319 76 318
3 319 311 76
3 320 311 319
3 320 2 311
3 320 723 725
3 725 724 2
3 723 724 725
3 727 726 320
3 730 729 79
3 728 729 730
3 223 175 21
3 731 175 732
3 733 732 223
3 731 732 733
3 736 735 175
3 734 735 736
