ply
format ascii 1.0
element vertex 824
property float x
property float y
property float z
element face 1077
property list uchar int vertex_index
end_header
-37.245678 -111.40596 -7.303373
-16.946491 -125.937897 -13.051924
-16.158829 -112.537033 -20.955261
-39.227745 -104.517731 -20.471245
-49.876518 -90.152222 -5.922316
-27.066185 -116.647919 7.003837
-6.040543 -122.448044 13.817093
-28.226177 -119.360275 -11.564283
-27.921629 -117.88504 -19.970753
-38.383682 -110.252457 -14.514956
-6.270067 -114.203445 27.254539
-14.005286 -115.831711 19.727238
-15.990278 -122.60614 8.701454
-24.108671 -113.045563 15.184969
-52.84655 -83.425293 -13.322186
-29.314949 -99.270218 -23.590366
-7.077288 -126.060013 -9.699503
-15.789948 -121.723206 -19.896633
-28.134079 -110.573593 -23.388523
-39.472492 -94.853226 -23.750153
-41.539722 -105.369675 1.383375
-44.519089 -102.341888 -6.280317
-47.615685 -95.320602 2.672273
-31.391481 -114.756042 -1.4566
-9.641903 -127.439819 -0.296653
-20.306087 -123.670959 -2.616957
-46.25526 -96.898849 -13.468378
-47.07209 -88.847717 -18.941364
-33.369247 -115.043015 -9.462986
-33.306656 -115.458725 -13.833199
-37.738178 -111.342117 -10.683641
-18.897633 -114.736343 16.749163
-11.625851 -126.930634 -11.931301
-10.916727 -124.833389 -15.677078
-16.222326 -124.567154 -17.232029
-33.90892 -111.722214 -20.811638
-27.97963 -114.814468 -22.348881
-34.071095 -107.922363 -22.698399
-34.262367 -103.128738 -23.730389
-39.325001 -100.139297 -22.292507
-45.204372 -100.524811 2.368681
-39.496723 -106.665894 5.251007
-5.652065 -118.42868 20.666584
-3.236179 -123.370926 9.52528
-5.147615 -126.222824 2.090267
-7.38973 -125.646332 6.793852
-21.527126 -120.168442 7.32807
-17.795033 -123.926102 3.021054
-23.342213 -120.497604 2.388636
-25.855238 -119.505646 -2.421434
-28.892775 -116.114014 2.6725
-47.323154 -96.32222 -5.880501
-45.462242 -99.967056 -10.055141
-48.350227 -93.348907 -9.689226
-50.152321 -85.998672 -16.104721
-10.419382 -117.037354 -18.927902
-22.618553 -123.249863 -12.883871
-22.059128 -122.686523 -17.439827
-27.92186 -119.472504 -16.220509
-33.619415 -114.31813 -17.789303
-38.936657 -107.937851 -17.90097
-9.712397 -115.789062 23.516399
-9.794542 -119.950836 17.263462
-10.708435 -123.485428 10.962181
-14.709544 -119.756241 14.219709
-20.073219 -118.195206 12.083235
-25.560204 -115.71434 11.184525
-51.393353 -86.96434 -9.78533
-22.749039 -106.53952 -22.262402
-6.531103 -123.449493 -13.157867
-10.461893 -121.49762 -17.98275
-15.685439 -117.668777 -20.986736
-21.782608 -120.463547 -20.681019
-21.700813 -116.876083 -22.305347
-21.967106 -112.193909 -22.617714
-28.563578 -105.364975 -23.603123
-34.650402 -97.434921 -24.422703
-39.187763 -108.733948 -3.491049
-40.910721 -107.611206 -6.901716
-43.283192 -104.045288 -2.430103
-46.358521 -98.722382 -1.80233
-48.630455 -92.985443 -1.733433
-49.448532 -89.952896 2.345874
-51.011131 -87.314255 -2.133163
-30.897758 -112.595612 11.599581
-32.476871 -112.481888 7.722781
-34.377052 -111.380615 3.755682
-36.755291 -110.016495 -0.033364
-34.479118 -113.08139 -4.947506
-4.024357 -125.397995 -2.595488
-7.959574 -127.478043 -5.24765
-12.810726 -127.543854 -7.119911
-12.372656 -125.788925 4.532166
-14.822994 -126.506104 -1.914108
-18.207005 -125.618271 -7.934795
-23.776619 -122.083832 -7.68351
-29.276161 -117.637756 -6.558498
-41.971733 -106.1828 -10.585917
-42.768929 -103.894913 -14.151756
-43.291107 -100.712555 -17.186558
-49.371262 -89.920197 -13.074297
-46.796982 -93.210663 -16.375093
-43.496815 -96.714951 -19.612328
-43.570206 -91.882935 -21.696682
-35.572151 -113.027771 -8.307093
-35.533508 -113.372574 -10.291803
-37.456135 -111.468369 -8.83049
-20.405678 -109.676727 20.321377
-14.21437 -126.664291 -12.649378
-13.800889 -125.973328 -14.795216
-16.53751 -125.454285 -15.304104
-36.69223 -108.225204 -20.749702
-34.000351 -109.956696 -21.889599
-36.773708 -106.294418 -21.756489
-36.831028 -104.118454 -22.554985
-39.286163 -102.4431 -21.455284
-5.720364 -120.498703 17.267633
-3.875111 -119.126114 18.841908
-4.051567 -121.182724 15.325992
-4.493393 -123.093277 11.74914
-5.18672 -124.768066 8.126537
-6.60046 -124.191452 10.323257
-24.306112 -118.514297 7.029908
-22.371172 -120.526962 4.870198
-25.148197 -118.624146 4.730924
-26.119129 -118.384705 2.418043
-27.913231 -116.526947 4.839754
-48.573486 -93.217285 -5.843489
-47.824348 -94.898315 -7.831465
-49.168549 -91.70546 -7.806408
-13.132877 -114.991516 -20.088528
-25.454006 -121.412231 -12.349493
-25.180611 -121.535995 -14.774675
-28.010664 -119.631912 -13.966883
-35.892296 -113.01886 -14.347952
-33.447525 -115.081894 -15.898355
-36.141113 -112.313553 -16.258785
-36.374043 -111.263077 -17.992622
-38.686157 -109.244492 -16.296293
-13.901736 -113.66774 22.566093
-11.848242 -113.827423 24.58017
-11.768862 -115.985382 21.569841
-9.64595 -117.909454 20.390125
-11.876167 -118.084686 18.601965
-12.17543 -120.052277 15.65732
-14.276582 -117.888535 16.956785
-21.484108 -113.93721 15.765991
-19.44348 -116.621262 14.406096
-22.130508 -115.676437 13.615027
-22.820255 -117.046555 11.467495
-24.830465 -114.588974 13.192254
-26.087029 -103.052856 -22.896152
-23.328394 -103.365005 -22.025124
-13.212883 -123.50856 -18.026272
-10.65661 -123.308945 -17.015499
-13.017134 -121.800568 -19.050182
-12.911697 -119.806564 -19.69836
-15.683014 -119.835327 -20.618565
-24.92651 -120.470718 -18.937511
-21.89794 -121.766312 -19.257366
-24.870895 -119.322647 -20.521858
-28.033651 -112.823792 -23.011169
-24.844423 -115.990768 -22.516624
-24.902176 -113.886734 -22.973419
-21.776848 -114.661102 -22.587727
-25.040724 -111.528717 -23.156696
-25.281666 -108.931885 -23.151501
-28.305708 -108.083618 -23.558659
-36.998642 -99.072693 -23.759872
-34.429596 -100.390793 -24.088943
-37.1488 -96.213943 -24.285053
-40.356083 -107.078018 -1.116724
-41.339542 -106.466522 -2.91692
-42.474018 -104.730347 -0.523075
-46.542336 -97.963455 2.610084
-45.823917 -99.688858 0.278242
-47.062576 -96.992722 0.443138
-47.545555 -95.878128 -1.698229
-48.112793 -94.222153 0.448888
-49.650322 -88.535294 4.35299
-50.475563 -87.327927 2.030297
-50.172607 -88.683121 0.077624
-33.365959 -112.003372 5.734012
-35.999966 -109.676666 6.435442
-40.526524 -106.006165 3.305403
-38.115551 -108.342178 2.571924
-39.254822 -107.697098 0.704986
-38.013878 -109.357346 -1.801178
-2.756922 -124.390671 1.1346
-7.284554 -127.101212 0.818455
-6.446766 -127.069672 -1.617998
-8.675562 -127.655838 -2.796795
-10.291332 -127.76973 -6.304916
-11.108961 -127.708252 -3.77552
-13.296169 -123.268295 9.735656
-11.448538 -124.821838 7.763455
-14.093466 -124.374817 6.720985
-18.944267 -123.983185 0.169012
-16.194172 -125.390518 0.620174
-17.546741 -125.296982 -2.381472
-16.389027 -126.255295 -5.016462
-19.138416 -124.829544 -5.260273
-20.98827 -124.014664 -7.934111
-21.91185 -123.026901 -5.261396
-28.629961 -117.15799 -2.021053
-27.455753 -118.661591 -4.610195
-30.198734 -116.301178 -4.017075
-31.93292 -115.331009 -5.777937
-32.894299 -113.940903 -3.307486
-42.81221 -105.10405 -6.587679
-41.486614 -106.985565 -8.725439
-43.353588 -104.232086 -8.467518
-45.881119 -98.513519 -11.822699
-44.241844 -101.901001 -12.124834
-44.605633 -100.435608 -13.807232
-43.071022 -102.409134 -15.749834
-44.900166 -98.785141 -15.350063
-52.152725 -85.247513 -11.586397
-50.440536 -88.399063 -11.435965
-51.032887 -86.600235 -13.108406
-48.659538 -87.390015 -17.512241
-48.44511 -89.541061 -16.141026
-46.957977 -91.122345 -17.680016
-45.248032 -94.951096 -18.022816
-45.325981 -92.755142 -19.210308
-43.531784 -94.407593 -20.672905
-45.382095 -90.354828 -20.359074
-30.885925 -117.198853 -10.580093
-30.722105 -117.567062 -12.91221
-33.254765 -115.443954 -11.66716
-35.670628 -113.369751 -12.331533
-38.057331 -110.949142 -12.616816
-16.112839 -113.239944 20.726675
-16.392204 -115.390991 18.091629
-18.456909 -112.625931 19.169447
-20.90337 -111.906662 17.980646
-23.4132 -111.146271 17.220407
-9.232843 -126.726273 -10.931122
-8.883163 -125.684998 -12.878119
-11.233387 -126.050797 -13.970858
-13.474566 -124.909714 -16.60363
-15.974969 -123.311111 -18.772167
-30.951498 -114.956879 -20.576096
-27.947203 -116.514816 -21.34351
-31.026506 -113.378937 -21.776779
-31.091948 -111.502625 -22.65324
-31.169361 -109.36058 -23.24625
-31.286072 -106.975281 -23.621716
-34.148895 -105.641846 -23.289608
-36.896744 -101.709213 -23.201843
-39.379051 -97.608826 -23.039459
-42.671326 -103.660828 3.956002
-43.538166 -102.989868 1.951518
-44.487144 -101.271988 4.465744
-45.950821 -98.815765 4.795035
-47.094402 -96.288071 4.928721
-5.840473 -116.312561 24.001125
-4.347452 -114.889008 25.608824
-3.974752 -117.006912 22.277388
-3.270044 -124.832413 3.46559
-4.07242 -124.970963 5.817498
-6.119875 -126.125168 4.474324
-8.403444 -126.744583 3.243722
-18.746286 -121.552719 7.8909
-16.820988 -123.470261 5.878182
-19.589972 -122.165604 5.256014
-20.564964 -122.371628 2.590533
-21.713757 -122.203537 -0.058826
-23.078821 -121.70929 -2.626463
-24.489874 -120.135986 -0.064222
-27.269289 -117.871307 0.145988
-30.047836 -115.497986 0.554816
-46.005699 -99.390366 -6.032263
-45.010887 -101.245804 -8.194599
-46.475204 -98.106216 -7.968508
-46.939354 -96.664551 -9.826029
-47.391869 -95.081818 -11.576647
-51.549416 -84.678452 -14.716908
-51.980835 -82.604782 -16.300243
-50.43755 -83.795654 -17.575947
-48.832497 -85.050049 -18.878941
-47.173286 -86.368134 -20.205914
-8.080881 -118.640488 -17.376698
-19.766096 -124.782501 -13.126997
-19.386347 -124.513214 -15.46974
-22.287107 -123.188171 -15.287437
-25.019669 -121.218491 -16.998829
-27.905663 -118.882965 -18.246193
-30.704016 -117.523605 -15.147633
-30.766956 -117.06279 -17.216572
-30.860504 -116.197525 -19.045753
-33.780952 -113.187698 -19.441238
-36.561699 -109.890549 -19.497646
-39.117401 -106.354782 -19.29438
-9.976055 -113.650131 26.645615
-7.867241 -115.20047 25.451385
-7.62121 -117.323471 22.225319
-7.606588 -119.414246 18.962738
-7.827702 -121.405975 15.668017
-8.274389 -123.218063 12.340301
-10.153381 -121.836792 14.125523
-12.654169 -121.806335 12.710018
-15.285964 -121.352295 11.477978
-16.811749 -117.378845 15.536228
-17.356071 -119.11705 13.012241
-18.004539 -120.527435 10.474068
-20.768358 -119.390381 9.732809
-23.541862 -117.997025 9.2788
-26.297276 -116.395355 9.124833
-51.335533 -87.186447 -6.104923
-50.616859 -88.596893 -7.899054
-52.247051 -85.614624 -8.101744
-53.168716 -83.969574 -10.023726
-54.040558 -82.232468 -11.884289
-19.401768 -109.709244 -21.643326
-6.305151 -121.745987 -14.42646
-8.592148 -124.341339 -14.509146
-8.345036 -122.716476 -15.798964
-8.159767 -120.817596 -16.747311
-10.366703 -119.407394 -18.604404
-12.93619 -117.536087 -20.02198
-15.833959 -115.23439 -21.072353
-19.104805 -123.817093 -17.518291
-18.890951 -122.723892 -19.196411
-18.732075 -121.272171 -20.459564
-24.841095 -117.815002 -21.713932
-21.711559 -118.820236 -21.689552
-18.635656 -119.501251 -21.304882
-18.625328 -117.443146 -21.771221
-18.732506 -115.1185 -21.927422
-18.985909 -112.538528 -21.85677
-22.290241 -109.48468 -22.482357
-25.633427 -106.104538 -23.040943
-28.906326 -102.424606 -23.594704
-31.464251 -104.35994 -23.855598
-31.711765 -101.522385 -24.019665
-32.017845 -98.470123 -24.171772
-38.107407 -110.245255 -5.639561
-38.943054 -109.782227 -7.161036
-40.166275 -108.160492 -5.16375
-42.156029 -105.827499 -4.732964
-43.956535 -103.264664 -4.350519
-44.305344 -102.272339 -0.048926
-44.957893 -101.45845 -2.050457
-45.512276 -100.506149 -4.05024
-46.844139 -97.601273 -3.861996
-48.036713 -94.61525 -3.800287
-49.211121 -91.621689 -3.862329
-47.466576 -94.663605 7.225092
-48.005749 -93.706955 4.877131
-48.811974 -91.108231 4.671189
-48.538292 -92.633621 2.573069
-49.104282 -91.432556 0.316277
-49.745987 -90.111237 -1.887989
-50.49044 -88.689026 -4.031534
-25.168327 -108.331818 18.897081
-25.94034 -110.37886 16.91802
-26.7258 -112.086197 15.022023
-27.503016 -113.381439 13.14455
-28.261562 -114.226059 11.235451
-29.013378 -114.623825 9.26825
-31.671173 -112.712692 9.686646
-29.794958 -114.621719 7.243314
-30.658445 -114.301086 5.184504
-31.653969 -113.75975 3.131455
-32.809406 -113.090881 1.130341
-37.014168 -109.012558 4.486639
-35.518021 -110.699707 1.823666
-34.114189 -112.365875 -0.77449
-35.511154 -111.628311 -2.546881
-36.894848 -110.905548 -4.164789
-36.013878 -112.202835 -6.320473
-5.464514 -125.961273 -6.237581
-4.463816 -125.96817 -0.287748
-5.859705 -126.677597 -3.992239
-7.447817 -126.934143 -7.571594
-9.68355 -127.432922 -8.71722
-12.135044 -127.438202 -9.62044
-14.754519 -126.951004 -10.242201
-8.934401 -124.768295 8.977233
-9.801403 -125.985031 5.582063
-10.87756 -126.816605 2.171957
-15.052617 -125.086456 3.672337
-13.491259 -126.35347 1.291049
-12.17197 -127.234726 -1.215595
-13.697321 -127.231903 -4.520927
-15.466396 -126.814423 -7.665953
-17.488676 -125.994141 -10.563042
-20.285477 -124.612442 -10.583506
-23.099398 -122.872528 -10.321081
-25.892433 -120.861069 -9.80621
-24.688637 -120.937225 -5.036615
-26.547127 -119.922836 -7.211908
-28.629427 -118.680252 -9.08025
-31.268963 -116.440323 -8.198055
-33.75367 -114.250397 -7.237442
-39.472527 -109.428497 -8.885834
-39.918404 -108.930252 -10.738447
-40.325676 -108.195175 -12.610954
-43.823547 -103.168701 -10.3302
-42.398312 -105.155884 -12.415257
-40.69397 -107.192108 -14.418324
-41.006889 -105.921432 -16.095854
-41.246174 -104.398163 -17.601406
-41.403378 -102.639954 -18.919464
-49.804192 -90.097519 -9.672291
-48.877754 -91.688766 -11.437115
-47.808807 -93.3694 -13.205959
-49.800125 -88.031158 -14.618708
-48.164154 -91.526886 -14.719032
-46.564671 -95.131897 -14.981882
-45.113365 -96.957535 -16.748829
-43.427467 -98.814316 -18.464962
-41.487617 -100.659058 -20.062416
-41.525909 -98.459702 -21.066402
-41.555149 -96.039764 -21.981678
-41.608982 -93.395737 -22.860226
-43.641117 -89.135513 -22.727627
-14.846114 -112.355423 -20.463052
-13.333137 -113.582664 -20.029686
-14.645853 -113.764274 -20.521895
-27.96618 -99.527817 -23.181151
-26.35222 -101.419136 -22.834043
-27.700989 -101.161537 -23.243259
-6.931511 -125.475212 -10.637254
-6.13267 -125.50882 -8.997813
-39.540966 -93.365845 -24.107935
-38.37912 -94.046203 -24.375385
-38.310646 -95.533585 -24.017603
-51.091623 -86.060189 1.846105
-50.555397 -86.676827 2.997403
-50.950241 -86.674508 0.899084
-51.091623 -86.060189 1.846105
-36.788608 -108.841331 7.811351
-35.542595 -109.971801 7.414804
-5.616376 -113.50592 28.033853
-6.581183 -113.165657 28.832251
-2.219318 -123.684639 3.008258
-2.052313 -123.391662 1.860056
-17.121181 -111.809974 21.223228
-16.041045 -112.123985 22.103606
-18.293216 -111.502968 20.444614
-17.284874 -112.932937 19.948061
-17.121181 -111.809974 21.223228
-21.834683 -110.442147 18.672839
-20.654524 -110.791695 19.151011
-21.585838 -109.327179 19.843204
-23.089599 -110.061951 18.29272
-22.158285 -111.526466 17.600527
-21.834683 -110.442147 18.672839
-44.08715 -101.625564 5.517608
-43.579235 -102.466408 4.210873
-43.179242 -102.819985 5.262738
-46.234722 -97.983765 6.004055
-45.61424 -99.203507 5.894551
-46.806512 -96.719918 6.070898
-46.522611 -97.551918 4.861878
-46.234722 -97.983765 6.004055
-43.179242 -102.819985 5.262738
-42.208308 -103.995071 4.962864
-3.106593 -118.225532 19.571468
-3.113345 -119.290809 17.815376
-2.406484 -122.435379 10.224483
-2.946284 -122.436256 11.357215
-2.767586 -123.344818 8.369807
-2.406484 -122.435379 10.224483
-3.6543 -124.170944 7.671389
-3.185706 -124.144836 6.515916
-2.767586 -123.344818 8.369807
-52.964005 -80.975845 -16.516498
-52.713496 -82.036598 -15.662601
-50.558768 -82.59695 -18.325659
-51.388197 -82.073563 -17.738064
-49.756241 -83.224148 -18.977156
-49.635024 -84.422852 -18.227444
-50.558768 -82.59695 -18.325659
-48.913507 -83.77652 -19.580849
-49.756241 -83.224148 -18.977156
-9.292148 -116.60685 -18.32781
-8.122897 -117.408417 -17.552208
-9.250132 -117.838921 -18.1523
-52.628591 -84.982018 -7.236891
-51.791292 -86.400536 -7.103333
-52.172832 -85.767929 -6.23848
-54.14908 -82.532974 -10.197925
-53.627595 -83.367267 -9.211102
-54.585001 -81.664422 -11.128207
-53.604637 -83.101021 -10.954007
-54.14908 -82.532974 -10.197925
-21.363552 -106.587844 -21.812483
-19.689917 -108.172707 -21.502945
-21.075404 -108.124382 -21.952864
-22.011534 -103.346702 -21.550964
-23.66359 -101.668556 -21.923731
-5.642183 -122.816834 -12.415385
-5.74757 -123.571991 -11.638912
-6.418127 -122.59774 -13.792164
-5.529207 -121.96508 -13.049682
-5.642183 -122.816834 -12.415385
-34.777691 -95.853546 -24.597412
-33.461413 -96.371147 -24.471947
-33.334124 -97.952522 -24.297238
-47.846276 -93.405327 7.139801
-47.56202 -93.874237 8.360235
-48.115862 -92.927002 5.96582
-47.736163 -94.18528 6.051112
-47.846276 -93.405327 7.139801
-51.488865 -86.589875 -3.20856
-51.22852 -87.27726 -4.157745
-50.750785 -88.001641 -3.082349
-26.366083 -108.039497 18.9112
-25.932046 -106.951165 19.898259
-26.75209 -109.063018 17.92167
-25.554333 -109.355339 17.90755
-26.366083 -108.039497 18.9112
-28.008873 -111.570236 15.142578
-27.581165 -110.844086 16.045049
-28.397481 -112.217858 14.203841
-27.114408 -112.733818 14.083286
-28.008873 -111.570236 15.142578
-29.57966 -113.410836 11.417516
-29.187035 -113.14048 12.344392
-30.505133 -112.325256 12.526457
-32.074022 -112.59729 8.704714
-32.95946 -111.699806 10.010613
-33.362308 -111.584404 9.028681
-38.255446 -107.839226 4.868823
-37.759268 -108.179314 5.851489
-39.000546 -107.005981 6.233674
-3.768232 -113.98912 26.279687
-3.484932 -115.037789 24.653269
-3.891002 -124.974312 -3.685891
-3.249675 -124.541687 -1.85756
-4.744435 -125.679634 -4.416535
-4.61108 -125.255951 -5.506937
-3.891002 -124.974312 -3.685891
-46.3124 -87.052994 -20.86038
-47.232234 -85.020309 -20.858894
-43.697499 -87.652451 -23.261267
-44.598602 -87.018173 -22.719468
-42.673132 -89.832016 -23.235971
-43.697499 -87.652451 -23.261267
-20.197789 -108.508674 21.580295
-19.267601 -110.028366 21.020578
-21.29175 -108.156944 21.000666
-20.197789 -108.508674 21.580295
-21.585838 -109.327179 19.843204
-21.29175 -108.156944 21.000666
-3.201574 -120.319114 16.057418
-3.113345 -119.290809 17.815376
-3.963339 -120.154419 17.08395
-3.353978 -121.342155 14.257571
-3.201574 -120.319114 16.057418
-3.574891 -122.297432 12.469145
-3.353978 -121.342155 14.257571
-4.27248 -122.138001 13.537566
-3.864786 -123.232101 10.63721
-2.946284 -122.436256 11.357215
-3.574891 -122.297432 12.469145
-11.900077 -114.687721 -19.551039
-10.543329 -115.71064 -18.970726
-11.776129 -116.014435 -19.508215
-11.900077 -114.687721 -19.551039
-13.333137 -113.582664 -20.029686
-12.874989 -113.747581 23.573131
-12.897634 -112.647301 25.03841
-13.92438 -112.567459 24.031372
-24.972903 -101.57521 -22.39853
-24.707712 -103.208931 -22.460638
-26.35222 -101.419136 -22.834043
-23.66359 -101.668556 -21.923731
-24.972903 -101.57521 -22.39853
-6.658418 -124.169952 -12.366436
-5.74757 -123.571991 -11.638912
-37.243481 -94.678131 -24.551521
-35.994281 -95.28862 -24.620346
-35.899601 -96.824432 -24.353878
-37.243481 -94.678131 -24.551521
-38.37912 -94.046203 -24.375385
-50.142776 -87.28051 4.158749
-49.674711 -87.847237 5.34468
-50.062943 -87.931611 3.191644
-50.142776 -87.28051 4.158749
-50.555397 -86.676827 2.997403
-50.798763 -87.352104 -0.077253
-50.324085 -88.005524 1.053961
-50.950241 -86.674508 0.899084
-51.218025 -86.667672 -1.182646
-50.591869 -87.998688 -1.02777
-50.798763 -87.352104 -0.077253
-51.755926 -85.972252 -2.28641
-51.218025 -86.667672 -1.182646
-31.763202 -111.595788 12.836367
-30.505133 -112.325256 12.526457
-33.781047 -111.374413 8.058474
-33.362308 -111.584404 9.028681
-34.225591 -111.135154 7.064089
-32.921415 -112.24263 6.728397
-33.781047 -111.374413 8.058474
-34.682963 -110.840019 6.084727
-34.225591 -111.135154 7.064089
-35.542595 -109.971801 7.414804
-2.615957 -124.038025 0.007485
-2.052313 -123.391662 1.860056
-3.390639 -124.894333 -0.730444
-3.249675 -124.541687 -1.85756
-2.615957 -124.038025 0.007485
-14.935494 -112.337883 23.023315
-13.92438 -112.567459 24.031372
-15.007288 -113.453842 21.646384
-14.935494 -112.337883 23.023315
-16.041045 -112.123985 22.103606
-19.431294 -111.151329 19.745412
-18.293216 -111.502968 20.444614
-19.267601 -110.028366 21.020578
-29.53609 -97.5923 -23.610181
-30.835003 -97.242592 -23.971296
-44.882402 -100.431618 5.729905
-44.08715 -101.625564 5.517608
-45.218982 -100.043876 4.630389
-44.882402 -100.431618 5.729905
-45.61424 -99.203507 5.894551
-40.152353 -105.842186 6.621607
-39.000546 -107.005981 6.233674
-40.621006 -105.497604 5.610366
-40.152353 -105.842186 6.621607
-41.135907 -105.16774 4.637564
-40.011623 -106.336029 4.278205
-40.621006 -105.497604 5.610366
-41.598925 -104.833496 3.630702
-41.135907 -105.16774 4.637564
-42.208308 -103.995071 4.962864
-3.298582 -116.096741 22.987551
-3.484932 -115.037789 24.653269
-4.161102 -115.94796 23.943106
-3.156414 -117.165931 21.289207
-3.924932 -118.066513 20.559648
-3.106593 -118.225532 19.571468
-3.298582 -116.096741 22.987551
-3.156414 -117.165931 21.289207
-2.784518 -124.075561 5.339962
-2.47588 -123.90551 4.173753
-3.671232 -124.901688 4.641544
-2.784518 -124.075561 5.339962
-3.185706 -124.144836 6.515916
-52.497786 -83.073433 -14.870934
-52.197983 -84.051873 -14.019547
-53.146353 -82.446854 -14.173573
-51.765125 -83.641617 -15.508575
-52.497786 -83.073433 -14.870934
-52.713496 -82.036598 -15.662601
-52.15984 -81.478127 -17.100212
-52.964005 -80.975845 -16.516498
-51.209193 -83.200218 -16.938095
-52.15984 -81.478127 -17.100212
-51.388197 -82.073563 -17.738064
-48.083902 -84.435563 -20.244335
-48.002891 -85.709091 -19.542428
-48.913507 -83.77652 -19.580849
-47.232234 -85.020309 -20.858894
-48.083902 -84.435563 -20.244335
-7.079172 -118.079971 -16.70429
-7.108344 -119.207238 -16.37774
-7.079172 -118.079971 -16.70429
-8.122897 -117.408417 -17.552208
-9.292148 -116.60685 -18.32781
-10.543329 -115.71064 -18.970726
-7.291465 -113.646659 27.942905
-6.581183 -113.165657 28.832251
-11.964159 -112.74694 26.110359
-12.897634 -112.647301 25.03841
-11.028066 -112.658295 27.143081
-11.964159 -112.74694 26.110359
-10.912149 -113.738777 25.612893
-10.181368 -112.590683 28.209061
-11.028066 -112.658295 27.143081
-9.144459 -113.370002 27.638443
-10.181368 -112.590683 28.209061
-8.090052 -114.145172 27.041328
-9.144459 -113.370002 27.638443
-8.921648 -114.4253 26.0485
-7.068654 -114.701957 26.352962
-7.291465 -113.646659 27.942905
-8.090052 -114.145172 27.041328
-53.166763 -84.189793 -8.250111
-52.628591 -84.982018 -7.236891
-52.707884 -84.792099 -9.062735
-53.166763 -84.189793 -8.250111
-53.627595 -83.367267 -9.211102
-55.060643 -80.775009 -12.097798
-54.585001 -81.664422 -11.128207
-54.428783 -81.303757 -12.796386
-55.060643 -80.775009 -12.097798
-53.831779 -81.90017 -13.515334
-53.443554 -82.82888 -12.603238
-54.428783 -81.303757 -12.796386
-53.146353 -82.446854 -14.173573
-53.831779 -81.90017 -13.515334
-18.037948 -109.644959 -21.178253
-16.416479 -111.058853 -20.834221
-17.780299 -111.123138 -21.299293
-18.037948 -109.644959 -21.178253
-19.689917 -108.172707 -21.502945
-21.65323 -105.000587 -21.693844
-21.363552 -106.587844 -21.812483
-23.038716 -104.952262 -22.143763
-21.65323 -105.000587 -21.693844
-22.011534 -103.346702 -21.550964
-27.96618 -99.527817 -23.181151
-29.53609 -97.5923 -23.610181
-5.430245 -121.083893 -13.679696
-4.6543 -121.302987 -12.302917
-5.529207 -121.96508 -13.049682
-6.220479 -120.759987 -14.902621
-5.430245 -121.083893 -13.679696
-7.834448 -125.287704 -12.226562
-6.931511 -125.475212 -10.637254
-7.980225 -125.872505 -11.288811
-7.688941 -124.615875 -13.042075
-7.834448 -125.287704 -12.226562
-8.737655 -125.013169 -13.693632
-7.561625 -123.895416 -13.833506
-6.658418 -124.169952 -12.366436
-7.688941 -124.615875 -13.042075
-7.147787 -120.295792 -16.063046
-6.220479 -120.759987 -14.902621
-7.232459 -121.281791 -15.586886
-8.120324 -119.729042 -17.062005
-7.108344 -119.207238 -16.37774
-7.147787 -120.295792 -16.063046
-32.186451 -96.842545 -24.261999
-30.835003 -97.242592 -23.971296
-30.666397 -98.870171 -23.881069
-32.186451 -96.842545 -24.261999
-33.461413 -96.371147 -24.471947
-34.777691 -95.853546 -24.597412
-35.994281 -95.28862 -24.620346
-47.18079 -95.098007 8.418964
-47.56202 -93.874237 8.360235
-46.992599 -95.907685 7.219083
-47.18079 -95.098007 8.418964
-47.280489 -95.475838 6.076906
-46.806512 -96.719918 6.070898
-46.992599 -95.907685 7.219083
-49.289017 -89.084755 5.547865
-49.674711 -87.847237 5.34468
-48.869843 -90.371223 5.706964
-49.289017 -89.084755 5.547865
-49.231148 -89.821763 4.51209
-48.518974 -91.62764 5.862849
-48.869843 -90.371223 5.706964
-48.408862 -92.407593 4.77416
-48.115862 -92.927002 5.96582
-48.518974 -91.62764 5.862849
-51.651066 -86.52597 -5.19444
-50.912987 -87.937736 -5.068229
-51.22852 -87.27726 -4.157745
-52.172832 -85.767929 -6.23848
-51.651066 -86.52597 -5.19444
-51.488865 -86.589875 -3.20856
-51.755926 -85.972252 -2.28641
-24.798273 -107.185318 19.961085
-25.932046 -106.951165 19.898259
-23.967162 -108.654725 19.131056
-24.798273 -107.185318 19.961085
-24.290764 -109.739045 18.058744
-23.089599 -110.061951 18.29272
-23.967162 -108.654725 19.131056
-27.188435 -109.990417 16.993047
-26.75209 -109.063018 17.92167
-26.33307 -111.232529 15.970021
-27.188435 -109.990417 16.993047
-27.581165 -110.844086 16.045049
-28.807761 -112.71817 13.298942
-28.397481 -112.217858 14.203841
-27.882289 -113.803749 12.190001
-28.807761 -112.71817 13.298942
-29.187035 -113.14048 12.344392
-32.170963 -111.712265 11.915771
-31.763202 -111.595788 12.836367
-32.557671 -111.770805 10.959304
-32.95946 -111.699806 10.010613
-31.284465 -112.654152 10.643114
-32.170963 -111.712265 11.915771
-32.557671 -111.770805 10.959304
-37.252167 -108.511368 6.825891
-36.788608 -108.841331 7.811351
-36.507067 -109.344612 5.461041
-37.252167 -108.511368 6.825891
-37.759268 -108.179314 5.851489
-4.655068 -113.848702 27.210996
-5.616376 -113.50592 28.033853
-5.308759 -114.546227 26.431681
-4.655068 -113.848702 27.210996
-3.768232 -113.98912 26.279687
-5.326284 -125.45945 -7.266851
-4.61108 -125.255951 -5.506937
-6.270901 -126.010643 -7.968542
-6.13267 -125.50882 -8.997813
-5.326284 -125.45945 -7.266851
-3.013483 -124.611542 2.300095
-2.219318 -123.684639 3.008258
-2.47588 -123.90551 4.173753
-45.416805 -89.046341 -20.93696
-46.27769 -88.361481 -20.282494
-46.3124 -87.052994 -20.86038
-44.51086 -89.810395 -21.605764
-44.476151 -91.118882 -21.027878
-45.416805 -89.046341 -20.93696
-44.546316 -88.436684 -22.121237
-44.598602 -87.018173 -22.719468
-43.605661 -90.509224 -22.212154
-44.51086 -89.810395 -21.605764
-44.546316 -88.436684 -22.121237
-41.657064 -91.962128 -23.302271
-42.62505 -91.265625 -22.793926
-42.673132 -89.832016 -23.235971
-40.588819 -92.690873 -23.747235
-40.540737 -94.124482 -23.30519
-41.657064 -91.962128 -23.302271
-39.540966 -93.365845 -24.107935
-40.588819 -92.690873 -23.747235
-14.846114 -112.355423 -20.463052
-16.416479 -111.058853 -20.834221
3 0 106 104
3 1 110 108
3 3 113 111
3 3 115 113
3 6 118 116
3 6 119 118
3 6 121 119
3 5 124 122
3 5 126 124
3 4 129 127
3 2 418 420
3 420 419 130
3 418 419 420
3 7 133 131
3 9 136 134
3 9 138 136
3 11 141 139
3 11 143 141
3 11 145 143
3 13 148 146
3 13 150 148
3 15 421 423
3 423 422 151
3 421 422 423
3 16 424 425
3 17 155 153
3 17 157 155
3 8 160 158
3 18 163 161
3 18 165 163
3 18 167 165
3 19 170 168
3 19 426 428
3 428 427 170
3 426 427 428
3 20 173 171
3 22 176 174
3 22 178 176
3 429 180 430
3 432 431 180
3 433 183 434
3 20 186 184
3 20 171 186
3 10 435 436
3 437 188 438
3 24 191 189
3 24 193 191
3 12 196 194
3 25 199 197
3 25 201 199
3 25 203 201
3 23 206 204
3 23 208 206
3 21 211 209
3 26 214 212
3 26 216 214
3 14 219 217
3 27 222 220
3 27 224 222
3 27 226 224
3 28 229 227
3 30 230 105
3 30 231 230
3 439 232 440
3 441 234 442
3 443 442 232
3 441 442 443
3 444 235 445
3 446 445 107
3 444 445 446
3 447 236 448
3 449 448 235
3 447 448 449
3 32 239 237
3 34 240 109
3 34 241 240
3 35 244 242
3 37 245 112
3 37 246 245
3 37 248 246
3 39 249 114
3 39 250 249
3 450 253 451
3 452 451 251
3 450 451 452
3 453 254 454
3 455 255 456
3 457 456 254
3 455 456 457
3 458 251 459
3 42 258 256
3 461 460 117
3 43 462 463
3 43 464 465
3 43 466 468
3 466 260 467
3 466 467 468
3 45 261 120
3 45 262 261
3 46 265 263
3 48 266 123
3 48 267 266
3 48 269 267
3 50 270 125
3 50 271 270
3 51 274 272
3 53 275 128
3 53 276 275
3 469 278 470
3 471 279 472
3 473 280 474
3 475 474 279
3 473 474 475
3 477 476 280
3 55 478 480
3 480 479 282
3 478 479 480
3 56 285 283
3 58 286 132
3 58 287 286
3 29 288 228
3 59 289 135
3 59 290 289
3 59 291 290
3 60 292 137
3 60 293 292
3 61 294 140
3 61 295 294
3 61 296 295
3 62 297 142
3 62 298 297
3 62 300 298
3 64 301 144
3 64 302 301
3 31 303 233
3 65 304 147
3 65 305 304
3 65 306 305
3 66 307 149
3 66 308 307
3 481 311 482
3 483 482 309
3 481 482 483
3 484 312 485
3 486 313 487
3 488 487 312
3 486 487 488
3 68 489 491
3 491 490 314
3 489 490 491
3 493 492 152
3 69 494 495
3 69 496 498
3 496 315 497
3 496 497 498
3 33 316 238
3 70 317 154
3 70 318 317
3 70 319 318
3 71 320 156
3 71 321 320
3 57 322 284
3 72 323 159
3 72 324 323
3 36 325 243
3 73 326 162
3 73 327 326
3 73 328 327
3 74 329 164
3 74 330 329
3 74 331 330
3 75 332 166
3 75 333 332
3 38 334 247
3 76 335 169
3 76 336 335
3 76 499 501
3 501 500 336
3 499 500 501
3 77 339 337
3 79 340 172
3 79 341 340
3 40 342 252
3 80 343 175
3 80 344 343
3 80 345 344
3 81 346 177
3 81 347 346
3 502 348 503
3 504 349 505
3 506 505 348
3 504 505 506
3 82 350 179
3 82 351 350
3 82 352 351
3 83 353 181
3 83 354 353
3 83 507 509
3 509 508 354
3 507 508 509
3 510 355 511
3 512 356 513
3 514 513 355
3 512 513 514
3 515 357 516
3 517 358 518
3 519 518 357
3 517 518 519
3 84 520 522
3 520 359 521
3 520 521 522
3 84 360 359
3 85 523 525
3 523 361 524
3 523 524 525
3 85 362 361
3 85 363 362
3 86 364 182
3 86 365 364
3 41 526 528
3 526 366 527
3 526 527 528
3 87 367 185
3 87 368 367
3 87 369 368
3 77 370 187
3 77 337 370
3 530 529 257
3 89 531 532
3 89 533 535
3 533 372 534
3 533 534 535
3 44 373 259
3 90 374 190
3 90 375 374
3 90 376 375
3 91 377 192
3 91 378 377
3 63 379 299
3 92 380 195
3 92 381 380
3 47 382 264
3 93 383 198
3 93 384 383
3 93 385 384
3 94 386 200
3 94 387 386
3 94 388 387
3 95 389 202
3 95 390 389
3 49 391 268
3 96 392 205
3 96 393 392
3 96 394 393
3 88 395 207
3 88 371 395
3 78 396 338
3 97 397 210
3 97 398 397
3 52 399 273
3 98 400 213
3 98 401 400
3 98 402 401
3 99 403 215
3 99 404 403
3 67 405 310
3 100 406 218
3 100 407 406
3 54 408 277
3 101 409 221
3 101 410 409
3 101 411 410
3 102 412 223
3 102 413 412
3 102 414 413
3 103 415 225
3 103 416 415
3 537 536 281
3 538 417 539
3 541 540 417
3 104 105 28
3 106 105 104
3 106 30 105
3 542 107 543
3 544 107 545
3 547 546 107
3 108 109 32
3 110 109 108
3 110 34 109
3 111 112 35
3 113 112 111
3 113 37 112
3 113 114 37
3 115 114 113
3 115 39 114
3 116 117 42
3 118 117 116
3 118 548 550
3 550 549 117
3 548 549 550
3 118 551 552
3 119 553 555
3 555 554 118
3 553 554 555
3 119 556 558
3 556 43 557
3 556 557 558
3 119 120 43
3 121 120 119
3 121 45 120
3 122 123 46
3 124 123 122
3 124 48 123
3 124 125 48
3 126 125 124
3 126 50 125
3 127 128 51
3 129 128 127
3 129 53 128
3 130 559 561
3 561 560 55
3 559 560 561
3 563 562 130
3 131 132 56
3 133 132 131
3 133 58 132
3 134 135 29
3 136 135 134
3 136 59 135
3 136 137 59
3 138 137 136
3 138 60 137
3 139 564 566
3 564 140 565
3 564 565 566
3 141 140 139
3 141 61 140
3 141 142 61
3 143 142 141
3 143 62 142
3 143 144 62
3 145 144 143
3 145 64 144
3 146 147 31
3 148 147 146
3 148 65 147
3 148 149 65
3 150 149 148
3 150 66 149
3 151 152 68
3 567 152 568
3 569 568 151
3 567 568 569
3 571 570 152
3 572 69 573
3 153 154 33
3 155 154 153
3 155 70 154
3 155 156 70
3 157 156 155
3 157 71 156
3 158 159 57
3 160 159 158
3 160 72 159
3 161 162 36
3 163 162 161
3 163 73 162
3 163 164 73
3 165 164 163
3 165 74 164
3 165 166 74
3 167 166 165
3 167 75 166
3 168 169 38
3 170 169 168
3 170 76 169
3 170 574 576
3 576 575 76
3 574 575 576
3 578 577 170
3 171 172 77
3 173 172 171
3 173 79 172
3 174 175 40
3 176 175 174
3 176 80 175
3 176 177 80
3 178 177 176
3 178 81 177
3 579 179 580
3 180 581 583
3 581 179 582
3 581 582 583
3 180 82 179
3 180 181 82
3 584 181 585
3 586 585 180
3 584 585 586
3 587 83 588
3 589 588 181
3 587 588 589
3 591 590 83
3 592 84 593
3 594 85 595
3 596 182 597
3 598 597 85
3 596 597 598
3 183 599 601
3 599 182 600
3 599 600 601
3 183 86 182
3 184 185 41
3 186 185 184
3 186 87 185
3 186 187 87
3 171 187 186
3 171 77 187
3 188 602 603
3 188 604 606
3 604 89 605
3 604 605 606
3 189 190 44
3 191 190 189
3 191 90 190
3 191 192 90
3 193 192 191
3 193 91 192
3 194 195 63
3 196 195 194
3 196 92 195
3 197 198 47
3 199 198 197
3 199 93 198
3 199 200 93
3 201 200 199
3 201 94 200
3 201 202 94
3 203 202 201
3 203 95 202
3 204 205 49
3 206 205 204
3 206 96 205
3 206 207 96
3 208 207 206
3 208 88 207
3 209 210 78
3 211 210 209
3 211 97 210
3 212 213 52
3 214 213 212
3 214 98 213
3 214 215 98
3 216 215 214
3 216 99 215
3 217 218 67
3 219 218 217
3 219 100 218
3 220 221 54
3 222 221 220
3 222 101 221
3 222 223 101
3 224 223 222
3 224 102 223
3 224 225 102
3 226 225 224
3 226 103 225
3 227 228 7
3 229 228 227
3 229 29 228
3 105 229 28
3 230 229 105
3 230 29 229
3 230 134 29
3 231 134 230
3 231 9 134
3 607 139 608
3 232 609 611
3 609 139 610
3 609 610 611
3 232 11 139
3 232 233 11
3 234 233 232
3 234 31 233
3 107 612 614
3 612 234 613
3 612 613 614
3 235 234 107
3 235 31 234
3 235 146 31
3 236 146 235
3 236 13 146
3 616 615 15
3 237 238 16
3 239 238 237
3 239 33 238
3 109 239 32
3 240 239 109
3 240 33 239
3 240 153 33
3 241 153 240
3 241 17 153
3 242 243 8
3 244 243 242
3 244 36 243
3 112 244 35
3 245 244 112
3 245 36 244
3 245 161 36
3 246 161 245
3 246 18 161
3 246 247 18
3 248 247 246
3 248 38 247
3 114 248 37
3 249 248 114
3 249 38 248
3 249 168 38
3 250 168 249
3 250 19 168
3 251 252 20
3 253 252 251
3 253 40 252
3 617 253 618
3 254 619 621
3 619 253 620
3 619 620 621
3 254 40 253
3 254 174 40
3 255 174 254
3 255 22 174
3 622 41 623
3 624 41 625
3 626 184 627
3 628 627 41
3 626 627 628
3 251 629 631
3 629 184 630
3 629 630 631
3 251 20 184
3 256 257 10
3 258 257 256
3 258 632 634
3 634 633 257
3 632 633 634
3 117 258 42
3 635 258 636
3 637 636 117
3 635 636 637
3 639 638 258
3 640 259 641
3 260 642 644
3 642 259 643
3 642 643 644
3 260 44 259
3 120 260 43
3 261 260 120
3 261 44 260
3 261 189 44
3 262 189 261
3 262 24 189
3 263 264 12
3 265 264 263
3 265 47 264
3 123 265 46
3 266 265 123
3 266 47 265
3 266 197 47
3 267 197 266
3 267 25 197
3 267 268 25
3 269 268 267
3 269 49 268
3 125 269 48
3 270 269 125
3 270 49 269
3 270 204 49
3 271 204 270
3 271 23 204
3 272 273 21
3 274 273 272
3 274 52 273
3 128 274 51
3 275 274 128
3 275 52 274
3 275 212 52
3 276 212 275
3 276 26 212
3 645 277 646
3 647 646 14
3 645 646 647
3 278 648 650
3 648 277 649
3 648 649 650
3 278 54 277
3 651 278 652
3 279 653 655
3 653 278 654
3 653 654 655
3 279 54 278
3 279 220 54
3 280 220 279
3 280 27 220
3 280 281 27
3 656 281 657
3 658 657 280
3 656 657 658
3 660 659 281
3 282 661 662
3 664 663 282
3 666 665 55
3 283 284 1
3 285 284 283
3 285 57 284
3 132 285 56
3 286 285 132
3 286 57 285
3 286 158 57
3 287 158 286
3 287 8 158
3 228 133 7
3 288 133 228
3 288 58 133
3 135 288 29
3 289 288 135
3 289 58 288
3 289 287 58
3 290 287 289
3 290 8 287
3 290 242 8
3 291 242 290
3 291 35 242
3 137 291 59
3 292 291 137
3 292 35 291
3 292 111 35
3 293 111 292
3 293 3 111
3 667 10 668
3 140 669 670
3 294 671 673
3 673 672 140
3 671 672 673
3 294 674 675
3 294 676 677
3 295 678 680
3 680 679 294
3 678 679 680
3 295 681 683
3 681 10 682
3 681 682 683
3 295 256 10
3 296 256 295
3 296 42 256
3 142 296 61
3 297 296 142
3 297 42 296
3 297 116 42
3 298 116 297
3 298 6 116
3 298 299 6
3 300 299 298
3 300 63 299
3 144 300 62
3 301 300 144
3 301 63 300
3 301 194 63
3 302 194 301
3 302 12 194
3 233 145 11
3 303 145 233
3 303 64 145
3 147 303 31
3 304 303 147
3 304 64 303
3 304 302 64
3 305 302 304
3 305 12 302
3 305 263 12
3 306 263 305
3 306 46 263
3 149 306 65
3 307 306 149
3 307 46 306
3 307 122 46
3 308 122 307
3 308 5 122
3 309 310 4
3 311 310 309
3 311 67 310
3 684 311 685
3 312 686 688
3 686 311 687
3 686 687 688
3 312 67 311
3 312 217 67
3 313 217 312
3 313 14 217
3 689 313 690
3 691 313 692
3 693 14 694
3 695 694 313
3 693 694 695
3 697 696 14
3 314 698 700
3 700 699 2
3 698 699 700
3 702 701 314
3 152 703 705
3 705 704 68
3 703 704 705
3 707 706 152
3 709 708 15
3 315 710 712
3 710 711 712
3 315 713 714
3 238 715 717
3 717 716 16
3 715 716 717
3 316 718 720
3 720 719 238
3 718 719 720
3 316 721 723
3 721 69 722
3 721 722 723
3 154 316 33
3 317 316 154
3 317 69 316
3 317 315 69
3 318 315 317
3 318 724 726
3 726 725 315
3 724 725 726
3 318 727 729
3 727 282 728
3 727 728 729
3 319 282 318
3 319 55 282
3 156 319 70
3 320 319 156
3 320 55 319
3 320 130 55
3 321 130 320
3 321 2 130
3 284 110 1
3 322 110 284
3 322 34 110
3 159 322 57
3 323 322 159
3 323 34 322
3 323 241 34
3 324 241 323
3 324 17 241
3 243 160 8
3 325 160 243
3 325 72 160
3 162 325 36
3 326 325 162
3 326 72 325
3 326 324 72
3 327 324 326
3 327 17 324
3 327 157 17
3 328 157 327
3 328 71 157
3 164 328 73
3 329 328 164
3 329 71 328
3 329 321 71
3 330 321 329
3 330 2 321
3 330 314 2
3 331 314 330
3 331 68 314
3 166 331 74
3 332 331 166
3 332 68 331
3 332 151 68
3 333 151 332
3 333 15 151
3 247 167 18
3 334 167 247
3 334 75 167
3 169 334 38
3 335 334 169
3 335 75 334
3 335 333 75
3 336 333 335
3 336 15 333
3 336 730 732
3 732 731 15
3 730 731 732
3 734 733 336
3 736 735 76
3 337 338 0
3 339 338 337
3 339 78 338
3 172 339 77
3 340 339 172
3 340 78 339
3 340 209 78
3 341 209 340
3 341 21 209
3 252 173 20
3 342 173 252
3 342 79 173
3 175 342 40
3 343 342 175
3 343 79 342
3 343 341 79
3 344 341 343
3 344 21 341
3 344 272 21
3 345 272 344
3 345 51 272
3 177 345 80
3 346 345 177
3 346 51 345
3 346 127 51
3 347 127 346
3 347 4 127
3 348 737 738
3 348 739 740
3 348 741 743
3 741 255 742
3 741 742 743
3 349 255 348
3 349 22 255
3 179 744 745
3 350 746 748
3 748 747 179
3 746 747 748
3 350 749 750
3 350 751 753
3 751 349 752
3 751 752 753
3 351 349 350
3 351 22 349
3 351 178 22
3 352 178 351
3 352 81 178
3 181 352 82
3 353 352 181
3 353 81 352
3 353 347 81
3 354 347 353
3 354 4 347
3 354 309 4
3 754 309 755
3 756 755 354
3 754 755 756
3 758 757 309
3 760 759 83
3 355 761 762
3 355 763 764
3 355 765 767
3 765 236 766
3 765 766 767
3 356 236 355
3 356 13 236
3 768 356 769
3 357 770 772
3 770 356 771
3 770 771 772
3 357 13 356
3 357 150 13
3 358 150 357
3 358 66 150
3 773 358 774
3 359 775 777
3 775 358 776
3 775 776 777
3 359 66 358
3 359 308 66
3 360 308 359
3 360 5 308
3 778 84 779
3 361 780 781
3 361 782 784
3 782 84 783
3 782 783 784
3 361 360 84
3 362 360 361
3 362 5 360
3 362 126 5
3 363 126 362
3 363 50 126
3 182 363 85
3 364 363 182
3 364 50 363
3 364 271 50
3 365 271 364
3 365 23 271
3 785 183 786
3 366 787 789
3 787 183 788
3 787 788 789
3 366 86 183
3 185 366 41
3 367 366 185
3 367 86 366
3 367 365 86
3 368 365 367
3 368 23 365
3 368 208 23
3 369 208 368
3 369 88 208
3 187 369 87
3 370 369 187
3 370 88 369
3 370 371 88
3 337 371 370
3 337 0 371
3 257 790 792
3 792 791 10
3 790 791 792
3 794 793 257
3 372 795 796
3 372 797 799
3 797 16 798
3 797 798 799
3 259 800 802
3 800 188 801
3 800 801 802
3 373 188 259
3 373 89 188
3 190 373 44
3 374 373 190
3 374 89 373
3 374 372 89
3 375 372 374
3 375 16 372
3 375 237 16
3 376 237 375
3 376 32 237
3 192 376 90
3 377 376 192
3 377 32 376
3 377 108 32
3 378 108 377
3 378 1 108
3 299 121 6
3 379 121 299
3 379 45 121
3 195 379 63
3 380 379 195
3 380 45 379
3 380 262 45
3 381 262 380
3 381 24 262
3 264 196 12
3 382 196 264
3 382 92 196
3 198 382 47
3 383 382 198
3 383 92 382
3 383 381 92
3 384 381 383
3 384 24 381
3 384 193 24
3 385 193 384
3 385 91 193
3 200 385 93
3 386 385 200
3 386 91 385
3 386 378 91
3 387 378 386
3 387 1 378
3 387 283 1
3 388 283 387
3 388 56 283
3 202 388 94
3 389 388 202
3 389 56 388
3 389 131 56
3 390 131 389
3 390 7 131
3 268 203 25
3 391 203 268
3 391 95 203
3 205 391 49
3 392 391 205
3 392 95 391
3 392 390 95
3 393 390 392
3 393 7 390
3 393 227 7
3 394 227 393
3 394 28 227
3 207 394 96
3 395 394 207
3 395 28 394
3 395 104 28
3 371 104 395
3 371 0 104
3 338 106 0
3 396 106 338
3 396 30 106
3 210 396 78
3 397 396 210
3 397 30 396
3 397 231 30
3 398 231 397
3 398 9 231
3 273 211 21
3 399 211 273
3 399 97 211
3 213 399 52
3 400 399 213
3 400 97 399
3 400 398 97
3 401 398 400
3 401 9 398
3 401 138 9
3 402 138 401
3 402 60 138
3 215 402 98
3 403 402 215
3 403 60 402
3 403 293 60
3 404 293 403
3 404 3 293
3 310 129 4
3 405 129 310
3 405 53 129
3 218 405 67
3 406 405 218
3 406 53 405
3 406 276 53
3 407 276 406
3 407 26 276
3 277 219 14
3 408 219 277
3 408 100 219
3 221 408 54
3 409 408 221
3 409 100 408
3 409 407 100
3 410 407 409
3 410 26 407
3 410 216 26
3 411 216 410
3 411 99 216
3 223 411 101
3 412 411 223
3 412 99 411
3 412 404 99
3 413 404 412
3 413 3 404
3 413 115 3
3 414 115 413
3 414 39 115
3 225 414 102
3 415 414 225
3 415 39 414
3 415 250 39
3 416 250 415
3 416 19 250
3 281 226 27
3 803 226 804
3 805 804 281
3 803 804 805
3 806 103 807
3 808 807 226
3 806 807 808
3 417 809 810
3 417 811 813
3 811 103 812
3 811 812 813
3 417 416 103
3 814 416 815
3 816 815 417
3 814 815 816
3 817 19 818
3 819 818 416
3 817 818 819
3 821 820 19
3 823 822 2
