ply
format ascii 1.0
element vertex 368
property float x
property float y
property float z
element face 366
property list uchar int vertex_index
end_header
-26.266478 -25.451096 -37.110443
-18.331291 -53.325268 -18.17971
-24.0476 -45.186226 -24.320877
-29.491798 -25.088177 -40.247883
-27.184557 -35.627064 -32.199673
-26.212318 -20.168671 -41.322517
-27.84709 -19.727957 -43.046257
-26.832462 -25.024038 -39.1106
-26.461775 -47.283997 -25.052055
-25.909779 -40.582932 -28.095852
-28.442459 -42.042072 -29.083435
-29.955265 -36.499519 -33.30394
-14.979928 -50.577148 -11.461931
-14.930495 -53.405739 -13.937267
-17.815468 -50.525764 -16.837193
-20.670231 -47.244858 -19.886322
-23.068661 -43.569176 -23.20113
-21.465721 -49.434757 -21.030926
-23.712944 -52.167694 -21.566341
-31.263752 -20.034645 -43.693214
-33.00919 -25.618423 -40.687912
-26.486015 -30.39604 -32.882183
-24.766016 -39.499645 -26.851711
-25.756668 -35.029621 -30.813423
-26.293842 -30.178829 -34.965237
-28.23621 -30.395111 -36.351528
-31.388723 -30.86953 -37.289059
-26.323151 -20.593979 -40.070599
-26.18224 -22.844746 -39.22897
-26.41423 -22.5457 -40.294254
-26.24371 -25.179245 -38.221741
-22.430992 -44.204716 -19.487438
-27.878237 -48.374573 -25.49157
-27.534513 -44.70689 -27.017998
-28.945772 -45.620956 -27.535698
-29.865578 -42.780922 -29.655472
-16.384926 -53.481354 -16.24036
-17.913414 -51.837337 -17.634754
-19.276432 -48.935349 -18.335686
-19.429087 -50.092888 -19.070477
-20.869617 -48.252434 -20.571789
-19.945568 -51.426849 -19.561611
-28.607048 -22.362553 -41.68874
-29.415129 -19.774143 -43.501144
-30.301018 -22.507118 -42.030163
-32.148827 -22.828135 -42.160282
-31.235825 -25.299221 -40.539169
-23.339371 -44.296188 -23.849865
-24.011345 -41.584229 -24.983604
-24.314404 -42.18092 -25.645554
-26.601688 -38.146751 -30.122448
-25.737682 -37.668777 -29.523487
-26.235281 -35.273445 -31.568748
-26.0567 -32.648663 -32.876522
-26.648682 -32.79277 -33.649387
-27.034994 -30.239014 -35.733418
-27.710625 -33.036381 -34.289303
-30.661238 -33.673691 -35.350605
-26.735998 -19.86842 -42.319267
-27.256617 -22.379337 -41.114128
-27.963383 -24.994308 -39.780502
-25.131758 -46.200996 -24.690945
-25.06715 -42.929733 -26.153412
-26.188074 -43.790321 -26.582561
-27.071383 -41.290943 -28.584663
-27.818356 -38.707375 -30.658855
-28.477577 -36.051445 -32.760136
-29.232002 -39.299644 -31.197086
-13.652016 -53.084499 -11.324686
-15.006043 -51.941681 -12.783915
-16.447014 -50.709579 -14.269747
-16.34609 -52.015327 -15.375389
-17.928112 -49.379993 -15.787994
-19.395203 -47.947449 -17.345436
-20.794205 -46.409142 -18.949848
-22.076759 -44.763977 -20.609241
-23.203819 -43.011429 -22.330662
-21.946938 -45.455872 -21.504185
-22.184818 -46.319717 -22.160149
-22.843277 -47.354095 -22.612976
-20.836308 -52.906456 -19.866398
-22.443695 -50.758595 -21.331089
-23.883179 -48.523224 -22.936771
-25.191936 -49.770599 -23.226711
-26.617447 -51.034191 -23.578701
-30.39859 -17.26963 -45.222782
-33.206879 -20.54871 -43.641304
-33.96373 -23.354319 -42.104645
-34.631226 -26.02676 -40.732574
-26.392595 -27.971813 -34.987808
-24.147671 -41.150841 -24.119114
-24.893261 -39.181442 -25.976849
-25.439568 -37.102962 -27.902828
-25.108433 -39.972038 -27.541668
-25.339823 -37.314499 -28.799118
-25.801058 -34.916367 -29.892227
-26.008743 -32.624413 -31.935707
-26.109852 -30.231995 -34.018787
-26.165195 -27.746616 -36.12191
-26.530899 -27.631655 -37.052624
-27.454502 -27.630867 -37.787476
-28.814854 -27.732748 -38.348331
-29.102396 -33.344173 -34.841316
-29.743519 -30.617588 -36.856846
-30.443535 -27.916645 -38.76643
-32.164188 -28.154472 -39.07869
-26.224359 -24.147921 -38.169706
-26.373466 -23.045943 -38.580444
-26.415585 -24.349117 -37.521181
-23.264178 -43.218119 -19.730108
-23.023368 -43.396921 -20.36311
-29.090951 -47.519174 -26.804903
-28.412005 -46.997765 -26.513634
-28.557184 -48.895983 -25.782839
-29.616635 -46.050161 -27.861016
-29.090951 -47.519174 -26.804903
-18.122352 -52.581302 -17.907232
-17.300148 -53.479829 -17.243771
-17.509087 -54.223795 -17.516248
-26.212321 -19.019317 -41.753915
-26.267737 -19.231971 -41.127956
-26.267734 -20.381325 -40.696558
-26.314558 -18.807223 -42.348506
-26.212321 -19.019317 -41.753915
-26.474158 -20.018546 -41.820892
-26.576398 -18.657098 -42.846882
-26.314558 -18.807223 -42.348506
-30.278181 -41.326347 -30.721947
-30.542569 -43.119026 -29.996861
-13.065574 -54.498255 -11.212198
-13.034385 -53.616289 -10.605507
-14.968269 -52.67371 -13.360591
-14.316333 -53.32186 -12.648861
-14.278559 -54.053888 -13.225537
-20.517173 -54.798361 -19.29718
-19.970664 -53.933981 -19.191893
-23.078319 -51.463144 -21.448715
-22.240036 -52.617117 -20.702341
-22.874661 -53.321666 -20.819967
-26.589515 -53.014412 -22.904525
-25.876327 -52.31653 -22.707939
-27.313358 -51.645773 -23.824326
-26.589515 -53.014412 -22.904525
-28.237305 -18.417449 -43.974188
-27.548644 -18.452866 -43.665592
-31.824932 -18.87064 -44.474702
-31.392351 -17.488132 -45.239486
-30.831171 -18.652138 -44.457998
-32.235315 -20.291677 -43.667259
-32.796495 -19.127672 -44.448747
-31.824932 -18.87064 -44.474702
-14.836801 -49.907719 -10.75618
-14.238906 -51.06635 -10.721923
-26.811207 -29.338152 -33.27111
-26.899557 -30.518494 -32.223203
-26.439305 -29.183926 -33.934995
-26.764497 -28.126038 -34.323923
-26.811207 -29.338152 -33.27111
-26.443922 -21.920559 -39.001259
-26.662655 -20.844344 -39.329867
-26.252696 -21.719363 -39.649784
-26.443922 -21.920559 -39.001259
-26.373466 -23.045943 -38.580444
-22.615187 -43.954096 -18.842867
-21.758938 -44.953176 -18.637449
-22.615187 -43.954096 -18.842867
-23.264178 -43.218119 -19.730108
-30.076538 -44.630144 -28.920903
-29.405675 -44.200939 -28.595585
-29.616635 -46.050161 -27.861016
-30.542569 -43.119026 -29.996861
-30.076538 -44.630144 -28.920903
-14.249433 -54.933644 -13.715505
-14.278559 -54.053888 -13.225537
-16.535904 -54.301838 -16.546574
-15.736383 -55.146031 -15.894366
-17.14917 -52.659346 -16.937557
-16.535904 -54.301838 -16.546574
-17.300148 -53.479829 -17.243771
-23.570168 -54.118717 -20.925114
-22.874661 -53.321666 -20.819967
-24.424076 -52.883281 -21.701759
-23.570168 -54.118717 -20.925114
-15.684691 -49.462627 -11.522258
-15.750633 -50.044857 -12.219813
-26.482526 -31.556023 -31.846689
-26.899557 -30.518494 -32.223203
-31.066248 -35.298226 -34.611818
-30.308252 -35.086605 -34.327272
-30.713262 -36.71114 -33.588486
-31.452604 -33.825966 -35.602505
-31.066248 -35.298226 -34.611818
-31.816346 -32.423885 -36.571731
-31.02498 -32.271611 -36.319832
-31.452604 -33.825966 -35.602505
-32.207976 -30.986832 -37.487746
-31.816346 -32.423885 -36.571731
-17.82207 -55.11954 -17.712803
-17.509087 -54.223795 -17.516248
-18.718155 -54.143387 -18.348548
-17.82207 -55.11954 -17.712803
-26.471792 -19.496046 -40.406603
-26.662655 -20.844344 -39.329867
-26.471792 -19.496046 -40.406603
-26.267737 -19.231971 -41.127956
-26.993098 -18.523097 -43.302097
-26.576398 -18.657098 -42.846882
-27.291544 -19.798189 -42.682762
-27.548644 -18.452866 -43.665592
-26.993098 -18.523097 -43.302097
-29.961393 -39.585708 -31.492754
-29.54879 -41.040283 -30.426279
-30.278181 -41.326347 -30.721947
-30.323025 -38.185646 -32.546181
-29.593634 -37.899581 -32.250513
-29.961393 -39.585708 -31.492754
-30.713262 -36.71114 -33.588486
-30.323025 -38.185646 -32.546181
-26.564366 -25.632023 -36.449393
-26.415585 -24.349117 -37.521181
-13.57495 -52.320026 -10.653301
-13.034385 -53.616289 -10.605507
-14.315972 -51.830824 -11.393308
-14.238906 -51.06635 -10.721923
-13.57495 -52.320026 -10.653301
-13.639319 -53.893269 -11.919246
-13.065574 -54.498255 -11.212198
-14.32903 -52.51309 -12.054301
-13.639319 -53.893269 -11.919246
-14.316333 -53.32186 -12.648861
-15.763691 -50.727124 -12.880805
-15.750633 -50.044857 -12.219813
-14.992985 -51.259415 -12.122923
-16.484177 -50.111072 -13.623721
-15.763691 -50.727124 -12.880805
-15.726529 -51.32563 -13.526831
-17.265745 -49.53006 -14.402304
-16.484177 -50.111072 -13.623721
-14.921915 -54.214042 -14.401273
-14.249433 -54.933644 -13.715505
-15.649131 -54.25185 -15.552819
-15.736383 -55.146031 -15.894366
-15.629713 -53.518836 -15.120334
-15.649131 -54.25185 -15.552819
-16.365508 -52.74834 -15.807875
-15.638293 -52.710533 -14.656328
-14.921915 -54.214042 -14.401273
-15.629713 -53.518836 -15.120334
-18.006293 -48.865267 -15.161427
-17.265745 -49.53006 -14.402304
-17.187563 -50.044786 -15.028871
-18.775402 -48.231133 -15.962619
-18.006293 -48.865267 -15.161427
-19.508947 -47.51486 -16.74134
-18.775402 -48.231133 -15.962619
-18.661657 -48.663721 -16.566715
-20.241043 -46.824543 -17.566448
-19.508947 -47.51486 -16.74134
-20.940545 -46.05539 -18.368654
-20.241043 -46.824543 -17.566448
-20.094704 -47.178296 -18.147642
-21.612599 -45.306929 -19.218643
-21.758938 -44.953176 -18.637449
-20.940545 -46.05539 -18.368654
-22.846252 -43.676552 -20.924011
-23.023368 -43.396921 -20.36311
-22.253875 -44.484347 -20.04834
-22.640289 -43.887703 -21.469952
-23.409782 -42.800278 -21.784721
-22.846252 -43.676552 -20.924011
-19.525294 -53.194177 -19.039499
-19.13843 -52.376058 -18.87066
-18.718155 -54.143387 -18.348548
-20.390938 -52.166652 -19.714005
-19.525294 -53.194177 -19.039499
-19.970664 -53.933981 -19.191893
-21.436343 -53.691047 -19.969995
-20.517173 -54.798361 -19.29718
-21.640002 -51.832526 -20.598743
-21.436343 -53.691047 -19.969995
-22.240036 -52.617117 -20.702341
-25.163572 -51.684734 -22.531944
-24.45244 -50.969146 -22.396526
-24.424076 -52.883281 -21.701759
-25.904691 -50.402395 -23.402706
-25.163572 -51.684734 -22.531944
-25.876327 -52.31653 -22.707939
-27.943753 -50.315964 -24.78076
-27.247842 -49.704382 -24.535135
-27.313358 -51.645773 -23.824326
-28.557184 -48.895983 -25.782839
-27.943753 -50.315964 -24.78076
-29.021324 -18.440542 -44.201631
-28.237305 -18.417449 -43.974188
-28.63111 -19.75105 -43.2737
-29.513055 -17.188285 -45.06245
-29.021324 -18.440542 -44.201631
-29.906859 -18.521887 -44.361963
-29.999002 -15.914176 -45.956108
-29.513055 -17.188285 -45.06245
-30.974137 -16.079389 -46.04796
-29.999002 -15.914176 -45.956108
-30.974137 -16.079389 -46.04796
-31.392351 -17.488132 -45.239486
-33.813237 -19.510306 -44.332159
-32.796495 -19.127672 -44.448747
-34.141962 -20.965674 -43.503496
-33.813237 -19.510306 -44.332159
-34.520387 -22.368478 -42.735166
-34.141962 -20.965674 -43.503496
-33.585304 -21.951515 -42.872974
-34.769415 -23.757021 -41.988833
-34.520387 -22.368478 -42.735166
-35.103163 -25.093241 -41.302797
-34.769415 -23.757021 -41.988833
-34.297478 -24.690539 -41.41861
-35.244837 -26.241492 -40.725069
-35.103163 -25.093241 -41.302797
-14.836801 -49.907719 -10.75618
-15.684691 -49.462627 -11.522258
-26.627425 -26.892381 -35.388075
-26.764497 -28.126038 -34.323923
-26.329536 -26.711455 -36.049126
-26.564366 -25.632023 -36.449393
-26.627425 -26.892381 -35.388075
-23.907311 -41.932438 -22.686861
-23.409782 -42.800278 -21.784721
-24.379236 -41.002144 -23.581087
-23.907311 -41.932438 -22.686861
-23.675745 -42.081135 -23.224888
-24.77189 -40.07396 -24.510483
-24.379236 -41.002144 -23.581087
-25.144685 -39.08926 -25.439351
-24.77189 -40.07396 -24.510483
-24.520466 -40.166141 -25.047981
-25.428261 -38.100994 -26.396653
-25.144685 -39.08926 -25.439351
-25.701414 -37.061754 -27.359642
-25.428261 -38.100994 -26.396653
-25.166415 -38.142202 -26.939839
-25.878456 -36.014348 -28.344938
-25.701414 -37.061754 -27.359642
-26.059202 -34.921051 -29.339637
-25.878456 -36.014348 -28.344938
-25.620313 -36.009664 -28.897527
-26.140048 -33.816187 -30.351711
-26.059202 -34.921051 -29.339637
-26.24389 -32.67021 -31.373451
-26.140048 -33.816187 -30.351711
-25.904901 -33.77039 -30.913967
-26.247379 -31.510226 -32.408945
-26.482526 -31.556023 -31.846689
-26.24389 -32.67021 -31.373451
-32.595709 -29.629303 -38.382561
-31.776456 -29.512001 -38.183875
-32.207976 -30.986832 -37.487746
-32.993097 -28.277765 -39.203404
-32.595709 -29.629303 -38.382561
-33.415598 -27.00974 -40.008015
-32.586689 -26.886447 -39.883301
-32.993097 -28.277765 -39.203404
-34.226616 -27.213909 -40.030345
-33.820208 -25.822592 -40.710243
-33.415598 -27.00974 -40.008015
-34.966707 -27.291488 -40.155673
-34.226616 -27.213909 -40.030345
-35.244837 -26.241492 -40.725069
-34.966707 -27.291488 -40.155673
3 0 106 108
3 106 28 107
3 106 107 108
3 0 30 28
3 110 109 31
3 111 34 112
3 113 112 32
3 111 112 113
3 115 114 34
3 1 116 118
3 116 37 117
3 116 117 118
3 1 39 37
3 1 41 39
3 3 44 42
3 3 46 44
3 2 49 47
3 4 52 50
3 4 54 52
3 4 56 54
3 5 119 121
3 121 120 27
3 119 120 121
3 5 122 123
3 5 124 126
3 124 58 125
3 124 125 126
3 7 59 29
3 7 60 59
3 8 63 61
3 10 64 33
3 10 65 64
3 10 67 65
3 128 127 35
3 129 68 130
3 13 131 133
3 131 69 132
3 131 132 133
3 13 70 69
3 14 71 36
3 14 72 71
3 14 73 72
3 15 74 38
3 15 75 74
3 15 77 75
3 17 78 40
3 17 79 78
3 134 80 135
3 18 136 138
3 136 81 137
3 136 137 138
3 18 82 81
3 18 83 82
3 139 84 140
3 142 141 84
3 6 143 144
3 19 85 43
3 19 145 147
3 147 146 85
3 145 146 147
3 19 148 150
3 148 86 149
3 148 149 150
3 20 87 45
3 20 88 87
3 12 151 152
3 21 153 154
3 21 155 157
3 155 89 156
3 155 156 157
3 16 90 76
3 22 91 48
3 22 92 91
3 9 93 62
3 23 94 51
3 23 95 94
3 23 96 95
3 24 97 53
3 24 98 97
3 24 99 98
3 25 100 55
3 25 101 100
3 11 102 66
3 26 103 57
3 26 104 103
3 26 105 104
3 158 27 159
3 28 160 162
3 160 27 161
3 160 161 162
3 28 5 27
3 28 29 5
3 30 29 28
3 30 7 29
3 31 163 164
3 166 165 31
3 32 33 8
3 34 33 32
3 34 10 33
3 34 35 10
3 167 35 168
3 169 168 34
3 167 168 169
3 171 170 35
3 172 13 173
3 174 36 175
3 37 176 178
3 176 36 177
3 176 177 178
3 37 14 36
3 37 38 14
3 39 38 37
3 39 15 38
3 39 40 15
3 41 40 39
3 41 17 40
3 179 18 180
3 182 181 18
3 42 43 6
3 44 43 42
3 44 19 43
3 44 45 19
3 46 45 44
3 46 20 45
3 184 183 12
3 185 21 186
3 47 48 16
3 49 48 47
3 49 22 48
3 50 51 9
3 52 51 50
3 52 23 51
3 52 53 23
3 54 53 52
3 54 24 53
3 54 55 24
3 56 55 54
3 56 25 55
3 187 57 188
3 189 188 11
3 187 188 189
3 190 57 191
3 192 26 193
3 194 193 57
3 192 193 194
3 196 195 26
3 197 1 198
3 200 199 1
3 27 201 202
3 204 203 27
3 58 205 206
3 58 207 209
3 207 6 208
3 207 208 209
3 29 58 5
3 59 58 29
3 59 6 58
3 59 42 6
3 60 42 59
3 60 3 42
3 61 62 2
3 63 62 61
3 63 9 62
3 33 63 8
3 64 63 33
3 64 9 63
3 64 50 9
3 65 50 64
3 65 4 50
3 65 66 4
3 67 66 65
3 67 11 66
3 35 67 10
3 210 67 211
3 212 211 35
3 210 211 212
3 213 11 214
3 215 214 67
3 213 214 215
3 217 216 11
3 218 0 219
3 68 220 221
3 68 222 224
3 222 12 223
3 222 223 224
3 225 68 226
3 69 227 229
3 227 68 228
3 227 228 229
3 69 12 68
3 69 230 232
3 232 231 12
3 230 231 232
3 70 233 235
3 235 234 69
3 233 234 235
3 70 236 237
3 238 13 239
3 36 240 241
3 71 242 244
3 244 243 36
3 242 243 244
3 71 245 247
3 245 13 246
3 245 246 247
3 71 70 13
3 72 70 71
3 72 248 250
3 250 249 70
3 248 249 250
3 72 251 252
3 73 253 255
3 255 254 72
3 253 254 255
3 73 256 257
3 38 73 14
3 74 73 38
3 74 258 260
3 260 259 73
3 258 259 260
3 74 261 263
3 261 31 262
3 261 262 263
3 75 31 74
3 75 264 266
3 266 265 31
3 264 265 266
3 75 267 269
3 267 76 268
3 267 268 269
3 77 76 75
3 77 16 76
3 40 77 15
3 78 77 40
3 78 16 77
3 78 47 16
3 79 47 78
3 79 2 47
3 270 41 271
3 272 271 1
3 270 271 272
3 80 273 275
3 273 41 274
3 273 274 275
3 80 17 41
3 276 80 277
3 81 278 280
3 278 80 279
3 278 279 280
3 81 17 80
3 81 79 17
3 82 79 81
3 82 2 79
3 82 61 2
3 83 61 82
3 83 8 61
3 281 83 282
3 283 282 18
3 281 282 283
3 84 284 286
3 284 83 285
3 284 285 286
3 84 8 83
3 84 32 8
3 287 32 288
3 289 288 84
3 287 288 289
3 291 290 32
3 43 292 294
3 294 293 6
3 292 293 294
3 85 295 297
3 297 296 43
3 295 296 297
3 85 298 299
3 85 300 301
3 303 302 85
3 86 304 305
3 86 306 307
3 45 86 19
3 87 86 45
3 87 308 310
3 310 309 86
3 308 309 310
3 87 311 312
3 88 313 315
3 315 314 87
3 313 314 315
3 88 316 317
3 319 318 12
3 89 320 321
3 89 322 324
3 322 0 323
3 322 323 324
3 76 325 326
3 90 327 329
3 329 328 76
3 327 328 329
3 90 330 331
3 48 90 16
3 91 90 48
3 91 332 334
3 334 333 90
3 332 333 334
3 91 335 336
3 92 337 339
3 339 338 91
3 337 338 339
3 92 340 341
3 62 49 2
3 93 49 62
3 93 22 49
3 51 93 9
3 94 93 51
3 94 22 93
3 94 92 22
3 95 92 94
3 95 342 344
3 344 343 92
3 342 343 344
3 95 345 346
3 96 347 349
3 349 348 95
3 347 348 349
3 96 350 352
3 350 21 351
3 350 351 352
3 53 96 23
3 97 96 53
3 97 21 96
3 97 89 21
3 98 89 97
3 98 0 89
3 98 30 0
3 99 30 98
3 99 7 30
3 55 99 24
3 100 99 55
3 100 7 99
3 100 60 7
3 101 60 100
3 101 3 60
3 66 56 4
3 102 56 66
3 102 25 56
3 57 102 11
3 103 102 57
3 103 25 102
3 103 101 25
3 104 101 103
3 104 3 101
3 104 46 3
3 105 46 104
3 105 20 46
3 353 105 354
3 355 354 26
3 353 354 355
3 356 105 357
3 358 20 359
3 360 359 105
3 358 359 360
3 361 88 362
3 363 362 20
3 361 362 363
3 364 88 365
3 367 366 88
