ply
format ascii 1.0
element vertex 195
property float x
property float y
property float z
element face 176
property list uchar int vertex_index
end_header
-30.56118 -4.485447 -52.852089
-26.76263 -5.598968 -47.673157
-26.834 -14.707661 -45.376041
-26.379051 -15.631702 -42.871262
-28.657169 7.135633 -47.76437
-27.80097 3.901894 -50.332184
-27.433275 -0.02247 -51.383156
-27.605375 -4.486532 -50.919342
-26.524958 -9.998066 -47.006126
-28.33201 -9.354585 -49.227516
-29.599415 -14.558723 -46.689434
-31.26162 -7.135673 -51.598984
-28.175949 5.610525 -49.223091
-27.768871 3.013121 -47.814533
-27.161047 -0.722788 -49.36792
-26.981916 -2.777861 -49.583549
-27.450937 -2.197237 -51.327133
-26.906708 -4.942378 -49.44735
-26.291742 -15.099251 -44.262024
-26.33606 -12.820488 -44.961838
-26.597473 -12.314793 -46.293045
-27.13809 -9.557921 -48.275146
-27.476364 -11.994846 -47.326321
-28.90274 -11.917515 -48.040443
-27.974522 -14.512302 -46.189766
-26.212324 -17.869963 -42.185314
-26.416798 -17.445776 -43.374496
-27.250198 -17.177774 -44.284927
-29.959309 -1.916124 -53.812462
-28.434656 6.499628 -51.682663
-28.183363 4.663523 -52.559296
-27.428381 1.210726 -48.778114
-27.550816 2.017929 -51.055794
-28.109594 2.631313 -53.024437
-28.205223 0.437967 -53.079124
-28.45656 -1.885111 -52.745232
-28.849682 -4.314667 -52.061165
-26.590534 -7.758487 -47.479622
-26.952923 -7.205226 -48.996635
-27.898613 -6.875527 -50.203316
-29.37196 -6.836364 -51.076019
-30.009853 -9.442724 -49.844398
-28.62752 -17.106941 -44.902119
-31.593292 -4.760472 -53.066349
-31.215469 -3.41071 -53.682125
-30.9114 -5.81056 -52.225537
-31.943512 -6.085585 -52.439796
-31.593292 -4.760472 -53.066349
-27.848202 2.587795 -46.446995
-27.966901 3.847907 -47.159626
-26.872273 -4.188415 -48.628353
-26.995537 -3.150888 -48.565613
-26.885894 -4.561442 -47.610416
-26.212321 -19.019317 -41.753915
-26.267737 -19.231971 -41.127956
-26.314558 -18.807223 -42.348506
-26.314561 -17.657869 -42.779905
-26.212321 -19.019317 -41.753915
-26.576398 -18.657098 -42.846882
-26.314558 -18.807223 -42.348506
-29.720332 -0.676581 -54.118358
-30.581428 -0.812433 -54.6049
-28.934165 7.811546 -46.88933
-28.901971 7.359371 -45.458701
-28.624975 6.683458 -46.333741
-29.04409 8.306508 -48.283034
-28.934165 7.811546 -46.88933
-28.757936 7.622478 -49.090173
-29.04409 8.306508 -48.283034
-27.364705 -0.16365 -47.926401
-27.521117 0.783494 -47.511921
-26.521919 -14.536275 -43.116388
-26.69723 -15.933417 -42.052832
-26.518743 -10.301184 -46.226444
-26.424295 -11.712395 -45.2043
-26.430509 -11.409277 -45.983982
-26.557746 -8.878277 -47.242874
-26.551532 -9.181394 -46.463192
-26.518743 -10.301184 -46.226444
-30.172145 -13.34399 -47.556511
-29.823808 -12.023386 -48.232016
-29.251078 -13.238119 -47.364939
-30.57455 -14.723935 -46.781286
-30.172145 -13.34399 -47.556511
-28.237305 -18.417449 -43.974188
-27.938859 -17.142357 -44.593523
-27.548644 -18.452866 -43.665592
-32.348047 -7.471415 -51.683709
-33.029939 -6.421328 -52.524521
-31.943512 -6.085585 -52.439796
-31.647786 -8.500294 -50.858188
-32.348047 -7.471415 -51.683709
-28.411051 5.909163 -47.134545
-28.624975 6.683458 -46.333741
-28.17044 5.146609 -47.863905
-28.416559 6.373079 -48.49373
-28.411051 5.909163 -47.134545
-27.97241 4.311823 -48.518812
-28.17044 5.146609 -47.863905
-27.966901 3.847907 -47.159626
-27.085102 -2.123352 -48.457798
-27.231038 -1.130406 -48.221304
-27.071481 -1.750325 -49.475735
-27.085102 -2.123352 -48.457798
-26.995537 -3.150888 -48.565613
-26.924963 -5.974655 -46.651751
-26.885894 -4.561442 -47.610416
-26.499741 -17.014907 -41.806934
-26.69723 -15.933417 -42.052832
-26.416378 -18.134038 -41.46396
-26.471792 -19.496046 -40.406603
-26.267737 -19.231971 -41.127956
-26.295687 -16.750833 -42.528288
-26.499741 -17.014907 -41.806934
-26.416378 -18.134038 -41.46396
-26.993098 -18.523097 -43.302097
-26.833498 -17.311775 -43.829712
-26.576398 -18.657098 -42.846882
-27.548644 -18.452866 -43.665592
-26.993098 -18.523097 -43.302097
-30.914534 -2.126049 -54.162312
-30.581428 -0.812433 -54.6049
-30.260244 -3.200785 -53.332275
-31.215469 -3.41071 -53.682125
-30.914534 -2.126049 -54.162312
-28.517325 6.859924 -49.819534
-28.757936 7.622478 -49.090173
-28.416559 6.373079 -48.49373
-28.646679 7.304475 -51.04932
-28.517325 6.859924 -49.819534
-28.305302 6.055077 -50.452877
-28.889648 7.732589 -52.222485
-28.646679 7.304475 -51.04932
-28.750315 6.840018 -52.746952
-29.205308 8.072979 -53.286774
-28.889648 7.732589 -52.222485
-28.624669 5.921965 -53.185269
-28.750315 6.840018 -52.746952
-28.30901 5.581575 -52.12098
-28.595322 4.907697 -53.500755
-28.624669 5.921965 -53.185269
-27.691362 1.684692 -47.03013
-27.848202 2.587795 -46.446995
-27.598626 2.111924 -48.296323
-27.691362 1.684692 -47.03013
-27.521117 0.783494 -47.511921
-27.294714 0.243969 -49.073017
-27.364705 -0.16365 -47.926401
-27.231038 -1.130406 -48.221304
-28.558437 3.891592 -53.733326
-28.595322 4.907697 -53.500755
-28.146479 3.647418 -52.791866
-28.631997 2.780951 -53.833992
-28.558437 3.891592 -53.733326
-28.679811 1.684278 -53.861335
-28.631997 2.780951 -53.833992
-28.157409 1.53464 -53.05178
-28.843288 0.500465 -53.751689
-28.679811 1.684278 -53.861335
-28.968957 -0.661074 -53.584744
-28.843288 0.500465 -53.751689
-28.330891 -0.723572 -52.912178
-29.207935 -1.900618 -53.278847
-29.720332 -0.676581 -54.118358
-28.968957 -0.661074 -53.584744
-26.770195 -7.023461 -46.677609
-26.924963 -5.974655 -46.651751
-26.500424 -13.130667 -44.161676
-26.521919 -14.536275 -43.116388
-26.357556 -14.226095 -43.91655
-26.500424 -13.130667 -44.161676
-26.424295 -11.712395 -45.2043
-26.684148 -8.10322 -46.580841
-26.551532 -9.181394 -46.463192
-26.676582 -6.678727 -47.57639
-26.770195 -7.023461 -46.677609
-26.684148 -8.10322 -46.580841
-31.021902 -9.65382 -49.980896
-31.647786 -8.500294 -50.858188
-30.635737 -8.289198 -50.721691
-30.377364 -10.785991 -49.133993
-29.456297 -10.680119 -48.94242
-29.823808 -12.023386 -48.232016
-31.021902 -9.65382 -49.980896
-30.377364 -10.785991 -49.133993
-29.021324 -18.440542 -44.201631
-28.237305 -18.417449 -43.974188
-29.513055 -17.188285 -45.06245
-29.021324 -18.440542 -44.201631
-29.999002 -15.914176 -45.956108
-29.113467 -15.832832 -45.795777
-29.513055 -17.188285 -45.06245
-30.974137 -16.079389 -46.04796
-30.57455 -14.723935 -46.781286
-29.999002 -15.914176 -45.956108
3 0 43 44
3 0 45 47
3 45 11 46
3 45 46 47
3 48 13 49
3 1 50 52
3 50 15 51
3 50 51 52
3 1 17 15
3 2 20 18
3 2 22 20
3 2 24 22
3 53 25 54
3 55 26 56
3 57 56 25
3 55 56 57
3 59 58 26
3 60 28 61
3 4 62 64
3 62 63 64
3 4 65 66
3 4 67 68
3 5 29 12
3 5 30 29
3 69 31 70
3 6 32 14
3 6 33 32
3 6 34 33
3 7 35 16
3 7 36 35
3 3 71 72
3 8 73 75
3 75 74 19
3 73 74 75
3 8 76 78
3 76 37 77
3 76 77 78
3 8 38 37
3 9 39 21
3 9 40 39
3 9 41 40
3 10 79 81
3 81 80 23
3 79 80 81
3 10 82 83
3 84 42 85
3 86 85 27
3 84 85 86
3 11 87 89
3 87 88 89
3 11 90 91
3 92 4 93
3 94 12 95
3 96 95 4
3 94 95 96
3 13 97 99
3 97 12 98
3 97 98 99
3 13 5 12
3 100 14 101
3 15 102 104
3 102 14 103
3 102 103 104
3 15 6 14
3 15 16 6
3 17 16 15
3 17 7 16
3 18 19 3
3 20 19 18
3 20 8 19
3 20 21 8
3 22 21 20
3 22 9 21
3 22 23 9
3 24 23 22
3 24 10 23
3 105 1 106
3 107 3 108
3 25 109 111
3 109 110 111
3 25 112 114
3 112 3 113
3 112 113 114
3 25 18 3
3 26 18 25
3 26 2 18
3 26 27 2
3 115 27 116
3 117 116 26
3 115 116 117
3 119 118 27
3 28 120 121
3 28 122 124
3 122 0 123
3 122 123 124
3 12 125 127
3 127 126 4
3 125 126 127
3 29 128 130
3 130 129 12
3 128 129 130
3 29 131 132
3 29 133 135
3 133 134 135
3 30 136 138
3 138 137 29
3 136 137 138
3 30 139 140
3 141 13 142
3 31 143 145
3 143 13 144
3 143 144 145
3 31 5 13
3 14 146 148
3 146 31 147
3 146 147 148
3 32 31 14
3 32 5 31
3 32 30 5
3 33 30 32
3 33 149 151
3 151 150 30
3 149 150 151
3 33 152 153
3 34 154 156
3 156 155 33
3 154 155 156
3 34 157 158
3 16 34 6
3 35 34 16
3 35 159 161
3 161 160 34
3 159 160 161
3 35 162 164
3 162 28 163
3 162 163 164
3 36 28 35
3 36 0 28
3 165 1 166
3 19 167 169
3 169 168 3
3 167 168 169
3 171 170 19
3 37 172 173
3 37 174 176
3 174 1 175
3 174 175 176
3 37 17 1
3 38 17 37
3 38 7 17
3 21 38 8
3 39 38 21
3 39 7 38
3 39 36 7
3 40 36 39
3 40 0 36
3 40 11 0
3 41 11 40
3 41 177 179
3 179 178 11
3 177 178 179
3 23 41 9
3 180 41 181
3 182 181 23
3 180 181 182
3 184 183 41
3 27 24 2
3 42 24 27
3 42 10 24
3 185 42 186
3 187 42 188
3 189 10 190
3 191 190 42
3 189 190 191
3 194 193 10
3 192 193 194
