ply
format ascii 1.0
element vertex 665
property float x
property float y
property float z
element face 783
property list uchar int vertex_index
end_header
-48.552551 -19.99122 -48.145432
-54.715004 -74.522293 -20.293007
-55.546261 -48.833969 -35.993275
-36.408699 2.808485 -58.03315
-29.00728 5.151871 -54.442215
-61.124302 -71.402557 -15.592134
-62.551167 -48.075054 -33.13303
-60.754177 -33.761993 -41.249744
-53.77689 -34.384087 -42.585415
-55.949074 -19.200155 -49.091866
-54.461662 -4.440782 -51.686432
-46.923225 -6.148543 -55.575035
-39.785145 -9.118815 -52.490578
-62.763969 -61.039906 -24.499348
-55.633617 -62.564529 -28.156464
-31.489237 9.686392 -56.29969
-63.724998 -32.987045 -38.596527
-61.947899 -25.780165 -42.775066
-58.885803 -26.436653 -45.227673
-59.246765 -18.644455 -46.99704
-49.395569 1.723694 -54.740509
-50.688221 -5.243153 -54.52195
-45.365147 0.546288 -57.066254
-33.280495 -0.40587 -55.987587
-38.106251 -3.073919 -56.034035
-34.920937 -5.985421 -53.348373
-53.947174 -79.346909 -16.732754
-50.679985 -81.398247 -19.075371
-65.598206 -59.66415 -21.702339
-65.823883 -53.67062 -26.214813
-59.194416 -48.616104 -35.007824
-59.436462 -55.506958 -30.879799
-55.735588 -55.8088 -32.174561
-51.841789 -63.070328 -29.403946
-51.869286 -56.133366 -32.957771
-51.591667 -49.122726 -36.217682
-51.683132 -27.017605 -45.442024
-49.697868 -34.712936 -41.538445
-47.688335 -27.493074 -43.838459
-44.770164 -20.881886 -46.095596
-40.011566 5.279408 -58.344131
-35.194626 8.47121 -58.141647
-32.004208 4.910036 -57.04557
-29.481354 0.562963 -54.424255
-56.903885 -77.398956 -14.241854
-58.142891 -73.043076 -18.183308
-65.573318 -47.107933 -30.464642
-64.875778 -40.14679 -34.528336
-61.876205 -41.009869 -37.223728
-58.611336 -41.487835 -38.931076
-54.971722 -41.698032 -39.471813
-57.486267 -34.17865 -42.624947
-55.480385 -26.780914 -46.111626
-52.357719 -19.556219 -49.402977
-55.449242 -11.729048 -51.032478
-51.873466 -12.32662 -52.651421
-48.172646 -12.92383 -52.374901
-41.581894 -0.992674 -57.476151
-43.259758 -7.320132 -54.71875
-44.483948 -13.864915 -50.607262
-40.97826 -15.530607 -48.179665
-64.851982 -65.016159 -17.053249
-62.207565 -66.588379 -20.007538
-58.930531 -67.907143 -22.325527
-62.86396 -54.816353 -28.905182
-59.356384 -62.009865 -26.611012
-55.274654 -68.886276 -24.130878
-51.555832 -69.783859 -25.767029
-50.928139 -41.996025 -39.061478
-63.399677 -25.360207 -41.126595
-62.227036 -21.806192 -43.265285
-60.729713 -22.195446 -44.891438
-60.808609 -18.283867 -45.412994
-46.748062 4.546267 -55.864136
-47.357483 1.177885 -56.121933
-44.663071 3.869518 -57.101601
-31.869759 -2.335974 -54.512161
-34.078682 -3.166008 -54.838364
-32.625404 -5.035498 -53.280609
-54.363419 -77.036385 -18.480682
-52.338844 -80.351471 -17.900181
-52.645798 -77.898155 -19.552074
-50.905258 -78.792053 -20.635921
-52.921951 -75.236176 -21.277493
-57.407654 -48.744308 -35.607712
-57.547058 -52.24287 -33.632854
-55.680145 -52.341297 -34.119442
-53.821617 -55.937328 -32.621529
-53.755718 -52.453098 -34.447289
-51.771389 -52.636692 -34.635296
-53.607971 -48.942238 -36.187519
-50.246964 -23.428169 -46.812263
-49.691849 -27.205971 -44.705845
-48.288452 -23.68681 -45.946701
-46.3451 -24.069004 -44.972786
-46.642258 -20.35981 -47.164421
-37.065277 9.947214 -57.968956
-34.925423 11.067625 -57.493393
-30.130421 7.511963 -55.559685
-31.627207 7.397511 -56.8993
-30.293165 5.256231 -55.944351
-30.664465 2.832541 -55.885643
-29.1544 2.930588 -54.643547
-60.340347 -73.53846 -13.438522
-58.209698 -76.442146 -12.839762
-59.035027 -74.429932 -14.88414
-57.588253 -75.314026 -16.191601
-59.703438 -72.241104 -16.961853
-62.265129 -33.414818 -40.053448
-62.900295 -37.031746 -38.009438
-61.38575 -37.40242 -39.2421
-60.283035 -41.298248 -38.221371
-59.805737 -37.674152 -40.187428
-58.13689 -37.852982 -40.806309
-59.169823 -34.013508 -42.119335
-57.563541 -22.792486 -47.182373
-57.234978 -26.64143 -45.88171
-55.859795 -22.981903 -47.705406
-54.062893 -23.123137 -47.784992
-54.190369 -19.391045 -49.474899
-56.767338 -7.701441 -49.837395
-57.177902 -11.390236 -49.589722
-54.983929 -8.055757 -51.526512
-48.798893 -5.679354 -55.296028
-51.332176 -8.772832 -53.785789
-49.480591 -9.129794 -54.21714
-50.032494 -12.607899 -52.741302
-47.624359 -9.514548 -54.157669
-38.146286 4.127056 -58.433998
-40.746681 2.154549 -58.157936
-38.938175 1.09948 -57.938133
-38.977722 -6.065244 -54.415077
-40.679691 -5.011683 -55.529137
-41.49472 -8.117159 -53.72538
-43.9613 -10.547112 -52.778183
-42.18787 -11.298564 -51.6493
-42.699253 -14.590019 -49.42495
-40.470947 -12.265776 -50.371635
-64.268097 -60.385826 -23.180737
-64.011703 -63.18771 -20.894501
-62.545212 -63.90451 -22.253593
-60.633919 -67.293304 -21.247421
-60.927292 -64.531143 -23.44009
-64.113373 -47.635124 -31.882534
-64.319191 -51.019459 -29.788776
-62.7551 -51.497841 -31.041149
-57.600967 -59.054783 -29.53035
-59.438816 -58.8204 -28.756992
-57.5168 -62.322617 -27.436813
-57.358856 -65.457703 -25.342621
-55.483002 -65.796738 -26.131664
-53.405743 -69.320343 -24.95237
-53.597275 -66.115463 -26.869591
-54.47049 -38.061256 -41.069733
-52.995674 -41.813408 -39.360233
-52.47575 -38.181641 -40.794598
-47.599281 -35.004456 -40.838531
-48.268661 -38.645279 -39.762794
-29.065975 7.180407 -53.811241
-62.379295 -70.550125 -14.078815
-65.134918 -32.515965 -36.959446
-64.357422 -28.934271 -39.020771
-62.932907 -29.382092 -40.672089
-61.462959 -29.782089 -42.109268
-59.936562 -30.101109 -43.246548
-60.448685 -26.148155 -44.171329
-59.18071 -22.53112 -46.225918
-57.631149 -18.954325 -48.250664
-51.986748 -1.287546 -53.33577
-52.580605 -4.827974 -53.29364
-50.018478 -1.73741 -54.840424
-48.065216 -2.241865 -55.935158
-46.144146 -2.798567 -56.55619
-34.790745 1.304403 -57.191589
-37.229439 -0.118898 -57.259468
-35.612473 -1.531775 -56.195503
-36.479225 -4.410864 -54.798485
-37.337982 -7.345608 -53.073364
-38.136478 -10.358863 -51.115372
-35.762333 -8.875566 -51.596909
-53.446156 -81.468414 -15.02496
-66.715256 -58.926411 -20.100979
-65.771774 -56.745396 -23.987484
-64.402054 -57.415466 -25.436234
-60.908936 -48.401947 -34.181652
-61.093872 -51.858028 -32.10397
-59.35397 -52.097824 -32.966389
-57.610741 -55.68581 -31.601833
-55.719139 -59.224464 -30.179157
-53.736885 -62.792976 -28.805786
-53.813766 -59.390106 -30.732388
-51.891579 -59.615189 -31.205498
-52.856117 -30.689104 -44.036793
-51.77005 -34.513279 -42.147884
-50.849144 -30.83778 -43.444073
-48.801743 -31.06735 -42.697952
-46.755772 -31.398552 -41.887352
-45.713089 -27.899298 -42.932152
-42.964691 -21.574583 -45.025536
-42.003357 6.276785 -57.75103
-39.447563 8.327955 -58.047279
-37.499931 7.100597 -58.438705
-35.708679 5.689381 -58.327568
-33.168312 9.340063 -57.433632
-33.50996 6.790363 -57.820381
-34.07016 4.090132 -57.740128
-32.572506 2.29347 -56.736076
-31.203547 0.291258 -55.397339
-54.817009 -80.375046 -13.708483
-55.47686 -78.36676 -15.528709
-56.022202 -76.181183 -17.377365
-56.468887 -73.800034 -19.279011
-65.278305 -43.664085 -32.507996
-63.808147 -44.160187 -33.938015
-64.363007 -36.580837 -36.55146
-63.406612 -40.618935 -35.974564
-62.258949 -44.572403 -35.190235
-60.642063 -44.877285 -36.220016
-58.95293 -45.076893 -36.997589
-57.181263 -45.198429 -37.513611
-55.318748 -45.287857 -37.780186
-56.84407 -41.606255 -39.342186
-56.360458 -37.967506 -41.091591
-55.688187 -34.287754 -42.767319
-58.327759 -30.328979 -44.017784
-56.613678 -30.479191 -44.391743
-54.786327 -30.584595 -44.380386
-53.623383 -26.891144 -45.942581
-52.183365 -23.255947 -47.460331
-50.468826 -19.739443 -48.92907
-59.125786 -14.806419 -47.53545
-57.484421 -15.147505 -49.058182
-55.792717 -15.446543 -50.213882
-53.1688 -8.417177 -52.87101
-53.680946 -12.040842 -52.074814
-54.04422 -15.697612 -50.92765
-52.23735 -15.916315 -51.165459
-50.382317 -16.137142 -50.944313
-48.500641 -16.407707 -50.32975
-42.657089 3.072773 -57.87883
-43.436512 -0.1717 -57.522316
-44.267185 -3.422812 -56.676125
-39.80558 -1.947161 -56.957359
-42.443657 -4.146174 -56.313293
-45.072781 -6.680757 -55.364929
-45.778774 -9.969706 -53.650055
-46.315353 -13.32501 -51.628304
-46.6203 -16.78072 -49.422516
-44.769661 -17.304596 -48.337414
-42.973614 -18.013918 -47.180149
-41.253189 -18.922174 -46.028862
-38.820976 -13.472163 -49.033623
-39.336075 -16.695198 -46.93845
-63.087463 -68.270279 -16.325552
-65.296661 -62.421612 -19.382095
-63.623859 -65.816299 -18.602051
-61.73996 -69.087494 -17.782539
-60.230339 -69.863892 -19.083519
-58.585205 -70.574875 -20.228634
-56.834602 -71.215263 -21.244831
-65.75679 -50.451698 -28.372711
-64.417709 -54.287403 -27.641644
-62.86898 -58.004768 -26.722214
-61.194916 -55.224838 -29.985394
-61.204731 -58.476665 -27.828053
-61.116699 -61.58662 -25.640789
-59.18697 -65.046776 -24.459953
-57.130463 -68.429817 -23.271229
-55.017147 -71.802162 -22.178589
-53.176506 -72.370636 -23.081158
-51.725826 -66.472252 -27.581318
-53.362755 -45.398865 -37.826878
-51.317375 -45.579865 -37.693104
-49.194275 -45.862263 -37.41927
-50.397793 -38.368599 -40.335537
-48.791496 -42.272415 -38.631672
-62.27146 -19.856695 -43.431448
-62.948284 -21.605462 -42.35553
-61.562247 -18.095533 -44.505302
-61.517822 -20.045029 -44.33914
-62.27146 -19.856695 -43.431448
-45.428139 5.832647 -56.271473
-46.523026 6.170203 -55.521504
-44.385643 5.494272 -56.890206
-45.705567 4.207892 -56.482869
-45.428139 5.832647 -56.271473
-31.593292 -4.760472 -53.066349
-32.247582 -3.685736 -53.896385
-31.215469 -3.41071 -53.682125
-31.943512 -6.085585 -52.439796
-31.593292 -4.760472 -53.066349
-34.934081 12.216859 -56.952641
-35.910496 11.813308 -57.273983
-55.383295 -4.273429 -50.739174
-54.20162 -2.676031 -51.595791
-55.6145 -6.071111 -50.761914
-56.536133 -5.903759 -49.814656
-55.383295 -4.273429 -50.739174
-46.864681 -37.008686 -39.986135
-46.559509 -35.19643 -40.475156
-29.205308 8.072979 -53.286774
-29.637661 8.357731 -54.274059
-62.905998 -70.130336 -13.265294
-61.928612 -71.604149 -12.971876
-64.575783 -26.934657 -39.170731
-65.036591 -28.711652 -38.132301
-50.422654 1.946292 -53.868416
-49.139012 3.407174 -54.48515
-50.691159 0.218074 -54.038139
-51.718243 0.440672 -53.166046
-50.422654 1.946292 -53.868416
-52.964005 -80.975845 -16.516498
-52.713496 -82.036598 -15.662601
-53.696665 -80.407661 -15.878857
-50.558768 -82.59695 -18.325659
-51.388197 -82.073563 -17.738064
-51.509415 -80.874859 -18.487776
-49.756241 -83.224148 -18.977156
-50.558768 -82.59695 -18.325659
-49.837252 -81.950619 -19.679064
-49.756241 -83.224148 -18.977156
-50.036713 -79.266998 -21.193924
-51.016995 -77.384079 -21.455132
-65.797828 -55.208008 -25.101149
-66.405693 -54.88101 -24.323435
-66.431748 -53.343622 -25.4371
-50.906292 -58.042885 -32.27553
-50.917439 -59.783797 -31.399393
-51.880432 -57.874278 -32.081634
-50.86924 -56.289614 -33.070953
-50.906292 -58.042885 -32.27553
-50.65663 -51.029153 -35.456131
-50.746491 -52.786136 -34.664938
-51.681528 -50.879709 -35.426489
-50.545422 -49.26775 -36.163124
-50.65663 -51.029153 -35.456131
-44.611297 -22.738017 -45.038782
-45.398765 -24.331575 -44.477377
-45.557632 -22.475445 -45.534191
-43.867428 -21.228234 -45.560566
-43.708561 -23.084365 -44.503752
-44.611297 -22.738017 -45.038782
-39.281776 9.767272 -57.671509
-40.494796 8.847417 -57.60503
-32.328775 9.513227 -56.866661
-33.130861 10.494155 -57.015572
-32.291323 10.667319 -56.4486
-29.720332 -0.676581 -54.118358
-30.581428 -0.812433 -54.6049
-30.34245 0.427111 -54.910797
-56.492306 -78.358253 -13.276581
-57.145212 -77.879848 -12.575535
-57.556792 -76.920551 -13.540808
-55.860447 -78.887001 -13.975168
-55.448868 -79.846298 -13.009895
-56.492306 -78.358253 -13.276581
-65.077042 -41.905438 -33.518166
-65.768451 -41.649681 -32.727508
-65.567188 -39.891034 -33.737679
-58.993496 -12.925289 -47.687221
-59.92025 -14.62845 -46.639143
-37.688395 -12.661665 -49.355576
-38.478727 -11.915513 -50.074497
-37.346145 -11.105016 -50.39645
-38.562792 -17.383412 -46.334612
-38.293032 -15.80742 -47.314308
-39.481856 -18.357239 -45.931969
-38.562792 -17.383412 -46.334612
-64.545963 -66.231361 -15.895876
-65.350574 -64.622444 -16.228434
-63.969723 -66.643219 -16.6894
-63.663703 -67.858421 -15.532027
-64.545963 -66.231361 -15.895876
-65.665054 -48.779815 -29.418677
-66.32267 -48.495346 -28.647503
-66.230934 -46.823464 -29.693469
-51.452991 -71.374046 -24.878428
-52.377947 -71.142288 -24.471098
-52.480788 -69.552101 -25.359699
-50.555763 -71.703838 -25.339025
-51.452991 -71.374046 -24.878428
-47.705368 -42.459017 -38.374821
-48.530079 -40.458847 -39.197233
-47.44395 -40.645449 -38.940382
-47.903513 -44.262546 -37.835293
-47.705368 -42.459017 -38.374821
-63.534605 -23.382469 -41.286185
-64.096911 -25.147625 -40.223642
-62.813356 -23.583199 -42.19594
-63.534605 -23.382469 -41.286185
-62.948284 -21.605462 -42.35553
-47.815258 4.818461 -55.046963
-46.523026 6.170203 -55.521504
-48.071815 3.134981 -55.302323
-49.139012 3.407174 -54.48515
-47.815258 4.818461 -55.046963
-33.029939 -6.421328 -52.524521
-34.177706 -6.896289 -52.558403
-33.773171 -5.510459 -53.314491
-33.029939 -6.421328 -52.524521
-31.943512 -6.085585 -52.439796
-52.025341 -75.606141 -21.775917
-51.016995 -77.384079 -21.455132
-51.913605 -77.014115 -20.956707
-66.423752 -51.756624 -26.522474
-66.431748 -53.343622 -25.4371
-36.980423 11.253103 -57.511764
-38.090633 10.576901 -57.632347
-38.00578 11.88279 -57.175156
-35.99535 10.50742 -57.731174
-36.980423 11.253103 -57.511764
-35.910496 11.813308 -57.273983
-59.275023 -74.990303 -13.139142
-58.792754 -75.973682 -12.076449
-59.858078 -74.521839 -12.375829
-65.318924 -38.118262 -34.734335
-65.567188 -39.891034 -33.737679
-57.630946 -7.543327 -48.868903
-56.536133 -5.903759 -49.814656
-57.814272 -9.3728 -48.838194
-57.630946 -7.543327 -48.868903
-56.97262 -9.545839 -49.713559
-58.019554 -11.217198 -48.714358
-57.814272 -9.3728 -48.838194
-65.606075 -63.335104 -17.404594
-65.350574 -64.622444 -16.228434
-50.855835 -64.994873 -28.832971
-50.892319 -63.260418 -29.673998
-47.199371 -38.829098 -39.448267
-47.933971 -36.824867 -40.300663
-46.864681 -37.008686 -39.986135
-47.44395 -40.645449 -38.940382
-47.199371 -38.829098 -39.448267
-31.556489 10.688987 -55.782436
-32.291323 10.667319 -56.4486
-30.849292 9.610723 -55.518283
-31.556489 10.688987 -55.782436
-30.169884 8.523509 -55.148281
-30.809829 8.599177 -55.929688
-30.849292 9.610723 -55.518283
-29.598198 7.346185 -54.685463
-30.169884 8.523509 -55.148281
-29.637661 8.357731 -54.274059
-60.909137 -73.098317 -12.65173
-59.858078 -74.521839 -12.375829
-61.359821 -72.044292 -13.758669
-60.909137 -73.098317 -12.65173
-61.928612 -71.604149 -12.971876
-65.425339 -30.502499 -37.101639
-65.797829 -32.284958 -36.090725
-64.74617 -30.725118 -37.990109
-65.425339 -30.502499 -37.101639
-65.036591 -28.711652 -38.132301
-63.878549 -27.147239 -40.073683
-64.575783 -26.934657 -39.170731
-64.096911 -25.147625 -40.223642
-52.964163 -1.099413 -52.42046
-51.718243 0.440672 -53.166046
-53.224205 -2.864164 -52.511101
-54.20162 -2.676031 -51.595791
-52.964163 -1.099413 -52.42046
-36.159073 -10.363367 -50.637219
-37.346145 -11.105016 -50.39645
-36.949405 -9.617214 -51.35614
-34.598404 -8.341362 -51.682671
-35.341635 -7.430493 -52.472641
-34.177706 -6.896289 -52.558403
-35.010711 -9.766333 -50.825127
-34.598404 -8.341362 -51.682671
-36.159073 -10.363367 -50.637219
-35.010711 -9.766333 -50.825127
-52.497786 -83.073433 -14.870934
-53.146353 -82.446854 -14.173573
-52.497786 -83.073433 -14.870934
-52.713496 -82.036598 -15.662601
-52.15984 -81.478127 -17.100212
-52.964005 -80.975845 -16.516498
-53.143009 -79.84919 -17.316468
-52.15984 -81.478127 -17.100212
-51.388197 -82.073563 -17.738064
-49.949888 -80.647522 -20.459339
-49.837252 -81.950619 -19.679064
-50.792622 -80.09515 -19.855646
-49.949888 -80.647522 -20.459339
-50.036713 -79.266998 -21.193924
-67.281475 -57.149718 -20.426384
-67.141419 -58.573759 -19.262951
-66.826507 -57.48657 -21.255916
-67.281475 -57.149718 -20.426384
-66.267983 -57.85544 -22.056596
-66.156731 -59.295281 -20.901659
-66.826507 -57.48657 -21.255916
-66.354766 -56.396063 -23.199169
-66.405693 -54.88101 -24.323435
-65.68499 -58.204773 -22.844911
-66.267983 -57.85544 -22.056596
-66.354766 -56.396063 -23.199169
-50.917214 -61.532849 -30.574774
-50.892319 -63.260418 -29.673998
-51.866684 -61.342759 -30.304722
-50.917214 -61.532849 -30.574774
-50.917439 -59.783797 -31.399393
-50.820291 -54.541277 -33.909715
-50.86924 -56.289614 -33.070953
-51.820338 -54.385029 -33.796533
-50.820291 -54.541277 -33.909715
-50.746491 -52.786136 -34.664938
-46.137754 -33.393479 -40.999567
-46.559509 -35.19643 -40.475156
-47.177526 -33.201504 -41.362942
-45.755669 -31.615049 -41.482776
-46.137754 -33.393479 -40.999567
-45.234327 -29.865422 -42.005177
-45.755669 -31.615049 -41.482776
-46.234431 -29.648925 -42.409752
-44.75917 -28.161441 -42.491831
-45.234327 -29.865422 -42.005177
-45.08276 -26.246723 -43.45706
-46.029094 -25.984151 -43.952469
-45.398765 -24.331575 -44.477377
-44.75917 -28.161441 -42.491831
-45.08276 -26.246723 -43.45706
-42.803429 -23.416603 -44.029879
-43.708561 -23.084365 -44.503752
-42.107492 -22.002713 -44.516075
-42.803429 -23.416603 -44.029879
-41.772694 7.821833 -57.456906
-43.055786 6.697906 -57.21492
-40.72546 7.30237 -57.899155
-41.772694 7.821833 -57.456906
-40.494796 8.847417 -57.60503
-38.25642 9.137584 -58.008117
-39.281776 9.767272 -57.671509
-38.090633 10.576901 -57.632347
-34.009417 11.357936 -57.045452
-34.934081 12.216859 -56.952641
-34.046868 10.203844 -57.463513
-34.009417 11.357936 -57.045452
-33.130861 10.494155 -57.015572
-30.914534 -2.126049 -54.162312
-31.536653 -1.022358 -54.95475
-30.581428 -0.812433 -54.6049
-31.215469 -3.41071 -53.682125
-30.914534 -2.126049 -54.162312
-57.718019 -77.369415 -11.824526
-58.792754 -75.973682 -12.076449
-57.718019 -77.369415 -11.824526
-57.145212 -77.879848 -12.575535
-54.428783 -81.303757 -12.796386
-55.060643 -80.775009 -12.097798
-55.448868 -79.846298 -13.009895
-53.831779 -81.90017 -13.515334
-54.428783 -81.303757 -12.796386
-54.131583 -80.92173 -14.366722
-53.146353 -82.446854 -14.173573
-53.831779 -81.90017 -13.515334
-66.103401 -45.117767 -30.708233
-66.230934 -46.823464 -29.693469
-65.955894 -43.395843 -31.72991
-65.768451 -41.649681 -32.727508
-65.425812 -45.386009 -31.486319
-66.103401 -45.117767 -30.708233
-65.955894 -43.395843 -31.72991
-65.448494 -34.302849 -35.94989
-65.797829 -32.284958 -36.090725
-65.062538 -36.335285 -35.745897
-65.448494 -34.302849 -35.94989
-64.748963 -34.548401 -36.755453
-64.619393 -38.363814 -35.539898
-65.318924 -38.118262 -34.734335
-65.062538 -36.335285 -35.745897
-28.750315 6.840018 -52.746952
-29.205308 8.072979 -53.286774
-28.624669 5.921965 -53.185269
-28.750315 6.840018 -52.746952
-28.595322 4.907697 -53.500755
-29.036628 6.166139 -54.126728
-28.624669 5.921965 -53.185269
-28.558437 3.891592 -53.733326
-28.595322 4.907697 -53.500755
-28.631997 2.780951 -53.833992
-29.08084 4.04123 -54.542881
-28.558437 3.891592 -53.733326
-28.679811 1.684278 -53.861335
-28.631997 2.780951 -53.833992
-28.843288 0.500465 -53.751689
-29.317877 1.746776 -54.533901
-28.679811 1.684278 -53.861335
-28.968957 -0.661074 -53.584744
-28.843288 0.500465 -53.751689
-29.720332 -0.676581 -54.118358
-28.968957 -0.661074 -53.584744
-60.761662 -16.367173 -45.577915
-61.562247 -18.095533 -44.505302
-59.967197 -16.545143 -46.474222
-60.761662 -16.367173 -45.577915
-59.92025 -14.62845 -46.639143
-58.151844 -13.098327 -48.562586
-58.993496 -12.925289 -47.687221
-58.019554 -11.217198 -48.714358
-43.333214 5.073151 -57.426316
-44.385643 5.494272 -56.890206
-43.055786 6.697906 -57.21492
-41.251741 -20.676508 -45.017738
-42.107492 -22.002713 -44.516075
-42.10894 -20.248379 -45.527199
-38.035483 -14.195902 -48.361894
-37.688395 -12.661665 -49.355576
-39.078525 -15.08368 -47.986036
-38.035483 -14.195902 -48.361894
-38.293032 -15.80742 -47.314308
-40.440413 -19.470726 -45.477175
-40.294632 -17.808686 -46.483656
-39.481856 -18.357239 -45.931969
-41.251741 -20.676508 -45.017738
-40.440413 -19.470726 -45.477175
-63.309619 -68.998345 -14.408659
-62.905998 -70.130336 -13.265294
-62.733379 -69.410202 -15.202184
-63.309619 -68.998345 -14.408659
-63.663703 -67.858421 -15.532027
-66.537712 -60.29023 -18.928459
-67.141419 -58.573759 -19.262951
-65.828415 -62.03783 -18.569017
-66.537712 -60.29023 -18.928459
-66.005958 -60.674012 -19.741537
-65.074321 -63.718885 -18.217672
-65.606075 -63.335104 -17.404594
-65.828415 -62.03783 -18.569017
-66.390206 -50.147163 -27.601423
-66.32267 -48.495346 -28.647503
-65.790336 -52.061159 -27.293762
-66.423752 -51.756624 -26.522474
-66.390206 -50.147163 -27.601423
-52.152619 -74.173371 -22.67775
-52.025341 -75.606141 -21.775917
-53.049228 -73.803406 -22.179325
-52.263329 -72.667434 -23.535492
-53.291125 -70.845489 -24.016764
-52.377947 -71.142288 -24.471098
-52.152619 -74.173371 -22.67775
-52.263329 -72.667434 -23.535492
-50.797854 -66.695835 -27.921658
-51.783807 -64.77129 -28.492632
-50.855835 -64.994873 -28.832971
-50.730097 -68.398441 -27.078076
-50.797854 -66.695835 -27.921658
-50.6451 -70.054245 -26.170931
-51.640829 -68.128056 -26.674174
-50.730097 -68.398441 -27.078076
-50.555763 -71.703838 -25.339025
-50.6451 -70.054245 -26.170931
-50.408276 -47.496319 -36.900835
-50.545422 -49.26775 -36.163124
-51.454521 -47.351295 -36.955393
-49.346725 -47.637518 -36.763918
-50.408276 -47.496319 -36.900835
-50.255825 -45.721064 -37.556187
-48.266979 -47.843252 -36.648577
-49.346725 -47.637518 -36.763918
-48.104902 -46.057471 -37.229092
-48.992885 -44.067339 -38.025471
-47.903513 -44.262546 -37.835293
-48.266979 -47.843252 -36.648577
-48.104902 -46.057471 -37.229092
3 276 70 277
3 278 72 279
3 280 279 70
3 278 279 280
3 281 73 282
3 283 75 284
3 285 284 73
3 283 284 285
3 286 78 287
3 288 287 76
3 286 287 288
3 290 289 78
3 1 81 79
3 1 83 81
3 2 86 84
3 2 88 86
3 2 90 88
3 0 93 91
3 0 95 93
3 291 97 292
3 4 100 98
3 4 102 100
3 5 105 103
3 5 107 105
3 7 110 108
3 7 112 110
3 7 114 112
3 9 117 115
3 9 119 117
3 10 293 294
3 10 295 297
3 295 120 296
3 295 296 297
3 10 122 120
3 11 125 123
3 11 127 125
3 3 130 128
3 12 133 131
3 12 135 133
3 12 137 135
3 13 140 138
3 13 142 140
3 6 145 143
3 14 148 146
3 14 150 148
3 14 152 150
3 8 155 153
3 299 298 156
3 300 158 301
3 302 159 303
3 304 161 305
3 17 162 69
3 17 163 162
3 17 165 163
3 19 166 71
3 19 167 166
3 20 306 307
3 20 308 310
3 308 168 309
3 308 309 310
3 20 170 168
3 22 171 74
3 22 172 171
3 23 175 173
3 25 176 77
3 25 177 176
3 25 179 177
3 26 311 313
3 313 312 180
3 311 312 313
3 27 314 316
3 316 315 80
3 314 315 316
3 27 317 318
3 27 319 320
3 322 321 82
3 29 323 325
3 323 182 324
3 323 324 325
3 29 183 182
3 30 186 184
3 32 187 85
3 32 188 187
3 32 190 188
3 34 191 87
3 34 326 328
3 328 327 191
3 326 327 328
3 34 329 330
3 35 331 333
3 333 332 89
3 331 332 333
3 35 334 335
3 36 194 192
3 38 195 92
3 38 196 195
3 38 197 196
3 39 336 338
3 338 337 94
3 336 337 338
3 39 339 341
3 339 198 340
3 339 340 341
3 342 200 343
3 41 201 96
3 41 202 201
3 15 344 346
3 344 203 345
3 344 345 346
3 42 204 99
3 42 205 204
3 42 206 205
3 43 207 101
3 43 347 349
3 349 348 207
3 347 348 349
3 44 350 352
3 352 351 104
3 350 351 352
3 44 353 355
3 353 208 354
3 353 354 355
3 44 209 208
3 45 210 106
3 45 211 210
3 47 356 358
3 356 212 357
3 356 357 358
3 47 213 212
3 16 214 160
3 48 215 109
3 48 216 215
3 48 217 216
3 49 218 111
3 49 219 218
3 49 221 219
3 51 222 113
3 51 223 222
3 18 224 164
3 52 225 116
3 52 226 225
3 52 227 226
3 53 228 118
3 53 229 228
3 359 230 360
3 54 231 121
3 54 232 231
3 21 233 169
3 55 234 124
3 55 235 234
3 55 236 235
3 56 237 126
3 56 238 237
3 40 239 199
3 57 240 129
3 57 241 240
3 24 242 174
3 58 243 132
3 58 244 243
3 58 245 244
3 59 246 134
3 59 247 246
3 59 248 247
3 60 249 136
3 60 250 249
3 361 251 362
3 363 362 178
3 361 362 363
3 364 252 365
3 367 366 252
3 61 368 369
3 61 370 372
3 370 253 371
3 370 371 372
3 28 254 181
3 62 255 139
3 62 256 255
3 62 257 256
3 63 258 141
3 63 259 258
3 46 373 375
3 373 260 374
3 373 374 375
3 64 261 144
3 64 262 261
3 31 263 185
3 65 264 147
3 65 265 264
3 65 266 265
3 66 267 149
3 66 268 267
3 66 269 268
3 67 376 378
3 378 377 151
3 376 377 378
3 67 379 380
3 33 270 189
3 50 271 220
3 68 272 154
3 68 273 272
3 37 274 193
3 381 275 382
3 383 382 157
3 381 382 383
3 385 384 275
3 386 69 387
3 70 388 390
3 388 69 389
3 388 389 390
3 70 17 69
3 70 71 17
3 72 71 70
3 72 19 71
3 73 391 392
3 73 393 395
3 393 20 394
3 393 394 395
3 73 74 20
3 75 74 73
3 75 22 74
3 76 77 23
3 78 77 76
3 78 25 77
3 78 396 398
3 398 397 25
3 396 397 398
3 400 399 78
3 79 80 26
3 81 80 79
3 81 27 80
3 81 82 27
3 83 82 81
3 83 401 403
3 403 402 82
3 401 402 403
3 404 29 405
3 84 85 30
3 86 85 84
3 86 32 85
3 86 87 32
3 88 87 86
3 88 34 87
3 88 89 34
3 90 89 88
3 90 35 89
3 91 92 36
3 93 92 91
3 93 38 92
3 93 94 38
3 95 94 93
3 95 39 94
3 406 96 407
3 406 407 408
3 97 409 411
3 409 96 410
3 409 410 411
3 97 41 96
3 98 99 15
3 100 99 98
3 100 42 99
3 100 101 42
3 102 101 100
3 102 43 101
3 103 412 414
3 412 104 413
3 412 413 414
3 105 104 103
3 105 44 104
3 105 106 44
3 107 106 105
3 107 45 106
3 415 47 416
3 108 109 16
3 110 109 108
3 110 48 109
3 110 111 48
3 112 111 110
3 112 49 111
3 112 113 49
3 114 113 112
3 114 51 113
3 115 116 18
3 117 116 115
3 117 52 116
3 117 118 52
3 119 118 117
3 119 53 118
3 120 417 418
3 120 419 420
3 120 421 423
3 421 121 422
3 421 422 423
3 122 121 120
3 122 54 121
3 123 124 21
3 125 124 123
3 125 55 124
3 125 126 55
3 127 126 125
3 127 56 126
3 128 129 40
3 130 129 128
3 130 57 129
3 131 132 24
3 133 132 131
3 133 58 132
3 133 134 58
3 135 134 133
3 135 59 134
3 135 136 59
3 137 136 135
3 137 60 136
3 424 61 425
3 138 139 28
3 140 139 138
3 140 62 139
3 140 141 62
3 142 141 140
3 142 63 141
3 143 144 46
3 145 144 143
3 145 64 144
3 146 147 31
3 148 147 146
3 148 65 147
3 148 149 65
3 150 149 148
3 150 66 149
3 150 151 66
3 152 151 150
3 152 67 151
3 427 426 33
3 153 154 50
3 155 154 153
3 155 68 154
3 156 157 37
3 428 157 429
3 430 429 156
3 428 429 430
3 432 431 157
3 433 15 434
3 435 15 436
3 437 98 438
3 439 438 15
3 437 438 439
3 158 440 442
3 440 98 441
3 440 441 442
3 158 4 98
3 443 103 444
3 159 445 447
3 445 103 446
3 445 446 447
3 159 5 103
3 448 160 449
3 161 450 452
3 450 160 451
3 450 451 452
3 161 16 160
3 69 453 455
3 453 161 454
3 453 454 455
3 162 161 69
3 162 16 161
3 162 108 16
3 163 108 162
3 163 7 108
3 163 164 7
3 165 164 163
3 165 18 164
3 71 165 17
3 166 165 71
3 166 18 165
3 166 115 18
3 167 115 166
3 167 9 115
3 168 456 457
3 168 458 460
3 458 10 459
3 458 459 460
3 168 169 10
3 170 169 168
3 170 21 169
3 74 170 20
3 171 170 74
3 171 21 170
3 171 123 21
3 172 123 171
3 172 11 123
3 173 174 3
3 175 174 173
3 175 24 174
3 77 175 23
3 176 175 77
3 176 24 175
3 176 131 24
3 177 131 176
3 177 12 131
3 177 178 12
3 179 178 177
3 179 461 463
3 463 462 178
3 461 462 463
3 464 179 465
3 466 465 25
3 464 465 466
3 467 179 468
3 470 469 179
3 180 471 472
3 474 473 180
3 80 475 477
3 477 476 26
3 475 476 477
3 479 478 80
3 82 480 482
3 482 481 27
3 480 481 482
3 484 483 82
3 485 181 486
3 487 181 488
3 489 28 490
3 491 490 181
3 489 490 491
3 182 492 493
3 182 494 496
3 494 28 495
3 494 495 496
3 182 138 28
3 183 138 182
3 183 13 138
3 184 185 6
3 186 185 184
3 186 31 185
3 85 186 30
3 187 186 85
3 187 31 186
3 187 146 31
3 188 146 187
3 188 14 146
3 188 189 14
3 190 189 188
3 190 33 189
3 87 190 32
3 191 190 87
3 191 33 190
3 191 497 499
3 499 498 33
3 497 498 499
3 501 500 191
3 89 502 504
3 504 503 34
3 502 503 504
3 506 505 89
3 192 193 8
3 194 193 192
3 194 37 193
3 92 194 36
3 195 194 92
3 195 37 194
3 195 156 37
3 196 156 195
3 196 507 509
3 509 508 156
3 507 508 509
3 196 510 511
3 197 512 514
3 514 513 196
3 512 513 514
3 197 515 516
3 94 197 38
3 517 197 518
3 519 518 94
3 517 518 519
3 521 520 197
3 198 522 523
3 198 524 525
3 526 199 527
3 200 528 530
3 528 199 529
3 528 529 530
3 200 40 199
3 96 531 533
3 531 200 532
3 531 532 533
3 201 200 96
3 201 40 200
3 201 128 40
3 202 128 201
3 202 3 128
3 534 97 535
3 203 536 538
3 536 97 537
3 536 537 538
3 203 41 97
3 99 203 15
3 204 203 99
3 204 41 203
3 204 202 41
3 205 202 204
3 205 3 202
3 205 173 3
3 206 173 205
3 206 23 173
3 101 206 42
3 207 206 101
3 207 23 206
3 207 76 23
3 539 76 540
3 541 540 207
3 539 540 541
3 543 542 76
3 104 544 545
3 547 546 104
3 208 548 550
3 548 549 550
3 208 551 552
3 208 553 555
3 553 180 554
3 553 554 555
3 209 180 208
3 209 26 180
3 106 209 44
3 210 209 106
3 210 26 209
3 210 79 26
3 211 79 210
3 211 1 79
3 556 46 557
3 212 558 559
3 212 560 562
3 560 46 561
3 560 561 562
3 212 143 46
3 213 143 212
3 213 6 143
3 160 563 564
3 214 565 567
3 567 566 160
3 565 566 567
3 214 568 570
3 568 47 569
3 568 569 570
3 109 214 16
3 215 214 109
3 215 47 214
3 215 213 47
3 216 213 215
3 216 6 213
3 216 184 6
3 217 184 216
3 217 30 184
3 111 217 48
3 218 217 111
3 218 30 217
3 218 84 30
3 219 84 218
3 219 2 84
3 219 220 2
3 221 220 219
3 221 50 220
3 113 221 49
3 222 221 113
3 222 50 221
3 222 153 50
3 223 153 222
3 223 8 153
3 164 114 7
3 224 114 164
3 224 51 114
3 116 224 18
3 225 224 116
3 225 51 224
3 225 223 51
3 226 223 225
3 226 8 223
3 226 192 8
3 227 192 226
3 227 36 192
3 118 227 52
3 228 227 118
3 228 36 227
3 228 91 36
3 229 91 228
3 229 0 91
3 571 158 572
3 573 158 574
3 575 4 576
3 577 576 158
3 575 576 577
3 578 4 579
3 580 102 581
3 582 581 4
3 580 581 582
3 583 102 584
3 585 43 586
3 587 586 102
3 585 586 587
3 588 43 589
3 591 590 43
3 592 72 593
3 230 594 596
3 594 72 595
3 594 595 596
3 230 19 72
3 121 597 599
3 597 230 598
3 597 598 599
3 231 230 121
3 231 19 230
3 231 167 19
3 232 167 231
3 232 9 167
3 169 122 10
3 233 122 169
3 233 54 122
3 124 233 21
3 234 233 124
3 234 54 233
3 234 232 54
3 235 232 234
3 235 9 232
3 235 119 9
3 236 119 235
3 236 53 119
3 126 236 55
3 237 236 126
3 237 53 236
3 237 229 53
3 238 229 237
3 238 0 229
3 199 600 602
3 600 75 601
3 600 601 602
3 239 75 199
3 239 22 75
3 129 239 40
3 240 239 129
3 240 22 239
3 240 172 22
3 241 172 240
3 241 11 172
3 174 130 3
3 242 130 174
3 242 57 130
3 132 242 24
3 243 242 132
3 243 57 242
3 243 241 57
3 244 241 243
3 244 11 241
3 244 127 11
3 245 127 244
3 245 56 127
3 134 245 58
3 246 245 134
3 246 56 245
3 246 238 56
3 247 238 246
3 247 0 238
3 247 95 0
3 248 95 247
3 248 39 95
3 136 248 59
3 249 248 136
3 249 39 248
3 249 198 39
3 250 198 249
3 250 603 605
3 605 604 198
3 603 604 605
3 178 137 12
3 251 137 178
3 251 60 137
3 606 251 607
3 252 608 610
3 608 251 609
3 608 609 610
3 252 60 251
3 252 250 60
3 611 250 612
3 613 612 252
3 611 612 613
3 615 614 250
3 616 159 617
3 253 618 620
3 618 159 619
3 618 619 620
3 253 5 159
3 181 621 622
3 254 623 625
3 625 624 181
3 623 624 625
3 254 626 628
3 626 61 627
3 626 627 628
3 139 254 28
3 255 254 139
3 255 61 254
3 255 253 61
3 256 253 255
3 256 5 253
3 256 107 5
3 257 107 256
3 257 45 107
3 141 257 62
3 258 257 141
3 258 45 257
3 258 211 45
3 259 211 258
3 259 1 211
3 260 629 630
3 260 631 633
3 631 29 632
3 631 632 633
3 144 260 46
3 261 260 144
3 261 29 260
3 261 183 29
3 262 183 261
3 262 13 183
3 185 145 6
3 263 145 185
3 263 64 145
3 147 263 31
3 264 263 147
3 264 64 263
3 264 262 64
3 265 262 264
3 265 13 262
3 265 142 13
3 266 142 265
3 266 63 142
3 149 266 65
3 267 266 149
3 267 63 266
3 267 259 63
3 268 259 267
3 268 1 259
3 268 83 1
3 269 83 268
3 269 634 636
3 636 635 83
3 634 635 636
3 151 269 66
3 637 269 638
3 639 638 151
3 637 638 639
3 641 640 269
3 189 152 14
3 270 152 189
3 270 67 152
3 642 270 643
3 644 643 33
3 642 643 644
3 645 270 646
3 647 67 648
3 649 648 270
3 647 648 649
3 651 650 67
3 220 90 2
3 271 90 220
3 271 35 90
3 154 271 50
3 272 271 154
3 272 35 271
3 272 652 654
3 654 653 35
3 652 653 654
3 273 655 657
3 657 656 272
3 655 656 657
3 273 658 659
3 193 155 8
3 274 155 193
3 274 68 155
3 157 274 37
3 275 274 157
3 275 68 274
3 275 273 68
3 660 273 661
3 662 661 275
3 660 661 662
3 664 663 273
