ply
format ascii 1.0
element vertex 356
property float x
property float y
property float z
element face 377
property list uchar int vertex_index
end_header
-24.32995 -80.31768 -18.25366
-23.207834 -101.476479 -17.823416
-25.446321 -91.892769 -17.981405
-22.169987 -68.085388 -18.941614
-25.992374 -83.917152 -9.012271
-23.870268 -72.708977 -10.730302
-22.699158 -61.727272 -12.687838
-25.176865 -86.271843 -18.106136
-24.141607 -89.275818 -22.61582
-23.82979 -83.534416 -22.335939
-26.515232 -89.342056 -8.195225
-24.592297 -74.389427 -6.073152
-23.078833 -67.331856 -11.78156
-20.702953 -104.746986 -17.388226
-19.825632 -103.442924 -22.569304
-24.838165 -97.100708 -17.857126
-22.205433 -99.632301 -22.936457
-23.707245 -94.78701 -22.778194
-23.232056 -74.142517 -18.566143
-23.046818 -77.229408 -22.101564
-21.951559 -70.732216 -22.265678
-25.281885 -98.339928 -12.762202
-26.145264 -93.579086 -13.019058
-26.093977 -88.192825 -13.324671
-25.363787 -82.431328 -13.572407
-25.549301 -79.568329 -4.850148
-25.000511 -78.416756 -9.654777
-24.214176 -76.49144 -14.266642
-23.119125 -70.80928 -15.004985
-22.285465 -64.97332 -15.843429
-24.837357 -83.384766 -18.031031
-24.566746 -85.053787 -20.252939
-24.198256 -82.11042 -20.234846
-21.96063 -103.332985 -17.794542
-20.344931 -104.257027 -20.039188
-21.740046 -102.567055 -20.231028
-25.24539 -94.654396 -17.967482
-24.386406 -96.077057 -20.284225
-24.754404 -93.453377 -20.314045
-22.684166 -71.182388 -18.758066
-22.649403 -72.645981 -20.449459
-22.091337 -69.569618 -20.64978
-25.836975 -96.103638 -12.803288
-26.266056 -94.171951 -10.43273
-26.332541 -86.654312 -8.622035
-26.367804 -88.754585 -10.651019
-26.109426 -86.060326 -11.094816
-25.792459 -85.257462 -13.395009
-25.714382 -83.263329 -11.414463
-24.239746 -73.642303 -8.473173
-24.76532 -76.331856 -7.773578
-24.415907 -75.595238 -10.211693
-24.631433 -77.535522 -12.009802
-24.065586 -74.771439 -12.405001
-23.649986 -73.6716 -14.59889
-23.532423 -71.921684 -12.836292
-22.822708 -64.422173 -12.235765
-22.691534 -66.137459 -13.808308
-22.433428 -63.505466 -14.32327
-22.039745 -62.131725 -16.149273
-22.328644 -60.56076 -14.536522
-16.029848 -105.122429 -24.420544
-21.463282 -98.405922 -25.190308
-20.501587 -100.424187 -25.090054
-25.406637 -89.019211 -18.003334
-24.833719 -90.865303 -20.48102
-24.834568 -88.050659 -20.213568
-24.121258 -86.473518 -22.297178
-21.700796 -64.867653 -19.228844
-21.59745 -66.37587 -20.738224
-26.203117 -84.477562 -6.358748
-24.139326 -71.624504 -6.735959
-23.794262 -70.915451 -9.043651
-23.428505 -70.06797 -11.348263
-23.430239 -68.190453 -9.697712
-23.205666 -65.520027 -10.109234
-23.092535 -62.756138 -10.582023
-18.874922 -105.499969 -19.830399
-18.351736 -104.849388 -22.32411
-17.612696 -103.882027 -24.82375
-24.133324 -99.363113 -17.976439
-22.857725 -100.606766 -20.396229
-23.704838 -98.489029 -20.431623
-23.138802 -97.303093 -22.779274
-24.022621 -92.162811 -22.749489
-22.842783 -93.274574 -25.117609
-23.827375 -77.283424 -18.270624
-23.73399 -78.90789 -20.196341
-23.218193 -75.858429 -20.334932
-22.515635 -74.020004 -22.199894
-22.206108 -103.640999 -14.986362
-23.411814 -101.959618 -15.255113
-24.356287 -100.080582 -15.445896
-25.13685 -97.801888 -15.437806
-25.64443 -95.318062 -15.43365
-25.88608 -92.8312 -15.431875
-26.426691 -91.553085 -10.562295
-26.249178 -90.835045 -12.924991
-25.880623 -90.142563 -15.662678
-25.710537 -87.208504 -15.62088
-25.365685 -84.418739 -15.773758
-24.884287 -81.407349 -15.948027
-25.793734 -81.765213 -6.845749
-25.059214 -76.830276 -5.328341
-25.280678 -78.955391 -7.317334
-25.541285 -81.183708 -9.282136
-25.194628 -80.310394 -11.639202
-24.803654 -79.486656 -14.014885
-24.347689 -78.451736 -16.166685
-23.780981 -75.57399 -16.521687
-23.202305 -72.527519 -16.7246
-22.658278 -69.503654 -17.080233
-23.051373 -68.907555 -13.306332
-22.676756 -67.90094 -15.279881
-22.225624 -66.538513 -17.297411
-21.855688 -63.481056 -17.633389
-21.190586 -101.658089 -22.716059
-19.275381 -102.24601 -24.923588
-23.453037 -80.346657 -22.257368
-26.264919 -94.25061 -8.989841
-26.088286 -95.286373 -10.176823
-14.778846 -105.063698 -25.358389
-15.636335 -104.489635 -25.661262
-20.570939 -98.619713 -26.262004
-21.058671 -97.556423 -26.241486
-23.521712 -84.111488 -23.393989
-23.667446 -85.581039 -23.374609
-23.975524 -85.003967 -22.316558
-21.421617 -64.046976 -20.120395
-21.538169 -63.415266 -19.312648
-26.257197 -84.682556 -5.070491
-26.333975 -85.805947 -6.172983
-23.96091 -70.28529 -7.094969
-24.139104 -70.569611 -5.901413
-23.788378 -69.930763 -8.248815
-23.966794 -71.269978 -7.889805
-23.96091 -70.28529 -7.094969
-23.606367 -68.568264 -8.575846
-23.612251 -69.552952 -9.370681
-23.788378 -69.930763 -8.248815
-23.324937 -64.536075 -9.354726
-23.391579 -65.966457 -9.007696
-23.268372 -63.154131 -9.591121
-23.149101 -64.138082 -10.345629
-23.324937 -64.536075 -9.354726
-19.788938 -105.123478 -18.609313
-18.931618 -105.750972 -18.575787
-19.845633 -105.374481 -17.3547
-23.033643 -95.380443 -23.914176
-22.749421 -96.638485 -23.914716
-23.423023 -96.045051 -22.778734
-22.376686 -92.411652 -26.106192
-23.048343 -91.995815 -24.929631
-22.101202 -93.761685 -26.20197
-22.376686 -92.411652 -26.106192
-21.837464 -71.408062 -23.152995
-22.119502 -73.051956 -23.120103
-22.233597 -72.37611 -22.232786
-21.494666 -66.93747 -21.581646
-21.266925 -65.454731 -21.649079
-22.806503 -102.954231 -13.777572
-22.119681 -103.767865 -13.727237
-23.409356 -102.113541 -13.911948
-22.808961 -102.800308 -15.120738
-22.806503 -102.954231 -13.777572
-24.881808 -99.379154 -12.628013
-25.282756 -98.449002 -11.320201
-24.819086 -99.210255 -14.104049
-24.419008 -100.249482 -13.96986
-24.881808 -99.379154 -12.628013
-26.470962 -90.44757 -9.37876
-26.462091 -91.733882 -9.264534
-26.506361 -90.628368 -8.080998
-25.762871 -80.870148 -4.521338
-25.640886 -79.71352 -3.532024
-25.671518 -80.666771 -5.847948
-25.885088 -81.96859 -5.519139
-25.762871 -80.870148 -4.521338
-24.825755 -75.609851 -5.700747
-24.960712 -75.719219 -4.471969
-24.727253 -74.498795 -4.844374
-21.817802 -61.335809 -17.051856
-21.966211 -60.733906 -16.321813
-18.892823 -101.513077 -26.068748
-19.888484 -101.335099 -25.006821
-19.505926 -100.602166 -26.151981
-18.159405 -102.336399 -26.017572
-18.892823 -101.513077 -26.068748
-23.697755 -89.996437 -23.678736
-23.742223 -88.509873 -23.59189
-25.596201 -97.370362 -11.341559
-25.282756 -98.449002 -11.320201
-25.873746 -96.252217 -11.362102
-25.55943 -97.221783 -12.782745
-25.596201 -97.370362 -11.341559
-26.051516 -95.137795 -11.618009
-25.873746 -96.252217 -11.362102
-26.088286 -95.286373 -10.176823
-25.435842 -78.469784 -3.936212
-25.640886 -79.71352 -3.532024
-22.110661 -59.948423 -15.515437
-21.966211 -60.733906 -16.321813
-22.184195 -61.346243 -15.342897
-15.101623 -105.587734 -24.211675
-16.312992 -105.55547 -23.237474
-15.101623 -105.587734 -24.211675
-14.778846 -105.063698 -25.358389
-20.090091 -99.628846 -26.211877
-20.982435 -99.415054 -25.140181
-20.570939 -98.619713 -26.262004
-19.505926 -100.602166 -26.151981
-20.090091 -99.628846 -26.211877
-22.843515 -77.879452 -23.140801
-22.621184 -76.237865 -23.104878
-23.732048 -87.108722 -23.432569
-23.742223 -88.509873 -23.59189
-24.131433 -87.874668 -22.456499
-23.732048 -87.108722 -23.432569
-23.667446 -85.581039 -23.374609
-21.369944 -64.801085 -20.875085
-21.649123 -65.621762 -19.983534
-21.421617 -64.046976 -20.120395
-21.266925 -65.454731 -21.649079
-21.369944 -64.801085 -20.875085
-26.533437 -89.511757 -6.807391
-26.506361 -90.628368 -8.080998
-26.490032 -88.238193 -7.091222
-26.533437 -89.511757 -6.807391
-26.398687 -86.894322 -7.304627
-26.423887 -87.998184 -8.40863
-26.490032 -88.238193 -7.091222
-26.267829 -85.565937 -7.490392
-26.398687 -86.894322 -7.304627
-26.333975 -85.805947 -6.172983
-24.530521 -73.230915 -5.188678
-24.727253 -74.498795 -4.844374
-24.304036 -71.848454 -5.520082
-24.139104 -70.569611 -5.901413
-24.365811 -73.006966 -6.404556
-24.530521 -73.230915 -5.188678
-24.304036 -71.848454 -5.520082
-23.503865 -67.301671 -8.801934
-23.606367 -68.568264 -8.575846
-23.317953 -66.85524 -9.903473
-23.503865 -67.301671 -8.801934
-23.391579 -65.966457 -9.007696
-17.98848 -106.009418 -19.74812
-18.931618 -105.750972 -18.575787
-17.735529 -105.744239 -20.942401
-17.98848 -106.009418 -19.74812
-17.473936 -105.418949 -22.189256
-17.735529 -105.744239 -20.942401
-18.613329 -105.174678 -21.077255
-17.190792 -104.985908 -23.372327
-16.312992 -105.55547 -23.237474
-17.473936 -105.418949 -22.189256
-16.427759 -103.869434 -25.862865
-15.636335 -104.489635 -25.661262
-16.821272 -104.502228 -24.622147
-21.911662 -97.189899 -25.120233
-22.301042 -97.854508 -23.984791
-22.749421 -96.638485 -23.914716
-21.058671 -97.556423 -26.241486
-21.911662 -97.189899 -25.120233
-23.638261 -91.439933 -23.745571
-24.082114 -90.719314 -22.682654
-23.697755 -89.996437 -23.678736
-23.432702 -92.718693 -23.933549
-23.638261 -91.439933 -23.745571
-23.048343 -91.995815 -24.929631
-22.601412 -94.624225 -25.083883
-23.033643 -95.380443 -23.914176
-23.275014 -94.030792 -23.947902
-22.601412 -94.624225 -25.083883
-22.101202 -93.761685 -26.20197
-22.355593 -74.633163 -23.154043
-22.621184 -76.237865 -23.104878
-22.781226 -75.624706 -22.150729
-22.355593 -74.633163 -23.154043
-22.119502 -73.051956 -23.120103
-21.741609 -68.534344 -21.537424
-21.844393 -67.972744 -20.694002
-21.494666 -66.93747 -21.581646
-21.67172 -69.115643 -22.345373
-22.021448 -70.150917 -21.457729
-21.741609 -68.534344 -21.537424
-21.572745 -69.794472 -23.169185
-21.67172 -69.115643 -22.345373
-21.837464 -71.408062 -23.152995
-21.572745 -69.794472 -23.169185
-20.674415 -104.931942 -16.111404
-19.845633 -105.374481 -17.3547
-21.425992 -104.378949 -14.910472
-22.119681 -103.767865 -13.727237
-21.454531 -104.193993 -16.187294
-20.674415 -104.931942 -16.111404
-21.425992 -104.378949 -14.910472
-23.946772 -101.188999 -13.874468
-23.409356 -102.113541 -13.911948
-23.884051 -101.0201 -15.350504
-23.946772 -101.188999 -13.874468
-24.419008 -100.249482 -13.96986
-26.381773 -93.043316 -9.199751
-26.264919 -94.25061 -8.989841
-26.346373 -92.862518 -10.497512
-26.381773 -93.043316 -9.199751
-26.462091 -91.733882 -9.264534
-26.089779 -83.324765 -5.275638
-26.257197 -84.682556 -5.070491
-25.998425 -83.121387 -6.602248
-26.089779 -83.324765 -5.275638
-25.885088 -81.96859 -5.519139
-25.190799 -77.100758 -4.175308
-24.960712 -75.719219 -4.471969
-25.304257 -78.199303 -5.089244
-25.435842 -78.469784 -3.936212
-25.190799 -77.100758 -4.175308
-21.615615 -62.721968 -18.514921
-21.538169 -63.415266 -19.312648
-21.778242 -64.174355 -18.431117
-21.725773 -62.010475 -17.793914
-21.947716 -62.806391 -16.891331
-21.817802 -61.335809 -17.051856
-21.615615 -62.721968 -18.514921
-21.725773 -62.010475 -17.793914
-23.289247 -61.773483 -9.840642
-23.268372 -63.154131 -9.591121
-23.101619 -61.382089 -10.832883
-23.289247 -61.773483 -9.840642
-22.904931 -60.867656 -11.88579
-22.895847 -62.241705 -11.63493
-23.101619 -61.382089 -10.832883
-22.709429 -60.302065 -12.882375
-22.904931 -60.867656 -11.88579
-22.524172 -59.718809 -13.806717
-22.513901 -61.144016 -13.61218
-22.709429 -60.302065 -12.882375
-22.315179 -59.098135 -14.788335
-22.524172 -59.718809 -13.806717
-22.110661 -59.948423 -15.515437
-22.315179 -59.098135 -14.788335
-17.328063 -103.154407 -25.967654
-18.444038 -103.064019 -24.873669
-18.159405 -102.336399 -26.017572
-16.427759 -103.869434 -25.862865
-17.328063 -103.154407 -25.967654
-23.046625 -79.438076 -23.218703
-23.249927 -78.788032 -22.179466
-22.843515 -77.879452 -23.140801
-23.193351 -81.003029 -23.343967
-23.046625 -79.438076 -23.218703
-23.381727 -82.596908 -23.383253
-23.641413 -81.940536 -22.296653
-23.193351 -81.003029 -23.343967
-23.521712 -84.111488 -23.393989
-23.381727 -82.596908 -23.383253
3 0 32 30
3 1 35 33
3 2 38 36
3 3 41 39
3 119 43 120
3 4 46 44
3 4 48 46
3 5 51 49
3 5 53 51
3 5 55 53
3 6 58 56
3 6 60 58
3 122 121 61
3 124 123 62
3 7 66 64
3 9 67 31
3 9 125 127
3 127 126 67
3 125 126 127
3 129 128 68
3 130 70 131
3 132 71 133
3 134 72 135
3 136 135 71
3 134 135 136
3 137 74 138
3 139 138 72
3 137 138 139
3 140 75 141
3 142 76 143
3 144 143 75
3 142 143 144
3 13 145 147
3 145 77 146
3 145 146 147
3 14 78 34
3 14 79 78
3 15 82 80
3 17 83 37
3 17 148 150
3 150 149 83
3 148 149 150
3 8 84 65
3 151 85 152
3 154 153 85
3 18 88 86
3 20 89 40
3 20 155 157
3 157 156 89
3 155 156 157
3 159 158 69
3 160 90 161
3 162 91 163
3 164 163 90
3 162 163 164
3 21 165 166
3 21 167 169
3 167 92 168
3 167 168 169
3 21 93 92
3 22 94 42
3 22 95 94
3 10 170 172
3 170 96 171
3 170 171 172
3 23 97 45
3 23 98 97
3 23 99 98
3 24 100 47
3 24 101 100
3 25 173 174
3 25 175 177
3 175 102 176
3 175 176 177
3 11 178 180
3 178 103 179
3 178 179 180
3 26 104 50
3 26 105 104
3 26 106 105
3 27 107 52
3 27 108 107
3 27 109 108
3 28 110 54
3 28 111 110
3 12 112 73
3 29 113 57
3 29 114 113
3 29 115 114
3 182 181 59
3 16 116 81
3 183 117 184
3 185 184 63
3 183 184 185
3 187 186 117
3 19 118 87
3 30 31 7
3 32 31 30
3 32 9 31
3 33 34 13
3 35 34 33
3 35 14 34
3 36 37 15
3 38 37 36
3 38 17 37
3 189 188 8
3 39 40 18
3 41 40 39
3 41 20 40
3 190 21 191
3 192 42 193
3 194 193 21
3 192 193 194
3 43 195 197
3 195 42 196
3 195 196 197
3 43 22 42
3 44 45 10
3 46 45 44
3 46 23 45
3 46 47 23
3 48 47 46
3 48 24 47
3 198 25 199
3 49 50 11
3 51 50 49
3 51 26 50
3 51 52 26
3 53 52 51
3 53 27 52
3 53 54 27
3 55 54 53
3 55 28 54
3 56 57 12
3 58 57 56
3 58 29 57
3 58 59 29
3 60 59 58
3 60 200 202
3 202 201 59
3 200 201 202
3 61 203 204
3 206 205 61
3 62 63 16
3 207 63 208
3 209 208 62
3 207 208 209
3 211 210 63
3 213 212 19
3 64 65 2
3 66 65 64
3 66 8 65
3 31 66 7
3 67 66 31
3 67 8 66
3 67 214 216
3 216 215 8
3 214 215 216
3 218 217 67
3 68 69 3
3 219 69 220
3 221 220 68
3 219 220 221
3 223 222 69
3 224 10 225
3 226 10 227
3 228 44 229
3 230 229 10
3 228 229 230
3 70 231 233
3 231 44 232
3 231 232 233
3 70 4 44
3 234 11 235
3 71 236 237
3 71 238 240
3 238 11 239
3 238 239 240
3 71 49 11
3 72 49 71
3 72 5 49
3 72 73 5
3 74 73 72
3 74 12 73
3 241 74 242
3 75 243 245
3 243 74 244
3 243 244 245
3 75 12 74
3 75 56 12
3 76 56 75
3 76 6 56
3 77 246 247
3 77 248 249
3 34 77 13
3 78 77 34
3 78 250 252
3 252 251 77
3 250 251 252
3 78 253 255
3 253 61 254
3 253 254 255
3 79 61 78
3 79 256 258
3 258 257 61
3 256 257 258
3 80 81 1
3 82 81 80
3 82 16 81
3 37 82 15
3 83 82 37
3 83 16 82
3 83 62 16
3 259 62 260
3 261 260 83
3 259 260 261
3 263 262 62
3 65 38 2
3 84 38 65
3 84 17 38
3 264 84 265
3 266 265 8
3 264 265 266
3 85 267 269
3 267 84 268
3 267 268 269
3 85 17 84
3 85 270 272
3 272 271 17
3 270 271 272
3 274 273 85
3 86 87 0
3 88 87 86
3 88 19 87
3 40 88 18
3 89 88 40
3 89 19 88
3 89 275 277
3 277 276 19
3 275 276 277
3 279 278 89
3 69 41 3
3 280 41 281
3 282 281 69
3 280 281 282
3 283 20 284
3 285 284 41
3 283 284 285
3 286 20 287
3 289 288 20
3 290 13 291
3 90 292 293
3 90 294 296
3 294 13 295
3 294 295 296
3 90 33 13
3 91 33 90
3 91 1 33
3 297 91 298
3 92 299 301
3 299 91 300
3 299 300 301
3 92 1 91
3 92 80 1
3 93 80 92
3 93 15 80
3 42 93 21
3 94 93 42
3 94 15 93
3 94 36 15
3 95 36 94
3 95 2 36
3 302 43 303
3 96 304 306
3 304 43 305
3 304 305 306
3 96 22 43
3 45 96 10
3 97 96 45
3 97 22 96
3 97 95 22
3 98 95 97
3 98 2 95
3 98 64 2
3 99 64 98
3 99 7 64
3 47 99 23
3 100 99 47
3 100 7 99
3 100 30 7
3 101 30 100
3 101 0 30
3 307 70 308
3 102 309 311
3 309 70 310
3 309 310 311
3 102 4 70
3 103 312 313
3 103 314 316
3 314 25 315
3 314 315 316
3 50 103 11
3 104 103 50
3 104 25 103
3 104 102 25
3 105 102 104
3 105 4 102
3 105 48 4
3 106 48 105
3 106 24 48
3 52 106 26
3 107 106 52
3 107 24 106
3 107 101 24
3 108 101 107
3 108 0 101
3 108 86 0
3 109 86 108
3 109 18 86
3 54 109 27
3 110 109 54
3 110 18 109
3 110 39 18
3 111 39 110
3 111 3 39
3 73 55 5
3 112 55 73
3 112 28 55
3 57 112 12
3 113 112 57
3 113 28 112
3 113 111 28
3 114 111 113
3 114 3 111
3 114 68 3
3 115 68 114
3 115 317 319
3 319 318 68
3 317 318 319
3 59 115 29
3 320 115 321
3 322 321 59
3 320 321 322
3 324 323 115
3 325 76 326
3 327 76 328
3 329 6 330
3 331 330 76
3 329 330 331
3 332 6 333
3 334 60 335
3 336 335 6
3 334 335 336
3 337 60 338
3 340 339 60
3 81 35 1
3 116 35 81
3 116 14 35
3 63 116 16
3 117 116 63
3 117 14 116
3 117 79 14
3 341 79 342
3 343 342 117
3 341 342 343
3 345 344 79
3 87 32 0
3 118 32 87
3 118 9 32
3 346 118 347
3 348 347 19
3 346 347 348
3 349 118 350
3 351 9 352
3 353 352 118
3 351 352 353
3 355 354 9
