ply
format ascii 1.0
element vertex 888
property float x
property float y
property float z
element face 1094
property list uchar int vertex_index
end_header
34.795044 -36.857624 -13.649459
39.5797 -25.612141 -44.669739
40.073246 -8.05216 -37.091099
37.902103 -32.411079 -27.921299
31.58814 -51.494995 -13.479476
33.814747 -53.44556 -31.289806
38.146439 4.984714 -55.381714
38.071762 -25.470959 -25.247976
35.876553 -35.113304 -20.041637
27.592367 22.52809 -67.409126
28.533028 -61.504387 -13.996135
33.183807 -52.805302 -22.322746
28.818604 -64.21405 -23.774693
40.57975 -15.331176 -41.602608
40.061512 -1.192198 -46.077862
39.807377 -10.033036 -50.493679
36.448921 -5.256531 -58.734932
37.065498 -21.950941 -52.438225
39.600952 -20.553537 -33.065708
39.614655 -29.006926 -36.329639
33.373386 -42.90332 -13.601711
35.058037 -42.929989 -21.266586
37.111107 -41.840858 -29.812515
37.606419 -40.244068 -38.296574
34.278999 17.908381 -58.964634
33.300034 10.04835 -64.121323
36.25494 -32.307251 -18.899992
35.18853 -36.0439 -16.566572
24.309872 26.913759 -67.612785
28.169298 25.463573 -64.078575
28.79034 -63.010532 -18.92079
40.369629 -20.1752 -43.301807
40.489174 -12.539334 -45.982841
39.961639 -17.78157 -47.515701
38.83165 -15.906879 -51.750401
38.677418 -23.707695 -48.72784
37.984051 -28.551113 -26.680132
38.845093 -22.955181 -29.055315
38.937973 -26.42009 -30.739578
39.750416 -24.398846 -34.886631
38.877636 -30.865978 -32.059418
32.514034 -47.054504 -13.291624
34.040043 -43.068382 -17.2066
33.332237 -47.530376 -17.410475
33.652588 -53.451992 -26.78924
35.262997 -47.817394 -26.242903
35.800137 -47.716244 -30.580038
37.616055 -41.245693 -34.191025
35.92836 -47.055702 -34.905865
39.415913 2.073571 -50.676449
39.241756 5.328503 -47.527035
38.236942 8.657854 -52.50024
36.390953 14.951215 -53.972595
36.463966 12.091782 -57.384892
33.974552 14.739419 -62.05098
36.045441 7.987721 -60.01115
37.036289 -30.51329 -22.662651
36.87178 -33.734352 -23.932892
20.002258 27.557709 -70.059341
23.614697 23.210972 -70.383331
26.940033 18.080448 -69.445061
30.231304 -56.442131 -13.543339
32.361008 -52.2812 -17.821411
30.919535 -57.397522 -18.386124
31.341959 -58.419144 -23.069662
31.486425 -58.970665 -27.654343
40.392723 -11.104461 -39.528481
40.223408 -4.465482 -41.482506
40.513855 -8.388499 -43.983826
40.186665 -5.362729 -48.366028
39.284439 -2.655113 -52.892521
37.640228 -0.025716 -57.346146
38.523846 -7.824811 -54.611595
37.040668 -13.404509 -55.751751
39.449059 -17.191706 -31.242443
39.998653 -14.239048 -35.312897
40.259399 -17.84259 -37.474403
40.273842 -22.326719 -39.102909
39.879856 -27.247772 -40.531132
34.140701 -39.095764 -10.584177
34.109482 -39.504513 -13.61298
33.100403 -42.560341 -10.006482
29.824432 -54.966801 -9.120174
28.262833 -59.882462 -9.312933
34.617058 -39.241421 -16.973299
35.477142 -38.756298 -20.649376
36.593346 -38.031059 -24.812756
34.372074 -47.62191 -21.768732
36.134693 -42.657005 -25.483181
37.698925 -36.770782 -28.98834
38.493286 -35.994282 -33.140953
38.932564 -34.645615 -37.337467
38.788998 -33.248566 -41.484043
38.031841 -31.474669 -45.590549
31.532309 23.085693 -59.599281
31.221857 20.666122 -63.584019
30.748594 16.637402 -66.169365
29.768728 12.012524 -67.697067
35.164154 2.61628 -61.630436
35.203365 -35.537598 -14.429897
35.418777 -34.93618 -16.034906
34.939312 -36.511223 -14.916026
26.612595 27.476673 -63.82317
28.368721 26.414793 -61.979412
40.053471 -22.965076 -43.953007
40.21862 -19.304037 -45.34705
39.832397 -21.720409 -46.074406
39.455429 -20.599991 -48.132099
39.242729 -24.457029 -46.750683
37.933983 -30.532434 -27.30513
38.446148 -27.598207 -28.631744
38.465782 -29.497738 -29.425781
38.940868 -28.606226 -31.484118
38.413712 -31.516134 -29.943699
32.115883 -49.137062 -13.435522
32.928036 -47.180859 -15.389422
32.488434 -49.543736 -15.549121
33.875134 -53.294289 -29.137644
34.762749 -50.665962 -28.673958
34.937756 -50.459248 -30.915874
35.920895 -47.460602 -32.799686
34.867279 -50.468887 -33.101627
38.897015 3.386951 -52.988029
38.886814 5.428097 -51.626595
38.188862 7.234334 -54.107666
37.445667 10.39236 -54.982914
37.371181 8.722048 -56.433353
36.336811 10.136719 -58.785507
37.196438 6.522566 -57.732761
36.037521 -33.661015 -19.474178
36.621544 -31.409046 -20.743166
36.46199 -32.839878 -21.309097
36.938889 -32.050423 -23.290968
36.360657 -34.443771 -21.985744
18.68676 30.612694 -67.796036
18.232042 29.184244 -69.486504
20.444698 29.082575 -68.550247
26.055609 24.890894 -67.530785
23.965036 25.253073 -69.149048
25.630735 23.021351 -69.017525
25.255157 20.827904 -70.074203
27.287302 20.44384 -68.595917
29.460131 -58.944942 -13.856179
30.585606 -56.897415 -15.929866
29.718985 -59.498585 -16.146528
28.915182 -63.507545 -21.381483
30.085854 -60.717442 -20.909515
30.20652 -61.174026 -23.327293
31.472141 -58.726345 -25.380272
30.090298 -61.829971 -25.682331
40.51992 -13.138939 -40.586903
40.498062 -9.59259 -41.80978
40.589794 -11.771838 -42.6842
40.231071 -11.348484 -48.219135
40.373772 -8.876259 -47.334679
40.053898 -7.703946 -49.586262
39.810673 -3.927192 -50.656929
39.591213 -6.20205 -51.761349
38.945625 -4.879153 -53.966324
39.251904 -8.830779 -52.581474
38.081738 -18.644064 -52.233353
38.076599 -14.467805 -53.767605
37.185268 -17.595953 -54.069225
39.247101 -21.622242 -31.104263
39.188473 -20.093527 -30.249655
39.530563 -18.737577 -32.261539
39.737747 -15.768976 -33.293259
39.839252 -17.409052 -34.236614
40.132675 -15.986711 -36.373497
39.962532 -19.054478 -35.262077
39.703388 -26.732069 -35.494648
40.069687 -23.28297 -37.052227
39.96899 -25.846775 -37.607906
40.117626 -24.989264 -39.663979
39.77721 -28.442705 -38.358952
33.61623 -40.784306 -10.296497
31.586897 -48.357826 -9.34177
29.069157 -57.390244 -9.083043
33.726524 -41.185062 -13.572376
34.323765 -39.399567 -15.319323
33.998981 -41.149937 -15.398705
34.549812 -42.952297 -19.265934
34.761391 -41.073116 -19.008463
35.319946 -40.655113 -21.045349
36.074314 -38.174141 -22.78797
35.828705 -40.487423 -22.969141
32.751274 -52.694912 -20.068754
33.420067 -50.082481 -20.037844
33.864891 -50.170601 -22.109339
36.210957 -45.016472 -28.075075
35.798466 -45.175678 -25.975214
36.607185 -42.489937 -27.573576
36.93922 -39.81842 -27.2253
37.434498 -39.341778 -29.334248
38.175816 -36.259151 -31.187645
37.848801 -38.958408 -31.544409
37.67157 -40.824638 -36.234497
38.313168 -38.066277 -35.727001
38.37151 -37.424889 -37.745716
38.936241 -33.967625 -39.420464
38.207458 -37.01524 -39.839569
40.19698 -2.854779 -43.77578
40.021442 -1.352817 -42.249008
39.929806 0.289625 -44.534058
38.599258 8.555174 -48.398968
35.376198 16.554075 -56.651966
35.298714 17.552578 -54.625507
34.21077 19.186487 -57.026764
32.836929 21.714661 -57.268963
32.935894 20.669828 -59.417801
31.485939 21.974819 -61.701477
32.871983 19.360552 -61.306713
33.681496 12.536137 -63.240288
32.385315 15.853809 -64.266541
32.059975 13.599341 -65.253853
30.389215 14.340158 -66.98735
31.626343 11.014199 -65.988663
37.070042 -2.285953 -58.268261
36.465218 1.515784 -59.598286
35.913494 -1.369007 -60.166157
35.707726 -34.251732 -17.685534
35.463791 -35.684399 -18.156181
22.481474 28.788553 -67.371223
24.589342 28.294838 -65.711327
26.314247 26.347883 -65.898613
28.029886 24.004044 -65.861229
27.59812 -63.993546 -14.462627
28.760384 -62.161102 -16.622694
27.584227 -64.969154 -16.877981
27.585575 -65.736107 -19.255476
27.512278 -66.462296 -21.622158
40.540104 -17.531734 -42.545219
40.596703 -13.961702 -43.747444
40.481293 -16.499594 -44.599625
40.300732 -15.228508 -46.740479
39.937626 -13.975526 -49.025154
39.416729 -12.860793 -51.182663
39.487328 -16.716003 -49.703609
38.892719 -19.802931 -50.077648
37.969826 -22.592335 -50.717686
38.002483 -26.91572 -25.905462
38.461452 -24.186743 -27.163952
38.441395 -25.822847 -27.894987
38.892147 -24.56588 -29.917152
39.301636 -23.519949 -31.90489
39.701309 -22.337303 -34.031418
39.360001 -25.541264 -32.776188
39.354176 -27.71633 -33.492283
39.278648 -30.052481 -34.146748
32.945705 -44.910931 -13.389242
33.661594 -43.051765 -15.408386
33.280804 -45.080322 -15.270889
33.729881 -45.20015 -17.349735
34.201775 -45.326469 -19.358442
33.493698 -53.11409 -24.656767
34.256916 -50.38591 -24.345158
34.627213 -50.378166 -26.628357
35.597969 -47.762669 -28.443401
36.555649 -44.727947 -30.179819
37.436039 -41.553074 -32.043888
36.800751 -44.383057 -32.327553
36.835262 -44.274315 -34.409672
36.815907 -43.716702 -36.627182
39.827961 0.230132 -48.356949
39.727844 1.96823 -46.802261
39.385361 3.733069 -49.147839
38.776932 7.224813 -50.055038
38.043625 10.341326 -51.008358
37.180645 13.248306 -51.606926
37.361481 11.950779 -53.462173
36.502754 13.62056 -55.757469
35.475624 15.001388 -58.216251
34.218517 16.407833 -60.573395
35.384357 13.236418 -59.736996
35.0527 11.380279 -61.183815
34.823158 8.801751 -62.072746
35.626282 -8.191032 -59.07132
35.144917 -3.974267 -60.664051
37.173988 -29.088446 -21.972216
37.564995 -28.056934 -23.910715
37.532295 -29.371637 -24.722137
37.433105 -31.251705 -25.265486
37.395191 -33.107697 -25.958776
17.925014 27.342192 -70.909714
19.677979 25.5063 -71.343193
22.206472 27.277985 -69.023392
21.82028 25.535286 -70.382034
21.445377 23.458736 -71.435089
23.047222 21.228451 -71.287651
30.970978 -53.945793 -13.560876
31.902992 -52.041344 -15.532432
31.299883 -54.445976 -15.732675
31.72328 -54.749752 -18.082777
32.004864 -55.325661 -20.322222
29.892931 -60.219364 -18.530512
31.104031 -58.034031 -20.593882
32.338737 -55.610462 -22.689949
32.556084 -55.923359 -24.979122
32.703835 -56.079403 -27.243996
32.717377 -56.196228 -29.55125
40.236485 -9.514305 -38.339874
40.171494 -6.213918 -39.209961
40.349998 -7.781084 -40.587917
40.385704 -6.229977 -42.73452
40.333748 -4.749454 -44.96048
40.55249 -10.401594 -45.000294
40.408131 -6.702262 -46.120953
40.166454 -3.249129 -47.295124
39.848053 -1.665259 -49.679737
39.4002 -0.152708 -51.910366
38.807869 1.131798 -54.119324
37.981022 2.472739 -56.436207
38.55912 -1.265739 -55.146084
38.103447 -3.880084 -56.115311
37.570992 -6.553785 -56.727051
38.759483 -11.710772 -53.205364
37.861423 -10.712534 -55.261074
36.842754 -9.472034 -57.187603
35.953426 -12.198713 -57.512581
38.852261 -21.295588 -28.264751
39.1623 -18.597694 -29.313904
39.869686 -12.600834 -34.179588
40.065716 -11.054496 -36.186119
40.213413 -12.742361 -37.295944
40.356014 -14.475475 -38.415123
40.456757 -16.630407 -39.456928
40.05241 -21.096682 -36.228603
40.307892 -20.002537 -38.306389
40.480789 -18.697985 -40.466923
40.385612 -21.163685 -41.207535
40.170311 -23.771093 -41.873409
39.791176 -26.537354 -42.595753
34.514442 -37.803661 -12.320129
34.495388 -37.951038 -13.650172
34.087154 -39.26313 -12.117823
33.60141 -41.046379 -11.848516
33.135853 -42.89138 -11.677826
32.605293 -44.3512 -9.710897
32.696949 -44.722195 -11.491427
32.227291 -46.811134 -11.371207
31.746944 -48.918152 -11.237309
31.255428 -51.096436 -11.331319
30.457748 -52.737713 -9.148277
30.719194 -53.261513 -11.41512
30.042284 -55.627754 -11.38423
29.238674 -58.226471 -11.493718
28.374723 -60.745411 -11.652536
34.705364 -37.381546 -11.111433
34.648949 -37.799778 -15.182579
34.890781 -37.580521 -16.762087
35.247875 -37.25861 -18.556471
34.361252 -41.017754 -17.183666
35.026573 -38.991577 -18.824459
35.721539 -36.70295 -20.473467
36.185459 -36.318611 -22.300154
36.74234 -35.716465 -24.346094
37.287708 -35.142746 -26.383141
32.927887 -49.832092 -17.704081
33.811558 -47.757442 -19.560122
34.781052 -45.191364 -21.580708
34.887379 -47.66172 -24.0954
35.304779 -45.272381 -23.802423
35.648449 -42.693424 -23.475861
36.419437 -40.162556 -25.177
37.182198 -37.264591 -26.899345
37.842197 -34.421215 -28.495615
38.319302 -33.873909 -30.529297
38.765228 -33.238762 -32.703129
39.103188 -32.550079 -34.739811
38.166042 -38.452343 -33.748096
38.764126 -35.395012 -35.188435
39.323315 -31.934965 -36.733391
39.466656 -30.962809 -38.920517
39.411461 -30.325216 -41.036995
39.275185 -29.318251 -43.065926
27.329134 -67.171562 -24.081055
28.639805 -64.779701 -26.185272
29.96419 -62.160965 -27.965006
31.237741 -59.410698 -29.917873
32.465481 -56.49876 -31.785063
33.646889 -53.437988 -33.377525
37.285656 -39.937473 -40.295113
37.939438 -36.257698 -41.918343
38.519993 -32.302982 -43.541977
38.928562 -28.601706 -45.063248
38.473301 -27.510746 -47.085163
37.737972 -26.781799 -49.036591
39.556938 3.39852 -45.274948
29.937199 25.286951 -59.772915
29.993853 24.360083 -61.82251
29.803097 23.275856 -63.741028
29.585808 21.555431 -65.528748
32.737717 17.741945 -62.833057
31.150503 18.72913 -64.895729
29.29332 19.730604 -66.832802
28.962889 17.553076 -67.833138
28.411558 15.165916 -68.65892
36.921764 4.051274 -58.723217
35.685165 5.350591 -60.920387
34.295856 6.513942 -62.953407
34.534531 -0.110267 -62.090397
33.721233 3.792339 -63.505493
32.804859 7.304097 -64.745438
28.31568 26.809137 -60.891594
27.479852 27.398259 -61.837389
40.032989 -6.562701 -37.438936
39.981318 -7.387405 -36.365425
19.774787 30.522478 -67.19429
18.796111 31.216123 -66.83569
20.653756 29.757418 -67.571396
19.565729 29.847634 -68.173141
19.774787 30.522478 -67.19429
36.545688 -21.344765 -53.351178
36.605574 -19.167271 -54.166678
37.125383 -19.773447 -53.253725
38.287024 -24.095731 -25.754513
38.113468 -24.844566 -24.748225
38.459591 9.076367 -47.50257
38.231852 9.94189 -48.764403
24.715301 28.764634 -64.671486
23.744142 29.125948 -65.466106
27.006504 -65.832561 -15.783692
27.591174 -64.48135 -15.670304
27.013451 -65.344758 -14.576016
26.873444 -67.222756 -19.453244
26.973551 -66.705216 -18.239437
26.836796 -67.58585 -20.636585
27.548927 -66.099201 -20.438817
26.873444 -67.222756 -19.453244
34.96638 -7.651123 -59.911934
35.147198 -9.773812 -59.094014
36.545543 -31.185402 -19.50808
36.390953 -31.684477 -18.599485
25.803956 18.356214 -70.149818
24.961518 19.729942 -70.464389
26.097595 19.454176 -69.759632
26.631007 16.922868 -69.774891
25.803956 18.356214 -70.149818
39.429296 -16.439758 -30.726886
39.285917 -17.142752 -29.762617
39.305679 -17.8947 -30.278174
39.544353 -15.751853 -31.698942
39.429296 -16.439758 -30.726886
32.34384 -45.349819 -9.579281
32.324341 -45.132467 -8.655262
32.389668 -45.535317 -10.469546
32.651121 -44.536698 -10.601162
32.34384 -45.349819 -9.579281
32.154838 -46.579786 -10.409436
32.46212 -45.766665 -11.431317
32.389668 -45.535317 -10.469546
31.409565 -49.685522 -10.267174
31.66692 -48.637989 -10.28954
31.329541 -49.405359 -9.319405
31.163807 -50.774664 -10.31418
31.501186 -50.007294 -11.284314
31.409565 -49.685522 -10.267174
30.14109 -53.852257 -9.134225
30.051665 -53.589744 -8.052796
29.735007 -54.704288 -8.038744
34.423033 -38.238655 -10.847805
34.556799 -37.965357 -10.17561
34.274468 -38.822466 -9.911981
26.503804 -68.703907 -24.321949
26.619096 -68.399902 -23.096835
28.510529 -64.970371 -27.325998
27.799974 -66.346348 -26.344958
29.172722 -63.661003 -28.215865
29.301997 -63.470333 -27.075139
28.510529 -64.970371 -27.325998
31.075943 -59.507874 -31.009893
30.453661 -60.949491 -30.020246
31.689813 -58.051904 -31.943488
31.851611 -57.954729 -30.851468
31.075943 -59.507874 -31.009893
33.42572 -53.490676 -34.468345
32.914307 -54.944187 -33.639833
34.169646 -51.828245 -34.353427
33.42572 -53.490676 -34.468345
37.060663 -39.572187 -41.370738
36.707434 -41.436723 -40.492657
37.387554 -37.7323 -42.182353
37.612547 -38.097585 -41.106728
37.060663 -39.572187 -41.370738
38.275917 -31.888825 -44.566263
38.024546 -33.837774 -43.734533
37.78047 -33.423617 -44.75882
37.125631 -28.322242 -49.188591
37.550199 -28.781473 -48.240929
37.330263 -26.315576 -49.929142
37.125631 -28.322242 -49.188591
40.129831 -3.763386 -40.779154
40.103875 -4.637604 -39.642882
40.197451 -5.3397 -40.346233
39.908749 -0.765575 -41.387411
39.869726 0.169837 -42.593617
36.293829 15.412166 -52.978517
36.688675 14.560711 -51.795683
36.785799 14.09976 -52.78976
35.141775 17.996393 -53.555646
34.681292 18.786049 -54.754337
31.38436 23.576229 -58.592048
32.03667 22.890713 -57.42689
32.184619 22.400177 -58.434122
30.734754 24.186322 -59.686098
30.586806 24.676858 -58.678866
31.38436 23.576229 -58.592048
28.851337 12.181283 -68.38892
28.172752 13.757979 -68.869846
29.090143 13.58922 -68.177993
34.116757 -1.613902 -62.22641
34.839724 -2.042267 -61.377224
34.421949 -3.545902 -61.513237
32.894543 4.240747 -64.382042
33.354 2.324299 -63.674334
32.436356 5.996626 -65.002015
33.263046 5.548218 -64.125465
32.894543 4.240747 -64.382042
31.932505 7.863788 -65.621883
32.436356 5.996626 -65.002015
35.311071 -35.236889 -15.232401
35.563953 -34.41382 -15.737132
35.456247 -34.714529 -14.934628
26.601788 27.929199 -62.759268
25.726928 28.355552 -63.727407
27.490658 26.945733 -62.901291
26.601788 27.929199 -62.759268
27.479852 27.398259 -61.837389
17.780391 31.232674 -67.360439
18.796111 31.216123 -66.83569
17.579881 30.566615 -68.246357
17.780391 31.232674 -67.360439
18.459401 29.898469 -68.64127
17.352522 29.85239 -69.091591
17.579881 30.566615 -68.246357
36.658178 -16.994692 -54.965953
36.585878 -14.89897 -55.807216
37.112968 -15.500231 -54.910488
36.658178 -16.994692 -54.965953
36.605574 -19.167271 -54.166678
33.715446 -40.525311 -9.509056
33.878466 -39.940035 -10.440337
33.977682 -39.681039 -9.652896
33.413534 -41.437658 -9.285495
33.715446 -40.525311 -9.509056
33.15562 -42.325676 -9.140487
33.358317 -41.672324 -10.15149
33.413534 -41.437658 -9.285495
31.532691 -48.135976 -8.34303
31.834642 -47.353132 -9.394718
31.273801 -49.091206 -8.280004
31.532691 -48.135976 -8.34303
31.329541 -49.405359 -9.319405
31.273801 -49.091206 -8.280004
29.3716 -55.819256 -7.901152
29.735007 -54.704288 -8.038744
28.993963 -57.030978 -7.882586
29.446795 -56.178522 -9.101609
29.3716 -55.819256 -7.901152
28.630002 -58.178877 -8.005457
28.993963 -57.030978 -7.882586
28.22684 -59.424986 -8.120401
28.665995 -58.636353 -9.197988
28.630002 -58.178877 -8.005457
33.977682 -39.681039 -9.652896
34.274468 -38.822466 -9.911981
37.470157 -33.051693 -45.713476
37.78047 -33.423617 -44.75882
37.697134 -31.127908 -46.517908
37.470157 -33.051693 -45.713476
39.823908 0.991058 -43.736142
39.869726 0.169837 -42.593617
39.975624 -0.531596 -43.391533
38.8008 7.617653 -47.200051
39.122049 6.004318 -46.764084
38.920507 6.941838 -47.963002
38.8008 7.617653 -47.200051
38.459591 9.076367 -47.50257
34.137319 19.603003 -55.954966
34.681292 18.786049 -54.754337
34.754742 18.369532 -55.826135
33.523849 20.450574 -57.147863
33.450399 20.86709 -56.076065
34.137319 19.603003 -55.954966
36.116596 -32.66926 -18.020451
36.390953 -31.684477 -18.599485
35.698515 -33.983725 -16.587908
35.563953 -34.41382 -15.737132
35.842989 -33.6415 -17.413221
35.698515 -33.983725 -16.587908
35.563251 -34.593956 -16.86022
35.981333 -33.279491 -18.292763
36.116596 -32.66926 -18.020451
35.842989 -33.6415 -17.413221
22.690208 29.372805 -66.296054
21.672144 29.610408 -66.981884
23.535408 28.541695 -66.541275
22.690208 29.372805 -66.296054
23.744142 29.125948 -65.466106
25.600969 27.885756 -64.767248
24.715301 28.764634 -64.671486
25.726928 28.355552 -63.727407
26.972877 -66.321739 -17.050689
27.006504 -65.832561 -15.783692
27.584901 -65.352631 -18.066728
26.972877 -66.321739 -17.050689
26.973551 -66.705216 -18.239437
37.954035 10.834967 -50.069097
38.231852 9.94189 -48.764403
38.321441 9.44825 -49.703663
37.612135 11.794816 -51.307642
37.522545 12.288456 -50.368381
37.954035 10.834967 -50.069097
34.725697 -5.542741 -60.708299
35.385599 -6.08265 -59.867686
34.96638 -7.651123 -59.911934
34.421949 -3.545902 -61.513237
34.725697 -5.542741 -60.708299
37.885344 -26.068989 -24.237406
38.113468 -24.844566 -24.748225
36.728845 -30.7363 -20.429668
36.545543 -31.185402 -19.50808
36.438242 -31.858148 -19.821579
37.005067 -29.576 -21.044193
36.728845 -30.7363 -20.429668
36.897766 -30.248746 -21.357691
37.27453 -28.435209 -21.607007
37.005067 -29.576 -21.044193
37.436457 -27.877733 -22.599525
37.27453 -28.435209 -21.607007
37.63196 -27.361976 -23.568775
37.436457 -27.877733 -22.599525
37.369492 -28.57269 -22.941465
37.818379 -26.763946 -24.579346
37.885344 -26.068989 -24.237406
37.63196 -27.361976 -23.568775
17.167912 28.990985 -69.878483
17.352522 29.85239 -69.091591
17.014398 28.069959 -70.590088
17.167912 28.990985 -69.878483
18.078528 28.263218 -70.198109
16.828938 27.107537 -71.201439
17.014398 28.069959 -70.590088
17.663305 26.275762 -71.48098
16.828938 27.107537 -71.201439
18.539788 25.357816 -71.69772
17.663305 26.275762 -71.48098
18.801496 26.424246 -71.126453
19.448455 24.408203 -71.806206
18.539788 25.357816 -71.69772
21.463086 28.935564 -67.960735
20.653756 29.757418 -67.571396
21.672144 29.610408 -66.981884
20.332154 23.384421 -71.852154
19.448455 24.408203 -71.806206
20.561678 24.482518 -71.389141
21.188675 22.224403 -71.835411
20.332154 23.384421 -71.852154
21.989598 21.10926 -71.761692
21.188675 22.224403 -71.835411
22.246299 22.343593 -71.36137
22.794846 20.002095 -71.58773
21.989598 21.10926 -71.761692
23.857551 19.930215 -71.071113
24.15119 21.028177 -70.680927
24.961518 19.729942 -70.464389
22.794846 20.002095 -71.58773
23.857551 19.930215 -71.071113
35.31077 -11.777652 -58.314644
35.147198 -9.773812 -59.094014
35.789854 -10.194872 -58.29195
36.042257 -14.296072 -56.687631
36.497047 -12.801611 -56.632166
36.585878 -14.89897 -55.807216
35.397253 -13.790679 -57.53439
36.042257 -14.296072 -56.687631
35.31077 -11.777652 -58.314644
35.397253 -13.790679 -57.53439
39.998342 -8.843206 -36.050053
39.981318 -7.387405 -36.365425
38.481869 -23.453623 -26.7125
38.287024 -24.095731 -25.754513
38.266607 -24.828851 -26.205964
38.677273 -22.008046 -27.2629
38.481869 -23.453623 -26.7125
38.656857 -22.741166 -27.714351
38.857565 -20.670269 -27.750784
38.677273 -22.008046 -27.2629
39.012585 -19.321322 -28.27536
38.857565 -20.670269 -27.750784
39.007281 -19.946641 -28.789327
39.160513 -17.96957 -28.749558
39.012585 -19.321322 -28.27536
39.160513 -17.96957 -28.749558
39.285917 -17.142752 -29.762617
39.688698 -15.040488 -32.72435
39.544353 -15.751853 -31.698942
39.593403 -16.480341 -32.267851
39.754667 -13.456416 -33.167515
39.688698 -15.040488 -32.72435
39.803717 -14.184905 -33.736424
39.801593 -12.032681 -33.473039
39.754667 -13.456416 -33.167515
39.896563 -11.117543 -34.594297
39.801593 -12.032681 -33.473039
39.994578 -10.344374 -35.597563
39.896563 -11.117543 -34.594297
39.967701 -11.827665 -35.182854
40.069481 -9.553328 -36.638609
39.998342 -8.843206 -36.050053
39.994578 -10.344374 -35.597563
32.865499 -43.253565 -8.984019
33.15562 -42.325676 -9.140487
32.617945 -44.148995 -8.836226
32.324341 -45.132467 -8.655262
32.852848 -43.45577 -9.85869
32.865499 -43.253565 -8.984019
32.617945 -44.148995 -8.836226
31.907094 -47.58448 -10.356489
32.154838 -46.579786 -10.409436
31.834642 -47.353132 -9.394718
30.389514 -52.428041 -8.099507
30.051665 -53.589744 -8.052796
30.764967 -51.595303 -9.222659
30.389514 -52.428041 -8.099507
30.856588 -51.917074 -10.239798
31.163807 -50.774664 -10.31418
30.764967 -51.595303 -9.222659
27.794566 -60.627684 -8.120188
28.22684 -59.424986 -8.120401
27.789861 -61.135531 -9.280765
27.794566 -60.627684 -8.120188
27.845806 -61.567005 -10.450567
28.318778 -60.313936 -10.482734
27.789861 -61.135531 -9.280765
27.905658 -61.99684 -11.753961
27.845806 -61.567005 -10.450567
27.98481 -62.376328 -12.925761
28.453876 -61.124899 -12.824336
27.905658 -61.99684 -11.753961
27.517356 -63.620907 -13.159007
28.065574 -62.748967 -14.229381
27.98481 -62.376328 -12.925761
26.995942 -64.898877 -13.284568
27.517356 -63.620907 -13.159007
27.013451 -65.344758 -14.576016
26.995942 -64.898877 -13.284568
34.844864 -37.15847 -10.435329
34.556799 -37.965357 -10.17561
34.981566 -36.56924 -11.405854
34.844864 -37.15847 -10.435329
34.838005 -36.86851 -11.986199
34.981566 -36.56924 -11.405854
34.742544 -37.079567 -12.590546
34.838005 -36.86851 -11.986199
34.609903 -37.592603 -11.715781
34.654743 -37.330642 -12.984794
34.882845 -36.606549 -13.255211
34.742544 -37.079567 -12.590546
35.34223 -35.155197 -13.997363
35.456247 -34.714529 -14.934628
35.087006 -35.946536 -13.64543
35.34223 -35.155197 -13.997363
34.882845 -36.606549 -13.255211
34.999204 -36.197611 -14.039678
35.087006 -35.946536 -13.64543
26.710668 -68.045269 -21.867387
26.836796 -67.58585 -20.636585
27.420706 -66.816929 -22.851606
26.710668 -68.045269 -21.867387
26.619096 -68.399902 -23.096835
27.144638 -67.542278 -25.292849
26.503804 -68.703907 -24.321949
27.984469 -65.975631 -25.133164
27.144638 -67.542278 -25.292849
27.799974 -66.346348 -26.344958
29.816886 -62.324625 -29.043813
29.172722 -63.661003 -28.215865
30.600966 -60.785832 -28.94144
29.816886 -62.324625 -29.043813
30.453661 -60.949491 -30.020246
32.323603 -56.474573 -32.843603
31.689813 -58.051904 -31.943488
33.056185 -54.968374 -32.581294
32.323603 -56.474573 -32.843603
32.914307 -54.944187 -33.639833
34.779841 -50.343694 -34.215479
34.257084 -51.953437 -33.239576
34.169646 -51.828245 -34.353427
35.310381 -48.637102 -35.117598
35.397819 -48.762294 -34.003746
34.779841 -50.343694 -34.215479
35.783039 -47.011763 -35.958862
35.310381 -48.637102 -35.117598
36.226813 -45.342263 -36.819521
36.372134 -45.386202 -35.766523
35.783039 -47.011763 -35.958862
36.691168 -43.572648 -37.596905
36.226813 -45.342263 -36.819521
37.086424 -41.836331 -38.431601
37.211163 -41.980385 -37.461878
36.691168 -43.572648 -37.596905
36.926043 -41.683033 -39.43087
36.707434 -41.436723 -40.492657
37.446038 -40.09077 -39.295844
37.086424 -41.836331 -38.431601
36.926043 -41.683033 -39.43087
37.734268 -35.815132 -42.922716
37.387554 -37.7323 -42.182353
38.229715 -34.28034 -42.73016
37.734268 -35.815132 -42.922716
38.024546 -33.837774 -43.734533
37.917864 -29.145947 -47.265215
38.252571 -29.492708 -46.337856
37.697134 -31.127908 -46.517908
38.105637 -27.146273 -48.060877
37.917864 -29.145947 -47.265215
37.550199 -28.781473 -48.240929
37.44619 -24.220844 -50.769689
37.853899 -24.687067 -49.877139
37.330263 -26.315576 -49.929142
36.994026 -23.900148 -51.629959
37.517662 -22.271638 -51.577956
37.44619 -24.220844 -50.769689
36.449079 -23.427295 -52.543579
36.994026 -23.900148 -51.629959
36.545688 -21.344765 -53.351178
36.449079 -23.427295 -52.543579
40.082114 -5.643579 -38.498368
40.032989 -6.562701 -37.438936
40.12237 -7.133039 -38.15053
40.082114 -5.643579 -38.498368
40.103875 -4.637604 -39.642882
40.028848 -2.207053 -41.162405
40.129831 -3.763386 -40.779154
40.122425 -2.909149 -41.865757
40.028848 -2.207053 -41.162405
39.908749 -0.765575 -41.387411
39.637474 2.545505 -44.106587
39.823908 0.991058 -43.736142
39.743372 1.844073 -44.904503
39.27964 5.039326 -45.638041
39.399347 4.363512 -46.400992
39.122049 6.004318 -46.764084
39.41536 4.070524 -44.400475
39.27964 5.039326 -45.638041
39.637474 2.545505 -44.106587
39.41536 4.070524 -44.400475
37.044089 13.685358 -50.573403
37.522545 12.288456 -50.368381
37.044089 13.685358 -50.573403
36.688675 14.560711 -51.795683
35.747709 16.712847 -53.304974
36.293829 15.412166 -52.978517
35.844834 16.251897 -54.299051
35.747709 16.712847 -53.304974
35.141775 17.996393 -53.555646
32.711366 22.056203 -56.205019
33.450399 20.86709 -56.076065
32.711366 22.056203 -56.205019
32.03667 22.890713 -57.42689
29.828401 25.612372 -58.662348
30.586806 24.676858 -58.678866
29.099919 26.245216 -59.788345
29.828401 25.612372 -58.662348
29.15296 25.850872 -60.876164
28.31568 26.809137 -60.891594
29.099919 26.245216 -59.788345
27.36677 15.465602 -69.381821
26.631007 16.922868 -69.774891
27.675795 16.623182 -69.05199
27.36677 15.465602 -69.381821
28.172752 13.757979 -68.869846
33.760649 0.372997 -62.966786
34.116757 -1.613902 -62.22641
34.127882 1.841036 -62.797945
33.760649 0.372997 -62.966786
33.354 2.324299 -63.674334
31.343247 9.718839 -66.243496
32.215601 9.159148 -65.367051
31.932505 7.863788 -65.621883
30.41444 10.218001 -67.097698
30.697536 11.513362 -66.842865
31.343247 9.718839 -66.243496
29.43694 10.566776 -67.89336
30.41444 10.218001 -67.097698
28.851337 12.181283 -68.38892
29.43694 10.566776 -67.89336
3 0 101 99
3 403 103 404
3 1 106 104
3 1 108 106
3 3 111 109
3 3 113 111
3 4 116 114
3 5 119 117
3 5 121 119
3 2 405 406
3 6 124 122
3 6 126 124
3 6 128 126
3 8 131 129
3 8 133 131
3 407 134 408
3 409 136 410
3 411 410 134
3 409 410 411
3 9 139 137
3 9 141 139
3 10 144 142
3 12 147 145
3 12 149 147
3 13 152 150
3 15 155 153
3 15 157 155
3 15 159 157
3 17 162 160
3 17 412 414
3 414 413 162
3 412 413 414
3 7 415 416
3 18 165 163
3 18 167 165
3 18 169 167
3 19 172 170
3 19 174 172
3 20 180 178
3 21 183 181
3 21 185 183
3 11 188 186
3 22 191 189
3 22 193 191
3 22 195 193
3 23 198 196
3 23 200 198
3 14 203 201
3 418 417 204
3 24 207 205
3 24 209 207
3 24 211 209
3 25 214 212
3 25 216 214
3 16 219 217
3 27 220 100
3 27 221 220
3 419 223 420
3 29 224 102
3 29 225 224
3 421 228 422
3 423 422 226
3 421 422 423
3 424 229 425
3 426 230 427
3 428 427 229
3 426 427 428
3 31 233 231
3 33 234 105
3 33 235 234
3 33 237 235
3 35 238 107
3 35 239 238
3 36 242 240
3 38 243 110
3 38 244 243
3 38 246 244
3 40 247 112
3 40 248 247
3 41 251 249
3 43 252 115
3 43 253 252
3 44 256 254
3 46 257 118
3 46 258 257
3 46 260 258
3 48 261 120
3 48 262 261
3 49 265 263
3 51 266 123
3 51 267 266
3 51 269 267
3 53 270 125
3 53 271 270
3 53 273 271
3 55 274 127
3 55 275 274
3 430 429 276
3 26 431 432
3 56 278 130
3 56 279 278
3 56 280 279
3 57 281 132
3 57 282 281
3 58 283 135
3 58 284 283
3 28 285 222
3 59 286 138
3 59 287 286
3 59 288 287
3 60 433 435
3 435 434 140
3 433 434 435
3 60 436 437
3 61 291 289
3 63 292 143
3 63 293 292
3 30 294 227
3 64 295 146
3 64 296 295
3 64 297 296
3 65 298 148
3 65 299 298
3 66 302 300
3 68 303 151
3 68 304 303
3 32 305 232
3 69 306 154
3 69 307 306
3 69 308 307
3 70 309 156
3 70 310 309
3 70 312 310
3 72 313 158
3 72 314 313
3 34 315 236
3 73 316 161
3 73 317 316
3 73 318 317
3 37 319 241
3 74 320 164
3 74 438 440
3 440 439 320
3 438 439 440
3 74 441 442
3 75 321 166
3 75 322 321
3 75 323 322
3 76 324 168
3 76 325 324
3 39 326 245
3 77 327 171
3 77 328 327
3 77 329 328
3 78 330 173
3 78 331 330
3 79 334 332
3 81 335 175
3 81 336 335
3 443 337 444
3 445 338 446
3 447 446 337
3 445 446 447
3 448 339 449
3 450 449 338
3 448 449 450
3 451 340 452
3 453 452 176
3 451 452 453
3 454 341 455
3 456 455 340
3 454 455 456
3 82 457 459
3 457 342 458
3 457 458 459
3 82 343 342
3 82 344 343
3 83 345 177
3 83 346 345
3 79 460 462
3 460 347 461
3 460 461 462
3 79 332 347
3 80 348 333
3 84 349 179
3 84 350 349
3 42 351 250
3 85 352 182
3 85 353 352
3 85 354 353
3 86 355 184
3 86 356 355
3 62 357 290
3 87 358 187
3 87 359 358
3 45 360 255
3 88 361 190
3 88 362 361
3 88 363 362
3 89 364 192
3 89 365 364
3 89 366 365
3 90 367 194
3 90 368 367
3 47 369 259
3 91 370 197
3 91 371 370
3 91 372 371
3 92 373 199
3 92 374 373
3 463 375 464
3 465 376 466
3 467 377 468
3 469 468 376
3 467 468 469
3 470 378 471
3 472 379 473
3 474 473 378
3 472 473 474
3 475 380 476
3 478 477 380
3 479 381 480
3 481 382 482
3 483 482 381
3 481 482 483
3 93 484 486
3 484 383 485
3 484 485 486
3 93 384 383
3 93 385 384
3 487 386 488
3 490 489 386
3 67 491 493
3 493 492 301
3 491 492 493
3 495 494 202
3 50 387 264
3 52 496 498
3 498 497 268
3 496 497 498
3 500 499 206
3 94 501 503
3 503 502 208
3 501 502 503
3 94 504 506
3 504 388 505
3 504 505 506
3 94 389 388
3 95 390 210
3 95 391 390
3 54 392 272
3 96 393 213
3 96 394 393
3 96 395 394
3 97 396 215
3 97 507 509
3 509 508 396
3 507 508 509
3 71 397 311
3 98 398 218
3 98 399 398
3 510 400 511
3 512 511 277
3 510 511 512
3 513 401 514
3 515 402 516
3 517 516 401
3 515 516 517
3 519 518 402
3 99 520 522
3 520 100 521
3 520 521 522
3 101 100 99
3 101 27 100
3 523 102 524
3 103 525 527
3 525 102 526
3 525 526 527
3 103 29 102
3 104 105 31
3 106 105 104
3 106 33 105
3 106 107 33
3 108 107 106
3 108 35 107
3 109 110 36
3 111 110 109
3 111 38 110
3 111 112 38
3 113 112 111
3 113 40 112
3 114 115 41
3 116 115 114
3 116 43 115
3 117 118 44
3 119 118 117
3 119 46 118
3 119 120 46
3 121 120 119
3 121 48 120
3 122 123 49
3 124 123 122
3 124 51 123
3 124 125 51
3 126 125 124
3 126 53 125
3 126 127 53
3 128 127 126
3 128 55 127
3 129 130 26
3 131 130 129
3 131 56 130
3 131 132 56
3 133 132 131
3 133 57 132
3 134 528 529
3 134 530 531
3 134 532 534
3 532 135 533
3 532 533 534
3 136 135 134
3 136 58 135
3 137 138 28
3 139 138 137
3 139 59 138
3 139 140 59
3 141 140 139
3 141 60 140
3 142 143 61
3 144 143 142
3 144 63 143
3 145 146 30
3 147 146 145
3 147 64 146
3 147 148 64
3 149 148 147
3 149 65 148
3 150 151 66
3 152 151 150
3 152 68 151
3 153 154 32
3 155 154 153
3 155 69 154
3 155 156 69
3 157 156 155
3 157 70 156
3 157 158 70
3 159 158 157
3 159 72 158
3 160 161 34
3 162 161 160
3 162 73 161
3 162 535 537
3 537 536 73
3 535 536 537
3 539 538 162
3 163 164 37
3 165 164 163
3 165 74 164
3 165 166 74
3 167 166 165
3 167 75 166
3 167 168 75
3 169 168 167
3 169 76 168
3 170 171 39
3 172 171 170
3 172 77 171
3 172 173 77
3 174 173 172
3 174 78 173
3 540 175 541
3 542 541 79
3 540 541 542
3 543 175 544
3 545 81 546
3 547 546 175
3 545 546 547
3 548 176 549
3 550 176 551
3 553 552 176
3 554 82 555
3 556 177 557
3 558 557 82
3 556 557 558
3 559 177 560
3 561 83 562
3 563 562 177
3 561 562 563
3 564 79 565
3 178 179 80
3 180 179 178
3 180 84 179
3 181 182 42
3 183 182 181
3 183 85 182
3 183 184 85
3 185 184 183
3 185 86 184
3 186 187 62
3 188 187 186
3 188 87 187
3 189 190 45
3 191 190 189
3 191 88 190
3 191 192 88
3 193 192 191
3 193 89 192
3 193 194 89
3 195 194 193
3 195 90 194
3 196 197 47
3 198 197 196
3 198 91 197
3 198 199 91
3 200 199 198
3 200 92 199
3 566 93 567
3 569 568 93
3 201 202 67
3 203 202 201
3 203 570 572
3 572 571 202
3 570 571 572
3 204 573 575
3 575 574 50
3 573 574 575
3 577 576 204
3 205 206 52
3 207 206 205
3 207 578 580
3 580 579 206
3 578 579 580
3 207 581 583
3 581 208 582
3 581 582 583
3 209 208 207
3 209 94 208
3 209 210 94
3 211 210 209
3 211 95 210
3 212 213 54
3 214 213 212
3 214 96 213
3 214 215 96
3 216 215 214
3 216 97 215
3 217 218 71
3 219 218 217
3 219 98 218
3 584 26 585
3 100 586 587
3 220 588 590
3 590 589 100
3 588 589 590
3 220 591 593
3 591 26 592
3 591 592 593
3 220 129 26
3 221 129 220
3 221 8 129
3 594 222 595
3 223 596 598
3 596 222 597
3 596 597 598
3 223 28 222
3 102 599 601
3 599 223 600
3 599 600 601
3 224 223 102
3 224 28 223
3 224 137 28
3 225 137 224
3 225 9 137
3 226 227 10
3 228 227 226
3 228 30 227
3 602 228 603
3 229 604 606
3 604 228 605
3 604 605 606
3 229 30 228
3 229 145 30
3 230 145 229
3 230 12 145
3 231 232 13
3 233 232 231
3 233 32 232
3 105 233 31
3 234 233 105
3 234 32 233
3 234 153 32
3 235 153 234
3 235 15 153
3 235 236 15
3 237 236 235
3 237 34 236
3 107 237 33
3 238 237 107
3 238 34 237
3 238 160 34
3 239 160 238
3 239 17 160
3 240 241 7
3 242 241 240
3 242 37 241
3 110 242 36
3 243 242 110
3 243 37 242
3 243 163 37
3 244 163 243
3 244 18 163
3 244 245 18
3 246 245 244
3 246 39 245
3 112 246 38
3 247 246 112
3 247 39 246
3 247 170 39
3 248 170 247
3 248 19 170
3 249 250 20
3 251 250 249
3 251 42 250
3 115 251 41
3 252 251 115
3 252 42 251
3 252 181 42
3 253 181 252
3 253 21 181
3 254 255 11
3 256 255 254
3 256 45 255
3 118 256 44
3 257 256 118
3 257 45 256
3 257 189 45
3 258 189 257
3 258 22 189
3 258 259 22
3 260 259 258
3 260 47 259
3 120 260 46
3 261 260 120
3 261 47 260
3 261 196 47
3 262 196 261
3 262 23 196
3 263 264 14
3 265 264 263
3 265 50 264
3 123 265 49
3 266 265 123
3 266 50 265
3 266 204 50
3 267 204 266
3 267 607 609
3 609 608 204
3 607 608 609
3 267 610 612
3 610 268 611
3 610 611 612
3 269 268 267
3 269 52 268
3 125 269 51
3 270 269 125
3 270 52 269
3 270 205 52
3 271 205 270
3 271 24 205
3 271 272 24
3 273 272 271
3 273 54 272
3 127 273 53
3 274 273 127
3 274 54 273
3 274 212 54
3 275 212 274
3 275 25 212
3 276 277 16
3 613 277 614
3 615 614 276
3 613 614 615
3 617 616 277
3 618 7 619
3 130 620 622
3 622 621 26
3 620 621 622
3 278 623 625
3 625 624 130
3 623 624 625
3 278 626 627
3 278 628 629
3 279 630 632
3 632 631 278
3 630 631 632
3 279 633 635
3 633 7 634
3 633 634 635
3 279 240 7
3 280 240 279
3 280 36 240
3 132 280 56
3 281 280 132
3 281 36 280
3 281 109 36
3 282 109 281
3 282 3 109
3 135 636 637
3 283 638 640
3 640 639 135
3 638 639 640
3 283 641 642
3 283 643 644
3 284 645 647
3 647 646 283
3 645 646 647
3 284 648 649
3 222 650 652
3 650 136 651
3 650 651 652
3 285 136 222
3 285 58 136
3 138 285 28
3 286 285 138
3 286 58 285
3 286 284 58
3 287 284 286
3 287 653 655
3 655 654 284
3 653 654 655
3 287 656 657
3 288 658 660
3 660 659 287
3 658 659 660
3 288 661 662
3 140 288 59
3 663 288 664
3 665 664 140
3 663 664 665
3 667 666 288
3 289 290 4
3 291 290 289
3 291 62 290
3 143 291 61
3 292 291 143
3 292 62 291
3 292 186 62
3 293 186 292
3 293 11 186
3 227 144 10
3 294 144 227
3 294 63 144
3 146 294 30
3 295 294 146
3 295 63 294
3 295 293 63
3 296 293 295
3 296 11 293
3 296 254 11
3 297 254 296
3 297 44 254
3 148 297 64
3 298 297 148
3 298 44 297
3 298 117 44
3 299 117 298
3 299 5 117
3 300 301 2
3 302 301 300
3 302 67 301
3 151 302 66
3 303 302 151
3 303 67 302
3 303 201 67
3 304 201 303
3 304 14 201
3 232 152 13
3 305 152 232
3 305 68 152
3 154 305 32
3 306 305 154
3 306 68 305
3 306 304 68
3 307 304 306
3 307 14 304
3 307 263 14
3 308 263 307
3 308 49 263
3 156 308 69
3 309 308 156
3 309 49 308
3 309 122 49
3 310 122 309
3 310 6 122
3 310 311 6
3 312 311 310
3 312 71 311
3 158 312 70
3 313 312 158
3 313 71 312
3 313 217 71
3 314 217 313
3 314 16 217
3 236 159 15
3 315 159 236
3 315 72 159
3 161 315 34
3 316 315 161
3 316 72 315
3 316 314 72
3 317 314 316
3 317 16 314
3 317 276 16
3 318 276 317
3 318 668 670
3 670 669 276
3 668 669 670
3 671 318 672
3 673 672 73
3 671 672 673
3 674 318 675
3 677 676 318
3 678 2 679
3 241 680 682
3 682 681 7
3 680 681 682
3 319 683 685
3 685 684 241
3 683 684 685
3 319 686 687
3 164 319 37
3 320 319 164
3 320 688 690
3 690 689 319
3 688 689 690
3 320 691 692
3 694 693 320
3 166 695 697
3 697 696 74
3 695 696 697
3 321 698 700
3 700 699 166
3 698 699 700
3 321 701 702
3 321 703 704
3 322 705 707
3 707 706 321
3 705 706 707
3 322 708 710
3 708 2 709
3 708 709 710
3 322 300 2
3 323 300 322
3 323 66 300
3 168 323 75
3 324 323 168
3 324 66 323
3 324 150 66
3 325 150 324
3 325 13 150
3 245 169 18
3 326 169 245
3 326 76 169
3 171 326 39
3 327 326 171
3 327 76 326
3 327 325 76
3 328 325 327
3 328 13 325
3 328 231 13
3 329 231 328
3 329 31 231
3 173 329 77
3 330 329 173
3 330 31 329
3 330 104 31
3 331 104 330
3 331 1 104
3 332 333 0
3 334 333 332
3 334 80 333
3 175 334 79
3 335 334 175
3 335 80 334
3 335 178 80
3 336 178 335
3 336 20 178
3 711 81 712
3 337 713 714
3 337 715 717
3 715 81 716
3 715 716 717
3 337 336 81
3 338 336 337
3 338 20 336
3 338 249 20
3 339 249 338
3 339 41 249
3 176 718 720
3 718 339 719
3 718 719 720
3 340 339 176
3 340 41 339
3 340 114 41
3 341 114 340
3 341 4 114
3 342 721 722
3 342 723 724
3 342 725 727
3 725 341 726
3 725 726 727
3 343 341 342
3 343 4 341
3 343 289 4
3 344 289 343
3 344 61 289
3 177 344 82
3 345 344 177
3 345 61 344
3 345 142 61
3 346 142 345
3 346 10 142
3 728 83 729
3 730 83 731
3 732 346 733
3 734 733 83
3 732 733 734
3 735 346 736
3 737 10 738
3 739 738 346
3 737 738 739
3 740 226 741
3 742 741 10
3 740 741 742
3 743 226 744
3 746 745 226
3 347 747 748
3 347 749 750
3 347 751 752
3 332 753 755
3 755 754 347
3 753 754 755
3 332 756 758
3 756 0 757
3 756 757 758
3 759 99 760
3 761 99 762
3 763 0 764
3 765 764 99
3 763 764 765
3 333 101 0
3 348 101 333
3 348 27 101
3 179 348 80
3 349 348 179
3 349 27 348
3 349 221 27
3 350 221 349
3 350 8 221
3 250 180 20
3 351 180 250
3 351 84 180
3 182 351 42
3 352 351 182
3 352 84 351
3 352 350 84
3 353 350 352
3 353 8 350
3 353 133 8
3 354 133 353
3 354 57 133
3 184 354 85
3 355 354 184
3 355 57 354
3 355 282 57
3 356 282 355
3 356 3 282
3 290 116 4
3 357 116 290
3 357 43 116
3 187 357 62
3 358 357 187
3 358 43 357
3 358 253 43
3 359 253 358
3 359 21 253
3 255 188 11
3 360 188 255
3 360 87 188
3 190 360 45
3 361 360 190
3 361 87 360
3 361 359 87
3 362 359 361
3 362 21 359
3 362 185 21
3 363 185 362
3 363 86 185
3 192 363 88
3 364 363 192
3 364 86 363
3 364 356 86
3 365 356 364
3 365 3 356
3 365 113 3
3 366 113 365
3 366 40 113
3 194 366 89
3 367 366 194
3 367 40 366
3 367 248 40
3 368 248 367
3 368 19 248
3 259 195 22
3 369 195 259
3 369 90 195
3 197 369 47
3 370 369 197
3 370 90 369
3 370 368 90
3 371 368 370
3 371 19 368
3 371 174 19
3 372 174 371
3 372 78 174
3 199 372 91
3 373 372 199
3 373 78 372
3 373 331 78
3 374 331 373
3 374 1 331
3 766 230 767
3 375 768 770
3 768 230 769
3 768 769 770
3 375 12 230
3 771 375 772
3 376 773 775
3 773 375 774
3 773 774 775
3 376 12 375
3 376 149 12
3 377 149 376
3 377 65 149
3 776 377 777
3 378 778 780
3 778 377 779
3 778 779 780
3 378 65 377
3 378 299 65
3 379 299 378
3 379 5 299
3 781 379 782
3 380 783 785
3 783 379 784
3 783 784 785
3 380 5 379
3 380 121 5
3 786 121 787
3 788 787 380
3 786 787 788
3 789 48 790
3 791 790 121
3 789 790 791
3 792 48 793
3 794 262 795
3 796 795 48
3 794 795 796
3 797 262 798
3 799 23 800
3 801 800 262
3 799 800 801
3 381 802 803
3 381 804 806
3 804 23 805
3 804 805 806
3 381 200 23
3 382 200 381
3 382 92 200
3 807 382 808
3 383 809 811
3 809 382 810
3 809 810 811
3 383 92 382
3 383 374 92
3 384 374 383
3 384 1 374
3 384 108 1
3 385 108 384
3 385 35 108
3 812 385 813
3 814 813 93
3 812 813 814
3 386 815 817
3 815 385 816
3 815 816 817
3 386 35 385
3 386 239 35
3 818 239 819
3 820 819 386
3 818 819 820
3 821 17 822
3 823 822 239
3 821 822 823
3 824 17 825
3 827 826 17
3 301 828 830
3 830 829 2
3 828 829 830
3 832 831 301
3 202 833 835
3 835 834 67
3 833 834 835
3 837 836 202
3 264 203 14
3 387 203 264
3 387 838 840
3 840 839 203
3 838 839 840
3 841 387 842
3 843 842 50
3 841 842 843
3 844 387 845
3 847 846 387
3 268 848 849
3 851 850 268
3 206 852 854
3 854 853 52
3 852 853 854
3 856 855 206
3 208 857 858
3 860 859 208
3 388 861 862
3 388 863 864
3 388 865 867
3 865 103 866
3 865 866 867
3 389 103 388
3 389 29 103
3 210 389 94
3 390 389 210
3 390 29 389
3 390 225 29
3 391 225 390
3 391 9 225
3 272 211 24
3 392 211 272
3 392 95 211
3 213 392 54
3 393 392 213
3 393 95 392
3 393 391 95
3 394 391 393
3 394 9 391
3 394 141 9
3 395 141 394
3 395 60 141
3 215 395 96
3 396 395 215
3 396 60 395
3 396 868 870
3 870 869 60
3 868 869 870
3 872 871 396
3 311 128 6
3 397 128 311
3 397 55 128
3 218 397 71
3 398 397 218
3 398 55 397
3 398 275 55
3 399 275 398
3 399 25 275
3 277 219 16
3 400 219 277
3 400 98 219
3 873 400 874
3 401 875 877
3 875 400 876
3 875 876 877
3 401 98 400
3 401 399 98
3 402 399 401
3 402 25 399
3 402 216 25
3 878 216 879
3 880 879 402
3 878 879 880
3 881 97 882
3 883 882 216
3 881 882 883
3 884 97 885
3 887 886 97
