ply
format ascii 1.0
element vertex 490
property float x
property float y
property float z
element face 558
property list uchar int vertex_index
end_header
-17.923731 45.438148 -13.953789
-26.590322 33.875092 -8.250269
-28.936014 41.314075 3.626086
-24.416458 57.992569 -5.871986
-24.155535 50.482342 8.094124
-26.425591 49.674435 -0.658565
-23.033861 60.031513 2.167185
-14.900738 50.609085 -18.703987
-21.764774 39.745575 -10.673367
-29.55978 39.275188 -4.04625
-25.81707 46.227539 -7.309085
-22.320774 53.267517 -11.412629
-22.045267 55.076435 10.067436
-23.496517 55.272133 5.358971
-21.499311 60.367989 6.798752
-17.490927 38.197914 -12.931623
-15.704782 32.956635 -13.680019
-15.91251 40.720615 -14.79933
-14.559677 43.410576 -17.164331
-16.285452 48.088737 -16.163521
-24.010702 36.718414 -9.429921
-29.697054 40.595901 -0.44292
-25.453453 53.646847 -3.141323
-26.612892 48.291359 -4.367642
-25.160198 52.354977 -6.581172
-24.005226 49.916138 -9.254821
-23.781534 55.920677 -9.117818
-26.452698 45.914391 5.859587
-27.631802 45.342228 1.517394
-25.50458 50.243484 3.611285
-24.752787 54.781445 0.951244
-24.079044 59.335617 -2.069497
-13.420305 45.363052 -19.803753
-19.298061 35.260773 -11.402924
-19.688702 42.520374 -12.161512
-27.73843 41.407642 8.072361
-25.11393 45.642551 10.668223
-22.646637 50.299992 12.98011
-28.585329 37.027256 -6.569234
-28.062462 44.55201 -2.274116
-27.637907 42.755775 -5.620966
-26.318758 39.945995 -7.93748
-24.083126 43.37822 -9.401538
-22.149315 46.471802 -10.962933
-20.173452 49.689896 -12.975215
-18.484352 52.733833 -15.215091
-16.901487 55.529472 -17.816648
-21.758017 57.680012 8.508609
-17.659845 41.897511 -13.459181
-16.683155 39.506409 -13.811818
-16.854191 43.215263 -14.403956
-16.092882 44.685192 -15.49412
-17.084568 46.709709 -14.987539
-24.113163 33.388447 -9.2644
-25.312166 35.391354 -8.816738
-30.199381 39.050781 2.443402
-30.44828 38.906101 0.384937
-29.352171 41.14138 1.548129
-24.907253 55.970806 -4.408037
-25.437902 53.047173 -4.887107
-24.818073 55.137455 -6.223133
-24.457478 54.157471 -7.861814
-24.195772 57.218124 -7.641479
-25.26631 48.150692 7.095661
-25.937151 48.067276 4.798837
-24.843994 50.448486 5.832579
-23.262793 57.704231 3.744201
-24.216759 55.03495 2.998191
-23.903307 57.321667 1.691683
-24.402546 57.073368 -0.447723
-23.596136 59.826248 0.045217
-15.055541 34.152512 -14.696052
-14.684041 47.096119 -17.935284
-13.94795 44.398041 -18.466822
-14.043346 48.258385 -19.336161
-21.586914 36.015961 -10.441039
-20.35763 33.745182 -10.726745
-20.503605 37.280502 -11.057575
-19.473169 38.744396 -11.768594
-20.653734 40.965454 -11.389849
-27.010284 41.366043 10.468181
-26.427624 43.458801 9.355641
-25.659437 43.465202 11.763641
-30.556141 37.649563 -3.14258
-30.255711 36.72308 -4.647499
-29.748228 35.514904 -5.883706
-29.168932 38.162266 -5.493463
-26.998974 47.550243 0.350378
-27.903643 45.115089 -0.379935
-27.282681 47.016796 -1.520557
-26.359308 47.180099 -5.973026
-27.19458 45.48658 -4.917053
-26.742472 44.368301 -6.445006
-27.067295 41.475533 -6.927835
-26.042387 43.150867 -7.686616
-25.180475 41.707436 -8.648646
-25.074263 44.887184 -8.455791
-23.115829 51.641792 -10.352625
-23.149094 48.395073 -10.220917
-22.212532 49.746075 -11.19237
-21.114014 47.955341 -11.929013
-21.321411 51.603271 -12.266465
-19.543245 54.635159 -14.658357
-18.802691 56.339611 -15.927645
-17.665735 54.014778 -16.437744
-23.093098 52.645287 9.22637
-23.814709 52.795536 6.779675
-22.816294 55.18512 7.641168
-22.507328 57.81765 6.129217
-22.381754 60.05228 4.407883
-17.326473 34.137619 -12.40717
-16.535057 35.682106 -13.27213
-15.780096 36.771187 -14.192282
-15.063786 38.049023 -15.301553
-14.460845 39.53228 -16.50481
-15.213411 41.902962 -15.878244
-15.341282 45.762302 -16.650867
-15.591695 49.429035 -17.373459
-22.795238 34.661854 -9.840927
-22.879477 38.247314 -10.019423
-31.500658 36.649311 -0.580706
-30.652462 38.283203 -1.453516
-29.800026 39.932575 -2.316808
-25.901779 51.775833 -1.86593
-26.647421 49.029785 -2.607349
-26.026447 51.026672 -3.817936
-25.909678 50.141186 -5.466919
-25.524765 49.332127 -6.901182
-24.916788 47.998878 -8.239202
-24.736029 51.109875 -7.977771
-23.904388 52.87207 -9.203392
-23.14197 54.850117 -10.375597
-27.660791 43.598831 4.819582
-28.26549 43.284397 2.64076
-27.130276 45.592297 3.660641
-26.568998 47.805862 2.498044
-26.07976 49.911335 1.412946
-24.521191 52.764248 4.369358
-25.160248 52.407192 2.220769
-25.614714 52.116344 0.219674
-25.167356 54.438286 -1.185157
-24.754911 56.647079 -2.59944
-24.318916 58.935711 -4.094621
-13.925947 40.594639 -17.715031
-18.28299 36.457561 -12.13089
-18.509975 40.276424 -12.572555
-18.731424 43.855881 -13.021114
-29.676773 39.284874 4.628934
-28.322136 41.54987 5.774459
-27.046551 43.659672 7.012438
-25.829002 45.789551 8.185566
-24.618593 48.048027 9.341578
-24.36463 45.621613 13.018488
-23.851524 48.015896 11.781384
-23.420366 50.282192 10.628726
-22.285923 52.706581 11.618886
-28.944378 34.189194 -6.896219
-27.699579 35.64563 -7.512733
-28.644497 43.034641 0.534596
-28.863029 42.559067 -1.354752
-28.847145 41.95771 -3.118279
-27.371778 46.293793 -3.309386
-27.988533 43.794579 -4.000572
-28.605776 41.045723 -4.763103
-28.120365 39.946949 -6.130484
-27.433802 38.57399 -7.242309
-26.52244 36.968224 -8.113524
-25.290123 38.417347 -8.758816
-24.140589 40.154114 -9.402534
-22.969656 41.7262 -10.129949
-24.068827 46.636803 -9.333776
-23.086899 45.057831 -10.164412
-21.899641 43.048851 -10.861853
-20.955971 44.621494 -11.626888
-19.908154 46.009136 -12.544272
-18.996605 47.529789 -13.517964
-23.341967 62.134686 -1.776065
-23.726336 61.650562 -3.839346
-23.923439 60.927864 -5.711459
-23.901878 59.953682 -7.447454
-23.57366 59.154572 -9.138976
-23.094467 57.933842 -10.441552
-22.394842 56.356327 -11.600611
-21.46876 55.108601 -12.66229
-20.400572 53.311069 -13.478413
-19.253963 51.145145 -14.083226
-18.126448 48.959507 -14.575479
-17.372152 50.39817 -15.667619
-16.551231 51.795357 -16.964273
-15.870951 53.159771 -18.248013
-25.982174 32.927852 -8.49534
-26.682077 32.205984 -8.222342
-25.951244 34.633223 -8.533504
-25.343097 33.685983 -8.778575
-25.982174 32.927852 -8.49534
-14.511302 33.665458 -15.612011
-14.806565 33.012262 -15.02748
-14.760279 34.805708 -15.280582
-14.576831 51.146387 -19.405713
-14.148135 49.971037 -19.7218
-14.472042 49.433735 -19.020074
-26.703392 41.198622 11.640082
-27.399355 40.184309 11.005463
-26.027969 42.248201 12.287812
-26.33486 42.415622 11.115911
-26.703392 41.198622 11.640082
-18.903844 57.963777 -16.324198
-19.324082 57.266934 -15.601173
-18.390221 56.909906 -16.582346
-18.903844 57.963777 -16.324198
-31.416967 36.814125 0.33903
-31.990538 35.694708 -0.163142
-15.700463 31.011351 -13.446831
-16.067898 32.354068 -13.224833
-13.405247 43.537183 -19.481259
-13.669069 43.054678 -18.812793
-13.684128 44.880547 -19.135288
-13.174046 44.20575 -20.243424
-13.405247 43.537183 -19.481259
-13.162551 45.947029 -20.583901
-13.174046 44.20575 -20.243424
-19.247607 33.367086 -11.182402
-19.777392 32.60929 -10.844312
-19.827846 34.502978 -11.064834
-18.749285 33.982428 -11.522775
-19.247607 33.367086 -11.182402
-18.790526 35.859167 -11.766907
-18.24175 34.580821 -11.886758
-18.749285 33.982428 -11.522775
-30.062983 38.309467 5.073092
-30.352041 38.189911 3.976488
-28.41253 40.365213 7.474009
-28.063771 40.321922 8.709681
-28.030283 41.478756 6.92341
-28.704383 40.436327 6.325058
-28.41253 40.365213 7.474009
-24.012425 45.443556 14.30058
-24.671821 44.386651 13.629325
-23.24908 49.157944 12.380747
-23.508874 47.880902 12.987281
-22.90643 49.02295 13.586644
-22.927741 63.489748 -1.518906
-23.049261 62.293759 -0.601145
-23.547342 62.70376 -4.629933
-23.376027 63.064459 -3.677294
-23.645893 62.342411 -5.56599
-23.824887 61.289213 -4.775403
-23.547342 62.70376 -4.629933
-23.613726 61.09955 -8.24971
-23.681742 61.516035 -7.396898
-23.449618 60.699995 -9.095471
-23.737769 59.554127 -8.293215
-23.613726 61.09955 -8.24971
-22.73086 58.827564 -11.181237
-23.022368 59.521742 -10.528306
-22.381048 58.038807 -11.760767
-22.744655 57.145084 -11.021082
-22.73086 58.827564 -11.181237
-21.061761 55.926701 -13.303554
-21.546362 56.751337 -12.825863
-20.527667 55.027935 -13.711616
-20.934666 54.209835 -13.070352
-21.061761 55.926701 -13.303554
-21.364285 57.638899 9.670718
-21.901642 56.378223 9.288023
-21.50791 56.33711 10.450132
-21.242302 58.970934 8.791096
-21.364285 57.638899 9.670718
-21.112949 60.314923 7.936167
-21.628664 59.024 7.653681
-21.242302 58.970934 8.791096
-24.743595 32.684529 -9.002406
-24.092312 31.55027 -9.150959
-24.712665 34.3899 -9.040569
-24.743595 32.684529 -9.002406
-25.343097 33.685983 -8.778575
-30.32383 38.978441 1.414169
-30.890778 37.94252 0.821852
-30.766329 38.01486 1.851084
-15.081792 32.182825 -14.440842
-15.406413 31.584887 -13.932825
-15.380161 33.554574 -14.188035
-15.081792 32.182825 -14.440842
-14.806565 33.012262 -15.02748
-13.741483 48.619743 -20.038936
-13.429962 47.172077 -20.272732
-13.731825 46.810719 -19.569957
-13.741483 48.619743 -20.038936
-14.148135 49.971037 -19.7218
-20.972272 34.880572 -10.583892
-20.968969 33.07814 -10.414475
-21.58361 34.213529 -10.271622
-27.699697 40.301122 9.907591
-27.399355 40.184309 11.005463
-27.374357 41.386843 9.270271
-28.063771 40.321922 8.709681
-27.699697 40.301122 9.907591
-22.308971 50.105947 14.205624
-22.90643 49.02295 13.586644
-22.099663 51.418616 13.476216
-22.308971 50.105947 14.205624
-30.944046 36.399493 -3.514669
-31.049962 36.797159 -2.757342
-30.793831 35.936251 -4.267129
-30.944046 36.399493 -3.514669
-30.405926 37.186322 -3.89504
-30.548133 35.419037 -4.938697
-30.793831 35.936251 -4.267129
-30.00197 36.118992 -5.265602
-30.294391 34.814949 -5.5568
-30.548133 35.419037 -4.938697
-19.694359 56.414708 -14.966528
-20.099004 55.68998 -14.301588
-19.172968 55.487385 -15.293001
-19.694359 56.414708 -14.966528
-19.324082 57.266934 -15.601173
-17.821743 55.74749 -16.837395
-18.234213 55.177194 -16.182695
-18.390221 56.909906 -16.582346
-17.439619 56.504837 -17.526848
-17.283611 54.772125 -17.127196
-17.821743 55.74749 -16.837395
-16.878743 32.94456 -12.588408
-17.284393 32.221008 -12.162325
-16.483035 33.716803 -13.020889
-16.878743 32.94456 -12.588408
-16.930765 34.909863 -12.83965
-16.119919 34.31937 -13.476074
-16.067898 32.354068 -13.224833
-16.483035 33.716803 -13.020889
-14.764401 36.753963 -15.583333
-14.760279 34.805708 -15.280582
-15.059663 36.100768 -14.998803
-14.762315 38.790651 -15.903181
-14.462931 37.495592 -16.184961
-14.764401 36.753963 -15.583333
-23.481818 32.208676 -9.398899
-24.092312 31.55027 -9.150959
-22.822856 32.84538 -9.687162
-23.481818 32.208676 -9.398899
-23.4542 34.02515 -9.552664
-22.187773 33.536476 -9.971566
-22.822856 32.84538 -9.687162
-22.191076 35.338907 -10.140983
-21.58361 34.213529 -10.271622
-22.187773 33.536476 -9.971566
-32.012748 35.470777 -1.057338
-31.990538 35.694708 -0.163142
-31.522221 36.297033 -1.476405
-32.012748 35.470777 -1.057338
-30.974469 37.777706 -0.097885
-31.416967 36.814125 0.33903
-30.890778 37.94252 0.821852
-31.098123 37.113979 -1.91281
-31.522221 36.297033 -1.476405
-31.07656 37.466257 -1.017111
-30.604301 37.966383 -2.298048
-31.049962 36.797159 -2.757342
-31.098123 37.113979 -1.91281
-27.267218 33.170575 -7.958709
-26.682077 32.205984 -8.222342
-15.700463 31.011351 -13.446831
-15.406413 31.584887 -13.932825
-14.214023 38.223879 -16.808189
-14.462931 37.495592 -16.184961
-13.946573 38.755059 -17.4133
-14.214023 38.223879 -16.808189
-14.193396 40.06346 -17.109921
-13.703598 39.392125 -18.133722
-13.946573 38.755059 -17.4133
-13.658068 41.152977 -18.436898
-13.936948 42.49634 -18.090927
-13.669069 43.054678 -18.812793
-13.703598 39.392125 -18.133722
-13.658068 41.152977 -18.436898
-13.172208 47.756054 -21.052881
-13.162551 45.947029 -20.583901
-13.429962 47.172077 -20.272732
-20.354353 31.90402 -10.512168
-20.968969 33.07814 -10.414475
-20.354353 31.90402 -10.512168
-19.777392 32.60929 -10.844312
-17.763492 33.420851 -12.024898
-17.284393 32.221008 -12.162325
-17.804732 35.29759 -12.26903
-17.763492 33.420851 -12.024898
-18.24175 34.580821 -11.886758
-30.613345 38.072865 2.883722
-30.766329 38.01486 1.851084
-29.938077 39.167828 3.536168
-30.613345 38.072865 2.883722
-30.352041 38.189911 3.976488
-29.381701 39.303829 5.752296
-30.062983 38.309467 5.073092
-28.999454 40.417372 5.201697
-29.381701 39.303829 5.752296
-28.704383 40.436327 6.325058
-25.319225 43.308445 13.001901
-26.027969 42.248201 12.287812
-25.012034 44.543408 12.391064
-25.319225 43.308445 13.001901
-24.671821 44.386651 13.629325
-23.765427 46.68376 13.605832
-24.012425 45.443556 14.30058
-24.108077 46.818754 12.399936
-23.765427 46.68376 13.605832
-23.508874 47.880902 12.987281
-21.919306 52.62191 12.795604
-22.46628 51.503287 12.299498
-22.099663 51.418616 13.476216
-21.757662 53.855138 12.068855
-21.919306 52.62191 12.795604
-21.637334 55.040065 11.29313
-22.165595 53.891508 10.843161
-21.757662 53.855138 12.068855
-21.50791 56.33711 10.450132
-21.637334 55.040065 11.29313
-29.955317 34.067368 -6.100744
-30.294391 34.814949 -5.5568
-29.553392 33.404512 -6.607
-29.955317 34.067368 -6.100744
-29.346303 34.852049 -6.389963
-29.083286 32.617453 -7.008017
-29.553392 33.404512 -6.607
-28.444246 33.327625 -7.281685
-29.083286 32.617453 -7.008017
-27.821846 34.055843 -7.589942
-28.444246 33.327625 -7.281685
-28.321979 34.917412 -7.204476
-27.144951 34.760361 -7.881501
-27.267218 33.170575 -7.958709
-27.821846 34.055843 -7.589942
-20.989728 61.683859 7.017516
-21.112949 60.314923 7.936167
-21.443185 61.551203 5.856255
-20.989728 61.683859 7.017516
-20.933602 62.867073 6.075019
-21.884406 61.393349 4.66082
-21.940532 60.210135 5.603318
-21.443185 61.551203 5.856255
-22.247682 61.366301 3.546524
-21.884406 61.393349 4.66082
-22.573736 61.355917 2.426175
-22.707808 60.041897 3.287534
-22.247682 61.366301 3.546524
-22.895208 61.242172 1.37048
-22.573736 61.355917 2.426175
-23.176345 61.139539 0.309495
-23.314999 59.92888 1.106201
-22.895208 61.242172 1.37048
-23.469051 60.980467 -0.865424
-23.176345 61.139539 0.309495
-23.049261 62.293759 -0.601145
-23.183842 63.30652 -2.645653
-22.927741 63.489748 -1.518906
-23.534152 61.892624 -2.807705
-23.183842 63.30652 -2.645653
-23.376027 63.064459 -3.677294
-23.692522 62.003126 -6.5289
-23.645893 62.342411 -5.56599
-23.912658 60.440773 -6.579456
-23.692522 62.003126 -6.5289
-23.681742 61.516035 -7.396898
-23.261964 60.132107 -9.877018
-23.449618 60.699995 -9.095471
-23.334063 58.544207 -9.790264
-23.261964 60.132107 -9.877018
-23.022368 59.521742 -10.528306
-22.009403 57.3752 -12.295023
-22.381048 58.038807 -11.760767
-21.931801 55.732464 -12.13145
-22.009403 57.3752 -12.295023
-21.546362 56.751337 -12.825863
-19.971908 53.973114 -14.068385
-20.527667 55.027935 -13.711616
-20.099004 55.68998 -14.301588
-17.066958 57.266829 -18.263766
-17.439619 56.504837 -17.526848
-16.531422 56.093628 -18.497239
-17.066958 57.266829 -18.263766
-16.016154 54.908777 -18.712922
-16.386219 54.344622 -18.032331
-16.531422 56.093628 -18.497239
-15.511856 53.664831 -18.929326
-16.016154 54.908777 -18.712922
-15.02675 52.389488 -19.157313
-15.385845 51.884428 -18.476
-15.511856 53.664831 -18.929326
-14.576831 51.146387 -19.405713
-15.02675 52.389488 -19.157313
3 0 50 48
3 0 52 50
3 1 190 191
3 1 192 194
3 192 54 193
3 192 193 194
3 2 57 55
3 3 60 58
3 3 62 60
3 4 65 63
3 6 68 66
3 6 70 68
3 197 196 71
3 195 196 197
3 7 74 72
3 7 198 200
3 200 199 74
3 198 199 200
3 8 77 75
3 8 79 77
3 201 80 202
3 203 82 204
3 205 204 80
3 203 204 205
3 9 84 83
3 9 86 84
3 5 89 87
3 10 92 90
3 10 94 92
3 10 96 94
3 11 99 97
3 11 101 99
3 206 103 207
3 209 208 103
3 12 107 105
3 14 108 47
3 14 109 108
3 15 111 110
3 17 112 49
3 17 113 112
3 17 115 113
3 19 116 51
3 19 117 116
3 20 118 53
3 20 119 118
3 210 120 211
3 21 121 56
3 21 122 121
3 22 125 123
3 24 126 59
3 24 127 126
3 24 129 127
3 26 130 61
3 26 131 130
3 27 134 132
3 29 135 64
3 29 136 135
3 13 137 106
3 30 138 67
3 30 139 138
3 30 140 139
3 31 141 69
3 31 142 141
3 16 212 213
3 18 143 114
3 32 214 216
3 216 215 73
3 214 215 216
3 32 217 218
3 32 219 220
3 33 221 223
3 223 222 76
3 221 222 223
3 33 224 225
3 33 226 228
3 226 144 227
3 226 227 228
3 34 145 78
3 34 146 145
3 229 147 230
3 35 231 232
3 35 233 235
3 233 148 234
3 233 234 235
3 35 149 148
3 36 150 81
3 36 151 150
3 236 152 237
3 37 238 240
3 238 153 239
3 238 239 240
3 37 154 153
3 37 155 154
3 38 156 85
3 38 157 156
3 28 158 133
3 39 159 88
3 39 160 159
3 23 161 124
3 40 162 91
3 40 163 162
3 40 164 163
3 41 165 93
3 41 166 165
3 41 167 166
3 42 168 95
3 42 169 168
3 25 170 128
3 43 171 98
3 43 172 171
3 43 173 172
3 44 174 100
3 44 175 174
3 241 176 242
3 243 177 244
3 245 178 246
3 247 246 177
3 245 246 247
3 248 179 249
3 250 180 251
3 252 251 179
3 250 251 252
3 253 181 254
3 255 182 256
3 257 256 181
3 255 256 257
3 258 183 259
3 260 184 261
3 262 261 183
3 260 261 262
3 45 185 102
3 45 186 185
3 45 187 186
3 46 188 104
3 46 189 188
3 263 47 264
3 265 264 12
3 263 264 265
3 266 47 267
3 268 14 269
3 270 269 47
3 268 269 270
3 48 49 15
3 50 49 48
3 50 17 49
3 50 51 17
3 52 51 50
3 52 19 51
3 271 53 272
3 54 273 275
3 273 53 274
3 273 274 275
3 54 20 53
3 55 276 278
3 276 56 277
3 276 277 278
3 57 56 55
3 57 21 56
3 58 59 22
3 60 59 58
3 60 24 59
3 60 61 24
3 62 61 60
3 62 26 61
3 63 64 27
3 65 64 63
3 65 29 64
3 66 67 13
3 68 67 66
3 68 30 67
3 68 69 30
3 70 69 68
3 70 31 69
3 71 279 281
3 281 280 16
3 279 280 281
3 283 282 71
3 72 73 18
3 74 73 72
3 74 32 73
3 74 284 286
3 286 285 32
3 284 285 286
3 288 287 74
3 75 289 291
3 289 76 290
3 289 290 291
3 77 76 75
3 77 33 76
3 77 78 33
3 79 78 77
3 79 34 78
3 80 292 293
3 80 294 296
3 294 35 295
3 294 295 296
3 80 81 35
3 82 81 80
3 82 36 81
3 297 37 298
3 300 299 37
3 83 301 302
3 84 303 305
3 305 304 83
3 303 304 305
3 84 306 307
3 84 308 310
3 308 85 309
3 308 309 310
3 86 85 84
3 86 38 85
3 87 88 28
3 89 88 87
3 89 39 88
3 90 91 23
3 92 91 90
3 92 40 91
3 92 93 40
3 94 93 92
3 94 41 93
3 94 95 41
3 96 95 94
3 96 42 95
3 97 98 25
3 99 98 97
3 99 43 98
3 99 100 43
3 101 100 99
3 101 44 100
3 311 102 312
3 103 313 315
3 313 102 314
3 313 314 315
3 103 45 102
3 103 104 45
3 316 104 317
3 318 317 103
3 316 317 318
3 319 46 320
3 321 320 104
3 319 320 321
3 105 106 4
3 107 106 105
3 107 13 106
3 47 107 12
3 108 107 47
3 108 13 107
3 108 66 13
3 109 66 108
3 109 6 66
3 110 322 323
3 111 324 326
3 326 325 110
3 324 325 326
3 111 327 329
3 327 16 328
3 327 328 329
3 49 111 15
3 112 111 49
3 112 16 111
3 112 71 16
3 113 71 112
3 113 330 332
3 332 331 71
3 330 331 332
3 113 333 335
3 333 114 334
3 333 334 335
3 115 114 113
3 115 18 114
3 51 115 17
3 116 115 51
3 116 18 115
3 116 72 18
3 117 72 116
3 117 7 72
3 53 336 337
3 118 338 340
3 340 339 53
3 338 339 340
3 118 341 342
3 118 343 345
3 343 75 344
3 343 344 345
3 119 75 118
3 119 8 75
3 120 346 347
3 120 348 349
3 56 350 352
3 350 120 351
3 350 351 352
3 121 120 56
3 121 353 355
3 355 354 120
3 353 354 355
3 121 356 358
3 356 83 357
3 356 357 358
3 122 83 121
3 122 9 83
3 123 124 5
3 125 124 123
3 125 23 124
3 59 125 22
3 126 125 59
3 126 23 125
3 126 90 23
3 127 90 126
3 127 10 90
3 127 128 10
3 129 128 127
3 129 25 128
3 61 129 24
3 130 129 61
3 130 25 129
3 130 97 25
3 131 97 130
3 131 11 97
3 359 1 360
3 132 133 2
3 134 133 132
3 134 28 133
3 64 134 27
3 135 134 64
3 135 28 134
3 135 87 28
3 136 87 135
3 136 5 87
3 106 65 4
3 137 65 106
3 137 29 65
3 67 137 13
3 138 137 67
3 138 29 137
3 138 136 29
3 139 136 138
3 139 5 136
3 139 123 5
3 140 123 139
3 140 22 123
3 69 140 30
3 141 140 69
3 141 22 140
3 141 58 22
3 142 58 141
3 142 3 58
3 362 361 16
3 114 363 364
3 143 365 367
3 367 366 114
3 365 366 367
3 143 368 369
3 73 143 18
3 370 143 371
3 372 371 73
3 370 371 372
3 374 373 143
3 377 376 32
3 375 376 377
3 76 378 379
3 381 380 76
3 382 110 383
3 144 384 386
3 384 110 385
3 384 385 386
3 144 15 110
3 78 144 33
3 145 144 78
3 145 15 144
3 145 48 15
3 146 48 145
3 146 0 48
3 387 55 388
3 147 389 391
3 389 55 390
3 389 390 391
3 147 2 55
3 392 147 393
3 148 394 396
3 394 147 395
3 394 395 396
3 148 2 147
3 148 132 2
3 149 132 148
3 149 27 132
3 81 149 35
3 150 149 81
3 150 27 149
3 150 63 27
3 151 63 150
3 151 4 63
3 397 82 398
3 152 399 401
3 399 82 400
3 399 400 401
3 152 36 82
3 402 152 403
3 153 404 406
3 404 152 405
3 404 405 406
3 153 36 152
3 153 151 36
3 154 151 153
3 154 4 151
3 154 105 4
3 155 105 154
3 155 12 105
3 407 155 408
3 409 408 37
3 407 408 409
3 410 155 411
3 412 12 413
3 414 413 155
3 412 413 414
3 416 415 12
3 85 417 418
3 156 419 421
3 421 420 85
3 419 420 421
3 156 422 423
3 156 424 425
3 157 426 428
3 428 427 156
3 426 427 428
3 157 429 431
3 429 1 430
3 429 430 431
3 133 57 2
3 158 57 133
3 158 21 57
3 88 158 28
3 159 158 88
3 159 21 158
3 159 122 21
3 160 122 159
3 160 9 122
3 124 89 5
3 161 89 124
3 161 39 89
3 91 161 23
3 162 161 91
3 162 39 161
3 162 160 39
3 163 160 162
3 163 9 160
3 163 86 9
3 164 86 163
3 164 38 86
3 93 164 40
3 165 164 93
3 165 38 164
3 165 157 38
3 166 157 165
3 166 1 157
3 166 54 1
3 167 54 166
3 167 20 54
3 95 167 41
3 168 167 95
3 168 20 167
3 168 119 20
3 169 119 168
3 169 8 119
3 128 96 10
3 170 96 128
3 170 42 96
3 98 170 25
3 171 170 98
3 171 42 170
3 171 169 42
3 172 169 171
3 172 8 169
3 172 79 8
3 173 79 172
3 173 34 79
3 100 173 43
3 174 173 100
3 174 34 173
3 174 146 34
3 175 146 174
3 175 0 146
3 432 14 433
3 434 14 435
3 434 435 436
3 437 109 438
3 439 438 14
3 437 438 439
3 440 109 441
3 442 6 443
3 444 443 109
3 442 443 444
3 445 6 446
3 447 70 448
3 449 448 6
3 447 448 449
3 176 450 452
3 450 70 451
3 450 451 452
3 176 31 70
3 453 176 454
3 177 455 457
3 455 176 456
3 455 456 457
3 177 31 176
3 177 142 31
3 178 142 177
3 178 3 142
3 458 178 459
3 179 460 462
3 460 178 461
3 460 461 462
3 179 3 178
3 179 62 3
3 180 62 179
3 180 26 62
3 463 180 464
3 181 465 467
3 465 180 466
3 465 466 467
3 181 26 180
3 181 131 26
3 182 131 181
3 182 11 131
3 468 182 469
3 183 470 472
3 470 182 471
3 470 471 472
3 183 11 182
3 183 101 11
3 184 101 183
3 184 44 101
3 102 473 475
3 473 184 474
3 473 474 475
3 185 184 102
3 185 44 184
3 185 175 44
3 186 175 185
3 186 0 175
3 186 52 0
3 187 52 186
3 187 19 52
3 104 187 45
3 188 187 104
3 188 19 187
3 188 117 19
3 189 117 188
3 189 7 117
3 476 46 477
3 478 46 479
3 480 189 481
3 482 481 46
3 480 481 482
3 483 189 484
3 485 7 486
3 487 486 189
3 485 486 487
3 489 488 7
