ply
format ascii 1.0
element vertex 425
property float x
property float y
property float z
element face 462
property list uchar int vertex_index
end_header
37.48822 45.566994 10.075225
32.710022 32.633732 30.191038
31.849077 64.573425 23.87517
35.042782 40.333519 20.745323
37.309849 64.000656 -9.015941
35.919476 62.233814 3.785294
32.941936 72.365532 10.272032
34.214092 56.881264 16.166777
32.560143 48.555038 27.728998
31.362972 38.762562 37.228123
38.57634 47.037373 4.261361
39.077179 38.799549 7.253727
33.841343 36.391468 25.709501
36.675217 63.683426 -2.730758
31.322397 72.039345 21.430927
32.336483 68.95459 17.239071
33.6036 64.767365 13.428356
32.904518 61.193199 19.751404
33.356209 53.039417 22.095692
32.290665 56.735413 25.835651
31.294359 46.519501 36.75882
31.432478 59.617039 30.021313
36.26889 43.148281 15.66022
37.893089 36.895809 12.807305
36.628368 34.670036 17.694038
37.64864 55.829624 0.960853
36.816311 54.011047 7.002299
34.353146 67.700417 6.714783
35.130203 59.750206 10.012327
35.825813 51.419228 12.958061
34.69239 48.346947 18.812731
33.680122 44.811066 24.024483
32.703709 40.775536 29.105204
31.753067 51.637165 31.526861
31.90472 43.915268 32.701447
31.890848 36.093418 33.641811
31.239506 31.352039 37.541355
38.040943 46.516903 7.189978
38.846413 43.169071 5.741401
38.313637 42.364422 8.59798
33.282059 34.660492 27.905951
33.833714 32.442276 26.45751
31.6078 68.452057 22.537807
31.786015 70.769287 19.314226
32.093548 66.768097 20.578653
32.643833 65.211922 18.36676
32.353054 62.863583 21.804214
32.602707 59.042576 22.764908
32.082947 60.540768 25.012024
35.685932 41.517422 18.245043
36.504539 38.990982 16.592344
35.843369 37.308414 19.240726
36.307774 63.065525 0.57737
37.195091 59.749397 -0.921485
36.778316 59.22274 2.262865
37.242393 54.986336 4.085454
36.398186 58.275005 5.239622
33.203629 73.990273 6.787739
33.906593 71.448586 5.263692
33.601963 70.149796 8.529138
33.916985 60.921635 14.81
34.31427 62.520214 11.654436
34.689579 58.310608 13.111275
35.517952 55.588852 11.448936
34.99276 54.349854 14.454491
35.257317 50.041592 15.895709
34.514038 52.482162 17.468895
32.921223 50.957901 25.042547
33.51025 48.905571 23.218172
33.062977 46.979771 25.860565
33.188625 43.059196 26.50919
32.666012 44.4963 28.419321
31.240984 57.153038 32.784798
31.613525 55.659618 30.781
31.398861 53.255241 33.482925
31.34561 42.675419 37.093815
31.574762 45.573544 34.688011
31.598787 41.480503 35.171253
31.901049 39.945992 33.306053
31.61072 37.474434 35.328384
31.54776 33.670586 35.651218
31.323364 35.101177 37.414192
38.014961 32.519447 13.991349
38.661411 33.481346 11.356212
34.437191 38.247711 23.323044
35.169037 35.891838 21.695677
34.493984 34.154076 24.136148
37.006176 63.973358 -5.889335
35.79937 66.962425 -1.216169
35.494114 65.947479 2.056111
31.005356 75.903992 19.869202
31.518454 74.304588 17.861752
32.052788 72.600029 15.810389
32.632568 70.848091 13.696326
33.242649 68.567703 12.145799
32.957657 66.808472 15.299694
33.241608 62.945156 16.740982
33.531307 59.018608 17.952675
33.803638 54.910789 19.138382
33.142883 57.202606 20.944916
32.75444 55.101254 24.041624
32.434551 52.683464 26.861944
31.211794 50.42654 36.1828
31.097042 43.647392 39.248676
31.141369 39.904278 39.293568
32.194389 30.585867 32.295639
30.836662 73.514023 23.468794
31.408892 66.19046 25.782341
31.632082 62.177799 27.046124
31.215698 63.800949 28.945726
36.92672 44.210846 12.897325
37.737209 41.124702 11.494084
37.126942 40.030132 14.138056
37.278679 35.694561 15.32766
37.367783 31.48428 16.38744
35.905819 33.238556 20.237305
38.133797 51.592796 2.593672
37.700272 50.763622 5.567029
37.240593 49.765305 8.388026
34.645592 69.061966 3.506626
35.079632 65.143478 5.31889
33.960979 66.508125 10.029053
34.719131 63.827847 8.499495
35.536598 61.230743 6.772254
35.981651 56.979092 8.358863
36.364017 52.850056 9.860086
36.669754 48.638687 11.408073
36.104115 47.198143 14.300833
35.472759 45.977161 17.09753
34.927681 44.340557 19.664051
34.004265 50.755569 20.384428
34.171375 46.773766 21.424692
34.315571 42.493721 22.450365
33.747654 40.57196 25.039557
33.217918 38.824799 27.403309
32.722134 36.618088 29.716021
31.821188 58.395523 27.964907
31.993425 54.408241 28.768351
32.145844 50.250378 29.468658
31.505018 49.19825 34.233006
31.827974 47.799973 32.287781
32.221157 46.444588 30.211084
32.262672 42.39674 30.901253
32.267792 38.344173 31.508736
32.257374 34.568691 31.899698
31.846264 32.386688 33.8964
31.45578 29.994587 35.85321
30.944555 28.875786 39.460152
38.509491 37.994934 10.041358
32.965052 31.529471 29.415229
33.25107 32.542851 28.272686
32.99604 33.647112 29.048495
37.427822 64.026032 -10.631839
37.116861 65.99765 -11.632544
36.998888 65.972274 -10.016646
37.712183 62.207737 -9.685792
37.427822 64.026032 -10.631839
37.591156 62.155828 -8.141024
37.712183 62.207737 -9.685792
32.742987 74.219475 9.52503
32.601123 73.49915 11.313332
33.072783 73.177903 8.529885
32.873833 75.031846 7.782884
32.742987 74.219475 9.52503
31.224673 53.787233 34.600678
31.319923 55.204139 33.133862
31.145734 55.736131 34.251614
38.406786 28.59591 13.801569
38.379675 30.796613 13.258029
38.042072 30.318745 14.534889
38.968237 45.267834 3.541888
38.767144 47.499151 2.787367
39.343083 39.057181 5.80729
39.227699 41.241942 5.051127
38.961796 40.98431 6.497564
39.431354 36.868721 6.557203
39.343083 39.057181 5.80729
34.144965 31.197931 25.742494
33.826878 30.381192 26.753037
35.387595 68.489952 -0.521337
35.563929 68.754413 -2.194114
35.234966 67.982479 1.114803
35.646742 66.454952 0.419971
35.387595 68.489952 -0.521337
31.017251 42.305365 40.318084
30.979047 44.246151 40.252079
31.039414 40.433808 40.34053
31.119205 41.775835 39.271122
31.017251 42.305365 40.318084
31.048425 38.572813 40.351965
31.039414 40.433808 40.34053
32.137374 28.490448 32.492584
31.954253 29.418519 33.307209
30.555385 74.229202 24.569696
30.66066 75.274319 22.836736
31.180687 66.76115 26.973381
31.272359 67.999466 25.277481
31.08409 65.566395 28.555073
31.312295 64.995705 27.364033
31.180687 66.76115 26.973381
35.53062 32.422845 21.497625
35.537428 34.565197 20.966491
35.16223 33.749486 22.22681
37.121012 61.890845 -3.433437
37.286491 62.03581 -5.012726
36.840697 63.828392 -4.310047
37.848226 56.027477 -0.607722
37.621452 57.987364 -1.548891
37.421865 57.789511 0.019684
38.084705 54.058525 0.233963
37.848226 56.027477 -0.607722
37.891219 53.71121 1.777262
38.327284 51.940111 1.050373
38.084705 54.058525 0.233963
31.171022 29.54556 37.641216
31.279159 28.866833 36.797143
31.347643 30.673313 36.697283
30.820352 27.605187 40.32324
30.885955 29.328005 40.375578
30.754639 25.919639 40.280779
30.878843 27.190239 39.41769
30.820352 27.605187 40.32324
38.956951 33.886095 10.000393
39.011201 31.682208 10.621476
33.526898 31.433743 27.548465
33.557886 33.551384 27.181731
33.25107 32.542851 28.272686
33.826878 30.381192 26.753037
33.526898 31.433743 27.548465
32.968243 75.908485 5.992218
32.873833 75.031846 7.782884
33.332348 74.593918 5.161883
33.096962 76.51213 4.366362
32.968243 75.908485 5.992218
33.555111 72.71943 6.025716
33.68383 73.323075 4.399859
33.332348 74.593918 5.161883
38.7029 31.277562 11.940461
38.338186 33.000397 12.67378
38.379675 30.796613 13.258029
39.011201 31.682208 10.621476
38.7029 31.277562 11.940461
39.103274 43.333683 4.281908
38.968237 45.267834 3.541888
38.711377 45.103222 5.001381
39.103274 43.333683 4.281908
39.227699 41.241942 5.051127
34.824703 32.880605 23.447046
35.16223 33.749486 22.22681
34.831511 35.022957 22.915912
34.475099 32.053832 24.581813
34.163849 33.298176 25.296829
34.144965 31.197931 25.742494
34.824703 32.880605 23.447046
34.475099 32.053832 24.581813
36.883662 65.823487 -8.386221
36.998888 65.972274 -10.016646
36.731825 65.809838 -6.822917
37.158012 63.987007 -7.452638
36.883662 65.823487 -8.386221
36.557703 65.744641 -5.140287
36.731825 65.809838 -6.822917
36.392224 65.599674 -3.560998
36.840697 63.828392 -4.310047
36.557703 65.744641 -5.140287
35.9543 67.239174 -2.803704
35.563929 68.754413 -2.194114
36.237294 65.322925 -1.973463
36.392224 65.599674 -3.560998
35.9543 67.239174 -2.803704
31.073861 76.93948 18.234875
30.787008 77.77314 19.267603
31.33041 76.139778 17.23115
31.073861 76.93948 18.234875
31.261905 75.10429 18.865477
31.596184 75.45372 16.087344
31.33041 76.139778 17.23115
31.863351 74.60144 15.061663
31.596184 75.45372 16.087344
31.785621 73.452309 16.83607
32.156549 73.616398 14.082511
31.863351 74.60144 15.061663
32.446439 72.740429 13.025479
32.156549 73.616398 14.082511
32.342678 71.72406 14.753357
32.787252 71.606811 11.984179
32.601123 73.49915 11.313332
32.446439 72.740429 13.025479
31.056542 50.977387 37.236904
31.131139 52.372883 35.950615
31.120164 48.975012 37.507637
31.056542 50.977387 37.236904
31.161447 47.021492 37.795647
31.253076 48.473021 36.47081
31.120164 48.975012 37.507637
31.062788 45.585437 39.040575
30.979047 44.246151 40.252079
31.195701 45.083447 38.003748
31.161447 47.021492 37.795647
31.062788 45.585437 39.040575
31.134473 38.207959 39.339548
31.245275 37.637101 38.306826
31.25217 39.33342 38.260846
31.134473 38.207959 39.339548
31.048425 38.572813 40.351965
32.409197 29.55979 31.514198
32.667013 30.583723 30.461897
32.452206 31.6098 31.243339
32.409197 29.55979 31.514198
32.137374 28.490448 32.492584
30.745006 76.469303 21.03694
30.787008 77.77314 19.267603
30.921009 74.709007 21.668998
30.745006 76.469303 21.03694
30.66066 75.274319 22.836736
30.743319 72.338333 25.197335
30.555385 74.229202 24.569696
30.986244 71.661248 24.120708
30.743319 72.338333 25.197335
31.229112 70.923908 23.101774
31.079529 72.776684 22.44986
30.986244 71.661248 24.120708
31.371813 69.130264 23.655214
31.465098 70.245701 21.984367
31.229112 70.923908 23.101774
31.508346 67.321258 24.160074
31.371813 69.130264 23.655214
31.272359 67.999466 25.277481
30.997439 64.238777 30.162212
31.08409 65.566395 28.555073
31.124818 62.411926 30.509282
30.997439 64.238777 30.162212
31.233208 60.319971 31.047075
31.324088 61.708994 29.483519
31.124818 62.411926 30.509282
31.137462 59.08797 32.428818
31.336731 58.385039 31.403056
31.233208 60.319971 31.047075
31.051497 57.599486 33.938826
31.137462 59.08797 32.428818
31.145734 55.736131 34.251614
31.051497 57.599486 33.938826
37.718483 29.801161 15.732935
38.042072 30.318745 14.534889
37.691372 32.001863 15.189395
35.883074 31.142308 20.777302
35.53062 32.422845 21.497625
36.274966 31.799027 19.53291
35.883074 31.142308 20.777302
36.63624 32.514767 18.261277
36.267094 33.954296 18.965671
36.274966 31.799027 19.53291
37.005948 30.921889 17.607978
36.998075 33.077158 17.040739
36.63624 32.514767 18.261277
37.391627 29.239322 16.866188
37.005948 30.921889 17.607978
37.718483 29.801161 15.732935
37.391627 29.239322 16.866188
32.965052 31.529471 29.415229
32.667013 30.583723 30.461897
37.43932 62.142179 -6.577721
37.591156 62.155828 -8.141024
37.158012 63.987007 -7.452638
37.43932 62.142179 -6.577721
37.286491 62.03581 -5.012726
37.380949 59.92383 -2.528801
37.121012 61.890845 -3.433437
36.935154 61.716411 -1.826121
37.380949 59.92383 -2.528801
37.621452 57.987364 -1.548891
38.545872 49.776863 1.953523
38.327284 51.940111 1.050373
38.355069 49.315084 3.427517
38.767144 47.499151 2.787367
38.545872 49.776863 1.953523
34.039144 72.126416 3.555966
33.68383 73.323075 4.399859
34.408644 70.933105 2.677433
34.039144 72.126416 3.555966
34.276093 70.255276 4.385159
34.810705 69.539722 1.84006
34.408644 70.933105 2.677433
35.069853 67.504722 2.781369
35.234966 67.982479 1.114803
34.810705 69.539722 1.84006
31.305328 51.840891 34.832863
31.224673 53.787233 34.600678
31.131139 52.372883 35.950615
31.780191 30.318929 34.10759
31.954253 29.418519 33.307209
32.020327 31.486277 33.096019
31.584949 29.122879 35.085994
31.780191 30.318929 34.10759
31.651022 31.190638 34.874805
31.38982 28.103506 35.944656
31.584949 29.122879 35.085994
31.38982 28.103506 35.944656
31.279159 28.866833 36.797143
31.225471 35.806408 38.399861
31.343168 36.93187 37.321157
31.245275 37.637101 38.306826
31.192313 33.842325 38.417399
31.225471 35.806408 38.399861
31.150384 31.967756 38.48098
31.281435 33.226608 37.477773
31.192313 33.842325 38.417399
31.002909 30.72963 39.440379
30.885955 29.328005 40.375578
31.09203 30.113913 38.500754
31.150384 31.967756 38.48098
31.002909 30.72963 39.440379
31.023547 28.307433 38.600614
31.171022 29.54556 37.641216
31.09203 30.113913 38.500754
31.023547 28.307433 38.600614
30.878843 27.190239 39.41769
38.880991 36.142889 9.342966
38.585451 35.73814 10.698785
38.956951 33.886095 10.000393
39.164835 36.545197 7.949151
38.793335 38.397241 8.647543
38.880991 36.142889 9.342966
39.431354 36.868721 6.557203
39.164835 36.545197 7.949151
3 0 39 37
3 1 149 151
3 151 150 40
3 149 150 151
3 2 44 42
3 2 46 44
3 2 48 46
3 3 51 49
3 4 152 154
3 152 153 154
3 4 155 156
3 4 157 158
3 5 54 52
3 5 56 54
3 6 159 160
3 6 161 163
3 161 57 162
3 161 162 163
3 6 59 57
3 7 62 60
3 7 64 62
3 7 66 64
3 8 69 67
3 8 71 69
3 164 74 165
3 166 165 72
3 164 165 166
3 9 77 75
3 9 79 77
3 9 81 79
3 169 168 82
3 167 168 169
3 10 170 171
3 11 172 174
3 174 173 38
3 172 173 174
3 11 175 176
3 12 86 84
3 178 177 41
3 179 88 180
3 181 89 182
3 183 182 88
3 181 182 183
3 14 91 90
3 15 92 43
3 15 93 92
3 15 95 93
3 17 96 45
3 17 97 96
3 17 99 97
3 19 100 47
3 19 101 100
3 184 103 185
3 186 104 187
3 188 187 103
3 186 187 188
3 190 189 104
3 192 191 105
3 193 106 194
3 195 107 196
3 197 109 198
3 199 198 107
3 197 198 199
3 22 112 110
3 24 113 50
3 24 114 113
3 200 115 201
3 202 201 85
3 200 201 202
3 13 203 205
3 205 204 87
3 203 204 205
3 25 206 208
3 208 207 53
3 206 207 208
3 25 209 210
3 25 211 213
3 211 116 212
3 211 212 213
3 26 117 55
3 26 118 117
3 27 119 58
3 27 120 119
3 16 121 94
3 28 122 61
3 28 123 122
3 28 124 123
3 29 125 63
3 29 126 125
3 29 127 126
3 30 128 65
3 30 129 128
3 18 130 98
3 31 131 68
3 31 132 131
3 31 133 132
3 32 134 70
3 32 135 134
3 21 136 108
3 33 137 73
3 33 138 137
3 20 139 102
3 34 140 76
3 34 141 140
3 34 142 141
3 35 143 78
3 35 144 143
3 35 145 144
3 36 146 80
3 36 214 216
3 216 215 146
3 214 215 216
3 217 147 218
3 221 220 147
3 219 220 221
3 23 148 111
3 223 222 83
3 37 38 10
3 39 38 37
3 39 11 38
3 40 41 12
3 224 41 225
3 226 225 40
3 224 225 226
3 228 227 41
3 42 43 14
3 44 43 42
3 44 15 43
3 44 45 15
3 46 45 44
3 46 17 45
3 46 47 17
3 48 47 46
3 48 19 47
3 49 50 22
3 51 50 49
3 51 24 50
3 52 53 13
3 54 53 52
3 54 25 53
3 54 55 25
3 56 55 54
3 56 26 55
3 57 229 230
3 57 231 233
3 231 232 233
3 57 234 236
3 234 58 235
3 234 235 236
3 59 58 57
3 59 27 58
3 60 61 16
3 62 61 60
3 62 28 61
3 62 63 28
3 64 63 62
3 64 29 63
3 64 65 29
3 66 65 64
3 66 30 65
3 67 68 18
3 69 68 67
3 69 31 68
3 69 70 31
3 71 70 69
3 71 32 70
3 72 73 21
3 74 73 72
3 74 33 73
3 75 76 20
3 77 76 75
3 77 34 76
3 77 78 34
3 79 78 77
3 79 35 78
3 79 80 35
3 81 80 79
3 81 36 80
3 82 83 23
3 237 83 238
3 239 238 82
3 237 238 239
3 241 240 83
3 38 242 244
3 244 243 10
3 242 243 244
3 246 245 38
3 84 85 3
3 86 85 84
3 86 247 249
3 249 248 85
3 247 248 249
3 41 86 12
3 250 86 251
3 252 251 41
3 250 251 252
3 254 253 86
3 255 4 256
3 257 87 258
3 259 258 4
3 257 258 259
3 260 87 261
3 262 13 263
3 264 263 87
3 262 263 264
3 88 265 266
3 88 267 269
3 267 13 268
3 267 268 269
3 88 52 13
3 89 52 88
3 89 5 52
3 90 270 271
3 91 272 274
3 274 273 90
3 272 273 274
3 91 275 276
3 43 91 14
3 92 91 43
3 92 277 279
3 279 278 91
3 277 278 279
3 92 280 281
3 93 282 284
3 284 283 92
3 282 283 284
3 93 285 287
3 285 6 286
3 285 286 287
3 93 94 6
3 95 94 93
3 95 16 94
3 45 95 15
3 96 95 45
3 96 16 95
3 96 60 16
3 97 60 96
3 97 7 60
3 97 98 7
3 99 98 97
3 99 18 98
3 47 99 17
3 100 99 47
3 100 18 99
3 100 67 18
3 101 67 100
3 101 8 67
3 288 102 289
3 290 102 291
3 292 20 293
3 294 293 102
3 292 293 294
3 103 295 296
3 103 297 299
3 297 20 298
3 297 298 299
3 103 75 20
3 104 75 103
3 104 9 75
3 104 300 302
3 302 301 9
3 300 301 302
3 304 303 104
3 105 305 307
3 307 306 1
3 305 306 307
3 309 308 105
3 310 90 311
3 106 312 314
3 312 90 313
3 312 313 314
3 106 14 90
3 315 106 316
3 317 106 318
3 319 14 320
3 321 320 106
3 319 320 321
3 322 42 323
3 324 323 14
3 322 323 324
3 107 325 327
3 325 42 326
3 325 326 327
3 107 2 42
3 107 108 2
3 109 108 107
3 109 21 108
3 328 109 329
3 330 109 331
3 332 21 333
3 334 333 109
3 332 333 334
3 335 72 336
3 337 336 21
3 335 336 337
3 338 72 339
3 341 340 72
3 110 111 0
3 112 111 110
3 112 23 111
3 50 112 22
3 113 112 50
3 113 23 112
3 113 82 23
3 114 82 113
3 114 342 344
3 344 343 82
3 342 343 344
3 85 51 3
3 115 51 85
3 115 24 51
3 345 115 346
3 347 115 348
3 349 24 350
3 351 350 115
3 349 350 351
3 352 114 353
3 354 353 24
3 352 353 354
3 355 114 356
3 358 357 114
3 360 359 1
3 87 361 363
3 363 362 4
3 361 362 363
3 365 364 87
3 53 366 368
3 368 367 13
3 366 367 368
3 370 369 53
3 116 371 372
3 116 373 375
3 373 10 374
3 373 374 375
3 55 116 25
3 117 116 55
3 117 10 116
3 117 37 10
3 118 37 117
3 118 0 37
3 58 376 377
3 119 378 380
3 380 379 58
3 378 379 380
3 119 381 382
3 119 383 385
3 383 89 384
3 383 384 385
3 120 89 119
3 120 5 89
3 94 59 6
3 121 59 94
3 121 27 59
3 61 121 16
3 122 121 61
3 122 27 121
3 122 120 27
3 123 120 122
3 123 5 120
3 123 56 5
3 124 56 123
3 124 26 56
3 63 124 28
3 125 124 63
3 125 26 124
3 125 118 26
3 126 118 125
3 126 0 118
3 126 110 0
3 127 110 126
3 127 22 110
3 65 127 29
3 128 127 65
3 128 22 127
3 128 49 22
3 129 49 128
3 129 3 49
3 98 66 7
3 130 66 98
3 130 30 66
3 68 130 18
3 131 130 68
3 131 30 130
3 131 129 30
3 132 129 131
3 132 3 129
3 132 84 3
3 133 84 132
3 133 12 84
3 70 133 31
3 134 133 70
3 134 12 133
3 134 40 12
3 135 40 134
3 135 1 40
3 108 48 2
3 136 48 108
3 136 19 48
3 73 136 21
3 137 136 73
3 137 19 136
3 137 101 19
3 138 101 137
3 138 8 101
3 102 386 388
3 386 74 387
3 386 387 388
3 139 74 102
3 139 33 74
3 76 139 20
3 140 139 76
3 140 33 139
3 140 138 33
3 141 138 140
3 141 8 138
3 141 71 8
3 142 71 141
3 142 32 71
3 78 142 34
3 143 142 78
3 143 32 142
3 143 135 32
3 144 135 143
3 144 1 135
3 144 105 1
3 145 105 144
3 145 389 391
3 391 390 105
3 389 390 391
3 80 145 35
3 146 145 80
3 146 392 394
3 394 393 145
3 392 393 394
3 146 395 396
3 398 397 146
3 399 81 400
3 401 400 9
3 399 400 401
3 402 81 403
3 404 36 405
3 406 405 81
3 404 405 406
3 147 407 408
3 147 409 411
3 409 36 410
3 409 410 411
3 147 412 414
3 414 413 36
3 412 413 414
3 416 415 147
3 111 39 0
3 148 39 111
3 148 11 39
3 83 148 23
3 417 148 418
3 419 418 83
3 417 418 419
3 420 11 421
3 422 421 148
3 420 421 422
3 424 423 11
