ply
format ascii 1.0
element vertex 241
property float x
property float y
property float z
element face 236
property list uchar int vertex_index
end_header
13.616772 63.721127 -29.478897
9.239076 84.473328 -35.549667
9.969376 72.493362 -36.617069
10.028214 59.508213 -36.381958
14.57956 70.055809 -29.649315
12.749164 74.516243 -32.957417
12.236762 68.293198 -33.024551
9.951637 65.919197 -36.484711
11.725621 61.951031 -32.902924
12.78918 57.141319 -29.257292
15.433653 80.909531 -28.460951
6.106113 82.130722 -39.39415
12.784333 80.159531 -32.535862
9.868639 78.563698 -36.366791
6.900828 75.840775 -39.828461
7.43912 69.308304 -39.837875
13.499846 85.768913 -29.078981
14.164993 66.81144 -29.455788
13.418033 69.296349 -31.311409
13.066776 66.201965 -31.202488
12.013418 65.333847 -32.907845
12.64622 63.140968 -31.237436
12.331841 59.79958 -31.124735
13.137113 60.561111 -29.457836
8.629421 87.242928 -34.897785
7.069806 86.199028 -37.077915
5.512233 85.198349 -38.935577
7.776976 83.446457 -37.443836
14.044511 80.848686 -30.621195
14.215122 78.030449 -30.870472
11.340413 73.50444 -34.83849
11.405004 76.592873 -34.719532
10.006016 75.526993 -36.492275
8.301946 77.455704 -38.210041
8.612201 74.189507 -38.189869
7.329795 72.656219 -39.71381
8.754991 70.87587 -38.166779
9.939366 62.668015 -36.457111
8.904675 64.59153 -38.128277
9.059925 61.293629 -38.092312
9.297739 57.983368 -38.091148
10.143378 56.411709 -36.50338
10.786044 85.190384 -33.413513
15.04605 73.028862 -29.51067
14.100317 75.130081 -31.093521
13.834109 72.373344 -31.215866
12.49575 71.512321 -33.075539
11.241851 70.579216 -34.81385
10.085354 69.203743 -36.396954
11.103275 67.373039 -34.740124
10.985349 64.161018 -34.621441
10.821195 60.839413 -34.704174
10.80908 57.405235 -34.716103
11.515157 58.637833 -32.950748
15.198135 83.342979 -27.740131
3.966633 83.85537 -40.696625
4.391695 80.798378 -41.183262
13.91608 83.272888 -29.924295
12.523868 82.924767 -32.107792
11.123285 82.461555 -34.070824
12.836223 77.438416 -32.819332
11.401007 79.582405 -34.406445
9.616091 81.421928 -36.099239
8.135296 80.541512 -37.855385
6.520761 79.091919 -39.697483
4.971225 77.678856 -41.322891
8.802896 67.869286 -38.172028
14.112438 85.767158 -27.909951
13.134421 86.978607 -28.594234
13.747013 86.976853 -27.425204
14.788152 76.934758 -30.078682
14.824143 78.311386 -29.937873
11.492885 85.31279 -32.389777
10.46069 86.463077 -33.07777
12.436438 56.824347 -30.196649
12.207768 58.153477 -31.130371
12.56051 58.47045 -30.191014
12.634218 55.627859 -29.337972
12.436438 56.824347 -30.196649
6.206106 75.012215 -40.592085
5.241305 75.931255 -41.3393
5.936026 76.759816 -40.575676
6.717239 70.105828 -40.554743
6.662577 71.779785 -40.49271
7.384457 70.982261 -39.775842
6.795176 68.485665 -40.645891
6.717239 70.105828 -40.554743
8.296125 65.38163 -38.938341
8.401798 63.800593 -38.94113
10.860312 55.889404 -34.73238
11.12772 56.404457 -33.848284
12.500809 86.894627 -29.80379
13.134421 86.978607 -28.594234
12.849785 85.602055 -30.222511
12.500809 86.894627 -29.80379
7.50308 88.180431 -35.535013
8.232803 88.56675 -34.456346
6.723273 87.658481 -36.625078
7.50308 88.180431 -35.535013
7.849614 86.720978 -35.98785
6.006418 87.115871 -37.621099
6.723273 87.658481 -36.625078
6.291019 85.698689 -38.006746
5.227632 86.615532 -38.549931
6.006418 87.115871 -37.621099
14.738838 79.720505 -29.813235
14.739082 80.879109 -29.541073
15.433409 79.750927 -28.733113
14.129817 79.439568 -30.745833
14.738838 79.720505 -29.813235
14.824143 78.311386 -29.937873
8.479423 62.151642 -38.923147
8.401798 63.800593 -38.94113
8.9823 62.94258 -38.110294
8.640526 60.501734 -38.917251
8.479423 62.151642 -38.923147
8.759434 58.846604 -38.916669
8.640526 60.501734 -38.917251
9.178832 59.638498 -38.09173
8.870888 57.303156 -39.084322
8.759434 58.846604 -38.916669
9.386388 56.496115 -38.276342
8.870888 57.303156 -39.084322
9.809207 55.710285 -37.482458
9.386388 56.496115 -38.276342
9.720558 57.197539 -37.297264
10.248573 54.814686 -36.656405
9.809207 55.710285 -37.482458
9.382378 87.48935 -33.819906
8.232803 88.56675 -34.456346
9.707733 86.216656 -34.155649
9.382378 87.48935 -33.819906
10.46069 86.463077 -33.07777
14.573183 74.079472 -30.302096
14.730749 75.484574 -30.190207
15.203616 74.433964 -29.398781
11.480759 57.020756 -32.965606
11.12772 56.404457 -33.848284
11.162119 58.021534 -33.833425
11.799426 57.572603 -32.043377
11.923499 59.218706 -32.037741
12.207768 58.153477 -31.130371
11.480759 57.020756 -32.965606
11.799426 57.572603 -32.043377
15.762505 83.338009 -26.623755
14.961583 84.554192 -27.240526
15.919241 82.12408 -27.0462
15.762505 83.338009 -26.623755
16.037 80.907356 -27.40661
15.315894 82.126255 -28.100541
15.919241 82.12408 -27.0462
16.049315 79.725803 -27.748337
16.037 80.907356 -27.40661
15.433409 79.750927 -28.733113
16.049315 79.725803 -27.748337
15.612175 73.145291 -28.672616
15.203616 74.433964 -29.398781
15.420391 71.786434 -28.694363
15.612175 73.145291 -28.672616
15.187146 70.299907 -28.763686
14.812805 71.542336 -29.579993
15.420391 71.786434 -28.694363
14.936273 68.844853 -28.737884
15.187146 70.299907 -28.763686
14.72899 67.222668 -28.64112
14.372277 68.433625 -29.552551
14.936273 68.844853 -28.737884
14.417272 65.693238 -28.638556
14.72899 67.222668 -28.64112
14.143161 64.148081 -28.650111
13.890883 65.266284 -29.467343
14.417272 65.693238 -28.638556
13.841815 62.515326 -28.603138
14.143161 64.148081 -28.650111
4.315621 86.008629 -39.592106
5.227632 86.615532 -38.549931
3.542821 85.33714 -40.472629
4.315621 86.008629 -39.592106
4.739433 84.52686 -39.816101
2.760789 84.543678 -41.35673
3.542821 85.33714 -40.472629
3.149369 82.944828 -41.571791
2.760789 84.543678 -41.35673
3.3619 81.416332 -41.815109
3.149369 82.944828 -41.571791
4.179164 82.326874 -40.939943
3.65944 79.833603 -41.9589
3.3619 81.416332 -41.815109
14.34899 84.555946 -28.409556
14.112438 85.767158 -27.909951
14.961583 84.554192 -27.240526
13.057903 84.354042 -30.645168
12.849785 85.602055 -30.222511
13.707963 84.5209 -29.501638
12.361797 84.179981 -31.736916
13.057903 84.354042 -30.645168
13.219974 83.098827 -31.016044
11.654956 84.057575 -32.760653
11.492885 85.31279 -32.389777
12.361797 84.179981 -31.736916
14.157719 76.580265 -30.981997
14.788152 76.934758 -30.078682
14.730749 75.484574 -30.190207
3.949204 78.273842 -42.028715
3.65944 79.833603 -41.9589
4.68146 79.238617 -41.253076
4.303967 76.647862 -42.040684
3.949204 78.273842 -42.028715
4.303967 76.647862 -42.040684
5.241305 75.931255 -41.3393
6.42059 73.419937 -40.534759
6.206106 75.012215 -40.592085
7.115311 74.248497 -39.771135
6.42059 73.419937 -40.534759
6.662577 71.779785 -40.49271
8.245236 67.020508 -38.960217
8.853786 66.230408 -38.150152
8.296125 65.38163 -38.938341
7.563348 67.740017 -39.79314
8.121008 68.588795 -39.004951
8.245236 67.020508 -38.960217
6.795176 68.485665 -40.645891
7.563348 67.740017 -39.79314
10.527462 55.392641 -35.626019
10.476229 56.908472 -35.609741
10.860312 55.889404 -34.73238
10.248573 54.814686 -36.656405
10.527462 55.392641 -35.626019
13.601986 60.935318 -28.592607
13.376942 62.141119 -29.468367
13.841815 62.515326 -28.603138
13.32543 59.266565 -28.555742
13.601986 60.935318 -28.592607
13.151464 57.556669 -28.45547
12.963147 58.851215 -29.357564
13.32543 59.266565 -28.555742
12.956353 55.982952 -28.397027
13.151464 57.556669 -28.45547
13.318637 56.398302 -27.595205
12.634218 55.627859 -29.337972
12.956353 55.982952 -28.397027
3 67 16 68
3 67 68 69
3 0 19 17
3 0 21 19
3 0 23 21
3 1 25 24
3 1 27 25
3 70 29 71
3 2 32 30
3 2 34 32
3 2 36 34
3 3 39 37
3 3 40 39
3 3 41 40
3 72 42 73
3 4 45 43
3 6 46 18
3 6 47 46
3 6 49 47
3 8 50 20
3 8 51 50
3 8 53 51
3 9 74 76
3 76 75 22
3 74 75 76
3 9 77 78
3 11 55 26
3 11 56 55
3 10 57 54
3 12 58 28
3 12 59 58
3 5 60 44
3 13 61 31
3 13 62 61
3 13 63 62
3 14 64 33
3 14 65 64
3 14 79 81
3 81 80 65
3 79 80 81
3 15 82 84
3 84 83 35
3 82 83 84
3 15 85 86
3 7 66 48
3 88 87 38
3 90 89 52
3 16 91 92
3 16 93 94
3 17 18 4
3 19 18 17
3 19 6 18
3 19 20 6
3 21 20 19
3 21 8 20
3 21 22 8
3 23 22 21
3 23 9 22
3 24 95 96
3 25 97 99
3 99 98 24
3 97 98 99
3 25 100 101
3 25 102 104
3 102 26 103
3 102 103 104
3 27 26 25
3 27 11 26
3 105 28 106
3 107 106 10
3 105 106 107
3 29 108 110
3 108 28 109
3 108 109 110
3 29 12 28
3 30 31 5
3 32 31 30
3 32 13 31
3 32 33 13
3 34 33 32
3 34 14 33
3 34 35 14
3 36 35 34
3 36 15 35
3 37 38 7
3 39 38 37
3 39 111 113
3 113 112 38
3 111 112 113
3 39 114 115
3 40 116 118
3 118 117 39
3 116 117 118
3 40 119 120
3 40 121 122
3 41 123 125
3 125 124 40
3 123 124 125
3 41 126 127
3 128 24 129
3 42 130 132
3 130 24 131
3 130 131 132
3 42 1 24
3 43 133 135
3 133 44 134
3 133 134 135
3 45 44 43
3 45 5 44
3 18 45 4
3 46 45 18
3 46 5 45
3 46 30 5
3 47 30 46
3 47 2 30
3 47 48 2
3 49 48 47
3 49 7 48
3 20 49 6
3 50 49 20
3 50 7 49
3 50 37 7
3 51 37 50
3 51 3 37
3 51 52 3
3 53 52 51
3 53 136 138
3 138 137 52
3 136 137 138
3 22 53 8
3 139 53 140
3 141 140 22
3 139 140 141
3 143 142 53
3 144 54 145
3 146 54 147
3 148 10 149
3 150 149 54
3 148 149 150
3 151 10 152
3 154 153 10
3 155 43 156
3 157 43 158
3 159 4 160
3 161 160 43
3 159 160 161
3 162 4 163
3 164 17 165
3 166 165 4
3 164 165 166
3 167 17 168
3 169 0 170
3 171 170 17
3 169 170 171
3 173 172 0
3 26 174 175
3 55 176 178
3 178 177 26
3 176 177 178
3 55 179 180
3 55 181 182
3 56 183 185
3 185 184 55
3 183 184 185
3 56 186 187
3 54 188 190
3 188 16 189
3 188 189 190
3 57 16 54
3 57 191 193
3 193 192 16
3 191 192 193
3 28 57 10
3 58 57 28
3 58 194 196
3 196 195 57
3 194 195 196
3 58 197 199
3 197 42 198
3 197 198 199
3 59 42 58
3 59 1 42
3 44 200 202
3 200 29 201
3 200 201 202
3 60 29 44
3 60 12 29
3 31 60 5
3 61 60 31
3 61 12 60
3 61 59 12
3 62 59 61
3 62 1 59
3 62 27 1
3 63 27 62
3 63 11 27
3 33 63 13
3 64 63 33
3 64 11 63
3 64 56 11
3 65 56 64
3 65 203 205
3 205 204 56
3 203 204 205
3 65 206 207
3 209 208 65
3 35 210 212
3 212 211 14
3 210 211 212
3 214 213 35
3 48 36 2
3 66 36 48
3 66 15 36
3 38 66 7
3 215 66 216
3 217 216 38
3 215 216 217
3 218 15 219
3 220 219 66
3 218 219 220
3 222 221 15
3 52 41 3
3 223 41 224
3 225 224 52
3 223 224 225
3 227 226 41
3 228 23 229
3 230 229 0
3 228 229 230
3 231 23 232
3 233 9 234
3 235 234 23
3 233 234 235
3 236 9 237
3 236 237 238
3 240 239 9
