ply
format ascii 1.0
element vertex 737
property float x
property float y
property float z
element face 893
property list uchar int vertex_index
end_header
-20.597038 56.571087 -52.50872
-4.812918 100.537796 -34.648285
-9.264463 31.57769 -53.343571
-16.595654 83.526215 -49.506371
-6.765751 57.933113 -51.214153
2.927184 78.868828 -42.734539
-15.621933 30.505684 -50.985878
-15.656381 44.229809 -52.352444
-11.170296 94.5709 -43.564941
-6.702529 82.978737 -47.172256
-0.069029 90.939568 -40.453804
-15.78131 102.652748 -36.086388
-21.332802 93.462311 -44.220913
0.875525 56.505856 -48.405788
-2.205631 46.025127 -52.721394
-20.012562 69.454704 -52.144062
-14.560674 57.515198 -52.515133
-11.762963 71.395676 -51.023964
-2.588588 69.591805 -47.832043
4.989321 65.589211 -42.956364
-8.926097 44.747826 -52.946301
-3.744584 34.528259 -55.591137
-19.109072 44.969933 -51.817654
-18.617989 50.932861 -52.412769
-8.08468 98.08506 -39.607094
-5.611251 93.150742 -42.355576
-2.397522 96.266075 -38.038204
-7.368177 103.862915 -30.361727
-10.569942 102.141289 -35.742069
-13.638537 99.088394 -40.331062
4.265379 55.067822 -46.316799
2.547865 50.815121 -49.416855
-12.469456 30.931984 -52.135815
-18.638378 76.660782 -51.205383
-15.996691 70.912514 -51.843071
-14.241638 77.431602 -50.645477
-1.573732 81.100571 -45.181126
-4.536226 76.291481 -47.717735
-0.035233 74.596062 -45.54747
1.459051 67.766273 -45.625999
4.116498 72.26107 -42.846466
-19.110708 88.902191 -47.415741
-21.012814 82.302345 -49.673672
-22.671362 74.920593 -51.055756
-10.802977 58.12912 -52.037537
-11.826715 51.072067 -52.550327
-8.055686 51.529736 -52.235268
-3.035122 40.242661 -54.412636
-19.30237 31.179504 -49.699673
-15.877325 37.752605 -51.80452
-12.44435 37.510582 -52.59116
-14.247037 89.571785 -46.991291
-11.767893 83.697906 -48.662773
-8.854021 89.14267 -45.823246
-3.438832 87.516159 -44.149368
1.554945 85.231987 -42.016834
-18.676067 98.734833 -40.557354
-16.452955 94.610764 -44.293018
-2.77343 57.507832 -49.964939
-4.419386 51.644806 -51.651707
-0.663879 51.397968 -50.684605
-20.68285 62.491962 -52.508183
-18.054266 57.040169 -52.658085
-17.41732 63.821037 -52.496895
-13.417173 64.719086 -52.013199
-9.249566 64.486679 -51.137939
-9.468635 77.632179 -49.4104
-7.233221 70.844696 -49.713158
-4.837725 63.73138 -49.765312
-0.89635 62.946926 -47.997246
2.83093 61.306297 -45.772587
5.962517 59.373276 -43.065521
7.898922 63.009655 -39.753983
8.444037 56.622944 -40.077496
-15.302791 51.102924 -52.604153
-12.358906 44.517128 -52.71669
-9.409166 38.334316 -53.26984
-5.509336 45.429459 -52.966743
-6.248806 39.298683 -53.893345
-6.42275 32.978771 -54.519386
-21.11426 54.738537 -52.313644
-20.133144 51.60804 -52.252316
-19.71702 54.120792 -52.486156
-6.565625 99.591782 -37.164726
-5.20122 97.385757 -38.785698
-3.585411 98.538216 -36.441719
-6.073048 102.305885 -32.635136
-8.941618 103.16851 -33.155777
-7.754945 101.548775 -35.194767
-9.124689 100.29982 -37.633614
5.707916 54.519516 -44.999008
-10.807611 31.082552 -52.740089
-17.703928 80.101288 -50.471878
-16.419544 77.287651 -50.970776
-15.440136 80.587608 -50.176067
0.714144 80.020401 -44.038616
-0.802972 77.830536 -45.443863
1.487339 76.815414 -44.156261
2.172731 73.369881 -44.231239
3.63671 75.616867 -42.758476
-17.890198 86.257317 -48.620796
-20.09494 85.710426 -48.649761
-18.944002 82.881767 -49.726387
-19.79674 79.563545 -50.563419
-8.854052 57.915665 -51.70216
-9.372482 54.745644 -52.085327
-7.464293 54.656776 -51.781967
-17.329863 44.579933 -52.124805
-17.542717 41.377914 -51.783585
-15.798517 40.951012 -52.109165
-14.193826 37.495247 -52.188282
-14.018003 40.713737 -52.422291
-12.603254 92.252396 -45.335529
-11.595066 89.381859 -46.545349
-9.880106 91.858109 -44.834846
-2.876049 92.14872 -41.51115
-4.553672 90.471786 -43.365757
-1.862305 89.58345 -42.343525
-1.012326 86.521942 -43.194019
0.56773 88.185745 -41.481819
-19.793867 100.508171 -38.156315
-17.27553 100.8964 -38.37886
-12.318698 97.043877 -41.974586
-15.01938 97.131622 -42.300606
-13.905245 94.855202 -43.93668
-15.225194 92.284286 -45.708687
-0.850833 56.864525 -49.247398
-1.838057 54.337364 -50.298935
-0.002713 53.951817 -49.62112
-17.431065 30.866476 -50.382992
-17.395803 27.153618 -49.727982
-20.51082 65.98732 -52.372585
-19.204786 63.52113 -52.547768
-18.746387 66.951729 -52.365822
-13.913664 71.373062 -51.481392
-14.792461 67.752106 -51.988842
-12.589473 67.984802 -51.583038
-11.233508 64.362076 -51.627773
-10.473772 67.957306 -51.093121
-9.198647 83.295815 -48.014793
-10.562094 80.665657 -49.114197
-8.026448 80.185326 -48.384502
-3.669834 73.042976 -47.846539
-6.022081 73.567802 -48.835117
-4.952454 70.354095 -48.856533
-6.001964 67.312637 -49.726002
-3.85927 66.930542 -48.866806
-2.902917 63.516415 -48.951756
-1.675629 66.032867 -47.906422
3.278093 66.772705 -44.358532
2.261515 64.489944 -45.584328
4.005712 63.462837 -44.282703
4.478739 60.499096 -44.448063
5.5135 62.447922 -42.923752
8.221128 59.709839 -39.742191
-21.256119 72.265289 -51.724701
-23.052486 70.927223 -51.534691
-21.791897 68.428589 -52.051323
-22.002832 64.836464 -52.242771
-16.463722 57.499294 -52.629559
-16.736147 54.21265 -52.63261
-15.060726 54.326794 -52.605286
-10.317771 48.069504 -52.6726
-12.079716 47.917114 -52.669704
-10.663384 44.708912 -52.842239
-10.856547 41.36956 -52.930569
-9.254285 41.639378 -53.140289
-3.271542 48.723854 -52.092716
-5.020429 48.700668 -52.323765
-3.848085 45.791393 -52.873352
-3.463669 37.396339 -55.053062
-4.623341 39.668438 -54.199081
-4.95987 36.889118 -54.630653
-6.337235 36.16037 -54.261101
-5.034171 33.764 -55.084801
-3.814861 31.531633 -56.114635
-20.414408 48.658459 -51.917789
-18.854639 48.045109 -52.165565
-17.155005 47.761784 -52.373627
-9.574767 96.497841 -41.634228
-8.388419 94.134415 -42.93713
-6.616509 95.764893 -40.978249
-3.97139 94.800453 -40.315868
-1.180624 93.662453 -39.393692
-10.202994 104.645866 -30.750227
-11.727486 103.776726 -33.437042
-13.297431 102.573509 -35.952209
-14.703261 100.962479 -38.360954
-12.096566 100.834015 -38.044739
-10.821947 98.83873 -39.909782
2.617516 55.982441 -47.386379
1.7049 53.487949 -48.858639
3.355834 53.122074 -47.871307
-14.04661 30.766804 -51.574429
-13.81069 27.025572 -51.162914
-19.454309 73.165588 -51.749004
-18.007521 70.331665 -52.066078
-17.39435 73.825668 -51.613766
-15.109642 74.331345 -51.293175
-12.894659 74.575089 -50.851902
-4.056903 82.121529 -46.228901
-5.575337 79.728851 -47.501678
-3.138084 78.964203 -46.509724
-2.277843 75.542801 -46.706951
-1.370771 72.234001 -46.742443
-0.511213 68.755745 -46.783844
0.777063 71.206596 -45.557487
2.792701 70.03476 -44.256187
4.612225 68.933914 -42.852779
-20.265886 91.250801 -45.978428
-21.435217 88.13504 -47.318184
-22.24263 84.809906 -48.5163
-23.097467 81.217133 -49.474411
-21.931053 78.844131 -50.428631
-20.797884 76.183769 -51.175865
-12.703854 58.076931 -52.308228
-13.120691 54.46204 -52.497578
-11.283476 54.665516 -52.32531
-9.949242 51.505085 -52.413765
-8.644605 48.232346 -52.62648
-2.667331 43.149399 -53.608139
-1.896648 38.047337 -55.421791
-2.352709 35.291138 -56.109184
-2.506975 32.528484 -56.778233
-1.167965 33.450439 -57.403996
-21.190731 35.242607 -49.665165
-19.357594 34.69545 -50.312325
-17.565861 34.426151 -50.898224
-19.205109 41.638191 -51.397293
-17.532969 37.931057 -51.388531
-15.838063 34.270054 -51.423019
-14.210206 34.143417 -51.893761
-12.520492 34.387409 -52.399097
-10.787999 34.300934 -52.90099
-15.497743 86.701103 -48.348122
-14.216624 83.63652 -49.19973
-12.940061 86.681808 -47.95298
-10.208656 86.449806 -47.337894
-7.62882 86.061577 -46.584908
-7.176699 91.272682 -44.152035
-6.125373 88.320877 -45.102158
-5.116493 85.204361 -45.817356
-2.553651 84.332214 -44.827305
0.011444 83.368294 -43.630444
2.332106 82.034286 -42.446957
-20.999273 98.112167 -40.357063
-20.145819 96.195175 -42.522987
-16.212727 99.074623 -40.524075
-17.751139 96.693954 -42.628643
-18.91604 94.121338 -44.429047
-17.876764 91.734528 -46.05962
-16.618853 89.411392 -47.282467
-4.744949 57.6731 -50.659588
-5.581295 54.71954 -51.36887
-3.641996 54.516178 -50.873699
-2.55652 51.512772 -51.238144
-1.411326 48.80175 -51.725319
0.962275 51.032234 -50.157211
0.283063 48.538754 -51.37915
-3.134941 101.092484 -32.098366
-4.642682 102.817795 -29.964161
-20.693769 59.257397 -52.546005
-19.528019 56.859062 -52.608227
-19.387884 59.997948 -52.63105
-17.786699 60.42408 -52.627686
-15.93224 60.771633 -52.522594
-16.816013 67.202805 -52.257717
-15.50826 64.194756 -52.328018
-14.092633 61.208294 -52.322781
-12.106563 61.350842 -52.031597
-10.08689 61.230938 -51.656273
-7.971127 61.218315 -51.144226
-13.016424 80.621109 -49.753033
-11.855907 77.53775 -50.11554
-10.538908 74.371239 -50.290375
-6.935414 76.915146 -48.638054
-8.288783 74.223595 -49.602375
-9.409351 71.038704 -50.423927
-8.212267 67.651649 -50.467121
-7.001198 64.352554 -50.476158
-5.831938 60.820461 -50.5476
-3.739344 60.518024 -49.819103
-1.803137 60.214417 -48.999966
0.073874 59.767139 -48.069016
0.347067 65.481926 -46.778484
1.025079 62.423561 -46.893536
1.821054 58.957714 -47.12318
3.532964 58.239052 -45.946468
5.017063 57.427269 -44.725395
6.521947 56.192669 -43.293571
0.397974 94.947678 -37.114521
1.438593 92.442902 -38.344898
2.400241 89.655861 -39.389313
3.11901 86.818909 -40.248634
5.511384 74.183655 -41.355709
5.995358 70.903351 -41.27161
6.151231 67.663025 -41.453907
7.687576 66.17173 -39.748405
6.503319 64.367264 -41.448715
6.948599 61.206802 -41.370113
7.276873 58.207897 -41.574951
-21.971491 61.288757 -52.345383
-21.735699 57.949486 -52.357056
-18.354422 54.032494 -52.586632
-17.035984 51.080112 -52.544601
-15.586492 47.777466 -52.5168
-13.599918 51.173706 -52.600082
-13.879304 47.696445 -52.615723
-14.069263 44.323055 -52.549976
-12.453017 41.038631 -52.69096
-10.981678 37.965603 -52.926483
-9.307819 35.027615 -53.363663
-6.137774 51.605961 -51.96748
-6.773894 48.332733 -52.530323
-7.271711 45.035702 -52.990875
-4.205596 42.682953 -53.6012
-5.823723 42.262897 -53.506073
-7.542405 41.825809 -53.350666
-7.791706 38.78508 -53.603386
-7.851699 35.53587 -53.806164
-7.777302 31.998524 -53.960194
6.063328 53.069769 -45.266886
6.393633 53.869368 -44.375755
-9.202799 29.848981 -53.297647
-9.974373 29.601412 -52.995907
-10.036037 31.330121 -53.04183
-8.53269 30.231752 -53.645315
-9.202799 29.848981 -53.297647
-16.352552 103.370098 -34.800642
-15.12592 103.376728 -34.817861
-17.02602 102.549416 -36.047327
-16.352552 103.370098 -34.800642
-16.52842 101.774574 -37.232624
-17.773129 101.671242 -37.193563
-17.02602 102.549416 -36.047327
-15.588225 28.675759 -50.709776
-16.492791 28.856154 -50.408333
-16.526499 30.68608 -50.684435
-22.419849 92.883163 -44.076842
-21.822094 94.413952 -43.238381
-20.995802 50.381531 -51.950796
-21.225516 49.049941 -51.738968
-8.785585 104.25439 -30.555977
-9.485098 104.924243 -29.277598
-8.06769 104.532768 -29.083348
-12.336562 29.208535 -52.003042
-13.125139 29.125945 -51.722349
-13.258033 30.849394 -51.855122
-1.367836 37.114916 -55.98968
-1.175801 38.450215 -55.497551
-0.646989 37.517793 -56.065439
-1.595867 35.736817 -56.333376
-2.124678 36.669237 -55.765487
-1.367836 37.114916 -55.98968
-1.003495 34.816467 -56.980782
-1.760337 34.370789 -56.75659
-1.595867 35.736817 -56.333376
-22.091135 37.343249 -49.647604
-22.051395 35.496273 -49.301939
-19.321948 36.451135 -50.604433
-20.243442 36.637644 -50.302052
-18.426082 36.316486 -50.897383
-18.461728 34.5608 -50.605275
-19.321948 36.451135 -50.604433
-19.157091 43.304062 -51.607473
-19.95387 43.474539 -51.423073
-19.905852 45.14041 -51.633253
0.740468 47.344477 -51.771853
1.133922 48.514742 -51.079407
-0.108197 47.336327 -51.940815
0.740468 47.344477 -51.771853
-1.842769 100.469955 -31.768459
-2.544419 101.337936 -30.744681
-3.29829 102.200592 -29.677578
-3.969383 102.92014 -28.539748
-2.544419 101.337936 -30.744681
-3.888812 101.95514 -31.031264
-3.29829 102.200592 -29.677578
-19.253301 29.304811 -49.342575
-20.185173 29.440495 -48.948566
-20.234243 31.315188 -49.305664
-17.286423 25.357381 -49.413477
-16.405254 25.270809 -49.796415
-13.69748 25.213499 -50.925943
-12.947281 25.514222 -51.311775
1.777308 94.116264 -36.634278
1.193752 95.357975 -35.940371
2.297617 92.863877 -37.249466
0.918284 93.69529 -37.729709
1.777308 94.116264 -36.634278
3.671635 88.844288 -38.776798
3.189665 90.206856 -38.384089
4.03102 87.425812 -39.206459
2.759625 88.237385 -39.818973
3.671635 88.844288 -38.776798
6.206106 75.012215 -40.592085
5.241305 75.931255 -41.3393
6.717239 70.105828 -40.554743
6.662577 71.779785 -40.49271
6.795176 68.485665 -40.645891
6.073295 69.283188 -41.362758
6.717239 70.105828 -40.554743
7.793249 64.590693 -39.751194
8.296125 65.38163 -38.938341
8.401798 63.800593 -38.94113
8.111504 55.826849 -40.947741
7.527922 56.619326 -41.696468
7.860455 57.41542 -40.826223
8.675038 55.039966 -40.220465
8.111504 55.826849 -40.947741
-23.495944 74.087772 -50.934055
-23.278526 76.176327 -50.617554
-23.854186 69.991894 -51.37266
-23.168031 69.047516 -51.679755
-22.40763 58.817284 -52.208323
-22.109259 56.92095 -52.206657
-6.440999 31.381208 -54.591938
-7.118275 30.891084 -54.312342
-7.100026 32.488647 -54.23979
-2.045749 30.153447 -57.694983
-2.579845 31.061654 -57.04567
-1.972879 31.620277 -57.427546
-20.623702 53.173288 -52.28298
-20.85517 51.856321 -52.11806
-21.345728 53.42157 -52.148724
5.354491 53.454188 -45.871702
4.633223 53.728341 -46.530597
4.986648 54.793669 -45.657904
5.354491 53.454188 -45.871702
6.063328 53.069769 -45.266886
-10.736244 29.482007 -52.645254
-11.567167 29.406723 -52.343117
-11.638533 31.007268 -52.437952
-10.736244 29.482007 -52.645254
-9.974373 29.601412 -52.995907
-19.032298 101.477127 -37.08229
-20.253318 101.143624 -37.00001
-18.534698 100.702286 -38.267588
-19.032298 101.477127 -37.08229
-17.773129 101.671242 -37.193563
2.266322 49.652925 -50.098259
3.050013 49.604109 -49.722421
-16.47516 26.999726 -50.080828
-17.413434 29.010047 -50.055487
-16.492791 28.856154 -50.408333
-16.405254 25.270809 -49.796415
-16.47516 26.999726 -50.080828
8.479423 62.151642 -38.923147
8.401798 63.800593 -38.94113
8.640526 60.501734 -38.917251
8.060025 61.359747 -39.748087
8.479423 62.151642 -38.923147
8.759434 58.846604 -38.916669
8.640526 60.501734 -38.917251
8.870888 57.303156 -39.084322
8.332583 58.166392 -39.909843
8.759434 58.846604 -38.916669
9.386388 56.496115 -38.276342
8.959537 55.815903 -39.269516
8.870888 57.303156 -39.084322
-22.537736 67.798199 -51.93807
-23.168031 69.047516 -51.679755
-22.422191 69.677906 -51.793007
-21.897365 66.632527 -52.147047
-22.643203 66.002137 -52.033794
-22.537736 67.798199 -51.93807
-5.072632 32.170594 -55.247433
-5.766922 31.77798 -54.964726
-5.72846 33.371386 -54.802093
-4.462978 31.05441 -55.76235
-5.072632 32.170594 -55.247433
-4.424516 32.647817 -55.599718
-3.825247 30.063699 -56.308088
-4.473363 29.586476 -55.955803
-4.462978 31.05441 -55.76235
-20.55852 46.984673 -51.683321
-21.225516 49.049941 -51.738968
-19.76174 46.814196 -51.867722
-19.905852 45.14041 -51.633253
-20.55852 46.984673 -51.683321
-20.273776 50.13325 -52.085053
-20.995802 50.381531 -51.950796
-20.85517 51.856321 -52.11806
-10.815849 105.236919 -29.467831
-9.485098 104.924243 -29.277598
-11.623224 104.913379 -30.812714
-10.815849 105.236919 -29.467831
-12.38547 104.478809 -32.156121
-11.623224 104.913379 -30.812714
-10.96524 104.211296 -32.093635
-13.099008 103.938717 -33.493189
-12.38547 104.478809 -32.156121
-13.88398 103.337108 -34.750772
-13.099008 103.938717 -33.493189
-12.512459 103.175117 -34.694626
-14.539371 102.613129 -36.019299
-15.12592 103.376728 -34.817861
-13.88398 103.337108 -34.750772
4.17845 52.755466 -47.307851
3.810607 54.094948 -47.094053
4.633223 53.728341 -46.530597
3.768378 51.772175 -48.178855
4.17845 52.755466 -47.307851
3.364394 50.618698 -48.951629
2.951849 51.968598 -48.644081
3.768378 51.772175 -48.178855
3.050013 49.604109 -49.722421
3.364394 50.618698 -48.951629
-13.007179 27.255329 -51.516592
-13.92865 28.896188 -51.368672
-13.125139 29.125945 -51.722349
-12.947281 25.514222 -51.311775
-13.007179 27.255329 -51.516592
-12.336562 29.208535 -52.003042
-11.567167 29.406723 -52.343117
-21.348158 90.768074 -45.896735
-21.881616 91.873829 -45.017977
-20.799344 92.356556 -45.099671
-21.932824 89.210194 -46.566613
-21.348158 90.768074 -45.896735
-20.850552 89.69292 -46.648306
-22.478737 87.501 -47.226278
-21.932824 89.210194 -46.566613
-22.882444 85.838432 -47.825336
-22.478737 87.501 -47.226278
-21.838923 86.472473 -47.917242
-23.225897 84.108139 -48.394705
-22.882444 85.838432 -47.825336
-23.653316 82.311753 -48.87376
-23.225897 84.108139 -48.394705
-22.670049 83.01352 -48.995356
-24.076566 80.449562 -49.271784
-23.653316 82.311753 -48.87376
-23.491579 79.324597 -49.826881
-24.076566 80.449562 -49.271784
-22.908372 78.138096 -50.303992
-23.491579 79.324597 -49.826881
-22.51426 80.030632 -49.951521
-22.301207 76.882362 -50.742193
-23.278526 76.176327 -50.617554
-22.908372 78.138096 -50.303992
-1.887822 43.402859 -53.552304
-2.436481 44.587263 -53.164766
-1.656972 44.840723 -53.108931
-2.090025 41.996926 -54.063944
-1.887822 43.402859 -53.552304
-2.27392 40.543556 -54.466192
-2.851227 41.69603 -54.010388
-2.090025 41.996926 -54.063944
-1.704683 39.445894 -54.97077
-1.175801 38.450215 -55.497551
-2.465885 39.144999 -54.917214
-2.27392 40.543556 -54.466192
-1.704683 39.445894 -54.97077
-1.303374 32.081255 -57.740427
-1.972879 31.620277 -57.427546
-1.83747 32.989462 -57.091115
-0.47423 33.911556 -57.677231
-1.003495 34.816467 -56.980782
-0.666667 32.681937 -58.071568
-0.47423 33.911556 -57.677231
-0.802076 31.312753 -58.408
-1.303374 32.081255 -57.740427
-0.666667 32.681937 -58.071568
-21.178423 33.346739 -49.28841
-22.051395 35.496273 -49.301939
-20.24655 33.211056 -49.682419
-20.234243 31.315188 -49.305664
-21.178423 33.346739 -49.28841
-21.16001 36.911223 -49.978472
-22.091135 37.343249 -49.647604
-20.274162 34.969029 -49.988745
-21.16001 36.911223 -49.978472
-20.243442 36.637644 -50.302052
-20.053332 41.755026 -51.150665
-19.95387 43.474539 -51.423073
-19.245706 39.922506 -51.146918
-20.053332 41.755026 -51.150665
-18.409636 38.068939 -51.142536
-19.245706 39.922506 -51.146918
-18.369039 39.784624 -51.392912
-17.549415 36.178604 -51.143377
-18.426082 36.316486 -50.897383
-18.409636 38.068939 -51.142536
-20.888435 99.997345 -38.16078
-21.347887 100.632798 -37.004475
-20.253318 101.143624 -37.00001
-21.491138 98.799343 -39.261154
-20.888435 99.997345 -38.16078
-20.39657 99.310169 -39.256689
-22.124525 97.517879 -40.233587
-21.491138 98.799343 -39.261154
-21.65533 96.73888 -41.306455
-22.124525 97.517879 -40.233587
-21.228603 95.780384 -42.389418
-21.65533 96.73888 -41.306455
-20.572546 97.153671 -41.440025
-20.739311 94.828743 -43.37195
-21.822094 94.413952 -43.238381
-21.228603 95.780384 -42.389418
1.473527 49.761482 -50.468437
1.75507 50.923677 -49.787033
2.266322 49.652925 -50.098259
0.622669 49.785494 -50.76818
1.473527 49.761482 -50.468437
1.133922 48.514742 -51.079407
-0.955391 47.467825 -52.1139
-0.564132 48.670252 -51.552234
-0.108197 47.336327 -51.940815
-1.352543 46.079513 -52.611937
-1.808479 47.413438 -52.223356
-0.955391 47.467825 -52.1139
-1.656972 44.840723 -53.108931
-1.352543 46.079513 -52.611937
-2.505819 100.177441 -33.041727
-3.344807 99.900097 -34.316687
-3.973929 100.81514 -33.373325
-2.505819 100.177441 -33.041727
-1.842769 100.469955 -31.768459
-6.659928 104.044693 -28.889492
-8.06769 104.532768 -29.083348
-5.29718 103.522133 -28.690709
-4.623882 103.624478 -27.266295
-3.969383 102.92014 -28.539748
-6.005429 103.340355 -30.162944
-6.659928 104.044693 -28.889492
-5.29718 103.522133 -28.690709
-18.300017 27.291868 -49.35673
-19.253301 29.304811 -49.342575
-18.349086 29.166561 -49.713827
-18.300017 27.291868 -49.35673
-17.286423 25.357381 -49.413477
-14.682603 26.935702 -50.798294
-15.588225 28.675759 -50.709776
-14.716311 28.765628 -51.074396
-14.682603 26.935702 -50.798294
-13.69748 25.213499 -50.925943
6.800649 54.705944 -43.523037
6.393633 53.869368 -44.375755
6.114931 55.356093 -44.14629
-2.731054 98.900307 -35.213403
-4.199165 99.538006 -35.545002
-3.344807 99.900097 -34.316687
-2.160744 97.913395 -36.023573
-2.731054 98.900307 -35.213403
-1.5668 96.777324 -36.821815
-2.991467 97.402146 -37.239961
-2.160744 97.913395 -36.023573
-0.169052 96.118126 -36.359974
1.193752 95.357975 -35.940371
-0.999774 95.606876 -37.576363
-1.5668 96.777324 -36.821815
-0.169052 96.118126 -36.359974
2.708842 91.600377 -37.861881
2.297617 92.863877 -37.249466
1.919417 91.049382 -38.867106
2.708842 91.600377 -37.861881
3.189665 90.206856 -38.384089
4.315621 86.008629 -39.592106
4.03102 87.425812 -39.206459
5.227632 86.615532 -38.549931
3.542821 85.33714 -40.472629
4.315621 86.008629 -39.592106
2.760789 84.543678 -41.35673
2.336977 86.025448 -41.132734
3.542821 85.33714 -40.472629
3.149369 82.944828 -41.571791
1.943526 83.633137 -42.231896
2.760789 84.543678 -41.35673
3.3619 81.416332 -41.815109
3.149369 82.944828 -41.571791
3.65944 79.833603 -41.9589
2.629645 80.451557 -42.590748
3.3619 81.416332 -41.815109
3.949204 78.273842 -42.028715
3.65944 79.833603 -41.9589
4.303967 76.647862 -42.040684
3.281947 77.242847 -42.746507
3.949204 78.273842 -42.028715
4.574047 74.900261 -42.057092
4.303967 76.647862 -42.040684
5.241305 75.931255 -41.3393
6.42059 73.419937 -40.534759
6.206106 75.012215 -40.592085
5.753371 72.543503 -41.313659
6.42059 73.419937 -40.534759
6.662577 71.779785 -40.49271
8.245236 67.020508 -38.960217
8.296125 65.38163 -38.938341
7.563348 67.740017 -39.79314
8.245236 67.020508 -38.960217
6.919403 66.917378 -40.601156
6.795176 68.485665 -40.645891
7.563348 67.740017 -39.79314
7.150459 55.611711 -42.555779
6.89941 57.200283 -42.434261
7.527922 56.619326 -41.696468
6.800649 54.705944 -43.523037
7.150459 55.611711 -42.555779
8.675038 55.039966 -40.220465
8.959537 55.815903 -39.269516
-22.419849 92.883163 -44.076842
-21.881616 91.873829 -45.017977
-23.686506 72.091087 -51.173523
-23.495944 74.087772 -50.934055
-22.861924 72.923908 -51.295224
-23.686506 72.091087 -51.173523
-23.854186 69.991894 -51.37266
-22.698614 64.077904 -52.105323
-22.643203 66.002137 -52.033794
-22.682944 62.304051 -52.156629
-22.698614 64.077904 -52.105323
-21.987161 63.062611 -52.294077
-22.525526 60.486919 -52.202486
-22.682944 62.304051 -52.156629
-21.853595 59.619121 -52.351219
-22.40763 58.817284 -52.208323
-22.525526 60.486919 -52.202486
-21.79854 55.315476 -52.184951
-21.345728 53.42157 -52.148724
-21.424979 56.344012 -52.33535
-21.79854 55.315476 -52.184951
-22.109259 56.92095 -52.206657
-7.789109 30.442169 -53.953627
-8.53269 30.231752 -53.645315
-8.520882 31.788107 -53.651882
-7.789109 30.442169 -53.953627
-7.118275 30.891084 -54.312342
-5.78517 30.180416 -55.037278
-6.440999 31.381208 -54.591938
-5.766922 31.77798 -54.964726
-3.233788 30.563229 -56.713871
-3.160918 32.030058 -56.446434
-2.579845 31.061654 -57.04567
-3.244174 29.095294 -56.907324
-3.825247 30.063699 -56.308088
-3.233788 30.563229 -56.713871
3 0 82 80
3 1 85 83
3 1 88 86
3 1 83 88
3 322 321 90
3 2 323 325
3 325 324 91
3 323 324 325
3 2 326 327
3 3 94 92
3 5 97 95
3 5 99 97
3 3 102 100
3 3 92 102
3 4 106 104
3 7 109 107
3 7 111 109
3 8 114 112
3 10 117 115
3 10 119 117
3 11 328 329
3 11 330 331
3 11 332 334
3 332 121 333
3 332 333 334
3 8 124 122
3 8 112 124
3 13 128 126
3 6 335 337
3 337 336 129
3 335 336 337
3 15 133 131
3 17 136 134
3 17 138 136
3 9 141 139
3 18 144 142
3 18 146 144
3 18 148 146
3 19 151 149
3 19 153 151
3 12 338 339
3 15 157 155
3 15 131 157
3 16 161 159
3 20 164 162
3 20 166 164
3 14 169 167
3 21 172 170
3 21 174 172
3 21 175 174
3 340 176 341
3 23 177 81
3 23 178 177
3 24 181 179
3 26 182 84
3 26 183 182
3 27 342 344
3 342 184 343
3 342 343 344
3 28 185 87
3 28 186 185
3 28 188 186
3 24 189 89
3 24 179 189
3 30 192 190
3 32 345 347
3 347 346 193
3 345 346 347
3 33 197 195
3 35 198 93
3 35 199 198
3 36 202 200
3 38 203 96
3 38 204 203
3 38 206 204
3 40 207 98
3 40 208 207
3 41 210 209
3 42 211 101
3 42 212 211
3 42 213 212
3 33 214 103
3 33 195 214
3 44 217 215
3 46 218 105
3 46 219 218
3 348 221 349
3 348 349 350
3 351 222 352
3 353 352 221
3 351 352 353
3 354 224 355
3 356 355 222
3 354 355 356
3 357 225 358
3 359 226 360
3 361 227 362
3 363 362 226
3 361 362 363
3 22 364 366
3 364 228 365
3 364 365 366
3 49 229 108
3 49 230 229
3 49 231 230
3 50 232 110
3 50 233 232
3 51 236 234
3 53 237 113
3 53 238 237
3 25 239 180
3 54 240 116
3 54 241 240
3 54 242 241
3 55 243 118
3 55 244 243
3 56 245 120
3 56 246 245
3 29 247 187
3 57 248 123
3 57 249 248
3 57 250 249
3 51 251 125
3 51 234 251
3 58 254 252
3 60 255 127
3 60 256 255
3 31 257 191
3 367 258 368
3 370 369 258
3 372 371 259
3 373 260 374
3 375 259 376
3 377 376 260
3 375 376 377
3 48 378 380
3 378 379 380
3 382 381 130
3 384 383 194
3 61 263 261
3 63 264 132
3 63 265 264
3 34 266 196
3 64 267 135
3 64 268 267
3 64 269 268
3 65 270 137
3 65 271 270
3 52 272 235
3 66 273 140
3 66 274 273
3 37 275 201
3 67 276 143
3 67 277 276
3 67 278 277
3 68 279 145
3 68 280 279
3 68 281 280
3 69 282 147
3 69 283 282
3 39 284 205
3 70 285 150
3 70 286 285
3 70 287 286
3 71 288 152
3 71 289 288
3 385 290 386
3 387 291 388
3 389 388 290
3 387 388 389
3 390 292 391
3 392 293 393
3 394 393 292
3 392 393 394
3 395 294 396
3 397 295 398
3 399 296 400
3 401 400 295
3 399 400 401
3 72 402 404
3 402 297 403
3 402 403 404
3 72 298 297
3 72 299 298
3 73 300 154
3 73 405 407
3 407 406 300
3 405 406 407
3 73 408 409
3 43 410 411
3 413 412 156
3 61 301 158
3 61 261 301
3 414 302 415
3 62 303 262
3 74 304 160
3 74 305 304
3 45 306 216
3 75 307 163
3 75 308 307
3 75 309 308
3 76 310 165
3 76 311 310
3 59 312 253
3 77 313 168
3 77 314 313
3 47 315 220
3 78 316 171
3 78 317 316
3 78 318 317
3 79 319 173
3 79 320 319
3 79 416 418
3 418 417 320
3 416 417 418
3 421 420 223
3 419 420 421
3 80 422 424
3 422 81 423
3 422 423 424
3 82 81 80
3 82 23 81
3 83 84 24
3 85 84 83
3 85 26 84
3 86 87 27
3 88 87 86
3 88 28 87
3 88 89 28
3 83 89 88
3 83 24 89
3 90 425 427
3 427 426 30
3 425 426 427
3 429 428 90
3 91 430 432
3 432 431 32
3 430 431 432
3 434 433 91
3 92 93 33
3 94 93 92
3 94 35 93
3 95 96 36
3 97 96 95
3 97 38 96
3 97 98 38
3 99 98 97
3 99 40 98
3 100 101 41
3 102 101 100
3 102 42 101
3 102 103 42
3 92 103 102
3 92 33 103
3 104 105 44
3 106 105 104
3 106 46 105
3 107 108 22
3 109 108 107
3 109 49 108
3 109 110 49
3 111 110 109
3 111 50 110
3 112 113 51
3 114 113 112
3 114 53 113
3 115 116 25
3 117 116 115
3 117 54 116
3 117 118 54
3 119 118 117
3 119 55 118
3 435 120 436
3 121 437 439
3 437 120 438
3 437 438 439
3 121 56 120
3 122 123 29
3 124 123 122
3 124 57 123
3 124 125 57
3 112 125 124
3 112 51 125
3 126 127 58
3 128 127 126
3 128 60 127
3 441 440 31
3 129 130 48
3 442 130 443
3 444 443 129
3 442 443 444
3 446 445 130
3 131 132 61
3 133 132 131
3 133 63 132
3 134 135 34
3 136 135 134
3 136 64 135
3 136 137 64
3 138 137 136
3 138 65 137
3 139 140 52
3 141 140 139
3 141 66 140
3 142 143 37
3 144 143 142
3 144 67 143
3 144 145 67
3 146 145 144
3 146 68 145
3 146 147 68
3 148 147 146
3 148 69 147
3 149 150 39
3 151 150 149
3 151 70 150
3 151 152 70
3 153 152 151
3 153 71 152
3 447 72 448
3 449 154 450
3 451 450 72
3 449 450 451
3 452 154 453
3 454 73 455
3 456 455 154
3 454 455 456
3 459 458 73
3 457 458 459
3 155 156 43
3 157 156 155
3 157 460 462
3 462 461 156
3 460 461 462
3 157 463 465
3 463 158 464
3 463 464 465
3 131 158 157
3 131 61 158
3 159 160 62
3 161 160 159
3 161 74 160
3 162 163 45
3 164 163 162
3 164 75 163
3 164 165 75
3 166 165 164
3 166 76 165
3 167 168 59
3 169 168 167
3 169 77 168
3 170 171 47
3 172 171 170
3 172 78 171
3 172 173 78
3 174 173 172
3 174 79 173
3 174 466 468
3 468 467 79
3 466 467 468
3 175 469 471
3 471 470 174
3 469 470 471
3 175 472 474
3 472 473 474
3 176 475 476
3 176 477 479
3 477 22 478
3 477 478 479
3 81 480 482
3 480 176 481
3 480 481 482
3 177 176 81
3 177 22 176
3 177 107 22
3 178 107 177
3 178 7 107
3 179 180 8
3 181 180 179
3 181 25 180
3 84 181 24
3 182 181 84
3 182 25 181
3 182 115 25
3 183 115 182
3 183 10 115
3 184 483 484
3 184 485 486
3 87 184 27
3 185 184 87
3 185 487 489
3 489 488 184
3 487 488 489
3 185 490 491
3 186 492 494
3 494 493 185
3 492 493 494
3 186 495 497
3 495 11 496
3 495 496 497
3 186 187 11
3 188 187 186
3 188 29 187
3 89 188 28
3 189 188 89
3 189 29 188
3 189 122 29
3 179 122 189
3 179 8 122
3 190 191 13
3 192 191 190
3 192 31 191
3 498 192 499
3 500 499 30
3 498 499 500
3 501 192 502
3 503 31 504
3 505 504 192
3 503 504 505
3 507 506 31
3 193 194 6
3 508 194 509
3 510 509 193
3 508 509 510
3 512 511 194
3 514 513 32
3 195 196 15
3 197 196 195
3 197 34 196
3 93 197 33
3 198 197 93
3 198 34 197
3 198 134 34
3 199 134 198
3 199 17 134
3 200 201 9
3 202 201 200
3 202 37 201
3 96 202 36
3 203 202 96
3 203 37 202
3 203 142 37
3 204 142 203
3 204 18 142
3 204 205 18
3 206 205 204
3 206 39 205
3 98 206 38
3 207 206 98
3 207 39 206
3 207 149 39
3 208 149 207
3 208 19 149
3 209 515 517
3 517 516 12
3 515 516 517
3 210 518 520
3 520 519 209
3 518 519 520
3 210 521 522
3 101 210 41
3 211 210 101
3 211 523 525
3 525 524 210
3 523 524 525
3 211 526 527
3 212 528 530
3 530 529 211
3 528 529 530
3 212 531 532
3 212 533 534
3 213 535 537
3 537 536 212
3 535 536 537
3 213 538 540
3 538 43 539
3 538 539 540
3 103 213 42
3 214 213 103
3 214 43 213
3 214 155 43
3 195 155 214
3 195 15 155
3 215 216 16
3 217 216 215
3 217 45 216
3 105 217 44
3 218 217 105
3 218 45 217
3 218 162 45
3 219 162 218
3 219 20 162
3 541 220 542
3 543 542 14
3 541 542 543
3 544 220 545
3 546 47 547
3 548 547 220
3 546 547 548
3 221 549 550
3 221 551 553
3 551 47 552
3 551 552 553
3 221 170 47
3 222 170 221
3 222 21 170
3 222 223 21
3 224 223 222
3 224 554 556
3 556 555 223
3 554 555 556
3 557 224 558
3 559 224 560
3 563 562 224
3 561 562 563
3 225 564 565
3 225 566 568
3 566 48 567
3 566 567 568
3 569 225 570
3 226 571 573
3 571 225 572
3 571 572 573
3 226 48 225
3 226 129 48
3 227 129 226
3 227 6 129
3 228 574 575
3 228 576 577
3 108 228 22
3 229 228 108
3 229 578 580
3 580 579 228
3 578 579 580
3 229 581 583
3 581 227 582
3 581 582 583
3 230 227 229
3 230 6 227
3 230 193 6
3 231 193 230
3 231 32 193
3 110 231 49
3 232 231 110
3 232 32 231
3 232 91 32
3 233 91 232
3 233 2 91
3 234 235 3
3 236 235 234
3 236 52 235
3 113 236 51
3 237 236 113
3 237 52 236
3 237 139 52
3 238 139 237
3 238 9 139
3 180 114 8
3 239 114 180
3 239 53 114
3 116 239 25
3 240 239 116
3 240 53 239
3 240 238 53
3 241 238 240
3 241 9 238
3 241 200 9
3 242 200 241
3 242 36 200
3 118 242 54
3 243 242 118
3 243 36 242
3 243 95 36
3 244 95 243
3 244 5 95
3 120 584 586
3 584 585 586
3 245 587 589
3 589 588 120
3 587 588 589
3 245 590 591
3 245 592 593
3 246 594 596
3 596 595 245
3 594 595 596
3 246 597 599
3 597 12 598
3 597 598 599
3 187 121 11
3 247 121 187
3 247 56 121
3 123 247 29
3 248 247 123
3 248 56 247
3 248 246 56
3 249 246 248
3 249 12 246
3 249 209 12
3 250 209 249
3 250 41 209
3 125 250 57
3 251 250 125
3 251 41 250
3 251 100 41
3 234 100 251
3 234 3 100
3 252 253 4
3 254 253 252
3 254 59 253
3 127 254 58
3 255 254 127
3 255 59 254
3 255 167 59
3 256 167 255
3 256 14 167
3 191 128 13
3 257 128 191
3 257 60 128
3 600 257 601
3 602 601 31
3 600 601 602
3 258 603 605
3 603 257 604
3 603 604 605
3 258 60 257
3 258 256 60
3 606 256 607
3 608 607 258
3 606 607 608
3 609 14 610
3 611 610 256
3 609 610 611
3 613 612 14
3 259 614 616
3 616 615 1
3 614 615 616
3 618 617 259
3 619 27 620
3 260 621 623
3 621 622 623
3 260 624 626
3 624 27 625
3 624 625 626
3 260 86 27
3 259 86 260
3 259 1 86
3 130 627 629
3 629 628 48
3 627 628 629
3 631 630 130
3 194 632 634
3 634 633 6
3 632 633 634
3 636 635 194
3 261 262 0
3 263 262 261
3 263 62 262
3 132 263 61
3 264 263 132
3 264 62 263
3 264 159 62
3 265 159 264
3 265 16 159
3 196 133 15
3 266 133 196
3 266 63 133
3 135 266 34
3 267 266 135
3 267 63 266
3 267 265 63
3 268 265 267
3 268 16 265
3 268 215 16
3 269 215 268
3 269 44 215
3 137 269 64
3 270 269 137
3 270 44 269
3 270 104 44
3 271 104 270
3 271 4 104
3 235 94 3
3 272 94 235
3 272 35 94
3 140 272 52
3 273 272 140
3 273 35 272
3 273 199 35
3 274 199 273
3 274 17 199
3 201 141 9
3 275 141 201
3 275 66 141
3 143 275 37
3 276 275 143
3 276 66 275
3 276 274 66
3 277 274 276
3 277 17 274
3 277 138 17
3 278 138 277
3 278 65 138
3 145 278 67
3 279 278 145
3 279 65 278
3 279 271 65
3 280 271 279
3 280 4 271
3 280 252 4
3 281 252 280
3 281 58 252
3 147 281 68
3 282 281 147
3 282 58 281
3 282 126 58
3 283 126 282
3 283 13 126
3 205 148 18
3 284 148 205
3 284 69 148
3 150 284 39
3 285 284 150
3 285 69 284
3 285 283 69
3 286 283 285
3 286 13 283
3 286 190 13
3 287 190 286
3 287 30 190
3 152 287 70
3 288 287 152
3 288 30 287
3 288 90 30
3 289 90 288
3 289 637 639
3 639 638 90
3 637 638 639
3 640 85 641
3 642 641 1
3 640 641 642
3 643 85 644
3 645 26 646
3 647 646 85
3 645 646 647
3 290 648 649
3 290 650 652
3 650 26 651
3 650 651 652
3 290 183 26
3 291 183 290
3 291 10 183
3 653 291 654
3 292 655 657
3 655 291 656
3 655 656 657
3 292 10 291
3 292 119 10
3 293 119 292
3 293 55 119
3 658 293 659
3 658 659 660
3 661 293 662
3 663 55 664
3 665 664 293
3 663 664 665
3 666 244 667
3 668 667 55
3 666 667 668
3 669 244 670
3 671 5 672
3 673 672 244
3 671 672 673
3 674 5 675
3 676 99 677
3 678 677 5
3 676 677 678
3 294 679 681
3 679 99 680
3 679 680 681
3 294 40 99
3 682 294 683
3 295 684 686
3 684 294 685
3 684 685 686
3 295 40 294
3 295 208 40
3 296 208 295
3 296 19 208
3 297 687 688
3 297 689 690
3 297 691 693
3 691 296 692
3 691 692 693
3 298 296 297
3 298 19 296
3 298 153 19
3 299 153 298
3 299 71 153
3 154 299 72
3 300 299 154
3 300 71 299
3 300 289 71
3 694 289 695
3 696 695 300
3 694 695 696
3 698 697 289
3 700 699 73
3 702 701 12
3 156 703 705
3 705 704 43
3 703 704 705
3 707 706 156
3 158 708 709
3 301 710 712
3 712 711 158
3 710 711 712
3 301 713 714
3 301 715 717
3 715 302 716
3 715 716 717
3 261 302 301
3 261 0 302
3 718 80 719
3 302 720 722
3 720 80 721
3 720 721 722
3 302 0 80
3 262 82 0
3 303 82 262
3 303 23 82
3 160 303 62
3 304 303 160
3 304 23 303
3 304 178 23
3 305 178 304
3 305 7 178
3 216 161 16
3 306 161 216
3 306 74 161
3 163 306 45
3 307 306 163
3 307 74 306
3 307 305 74
3 308 305 307
3 308 7 305
3 308 111 7
3 309 111 308
3 309 50 111
3 165 309 75
3 310 309 165
3 310 50 309
3 310 233 50
3 311 233 310
3 311 2 233
3 253 106 4
3 312 106 253
3 312 46 106
3 168 312 59
3 313 312 168
3 313 46 312
3 313 219 46
3 314 219 313
3 314 20 219
3 220 169 14
3 315 169 220
3 315 77 169
3 171 315 47
3 316 315 171
3 316 77 315
3 316 314 77
3 317 314 316
3 317 20 314
3 317 166 20
3 318 166 317
3 318 76 166
3 173 318 78
3 319 318 173
3 319 76 318
3 319 311 76
3 320 311 319
3 320 2 311
3 320 723 725
3 725 724 2
3 723 724 725
3 727 726 320
3 730 729 79
3 728 729 730
3 223 175 21
3 731 175 732
3 733 732 223
3 731 732 733
3 736 735 175
3 734 735 736
