ply
format ascii 1.0
element vertex 789
property float x
property float y
property float z
element face 945
property list uchar int vertex_index
end_header
15.770384 19.823299 -21.647617
7.079351 53.219219 -43.752502
13.501556 38.421734 -31.474936
16.637897 14.193645 -11.092503
14.797931 28.089905 -25.86307
17.589762 29.067917 -34.95266
19.173136 20.260698 -28.658756
19.403397 11.557962 -7.448521
20.06815 4.045437 -9.326323
22.518356 0.688836 -5.017037
4.524652 45.870422 -51.033966
11.195627 47.344051 -37.70937
10.278909 43.411259 -47.006283
14.753637 37.472233 -41.211712
13.67175 27.895699 -18.814072
15.576838 17.085634 -16.251871
14.912522 27.145908 -13.550119
12.320109 50.849705 -29.577995
13.085152 39.913818 -23.335815
19.537027 13.339046 -22.03451
19.400257 8.12622 -14.9815
15.273171 23.466028 -23.47094
16.698603 23.728895 -27.252743
17.205872 19.597523 -24.599867
20.652552 5.955794 -6.309343
22.810778 4.799997 -4.66835
5.678085 49.859959 -47.443665
12.51213 43.311134 -34.526249
12.694709 41.893986 -39.316936
14.112998 37.87606 -36.165794
13.709452 33.954002 -17.791292
14.030133 27.68243 -15.970418
11.44636 55.403679 -32.980465
14.6113 46.744373 -19.787746
13.519922 46.53767 -22.840754
13.568707 40.304974 -20.181709
13.306085 34.046883 -20.892105
15.901013 15.705831 -13.546598
17.28134 12.324363 -15.566113
17.489849 10.650105 -12.690426
22.503397 -0.258792 -8.620264
22.024481 2.037099 -11.47241
-0.016295 41.389221 -54.516262
12.59774 39.734653 -49.370541
9.624811 41.331745 -51.713696
14.157102 33.422016 -28.408224
15.168272 33.333366 -33.039062
16.03688 28.409618 -30.050537
18.485043 24.561495 -31.728247
17.789938 12.889524 -9.063014
18.187336 8.668803 -10.156691
19.156353 7.299252 -8.041495
21.065975 2.133911 -7.043036
1.197873 46.1502 -52.164555
3.286331 42.012886 -54.213032
9.456373 50.518021 -40.802959
8.445346 47.990509 -45.073193
10.754557 45.409679 -42.31078
12.710616 40.868866 -44.33905
15.036742 37.395069 -46.593624
16.356121 33.426601 -38.076279
14.479213 23.106113 -20.167067
15.559017 18.467215 -19.05599
14.366546 22.344215 -17.263119
14.723828 21.456038 -14.626406
15.551583 20.460873 -12.190374
16.806643 19.147751 -10.227717
10.353768 53.217663 -36.809429
11.673503 49.071606 -33.52227
12.545908 44.287266 -30.171745
13.305892 52.13522 -25.936878
12.793027 45.591999 -26.41678
13.097261 39.026192 -27.194925
13.483118 33.680874 -24.39291
13.898439 28.210323 -22.114229
17.325132 16.647635 -21.845013
17.253422 14.378525 -18.777065
19.42083 10.597263 -18.446175
22.067844 7.229806 -18.330969
19.646107 5.857807 -11.942741
22.02552 4.36117 -14.669696
7.50898 45.082863 -49.285118
6.429564 42.011696 -53.356174
19.41856 16.504137 -25.31613
15.545788 21.310804 -22.408566
16.192823 21.389696 -24.076124
16.351789 19.627478 -22.872217
5.001066 52.388859 -46.744396
6.41874 51.620022 -45.534763
13.051982 40.908585 -33.058899
13.222508 40.48901 -35.315857
13.745407 38.281487 -33.750843
14.024439 37.177952 -17.568159
14.081804 33.776695 -16.498722
14.000788 43.633606 -19.9786
14.000315 40.540554 -18.764048
13.614765 37.237362 -19.005957
16.212353 14.988063 -12.259239
16.666588 13.034801 -13.10327
16.922676 12.321252 -11.799616
23.863245 -2.184386 -8.344473
23.59919 -1.038158 -9.763303
1.047975 39.422447 -55.68964
-0.454954 38.853092 -55.573311
12.310881 39.196274 -51.989182
14.47219 30.733225 -27.043129
15.005258 30.74239 -29.151543
15.386925 28.252796 -27.951511
17.874529 21.921776 -28.00028
17.591269 24.055183 -29.463293
18.955683 22.252005 -30.242022
18.522884 12.340609 -8.23081
18.379601 10.022124 -8.607068
19.08622 9.341042 -7.725604
21.536572 3.220647 -5.657043
20.681847 3.941954 -6.614969
21.684855 1.50374 -5.983401
22.117867 -0.007904 -6.548535
22.724457 -0.781831 -5.505849
3.552162 48.393097 -50.027988
1.98478 48.49073 -50.779663
2.878182 46.250477 -51.574654
2.185599 44.054649 -53.053989
3.775328 43.984558 -52.704578
10.410015 48.865124 -39.333252
10.025327 47.871605 -41.544857
11.017369 46.19891 -40.058113
13.597275 39.701786 -40.23275
12.679545 41.495243 -41.716728
13.775928 39.296471 -42.827259
13.857929 38.983917 -45.433525
14.963898 37.403446 -43.979111
16.286312 31.093664 -33.973938
15.719032 33.477089 -35.578976
17.041096 31.268528 -36.581345
13.992917 25.258516 -19.420515
14.379296 22.641563 -18.683058
13.983003 24.938477 -17.911606
14.413662 27.303732 -14.695873
14.315395 24.488134 -15.277479
14.697246 23.988718 -13.989057
15.078503 21.012962 -13.346863
15.17311 23.809757 -12.845312
16.414507 22.440378 -10.907844
17.563465 18.670429 -9.429261
9.475037 55.008862 -38.461536
11.940031 53.053131 -31.266325
11.513338 52.152477 -33.057381
11.971468 49.855591 -31.454344
12.158311 46.828617 -31.764126
12.342095 47.666908 -29.722593
13.191743 43.185295 -23.10483
13.08612 46.094166 -24.625647
12.952221 42.782806 -24.904093
12.842831 42.257931 -26.730568
13.033535 39.306168 -25.194252
13.298717 36.382107 -25.751148
13.174754 36.724144 -23.8939
13.448314 31.084757 -19.836517
13.499709 30.885698 -21.448067
13.702745 28.073009 -20.35244
14.158882 25.588919 -21.094669
15.486334 17.929113 -17.674999
16.304306 16.377657 -18.777014
16.35218 15.413348 -17.360813
18.302597 10.11979 -15.240389
18.244198 11.296176 -16.905071
19.393126 9.331918 -16.686668
20.717873 8.831404 -18.373735
20.591246 7.576759 -16.548811
19.078606 6.283673 -9.784349
18.775032 7.154504 -10.990305
19.871992 4.823431 -10.622087
22.040707 3.119056 -13.042845
9.34791 45.623825 -45.851059
7.931114 46.618904 -47.215084
8.950401 44.399063 -48.139172
8.03511 41.830597 -52.555729
7.583994 40.459362 -54.631912
5.906688 40.485771 -55.13279
18.354805 14.938001 -21.885479
18.336597 16.342569 -23.419025
19.545048 14.855602 -23.757275
15.017047 25.7784 -24.618792
15.695475 25.833874 -26.645046
15.957536 23.537985 -25.345364
16.946207 21.581692 -25.874153
18.066757 19.874098 -26.443823
19.936834 8.781098 -6.913162
20.967751 8.007919 -6.110141
21.677273 5.260693 -5.460317
22.526503 2.595079 -4.761594
4.180923 50.422276 -48.486404
5.107872 47.787689 -49.309052
11.909719 45.354458 -36.201923
11.863657 44.54018 -38.366383
12.605894 42.55164 -36.827606
13.473065 39.925804 -37.71941
14.408243 37.745361 -38.713966
18.961226 27.323032 -35.820499
18.435442 29.503881 -37.663242
13.572618 30.777111 -18.271828
13.793329 27.625618 -17.288006
13.821352 30.66926 -16.865604
14.228806 30.786993 -15.532023
14.744718 30.535023 -14.345993
12.083695 56.507374 -31.136007
12.479255 54.114399 -29.418653
13.996055 49.674023 -22.688522
14.037299 46.763893 -21.237043
13.546597 43.51091 -21.481443
13.284135 40.110252 -21.601994
13.189446 36.950405 -22.125866
13.334272 37.024239 -20.501499
13.44189 33.943466 -19.247715
15.722299 16.303753 -14.832928
16.36735 14.660743 -15.927656
16.503851 13.753873 -14.467749
17.436422 11.269319 -14.102243
18.351774 9.137512 -13.672262
21.277113 1.729652 -8.921646
20.940063 2.815601 -10.190002
22.184511 0.894605 -9.985554
-1.108314 43.656319 -53.496468
-1.512718 40.844452 -54.519749
11.314211 41.552402 -48.12801
9.949978 42.393517 -49.420147
11.093491 40.729912 -50.544327
10.784547 39.91531 -52.884331
13.881401 35.831997 -29.9254
14.265712 35.725758 -32.272511
14.674098 33.170597 -30.636385
15.651365 30.838766 -31.55899
16.838945 28.616817 -32.469662
16.438026 25.968742 -28.694178
17.184593 26.491869 -31.005571
18.141506 26.72366 -33.374405
19.605026 25.02919 -34.290104
17.162601 13.496894 -10.019548
17.313669 11.481401 -10.643981
17.792105 10.737965 -9.575804
18.596823 7.997897 -9.050905
19.477989 5.480424 -8.615496
19.875908 6.448666 -7.124324
20.026939 4.630994 -7.587741
20.53878 2.992309 -8.176007
21.661848 0.787009 -7.747064
22.820599 -1.182826 -7.330189
24.137857 -3.164264 -6.907279
-0.499456 46.1339 -52.50248
0.551196 43.646591 -53.465019
1.639277 41.785622 -54.41877
2.628823 39.942478 -55.657734
8.337428 52.025585 -42.27478
7.8072 50.463821 -44.219887
8.971174 49.22678 -42.94849
9.695312 46.759819 -43.682739
10.58864 44.338852 -44.620419
11.755322 43.836269 -40.760864
11.690456 43.031929 -43.130093
11.587182 42.231335 -45.594341
12.686348 40.303417 -46.844608
13.911024 38.623821 -48.029079
14.708333 35.613155 -34.691128
15.190147 35.565742 -37.361382
15.617129 35.519581 -39.741993
17.672783 31.764908 -39.391171
16.911438 33.675224 -40.91074
15.9643 35.639397 -42.453217
16.313305 35.678055 -45.214493
15.13402 21.136513 -20.925602
15.646318 19.228035 -20.527197
14.96555 20.644585 -19.509972
14.857209 20.282162 -18.096081
14.903612 19.679321 -16.747414
14.102258 24.637968 -16.50844
14.517402 21.757034 -15.890824
15.051956 19.001766 -15.30711
15.240808 18.645809 -13.964992
15.570667 17.994093 -12.800394
16.035353 17.117704 -11.649257
15.767008 23.129362 -11.799821
16.122335 19.636623 -11.166677
16.569969 16.465635 -10.611567
17.226845 16.005323 -9.656914
17.998785 15.385346 -8.81402
7.778971 55.030754 -41.817986
8.90604 53.456989 -40.363434
9.912557 51.878822 -38.724007
10.723694 50.148697 -37.169743
10.911545 54.373573 -34.748657
11.093639 51.336597 -35.036572
11.414926 48.254848 -35.605137
12.010753 46.119595 -33.988762
12.53229 43.677353 -32.297432
12.941226 41.205299 -30.805103
13.123526 54.824585 -27.536762
12.774565 51.494774 -27.685867
13.404604 49.231842 -24.400188
12.960763 48.701199 -26.068371
12.605118 48.210068 -27.880659
12.60769 45.030544 -28.322273
12.838402 41.797192 -28.66954
13.247703 38.849426 -29.310736
13.505356 36.31636 -27.752357
13.763568 33.635963 -26.409342
14.006728 30.851791 -25.037498
13.326328 33.840443 -22.609909
13.684813 30.832005 -23.157097
14.238689 28.304108 -23.896578
14.493759 25.688774 -22.734564
14.819618 23.130459 -21.726257
16.419107 18.308096 -21.679235
16.371529 17.289221 -20.292524
17.280674 15.448832 -20.287537
18.330015 13.661294 -20.298004
17.275352 13.285766 -17.206757
18.295666 12.446203 -18.645491
19.455776 11.952368 -20.239605
20.721228 10.285841 -20.187672
17.794098 9.657481 -11.390041
18.552258 8.106492 -12.344067
19.522022 6.955884 -13.478999
20.860252 3.809629 -11.738295
20.778837 4.945787 -13.287456
20.740295 6.164931 -14.92329
22.014275 5.853314 -16.552505
7.114876 49.111855 -46.24007
6.618838 47.388573 -48.193325
6.055964 45.597881 -50.203308
8.464456 43.146034 -50.429066
6.974022 43.558678 -51.382603
5.405552 43.828838 -52.142864
4.869245 42.025818 -53.914089
4.238549 40.151749 -55.607819
3.681157 38.36602 -57.033447
17.253048 18.051128 -23.205515
18.221628 17.973936 -24.891226
19.295418 18.317987 -26.954556
6.749045 52.419621 -44.643632
6.063328 53.069769 -45.266886
6.393633 53.869368 -44.375755
14.291104 37.097307 -16.910073
14.299815 38.866571 -17.471083
14.287752 40.547872 -18.069028
14.279827 42.088873 -18.673223
14.299815 38.866571 -17.471083
14.012377 38.859253 -18.166103
14.287752 40.547872 -18.069028
24.459018 -2.513184 -8.946036
24.529431 -3.058891 -8.173319
0.797917 38.18131 -56.274938
1.567961 38.548872 -56.370653
19.76826 20.528742 -29.823763
19.659534 21.524396 -30.615396
19.06441 21.256352 -29.450389
8.152764 39.812123 -55.306486
8.397386 40.366383 -54.268332
7.310562 39.783343 -55.576813
8.152764 39.812123 -55.306486
21.258937 9.18508 -6.066487
20.691598 9.575572 -6.423412
22.244025 5.030345 -5.064334
21.890949 6.45868 -5.426152
22.457701 6.228333 -5.030169
19.417322 27.666622 -37.224779
19.723522 26.658819 -36.417406
14.431401 32.309995 -15.389632
14.155305 32.281844 -16.015373
14.3579 33.804845 -15.872981
14.689357 32.18401 -14.796616
14.486762 30.661008 -14.939008
14.431401 32.309995 -15.389632
12.436438 56.824347 -30.196649
12.207768 58.153477 -31.130371
12.634218 55.627859 -29.337972
12.281475 55.310886 -30.27733
12.436438 56.824347 -30.196649
14.3243 46.754133 -20.512394
14.356248 48.41955 -21.208125
14.643248 48.40979 -20.483477
23.467014 -0.392992 -10.492449
24.196936 -1.253099 -10.435588
-1.175801 38.450215 -55.497551
-0.646989 37.517793 -56.065439
11.405504 39.218237 -53.687055
11.547714 39.555792 -52.436757
12.168671 38.858719 -53.239481
10.592377 39.451923 -54.065365
11.405504 39.218237 -53.687055
23.078992 -1.668586 -6.71253
22.469233 -0.595365 -6.939362
22.727626 -1.081125 -6.321703
23.737621 -2.659305 -6.501075
23.479228 -2.173545 -7.118734
23.078992 -1.668586 -6.71253
0.740468 47.344477 -51.771853
1.133922 48.514742 -51.079407
1.591327 47.320465 -51.472109
0.349208 46.14205 -52.333517
-0.108197 47.336327 -51.940815
0.740468 47.344477 -51.771853
15.134224 37.260137 -47.968879
14.571365 37.874513 -48.686607
14.473883 38.009445 -47.311352
18.37088 30.958143 -39.838847
18.054112 30.634394 -38.527206
18.752209 29.827629 -38.974882
17.099497 33.862827 -42.286718
17.583548 32.929161 -41.520859
16.625928 34.844914 -43.057957
16.437869 34.657311 -41.681978
17.099497 33.862827 -42.286718
16.80043 34.864243 -44.438595
16.138803 35.658726 -43.833855
16.625928 34.844914 -43.057957
16.000357 24.64859 -11.676683
15.642012 24.829974 -12.14287
18.235483 16.78093 -8.751845
17.781125 17.027887 -9.12164
18.017823 18.423471 -9.059466
18.455178 15.124483 -8.43283
18.235483 16.78093 -8.751845
8.111504 55.826849 -40.947741
7.527922 56.619326 -41.696468
8.675038 55.039966 -40.220465
8.342506 54.243871 -41.09071
8.111504 55.826849 -40.947741
11.178953 54.888626 -33.864561
10.860312 55.889404 -34.73238
11.12772 56.404457 -33.848284
13.214709 53.479902 -26.73682
13.459781 55.089872 -26.697981
13.550963 53.74519 -25.898039
22.078899 7.993366 -19.2693
21.403914 8.794165 -19.290684
21.392859 8.030605 -18.352352
22.789983 7.252044 -19.252733
22.078899 7.993366 -19.2693
4.795062 39.462273 -56.267092
5.072618 40.31876 -55.370305
5.629131 39.629284 -56.029578
4.516366 38.569408 -56.979906
3.959853 39.258885 -56.320633
4.795062 39.462273 -56.267092
23.094508 5.990476 -4.665749
22.457701 6.228333 -5.030169
5.354491 53.454188 -45.871702
4.633223 53.728341 -46.530597
5.709903 52.004441 -46.139579
5.354491 53.454188 -45.871702
6.063328 53.069769 -45.266886
14.319786 35.396679 -16.375355
14.053121 35.477323 -17.033441
14.291104 37.097307 -16.910073
14.3579 33.804845 -15.872981
14.319786 35.396679 -16.375355
14.280064 43.635399 -19.280499
14.306044 45.18899 -19.883173
14.58532 45.190782 -19.185072
14.000552 42.08708 -19.371324
14.280064 43.635399 -19.280499
14.279827 42.088873 -18.673223
24.326991 -1.94007 -9.655451
23.731217 -1.611272 -9.053888
24.459018 -2.513184 -8.946036
24.196936 -1.253099 -10.435588
24.326991 -1.94007 -9.655451
0.046452 37.896633 -56.216774
0.296511 39.137769 -55.631475
0.797917 38.18131 -56.274938
-0.646989 37.517793 -56.065439
0.046452 37.896633 -56.216774
13.092562 38.715257 -51.35708
12.454311 39.465463 -50.679862
13.235992 38.984447 -50.04776
12.966645 38.531523 -52.711619
13.092562 38.715257 -51.35708
12.168671 38.858719 -53.239481
12.966645 38.531523 -52.711619
19.453662 22.581194 -31.39326
19.218342 23.735939 -32.136373
18.720363 23.40675 -30.985135
19.453662 22.581194 -31.39326
19.659534 21.524396 -30.615396
23.030921 -1.468088 -5.800361
22.727626 -1.081125 -6.321703
22.421162 -0.394868 -6.027192
2.768471 48.441913 -50.403825
2.266322 49.652925 -50.098259
3.050013 49.604109 -49.722421
16.73087 23.99731 -10.801738
16.324107 24.304098 -11.230695
16.832925 22.302867 -10.48525
16.73087 23.99731 -10.801738
17.028993 20.656554 -10.145186
16.610575 20.794064 -10.567781
16.832925 22.302867 -10.48525
17.407404 20.417893 -9.745958
17.185054 18.90909 -9.828489
17.028993 20.656554 -10.145186
17.861896 20.088614 -9.366761
17.407404 20.417893 -9.745958
18.017823 18.423471 -9.059466
17.861896 20.088614 -9.366761
9.386388 56.496115 -38.276342
8.959537 55.815903 -39.269516
9.809207 55.710285 -37.482458
9.386388 56.496115 -38.276342
10.248573 54.814686 -36.656405
9.914403 54.113263 -37.635483
9.809207 55.710285 -37.482458
13.619749 52.31138 -25.059432
13.550963 53.74519 -25.898039
22.723291 2.242449 -12.942251
22.032594 2.578078 -12.257627
22.715178 1.70147 -12.157033
22.702095 2.940681 -13.804907
22.723291 2.242449 -12.942251
22.694501 3.561738 -14.618333
22.033113 3.740113 -13.856271
22.702095 2.940681 -13.804907
22.696332 4.318776 -15.550142
22.694501 3.561738 -14.618333
8.622943 41.052 -53.23024
8.82996 41.581171 -52.134712
9.417794 40.802574 -52.809224
7.809552 41.144979 -53.59382
8.622943 41.052 -53.23024
8.397386 40.366383 -54.268332
6.471909 39.796547 -55.827252
6.745341 40.472566 -54.882351
7.310562 39.783343 -55.576813
5.629131 39.629284 -56.029578
6.471909 39.796547 -55.827252
20.176139 9.962162 -6.824922
19.670116 10.16953 -7.180841
19.909421 11.350594 -7.092602
20.452292 8.394509 -6.511651
20.176139 9.962162 -6.824922
20.691598 9.575572 -6.423412
21.536188 7.832293 -5.751065
21.258937 9.18508 -6.066487
21.322512 6.634306 -5.785229
21.536188 7.832293 -5.751065
21.890949 6.45868 -5.426152
4.17845 52.755466 -47.307851
4.633223 53.728341 -46.530597
3.768378 51.772175 -48.178855
4.17845 52.755466 -47.307851
4.590994 51.405567 -47.6154
3.364394 50.618698 -48.951629
3.768378 51.772175 -48.178855
3.866542 49.407686 -49.257196
3.050013 49.604109 -49.722421
3.364394 50.618698 -48.951629
19.15443 28.757047 -38.14615
18.698334 28.413457 -36.74187
19.417322 27.666622 -37.224779
18.752209 29.827629 -38.974882
19.15443 28.757047 -38.14615
11.480759 57.020756 -32.965606
11.12772 56.404457 -33.848284
11.799426 57.572603 -32.043377
12.207768 58.153477 -31.130371
11.765028 55.955526 -32.058236
11.480759 57.020756 -32.965606
11.799426 57.572603 -32.043377
14.335625 49.874615 -21.933864
14.316116 51.369015 -22.702364
14.016677 48.218958 -21.962782
14.335625 49.874615 -21.933864
14.356248 48.41955 -21.208125
22.759674 0.573389 -10.603575
22.891851 -0.071776 -9.874429
23.467014 -0.392992 -10.492449
22.679659 1.144637 -11.347003
22.104496 1.465852 -10.728982
22.759674 0.573389 -10.603575
22.715178 1.70147 -12.157033
22.679659 1.144637 -11.347003
-1.887822 43.402859 -53.552304
-1.656972 44.840723 -53.108931
-2.090025 41.996926 -54.063944
-1.887822 43.402859 -53.552304
-1.310516 42.250386 -54.008108
-2.27392 40.543556 -54.466192
-2.090025 41.996926 -54.063944
-1.704683 39.445894 -54.97077
-0.983836 39.848772 -55.04653
-1.175801 38.450215 -55.497551
-2.27392 40.543556 -54.466192
-1.704683 39.445894 -54.97077
9.997662 40.094357 -53.394541
9.417794 40.802574 -52.809224
10.204679 40.623527 -52.299014
9.997662 40.094357 -53.394541
10.592377 39.451923 -54.065365
20.192857 13.33621 -22.974441
20.137263 12.545208 -21.99856
20.045421 25.511898 -35.652209
19.723522 26.658819 -36.417406
19.283126 26.176111 -35.055301
19.778333 23.969786 -33.417301
19.045034 24.795343 -33.009175
19.218342 23.735939 -32.136373
20.342677 24.325397 -34.693278
19.778333 23.969786 -33.417301
20.045421 25.511898 -35.652209
20.342677 24.325397 -34.693278
15.00715 48.485765 -19.798741
14.643248 48.40979 -20.483477
14.969324 46.835325 -19.134079
15.00715 48.485765 -19.798741
14.58532 45.190782 -19.185072
14.969324 46.835325 -19.134079
24.666736 -3.54883 -7.454722
24.529431 -3.058891 -8.173319
24.000551 -2.674325 -7.625876
1.473527 49.761482 -50.468437
2.266322 49.652925 -50.098259
1.473527 49.761482 -50.468437
1.133922 48.514742 -51.079407
-0.955391 47.467825 -52.1139
-0.108197 47.336327 -51.940815
-1.352543 46.079513 -52.611937
-0.955391 47.467825 -52.1139
-0.803885 44.89511 -52.999474
-1.656972 44.840723 -53.108931
-1.352543 46.079513 -52.611937
2.358385 38.808887 -56.3547
1.567961 38.548872 -56.370653
1.838399 39.682462 -55.673687
13.892633 38.429031 -49.377029
13.235992 38.984447 -50.04776
13.254382 39.179237 -48.69981
13.892633 38.429031 -49.377029
14.571365 37.874513 -48.686607
17.96422 31.974003 -40.761074
18.37088 30.958143 -39.838847
17.29211 32.720066 -40.150955
17.96422 31.974003 -40.761074
17.583548 32.929161 -41.520859
16.977845 34.997249 -45.831592
16.80043 34.864243 -44.438595
16.354855 35.786564 -46.537031
16.977845 34.997249 -45.831592
15.716573 36.645071 -47.226597
15.675023 36.536562 -45.904058
16.354855 35.786564 -46.537031
15.134224 37.260137 -47.968879
15.716573 36.645071 -47.226597
15.011533 32.060957 -14.233885
14.689357 32.18401 -14.796616
15.050189 30.379651 -13.821634
15.011533 32.060957 -14.233885
15.13409 28.685094 -13.423697
14.82862 28.840466 -13.948056
15.050189 30.379651 -13.821634
15.214768 26.838247 -13.018019
15.13409 28.685094 -13.423697
15.345063 25.170172 -12.665616
15.042816 25.477832 -13.197716
15.214768 26.838247 -13.018019
15.470059 23.46956 -12.322567
15.345063 25.170172 -12.665616
15.642012 24.829974 -12.14287
16.090758 22.78487 -11.353832
16.000357 24.64859 -11.676683
16.324107 24.304098 -11.230695
18.717227 13.602114 -8.141225
18.260835 13.862977 -8.522415
18.455178 15.124483 -8.43283
19.157483 13.210791 -7.750081
18.963141 11.949286 -7.839666
18.717227 13.602114 -8.141225
19.652259 12.990381 -7.420547
19.157483 13.210791 -7.750081
19.909421 11.350594 -7.092602
19.652259 12.990381 -7.420547
6.800649 54.705944 -43.523037
6.393633 53.869368 -44.375755
7.150459 55.611711 -42.555779
7.527922 56.619326 -41.696468
7.429161 54.124987 -42.785244
6.800649 54.705944 -43.523037
7.150459 55.611711 -42.555779
9.190539 54.232926 -39.412485
8.675038 55.039966 -40.220465
8.959537 55.815903 -39.269516
10.527462 55.392641 -35.626019
10.860312 55.889404 -34.73238
10.632656 53.795618 -35.779043
10.248573 54.814686 -36.656405
10.527462 55.392641 -35.626019
13.318637 56.398302 -27.595205
13.459781 55.089872 -26.697981
12.956353 55.982952 -28.397027
13.318637 56.398302 -27.595205
12.801391 54.469492 -28.477708
12.634218 55.627859 -29.337972
12.956353 55.982952 -28.397027
13.96483 51.080782 -23.435254
14.316116 51.369015 -22.702364
13.669104 50.859691 -24.291087
13.96483 51.080782 -23.435254
13.70033 49.452933 -23.544355
13.355248 50.683531 -25.168533
13.619749 52.31138 -25.059432
13.669104 50.859691 -24.291087
20.096637 11.851869 -21.101108
20.137263 12.545208 -21.99856
19.496401 12.645707 -21.137058
20.729363 11.018605 -21.075141
20.096637 11.851869 -21.101108
20.088502 11.119104 -20.213639
21.407304 10.297266 -21.116872
20.729363 11.018605 -21.075141
21.405591 9.521384 -20.197652
20.719551 9.558622 -19.280704
21.403914 8.794165 -19.290684
21.407304 10.297266 -21.116872
21.405591 9.521384 -20.197652
22.69071 5.064848 -16.491546
22.019897 5.107242 -15.6111
22.696332 4.318776 -15.550142
22.79315 5.740545 -17.428776
22.69071 5.064848 -16.491546
22.819935 6.42879 -18.318008
22.04106 6.54156 -17.441737
22.79315 5.740545 -17.428776
22.789983 7.252044 -19.252733
22.819935 6.42879 -18.318008
23.441973 4.576583 -4.273229
23.094508 5.990476 -4.665749
23.220548 3.436156 -4.286757
23.441973 4.576583 -4.273229
23.078411 2.333697 -4.333379
22.668641 3.697538 -4.714972
23.220548 3.436156 -4.286757
22.97668 1.368072 -4.429659
23.078411 2.333697 -4.333379
22.972606 0.41495 -4.557381
22.52243 1.641958 -4.889316
22.97668 1.368072 -4.429659
23.0111 -0.432431 -4.750193
22.972606 0.41495 -4.557381
23.114151 -1.167765 -4.994599
22.621406 -0.046498 -5.261443
23.0111 -0.432431 -4.750193
23.325786 -1.869758 -5.238192
23.114151 -1.167765 -4.994599
23.030921 -1.468088 -5.800361
23.325786 -1.869758 -5.238192
24.412323 -3.691486 -6.248799
23.737621 -2.659305 -6.501075
24.847189 -4.092878 -6.752345
24.412323 -3.691486 -6.248799
24.666736 -3.54883 -7.454722
24.847189 -4.092878 -6.752345
2.884552 38.020658 -57.042557
2.358385 38.808887 -56.3547
3.15499 39.154249 -56.345591
4.217268 37.628172 -57.838059
4.516366 38.569408 -56.979906
3.428888 37.334013 -57.757998
4.217268 37.628172 -57.838059
2.884552 38.020658 -57.042557
3.428888 37.334013 -57.757998
20.196868 14.094488 -23.835823
19.541038 14.097324 -22.895893
20.192857 13.33621 -22.974441
20.167458 14.930356 -24.705761
20.196868 14.094488 -23.835823
20.104214 15.754624 -25.485188
19.481804 15.679869 -24.536703
20.167458 14.930356 -24.705761
20.039001 16.653345 -26.33598
20.104214 15.754624 -25.485188
19.977429 17.56027 -27.155193
19.356989 17.411062 -26.135343
20.039001 16.653345 -26.33598
19.899487 18.497377 -28.000063
19.977429 17.56027 -27.155193
19.838347 19.468733 -28.852163
19.234277 19.289343 -27.806656
19.899487 18.497377 -28.000063
19.76826 20.528742 -29.823763
19.838347 19.468733 -28.852163
3 0 86 84
3 1 339 341
3 339 88 340
3 339 340 341
3 2 91 89
3 343 342 92
3 344 95 345
3 346 92 347
3 348 347 95
3 346 347 348
3 3 99 97
3 350 349 100
3 352 351 102
3 4 107 105
3 6 110 108
3 6 353 355
3 355 354 110
3 353 354 355
3 7 113 111
3 9 116 114
3 9 118 116
3 10 121 119
3 10 123 121
3 11 126 124
3 13 129 127
3 13 131 129
3 5 134 132
3 14 137 135
3 16 140 138
3 16 142 140
3 17 148 146
3 17 150 148
3 18 153 151
3 18 155 153
3 18 157 155
3 14 160 158
3 14 135 160
3 15 164 162
3 20 167 165
3 20 169 167
3 8 172 170
3 12 176 174
3 356 178 357
3 359 358 178
3 19 182 180
3 21 185 183
3 23 186 85
3 23 187 186
3 360 189 361
3 25 362 364
3 362 190 363
3 362 363 364
3 25 191 190
3 26 192 87
3 26 193 192
3 27 196 194
3 29 197 90
3 29 198 197
3 366 365 199
3 30 203 201
3 367 204 368
3 369 368 93
3 367 368 369
3 370 205 371
3 372 371 204
3 370 371 372
3 373 206 374
3 375 207 376
3 377 376 206
3 375 376 377
3 33 378 380
3 378 209 379
3 378 379 380
3 35 210 94
3 35 211 210
3 35 213 211
3 30 214 96
3 30 201 214
3 37 217 215
3 39 218 98
3 39 219 218
3 40 222 220
3 382 381 101
3 42 224 223
3 384 383 103
3 43 227 225
3 385 228 386
3 387 386 104
3 385 386 387
3 389 388 228
3 45 231 229
3 47 232 106
3 47 233 232
3 22 234 184
3 48 235 109
3 48 236 235
3 48 237 236
3 49 240 238
3 51 241 112
3 51 242 241
3 24 243 188
3 52 244 115
3 52 245 244
3 52 246 245
3 390 247 391
3 392 391 117
3 390 391 392
3 393 248 394
3 395 394 247
3 393 394 395
3 53 396 398
3 398 397 120
3 396 397 398
3 53 399 401
3 399 249 400
3 399 400 401
3 53 250 249
3 54 251 122
3 54 252 251
3 55 255 253
3 57 256 125
3 57 257 256
3 28 258 195
3 58 259 128
3 58 260 259
3 58 261 260
3 59 262 130
3 59 402 404
3 404 403 262
3 402 403 404
3 46 263 230
3 60 264 133
3 60 265 264
3 405 266 406
3 407 406 200
3 405 406 407
3 408 267 409
3 410 268 411
3 412 411 267
3 410 411 412
3 413 269 414
3 415 414 268
3 413 414 415
3 61 272 270
3 63 273 136
3 63 274 273
3 31 275 202
3 64 276 139
3 64 277 276
3 64 278 277
3 65 279 141
3 65 280 279
3 416 281 417
3 66 282 143
3 66 283 282
3 66 284 283
3 418 285 419
3 420 419 144
3 418 419 420
3 422 421 285
3 423 286 424
3 425 287 426
3 427 426 286
3 425 426 427
3 67 288 145
3 67 289 288
3 32 428 430
3 428 290 429
3 428 429 430
3 68 291 147
3 68 292 291
3 68 293 292
3 69 294 149
3 69 295 294
3 70 431 433
3 431 296 432
3 431 432 433
3 70 297 296
3 34 298 208
3 71 299 152
3 71 300 299
3 71 301 300
3 72 302 154
3 72 303 302
3 72 304 303
3 73 305 156
3 73 306 305
3 36 307 212
3 74 308 159
3 74 309 308
3 74 310 309
3 61 311 161
3 61 270 311
3 62 313 271
3 76 314 163
3 76 315 314
3 38 316 216
3 77 317 166
3 77 318 317
3 77 319 318
3 78 434 436
3 436 435 168
3 434 435 436
3 78 437 438
3 50 320 239
3 79 321 171
3 79 322 321
3 41 323 221
3 80 324 173
3 80 325 324
3 80 326 325
3 56 327 254
3 81 328 175
3 81 329 328
3 44 330 226
3 82 331 177
3 82 332 331
3 82 333 332
3 439 334 440
3 441 440 179
3 439 440 441
3 442 335 443
3 444 443 334
3 442 443 444
3 75 336 312
3 83 337 181
3 83 338 337
3 84 85 21
3 86 85 84
3 86 23 85
3 445 25 446
3 447 87 448
3 88 449 451
3 449 87 450
3 449 450 451
3 88 26 87
3 89 90 27
3 91 90 89
3 91 29 90
3 92 93 30
3 452 93 453
3 454 453 92
3 452 453 454
3 456 455 93
3 457 94 458
3 459 458 33
3 457 458 459
3 95 460 462
3 460 94 461
3 460 461 462
3 95 35 94
3 95 96 35
3 92 96 95
3 92 30 96
3 97 98 37
3 99 98 97
3 99 39 98
3 100 101 40
3 463 101 464
3 465 464 100
3 463 464 465
3 467 466 101
3 102 103 42
3 468 103 469
3 470 469 102
3 468 469 470
3 472 471 103
3 473 104 474
3 475 474 43
3 473 474 475
3 476 104 477
3 479 478 104
3 105 106 45
3 107 106 105
3 107 47 106
3 108 109 22
3 110 109 108
3 110 48 109
3 110 480 482
3 482 481 48
3 480 481 482
3 484 483 110
3 111 112 49
3 113 112 111
3 113 51 112
3 114 115 24
3 116 115 114
3 116 52 115
3 116 117 52
3 118 117 116
3 118 485 487
3 487 486 117
3 485 486 487
3 119 488 490
3 488 120 489
3 488 489 490
3 121 120 119
3 121 53 120
3 121 122 53
3 123 122 121
3 123 54 122
3 124 125 55
3 126 125 124
3 126 57 125
3 127 128 28
3 129 128 127
3 129 58 128
3 129 130 58
3 131 130 129
3 131 59 130
3 132 133 46
3 134 133 132
3 134 60 133
3 135 136 61
3 137 136 135
3 137 63 136
3 138 139 31
3 140 139 138
3 140 64 139
3 140 141 64
3 142 141 140
3 142 65 141
3 491 143 492
3 493 143 494
3 495 66 496
3 497 496 143
3 495 496 497
3 498 144 499
3 500 499 66
3 498 499 500
3 501 144 502
3 504 503 144
3 505 145 506
3 507 145 508
3 509 67 510
3 511 510 145
3 509 510 511
3 146 147 32
3 148 147 146
3 148 68 147
3 148 149 68
3 150 149 148
3 150 69 149
3 512 70 513
3 151 152 34
3 153 152 151
3 153 71 152
3 153 154 71
3 155 154 153
3 155 72 154
3 155 156 72
3 157 156 155
3 157 73 156
3 158 159 36
3 160 159 158
3 160 74 159
3 160 161 74
3 135 161 160
3 135 61 161
3 162 163 62
3 164 163 162
3 164 76 163
3 165 166 38
3 167 166 165
3 167 77 166
3 167 168 77
3 169 168 167
3 169 78 168
3 170 171 50
3 172 171 170
3 172 79 171
3 514 173 515
3 516 515 41
3 514 515 516
3 517 173 518
3 519 80 520
3 521 520 173
3 519 520 521
3 523 522 80
3 174 175 56
3 176 175 174
3 176 81 175
3 524 177 525
3 526 525 44
3 524 525 526
3 178 527 529
3 527 177 528
3 527 528 529
3 178 82 177
3 178 179 82
3 530 179 531
3 532 531 178
3 530 531 532
3 534 533 179
3 180 181 75
3 182 181 180
3 182 83 181
3 183 184 4
3 185 184 183
3 185 22 184
3 85 185 21
3 186 185 85
3 186 22 185
3 186 108 22
3 187 108 186
3 187 6 108
3 535 188 536
3 537 536 7
3 535 536 537
3 189 538 540
3 538 188 539
3 538 539 540
3 189 24 188
3 541 189 542
3 190 543 545
3 543 189 544
3 543 544 545
3 190 24 189
3 190 114 24
3 191 114 190
3 191 9 114
3 87 546 547
3 192 548 550
3 550 549 87
3 548 549 550
3 192 551 552
3 192 553 555
3 553 119 554
3 553 554 555
3 193 119 192
3 193 10 119
3 194 195 11
3 196 195 194
3 196 28 195
3 90 196 27
3 197 196 90
3 197 28 196
3 197 127 28
3 198 127 197
3 198 13 127
3 199 200 5
3 556 200 557
3 558 557 199
3 556 557 558
3 560 559 200
3 201 202 14
3 203 202 201
3 203 31 202
3 93 203 30
3 204 203 93
3 204 31 203
3 204 138 31
3 205 138 204
3 205 16 138
3 561 32 562
3 206 563 564
3 206 565 567
3 565 32 566
3 565 566 567
3 206 146 32
3 207 146 206
3 207 17 146
3 568 208 569
3 209 570 572
3 570 208 571
3 570 571 572
3 209 34 208
3 94 209 33
3 210 209 94
3 210 34 209
3 210 151 34
3 211 151 210
3 211 18 151
3 211 212 18
3 213 212 211
3 213 36 212
3 96 213 35
3 214 213 96
3 214 36 213
3 214 158 36
3 201 158 214
3 201 14 158
3 215 216 15
3 217 216 215
3 217 38 216
3 98 217 37
3 218 217 98
3 218 38 217
3 218 165 38
3 219 165 218
3 219 20 165
3 220 221 8
3 222 221 220
3 222 41 221
3 101 222 40
3 573 222 574
3 575 574 101
3 573 574 575
3 576 41 577
3 578 577 222
3 576 577 578
3 580 579 41
3 223 581 582
3 224 583 585
3 585 584 223
3 583 584 585
3 224 586 587
3 103 224 42
3 588 224 589
3 590 589 103
3 588 589 590
3 592 591 224
3 225 226 12
3 227 226 225
3 227 44 226
3 104 227 43
3 228 227 104
3 228 44 227
3 228 593 595
3 595 594 44
3 593 594 595
3 597 596 228
3 599 598 19
3 229 230 2
3 231 230 229
3 231 46 230
3 106 231 45
3 232 231 106
3 232 46 231
3 232 132 46
3 233 132 232
3 233 5 132
3 184 107 4
3 234 107 184
3 234 47 107
3 109 234 22
3 235 234 109
3 235 47 234
3 235 233 47
3 236 233 235
3 236 5 233
3 236 199 5
3 237 199 236
3 237 600 602
3 602 601 199
3 600 601 602
3 603 237 604
3 605 604 48
3 603 604 605
3 606 237 607
3 609 608 237
3 610 33 611
3 612 33 613
3 615 614 33
3 238 239 3
3 240 239 238
3 240 50 239
3 112 240 49
3 241 240 112
3 241 50 240
3 241 170 50
3 242 170 241
3 242 8 170
3 188 113 7
3 243 113 188
3 243 51 113
3 115 243 24
3 244 243 115
3 244 51 243
3 244 242 51
3 245 242 244
3 245 8 242
3 245 220 8
3 246 220 245
3 246 40 220
3 117 246 52
3 247 246 117
3 247 40 246
3 247 100 40
3 248 100 247
3 248 616 618
3 618 617 100
3 616 617 618
3 120 619 620
3 622 621 120
3 249 623 624
3 249 625 626
3 249 627 629
3 627 223 628
3 627 628 629
3 250 223 249
3 250 42 223
3 122 250 53
3 251 250 122
3 251 42 250
3 251 102 42
3 252 102 251
3 252 630 632
3 632 631 102
3 630 631 632
3 253 254 1
3 255 254 253
3 255 56 254
3 125 255 55
3 256 255 125
3 256 56 255
3 256 174 56
3 257 174 256
3 257 12 174
3 195 126 11
3 258 126 195
3 258 57 126
3 128 258 28
3 259 258 128
3 259 57 258
3 259 257 57
3 260 257 259
3 260 12 257
3 260 225 12
3 261 225 260
3 261 43 225
3 130 261 58
3 262 261 130
3 262 43 261
3 262 633 635
3 635 634 43
3 633 634 635
3 637 636 262
3 230 91 2
3 263 91 230
3 263 29 91
3 133 263 46
3 264 263 133
3 264 29 263
3 264 198 29
3 265 198 264
3 265 13 198
3 200 134 5
3 266 134 200
3 266 60 134
3 638 266 639
3 267 640 642
3 640 266 641
3 640 641 642
3 267 60 266
3 267 265 60
3 268 265 267
3 268 13 265
3 268 131 13
3 269 131 268
3 269 59 131
3 643 269 644
3 645 269 646
3 647 59 648
3 649 648 269
3 647 648 649
3 651 650 59
3 270 271 0
3 272 271 270
3 272 62 271
3 136 272 61
3 273 272 136
3 273 62 272
3 273 162 62
3 274 162 273
3 274 15 162
3 202 137 14
3 275 137 202
3 275 63 137
3 139 275 31
3 276 275 139
3 276 63 275
3 276 274 63
3 277 274 276
3 277 15 274
3 277 215 15
3 278 215 277
3 278 37 215
3 141 278 64
3 279 278 141
3 279 37 278
3 279 97 37
3 280 97 279
3 280 3 97
3 652 205 653
3 654 205 655
3 656 16 657
3 658 657 205
3 656 657 658
3 659 16 660
3 661 142 662
3 663 662 16
3 661 662 663
3 281 664 666
3 664 142 665
3 664 665 666
3 281 65 142
3 143 667 669
3 667 281 668
3 667 668 669
3 282 281 143
3 282 65 281
3 282 280 65
3 283 280 282
3 283 3 280
3 283 238 3
3 284 238 283
3 284 49 238
3 144 284 66
3 285 284 144
3 285 49 284
3 285 111 49
3 670 111 671
3 672 671 285
3 670 671 672
3 673 7 674
3 675 674 111
3 673 674 675
3 676 7 677
3 679 678 7
3 680 1 681
3 286 682 683
3 286 684 686
3 684 1 685
3 684 685 686
3 286 253 1
3 287 253 286
3 287 55 253
3 145 687 689
3 687 287 688
3 687 688 689
3 288 287 145
3 288 55 287
3 288 124 55
3 289 124 288
3 289 11 124
3 290 690 691
3 290 692 694
3 692 67 693
3 692 693 694
3 147 290 32
3 291 290 147
3 291 67 290
3 291 289 67
3 292 289 291
3 292 11 289
3 292 194 11
3 293 194 292
3 293 27 194
3 149 293 68
3 294 293 149
3 294 27 293
3 294 89 27
3 295 89 294
3 295 2 89
3 296 695 696
3 296 697 698
3 296 699 701
3 699 207 700
3 699 700 701
3 297 207 296
3 297 17 207
3 208 702 703
3 298 704 706
3 706 705 208
3 704 705 706
3 298 707 709
3 707 70 708
3 707 708 709
3 152 298 34
3 299 298 152
3 299 70 298
3 299 297 70
3 300 297 299
3 300 17 297
3 300 150 17
3 301 150 300
3 301 69 150
3 154 301 71
3 302 301 154
3 302 69 301
3 302 295 69
3 303 295 302
3 303 2 295
3 303 229 2
3 304 229 303
3 304 45 229
3 156 304 72
3 305 304 156
3 305 45 304
3 305 105 45
3 306 105 305
3 306 4 105
3 212 157 18
3 307 157 212
3 307 73 157
3 159 307 36
3 308 307 159
3 308 73 307
3 308 306 73
3 309 306 308
3 309 4 306
3 309 183 4
3 310 183 309
3 310 21 183
3 161 310 74
3 311 310 161
3 311 21 310
3 311 84 21
3 270 84 311
3 270 0 84
3 271 312 0
3 313 312 271
3 313 75 312
3 163 313 62
3 314 313 163
3 314 75 313
3 314 180 75
3 315 180 314
3 315 19 180
3 216 164 15
3 316 164 216
3 316 76 164
3 166 316 38
3 317 316 166
3 317 76 316
3 317 315 76
3 318 315 317
3 318 19 315
3 318 710 712
3 712 711 19
3 710 711 712
3 319 713 715
3 715 714 318
3 713 714 715
3 319 716 717
3 168 319 77
3 718 319 719
3 720 719 168
3 718 719 720
3 722 721 319
3 239 99 3
3 320 99 239
3 320 39 99
3 171 320 50
3 321 320 171
3 321 39 320
3 321 219 39
3 322 219 321
3 322 20 219
3 221 172 8
3 323 172 221
3 323 79 172
3 173 323 41
3 324 323 173
3 324 79 323
3 324 322 79
3 325 322 324
3 325 20 322
3 325 169 20
3 326 169 325
3 326 78 169
3 723 326 724
3 725 724 80
3 723 724 725
3 726 326 727
3 728 78 729
3 730 729 326
3 728 729 730
3 732 731 78
3 733 25 734
3 735 25 736
3 737 191 738
3 739 738 25
3 737 738 739
3 740 191 741
3 742 9 743
3 744 743 191
3 742 743 744
3 745 9 746
3 747 118 748
3 749 748 9
3 747 748 749
3 750 118 751
3 753 752 118
3 754 248 755
3 756 248 757
3 759 758 248
3 254 88 1
3 327 88 254
3 327 26 88
3 175 327 56
3 328 327 175
3 328 26 327
3 328 193 26
3 329 193 328
3 329 10 193
3 226 176 12
3 330 176 226
3 330 81 176
3 177 330 44
3 331 330 177
3 331 81 330
3 331 329 81
3 332 329 331
3 332 10 329
3 332 123 10
3 333 123 332
3 333 54 123
3 179 333 82
3 334 333 179
3 334 54 333
3 334 252 54
3 335 252 334
3 335 760 762
3 762 761 252
3 760 761 762
3 763 335 764
3 765 335 766
3 768 767 335
3 312 86 0
3 336 86 312
3 336 23 86
3 181 336 75
3 337 336 181
3 337 23 336
3 337 187 23
3 338 187 337
3 338 6 187
3 769 182 770
3 771 770 19
3 769 770 771
3 772 182 773
3 774 83 775
3 776 775 182
3 774 775 776
3 777 83 778
3 779 338 780
3 781 780 83
3 779 780 781
3 782 338 783
3 784 6 785
3 786 785 338
3 784 785 786
3 788 787 6
