ply
format ascii 1.0
element vertex 222
property float x
property float y
property float z
element face 221
property list uchar int vertex_index
end_header
-22.699825 4.374025 -18.287949
-26.965027 -9.586326 -10.78345
-28.051201 -2.864251 -17.768002
-21.881517 -2.0132 -11.443166
-29.504341 4.938723 -25.81354
-24.563931 -8.832864 -8.232061
-24.440945 -6.121453 -11.112356
-25.237219 0.577752 -17.914051
-28.796787 0.881451 -21.592758
-26.023905 4.306423 -21.936174
-26.716408 8.267111 -26.28141
-30.686367 -6.004763 -17.665159
-27.336052 -6.433951 -14.071551
-24.647974 -2.891353 -14.306993
-22.109844 1.031212 -14.60116
-31.439205 -2.269812 -21.386208
-32.229416 1.740838 -25.488451
-23.330019 -6.949358 -8.380859
-23.97175 2.39237 -18.09305
-25.61726 2.527766 -19.974312
-24.32427 4.26298 -20.114042
-24.522564 6.178432 -22.034777
-22.910341 6.16532 -20.132353
-28.577105 -9.855154 -12.321551
-28.8162 -8.10172 -14.118732
-27.189005 -8.110516 -12.435557
-23.131638 -4.218195 -11.188814
-24.496319 -4.575802 -12.637501
-23.182941 -2.659548 -12.739378
-23.330259 -0.960459 -14.442664
-21.986835 -0.598105 -12.960964
-29.405161 -4.54632 -17.642887
-31.078365 -4.154015 -19.525454
-29.684305 -2.557502 -19.530064
-29.064074 2.937716 -23.610876
-30.53479 1.360792 -23.578466
-30.851788 3.27651 -25.548573
-31.164164 5.263888 -27.682312
-29.878311 7.063214 -28.193705
-25.742239 -9.448513 -9.368529
-25.629225 -7.919911 -10.836685
-24.372889 -7.479661 -9.592837
-23.156803 -5.586801 -9.782388
-21.922567 -3.437702 -9.982494
-26.638506 -1.146644 -17.861467
-28.346878 -1.045821 -19.556831
-26.960611 0.759686 -19.780443
-27.387985 2.556302 -21.727621
-27.675831 4.556897 -23.762186
-28.156164 6.50323 -26.007055
-26.307713 6.282232 -23.99987
-25.027374 8.041862 -24.29862
-28.892666 -6.23195 -15.770092
-27.627108 -4.576051 -15.936668
-25.77836 -6.322477 -12.525937
-26.029322 -4.675218 -14.254846
-26.308887 -2.891922 -16.063923
-24.933048 -1.084218 -16.17808
-23.57221 0.655332 -16.139067
-22.373621 2.613851 -16.336149
-30.181883 -0.601928 -21.601242
-31.76309 -0.136483 -23.444796
-28.501406 8.493479 -28.281359
-21.409838 6.408063 -18.332033
-21.724512 8.138635 -20.33255
-27.687667 -10.501169 -10.711542
-27.021273 -10.405534 -9.983297
-27.771066 -9.72074 -11.552501
-28.493706 -10.635583 -11.480593
-27.687667 -10.501169 -10.711542
-22.662138 -5.218523 -9.218918
-23.243411 -6.26808 -9.081623
-22.748746 -5.899802 -8.518154
-22.04502 -4.143973 -9.318971
-22.539685 -4.512251 -9.882441
-22.662138 -5.218523 -9.218918
-25.172837 -9.748465 -8.069733
-24.723779 -9.473534 -7.545395
-25.153085 -9.140688 -8.800295
-25.761992 -10.056289 -8.637967
-25.172837 -9.748465 -8.069733
-24.18046 8.018315 -23.303531
-24.774969 7.110147 -23.166698
-23.928055 7.0866 -22.171609
-24.312383 8.95248 -24.335071
-24.18046 8.018315 -23.303531
-31.560936 -5.884612 -18.603806
-31.370713 -6.847732 -17.651336
-32.113365 -3.04525 -21.407715
-31.932945 -3.987352 -20.477338
-31.258785 -3.211914 -20.455831
-32.276661 -2.040823 -22.376969
-32.113365 -3.04525 -21.407715
-32.850691 0.920917 -25.401753
-32.617528 -0.017743 -24.379925
-31.996253 0.802178 -24.466624
-33.051689 1.9066 -26.474089
-32.850691 0.920917 -25.401753
-20.860148 7.484604 -18.438716
-20.726282 6.76176 -17.562264
-21.017485 8.349889 -19.438975
-21.567175 7.273349 -19.332292
-20.860148 7.484604 -18.438716
-23.501469 -7.563353 -7.761802
-23.946975 -7.891111 -8.30646
-24.118426 -8.505107 -7.687403
-22.895624 -6.46258 -7.912614
-23.501469 -7.563353 -7.761802
-22.748746 -5.899802 -8.518154
-22.895624 -6.46258 -7.912614
-24.118426 -8.505107 -7.687403
-24.723779 -9.473534 -7.545395
-23.121944 7.080044 -21.220397
-23.928055 7.0866 -22.171609
-23.716452 6.171876 -21.083565
-28.696652 -8.978437 -13.220142
-29.487128 -8.968271 -14.048426
-29.36758 -9.844988 -13.149835
-29.260931 -10.680443 -12.293289
-28.493706 -10.635583 -11.480593
-29.36758 -9.844988 -13.149835
-29.260931 -10.680443 -12.293289
-31.715054 3.46902 -26.554352
-32.403868 2.701184 -26.524291
-31.540602 2.508674 -25.518512
-31.871242 4.462709 -27.621221
-31.715054 3.46902 -26.554352
-31.007976 4.270199 -26.615443
-31.987637 5.497528 -28.740172
-31.871242 4.462709 -27.621221
-31.3473 6.29254 -28.881939
-31.987637 5.497528 -28.740172
-30.704374 7.192203 -29.137636
-31.3473 6.29254 -28.881939
-30.521237 6.163551 -27.938009
-30.044553 8.006577 -29.318846
-30.704374 7.192203 -29.137636
-26.88863 9.163362 -27.352359
-26.037373 9.125381 -26.405825
-26.409879 -10.336628 -9.275837
-25.761992 -10.056289 -8.637967
-26.353633 -9.517419 -10.07599
-27.021273 -10.405534 -9.983297
-26.409879 -10.336628 -9.275837
-25.192856 9.012757 -25.41443
-26.037373 9.125381 -26.405825
-25.871891 8.154487 -25.290015
-25.192856 9.012757 -25.41443
-24.312383 8.95248 -24.335071
-30.531251 -6.935241 -16.758505
-31.370713 -6.847732 -17.651336
-29.596167 -7.98372 -14.985291
-29.487128 -8.968271 -14.048426
-29.6344 -7.048834 -15.810972
-29.596167 -7.98372 -14.985291
-28.854433 -7.166835 -14.944412
-29.789516 -6.118356 -16.717626
-30.531251 -6.935241 -16.758505
-29.6344 -7.048834 -15.810972
-31.756935 -4.959238 -19.533954
-31.560936 -5.884612 -18.603806
-30.882366 -5.079389 -18.595306
-31.756935 -4.959238 -19.533954
-31.932945 -3.987352 -20.477338
-32.438603 -0.974158 -23.406263
-32.276661 -2.040823 -22.376969
-31.601147 -1.203148 -22.415502
-32.438603 -0.974158 -23.406263
-32.617528 -0.017743 -24.379925
-33.051689 1.9066 -26.474089
-32.403868 2.701184 -26.524291
-29.356101 8.721709 -29.362673
-30.044553 8.006577 -29.318846
-29.189858 7.778347 -28.237532
-27.781129 9.276546 -28.352333
-27.608907 8.380295 -27.281385
-26.88863 9.163362 -27.352359
-28.587301 9.483443 -29.395581
-27.781129 9.276546 -28.352333
-29.356101 8.721709 -29.362673
-28.587301 9.483443 -29.395581
-21.500736 -3.021849 -9.454636
-22.04502 -4.143973 -9.318971
-21.399935 -2.365868 -10.113462
-21.500736 -3.021849 -9.454636
-21.37941 -1.653617 -10.843798
-21.902042 -2.725451 -10.71283
-21.399935 -2.365868 -10.113462
-21.330289 -0.91413 -11.561923
-21.37941 -1.653617 -10.843798
-21.382948 -0.206583 -12.320823
-21.934176 -1.305652 -12.202065
-21.330289 -0.91413 -11.561923
-21.439987 0.473361 -13.086706
-21.382948 -0.206583 -12.320823
-21.501492 1.288019 -13.906803
-22.048339 0.216554 -13.781062
-21.439987 0.473361 -13.086706
-21.506324 2.118585 -14.66911
-21.501492 1.288019 -13.906803
-21.638212 2.909904 -15.536604
-22.241732 1.822531 -15.468654
-21.506324 2.118585 -14.66911
-21.793799 3.662966 -16.44092
-21.638212 2.909904 -15.536604
-21.956902 4.543052 -17.416821
-22.536723 3.493938 -17.312049
-21.793799 3.662966 -16.44092
-21.311908 5.560072 -17.438862
-20.726282 6.76176 -17.562264
-22.054831 5.391044 -18.309991
-21.956902 4.543052 -17.416821
-21.311908 5.560072 -17.438862
-22.529029 8.066701 -21.320495
-23.121944 7.080044 -21.220397
-22.317426 7.151978 -20.232451
-21.104538 9.217822 -20.374013
-21.017485 8.349889 -19.438975
-21.846715 9.066769 -21.355728
-21.104538 9.217822 -20.374013
-22.529029 8.066701 -21.320495
-21.846715 9.066769 -21.355728
3 0 20 18
3 0 22 20
3 1 25 23
3 3 28 26
3 3 30 28
3 1 65 66
3 1 67 69
3 67 23 68
3 67 68 69
3 2 33 31
3 4 36 34
3 4 37 36
3 4 38 37
3 5 41 39
3 70 42 71
3 72 71 17
3 70 71 72
3 73 43 74
3 75 74 42
3 73 74 75
3 5 76 77
3 5 78 80
3 78 39 79
3 78 79 80
3 7 46 44
3 9 47 19
3 9 48 47
3 9 50 48
3 81 51 82
3 83 82 21
3 81 82 83
3 85 84 51
3 12 52 24
3 12 53 52
3 6 54 40
3 13 55 27
3 13 56 55
3 13 57 56
3 14 58 29
3 14 59 58
3 11 86 87
3 15 88 90
3 90 89 32
3 88 89 90
3 15 91 92
3 8 60 45
3 16 61 35
3 16 93 95
3 95 94 61
3 93 94 95
3 16 96 97
3 10 62 49
3 98 63 99
3 100 64 101
3 102 101 63
3 100 101 102
3 103 17 104
3 105 104 5
3 103 104 105
3 106 17 107
3 109 108 17
3 110 5 111
3 18 19 7
3 20 19 18
3 20 9 19
3 20 21 9
3 22 21 20
3 22 112 114
3 114 113 21
3 112 113 114
3 23 115 117
3 115 24 116
3 115 116 117
3 25 24 23
3 25 12 24
3 26 27 6
3 28 27 26
3 28 13 27
3 28 29 13
3 30 29 28
3 30 14 29
3 23 118 119
3 23 120 121
3 31 32 11
3 33 32 31
3 33 15 32
3 34 35 8
3 36 35 34
3 36 16 35
3 36 122 124
3 124 123 16
3 122 123 124
3 37 125 127
3 127 126 36
3 125 126 127
3 37 128 129
3 37 130 131
3 38 132 134
3 134 133 37
3 132 133 134
3 38 135 136
3 138 137 10
3 39 40 1
3 41 40 39
3 41 6 40
3 17 41 5
3 42 41 17
3 42 6 41
3 42 26 6
3 43 26 42
3 43 3 26
3 39 139 140
3 39 141 143
3 141 1 142
3 141 142 143
3 44 45 2
3 46 45 44
3 46 8 45
3 19 46 7
3 47 46 19
3 47 8 46
3 47 34 8
3 48 34 47
3 48 4 34
3 48 49 4
3 50 49 48
3 50 10 49
3 21 50 9
3 51 50 21
3 51 10 50
3 51 144 146
3 146 145 10
3 144 145 146
3 148 147 51
3 149 11 150
3 24 151 152
3 52 153 155
3 155 154 24
3 153 154 155
3 52 156 158
3 156 11 157
3 156 157 158
3 52 31 11
3 53 31 52
3 53 2 31
3 40 25 1
3 54 25 40
3 54 12 25
3 27 54 6
3 55 54 27
3 55 12 54
3 55 53 12
3 56 53 55
3 56 2 53
3 56 44 2
3 57 44 56
3 57 7 44
3 29 57 13
3 58 57 29
3 58 7 57
3 58 18 7
3 59 18 58
3 59 0 18
3 32 159 161
3 161 160 11
3 159 160 161
3 163 162 32
3 45 33 2
3 60 33 45
3 60 15 33
3 35 60 8
3 61 60 35
3 61 15 60
3 61 164 166
3 166 165 15
3 164 165 166
3 168 167 61
3 170 169 16
3 49 38 4
3 62 38 49
3 62 171 173
3 173 172 38
3 171 172 173
3 174 62 175
3 176 175 10
3 174 175 176
3 177 62 178
3 180 179 62
3 181 43 182
3 183 43 184
3 185 3 186
3 187 186 43
3 185 186 187
3 188 3 189
3 190 30 191
3 192 191 3
3 190 191 192
3 193 30 194
3 195 14 196
3 197 196 30
3 195 196 197
3 198 14 199
3 200 59 201
3 202 201 14
3 200 201 202
3 203 59 204
3 205 0 206
3 207 206 59
3 205 206 207
3 63 208 209
3 63 210 212
3 210 0 211
3 210 211 212
3 63 22 0
3 64 22 63
3 64 213 215
3 215 214 22
3 213 214 215
3 216 64 217
3 218 64 219
3 221 220 64
