ply
format ascii 1.0
element vertex 824
property float x
property float y
property float z
element face 1077
property list uchar int vertex_index
end_header
-10.136556 -96.101494 -24.153463
8.068407 -106.496765 -26.862942
9.49479 -92.019287 -38.589031
-10.531129 -87.559296 -37.855034
-23.801796 -75.73098 -24.93902
-0.580238 -100.491051 -8.514034
18.45204 -103.946091 -3.958584
-2.49782 -102.116959 -26.627516
-0.95809 -99.236603 -34.288906
-10.308064 -93.674995 -30.995928
19.815891 -96.833145 8.564652
12.459198 -98.9534 4.453597
9.305859 -104.359985 -7.274822
3.561652 -97.12175 2.063452
-26.525644 -68.568535 -33.351547
-1.088017 -79.792175 -43.532417
18.276472 -105.967598 -24.5306
9.72654 -101.70636 -34.078468
-0.520756 -91.619301 -39.965099
-11.001259 -77.69043 -43.186172
-13.840785 -91.124298 -16.600214
-16.699186 -87.438637 -24.742283
-20.49402 -80.815392 -15.950026
-5.68495 -99.692657 -17.844793
14.941969 -107.783859 -16.144697
4.244252 -105.710678 -17.944674
-18.611448 -81.799835 -32.498245
-20.003159 -73.459061 -39.426769
-6.981666 -98.920975 -25.467503
-6.212714 -98.573402 -29.210302
-10.333289 -95.218246 -27.273064
8.10548 -98.537498 2.821009
13.528371 -106.939674 -25.92083
14.586184 -104.587967 -29.646275
9.205939 -104.803146 -30.733791
-5.823657 -93.87664 -36.327194
-0.573233 -96.072983 -37.362751
-5.578633 -90.007874 -39.349476
-5.679011 -84.995712 -41.839607
-10.728344 -83.214699 -40.653412
-17.260712 -86.223274 -16.134195
-11.770905 -92.605118 -12.236908
19.342726 -100.674713 2.303876
21.167955 -104.700188 -8.145055
19.496836 -106.79863 -14.569916
17.028271 -106.424858 -10.203042
4.32352 -102.894623 -8.231812
7.036388 -105.585159 -12.707526
1.81953 -103.564156 -13.525885
-0.806883 -103.152046 -18.142584
-3.097589 -100.586922 -13.451803
-20.419228 -81.585022 -24.612211
-17.735985 -84.950386 -28.597164
-21.546309 -78.879913 -28.829062
-23.553974 -71.020821 -36.75145
14.579705 -96.274445 -35.10228
2.611563 -104.816689 -26.962103
3.856463 -103.669327 -31.030836
-1.657042 -101.291603 -30.598034
-5.906757 -96.793976 -32.951252
-10.434052 -91.04084 -34.601368
16.364214 -98.395279 6.49726
15.446519 -101.934677 0.28699
14.259993 -104.842834 -5.923816
11.157336 -102.05397 -1.446036
6.372864 -101.067184 -2.611961
1.492603 -99.223015 -3.295669
-25.24227 -72.467911 -29.306633
4.165641 -86.246147 -41.361771
19.093189 -103.11158 -27.829737
14.676105 -100.97435 -32.834839
9.903337 -97.442581 -36.644398
4.475083 -101.046852 -34.621716
4.850385 -97.174904 -37.524044
4.762329 -92.296753 -39.678894
-0.823787 -86.014946 -42.043507
-6.004094 -79.255928 -43.774742
-11.830182 -94.147476 -20.831543
-13.161286 -92.410057 -24.550459
-15.479136 -89.400826 -20.750246
-18.990723 -84.002075 -20.336899
-22.270189 -78.361687 -20.566206
-23.466471 -75.225166 -16.048143
-25.286636 -72.691429 -20.801014
-3.098207 -96.638985 -3.307269
-5.188231 -97.323906 -8.227094
-7.724574 -96.77198 -12.776852
-9.897928 -95.744087 -17.114305
-8.186522 -97.99427 -21.458412
21.233299 -105.860313 -18.66185
16.937471 -107.568161 -20.446619
11.904139 -107.84864 -22.002497
12.322142 -106.703316 -11.825753
9.54961 -107.3647 -17.382526
6.333303 -106.778236 -22.660522
1.120807 -104.618324 -22.608416
-3.961634 -101.469757 -22.27006
-13.919643 -90.553543 -28.0872
-14.472732 -88.062889 -31.839426
-14.946329 -84.845421 -35.3643
-22.805727 -75.110214 -32.780777
-19.36871 -78.088364 -35.99559
-15.45074 -80.579834 -38.731098
-15.622813 -75.745621 -41.756474
-8.793118 -97.379295 -24.736748
-8.593131 -97.250694 -26.489508
-10.147416 -95.859627 -25.582176
7.350469 -94.749016 7.976014
10.813178 -106.864502 -26.553596
11.427529 -106.036369 -28.50857
8.706732 -105.822113 -28.856512
-8.035105 -90.909233 -37.192734
-5.645329 -92.091309 -37.915234
-8.224399 -88.639679 -38.786564
-8.191621 -86.659058 -40.068016
-10.70395 -85.386665 -39.319492
18.827227 -102.407028 -0.798046
20.710011 -101.384636 0.22722
20.254152 -102.991234 -2.767775
19.922195 -104.413567 -5.92662
19.287006 -105.742355 -9.257984
17.887228 -105.275253 -7.047871
1.855682 -101.842369 -8.539674
3.180239 -103.412788 -10.950101
0.598941 -102.107178 -11.020877
-0.601276 -102.201813 -13.483886
-1.835759 -100.679726 -11.090824
-22.061691 -78.789375 -24.89603
-20.983366 -80.336464 -26.762617
-22.836901 -77.193268 -26.902905
12.106048 -94.41848 -36.916595
0.080697 -103.63459 -26.764885
0.677643 -103.319412 -28.905088
-1.860321 -101.996124 -28.591955
-8.270576 -96.263908 -30.149776
-6.129204 -97.738663 -31.131516
-8.270308 -95.224236 -32.037449
-8.159814 -94.03978 -33.86618
-10.36563 -92.441185 -32.885384
12.78385 -97.083839 7.517138
14.764626 -97.017143 8.335466
14.368296 -98.790726 5.427238
15.853587 -100.280121 3.297647
13.798676 -100.61824 2.208992
13.249037 -102.133629 -0.679531
11.732999 -100.469986 1.623659
5.824014 -97.820618 2.511833
7.359897 -99.912979 0.113867
5.049132 -99.246834 -0.347741
3.927185 -100.312149 -3.14881
2.685828 -98.318146 -0.579802
1.476408 -83.367432 -42.462181
3.930389 -83.197395 -41.931606
12.353367 -103.371925 -31.928507
14.672652 -102.852257 -31.416559
12.271796 -101.504158 -33.551876
12.226271 -99.25325 -34.971485
9.905636 -99.776924 -35.409241
1.396533 -101.62957 -32.738342
4.181213 -102.490715 -32.923374
1.627065 -100.210159 -34.580544
-0.42621 -94.079094 -38.701927
2.10867 -96.680313 -37.612022
2.14809 -94.52726 -38.843281
4.862638 -94.820648 -38.697739
2.033328 -92.031097 -39.963215
1.981451 -89.233543 -40.957081
-0.516142 -88.956726 -41.073612
-8.279974 -81.535057 -42.534279
-5.947546 -82.149307 -42.86507
-8.486318 -78.594826 -43.583405
-12.856139 -92.695045 -18.73209
-13.690388 -91.83149 -20.672955
-14.667053 -90.351646 -18.66708
-18.95899 -83.458916 -15.939848
-18.098349 -85.250694 -18.31801
-19.756573 -82.496338 -18.181595
-20.609509 -81.291611 -20.531338
-21.376698 -79.673676 -18.294071
-23.860895 -73.76413 -13.959987
-24.808214 -72.492218 -16.137518
-24.398344 -73.952454 -18.342054
-6.438117 -97.133102 -10.424944
-8.690336 -95.097504 -10.144952
-12.880303 -91.884872 -14.484056
-10.976186 -94.13591 -14.854177
-11.845257 -93.596695 -16.887865
-11.037823 -94.843597 -18.976793
22.433266 -105.173286 -15.510783
17.310493 -107.468399 -15.398019
18.415262 -107.327644 -17.437475
16.044741 -107.845985 -18.464344
14.37619 -107.895363 -21.248823
13.42686 -107.992859 -19.013405
11.869246 -104.770767 -6.66754
13.304401 -105.862999 -8.799057
10.853 -105.660316 -9.516443
5.858966 -105.890373 -15.516201
8.3917 -106.643906 -15.077843
6.991976 -106.725319 -17.84549
8.121883 -107.274323 -20.124725
5.380045 -106.43074 -20.328308
3.783697 -105.853683 -22.919361
2.794988 -105.358154 -20.442392
-3.221379 -101.573692 -18.057228
-2.433289 -102.41774 -20.411291
-4.747998 -100.729584 -19.934029
-6.155303 -99.767136 -21.715399
-7.025052 -98.853783 -19.673719
-14.88046 -90.0868 -24.597361
-13.488619 -91.648651 -26.313354
-15.464643 -88.898247 -26.535988
-18.171942 -83.524422 -30.48822
-16.11002 -86.623817 -30.317049
-16.497889 -85.095375 -32.13995
-14.782145 -86.476616 -33.609962
-16.816711 -83.424828 -33.967274
-25.828165 -70.749535 -31.333752
-24.076193 -73.876152 -31.039982
-24.711088 -71.818359 -33.077278
-21.872114 -72.139557 -38.23156
-21.541618 -74.41613 -36.455814
-19.62336 -75.951347 -37.784683
-17.450085 -79.444809 -37.409939
-17.620592 -77.24292 -39.08226
-15.707624 -78.035034 -40.314842
-17.891094 -74.590431 -40.698994
-4.874846 -100.550201 -25.970016
-4.421638 -100.42691 -27.997015
-6.557737 -98.907082 -27.301277
-8.375423 -96.938271 -28.266239
-10.192053 -94.709595 -29.121645
10.86274 -97.154915 6.490369
10.27626 -98.883331 3.504695
8.780804 -96.948059 5.652579
6.755521 -96.472122 5.145557
4.500126 -95.767937 4.75315
16.027714 -106.562744 -25.414045
16.425116 -105.468903 -27.246523
13.95665 -105.944893 -27.936756
11.883516 -104.849754 -30.338013
9.572403 -103.416359 -32.48661
-3.376241 -96.72924 -35.370251
-0.766206 -97.725319 -35.93782
-3.202791 -95.084595 -36.97179
-3.000137 -93.170525 -38.459755
-2.973127 -90.949799 -39.777489
-3.11145 -88.358376 -40.987804
-5.691044 -87.553223 -40.661739
-8.20812 -84.202438 -41.370625
-10.759895 -80.605408 -41.999779
-14.658983 -89.571884 -14.212287
-15.626995 -88.68013 -16.372269
-16.498955 -86.902946 -13.826844
-18.090738 -84.436279 -13.826784
-19.556377 -81.894287 -13.496325
19.646313 -98.727646 5.568547
21.269693 -97.695778 6.33554
20.993364 -99.488152 3.509475
21.422829 -105.772491 -13.576972
20.497671 -105.875801 -11.390107
18.386219 -106.750832 -12.320333
16.066742 -107.24939 -13.173309
6.890789 -103.826508 -7.948816
8.372651 -105.205933 -10.174886
5.748119 -104.38279 -10.520716
4.455441 -104.741379 -13.270732
3.188539 -104.795151 -15.656637
1.69587 -104.530365 -18.028126
0.637133 -103.530327 -15.823174
-2.010781 -101.93795 -15.832516
-4.424887 -100.215012 -15.650555
-18.572491 -84.563293 -24.67745
-17.390522 -86.03418 -26.690254
-19.258316 -83.137505 -26.677191
-19.703693 -81.884903 -28.687464
-20.111769 -80.44722 -30.721659
-25.186029 -69.679245 -35.170147
-25.492178 -67.613564 -37.080029
-23.955524 -68.619019 -38.528343
-22.135139 -69.681572 -39.941753
-20.021545 -71.015076 -41.135414
16.669634 -97.890305 -33.187286
5.181368 -105.728485 -27.11084
5.910875 -105.209503 -29.130924
3.250808 -104.401505 -29.072153
1.151217 -102.697861 -30.825544
-1.078841 -100.589417 -32.41687
-3.985619 -100.031883 -29.936777
-3.604576 -99.302048 -31.871162
-3.460438 -98.161354 -33.672985
-5.801837 -95.504166 -34.697468
-8.223894 -92.545181 -35.497025
-10.516444 -89.313278 -36.329231
16.585836 -96.535492 9.439753
18.157316 -97.927246 7.25674
17.814287 -99.692566 4.370816
17.464678 -101.389 1.416432
17.032303 -103.090042 -1.839478
16.42178 -104.575439 -5.03845
14.933629 -103.441696 -2.728243
12.660426 -103.613586 -3.779226
10.324411 -103.421059 -4.545989
9.558949 -100.350586 0.704423
8.831062 -101.762283 -2.215405
7.964358 -102.869278 -4.962388
5.553742 -102.197601 -5.49214
2.953958 -101.187462 -5.809784
0.473253 -99.960007 -5.892497
-25.47908 -72.650284 -25.167152
-24.614773 -74.049385 -27.11591
-26.256977 -71.038399 -27.305737
-27.043203 -69.189377 -29.427713
-27.694691 -67.326027 -31.563051
6.85334 -89.269562 -40.059319
19.074936 -101.285568 -29.398853
16.819601 -103.935768 -28.989017
17.087143 -102.220505 -30.405256
17.01005 -100.263794 -31.79397
14.693469 -98.86647 -34.002487
12.369174 -97.034393 -35.926708
9.79179 -94.875702 -37.673786
6.669156 -104.407318 -30.974333
6.961601 -103.194847 -32.719872
7.159545 -101.551613 -34.432056
2.066098 -98.645241 -36.185349
4.75334 -99.242828 -36.186031
7.32696 -99.615738 -35.932053
7.451573 -97.437386 -37.179874
7.428234 -95.081421 -38.231319
7.10275 -92.290977 -39.241299
4.423502 -89.289993 -40.627422
1.706067 -86.387085 -41.772945
-0.999648 -83.000717 -42.846344
-3.290149 -85.550964 -42.063587
-3.43031 -82.726189 -42.953884
-3.694414 -79.411659 -43.815746
-10.919381 -95.279625 -22.723444
-11.484104 -94.537994 -24.312798
-12.565663 -93.313286 -22.707804
-14.292293 -91.062042 -22.634031
-16.106276 -88.497108 -22.745331
-16.39819 -87.891342 -18.571758
-17.226692 -86.814911 -20.653742
-17.901941 -85.776772 -22.669811
-19.640358 -82.988014 -22.549618
-21.429829 -79.961403 -22.591484
-23.077425 -77.052628 -22.796791
-20.214045 -80.117226 -11.305697
-21.099041 -79.178955 -13.748535
-22.572348 -76.335442 -13.744386
-22.028019 -78.00238 -15.958669
-22.917675 -76.821938 -18.282049
-23.770332 -75.579208 -20.510235
-24.618311 -74.22937 -23.000477
3.226453 -93.550575 7.086451
2.296817 -94.905441 4.55631
1.274169 -96.128723 1.941853
0.377515 -97.258011 -0.716323
-0.721685 -98.079109 -3.365513
-1.878417 -98.642159 -5.980685
-4.093763 -97.124725 -5.794477
-3.015213 -98.983055 -8.552188
-4.105506 -99.071304 -10.883965
-5.516415 -98.664597 -12.956674
-6.584841 -98.44722 -15.408655
-9.792207 -94.793877 -12.626728
-8.827577 -96.366295 -15.101625
-7.928549 -97.71228 -17.48843
-9.04154 -96.961189 -19.35338
-10.047502 -96.143867 -21.125828
-9.255457 -97.035355 -22.988289
19.904066 -106.070992 -21.734905
20.569849 -106.426666 -16.545891
19.268938 -106.883797 -19.464859
17.777386 -106.945442 -22.409737
15.389393 -107.419662 -23.281807
12.84868 -107.548241 -24.030035
10.078869 -107.341171 -24.568773
15.670832 -105.798248 -8.123006
14.698797 -106.734512 -11.087778
13.546637 -107.389473 -13.99631
9.763679 -106.339165 -12.437372
10.937304 -107.192818 -14.754261
12.207331 -107.740791 -16.830616
10.821257 -107.798737 -19.682859
9.196856 -107.49865 -22.277464
7.297889 -106.819359 -24.774437
4.502385 -105.95018 -24.987249
1.900536 -104.876991 -24.878393
-0.593443 -103.577621 -24.694206
0.077136 -103.959328 -20.456448
-1.572693 -103.079559 -22.597624
-2.99217 -102.08815 -24.481449
-5.428558 -100.34082 -23.980165
-7.476624 -98.672089 -23.432261
-11.759515 -93.920967 -25.947567
-12.035379 -93.06752 -27.771343
-12.107747 -92.233589 -29.659866
-15.801844 -87.85743 -28.402931
-14.144505 -89.493286 -29.965118
-12.448741 -90.859703 -31.505774
-12.602352 -89.52639 -33.268539
-12.629021 -88.121216 -34.996841
-12.856964 -86.158356 -36.742882
-23.453619 -75.655548 -28.98407
-22.215635 -77.058083 -30.799023
-20.813833 -78.362366 -32.625305
-23.174215 -73.235542 -34.76857
-21.209282 -76.468407 -34.567261
-19.039383 -79.952682 -34.305588
-17.056942 -81.594307 -35.787552
-15.03616 -82.993973 -37.13554
-13.015305 -84.052261 -38.391628
-13.297605 -81.798569 -39.779968
-13.215068 -79.517677 -41.229565
-13.465159 -76.723671 -42.534504
-15.807659 -72.784645 -43.167927
10.648022 -91.791493 -38.158304
11.953651 -92.991089 -37.322086
10.800419 -93.218884 -37.752813
0.163281 -79.973194 -43.27344
1.445494 -81.760822 -42.738321
0.194195 -81.579803 -42.997299
18.449886 -105.319603 -25.482778
19.354038 -105.475937 -24.005803
-11.009877 -76.21753 -43.746384
-9.752406 -76.669727 -43.945
-9.743789 -78.142628 -43.384788
-25.488472 -71.08775 -16.309171
-24.974502 -71.762127 -15.089823
-25.274782 -71.863361 -17.293868
-25.488472 -71.08775 -16.309171
-9.170385 -94.20039 -8.827043
-8.063813 -95.257389 -9.018692
20.58593 -96.227265 9.067686
19.926446 -95.799106 10.120454
22.787731 -104.76984 -14.015419
23.182259 -104.41711 -14.955036
10.082886 -96.133442 7.554891
11.081575 -96.204121 8.0044
9.041918 -96.030014 7.135995
9.821772 -97.051487 6.071474
10.082886 -96.133442 7.554891
6.080422 -95.391616 6.270094
7.052995 -95.610569 6.560785
6.377896 -94.530063 7.685323
4.952725 -95.039524 6.073891
5.627823 -96.12003 4.949353
6.080422 -95.391616 6.270094
-15.969162 -87.396 -12.74493
-15.578969 -88.237415 -14.019565
-15.049176 -88.730469 -12.937652
-18.39138 -83.627716 -12.606533
-17.644236 -84.842713 -12.633083
-19.1242 -82.35672 -12.441304
-18.823557 -83.165283 -13.661555
-18.39138 -83.627716 -12.606533
-15.049176 -88.730469 -12.937652
-14.155091 -89.921036 -12.998088
21.476235 -100.739841 0.728119
21.381442 -101.582779 -0.83909
22.036088 -103.971142 -7.551011
21.427865 -104.000763 -6.553051
21.726097 -104.671516 -9.209979
22.036088 -103.971142 -7.551011
20.832813 -105.287994 -9.767581
21.390955 -105.259323 -10.832505
21.726097 -104.671516 -9.209979
-26.473921 -65.862458 -37.209389
-26.284498 -66.952008 -36.260005
-24.083838 -67.429039 -39.360094
-24.985159 -66.792862 -38.703293
-23.173645 -67.960316 -40.066799
-23.045331 -69.150295 -39.235048
-24.083838 -67.429039 -39.360094
-22.233458 -68.365364 -40.770502
-23.173645 -67.960316 -40.066799
15.506588 -95.734139 -34.675041
16.551552 -96.542068 -33.717545
15.624669 -97.082375 -34.144783
-26.638629 -70.375245 -26.272634
-25.868029 -71.844341 -26.236445
-26.249681 -71.181187 -25.203342
-27.88424 -67.560581 -29.602369
-27.466435 -68.558754 -28.430581
-28.209984 -66.628906 -30.670038
-27.368947 -68.257702 -30.495382
-27.88424 -67.560581 -29.602369
5.378426 -86.184868 -41.02903
6.722276 -87.696575 -40.377804
5.509491 -87.757854 -40.710545
5.011952 -82.942195 -41.615114
3.732672 -81.439361 -42.21146
19.97926 -102.503971 -27.368373
19.913946 -103.369747 -26.521414
19.084063 -102.198574 -28.614295
19.970134 -101.590965 -28.152931
19.97926 -102.503971 -27.368373
-6.168974 -77.596359 -44.212523
-5.014134 -77.674225 -44.233024
-4.849254 -79.333793 -43.795244
-20.895395 -78.812591 -11.277936
-20.439208 -79.292286 -10.057416
-21.337893 -78.343456 -12.499355
-20.656543 -79.64809 -12.527116
-20.895395 -78.812591 -11.277936
-25.7419 -71.950832 -21.958222
-25.407738 -72.719803 -23.057953
-24.952473 -73.460399 -21.900745
2.132053 -93.146431 6.950864
2.599031 -92.404774 8.236221
1.667235 -93.823864 5.685794
2.761635 -94.228008 5.821381
2.132053 -93.146431 6.950864
0.198418 -95.651367 1.83516
0.704181 -95.051685 3.178593
-0.249909 -96.216011 0.506072
0.825842 -96.693367 0.612765
0.198418 -95.651367 1.83516
-1.909946 -97.359047 -3.336391
-1.361888 -97.087231 -2.161614
-2.550149 -96.367169 -2.132491
-4.640997 -97.224315 -7.010785
-5.213444 -96.265614 -5.68991
-5.760678 -96.365204 -6.906218
-10.781556 -93.699498 -12.431818
-10.288535 -93.886867 -11.2601
-11.277884 -92.792488 -11.06519
21.958478 -96.900162 6.936808
21.893369 -97.928589 5.34048
21.550117 -105.38192 -19.607184
22.119752 -105.173729 -18.054692
20.568683 -105.965653 -20.198377
20.8855 -105.487259 -21.143711
21.550117 -105.38192 -19.607184
-18.995094 -71.456604 -41.696909
-20.156157 -69.530178 -41.926489
-15.922441 -71.329696 -43.774818
-17.042292 -70.874256 -43.385168
-14.609957 -73.395965 -43.470501
-15.922441 -71.329696 -43.774818
7.647336 -93.868473 9.351612
8.32675 -94.930492 8.297713
6.630064 -93.62331 9.056653
7.647336 -93.868473 9.351612
6.377896 -94.530063 7.685323
6.630064 -93.62331 9.056653
21.153512 -102.386078 -2.336587
21.381442 -101.582779 -0.83909
20.482081 -102.187935 -1.270277
20.970963 -103.146286 -3.864412
21.153512 -102.386078 -2.336587
20.804985 -103.857452 -5.443834
20.970963 -103.146286 -3.864412
20.088173 -103.702401 -4.347198
20.545075 -104.556877 -7.035837
21.427865 -104.000763 -6.553051
20.804985 -103.857452 -5.443834
13.090739 -93.937649 -36.537796
14.327567 -94.865632 -35.630639
13.342876 -95.346463 -36.009438
13.090739 -93.937649 -36.537796
11.953651 -92.991089 -37.322086
13.774238 -97.050491 7.926302
14.050244 -96.154408 9.380028
13.059855 -96.187756 8.970864
2.672484 -81.675804 -42.473034
2.703399 -83.282413 -42.196894
1.445494 -81.760822 -42.738321
3.732672 -81.439361 -42.21146
2.672484 -81.675804 -42.473034
18.858245 -103.891594 -27.132347
19.913946 -103.369747 -26.521414
-8.620439 -76.994007 -44.079998
-7.379327 -77.324558 -44.175667
-7.245206 -78.925377 -43.679074
-8.620439 -76.994007 -44.079998
-9.752406 -76.669727 -43.945
-24.500842 -72.398083 -14.001057
-24.036734 -72.944008 -12.776884
-24.334554 -73.128174 -15.048752
-24.500842 -72.398083 -14.001057
-24.974502 -71.762127 -15.089823
-25.069847 -72.59348 -18.396136
-24.603279 -73.222336 -17.239786
-25.274782 -71.863361 -17.293868
-25.513993 -71.962967 -19.625616
-24.84249 -73.321942 -19.571534
-25.069847 -72.59348 -18.396136
-25.979865 -71.305061 -20.877538
-25.513993 -71.962967 -19.625616
-3.663678 -95.617268 -1.991787
-2.550149 -96.367169 -2.132491
-6.31276 -96.37059 -8.059763
-5.760678 -96.365204 -6.906218
-6.937703 -96.275188 -9.158688
-5.813174 -97.228504 -9.326019
-6.31276 -96.37059 -8.059763
-7.564227 -96.115303 -10.284948
-6.937703 -96.275188 -9.158688
-8.063813 -95.257389 -9.018692
22.719735 -104.830215 -16.479158
23.182259 -104.41711 -14.955036
21.833282 -105.5168 -17.086317
22.119752 -105.173729 -18.054692
22.719735 -104.830215 -16.479158
12.042129 -96.168582 8.517784
13.059855 -96.187756 8.970864
11.823295 -97.119377 7.003754
12.042129 -96.168582 8.517784
11.081575 -96.204121 8.0044
8.065637 -95.848537 6.814297
9.041918 -96.030014 7.135995
8.32675 -94.930492 8.297713
-1.2115 -78.206913 -43.824438
-2.460845 -78.001824 -44.026203
-16.848344 -86.076046 -12.633112
-15.969162 -87.396 -12.74493
-17.294846 -85.669612 -13.826814
-16.848344 -86.076046 -12.633112
-17.644236 -84.842713 -12.633083
-12.260489 -91.648651 -10.859643
-11.277884 -92.792488 -11.06519
-12.711051 -91.437653 -12.010398
-12.260489 -91.648651 -10.859643
-13.26575 -91.077529 -13.133972
-12.325604 -92.244995 -13.360482
-12.711051 -91.437653 -12.010398
-13.769643 -90.728378 -14.348171
-13.26575 -91.077529 -13.133972
-14.155091 -89.921036 -12.998088
21.755204 -98.824776 3.927448
21.893369 -97.928589 5.34048
21.131529 -98.591965 4.922508
21.617911 -99.791599 2.369247
20.851688 -100.436394 1.868348
21.476235 -100.739841 0.728119
21.755204 -98.824776 3.927448
21.617911 -99.791599 2.369247
21.853534 -105.207668 -11.925937
22.282512 -105.069443 -13.048513
20.96025 -105.824146 -12.483539
21.853534 -105.207668 -11.925937
21.390955 -105.259323 -10.832505
-26.131423 -67.984848 -35.305064
-25.855837 -69.12389 -34.260847
-26.80123 -67.429493 -34.395764
-25.339104 -68.646404 -36.125088
-26.131423 -67.984848 -35.305064
-26.284498 -66.952008 -36.260005
-25.753486 -66.290134 -37.979135
-26.473921 -65.862458 -37.209389
-24.723851 -68.116291 -37.804186
-25.753486 -66.290134 -37.979135
-24.985159 -66.792862 -38.703293
-21.176662 -69.032116 -41.367333
-21.078342 -70.348324 -40.538584
-22.233458 -68.365364 -40.770502
-20.156157 -69.530178 -41.926489
-21.176662 -69.032116 -41.367333
17.596762 -97.267384 -32.678925
17.780848 -98.433495 -32.051901
17.596762 -97.267384 -32.678925
16.551552 -96.542068 -33.717545
15.506588 -95.734139 -34.675041
14.327567 -94.865632 -35.630639
19.082647 -96.333576 9.534655
19.926446 -95.799106 10.120454
14.956233 -96.064953 9.831175
14.050244 -96.154408 9.380028
15.866838 -95.824127 10.383318
14.956233 -96.064953 9.831175
15.675231 -96.776318 8.887609
16.715876 -95.56477 10.92804
15.866838 -95.824127 10.383318
17.467619 -96.18475 9.972205
16.715876 -95.56477 10.92804
18.25336 -96.880627 8.880699
17.467619 -96.18475 9.972205
17.371576 -97.231369 8.348247
18.986604 -97.380195 7.910696
19.082647 -96.333576 9.534655
18.25336 -96.880627 8.880699
-27.073322 -69.483265 -27.369593
-26.638629 -70.375245 -26.272634
-26.65009 -70.113888 -28.366725
-27.073322 -69.483265 -27.369593
-27.466435 -68.558754 -28.430581
-28.573113 -65.582493 -31.82451
-28.209984 -66.628906 -30.670038
-28.003281 -66.244381 -32.674535
-28.573113 -65.582493 -31.82451
-27.418758 -66.865635 -33.568782
-27.110167 -67.947281 -32.457299
-28.003281 -66.244381 -32.674535
-26.80123 -67.429493 -34.395764
-27.418758 -66.865635 -33.568782
8.047592 -89.174667 -39.666719
9.368317 -90.54953 -38.931576
8.174065 -90.644424 -39.324175
8.047592 -89.174667 -39.666719
6.722276 -87.696575 -40.377804
5.260801 -84.660492 -41.313947
5.378426 -86.184868 -41.02903
4.048015 -84.721771 -41.646688
5.260801 -84.660492 -41.313947
5.011952 -82.942195 -41.615114
0.163281 -79.973194 -43.27344
-1.2115 -78.206913 -43.824438
19.912729 -100.570362 -28.953492
20.807927 -100.875759 -27.70757
19.970134 -101.590965 -28.152931
18.983499 -100.131126 -30.157684
19.912729 -100.570362 -28.953492
17.524209 -105.070256 -26.840739
18.449886 -105.319603 -25.482778
17.350794 -105.71825 -25.888562
17.721451 -104.303688 -27.711987
17.524209 -105.070256 -26.840739
16.622358 -104.702336 -28.11777
17.956395 -103.523674 -28.409377
18.858245 -103.891594 -27.132347
17.721451 -104.303688 -27.711987
17.951056 -99.620239 -31.355243
18.983499 -100.131126 -30.157684
18.042493 -100.774681 -30.596412
16.839842 -99.07705 -32.490628
17.780848 -98.433495 -32.051901
17.951056 -99.620239 -31.355243
-3.764044 -77.811566 -44.167867
-2.460845 -78.001824 -44.026203
-2.391215 -79.601917 -43.674081
-3.764044 -77.811566 -44.167867
-5.014134 -77.674225 -44.233024
-6.168974 -77.596359 -44.212523
-7.379327 -77.324558 -44.175667
-19.751247 -80.590481 -10.135371
-20.439208 -79.292286 -10.057416
-19.453034 -81.468189 -11.345989
-19.751247 -80.590481 -10.135371
-19.885211 -81.005757 -12.401011
-19.1242 -82.35672 -12.441304
-19.453034 -81.468189 -11.345989
-23.376174 -74.333222 -12.696091
-24.036734 -72.944008 -12.776884
-22.731901 -75.618877 -12.58829
-23.376174 -74.333222 -12.696091
-23.216622 -75.049786 -13.852187
-22.074546 -76.9217 -12.497281
-22.731901 -75.618877 -12.58829
-21.835695 -77.757199 -13.746461
-21.337893 -78.343456 -12.499355
-22.074546 -76.9217 -12.497281
-25.838122 -71.93026 -24.141291
-25.048696 -73.439827 -24.083815
-25.407738 -72.719803 -23.057953
-26.249681 -71.181187 -25.203342
-25.838122 -71.93026 -24.141291
-25.7419 -71.950832 -21.958222
-25.979865 -71.305061 -20.877538
3.662685 -92.785225 8.375666
2.599031 -92.404774 8.236221
4.315888 -93.930843 7.240541
3.662685 -92.785225 8.375666
3.863289 -94.659256 5.919801
4.952725 -95.039524 6.073891
4.315888 -93.930843 7.240541
1.215505 -94.440044 4.485822
1.667235 -93.823864 5.685794
1.785493 -95.517082 3.249081
1.215505 -94.440044 4.485822
0.704181 -95.051685 3.178593
-0.812288 -96.676682 -0.837018
-0.249909 -96.216011 0.506072
-0.172085 -97.66856 -2.040918
-0.812288 -96.676682 -0.837018
-1.361888 -97.087231 -2.161614
-4.25227 -95.826347 -3.219522
-3.663678 -95.617268 -1.991787
-4.750048 -96.069218 -4.463126
-5.213444 -96.265614 -5.68991
-3.595985 -96.881855 -4.550873
-4.25227 -95.826347 -3.219522
-4.750048 -96.069218 -4.463126
-9.737599 -94.038681 -10.019212
-9.170385 -94.20039 -8.827043
-9.241271 -94.94569 -11.38584
-9.737599 -94.038681 -10.019212
-10.288535 -93.886867 -11.2601
21.312832 -96.658581 7.95313
20.58593 -96.227265 9.067686
20.542792 -97.264462 7.450096
21.312832 -96.658581 7.95313
21.958478 -96.900162 6.936808
20.167835 -105.527634 -22.607956
20.8855 -105.487259 -21.143711
19.090269 -106.019295 -23.132753
19.354038 -105.475937 -24.005803
20.167835 -105.527634 -22.607956
21.928047 -105.472889 -14.543878
22.787731 -104.76984 -14.015419
22.282512 -105.069443 -13.048513
-17.929868 -73.244281 -41.478699
-18.956319 -72.802753 -40.917204
-18.995094 -71.456604 -41.696909
-16.795728 -73.821877 -42.007439
-16.756954 -75.168026 -41.227734
-17.929868 -73.244281 -41.478699
-16.888151 -72.341388 -42.713166
-17.042292 -70.874256 -43.385168
-15.715236 -74.265133 -42.4622
-16.795728 -73.821877 -42.007439
-16.888151 -72.341388 -42.713166
-13.438707 -75.365478 -43.15379
-14.636409 -74.754158 -42.851215
-14.609957 -73.395965 -43.470501
-12.206757 -75.848858 -43.479624
-12.233209 -77.207051 -42.860338
-13.438707 -75.365478 -43.15379
-11.009877 -76.21753 -43.746384
-12.206757 -75.848858 -43.479624
10.648022 -91.791493 -38.158304
9.368317 -90.54953 -38.931576
3 0 106 104
3 1 110 108
3 3 113 111
3 3 115 113
3 6 118 116
3 6 119 118
3 6 121 119
3 5 124 122
3 5 126 124
3 4 129 127
3 2 418 420
3 420 419 130
3 418 419 420
3 7 133 131
3 9 136 134
3 9 138 136
3 11 141 139
3 11 143 141
3 11 145 143
3 13 148 146
3 13 150 148
3 15 421 423
3 423 422 151
3 421 422 423
3 16 424 425
3 17 155 153
3 17 157 155
3 8 160 158
3 18 163 161
3 18 165 163
3 18 167 165
3 19 170 168
3 19 426 428
3 428 427 170
3 426 427 428
3 20 173 171
3 22 176 174
3 22 178 176
3 429 180 430
3 432 431 180
3 433 183 434
3 20 186 184
3 20 171 186
3 10 435 436
3 437 188 438
3 24 191 189
3 24 193 191
3 12 196 194
3 25 199 197
3 25 201 199
3 25 203 201
3 23 206 204
3 23 208 206
3 21 211 209
3 26 214 212
3 26 216 214
3 14 219 217
3 27 222 220
3 27 224 222
3 27 226 224
3 28 229 227
3 30 230 105
3 30 231 230
3 439 232 440
3 441 234 442
3 443 442 232
3 441 442 443
3 444 235 445
3 446 445 107
3 444 445 446
3 447 236 448
3 449 448 235
3 447 448 449
3 32 239 237
3 34 240 109
3 34 241 240
3 35 244 242
3 37 245 112
3 37 246 245
3 37 248 246
3 39 249 114
3 39 250 249
3 450 253 451
3 452 451 251
3 450 451 452
3 453 254 454
3 455 255 456
3 457 456 254
3 455 456 457
3 458 251 459
3 42 258 256
3 461 460 117
3 43 462 463
3 43 464 465
3 43 466 468
3 466 260 467
3 466 467 468
3 45 261 120
3 45 262 261
3 46 265 263
3 48 266 123
3 48 267 266
3 48 269 267
3 50 270 125
3 50 271 270
3 51 274 272
3 53 275 128
3 53 276 275
3 469 278 470
3 471 279 472
3 473 280 474
3 475 474 279
3 473 474 475
3 477 476 280
3 55 478 480
3 480 479 282
3 478 479 480
3 56 285 283
3 58 286 132
3 58 287 286
3 29 288 228
3 59 289 135
3 59 290 289
3 59 291 290
3 60 292 137
3 60 293 292
3 61 294 140
3 61 295 294
3 61 296 295
3 62 297 142
3 62 298 297
3 62 300 298
3 64 301 144
3 64 302 301
3 31 303 233
3 65 304 147
3 65 305 304
3 65 306 305
3 66 307 149
3 66 308 307
3 481 311 482
3 483 482 309
3 481 482 483
3 484 312 485
3 486 313 487
3 488 487 312
3 486 487 488
3 68 489 491
3 491 490 314
3 489 490 491
3 493 492 152
3 69 494 495
3 69 496 498
3 496 315 497
3 496 497 498
3 33 316 238
3 70 317 154
3 70 318 317
3 70 319 318
3 71 320 156
3 71 321 320
3 57 322 284
3 72 323 159
3 72 324 323
3 36 325 243
3 73 326 162
3 73 327 326
3 73 328 327
3 74 329 164
3 74 330 329
3 74 331 330
3 75 332 166
3 75 333 332
3 38 334 247
3 76 335 169
3 76 336 335
3 76 499 501
3 501 500 336
3 499 500 501
3 77 339 337
3 79 340 172
3 79 341 340
3 40 342 252
3 80 343 175
3 80 344 343
3 80 345 344
3 81 346 177
3 81 347 346
3 502 348 503
3 504 349 505
3 506 505 348
3 504 505 506
3 82 350 179
3 82 351 350
3 82 352 351
3 83 353 181
3 83 354 353
3 83 507 509
3 509 508 354
3 507 508 509
3 510 355 511
3 512 356 513
3 514 513 355
3 512 513 514
3 515 357 516
3 517 358 518
3 519 518 357
3 517 518 519
3 84 520 522
3 520 359 521
3 520 521 522
3 84 360 359
3 85 523 525
3 523 361 524
3 523 524 525
3 85 362 361
3 85 363 362
3 86 364 182
3 86 365 364
3 41 526 528
3 526 366 527
3 526 527 528
3 87 367 185
3 87 368 367
3 87 369 368
3 77 370 187
3 77 337 370
3 530 529 257
3 89 531 532
3 89 533 535
3 533 372 534
3 533 534 535
3 44 373 259
3 90 374 190
3 90 375 374
3 90 376 375
3 91 377 192
3 91 378 377
3 63 379 299
3 92 380 195
3 92 381 380
3 47 382 264
3 93 383 198
3 93 384 383
3 93 385 384
3 94 386 200
3 94 387 386
3 94 388 387
3 95 389 202
3 95 390 389
3 49 391 268
3 96 392 205
3 96 393 392
3 96 394 393
3 88 395 207
3 88 371 395
3 78 396 338
3 97 397 210
3 97 398 397
3 52 399 273
3 98 400 213
3 98 401 400
3 98 402 401
3 99 403 215
3 99 404 403
3 67 405 310
3 100 406 218
3 100 407 406
3 54 408 277
3 101 409 221
3 101 410 409
3 101 411 410
3 102 412 223
3 102 413 412
3 102 414 413
3 103 415 225
3 103 416 415
3 537 536 281
3 538 417 539
3 541 540 417
3 104 105 28
3 106 105 104
3 106 30 105
3 542 107 543
3 544 107 545
3 547 546 107
3 108 109 32
3 110 109 108
3 110 34 109
3 111 112 35
3 113 112 111
3 113 37 112
3 113 114 37
3 115 114 113
3 115 39 114
3 116 117 42
3 118 117 116
3 118 548 550
3 550 549 117
3 548 549 550
3 118 551 552
3 119 553 555
3 555 554 118
3 553 554 555
3 119 556 558
3 556 43 557
3 556 557 558
3 119 120 43
3 121 120 119
3 121 45 120
3 122 123 46
3 124 123 122
3 124 48 123
3 124 125 48
3 126 125 124
3 126 50 125
3 127 128 51
3 129 128 127
3 129 53 128
3 130 559 561
3 561 560 55
3 559 560 561
3 563 562 130
3 131 132 56
3 133 132 131
3 133 58 132
3 134 135 29
3 136 135 134
3 136 59 135
3 136 137 59
3 138 137 136
3 138 60 137
3 139 564 566
3 564 140 565
3 564 565 566
3 141 140 139
3 141 61 140
3 141 142 61
3 143 142 141
3 143 62 142
3 143 144 62
3 145 144 143
3 145 64 144
3 146 147 31
3 148 147 146
3 148 65 147
3 148 149 65
3 150 149 148
3 150 66 149
3 151 152 68
3 567 152 568
3 569 568 151
3 567 568 569
3 571 570 152
3 572 69 573
3 153 154 33
3 155 154 153
3 155 70 154
3 155 156 70
3 157 156 155
3 157 71 156
3 158 159 57
3 160 159 158
3 160 72 159
3 161 162 36
3 163 162 161
3 163 73 162
3 163 164 73
3 165 164 163
3 165 74 164
3 165 166 74
3 167 166 165
3 167 75 166
3 168 169 38
3 170 169 168
3 170 76 169
3 170 574 576
3 576 575 76
3 574 575 576
3 578 577 170
3 171 172 77
3 173 172 171
3 173 79 172
3 174 175 40
3 176 175 174
3 176 80 175
3 176 177 80
3 178 177 176
3 178 81 177
3 579 179 580
3 180 581 583
3 581 179 582
3 581 582 583
3 180 82 179
3 180 181 82
3 584 181 585
3 586 585 180
3 584 585 586
3 587 83 588
3 589 588 181
3 587 588 589
3 591 590 83
3 592 84 593
3 594 85 595
3 596 182 597
3 598 597 85
3 596 597 598
3 183 599 601
3 599 182 600
3 599 600 601
3 183 86 182
3 184 185 41
3 186 185 184
3 186 87 185
3 186 187 87
3 171 187 186
3 171 77 187
3 188 602 603
3 188 604 606
3 604 89 605
3 604 605 606
3 189 190 44
3 191 190 189
3 191 90 190
3 191 192 90
3 193 192 191
3 193 91 192
3 194 195 63
3 196 195 194
3 196 92 195
3 197 198 47
3 199 198 197
3 199 93 198
3 199 200 93
3 201 200 199
3 201 94 200
3 201 202 94
3 203 202 201
3 203 95 202
3 204 205 49
3 206 205 204
3 206 96 205
3 206 207 96
3 208 207 206
3 208 88 207
3 209 210 78
3 211 210 209
3 211 97 210
3 212 213 52
3 214 213 212
3 214 98 213
3 214 215 98
3 216 215 214
3 216 99 215
3 217 218 67
3 219 218 217
3 219 100 218
3 220 221 54
3 222 221 220
3 222 101 221
3 222 223 101
3 224 223 222
3 224 102 223
3 224 225 102
3 226 225 224
3 226 103 225
3 227 228 7
3 229 228 227
3 229 29 228
3 105 229 28
3 230 229 105
3 230 29 229
3 230 134 29
3 231 134 230
3 231 9 134
3 607 139 608
3 232 609 611
3 609 139 610
3 609 610 611
3 232 11 139
3 232 233 11
3 234 233 232
3 234 31 233
3 107 612 614
3 612 234 613
3 612 613 614
3 235 234 107
3 235 31 234
3 235 146 31
3 236 146 235
3 236 13 146
3 616 615 15
3 237 238 16
3 239 238 237
3 239 33 238
3 109 239 32
3 240 239 109
3 240 33 239
3 240 153 33
3 241 153 240
3 241 17 153
3 242 243 8
3 244 243 242
3 244 36 243
3 112 244 35
3 245 244 112
3 245 36 244
3 245 161 36
3 246 161 245
3 246 18 161
3 246 247 18
3 248 247 246
3 248 38 247
3 114 248 37
3 249 248 114
3 249 38 248
3 249 168 38
3 250 168 249
3 250 19 168
3 251 252 20
3 253 252 251
3 253 40 252
3 617 253 618
3 254 619 621
3 619 253 620
3 619 620 621
3 254 40 253
3 254 174 40
3 255 174 254
3 255 22 174
3 622 41 623
3 624 41 625
3 626 184 627
3 628 627 41
3 626 627 628
3 251 629 631
3 629 184 630
3 629 630 631
3 251 20 184
3 256 257 10
3 258 257 256
3 258 632 634
3 634 633 257
3 632 633 634
3 117 258 42
3 635 258 636
3 637 636 117
3 635 636 637
3 639 638 258
3 640 259 641
3 260 642 644
3 642 259 643
3 642 643 644
3 260 44 259
3 120 260 43
3 261 260 120
3 261 44 260
3 261 189 44
3 262 189 261
3 262 24 189
3 263 264 12
3 265 264 263
3 265 47 264
3 123 265 46
3 266 265 123
3 266 47 265
3 266 197 47
3 267 197 266
3 267 25 197
3 267 268 25
3 269 268 267
3 269 49 268
3 125 269 48
3 270 269 125
3 270 49 269
3 270 204 49
3 271 204 270
3 271 23 204
3 272 273 21
3 274 273 272
3 274 52 273
3 128 274 51
3 275 274 128
3 275 52 274
3 275 212 52
3 276 212 275
3 276 26 212
3 645 277 646
3 647 646 14
3 645 646 647
3 278 648 650
3 648 277 649
3 648 649 650
3 278 54 277
3 651 278 652
3 279 653 655
3 653 278 654
3 653 654 655
3 279 54 278
3 279 220 54
3 280 220 279
3 280 27 220
3 280 281 27
3 656 281 657
3 658 657 280
3 656 657 658
3 660 659 281
3 282 661 662
3 664 663 282
3 666 665 55
3 283 284 1
3 285 284 283
3 285 57 284
3 132 285 56
3 286 285 132
3 286 57 285
3 286 158 57
3 287 158 286
3 287 8 158
3 228 133 7
3 288 133 228
3 288 58 133
3 135 288 29
3 289 288 135
3 289 58 288
3 289 287 58
3 290 287 289
3 290 8 287
3 290 242 8
3 291 242 290
3 291 35 242
3 137 291 59
3 292 291 137
3 292 35 291
3 292 111 35
3 293 111 292
3 293 3 111
3 667 10 668
3 140 669 670
3 294 671 673
3 673 672 140
3 671 672 673
3 294 674 675
3 294 676 677
3 295 678 680
3 680 679 294
3 678 679 680
3 295 681 683
3 681 10 682
3 681 682 683
3 295 256 10
3 296 256 295
3 296 42 256
3 142 296 61
3 297 296 142
3 297 42 296
3 297 116 42
3 298 116 297
3 298 6 116
3 298 299 6
3 300 299 298
3 300 63 299
3 144 300 62
3 301 300 144
3 301 63 300
3 301 194 63
3 302 194 301
3 302 12 194
3 233 145 11
3 303 145 233
3 303 64 145
3 147 303 31
3 304 303 147
3 304 64 303
3 304 302 64
3 305 302 304
3 305 12 302
3 305 263 12
3 306 263 305
3 306 46 263
3 149 306 65
3 307 306 149
3 307 46 306
3 307 122 46
3 308 122 307
3 308 5 122
3 309 310 4
3 311 310 309
3 311 67 310
3 684 311 685
3 312 686 688
3 686 311 687
3 686 687 688
3 312 67 311
3 312 217 67
3 313 217 312
3 313 14 217
3 689 313 690
3 691 313 692
3 693 14 694
3 695 694 313
3 693 694 695
3 697 696 14
3 314 698 700
3 700 699 2
3 698 699 700
3 702 701 314
3 152 703 705
3 705 704 68
3 703 704 705
3 707 706 152
3 709 708 15
3 315 710 712
3 710 711 712
3 315 713 714
3 238 715 717
3 717 716 16
3 715 716 717
3 316 718 720
3 720 719 238
3 718 719 720
3 316 721 723
3 721 69 722
3 721 722 723
3 154 316 33
3 317 316 154
3 317 69 316
3 317 315 69
3 318 315 317
3 318 724 726
3 726 725 315
3 724 725 726
3 318 727 729
3 727 282 728
3 727 728 729
3 319 282 318
3 319 55 282
3 156 319 70
3 320 319 156
3 320 55 319
3 320 130 55
3 321 130 320
3 321 2 130
3 284 110 1
3 322 110 284
3 322 34 110
3 159 322 57
3 323 322 159
3 323 34 322
3 323 241 34
3 324 241 323
3 324 17 241
3 243 160 8
3 325 160 243
3 325 72 160
3 162 325 36
3 326 325 162
3 326 72 325
3 326 324 72
3 327 324 326
3 327 17 324
3 327 157 17
3 328 157 327
3 328 71 157
3 164 328 73
3 329 328 164
3 329 71 328
3 329 321 71
3 330 321 329
3 330 2 321
3 330 314 2
3 331 314 330
3 331 68 314
3 166 331 74
3 332 331 166
3 332 68 331
3 332 151 68
3 333 151 332
3 333 15 151
3 247 167 18
3 334 167 247
3 334 75 167
3 169 334 38
3 335 334 169
3 335 75 334
3 335 333 75
3 336 333 335
3 336 15 333
3 336 730 732
3 732 731 15
3 730 731 732
3 734 733 336
3 736 735 76
3 337 338 0
3 339 338 337
3 339 78 338
3 172 339 77
3 340 339 172
3 340 78 339
3 340 209 78
3 341 209 340
3 341 21 209
3 252 173 20
3 342 173 252
3 342 79 173
3 175 342 40
3 343 342 175
3 343 79 342
3 343 341 79
3 344 341 343
3 344 21 341
3 344 272 21
3 345 272 344
3 345 51 272
3 177 345 80
3 346 345 177
3 346 51 345
3 346 127 51
3 347 127 346
3 347 4 127
3 348 737 738
3 348 739 740
3 348 741 743
3 741 255 742
3 741 742 743
3 349 255 348
3 349 22 255
3 179 744 745
3 350 746 748
3 748 747 179
3 746 747 748
3 350 749 750
3 350 751 753
3 751 349 752
3 751 752 753
3 351 349 350
3 351 22 349
3 351 178 22
3 352 178 351
3 352 81 178
3 181 352 82
3 353 352 181
3 353 81 352
3 353 347 81
3 354 347 353
3 354 4 347
3 354 309 4
3 754 309 755
3 756 755 354
3 754 755 756
3 758 757 309
3 760 759 83
3 355 761 762
3 355 763 764
3 355 765 767
3 765 236 766
3 765 766 767
3 356 236 355
3 356 13 236
3 768 356 769
3 357 770 772
3 770 356 771
3 770 771 772
3 357 13 356
3 357 150 13
3 358 150 357
3 358 66 150
3 773 358 774
3 359 775 777
3 775 358 776
3 775 776 777
3 359 66 358
3 359 308 66
3 360 308 359
3 360 5 308
3 778 84 779
3 361 780 781
3 361 782 784
3 782 84 783
3 782 783 784
3 361 360 84
3 362 360 361
3 362 5 360
3 362 126 5
3 363 126 362
3 363 50 126
3 182 363 85
3 364 363 182
3 364 50 363
3 364 271 50
3 365 271 364
3 365 23 271
3 785 183 786
3 366 787 789
3 787 183 788
3 787 788 789
3 366 86 183
3 185 366 41
3 367 366 185
3 367 86 366
3 367 365 86
3 368 365 367
3 368 23 365
3 368 208 23
3 369 208 368
3 369 88 208
3 187 369 87
3 370 369 187
3 370 88 369
3 370 371 88
3 337 371 370
3 337 0 371
3 257 790 792
3 792 791 10
3 790 791 792
3 794 793 257
3 372 795 796
3 372 797 799
3 797 16 798
3 797 798 799
3 259 800 802
3 800 188 801
3 800 801 802
3 373 188 259
3 373 89 188
3 190 373 44
3 374 373 190
3 374 89 373
3 374 372 89
3 375 372 374
3 375 16 372
3 375 237 16
3 376 237 375
3 376 32 237
3 192 376 90
3 377 376 192
3 377 32 376
3 377 108 32
3 378 108 377
3 378 1 108
3 299 121 6
3 379 121 299
3 379 45 121
3 195 379 63
3 380 379 195
3 380 45 379
3 380 262 45
3 381 262 380
3 381 24 262
3 264 196 12
3 382 196 264
3 382 92 196
3 198 382 47
3 383 382 198
3 383 92 382
3 383 381 92
3 384 381 383
3 384 24 381
3 384 193 24
3 385 193 384
3 385 91 193
3 200 385 93
3 386 385 200
3 386 91 385
3 386 378 91
3 387 378 386
3 387 1 378
3 387 283 1
3 388 283 387
3 388 56 283
3 202 388 94
3 389 388 202
3 389 56 388
3 389 131 56
3 390 131 389
3 390 7 131
3 268 203 25
3 391 203 268
3 391 95 203
3 205 391 49
3 392 391 205
3 392 95 391
3 392 390 95
3 393 390 392
3 393 7 390
3 393 227 7
3 394 227 393
3 394 28 227
3 207 394 96
3 395 394 207
3 395 28 394
3 395 104 28
3 371 104 395
3 371 0 104
3 338 106 0
3 396 106 338
3 396 30 106
3 210 396 78
3 397 396 210
3 397 30 396
3 397 231 30
3 398 231 397
3 398 9 231
3 273 211 21
3 399 211 273
3 399 97 211
3 213 399 52
3 400 399 213
3 400 97 399
3 400 398 97
3 401 398 400
3 401 9 398
3 401 138 9
3 402 138 401
3 402 60 138
3 215 402 98
3 403 402 215
3 403 60 402
3 403 293 60
3 404 293 403
3 404 3 293
3 310 129 4
3 405 129 310
3 405 53 129
3 218 405 67
3 406 405 218
3 406 53 405
3 406 276 53
3 407 276 406
3 407 26 276
3 277 219 14
3 408 219 277
3 408 100 219
3 221 408 54
3 409 408 221
3 409 100 408
3 409 407 100
3 410 407 409
3 410 26 407
3 410 216 26
3 411 216 410
3 411 99 216
3 223 411 101
3 412 411 223
3 412 99 411
3 412 404 99
3 413 404 412
3 413 3 404
3 413 115 3
3 414 115 413
3 414 39 115
3 225 414 102
3 415 414 225
3 415 39 414
3 415 250 39
3 416 250 415
3 416 19 250
3 281 226 27
3 803 226 804
3 805 804 281
3 803 804 805
3 806 103 807
3 808 807 226
3 806 807 808
3 417 809 810
3 417 811 813
3 811 103 812
3 811 812 813
3 417 416 103
3 814 416 815
3 816 815 417
3 814 815 816
3 817 19 818
3 819 818 416
3 817 818 819
3 821 820 19
3 823 822 2
