ply
format ascii 1.0
element vertex 559
property float x
property float y
property float z
element face 680
property list uchar int vertex_index
end_header
-29.977304 -16.238115 68.86586
-28.742483 12.808147 65.571426
-30.307217 -7.881915 52.732025
-30.449402 -25.322344 62.964272
-29.98098 -22.005087 54.184189
-30.984755 -12.313551 61.334534
-28.348089 -28.200466 69.758018
-26.613886 -7.468162 72.21154
-29.994816 -2.343149 67.439377
-29.219492 -30.772476 47.589344
-29.226894 -17.935442 45.534904
-29.837954 -3.48199 44.42215
-30.764687 2.853871 59.988243
-30.557987 7.815621 51.565033
-30.634657 12.808062 43.459309
-30.483871 -20.748341 66.086426
-30.79384 -19.078377 62.207912
-30.817989 -14.405429 65.361061
-28.318972 -17.809551 71.426529
-27.289171 -23.501492 71.804977
-29.345491 -22.568254 69.416832
-29.794418 -27.127285 66.778038
-26.202827 -0.628982 71.379532
-29.560789 -32.412601 51.76609
-30.132004 -15.096819 53.402176
-29.529577 -19.909447 49.850327
-29.680897 -13.134459 48.928272
-29.498962 -10.711266 45.021759
-29.962809 -5.497807 48.470093
-29.540308 4.772064 66.538063
-30.642206 -0.017987 63.804749
-30.188602 8.044021 63.0742
-30.584015 13.539269 55.180496
-30.514677 10.474779 47.496365
-30.148619 -29.921597 59.612709
-29.903419 -28.067541 55.166107
-30.406401 -23.663631 58.73645
-30.603441 -17.024683 57.953533
-30.72257 -9.966674 56.945259
-29.624043 15.83742 62.232548
-25.877222 -28.90975 71.817986
-29.853804 -31.604109 63.752811
-28.748064 -11.63765 70.975121
-30.239086 -9.593084 68.06485
-28.67473 -5.118754 70.344856
-28.242741 1.94069 69.407486
-27.421881 9.267535 68.337631
-29.04705 -29.211967 43.262245
-29.450111 -26.418226 50.666203
-29.111029 -24.543421 46.405727
-29.014856 -22.816666 42.330906
-29.219425 -16.035212 41.589844
-29.588991 -8.808709 41.092407
-30.072046 -1.135258 40.6717
-30.875929 -7.237158 64.52639
-30.970697 -5.093388 60.700603
-30.752354 -2.386096 56.381393
-30.503336 10.697985 59.105877
-30.686689 5.247471 55.804146
-30.442089 -0.193945 52.068695
-30.243734 2.037575 47.994167
-30.258711 4.586345 44.094128
-30.584408 6.844875 40.238327
-30.299994 -18.556608 67.572388
-30.686789 -17.704773 65.683151
-30.495081 -15.498885 67.195007
-29.276737 -17.220751 70.222076
-28.947874 -20.173855 70.465843
-29.751282 -19.428024 69.077141
-30.005152 -21.77689 67.907188
-30.207518 -11.48798 52.935009
-29.899584 -13.926009 51.188213
-30.004793 -10.348992 50.886143
-29.825003 -9.36196 48.770184
-30.101585 -6.707104 50.509731
-29.190456 8.657059 66.069366
-29.910372 6.446761 64.888496
-29.601357 10.292019 64.460266
-30.306301 -27.740734 61.324902
-30.28437 -26.88648 59.197083
-30.479061 -24.697857 60.799358
-30.915827 -15.594134 61.785892
-30.745142 -18.092314 60.094513
-30.828707 -14.759251 59.60574
-30.652113 -13.635036 57.280323
-30.888855 -11.188744 59.134762
-27.872368 -26.021009 70.874214
-26.6665 -26.359314 71.818321
-27.246344 -28.800772 70.883942
-28.619127 -30.489262 68.57196
-30.207809 -26.466702 64.915527
-29.846704 -29.459387 65.286964
-30.175705 -28.542032 63.357944
-30.095839 -30.66877 61.746395
-27.795397 -9.315808 71.700623
-28.868404 -8.570821 70.582672
-27.752487 -6.152515 71.369774
-25.901596 2.626331 70.874596
-27.285275 0.53621 70.55735
-26.943022 4.150498 69.999748
-27.797525 5.644085 68.950455
-26.678257 -10.533859 72.46125
-27.731848 -12.629351 71.964668
-29.101866 -30.103661 45.388626
-29.931562 -25.117548 54.638901
-29.676985 -27.226225 52.877228
-29.69717 -24.079338 52.392994
-29.35771 -18.738781 47.730503
-29.29538 -22.178711 48.188457
-29.155766 -21.258713 46.05772
-29.031221 -23.507164 44.432713
-29.077568 -20.35339 43.838448
-29.087679 -19.566729 41.873882
-29.17963 -16.946796 43.458549
-29.648901 -7.213376 44.526382
-29.48222 -10.023573 42.929214
-29.682396 -6.202343 42.734592
-29.818626 -5.094357 40.828728
-29.895786 -2.477667 42.525105
-30.158173 -6.062567 67.785973
-30.645325 -8.586435 66.367363
-30.548565 -4.841237 66.07428
-30.743719 1.332445 61.968422
-30.883808 -2.426617 62.189461
-30.882349 -1.213463 60.217758
-30.881937 -3.691892 58.452522
-30.819487 0.208796 58.244423
-30.161367 13.441553 60.742447
-30.313368 14.982617 58.825211
-30.61846 10.733158 53.430485
-30.640377 9.344794 55.454479
-30.621729 6.380423 53.735905
-30.605974 2.437792 53.855106
-30.505501 3.769547 51.816792
-30.318335 0.861626 49.984028
-30.426872 4.992702 49.737621
-30.545084 11.627074 45.378468
-30.389311 7.443359 45.813484
-30.455082 8.610208 43.695766
-30.370331 5.658574 42.149143
-30.605324 10.003095 41.822029
-30.49312 -23.274977 64.654541
-30.631681 -22.456949 62.531239
-30.70742 -20.256645 64.160194
-30.873119 -16.68185 63.787403
-30.973764 -13.252916 63.386791
-27.157488 -18.559328 72.311043
-26.583904 -21.297421 72.470825
-27.910192 -20.816349 71.590996
-28.445555 -23.197994 70.723747
-28.852663 -25.577847 69.651245
-29.190262 -27.814709 68.316978
-29.630827 -24.858021 68.164406
-30.189201 -24.024054 66.408951
-26.535414 -4.091358 71.806992
-29.370855 -31.630707 49.537815
-30.048706 -18.613539 53.778011
-29.754921 -20.887779 52.05928
-29.822653 -17.55603 51.680775
-29.606346 -16.535526 49.486279
-29.430893 -15.425714 47.156769
-29.345087 -14.346271 45.159836
-29.568298 -11.830022 47.000523
-29.707584 -8.272243 46.700123
-29.852213 -4.629406 46.271202
-29.788908 1.297092 66.984909
-30.374077 -1.210835 65.807343
-30.200937 2.478431 65.261375
-30.416403 3.973809 63.574139
-30.572454 5.230577 61.670193
-30.610811 14.820287 52.98037
-30.601645 11.91503 51.289162
-30.521778 9.198762 49.482883
-30.602978 13.307295 49.202785
-29.996084 -32.002209 57.734886
-29.892525 -31.133078 55.751354
-30.079815 -29.000597 57.508373
-30.152893 -25.993744 57.003616
-30.222595 -22.795403 56.471497
-30.63562 -21.288551 60.515797
-30.509684 -20.35857 58.328018
-30.293928 -19.415512 55.988068
-30.372757 -16.145521 55.623871
-30.430998 -12.668628 55.076115
-30.518412 -8.976631 54.831429
-29.206701 14.665738 63.929466
-29.342772 -30.031147 67.029175
-29.465322 -32.07983 65.58094
-30.003075 -32.852692 59.922474
-29.499392 -13.795659 69.960129
-30.169333 -13.012815 68.457069
-29.640783 -10.652865 69.58593
-29.584934 -7.217052 69.315224
-29.443842 -3.743835 68.975616
-27.615763 -2.735574 70.939903
-28.529755 -1.545418 69.854729
-29.245134 -0.09015 68.515091
-28.937174 3.635497 68.05587
-28.614594 7.125714 67.561981
-28.148163 11.052539 67.04287
-26.870886 13.32305 67.660011
-27.610685 15.319304 66.376869
-27.492601 -15.664187 72.169792
-28.667587 -14.821326 71.138931
-29.069838 -28.397903 41.241211
-29.698479 -30.38282 53.444572
-29.488457 -29.508865 51.233082
-29.292578 -28.565872 49.102184
-29.482155 -23.195496 50.312351
-29.257786 -25.331745 48.521057
-29.129696 -27.678421 46.899349
-29.029934 -26.904034 44.758141
-28.998661 -25.868069 42.866589
-29.049969 -25.440962 40.823196
-29.091419 -21.985281 40.387032
-29.201645 -18.578457 39.96666
-29.364826 -15.078013 39.65427
-29.324358 -13.387861 43.309319
-29.386692 -12.492611 41.344952
-29.562145 -11.333798 39.542507
-30.044374 -4.100393 39.082912
-30.603506 -12.24248 66.85202
-30.887957 -11.026812 64.938782
-31.007948 -9.820261 62.943645
-30.769661 -3.537817 64.262367
-30.973486 -6.216063 62.627464
-31.003763 -8.766099 60.814934
-30.918531 -7.358486 58.864754
-30.763664 -6.216643 56.702068
-30.56625 -5.114008 54.482388
-29.919748 11.92074 62.672573
-30.399744 9.135552 61.150913
-30.647924 6.543307 59.563667
-30.54879 12.200262 57.242565
-30.659662 7.841657 57.595699
-30.744707 3.945707 57.897327
-30.723347 1.377725 56.087978
-30.603926 -1.22943 54.308372
-30.374523 -4.209893 52.414284
-30.22266 -2.848689 50.357525
-30.09725 -1.889356 48.226326
-30.031418 -0.78534 46.106148
-30.388876 6.247661 47.810772
-30.218981 3.294098 46.055698
-30.046875 0.47602 44.151066
-30.139494 1.658584 42.369682
-30.331215 2.824472 40.466877
-28.012563 -29.566899 69.802944
-27.46169 -29.867052 70.365906
-27.797217 -28.500619 70.32098
-28.483608 -29.344864 69.164989
-28.148081 -30.711297 69.209915
-28.012563 -29.566899 69.802944
-26.197097 5.204942 70.126598
-26.422309 3.388414 70.437172
-25.676384 4.442858 70.564022
-26.695602 6.093118 69.685714
-26.197097 5.204942 70.126598
-26.646071 -9.00101 72.336395
-25.982823 -9.468975 72.59922
-25.950638 -7.936127 72.474365
-29.217197 -31.868248 46.7621
-29.27753 -32.284574 47.751272
-29.160679 -30.438068 46.488985
-29.158385 -31.53384 45.661741
-29.217197 -31.868248 46.7621
-30.212623 16.941001 58.676808
-30.091164 16.328404 59.633826
-30.715452 13.390303 42.488399
-30.700786 11.987819 41.669759
-30.619991 11.405579 42.640669
-29.521426 -33.37643 50.881361
-29.608069 -33.880104 51.963195
-29.465822 -32.021654 50.651953
-29.426459 -32.985484 49.767224
-29.521426 -33.37643 50.881361
-30.622902 15.436777 51.972069
-30.597314 16.836136 52.893286
-30.618319 13.984148 51.126465
-30.606228 13.367659 52.134766
-30.622902 15.436777 51.972069
-30.618986 14.680281 50.083276
-30.602311 12.611162 50.245973
-30.618319 13.984148 51.126465
-26.601952 -23.756847 72.169876
-26.249319 -22.654812 72.5028
-26.936538 -22.399456 72.137901
-25.530607 -27.796384 72.153401
-25.925246 -26.521166 72.153568
-26.271861 -27.634532 71.818153
-25.110008 -29.095299 72.076881
-25.530607 -27.796384 72.153401
-25.418884 -30.178691 71.757812
-24.65167 -30.36424 72.016708
-25.110008 -29.095299 72.076881
-29.694313 -32.975671 63.841636
-29.500072 -33.213532 64.755701
-29.659563 -31.84197 64.666876
-29.860501 -32.541768 62.907778
-29.694313 -32.975671 63.841636
-26.568216 15.374682 67.277774
-26.116067 14.294965 67.829746
-26.938115 16.372809 66.636203
-27.240786 14.321177 67.01844
-26.568216 15.374682 67.277774
-27.363188 17.251924 66.019714
-26.938115 16.372809 66.636203
-26.967337 -14.532951 72.439315
-26.791694 -15.988732 72.523349
-29.094083 -30.325004 42.524511
-29.097866 -30.75992 43.547832
-29.058444 -28.804935 42.251728
-29.105477 -29.917972 41.513994
-29.094083 -30.325004 42.524511
-29.686286 -8.364584 40.188297
-29.672863 -9.627128 39.413347
-29.575568 -10.071254 40.317457
-30.207939 -0.61599 39.727158
-30.194103 -2.098558 38.932764
-30.05821 -2.617826 39.877306
-30.566403 12.869765 56.21153
-30.487375 14.274822 57.061287
-30.504988 14.944325 56.030253
-30.610182 5.429352 39.398138
-30.483586 3.419151 39.512413
-30.457811 4.834674 40.352602
-30.739646 7.490321 39.322626
-30.610182 5.429352 39.398138
-29.654792 -32.899145 52.893306
-29.608069 -33.880104 51.963195
-26.824305 -30.048677 70.915821
-26.139744 -30.103167 71.382844
-26.561783 -28.855261 71.350964
-26.824305 -30.048677 70.915821
-27.46169 -29.867052 70.365906
-28.297382 -31.938549 68.591351
-28.148081 -30.711297 69.209915
-28.72686 -31.580508 67.906258
-28.297382 -31.938549 68.591351
-27.122854 6.839912 69.161068
-27.370273 4.897291 69.475101
-26.695602 6.093118 69.685714
-26.935032 8.651637 68.854656
-27.609703 7.45581 68.644043
-27.122854 6.839912 69.161068
-25.947405 -10.914953 72.717182
-25.982823 -9.468975 72.59922
-26.560164 -11.967787 72.585045
-25.947405 -10.914953 72.717182
-27.205053 -11.581605 72.212959
-27.08696 -13.015533 72.336754
-26.560164 -11.967787 72.585045
-29.125274 -31.205767 44.611023
-29.158385 -31.53384 45.661741
-29.074458 -29.657814 44.325435
-29.097866 -30.75992 43.547832
-29.125274 -31.205767 44.611023
-30.015164 15.557872 60.592444
-29.892705 14.639487 61.487498
-29.746502 16.755806 61.337494
-30.237367 14.212085 59.783829
-30.015164 15.557872 60.592444
-30.091164 16.328404 59.633826
-30.715811 10.475881 40.865202
-30.705353 8.896771 40.073351
-30.594866 8.423985 41.030178
-30.715811 10.475881 40.865202
-30.700786 11.987819 41.669759
-26.870696 -19.928375 72.390934
-26.190142 -20.244523 72.695221
-26.476934 -18.875477 72.61533
-25.884963 -4.697961 72.107617
-26.57465 -5.77976 72.009266
-25.924199 -6.386363 72.30989
-25.828866 -3.061316 71.887226
-25.884963 -4.697961 72.107617
-25.662572 -1.330128 71.673496
-26.369121 -2.36017 71.593262
-25.828866 -3.061316 71.887226
-25.477838 0.355608 71.423474
-25.662572 -1.330128 71.673496
-25.327223 1.983265 71.171006
-26.052211 0.998674 71.127064
-25.477838 0.355608 71.423474
-25.099941 3.642553 70.885231
-25.327223 1.983265 71.171006
-24.525568 2.999487 71.181641
-25.676384 4.442858 70.564022
-25.099941 3.642553 70.885231
-25.924199 -6.386363 72.30989
-25.950638 -7.936127 72.474365
-29.353212 -32.71369 48.725508
-29.426459 -32.985484 49.767224
-29.295173 -31.201591 48.56358
-29.27753 -32.284574 47.751272
-29.353212 -32.71369 48.725508
-30.549772 15.55464 55.003811
-30.504988 14.944325 56.030253
-30.56317 16.195149 53.903748
-30.597314 16.836136 52.893286
-30.597413 14.179778 54.080433
-30.549772 15.55464 55.003811
-30.56317 16.195149 53.903748
-30.635229 15.33167 49.103012
-30.618986 14.680281 50.083276
-30.613598 13.947902 48.202081
-30.635229 15.33167 49.103012
-30.569447 12.531643 47.348872
-30.558827 11.891037 48.349575
-30.613598 13.947902 48.202081
-30.584651 13.107791 46.289923
-30.52988 11.050926 46.437416
-30.569447 12.531643 47.348872
-30.613487 13.644219 45.189335
-30.584651 13.107791 46.289923
-30.658273 14.234713 44.229755
-30.58987 12.217568 44.418888
-30.613487 13.644219 45.189335
-30.714268 14.764985 43.228777
-30.658273 14.234713 44.229755
-29.944305 -31.567644 56.74312
-29.884412 -32.63241 55.929905
-29.936191 -33.066975 56.921671
-28.752992 15.821771 64.427208
-28.974592 13.736942 64.750446
-28.520884 14.892975 65.248188
-29.018518 16.560405 63.667959
-28.752992 15.821771 64.427208
-29.227189 17.146246 62.8195
-29.415372 15.251579 63.081007
-29.018518 16.560405 63.667959
-29.430694 17.972818 61.999794
-29.227189 17.146246 62.8195
-29.746502 16.755806 61.337494
-29.430694 17.972818 61.999794
-25.828018 -21.606139 72.731323
-26.190142 -20.244523 72.695221
-25.828018 -21.606139 72.731323
-26.249319 -22.654812 72.5028
-26.290617 -25.185758 72.176548
-26.601952 -23.756847 72.169876
-26.977835 -24.930403 71.811649
-26.290617 -25.185758 72.176548
-25.925246 -26.521166 72.153568
-25.418884 -30.178691 71.757812
-26.139744 -30.103167 71.382844
-29.088683 -31.35145 67.134865
-28.72686 -31.580508 67.906258
-28.98095 -30.260205 67.800567
-29.149957 -32.375792 66.410747
-29.088683 -31.35145 67.134865
-29.404047 -31.055489 66.305058
-29.246817 -33.478316 65.636414
-29.149957 -32.375792 66.410747
-29.246817 -33.478316 65.636414
-29.500072 -33.213532 64.755701
-29.981518 -32.074098 61.90457
-29.860501 -32.541768 62.907778
-29.974822 -31.13644 62.749603
-29.935136 -33.16606 60.992609
-29.981518 -32.074098 61.90457
-30.049457 -31.760731 60.834435
-29.92366 -34.250769 60.072974
-29.935136 -33.16606 60.992609
-29.963008 -33.846953 59.037079
-29.92366 -34.250769 60.072974
-29.959513 -33.421711 57.943285
-29.963008 -33.846953 59.037079
-29.999579 -32.42745 58.82868
-29.936191 -33.066975 56.921671
-29.959513 -33.421711 57.943285
-26.686368 10.38496 68.540306
-26.935032 8.651637 68.854656
-26.410871 12.412717 68.201496
-26.116067 14.294965 67.829746
-27.146383 11.295293 67.998821
-26.686368 10.38496 68.540306
-26.410871 12.412717 68.201496
-27.954985 16.148554 65.650909
-28.520884 14.892975 65.248188
-28.176584 14.063726 65.974148
-27.954985 16.148554 65.650909
-27.363188 17.251924 66.019714
-26.624137 -17.436302 72.593975
-26.476934 -18.875477 72.61533
-25.943583 -17.752451 72.898262
-27.325045 -17.111757 72.240418
-26.624137 -17.436302 72.593975
-26.791694 -15.988732 72.523349
-27.612224 -14.146769 72.06723
-26.967337 -14.532951 72.439315
-27.08696 -13.015533 72.336754
-29.144697 -29.685959 40.543204
-29.105477 -29.917972 41.513994
-29.125573 -28.09762 40.271946
-29.200432 -29.385677 39.573938
-29.144697 -29.685959 40.543204
-29.82066 -32.259383 54.885938
-29.884412 -32.63241 55.929905
-29.723637 -31.884254 53.732547
-29.82066 -32.259383 54.885938
-29.795502 -30.757949 54.597963
-29.629634 -31.397711 52.605331
-29.654792 -32.899145 52.893306
-29.723637 -31.884254 53.732547
-29.115638 -26.61915 40.062939
-29.125573 -28.09762 40.271946
-29.059904 -26.919432 41.032204
-29.122843 -24.924667 39.843637
-29.115638 -26.61915 40.062939
-29.143568 -23.196826 39.625555
-29.122843 -24.924667 39.843637
-29.070694 -23.713121 40.605114
-29.182369 -21.626586 39.417574
-29.143568 -23.196826 39.625555
-29.237482 -19.923174 39.207388
-29.182369 -21.626586 39.417574
-29.146532 -20.281869 40.176846
-29.301324 -18.175989 39.10137
-29.237482 -19.923174 39.207388
-29.382914 -16.425767 38.945175
-29.301324 -18.175989 39.10137
-29.283235 -16.828235 39.810465
-29.48084 -14.652733 38.805233
-29.382914 -16.425767 38.945175
-29.5795 -12.780625 38.749352
-29.48084 -14.652733 38.805233
-29.463486 -13.205906 39.598388
-29.702517 -10.933497 38.604004
-29.5795 -12.780625 38.749352
-29.702517 -10.933497 38.604004
-29.672863 -9.627128 39.413347
-29.801103 -6.507407 40.056458
-29.686286 -8.364584 40.188297
-29.703809 -6.951533 40.960567
-29.913978 -6.010426 39.183549
-29.801103 -6.507407 40.056458
-29.9315 -4.597375 39.95582
-30.070822 -5.356401 38.347721
-29.913978 -6.010426 39.183549
-30.220577 -3.508896 38.20533
-30.070822 -5.356401 38.347721
-30.220577 -3.508896 38.20533
-30.194103 -2.098558 38.932764
-30.369664 15.665999 57.85261
-30.212623 16.941001 58.676808
-30.431079 13.591439 58.033888
-30.369664 15.665999 57.85261
-30.487375 14.274822 57.061287
-30.337523 1.363875 39.624747
-30.207939 -0.61599 39.727158
-30.201631 0.844607 40.569288
-30.337523 1.363875 39.624747
-30.483586 3.419151 39.512413
-30.739646 7.490321 39.322626
-30.705353 8.896771 40.073351
-30.795063 15.347225 42.257868
-30.715452 13.390303 42.488399
-30.714268 14.764985 43.228777
3 0 65 63
3 0 68 66
3 0 63 68
3 2 72 70
3 2 74 72
3 1 77 75
3 3 80 78
3 5 83 81
3 5 85 83
3 6 88 86
3 6 247 249
3 249 248 88
3 247 248 249
3 6 250 252
3 250 89 251
3 250 251 252
3 3 92 90
3 3 78 92
3 7 96 94
3 253 99 254
3 255 254 97
3 253 254 255
3 257 256 99
3 7 258 260
3 258 101 259
3 258 259 260
3 7 94 101
3 9 261 262
3 9 263 265
3 263 103 264
3 263 264 265
3 4 106 104
3 10 109 107
3 10 111 109
3 10 113 111
3 11 116 114
3 11 118 116
3 8 121 119
3 12 124 122
3 12 126 124
3 266 128 267
3 13 131 129
3 13 133 131
3 13 135 133
3 14 138 136
3 14 140 138
3 14 268 270
3 270 269 140
3 268 269 270
3 15 143 141
3 17 144 64
3 17 145 144
3 18 148 146
3 20 149 67
3 20 150 149
3 20 152 150
3 15 153 69
3 15 141 153
3 23 271 272
3 23 273 275
3 273 155 274
3 273 274 275
3 24 158 156
3 26 159 71
3 26 160 159
3 26 162 160
3 28 163 73
3 28 164 163
3 29 167 165
3 31 168 76
3 31 169 168
3 276 170 277
3 278 171 279
3 280 279 170
3 278 279 280
3 281 173 282
3 283 282 171
3 281 282 283
3 34 176 174
3 36 177 79
3 36 178 177
3 16 179 142
3 37 180 82
3 37 181 180
3 37 182 181
3 38 183 84
3 38 184 183
3 19 284 286
3 286 285 147
3 284 285 286
3 40 287 289
3 289 288 87
3 287 288 289
3 40 290 291
3 40 292 294
3 292 293 294
3 21 186 151
3 41 187 91
3 41 295 297
3 297 296 187
3 295 296 297
3 41 298 299
3 34 188 93
3 34 174 188
3 42 191 189
3 44 192 95
3 44 193 192
3 22 194 154
3 45 195 98
3 45 196 195
3 45 197 196
3 46 198 100
3 46 199 198
3 300 200 301
3 302 201 303
3 304 303 200
3 302 303 304
3 306 305 201
3 307 202 308
3 42 203 102
3 42 189 203
3 47 309 310
3 47 311 313
3 311 204 312
3 311 312 313
3 35 205 175
3 48 206 105
3 48 207 206
3 25 208 157
3 49 209 108
3 49 210 209
3 49 211 210
3 50 212 110
3 50 213 212
3 50 214 213
3 51 215 112
3 51 216 215
3 27 217 161
3 52 218 115
3 52 219 218
3 52 314 316
3 316 315 219
3 314 315 316
3 53 220 117
3 53 317 319
3 319 318 220
3 317 318 319
3 43 221 190
3 54 222 120
3 54 223 222
3 30 224 166
3 55 225 123
3 55 226 225
3 55 227 226
3 56 228 125
3 56 229 228
3 39 230 185
3 57 231 127
3 57 232 231
3 32 320 322
3 320 233 321
3 320 321 322
3 58 234 130
3 58 235 234
3 58 236 235
3 59 237 132
3 59 238 237
3 59 239 238
3 60 240 134
3 60 241 240
3 33 242 172
3 61 243 137
3 61 244 243
3 61 245 244
3 62 246 139
3 62 323 325
3 325 324 246
3 323 324 325
3 62 326 327
3 63 64 15
3 65 64 63
3 65 17 64
3 66 67 18
3 68 67 66
3 68 20 67
3 68 69 20
3 63 69 68
3 63 15 69
3 328 23 329
3 70 71 24
3 72 71 70
3 72 26 71
3 72 73 26
3 74 73 72
3 74 28 73
3 75 76 29
3 77 76 75
3 77 31 76
3 78 79 34
3 80 79 78
3 80 36 79
3 81 82 16
3 83 82 81
3 83 37 82
3 83 84 37
3 85 84 83
3 85 38 84
3 86 87 19
3 88 87 86
3 88 40 87
3 88 330 332
3 332 331 40
3 330 331 332
3 334 333 88
3 89 335 336
3 89 337 338
3 90 91 21
3 92 91 90
3 92 41 91
3 92 93 41
3 78 93 92
3 78 34 93
3 94 95 42
3 96 95 94
3 96 44 95
3 97 98 22
3 99 98 97
3 99 45 98
3 99 100 45
3 339 100 340
3 341 340 99
3 339 340 341
3 342 46 343
3 344 343 100
3 342 343 344
3 101 345 346
3 101 347 348
3 101 349 351
3 349 102 350
3 349 350 351
3 94 102 101
3 94 42 102
3 103 352 353
3 103 354 356
3 354 47 355
3 354 355 356
3 104 105 35
3 106 105 104
3 106 48 105
3 107 108 25
3 109 108 107
3 109 49 108
3 109 110 49
3 111 110 109
3 111 50 110
3 111 112 50
3 113 112 111
3 113 51 112
3 114 115 27
3 116 115 114
3 116 52 115
3 116 117 52
3 118 117 116
3 118 53 117
3 119 120 43
3 121 120 119
3 121 54 120
3 122 123 30
3 124 123 122
3 124 55 123
3 124 125 55
3 126 125 124
3 126 56 125
3 357 127 358
3 359 358 39
3 357 358 359
3 128 360 362
3 360 127 361
3 360 361 362
3 128 57 127
3 129 130 32
3 131 130 129
3 131 58 130
3 131 132 58
3 133 132 131
3 133 59 132
3 133 134 59
3 135 134 133
3 135 60 134
3 136 137 33
3 138 137 136
3 138 61 137
3 138 139 61
3 140 139 138
3 140 62 139
3 140 363 365
3 365 364 62
3 363 364 365
3 367 366 140
3 141 142 3
3 143 142 141
3 143 16 142
3 64 143 15
3 144 143 64
3 144 16 143
3 144 81 16
3 145 81 144
3 145 5 81
3 146 368 370
3 368 147 369
3 368 369 370
3 148 147 146
3 148 19 147
3 67 148 18
3 149 148 67
3 149 19 148
3 149 86 19
3 150 86 149
3 150 6 86
3 150 151 6
3 152 151 150
3 152 21 151
3 69 152 20
3 153 152 69
3 153 21 152
3 153 90 21
3 141 90 153
3 141 3 90
3 371 154 372
3 373 372 7
3 371 372 373
3 374 154 375
3 376 22 377
3 378 377 154
3 376 377 378
3 379 22 380
3 381 97 382
3 383 382 22
3 381 382 383
3 384 97 385
3 384 385 386
3 388 387 97
3 389 7 390
3 155 391 392
3 155 393 395
3 393 9 394
3 393 394 395
3 156 157 4
3 158 157 156
3 158 25 157
3 71 158 24
3 159 158 71
3 159 25 158
3 159 107 25
3 160 107 159
3 160 10 107
3 160 161 10
3 162 161 160
3 162 27 161
3 73 162 26
3 163 162 73
3 163 27 162
3 163 114 27
3 164 114 163
3 164 11 114
3 165 166 8
3 167 166 165
3 167 30 166
3 76 167 29
3 168 167 76
3 168 30 167
3 168 122 30
3 169 122 168
3 169 12 122
3 396 32 397
3 170 398 399
3 170 400 402
3 400 32 401
3 400 401 402
3 170 129 32
3 171 129 170
3 171 13 129
3 171 172 13
3 173 172 171
3 173 33 172
3 403 173 404
3 405 173 406
3 407 33 408
3 409 408 173
3 407 408 409
3 410 136 411
3 412 411 33
3 410 411 412
3 413 136 414
3 415 14 416
3 417 416 136
3 415 416 417
3 419 418 14
3 174 420 422
3 420 175 421
3 420 421 422
3 176 175 174
3 176 35 175
3 79 176 34
3 177 176 79
3 177 35 176
3 177 104 35
3 178 104 177
3 178 4 104
3 142 80 3
3 179 80 142
3 179 36 80
3 82 179 16
3 180 179 82
3 180 36 179
3 180 178 36
3 181 178 180
3 181 4 178
3 181 156 4
3 182 156 181
3 182 24 156
3 84 182 37
3 183 182 84
3 183 24 182
3 183 70 24
3 184 70 183
3 184 2 70
3 423 185 424
3 425 424 1
3 423 424 425
3 426 185 427
3 428 39 429
3 430 429 185
3 428 429 430
3 431 39 432
3 434 433 39
3 147 435 436
3 438 437 147
3 87 439 441
3 441 440 19
3 439 440 441
3 443 442 87
3 445 444 40
3 151 89 6
3 186 89 151
3 186 446 448
3 448 447 89
3 446 447 448
3 91 186 21
3 187 186 91
3 187 449 451
3 451 450 186
3 449 450 451
3 187 452 453
3 455 454 187
3 93 456 458
3 458 457 41
3 456 457 458
3 188 459 461
3 461 460 93
3 459 460 461
3 188 462 463
3 188 464 465
3 174 466 468
3 468 467 188
3 466 467 468
3 174 469 470
3 189 190 0
3 191 190 189
3 191 43 190
3 95 191 42
3 192 191 95
3 192 43 191
3 192 119 43
3 193 119 192
3 193 8 119
3 154 96 7
3 194 96 154
3 194 44 96
3 98 194 22
3 195 194 98
3 195 44 194
3 195 193 44
3 196 193 195
3 196 8 193
3 196 165 8
3 197 165 196
3 197 29 165
3 100 197 45
3 198 197 100
3 198 29 197
3 198 75 29
3 199 75 198
3 199 1 75
3 471 46 472
3 200 473 474
3 200 475 477
3 475 46 476
3 475 476 477
3 200 199 46
3 201 199 200
3 201 1 199
3 201 478 480
3 480 479 1
3 478 479 480
3 482 481 201
3 483 146 484
3 483 484 485
3 202 486 488
3 486 146 487
3 486 487 488
3 202 18 146
3 102 489 491
3 489 202 490
3 489 490 491
3 203 202 102
3 203 18 202
3 203 66 18
3 189 66 203
3 189 0 66
3 204 492 493
3 204 494 496
3 494 495 496
3 175 497 498
3 205 499 501
3 501 500 175
3 499 500 501
3 205 502 504
3 502 23 503
3 502 503 504
3 105 205 35
3 206 205 105
3 206 23 205
3 206 155 23
3 207 155 206
3 207 9 155
3 157 106 4
3 208 106 157
3 208 48 106
3 108 208 25
3 209 208 108
3 209 48 208
3 209 207 48
3 210 207 209
3 210 9 207
3 210 103 9
3 211 103 210
3 211 47 103
3 110 211 49
3 212 211 110
3 212 47 211
3 212 204 47
3 213 204 212
3 213 505 507
3 507 506 204
3 505 506 507
3 213 508 509
3 214 510 512
3 512 511 213
3 510 511 512
3 214 513 514
3 112 214 50
3 215 214 112
3 215 515 517
3 517 516 214
3 515 516 517
3 215 518 519
3 216 520 522
3 522 521 215
3 520 521 522
3 216 523 524
3 161 113 10
3 217 113 161
3 217 51 113
3 115 217 27
3 218 217 115
3 218 51 217
3 218 216 51
3 219 216 218
3 219 525 527
3 527 526 216
3 525 526 527
3 219 528 529
3 531 530 219
3 117 532 534
3 534 533 52
3 532 533 534
3 220 535 537
3 537 536 117
3 535 536 537
3 220 538 539
3 220 540 541
3 543 542 220
3 190 65 0
3 221 65 190
3 221 17 65
3 120 221 43
3 222 221 120
3 222 17 221
3 222 145 17
3 223 145 222
3 223 5 145
3 166 121 8
3 224 121 166
3 224 54 121
3 123 224 30
3 225 224 123
3 225 54 224
3 225 223 54
3 226 223 225
3 226 5 223
3 226 85 5
3 227 85 226
3 227 38 85
3 125 227 55
3 228 227 125
3 228 38 227
3 228 184 38
3 229 184 228
3 229 2 184
3 185 77 1
3 230 77 185
3 230 31 77
3 127 230 39
3 231 230 127
3 231 31 230
3 231 169 31
3 232 169 231
3 232 12 169
3 544 128 545
3 233 546 548
3 546 128 547
3 546 547 548
3 233 57 128
3 130 233 32
3 234 233 130
3 234 57 233
3 234 232 57
3 235 232 234
3 235 12 232
3 235 126 12
3 236 126 235
3 236 56 126
3 132 236 58
3 237 236 132
3 237 56 236
3 237 229 56
3 238 229 237
3 238 2 229
3 238 74 2
3 239 74 238
3 239 28 74
3 134 239 59
3 240 239 134
3 240 28 239
3 240 164 28
3 241 164 240
3 241 11 164
3 172 135 13
3 242 135 172
3 242 60 135
3 137 242 33
3 243 242 137
3 243 60 242
3 243 241 60
3 244 241 243
3 244 11 241
3 244 118 11
3 245 118 244
3 245 53 118
3 139 245 61
3 246 245 139
3 246 53 245
3 246 549 551
3 551 550 53
3 549 550 551
3 553 552 246
3 555 554 62
3 558 557 14
3 556 557 558
