ply
format ascii 1.0
element vertex 195
property float x
property float y
property float z
element face 176
property list uchar int vertex_index
end_header
-6.289782 11.187957 -70.022224
-0.987009 12.81214 -64.922813
-2.159414 2.618351 -63.907612
-0.225295 3.019233 -61.22147
-2.496759 26.193531 -64.757339
-2.671069 21.888338 -66.625435
-3.087924 17.303749 -67.769585
-3.384457 12.300944 -67.818115
-1.609417 7.86278 -64.809166
-3.849951 7.092825 -67.180244
-4.326312 1.641484 -65.827858
-6.479364 8.455018 -69.549652
-2.599216 24.143456 -65.804916
-1.284287 22.210264 -64.881927
-1.700467 17.558823 -66.106667
-1.955868 15.301744 -66.439163
-3.24408 14.878356 -67.922302
-2.173439 12.766239 -66.501411
-1.181093 2.916857 -62.677231
-0.846448 5.499922 -63.036606
-1.899208 5.343213 -64.478088
-2.774404 7.61376 -66.20031
-2.948537 4.898462 -65.604721
-4.12534 4.507435 -66.653198
-3.156741 2.371137 -64.972229
-0.544495 0.504323 -60.817207
-1.453385 0.360106 -62.134014
-2.32936 -0.133599 -63.094769
-6.083777 13.911029 -70.266907
-4.082232 23.895779 -67.427719
-4.097815 21.582096 -68.187332
-1.538482 19.825554 -65.681824
-2.867174 19.597662 -67.308289
-4.281282 19.284397 -68.797287
-4.440201 16.881516 -69.11898
-4.61153 14.455147 -69.199745
-4.791679 11.933802 -69.060951
-1.367032 10.378379 -65.057365
-2.46372 10.138514 -66.427834
-3.707163 9.821133 -67.704483
-4.981862 9.24739 -68.698387
-5.156879 6.664701 -68.169632
-3.37309 -0.467366 -64.125496
-7.065751 10.647771 -70.345425
-7.004914 12.056722 -70.56385
-6.384573 9.821487 -69.785938
-7.160542 9.281302 -70.109139
-7.065751 10.647771 -70.345425
-0.665095 22.382988 -64.036158
-1.236763 23.401224 -64.44363
-1.471439 14.056942 -65.680988
-1.377612 15.348649 -65.663856
-0.893183 14.103847 -64.905682
-0.65546 -0.721541 -60.517817
-0.23076 -0.703383 -59.824707
-1.109905 -0.79365 -61.17622
-0.99894 0.432214 -61.475611
-0.65546 -0.721541 -60.517817
-1.554822 -1.022577 -61.733341
-1.109905 -0.79365 -61.17622
-6.03377 15.195595 -70.302925
-6.83401 14.857551 -70.777432
-2.56306 27.272165 -64.194362
-1.920267 27.560254 -63.356928
-1.853966 26.48162 -63.919905
-3.262734 27.072729 -64.968357
-2.56306 27.272165 -64.194362
-3.214853 26.095992 -65.531689
-3.262734 27.072729 -64.968357
-1.001151 18.820321 -65.049405
-0.90406 20.009218 -64.812258
-0.072833 4.287311 -61.398536
0.216251 3.145344 -60.514236
-1.074874 7.987293 -64.063195
-0.69339 6.805865 -63.176914
-1.227933 6.681351 -63.922886
-1.488225 9.120579 -64.933266
-0.953682 9.245093 -64.187294
-1.074874 7.987293 -64.063195
-4.831807 2.702854 -66.608933
-4.731321 4.135829 -67.021603
-4.225826 3.07446 -66.240528
-4.946708 1.247764 -66.165367
-4.831807 2.702854 -66.608933
-2.97211 -1.674055 -63.20619
-2.851225 -0.300482 -63.610132
-2.450245 -1.507171 -62.690827
-7.213503 7.877166 -69.784584
-7.89468 8.703449 -70.344071
-7.160542 9.281302 -70.109139
-6.513491 6.971594 -69.149597
-7.213503 7.877166 -69.784584
-1.842999 25.392857 -64.381336
-1.853966 26.48162 -63.919905
-1.894228 24.36782 -64.905124
-2.547988 25.168494 -65.281127
-1.842999 25.392857 -64.381336
-1.941752 23.17686 -65.343422
-1.894228 24.36782 -64.905124
-1.236763 23.401224 -64.44363
-1.249912 16.477189 -65.497608
-1.082144 17.686955 -65.261826
-1.828167 16.430284 -66.272915
-1.249912 16.477189 -65.497608
-1.377612 15.348649 -65.663856
-0.477819 12.993083 -64.186286
-0.893183 14.103847 -64.905682
0.038118 1.872826 -60.350199
0.216251 3.145344 -60.514236
-0.121482 0.615371 -60.148068
0.192252 -0.592335 -59.155568
-0.23076 -0.703383 -59.824707
-0.384895 1.761778 -61.019339
0.038118 1.872826 -60.350199
-0.121482 0.615371 -60.148068
-1.992809 -1.269429 -62.213718
-1.891372 0.113253 -62.614391
-1.554822 -1.022577 -61.733341
-2.450245 -1.507171 -62.690827
-1.992809 -1.269429 -62.213718
-6.901912 13.418258 -70.686192
-6.83401 14.857551 -70.777432
-6.18678 12.549493 -70.144565
-7.004914 12.056722 -70.56385
-6.901912 13.418258 -70.686192
-3.266081 25.070954 -66.055477
-3.214853 26.095992 -65.531689
-2.547988 25.168494 -65.281127
-4.007589 24.947116 -66.866878
-3.266081 25.070954 -66.055477
-3.340724 24.019618 -66.616318
-4.807288 24.759797 -67.656204
-4.007589 24.947116 -66.866878
-4.833098 23.749941 -68.129734
-5.558153 24.613958 -68.358219
-4.807288 24.759797 -67.656204
-4.840889 22.5931 -68.50954
-4.833098 23.749941 -68.129734
-4.090024 22.738937 -67.807525
-4.861139 21.491328 -68.861385
-4.840889 22.5931 -68.50954
-0.776963 21.201573 -64.41231
-0.665095 22.382988 -64.036158
-1.411385 21.017909 -65.281876
-0.776963 21.201573 -64.41231
-0.90406 20.009218 -64.812258
-1.619474 18.692189 -65.894246
-1.001151 18.820321 -65.049405
-1.082144 17.686955 -65.261826
-4.952872 20.342478 -69.166363
-4.861139 21.491328 -68.861385
-4.189548 20.433246 -68.49231
-5.057356 19.121105 -69.452095
-4.952872 20.342478 -69.166363
-5.136815 17.919665 -69.612942
-5.057356 19.121105 -69.452095
-4.360741 18.082957 -68.958134
-5.211982 16.680838 -69.728961
-5.136815 17.919665 -69.612942
-5.297646 15.467654 -69.769344
-5.211982 16.680838 -69.728961
-4.525866 15.668332 -69.159362
-5.347653 14.183088 -69.733326
-6.03377 15.195595 -70.302925
-5.297646 15.467654 -69.769344
-0.627528 11.6754 -64.192507
-0.477819 12.993083 -64.186286
-0.38341 5.527655 -62.306105
-0.072833 4.287311 -61.398536
-0.535871 4.259577 -62.129038
-0.38341 5.527655 -62.306105
-0.69339 6.805865 -63.176914
-0.817539 10.45852 -64.259783
-0.953682 9.245093 -64.187294
-1.177021 11.59526 -64.990089
-0.627528 11.6754 -64.192507
-0.817539 10.45852 -64.259783
-5.852248 6.076435 -68.459587
-6.513491 6.971594 -69.149597
-5.818122 7.559859 -68.859642
-5.247091 5.214462 -67.77982
-4.641109 5.586068 -67.411415
-4.731321 4.135829 -67.021603
-5.852248 6.076435 -68.459587
-5.247091 5.214462 -67.77982
-3.460527 -1.943308 -63.617119
-2.97211 -1.674055 -63.20619
-3.943185 -0.859455 -64.498623
-3.460527 -1.943308 -63.617119
-4.419796 0.19497 -65.349804
-3.849701 0.587059 -64.976677
-3.943185 -0.859455 -64.498623
-5.040192 -0.19875 -65.687313
-4.946708 1.247764 -66.165367
-4.419796 0.19497 -65.349804
3 0 43 44
3 0 45 47
3 45 11 46
3 45 46 47
3 48 13 49
3 1 50 52
3 50 15 51
3 50 51 52
3 1 17 15
3 2 20 18
3 2 22 20
3 2 24 22
3 53 25 54
3 55 26 56
3 57 56 25
3 55 56 57
3 59 58 26
3 60 28 61
3 4 62 64
3 62 63 64
3 4 65 66
3 4 67 68
3 5 29 12
3 5 30 29
3 69 31 70
3 6 32 14
3 6 33 32
3 6 34 33
3 7 35 16
3 7 36 35
3 3 71 72
3 8 73 75
3 75 74 19
3 73 74 75
3 8 76 78
3 76 37 77
3 76 77 78
3 8 38 37
3 9 39 21
3 9 40 39
3 9 41 40
3 10 79 81
3 81 80 23
3 79 80 81
3 10 82 83
3 84 42 85
3 86 85 27
3 84 85 86
3 11 87 89
3 87 88 89
3 11 90 91
3 92 4 93
3 94 12 95
3 96 95 4
3 94 95 96
3 13 97 99
3 97 12 98
3 97 98 99
3 13 5 12
3 100 14 101
3 15 102 104
3 102 14 103
3 102 103 104
3 15 6 14
3 15 16 6
3 17 16 15
3 17 7 16
3 18 19 3
3 20 19 18
3 20 8 19
3 20 21 8
3 22 21 20
3 22 9 21
3 22 23 9
3 24 23 22
3 24 10 23
3 105 1 106
3 107 3 108
3 25 109 111
3 109 110 111
3 25 112 114
3 112 3 113
3 112 113 114
3 25 18 3
3 26 18 25
3 26 2 18
3 26 27 2
3 115 27 116
3 117 116 26
3 115 116 117
3 119 118 27
3 28 120 121
3 28 122 124
3 122 0 123
3 122 123 124
3 12 125 127
3 127 126 4
3 125 126 127
3 29 128 130
3 130 129 12
3 128 129 130
3 29 131 132
3 29 133 135
3 133 134 135
3 30 136 138
3 138 137 29
3 136 137 138
3 30 139 140
3 141 13 142
3 31 143 145
3 143 13 144
3 143 144 145
3 31 5 13
3 14 146 148
3 146 31 147
3 146 147 148
3 32 31 14
3 32 5 31
3 32 30 5
3 33 30 32
3 33 149 151
3 151 150 30
3 149 150 151
3 33 152 153
3 34 154 156
3 156 155 33
3 154 155 156
3 34 157 158
3 16 34 6
3 35 34 16
3 35 159 161
3 161 160 34
3 159 160 161
3 35 162 164
3 162 28 163
3 162 163 164
3 36 28 35
3 36 0 28
3 165 1 166
3 19 167 169
3 169 168 3
3 167 168 169
3 171 170 19
3 37 172 173
3 37 174 176
3 174 1 175
3 174 175 176
3 37 17 1
3 38 17 37
3 38 7 17
3 21 38 8
3 39 38 21
3 39 7 38
3 39 36 7
3 40 36 39
3 40 0 36
3 40 11 0
3 41 11 40
3 41 177 179
3 179 178 11
3 177 178 179
3 23 41 9
3 180 41 181
3 182 181 23
3 180 181 182
3 184 183 41
3 27 24 2
3 42 24 27
3 42 10 24
3 185 42 186
3 187 42 188
3 189 10 190
3 191 190 42
3 189 190 191
3 194 193 10
3 192 193 194
