ply
format ascii 1.0
element vertex 731
property float x
property float y
property float z
element face 864
property list uchar int vertex_index
end_header
-8.31771 55.473354 -37.535313
-13.316051 36.363949 -35.584911
-6.723172 41.9921 -50.233326
-14.550202 26.169161 -19.842663
-10.017678 46.865871 -36.082592
-11.051484 40.14505 -43.728619
-7.411442 48.961353 -42.78886
-15.472306 20.639458 -13.92986
-14.465016 35.458904 -15.865112
-12.704807 40.438828 -21.537243
-19.391895 2.872742 -8.127129
-18.317924 26.944101 -36.037628
-10.309491 55.793217 -31.664524
-18.007877 7.659054 -12.466965
-18.0562 13.802598 -18.963219
-18.624992 20.254309 -27.019445
-14.154989 31.395214 -27.198954
-11.489249 44.129005 -28.53546
-0.807585 41.300247 -53.782513
-8.984982 51.662094 -36.743618
-8.93571 47.995613 -39.415958
-7.887032 52.45731 -39.655338
-22.167473 -4.850245 -8.655448
-15.575725 31.472279 -35.687916
-14.810169 34.042225 -40.267891
-9.174723 41.433815 -47.086212
-11.662385 37.875607 -48.197468
-9.322148 38.728363 -51.628181
-6.396709 38.932495 -54.140163
-18.287991 8.927508 -9.075715
-18.463007 5.149936 -10.052222
-17.229885 11.084056 -10.922724
-14.88412 23.433418 -16.638063
-16.230066 16.608232 -15.998266
-16.190016 19.445681 -19.333155
-18.339746 16.929882 -22.7379
-16.212175 22.463911 -23.036602
-16.180943 25.545992 -27.059589
-14.313872 28.910019 -23.300066
-12.452987 47.555382 -22.91923
-12.071302 42.363285 -24.894495
-11.580011 49.105259 -26.374393
-10.789449 50.360813 -29.872423
1.669123 45.258793 -52.312992
-11.487615 41.542786 -35.49815
-12.388013 38.535378 -39.677521
-10.439343 43.210075 -39.474957
-8.99013 44.558102 -43.012707
-7.0645 45.324532 -46.380054
-16.327145 17.919907 -11.827921
-13.977738 30.601898 -17.48362
-13.420637 33.027588 -20.512766
-13.481248 38.18961 -18.552414
-20.953787 -2.415253 -7.155027
-13.58235 36.124573 -44.329529
-9.247067 56.001606 -34.891094
-20.105057 -0.186176 -9.313561
-19.78841 2.471994 -11.942013
-19.885981 5.477718 -15.039108
-16.545025 13.870604 -13.204623
-17.879644 10.739916 -15.518682
-20.310457 8.561144 -18.545399
-20.656376 12.235103 -22.515949
-21.097425 15.70366 -26.687
-18.595924 23.715982 -31.446669
-16.009592 28.638962 -31.392138
-13.849681 33.982151 -31.40609
-12.987142 35.406891 -23.904795
-12.598077 37.648617 -27.662374
-12.160514 39.632729 -31.681627
-10.87678 45.556858 -32.174492
-9.941852 51.027637 -33.450451
-6.220437 53.947021 -42.580463
-5.363359 50.002552 -45.636826
-4.644026 45.961372 -48.896469
-1.652936 45.98177 -50.938408
-3.835075 41.994678 -52.429771
-3.224992 38.066063 -55.908623
-8.603057 53.853657 -37.120415
-8.456818 52.171177 -38.188198
-8.085259 54.195 -38.482601
-14.432503 33.811165 -35.726913
-15.270519 32.762138 -37.992081
-14.087134 34.980064 -37.828056
-8.031091 41.745293 -48.788715
-9.16335 40.095531 -49.378063
-7.974351 40.239117 -50.975651
-7.991905 38.897263 -52.979141
-6.601257 40.393776 -52.200508
-17.680931 10.016174 -9.983852
-17.260456 13.346479 -10.407122
-14.667913 24.926197 -18.144371
-15.379498 21.401518 -17.92137
-15.278069 22.798264 -19.421021
-16.167105 21.002132 -21.078781
-15.265424 24.079512 -21.217133
-15.2485 25.413963 -23.072367
-14.43209 27.537416 -21.575338
-12.41248 50.859859 -23.85203
-11.985545 48.271912 -24.674063
-11.9248 51.694824 -25.55138
-11.474218 52.196907 -27.179245
-10.702951 44.231075 -35.751167
-11.056221 42.303848 -37.519855
-10.256232 44.763855 -37.676701
-8.195582 48.569675 -41.183437
-8.936642 46.276489 -41.133022
-8.159945 46.693619 -42.878742
-8.138738 44.941982 -44.707764
-7.223319 47.072838 -44.588829
-14.336168 29.296797 -16.126179
-14.089011 33.171097 -16.597887
-13.69401 34.360935 -17.905735
-13.9672 36.915478 -17.111568
-11.751978 39.464539 -41.733471
-12.988426 37.199242 -41.910824
-12.313851 38.0256 -44.003769
-20.098532 0.264577 -7.617939
-20.448156 -1.321406 -8.158638
-19.573792 1.341 -8.623466
-18.187748 6.366603 -11.236007
-18.939486 3.784047 -10.903828
-18.899349 4.935702 -12.30174
-19.823906 3.832954 -13.3978
-18.781252 6.472972 -13.627369
-15.871095 19.315071 -12.786996
-16.281216 15.923846 -12.44264
-15.955761 17.196974 -13.574436
-17.022732 14.99946 -17.32328
-17.028635 13.557409 -15.774843
-18.021559 12.057032 -17.191223
-18.992441 9.394492 -16.877457
-19.099089 11.037191 -18.608725
-20.484564 10.297009 -20.415476
-19.350479 12.591399 -20.554586
-18.467791 18.599268 -24.796453
-19.697002 16.089666 -24.651888
-19.823999 17.91457 -26.830278
-21.35988 17.402937 -28.969261
-19.994446 19.657692 -29.157709
-19.993147 21.369558 -31.318888
-18.647655 21.963923 -29.179874
-15.140961 28.375967 -27.197815
-16.102434 27.15029 -29.202421
-14.987549 29.965441 -29.308411
-14.826483 31.343603 -31.318218
-13.973822 32.790565 -29.121758
-12.99744 36.742798 -21.007111
-13.169099 34.40115 -22.106884
-12.721889 37.845955 -22.613056
-11.7729 43.236679 -26.778606
-12.242721 39.791214 -26.202906
-11.991109 40.859646 -28.036385
-12.383564 38.709053 -29.627024
-11.729009 41.802876 -30.012817
-11.444731 42.641838 -31.962002
-11.181571 44.964134 -30.371693
-10.539385 53.083946 -30.709732
-10.361786 50.750168 -31.731165
-10.062067 53.429501 -32.453697
-9.599533 53.652729 -34.033096
-9.79201 56.000435 -33.276203
-4.107501 50.37516 -46.933315
-4.969986 47.993504 -47.258339
-3.659826 48.19965 -48.44323
0.414855 43.155273 -52.975048
-0.02398 45.60894 -51.751545
-1.165741 43.70528 -52.341877
-2.673777 43.862019 -51.659565
-2.282872 41.716785 -53.22506
-3.559211 40.005867 -54.176983
-1.987483 39.525524 -54.810139
-9.453408 49.429028 -36.335682
-9.540197 47.329403 -37.79604
-8.913242 49.895042 -38.0014
-8.340654 50.296677 -39.55389
-7.596584 50.856209 -41.176811
-16.868378 29.212368 -35.895966
-18.031023 28.454054 -38.31374
-16.580814 30.560791 -38.049179
-16.182898 31.903732 -40.397114
-15.521549 33.326523 -42.682533
-10.149753 40.910599 -45.420994
-11.384958 38.885056 -45.963177
-10.302217 39.628517 -47.728668
-10.535795 38.438168 -49.948914
-18.82452 5.655047 -8.562175
-18.854284 3.98446 -9.093593
-18.213932 6.96517 -9.51785
-17.812361 7.961078 -10.502017
-17.461205 9.355723 -11.584221
-15.139335 22.038509 -15.216558
-15.683294 18.643145 -14.938807
-15.497595 19.997566 -16.303665
-16.110556 18.263489 -17.575699
-17.05678 16.529177 -19.037724
-18.243303 15.249807 -20.823168
-17.180286 17.907843 -20.852716
-17.22645 19.573307 -22.790682
-17.295561 21.22258 -24.884769
-17.382967 22.796227 -27.066935
-16.221636 23.984699 -25.035986
-15.170922 26.961756 -25.035849
-14.266035 30.064302 -25.205132
-12.510109 43.87429 -22.249516
-12.387616 41.246075 -23.143606
-12.146056 44.878746 -23.823683
-11.784695 45.678055 -25.576559
-11.446898 46.704472 -27.250359
-11.111233 47.228924 -29.075972
-11.18947 49.643135 -28.10586
-11.029347 52.671524 -28.855457
-10.837894 55.692764 -29.99136
-0.410728 38.868141 -55.220867
-12.317601 38.992512 -35.639534
-12.942736 37.409317 -37.630112
-11.900513 39.956127 -37.527935
-11.385362 40.809872 -39.515213
-10.721015 41.648434 -41.436886
-9.621359 45.615093 -39.436447
-9.749341 43.958996 -41.310238
-9.955624 42.354092 -43.272144
-9.128735 42.856636 -44.975639
-8.041819 43.408039 -46.659672
-6.907622 43.542763 -48.345188
-16.882185 16.781879 -10.910749
-15.524339 22.861252 -13.246079
-15.042773 24.304506 -14.480832
-14.694542 25.637678 -15.617998
-14.382858 26.967554 -16.972878
-14.138363 28.22607 -18.481714
-13.93973 29.476204 -20.112247
-13.671797 31.883804 -18.950274
-13.317772 35.478882 -19.463528
-13.058972 39.278133 -20.050997
-13.390189 41.711315 -19.158764
-12.927786 43.048447 -20.683096
-12.904797 46.531006 -21.36405
-12.942358 50.311569 -22.288612
-20.792128 -0.896766 -6.705948
-20.067993 1.941562 -7.233884
-19.503363 4.728576 -7.736423
-13.557428 36.205601 -39.878819
-14.224134 35.185528 -42.27549
-14.936294 34.322075 -44.814251
-12.722005 37.019463 -46.477886
-14.05138 35.385147 -46.908142
-8.735191 55.741337 -36.353699
-21.391771 -3.709436 -7.760344
-21.078905 -2.605996 -8.926779
-20.877304 -1.294034 -10.24443
-19.228737 2.400791 -9.719756
-19.854162 1.188882 -10.597087
-20.77906 0.18494 -11.680681
-20.893139 1.544826 -13.212447
-20.902803 3.205958 -14.737059
-21.213978 4.71208 -16.545692
-16.740219 14.422385 -11.3614
-16.818712 12.578685 -12.040328
-17.264912 10.547316 -12.837445
-16.34495 15.244954 -14.526538
-17.053362 12.201303 -14.220966
-17.911816 9.189933 -13.990303
-18.882116 7.851509 -15.208751
-20.042727 7.115457 -16.792494
-19.4585 14.378564 -22.489334
-20.883347 13.899217 -24.494442
-19.946518 23.101559 -33.671989
-18.501385 25.371069 -33.7621
-17.315573 24.415728 -29.045631
-17.225269 26.036341 -31.201534
-17.097431 27.643225 -33.543755
-15.891695 29.970045 -33.542442
-14.70295 32.543152 -33.55238
-13.624011 35.2132 -33.606567
-13.724003 31.004671 -21.839811
-13.57262 32.240467 -23.577852
-13.448875 33.382374 -25.448629
-12.456399 38.970131 -24.406326
-12.780246 36.62899 -25.876959
-13.296394 34.551006 -27.325846
-13.150291 35.645256 -29.339624
-12.922072 36.854191 -31.382977
-12.701741 37.820717 -33.564117
-11.857535 40.618622 -33.568779
-11.092814 43.566322 -33.79401
-10.468621 46.25811 -34.202938
-10.73413 47.95631 -30.97842
-10.359898 48.356289 -32.8629
-9.925537 48.920334 -34.65696
-9.472488 51.556232 -35.077194
-9.078972 53.773941 -35.700096
-7.511405 54.807365 -39.735538
-7.134723 53.262539 -41.090168
-6.790332 51.456131 -42.59586
-5.809237 51.926022 -44.05735
-6.495904 49.493874 -44.213169
-6.167493 47.600155 -45.962772
-5.939326 45.754436 -47.639462
-5.564865 43.915035 -49.570824
-2.16398 48.163864 -49.574581
-3.172145 46.031532 -50.03083
-4.209932 43.96579 -50.681431
-5.369144 41.944572 -51.52702
-5.091911 40.360626 -53.25835
-4.810484 38.609291 -55.163998
-17.43298 14.478929 -10.21648
-17.58993 12.796636 -9.969098
-12.174961 52.908343 -25.212513
-12.16864 51.277341 -24.701705
-12.418801 52.49086 -24.362838
-11.91243 53.302721 -26.061118
-12.174961 52.908343 -25.212513
-14.511302 33.665458 -15.612011
-14.760279 34.805708 -15.280582
-14.277013 34.315 -16.231499
-14.3233 32.521555 -15.978398
-14.511302 33.665458 -15.612011
-18.909826 26.787129 -37.373233
-19.077241 25.876306 -36.094845
-3.412743 50.427349 -47.539513
-3.69433 51.652414 -46.821032
-3.188905 49.339594 -48.29447
-3.883663 49.287405 -47.688272
-3.412743 50.427349 -47.539513
-22.662138 -5.218523 -9.218918
-22.748746 -5.899802 -8.518154
-22.04502 -4.143973 -9.318971
-22.662138 -5.218523 -9.218918
-9.97521 38.065027 -51.998962
-10.582033 37.919929 -51.159329
-9.928971 38.583265 -50.788547
-9.353101 38.103269 -52.820518
-9.97521 38.065027 -51.998962
-7.083296 38.265114 -54.665803
-7.880894 38.247498 -54.085292
-7.194307 38.914879 -53.559652
-6.282701 38.146971 -55.191111
-7.083296 38.265114 -54.665803
-11.205663 54.057537 -28.55482
-11.251783 52.434216 -28.017351
-11.428099 53.820228 -27.716714
-11.109937 55.568157 -29.122771
-10.93362 54.182144 -29.423409
-11.205663 54.057537 -28.55482
-15.687754 24.074454 -12.965406
-15.778415 22.230712 -12.751119
-14.90052 26.185201 -14.674621
-15.157929 25.352075 -14.091534
-14.726405 26.851787 -15.243204
-14.868658 24.971092 -15.049415
-14.90052 26.185201 -14.674621
-13.405247 43.537183 -19.481259
-13.669069 43.054678 -18.812793
-13.174046 44.20575 -20.243424
-13.158987 42.379881 -19.92093
-13.405247 43.537183 -19.481259
-13.162551 45.947029 -20.583901
-12.916291 44.789727 -21.023573
-13.174046 44.20575 -20.243424
-13.298148 51.471445 -21.919561
-13.190988 49.646335 -21.515161
-12.995594 51.970528 -22.74049
-13.298148 51.471445 -21.919561
-20.859416 0.028834 -6.536952
-21.219162 -1.323424 -6.237501
-20.497349 1.447998 -6.80092
-20.430061 0.522398 -6.969916
-20.859416 0.028834 -6.536952
-19.724292 5.798292 -7.5973
-19.953681 4.279784 -7.31651
-19.261198 6.263424 -7.997224
-19.724292 5.798292 -7.5973
-18.59776 28.277235 -39.683249
-17.838704 29.190862 -39.524371
-14.289303 35.053942 -48.270229
-13.570849 35.785923 -47.974411
-14.8064 34.555329 -47.239863
-14.289303 35.053942 -48.270229
-21.172779 -3.062345 -7.457686
-21.644373 -4.250343 -7.212969
-21.425381 -3.603252 -6.910311
-20.860148 7.484604 -18.438716
-20.726282 6.76176 -17.562264
-20.176592 7.838301 -17.668947
-21.017485 8.349889 -19.438975
-20.860148 7.484604 -18.438716
-21.312647 11.115004 -22.447427
-21.226741 10.145957 -21.397191
-20.57047 11.266056 -21.465713
-21.455029 12.032211 -23.5154
-21.312647 11.115004 -22.447427
-21.802532 14.669082 -26.675165
-21.695493 13.76686 -25.578886
-20.990386 14.801438 -25.590721
-21.907074 15.576538 -27.788274
-21.802532 14.669082 -26.675165
-22.137622 17.365979 -30.148542
-21.365944 18.3425 -30.098233
-7.377942 55.967367 -39.766506
-7.700236 55.532491 -39.119918
-6.67758 53.60478 -41.835316
-6.930827 54.462 -41.112679
-6.473685 54.804241 -41.857826
-5.586298 50.964287 -44.847088
-5.201995 52.223084 -44.757204
-4.979056 51.261348 -45.546942
1.408752 46.620077 -51.754047
2.229141 46.530004 -52.003523
-1.078606 47.059853 -50.716915
-0.264128 46.873438 -51.123483
-0.838458 45.795355 -51.344977
-1.908458 47.072817 -50.256495
-1.334128 48.1509 -50.035001
-1.078606 47.059853 -50.716915
-3.89649 37.480715 -56.458338
-4.689236 37.752329 -56.086025
-4.017738 38.337677 -55.53631
-1.074019 38.114925 -55.802614
-0.321986 37.690184 -55.914669
-22.314351 -5.413024 -8.049909
-22.748746 -5.899802 -8.518154
-17.800167 11.131484 -9.757462
-17.984461 9.471841 -9.529784
-18.103697 10.587151 -9.303394
-17.470694 11.681327 -10.195487
-17.800167 11.131484 -9.757462
-17.58993 12.796636 -9.969098
-11.68714 53.553763 -26.875051
-11.699509 51.945865 -26.365313
-11.91243 53.302721 -26.061118
-11.428099 53.820228 -27.716714
-11.68714 53.553763 -26.875051
-14.446879 30.584405 -15.742544
-14.547218 28.681346 -15.497295
-14.212589 31.233947 -16.362033
-14.446879 30.584405 -15.742544
-14.3233 32.521555 -15.978398
-12.376351 37.031153 -48.619074
-11.778144 37.405135 -49.451756
-20.683228 19.469878 -30.192457
-21.365944 18.3425 -30.098233
-20.677163 18.530315 -29.063485
-19.993797 20.513625 -30.238298
-20.682578 20.325811 -31.273046
-20.683228 19.469878 -30.192457
-6.025426 55.178953 -42.537883
-6.473685 54.804241 -41.857826
-4.351127 51.447653 -46.195187
-3.69433 51.652414 -46.821032
-4.73543 50.188856 -46.285071
-4.979056 51.261348 -45.546942
-4.351127 51.447653 -46.195187
-14.764401 36.753963 -15.583333
-14.760279 34.805708 -15.280582
-14.462931 37.495592 -16.184961
-14.764401 36.753963 -15.583333
-17.113599 30.244231 -39.39209
-17.838704 29.190862 -39.524371
-17.305919 29.507422 -38.18146
-16.914642 30.915701 -40.566057
-17.113599 30.244231 -39.39209
-16.381856 31.232261 -39.223146
-16.609193 31.640363 -41.678719
-16.914642 30.915701 -40.566057
-16.278519 32.351758 -42.821428
-16.609193 31.640363 -41.678719
-15.852224 32.615127 -41.539823
-15.936291 32.980448 -43.953158
-16.278519 32.351758 -42.821428
-11.214849 37.686415 -50.327478
-11.778144 37.405135 -49.451756
-11.09909 38.156887 -49.073191
-11.214849 37.686415 -50.327478
-10.582033 37.919929 -51.159329
-8.687979 38.18772 -53.495998
-9.353101 38.103269 -52.820518
-8.657027 38.812813 -52.303661
-8.687979 38.18772 -53.495998
-7.880894 38.247498 -54.085292
2.496336 45.065491 -52.488214
2.229141 46.530004 -52.003523
1.885649 43.880756 -52.859718
2.496336 45.065491 -52.488214
1.258515 42.828997 -53.190747
1.041989 44.207033 -52.64402
1.885649 43.880756 -52.859718
0.582531 41.897575 -53.592207
1.258515 42.828997 -53.190747
-0.028689 40.970062 -53.99594
-0.196365 42.22776 -53.378781
0.582531 41.897575 -53.592207
0.16974 39.754009 -54.715117
-0.609156 40.084194 -54.50169
-0.028689 40.970062 -53.99594
0.34714 38.433889 -55.343956
0.16974 39.754009 -54.715117
-0.321986 37.690184 -55.914669
0.34714 38.433889 -55.343956
-17.142661 17.872186 -10.691717
-17.243845 16.19663 -10.468294
-16.76076 18.524664 -11.129992
-17.142661 17.872186 -10.691717
-16.483241 19.093677 -11.588578
-16.604665 17.350893 -11.369335
-16.76076 18.524664 -11.129992
-16.179817 19.760039 -12.04204
-16.483241 19.093677 -11.588578
-15.951792 20.457622 -12.521578
-16.09912 18.617489 -12.307458
-16.179817 19.760039 -12.04204
-15.697717 21.088161 -13.016538
-15.951792 20.457622 -12.521578
-15.778415 22.230712 -12.751119
-15.398712 24.630448 -13.474158
-15.687754 24.074454 -12.965406
-15.283556 23.582879 -13.863456
-15.398712 24.630448 -13.474158
-15.157929 25.352075 -14.091534
-14.515355 27.467238 -15.872089
-14.726405 26.851787 -15.243204
-14.547218 28.681346 -15.497295
-14.214023 38.223879 -16.808189
-14.216108 36.187191 -16.48834
-14.462931 37.495592 -16.184961
-13.946573 38.755059 -17.4133
-14.214023 38.223879 -16.808189
-13.703598 39.392125 -18.133722
-13.724224 37.552544 -17.831991
-13.946573 38.755059 -17.4133
-13.658068 41.152977 -18.436898
-13.669069 43.054678 -18.812793
-13.435719 39.950463 -18.855589
-13.703598 39.392125 -18.133722
-13.658068 41.152977 -18.436898
-13.172208 47.756054 -21.052881
-13.162551 45.947029 -20.583901
-12.923578 48.421287 -21.826331
-13.172208 47.756054 -21.052881
-13.190988 49.646335 -21.515161
-12.730655 52.244673 -23.522199
-12.677419 50.585714 -23.070321
-12.995594 51.970528 -22.74049
-12.418801 52.49086 -24.362838
-12.730655 52.244673 -23.522199
-21.29 -2.911338 -6.655049
-21.425381 -3.603252 -6.910311
-21.20917 -2.152095 -6.43051
-21.219162 -1.323424 -6.237501
-20.872957 -1.656009 -6.930487
-21.29 -2.911338 -6.655049
-21.20917 -2.152095 -6.43051
-20.235996 2.886277 -7.06524
-20.497349 1.447998 -6.80092
-19.785678 3.335069 -7.485154
-20.235996 2.886277 -7.06524
-19.953681 4.279784 -7.31651
-18.921776 6.726659 -8.4101
-19.163941 5.191812 -8.149299
-19.261198 6.263424 -7.997224
-18.653512 8.362889 -8.66687
-18.556255 7.291277 -8.818945
-18.921776 6.726659 -8.4101
-18.495414 9.948082 -8.900778
-18.653512 8.362889 -8.66687
-18.103697 10.587151 -9.303394
-18.495414 9.948082 -8.900778
-18.766376 27.542105 -38.51129
-18.909826 26.787129 -37.373233
-18.174474 27.699078 -37.175684
-18.766376 27.542105 -38.51129
-18.59776 28.277235 -39.683249
-15.643663 33.478224 -45.019016
-15.936291 32.980448 -43.953158
-15.228922 33.824299 -43.748392
-12.906161 36.603081 -47.759283
-12.192195 37.447535 -47.337677
-12.376351 37.031153 -48.619074
-13.386692 36.202305 -46.693014
-12.906161 36.603081 -47.759283
-13.570849 35.785923 -47.974411
-15.248857 34.023792 -46.192917
-14.493837 34.853611 -45.861196
-14.8064 34.555329 -47.239863
-15.643663 33.478224 -45.019016
-15.248857 34.023792 -46.192917
-8.103388 55.865486 -38.019806
-8.328911 56.388506 -37.399786
-11.084161 57.064743 -29.660805
-11.109937 55.568157 -29.122771
-10.756384 57.014488 -30.53423
-11.084161 57.064743 -29.660805
-10.492183 57.064715 -31.370812
-10.573692 55.74299 -30.827942
-10.756384 57.014488 -30.53423
-10.178406 57.132238 -32.242722
-10.492183 57.064715 -31.370812
-9.919666 57.235848 -33.048561
-10.05075 55.896826 -32.470364
-10.178406 57.132238 -32.242722
-9.642196 57.106959 -33.780077
-9.919666 57.235848 -33.048561
-9.369725 57.107544 -34.587523
-9.519538 56.001021 -34.083649
-9.642196 57.106959 -33.780077
-9.06259 56.943745 -35.386106
-9.369725 57.107544 -34.587523
-8.806652 56.81361 -36.117409
-8.991129 55.871471 -35.622397
-9.06259 56.943745 -35.386106
-8.537651 56.522498 -36.808979
-8.806652 56.81361 -36.117409
-8.328911 56.388506 -37.399786
-8.52645 55.607346 -36.944506
-8.537651 56.522498 -36.808979
-21.9265 -4.842619 -7.602356
-21.644373 -4.250343 -7.212969
-21.779622 -4.279841 -8.207896
-22.314351 -5.413024 -8.049909
-21.9265 -4.842619 -7.602356
-21.500736 -3.021849 -9.454636
-22.04502 -4.143973 -9.318971
-21.623189 -3.728121 -8.791113
-21.399935 -2.365868 -10.113462
-21.500736 -3.021849 -9.454636
-20.978105 -1.950015 -9.585604
-21.37941 -1.653617 -10.843798
-21.399935 -2.365868 -10.113462
-21.330289 -0.91413 -11.561923
-21.37941 -1.653617 -10.843798
-20.828182 -0.554547 -10.962556
-21.382948 -0.206583 -12.320823
-21.330289 -0.91413 -11.561923
-21.439987 0.473361 -13.086706
-21.382948 -0.206583 -12.320823
-20.8361 0.864883 -12.446564
-21.501492 1.288019 -13.906803
-21.439987 0.473361 -13.086706
-21.506324 2.118585 -14.66911
-21.501492 1.288019 -13.906803
-20.897971 2.375392 -13.974753
-21.638212 2.909904 -15.536604
-21.506324 2.118585 -14.66911
-21.793799 3.662966 -16.44092
-21.638212 2.909904 -15.536604
-21.058391 3.959019 -15.641375
-21.956902 4.543052 -17.416821
-21.793799 3.662966 -16.44092
-17.07132 15.064179 -10.658935
-17.43298 14.478929 -10.21648
-17.243845 16.19663 -10.468294
-21.311908 5.560072 -17.438862
-20.628352 5.913768 -16.669093
-20.726282 6.76176 -17.562264
-21.956902 4.543052 -17.416821
-21.311908 5.560072 -17.438862
-21.104538 9.217822 -20.374013
-21.017485 8.349889 -19.438975
-20.39751 9.429077 -19.480438
-21.104538 9.217822 -20.374013
-21.226741 10.145957 -21.397191
-21.568514 12.864268 -24.504646
-21.455029 12.032211 -23.5154
-20.769862 13.06716 -23.505195
-21.568514 12.864268 -24.504646
-21.695493 13.76686 -25.578886
-22.038301 16.426177 -28.929404
-21.907074 15.576538 -27.788274
-21.228653 16.553299 -27.828131
-22.038301 16.426177 -28.929404
-22.137622 17.365979 -30.148542
-20.690255 21.258628 -32.516902
-20.682578 20.325811 -31.273046
-20.66694 22.124628 -33.693453
-20.690255 21.258628 -32.516902
-19.969833 22.235559 -32.495439
-20.63039 23.041079 -34.985645
-20.66694 22.124628 -33.693453
-19.891537 23.955036 -34.912025
-20.63039 23.041079 -34.985645
-19.168971 25.08979 -34.957081
-19.891537 23.955036 -34.912025
-19.223951 24.236314 -33.717045
-18.409655 26.157585 -34.899864
-19.077241 25.876306 -36.094845
-19.168971 25.08979 -34.957081
-7.987163 55.226309 -38.49345
-8.201484 54.834177 -38.008957
-8.103388 55.865486 -38.019806
-7.798332 54.501182 -39.10907
-7.987163 55.226309 -38.49345
-7.700236 55.532491 -39.119918
-7.119168 55.234413 -40.435363
-7.377942 55.967367 -39.766506
-7.323064 54.034952 -40.412853
-7.119168 55.234413 -40.435363
-6.930827 54.462 -41.112679
-5.714341 54.251926 -43.259394
-6.025426 55.178953 -42.537883
-5.508741 53.241427 -43.997837
-5.201995 52.223084 -44.757204
-6.014837 52.936521 -43.318906
-5.714341 54.251926 -43.259394
-5.508741 53.241427 -43.997837
0.562201 46.79515 -51.473324
1.408752 46.620077 -51.754047
0.822572 45.433866 -52.032269
0.562201 46.79515 -51.473324
-0.264128 46.873438 -51.123483
-1.704264 49.398618 -49.34895
-1.334128 48.1509 -50.035001
-2.440983 49.321701 -48.860146
-1.704264 49.398618 -49.34895
-2.911903 48.181757 -49.008905
-3.188905 49.339594 -48.29447
-2.440983 49.321701 -48.860146
-5.489588 37.985368 -55.703028
-6.282701 38.146971 -55.191111
-5.603597 38.770893 -54.65208
-5.489588 37.985368 -55.703028
-4.689236 37.752329 -56.086025
-1.862397 38.443617 -55.59725
-1.199105 39.196832 -55.015503
-1.074019 38.114925 -55.802614
-2.481151 37.713887 -56.146492
-2.606237 38.795794 -55.359381
-1.862397 38.443617 -55.59725
-3.149306 37.130483 -56.730341
-2.481151 37.713887 -56.146492
-3.89649 37.480715 -56.458338
-3.149306 37.130483 -56.730341
3 0 80 78
3 1 83 81
3 2 86 84
3 2 88 86
3 306 90 307
3 3 93 91
3 3 95 93
3 3 97 95
3 308 100 309
3 310 309 98
3 308 309 310
3 312 311 100
3 4 104 102
3 6 107 105
3 6 109 107
3 8 313 314
3 8 315 317
3 315 111 316
3 315 316 317
3 8 113 111
3 11 318 319
3 5 116 114
3 10 119 117
3 13 122 120
3 13 124 122
3 7 127 125
3 14 130 128
3 14 132 130
3 14 134 132
3 15 137 135
3 15 139 137
3 15 141 139
3 16 144 142
3 16 146 144
3 9 149 147
3 17 152 150
3 17 154 152
3 17 156 154
3 12 159 157
3 12 161 159
3 320 162 321
3 322 164 323
3 324 323 162
3 322 323 324
3 18 167 165
3 18 169 167
3 18 171 169
3 19 174 172
3 21 175 79
3 21 176 175
3 22 325 326
3 22 327 328
3 23 179 177
3 24 180 82
3 24 181 180
3 25 184 182
3 27 185 85
3 27 329 331
3 331 330 185
3 329 330 331
3 27 332 333
3 28 334 336
3 336 335 87
3 334 335 336
3 28 337 338
3 29 188 186
3 31 189 89
3 31 190 189
3 32 193 191
3 34 194 92
3 34 195 194
3 34 197 195
3 36 198 94
3 36 199 198
3 36 201 199
3 38 202 96
3 38 203 202
3 39 206 204
3 41 207 99
3 41 208 207
3 41 210 208
3 339 211 340
3 341 340 101
3 339 340 341
3 342 212 343
3 344 343 211
3 342 343 344
3 44 216 214
3 46 217 103
3 46 218 217
3 20 219 173
3 47 220 106
3 47 221 220
3 47 222 221
3 48 223 108
3 48 224 223
3 345 226 346
3 347 227 348
3 349 228 350
3 351 350 227
3 349 350 351
3 50 229 110
3 50 230 229
3 50 232 230
3 52 233 112
3 52 234 233
3 352 235 353
3 354 236 355
3 356 355 235
3 354 355 356
3 357 237 358
3 359 358 236
3 357 358 359
3 360 238 361
3 363 362 238
3 364 239 365
3 366 240 367
3 368 367 239
3 366 367 368
3 369 241 370
3 372 371 241
3 374 373 178
3 45 242 215
3 54 243 115
3 54 244 243
3 26 245 183
3 375 246 376
3 378 377 246
3 53 379 381
3 379 248 380
3 379 380 381
3 56 249 118
3 56 250 249
3 30 251 187
3 57 252 121
3 57 253 252
3 57 254 253
3 58 255 123
3 58 256 255
3 49 257 225
3 59 258 126
3 59 259 258
3 33 260 192
3 60 261 129
3 60 262 261
3 60 263 262
3 61 264 131
3 61 382 384
3 384 383 264
3 382 383 384
3 61 385 386
3 62 387 389
3 389 388 133
3 387 388 389
3 62 390 391
3 35 265 196
3 63 266 136
3 63 392 394
3 394 393 266
3 392 393 394
3 63 395 396
3 398 397 138
3 64 267 140
3 64 268 267
3 37 269 200
3 65 270 143
3 65 271 270
3 65 272 271
3 66 273 145
3 66 274 273
3 51 275 231
3 67 276 148
3 67 277 276
3 40 278 205
3 68 279 151
3 68 280 279
3 68 281 280
3 69 282 153
3 69 283 282
3 69 284 283
3 70 285 155
3 70 286 285
3 42 287 209
3 71 288 158
3 71 289 288
3 71 290 289
3 55 291 160
3 55 247 291
3 399 292 400
3 72 401 403
3 401 293 402
3 401 402 403
3 72 294 293
3 73 404 406
3 404 295 405
3 404 405 406
3 73 296 295
3 73 297 296
3 74 298 163
3 74 299 298
3 43 407 408
3 75 409 411
3 411 410 166
3 409 410 411
3 75 412 414
3 412 300 413
3 412 413 414
3 75 301 300
3 76 302 168
3 76 303 302
3 76 304 303
3 77 305 170
3 77 415 417
3 417 416 305
3 415 416 417
3 419 418 213
3 78 79 19
3 80 79 78
3 80 21 79
3 420 22 421
3 81 82 23
3 83 82 81
3 83 24 82
3 84 85 25
3 86 85 84
3 86 27 85
3 86 87 27
3 88 87 86
3 88 28 87
3 422 89 423
3 424 423 29
3 422 423 424
3 90 425 427
3 425 89 426
3 425 426 427
3 90 31 89
3 91 92 32
3 93 92 91
3 93 34 92
3 93 94 34
3 95 94 93
3 95 36 94
3 95 96 36
3 97 96 95
3 97 38 96
3 98 99 39
3 100 99 98
3 100 41 99
3 100 101 41
3 428 101 429
3 430 429 100
3 428 429 430
3 432 431 101
3 102 103 44
3 104 103 102
3 104 46 103
3 105 106 20
3 107 106 105
3 107 47 106
3 107 108 47
3 109 108 107
3 109 48 108
3 433 110 434
3 111 435 437
3 435 110 436
3 435 436 437
3 111 50 110
3 111 112 50
3 113 112 111
3 113 52 112
3 114 115 45
3 116 115 114
3 116 54 115
3 439 438 26
3 117 118 53
3 119 118 117
3 119 56 118
3 120 121 30
3 122 121 120
3 122 57 121
3 122 123 57
3 124 123 122
3 124 58 123
3 125 126 49
3 127 126 125
3 127 59 126
3 128 129 33
3 130 129 128
3 130 60 129
3 130 131 60
3 132 131 130
3 132 61 131
3 132 133 61
3 134 133 132
3 134 62 133
3 135 136 35
3 137 136 135
3 137 63 136
3 137 138 63
3 139 138 137
3 139 440 442
3 442 441 138
3 440 441 442
3 139 443 445
3 443 140 444
3 443 444 445
3 141 140 139
3 141 64 140
3 142 143 37
3 144 143 142
3 144 65 143
3 144 145 65
3 146 145 144
3 146 66 145
3 147 148 51
3 149 148 147
3 149 67 148
3 150 151 40
3 152 151 150
3 152 68 151
3 152 153 68
3 154 153 152
3 154 69 153
3 154 155 69
3 156 155 154
3 156 70 155
3 157 158 42
3 159 158 157
3 159 71 158
3 159 160 71
3 161 160 159
3 161 55 160
3 446 72 447
3 162 448 449
3 162 450 452
3 450 73 451
3 450 451 452
3 162 163 73
3 164 163 162
3 164 74 163
3 165 166 43
3 167 166 165
3 167 75 166
3 167 168 75
3 169 168 167
3 169 76 168
3 169 170 76
3 171 170 169
3 171 77 170
3 172 173 4
3 174 173 172
3 174 20 173
3 79 174 19
3 175 174 79
3 175 20 174
3 175 105 20
3 176 105 175
3 176 6 105
3 453 8 454
3 456 455 8
3 177 178 11
3 179 178 177
3 179 457 459
3 459 458 178
3 457 458 459
3 82 179 23
3 180 179 82
3 180 460 462
3 462 461 179
3 460 461 462
3 180 463 464
3 181 465 467
3 467 466 180
3 465 466 467
3 181 468 469
3 182 183 5
3 184 183 182
3 184 26 183
3 85 184 25
3 185 184 85
3 185 26 184
3 185 470 472
3 472 471 26
3 470 471 472
3 474 473 185
3 87 475 477
3 477 476 27
3 475 476 477
3 479 478 87
3 186 187 10
3 188 187 186
3 188 30 187
3 89 188 29
3 189 188 89
3 189 30 188
3 189 120 30
3 190 120 189
3 190 13 120
3 191 192 7
3 193 192 191
3 193 33 192
3 92 193 32
3 194 193 92
3 194 33 193
3 194 128 33
3 195 128 194
3 195 14 128
3 195 196 14
3 197 196 195
3 197 35 196
3 94 197 34
3 198 197 94
3 198 35 197
3 198 135 35
3 199 135 198
3 199 15 135
3 199 200 15
3 201 200 199
3 201 37 200
3 96 201 36
3 202 201 96
3 202 37 201
3 202 142 37
3 203 142 202
3 203 16 142
3 204 205 9
3 206 205 204
3 206 40 205
3 99 206 39
3 207 206 99
3 207 40 206
3 207 150 40
3 208 150 207
3 208 17 150
3 208 209 17
3 210 209 208
3 210 42 209
3 101 210 41
3 211 210 101
3 211 42 210
3 211 157 42
3 212 157 211
3 212 12 157
3 480 43 481
3 482 43 483
3 484 165 485
3 486 485 43
3 484 485 486
3 487 165 488
3 489 18 490
3 491 490 165
3 489 490 491
3 492 213 493
3 494 493 18
3 492 493 494
3 495 213 496
3 498 497 213
3 214 215 1
3 216 215 214
3 216 45 215
3 103 216 44
3 217 216 103
3 217 45 216
3 217 114 45
3 218 114 217
3 218 5 114
3 173 104 4
3 219 104 173
3 219 46 104
3 106 219 20
3 220 219 106
3 220 46 219
3 220 218 46
3 221 218 220
3 221 5 218
3 221 182 5
3 222 182 221
3 222 25 182
3 108 222 47
3 223 222 108
3 223 25 222
3 223 84 25
3 224 84 223
3 224 2 84
3 499 225 500
3 501 225 502
3 503 49 504
3 505 504 225
3 503 504 505
3 506 49 507
3 508 125 509
3 510 509 49
3 508 509 510
3 226 511 513
3 511 125 512
3 511 512 513
3 226 7 125
3 514 226 515
3 227 516 518
3 516 226 517
3 516 517 518
3 227 7 226
3 227 191 7
3 228 191 227
3 228 32 191
3 110 519 521
3 519 228 520
3 519 520 521
3 229 228 110
3 229 32 228
3 229 91 32
3 230 91 229
3 230 3 91
3 230 231 3
3 232 231 230
3 232 51 231
3 112 232 50
3 233 232 112
3 233 51 232
3 233 147 51
3 234 147 233
3 234 9 147
3 522 113 523
3 524 523 8
3 522 523 524
3 525 113 526
3 527 52 528
3 529 528 113
3 527 528 529
3 235 530 531
3 235 532 534
3 532 52 533
3 532 533 534
3 235 234 52
3 236 234 235
3 236 9 234
3 236 204 9
3 237 204 236
3 237 39 204
3 535 237 536
3 238 537 539
3 537 237 538
3 537 538 539
3 238 39 237
3 238 98 39
3 540 98 541
3 542 541 238
3 540 541 542
3 544 543 98
3 545 53 546
3 239 547 548
3 239 549 551
3 549 53 550
3 549 550 551
3 239 117 53
3 240 117 239
3 240 10 117
3 552 240 553
3 241 554 556
3 554 240 555
3 554 555 556
3 241 10 240
3 241 186 10
3 557 186 558
3 559 558 241
3 557 558 559
3 560 29 561
3 562 561 186
3 560 561 562
3 563 29 564
3 566 565 29
3 178 567 569
3 569 568 11
3 567 568 569
3 571 570 178
3 215 83 1
3 242 83 215
3 242 24 83
3 115 242 45
3 243 242 115
3 243 24 242
3 243 181 24
3 244 181 243
3 244 572 574
3 574 573 181
3 572 573 574
3 183 116 5
3 245 116 183
3 245 54 116
3 575 245 576
3 577 576 26
3 575 576 577
3 246 578 580
3 578 245 579
3 578 579 580
3 246 54 245
3 246 244 54
3 581 244 582
3 583 582 246
3 581 582 583
3 585 584 244
3 587 586 0
3 588 212 589
3 590 212 591
3 592 12 593
3 594 593 212
3 592 593 594
3 595 12 596
3 597 161 598
3 599 598 12
3 597 598 599
3 600 161 601
3 602 55 603
3 604 603 161
3 602 603 604
3 605 55 606
3 607 247 608
3 609 608 55
3 607 608 609
3 610 247 611
3 612 0 613
3 614 613 247
3 612 613 614
3 248 615 616
3 248 617 619
3 617 22 618
3 617 618 619
3 118 248 53
3 249 248 118
3 249 22 248
3 249 620 622
3 622 621 22
3 620 621 622
3 250 623 625
3 625 624 249
3 623 624 625
3 250 626 627
3 187 119 10
3 251 119 187
3 251 56 119
3 121 251 30
3 252 251 121
3 252 56 251
3 252 250 56
3 253 250 252
3 253 628 630
3 630 629 250
3 628 629 630
3 253 631 632
3 254 633 635
3 635 634 253
3 633 634 635
3 254 636 637
3 123 254 57
3 255 254 123
3 255 638 640
3 640 639 254
3 638 639 640
3 255 641 642
3 256 643 645
3 645 644 255
3 643 644 645
3 256 646 647
3 225 648 650
3 648 90 649
3 648 649 650
3 257 90 225
3 257 31 90
3 126 257 49
3 258 257 126
3 258 31 257
3 258 190 31
3 259 190 258
3 259 13 190
3 192 127 7
3 260 127 192
3 260 59 127
3 129 260 33
3 261 260 129
3 261 59 260
3 261 259 59
3 262 259 261
3 262 13 259
3 262 124 13
3 263 124 262
3 263 58 124
3 131 263 60
3 264 263 131
3 264 58 263
3 264 256 58
3 651 256 652
3 653 652 264
3 651 652 653
3 655 654 256
3 133 656 658
3 658 657 61
3 656 657 658
3 660 659 133
3 196 134 14
3 265 134 196
3 265 62 134
3 136 265 35
3 266 265 136
3 266 62 265
3 266 661 663
3 663 662 62
3 661 662 663
3 665 664 266
3 138 666 668
3 668 667 63
3 666 667 668
3 670 669 138
3 140 671 672
3 267 673 675
3 675 674 140
3 673 674 675
3 267 676 677
3 267 678 679
3 268 680 682
3 682 681 267
3 680 681 682
3 268 683 685
3 683 11 684
3 683 684 685
3 200 141 15
3 269 141 200
3 269 64 141
3 143 269 37
3 270 269 143
3 270 64 269
3 270 268 64
3 271 268 270
3 271 11 268
3 271 177 11
3 272 177 271
3 272 23 177
3 145 272 65
3 273 272 145
3 273 23 272
3 273 81 23
3 274 81 273
3 274 1 81
3 231 97 3
3 275 97 231
3 275 38 97
3 148 275 51
3 276 275 148
3 276 38 275
3 276 203 38
3 277 203 276
3 277 16 203
3 205 149 9
3 278 149 205
3 278 67 149
3 151 278 40
3 279 278 151
3 279 67 278
3 279 277 67
3 280 277 279
3 280 16 277
3 280 146 16
3 281 146 280
3 281 66 146
3 153 281 68
3 282 281 153
3 282 66 281
3 282 274 66
3 283 274 282
3 283 1 274
3 283 214 1
3 284 214 283
3 284 44 214
3 155 284 69
3 285 284 155
3 285 44 284
3 285 102 44
3 286 102 285
3 286 4 102
3 209 156 17
3 287 156 209
3 287 70 156
3 158 287 42
3 288 287 158
3 288 70 287
3 288 286 70
3 289 286 288
3 289 4 286
3 289 172 4
3 290 172 289
3 290 19 172
3 160 290 71
3 291 290 160
3 291 19 290
3 291 78 19
3 247 78 291
3 247 0 78
3 686 80 687
3 688 687 0
3 686 687 688
3 292 689 691
3 689 80 690
3 689 690 691
3 292 21 80
3 692 292 693
3 293 694 696
3 694 292 695
3 694 695 696
3 293 21 292
3 293 176 21
3 294 176 293
3 294 6 176
3 697 72 698
3 295 699 700
3 295 701 703
3 701 72 702
3 701 702 703
3 295 294 72
3 296 294 295
3 296 6 294
3 296 109 6
3 297 109 296
3 297 48 109
3 163 297 73
3 298 297 163
3 298 48 297
3 298 224 48
3 299 224 298
3 299 2 224
3 166 704 706
3 706 705 43
3 704 705 706
3 708 707 166
3 300 709 710
3 300 711 712
3 300 713 715
3 713 164 714
3 713 714 715
3 301 164 300
3 301 74 164
3 168 301 75
3 302 301 168
3 302 74 301
3 302 299 74
3 303 299 302
3 303 2 299
3 303 88 2
3 304 88 303
3 304 28 88
3 170 304 76
3 305 304 170
3 305 28 304
3 305 716 718
3 718 717 28
3 716 717 718
3 720 719 305
3 213 171 18
3 721 171 722
3 723 722 213
3 721 722 723
3 724 77 725
3 726 725 171
3 724 725 726
3 727 77 728
3 730 729 77
