ply
format ascii 1.0
element vertex 404
property float x
property float y
property float z
element face 452
property list uchar int vertex_index
end_header
21.813738 63.687004 -16.440695
19.996334 78.107689 -6.722471
14.725031 85.765404 -26.740921
18.19656 53.280712 -17.263811
19.866184 75.464775 -21.408499
15.361182 75.839066 -29.286892
17.848545 65.371368 -22.929783
14.636176 53.064007 -22.716206
22.767174 72.122856 -12.965534
23.501099 66.900566 -4.069428
18.394268 83.40435 -17.151745
20.23797 58.714775 -17.024744
21.144222 69.751343 -18.868103
19.181787 70.756538 -22.565262
19.962627 64.853264 -19.624519
18.133541 59.228004 -19.883966
21.816061 75.393173 -10.253403
23.462406 69.560326 -8.521947
22.004171 72.667267 -5.432322
16.614473 86.074013 -13.649548
19.514141 81.003487 -11.951266
21.016438 77.757286 -14.842744
19.914114 75.065247 -1.804685
17.757425 80.725716 -24.139791
17.68951 76.154121 -25.568964
16.974373 70.715004 -26.082842
15.74374 64.860641 -26.065336
14.371665 58.862766 -26.065094
16.239489 59.5797 -22.878349
16.312969 53.503117 -19.834763
22.793184 68.1567 -15.019608
23.444799 62.07901 -13.172264
23.931454 66.326996 -11.21015
21.730453 69.415443 -0.605554
16.809195 85.016365 -21.952478
19.576817 79.729866 -19.680582
21.511778 74.213257 -17.329617
21.125063 61.201984 -16.737223
21.220482 58.145012 -15.628071
22.015499 60.7728 -15.353154
21.599535 66.680138 -17.512644
20.690273 67.344292 -19.248234
20.946884 64.289825 -17.968859
20.151924 61.73027 -18.236612
20.95826 76.964317 -8.646031
21.898401 74.283691 -7.804821
21.065035 75.401711 -6.029001
18.779652 80.781525 -7.515907
18.524494 82.273994 -10.189472
19.854074 79.58316 -9.387639
20.790897 78.144547 -11.067376
18.953854 77.947845 -22.767788
17.859184 78.347237 -24.930269
18.811132 75.711929 -23.561499
18.599554 68.173264 -22.812336
18.055317 70.837929 -24.415762
17.493259 67.87059 -24.411831
16.360886 67.88929 -26.195862
16.781414 65.304855 -24.55039
16.071316 62.239033 -24.396055
17.105888 62.588253 -22.8846
18.242468 56.297394 -18.46217
17.229429 56.566132 -19.915546
17.234175 53.539322 -18.546772
22.897411 70.22448 -14.117613
23.431639 67.295532 -13.10251
23.405365 69.321976 -12.02045
23.500755 68.439308 -6.245171
24.067451 66.672348 -7.703443
24.133745 65.414291 -5.550584
24.121096 63.888676 -3.470352
20.887943 72.195625 -1.133323
17.540815 84.905869 -15.497406
16.880049 85.89962 -18.150202
16.148685 86.643433 -20.610697
17.799801 84.035652 -19.556948
18.28647 82.355881 -20.995173
19.145468 81.550278 -18.429893
21.960911 74.993492 -13.96917
21.353374 76.092941 -16.272144
22.197481 73.247131 -15.193591
22.255438 71.197891 -16.089308
15.433165 78.592323 -29.005274
14.530756 56.009827 -24.395248
13.796035 55.35516 -25.859201
13.933605 52.487541 -24.181986
19.274225 55.957729 -17.104431
20.250637 55.406349 -15.817501
20.551809 72.71859 -20.215549
19.607714 73.128105 -22.103445
20.25951 70.234413 -20.601553
19.679983 67.94249 -21.056145
18.911671 65.160439 -21.273045
18.087669 62.308872 -21.302843
19.118572 62.019691 -19.743494
19.175457 59.066166 -18.465439
22.395309 73.851212 -11.662332
23.129881 71.150581 -10.704344
22.681805 72.537659 -9.158208
22.812881 71.22551 -6.984861
22.793062 69.727173 -4.551284
17.125265 84.764091 -11.147341
18.161793 83.596481 -12.926545
19.04764 82.251282 -14.56973
19.816008 80.613472 -15.984898
20.358522 79.484398 -13.442369
21.498108 76.600899 -12.574204
14.675196 50.075207 -21.179207
18.8543 79.377411 -5.050557
19.994852 76.69014 -4.305908
18.928394 77.652275 -2.546864
16.326876 83.333038 -25.507378
16.640347 80.905182 -26.352268
16.664976 78.542076 -27.035723
16.57415 75.973747 -27.417395
18.521557 73.429497 -24.080204
17.441647 73.490364 -25.884125
16.178301 73.261719 -27.834562
15.794732 70.544006 -27.878056
15.292986 67.633896 -27.826452
14.669551 64.575035 -27.821325
14.066859 61.309525 -27.727379
15.066796 61.957108 -26.045341
15.245916 59.124676 -24.425308
15.393492 56.284443 -22.760935
17.190121 59.602352 -21.389267
16.315296 56.561348 -21.286615
15.425617 53.316936 -21.234964
15.403001 50.227158 -19.809736
22.408735 65.903801 -15.823695
22.671997 63.033802 -14.824418
23.14957 65.354378 -14.131769
23.832544 64.105309 -12.270168
24.377455 63.223869 -10.375321
23.816147 68.023674 -9.889353
24.358086 64.941948 -9.179673
21.004425 73.870972 -3.523258
21.9235 71.047134 -2.971161
22.726398 68.061905 -2.34466
14.026654 87.91375 -25.63689
15.10928 87.46077 -23.144848
15.807346 85.5411 -24.39579
17.391016 82.957039 -23.186785
18.744974 80.217552 -21.98521
19.806021 77.70739 -20.722746
20.365807 78.875801 -17.189846
20.617676 77.024498 -18.556898
20.763542 74.760895 -19.377085
21.473686 71.918747 -18.142233
22.012341 68.92379 -16.965525
22.84177 59.913532 -13.880247
13.513748 57.972019 -27.653648
14.112438 85.767158 -27.909951
13.747013 86.976853 -27.425204
18.172629 51.578671 -16.631778
17.679797 51.777405 -17.263184
17.679797 51.777405 -17.263184
17.198605 51.906709 -17.904664
17.715367 53.410017 -17.905292
14.788152 76.934758 -30.078682
14.824143 78.311386 -29.937873
15.397174 77.215694 -29.146083
21.250951 56.511202 -15.077025
21.660719 57.871963 -14.993731
17.256034 84.110218 -9.812121
16.493863 85.364715 -10.2802
14.356248 48.41955 -21.208125
14.643248 48.40979 -20.483477
18.30275 79.031917 -2.925769
18.891347 78.514843 -3.798711
18.265702 79.894486 -4.177616
18.265702 79.894486 -4.177616
18.233691 80.656872 -5.457422
24.468122 64.389568 -8.142092
24.212768 65.807148 -8.441558
24.322804 65.254768 -7.403977
24.572121 63.454939 -8.854902
24.468122 64.389568 -8.142092
13.588573 88.88908 -24.983719
12.98704 89.115925 -26.236753
15.707138 87.332432 -14.05982
16.007514 86.705147 -12.824057
13.459781 55.089872 -26.697981
13.550963 53.74519 -25.898039
22.058228 59.185857 -14.856272
21.660719 57.871963 -14.993731
21.61799 59.458906 -15.490613
18.652073 81.52776 -8.85269
17.955649 82.86517 -9.333187
18.083227 82.118935 -7.996405
16.72153 51.934416 -18.551735
16.260927 51.916314 -19.19573
16.773572 53.52122 -19.190767
16.72153 51.934416 -18.551735
17.198605 51.906709 -17.904664
24.355951 64.62574 -6.327547
24.322804 65.254768 -7.403977
24.100598 66.043319 -6.627014
24.420185 63.86338 -5.278849
24.355951 64.62574 -6.327547
24.41386 63.100572 -4.238733
24.420185 63.86338 -5.278849
24.12742 64.651483 -4.510468
24.419581 62.345768 -3.251396
24.41386 63.100572 -4.238733
20.336161 72.824219 -0.345199
20.401029 73.630436 -1.469004
19.849247 74.259029 -0.68088
20.749989 71.373974 0.093069
20.336161 72.824219 -0.345199
21.171244 69.983882 0.356953
21.309198 70.805534 -0.869439
20.749989 71.373974 0.093069
16.715895 86.142224 -15.889263
16.252724 86.726295 -14.965334
17.077644 85.489941 -14.573477
16.385512 86.639099 -17.215661
16.715895 86.142224 -15.889263
17.210432 85.402744 -16.823804
16.065095 87.059879 -18.584451
16.385512 86.639099 -17.215661
16.514367 86.271526 -19.380449
15.699413 87.431786 -19.814698
16.065095 87.059879 -18.584451
23.55285 60.441168 -12.724656
23.807715 61.550165 -12.271978
14.738838 79.720505 -29.813235
15.433409 79.750927 -28.733113
14.738838 79.720505 -29.813235
14.824143 78.311386 -29.937873
13.619749 52.31138 -25.059432
13.550963 53.74519 -25.898039
13.86482 53.921351 -25.020593
19.234901 54.27928 -16.511413
18.696068 52.940771 -16.591103
18.735393 54.61922 -17.184121
19.723107 54.00359 -15.867948
19.234901 54.27928 -16.511413
19.762431 55.682039 -16.460966
20.236139 53.86376 -15.304971
19.723107 54.00359 -15.867948
20.766029 55.14187 -15.17174
20.73556 56.77568 -15.722786
21.250951 56.511202 -15.077025
20.236139 53.86376 -15.304971
20.766029 55.14187 -15.17174
16.262911 86.050186 -11.572954
16.493863 85.364715 -10.2802
16.869869 85.419052 -12.398445
16.007514 86.705147 -12.824057
16.262911 86.050186 -11.572954
17.82488 83.519042 -10.668406
17.256034 84.110218 -9.812121
17.955649 82.86517 -9.333187
14.730749 75.484574 -30.190207
15.203616 74.433964 -29.398781
14.335625 49.874615 -21.933864
14.316116 51.369015 -22.702364
14.655686 51.569607 -21.947707
14.335625 49.874615 -21.933864
14.356248 48.41955 -21.208125
18.352353 78.112915 -1.66392
18.30275 79.031917 -2.925769
18.855832 76.827381 -1.257973
18.352353 78.112915 -1.66392
19.348692 75.533867 -0.886884
19.421254 76.358761 -2.175775
18.855832 76.827381 -1.257973
19.849247 74.259029 -0.68088
19.348692 75.533867 -0.886884
18.196366 81.358929 -6.690097
18.083227 82.118935 -7.996405
18.816976 80.079468 -6.283232
18.196366 81.358929 -6.690097
18.233691 80.656872 -5.457422
18.172629 51.578671 -16.631778
18.696068 52.940771 -16.591103
15.762505 83.338009 -26.623755
14.961583 84.554192 -27.240526
15.525953 84.549221 -26.12415
15.919241 82.12408 -27.0462
15.762505 83.338009 -26.623755
16.483611 82.11911 -25.929823
16.037 80.907356 -27.40661
15.919241 82.12408 -27.0462
16.049315 79.725803 -27.748337
16.037 80.907356 -27.40661
16.652662 79.723629 -26.693995
16.04907 78.567199 -28.020499
15.433409 79.750927 -28.733113
16.049315 79.725803 -27.748337
15.612175 73.145291 -28.672616
15.203616 74.433964 -29.398781
15.769742 74.550393 -28.560727
15.420391 71.786434 -28.694363
15.612175 73.145291 -28.672616
15.986517 71.902862 -27.856309
15.187146 70.299907 -28.763686
15.420391 71.786434 -28.694363
14.936273 68.844853 -28.737884
15.187146 70.299907 -28.763686
15.543859 69.088951 -27.852254
14.72899 67.222668 -28.64112
14.936273 68.844853 -28.737884
14.417272 65.693238 -28.638556
14.72899 67.222668 -28.64112
14.981269 66.104466 -27.823889
14.143161 64.148081 -28.650111
14.417272 65.693238 -28.638556
14.368205 62.94228 -27.774352
13.841815 62.515326 -28.603138
14.143161 64.148081 -28.650111
15.00715 48.485765 -19.798741
14.643248 48.40979 -20.483477
15.039098 50.151183 -20.494472
15.805943 50.278334 -19.183217
15.857985 51.865138 -19.822249
16.260927 51.916314 -19.19573
15.365175 48.576718 -19.145074
15.805943 50.278334 -19.183217
15.00715 48.485765 -19.798741
15.365175 48.576718 -19.145074
24.001587 62.563315 -11.82093
23.807715 61.550165 -12.271978
23.638672 63.09216 -12.721216
24.274043 62.122595 -10.873507
24.001587 62.563315 -11.82093
24.104999 63.664589 -11.322744
24.560611 61.560623 -10.005179
24.274043 62.122595 -10.873507
24.581806 62.5959 -9.452727
24.36777 64.082909 -9.777497
24.572121 63.454939 -8.854902
24.560611 61.560623 -10.005179
24.581806 62.5959 -9.452727
21.598095 68.504146 0.606875
21.171244 69.983882 0.356953
22.090072 67.996452 -0.320212
21.598095 68.504146 0.606875
22.588045 67.319683 -1.189765
22.228426 68.738674 -1.475107
22.090072 67.996452 -0.320212
23.055098 66.653358 -2.092771
22.588045 67.319683 -1.189765
23.442448 66.072689 -2.955154
23.113748 67.481235 -3.207044
23.055098 66.653358 -2.092771
23.752447 64.566744 -2.655616
23.811098 65.394621 -3.76989
23.442448 66.072689 -2.955154
24.070122 63.12164 -2.476516
23.752447 64.566744 -2.655616
24.419581 62.345768 -3.251396
24.070122 63.12164 -2.476516
13.397825 88.051025 -26.873188
12.98704 89.115925 -26.236753
14.375843 86.839577 -26.188906
13.747013 86.976853 -27.425204
13.397825 88.051025 -26.873188
15.707138 87.332432 -14.05982
16.252724 86.726295 -14.965334
15.253629 87.842636 -21.128062
15.699413 87.431786 -19.814698
14.733926 88.251305 -22.395137
15.253629 87.842636 -21.128062
15.628982 87.052101 -21.877772
14.129886 88.66259 -23.737699
14.733926 88.251305 -22.395137
14.567967 87.68726 -24.390869
13.588573 88.88908 -24.983719
14.129886 88.66259 -23.737699
22.471363 58.756223 -14.119819
22.058228 59.185857 -14.856272
22.428635 60.343166 -14.616701
23.251335 59.358429 -13.078647
23.143285 60.996271 -13.526256
23.55285 60.441168 -12.724656
22.909247 58.304474 -13.41874
23.251335 59.358429 -13.078647
22.471363 58.756223 -14.119819
22.909247 58.304474 -13.41874
14.112438 85.767158 -27.909951
14.961583 84.554192 -27.240526
14.788152 76.934758 -30.078682
14.730749 75.484574 -30.190207
13.601986 60.935318 -28.592607
13.841815 62.515326 -28.603138
13.32543 59.266565 -28.555742
13.601986 60.935318 -28.592607
13.790304 59.640772 -27.690514
13.151464 57.556669 -28.45547
13.32543 59.266565 -28.555742
13.318637 56.398302 -27.595205
13.654891 56.66359 -26.756425
13.459781 55.089872 -26.697981
13.151464 57.556669 -28.45547
13.318637 56.398302 -27.595205
13.96483 51.080782 -23.435254
14.28489 52.775774 -23.449096
14.316116 51.369015 -22.702364
13.669104 50.859691 -24.291087
13.96483 51.080782 -23.435254
13.619749 52.31138 -25.059432
13.669104 50.859691 -24.291087
3 0 39 37
3 0 42 40
3 0 37 42
3 1 46 44
3 1 49 47
3 1 44 49
3 2 152 153
3 3 154 155
3 4 53 51
3 6 56 54
3 6 58 56
3 6 60 58
3 3 63 61
3 3 156 158
3 158 157 63
3 156 157 158
3 8 66 64
3 9 69 67
3 9 70 69
3 10 73 72
3 10 75 73
3 10 77 75
3 8 80 78
3 8 64 80
3 5 159 161
3 161 160 82
3 159 160 161
3 7 85 83
3 11 87 86
3 163 162 38
3 12 90 88
3 14 91 41
3 14 92 91
3 14 94 92
3 11 95 43
3 11 86 95
3 16 98 96
3 18 99 45
3 18 100 99
3 164 101 165
3 20 102 48
3 20 103 102
3 20 105 103
3 16 106 50
3 16 96 106
3 167 166 107
3 168 110 169
3 170 169 108
3 168 169 170
3 171 108 172
3 23 112 111
3 24 113 52
3 24 114 113
3 13 115 89
3 25 116 55
3 25 117 116
3 25 118 117
3 26 119 57
3 26 120 119
3 26 122 120
3 28 123 59
3 28 124 123
3 15 125 93
3 29 126 62
3 29 127 126
3 29 128 127
3 30 131 129
3 32 132 65
3 32 133 132
3 17 134 97
3 173 135 174
3 175 174 68
3 173 174 175
3 177 176 135
3 22 136 109
3 33 137 71
3 33 138 137
3 178 139 179
3 19 180 181
3 34 140 74
3 34 141 140
3 34 142 141
3 35 143 76
3 35 144 143
3 21 145 104
3 36 146 79
3 36 147 146
3 36 148 147
3 30 149 81
3 30 129 149
3 31 150 130
3 27 151 121
3 183 182 84
3 37 38 11
3 39 38 37
3 39 184 186
3 186 185 38
3 184 185 186
3 40 41 12
3 42 41 40
3 42 14 41
3 42 43 14
3 37 43 42
3 37 11 43
3 44 45 16
3 46 45 44
3 46 18 45
3 47 187 189
3 187 48 188
3 187 188 189
3 49 48 47
3 49 20 48
3 49 50 20
3 44 50 49
3 44 16 50
3 51 52 23
3 53 52 51
3 53 24 52
3 54 55 13
3 56 55 54
3 56 25 55
3 56 57 25
3 58 57 56
3 58 26 57
3 58 59 26
3 60 59 58
3 60 28 59
3 61 62 15
3 63 62 61
3 63 29 62
3 63 190 192
3 192 191 29
3 190 191 192
3 194 193 63
3 64 65 30
3 66 65 64
3 66 32 65
3 67 68 17
3 69 68 67
3 69 195 197
3 197 196 68
3 195 196 197
3 69 198 199
3 70 200 202
3 202 201 69
3 200 201 202
3 70 203 204
3 205 71 206
3 207 206 22
3 205 206 207
3 208 71 209
3 210 33 211
3 212 211 71
3 210 211 212
3 72 213 215
3 215 214 19
3 213 214 215
3 73 216 218
3 218 217 72
3 216 217 218
3 73 219 220
3 73 221 223
3 221 74 222
3 221 222 223
3 75 74 73
3 75 34 74
3 75 76 34
3 77 76 75
3 77 35 76
3 78 79 21
3 80 79 78
3 80 36 79
3 80 81 36
3 64 81 80
3 64 30 81
3 225 224 31
3 82 226 227
3 229 228 82
3 83 84 27
3 85 84 83
3 85 230 232
3 232 231 84
3 230 231 232
3 86 233 235
3 235 234 3
3 233 234 235
3 87 236 238
3 238 237 86
3 236 237 238
3 87 239 240
3 38 87 11
3 241 87 242
3 243 242 38
3 241 242 243
3 245 244 87
3 88 89 4
3 90 89 88
3 90 13 89
3 41 90 12
3 91 90 41
3 91 13 90
3 91 54 13
3 92 54 91
3 92 6 54
3 92 93 6
3 94 93 92
3 94 15 93
3 43 94 14
3 95 94 43
3 95 15 94
3 95 61 15
3 86 61 95
3 86 3 61
3 96 97 8
3 98 97 96
3 98 17 97
3 45 98 16
3 99 98 45
3 99 17 98
3 99 67 17
3 100 67 99
3 100 9 67
3 101 246 247
3 101 248 250
3 248 19 249
3 248 249 250
3 48 251 253
3 251 101 252
3 251 252 253
3 102 101 48
3 102 19 101
3 102 72 19
3 103 72 102
3 103 10 72
3 103 104 10
3 105 104 103
3 105 21 104
3 50 105 20
3 106 105 50
3 106 21 105
3 106 78 21
3 96 78 106
3 96 8 78
3 255 254 5
3 107 256 258
3 258 257 7
3 256 257 258
3 260 259 107
3 108 109 1
3 110 109 108
3 110 22 109
3 261 110 262
3 263 110 264
3 265 22 266
3 267 266 110
3 265 266 267
3 269 268 22
3 270 47 271
3 108 272 274
3 272 47 273
3 272 273 274
3 108 1 47
3 276 275 3
3 111 277 279
3 279 278 2
3 277 278 279
3 112 280 282
3 282 281 111
3 280 281 282
3 112 283 284
3 52 112 23
3 113 112 52
3 113 285 287
3 287 286 112
3 285 286 287
3 113 288 290
3 288 82 289
3 288 289 290
3 114 82 113
3 114 5 82
3 89 53 4
3 115 53 89
3 115 24 53
3 55 115 13
3 116 115 55
3 116 24 115
3 116 114 24
3 117 114 116
3 117 5 114
3 117 291 293
3 293 292 5
3 291 292 293
3 118 294 296
3 296 295 117
3 294 295 296
3 118 297 298
3 57 118 25
3 119 118 57
3 119 299 301
3 301 300 118
3 299 300 301
3 119 302 303
3 120 304 306
3 306 305 119
3 304 305 306
3 120 307 308
3 120 309 311
3 309 121 310
3 309 310 311
3 122 121 120
3 122 27 121
3 59 122 26
3 123 122 59
3 123 27 122
3 123 83 27
3 124 83 123
3 124 7 83
3 93 60 6
3 125 60 93
3 125 28 60
3 62 125 15
3 126 125 62
3 126 28 125
3 126 124 28
3 127 124 126
3 127 7 124
3 127 107 7
3 128 107 127
3 128 312 314
3 314 313 107
3 312 313 314
3 315 128 316
3 317 316 29
3 315 316 317
3 318 128 319
3 321 320 128
3 129 130 0
3 131 130 129
3 131 31 130
3 65 131 30
3 132 131 65
3 132 31 131
3 132 322 324
3 324 323 31
3 322 323 324
3 133 325 327
3 327 326 132
3 325 326 327
3 133 328 329
3 97 66 8
3 134 66 97
3 134 32 66
3 68 134 17
3 135 134 68
3 135 32 134
3 135 133 32
3 330 133 331
3 332 331 135
3 330 331 332
3 334 333 133
3 109 46 1
3 136 46 109
3 136 18 46
3 71 136 22
3 137 136 71
3 137 18 136
3 137 100 18
3 138 100 137
3 138 9 100
3 335 33 336
3 337 33 338
3 339 138 340
3 341 340 33
3 339 340 341
3 342 138 343
3 344 9 345
3 346 345 138
3 344 345 346
3 347 70 348
3 349 348 9
3 347 348 349
3 350 70 351
3 353 352 70
3 139 354 355
3 139 356 358
3 356 2 357
3 356 357 358
3 360 359 19
3 74 361 362
3 140 363 365
3 365 364 74
3 363 364 365
3 140 366 367
3 140 368 370
3 368 139 369
3 368 369 370
3 141 139 140
3 141 2 139
3 141 111 2
3 142 111 141
3 142 23 111
3 76 142 34
3 143 142 76
3 143 23 142
3 143 51 23
3 144 51 143
3 144 4 51
3 104 77 10
3 145 77 104
3 145 35 77
3 79 145 21
3 146 145 79
3 146 35 145
3 146 144 35
3 147 144 146
3 147 4 144
3 147 88 4
3 148 88 147
3 148 12 88
3 81 148 36
3 149 148 81
3 149 12 148
3 149 40 12
3 129 40 149
3 129 0 40
3 130 39 0
3 150 39 130
3 150 371 373
3 373 372 39
3 371 372 373
3 374 150 375
3 376 375 31
3 374 375 376
3 377 150 378
3 380 379 150
3 382 381 2
3 384 383 5
3 121 385 386
3 151 387 389
3 389 388 121
3 387 388 389
3 151 390 391
3 84 151 27
3 392 151 393
3 394 393 84
3 392 393 394
3 396 395 151
3 397 85 398
3 399 398 7
3 397 398 399
3 400 85 401
3 403 402 85
