ply
format ascii 1.0
element vertex 453
property float x
property float y
property float z
element face 504
property list uchar int vertex_index
end_header
26.031067 -67.790031 3.601604
26.94492 -89.023651 2.690539
26.52174 -78.315964 3.661978
26.854525 -81.101952 13.171919
25.425764 -82.031235 22.771566
24.847425 -74.550476 -4.774733
26.631023 -85.29509 -5.963315
26.934315 -95.853271 -8.393005
24.839863 -90.451897 12.027068
24.624594 -98.461449 0.070719
23.142195 -104.366394 -12.520055
27.16888 -75.804222 13.032483
27.183891 -76.84726 18.158243
24.324377 -69.629898 -4.588876
25.23971 -71.385612 -0.768934
26.898689 -83.860626 3.414801
26.478859 -81.894333 -1.079211
27.026905 -87.196182 -1.725302
27.163862 -90.702621 -7.055215
27.058867 -92.673782 -2.755681
23.441442 -85.830673 21.802263
25.001375 -86.432777 17.407383
23.043219 -90.02459 16.193739
22.517044 -98.1614 4.345421
22.052872 -101.780922 -1.9054
24.234276 -101.702904 -6.162905
26.108456 -72.858078 3.599308
26.808336 -74.515984 8.412116
26.8985 -79.966324 8.435533
26.810709 -85.055527 8.100346
21.369745 -84.526756 26.041298
23.482004 -67.64077 -8.117467
25.792192 -76.571976 -0.732241
25.724329 -79.940361 -5.375464
26.354601 -81.97644 18.018692
26.178581 -86.071556 12.771084
26.197439 -90.235931 7.300366
22.797338 -94.163254 10.352521
24.825815 -94.490349 6.169168
26.295786 -94.003693 1.615647
26.165855 -97.614792 -4.314251
25.665848 -100.558197 -10.154267
25.132839 -68.900864 -0.737081
25.587225 -69.71373 1.365887
26.979176 -86.425385 3.107061
26.948692 -85.56031 0.765136
27.064224 -88.328064 0.404296
27.139688 -90.079353 -2.124676
27.002197 -90.998825 0.08448
22.138176 -87.426117 21.125759
23.22953 -87.948669 18.992729
21.958254 -89.487228 18.262781
21.687775 -103.301338 -4.961048
26.762018 -71.943413 8.196752
27.071428 -72.614098 10.744187
27.051617 -78.330414 13.220621
26.993479 -77.969177 10.791114
26.926149 -80.569351 10.914803
26.891983 -82.462921 8.352679
26.788939 -83.231209 10.645012
23.858671 -66.205612 -6.30085
24.515278 -72.10173 -4.754565
24.040312 -71.059502 -6.577785
24.347418 -73.558434 -6.766995
26.311291 -75.574333 3.760835
25.921938 -74.736649 1.503746
26.182175 -77.370117 1.39245
26.532558 -83.583504 -3.498438
26.114813 -80.846474 -3.3057
26.176357 -82.481491 -5.580122
26.678411 -86.687164 -8.497791
27.162439 -93.310249 -7.789117
27.127131 -92.087715 -9.596391
27.04854 -94.785172 -10.381851
26.797827 -96.099472 -13.346253
26.752047 -97.100227 -11.267365
26.57086 -79.612793 20.625048
25.956476 -82.085609 20.365084
24.932783 -88.393845 14.707877
25.661648 -86.31543 15.152015
25.619164 -88.504021 12.21826
26.165749 -88.18544 10.098989
25.588608 -90.421188 9.72554
23.675303 -98.375435 2.264613
23.783443 -96.4776 5.264622
24.786219 -96.543587 3.036191
25.623032 -94.418198 3.889304
25.571447 -96.328346 1.015232
26.247904 -95.871208 -1.175417
25.536695 -97.980087 -1.934592
23.734009 -103.188828 -9.287918
25.043999 -101.222252 -8.113061
24.541506 -102.64785 -11.375639
25.183088 -101.762085 -13.319915
23.931252 -103.660934 -14.399288
27.299255 -73.083023 13.181357
27.239773 -76.254852 15.637203
26.985712 -79.02562 15.653616
24.250471 -67.249466 -4.564541
24.701426 -67.904427 -2.619664
24.76366 -70.509819 -2.801721
25.006351 -72.890556 -2.668801
26.732582 -81.140709 3.50395
26.459679 -79.969635 1.307963
26.730106 -82.74614 1.151529
26.794088 -84.540665 -1.237729
26.895561 -86.396889 -3.860899
26.962374 -87.95137 -6.546398
27.126305 -89.107498 -4.306539
27.188408 -91.813026 -5.017727
27.027109 -94.42112 -5.610729
24.589737 -83.987709 22.270126
25.24782 -84.256119 19.934
24.337103 -86.171608 19.580456
24.122591 -88.330513 16.831755
23.928291 -90.397781 14.171774
22.242458 -100.095047 1.229018
23.508297 -100.172668 -0.812577
24.54723 -100.052689 -3.000256
23.286032 -101.731056 -3.791811
22.904221 -103.242096 -6.956967
22.284239 -104.642845 -10.274902
26.000454 -70.374054 3.491918
26.409918 -71.060364 5.844449
26.49342 -73.750618 5.976675
26.618401 -76.43026 6.011265
27.029753 -75.278976 10.747089
26.85696 -77.203758 8.456559
26.757555 -79.124062 5.993119
26.870213 -81.877609 5.822849
26.914646 -84.488899 5.815577
26.856319 -87.173943 5.484096
23.744249 -83.782669 24.360657
22.436079 -85.32003 23.907949
21.000208 -86.613426 23.226795
23.862968 -68.596954 -6.472901
23.602764 -69.868744 -8.255421
25.699022 -72.224747 1.371239
25.47961 -73.995491 -0.738328
25.327175 -75.660332 -2.903433
26.117773 -79.230576 -1.03931
25.724775 -78.361153 -3.117739
25.256466 -77.283737 -5.13819
26.98752 -89.356857 -8.984128
26.81237 -79.472511 18.22459
26.655319 -81.649277 15.640709
25.774462 -84.296989 17.706568
26.22933 -84.13488 15.304484
26.599874 -83.53994 12.954305
26.560684 -85.734932 10.363034
26.580589 -87.690048 7.879776
26.67536 -89.537048 5.064516
22.80267 -92.207054 13.281756
23.926449 -92.357704 11.296082
22.647263 -96.104546 7.538077
23.858953 -94.444489 8.312241
24.884535 -92.426865 9.075903
25.621599 -92.342545 6.943536
26.251787 -92.114899 4.535643
26.720304 -91.531868 2.365491
26.74749 -93.399796 -0.384517
26.733213 -95.1558 -3.282437
26.637119 -96.874474 -6.46164
25.299795 -99.779839 -5.046141
25.965693 -99.175934 -7.179214
26.455929 -98.28186 -9.258206
26.146322 -99.507339 -12.164742
25.809146 -68.75188 2.483745
25.590997 -68.376106 1.366041
25.812918 -67.414257 2.4839
21.344175 -89.077034 19.328443
22.048215 -88.456672 19.69427
21.434137 -88.046479 20.759932
26.088862 -66.430984 3.555637
26.288815 -66.816638 4.702744
25.812918 -67.414257 2.4839
26.088862 -66.430984 3.555637
27.241717 -71.578609 11.903111
27.106665 -71.253979 10.688906
24.099894 -65.446872 -5.423094
23.931787 -65.020424 -6.252052
24.785666 -75.235039 -5.903077
24.535662 -74.739018 -6.899207
24.597422 -74.054455 -5.770864
26.445793 -84.643017 -6.885309
26.21846 -83.236218 -6.693713
26.40369 -83.888291 -5.771719
26.654717 -85.991127 -7.230553
26.469487 -85.339054 -8.152548
26.445793 -84.643017 -6.885309
25.69112 -82.058422 21.568325
26.055822 -81.037353 21.597618
25.790467 -81.010166 22.80086
22.787731 -104.76984 -14.015419
23.182259 -104.41711 -14.955036
23.536724 -104.013664 -13.459671
27.211832 -76.551056 16.897723
27.366698 -75.191742 16.872001
27.338757 -75.487946 18.132521
24.946622 -67.048798 -1.609019
24.718252 -66.686741 -2.658946
22.147665 -100.937984 -0.338191
21.476235 -100.739841 0.728119
21.381442 -101.582779 -0.83909
22.036088 -103.971142 -7.551011
22.295998 -103.271717 -5.959008
21.427865 -104.000763 -6.553051
21.726097 -104.671516 -9.209979
22.59423 -103.94247 -8.615934
22.036088 -103.971142 -7.551011
21.390955 -105.259323 -10.832505
21.726097 -104.671516 -9.209979
26.619309 -70.111592 7.0842
26.420648 -69.825837 5.850898
23.8709 -82.723557 25.727283
24.246107 -82.902424 24.61215
21.902912 -84.923393 24.974623
22.612412 -84.339557 25.162346
22.079245 -83.94292 26.22902
23.334885 -67.05473 -8.816596
23.34952 -65.91803 -8.723621
23.49664 -66.504071 -8.024492
23.365671 -68.222504 -8.957743
23.334885 -67.05473 -8.816596
23.738715 -71.101502 -8.350724
23.821538 -70.464123 -7.416603
23.957489 -71.69688 -7.511906
23.527354 -70.464767 -9.144019
23.738715 -71.101502 -8.350724
25.479928 -79.308605 -6.340035
25.245997 -77.980293 -6.221398
25.490398 -78.612049 -5.256827
27.040799 -91.453464 -10.550664
27.059541 -92.807651 -11.025517
26.59203 -96.575874 -14.794199
26.55902 -97.317284 -13.830547
22.800004 -93.185154 11.817138
22.179913 -92.942852 12.831345
22.177247 -93.920952 11.366728
22.582153 -97.132973 5.941749
21.958478 -96.900162 6.936808
21.893369 -97.928589 5.34048
25.363855 -101.276543 -14.259968
24.802084 -102.276646 -14.88354
27.315143 -75.720444 19.360068
27.338757 -75.487946 18.132521
25.363804 -67.969673 0.314557
25.162329 -67.547016 -0.667728
25.360032 -69.307297 0.314403
25.363804 -67.969673 0.314557
25.590997 -68.376106 1.366041
21.153512 -102.386078 -2.336587
21.381442 -101.582779 -0.83909
20.970963 -103.146286 -3.864412
21.870323 -102.54113 -3.433224
21.153512 -102.386078 -2.336587
20.804985 -103.857452 -5.443834
20.970963 -103.146286 -3.864412
21.427865 -104.000763 -6.553051
20.804985 -103.857452 -5.443834
26.95196 -70.918637 9.415188
26.795358 -70.553116 8.260351
26.916723 -72.278756 9.47047
26.95196 -70.918637 9.415188
27.106665 -71.253979 10.688906
21.647616 -83.500572 27.341959
22.079245 -83.94292 26.22902
23.684973 -65.786492 -7.116183
23.931787 -65.020424 -6.252052
23.670338 -66.923191 -7.209158
23.49664 -66.504071 -8.024492
23.684973 -65.786492 -7.116183
24.111042 -72.946347 -7.60651
23.957489 -71.69688 -7.511906
24.193865 -72.308968 -6.67239
24.300344 -74.183609 -7.766269
24.111042 -72.946347 -7.60651
24.300344 -74.183609 -7.766269
24.535662 -74.739018 -6.899207
25.970278 -81.956119 -6.614376
25.744264 -80.685554 -6.512047
25.950343 -81.210926 -5.477793
25.970278 -81.956119 -6.614376
26.21846 -83.236218 -6.693713
26.495406 -86.025222 -9.386561
26.469487 -85.339054 -8.152548
26.693007 -87.425113 -9.758315
26.495406 -86.025222 -9.386561
27.020246 -94.15638 -11.418246
27.059541 -92.807651 -11.025517
27.087835 -93.436443 -9.989121
26.923184 -95.442322 -11.864052
26.894889 -94.81353 -12.900448
27.020246 -94.15638 -11.418246
26.53613 -97.817661 -12.791103
26.55902 -97.317284 -13.830547
26.774937 -96.59985 -12.306809
26.363014 -79.800945 21.727601
26.677574 -78.584801 21.781153
26.263668 -80.849201 20.495066
26.363014 -79.800945 21.727601
26.055822 -81.037353 21.597618
22.076654 -94.892319 9.96162
22.177247 -93.920952 11.366728
24.176166 -103.22607 -15.423227
24.802084 -102.276646 -14.88354
24.55717 -102.71151 -13.859602
23.468729 -104.074039 -15.92341
24.176166 -103.22607 -15.423227
22.719735 -104.830215 -16.479158
23.468729 -104.074039 -15.92341
23.182259 -104.41711 -14.955036
27.466656 -72.002678 14.385741
27.355631 -71.813072 13.121696
27.361809 -73.41204 14.33429
27.466656 -72.002678 14.385741
27.296622 -74.77264 14.259853
27.234068 -74.443623 13.10692
27.361809 -73.41204 14.33429
27.332068 -74.997955 15.562213
27.366698 -75.191742 16.872001
27.204327 -76.029537 14.334843
27.296622 -74.77264 14.259853
27.332068 -74.997955 15.562213
24.492775 -66.359261 -3.631384
24.295794 -65.968799 -4.554939
24.475949 -67.576946 -3.592103
24.492775 -66.359261 -3.631384
24.718252 -66.686741 -2.658946
24.917133 -68.402646 -1.678373
24.946622 -67.048798 -1.609019
25.162329 -67.547016 -0.667728
21.755204 -98.824776 3.927448
21.893369 -97.928589 5.34048
21.617911 -99.791599 2.369247
21.476235 -100.739841 0.728119
22.379751 -99.128223 2.787219
21.755204 -98.824776 3.927448
21.617911 -99.791599 2.369247
21.853534 -105.207668 -11.925937
22.282512 -105.069443 -13.048513
22.713217 -104.504619 -11.397479
21.853534 -105.207668 -11.925937
21.390955 -105.259323 -10.832505
26.215916 -69.482681 4.674632
26.01576 -69.082043 3.546761
26.231222 -68.19067 4.729475
26.205186 -70.717209 4.668183
26.215916 -69.482681 4.674632
26.420648 -69.825837 5.850898
26.585968 -71.501889 7.020601
26.619309 -70.111592 7.0842
26.795358 -70.553116 8.260351
27.185341 -72.84856 11.962772
27.241717 -71.578609 11.903111
27.355631 -71.813072 13.121696
26.231222 -68.19067 4.729475
26.288815 -66.816638 4.702744
25.567695 -80.941353 23.974414
25.790467 -81.010166 22.80086
25.086865 -82.026707 23.817605
25.567695 -80.941353 23.974414
24.668851 -83.004944 23.566885
25.007751 -83.009472 22.520846
25.086865 -82.026707 23.817605
24.166993 -83.885189 23.315392
24.668851 -83.004944 23.566885
24.246107 -82.902424 24.61215
23.266497 -83.570877 25.3887
23.8709 -82.723557 25.727283
23.090164 -84.55135 24.134303
23.266497 -83.570877 25.3887
22.612412 -84.339557 25.162346
20.865153 -87.640133 21.810449
21.434137 -88.046479 20.759932
21.569192 -87.019772 22.176277
20.891987 -84.053108 27.007165
21.647616 -83.500572 27.341959
21.169858 -83.026924 28.307826
20.629902 -85.081703 25.605096
20.891987 -84.053108 27.007165
20.445134 -86.125038 24.197845
21.184977 -85.570091 24.634047
20.629902 -85.081703 25.605096
20.255834 -87.159691 22.760062
20.445134 -86.125038 24.197845
20.865153 -87.640133 21.810449
20.255834 -87.159691 22.760062
24.054571 -66.727539 -5.432695
24.099894 -65.446872 -5.423094
24.295794 -65.968799 -4.554939
23.426051 -69.33649 -9.02672
23.365671 -68.222504 -8.957743
23.542384 -68.754757 -8.186444
23.426051 -69.33649 -9.02672
23.527354 -70.464767 -9.144019
24.990186 -76.601669 -6.084805
24.785666 -75.235039 -5.903077
25.051946 -75.917107 -4.956461
24.990186 -76.601669 -6.084805
25.245997 -77.980293 -6.221398
25.479928 -79.308605 -6.340035
25.744264 -80.685554 -6.512047
26.847561 -88.75996 -10.001483
26.693007 -87.425113 -9.758315
26.832966 -88.02201 -8.740959
26.970993 -90.088036 -10.244532
27.057325 -90.722286 -9.29026
27.040799 -91.453464 -10.550664
26.847561 -88.75996 -10.001483
26.970993 -90.088036 -10.244532
26.76466 -95.311432 -14.258972
26.894889 -94.81353 -12.900448
26.76466 -95.311432 -14.258972
26.59203 -96.575874 -14.794199
27.114907 -77.000916 19.417937
27.315143 -75.720444 19.360068
26.808391 -78.383682 20.651339
26.677574 -78.584801 21.781153
26.929147 -78.313541 19.45111
26.808391 -78.383682 20.651339
26.691615 -79.542652 19.424819
26.998131 -78.159886 18.191416
27.114907 -77.000916 19.417937
26.929147 -78.313541 19.45111
21.225713 -90.127063 17.85808
21.344175 -89.077034 19.328443
21.847206 -90.526344 16.827243
21.225713 -90.127063 17.85808
22.389688 -90.795025 15.792722
22.500737 -89.755909 17.22826
21.847206 -90.526344 16.827243
22.269414 -91.886257 14.33673
22.179913 -92.942852 12.831345
22.922944 -91.115822 14.737748
22.389688 -90.795025 15.792722
22.269414 -91.886257 14.33673
22.001616 -95.862965 8.554398
21.312832 -96.658581 7.95313
21.958478 -96.900162 6.936808
22.7223 -95.1339 8.945299
22.076654 -94.892319 9.96162
22.001616 -95.862965 8.554398
26.233268 -99.021217 -13.239791
26.53613 -97.817661 -12.791103
26.449185 -98.303783 -11.716054
25.845472 -100.149169 -13.682382
25.664705 -100.634712 -12.742328
25.363855 -101.276543 -14.259968
26.233268 -99.021217 -13.239791
25.845472 -100.149169 -13.682382
22.787731 -104.76984 -14.015419
22.282512 -105.069443 -13.048513
3 0 167 169
3 167 43 168
3 167 168 169
3 1 46 44
3 1 48 46
3 170 51 171
3 172 171 49
3 170 171 172
3 0 173 174
3 0 175 176
3 177 54 178
3 3 57 55
3 3 59 57
3 179 60 180
3 5 63 61
3 5 181 183
3 183 182 63
3 181 182 183
3 2 66 64
3 6 69 67
3 6 184 186
3 186 185 69
3 184 185 186
3 6 187 189
3 187 70 188
3 187 188 189
3 7 73 71
3 7 75 73
3 4 190 192
3 190 77 191
3 190 191 192
3 8 80 78
3 8 82 80
3 9 85 83
3 9 87 85
3 9 89 87
3 10 92 90
3 10 94 92
3 10 193 195
3 195 194 94
3 193 194 195
3 12 196 198
3 196 96 197
3 196 197 198
3 12 97 96
3 199 99 200
3 14 100 42
3 14 101 100
3 15 104 102
3 17 105 45
3 17 106 105
3 17 108 106
3 19 109 47
3 19 110 109
3 20 113 111
3 22 114 50
3 22 115 114
3 24 201 203
3 201 116 202
3 201 202 203
3 24 117 116
3 24 119 117
3 204 120 205
3 206 205 52
3 204 205 206
3 207 121 208
3 209 208 120
3 207 208 209
3 211 210 121
3 212 123 213
3 27 124 53
3 27 125 124
3 11 126 95
3 28 127 56
3 28 128 127
3 28 129 128
3 29 130 58
3 29 131 130
3 214 132 215
3 30 216 218
3 216 133 217
3 216 217 218
3 30 134 133
3 31 219 221
3 219 220 221
3 31 222 223
3 13 135 98
3 224 136 225
3 226 225 62
3 224 225 226
3 228 227 136
3 26 137 122
3 32 138 65
3 32 139 138
3 16 140 103
3 33 141 68
3 33 142 141
3 33 229 231
3 231 230 142
3 229 230 231
3 18 143 107
3 233 232 72
3 235 234 74
3 34 144 76
3 34 145 144
3 21 146 112
3 35 147 79
3 35 148 147
3 35 149 148
3 36 150 81
3 36 151 150
3 37 236 238
3 236 152 237
3 236 237 238
3 37 153 152
3 23 239 241
3 239 154 240
3 239 240 241
3 38 155 84
3 38 156 155
3 38 157 156
3 39 158 86
3 39 159 158
3 39 160 159
3 40 161 88
3 40 162 161
3 25 163 118
3 41 164 91
3 41 165 164
3 41 166 165
3 243 242 93
3 244 12 245
3 246 42 247
3 43 248 250
3 248 42 249
3 248 249 250
3 43 14 42
3 44 45 15
3 46 45 44
3 46 17 45
3 46 47 17
3 48 47 46
3 48 19 47
3 49 50 20
3 51 50 49
3 51 22 50
3 251 24 252
3 253 52 254
3 255 254 24
3 253 254 255
3 256 52 257
3 259 258 52
3 260 53 261
3 54 262 264
3 262 53 263
3 262 263 264
3 54 27 53
3 55 56 11
3 57 56 55
3 57 28 56
3 57 58 28
3 59 58 57
3 59 29 58
3 265 30 266
3 60 267 268
3 60 269 271
3 269 31 270
3 269 270 271
3 61 62 13
3 63 62 61
3 63 272 274
3 274 273 62
3 272 273 274
3 63 275 276
3 278 277 63
3 64 65 26
3 66 65 64
3 66 32 65
3 67 68 16
3 69 68 67
3 69 33 68
3 69 279 281
3 281 280 33
3 279 280 281
3 283 282 69
3 70 284 285
3 70 286 287
3 71 72 18
3 73 72 71
3 73 288 290
3 290 289 72
3 288 289 290
3 73 291 293
3 291 74 292
3 291 292 293
3 75 74 73
3 75 294 296
3 296 295 74
3 294 295 296
3 297 76 298
3 77 299 301
3 299 76 300
3 299 300 301
3 77 34 76
3 78 79 21
3 80 79 78
3 80 35 79
3 80 81 35
3 82 81 80
3 82 36 81
3 302 37 303
3 83 84 23
3 85 84 83
3 85 38 84
3 85 86 38
3 87 86 85
3 87 39 86
3 87 88 39
3 89 88 87
3 89 40 88
3 90 91 25
3 92 91 90
3 92 41 91
3 92 93 41
3 94 93 92
3 94 304 306
3 306 305 93
3 304 305 306
3 94 307 308
3 311 310 94
3 309 310 311
3 312 95 313
3 314 95 315
3 316 11 317
3 318 317 95
3 316 317 318
3 96 319 320
3 96 321 323
3 321 11 322
3 321 322 323
3 96 55 11
3 97 55 96
3 97 3 55
3 324 98 325
3 99 326 328
3 326 98 327
3 326 327 328
3 99 13 98
3 42 329 331
3 329 99 330
3 329 330 331
3 100 99 42
3 100 13 99
3 100 61 13
3 101 61 100
3 101 5 61
3 102 103 2
3 104 103 102
3 104 16 103
3 45 104 15
3 105 104 45
3 105 16 104
3 105 67 16
3 106 67 105
3 106 6 67
3 106 107 6
3 108 107 106
3 108 18 107
3 47 108 17
3 109 108 47
3 109 18 108
3 109 71 18
3 110 71 109
3 110 7 71
3 111 112 4
3 113 112 111
3 113 21 112
3 50 113 20
3 114 113 50
3 114 21 113
3 114 78 21
3 115 78 114
3 115 8 78
3 332 23 333
3 116 334 335
3 116 336 338
3 336 23 337
3 336 337 338
3 116 83 23
3 117 83 116
3 117 9 83
3 117 118 9
3 119 118 117
3 119 25 118
3 52 119 24
3 120 119 52
3 120 25 119
3 120 90 25
3 121 90 120
3 121 10 90
3 121 339 341
3 341 340 10
3 339 340 341
3 343 342 121
3 344 122 345
3 346 345 0
3 344 345 346
3 123 347 349
3 347 122 348
3 347 348 349
3 123 26 122
3 53 350 352
3 350 123 351
3 350 351 352
3 124 123 53
3 124 26 123
3 124 64 26
3 125 64 124
3 125 2 64
3 95 353 355
3 353 54 354
3 353 354 355
3 126 54 95
3 126 27 54
3 56 126 11
3 127 126 56
3 127 27 126
3 127 125 27
3 128 125 127
3 128 2 125
3 128 102 2
3 129 102 128
3 129 15 102
3 58 129 28
3 130 129 58
3 130 15 129
3 130 44 15
3 131 44 130
3 131 1 44
3 356 0 357
3 358 4 359
3 360 4 361
3 362 111 363
3 364 363 4
3 362 363 364
3 132 365 367
3 365 111 366
3 365 366 367
3 132 20 111
3 368 132 369
3 133 370 372
3 370 132 371
3 370 371 372
3 133 20 132
3 133 49 20
3 134 49 133
3 134 373 375
3 375 374 49
3 373 374 375
3 376 30 377
3 376 377 378
3 379 30 380
3 381 134 382
3 383 382 30
3 381 382 383
3 384 134 385
3 387 386 134
3 98 388 390
3 388 60 389
3 388 389 390
3 135 60 98
3 135 31 60
3 62 135 13
3 136 135 62
3 136 31 135
3 136 391 393
3 393 392 31
3 391 392 393
3 395 394 136
3 122 43 0
3 137 43 122
3 137 14 43
3 65 137 26
3 138 137 65
3 138 14 137
3 138 101 14
3 139 101 138
3 139 5 101
3 103 66 2
3 140 66 103
3 140 32 66
3 68 140 16
3 141 140 68
3 141 32 140
3 141 139 32
3 142 139 141
3 142 5 139
3 142 396 398
3 398 397 5
3 396 397 398
3 400 399 142
3 402 401 33
3 107 70 6
3 143 70 107
3 143 403 405
3 405 404 70
3 403 404 405
3 72 143 18
3 406 143 407
3 408 407 72
3 406 407 408
3 410 409 143
3 74 411 412
3 414 413 74
3 415 12 416
3 76 417 418
3 144 419 421
3 421 420 76
3 419 420 421
3 144 422 424
3 422 12 423
3 422 423 424
3 144 97 12
3 145 97 144
3 145 3 97
3 112 77 4
3 146 77 112
3 146 34 77
3 79 146 21
3 147 146 79
3 147 34 146
3 147 145 34
3 148 145 147
3 148 3 145
3 148 59 3
3 149 59 148
3 149 29 59
3 81 149 35
3 150 149 81
3 150 29 149
3 150 131 29
3 151 131 150
3 151 1 131
3 425 51 426
3 427 51 428
3 429 22 430
3 431 430 51
3 429 430 431
3 152 432 433
3 152 434 436
3 434 22 435
3 434 435 436
3 152 115 22
3 153 115 152
3 153 8 115
3 154 437 439
3 437 438 439
3 154 440 442
3 440 37 441
3 440 441 442
3 84 154 23
3 155 154 84
3 155 37 154
3 155 153 37
3 156 153 155
3 156 8 153
3 156 82 8
3 157 82 156
3 157 36 82
3 86 157 38
3 158 157 86
3 158 36 157
3 158 151 36
3 159 151 158
3 159 1 151
3 159 48 1
3 160 48 159
3 160 19 48
3 88 160 39
3 161 160 88
3 161 19 160
3 161 110 19
3 162 110 161
3 162 7 110
3 118 89 9
3 163 89 118
3 163 40 89
3 91 163 25
3 164 163 91
3 164 40 163
3 164 162 40
3 165 162 164
3 165 7 162
3 165 75 7
3 166 75 165
3 166 443 445
3 445 444 75
3 443 444 445
3 93 166 41
3 446 166 447
3 448 447 93
3 446 447 448
3 450 449 166
3 452 451 10
