ply
format ascii 1.0
element vertex 529
property float x
property float y
property float z
element face 539
property list uchar int vertex_index
end_header
-23.183678 -35.539219 -21.133478
-28.231169 -42.448837 -7.817873
-19.024477 -36.995758 -26.068794
-28.113064 -27.839329 -17.183109
-32.956169 -34.974724 17.389816
-35.602772 -20.777082 16.563877
-33.866611 -33.575588 8.662981
-33.599075 -31.688858 -0.23598
-31.794176 -29.646717 -8.963111
-25.853567 -39.158489 -15.450316
-22.248323 -39.569366 -21.122183
-21.331852 -36.277668 -23.335026
-32.097111 -29.785362 25.104902
-32.176178 -35.558521 21.661152
-33.21207 -28.946411 21.177011
-36.602573 -19.558672 12.450837
-35.07333 -27.442982 12.743294
-35.576469 -26.558393 8.401858
-33.860035 -32.84024 4.315682
-35.664635 -25.762367 3.77935
-30.088341 -28.741056 -13.309187
-24.646072 -44.633011 -14.858837
-27.139229 -40.754791 -11.920429
-25.248777 -32.376553 -19.475389
-31.670443 -41.552063 18.071678
-31.98892 -40.977417 13.571249
-34.325211 -21.748318 20.748053
-34.236252 -28.302549 17.057055
-33.542397 -34.348831 13.058416
-32.103783 -40.247459 9.113073
-31.976341 -39.533031 4.897191
-31.59189 -38.552734 0.196476
-30.975916 -37.467976 -4.091496
-32.864243 -30.763752 -4.731124
-30.055363 -36.052746 -8.423282
-28.686951 -34.84441 -12.480705
-27.120577 -33.429302 -16.154654
-24.474083 -37.103031 -18.702137
-23.413813 -42.187668 -18.33728
-22.763803 -37.246151 -21.136366
-21.791363 -37.93544 -22.261726
-22.341518 -35.892647 -22.136429
-32.50341 -26.281773 24.918062
-32.637669 -29.472332 23.16316
-33.141235 -25.980898 22.893354
-37.625942 -15.293484 9.921744
-37.23801 -15.88939 12.128123
-36.897842 -19.467447 10.249481
-36.175629 -23.166845 10.480657
-36.395481 -22.806618 8.170152
-35.682137 -26.134455 6.140446
-26.860823 -44.770969 -9.600348
-26.374763 -43.894638 -11.49216
-27.69615 -41.721016 -9.89005
-19.675491 -39.015839 -24.841257
-26.648586 -30.241035 -18.337538
-25.527533 -29.96423 -20.02857
-26.92926 -27.683229 -19.011282
-31.353497 -39.173161 24.081451
-32.56155 -35.495132 19.4387
-31.983608 -38.639599 19.914385
-32.298904 -38.327686 17.66518
-31.873751 -41.183186 15.821004
-32.563076 -38.006104 15.449482
-35.520538 -17.522486 18.630461
-35.003426 -21.184126 18.679302
-34.383114 -25.014132 18.85804
-34.924133 -24.47003 16.92919
-34.547058 -30.605764 10.756207
-34.319214 -30.903509 12.927932
-33.740959 -33.97316 10.878396
-32.903915 -37.33844 11.091843
-32.976528 -36.975956 8.874529
-32.097927 -39.793953 7.000101
-32.983574 -36.608402 6.775462
-33.770229 -32.265667 1.9798
-32.726215 -35.905838 2.144089
-32.541813 -35.309177 -0.122747
-31.306482 -38.012047 -2.036044
-32.364525 -34.489834 -2.236611
-32.296616 -30.448387 -6.911201
-31.45101 -33.67086 -6.53476
-30.944059 -32.872204 -8.674646
-29.486902 -35.314571 -10.415439
-30.289478 -32.189175 -10.764252
-29.122047 -28.330641 -15.291567
-28.543272 -31.279724 -14.791643
-27.640459 -30.710609 -16.600716
-26.242737 -32.860046 -17.819296
-25.19582 -41.88834 -15.2371
-24.022171 -43.482483 -16.673548
-24.591988 -40.839539 -16.872663
-23.989252 -39.659531 -18.41157
-25.21361 -38.065289 -17.103437
-21.246975 -40.327633 -22.359158
-20.759981 -38.443581 -23.519991
-20.251902 -36.640984 -24.613415
-31.728361 -33.061836 25.321177
-31.757275 -35.869675 23.760973
-32.188328 -32.63118 23.46032
-32.673912 -32.449375 21.348959
-33.130039 -32.09296 19.384472
-36.718754 -16.554165 14.419988
-36.097767 -20.507984 14.453678
-35.405663 -24.292044 14.653295
-35.849663 -23.616879 12.617841
-35.400803 -26.802679 10.74834
-34.771572 -29.964445 8.594901
-33.942795 -33.08746 6.628521
-34.860798 -29.534946 6.429333
-34.825039 -29.214466 4.152539
-34.753521 -28.613926 1.784868
-31.000198 -29.231592 -11.135777
-25.178089 -45.666363 -13.096697
-25.838125 -42.848392 -13.386092
-26.560301 -39.911167 -13.680256
-23.133028 -34.044773 -21.701
-31.673717 -38.829308 22.057241
-31.486727 -41.621368 20.2006
-33.62463 -22.282011 22.766977
-33.797836 -25.277775 20.918295
-33.741425 -28.533949 19.220119
-33.581722 -31.609491 17.370806
-34.716797 -27.750952 14.890108
-33.979107 -31.31171 15.137114
-33.265751 -34.721581 15.271471
-32.764774 -37.678776 13.28133
-32.063736 -40.670712 11.358313
-31.056915 -42.722347 5.16644
-30.931459 -42.103222 2.890738
-32.89856 -36.275684 4.531454
-31.822947 -39.077507 2.585059
-30.667322 -41.731903 0.648234
-30.379299 -41.177322 -1.630559
-29.996037 -40.676765 -3.879376
-29.627003 -39.930859 -6.029637
-34.545635 -28.174789 -0.4421
-33.284954 -31.16584 -2.566248
-31.929861 -34.141918 -4.434387
-30.522121 -36.805908 -6.374519
-29.112274 -39.308964 -8.171144
-28.590982 -38.465965 -10.208059
-28.015779 -37.714199 -12.046179
-27.232885 -37.052235 -14.035019
-29.383194 -31.819136 -12.914937
-27.9125 -34.161083 -14.386786
-26.532913 -36.180721 -15.782736
-25.766338 -35.429729 -17.416981
-24.973495 -34.67635 -18.950575
-23.792509 -36.152569 -20.075718
-23.509621 -46.331577 -16.359138
-22.36241 -43.467953 -19.659748
-22.8202 -40.856026 -19.82066
-23.351236 -38.407879 -19.887129
-22.110842 -34.174309 -22.954329
-20.958303 -34.464405 -24.288746
-19.722134 -34.63665 -25.726259
-18.448402 -34.791843 -27.184626
-17.22798 -34.889217 -28.574413
-32.723702 -24.607007 24.765512
-32.391272 -24.789296 25.716144
-33.042614 -24.456569 23.753158
-32.822322 -26.131335 23.905708
-32.723702 -24.607007 24.765512
-37.038539 -19.166469 9.064233
-37.261892 -17.380465 10.085612
-37.40259 -17.079487 8.900365
-36.787359 -20.836054 8.024569
-36.646661 -21.137033 9.209816
-37.038539 -19.166469 9.064233
-36.459297 -22.575359 6.95352
-36.787359 -20.836054 8.024569
-27.545996 -43.609903 -8.70911
-27.108581 -45.124971 -8.584278
-27.793754 -43.963905 -7.693041
-18.809557 -38.250282 -26.13248
-19.135064 -39.260323 -25.518711
-19.349984 -38.005798 -25.455025
-18.437989 -37.136083 -26.769319
-18.809557 -38.250282 -26.13248
-31.354805 -37.809084 24.881115
-31.199618 -39.25345 25.136479
-35.561655 -19.149784 17.597169
-35.842167 -17.29956 17.562869
-35.883284 -18.926858 16.529577
-32.045396 -30.047552 -7.937156
-32.754539 -28.61289 -7.116844
-32.50332 -28.212055 -8.142799
-21.747649 -39.948499 -21.740671
-21.518161 -41.125763 -21.724824
-22.018835 -40.746629 -21.106336
-31.828446 -30.097598 26.038444
-31.730678 -28.644799 26.857199
-31.999343 -28.332563 25.923656
-31.912736 -31.423599 25.21304
-31.644071 -31.735835 26.146582
-31.828446 -30.097598 26.038444
-25.411257 -46.198879 -12.175402
-24.882019 -47.091259 -12.909713
-24.729331 -32.267185 -20.217667
-24.653716 -33.340643 -19.931258
-24.859542 -30.000225 -20.881959
-25.543681 -28.874469 -20.428782
-31.388991 -43.061745 18.275216
-31.297134 -43.096397 19.339677
-31.578585 -41.586715 19.136139
-31.460908 -42.848566 17.156803
-31.388991 -43.061745 18.275216
-31.630029 -42.531603 13.76659
-31.572444 -42.634487 14.891467
-31.931335 -41.080302 14.696127
-31.636298 -42.388668 12.651569
-31.630029 -42.531603 13.76659
-34.240265 -20.088408 21.635416
-34.590914 -19.971356 20.631811
-33.974921 -22.015165 21.757515
-33.889975 -20.355254 22.644877
-34.240265 -20.088408 21.635416
-31.700758 -41.771782 9.285734
-31.680734 -41.983408 10.408354
-32.083759 -40.459086 10.235693
-31.660137 -41.604971 8.194926
-31.700758 -41.771782 9.285734
-34.971474 -26.421979 -0.636105
-35.095031 -26.58126 0.52668
-33.519749 -29.272442 -3.800338
-33.279932 -29.08383 -4.961241
-33.074599 -30.964796 -3.648686
-33.730104 -29.473486 -2.717899
-33.519749 -29.272442 -3.800338
-24.653716 -33.340643 -19.931258
-24.516075 -34.490541 -19.668851
-25.111136 -33.526452 -19.212982
-24.077846 -45.482294 -15.608988
-23.804427 -46.890246 -15.436457
-24.372653 -46.040963 -14.686307
-23.186959 -43.524681 -18.206326
-23.491138 -44.172089 -17.37446
-23.717992 -42.835076 -17.505414
-22.888112 -42.82781 -18.998514
-22.661257 -44.164823 -18.86756
-23.186959 -43.524681 -18.206326
-22.572609 -33.10301 -22.720228
-22.621935 -34.109541 -22.327665
-23.083702 -33.038242 -22.093563
-20.770532 -33.359028 -24.806166
-21.386975 -33.321207 -24.098799
-20.152447 -33.44515 -25.524922
-20.340218 -34.550528 -25.007503
-20.770532 -33.359028 -24.806166
-18.161284 -33.596806 -27.750345
-18.832438 -33.640123 -26.998214
-17.551073 -33.645493 -28.445238
-17.838191 -34.84053 -27.87952
-18.161284 -33.596806 -27.750345
-32.202493 -26.580769 25.830236
-32.391272 -24.789296 25.716144
-32.300261 -28.033568 25.011482
-31.999343 -28.332563 25.923656
-32.202493 -26.580769 25.830236
-37.431976 -15.591437 11.024933
-37.525753 -13.967256 12.0072
-37.719719 -13.669303 10.904011
-36.102625 -24.239277 5.938667
-36.038809 -24.470537 7.155299
-36.459297 -22.575359 6.95352
-36.093874 -24.053233 4.758119
-35.673386 -25.948411 4.959898
-36.102625 -24.239277 5.938667
-26.482547 -46.192878 -9.46931
-27.108581 -45.124971 -8.584278
-26.252624 -45.751182 -10.427228
-26.482547 -46.192878 -9.46931
-26.617793 -44.332803 -10.546254
-26.009594 -45.313017 -11.373133
-26.252624 -45.751182 -10.427228
-19.477949 -40.290155 -24.886674
-19.980283 -40.034996 -24.207391
-19.477949 -40.290155 -24.886674
-19.135064 -39.260323 -25.518711
-26.244544 -27.733968 -19.920139
-25.543681 -28.874469 -20.428782
-26.228396 -28.823729 -19.519926
-31.18265 -40.670666 24.266044
-31.199618 -39.25345 25.136479
-31.295126 -40.602705 23.18666
-31.18265 -40.670666 24.266044
-35.808168 -15.546449 18.488078
-35.842167 -17.29956 17.562869
-35.447729 -15.854321 19.507084
-35.808168 -15.546449 18.488078
-35.188578 -17.858441 19.573016
-35.447729 -15.854321 19.507084
-34.930021 -19.68926 19.597436
-35.188578 -17.858441 19.573016
-35.261982 -19.353306 18.654882
-34.664319 -21.466222 19.713677
-34.590914 -19.971356 20.631811
-34.930021 -19.68926 19.597436
-32.996119 -28.926147 -6.051279
-32.754539 -28.61289 -7.116844
-32.58043 -30.60607 -5.821162
-33.279932 -29.08383 -4.961241
-32.996119 -28.926147 -6.051279
-21.03702 -41.707428 -22.326138
-21.518161 -41.125763 -21.724824
-20.766025 -40.690893 -22.966342
-21.03702 -41.707428 -22.326138
-20.522528 -39.748867 -23.546759
-20.766025 -40.690893 -22.966342
-21.003478 -39.385607 -22.939574
-20.217736 -38.72971 -24.180624
-19.980283 -40.034996 -24.207391
-20.522528 -39.748867 -23.546759
-28.267646 -26.571063 -17.524526
-28.881287 -26.663657 -16.498356
-31.505203 -33.344006 26.243596
-31.644071 -31.735835 26.146582
-31.542237 -34.753422 25.500978
-31.505203 -33.344006 26.243596
-31.742818 -34.465756 24.541075
-31.556694 -36.157341 24.720876
-31.542237 -34.753422 25.500978
-37.295944 -14.099474 13.11683
-37.525753 -13.967256 12.0072
-37.036316 -14.431862 14.262763
-37.295944 -14.099474 13.11683
-36.978382 -16.221778 13.274055
-36.739965 -14.767401 15.326635
-37.036316 -14.431862 14.262763
-36.441274 -16.815399 15.457633
-36.739965 -14.767401 15.326635
-36.130781 -18.792309 15.474478
-36.441274 -16.815399 15.457633
-36.40826 -18.531075 14.436833
-35.850269 -20.642533 15.508778
-35.883284 -18.926858 16.529577
-36.130781 -18.792309 15.474478
-32.157416 -28.054989 -9.202208
-32.50332 -28.212055 -8.142799
-31.760427 -27.847426 -10.288541
-31.397187 -29.439155 -10.049444
-32.157416 -28.054989 -9.202208
-31.337601 -27.701009 -11.362953
-31.760427 -27.847426 -10.288541
-30.881672 -27.455741 -12.449658
-30.544269 -28.986324 -12.222482
-31.337601 -27.701009 -11.362953
-30.420963 -27.248501 -13.50213
-30.881672 -27.455741 -12.449658
-29.937815 -27.043294 -14.49332
-29.605194 -28.535849 -14.300377
-30.420963 -27.248501 -13.50213
-29.385778 -26.909312 -15.552585
-29.937815 -27.043294 -14.49332
-28.881287 -26.663657 -16.498356
-28.617556 -28.084985 -16.237338
-29.385778 -26.909312 -15.552585
-24.638661 -46.557638 -13.805236
-24.882019 -47.091259 -12.909713
-24.912081 -45.149687 -13.977767
-24.372653 -46.040963 -14.686307
-24.638661 -46.557638 -13.805236
-25.776426 -44.780501 -12.294429
-25.411257 -46.198879 -12.175402
-26.009594 -45.313017 -11.373133
-37.931347 -13.295524 9.727232
-37.719719 -13.669303 10.904011
-38.025124 -11.671343 10.709499
-37.758506 -15.066468 8.715334
-37.931347 -13.295524 9.727232
-37.40259 -17.079487 8.900365
-37.758506 -15.066468 8.715334
-28.47478 -42.784481 -6.716692
-27.793754 -43.963905 -7.693041
-23.595841 -34.174753 -21.044064
-23.158353 -34.791996 -21.417239
-23.621167 -34.921976 -20.760303
-23.671456 -33.101295 -21.330473
-23.595841 -34.174753 -21.044064
-23.083702 -33.038242 -22.093563
-23.671456 -33.101295 -21.330473
-24.868709 -31.061024 -20.494258
-24.729331 -32.267185 -20.217667
-25.388155 -31.170392 -19.751979
-24.868709 -31.061024 -20.494258
-24.859542 -30.000225 -20.881959
-27.675744 -26.493013 -18.438612
-27.521162 -27.761279 -18.097196
-28.267646 -26.571063 -17.524526
-27.02688 -26.484932 -19.380354
-27.675744 -26.493013 -18.438612
-26.244544 -27.733968 -19.920139
-27.02688 -26.484932 -19.380354
-31.555386 -37.521418 23.921212
-31.354805 -37.809084 24.881115
-31.556694 -36.157341 24.720876
-31.455236 -40.430779 22.174554
-31.295126 -40.602705 23.18666
-31.513607 -39.001234 23.069346
-31.361741 -41.826808 21.246234
-31.455236 -40.430779 22.174554
-31.580222 -40.225338 21.12892
-31.239352 -43.158914 20.461836
-31.361741 -41.826808 21.246234
-31.239352 -43.158914 20.461836
-31.297134 -43.096397 19.339677
-31.562562 -42.664127 16.031466
-31.460908 -42.848566 17.156803
-31.772097 -41.367624 16.946341
-31.562562 -42.664127 16.031466
-31.572444 -42.634487 14.891467
-33.514387 -20.871448 23.548145
-33.889975 -20.355254 22.644877
-33.284312 -22.607126 23.68997
-33.514387 -20.871448 23.548145
-33.382933 -24.131455 22.830165
-33.042614 -24.456569 23.753158
-33.284312 -22.607126 23.68997
-31.673706 -42.235315 11.545101
-31.636298 -42.388668 12.651569
-32.026328 -40.824065 12.464781
-31.673706 -42.235315 11.545101
-31.680734 -41.983408 10.408354
-31.657208 -41.378218 7.13844
-31.660137 -41.604971 8.194926
-32.100855 -40.020706 8.056587
-31.136702 -42.842415 6.22161
-31.657208 -41.378218 7.13844
-31.577421 -41.25815 6.08327
-30.611075 -44.242403 5.219321
-31.136702 -42.842415 6.22161
-30.536376 -43.953613 4.145253
-30.611075 -44.242403 5.219321
-30.473648 -43.644051 3.007402
-30.536376 -43.953613 4.145253
-30.994187 -42.412785 4.028589
-30.298534 -43.562643 1.892147
-30.473648 -43.644051 3.007402
-30.166466 -43.376984 0.770895
-30.298534 -43.562643 1.892147
-30.799391 -41.917563 1.769486
-30.058026 -42.985342 -0.354622
-30.166466 -43.376984 0.770895
-29.914015 -42.708051 -1.494019
-30.058026 -42.985342 -0.354622
-30.523311 -41.454612 -0.491163
-29.751143 -42.40707 -2.584517
-29.914015 -42.708051 -1.494019
-29.559513 -42.156791 -3.708926
-29.751143 -42.40707 -2.584517
-30.187668 -40.927043 -2.754968
-29.357214 -41.898445 -4.747444
-29.559513 -42.156791 -3.708926
-29.172697 -41.525492 -5.822574
-29.357214 -41.898445 -4.747444
-29.81152 -40.303812 -4.954506
-28.929086 -41.189848 -6.923755
-28.47478 -42.784481 -6.716692
-29.172697 -41.525492 -5.822574
-36.110479 -23.792456 3.650976
-36.093874 -24.053233 4.758119
-35.654531 -25.37505 2.637405
-36.110479 -23.792456 3.650976
-35.198974 -26.800829 1.640163
-35.209078 -27.188147 2.782109
-35.654531 -25.37505 2.637405
-34.649578 -28.394357 0.671384
-35.198974 -26.800829 1.640163
-35.095031 -26.58126 0.52668
-34.360445 -27.977961 -1.655825
-34.971474 -26.421979 -0.636105
-33.915295 -29.670314 -1.504174
-34.360445 -27.977961 -1.655825
-33.730104 -29.473486 -2.717899
-23.925582 -35.228651 -20.231423
-24.383002 -35.414459 -19.513146
-24.516075 -34.490541 -19.668851
-23.621167 -34.921976 -20.760303
-23.488093 -35.845894 -20.604598
-23.925582 -35.228651 -20.231423
-23.282219 -47.809326 -16.185399
-23.804427 -46.890246 -15.436457
-23.053615 -47.01721 -17.019772
-22.826214 -48.494959 -16.846032
-23.282219 -47.809326 -16.185399
-23.234862 -45.596636 -17.217256
-23.765896 -44.90703 -16.516343
-23.491138 -44.172089 -17.37446
-23.053615 -47.01721 -17.019772
-23.234862 -45.596636 -17.217256
-22.193894 -44.862385 -19.497652
-22.661257 -44.164823 -18.86756
-21.888548 -44.038943 -20.297064
-22.193894 -44.862385 -19.497652
-22.075879 -42.695923 -20.375119
-21.888548 -44.038943 -20.297064
-22.304773 -41.38996 -20.455575
-22.075879 -42.695923 -20.375119
-22.591305 -42.16199 -19.740204
-22.534261 -40.212696 -20.471421
-22.018835 -40.746629 -21.106336
-22.304773 -41.38996 -20.455575
-21.963245 -33.176159 -23.43159
-22.572609 -33.10301 -22.720228
-21.534573 -34.319357 -23.621538
-21.963245 -33.176159 -23.43159
-21.386975 -33.321207 -24.098799
-19.469304 -33.562527 -26.26903
-20.152447 -33.44515 -25.524922
-19.085268 -34.714247 -26.455443
-19.469304 -33.562527 -26.26903
-18.832438 -33.640123 -26.998214
-18.149951 -36.034126 -27.327235
-18.437989 -37.136083 -26.769319
-18.73644 -35.8938 -26.62671
-17.53974 -36.082813 -28.022128
-18.149951 -36.034126 -27.327235
-17.838191 -34.84053 -27.87952
-16.960458 -36.190462 -28.722087
-17.53974 -36.082813 -28.022128
-16.845819 -33.725381 -29.195417
-17.551073 -33.645493 -28.445238
-17.168912 -32.481657 -29.066243
-16.576815 -34.90658 -29.316843
-16.845819 -33.725381 -29.195417
-16.309293 -36.207825 -29.464517
-16.960458 -36.190462 -28.722087
-16.576815 -34.90658 -29.316843
3 0 41 39
3 159 42 160
3 161 44 162
3 163 162 42
3 161 162 163
3 164 47 165
3 166 165 45
3 164 165 166
3 167 49 168
3 169 168 47
3 167 168 169
3 171 170 49
3 1 172 174
3 172 51 173
3 172 173 174
3 1 53 51
3 2 175 177
3 177 176 54
3 175 176 177
3 2 178 179
3 3 57 55
3 180 58 181
3 4 61 59
3 4 63 61
3 5 182 184
3 182 64 183
3 182 183 184
3 5 65 64
3 5 67 65
3 6 70 68
3 6 72 70
3 6 74 72
3 7 77 75
3 7 79 77
3 8 185 187
3 185 80 186
3 185 186 187
3 8 82 80
3 8 84 82
3 3 87 85
3 3 55 87
3 9 91 89
3 9 93 91
3 10 188 190
3 188 94 189
3 188 189 190
3 11 95 40
3 11 96 95
3 12 191 193
3 191 192 193
3 12 194 196
3 194 97 195
3 194 195 196
3 12 99 97
3 14 100 43
3 14 101 100
3 15 102 46
3 15 103 102
3 15 105 103
3 17 106 48
3 17 107 106
3 17 109 107
3 19 110 50
3 19 111 110
3 197 113 198
3 22 114 52
3 22 115 114
3 23 199 200
3 202 201 56
3 13 117 98
3 24 118 60
3 24 203 205
3 205 204 118
3 203 204 205
3 24 206 207
3 25 208 210
3 210 209 62
3 208 209 210
3 25 211 212
3 26 213 214
3 26 215 217
3 215 119 216
3 215 216 217
3 26 120 119
3 27 121 66
3 27 122 121
3 16 123 104
3 28 124 69
3 28 125 124
3 28 126 125
3 29 127 71
3 29 218 220
3 220 219 127
3 218 219 220
3 29 221 222
3 30 128 73
3 30 129 128
3 18 130 108
3 31 131 76
3 31 132 131
3 31 133 132
3 32 134 78
3 32 135 134
3 223 136 224
3 33 225 226
3 33 227 229
3 227 137 228
3 227 228 229
3 33 138 137
3 34 139 81
3 34 140 139
3 34 141 140
3 35 142 83
3 35 143 142
3 20 144 112
3 36 145 86
3 36 146 145
3 36 147 146
3 23 148 88
3 23 230 232
3 232 231 148
3 230 231 232
3 21 233 235
3 233 150 234
3 233 234 235
3 38 236 238
3 238 237 90
3 236 237 238
3 38 239 241
3 239 151 240
3 239 240 241
3 38 152 151
3 37 153 92
3 37 149 153
3 242 154 243
3 244 243 116
3 242 243 244
3 245 155 246
3 247 156 248
3 249 248 155
3 247 248 249
3 250 157 251
3 252 158 253
3 254 253 157
3 252 253 254
3 39 40 10
3 41 40 39
3 41 11 40
3 42 255 256
3 42 257 259
3 257 12 258
3 257 258 259
3 42 43 12
3 44 43 42
3 44 14 43
3 45 260 262
3 260 46 261
3 260 261 262
3 47 46 45
3 47 15 46
3 47 48 15
3 49 48 47
3 49 17 48
3 49 50 17
3 263 50 264
3 265 264 49
3 263 264 265
3 266 19 267
3 268 267 50
3 266 267 268
3 51 269 270
3 51 271 272
3 51 273 275
3 273 52 274
3 273 274 275
3 53 52 51
3 53 22 52
3 54 276 277
3 279 278 54
3 55 56 23
3 57 56 55
3 57 280 282
3 282 281 56
3 280 281 282
3 58 283 284
3 58 285 286
3 59 60 13
3 61 60 59
3 61 24 60
3 61 62 24
3 63 62 61
3 63 25 62
3 64 287 288
3 64 289 290
3 64 291 292
3 65 293 295
3 295 294 64
3 293 294 295
3 65 296 298
3 296 26 297
3 296 297 298
3 65 66 26
3 67 66 65
3 67 27 66
3 68 69 16
3 70 69 68
3 70 28 69
3 70 71 28
3 72 71 70
3 72 29 71
3 72 73 29
3 74 73 72
3 74 30 73
3 75 76 18
3 77 76 75
3 77 31 76
3 77 78 31
3 79 78 77
3 79 32 78
3 80 299 300
3 80 301 303
3 301 33 302
3 301 302 303
3 80 81 33
3 82 81 80
3 82 34 81
3 82 83 34
3 84 83 82
3 84 35 83
3 85 86 20
3 87 86 85
3 87 36 86
3 87 88 36
3 55 88 87
3 55 23 88
3 89 90 21
3 91 90 89
3 91 38 90
3 91 92 38
3 93 92 91
3 93 37 92
3 94 304 305
3 94 306 307
3 40 94 10
3 95 94 40
3 95 308 310
3 310 309 94
3 308 309 310
3 95 311 313
3 311 54 312
3 311 312 313
3 96 54 95
3 96 2 54
3 315 314 3
3 97 316 317
3 97 318 319
3 97 320 322
3 320 98 321
3 320 321 322
3 99 98 97
3 99 13 98
3 43 99 12
3 100 99 43
3 100 13 99
3 100 59 13
3 101 59 100
3 101 4 59
3 46 323 324
3 102 325 327
3 327 326 46
3 325 326 327
3 102 328 329
3 102 330 331
3 103 332 334
3 334 333 102
3 332 333 334
3 103 335 337
3 335 5 336
3 335 336 337
3 103 104 5
3 105 104 103
3 105 16 104
3 48 105 15
3 106 105 48
3 106 16 105
3 106 68 16
3 107 68 106
3 107 6 68
3 107 108 6
3 109 108 107
3 109 18 108
3 50 109 17
3 110 109 50
3 110 18 109
3 110 75 18
3 111 75 110
3 111 7 75
3 338 8 339
3 340 112 341
3 342 341 8
3 340 341 342
3 343 112 344
3 345 20 346
3 347 346 112
3 345 346 347
3 348 20 349
3 350 85 351
3 352 351 20
3 350 351 352
3 353 85 354
3 355 3 356
3 357 356 85
3 355 356 357
3 113 358 359
3 113 360 362
3 360 21 361
3 360 361 362
3 52 363 365
3 363 113 364
3 363 364 365
3 114 113 52
3 114 21 113
3 114 89 21
3 115 89 114
3 115 9 89
3 366 45 367
3 366 367 368
3 369 45 370
3 372 371 45
3 373 1 374
3 375 116 376
3 377 376 0
3 375 376 377
3 378 116 379
3 381 380 116
3 56 382 384
3 384 383 23
3 382 383 384
3 386 385 56
3 387 57 388
3 389 388 3
3 387 388 389
3 390 57 391
3 393 392 57
3 98 394 396
3 394 58 395
3 394 395 396
3 117 58 98
3 117 397 399
3 399 398 58
3 397 398 399
3 60 117 13
3 118 117 60
3 118 400 402
3 402 401 117
3 400 401 402
3 118 403 404
3 406 405 118
3 62 407 409
3 409 408 24
3 407 408 409
3 411 410 62
3 119 412 413
3 119 414 415
3 119 416 418
3 416 44 417
3 416 417 418
3 120 44 119
3 120 14 44
3 66 120 26
3 121 120 66
3 121 14 120
3 121 101 14
3 122 101 121
3 122 4 101
3 104 67 5
3 123 67 104
3 123 27 67
3 69 123 16
3 124 123 69
3 124 27 123
3 124 122 27
3 125 122 124
3 125 4 122
3 125 63 4
3 126 63 125
3 126 25 63
3 71 126 28
3 127 126 71
3 127 25 126
3 127 419 421
3 421 420 25
3 419 420 421
3 423 422 127
3 73 424 426
3 426 425 29
3 424 425 426
3 128 427 429
3 429 428 73
3 427 428 429
3 128 430 431
3 128 432 433
3 129 434 436
3 436 435 128
3 434 435 436
3 129 437 438
3 108 74 6
3 130 74 108
3 130 30 74
3 76 130 18
3 131 130 76
3 131 30 130
3 131 129 30
3 132 129 131
3 132 439 441
3 441 440 129
3 439 440 441
3 132 442 443
3 133 444 446
3 446 445 132
3 444 445 446
3 133 447 448
3 78 133 31
3 134 133 78
3 134 449 451
3 451 450 133
3 449 450 451
3 134 452 453
3 135 454 456
3 456 455 134
3 454 455 456
3 135 457 459
3 457 1 458
3 457 458 459
3 460 19 461
3 462 19 463
3 464 111 465
3 466 465 19
3 464 465 466
3 136 467 469
3 467 111 468
3 467 468 469
3 136 7 111
3 470 136 471
3 137 472 474
3 472 136 473
3 472 473 474
3 137 7 136
3 137 79 7
3 138 79 137
3 138 32 79
3 81 138 33
3 139 138 81
3 139 32 138
3 139 135 32
3 140 135 139
3 140 1 135
3 140 53 1
3 141 53 140
3 141 22 53
3 83 141 34
3 142 141 83
3 142 22 141
3 142 115 22
3 143 115 142
3 143 9 115
3 112 84 8
3 144 84 112
3 144 35 84
3 86 144 20
3 145 144 86
3 145 35 144
3 145 143 35
3 146 143 145
3 146 9 143
3 146 93 9
3 147 93 146
3 147 37 93
3 88 147 36
3 148 147 88
3 148 37 147
3 148 149 37
3 475 149 476
3 477 476 148
3 475 476 477
3 478 0 479
3 480 479 149
3 478 479 480
3 150 481 482
3 150 483 485
3 483 484 485
3 90 150 21
3 486 150 487
3 488 487 90
3 486 487 488
3 490 489 150
3 151 491 492
3 151 493 494
3 151 495 496
3 152 497 499
3 499 498 151
3 497 498 499
3 152 500 502
3 500 10 501
3 500 501 502
3 92 152 38
3 153 152 92
3 153 10 152
3 153 39 10
3 149 39 153
3 149 0 39
3 116 41 0
3 154 41 116
3 154 11 41
3 503 154 504
3 155 505 507
3 505 154 506
3 505 506 507
3 155 11 154
3 155 96 11
3 156 96 155
3 156 2 96
3 508 156 509
3 157 510 512
3 510 156 511
3 510 511 512
3 157 2 156
3 157 513 515
3 515 514 2
3 513 514 515
3 158 516 518
3 518 517 157
3 516 517 518
3 158 519 520
3 521 158 522
3 521 522 523
3 524 158 525
3 528 527 158
3 526 527 528
