ply
format ascii 1.0
element vertex 797
property float x
property float y
property float z
element face 1030
property list uchar int vertex_index
end_header
-10.263027 -107.35881 -15.650969
23.715256 -72.367905 -15.474648
8.292495 -95.001648 -18.426027
18.294693 -79.099602 -34.138062
-3.994784 -100.154594 -32.628738
-19.253696 -99.389374 3.303454
-1.581392 -95.756882 0.864174
-1.601586 -103.52253 -18.072569
2.895946 -99.579781 -27.007856
-7.999218 -106.1147 -24.059803
12.78373 -78.711784 -40.601032
16.919661 -84.011948 -17.351959
22.104193 -76.273903 -25.493099
13.188255 -88.939308 -26.858818
7.685016 -91.253311 -34.549564
0.806557 -89.541084 -39.143723
-15.463054 -105.253357 -7.340064
-17.109613 -106.913513 -17.189896
-10.867319 -99.412415 2.218378
-6.291302 -103.33226 -8.486573
3.267058 -97.277924 -8.975891
-15.242822 -103.856842 -26.901981
-11.188544 -96.053123 -34.735035
-5.499354 -83.653511 -40.273411
-6.48677 -106.161041 -16.973696
-4.52854 -105.352951 -21.354959
-9.56528 -107.296761 -19.466766
26.161314 -68.709404 -19.651012
9.357569 -77.631927 -42.586498
15.070443 -71.774887 -43.054119
12.886164 -89.596436 -17.975365
15.469126 -86.381912 -22.243086
10.76591 -92.408165 -22.767445
-0.556996 -100.59864 -30.105888
5.265937 -95.991028 -30.92898
2.029612 -96.182678 -33.988892
4.512986 -90.748016 -37.336998
-1.716709 -95.515541 -36.084259
-17.526117 -102.651947 -2.017383
-16.802374 -96.689102 8.392347
-12.845732 -96.710205 7.519037
-15.257839 -99.994003 2.843173
-13.256799 -102.783119 -2.590271
2.868836 -92.875671 0.793316
5.314561 -93.41188 -3.950365
0.770129 -97.083694 -4.3232
-1.37715 -100.678131 -8.907367
-3.908505 -99.850021 -3.992502
-16.596136 -105.98851 -22.054403
-8.352298 -90.145943 -37.872581
20.525904 -77.855659 -29.94315
24.612293 -71.583359 -29.260714
23.051771 -72.491745 -33.439953
3.377088 -99.730598 -18.349476
5.921105 -97.601181 -22.914206
0.516593 -102.174438 -22.608046
-2.624996 -103.544037 -25.871708
-6.163639 -103.758568 -28.577759
15.724746 -79.268028 -37.808018
20.89072 -72.819649 -37.405621
18.223669 -72.564224 -40.608006
20.627153 -78.05249 -16.474716
22.983088 -74.669159 -20.450842
19.525682 -80.417 -21.332428
17.835657 -82.692017 -26.305971
15.772902 -84.417488 -30.613451
8.306421 -94.541962 -27.213413
10.871836 -90.258865 -31.135477
13.322678 -85.230133 -34.579205
10.132023 -85.451828 -37.821529
6.89822 -84.636185 -40.117569
3.606487 -82.558197 -41.735592
-12.734025 -106.810249 -11.964457
-13.454274 -107.674767 -16.489532
-16.800638 -106.678642 -12.253839
-20.550327 -105.068741 -12.124619
-3.996443 -93.810524 6.179995
-8.451479 -95.627571 6.768939
-6.112347 -97.951721 1.358117
-8.719423 -101.740929 -3.17672
-10.917928 -104.792297 -7.721639
-8.58135 -105.929985 -12.431474
18.128838 -81.177673 -12.073897
14.503583 -86.599838 -12.908927
10.462972 -91.773712 -13.742796
7.775513 -93.183891 -8.855747
5.772447 -96.685654 -13.911062
1.010076 -100.666069 -13.64746
-4.006949 -103.959503 -13.26213
-13.02667 -107.273857 -20.950775
-11.748682 -105.712845 -25.693869
-9.976473 -102.927406 -30.092598
-13.471564 -100.640549 -31.046885
-7.836256 -98.723083 -34.104084
-5.168711 -93.353653 -37.443703
-2.693183 -87.076126 -40.075092
0.3017 -79.968269 -42.357159
25.678474 -70.236252 -24.562843
-8.635518 -106.941956 -16.234592
-7.939332 -106.874275 -18.320955
-9.903821 -107.422165 -17.374952
25.020105 -70.415031 -17.520441
7.825049 -76.527367 -43.333401
10.56821 -73.654907 -43.818645
10.646975 -92.361099 -18.324572
11.883144 -91.046211 -20.493414
9.529012 -93.822456 -20.630737
-2.098216 -100.443253 -31.494364
0.769692 -98.500671 -32.126293
-1.024418 -98.240608 -33.535889
0.151477 -95.997238 -35.158592
-2.934948 -97.952858 -34.454288
-18.421757 -101.107574 0.619922
-19.554323 -102.063538 -1.80112
-18.068645 -98.076263 5.959574
-16.107285 -98.432518 5.547693
-17.366598 -99.895325 3.032289
-16.463102 -101.422974 0.432492
0.672978 -94.439499 0.683679
1.904275 -94.990768 -1.831446
-0.435586 -96.52034 -1.715357
-1.482029 -98.484116 -4.131856
-2.739499 -97.902901 -1.651915
19.440319 -78.63829 -32.049412
21.697147 -75.344818 -31.857836
20.720789 -75.858078 -33.741543
0.939102 -101.700386 -18.149654
2.154998 -100.947998 -20.540892
-0.391738 -102.86908 -20.286495
-6.284165 -105.927917 -22.733286
-3.691148 -104.629753 -23.665916
-5.435851 -105.055321 -25.057549
-4.364612 -103.812363 -27.320108
-7.093002 -105.059891 -26.420361
14.104653 -79.459236 -39.193298
16.965193 -76.102577 -39.1703
15.561638 -75.856743 -40.522499
17.833305 -68.504852 -43.249786
18.801405 -81.066231 -16.817284
20.007652 -79.436417 -18.852571
18.137707 -82.432999 -19.538263
14.483176 -87.60083 -24.546782
16.667393 -84.593636 -24.408291
15.558591 -85.850563 -26.61834
16.838875 -83.615372 -28.649744
14.468409 -86.810509 -28.714935
4.359415 -98.81958 -24.975027
7.089041 -96.220184 -25.136724
5.541693 -97.26049 -27.214584
6.521762 -93.746422 -32.741646
8.11679 -93.189224 -31.173687
9.300132 -90.912971 -32.936089
12.129522 -87.799576 -32.93549
10.453364 -88.401299 -34.656628
11.803939 -85.410103 -36.327053
9.039617 -88.33802 -36.24369
2.727443 -90.306801 -38.323914
5.579441 -87.873817 -38.782013
3.891831 -87.215935 -39.702625
5.044264 -83.893776 -41.000378
2.222043 -86.176353 -40.477154
-14.145479 -106.134781 -9.6619
-14.842307 -106.869232 -11.964613
-16.202679 -106.099281 -9.740787
-19.993996 -104.929665 -9.650033
-11.87146 -98.086983 4.893762
-10.654531 -96.356224 7.003964
-9.472711 -97.581863 4.381485
-7.274163 -96.853302 4.039747
-8.460331 -98.782593 1.766624
-7.394283 -99.845047 -0.815919
-9.812329 -100.638283 -0.472933
-14.474858 -104.165871 -4.983667
-12.266256 -103.99295 -5.330165
-13.146132 -105.186577 -7.548164
-12.050659 -105.940605 -9.810567
12.434216 -89.34037 -13.309693
11.238386 -90.161766 -10.948423
4.467087 -95.32592 -6.654036
6.599729 -93.380867 -6.45061
5.656413 -95.26152 -9.079709
6.910342 -94.897903 -11.462662
4.559561 -97.074951 -11.46461
3.534567 -98.731262 -14.05277
2.24718 -99.004364 -11.44257
-3.753938 -102.087128 -8.748746
-2.732686 -102.492996 -11.256813
-5.124846 -103.685898 -10.723489
-6.364041 -105.037994 -12.671062
-7.542655 -104.756729 -10.43964
-15.264047 -107.450958 -16.779325
-13.257844 -107.615868 -18.689604
-15.225049 -107.237526 -19.235786
-14.173397 -106.05304 -24.002806
-13.527843 -105.004967 -26.296234
-10.993966 -104.483002 -27.927553
-12.667231 -103.631111 -28.562494
-14.909193 -98.852348 -31.448956
-12.269703 -98.48996 -33.029701
-10.705009 -99.925659 -32.658581
-9.45142 -97.592186 -34.514778
-6.650359 -96.111801 -35.8843
-8.219408 -94.853714 -36.219997
-6.952853 -86.832916 -39.161133
-5.657486 -88.808006 -39.017509
-4.154255 -85.475685 -40.250534
-1.296234 -83.68222 -41.225262
-2.658607 -81.706894 -41.42662
22.632225 -75.46788 -23.09421
24.386555 -72.422211 -22.435818
23.962822 -73.224174 -24.981594
26.019854 -68.759766 -30.991749
26.555178 -68.389397 -28.781849
22.131191 -69.608421 -38.824654
23.457764 -69.416603 -37.023201
-4.159854 -105.022659 -17.437407
-3.117465 -104.619347 -19.760271
-5.523981 -105.886215 -19.109644
-7.121213 -106.52478 -20.450453
-8.711135 -106.826279 -21.724455
11.077769 -78.214661 -41.728046
13.952519 -75.369492 -41.808002
12.319004 -74.536743 -42.935032
13.432566 -70.904671 -44.077538
15.035872 -86.747894 -17.827045
16.166517 -85.351723 -19.893585
14.026328 -88.300919 -20.200834
13.125701 -89.50116 -22.596809
12.013547 -90.744431 -24.850052
1.196796 -100.261002 -28.593063
4.071251 -97.892723 -29.076189
2.433947 -98.389008 -30.634794
3.778657 -96.143097 -32.574429
4.991765 -93.745819 -34.360817
6.14607 -91.091774 -36.075085
3.181181 -93.634148 -35.740452
1.45285 -93.247208 -36.819839
-0.341046 -92.568459 -37.713924
-16.549519 -104.078293 -4.751107
-17.518013 -105.001137 -7.204816
-18.676989 -103.572578 -4.404124
-15.542757 -95.071686 10.860429
-13.513172 -95.046448 10.359493
-14.845695 -96.744392 8.110745
-14.101925 -98.349197 5.331278
-13.101516 -99.784233 2.631133
-12.150612 -101.201057 -0.17686
-14.404581 -101.38829 0.272241
-15.442706 -102.791069 -2.124578
4.142495 -93.225838 -1.630421
3.110531 -95.333687 -4.273074
2.128168 -97.168877 -6.583265
0.967411 -99.038475 -8.906091
-0.193065 -98.847855 -6.584625
-2.720372 -100.418465 -6.468906
-5.136182 -101.659645 -6.212933
-18.988314 -106.001976 -17.321175
-17.102037 -106.518867 -19.665842
-9.648604 -93.262138 -36.436401
-11.138363 -91.284439 -36.456924
-8.301153 -85.091637 -39.007317
21.216982 -77.353386 -27.787317
23.293398 -74.115013 -27.414692
22.627337 -74.680618 -29.676561
23.922586 -72.077438 -31.328295
25.260424 -69.219391 -33.002384
5.774169 -97.567749 -18.554779
7.087677 -96.446419 -20.795265
4.621442 -98.829239 -20.688709
3.297669 -99.982513 -22.728134
1.841033 -100.927475 -24.729956
-2.01924 -103.911514 -22.00956
-0.863168 -102.902557 -24.286896
0.146125 -101.725487 -26.477427
-1.566878 -102.197945 -28.03455
-3.445295 -102.405518 -29.3799
-5.112317 -102.052383 -30.738428
-19.781507 -97.453331 6.274178
-17.518616 -94.960518 11.064866
-18.745066 -96.209717 8.792126
-0.610599 -93.619659 3.416801
17.074371 -79.283714 -36.062885
19.596809 -76.135895 -35.698902
18.401325 -76.066238 -37.588867
19.596748 -72.76506 -39.125645
20.896448 -69.208794 -40.546619
16.507362 -72.452957 -41.924126
19.383648 -68.94989 -42.006378
22.145823 -75.288582 -15.709308
23.433336 -73.456734 -17.896551
21.846567 -76.330986 -18.426727
21.317543 -77.527519 -20.962931
20.743635 -78.544395 -23.349962
17.518753 -83.462769 -21.999548
18.837978 -81.465019 -23.847012
20.022552 -79.515762 -25.745384
19.11277 -80.487709 -28.066036
18.222921 -81.14093 -30.273985
17.057547 -81.844757 -32.392143
8.511967 -94.953316 -22.899157
9.622242 -93.551872 -24.947657
10.818671 -91.791481 -27.064262
6.980443 -95.209457 -29.249887
9.643164 -92.457283 -29.252613
12.091396 -89.700005 -29.071993
13.408051 -87.339493 -30.926413
14.644856 -84.907761 -32.638752
15.774158 -82.30912 -34.406845
14.483971 -82.356888 -36.290154
12.903685 -82.582596 -37.805027
11.377005 -82.268143 -39.248398
7.327876 -88.186249 -37.662674
8.536249 -85.162987 -39.0653
9.775888 -81.722946 -40.488293
8.013296 -81.259827 -41.411434
6.502487 -80.271851 -42.19986
4.861599 -78.962578 -42.846264
-11.415367 -107.23304 -14.056744
-11.701962 -107.611481 -15.990908
-13.240942 -107.420364 -14.217925
-15.140982 -107.328667 -14.343625
-17.056746 -106.950256 -14.702065
-18.136919 -105.722435 -9.793922
-18.689947 -106.093132 -12.332602
-18.928188 -106.19976 -14.818298
-20.645876 -105.116898 -14.834582
-1.724772 -92.642212 6.009581
-2.82992 -94.906624 3.459706
-11.496668 -94.854721 9.753918
-9.409108 -94.215248 9.506427
-7.189454 -93.464218 9.126081
-6.289961 -94.828957 6.445815
-4.997177 -95.910843 3.746554
-3.929815 -97.061111 0.947416
-4.987892 -98.976883 -1.352737
-6.378362 -100.828903 -3.414489
-7.395277 -102.61895 -5.918517
-10.999816 -102.451408 -2.995399
-9.843297 -103.422607 -5.57332
-8.711285 -104.226517 -8.096743
-9.772772 -105.48188 -10.130676
-10.686825 -106.50383 -12.158291
-9.515414 -106.814301 -14.224338
20.881016 -77.025154 -13.659873
19.332655 -79.730499 -14.191824
17.603743 -82.57151 -14.824482
16.406734 -83.83918 -12.380869
15.737069 -85.343613 -15.03654
13.793812 -88.065125 -15.511607
11.737912 -90.721001 -15.921367
9.45041 -93.414322 -16.171442
7.606184 -91.434532 -3.979192
9.941121 -90.888733 -8.619164
9.139917 -92.579643 -11.287433
8.192605 -94.243851 -13.736418
7.059344 -95.934555 -16.166784
4.609113 -98.293709 -16.255331
2.190173 -100.341087 -16.080294
-0.219313 -102.160339 -15.879264
-0.290234 -100.891022 -11.357056
-1.577128 -102.527824 -13.608433
-2.615663 -103.763756 -15.685635
-5.199602 -105.168625 -15.191465
-7.478367 -106.143761 -14.640574
-11.54293 -107.660278 -18.011049
-11.19253 -107.419182 -20.299614
-10.467072 -106.877647 -22.657333
-14.798903 -106.793159 -21.595253
-12.402703 -106.657364 -23.318142
-9.912181 -106.062042 -25.004375
-9.086477 -104.9655 -27.226645
-8.035471 -103.541542 -29.374722
-7.0357 -101.695168 -31.538155
-17.04343 -102.426788 -27.111557
-16.050364 -100.797462 -29.362593
-14.420262 -102.347008 -29.082808
-11.603975 -101.896851 -30.764645
-8.757571 -100.961372 -32.225353
-5.897875 -99.527397 -33.542747
-4.955614 -97.321602 -35.205559
-3.487387 -94.58609 -36.87735
-2.341425 -91.684776 -38.349003
-6.770678 -91.832916 -37.78109
-3.845523 -90.157288 -38.8969
-0.859504 -88.477234 -39.712769
0.460217 -85.037506 -40.968174
1.809579 -81.559692 -42.088547
3.09022 -77.789627 -43.170517
-4.047167 -80.028595 -41.348423
-1.057669 -78.030159 -42.496735
24.622719 -71.674568 -19.925697
25.909058 -69.628242 -22.112616
25.2113 -70.961082 -26.980335
26.960142 -67.912994 -26.504644
21.942652 -72.878937 -35.506855
24.333321 -69.57679 -35.00774
24.36768 -71.391468 -16.497545
25.069199 -69.962986 -16.25325
24.416775 -70.939423 -15.230353
8.431723 -74.529931 -43.901495
6.962998 -75.905262 -43.607083
-19.748536 -99.904873 2.066619
-19.332566 -100.763973 0.724853
-18.837727 -100.248474 1.961688
11.691492 -89.245773 -9.640776
12.305536 -88.854763 -10.872163
-14.385333 -104.430904 -26.599107
-14.778846 -105.063698 -25.358389
-15.636335 -104.489635 -25.661262
-11.729124 -97.271541 -33.882368
-13.004611 -97.549774 -33.163857
-12.464032 -96.331356 -34.016524
26.9767 -67.163944 -30.800463
26.665282 -67.365834 -31.817289
23.416033 -67.851135 -38.708481
22.741127 -67.937511 -39.516256
26.873444 -67.222756 -19.453244
26.261421 -68.191864 -18.437205
26.836796 -67.58585 -20.636585
26.873444 -67.222756 -19.453244
12.753113 -70.224403 -44.51557
12.000388 -72.279789 -43.948091
11.320935 -71.599521 -44.386123
14.094356 -68.95805 -44.637457
12.753113 -70.224403 -44.51557
-19.999766 -102.494511 -3.136941
-20.379769 -101.664272 -1.784575
3.505666 -93.050754 -0.418552
4.616453 -92.227272 -0.403471
3.979623 -92.052188 0.808397
-18.931618 -105.750972 -18.575787
-19.845633 -105.374481 -17.3547
-12.509483 -91.790173 -35.606358
-11.809675 -92.683739 -35.709084
-9.555521 -85.613381 -38.348557
-8.959459 -86.708652 -38.424274
-20.55984 -97.046398 6.296968
-20.093615 -96.459015 7.661736
-17.86422 -94.039829 12.426311
-16.910525 -94.167644 12.306174
-19.575394 -95.837208 8.92071
-19.039417 -95.274887 10.138593
-20.093615 -96.459015 7.661736
-19.263286 -96.831524 7.533152
-19.575394 -95.837208 8.92071
-0.143596 -92.537731 4.683116
0.516709 -92.930763 3.372847
20.02328 -67.079208 -42.637375
18.608477 -68.727371 -42.628082
19.248109 -66.85669 -43.259079
20.752783 -67.281616 -41.956423
20.02328 -67.079208 -42.637375
-18.747909 -105.069607 -8.421958
-17.827466 -105.361786 -8.499369
-18.438457 -104.708958 -7.127405
-2.860607 -93.226368 6.094788
-2.32885 -92.163978 7.241818
-3.464685 -92.748134 7.327025
21.071327 -76.361107 -12.352582
21.698484 -75.514652 -13.444714
18.730746 -80.454086 -13.13286
19.539008 -79.073101 -12.813417
18.937099 -79.796688 -11.754454
15.455158 -85.219509 -12.644898
15.835335 -84.377667 -11.294123
14.88376 -85.757995 -11.558152
6.460373 -92.423206 -3.964778
6.98917 -91.422924 -2.771006
5.843358 -92.411598 -2.756593
8.241155 -92.278511 -7.632452
7.653263 -92.376999 -6.429883
7.187621 -93.282379 -7.653178
8.858317 -92.036312 -8.737455
9.32396 -91.130932 -7.51416
8.241155 -92.278511 -7.632452
-17.776848 -101.603466 -27.162732
-18.159405 -102.336399 -26.017572
-18.892823 -101.513077 -26.068748
-3.264678 -78.096153 -41.88122
-4.580005 -78.801377 -41.33115
-1.769929 -77.096936 -42.455376
-2.552418 -79.029377 -41.922579
-3.264678 -78.096153 -41.88122
26.503804 -68.703907 -24.321949
26.619096 -68.399902 -23.096835
25.793766 -69.932247 -23.33773
27.670698 -66.537017 -27.485684
26.75766 -68.151196 -27.643247
27.468216 -66.775219 -28.624287
27.799974 -66.346348 -26.344958
27.670698 -66.537017 -27.485684
25.00448 -67.945412 -35.824179
23.895543 -69.496696 -36.01547
24.566701 -67.865319 -36.831909
25.422821 -67.940159 -34.835289
25.00448 -67.945412 -35.824179
25.690817 -69.044678 -17.37192
25.069199 -69.962986 -16.25325
25.59071 -69.562218 -18.585726
26.261421 -68.191864 -18.437205
25.690817 -69.044678 -17.37192
9.803304 -73.0937 -44.144117
9.19663 -75.091137 -43.576023
8.431723 -74.529931 -43.901495
11.320935 -71.599521 -44.386123
9.803304 -73.0937 -44.144117
-19.89885 -101.241955 -0.485669
-18.98804 -101.585556 -0.590599
-19.332566 -100.763973 0.724853
-20.379769 -101.664272 -1.784575
-19.89885 -101.241955 -0.485669
17.055185 -68.205204 -43.769393
16.451874 -70.13987 -43.151953
15.673754 -69.840222 -43.67156
18.510889 -66.536083 -43.856361
17.055185 -68.205204 -43.769393
19.248109 -66.85669 -43.259079
18.510889 -66.536083 -43.856361
-20.590169 -104.17838 -8.290593
-19.676448 -104.673222 -8.350013
-20.839738 -104.366684 -9.630373
-20.590169 -104.17838 -8.290593
-21.117903 -104.436222 -10.867665
-20.272161 -104.999203 -10.887326
-20.839738 -104.366684 -9.630373
-21.291791 -104.481735 -12.296365
-21.117903 -104.436222 -10.867665
-4.546105 -93.208362 7.51055
-3.464685 -92.748134 7.327025
18.427594 -80.363323 -10.699378
18.937099 -79.796688 -11.754454
13.938134 -87.073799 -11.852415
14.88376 -85.757995 -11.558152
12.90345 -88.444065 -12.052798
13.468899 -87.970104 -13.10931
13.938134 -87.073799 -11.852415
11.836301 -89.751068 -12.129058
12.90345 -88.444065 -12.052798
12.305536 -88.854763 -10.872163
-15.101623 -105.587734 -24.211675
-15.384767 -106.020775 -23.028605
-16.312992 -105.55547 -23.237474
-13.85062 -105.529003 -25.14952
-15.101623 -105.587734 -24.211675
-14.778846 -105.063698 -25.358389
-14.324356 -97.730969 -32.373484
-15.568458 -97.944454 -31.481228
-13.589448 -98.671154 -32.239328
-14.324356 -97.730969 -32.373484
-13.004611 -97.549774 -33.163857
27.244362 -66.97876 -29.695513
26.287516 -68.574581 -29.886799
26.9767 -67.163944 -30.800463
27.468216 -66.775219 -28.624287
27.244362 -66.97876 -29.695513
24.079319 -67.755226 -37.807755
22.794477 -69.512512 -37.923928
23.416033 -67.851135 -38.708481
24.566701 -67.865319 -36.831909
24.079319 -67.755226 -37.807755
14.854816 -69.405113 -44.183269
15.673754 -69.840222 -43.67156
14.251504 -71.339779 -43.565828
14.854816 -69.405113 -44.183269
14.094356 -68.95805 -44.637457
-19.017944 -103.994678 -5.727059
-18.438457 -104.708958 -7.127405
-18.097501 -104.286857 -5.80447
-19.561099 -103.249031 -4.438443
-19.115656 -102.818058 -3.102622
-19.999766 -102.494511 -3.136941
-19.017944 -103.994678 -5.727059
-19.561099 -103.249031 -4.438443
-14.527964 -95.059067 10.609961
-13.889397 -94.188412 11.788638
-14.90419 -94.201031 12.039105
5.257325 -92.318577 -1.59662
4.616453 -92.227272 -0.403471
4.728528 -93.318859 -2.790393
5.843358 -92.411598 -2.756593
5.257325 -92.318577 -1.59662
-17.98848 -106.009418 -19.74812
-18.045175 -106.260422 -18.493509
-18.931618 -105.750972 -18.575787
-17.735529 -105.744239 -20.942401
-16.849086 -106.253689 -20.860123
-17.98848 -106.009418 -19.74812
-17.473936 -105.418949 -22.189256
-17.735529 -105.744239 -20.942401
-16.312992 -105.55547 -23.237474
-17.473936 -105.418949 -22.189256
-16.427759 -103.869434 -25.862865
-15.636335 -104.489635 -25.661262
-11.834765 -95.068081 -34.848139
-12.464032 -96.331356 -34.016524
-11.064796 -93.672588 -35.698822
-10.418574 -94.65763 -35.585718
-11.834765 -95.068081 -34.848139
-10.393484 -92.273289 -36.446663
-11.064796 -93.672588 -35.698822
-11.809675 -92.683739 -35.709084
-11.806885 -90.275238 -36.357402
-12.509483 -91.790173 -35.606358
-10.378064 -89.805053 -37.149078
-11.806885 -90.275238 -36.357402
-8.985031 -89.235805 -37.856906
-9.74533 -90.715191 -37.164752
-10.378064 -89.805053 -37.149078
-8.285309 -87.579292 -38.501182
-7.652575 -88.489429 -38.516857
-8.985031 -89.235805 -37.856906
-7.627003 -85.962277 -39.084225
-8.285309 -87.579292 -38.501182
-8.959459 -86.708652 -38.424274
26.285567 -67.595646 -32.822607
26.665282 -67.365834 -31.817289
25.640139 -68.989578 -31.997066
-20.355708 -97.993725 4.92101
-20.091803 -98.961747 3.435648
-19.517602 -98.421353 4.788816
-20.355708 -97.993725 4.92101
-20.55984 -97.046398 6.296968
-15.922595 -94.223229 12.203955
-14.90419 -94.201031 12.039105
-16.530687 -95.016102 10.962647
-15.922595 -94.223229 12.203955
-16.910525 -94.167644 12.306174
-18.426192 -94.650287 11.274964
-17.86422 -94.039829 12.426311
-18.131841 -95.585117 9.928496
-18.426192 -94.650287 11.274964
-19.039417 -95.274887 10.138593
3.401624 -91.758052 2.105018
3.979623 -92.052188 0.808397
2.256426 -92.558769 2.061104
3.401624 -91.758052 2.105018
1.158497 -93.340683 2.006286
1.770907 -93.657585 0.738498
2.256426 -92.558769 2.061104
0.031189 -94.029579 2.05024
1.158497 -93.340683 2.006286
0.516709 -92.930763 3.372847
22.123756 -67.737698 -40.377239
22.741127 -67.937511 -39.516256
21.51382 -69.408608 -39.685637
21.509183 -67.411068 -41.226543
20.140048 -69.079342 -41.276499
20.752783 -67.281616 -41.956423
22.123756 -67.737698 -40.377239
21.509183 -67.411068 -41.226543
5.481273 -77.122867 -43.363514
6.962998 -75.905262 -43.607083
6.343324 -77.744972 -43.089832
-19.065458 -105.32605 -9.721978
-18.747909 -105.069607 -8.421958
-19.676448 -104.673222 -8.350013
-20.674415 -104.931942 -16.111404
-19.845633 -105.374481 -17.3547
-19.817095 -105.559437 -16.077879
-21.339565 -104.505814 -13.651346
-20.598101 -105.09282 -13.479601
-21.291791 -104.481735 -12.296365
-21.425992 -104.378949 -14.910472
-21.339565 -104.505814 -13.651346
-20.674415 -104.931942 -16.111404
-21.425992 -104.378949 -14.910472
-19.748536 -99.904873 2.066619
-20.091803 -98.961747 3.435648
-1.214873 -91.48328 7.304783
-2.32885 -92.163978 7.241818
-0.700682 -92.049008 5.979506
-1.214873 -91.48328 7.304783
-1.167685 -93.130935 4.713191
-0.143596 -92.537731 4.683116
-0.700682 -92.049008 5.979506
-12.916273 -94.074093 11.572975
-13.889397 -94.188412 11.788638
-11.90802 -93.978229 11.270188
-12.916273 -94.074093 11.572975
-12.50492 -94.950584 10.056705
-10.956815 -93.796906 11.02475
-11.90802 -93.978229 11.270188
-9.913035 -93.477169 10.901004
-10.956815 -93.796906 11.02475
-10.452888 -94.534985 9.630173
-8.813235 -93.11319 10.724954
-9.913035 -93.477169 10.901004
-7.703408 -92.737674 10.534781
-8.813235 -93.11319 10.724954
-8.299281 -93.839733 9.316254
-6.653114 -92.334739 10.368158
-7.703408 -92.737674 10.534781
-6.14261 -93.03521 8.983593
-6.653114 -92.334739 10.368158
-5.692864 -93.717579 7.64346
-6.14261 -93.03521 8.983593
-6.739707 -94.146588 7.785948
-5.143202 -94.31974 6.312905
-4.546105 -93.208362 7.51055
-5.692864 -93.717579 7.64346
23.797975 -71.819317 -14.099262
24.416775 -70.939423 -15.230353
23.115603 -73.186027 -14.352102
23.797975 -71.819317 -14.099262
22.330887 -74.646366 -14.469432
22.93054 -73.828243 -15.591978
23.115603 -73.186027 -14.352102
21.513419 -76.156868 -14.68459
22.330887 -74.646366 -14.469432
21.698484 -75.514652 -13.444714
20.313188 -77.720428 -12.547441
21.071327 -76.361107 -12.352582
20.106835 -78.377826 -13.925849
20.313188 -77.720428 -12.547441
19.539008 -79.073101 -12.813417
17.601423 -81.705826 -10.94355
18.427594 -80.363323 -10.699378
16.740372 -83.036579 -11.097036
15.835335 -84.377667 -11.294123
17.267786 -82.508426 -12.227383
17.601423 -81.705826 -10.94355
16.740372 -83.036579 -11.097036
8.020769 -90.451706 -2.598217
6.98917 -91.422924 -2.771006
8.654379 -90.383876 -3.840566
8.020769 -90.451706 -2.598217
8.156491 -91.403831 -5.194174
7.102956 -92.4077 -5.214901
7.653263 -92.376999 -6.429883
8.654379 -90.383876 -3.840566
8.156491 -91.403831 -5.194174
10.377004 -89.970871 -7.313842
9.32396 -91.130932 -7.51416
11.04286 -89.609257 -8.476146
10.377004 -89.970871 -7.313842
10.589754 -90.52525 -9.783793
11.691492 -89.245773 -9.640776
11.04286 -89.609257 -8.476146
-17.328063 -103.154407 -25.967654
-18.159405 -102.336399 -26.017572
-16.143126 -103.141815 -27.006769
-16.427759 -103.869434 -25.862865
-17.328063 -103.154407 -25.967654
-16.16882 -98.986321 -30.437413
-15.568458 -97.944454 -31.481228
-16.739405 -99.958877 -29.394231
-16.16882 -98.986321 -30.437413
-15.479778 -99.824905 -30.405774
-17.280314 -100.788803 -28.28825
-16.739405 -99.958877 -29.394231
-16.546897 -101.612125 -28.237075
-17.776848 -101.603466 -27.162732
-17.280314 -100.788803 -28.28825
4.595583 -76.536392 -43.52564
5.481273 -77.122867 -43.363514
3.97591 -78.376103 -43.00839
-8.828582 -83.893563 -38.9427
-9.555521 -85.613381 -38.348557
-7.513345 -83.303471 -39.59516
-8.828582 -83.893563 -38.9427
-6.112445 -82.584408 -40.228206
-6.900253 -84.372574 -39.640364
-7.513345 -83.303471 -39.59516
-5.386352 -80.77195 -40.765712
-4.580005 -78.801377 -41.33115
-4.773261 -81.841053 -40.810917
-6.112445 -82.584408 -40.228206
-5.386352 -80.77195 -40.765712
-0.297465 -76.045257 -43.021821
-1.769929 -77.096936 -42.455376
0.4251 -76.877037 -43.006502
-0.297465 -76.045257 -43.021821
1.104785 -77.846092 -42.936715
-0.377984 -78.999214 -42.426947
0.4251 -76.877037 -43.006502
2.499045 -76.756771 -43.343393
1.69596 -78.878948 -42.763838
1.104785 -77.846092 -42.936715
3.867143 -75.807785 -43.703102
2.499045 -76.756771 -43.343393
4.595583 -76.536392 -43.52564
3.867143 -75.807785 -43.703102
26.710668 -68.045269 -21.867387
26.836796 -67.58585 -20.636585
26.035186 -69.168823 -20.881814
26.710668 -68.045269 -21.867387
26.619096 -68.399902 -23.096835
27.144638 -67.542278 -25.292849
26.503804 -68.703907 -24.321949
26.319308 -69.074623 -25.533743
27.144638 -67.542278 -25.292849
27.799974 -66.346348 -26.344958
25.886372 -67.76146 -33.832611
24.796872 -69.39809 -34.005062
25.422821 -67.940159 -34.835289
26.285567 -67.595646 -32.822607
25.886372 -67.76146 -33.832611
3 0 100 98
3 1 396 398
3 396 101 397
3 396 397 398
3 400 399 102
3 2 106 104
3 4 109 107
3 4 111 109
3 5 401 403
3 403 402 112
3 401 402 403
3 5 116 114
3 5 112 116
3 6 120 118
3 6 122 120
3 3 125 123
3 7 128 126
3 9 131 129
3 9 133 131
3 10 136 134
3 11 140 138
3 13 143 141
3 13 145 143
3 8 148 146
3 14 151 149
3 14 153 151
3 14 155 153
3 15 158 156
3 15 160 158
3 16 163 161
3 18 167 165
3 18 169 167
3 18 171 169
3 16 174 172
3 16 161 174
3 404 177 405
3 20 180 178
3 20 182 180
3 20 184 182
3 19 187 185
3 19 189 187
3 17 192 190
3 21 406 408
3 406 194 407
3 406 407 408
3 21 196 194
3 22 409 411
3 409 198 410
3 409 410 411
3 22 200 198
3 22 202 200
3 23 205 203
3 23 207 205
3 12 210 208
3 413 412 211
3 415 414 213
3 24 217 215
3 26 218 99
3 26 219 218
3 27 416 417
3 27 418 419
3 28 222 220
3 420 223 421
3 422 421 103
3 420 421 422
3 424 423 223
3 30 226 224
3 32 227 105
3 32 228 227
3 33 231 229
3 35 232 108
3 35 233 232
3 35 235 233
3 37 236 110
3 37 237 236
3 38 240 238
3 426 425 113
3 39 243 241
3 41 244 115
3 41 245 244
3 41 247 245
3 38 248 117
3 38 238 248
3 43 427 429
3 427 249 428
3 427 428 429
3 45 250 119
3 45 251 250
3 45 253 251
3 47 254 121
3 47 255 254
3 431 430 256
3 432 259 433
3 434 260 435
3 50 263 261
3 52 264 124
3 52 265 264
3 53 268 266
3 55 269 127
3 55 270 269
3 25 271 216
3 56 272 130
3 56 273 272
3 56 274 273
3 57 275 132
3 57 276 275
3 437 436 277
3 438 278 439
3 440 279 441
3 442 277 443
3 444 443 279
3 442 443 444
3 445 280 446
3 58 283 281
3 60 284 135
3 60 285 284
3 29 286 221
3 447 287 448
3 449 448 137
3 447 448 449
3 451 450 287
3 61 290 288
3 63 291 139
3 63 292 291
3 31 293 225
3 64 294 142
3 64 295 294
3 64 296 295
3 65 297 144
3 65 298 297
3 54 299 267
3 66 300 147
3 66 301 300
3 34 302 230
3 67 303 150
3 67 304 303
3 67 305 304
3 68 306 152
3 68 307 306
3 68 308 307
3 69 309 154
3 69 310 309
3 36 311 234
3 70 312 157
3 70 313 312
3 70 314 313
3 71 315 159
3 71 316 315
3 72 319 317
3 74 320 162
3 74 321 320
3 452 322 453
3 454 453 239
3 452 453 454
3 75 323 164
3 75 324 323
3 75 325 324
3 76 455 457
3 455 326 456
3 455 456 457
3 76 327 326
3 40 328 242
3 77 329 166
3 77 330 329
3 77 331 330
3 78 332 168
3 78 333 332
3 78 334 333
3 79 335 170
3 79 336 335
3 42 337 246
3 80 338 173
3 80 339 338
3 80 340 339
3 72 341 175
3 72 317 341
3 458 343 459
3 82 460 462
3 460 344 461
3 460 461 462
3 82 345 344
3 83 463 465
3 463 346 464
3 463 464 465
3 83 347 346
3 83 348 347
3 84 349 176
3 84 350 349
3 44 466 468
3 466 351 467
3 466 467 468
3 85 469 471
3 471 470 179
3 469 470 471
3 85 472 474
3 472 352 473
3 472 473 474
3 85 353 352
3 86 354 181
3 86 355 354
3 86 356 355
3 87 357 183
3 87 358 357
3 46 359 252
3 88 360 186
3 88 361 360
3 88 362 361
3 81 363 188
3 81 342 363
3 73 364 318
3 89 365 191
3 89 366 365
3 48 367 257
3 90 368 193
3 90 369 368
3 90 370 369
3 91 371 195
3 91 372 371
3 475 373 476
3 475 476 477
3 92 374 197
3 92 375 374
3 92 376 375
3 93 377 199
3 93 378 377
3 93 379 378
3 94 380 201
3 94 381 380
3 49 382 258
3 95 383 204
3 95 384 383
3 95 385 384
3 96 386 206
3 96 387 386
3 478 388 479
3 480 389 481
3 482 481 388
3 480 481 482
3 62 390 289
3 97 391 209
3 97 483 485
3 485 484 391
3 483 484 485
3 51 392 262
3 486 393 487
3 488 487 212
3 486 487 488
3 490 489 393
3 59 394 282
3 491 395 492
3 493 492 214
3 491 492 493
3 495 494 395
3 98 99 24
3 100 99 98
3 100 26 99
3 101 496 497
3 101 498 500
3 498 27 499
3 498 499 500
3 102 103 28
3 501 103 502
3 503 502 102
3 501 502 503
3 505 504 103
3 104 105 30
3 106 105 104
3 106 32 105
3 107 108 33
3 109 108 107
3 109 35 108
3 109 110 35
3 111 110 109
3 111 37 110
3 112 113 38
3 506 113 507
3 508 507 112
3 506 507 508
3 510 509 113
3 114 115 39
3 116 115 114
3 116 41 115
3 116 117 41
3 112 117 116
3 112 38 117
3 118 119 43
3 120 119 118
3 120 45 119
3 120 121 45
3 122 121 120
3 122 47 121
3 123 124 50
3 125 124 123
3 125 52 124
3 126 127 53
3 128 127 126
3 128 55 127
3 129 130 25
3 131 130 129
3 131 56 130
3 131 132 56
3 133 132 131
3 133 57 132
3 134 135 58
3 136 135 134
3 136 60 135
3 511 137 512
3 513 512 29
3 511 512 513
3 514 137 515
3 517 516 137
3 138 139 61
3 140 139 138
3 140 63 139
3 141 142 31
3 143 142 141
3 143 64 142
3 143 144 64
3 145 144 143
3 145 65 144
3 146 147 54
3 148 147 146
3 148 66 147
3 149 150 34
3 151 150 149
3 151 67 150
3 151 152 67
3 153 152 151
3 153 68 152
3 153 154 68
3 155 154 153
3 155 69 154
3 156 157 36
3 158 157 156
3 158 70 157
3 158 159 70
3 160 159 158
3 160 71 159
3 161 162 72
3 163 162 161
3 163 74 162
3 518 164 519
3 520 164 521
3 522 75 523
3 524 523 164
3 522 523 524
3 526 525 75
3 527 76 528
3 165 166 40
3 167 166 165
3 167 77 166
3 167 168 77
3 169 168 167
3 169 78 168
3 169 170 78
3 171 170 169
3 171 79 170
3 172 173 42
3 174 173 172
3 174 80 173
3 174 175 80
3 161 175 174
3 161 72 175
3 529 82 530
3 531 83 532
3 533 176 534
3 535 534 83
3 533 534 535
3 177 536 538
3 536 176 537
3 536 537 538
3 177 84 176
3 178 179 44
3 180 179 178
3 180 85 179
3 180 181 85
3 182 181 180
3 182 86 181
3 182 183 86
3 184 183 182
3 184 87 183
3 185 186 46
3 187 186 185
3 187 88 186
3 187 188 88
3 189 188 187
3 189 81 188
3 190 191 73
3 192 191 190
3 192 89 191
3 539 193 540
3 541 540 48
3 539 540 541
3 194 542 544
3 542 193 543
3 542 543 544
3 194 90 193
3 194 195 90
3 196 195 194
3 196 91 195
3 545 197 546
3 198 547 549
3 547 197 548
3 547 548 549
3 198 92 197
3 198 199 92
3 200 199 198
3 200 93 199
3 200 201 93
3 202 201 200
3 202 94 201
3 203 204 49
3 205 204 203
3 205 95 204
3 205 206 95
3 207 206 205
3 207 96 206
3 208 209 62
3 210 209 208
3 210 97 209
3 211 212 51
3 550 212 551
3 552 551 211
3 550 551 552
3 554 553 212
3 213 214 59
3 555 214 556
3 557 556 213
3 555 556 557
3 559 558 214
3 215 216 7
3 217 216 215
3 217 25 216
3 99 217 24
3 218 217 99
3 218 25 217
3 218 129 25
3 219 129 218
3 219 9 129
3 220 221 10
3 222 221 220
3 222 29 221
3 103 222 28
3 223 222 103
3 223 29 222
3 223 560 562
3 562 561 29
3 560 561 562
3 564 563 223
3 224 225 11
3 226 225 224
3 226 31 225
3 105 226 30
3 227 226 105
3 227 31 226
3 227 141 31
3 228 141 227
3 228 13 141
3 229 230 8
3 231 230 229
3 231 34 230
3 108 231 33
3 232 231 108
3 232 34 231
3 232 149 34
3 233 149 232
3 233 14 149
3 233 234 14
3 235 234 233
3 235 36 234
3 110 235 35
3 236 235 110
3 236 36 235
3 236 156 36
3 237 156 236
3 237 15 156
3 238 239 16
3 240 239 238
3 240 565 567
3 567 566 239
3 565 566 567
3 113 240 38
3 568 240 569
3 570 569 113
3 568 569 570
3 572 571 240
3 241 573 575
3 573 242 574
3 573 574 575
3 243 242 241
3 243 40 242
3 115 243 39
3 244 243 115
3 244 40 243
3 244 165 40
3 245 165 244
3 245 18 165
3 245 246 18
3 247 246 245
3 247 42 246
3 117 247 41
3 248 247 117
3 248 42 247
3 248 172 42
3 238 172 248
3 238 16 172
3 249 576 577
3 249 578 580
3 578 44 579
3 578 579 580
3 119 249 43
3 250 249 119
3 250 44 249
3 250 178 44
3 251 178 250
3 251 20 178
3 251 252 20
3 253 252 251
3 253 46 252
3 121 253 45
3 254 253 121
3 254 46 253
3 254 185 46
3 255 185 254
3 255 19 185
3 256 257 17
3 581 257 582
3 583 582 256
3 581 582 583
3 584 48 585
3 586 585 257
3 584 585 586
3 587 48 588
3 590 589 48
3 591 21 592
3 593 22 594
3 595 258 596
3 597 596 22
3 595 596 597
3 259 598 600
3 598 258 599
3 598 599 600
3 259 49 258
3 601 259 602
3 603 259 604
3 605 49 606
3 607 606 259
3 605 606 607
3 608 203 609
3 610 609 49
3 608 609 610
3 260 611 613
3 611 203 612
3 611 612 613
3 260 23 203
3 261 262 12
3 263 262 261
3 263 51 262
3 124 263 50
3 264 263 124
3 264 51 263
3 264 211 51
3 265 211 264
3 265 614 616
3 616 615 211
3 614 615 616
3 266 267 2
3 268 267 266
3 268 54 267
3 127 268 53
3 269 268 127
3 269 54 268
3 269 146 54
3 270 146 269
3 270 8 146
3 216 128 7
3 271 128 216
3 271 55 128
3 130 271 25
3 272 271 130
3 272 55 271
3 272 270 55
3 273 270 272
3 273 8 270
3 273 229 8
3 274 229 273
3 274 33 229
3 132 274 56
3 275 274 132
3 275 33 274
3 275 107 33
3 276 107 275
3 276 4 107
3 277 617 619
3 619 618 5
3 617 618 619
3 621 620 277
3 622 241 623
3 278 624 626
3 624 241 625
3 624 625 626
3 278 39 241
3 627 278 628
3 279 629 631
3 629 278 630
3 629 630 631
3 279 39 278
3 279 114 39
3 277 114 279
3 277 5 114
3 632 43 633
3 634 43 635
3 636 118 637
3 638 637 43
3 636 637 638
3 280 639 641
3 639 118 640
3 639 640 641
3 280 6 118
3 281 282 3
3 283 282 281
3 283 59 282
3 135 283 58
3 284 283 135
3 284 59 283
3 284 213 59
3 285 213 284
3 285 642 644
3 644 643 213
3 642 643 644
3 221 136 10
3 286 136 221
3 286 60 136
3 137 286 29
3 287 286 137
3 287 60 286
3 287 285 60
3 645 285 646
3 647 646 287
3 645 646 647
3 649 648 285
3 288 289 1
3 290 289 288
3 290 62 289
3 139 290 61
3 291 290 139
3 291 62 290
3 291 208 62
3 292 208 291
3 292 12 208
3 225 140 11
3 293 140 225
3 293 63 140
3 142 293 31
3 294 293 142
3 294 63 293
3 294 292 63
3 295 292 294
3 295 12 292
3 295 261 12
3 296 261 295
3 296 50 261
3 144 296 64
3 297 296 144
3 297 50 296
3 297 123 50
3 298 123 297
3 298 3 123
3 267 106 2
3 299 106 267
3 299 32 106
3 147 299 54
3 300 299 147
3 300 32 299
3 300 228 32
3 301 228 300
3 301 13 228
3 230 148 8
3 302 148 230
3 302 66 148
3 150 302 34
3 303 302 150
3 303 66 302
3 303 301 66
3 304 301 303
3 304 13 301
3 304 145 13
3 305 145 304
3 305 65 145
3 152 305 67
3 306 305 152
3 306 65 305
3 306 298 65
3 307 298 306
3 307 3 298
3 307 281 3
3 308 281 307
3 308 58 281
3 154 308 68
3 309 308 154
3 309 58 308
3 309 134 58
3 310 134 309
3 310 10 134
3 234 155 14
3 311 155 234
3 311 69 155
3 157 311 36
3 312 311 157
3 312 69 311
3 312 310 69
3 313 310 312
3 313 10 310
3 313 220 10
3 314 220 313
3 314 28 220
3 159 314 70
3 315 314 159
3 315 28 314
3 315 102 28
3 316 102 315
3 316 650 652
3 652 651 102
3 650 651 652
3 317 318 0
3 319 318 317
3 319 73 318
3 162 319 72
3 320 319 162
3 320 73 319
3 320 190 73
3 321 190 320
3 321 17 190
3 239 163 16
3 322 163 239
3 322 74 163
3 164 653 655
3 653 322 654
3 653 654 655
3 323 322 164
3 323 74 322
3 323 321 74
3 324 321 323
3 324 17 321
3 324 256 17
3 325 256 324
3 325 656 658
3 658 657 256
3 656 657 658
3 659 325 660
3 661 660 75
3 659 660 661
3 662 325 663
3 665 664 325
3 667 666 5
3 326 668 669
3 326 670 671
3 326 672 674
3 672 280 673
3 672 673 674
3 327 280 326
3 327 6 280
3 242 675 676
3 328 677 679
3 679 678 242
3 677 678 679
3 328 680 681
3 166 328 40
3 329 328 166
3 329 682 684
3 684 683 328
3 682 683 684
3 329 685 686
3 330 687 689
3 689 688 329
3 687 688 689
3 330 690 691
3 330 692 693
3 331 694 696
3 696 695 330
3 694 695 696
3 331 697 699
3 697 76 698
3 697 698 699
3 168 331 77
3 332 331 168
3 332 76 331
3 332 327 76
3 333 327 332
3 333 6 327
3 333 122 6
3 334 122 333
3 334 47 122
3 170 334 78
3 335 334 170
3 335 47 334
3 335 255 47
3 336 255 335
3 336 19 255
3 246 171 18
3 337 171 246
3 337 79 171
3 173 337 42
3 338 337 173
3 338 79 337
3 338 336 79
3 339 336 338
3 339 19 336
3 339 189 19
3 340 189 339
3 340 81 189
3 175 340 80
3 341 340 175
3 341 81 340
3 341 342 81
3 317 342 341
3 317 0 342
3 700 1 701
3 702 1 703
3 704 288 705
3 706 705 1
3 704 705 706
3 343 707 709
3 707 288 708
3 707 708 709
3 343 61 288
3 710 343 711
3 344 712 714
3 712 343 713
3 712 713 714
3 344 61 343
3 344 138 61
3 345 138 344
3 345 11 138
3 715 82 716
3 346 717 718
3 346 719 721
3 719 82 720
3 719 720 721
3 346 345 82
3 347 345 346
3 347 11 345
3 347 224 11
3 348 224 347
3 348 30 224
3 176 348 83
3 349 348 176
3 349 30 348
3 349 104 30
3 350 104 349
3 350 2 104
3 351 722 723
3 351 724 725
3 179 351 44
3 726 351 727
3 728 727 179
3 726 727 728
3 730 729 351
3 352 731 732
3 352 733 734
3 352 735 737
3 735 177 736
3 735 736 737
3 353 177 352
3 353 84 177
3 181 353 85
3 354 353 181
3 354 84 353
3 354 350 84
3 355 350 354
3 355 2 350
3 355 266 2
3 356 266 355
3 356 53 266
3 183 356 86
3 357 356 183
3 357 53 356
3 357 126 53
3 358 126 357
3 358 7 126
3 252 184 20
3 359 184 252
3 359 87 184
3 186 359 46
3 360 359 186
3 360 87 359
3 360 358 87
3 361 358 360
3 361 7 358
3 361 215 7
3 362 215 361
3 362 24 215
3 188 362 88
3 363 362 188
3 363 24 362
3 363 98 24
3 342 98 363
3 342 0 98
3 318 100 0
3 364 100 318
3 364 26 100
3 191 364 73
3 365 364 191
3 365 26 364
3 365 219 26
3 366 219 365
3 366 9 219
3 257 192 17
3 367 192 257
3 367 89 192
3 193 367 48
3 368 367 193
3 368 89 367
3 368 366 89
3 369 366 368
3 369 9 366
3 369 133 9
3 370 133 369
3 370 57 133
3 195 370 90
3 371 370 195
3 371 57 370
3 371 276 57
3 372 276 371
3 372 4 276
3 373 738 739
3 373 740 742
3 740 21 741
3 740 741 742
3 197 743 744
3 374 745 747
3 747 746 197
3 745 746 747
3 374 748 749
3 374 750 752
3 750 373 751
3 750 751 752
3 375 373 374
3 375 21 373
3 375 196 21
3 376 196 375
3 376 91 196
3 199 376 92
3 377 376 199
3 377 91 376
3 377 372 91
3 378 372 377
3 378 4 372
3 378 111 4
3 379 111 378
3 379 37 111
3 201 379 93
3 380 379 201
3 380 37 379
3 380 237 37
3 381 237 380
3 381 15 237
3 258 202 22
3 382 202 258
3 382 94 202
3 204 382 49
3 383 382 204
3 383 94 382
3 383 381 94
3 384 381 383
3 384 15 381
3 384 160 15
3 385 160 384
3 385 71 160
3 206 385 95
3 386 385 206
3 386 71 385
3 386 316 71
3 387 316 386
3 387 753 755
3 755 754 316
3 753 754 755
3 756 260 757
3 758 260 759
3 760 23 761
3 762 761 260
3 760 761 762
3 388 763 764
3 388 765 767
3 765 23 766
3 765 766 767
3 388 207 23
3 389 207 388
3 389 96 207
3 768 389 769
3 770 389 771
3 772 96 773
3 774 773 389
3 772 773 774
3 775 387 776
3 777 776 96
3 775 776 777
3 778 387 779
3 781 780 387
3 289 101 1
3 390 101 289
3 390 27 101
3 209 390 62
3 391 390 209
3 391 27 390
3 391 782 784
3 784 783 27
3 782 783 784
3 786 785 391
3 262 210 12
3 392 210 262
3 392 97 210
3 212 392 51
3 393 392 212
3 393 97 392
3 393 787 789
3 789 788 97
3 787 788 789
3 791 790 393
3 282 125 3
3 394 125 282
3 394 52 125
3 214 394 59
3 395 394 214
3 395 52 394
3 395 265 52
3 792 265 793
3 794 793 395
3 792 793 794
3 796 795 265
