ply
format ascii 1.0
element vertex 665
property float x
property float y
property float z
element face 783
property list uchar int vertex_index
end_header
-19.28055 -4.713273 -67.623161
-28.260529 -58.536919 -41.27541
-27.448805 -32.771614 -55.511185
-12.750035 17.574854 -72.861137
-5.624463 21.40056 -69.535439
-33.208988 -54.978943 -34.929504
-34.606979 -31.209181 -51.778278
-32.318569 -17.13336 -59.521881
-24.41132 -18.04439 -62.186375
-27.743507 -2.764247 -66.39164
-28.766459 11.198074 -67.609978
-20.565809 9.297992 -71.403191
-12.801277 5.704574 -70.912178
-34.852016 -43.93642 -43.533367
-28.580629 -46.380283 -48.593632
-8.889956 24.448641 -70.466385
-35.585186 -16.464455 -57.098129
-33.813293 -9.224426 -60.943027
-30.212141 -9.875698 -63.182724
-31.51689 -2.265918 -64.361755
-24.942505 16.708841 -69.745407
-24.782305 10.607401 -70.088676
-20.953468 15.600555 -71.806412
-9.186964 14.850807 -71.942596
-12.944426 11.835321 -72.415161
-9.500757 9.080718 -71.096199
-27.455664 -64.111351 -37.338749
-24.212152 -66.239059 -40.191845
-36.880672 -42.486382 -40.381924
-37.38649 -36.54451 -44.620354
-31.276833 -31.632622 -54.14249
-31.939989 -38.619671 -50.238998
-28.231407 -39.473194 -52.20752
-24.459753 -47.493191 -50.316505
-24.089113 -40.552235 -53.361557
-23.296955 -33.438408 -56.34388
-22.206392 -11.181579 -65.077896
-20.270281 -19.060766 -62.11871
-18.115826 -12.154461 -64.759903
-15.345226 -6.105977 -66.933212
-16.780558 19.832895 -72.539192
-12.681582 22.662584 -72.072296
-9.006163 19.921186 -71.754951
-5.983762 16.48016 -70.338943
-30.081873 -61.68261 -34.16243
-31.134493 -56.880272 -38.177956
-37.388069 -30.105192 -48.902508
-36.712582 -23.471558 -53.139069
-33.836628 -24.018566 -55.75729
-30.159275 -24.903063 -57.690308
-26.252541 -25.218819 -58.987484
-28.516043 -17.599463 -61.26619
-26.329346 -10.377151 -64.576042
-23.558575 -3.571368 -67.490562
-28.325191 4.519611 -67.584152
-24.343576 3.714571 -69.235764
-20.147524 2.560199 -69.922379
-16.663124 14.06714 -72.714348
-16.402689 7.817577 -71.662331
-16.116163 0.972732 -69.633064
-12.505415 -0.959878 -68.54464
-35.847733 -48.232029 -35.98349
-34.229084 -49.676491 -39.404057
-31.716991 -51.307247 -42.422573
-35.048988 -37.631958 -47.680195
-31.97913 -45.287155 -46.336136
-28.456953 -52.818729 -45.022194
-24.603632 -54.302795 -47.051357
-22.002359 -26.064127 -59.332886
-35.369129 -9.311517 -59.424595
-34.428814 -5.537462 -61.233139
-32.794743 -5.770606 -62.643429
-33.252125 -2.127849 -62.975212
-22.850529 18.905573 -70.552299
-23.041756 16.113386 -70.903435
-20.987654 18.419744 -71.544731
-7.720047 12.925487 -71.105476
-9.328588 11.915546 -71.626671
-7.84172 10.107585 -70.668625
-27.955988 -61.265732 -39.365978
-26.014793 -64.966705 -38.878242
-26.261349 -62.28437 -40.814106
-24.486235 -63.327522 -41.995358
-26.525261 -59.457088 -42.575001
-29.431684 -31.895855 -55.037121
-29.751591 -35.674637 -53.160583
-27.83736 -35.983395 -53.964512
-26.218077 -40.071442 -52.846855
-25.749887 -36.548092 -54.509483
-23.796566 -36.940258 -54.878551
-25.469246 -32.694847 -56.175087
-20.850338 -7.740684 -66.453651
-20.129206 -11.440189 -65.091812
-18.814537 -8.283052 -66.303543
-16.879663 -8.884597 -65.9729
-17.268307 -5.378385 -67.369377
-14.770402 23.609974 -71.770592
-12.762739 24.88903 -71.222557
-7.238864 23.039619 -70.159256
-9.054275 22.265598 -71.293602
-7.320583 20.682253 -70.815292
-7.423162 18.23859 -71.174164
-5.83343 18.957813 -70.106903
-32.563168 -57.328106 -32.664536
-30.997068 -60.74876 -32.237816
-31.699495 -58.411064 -34.380016
-30.67576 -59.337101 -36.144382
-32.294254 -55.883842 -36.598038
-34.093899 -16.668741 -58.394855
-34.838184 -20.10709 -56.486641
-33.226978 -20.470778 -57.652061
-32.093544 -24.323294 -56.857124
-31.375917 -20.991484 -58.63615
-29.42889 -21.068325 -59.568817
-30.478306 -17.181093 -60.562317
-29.036316 -6.227584 -64.856422
-28.316509 -10.170425 -63.959351
-27.0546 -6.429511 -65.622925
-25.020178 -6.687931 -66.159187
-25.641911 -3.136526 -67.074348
-30.433409 8.14599 -66.32444
-30.292589 4.719998 -66.287941
-28.569187 8.017735 -67.764694
-22.688829 10.030943 -70.889206
-24.7034 7.211983 -69.747269
-22.533005 6.690963 -70.411728
-22.28476 2.998682 -69.646858
-20.475546 5.874117 -70.726677
-14.757195 18.781399 -72.869324
-16.772387 16.937103 -72.79451
-14.760119 15.918777 -72.938942
-12.932677 8.744529 -71.765381
-14.753386 10.001472 -72.177872
-14.639701 6.671329 -71.360023
-16.474913 4.475962 -70.755508
-14.480613 3.253332 -70.313347
-14.220756 -0.07944 -69.129059
-12.628029 2.313453 -69.775253
-35.909031 -43.435524 -41.941029
-35.601044 -46.139885 -39.905243
-34.537998 -46.94743 -41.514828
-33.017536 -50.741711 -40.841393
-33.320534 -47.823219 -42.863804
-36.109406 -30.594978 -50.446877
-36.257614 -33.712631 -48.488571
-34.82375 -34.489235 -49.808205
-30.2738 -42.504593 -49.449368
-32.063446 -41.941368 -48.28775
-30.291168 -45.814339 -47.605518
-30.280439 -48.996399 -45.698265
-28.446625 -49.896118 -46.762093
-26.53936 -53.587826 -46.137482
-26.593084 -50.250496 -47.881756
-25.454462 -21.839111 -60.513168
-24.058987 -25.591228 -59.288456
-23.366238 -22.091843 -60.754662
-18.368309 -19.190048 -61.985489
-19.199406 -22.948847 -60.569042
-5.583963 23.604103 -68.831749
-33.986195 -53.947552 -33.171257
-36.949673 -16.283846 -55.577034
-36.302456 -12.857765 -57.4319
-34.743309 -12.915552 -59.060596
-33.113445 -13.336528 -60.278015
-31.328016 -13.567881 -61.372128
-32.11882 -9.624359 -62.120701
-30.995699 -6.084503 -63.830608
-29.717655 -2.472282 -65.476662
-26.968262 14.075221 -68.732025
-26.880306 10.843429 -68.953255
-24.968615 13.640576 -70.044861
-22.89757 13.227142 -71.058563
-20.799547 12.735209 -71.771904
-10.96317 16.166597 -72.554253
-12.776244 14.85146 -72.782883
-10.964426 13.311333 -72.31134
-11.168496 10.484849 -71.871552
-11.118714 7.582562 -71.153954
-11.081817 4.42388 -70.18895
-9.447683 6.055997 -70.244644
-27.076817 -66.290451 -35.43998
-37.569645 -41.91806 -38.54282
-37.102375 -39.857059 -42.469372
-36.172279 -40.287891 -44.108173
-32.958878 -31.383078 -53.110611
-33.318539 -34.799263 -51.107063
-31.587328 -35.124146 -52.285595
-30.212246 -39.091591 -51.247536
-28.343964 -43.057625 -50.439922
-26.446632 -47.150009 -49.516434
-26.361168 -43.695786 -51.179165
-24.284149 -44.122364 -51.835049
-23.431381 -14.408346 -63.723282
-22.408682 -18.642641 -62.200397
-21.362452 -15.036819 -63.668415
-19.437899 -15.444736 -63.522804
-17.294174 -15.708885 -63.261028
-16.104992 -12.574626 -64.382065
-13.579924 -6.851366 -66.35582
-18.972532 20.394535 -71.899139
-16.817423 22.283651 -71.945541
-14.674154 21.333971 -72.473877
-12.8408 20.125566 -72.656624
-10.803935 23.755224 -71.386749
-10.85291 21.289162 -72.113335
-10.904679 18.936874 -72.469185
-9.256043 17.528887 -72.042122
-7.584242 15.804073 -71.287956
-28.311872 -65.162735 -33.786018
-28.930439 -62.682999 -35.932781
-29.367493 -60.368397 -37.83234
-29.808474 -57.623482 -39.846882
-37.096519 -26.667862 -51.162971
-35.746063 -27.434216 -52.464775
-36.240108 -19.987324 -55.118862
-35.299042 -23.9744 -54.485298
-34.281826 -27.771481 -53.738461
-32.721737 -27.728456 -54.973885
-30.851978 -28.207884 -55.921478
-28.750517 -28.606497 -56.76799
-26.916248 -28.832409 -57.34029
-28.270746 -24.859789 -58.510128
-27.459614 -21.389191 -60.172451
-26.497824 -17.80958 -61.830261
-29.3932 -13.737508 -62.304523
-27.584814 -13.895411 -62.954777
-25.499245 -14.247893 -63.412498
-24.261589 -10.543338 -65.013672
-22.861313 -7.270419 -66.39859
-21.472439 -4.083535 -67.673813
-31.899225 1.306768 -64.645561
-30.040985 1.259541 -66.023506
-28.079994 0.886048 -67.087692
-26.568693 7.664855 -68.941177
-26.361372 4.235392 -68.549263
-26.095385 0.441742 -67.862755
-24.065407 -0.088794 -68.386856
-21.853281 -0.516764 -68.753357
-19.836895 -1.124864 -68.825241
-18.840471 17.771967 -72.339432
-18.72513 14.848913 -72.430794
-18.705328 11.901537 -72.183708
-14.736757 12.949386 -72.68779
-16.595766 11.076011 -72.330154
-18.50239 8.740787 -71.681595
-18.356634 5.296368 -70.881439
-18.137667 1.63257 -69.828629
-17.813162 -1.834502 -68.678841
-15.910514 -2.5868 -68.347954
-14.004537 -3.368125 -67.847572
-12.307514 -4.269605 -67.175636
-10.994002 1.043265 -68.978058
-10.907389 -2.14277 -67.711525
-34.564217 -51.636967 -35.503128
-36.448055 -45.323601 -38.23719
-35.158257 -48.910191 -37.720066
-33.766811 -52.381454 -37.24509
-32.799812 -53.16436 -38.791431
-31.441904 -54.230297 -40.327305
-29.998646 -54.906998 -41.900837
-37.362061 -33.506596 -46.85302
-36.279675 -37.155098 -46.241333
-34.989246 -40.847752 -45.633568
-33.595486 -38.233971 -48.961632
-33.589516 -41.60598 -46.919796
-33.621834 -44.524479 -44.917267
-31.984224 -48.361988 -44.274193
-30.126839 -52.085003 -43.82616
-28.408316 -55.693676 -43.200932
-26.649887 -56.603527 -44.298943
-24.561825 -50.897346 -48.719975
-24.797409 -29.225233 -57.721542
-22.71332 -29.5769 -57.914185
-20.63158 -29.917707 -57.92823
-21.197311 -22.581553 -60.728931
-19.984327 -26.262249 -59.315311
-34.616234 -3.803647 -61.311825
-35.16973 -5.617178 -60.3867
-34.02789 -2.09884 -62.182862
-33.840469 -3.832655 -62.104175
-34.616234 -3.803647 -61.311825
-21.874115 20.060612 -70.726784
-22.920246 20.07771 -70.125706
-20.942678 19.817698 -71.223
-21.919092 18.662658 -71.048515
-21.874115 20.060612 -70.726784
-7.065751 10.647771 -70.345425
-7.780883 11.516536 -70.887051
-7.004914 12.056722 -70.56385
-7.160542 9.281302 -70.109139
-7.065751 10.647771 -70.345425
-12.751152 25.917873 -70.620365
-13.713822 25.338013 -70.9687
-29.728547 11.12658 -66.754704
-28.867495 12.587741 -67.352303
-29.599934 9.672032 -66.967209
-30.562022 9.600538 -66.111934
-29.728547 11.12658 -66.754704
-17.850892 -21.098751 -61.184326
-17.400922 -19.482053 -61.754076
-5.558153 24.613958 -68.358219
-6.437753 24.434517 -69.051914
-34.225714 -53.57271 -32.255206
-33.587599 -55.164131 -31.96726
-36.542662 -10.986772 -57.589042
-36.930754 -12.799879 -56.598837
-25.977842 16.699244 -68.975612
-24.983933 17.939696 -69.396965
-25.955383 15.392031 -69.238716
-26.99072 15.382434 -68.468921
-25.977842 16.699244 -68.975612
-26.473921 -65.862458 -37.209389
-26.284498 -66.952008 -36.260005
-27.26624 -65.200901 -36.389364
-24.083838 -67.429039 -39.360094
-24.985159 -66.792862 -38.703293
-25.113473 -65.602882 -39.535044
-23.173645 -67.960316 -40.066799
-24.083838 -67.429039 -39.360094
-23.271965 -66.644107 -40.895548
-23.173645 -67.960316 -40.066799
-23.406259 -63.902591 -42.592417
-24.469561 -61.970509 -42.867836
-37.244433 -38.200784 -43.544863
-37.642696 -38.053648 -42.664183
-37.784754 -36.397374 -43.739674
-23.162911 -42.527945 -52.820978
-23.260428 -44.313009 -52.057724
-24.186631 -42.3373 -52.598303
-23.0583 -40.643847 -53.563982
-23.162911 -42.527945 -52.820978
-22.427118 -35.397494 -55.723589
-22.676924 -37.148419 -54.990925
-23.54676 -35.189333 -55.611216
-22.239359 -33.561076 -56.422066
-22.427118 -35.397494 -55.723589
-15.150088 -7.867161 -66.182839
-15.917307 -9.25647 -65.702682
-16.112445 -7.495287 -66.453056
-14.462575 -6.478671 -66.644516
-14.267437 -8.239855 -65.894142
-15.150088 -7.867161 -66.182839
-16.765217 23.403643 -71.499085
-17.775824 22.597492 -71.560604
-9.846946 24.101932 -70.926567
-10.813339 24.797681 -70.906181
-9.85635 25.14439 -70.445999
-6.03377 15.195595 -70.302925
-6.83401 14.857551 -70.777432
-6.784002 16.142117 -70.813449
-29.766705 -62.760784 -33.124199
-30.224302 -62.293859 -32.161892
-30.539471 -61.215685 -33.200123
-29.196873 -63.422672 -33.974224
-28.881704 -64.500847 -32.935993
-29.766705 -62.760784 -33.124199
-36.90455 -25.06971 -52.15102
-37.509864 -24.875367 -51.376896
-37.317896 -23.277215 -52.364945
-31.997186 2.962294 -64.698692
-32.747419 1.289839 -63.848581
-10.271833 1.917943 -69.087509
-11.037909 2.733572 -69.583504
-10.315741 3.60825 -69.692955
-10.154419 -2.734657 -67.235164
-10.184586 -1.156211 -67.885243
-10.77332 -3.759578 -66.996311
-10.154419 -2.734657 -67.235164
-35.548925 -49.448742 -34.871967
-36.131588 -47.813326 -35.043917
-35.205975 -49.934498 -35.743309
-34.907167 -51.151211 -34.631786
-35.548925 -49.448742 -34.871967
-37.375065 -31.805894 -47.877764
-37.87178 -31.57137 -47.088763
-37.884785 -29.870667 -48.113506
-24.627865 -55.873817 -46.218302
-25.595729 -55.516333 -45.761364
-25.571496 -53.945311 -46.59442
-23.600148 -56.315357 -46.650355
-24.627865 -55.873817 -46.218302
-19.00977 -26.481126 -59.181568
-19.591867 -24.605548 -59.942177
-18.617309 -24.824425 -59.808434
-19.265761 -28.360143 -58.504585
-19.00977 -26.481126 -59.181568
-35.639887 -7.504205 -59.482428
-36.075998 -9.213648 -58.58539
-34.898972 -7.424489 -60.328867
-35.639887 -7.504205 -59.482428
-35.16973 -5.617178 -60.3867
-23.937945 19.038062 -69.800411
-22.920246 20.07771 -70.125706
-23.896517 17.807207 -70.148853
-24.983933 17.939696 -69.396965
-23.937945 19.038062 -69.800411
-7.89468 8.703449 -70.344071
-8.724199 8.190016 -70.557857
-8.671238 9.594151 -70.882412
-7.89468 8.703449 -70.344071
-7.160542 9.281302 -70.109139
-25.489074 -60.035291 -43.157657
-24.469561 -61.970509 -42.867836
-25.505748 -61.392305 -42.285179
-37.836893 -34.812638 -44.908869
-37.784754 -36.397374 -43.739674
-14.717654 24.698484 -71.242718
-15.741707 24.066804 -71.41161
-15.688959 25.155315 -70.883736
-13.766571 24.249502 -71.496574
-14.717654 24.698484 -71.242718
-13.713822 25.338013 -70.9687
-31.780118 -59.038433 -32.451176
-31.422128 -60.083862 -31.398623
-32.205179 -58.373535 -31.611984
-37.096449 -21.624869 -53.377099
-37.317896 -23.277215 -52.364945
-31.317306 8.049232 -65.468952
-30.562022 9.600538 -66.111934
-31.264277 6.381905 -65.538131
-31.317306 8.049232 -65.468952
-30.362999 6.432994 -66.30619
-31.193867 4.668909 -65.519882
-31.264277 6.381905 -65.538131
-36.420448 -46.558515 -36.160995
-36.131588 -47.813326 -35.043917
-23.467385 -49.516621 -49.845356
-23.408493 -47.833065 -50.560575
-18.266441 -22.97815 -60.476103
-18.783857 -21.069448 -61.277265
-17.850892 -21.098751 -61.184326
-18.617309 -24.824425 -59.808434
-18.266441 -22.97815 -60.476103
-8.957925 25.527794 -69.926338
-9.85635 25.14439 -70.445999
-8.09075 24.856786 -69.869232
-8.957925 25.527794 -69.926338
-7.265204 24.152275 -69.715667
-8.06441 23.74413 -70.312821
-8.09075 24.856786 -69.869232
-6.411414 23.321861 -69.495503
-7.265204 24.152275 -69.715667
-6.437753 24.434517 -69.051914
-32.876086 -56.854408 -31.7139
-32.205179 -58.373535 -31.611984
-33.274681 -55.637829 -32.917896
-32.876086 -56.854408 -31.7139
-33.587599 -55.164131 -31.96726
-37.254362 -14.51292 -55.671404
-37.534604 -16.326871 -54.700136
-36.626064 -14.570806 -56.504467
-37.254362 -14.51292 -55.671404
-36.930754 -12.799879 -56.598837
-35.835792 -11.084641 -58.428247
-36.542662 -10.986772 -57.589042
-36.075998 -9.213648 -58.58539
-27.968396 14.026315 -67.913326
-26.99072 15.382434 -68.468921
-27.867361 12.636648 -68.171001
-28.867495 12.587741 -67.352303
-27.968396 14.026315 -67.913326
-9.498673 4.424309 -69.720802
-10.315741 3.60825 -69.692955
-10.26475 5.239938 -70.216797
-8.697662 6.677656 -70.13208
-9.47422 7.568357 -70.670422
-8.724199 8.190016 -70.557857
-8.762443 5.221308 -69.712215
-8.697662 6.677656 -70.13208
-9.498673 4.424309 -69.720802
-8.762443 5.221308 -69.712215
-26.131423 -67.984848 -35.305064
-26.80123 -67.429493 -34.395764
-26.131423 -67.984848 -35.305064
-26.284498 -66.952008 -36.260005
-25.753486 -66.290134 -37.979135
-26.473921 -65.862458 -37.209389
-26.735228 -64.539028 -38.108496
-25.753486 -66.290134 -37.979135
-24.985159 -66.792862 -38.703293
-23.409007 -65.188339 -41.797305
-23.271965 -66.644107 -40.895548
-24.349193 -64.78329 -41.093602
-23.409007 -65.188339 -41.797305
-23.406259 -63.902591 -42.592417
-38.045019 -40.201749 -38.76979
-37.82054 -41.59415 -37.657928
-37.751877 -40.488142 -39.672535
-38.045019 -40.201749 -38.76979
-37.40739 -40.772303 -40.592087
-37.225158 -42.202221 -39.462372
-37.751877 -40.488142 -39.672535
-37.518242 -39.457642 -41.635811
-37.642696 -38.053648 -42.664183
-36.991523 -41.17172 -41.425648
-37.40739 -40.772303 -40.592087
-37.518242 -39.457642 -41.635811
-23.320691 -46.147651 -51.319847
-23.408493 -47.833065 -50.560575
-24.371951 -45.807778 -51.075777
-23.320691 -46.147651 -51.319847
-23.260428 -44.313009 -52.057724
-22.912026 -38.837858 -54.322479
-23.0583 -40.643847 -53.563982
-23.942839 -38.746246 -54.120054
-22.912026 -38.837858 -54.322479
-22.676924 -37.148419 -54.990925
-16.863855 -17.741472 -62.391846
-17.400922 -19.482053 -61.754076
-17.831242 -17.449466 -62.623259
-16.323989 -16.03266 -62.985354
-16.863855 -17.741472 -62.391846
-15.729398 -14.46553 -63.545872
-16.323989 -16.03266 -62.985354
-16.699583 -14.141756 -63.821546
-15.214094 -12.884264 -64.10045
-15.729398 -14.46553 -63.545872
-15.529971 -11.101485 -64.907265
-16.492328 -10.729612 -65.177482
-15.917307 -9.25647 -65.702682
-15.214094 -12.884264 -64.10045
-15.529971 -11.101485 -64.907265
-13.3936 -8.554417 -65.592884
-14.267437 -8.239855 -65.894142
-12.752646 -7.239727 -66.00771
-13.3936 -8.554417 -65.592884
-18.853378 21.652934 -71.537403
-19.935116 20.805093 -71.400204
-17.894978 21.339093 -71.92234
-18.853378 21.652934 -71.537403
-17.775824 22.597492 -71.560604
-15.793913 22.946813 -71.858067
-16.765217 23.403643 -71.499085
-15.741707 24.066804 -71.41161
-11.792741 25.364584 -70.824085
-12.751152 25.917873 -70.620365
-11.783337 24.322127 -71.304653
-11.792741 25.364584 -70.824085
-10.813339 24.797681 -70.906181
-6.901912 13.418258 -70.686192
-7.652145 14.36478 -71.196716
-6.83401 14.857551 -70.777432
-7.004914 12.056722 -70.56385
-6.901912 13.418258 -70.686192
-30.646547 -61.743259 -31.207523
-31.422128 -60.083862 -31.398623
-30.646547 -61.743259 -31.207523
-30.224302 -62.293859 -32.161892
-28.003281 -66.244381 -32.674535
-28.573113 -65.582493 -31.82451
-28.881704 -64.500847 -32.935993
-27.418758 -66.865635 -33.568782
-28.003281 -66.244381 -32.674535
-27.694344 -65.726593 -34.612999
-26.80123 -67.429493 -34.395764
-27.418758 -66.865635 -33.568782
-37.793138 -28.28592 -49.195931
-37.884785 -29.870667 -48.113506
-37.647363 -26.567255 -50.326162
-37.509864 -24.875367 -51.376896
-37.242294 -28.386527 -50.032739
-37.793138 -28.28592 -49.195931
-37.647363 -26.567255 -50.326162
-37.214995 -18.031013 -54.596081
-37.534604 -16.326871 -54.700136
-36.860212 -19.882752 -54.366995
-37.214995 -18.031013 -54.596081
-36.59489 -18.135585 -55.347948
-36.476345 -21.729441 -54.128965
-37.096449 -21.624869 -53.377099
-36.860212 -19.882752 -54.366995
-4.833098 23.749941 -68.129734
-5.558153 24.613958 -68.358219
-4.840889 22.5931 -68.50954
-4.833098 23.749941 -68.129734
-4.861139 21.491328 -68.861385
-5.604213 22.502331 -69.183594
-4.840889 22.5931 -68.50954
-4.952872 20.342478 -69.166363
-4.861139 21.491328 -68.861385
-5.057356 19.121105 -69.452095
-5.728947 20.179187 -69.821171
-4.952872 20.342478 -69.166363
-5.136815 17.919665 -69.612942
-5.057356 19.121105 -69.452095
-5.211982 16.680838 -69.728961
-5.908596 17.718986 -70.222923
-5.136815 17.919665 -69.612942
-5.297646 15.467654 -69.769344
-5.211982 16.680838 -69.728961
-6.03377 15.195595 -70.302925
-5.297646 15.467654 -69.769344
-33.423868 -0.427469 -63.013407
-34.02789 -2.09884 -62.182862
-32.575675 -0.41054 -63.810386
-33.423868 -0.427469 -63.013407
-32.747419 1.289839 -63.848581
-31.095907 3.013383 -65.466751
-31.997186 2.962294 -64.698692
-31.193867 4.668909 -65.519882
-19.980093 19.407139 -71.721935
-20.942678 19.817698 -71.223
-19.935116 20.805093 -71.400204
-12.116441 -5.948847 -66.417618
-12.752646 -7.239727 -66.00771
-12.943719 -5.560486 -66.765728
-10.227892 0.436807 -68.518509
-10.271833 1.917943 -69.087509
-10.950696 -0.549752 -68.344791
-10.227892 0.436807 -68.518509
-10.184586 -1.156211 -67.885243
-11.473382 -4.822996 -66.728366
-11.607451 -3.206188 -67.44358
-10.77332 -3.759578 -66.996311
-12.116441 -5.948847 -66.417618
-11.473382 -4.822996 -66.728366
-34.618156 -52.306504 -33.465851
-34.225714 -53.57271 -32.255206
-34.275206 -52.79226 -34.337193
-34.618156 -52.306504 -33.465851
-34.907167 -51.151211 -34.631786
-37.281405 -43.401531 -37.44066
-37.82054 -41.59415 -37.657928
-36.720609 -45.104301 -37.287846
-37.281405 -43.401531 -37.44066
-37.00885 -43.62083 -38.390005
-36.147894 -46.777815 -37.11034
-36.420448 -46.558515 -36.160995
-36.720609 -45.104301 -37.287846
-37.824678 -33.293681 -46.025202
-37.87178 -31.57137 -47.088763
-37.374275 -35.025553 -45.736687
-37.836893 -34.812638 -44.908869
-37.824678 -33.293681 -46.025202
-25.551387 -58.608511 -44.019628
-25.489074 -60.035291 -43.157657
-26.587574 -58.030307 -43.436972
-25.650993 -57.024183 -44.842095
-26.594623 -55.095676 -45.218212
-25.595729 -55.516333 -45.761364
-25.551387 -58.608511 -44.019628
-25.650993 -57.024183 -44.842095
-23.51842 -51.218699 -49.047091
-24.510789 -49.195268 -49.51824
-23.467385 -49.516621 -49.845356
-23.607808 -52.883642 -48.279331
-23.51842 -51.218699 -49.047091
-23.628712 -54.586366 -47.445023
-24.582729 -52.600071 -47.885666
-23.607808 -52.883642 -48.279331
-23.600148 -56.315357 -46.650355
-23.628712 -54.586366 -47.445023
-21.947541 -31.630322 -57.207219
-22.239359 -33.561076 -56.422066
-23.005138 -31.507654 -57.129033
-20.906672 -31.800725 -57.214241
-21.947541 -31.630322 -57.207219
-21.67245 -29.747304 -57.921208
-19.834798 -31.970618 -57.179257
-20.906672 -31.800725 -57.214241
-19.589388 -30.187871 -57.811045
-20.307953 -28.089978 -58.62177
-19.265761 -28.360143 -58.504585
-19.834798 -31.970618 -57.179257
-19.589388 -30.187871 -57.811045
3 276 70 277
3 278 72 279
3 280 279 70
3 278 279 280
3 281 73 282
3 283 75 284
3 285 284 73
3 283 284 285
3 286 78 287
3 288 287 76
3 286 287 288
3 290 289 78
3 1 81 79
3 1 83 81
3 2 86 84
3 2 88 86
3 2 90 88
3 0 93 91
3 0 95 93
3 291 97 292
3 4 100 98
3 4 102 100
3 5 105 103
3 5 107 105
3 7 110 108
3 7 112 110
3 7 114 112
3 9 117 115
3 9 119 117
3 10 293 294
3 10 295 297
3 295 120 296
3 295 296 297
3 10 122 120
3 11 125 123
3 11 127 125
3 3 130 128
3 12 133 131
3 12 135 133
3 12 137 135
3 13 140 138
3 13 142 140
3 6 145 143
3 14 148 146
3 14 150 148
3 14 152 150
3 8 155 153
3 299 298 156
3 300 158 301
3 302 159 303
3 304 161 305
3 17 162 69
3 17 163 162
3 17 165 163
3 19 166 71
3 19 167 166
3 20 306 307
3 20 308 310
3 308 168 309
3 308 309 310
3 20 170 168
3 22 171 74
3 22 172 171
3 23 175 173
3 25 176 77
3 25 177 176
3 25 179 177
3 26 311 313
3 313 312 180
3 311 312 313
3 27 314 316
3 316 315 80
3 314 315 316
3 27 317 318
3 27 319 320
3 322 321 82
3 29 323 325
3 323 182 324
3 323 324 325
3 29 183 182
3 30 186 184
3 32 187 85
3 32 188 187
3 32 190 188
3 34 191 87
3 34 326 328
3 328 327 191
3 326 327 328
3 34 329 330
3 35 331 333
3 333 332 89
3 331 332 333
3 35 334 335
3 36 194 192
3 38 195 92
3 38 196 195
3 38 197 196
3 39 336 338
3 338 337 94
3 336 337 338
3 39 339 341
3 339 198 340
3 339 340 341
3 342 200 343
3 41 201 96
3 41 202 201
3 15 344 346
3 344 203 345
3 344 345 346
3 42 204 99
3 42 205 204
3 42 206 205
3 43 207 101
3 43 347 349
3 349 348 207
3 347 348 349
3 44 350 352
3 352 351 104
3 350 351 352
3 44 353 355
3 353 208 354
3 353 354 355
3 44 209 208
3 45 210 106
3 45 211 210
3 47 356 358
3 356 212 357
3 356 357 358
3 47 213 212
3 16 214 160
3 48 215 109
3 48 216 215
3 48 217 216
3 49 218 111
3 49 219 218
3 49 221 219
3 51 222 113
3 51 223 222
3 18 224 164
3 52 225 116
3 52 226 225
3 52 227 226
3 53 228 118
3 53 229 228
3 359 230 360
3 54 231 121
3 54 232 231
3 21 233 169
3 55 234 124
3 55 235 234
3 55 236 235
3 56 237 126
3 56 238 237
3 40 239 199
3 57 240 129
3 57 241 240
3 24 242 174
3 58 243 132
3 58 244 243
3 58 245 244
3 59 246 134
3 59 247 246
3 59 248 247
3 60 249 136
3 60 250 249
3 361 251 362
3 363 362 178
3 361 362 363
3 364 252 365
3 367 366 252
3 61 368 369
3 61 370 372
3 370 253 371
3 370 371 372
3 28 254 181
3 62 255 139
3 62 256 255
3 62 257 256
3 63 258 141
3 63 259 258
3 46 373 375
3 373 260 374
3 373 374 375
3 64 261 144
3 64 262 261
3 31 263 185
3 65 264 147
3 65 265 264
3 65 266 265
3 66 267 149
3 66 268 267
3 66 269 268
3 67 376 378
3 378 377 151
3 376 377 378
3 67 379 380
3 33 270 189
3 50 271 220
3 68 272 154
3 68 273 272
3 37 274 193
3 381 275 382
3 383 382 157
3 381 382 383
3 385 384 275
3 386 69 387
3 70 388 390
3 388 69 389
3 388 389 390
3 70 17 69
3 70 71 17
3 72 71 70
3 72 19 71
3 73 391 392
3 73 393 395
3 393 20 394
3 393 394 395
3 73 74 20
3 75 74 73
3 75 22 74
3 76 77 23
3 78 77 76
3 78 25 77
3 78 396 398
3 398 397 25
3 396 397 398
3 400 399 78
3 79 80 26
3 81 80 79
3 81 27 80
3 81 82 27
3 83 82 81
3 83 401 403
3 403 402 82
3 401 402 403
3 404 29 405
3 84 85 30
3 86 85 84
3 86 32 85
3 86 87 32
3 88 87 86
3 88 34 87
3 88 89 34
3 90 89 88
3 90 35 89
3 91 92 36
3 93 92 91
3 93 38 92
3 93 94 38
3 95 94 93
3 95 39 94
3 406 96 407
3 406 407 408
3 97 409 411
3 409 96 410
3 409 410 411
3 97 41 96
3 98 99 15
3 100 99 98
3 100 42 99
3 100 101 42
3 102 101 100
3 102 43 101
3 103 412 414
3 412 104 413
3 412 413 414
3 105 104 103
3 105 44 104
3 105 106 44
3 107 106 105
3 107 45 106
3 415 47 416
3 108 109 16
3 110 109 108
3 110 48 109
3 110 111 48
3 112 111 110
3 112 49 111
3 112 113 49
3 114 113 112
3 114 51 113
3 115 116 18
3 117 116 115
3 117 52 116
3 117 118 52
3 119 118 117
3 119 53 118
3 120 417 418
3 120 419 420
3 120 421 423
3 421 121 422
3 421 422 423
3 122 121 120
3 122 54 121
3 123 124 21
3 125 124 123
3 125 55 124
3 125 126 55
3 127 126 125
3 127 56 126
3 128 129 40
3 130 129 128
3 130 57 129
3 131 132 24
3 133 132 131
3 133 58 132
3 133 134 58
3 135 134 133
3 135 59 134
3 135 136 59
3 137 136 135
3 137 60 136
3 424 61 425
3 138 139 28
3 140 139 138
3 140 62 139
3 140 141 62
3 142 141 140
3 142 63 141
3 143 144 46
3 145 144 143
3 145 64 144
3 146 147 31
3 148 147 146
3 148 65 147
3 148 149 65
3 150 149 148
3 150 66 149
3 150 151 66
3 152 151 150
3 152 67 151
3 427 426 33
3 153 154 50
3 155 154 153
3 155 68 154
3 156 157 37
3 428 157 429
3 430 429 156
3 428 429 430
3 432 431 157
3 433 15 434
3 435 15 436
3 437 98 438
3 439 438 15
3 437 438 439
3 158 440 442
3 440 98 441
3 440 441 442
3 158 4 98
3 443 103 444
3 159 445 447
3 445 103 446
3 445 446 447
3 159 5 103
3 448 160 449
3 161 450 452
3 450 160 451
3 450 451 452
3 161 16 160
3 69 453 455
3 453 161 454
3 453 454 455
3 162 161 69
3 162 16 161
3 162 108 16
3 163 108 162
3 163 7 108
3 163 164 7
3 165 164 163
3 165 18 164
3 71 165 17
3 166 165 71
3 166 18 165
3 166 115 18
3 167 115 166
3 167 9 115
3 168 456 457
3 168 458 460
3 458 10 459
3 458 459 460
3 168 169 10
3 170 169 168
3 170 21 169
3 74 170 20
3 171 170 74
3 171 21 170
3 171 123 21
3 172 123 171
3 172 11 123
3 173 174 3
3 175 174 173
3 175 24 174
3 77 175 23
3 176 175 77
3 176 24 175
3 176 131 24
3 177 131 176
3 177 12 131
3 177 178 12
3 179 178 177
3 179 461 463
3 463 462 178
3 461 462 463
3 464 179 465
3 466 465 25
3 464 465 466
3 467 179 468
3 470 469 179
3 180 471 472
3 474 473 180
3 80 475 477
3 477 476 26
3 475 476 477
3 479 478 80
3 82 480 482
3 482 481 27
3 480 481 482
3 484 483 82
3 485 181 486
3 487 181 488
3 489 28 490
3 491 490 181
3 489 490 491
3 182 492 493
3 182 494 496
3 494 28 495
3 494 495 496
3 182 138 28
3 183 138 182
3 183 13 138
3 184 185 6
3 186 185 184
3 186 31 185
3 85 186 30
3 187 186 85
3 187 31 186
3 187 146 31
3 188 146 187
3 188 14 146
3 188 189 14
3 190 189 188
3 190 33 189
3 87 190 32
3 191 190 87
3 191 33 190
3 191 497 499
3 499 498 33
3 497 498 499
3 501 500 191
3 89 502 504
3 504 503 34
3 502 503 504
3 506 505 89
3 192 193 8
3 194 193 192
3 194 37 193
3 92 194 36
3 195 194 92
3 195 37 194
3 195 156 37
3 196 156 195
3 196 507 509
3 509 508 156
3 507 508 509
3 196 510 511
3 197 512 514
3 514 513 196
3 512 513 514
3 197 515 516
3 94 197 38
3 517 197 518
3 519 518 94
3 517 518 519
3 521 520 197
3 198 522 523
3 198 524 525
3 526 199 527
3 200 528 530
3 528 199 529
3 528 529 530
3 200 40 199
3 96 531 533
3 531 200 532
3 531 532 533
3 201 200 96
3 201 40 200
3 201 128 40
3 202 128 201
3 202 3 128
3 534 97 535
3 203 536 538
3 536 97 537
3 536 537 538
3 203 41 97
3 99 203 15
3 204 203 99
3 204 41 203
3 204 202 41
3 205 202 204
3 205 3 202
3 205 173 3
3 206 173 205
3 206 23 173
3 101 206 42
3 207 206 101
3 207 23 206
3 207 76 23
3 539 76 540
3 541 540 207
3 539 540 541
3 543 542 76
3 104 544 545
3 547 546 104
3 208 548 550
3 548 549 550
3 208 551 552
3 208 553 555
3 553 180 554
3 553 554 555
3 209 180 208
3 209 26 180
3 106 209 44
3 210 209 106
3 210 26 209
3 210 79 26
3 211 79 210
3 211 1 79
3 556 46 557
3 212 558 559
3 212 560 562
3 560 46 561
3 560 561 562
3 212 143 46
3 213 143 212
3 213 6 143
3 160 563 564
3 214 565 567
3 567 566 160
3 565 566 567
3 214 568 570
3 568 47 569
3 568 569 570
3 109 214 16
3 215 214 109
3 215 47 214
3 215 213 47
3 216 213 215
3 216 6 213
3 216 184 6
3 217 184 216
3 217 30 184
3 111 217 48
3 218 217 111
3 218 30 217
3 218 84 30
3 219 84 218
3 219 2 84
3 219 220 2
3 221 220 219
3 221 50 220
3 113 221 49
3 222 221 113
3 222 50 221
3 222 153 50
3 223 153 222
3 223 8 153
3 164 114 7
3 224 114 164
3 224 51 114
3 116 224 18
3 225 224 116
3 225 51 224
3 225 223 51
3 226 223 225
3 226 8 223
3 226 192 8
3 227 192 226
3 227 36 192
3 118 227 52
3 228 227 118
3 228 36 227
3 228 91 36
3 229 91 228
3 229 0 91
3 571 158 572
3 573 158 574
3 575 4 576
3 577 576 158
3 575 576 577
3 578 4 579
3 580 102 581
3 582 581 4
3 580 581 582
3 583 102 584
3 585 43 586
3 587 586 102
3 585 586 587
3 588 43 589
3 591 590 43
3 592 72 593
3 230 594 596
3 594 72 595
3 594 595 596
3 230 19 72
3 121 597 599
3 597 230 598
3 597 598 599
3 231 230 121
3 231 19 230
3 231 167 19
3 232 167 231
3 232 9 167
3 169 122 10
3 233 122 169
3 233 54 122
3 124 233 21
3 234 233 124
3 234 54 233
3 234 232 54
3 235 232 234
3 235 9 232
3 235 119 9
3 236 119 235
3 236 53 119
3 126 236 55
3 237 236 126
3 237 53 236
3 237 229 53
3 238 229 237
3 238 0 229
3 199 600 602
3 600 75 601
3 600 601 602
3 239 75 199
3 239 22 75
3 129 239 40
3 240 239 129
3 240 22 239
3 240 172 22
3 241 172 240
3 241 11 172
3 174 130 3
3 242 130 174
3 242 57 130
3 132 242 24
3 243 242 132
3 243 57 242
3 243 241 57
3 244 241 243
3 244 11 241
3 244 127 11
3 245 127 244
3 245 56 127
3 134 245 58
3 246 245 134
3 246 56 245
3 246 238 56
3 247 238 246
3 247 0 238
3 247 95 0
3 248 95 247
3 248 39 95
3 136 248 59
3 249 248 136
3 249 39 248
3 249 198 39
3 250 198 249
3 250 603 605
3 605 604 198
3 603 604 605
3 178 137 12
3 251 137 178
3 251 60 137
3 606 251 607
3 252 608 610
3 608 251 609
3 608 609 610
3 252 60 251
3 252 250 60
3 611 250 612
3 613 612 252
3 611 612 613
3 615 614 250
3 616 159 617
3 253 618 620
3 618 159 619
3 618 619 620
3 253 5 159
3 181 621 622
3 254 623 625
3 625 624 181
3 623 624 625
3 254 626 628
3 626 61 627
3 626 627 628
3 139 254 28
3 255 254 139
3 255 61 254
3 255 253 61
3 256 253 255
3 256 5 253
3 256 107 5
3 257 107 256
3 257 45 107
3 141 257 62
3 258 257 141
3 258 45 257
3 258 211 45
3 259 211 258
3 259 1 211
3 260 629 630
3 260 631 633
3 631 29 632
3 631 632 633
3 144 260 46
3 261 260 144
3 261 29 260
3 261 183 29
3 262 183 261
3 262 13 183
3 185 145 6
3 263 145 185
3 263 64 145
3 147 263 31
3 264 263 147
3 264 64 263
3 264 262 64
3 265 262 264
3 265 13 262
3 265 142 13
3 266 142 265
3 266 63 142
3 149 266 65
3 267 266 149
3 267 63 266
3 267 259 63
3 268 259 267
3 268 1 259
3 268 83 1
3 269 83 268
3 269 634 636
3 636 635 83
3 634 635 636
3 151 269 66
3 637 269 638
3 639 638 151
3 637 638 639
3 641 640 269
3 189 152 14
3 270 152 189
3 270 67 152
3 642 270 643
3 644 643 33
3 642 643 644
3 645 270 646
3 647 67 648
3 649 648 270
3 647 648 649
3 651 650 67
3 220 90 2
3 271 90 220
3 271 35 90
3 154 271 50
3 272 271 154
3 272 35 271
3 272 652 654
3 654 653 35
3 652 653 654
3 273 655 657
3 657 656 272
3 655 656 657
3 273 658 659
3 193 155 8
3 274 155 193
3 274 68 155
3 157 274 37
3 275 274 157
3 275 68 274
3 275 273 68
3 660 273 661
3 662 661 275
3 660 661 662
3 664 663 273
