ply
format ascii 1.0
element vertex 603
property float x
property float y
property float z
element face 730
property list uchar int vertex_index
end_header
13.532147 -51.377697 -35.660637
21.678465 -61.216187 -22.449066
21.036343 -80.659645 -29.918488
23.400646 -51.765026 -18.603907
22.637928 -62.316193 -15.783028
23.773378 -92.018265 -26.208733
7.855089 -79.010498 -40.830818
15.805842 -43.734325 -31.982767
7.138631 -42.793209 -42.071037
18.892061 -98.976685 -30.916515
20.639816 -48.63665 -25.30826
18.739723 -57.543106 -29.198486
21.651636 -70.981628 -25.821669
17.440735 -66.569321 -32.810265
17.252338 -88.233322 -34.59193
14.103431 -74.049858 -36.925785
10.640833 -58.37178 -39.203419
14.648417 -47.624504 -33.821999
12.920426 -40.419186 -35.197998
11.748159 -43.88327 -36.968464
8.608932 -39.946793 -40.341503
10.361174 -47.234612 -38.87606
22.236986 -56.401718 -20.641214
22.289967 -50.241726 -21.904734
21.134211 -54.892719 -24.017714
19.476191 -53.069351 -27.375044
20.544273 -59.824017 -25.824524
23.17131 -82.189667 -25.923258
23.034094 -77.107491 -23.987877
21.636419 -76.181923 -27.824862
19.932846 -69.351608 -29.514053
19.293419 -73.820496 -31.444805
18.143841 -93.998917 -33.185284
13.813268 -90.627289 -36.811958
6.49202 -71.121994 -41.80257
11.434577 -77.039612 -38.915081
9.716108 -69.168526 -39.992256
12.324917 -66.329567 -38.05328
8.233278 -61.277424 -41.027729
6.755357 -53.280136 -42.250496
22.952147 -57.362556 -17.185793
22.295982 -61.916527 -19.107161
24.453213 -87.295349 -23.877806
22.505613 -86.552544 -28.261347
8.71762 -85.589378 -39.954773
17.379654 -39.698597 -30.032179
3.943786 -37.333996 -45.444675
20.021055 -42.115612 -26.681282
18.337561 -46.316967 -28.834953
17.258169 -50.660244 -30.653603
16.378572 -54.726231 -32.434322
22.274584 -67.03492 -20.700199
22.627277 -72.012764 -22.16721
21.553137 -65.976151 -24.119213
20.265797 -64.835007 -27.601389
18.25127 -62.401558 -30.920311
15.535528 -59.183659 -34.183075
21.933172 -96.032173 -28.613262
20.886423 -90.688004 -30.78466
19.503742 -84.721771 -32.366146
12.844696 -84.257057 -37.918404
15.753562 -81.571762 -35.857796
17.90452 -78.139366 -33.665016
16.036272 -70.574142 -34.921654
14.101505 -62.792057 -36.221325
12.265871 -54.922184 -37.46051
8.745481 -50.29435 -40.653225
14.156552 -49.671257 -34.694786
13.262482 -46.099277 -35.378105
12.653308 -47.618698 -36.290611
11.126179 -45.569462 -37.871342
11.962225 -49.205231 -37.261276
21.880541 -58.955822 -21.582985
21.759766 -55.810242 -22.289986
21.386349 -58.164059 -23.314629
20.767397 -57.406273 -24.99218
21.196968 -60.445435 -24.081841
22.200224 -81.398354 -27.982996
22.446014 -79.288651 -26.878159
21.443928 -78.399216 -28.803223
20.555534 -75.162918 -29.707296
20.186842 -77.435219 -30.719343
14.075429 -93.456818 -36.158997
11.801255 -91.563698 -37.727577
5.79713 -67.195511 -42.30468
8.152143 -70.190788 -40.939384
7.41484 -66.076859 -41.446491
9.032491 -65.401031 -40.448307
6.889623 -62.222946 -41.857174
6.08135 -58.24662 -42.497791
22.776293 -59.869919 -16.436302
22.540543 -59.634197 -18.15189
22.483257 -62.184807 -17.453663
24.285315 -89.647827 -24.907574
23.597586 -87.086685 -26.113365
23.187029 -89.526337 -27.297705
16.547457 -41.739803 -30.999741
15.851645 -38.415821 -31.778559
15.167526 -40.38435 -32.573818
11.421333 -38.734562 -36.847416
7.885916 -41.199341 -41.234653
7.117887 -37.484047 -41.974739
6.379678 -38.88158 -42.845222
4.901145 -36.340462 -44.513298
5.505625 -40.126881 -43.747276
21.517502 -49.343334 -23.64967
22.246763 -47.143532 -22.621958
21.335327 -46.282696 -24.351988
20.332556 -45.358818 -26.004982
19.144764 -44.262833 -27.73498
19.565653 -47.380318 -27.07501
19.145056 -55.430168 -28.188227
18.397444 -51.849964 -29.069744
18.077032 -54.276741 -29.840096
16.916779 -53.01136 -31.425356
17.667986 -56.526627 -30.803358
22.422615 -66.839958 -18.945271
22.349369 -74.245453 -24.971119
22.820606 -74.555046 -23.137064
22.252926 -71.824875 -23.977264
22.096279 -69.123871 -23.136951
21.619335 -68.585159 -24.901207
20.947493 -65.359962 -25.954071
20.955416 -67.951385 -26.764933
18.794392 -68.139534 -31.178839
19.138132 -66.012291 -30.191189
17.959534 -64.593384 -31.777885
16.974285 -60.902557 -32.555092
16.530275 -63.120056 -33.477154
20.750521 -99.855156 -28.508131
20.586288 -97.644356 -29.752237
17.760523 -91.137077 -33.945873
19.698177 -92.53231 -31.953432
19.155113 -89.58297 -32.772057
20.358459 -87.921387 -31.480829
18.563049 -86.624626 -33.426643
8.310672 -82.360535 -40.418266
10.970663 -85.010719 -38.942871
10.376194 -81.530396 -39.447105
12.805209 -75.720886 -37.979942
13.670065 -79.520462 -37.423168
14.787045 -77.714539 -36.527515
16.854282 -79.923065 -34.833282
16.058691 -76.370216 -35.361721
16.937239 -74.364693 -34.345654
15.206796 -72.57811 -35.888271
11.432717 -62.536251 -38.662495
13.266739 -64.676933 -37.165009
12.364466 -60.653931 -37.767826
13.277717 -58.938858 -36.74316
11.526135 -56.698471 -38.331581
10.574135 -52.792248 -39.027271
9.57785 -54.305981 -40.006474
5.923331 -49.056782 -43.030109
15.16262 -45.552044 -32.937275
14.406464 -42.161774 -33.566406
13.813068 -44.092342 -34.470181
12.368957 -42.292072 -36.044189
10.793152 -40.314251 -37.755791
9.27484 -38.354111 -39.426334
10.1569 -41.87167 -38.666405
9.608177 -43.67445 -39.447334
8.701573 -44.847233 -40.510189
22.766785 -54.02755 -19.568815
22.897108 -51.002113 -20.268705
22.250095 -53.418587 -21.287924
21.642296 -52.532997 -22.98414
20.90201 -51.796303 -24.649797
19.986969 -50.811054 -26.382225
20.383471 -54.18354 -25.695969
20.024824 -56.528774 -26.60984
19.742449 -58.883099 -27.501011
23.827129 -82.248169 -23.88983
23.689411 -79.701042 -22.909239
23.129898 -79.455345 -24.970608
22.432802 -76.75029 -25.944645
21.699568 -73.621979 -26.770357
20.88813 -70.281097 -27.716372
20.837076 -72.731453 -28.57575
19.763641 -71.83403 -30.363121
18.372461 -70.256142 -32.14423
18.52389 -96.644463 -32.170563
16.43347 -95.193832 -34.247803
16.12274 -92.543304 -35.033203
15.693545 -89.600632 -35.711399
7.065114 -74.978462 -41.381111
9.519958 -77.758293 -40.027882
8.949964 -74.299194 -40.414776
10.490581 -73.084496 -39.506184
11.982602 -71.8498 -38.478333
13.176112 -70.139008 -37.504005
11.101586 -67.688019 -39.028275
10.254048 -63.871845 -39.600864
9.51198 -59.884964 -40.130661
8.62503 -55.781155 -40.805847
7.523223 -57.318996 -41.592793
23.186405 -54.625473 -17.840336
22.643188 -56.737835 -18.936117
22.262434 -59.287651 -19.842857
22.028135 -61.669128 -20.825319
23.814219 -84.750809 -24.946613
22.931929 -84.334648 -27.057812
21.768465 -83.598663 -29.152685
9.241844 -89.079773 -39.27412
6.591212 -86.123589 -40.696289
6.093514 -82.686996 -41.298622
5.690963 -79.178207 -41.764179
5.238058 -75.62394 -42.181332
4.533722 -71.737343 -42.697124
13.617902 -38.886517 -34.284988
18.81596 -41.002125 -28.281618
17.92997 -42.95763 -29.326683
17.156937 -45.125889 -30.3629
18.906071 -49.640392 -28.1276
17.759203 -48.494991 -29.747595
16.473492 -47.012867 -31.381731
15.991785 -49.131744 -32.238316
15.551397 -51.215469 -33.086987
15.016281 -53.224113 -34.052525
22.38938 -64.559486 -18.143795
22.220098 -64.348541 -19.86335
21.963045 -64.051598 -21.558155
22.410927 -69.385307 -21.413363
21.974867 -66.4216 -22.380699
21.573425 -63.47839 -23.282867
21.061031 -62.961296 -24.969612
20.347925 -62.205681 -26.755219
19.522537 -61.241806 -28.390268
20.096495 -66.996529 -28.57312
19.375645 -63.795258 -29.241579
18.563292 -60.185192 -29.968857
17.342272 -58.575344 -31.637726
15.989229 -57.094936 -33.310432
14.560484 -55.176296 -34.868374
23.055128 -94.144424 -27.335508
20.121916 -95.193756 -31.021931
21.447741 -93.571518 -29.784519
22.427111 -91.565109 -28.615395
21.87327 -88.848869 -29.47452
21.110649 -85.871101 -30.406586
20.326231 -82.730484 -31.202255
11.229692 -88.307396 -38.50069
13.385438 -87.629906 -37.391388
15.112394 -86.497345 -36.323627
12.087263 -80.644897 -38.478718
14.424596 -83.097122 -36.891537
16.539288 -85.125084 -35.252239
17.759859 -83.391434 -34.133255
18.724796 -81.344254 -33.02639
19.656528 -79.544533 -31.745554
18.644125 -75.951767 -32.597649
17.752005 -72.461334 -33.237125
16.935999 -68.805519 -33.74292
14.235209 -68.660728 -36.519436
15.155871 -66.813507 -35.48703
15.914079 -65.019348 -34.471607
14.948956 -61.156322 -35.134014
13.968444 -57.097164 -35.796661
13.024535 -53.338371 -36.469334
11.393695 -51.048897 -38.063885
9.663605 -48.875103 -39.71817
8.013909 -46.544407 -41.260216
7.74319 -51.684963 -41.522549
6.955364 -47.733383 -42.227757
6.214614 -43.944897 -42.961224
10.648022 -91.791493 -38.158304
11.953651 -92.991089 -37.322086
6.349576 -64.669001 -42.092479
6.605985 -66.636185 -41.875585
5.54072 -65.228327 -42.521574
6.086967 -62.742044 -42.297821
7.152232 -64.149902 -41.651832
6.349576 -64.669001 -42.092479
5.750119 -60.805689 -42.578066
6.086967 -62.742044 -42.297821
22.70711 -61.093056 -16.109665
22.866396 -60.002661 -15.651312
22.797213 -61.225798 -15.324675
24.029347 -90.833046 -25.558153
24.552506 -90.827156 -24.316778
24.296537 -92.012375 -24.967358
10.998411 -37.12644 -37.241514
10.658674 -37.769155 -37.69509
23.577675 -50.154194 -18.839475
23.849176 -50.587806 -17.950221
15.506588 -95.734139 -34.675041
16.551552 -96.542068 -33.717545
5.780876 -56.251829 -42.78859
5.040942 -56.713997 -43.210285
23.250823 -56.20138 -16.660564
23.087863 -57.509048 -16.348845
23.069276 -55.994014 -17.513064
23.367953 -54.832838 -16.987835
23.250823 -56.20138 -16.660564
24.788726 -87.24392 -22.663139
24.780224 -88.466202 -23.183143
24.462344 -86.034202 -23.311445
24.788726 -87.24392 -22.663139
24.133716 -86.023079 -24.412209
24.142847 -84.761933 -23.845849
24.462344 -86.034202 -23.311445
5.378426 -86.184868 -41.02903
6.722276 -87.696575 -40.377804
4.814234 -81.184162 -41.894968
5.011952 -82.942195 -41.615114
4.612959 -79.429767 -42.127747
5.892238 -80.932602 -41.531401
4.814234 -81.184162 -41.894968
3.96836 -74.05479 -42.791058
4.126329 -75.815033 -42.597441
3.616192 -72.111492 -43.048954
4.88589 -73.680642 -42.439228
3.96836 -74.05479 -42.791058
17.106945 -38.14689 -30.40525
17.868733 -38.79303 -29.522861
15.602308 -36.89069 -32.096698
15.110707 -37.850506 -32.594003
8.227415 -38.12668 -40.691033
8.56037 -37.33034 -40.233448
8.941886 -39.150452 -39.883919
6.744524 -35.817516 -42.383391
6.354616 -36.288297 -42.864247
3.684321 -35.550596 -45.86296
4.163 -35.05383 -45.397272
4.422465 -36.837229 -44.978986
3.209684 -36.075322 -46.286952
3.684321 -35.550596 -45.86296
22.684293 -48.989345 -21.379401
22.987863 -49.369539 -20.561386
22.593538 -50.62192 -21.08672
22.700093 -45.962294 -22.064662
22.246526 -45.567312 -22.919339
20.534165 -40.984235 -26.1299
20.592203 -42.642042 -25.839442
19.904043 -40.504223 -26.971888
20.534165 -40.984235 -26.1299
19.418508 -41.558869 -27.48145
19.301496 -39.94748 -27.772057
19.904043 -40.504223 -26.971888
22.462753 -65.775329 -17.648578
22.445732 -64.515583 -17.34926
23.226993 -77.078496 -23.008195
23.554651 -78.375271 -22.468876
23.361753 -78.404267 -23.448558
22.887308 -73.32095 -21.701193
22.983973 -74.592091 -22.18612
22.723942 -73.283905 -22.652137
22.734257 -71.964737 -21.293794
22.887308 -73.32095 -21.701193
22.519102 -70.699036 -21.790287
22.626083 -70.651008 -20.916871
22.734257 -71.964737 -21.293794
22.667985 -96.308521 -27.373518
22.142411 -97.186234 -27.887817
22.49415 -95.088299 -27.974385
23.228963 -95.364646 -26.734641
22.667985 -96.308521 -27.373518
6.04702 -46.310684 -43.046768
6.439348 -48.395083 -42.628933
5.531003 -46.972383 -43.447945
5.676645 -44.416441 -43.413502
6.584989 -45.83914 -42.59449
6.04702 -46.310684 -43.046768
5.360718 -42.545013 -43.801743
5.676645 -44.416441 -43.413502
13.090739 -93.937649 -36.537796
14.327567 -94.865632 -35.630639
12.938342 -92.510258 -36.943287
13.090739 -93.937649 -36.537796
11.953651 -92.991089 -37.322086
5.345982 -58.817526 -42.898375
6.485487 -60.234783 -42.177482
5.750119 -60.805689 -42.578066
5.040942 -56.713997 -43.210285
5.345982 -58.817526 -42.898375
22.999936 -58.76273 -15.9741
22.866396 -60.002661 -15.651312
22.86422 -58.616237 -16.811048
23.087863 -57.509048 -16.348845
22.999936 -58.76273 -15.9741
24.696275 -89.642441 -23.698027
24.552506 -90.827156 -24.316778
24.369264 -88.471588 -24.39269
24.780224 -88.466202 -23.183143
24.696275 -89.642441 -23.698027
14.768648 -38.83477 -32.991633
15.110707 -37.850506 -32.594003
15.509586 -39.400086 -32.176189
11.742176 -37.926462 -36.413746
12.491723 -38.768774 -35.589037
12.17088 -39.576874 -36.022707
11.742176 -37.926462 -36.413746
10.998411 -37.12644 -37.241514
5.985512 -36.987064 -43.299488
6.354616 -36.288297 -42.864247
6.748782 -38.182813 -42.409981
5.640411 -37.611021 -43.67926
5.246245 -35.716505 -44.133526
5.985512 -36.987064 -43.299488
21.790807 -45.136894 -23.784354
22.246526 -45.567312 -22.919339
21.791045 -46.713114 -23.486973
21.249339 -44.725584 -24.674795
21.790807 -45.136894 -23.784354
20.747954 -44.263645 -25.501292
21.249339 -44.725584 -24.674795
20.833942 -45.820757 -25.178485
20.176806 -43.737215 -26.343132
20.592203 -42.642042 -25.839442
20.747954 -44.263645 -25.501292
22.554105 -68.062549 -18.414374
22.479371 -66.915565 -18.049317
22.516701 -68.152874 -19.245826
22.554105 -68.062549 -18.414374
22.442686 -68.250355 -20.12329
22.348599 -66.937439 -19.822735
22.516701 -68.152874 -19.245826
21.551085 -99.097725 -27.835252
21.586449 -100.160152 -27.144666
21.468969 -97.992325 -28.457305
21.551085 -99.097725 -27.835252
20.668405 -98.749756 -29.130184
21.25973 -96.838265 -29.182749
22.142411 -97.186234 -27.887817
21.468969 -97.992325 -28.457305
5.330445 -49.603323 -43.428348
6.339344 -51.168459 -42.640303
5.746458 -51.715 -43.038542
5.010171 -47.614403 -43.808107
5.330445 -49.603323 -43.428348
5.531003 -46.972383 -43.447945
5.010171 -47.614403 -43.808107
22.719217 -62.285677 -14.958716
22.797213 -61.225798 -15.324675
24.052402 -93.192737 -25.501297
24.296537 -92.012375 -24.967358
10.344583 -38.559 -38.149277
10.658674 -37.769155 -37.69509
11.107242 -39.524406 -37.301603
10.033996 -39.334181 -38.591062
9.585427 -37.57893 -38.984549
10.344583 -38.559 -38.149277
23.75827 -80.974605 -23.399535
24.005932 -80.910247 -22.291989
24.074791 -82.183811 -22.782285
17.596762 -97.267384 -32.678925
18.707976 -97.810574 -31.543539
17.780848 -98.433495 -32.051901
17.47868 -95.919148 -33.209183
17.596762 -97.267384 -32.678925
16.551552 -96.542068 -33.717545
15.254449 -94.325325 -35.2034
15.506588 -95.734139 -34.675041
14.327567 -94.865632 -35.630639
6.501813 -55.788017 -42.33609
6.802286 -57.782808 -42.045292
5.780876 -56.251829 -42.78859
6.11788 -53.768587 -42.664942
7.13929 -55.299566 -41.921644
6.501813 -55.788017 -42.33609
5.746458 -51.715 -43.038542
6.11788 -53.768587 -42.664942
23.643958 -52.032325 -17.705748
23.849176 -50.587806 -17.950221
23.536838 -53.462549 -17.323963
23.367953 -54.832838 -16.987835
23.293526 -53.19525 -18.222122
23.643958 -52.032325 -17.705748
23.536838 -53.462549 -17.323963
24.149301 -83.510613 -23.317457
24.074791 -82.183811 -22.782285
23.820674 -83.499489 -24.418222
24.149301 -83.510613 -23.317457
24.142847 -84.761933 -23.845849
8.047592 -89.174667 -39.666719
9.368317 -90.54953 -38.931576
7.916528 -87.601681 -39.985205
8.047592 -89.174667 -39.666719
6.722276 -87.696575 -40.377804
5.260801 -84.660492 -41.313947
5.378426 -86.184868 -41.02903
6.342363 -84.405293 -40.997456
5.260801 -84.660492 -41.313947
5.011952 -82.942195 -41.615114
4.352781 -77.592166 -42.388864
4.612959 -79.429767 -42.127747
5.46451 -77.401073 -41.972755
4.352781 -77.592166 -42.388864
4.126329 -75.815033 -42.597441
3.372873 -70.265232 -43.277986
3.616192 -72.111492 -43.048954
4.290868 -69.842476 -42.910238
3.372873 -70.265232 -43.277986
5.270017 -69.534802 -42.462961
5.512871 -71.429668 -42.249847
4.290868 -69.842476 -42.910238
4.922572 -67.57156 -42.714016
6.144575 -69.158752 -42.053625
5.270017 -69.534802 -42.462961
4.671889 -65.579183 -42.948323
4.922572 -67.57156 -42.714016
5.54072 -65.228327 -42.521574
4.671889 -65.579183 -42.948323
16.342941 -37.505503 -31.27844
17.106945 -38.14689 -30.40525
16.615649 -39.057209 -30.905369
16.342941 -37.505503 -31.27844
15.602308 -36.89069 -32.096698
13.993835 -38.085854 -33.847217
14.768648 -38.83477 -32.991633
14.392714 -39.635433 -33.429403
12.840461 -38.002439 -35.132532
13.269164 -39.652851 -34.741493
12.491723 -38.768774 -35.589037
13.277767 -37.256175 -34.62381
12.840461 -38.002439 -35.132532
13.993835 -38.085854 -33.847217
13.277767 -37.256175 -34.62381
8.885987 -36.629946 -39.788356
9.585427 -37.57893 -38.984549
8.885987 -36.629946 -39.788356
8.56037 -37.33034 -40.233448
7.481893 -36.895308 -41.50765
8.227415 -38.12668 -40.691033
7.863409 -38.71542 -41.158121
7.481893 -36.895308 -41.50765
6.744524 -35.817516 -42.383391
4.580657 -34.494644 -44.964655
5.246245 -35.716505 -44.133526
4.580657 -34.494644 -44.964655
4.163 -35.05383 -45.397272
20.807927 -100.875759 -27.70757
21.586449 -100.160152 -27.144666
19.912729 -100.570362 -28.953492
20.807927 -100.875759 -27.70757
18.983499 -100.131126 -30.157684
19.821291 -99.41592 -29.712323
19.912729 -100.570362 -28.953492
17.951056 -99.620239 -31.355243
18.983499 -100.131126 -30.157684
17.780848 -98.433495 -32.051901
17.951056 -99.620239 -31.355243
23.325906 -49.772738 -19.671874
23.577675 -50.154194 -18.839475
23.148877 -51.38357 -19.436306
23.325906 -49.772738 -19.671874
22.987863 -49.369539 -20.561386
22.662691 -47.440248 -21.738012
22.684293 -48.989345 -21.379401
22.268365 -48.692629 -22.263346
22.662691 -47.440248 -21.738012
22.700093 -45.962294 -22.064662
18.586886 -39.444794 -28.64758
19.301496 -39.94748 -27.772057
18.097807 -40.350361 -29.156899
17.868733 -38.79303 -29.522861
18.586886 -39.444794 -28.64758
22.623444 -63.394047 -15.34431
22.719217 -62.285677 -14.958716
22.704733 -63.363531 -14.519998
22.570006 -63.393937 -16.168877
22.623444 -63.394047 -15.34431
22.492671 -63.328243 -17.004194
22.560592 -62.2505 -16.618346
22.570006 -63.393937 -16.168877
22.436318 -63.372146 -17.798729
22.492671 -63.328243 -17.004194
22.445732 -64.515583 -17.34926
22.405997 -65.699722 -18.544533
22.462753 -65.775329 -17.648578
22.479371 -66.915565 -18.049317
23.862429 -79.613236 -21.874798
24.005932 -80.910247 -22.291989
23.862429 -79.613236 -21.874798
23.554651 -78.375271 -22.468876
23.120249 -75.802273 -22.582788
23.226993 -77.078496 -23.008195
22.92735 -75.831268 -23.56247
23.120249 -75.802273 -22.582788
22.983973 -74.592091 -22.18612
22.510858 -69.425548 -20.479872
22.626083 -70.651008 -20.916871
22.342756 -68.210114 -21.056781
22.442686 -68.250355 -20.12329
22.510858 -69.425548 -20.479872
23.693276 -94.255817 -26.064684
23.228963 -95.364646 -26.734641
23.414253 -93.081345 -26.77212
24.052402 -93.192737 -25.501297
23.693276 -94.255817 -26.064684
10.521549 -90.321736 -38.500849
10.648022 -91.791493 -38.158304
9.368317 -90.54953 -38.931576
5.006224 -40.636005 -44.194769
5.860119 -42.035889 -43.35425
5.360718 -42.545013 -43.801743
4.225305 -39.239563 -45.043469
4.724705 -38.730438 -44.595975
5.006224 -40.636005 -44.194769
3.428546 -37.962368 -45.861441
4.225305 -39.239563 -45.043469
3.209684 -36.075322 -46.286952
3.428546 -37.962368 -45.861441
3 0 69 67
3 0 71 69
3 1 74 72
3 1 76 74
3 2 79 77
3 2 81 79
3 265 83 266
3 267 86 268
3 269 268 84
3 267 268 269
3 270 88 271
3 272 271 86
3 270 271 272
3 274 273 88
3 4 275 277
3 275 90 276
3 275 276 277
3 4 92 90
3 5 278 280
3 278 93 279
3 278 279 280
3 5 95 93
3 7 98 96
3 282 281 99
3 8 102 100
3 8 104 102
3 3 283 284
3 10 107 105
3 10 108 107
3 10 110 108
3 11 113 111
3 11 115 113
3 12 119 117
3 12 121 119
3 12 123 121
3 13 126 124
3 13 128 126
3 9 130 129
3 14 133 131
3 14 135 133
3 6 138 136
3 15 141 139
3 15 143 141
3 15 145 143
3 16 148 146
3 16 150 148
3 16 152 150
3 17 156 154
3 19 157 68
3 19 158 157
3 19 160 158
3 21 161 70
3 21 162 161
3 22 165 163
3 24 166 73
3 24 167 166
3 24 169 167
3 26 170 75
3 26 171 170
3 27 174 172
3 29 175 78
3 29 176 175
3 29 178 176
3 31 179 80
3 31 180 179
3 285 182 286
3 33 183 82
3 33 184 183
3 34 187 185
3 36 188 85
3 36 189 188
3 36 191 189
3 38 192 87
3 38 193 192
3 38 195 193
3 288 287 89
3 40 289 290
3 40 291 293
3 291 196 292
3 291 292 293
3 40 197 196
3 41 198 91
3 41 199 198
3 42 294 295
3 42 296 297
3 42 298 300
3 298 200 299
3 298 299 300
3 43 201 94
3 43 202 201
3 301 204 302
3 303 205 304
3 305 206 306
3 307 306 205
3 305 306 307
3 308 207 309
3 310 208 311
3 312 311 207
3 310 311 312
3 45 313 314
3 316 315 97
3 18 209 155
3 20 317 319
3 319 318 159
3 317 318 319
3 321 320 101
3 46 322 324
3 324 323 103
3 322 323 324
3 46 325 326
3 23 327 329
3 329 328 164
3 327 328 329
3 331 330 106
3 47 332 333
3 47 334 335
3 47 336 338
3 336 210 337
3 336 337 338
3 48 211 109
3 48 212 211
3 25 213 168
3 49 214 112
3 49 215 214
3 49 216 215
3 50 217 114
3 50 218 217
3 339 219 340
3 51 220 116
3 51 221 220
3 28 341 343
3 343 342 173
3 341 342 343
3 52 344 346
3 346 345 118
3 344 345 346
3 52 347 348
3 52 349 351
3 349 222 350
3 349 350 351
3 53 223 120
3 53 224 223
3 53 225 224
3 54 226 122
3 54 227 226
3 30 228 177
3 55 229 125
3 55 230 229
3 55 231 230
3 56 232 127
3 56 233 232
3 57 352 353
3 57 354 356
3 354 234 355
3 354 355 356
3 32 235 181
3 58 236 132
3 58 237 236
3 58 238 237
3 59 239 134
3 59 240 239
3 44 241 203
3 60 242 137
3 60 243 242
3 35 244 186
3 61 245 140
3 61 246 245
3 61 247 246
3 62 248 142
3 62 249 248
3 62 250 249
3 63 251 144
3 63 252 251
3 37 253 190
3 64 254 147
3 64 255 254
3 64 256 255
3 65 257 149
3 65 258 257
3 65 259 258
3 66 260 151
3 66 261 260
3 39 262 194
3 357 263 358
3 359 358 153
3 357 358 359
3 360 264 361
3 362 361 263
3 360 361 362
3 364 363 264
3 67 68 17
3 69 68 67
3 69 19 68
3 69 70 19
3 71 70 69
3 71 21 70
3 72 73 22
3 74 73 72
3 74 24 73
3 74 75 24
3 76 75 74
3 76 26 75
3 77 78 27
3 79 78 77
3 79 29 78
3 79 80 29
3 81 80 79
3 81 31 80
3 365 82 366
3 83 367 369
3 367 82 368
3 367 368 369
3 83 33 82
3 84 85 34
3 86 85 84
3 86 36 85
3 86 87 36
3 88 87 86
3 88 38 87
3 88 89 38
3 370 89 371
3 372 371 88
3 370 371 372
3 374 373 89
3 90 375 376
3 90 377 379
3 377 40 378
3 377 378 379
3 90 91 40
3 92 91 90
3 92 41 91
3 93 380 381
3 93 382 384
3 382 42 383
3 382 383 384
3 93 94 42
3 95 94 93
3 95 43 94
3 96 97 45
3 98 97 96
3 98 385 387
3 387 386 97
3 385 386 387
3 99 388 390
3 390 389 18
3 388 389 390
3 392 391 99
3 100 101 20
3 102 101 100
3 102 393 395
3 395 394 101
3 393 394 395
3 102 396 398
3 396 103 397
3 396 397 398
3 104 103 102
3 104 46 103
3 105 106 23
3 107 106 105
3 107 399 401
3 401 400 106
3 399 400 401
3 107 402 403
3 108 404 406
3 406 405 107
3 404 405 406
3 108 407 409
3 407 47 408
3 407 408 409
3 108 109 47
3 110 109 108
3 110 48 109
3 111 112 25
3 113 112 111
3 113 49 112
3 113 114 49
3 115 114 113
3 115 50 114
3 410 116 411
3 412 116 413
3 414 51 415
3 416 415 116
3 414 415 416
3 117 118 28
3 119 118 117
3 119 52 118
3 119 120 52
3 121 120 119
3 121 53 120
3 121 122 53
3 123 122 121
3 123 54 122
3 124 125 30
3 126 125 124
3 126 55 125
3 126 127 55
3 128 127 126
3 128 56 127
3 129 417 418
3 130 419 421
3 421 420 129
3 419 420 421
3 130 422 424
3 422 57 423
3 422 423 424
3 131 132 32
3 133 132 131
3 133 58 132
3 133 134 58
3 135 134 133
3 135 59 134
3 136 137 44
3 138 137 136
3 138 60 137
3 139 140 35
3 141 140 139
3 141 61 140
3 141 142 61
3 143 142 141
3 143 62 142
3 143 144 62
3 145 144 143
3 145 63 144
3 146 147 37
3 148 147 146
3 148 64 147
3 148 149 64
3 150 149 148
3 150 65 149
3 150 151 65
3 152 151 150
3 152 66 151
3 425 153 426
3 427 426 39
3 425 426 427
3 428 153 429
3 431 430 153
3 432 4 433
3 434 5 435
3 154 155 7
3 156 155 154
3 156 18 155
3 68 156 17
3 157 156 68
3 157 18 156
3 157 99 18
3 158 99 157
3 158 436 438
3 438 437 99
3 436 437 438
3 158 439 441
3 439 159 440
3 439 440 441
3 160 159 158
3 160 20 159
3 70 160 19
3 161 160 70
3 161 20 160
3 161 100 20
3 162 100 161
3 162 8 100
3 163 164 3
3 165 164 163
3 165 23 164
3 73 165 22
3 166 165 73
3 166 23 165
3 166 105 23
3 167 105 166
3 167 10 105
3 167 168 10
3 169 168 167
3 169 25 168
3 75 169 24
3 170 169 75
3 170 25 169
3 170 111 25
3 171 111 170
3 171 11 111
3 172 442 444
3 442 173 443
3 442 443 444
3 174 173 172
3 174 28 173
3 78 174 27
3 175 174 78
3 175 28 174
3 175 117 28
3 176 117 175
3 176 12 117
3 176 177 12
3 178 177 176
3 178 30 177
3 80 178 29
3 179 178 80
3 179 30 178
3 179 124 30
3 180 124 179
3 180 13 124
3 445 181 446
3 447 446 9
3 445 446 447
3 182 448 450
3 448 181 449
3 448 449 450
3 182 32 181
3 82 451 453
3 451 182 452
3 451 452 453
3 183 182 82
3 183 32 182
3 183 131 32
3 184 131 183
3 184 14 131
3 185 186 6
3 187 186 185
3 187 35 186
3 85 187 34
3 188 187 85
3 188 35 187
3 188 139 35
3 189 139 188
3 189 15 139
3 189 190 15
3 191 190 189
3 191 37 190
3 87 191 36
3 192 191 87
3 192 37 191
3 192 146 37
3 193 146 192
3 193 16 146
3 193 194 16
3 195 194 193
3 195 39 194
3 89 195 38
3 454 195 455
3 456 455 89
3 454 455 456
3 457 39 458
3 459 458 195
3 457 458 459
3 461 460 39
3 462 3 463
3 196 464 465
3 196 466 468
3 466 3 467
3 466 467 468
3 196 163 3
3 197 163 196
3 197 22 163
3 91 197 40
3 198 197 91
3 198 22 197
3 198 72 22
3 199 72 198
3 199 1 72
3 469 172 470
3 200 471 473
3 471 172 472
3 471 472 473
3 200 27 172
3 94 200 42
3 201 200 94
3 201 27 200
3 201 77 27
3 202 77 201
3 202 2 77
3 474 203 475
3 204 476 478
3 476 203 477
3 476 477 478
3 204 44 203
3 479 204 480
3 205 481 483
3 481 204 482
3 481 482 483
3 205 44 204
3 205 136 44
3 206 136 205
3 206 6 136
3 484 206 485
3 207 486 488
3 486 206 487
3 486 487 488
3 207 6 206
3 207 185 6
3 208 185 207
3 208 34 185
3 489 208 490
3 491 208 492
3 493 34 494
3 495 494 208
3 493 494 495
3 496 84 497
3 498 497 34
3 496 497 498
3 499 84 500
3 502 501 84
3 97 503 505
3 505 504 45
3 503 504 505
3 507 506 97
3 155 98 7
3 209 98 155
3 209 508 510
3 510 509 98
3 508 509 510
3 511 209 512
3 513 512 18
3 511 512 513
3 514 209 515
3 517 516 209
3 159 518 519
3 521 520 159
3 101 522 524
3 524 523 20
3 522 523 524
3 526 525 101
3 103 527 528
3 530 529 103
3 531 129 532
3 533 129 534
3 535 9 536
3 537 536 129
3 535 536 537
3 538 9 539
3 541 540 9
3 164 542 544
3 544 543 3
3 542 543 544
3 546 545 164
3 106 547 549
3 549 548 23
3 547 548 549
3 551 550 106
3 210 552 553
3 210 554 556
3 554 45 555
3 554 555 556
3 109 210 47
3 211 210 109
3 211 45 210
3 211 96 45
3 212 96 211
3 212 7 96
3 168 110 10
3 213 110 168
3 213 48 110
3 112 213 25
3 214 213 112
3 214 48 213
3 214 212 48
3 215 212 214
3 215 7 212
3 215 154 7
3 216 154 215
3 216 17 154
3 114 216 49
3 217 216 114
3 217 17 216
3 217 67 17
3 218 67 217
3 218 0 67
3 557 4 558
3 557 558 559
3 560 4 561
3 562 92 563
3 564 563 4
3 562 563 564
3 219 565 567
3 565 92 566
3 565 566 567
3 219 41 92
3 116 568 570
3 568 219 569
3 568 569 570
3 220 219 116
3 220 41 219
3 220 199 41
3 221 199 220
3 221 1 199
3 173 571 572
3 574 573 173
3 118 575 577
3 577 576 28
3 575 576 577
3 579 578 118
3 222 580 581
3 222 582 584
3 582 51 583
3 582 583 584
3 120 222 52
3 223 222 120
3 223 51 222
3 223 221 51
3 224 221 223
3 224 1 221
3 224 76 1
3 225 76 224
3 225 26 76
3 122 225 53
3 226 225 122
3 226 26 225
3 226 171 26
3 227 171 226
3 227 11 171
3 177 123 12
3 228 123 177
3 228 54 123
3 125 228 30
3 229 228 125
3 229 54 228
3 229 227 54
3 230 227 229
3 230 11 227
3 230 115 11
3 231 115 230
3 231 50 115
3 127 231 55
3 232 231 127
3 232 50 231
3 232 218 50
3 233 218 232
3 233 0 218
3 234 585 586
3 234 587 589
3 587 5 588
3 587 588 589
3 181 130 9
3 235 130 181
3 235 57 130
3 132 235 32
3 236 235 132
3 236 57 235
3 236 234 57
3 237 234 236
3 237 5 234
3 237 95 5
3 238 95 237
3 238 43 95
3 134 238 58
3 239 238 134
3 239 43 238
3 239 202 43
3 240 202 239
3 240 2 202
3 203 590 592
3 590 83 591
3 590 591 592
3 241 83 203
3 241 33 83
3 137 241 44
3 242 241 137
3 242 33 241
3 242 184 33
3 243 184 242
3 243 14 184
3 186 138 6
3 244 138 186
3 244 60 138
3 140 244 35
3 245 244 140
3 245 60 244
3 245 243 60
3 246 243 245
3 246 14 243
3 246 135 14
3 247 135 246
3 247 59 135
3 142 247 61
3 248 247 142
3 248 59 247
3 248 240 59
3 249 240 248
3 249 2 240
3 249 81 2
3 250 81 249
3 250 31 81
3 144 250 62
3 251 250 144
3 251 31 250
3 251 180 31
3 252 180 251
3 252 13 180
3 190 145 15
3 253 145 190
3 253 63 145
3 147 253 37
3 254 253 147
3 254 63 253
3 254 252 63
3 255 252 254
3 255 13 252
3 255 128 13
3 256 128 255
3 256 56 128
3 149 256 64
3 257 256 149
3 257 56 256
3 257 233 56
3 258 233 257
3 258 0 233
3 258 71 0
3 259 71 258
3 259 21 71
3 151 259 65
3 260 259 151
3 260 21 259
3 260 162 21
3 261 162 260
3 261 8 162
3 194 152 16
3 262 152 194
3 262 66 152
3 153 262 39
3 263 262 153
3 263 66 262
3 263 261 66
3 264 261 263
3 264 8 261
3 264 104 8
3 593 104 594
3 595 594 264
3 593 594 595
3 596 46 597
3 598 597 104
3 596 597 598
3 599 46 600
3 602 601 46
