ply
format ascii 1.0
element vertex 974
property float x
property float y
property float z
element face 1224
property list uchar int vertex_index
end_header
23.383583 -61.577183 -10.088602
28.037899 -33.74474 54.355572
27.714834 -72.507332 22.778091
24.286526 -71.609108 42.028896
24.940538 -52.997837 59.136059
28.944464 -53.290249 40.558277
28.945545 -28.682827 36.169899
29.962217 -49.84206 21.24852
25.263338 -62.508976 51.216633
27.412006 -70.543121 13.062035
28.179535 -31.650135 44.656727
28.724304 -63.149235 31.996122
29.449387 -51.87326 30.476013
28.832853 -61.562199 21.985123
28.313868 -59.392132 12.52454
26.680336 -73.189728 32.563766
22.234663 -80.497627 31.315216
27.278999 -44.073769 57.52729
28.407644 -43.19997 47.939796
27.834448 -53.673588 50.338791
27.722185 -63.710159 41.981747
27.063559 -34.268852 63.492409
24.060066 -43.365578 65.353676
24.341116 -64.688133 -4.545337
28.99247 -41.623077 38.32671
30.024235 -39.170727 29.212198
30.491474 -47.552307 12.481263
27.342257 -57.203445 3.700397
26.188572 -55.039642 -4.454307
23.932398 -58.214592 -10.887802
23.457077 -57.933525 -13.914347
22.974499 -61.984226 -12.706267
27.743368 -71.547562 17.988255
28.034277 -26.898037 47.699665
28.092503 -32.801418 49.310463
28.257017 -68.030876 27.363279
28.862461 -62.504292 26.923777
28.324148 -67.326286 22.463676
28.166286 -66.154556 17.680223
25.681789 -72.774918 37.222168
24.846321 -77.120102 32.403664
23.304192 -76.120277 36.762051
26.365782 -48.805286 58.547928
27.56798 -48.878056 54.170975
26.675606 -53.468975 55.069038
24.913929 -67.165825 46.775677
26.739248 -63.246151 46.769405
26.33005 -68.156731 42.116184
27.339298 -68.443413 37.334591
25.666807 -33.993824 67.149429
25.768969 -38.886993 64.759315
23.686153 -38.414261 67.880417
25.191818 -66.193169 -0.598374
28.732792 -48.110203 44.358139
28.699644 -42.503819 42.979282
29.047289 -47.425385 39.422401
29.683399 -50.743874 25.948944
29.687832 -45.75098 29.853443
30.184023 -44.451435 25.467609
30.77067 -43.54174 21.153297
30.244839 -48.768814 16.806322
27.134567 -63.649147 8.03295
27.859364 -58.27747 7.960356
26.425909 -62.500351 3.625637
25.686102 -61.236702 -0.56544
27.76811 -49.75716 -4.57391
28.261429 -50.699558 -0.606791
23.130701 -56.867283 58.88142
25.266077 -57.632584 55.438908
26.828699 -69.162819 8.32395
28.097252 -25.463209 43.260933
28.418884 -30.278038 40.344433
28.945072 -58.312206 36.407356
29.228529 -52.733189 35.461353
29.167225 -57.76825 31.349592
29.288984 -56.790134 26.33618
29.358988 -55.617332 21.688475
29.308638 -54.865383 16.917946
28.655369 -60.430527 17.230122
27.72868 -64.945511 12.662663
27.376463 -72.999916 27.772379
26.784288 -77.556808 22.937258
25.959841 -77.775291 27.685669
23.997551 -81.664444 27.09391
27.797752 -39.085506 56.101936
28.144033 -38.621532 51.016651
28.004032 -43.875046 52.833569
28.305798 -48.627792 49.285706
28.522139 -53.71851 45.426003
26.859201 -58.316387 51.048435
27.921341 -58.594204 46.291359
28.561804 -58.557541 41.407265
28.339329 -63.708008 37.095585
27.90407 -68.599739 32.416153
27.776018 -34.278877 59.093758
27.095875 -39.093163 60.675316
26.033133 -43.894741 61.774796
24.456972 -48.18605 62.523941
23.713406 -63.121479 -7.709377
28.33551 -37.792732 46.222034
28.555483 -36.726521 41.650471
28.928911 -35.113022 37.12141
29.340067 -46.703018 34.52507
29.403755 -40.554119 33.732967
29.553211 -33.918148 32.930855
30.454733 -32.463753 28.858503
30.581156 -46.507332 8.186147
29.237944 -53.664684 12.520768
29.035364 -52.621403 8.068676
28.746891 -51.545658 3.780754
26.722076 -56.146263 -0.661412
24.999043 -59.96138 -4.416683
24.493254 -58.73534 -7.669718
25.574558 -54.265606 -8.171091
23.603323 -60.080891 -10.428148
23.366957 -60.128235 -11.846946
23.177967 -61.780106 -11.236647
27.785528 -71.940094 20.470724
27.493624 -74.128632 18.1068
27.446394 -74.593628 20.561893
28.087137 -31.003412 53.330231
28.068043 -30.49844 51.027451
28.074928 -33.356361 51.771534
27.981812 -70.340004 25.131062
28.316702 -67.740898 24.874815
28.043243 -69.969566 22.731548
28.053967 -69.338737 20.323252
24.98608 -72.391205 39.579639
24.620121 -74.522942 37.075699
23.840202 -73.913193 39.363663
25.706936 -50.839294 59.001602
26.529091 -51.052658 56.913658
25.85898 -53.222546 57.293301
24.619848 -69.472687 44.394302
25.682417 -67.605728 44.621712
25.395712 -69.962967 42.175507
25.963625 -70.566513 39.805344
24.733261 -36.133259 67.648193
23.60623 -35.646805 68.991928
25.594769 -67.038483 1.366195
28.873472 -50.678719 42.333374
28.902555 -47.878902 41.814308
29.037552 -50.547516 39.801132
29.815454 -50.317436 23.661207
29.916348 -47.647503 25.656612
30.120344 -47.270515 23.364979
30.460201 -44.021912 23.363882
30.342113 -46.81274 21.08836
30.591879 -46.086811 18.959633
30.107998 -49.306622 19.014256
26.546562 -65.843246 5.803885
26.747183 -63.26152 5.691831
26.146656 -65.071938 3.50967
25.740622 -64.392258 1.345937
29.149281 -47.832176 -0.594887
29.373827 -48.233788 1.57425
22.956499 -60.135403 -14.866322
23.223579 -57.65554 -15.511898
27.141903 -69.89386 10.633625
28.070095 -29.412012 46.156322
28.040157 -26.074076 45.302891
28.11759 -28.588432 44.046188
28.225679 -27.831861 41.840538
28.276085 -31.095049 42.476536
28.852219 -60.89566 34.204121
29.07366 -58.034328 33.895462
28.967436 -60.585323 31.697472
28.85973 -62.139477 24.461693
29.092655 -59.618111 26.779736
29.082445 -59.394901 24.278992
29.314262 -56.40403 24.082012
29.082375 -58.719154 21.919432
29.058037 -58.021564 19.590212
28.782576 -60.883495 19.707829
27.807405 -68.159996 15.377547
27.989412 -65.488487 15.223612
27.575174 -67.670181 13.002362
27.272427 -67.099434 10.530944
27.068974 -73.195366 30.126804
26.749966 -75.398102 27.850327
26.314598 -75.529846 30.098759
23.622629 -78.937874 31.950346
24.382702 -79.352196 29.897579
23.193382 -81.093323 29.289858
22.788746 -83.359085 26.416742
21.925486 -82.474388 28.64262
27.588268 -41.539787 56.797642
27.894182 -41.469139 54.342537
27.689384 -44.020058 55.251198
27.691601 -51.300526 52.415611
27.98625 -48.833172 51.765785
28.116327 -51.116455 49.950459
28.437021 -51.091862 47.335972
28.23024 -53.651379 47.885414
25.290047 -60.084316 53.397079
26.130737 -58.063416 53.280041
26.147215 -60.467514 51.206535
27.31741 -63.403099 44.397038
27.384182 -61.020126 46.663071
27.857027 -61.14856 44.174286
28.27607 -58.772209 43.767483
28.204493 -61.189163 41.786865
28.485855 -61.071999 39.345081
28.069023 -63.679211 39.660591
26.966612 -70.948082 35.125805
27.655256 -68.541573 34.95528
27.345997 -70.974586 32.607273
27.648724 -70.791229 30.143713
27.508293 -34.212402 61.320164
27.490269 -36.847427 59.774918
27.070208 -36.774841 62.043396
24.938717 -41.156399 65.179604
25.869675 -41.365993 63.360565
25.12878 -43.71851 63.683239
25.337517 -46.099186 62.174339
24.206772 -45.890739 63.994778
24.004902 -63.835236 -6.203253
23.511276 -65.367371 -7.931517
26.155169 -79.989098 22.830153
28.253233 -40.86224 49.579796
28.238934 -38.074478 48.606323
28.388472 -40.568913 47.068855
28.833456 -41.952778 40.636475
28.641617 -39.609077 42.155006
28.778389 -38.881779 39.863182
28.720123 -35.885578 39.26778
28.970884 -38.459545 37.556717
29.341587 -52.340916 32.94817
29.296001 -49.803802 34.996758
29.417313 -49.369534 32.679291
29.840958 -42.367641 29.54076
29.580048 -43.225082 31.779861
29.672405 -39.848591 31.540054
29.478039 -37.107304 33.239643
29.820652 -36.62141 31.093845
29.985197 -33.06953 30.83511
30.199419 -35.701855 29.206976
31.010258 -45.047199 14.696083
31.161106 -44.619183 12.464441
30.49976 -47.250607 10.294646
28.835707 -57.267101 14.767632
29.31142 -54.090977 14.700191
28.730362 -56.546062 12.468076
27.590662 -57.832985 5.81152
28.344622 -55.617462 7.823912
28.218313 -54.871643 5.83185
28.916134 -52.018322 5.886649
27.98349 -54.450977 3.735199
27.736479 -53.918228 1.552442
27.058954 -56.542385 1.454059
24.979809 -62.885078 -2.601972
25.350544 -60.429611 -2.573598
24.622284 -62.189617 -4.440406
24.296209 -61.570026 -6.147343
26.912741 -52.49329 -4.570746
26.625528 -52.02039 -6.527701
25.935457 -54.489799 -6.29235
25.025408 -56.524788 -7.787255
25.243828 -57.125488 -6.136866
24.423147 -55.948299 -11.22771
24.121508 -55.730511 -12.917194
23.723703 -57.966259 -12.348875
23.179291 -60.051247 -13.277062
22.800505 -62.255161 -14.134405
27.634056 -70.922333 15.590124
27.424364 -73.741058 15.487224
28.051928 -29.934273 48.483654
28.127825 -32.4561 46.974453
28.519361 -65.556999 29.764923
28.821426 -62.820694 29.415474
28.595884 -65.25531 27.115742
28.603825 -65.007935 24.64439
28.593557 -64.380913 22.230312
28.523876 -63.799145 19.839268
28.305191 -66.529747 20.197311
27.970797 -68.749069 17.833529
26.216026 -73.050072 34.946735
25.837784 -75.322212 32.457912
25.283312 -74.965332 34.796513
24.102518 -76.695366 34.647915
22.777054 -78.32428 34.038589
26.862595 -46.526176 58.146275
27.431614 -46.549454 55.797222
27.058731 -48.77354 56.397602
27.183386 -51.332848 54.635117
27.340254 -53.767235 52.594093
25.136112 -64.995247 48.858097
26.044601 -62.837547 49.178532
25.925777 -65.232697 46.876442
26.5767 -65.673866 44.510601
27.1105 -65.857735 42.277912
27.523054 -66.164787 39.803696
26.872868 -68.354156 39.825356
26.580921 -70.578445 37.601952
26.466431 -34.14962 65.415817
26.490282 -36.749908 64.06797
25.728992 -36.468384 65.963333
24.831472 -38.508743 66.521278
23.871548 -40.786049 66.707535
24.735079 -65.469055 -2.698227
28.582672 -45.71854 46.125069
28.562073 -42.928059 45.414673
28.745733 -45.367607 43.573475
28.891092 -44.886707 41.109688
29.038988 -44.625591 38.742489
29.5599 -51.399227 28.079262
29.563501 -48.859108 30.185608
29.71636 -48.375553 27.945417
29.905098 -45.221386 27.682226
30.139849 -41.959583 27.326332
30.390656 -38.571842 27.18346
30.483013 -41.197845 25.30895
30.811588 -45.50053 17.003685
30.39233 -48.083988 14.668732
27.733589 -61.51704 10.275555
28.067129 -58.981613 10.159376
27.417326 -60.98748 7.843766
27.138014 -60.459095 5.814732
26.824003 -59.891079 3.686486
26.496077 -59.210457 1.488867
26.068192 -61.891445 1.553664
25.339413 -63.70892 -0.705453
28.045725 -50.135059 -2.648196
27.241957 -52.818691 -2.565288
23.402464 -71.019966 44.078362
24.008158 -54.960102 59.213253
25.139433 -55.258514 57.361847
24.282928 -57.302963 57.233517
24.319942 -59.612141 55.377415
24.333054 -62.077751 53.175335
24.282867 -64.320137 51.003143
24.086519 -66.501152 48.881466
23.839714 -68.788689 46.452255
23.86274 -55.37154 -14.50018
23.5495 -55.040203 -16.135334
26.431377 -68.591309 5.857347
28.232481 -24.694777 41.078548
28.418005 -27.277382 39.639145
28.657692 -29.644958 38.124798
28.979492 -55.790565 38.400108
29.099873 -53.171688 37.944069
29.119602 -55.598518 35.837345
29.231237 -55.266502 33.355572
29.317602 -54.806835 31.127644
29.061798 -59.94986 29.170074
29.250128 -57.08886 28.844936
29.40514 -54.320019 28.469696
29.47994 -53.846409 26.137632
29.562246 -53.260372 23.832279
29.645702 -52.693203 21.378168
29.681498 -52.447624 19.096579
29.33515 -55.326206 19.211866
28.965548 -57.648907 17.173828
28.490421 -59.934696 14.78649
28.384418 -63.342419 17.405649
28.191509 -62.738834 14.842316
27.955404 -62.248291 12.460803
27.431355 -64.311081 10.212433
26.902924 -66.564674 8.035624
27.595676 -72.758392 25.239506
27.31609 -74.929398 23.018444
27.087708 -75.25589 25.297344
26.457298 -77.631538 25.329838
25.709627 -79.851471 25.177261
25.429712 -77.6147 29.949814
25.047709 -79.884171 27.388542
24.747965 -82.022179 24.863644
21.937334 -77.447205 36.16058
21.314936 -79.518303 33.498306
20.821154 -81.620491 30.664577
27.951077 -36.602882 55.152008
28.067507 -36.150009 52.657093
28.005136 -38.924206 53.557995
28.106815 -41.238316 51.903305
28.236185 -43.563126 50.362915
27.865543 -46.493271 53.336388
28.173002 -46.269787 50.949505
28.391289 -45.913567 48.664898
28.541145 -48.365376 46.850014
28.682125 -50.824818 44.815487
28.753481 -53.50156 43.062057
26.053839 -55.729103 55.20673
26.820015 -55.906693 53.004513
27.420404 -56.132057 50.681976
26.850355 -60.667114 49.017159
27.415514 -58.489223 48.866985
27.894262 -56.205181 48.361614
28.269634 -56.289055 45.915871
28.556826 -56.223564 43.506905
28.800938 -55.918354 40.967556
28.775084 -58.513683 38.91497
28.698582 -61.082005 36.640793
28.559927 -63.558174 34.442791
27.908291 -66.057983 37.328983
28.177523 -66.064812 34.689548
28.358829 -65.974945 32.282394
28.138306 -68.24939 29.836685
27.832354 -70.742462 27.602472
28.080204 -31.362169 55.747768
27.943745 -34.180363 56.756813
27.760424 -36.75037 57.603882
27.499271 -39.373589 58.365368
27.130022 -41.663975 59.265232
26.519604 -39.244465 62.724415
26.593912 -41.523724 61.352585
26.744635 -44.035862 59.687611
26.207603 -46.393402 60.156063
25.512445 -48.51173 60.636776
24.75124 -50.542702 60.851288
23.853519 -52.606361 60.855217
23.513058 -62.200848 -9.051748
23.142921 -63.137932 -10.427353
23.277359 -64.172218 -9.296519
27.045923 -77.154572 20.677631
28.130665 -35.696266 50.26387
28.190214 -35.30175 47.788136
28.256226 -34.778309 45.473717
28.508135 -40.033371 44.608753
28.438694 -37.264427 43.833488
28.346588 -34.193577 43.210648
28.478846 -33.530991 40.944912
28.667789 -32.72438 38.732731
28.934444 -32.059151 36.561703
29.164837 -50.142887 37.555386
29.195688 -47.352188 36.924728
29.19573 -44.135582 36.387653
29.500828 -46.277542 32.140911
29.365328 -43.628437 34.156826
29.176882 -40.870972 36.00174
29.193974 -37.747498 35.393627
29.198923 -34.652519 35.07864
29.263309 -31.221903 34.547543
29.692074 -30.719902 32.460117
30.164976 -29.66045 30.605402
30.72146 -29.090542 28.640221
30.527617 -46.077114 5.87074
29.746674 -51.856323 16.983805
29.801046 -51.230824 14.74984
29.815514 -50.702152 12.511948
28.570705 -55.992332 10.138323
29.146685 -53.122272 10.211684
29.798143 -50.177437 10.245072
29.743553 -49.646545 7.915717
29.709173 -49.005531 5.876938
29.55352 -48.608948 3.650033
28.486759 -51.203629 1.529238
27.494003 -53.429256 -0.442847
26.490856 -55.464546 -2.560739
26.115044 -58.74572 -0.678356
25.837782 -58.008774 -2.618954
25.50663 -57.603027 -4.480554
24.717676 -59.390434 -6.085328
24.045977 -60.877499 -7.663431
23.808561 -60.367496 -9.106874
26.30698 -51.670593 -8.372715
25.283615 -53.87989 -9.914827
24.695171 -56.258755 -9.587012
24.222437 -58.382217 -9.255693
22.905054 -63.702923 -11.866806
23.538118 -34.353809 69.473835
24.136594 -34.571616 68.861103
25.590997 -68.376106 1.366041
25.812918 -67.414257 2.4839
28.989764 -26.966371 35.90831
28.805425 -27.42026 36.925837
29.152847 -28.292595 35.128101
28.989764 -26.966371 35.90831
26.088862 -66.430984 3.555637
26.346609 -65.457592 4.656778
26.288815 -66.816638 4.702744
25.812918 -67.414257 2.4839
25.870712 -66.055211 2.437933
26.088862 -66.430984 3.555637
29.911981 -46.926947 2.672941
29.817449 -46.797497 1.591485
22.866396 -60.002661 -15.651312
22.797213 -61.225798 -15.324675
27.241717 -71.578609 11.903111
27.106665 -71.253979 10.688906
27.276955 -70.218491 11.84783
27.29464 -33.015917 63.17269
27.065114 -32.952019 64.196171
27.285926 -34.240627 62.406287
27.517007 -32.987691 62.086567
27.29464 -33.015917 63.17269
24.099894 -65.446872 -5.423094
23.931787 -65.020424 -6.252052
24.173009 -64.261685 -5.374295
26.055822 -81.037353 21.597618
25.790467 -81.010166 22.80086
27.366698 -75.191742 16.872001
27.338757 -75.487946 18.132521
26.06256 -32.743434 66.903626
25.609314 -32.692006 67.747627
26.066619 -34.071722 66.282623
26.462372 -32.821332 66.03682
26.06256 -32.743434 66.903626
24.946622 -67.048798 -1.609019
24.718252 -66.686741 -2.658946
24.963448 -65.831112 -1.6483
30.804547 -42.193123 22.178975
30.649312 -42.433208 23.284267
30.615436 -43.781826 22.258589
31.018225 -41.803253 21.125777
30.804547 -42.193123 22.178975
30.930453 -43.227684 20.119196
31.018225 -41.803253 21.125777
22.735489 -71.673054 43.813789
22.94105 -70.638458 45.055552
23.83627 -60.542169 55.175316
23.768796 -59.41744 56.200537
23.842826 -61.774974 54.074276
24.326498 -60.844946 54.276375
23.83627 -60.542169 55.175316
23.67895 -65.127041 50.876492
23.747802 -64.023445 51.983526
23.580776 -66.217548 49.815653
24.184693 -65.410645 49.942305
23.67895 -65.127041 50.876492
23.159675 -69.522819 46.242498
23.391257 -68.423401 47.425142
22.94105 -70.638458 45.055552
23.621089 -69.904327 45.265309
23.159675 -69.522819 46.242498
23.250823 -56.20138 -16.660564
23.386539 -56.347871 -15.823616
23.087863 -57.509048 -16.348845
23.367953 -54.832838 -16.987835
23.250823 -56.20138 -16.660564
26.619309 -70.111592 7.0842
26.420648 -69.825837 5.850898
26.630038 -68.877064 7.090649
28.040621 -25.353843 47.229944
28.065158 -25.632479 48.464024
28.076613 -24.172926 43.93638
28.048065 -24.47836 44.95736
28.068705 -25.768642 44.281912
28.112454 -23.75572 42.867907
28.076613 -24.172926 43.93638
28.164867 -25.078993 42.169741
28.180069 -23.371504 41.776714
28.112454 -23.75572 42.867907
23.8709 -82.723557 25.727283
24.246107 -82.902424 24.61215
24.372758 -81.843311 25.978777
22.612412 -84.339557 25.162346
22.079245 -83.94292 26.22902
21.194593 -77.888379 35.920086
21.493835 -76.931377 37.20608
20.883395 -78.923928 34.588949
21.626135 -78.482754 34.829443
21.194593 -77.888379 35.920086
20.093204 -82.012733 30.330948
20.305749 -80.97607 31.800863
20.617692 -82.599975 29.318804
20.093204 -82.012733 30.330948
28.136105 -30.113537 56.446559
28.130463 -29.954968 55.327026
27.895727 -32.908177 58.638178
27.810788 -32.949156 59.859469
27.859882 -34.22962 57.925286
27.979591 -32.858919 57.469706
27.895727 -32.908177 58.638178
23.186515 -52.415619 61.613018
23.713584 -51.442976 61.671534
23.3413 -53.585732 60.779154
23.186515 -52.415619 61.613018
23.34952 -65.91803 -8.723621
23.49664 -66.504071 -8.024492
30.528381 -36.98195 27.101771
30.607188 -38.311084 26.1141
30.992022 -44.992339 8.22426
30.943424 -45.273668 9.27751
30.554386 -46.292223 7.028443
30.965253 -44.77723 7.066557
30.992022 -44.992339 8.22426
27.623295 -49.533424 -5.554512
28.236757 -48.297392 -4.583347
22.940849 -64.473379 -11.342011
23.023988 -63.420428 -11.14708
23.059783 -64.190883 -10.622284
27.315143 -75.720444 19.360068
27.338757 -75.487946 18.132521
27.470009 -74.36113 19.334347
28.07759 -30.750926 52.178841
28.099478 -29.224516 51.767561
28.109025 -29.477002 52.918951
25.166882 -33.745125 67.939853
25.609314 -32.692006 67.747627
24.700109 -34.814842 68.189235
25.200034 -35.063541 67.398811
25.166882 -33.745125 67.939853
24.169745 -35.890032 68.320061
24.700109 -34.814842 68.189235
24.136594 -34.571616 68.861103
25.363804 -67.969673 0.314557
25.162329 -67.547016 -0.667728
25.393293 -66.615826 0.383911
25.363804 -67.969673 0.314557
25.590997 -68.376106 1.366041
29.705177 -46.596691 0.506916
29.606753 -46.402811 -0.563527
29.261554 -48.032982 0.489681
29.705177 -46.596691 0.506916
29.817449 -46.797497 1.591485
23.174175 -58.045012 57.95254
22.548742 -57.704712 58.753842
22.999936 -58.76273 -15.9741
23.090039 -58.895471 -15.18911
22.866396 -60.002661 -15.651312
23.087863 -57.509048 -16.348845
22.999936 -58.76273 -15.9741
26.95196 -70.918637 9.415188
26.795358 -70.553116 8.260351
26.985301 -69.52834 9.478787
26.95196 -70.918637 9.415188
27.106665 -71.253979 10.688906
21.647616 -83.500572 27.341959
22.079245 -83.94292 26.22902
22.357116 -82.916736 27.529681
27.676925 -32.915918 60.972672
27.517007 -32.987691 62.086567
27.642156 -34.245639 60.206961
27.810788 -32.949156 59.859469
27.676925 -32.915918 60.972672
23.684973 -65.786492 -7.116183
23.758089 -64.601304 -7.067385
23.931787 -65.020424 -6.252052
23.49664 -66.504071 -8.024492
23.684973 -65.786492 -7.116183
26.363014 -79.800945 21.727601
26.677574 -78.584801 21.781153
26.469729 -78.772953 22.883705
26.363014 -79.800945 21.727601
26.055822 -81.037353 21.597618
31.344568 -43.485332 14.678955
31.201303 -43.7453 15.784637
31.419992 -43.271324 13.563134
31.344568 -43.485332 14.678955
31.085682 -44.833191 13.580262
31.537942 -43.012695 12.530632
31.419992 -43.271324 13.563134
31.233398 -44.329594 11.416657
31.537942 -43.012695 12.530632
30.902725 -45.645306 10.33176
31.233398 -44.329594 11.416657
30.830433 -45.934895 11.379544
30.540458 -46.878969 9.240396
30.943424 -45.273668 9.27751
30.902725 -45.645306 10.33176
24.272327 -55.839405 -12.072452
24.548281 -54.625275 -12.282596
24.699101 -54.734169 -11.437854
22.719217 -62.285677 -14.958716
22.797213 -61.225798 -15.324675
22.878502 -61.195282 -14.500363
27.466656 -72.002678 14.385741
27.355631 -71.813072 13.121696
27.523031 -70.732727 14.326079
27.361809 -73.41204 14.33429
27.466656 -72.002678 14.385741
27.52921 -72.331695 15.538674
27.296622 -74.77264 14.259853
27.361809 -73.41204 14.33429
27.332068 -74.997955 15.562213
27.458994 -73.934845 16.797012
27.366698 -75.191742 16.872001
27.296622 -74.77264 14.259853
27.332068 -74.997955 15.562213
28.051329 -27.202351 48.87887
28.065158 -25.632479 48.464024
28.068212 -29.002553 50.542763
28.099478 -29.224516 51.767561
28.060154 -28.72047 49.270865
28.068212 -29.002553 50.542763
28.059985 -30.216356 49.755553
28.043102 -28.416155 48.09166
28.051329 -27.202351 48.87887
28.060154 -28.72047 49.270865
26.76655 -32.892403 65.157875
26.462372 -32.821332 66.03682
26.764995 -34.209236 64.454113
27.065114 -32.952019 64.196171
26.76655 -32.892403 65.157875
24.492775 -66.359261 -3.631384
24.295794 -65.968799 -4.554939
24.538097 -65.078594 -3.621782
24.492775 -66.359261 -3.631384
24.718252 -66.686741 -2.658946
24.946622 -67.048798 -1.609019
25.162329 -67.547016 -0.667728
30.653367 -39.624086 25.176845
30.607188 -38.311084 26.1141
30.436834 -39.884844 26.246205
30.660718 -41.021175 24.256802
30.471607 -42.609879 24.336416
30.649312 -42.433208 23.284267
30.653367 -39.624086 25.176845
30.660718 -41.021175 24.256802
30.841057 -44.50022 19.022364
30.930453 -43.227684 20.119196
30.681275 -44.814275 20.056465
30.950912 -44.207079 18.04439
30.841057 -44.50022 19.022364
30.701733 -45.79367 17.981659
31.101968 -43.971965 16.938439
30.950912 -44.207079 18.04439
30.910923 -45.273865 15.849884
31.201303 -43.7453 15.784637
31.101968 -43.971965 16.938439
28.374575 -48.467334 -3.627602
28.236757 -48.297392 -4.583347
29.065161 -47.504842 -1.63809
29.606753 -46.402811 -0.563527
28.513383 -48.656284 -2.664745
29.065161 -47.504842 -1.63809
28.597503 -48.983617 -1.621541
27.906917 -49.946109 -3.611053
28.374575 -48.467334 -3.627602
28.513383 -48.656284 -2.664745
23.202866 -72.045727 42.864872
23.644897 -72.340298 41.840139
23.844495 -71.314537 43.053629
23.202866 -72.045727 42.864872
22.735489 -71.673054 43.813789
23.750288 -58.262851 57.128588
23.706815 -57.085123 58.057468
23.174175 -58.045012 57.95254
24.301435 -58.457552 56.305466
23.750288 -58.262851 57.128588
23.768796 -59.41744 56.200537
23.772895 -62.902252 53.069622
23.842826 -61.774974 54.074276
24.307961 -63.198944 52.089239
23.772895 -62.902252 53.069622
23.747802 -64.023445 51.983526
23.514659 -67.279633 48.639747
23.580776 -66.217548 49.815653
23.963116 -67.644921 47.66686
23.514659 -67.279633 48.639747
23.391257 -68.423401 47.425142
24.395422 -54.409239 -13.132331
24.548281 -54.625275 -12.282596
24.266038 -54.229754 -13.923825
24.395422 -54.409239 -13.132331
23.992124 -55.551026 -13.708687
24.092228 -54.032341 -14.76397
24.266038 -54.229754 -13.923825
23.935608 -53.866672 -15.581547
24.092228 -54.032341 -14.76397
23.70612 -55.205872 -15.317757
23.718385 -53.669914 -16.471462
23.935608 -53.866672 -15.581547
23.718385 -53.669914 -16.471462
23.367953 -54.832838 -16.987835
26.215916 -69.482681 4.674632
26.231222 -68.19067 4.729475
26.215916 -69.482681 4.674632
26.420648 -69.825837 5.850898
26.619309 -70.111592 7.0842
26.795358 -70.553116 8.260351
27.241717 -71.578609 11.903111
27.355631 -71.813072 13.121696
28.043561 -24.941863 46.031557
28.040621 -25.353843 47.229944
28.037217 -26.486057 46.501278
28.043561 -24.941863 46.031557
28.048065 -24.47836 44.95736
28.258983 -23.007069 40.737966
28.180069 -23.371504 41.776714
28.337666 -24.166138 40.071741
28.258983 -23.007069 40.737966
28.430428 -25.45744 39.35204
28.337666 -24.166138 40.071741
28.325243 -25.986079 40.358846
28.541656 -26.717538 38.66046
28.430428 -25.45744 39.35204
28.661499 -27.901326 37.903286
28.541656 -26.717538 38.66046
28.537849 -28.46117 38.881971
28.801619 -29.163892 37.147348
28.805425 -27.42026 36.925837
28.661499 -27.901326 37.903286
26.231222 -68.19067 4.729475
26.288815 -66.816638 4.702744
26.48897 -67.217277 5.830616
25.567695 -80.941353 23.974414
25.790467 -81.010166 22.80086
25.932398 -79.920285 24.003707
25.086865 -82.026707 23.817605
25.567695 -80.941353 23.974414
25.228796 -80.936825 25.020453
24.668851 -83.004944 23.566885
25.086865 -82.026707 23.817605
24.668851 -83.004944 23.566885
24.246107 -82.902424 24.61215
23.266497 -83.570877 25.3887
23.8709 -82.723557 25.727283
23.393149 -82.511764 26.755326
23.266497 -83.570877 25.3887
22.612412 -84.339557 25.162346
23.421736 -73.49234 40.507523
24.063364 -72.761151 40.69628
23.644897 -72.340298 41.840139
23.154772 -74.587387 39.169876
23.421736 -73.49234 40.507523
22.886767 -75.690929 37.86907
23.572197 -75.016735 38.062857
23.154772 -74.587387 39.169876
22.203339 -76.354393 37.568335
21.493835 -76.931377 37.20608
22.620763 -76.783741 36.461315
22.886767 -75.690929 37.86907
22.203339 -76.354393 37.568335
20.55264 -79.924976 33.217727
20.883395 -78.923928 34.588949
21.068045 -80.569397 32.081441
20.55264 -79.924976 33.217727
20.305749 -80.97607 31.800863
21.169858 -83.026924 28.307826
21.37332 -82.047439 29.653599
20.617692 -82.599975 29.318804
21.647616 -83.500572 27.341959
21.169858 -83.026924 28.307826
28.13393 -29.77559 54.118257
28.109025 -29.477002 52.918951
28.08367 -31.182791 54.539
28.13393 -29.77559 54.118257
28.130463 -29.954968 55.327026
28.04782 -31.449823 56.965183
28.136105 -30.113537 56.446559
28.011975 -32.771266 56.252291
28.04782 -31.449823 56.965183
27.979591 -32.858919 57.469706
22.916904 -35.374725 69.535267
23.538118 -34.353809 69.473835
23.027639 -36.707184 69.027737
22.916904 -35.374725 69.535267
23.0676 -38.090912 68.471981
23.646192 -37.030533 68.436172
23.027639 -36.707184 69.027737
23.09928 -39.382372 67.963986
23.0676 -38.090912 68.471981
23.191978 -40.568266 67.377544
23.778851 -39.600155 67.293976
23.09928 -39.382372 67.963986
23.335791 -41.769855 66.775432
23.191978 -40.568266 67.377544
23.43005 -43.05962 66.098503
23.965807 -42.075813 66.030605
23.335791 -41.769855 66.775432
23.57364 -44.353499 65.400677
23.43005 -43.05962 66.098503
23.646993 -45.616079 64.721228
24.133419 -44.628158 64.674227
23.57364 -44.353499 65.400677
23.75901 -46.879898 64.006842
23.646993 -45.616079 64.721228
23.88411 -48.027553 63.271423
24.331872 -47.038395 63.25936
23.75901 -46.879898 64.006842
24.015311 -49.232821 62.505896
23.88411 -48.027553 63.271423
24.162445 -50.411147 61.669569
24.604106 -49.364376 61.687614
24.015311 -49.232821 62.505896
24.30238 -51.574531 60.853252
24.162445 -50.411147 61.669569
23.713584 -51.442976 61.671534
23.41862 -54.762602 59.958172
23.930839 -53.783231 60.034235
23.3413 -53.585732 60.779154
22.979892 -55.716193 59.792255
23.569429 -55.913692 59.047337
23.41862 -54.762602 59.958172
22.469528 -56.541449 59.642664
22.979892 -55.716193 59.792255
22.548742 -57.704712 58.753842
22.469528 -56.541449 59.642664
23.127002 -64.708027 -10.056867
23.059783 -64.190883 -10.622284
23.21014 -63.655075 -9.861936
23.232562 -65.320453 -9.406122
23.394317 -64.769795 -8.614018
23.34952 -65.91803 -8.723621
23.127002 -64.708027 -10.056867
23.232562 -65.320453 -9.406122
24.099894 -65.446872 -5.423094
24.295794 -65.968799 -4.554939
27.114907 -77.000916 19.417937
27.315143 -75.720444 19.360068
27.246158 -75.8741 20.619762
26.808391 -78.383682 20.651339
26.915105 -77.35569 21.807445
26.677574 -78.584801 21.781153
26.929147 -78.313541 19.45111
26.808391 -78.383682 20.651339
27.114907 -77.000916 19.417937
26.929147 -78.313541 19.45111
29.311729 -29.562133 34.316924
29.152847 -28.292595 35.128101
29.104427 -29.952365 35.358721
29.526111 -29.311132 33.27321
29.311729 -29.562133 34.316924
29.477691 -30.970903 33.50383
29.765127 -28.947551 32.317859
29.526111 -29.311132 33.27321
30.001579 -28.417825 31.390502
29.765127 -28.947551 32.317859
29.928525 -30.190176 31.532759
30.284992 -27.946988 30.444505
30.001579 -28.417825 31.390502
30.563234 -27.662034 29.461915
30.284992 -27.946988 30.444505
30.443218 -29.375496 29.622812
30.873818 -27.305792 28.532628
30.563234 -27.662034 29.461915
30.432762 -35.546957 28.113529
30.295037 -37.136848 28.195218
30.528381 -36.98195 27.101771
30.560419 -33.927906 27.939292
30.327076 -34.082804 29.032739
30.432762 -35.546957 28.113529
30.72014 -32.163531 27.878746
30.560419 -33.927906 27.939292
30.853503 -30.476926 27.769605
30.588096 -30.777147 28.749362
30.72014 -32.163531 27.878746
31.044873 -28.650565 27.653094
30.853503 -30.476926 27.769605
30.873818 -27.305792 28.532628
31.044873 -28.650565 27.653094
30.989455 -44.495209 5.977034
30.965253 -44.77723 7.066557
30.488876 -45.84861 4.821186
30.989455 -44.495209 5.977034
30.001828 -47.114527 3.710832
30.488876 -45.84861 4.821186
30.040568 -47.343031 4.760387
29.463673 -48.421368 2.612141
29.911981 -46.926947 2.672941
30.001828 -47.114527 3.710832
27.052003 -50.665039 -6.531407
27.623295 -49.533424 -5.554512
27.196819 -50.888775 -5.550806
26.89273 -50.490141 -7.453914
27.052003 -50.665039 -6.531407
26.466254 -51.845491 -7.450208
26.732715 -50.263189 -8.420782
26.89273 -50.490141 -7.453914
26.147853 -51.476535 -9.260666
26.732715 -50.263189 -8.420782
25.63617 -52.581184 -10.031723
26.147853 -51.476535 -9.260666
25.795298 -52.775241 -9.143771
25.129334 -53.699965 -10.781413
25.63617 -52.581184 -10.031723
24.853381 -54.914095 -10.571269
24.699101 -54.734169 -11.437854
25.129334 -53.699965 -10.781413
22.84509 -64.789785 -12.135434
22.940849 -64.473379 -11.342011
22.823002 -63.921332 -12.585457
22.84509 -64.789785 -12.135434
22.857725 -63.061983 -13.005187
22.939777 -62.843575 -12.286537
22.823002 -63.921332 -12.585457
22.770727 -63.197451 -13.719257
22.887502 -62.119693 -13.420336
22.857725 -63.061983 -13.005187
22.704733 -63.363531 -14.519998
22.770727 -63.197451 -13.719257
22.719217 -62.285677 -14.958716
22.704733 -63.363531 -14.519998
3 0 116 114
3 2 119 117
3 1 122 120
3 2 125 123
3 2 117 125
3 3 129 127
3 4 132 130
3 3 135 133
3 3 127 135
3 459 138 460
3 462 461 139
3 6 463 464
3 6 465 466
3 5 142 140
3 7 145 143
3 7 147 145
3 7 149 147
3 467 152 468
3 469 468 150
3 467 468 469
3 470 139 471
3 472 471 152
3 470 471 472
3 473 155 474
3 476 475 156
3 9 477 479
3 479 478 158
3 477 478 479
3 10 161 159
3 10 163 161
3 11 166 164
3 13 169 167
3 13 171 169
3 13 173 171
3 9 176 174
3 9 158 176
3 15 180 178
3 16 183 181
3 16 185 183
3 17 188 186
3 19 191 189
3 19 193 191
3 8 196 194
3 20 199 197
3 20 201 199
3 20 203 201
3 15 206 204
3 15 178 206
3 21 480 481
3 21 482 484
3 482 208 483
3 482 483 484
3 21 210 208
3 22 213 211
3 22 215 213
3 23 485 487
3 487 486 216
3 485 486 487
3 489 488 218
3 18 221 219
3 24 224 222
3 24 226 224
3 12 229 227
3 25 232 230
3 25 234 232
3 25 236 234
3 26 238 237
3 26 239 238
3 14 242 240
3 27 245 243
3 27 247 245
3 27 249 247
3 23 252 250
3 23 216 252
3 28 256 254
3 28 258 256
3 29 261 259
3 31 262 115
3 31 263 262
3 32 265 264
3 491 490 118
3 34 266 121
3 34 267 266
3 35 270 268
3 37 271 124
3 37 272 271
3 37 274 272
3 32 275 126
3 32 264 275
3 39 278 276
3 41 279 128
3 41 280 279
3 42 283 281
3 44 284 131
3 44 285 284
3 45 288 286
3 47 289 134
3 47 290 289
3 47 292 290
3 39 293 136
3 39 276 293
3 49 492 493
3 49 494 496
3 494 294 495
3 494 495 496
3 49 296 294
3 51 297 137
3 51 298 297
3 52 497 499
3 499 498 299
3 497 498 499
3 53 302 300
3 55 303 141
3 55 304 303
3 56 307 305
3 58 308 144
3 58 309 308
3 58 311 309
3 59 500 502
3 502 501 146
3 500 501 502
3 59 503 504
3 59 505 506
3 60 312 148
3 60 313 312
3 61 316 314
3 63 317 151
3 63 318 317
3 63 320 318
3 52 321 153
3 52 299 321
3 66 322 154
3 66 323 322
3 508 507 324
3 67 327 325
3 509 328 510
3 511 329 512
3 513 512 328
3 511 512 513
3 514 330 515
3 516 331 517
3 518 517 330
3 516 517 518
3 519 332 520
3 521 324 522
3 523 522 332
3 521 522 523
3 30 333 260
3 524 334 525
3 526 525 157
3 524 525 526
3 528 527 334
3 69 529 531
3 531 530 335
3 529 530 531
3 33 532 533
3 70 534 536
3 536 535 160
3 534 535 536
3 70 537 538
3 70 539 541
3 539 336 540
3 539 540 541
3 71 337 162
3 71 338 337
3 72 341 339
3 74 342 165
3 74 343 342
3 36 344 269
3 75 345 168
3 75 346 345
3 75 347 346
3 76 348 170
3 76 349 348
3 76 351 349
3 78 352 172
3 78 353 352
3 38 354 273
3 79 355 175
3 79 356 355
3 79 357 356
3 69 358 177
3 69 335 358
3 80 361 359
3 82 362 179
3 82 363 362
3 40 364 277
3 83 365 182
3 83 366 365
3 83 542 544
3 544 543 366
3 542 543 544
3 546 545 184
3 547 367 548
3 549 368 550
3 551 550 367
3 549 550 551
3 552 369 553
3 555 554 369
3 84 372 370
3 86 373 187
3 86 374 373
3 43 375 282
3 87 376 190
3 87 377 376
3 87 378 377
3 88 379 192
3 88 380 379
3 68 381 326
3 89 382 195
3 89 383 382
3 46 384 287
3 90 385 198
3 90 386 385
3 90 387 386
3 91 388 200
3 91 389 388
3 91 390 389
3 92 391 202
3 92 392 391
3 48 393 291
3 93 394 205
3 93 395 394
3 93 396 395
3 80 397 207
3 80 359 397
3 556 398 557
3 94 558 559
3 94 560 562
3 560 399 561
3 560 561 562
3 94 400 399
3 95 401 209
3 95 402 401
3 50 403 295
3 96 404 212
3 96 405 404
3 96 406 405
3 97 407 214
3 97 408 407
3 563 409 564
3 566 565 409
3 98 412 410
3 568 567 217
3 81 413 360
3 85 414 371
3 99 415 220
3 99 416 415
3 54 417 301
3 100 418 223
3 100 419 418
3 100 420 419
3 101 421 225
3 101 422 421
3 73 423 340
3 102 424 228
3 102 425 424
3 57 426 306
3 103 427 231
3 103 428 427
3 103 429 428
3 104 430 233
3 104 431 430
3 104 432 431
3 105 433 235
3 105 434 433
3 570 569 310
3 106 571 572
3 106 573 575
3 573 435 574
3 573 574 575
3 77 436 350
3 107 437 241
3 107 438 437
3 62 439 315
3 108 440 244
3 108 441 440
3 108 442 441
3 109 443 246
3 109 444 443
3 109 445 444
3 110 446 248
3 110 447 446
3 64 448 319
3 111 449 251
3 111 450 449
3 111 451 450
3 98 452 253
3 98 410 452
3 65 576 577
3 113 454 255
3 113 455 454
3 113 456 455
3 112 457 257
3 112 453 457
3 578 458 579
3 580 579 411
3 578 579 580
3 114 115 29
3 116 115 114
3 116 31 115
3 117 118 32
3 119 118 117
3 119 581 583
3 583 582 118
3 581 582 583
3 120 584 586
3 584 121 585
3 584 585 586
3 122 121 120
3 122 34 121
3 123 124 35
3 125 124 123
3 125 37 124
3 125 126 37
3 117 126 125
3 117 32 126
3 127 128 39
3 129 128 127
3 129 41 128
3 130 131 42
3 132 131 130
3 132 44 131
3 133 134 45
3 135 134 133
3 135 47 134
3 135 136 47
3 127 136 135
3 127 39 136
3 587 49 588
3 589 137 590
3 591 590 49
3 589 590 591
3 138 592 594
3 592 137 593
3 592 593 594
3 138 51 137
3 139 595 597
3 597 596 52
3 595 596 597
3 599 598 139
3 140 141 53
3 142 141 140
3 142 55 141
3 143 144 56
3 145 144 143
3 145 58 144
3 145 146 58
3 147 146 145
3 147 59 146
3 147 148 59
3 149 148 147
3 149 60 148
3 150 151 61
3 152 151 150
3 152 63 151
3 152 153 63
3 139 153 152
3 139 52 153
3 600 154 601
3 155 602 604
3 602 154 603
3 602 603 604
3 155 66 154
3 606 605 67
3 156 157 30
3 607 157 608
3 609 608 156
3 607 608 609
3 611 610 157
3 158 612 614
3 614 613 69
3 612 613 614
3 616 615 158
3 159 160 33
3 161 160 159
3 161 70 160
3 161 162 70
3 163 162 161
3 163 71 162
3 164 165 72
3 166 165 164
3 166 74 165
3 167 168 36
3 169 168 167
3 169 75 168
3 169 170 75
3 171 170 169
3 171 76 170
3 171 172 76
3 173 172 171
3 173 78 172
3 174 175 38
3 176 175 174
3 176 79 175
3 176 177 79
3 158 177 176
3 158 69 177
3 178 179 80
3 180 179 178
3 180 82 179
3 181 182 40
3 183 182 181
3 183 83 182
3 183 184 83
3 185 184 183
3 185 617 619
3 619 618 184
3 617 618 619
3 186 187 84
3 188 187 186
3 188 86 187
3 189 190 43
3 191 190 189
3 191 87 190
3 191 192 87
3 193 192 191
3 193 88 192
3 194 195 68
3 196 195 194
3 196 89 195
3 197 198 46
3 199 198 197
3 199 90 198
3 199 200 90
3 201 200 199
3 201 91 200
3 201 202 91
3 203 202 201
3 203 92 202
3 204 205 48
3 206 205 204
3 206 93 205
3 206 207 93
3 178 207 206
3 178 80 207
3 208 620 621
3 208 622 624
3 622 94 623
3 622 623 624
3 208 209 94
3 210 209 208
3 210 95 209
3 211 212 50
3 213 212 211
3 213 96 212
3 213 214 96
3 215 214 213
3 215 97 214
3 216 217 98
3 625 217 626
3 627 626 216
3 625 626 627
3 629 628 217
3 218 630 632
3 632 631 81
3 630 631 632
3 634 633 218
3 219 220 85
3 221 220 219
3 221 99 220
3 222 223 54
3 224 223 222
3 224 100 223
3 224 225 100
3 226 225 224
3 226 101 225
3 227 228 73
3 229 228 227
3 229 102 228
3 230 231 57
3 232 231 230
3 232 103 231
3 232 233 103
3 234 233 232
3 234 104 233
3 234 235 104
3 236 235 234
3 236 105 235
3 237 635 636
3 238 637 639
3 639 638 237
3 637 638 639
3 238 640 641
3 238 642 643
3 239 644 646
3 646 645 238
3 644 645 646
3 239 647 649
3 647 106 648
3 647 648 649
3 240 241 77
3 242 241 240
3 242 107 241
3 243 244 62
3 245 244 243
3 245 108 244
3 245 246 108
3 247 246 245
3 247 109 246
3 247 248 109
3 249 248 247
3 249 110 248
3 250 251 64
3 252 251 250
3 252 111 251
3 252 253 111
3 216 253 252
3 216 98 253
3 254 255 65
3 256 255 254
3 256 113 255
3 256 257 113
3 258 257 256
3 258 112 257
3 259 650 652
3 650 260 651
3 650 651 652
3 261 260 259
3 261 30 260
3 115 261 29
3 262 261 115
3 262 30 261
3 262 156 30
3 263 156 262
3 263 653 655
3 655 654 156
3 653 654 655
3 264 656 658
3 658 657 9
3 656 657 658
3 265 659 661
3 661 660 264
3 659 660 661
3 265 662 663
3 118 265 32
3 664 265 665
3 666 665 118
3 664 665 666
3 668 667 265
3 669 33 670
3 121 671 672
3 266 673 675
3 675 674 121
3 673 674 675
3 266 676 678
3 676 33 677
3 676 677 678
3 266 159 33
3 267 159 266
3 267 10 159
3 268 269 11
3 270 269 268
3 270 36 269
3 124 270 35
3 271 270 124
3 271 36 270
3 271 167 36
3 272 167 271
3 272 13 167
3 272 273 13
3 274 273 272
3 274 38 273
3 126 274 37
3 275 274 126
3 275 38 274
3 275 174 38
3 264 174 275
3 264 9 174
3 276 277 15
3 278 277 276
3 278 40 277
3 128 278 39
3 279 278 128
3 279 40 278
3 279 181 40
3 280 181 279
3 280 16 181
3 281 282 17
3 283 282 281
3 283 43 282
3 131 283 42
3 284 283 131
3 284 43 283
3 284 189 43
3 285 189 284
3 285 19 189
3 286 287 8
3 288 287 286
3 288 46 287
3 134 288 45
3 289 288 134
3 289 46 288
3 289 197 46
3 290 197 289
3 290 20 197
3 290 291 20
3 292 291 290
3 292 48 291
3 136 292 47
3 293 292 136
3 293 48 292
3 293 204 48
3 276 204 293
3 276 15 204
3 294 679 680
3 294 681 683
3 681 21 682
3 681 682 683
3 294 295 21
3 296 295 294
3 296 50 295
3 137 296 49
3 297 296 137
3 297 50 296
3 297 211 50
3 298 211 297
3 298 22 211
3 299 684 686
3 686 685 23
3 684 685 686
3 688 687 299
3 690 689 52
3 300 301 18
3 302 301 300
3 302 54 301
3 141 302 53
3 303 302 141
3 303 54 302
3 303 222 54
3 304 222 303
3 304 24 222
3 305 306 12
3 307 306 305
3 307 57 306
3 144 307 56
3 308 307 144
3 308 57 307
3 308 230 57
3 309 230 308
3 309 25 230
3 309 310 25
3 311 310 309
3 311 691 693
3 693 692 310
3 691 692 693
3 146 311 58
3 694 311 695
3 696 695 146
3 694 695 696
3 698 697 311
3 148 699 701
3 701 700 59
3 699 700 701
3 312 702 704
3 704 703 148
3 702 703 704
3 312 705 706
3 312 707 709
3 707 237 708
3 707 708 709
3 313 237 312
3 313 26 237
3 314 315 14
3 316 315 314
3 316 62 315
3 151 316 61
3 317 316 151
3 317 62 316
3 317 243 62
3 318 243 317
3 318 27 243
3 318 319 27
3 320 319 318
3 320 64 319
3 153 320 63
3 321 320 153
3 321 64 320
3 321 250 64
3 299 250 321
3 299 23 250
3 710 65 711
3 154 712 713
3 322 714 716
3 716 715 154
3 714 715 716
3 322 717 719
3 717 65 718
3 717 718 719
3 322 254 65
3 323 254 322
3 323 28 254
3 324 720 722
3 722 721 3
3 720 721 722
3 724 723 324
3 325 326 4
3 327 326 325
3 327 68 326
3 725 327 726
3 727 726 67
3 725 726 727
3 328 728 730
3 728 327 729
3 728 729 730
3 328 68 327
3 328 194 68
3 329 194 328
3 329 8 194
3 731 329 732
3 330 733 735
3 733 329 734
3 733 734 735
3 330 8 329
3 330 286 8
3 331 286 330
3 331 45 286
3 736 331 737
3 332 738 740
3 738 331 739
3 738 739 740
3 332 45 331
3 332 133 45
3 324 133 332
3 324 3 133
3 260 741 742
3 333 743 745
3 745 744 260
3 743 744 745
3 333 746 747
3 157 333 30
3 334 333 157
3 334 748 750
3 750 749 333
3 748 749 750
3 334 751 752
3 754 753 334
3 335 755 756
3 758 757 335
3 760 759 69
3 762 761 9
3 160 763 765
3 765 764 33
3 763 764 765
3 767 766 160
3 336 768 769
3 336 770 771
3 162 336 70
3 337 336 162
3 337 772 774
3 774 773 336
3 772 773 774
3 337 775 776
3 338 777 779
3 779 778 337
3 777 778 779
3 338 780 782
3 780 6 781
3 780 781 782
3 339 340 5
3 341 340 339
3 341 73 340
3 165 341 72
3 342 341 165
3 342 73 341
3 342 227 73
3 343 227 342
3 343 12 227
3 269 166 11
3 344 166 269
3 344 74 166
3 168 344 36
3 345 344 168
3 345 74 344
3 345 343 74
3 346 343 345
3 346 12 343
3 346 305 12
3 347 305 346
3 347 56 305
3 170 347 75
3 348 347 170
3 348 56 347
3 348 143 56
3 349 143 348
3 349 7 143
3 349 350 7
3 351 350 349
3 351 77 350
3 172 351 76
3 352 351 172
3 352 77 351
3 352 240 77
3 353 240 352
3 353 14 240
3 273 173 13
3 354 173 273
3 354 78 173
3 175 354 38
3 355 354 175
3 355 78 354
3 355 353 78
3 356 353 355
3 356 14 353
3 356 314 14
3 357 314 356
3 357 61 314
3 177 357 79
3 358 357 177
3 358 61 357
3 358 150 61
3 335 150 358
3 335 783 785
3 785 784 150
3 783 784 785
3 359 360 2
3 361 360 359
3 361 81 360
3 179 361 80
3 362 361 179
3 362 81 361
3 362 218 81
3 363 218 362
3 363 786 788
3 788 787 218
3 786 787 788
3 277 180 15
3 364 180 277
3 364 82 180
3 182 364 40
3 365 364 182
3 365 82 364
3 365 363 82
3 366 363 365
3 366 789 791
3 791 790 363
3 789 790 791
3 366 792 793
3 795 794 366
3 184 796 798
3 798 797 83
3 796 797 798
3 800 799 184
3 801 129 802
3 803 802 3
3 801 802 803
3 804 129 805
3 806 41 807
3 808 807 129
3 806 807 808
3 367 809 810
3 367 811 813
3 811 41 812
3 811 812 813
3 367 280 41
3 368 280 367
3 368 16 280
3 814 368 815
3 369 816 818
3 816 368 817
3 816 817 818
3 369 16 368
3 369 185 16
3 819 185 820
3 821 820 369
3 819 820 821
3 823 822 185
3 370 371 1
3 372 371 370
3 372 85 371
3 187 372 84
3 373 372 187
3 373 85 372
3 373 219 85
3 374 219 373
3 374 18 219
3 282 188 17
3 375 188 282
3 375 86 188
3 190 375 43
3 376 375 190
3 376 86 375
3 376 374 86
3 377 374 376
3 377 18 374
3 377 300 18
3 378 300 377
3 378 53 300
3 192 378 87
3 379 378 192
3 379 53 378
3 379 140 53
3 380 140 379
3 380 5 140
3 326 132 4
3 381 132 326
3 381 44 132
3 195 381 68
3 382 381 195
3 382 44 381
3 382 285 44
3 383 285 382
3 383 19 285
3 287 196 8
3 384 196 287
3 384 89 196
3 198 384 46
3 385 384 198
3 385 89 384
3 385 383 89
3 386 383 385
3 386 19 383
3 386 193 19
3 387 193 386
3 387 88 193
3 200 387 90
3 388 387 200
3 388 88 387
3 388 380 88
3 389 380 388
3 389 5 380
3 389 339 5
3 390 339 389
3 390 72 339
3 202 390 91
3 391 390 202
3 391 72 390
3 391 164 72
3 392 164 391
3 392 11 164
3 291 203 20
3 393 203 291
3 393 92 203
3 205 393 48
3 394 393 205
3 394 92 393
3 394 392 92
3 395 392 394
3 395 11 392
3 395 268 11
3 396 268 395
3 396 35 268
3 207 396 93
3 397 396 207
3 397 35 396
3 397 123 35
3 359 123 397
3 359 2 123
3 824 120 825
3 398 826 828
3 826 120 827
3 826 827 828
3 398 1 120
3 829 398 830
3 399 831 833
3 831 398 832
3 831 832 833
3 399 1 398
3 399 370 1
3 400 370 399
3 400 84 370
3 209 400 94
3 401 400 209
3 401 84 400
3 401 186 84
3 402 186 401
3 402 17 186
3 295 210 21
3 403 210 295
3 403 95 210
3 212 403 50
3 404 403 212
3 404 95 403
3 404 402 95
3 405 402 404
3 405 17 402
3 405 281 17
3 406 281 405
3 406 42 281
3 214 406 96
3 407 406 214
3 407 42 406
3 407 130 42
3 408 130 407
3 408 4 130
3 834 138 835
3 836 138 837
3 838 51 839
3 840 839 138
3 838 839 840
3 841 51 842
3 843 298 844
3 845 844 51
3 843 844 845
3 846 298 847
3 848 22 849
3 850 849 298
3 848 849 850
3 851 22 852
3 853 215 854
3 855 854 22
3 853 854 855
3 856 215 857
3 858 97 859
3 860 859 215
3 858 859 860
3 861 97 862
3 863 408 864
3 865 864 97
3 863 864 865
3 409 866 868
3 866 408 867
3 866 867 868
3 409 4 408
3 409 325 4
3 869 325 870
3 871 870 409
3 869 870 871
3 872 67 873
3 874 873 325
3 872 873 874
3 875 67 876
3 878 877 67
3 410 411 0
3 412 411 410
3 412 879 881
3 881 880 411
3 879 880 881
3 217 412 98
3 882 412 883
3 884 883 217
3 882 883 884
3 886 885 412
3 888 887 23
3 360 119 2
3 413 119 360
3 413 889 891
3 891 890 119
3 889 890 891
3 892 413 893
3 894 893 81
3 892 893 894
3 895 413 896
3 898 897 413
3 371 122 1
3 414 122 371
3 414 34 122
3 220 414 85
3 415 414 220
3 415 34 414
3 415 267 34
3 416 267 415
3 416 10 267
3 301 221 18
3 417 221 301
3 417 99 221
3 223 417 54
3 418 417 223
3 418 99 417
3 418 416 99
3 419 416 418
3 419 10 416
3 419 163 10
3 420 163 419
3 420 71 163
3 225 420 100
3 421 420 225
3 421 71 420
3 421 338 71
3 422 338 421
3 422 6 338
3 340 142 5
3 423 142 340
3 423 55 142
3 228 423 73
3 424 423 228
3 424 55 423
3 424 304 55
3 425 304 424
3 425 24 304
3 306 229 12
3 426 229 306
3 426 102 229
3 231 426 57
3 427 426 231
3 427 102 426
3 427 425 102
3 428 425 427
3 428 24 425
3 428 226 24
3 429 226 428
3 429 101 226
3 233 429 103
3 430 429 233
3 430 101 429
3 430 422 101
3 431 422 430
3 431 6 422
3 431 899 901
3 901 900 6
3 899 900 901
3 432 902 904
3 904 903 431
3 902 903 904
3 432 905 906
3 235 432 104
3 433 432 235
3 433 907 909
3 909 908 432
3 907 908 909
3 433 910 911
3 434 912 914
3 914 913 433
3 912 913 914
3 434 915 916
3 310 236 25
3 917 236 918
3 919 918 310
3 917 918 919
3 920 105 921
3 922 921 236
3 920 921 922
3 923 105 924
3 925 434 926
3 927 926 105
3 925 926 927
3 928 434 929
3 931 930 434
3 435 932 933
3 435 934 935
3 350 149 7
3 436 149 350
3 436 60 149
3 241 436 77
3 437 436 241
3 437 60 436
3 437 313 60
3 438 313 437
3 438 26 313
3 315 242 14
3 439 242 315
3 439 107 242
3 244 439 62
3 440 439 244
3 440 107 439
3 440 438 107
3 441 438 440
3 441 26 438
3 441 239 26
3 442 239 441
3 442 106 239
3 246 442 108
3 443 442 246
3 443 106 442
3 443 435 106
3 444 435 443
3 444 936 938
3 938 937 435
3 936 937 938
3 444 939 941
3 939 155 940
3 939 940 941
3 445 155 444
3 445 66 155
3 248 445 109
3 446 445 248
3 446 66 445
3 446 323 66
3 447 323 446
3 447 28 323
3 319 249 27
3 448 249 319
3 448 110 249
3 251 448 64
3 449 448 251
3 449 110 448
3 449 447 110
3 450 447 449
3 450 28 447
3 450 258 28
3 451 258 450
3 451 112 258
3 253 451 111
3 452 451 253
3 452 112 451
3 452 453 112
3 410 453 452
3 410 0 453
3 255 942 944
3 944 943 65
3 942 943 944
3 454 945 947
3 947 946 255
3 945 946 947
3 454 948 949
3 454 950 951
3 455 952 954
3 954 953 454
3 952 953 954
3 455 955 956
3 455 957 959
3 957 259 958
3 957 958 959
3 456 259 455
3 456 29 259
3 257 456 113
3 457 456 257
3 457 29 456
3 457 114 29
3 453 114 457
3 453 0 114
3 411 116 0
3 458 116 411
3 458 31 116
3 960 458 961
3 962 458 963
3 964 31 965
3 966 965 458
3 964 965 966
3 967 263 968
3 969 968 31
3 967 968 969
3 970 263 971
3 973 972 263
