ply
format ascii 1.0
element vertex 569
property float x
property float y
property float z
element face 680
property list uchar int vertex_index
end_header
-1.929541 45.242123 45.438396
-16.513491 31.919823 40.171638
-23.578011 39.386906 22.603563
-12.497372 55.828548 30.364466
-9.640119 38.556789 43.594139
-14.665742 43.935627 36.078884
-7.790776 50.973724 38.508099
-5.795286 63.968281 31.46624
-0.148513 58.804996 39.270344
-11.159225 26.421392 47.196793
-3.694092 32.370285 50.033188
4.077915 38.456913 52.145973
2.514397 25.194952 56.47451
-21.216518 49.666595 17.918818
-20.608797 36.295681 31.915516
-18.378927 47.556782 27.370935
-5.926403 41.623585 44.707417
-8.669576 44.878292 41.224606
-4.920356 48.371723 42.02282
-4.03351 54.929577 38.951721
-1.168199 51.781273 42.624737
2.918591 55.88118 43.009815
1.899612 48.904453 45.998989
-8.139748 23.450336 50.398663
-7.407825 29.216814 48.941814
-4.299783 26.105581 52.034351
-0.634149 28.781446 53.23756
-23.660219 45.265499 15.582672
-22.366194 44.364166 20.420612
-19.45927 28.735476 37.837536
-18.643772 34.369404 36.273705
-13.578707 49.660172 33.608532
-16.728571 45.936859 31.820663
-15.570231 51.660728 29.143379
-17.230291 53.083824 24.679205
-14.596293 57.398819 25.856632
-13.242057 35.355911 42.051838
-15.640004 37.768421 38.424778
-12.3351 41.262295 40.054142
-11.300931 47.370781 37.59655
-10.263702 53.53162 34.668552
-9.349186 59.78133 31.124268
-6.718515 57.508762 35.275307
-3.163933 61.363049 35.492836
0.772231 65.689148 35.380978
3.699585 62.837261 39.344936
-13.851847 29.29833 43.920803
-10.45032 32.454414 45.575375
-6.765344 35.325352 46.970512
-2.851631 38.578918 47.936779
1.014585 41.88649 48.752083
0.105205 35.04467 51.168327
3.179906 31.598673 54.430809
-22.0868 38.164299 27.425068
-17.792118 40.157444 34.162186
-19.465733 42.030052 29.861626
-20.934267 43.386276 25.314398
-19.818083 48.673485 22.842939
-18.840611 54.17387 19.834064
4.940448 45.613216 49.486328
-3.884628 43.420078 45.125164
-5.308304 44.920055 43.523788
-3.531424 46.817989 43.703037
-3.063158 50.137714 42.29425
-1.55773 48.465431 44.094528
0.408483 50.525097 44.266365
0.069624 47.078587 45.763798
-6.222353 24.760918 51.275684
-4.645636 23.242298 52.796516
-2.723981 24.538723 53.55146
-23.644421 42.347988 19.100946
-22.976398 41.791706 21.58036
-18.057674 30.167896 39.05999
-19.084162 31.636562 37.031822
-17.599657 33.046658 38.353344
-13.049191 52.861027 31.938391
-14.550749 50.805798 31.443377
-14.070861 53.823551 29.748749
-14.986986 54.509731 27.702885
-13.559896 56.759003 28.08864
-12.032877 58.844448 28.563545
-11.499596 36.89056 42.89019
-12.777934 38.331814 41.110794
-11.075046 39.948502 41.81665
-8.254289 47.978268 39.866787
-9.906941 46.265175 39.488983
-9.611558 49.368752 37.948372
-10.787144 50.555126 36.119289
-8.96472 52.609978 36.518101
-8.485525 55.67049 34.945385
-7.200222 54.300827 36.953079
-2.120765 56.862629 39.112942
-3.518925 58.202129 37.304451
-1.721919 60.1581 37.33651
-1.237623 63.480282 35.47308
0.225331 62.181244 37.386269
2.243209 64.301682 37.37149
1.863674 60.897465 39.333
4.343906 54.36002 44.769352
4.871537 57.918465 43.145168
-11.254687 23.511171 48.050835
-12.772386 24.985491 46.337494
-14.138806 26.40336 44.662701
-12.436603 27.995838 45.627068
-12.175183 30.876917 44.806248
-10.705033 29.38188 46.531406
-5.591647 30.604479 49.582253
-7.113036 32.193527 48.012016
-5.267342 33.714653 48.560066
-4.742188 36.960464 47.522144
-3.252731 35.471275 49.033482
-1.215314 37.012188 49.571491
-1.73673 33.693947 50.643253
0.995665 27.062311 54.86824
1.314111 30.010387 53.920979
2.930827 28.227852 55.60004
-22.479349 47.383091 16.677761
-23.166224 47.745907 14.193177
-21.971304 49.911903 15.431138
-21.552689 52.537239 13.972322
-20.823156 52.28371 16.349052
-21.077406 33.479263 32.899811
-21.909054 34.592663 30.632204
-22.663532 35.37912 28.503769
-21.325523 37.388939 29.722715
-15.116285 40.78178 37.411957
-16.709974 39.114819 36.354881
-16.211285 41.833809 35.400024
-17.55962 46.880398 29.616255
-18.114237 44.042576 30.875494
-18.883419 44.91795 28.652472
-20.226538 42.811153 27.563253
-19.693636 45.489162 26.324953
-20.399063 46.112186 23.952032
-19.11972 48.123642 25.144903
-16.757318 55.8965 23.061951
-18.030899 53.671181 22.307909
-17.66353 56.379192 20.589684
-7.539859 61.91748 31.387581
-8.899623 62.727253 29.317951
-7.117313 64.937714 29.438747
2.627248 40.169594 50.500893
2.941888 43.63324 49.139252
4.38482 41.945068 50.807617
-7.77784 40.296764 44.114891
-9.141292 41.725643 42.467167
-7.235183 43.360115 43.019768
-6.840066 46.412754 41.747162
-6.364498 49.627583 40.353756
-5.844195 52.850349 38.886089
-4.392292 51.63306 40.608929
-2.489146 53.507664 40.825089
-0.685351 55.317501 40.980816
1.281937 57.410904 41.060448
0.853056 53.884022 42.776367
2.458714 52.443241 44.565216
3.915337 50.599277 46.433369
-9.797045 22.103628 49.607334
-9.597363 25.081516 48.824734
-9.266755 28.033768 48.076462
-7.768991 26.325403 49.714233
-5.93175 27.601414 50.478905
-3.982207 29.115671 51.122269
-2.128729 30.453552 51.705112
-2.478567 27.385332 52.672256
-0.779496 25.847166 54.256134
-24.979012 43.151688 14.240162
-24.284817 42.825825 16.691759
-23.009825 44.853249 18.004848
-21.71291 47.148453 19.208242
-20.140375 32.455135 35.044941
-19.656942 35.458336 34.103889
-14.12292 46.784561 34.905136
-15.800562 44.771656 34.057034
-15.263539 47.710091 32.746677
-16.130737 48.880867 30.503874
-17.019032 49.625351 28.283195
-17.817059 50.229504 26.09672
-16.449862 52.443848 26.863903
-15.933756 55.179516 25.393349
-4.083085 65.854431 31.512266
-14.917303 33.47612 41.239449
-16.031225 34.861897 39.404922
-14.454158 36.496365 40.355389
-13.96101 39.452309 39.403286
-13.563077 42.463844 38.189884
-10.466995 43.006302 40.779888
-11.762097 44.254425 38.967781
-13.025334 45.443451 37.01498
-12.459031 48.532131 35.687256
-11.981493 51.622692 34.139011
-11.415777 54.731968 32.558109
-10.894468 57.876099 30.80143
-9.764556 56.631588 33.007591
-8.079884 58.645527 33.264973
-6.342579 60.668999 33.418087
-5.398443 56.25872 37.142319
-4.940107 59.406464 35.449741
-4.507285 62.658249 33.540749
-2.629249 64.671745 33.58099
4.350421 66.284241 37.470684
3.250825 59.182076 41.319706
-18.320898 27.44956 39.825531
-16.754095 29.1273 41.033749
-15.613187 27.860338 42.726292
-15.165618 30.733646 42.110786
-13.523326 32.469231 43.009708
-11.754478 33.914539 43.958572
-10.01752 35.438282 44.686325
-9.00474 30.858402 47.244423
-8.599343 33.74041 46.407124
-8.270103 37.011707 45.258682
-6.29335 38.507889 45.893505
-4.414669 40.261528 46.26112
-2.38323 41.810608 46.7635
-0.471351 43.679413 47.039501
-0.85981 40.252407 48.365814
0.691017 38.509178 50.051971
2.140039 36.722668 51.685184
-0.169845 31.829023 52.31041
1.705021 33.446857 52.777569
3.656868 34.921234 53.372196
-22.901264 38.781448 24.920216
-17.16032 36.054554 37.433578
-18.18766 37.250668 35.341316
-19.157974 38.323917 33.135468
-17.236401 43.014862 33.119633
-18.659649 41.19593 32.019234
-19.985907 39.091743 31.103298
-20.738852 40.100838 28.773323
-21.566948 40.62722 26.407824
-22.213827 41.340885 24.084423
-21.616917 43.978474 22.920649
-21.061977 46.632187 21.621941
-20.486423 49.24461 20.443571
-18.544508 50.930195 23.760773
-19.257769 51.530872 21.385586
-20.056347 51.920414 18.862295
-19.578426 54.722042 17.390099
-10.507592 60.870888 28.908312
1.41974 45.104652 47.521084
3.377638 47.141907 47.775352
5.380119 49.211979 48.061966
-4.747323 21.790463 53.190376
-5.5595 22.613671 52.401156
-3.832122 22.335983 53.60253
-4.747323 21.790463 53.190376
-23.937022 39.620045 21.407246
-24.262842 38.419548 21.913997
-23.277204 40.589306 22.091962
-23.636216 40.822445 20.895645
-23.937022 39.620045 21.407246
5.301256 55.254076 44.918752
5.056424 53.573479 45.651697
3.487147 25.857722 56.828352
3.695362 27.374171 56.391117
2.722612 26.711402 56.037275
-17.038035 57.473371 20.949938
-17.210424 56.137846 21.825817
-16.584929 57.232026 22.186072
-17.458745 57.755295 19.764365
-17.038035 57.473371 20.949938
-8.968397 22.776982 50.002999
-9.001904 21.388552 50.403277
-8.173255 22.061906 50.798941
-1.008098 24.382198 54.635006
-1.751739 25.192945 53.903797
-1.980341 23.727976 54.282669
-0.053333 24.865953 55.043858
-1.008098 24.382198 54.635006
-24.593227 41.685152 17.217678
-24.961191 41.804071 16.028261
-19.973433 29.268759 36.857027
-20.1788 27.880803 37.194851
-15.006871 57.801619 24.749164
-15.675603 56.691967 24.517522
-15.265024 56.289168 25.624991
-14.338513 58.929006 24.939622
-15.006871 57.801619 24.749164
-3.838448 67.406791 30.475959
-3.139562 66.868946 31.501704
0.02723 66.249904 34.426519
-0.977696 65.145471 34.472571
-0.232696 64.584715 35.427029
1.025255 67.262142 34.403965
0.02723 66.249904 34.426519
1.831136 66.729027 35.383183
1.025255 67.262142 34.403965
4.718297 63.930524 39.324283
5.043715 65.654014 38.387158
4.025003 64.560751 38.40781
5.019925 59.617554 42.23039
5.78168 58.884352 43.193508
-17.727764 26.805591 40.755985
-18.479529 26.047681 40.139866
-16.944363 27.644461 41.360095
-17.537496 28.28843 40.42964
-17.727764 26.805591 40.755985
4.172641 32.277301 54.782751
4.411122 33.938581 54.253445
3.418387 33.259954 53.901503
-24.012425 45.443556 14.30058
-24.671821 44.386651 13.629325
-24.319616 44.208593 14.911417
-23.508874 47.880902 12.987281
-22.90643 49.02295 13.586644
-21.391045 53.770467 13.245573
-20.976033 53.745209 14.449778
-22.771282 37.133281 26.783791
-23.059648 35.740692 27.323142
-22.375166 36.77171 27.964419
-22.494032 38.472873 26.172642
-23.178514 37.441856 25.531365
-22.771282 37.133281 26.783791
-9.474154 63.251562 28.191704
-8.663678 64.244944 28.32407
-7.306556 22.71769 51.202229
-8.173255 22.061906 50.798941
-6.347859 23.372981 51.640739
-7.181051 24.105627 50.837173
-7.306556 22.71769 51.202229
-5.433994 24.001608 52.0361
-6.347859 23.372981 51.640739
-5.5595 22.613671 52.401156
-2.871295 22.984195 53.980002
-3.684808 23.890511 53.173988
-3.832122 22.335983 53.60253
-1.980341 23.727976 54.282669
-2.871295 22.984195 53.980002
-23.970228 41.100586 19.655938
-24.273029 41.446234 18.422272
-23.310409 42.069847 20.340653
-23.970228 41.100586 19.655938
-23.636216 40.822445 20.895645
-13.342792 58.199202 27.197045
-13.86099 58.519109 26.081041
-14.078094 57.078911 26.972636
-12.579282 59.241924 27.434497
-13.342792 58.199202 27.197045
-12.796387 57.801726 28.326093
-11.797926 60.343937 27.635596
-12.579282 59.241924 27.434497
5.565072 57.033299 44.106661
4.607722 56.139242 43.95726
5.301256 55.254076 44.918752
5.78168 58.884352 43.193508
5.565072 57.033299 44.106661
-12.135063 22.903141 47.498913
-11.373242 22.147317 48.358341
-12.893912 23.640301 46.642242
-12.135063 22.903141 47.498913
-12.013537 24.248331 47.194164
-13.592098 24.248345 45.831508
-12.893912 23.640301 46.642242
-13.455596 25.694426 45.500097
-14.275309 24.957279 44.994112
-13.592098 24.248345 45.831508
3.824979 28.982235 55.864849
3.949519 30.667645 55.280234
3.055366 29.913263 55.015425
3.824979 28.982235 55.864849
3.695362 27.374171 56.391117
-22.308971 50.105947 14.205624
-22.90643 49.02295 13.586644
-22.568764 48.828905 14.812158
-21.761997 51.224571 14.70173
-22.099663 51.418616 13.476216
-22.308971 50.105947 14.205624
-20.611267 53.618444 15.638143
-20.976033 53.745209 14.449778
-21.187922 52.410474 15.160687
-21.728357 32.655 32.254562
-21.295502 32.136847 33.318722
-22.144181 33.2117 31.120758
-21.728357 32.655 32.254562
-21.49323 34.035963 31.766008
-22.578946 33.623251 30.015977
-22.144181 33.2117 31.120758
-22.286293 34.985892 29.567986
-22.956184 34.01648 28.95176
-22.578946 33.623251 30.015977
-18.08444 56.645573 19.3256
-18.672981 55.542912 18.94779
-18.252071 55.276531 20.211874
-18.08444 56.645573 19.3256
-17.458745 57.755295 19.764365
-7.772524 65.350174 28.384468
-8.663678 64.244944 28.32407
-8.008468 63.832483 29.378349
4.84214 51.693107 46.483705
5.056424 53.573479 45.651697
4.129621 52.479648 45.60136
-9.836358 20.725212 49.976561
-9.001904 21.388552 50.403277
-10.644421 21.443546 49.136591
-9.836358 20.725212 49.976561
-10.525866 22.8074 48.829085
-11.373242 22.147317 48.358341
-10.644421 21.443546 49.136591
0.834247 25.473526 55.349911
0.108085 26.454739 54.562187
-0.053333 24.865953 55.043858
1.593613 24.539846 56.153046
1.755031 26.128632 55.671375
0.834247 25.473526 55.349911
-25.308288 41.967003 14.802463
-25.687756 42.091444 13.526072
-24.631915 42.988757 15.465961
-25.308288 41.967003 14.802463
-24.961191 41.804071 16.028261
-23.964619 42.586906 17.896352
-24.593227 41.685152 17.217678
-24.273029 41.446234 18.422272
-19.785878 30.719302 36.45417
-19.973433 29.268759 36.857027
-19.271716 30.186019 37.434679
-20.313985 31.128588 35.460729
-19.785878 30.719302 36.45417
-19.612268 32.045848 36.038381
-20.826987 31.624782 34.391287
-20.313985 31.128588 35.460729
-20.608891 32.967199 33.972376
-21.295502 32.136847 33.318722
-20.826987 31.624782 34.391287
-16.087384 57.050459 23.351823
-16.345537 55.538008 24.22765
-15.675603 56.691967 24.517522
-16.584929 57.232026 22.186072
-16.087384 57.050459 23.351823
-14.338513 58.929006 24.939622
-13.86099 58.519109 26.081041
-4.72482 66.477367 30.443279
-5.58092 65.534292 30.420266
-4.939185 64.911356 31.489253
-4.72482 66.477367 30.443279
-3.838448 67.406791 30.475959
4.964075 39.240025 52.370908
4.786333 37.462721 53.019369
-23.880212 38.141468 23.141711
-24.262842 38.419548 21.913997
-2.412644 66.277603 32.536066
-3.139562 66.868946 31.501704
-3.356167 65.263088 32.546628
-1.67351 65.741203 33.526525
-1.933436 64.076014 34.527035
-0.977696 65.145471 34.472571
-2.412644 66.277603 32.536066
-1.67351 65.741203 33.526525
2.566625 66.035294 36.378439
1.831136 66.729027 35.383183
1.50772 64.995415 36.376234
3.620231 67.026573 36.428036
2.566625 66.035294 36.378439
3.296815 65.292961 37.421087
4.58106 68.05246 36.343065
3.620231 67.026573 36.428036
5.279317 67.471565 37.270473
5.509956 69.239784 36.142854
4.58106 68.05246 36.343065
5.279317 67.471565 37.270473
5.043715 65.654014 38.387158
4.209569 60.249359 41.317659
4.061181 58.55027 42.232437
5.019925 59.617554 42.23039
4.433949 62.076952 40.330275
3.475205 61.009669 40.332321
4.209569 60.249359 41.317659
4.718297 63.930524 39.324283
4.433949 62.076952 40.330275
-19.622932 27.358107 38.177059
-20.1788 27.880803 37.194851
-19.053746 26.715149 39.171056
-18.479529 26.047681 40.139866
-18.890084 28.092518 38.831533
-19.622932 27.358107 38.177059
-19.053746 26.715149 39.171056
-14.936909 25.687317 44.120003
-14.275309 24.957279 44.994112
-15.6741 26.415805 43.151798
-14.936909 25.687317 44.120003
-14.875996 27.131849 43.694496
-16.373908 27.01098 42.206366
-15.6741 26.415805 43.151798
-16.183641 28.493819 41.880021
-16.944363 27.644461 41.360095
-16.373908 27.01098 42.206366
4.57581 35.694881 53.63248
4.786333 37.462721 53.019369
3.867392 36.689073 52.759085
4.57581 35.694881 53.63248
4.411122 33.938581 54.253445
4.172641 32.277301 54.782751
3.949519 30.667645 55.280234
2.373625 23.702101 56.910549
1.593613 24.539846 56.153046
3.336844 24.223368 57.315493
2.373625 23.702101 56.910549
3.196072 22.730517 57.751531
3.487147 25.857722 56.828352
3.336844 24.223368 57.315493
-25.319225 43.308445 13.001901
-26.027969 42.248201 12.287812
-25.687756 42.091444 13.526072
-25.319225 43.308445 13.001901
-24.671821 44.386651 13.629325
-23.765427 46.68376 13.605832
-24.012425 45.443556 14.30058
-23.413221 46.505703 14.887925
-23.765427 46.68376 13.605832
-23.508874 47.880902 12.987281
-21.919306 52.62191 12.795604
-22.099663 51.418616 13.476216
-21.757662 53.855138 12.068855
-21.919306 52.62191 12.795604
-21.391045 53.770467 13.245573
-23.347592 34.474914 27.79262
-22.956184 34.01648 28.95176
-23.347592 34.474914 27.79262
-23.059648 35.740692 27.323142
-23.541839 37.838739 24.300038
-23.178514 37.441856 25.531365
-23.239638 39.084177 23.76189
-23.880212 38.141468 23.141711
-23.541839 37.838739 24.300038
-19.988902 54.83761 16.158666
-20.611267 53.618444 15.638143
-20.200791 53.502876 16.869575
-19.041888 55.816997 17.725808
-19.209519 54.447956 18.612082
-18.672981 55.542912 18.94779
-19.429434 56.06599 16.499544
-19.041888 55.816997 17.725808
-19.988902 54.83761 16.158666
-19.429434 56.06599 16.499544
-11.035284 61.357157 27.80798
-11.797926 60.343937 27.635596
-11.270235 59.857668 28.735928
-10.278139 62.32338 27.986884
-9.703608 61.79907 29.113132
-9.474154 63.251562 28.191704
-11.035284 61.357157 27.80798
-10.278139 62.32338 27.986884
-6.241934 66.019009 29.40652
-6.4563 64.452997 30.452493
-5.58092 65.534292 30.420266
-6.891008 66.405144 28.441467
-6.241934 66.019009 29.40652
-7.772524 65.350174 28.384468
-6.891008 66.405144 28.441467
5.57453 50.999459 47.298004
4.84214 51.693107 46.483705
4.647728 49.905628 47.247667
5.117528 40.984102 51.70173
4.231368 40.200991 51.476795
4.964075 39.240025 52.370908
5.325539 42.722071 51.061906
5.117528 40.984102 51.70173
5.603353 44.556145 50.401262
4.662634 43.779142 50.146973
5.325539 42.722071 51.061906
5.87511 46.424875 49.714754
5.603353 44.556145 50.401262
6.094945 48.224256 49.002573
5.160284 47.412598 48.774147
5.87511 46.424875 49.714754
6.302553 50.144098 48.213386
6.094945 48.224256 49.002573
5.57453 50.999459 47.298004
6.302553 50.144098 48.213386
3 0 62 60
3 0 64 62
3 0 66 64
3 243 68 244
3 246 245 68
3 2 247 248
3 2 249 251
3 249 71 250
3 249 250 251
3 1 74 72
3 3 77 75
3 3 79 77
3 3 80 79
3 4 83 81
3 6 86 84
3 6 88 86
3 6 90 88
3 8 93 91
3 8 95 93
3 8 97 95
3 253 252 98
3 9 101 100
3 9 103 101
3 9 105 103
3 10 108 106
3 10 110 108
3 10 112 110
3 12 115 113
3 12 254 256
3 256 255 115
3 254 255 256
3 13 118 116
3 13 120 118
3 14 122 121
3 14 124 122
3 5 127 125
3 15 130 128
3 15 132 130
3 15 134 132
3 257 137 258
3 259 258 135
3 257 258 259
3 261 260 137
3 7 140 138
3 11 143 141
3 16 146 144
3 18 147 61
3 18 148 147
3 18 150 148
3 20 151 63
3 20 152 151
3 20 154 152
3 22 155 65
3 22 156 155
3 23 262 264
3 262 157 263
3 262 263 264
3 23 158 157
3 23 160 158
3 25 161 67
3 25 162 161
3 25 164 162
3 265 165 266
3 267 266 69
3 265 266 267
3 269 268 165
3 270 167 271
3 28 168 70
3 28 169 168
3 29 272 273
3 30 170 73
3 30 171 170
3 31 174 172
3 33 175 76
3 33 176 175
3 33 178 176
3 35 179 78
3 35 274 276
3 276 275 179
3 274 275 276
3 35 277 278
3 280 279 180
3 36 183 181
3 38 184 82
3 38 185 184
3 17 186 145
3 39 187 85
3 39 188 187
3 39 189 188
3 40 190 87
3 40 191 190
3 40 193 191
3 42 194 89
3 42 195 194
3 19 196 149
3 43 197 92
3 43 198 197
3 43 199 198
3 44 281 283
3 283 282 94
3 281 282 283
3 44 284 285
3 44 286 287
3 45 200 96
3 45 288 290
3 290 289 200
3 288 289 290
3 21 201 153
3 292 291 99
3 293 202 294
3 295 203 296
3 297 296 202
3 295 296 297
3 46 204 102
3 46 205 204
3 46 206 205
3 47 207 104
3 47 208 207
3 24 209 159
3 48 210 107
3 48 211 210
3 48 212 211
3 49 213 109
3 49 214 213
3 49 216 214
3 51 217 111
3 51 218 217
3 26 219 163
3 52 220 114
3 52 221 220
3 52 298 300
3 300 299 221
3 298 299 300
3 27 301 303
3 303 302 166
3 301 302 303
3 305 304 117
3 307 306 119
3 53 308 310
3 310 309 123
3 308 309 310
3 53 311 313
3 311 222 312
3 311 312 313
3 37 223 182
3 54 224 126
3 54 225 224
3 32 226 173
3 55 227 129
3 55 228 227
3 55 229 228
3 56 230 131
3 56 231 230
3 56 232 231
3 57 233 133
3 57 234 233
3 34 235 177
3 58 236 136
3 58 237 236
3 58 238 237
3 41 239 192
3 315 314 139
3 50 240 215
3 59 241 142
3 59 242 241
3 60 61 16
3 62 61 60
3 62 18 61
3 62 63 18
3 64 63 62
3 64 20 63
3 64 65 20
3 66 65 64
3 66 22 65
3 316 23 317
3 318 67 319
3 320 319 23
3 318 319 320
3 68 321 323
3 321 67 322
3 321 322 323
3 68 25 67
3 68 69 25
3 324 69 325
3 326 325 68
3 324 325 326
3 328 327 69
3 329 70 330
3 71 331 333
3 331 70 332
3 331 332 333
3 71 28 70
3 72 73 29
3 74 73 72
3 74 30 73
3 75 76 31
3 77 76 75
3 77 33 76
3 77 78 33
3 79 78 77
3 79 35 78
3 79 334 336
3 336 335 35
3 334 335 336
3 80 337 339
3 339 338 79
3 337 338 339
3 80 340 341
3 81 82 36
3 83 82 81
3 83 38 82
3 84 85 17
3 86 85 84
3 86 39 85
3 86 87 39
3 88 87 86
3 88 40 87
3 88 89 40
3 90 89 88
3 90 42 89
3 91 92 19
3 93 92 91
3 93 43 92
3 93 94 43
3 95 94 93
3 95 44 94
3 95 96 44
3 97 96 95
3 97 45 96
3 98 99 21
3 342 99 343
3 344 343 98
3 342 343 344
3 346 345 99
3 100 347 348
3 101 349 351
3 351 350 100
3 349 350 351
3 101 352 353
3 101 354 356
3 354 102 355
3 354 355 356
3 103 102 101
3 103 46 102
3 103 104 46
3 105 104 103
3 105 47 104
3 106 107 24
3 108 107 106
3 108 48 107
3 108 109 48
3 110 109 108
3 110 49 109
3 110 111 49
3 112 111 110
3 112 51 111
3 113 114 26
3 115 114 113
3 115 52 114
3 115 357 359
3 359 358 52
3 357 358 359
3 361 360 115
3 116 117 27
3 118 117 116
3 118 362 364
3 364 363 117
3 362 363 364
3 118 365 367
3 365 119 366
3 365 366 367
3 120 119 118
3 120 368 370
3 370 369 119
3 368 369 370
3 121 371 372
3 122 373 375
3 375 374 121
3 373 374 375
3 122 376 377
3 122 378 380
3 378 123 379
3 378 379 380
3 124 123 122
3 124 53 123
3 125 126 37
3 127 126 125
3 127 54 126
3 128 129 32
3 130 129 128
3 130 55 129
3 130 131 55
3 132 131 130
3 132 56 131
3 132 133 56
3 134 133 132
3 134 57 133
3 135 136 34
3 137 136 135
3 137 58 136
3 137 381 383
3 383 382 58
3 381 382 383
3 385 384 137
3 138 139 41
3 140 139 138
3 140 386 388
3 388 387 139
3 386 387 388
3 141 142 50
3 143 142 141
3 143 59 142
3 144 145 4
3 146 145 144
3 146 17 145
3 61 146 16
3 147 146 61
3 147 17 146
3 147 84 17
3 148 84 147
3 148 6 84
3 148 149 6
3 150 149 148
3 150 19 149
3 63 150 18
3 151 150 63
3 151 19 150
3 151 91 19
3 152 91 151
3 152 8 91
3 152 153 8
3 154 153 152
3 154 21 153
3 65 154 20
3 155 154 65
3 155 21 154
3 155 98 21
3 156 98 155
3 156 389 391
3 391 390 98
3 389 390 391
3 157 392 393
3 157 394 395
3 157 396 398
3 396 100 397
3 396 397 398
3 158 100 157
3 158 9 100
3 158 159 9
3 160 159 158
3 160 24 159
3 67 160 23
3 161 160 67
3 161 24 160
3 161 106 24
3 162 106 161
3 162 10 106
3 162 163 10
3 164 163 162
3 164 26 163
3 69 164 25
3 165 164 69
3 165 26 164
3 165 113 26
3 399 113 400
3 401 400 165
3 399 400 401
3 402 12 403
3 404 403 113
3 402 403 404
3 405 166 406
3 167 407 409
3 407 166 408
3 407 408 409
3 167 27 166
3 70 410 412
3 410 167 411
3 410 411 412
3 168 167 70
3 168 27 167
3 168 116 27
3 169 116 168
3 169 13 116
3 73 413 415
3 415 414 29
3 413 414 415
3 170 416 418
3 418 417 73
3 416 417 418
3 170 419 420
3 170 421 423
3 421 121 422
3 421 422 423
3 171 121 170
3 171 14 121
3 172 173 5
3 174 173 172
3 174 32 173
3 76 174 31
3 175 174 76
3 175 32 174
3 175 128 32
3 176 128 175
3 176 15 128
3 176 177 15
3 178 177 176
3 178 34 177
3 78 178 33
3 179 178 78
3 179 34 178
3 179 135 34
3 424 135 425
3 426 425 179
3 424 425 426
3 428 427 135
3 430 429 35
3 180 431 433
3 433 432 7
3 431 432 433
3 435 434 180
3 437 436 11
3 438 2 439
3 181 182 1
3 183 182 181
3 183 37 182
3 82 183 36
3 184 183 82
3 184 37 183
3 184 125 37
3 185 125 184
3 185 5 125
3 145 83 4
3 186 83 145
3 186 38 83
3 85 186 17
3 187 186 85
3 187 38 186
3 187 185 38
3 188 185 187
3 188 5 185
3 188 172 5
3 189 172 188
3 189 31 172
3 87 189 39
3 190 189 87
3 190 31 189
3 190 75 31
3 191 75 190
3 191 3 75
3 191 192 3
3 193 192 191
3 193 41 192
3 89 193 40
3 194 193 89
3 194 41 193
3 194 138 41
3 195 138 194
3 195 7 138
3 149 90 6
3 196 90 149
3 196 42 90
3 92 196 19
3 197 196 92
3 197 42 196
3 197 195 42
3 198 195 197
3 198 7 195
3 198 180 7
3 199 180 198
3 199 440 442
3 442 441 180
3 440 441 442
3 94 199 43
3 443 199 444
3 445 444 94
3 443 444 445
3 447 446 199
3 96 448 450
3 450 449 44
3 448 449 450
3 200 451 453
3 453 452 96
3 451 452 453
3 200 454 455
3 200 456 458
3 456 457 458
3 460 459 200
3 153 97 8
3 201 97 153
3 201 45 97
3 99 201 21
3 461 201 462
3 463 462 99
3 461 462 463
3 464 45 465
3 466 465 201
3 464 465 466
3 468 467 45
3 469 29 470
3 202 471 472
3 202 473 475
3 473 29 474
3 473 474 475
3 202 72 29
3 203 72 202
3 203 1 72
3 102 476 477
3 204 478 480
3 480 479 102
3 478 479 480
3 204 481 482
3 204 483 485
3 483 203 484
3 483 484 485
3 205 203 204
3 205 1 203
3 205 181 1
3 206 181 205
3 206 36 181
3 104 206 46
3 207 206 104
3 207 36 206
3 207 81 36
3 208 81 207
3 208 4 81
3 159 105 9
3 209 105 159
3 209 47 105
3 107 209 24
3 210 209 107
3 210 47 209
3 210 208 47
3 211 208 210
3 211 4 208
3 211 144 4
3 212 144 211
3 212 16 144
3 109 212 48
3 213 212 109
3 213 16 212
3 213 60 16
3 214 60 213
3 214 0 60
3 214 215 0
3 216 215 214
3 216 50 215
3 111 216 49
3 217 216 111
3 217 50 216
3 217 141 50
3 218 141 217
3 218 11 141
3 163 112 10
3 219 112 163
3 219 51 112
3 114 219 26
3 220 219 114
3 220 51 219
3 220 218 51
3 221 218 220
3 221 11 218
3 221 486 488
3 488 487 11
3 486 487 488
3 490 489 221
3 492 491 52
3 493 12 494
3 495 12 496
3 495 496 497
3 499 498 12
3 166 500 502
3 500 501 502
3 504 503 166
3 117 505 507
3 507 506 27
3 505 506 507
3 509 508 117
3 119 510 511
3 514 513 119
3 512 513 514
3 123 515 516
3 518 517 123
3 222 519 520
3 222 521 523
3 521 2 522
3 521 522 523
3 182 74 1
3 223 74 182
3 223 30 74
3 126 223 37
3 224 223 126
3 224 30 223
3 224 171 30
3 225 171 224
3 225 14 171
3 173 127 5
3 226 127 173
3 226 54 127
3 129 226 32
3 227 226 129
3 227 54 226
3 227 225 54
3 228 225 227
3 228 14 225
3 228 124 14
3 229 124 228
3 229 53 124
3 131 229 55
3 230 229 131
3 230 53 229
3 230 222 53
3 231 222 230
3 231 2 222
3 231 71 2
3 232 71 231
3 232 28 71
3 133 232 56
3 233 232 133
3 233 28 232
3 233 169 28
3 234 169 233
3 234 13 169
3 177 134 15
3 235 134 177
3 235 57 134
3 136 235 34
3 236 235 136
3 236 57 235
3 236 234 57
3 237 234 236
3 237 13 234
3 237 120 13
3 238 120 237
3 238 524 526
3 526 525 120
3 524 525 526
3 527 238 528
3 529 528 58
3 527 528 529
3 530 238 531
3 533 532 238
3 192 80 3
3 239 80 192
3 239 534 536
3 536 535 80
3 534 535 536
3 139 239 41
3 537 239 538
3 539 538 139
3 537 538 539
3 541 540 239
3 542 140 543
3 544 543 7
3 542 543 544
3 545 140 546
3 548 547 140
3 215 66 0
3 240 66 215
3 240 22 66
3 142 240 50
3 241 240 142
3 241 22 240
3 241 156 22
3 242 156 241
3 242 549 551
3 551 550 156
3 549 550 551
3 552 143 553
3 554 553 11
3 552 553 554
3 555 143 556
3 557 59 558
3 559 558 143
3 557 558 559
3 560 59 561
3 562 242 563
3 564 563 59
3 562 563 564
3 565 242 566
3 568 567 242
