ply
format ascii 1.0
element vertex 519
property float x
property float y
property float z
element face 619
property list uchar int vertex_index
end_header
37.624447 10.544029 18.289042
30.94385 0.618132 33.173206
30.966967 24.270493 37.74786
32.203079 16.492239 31.775785
30.077671 9.570095 38.392338
36.028435 -6.34866 20.218523
38.860489 -3.581702 11.502884
38.069183 28.118042 15.078429
35.085522 22.957891 24.228546
34.157463 6.178484 26.350353
32.521763 -10.493269 27.550652
29.604414 -14.397416 34.468029
31.026176 -25.521042 28.425035
30.385906 19.87734 40.824036
30.577579 16.901567 37.971813
35.04092 -14.470881 20.673992
36.592594 -13.051272 16.618452
35.155422 31.607134 22.757944
33.820042 28.320108 27.048565
31.626787 8.658274 32.541512
33.103733 11.610577 29.139971
32.4566 3.316996 29.83807
33.340748 -2.160655 27.106377
31.707611 -4.457472 30.424034
28.442852 -23.637499 39.064934
28.695898 -16.547228 37.959099
29.175957 -21.833649 35.176369
30.295212 -19.907303 31.567774
29.838181 -27.1752 32.175602
38.015926 19.480251 16.780144
39.36869 21.202412 11.965016
39.089962 11.955677 13.647869
31.714117 28.251171 34.318779
32.524269 24.414171 31.127384
31.429522 20.733162 34.758701
30.968338 12.994728 35.266632
30.386303 5.579342 35.850773
36.918377 1.750181 19.392809
38.51786 3.662129 14.908507
37.607395 -5.061646 15.995049
37.812187 -12.193052 12.140688
36.639591 25.99419 19.743813
36.407673 17.352676 21.344315
33.569168 19.921293 28.230526
34.742176 14.527452 25.422823
35.891235 8.304079 22.595407
35.152084 -0.16879 23.39883
34.314442 -8.517431 23.879028
33.358864 -16.176083 24.431366
29.549988 2.615813 38.933712
29.755688 -2.044101 36.436649
29.163181 -9.454471 37.109974
30.213106 -7.152472 33.838291
30.941992 -12.383764 30.981758
31.728838 -17.807615 28.056768
32.49411 -23.713829 24.614931
39.669476 4.728348 10.250524
30.209322 16.762695 40.751259
34.538067 -18.34815 20.77087
35.274223 -17.809429 18.846045
33.220081 30.425209 28.63942
31.279842 4.621838 32.905293
31.999023 6.104523 31.266014
31.671221 2.139767 31.537239
32.062157 -0.645029 30.195448
31.31938 -1.99023 31.764099
28.665306 -26.157694 37.681774
28.739868 -22.847355 37.182095
29.033983 -25.249914 35.646721
29.508404 -24.508762 33.657639
29.360149 -27.902363 34.086304
37.859798 15.050875 17.577141
38.618374 15.868041 15.197357
38.414841 11.465608 15.958531
31.32386 26.212425 36.036102
31.616838 24.455755 34.411282
31.159384 22.520613 36.249889
30.348206 13.357697 38.14888
30.745625 15.124485 36.626572
30.484221 11.32189 36.85931
30.723713 9.296974 35.430477
30.216513 7.676479 37.06995
36.519794 -2.231184 19.773752
37.360729 -1.626348 17.576582
36.850452 -5.786882 18.123135
36.668915 -16.519329 14.627357
37.2668 -12.634413 14.349133
35.11837 27.411501 23.611044
35.860329 29.046059 21.317299
35.843483 24.493118 22.105255
36.587288 21.537012 20.524124
35.751942 20.044323 22.801483
32.388767 20.456524 31.463072
33.050346 22.510324 29.583685
32.85339 18.357513 30.085608
33.614166 9.112801 27.794525
33.90274 13.304283 27.351217
34.502827 10.314893 25.866264
35.36071 11.837755 23.961527
35.048645 7.450119 24.472437
35.588245 4.089708 22.948879
34.652756 3.149009 24.949825
32.973209 -6.358077 27.248154
33.839569 -5.346993 25.509792
33.44577 -9.221714 25.702673
33.858635 -12.534002 24.092846
33.002247 -13.088028 25.962057
29.627501 0.387597 37.670261
29.343702 -3.272704 37.97263
29.111229 -15.560193 36.11393
28.884506 -13.036872 37.620094
29.344366 -12.052407 35.790955
29.635033 -8.269409 35.473557
29.920622 -10.656656 34.082752
30.552004 -9.936952 32.401005
30.199993 -13.544256 32.781555
30.692245 -22.613098 29.977278
30.990198 -18.834585 29.783884
31.398664 -21.631502 28.151449
32.131248 -20.807047 26.379284
31.735815 -24.706959 26.498917
38.700939 -0.182735 13.379071
39.136292 4.044271 12.620554
39.281971 0.286792 10.889132
30.651628 21.978025 39.304668
30.782307 20.452387 37.841068
30.460342 18.475611 39.338734
30.25436 15.111816 39.451286
30.029142 11.728504 39.65197
35.548183 -10.457225 20.473856
36.368538 -9.688763 18.458696
35.845146 -13.73609 18.682959
34.456215 29.953587 25.027479
34.426075 25.511326 25.686646
31.934114 12.559452 32.169918
32.598618 13.891927 30.529612
32.337688 9.879803 30.849415
32.793201 7.48669 29.528374
33.300213 5.007346 28.132797
33.72131 1.933358 26.847893
32.878807 0.731918 28.543056
32.516121 -3.379696 28.741219
32.118809 -7.264749 29.012987
28.285484 -21.319361 40.397385
28.394527 -17.868427 39.837112
28.539106 -20.153276 38.464104
28.884487 -19.307274 36.650948
29.352062 -18.170671 34.835308
29.901691 -17.17955 33.12434
29.653927 -20.929121 33.465733
30.036818 -23.640734 31.863588
30.405008 -26.233526 30.283609
38.096451 23.616846 15.946228
38.775097 24.813583 13.482037
38.769165 20.190895 14.288168
39.269577 16.639681 12.84699
38.844318 -7.2136 9.510737
39.303185 -3.428794 8.928788
32.624004 28.533714 30.732756
32.08036 26.395029 32.689529
31.963526 22.449471 32.927387
31.77742 18.513315 33.244919
30.97016 18.818098 36.429802
31.206461 16.861511 35.053768
31.56094 14.820942 33.530117
31.298695 11.020617 33.823273
30.970203 7.145331 34.204693
30.62731 3.040165 34.517227
37.30534 6.073011 18.897108
38.112263 6.804276 16.650806
37.755436 2.623369 17.183393
38.079365 -0.801874 15.505771
38.26162 -4.42381 13.835085
37.134258 -9.078538 16.306681
37.806602 -8.445017 14.121718
38.389191 -7.965984 11.739535
36.644112 30.359497 18.828516
37.41547 26.994364 17.344936
37.375111 22.577785 18.248087
37.243191 18.451206 19.085691
37.011692 13.972909 19.938313
33.128735 26.385094 29.226027
33.71307 24.094635 27.699345
34.293129 21.369091 26.345594
33.325253 15.786341 28.803053
34.121449 17.264151 26.887569
34.968086 18.708443 24.807878
35.577694 15.728464 23.445679
36.209389 12.78537 21.964367
36.743946 9.484996 20.586048
36.450951 5.077491 21.00316
36.096584 0.986935 21.357466
35.660236 -3.235806 21.731068
34.19627 -1.188519 25.379589
34.718185 -4.339013 23.723812
35.182095 -7.412165 22.083214
34.728619 -11.332889 22.303534
34.241215 -15.307996 22.489481
33.755188 -19.083277 22.637241
31.102539 27.73908 37.741077
30.813131 25.504692 39.375229
29.809156 6.149021 38.713535
29.91934 3.963557 37.359928
30.072447 1.530368 36.077888
30.287107 -0.819685 34.836479
28.554245 -14.206172 39.400536
28.758186 -10.882257 38.949863
29.024437 -7.066776 38.527809
29.439056 -5.713508 36.82217
29.954308 -4.429938 35.179295
30.578007 -3.20159 33.514999
30.891159 -5.903769 32.195198
31.283314 -8.362541 30.799259
31.703442 -11.217248 29.314648
30.575157 -16.110685 31.345572
31.322342 -15.189236 29.560074
32.159264 -14.267788 27.696932
32.532017 -17.131203 26.213457
32.95369 -19.950277 24.468594
33.239925 -23.08238 22.716713
38.82325 7.838205 14.394766
39.477757 8.675883 11.899441
34.615446 -20.048839 19.83983
34.256201 -20.323285 20.828764
32.965052 31.529471 29.415229
33.25107 32.542851 28.272686
28.989764 -26.966371 35.90831
28.849645 -25.703804 36.664248
28.805425 -27.42026 36.925837
29.152847 -28.292595 35.128101
29.197066 -26.576138 34.866512
28.989764 -26.966371 35.90831
36.952963 -16.338031 13.430065
36.626728 -18.134557 13.614969
29.17624 -3.897396 38.827225
29.306556 -2.146532 38.63513
38.406786 28.59591 13.801569
38.042072 30.318745 14.534889
30.130762 14.372943 40.216305
30.231841 15.937255 40.101273
30.108243 15.198383 40.866291
30.018153 12.681287 40.316647
30.141751 13.42016 39.551628
30.130762 14.372943 40.216305
35.644373 -17.418352 17.827034
35.328594 -19.416804 17.888573
34.138129 29.136848 26.038022
34.144965 31.197931 25.742494
33.826878 30.381192 26.753037
39.378412 12.544007 12.485938
39.46822 14.886009 12.085499
39.179769 14.297679 13.247429
38.986211 -7.129224 8.317178
38.725504 -9.098993 8.478704
31.897239 27.3231 33.504154
32.137374 28.490448 32.492584
31.954253 29.418519 33.307209
38.048029 -11.815136 11.021508
38.336531 -9.701602 10.820932
38.100689 -10.079518 11.940112
35.53062 32.422845 21.497625
35.16223 33.749486 22.22681
31.171022 29.54556 37.641216
31.279159 28.866833 36.797143
30.754639 25.919639 40.280779
30.878843 27.190239 39.41769
30.688049 24.341502 40.129984
30.754639 25.919639 40.280779
29.537834 3.759488 39.628345
29.407308 1.950471 39.797691
29.679572 4.382417 38.823623
29.667419 5.526092 39.518257
29.537834 3.759488 39.628345
39.390274 23.341556 11.458723
39.093478 25.147142 12.217233
39.071894 23.007998 12.723527
39.824675 6.972266 9.871227
39.728815 8.946034 10.695685
39.573616 6.702116 11.074983
39.517617 -1.255956 8.673085
39.459229 -3.157783 7.721948
30.194128 17.300857 41.442856
30.297614 18.320017 40.787647
30.28242 18.85818 41.479245
30.119418 16.072775 41.465143
30.194128 17.300857 41.442856
30.108243 15.198383 40.866291
30.119418 16.072775 41.465143
34.983524 -19.779478 18.877418
34.906145 -18.078789 19.808457
34.615446 -20.048839 19.83983
35.328594 -19.416804 17.888573
34.983524 -19.779478 18.877418
33.526898 31.433743 27.548465
33.25107 32.542851 28.272686
33.520061 29.372659 27.843992
33.826878 30.381192 26.753037
33.526898 31.433743 27.548465
37.251906 -14.395573 13.290954
36.967858 -14.576871 14.488245
36.952963 -16.338031 13.430065
37.524599 -14.174892 12.186731
37.539494 -12.413733 13.24491
37.251906 -14.395573 13.290954
37.740781 -13.914029 11.066536
37.524599 -14.174892 12.186731
29.409698 0.797727 39.115671
29.407308 1.950471 39.797691
29.448455 -0.316381 38.483946
29.588744 1.501705 38.301986
29.409698 0.797727 39.115671
29.485602 -1.442554 37.821446
29.448455 -0.316381 38.483946
29.306556 -2.146532 38.63513
39.660419 21.458211 10.682196
39.603228 19.374399 11.194617
35.929834 -15.381683 17.745491
35.559685 -15.77276 18.764502
35.644373 -17.418352 17.827034
36.303558 -15.039274 16.713237
36.21887 -13.393681 17.650706
35.929834 -15.381683 17.745491
36.341719 -16.773302 15.71769
36.630754 -14.7853 15.622905
36.303558 -15.039274 16.713237
36.347842 -18.414412 14.734896
36.341719 -16.773302 15.71769
36.626728 -18.134557 13.614969
36.347842 -18.414412 14.734896
34.824703 32.880605 23.447046
35.16223 33.749486 22.22681
34.475099 32.053832 24.581813
34.144965 31.197931 25.742494
34.805819 30.780361 23.892711
34.824703 32.880605 23.447046
34.475099 32.053832 24.581813
28.340006 -19.593894 40.117249
28.300005 -18.324514 40.842508
28.245483 -20.049981 41.122644
39.553671 17.093034 11.635604
39.603228 19.374399 11.194617
39.319133 18.921046 12.406003
39.553671 17.093034 11.635604
39.46822 14.886009 12.085499
39.215645 -5.236821 8.026204
39.073752 -5.321197 9.219763
38.986211 -7.129224 8.317178
39.459229 -3.157783 7.721948
39.215645 -5.236821 8.026204
32.409197 29.55979 31.514198
32.667013 30.583723 30.461897
32.352182 27.464371 31.711143
32.409197 29.55979 31.514198
32.137374 28.490448 32.492584
28.20657 -21.683796 41.436132
28.245483 -20.049981 41.122644
28.258983 -23.007069 40.737966
28.20657 -21.683796 41.436132
28.337666 -24.166138 40.071741
28.364168 -22.47843 39.73116
28.258983 -23.007069 40.737966
28.430428 -25.45744 39.35204
28.337666 -24.166138 40.071741
28.541656 -26.717538 38.66046
28.554079 -24.897596 38.373354
28.430428 -25.45744 39.35204
28.661499 -27.901326 37.903286
28.541656 -26.717538 38.66046
28.805425 -27.42026 36.925837
28.661499 -27.901326 37.903286
38.564094 -9.325411 9.706533
38.616754 -7.589792 10.625136
38.336531 -9.701602 10.820932
38.725504 -9.098993 8.478704
38.564094 -9.325411 9.706533
38.048029 -11.815136 11.021508
37.740781 -13.914029 11.066536
37.718483 29.801161 15.732935
38.042072 30.318745 14.534889
35.883074 31.142308 20.777302
35.53062 32.422845 21.497625
35.507875 30.326597 22.037622
36.274966 31.799027 19.53291
35.883074 31.142308 20.777302
36.25222 29.702778 20.072907
36.63624 32.514767 18.261277
36.274966 31.799027 19.53291
37.005948 30.921889 17.607978
36.63624 32.514767 18.261277
37.391627 29.239322 16.866188
37.005948 30.921889 17.607978
37.029791 28.676931 18.086726
37.742327 27.556203 16.211683
37.718483 29.801161 15.732935
37.391627 29.239322 16.866188
32.922043 29.479461 29.686088
32.965052 31.529471 29.415229
32.667013 30.583723 30.461897
33.864762 -20.690849 21.76195
34.256201 -20.323285 20.828764
34.146627 -18.715713 21.704055
31.780191 30.318929 34.10759
31.954253 29.418519 33.307209
31.584949 29.122879 35.085994
31.780191 30.318929 34.10759
31.38982 28.103506 35.944656
31.518988 27.231798 35.177441
31.584949 29.122879 35.085994
31.2132 26.975752 36.888589
31.38982 28.103506 35.944656
31.279159 28.866833 36.797143
31.023547 28.307433 38.600614
31.171022 29.54556 37.641216
30.957835 26.621886 38.558153
31.023547 28.307433 38.600614
30.878843 27.190239 39.41769
30.607298 22.578168 40.094704
30.73238 23.741358 39.339948
30.688049 24.341502 40.129984
30.474436 21.527826 40.854388
30.518767 20.927682 40.064352
30.607298 22.578168 40.094704
30.367289 20.340567 41.572274
30.474436 21.527826 40.854388
30.28242 18.85818 41.479245
30.367289 20.340567 41.572274
29.913106 11.036512 40.429146
30.018153 12.681287 40.316647
29.901874 9.978255 39.809046
29.913106 11.036512 40.429146
29.926138 8.899051 39.17923
30.053407 10.649299 39.022154
29.901874 9.978255 39.809046
29.791881 7.188514 39.339828
29.667419 5.526092 39.518257
29.943413 7.859558 38.552937
29.926138 8.899051 39.17923
29.791881 7.188514 39.339828
28.367389 -16.589679 40.513652
28.300005 -18.324514 40.842508
28.447248 -14.758551 40.295365
28.367389 -16.589679 40.513652
28.474386 -16.037299 39.618824
28.533997 -12.984868 40.073441
28.447248 -14.758551 40.295365
28.635967 -11.32291 39.848105
28.533997 -12.984868 40.073441
28.656216 -12.544214 39.1752
28.748508 -9.546799 39.597707
28.635967 -11.32291 39.848105
28.881634 -7.639059 39.38668
28.748508 -9.546799 39.597707
28.891312 -8.974517 38.738836
29.016607 -5.794432 39.104815
28.881634 -7.639059 39.38668
29.184069 -5.16974 38.25022
29.17624 -3.897396 38.827225
29.016607 -5.794432 39.104815
33.60713 -22.6904 21.801685
33.864762 -20.690849 21.76195
33.497557 -21.082828 22.676977
29.311729 -29.562133 34.316924
29.152847 -28.292595 35.128101
29.526111 -29.311132 33.27321
29.311729 -29.562133 34.316924
29.765127 -28.947551 32.317859
29.599165 -27.538781 33.130953
29.526111 -29.311132 33.27321
30.001579 -28.417825 31.390502
29.765127 -28.947551 32.317859
30.284992 -27.946988 30.444505
30.121595 -26.704363 31.229605
30.001579 -28.417825 31.390502
30.563234 -27.662034 29.461915
30.284992 -27.946988 30.444505
30.873818 -27.305792 28.532628
30.715592 -25.877284 29.354322
30.563234 -27.662034 29.461915
31.197231 -26.865814 27.545501
30.873818 -27.305792 28.532628
31.55205 -26.458773 26.582442
31.380995 -25.114001 27.461976
31.197231 -26.865814 27.545501
31.89671 -26.082282 25.592556
31.55205 -26.458773 26.582442
32.275858 -25.585717 24.650563
32.114962 -24.210394 25.556924
31.89671 -26.082282 25.592556
32.61759 -25.294317 23.682531
32.275858 -25.585717 24.650563
32.990498 -24.978592 22.733422
32.867018 -23.398105 23.665822
32.61759 -25.294317 23.682531
33.342304 -24.642468 21.751776
32.990498 -24.978592 22.733422
33.60713 -22.6904 21.801685
33.342304 -24.642468 21.751776
38.759743 26.94368 13.003374
38.406786 28.59591 13.801569
38.42214 26.465812 14.280233
38.759743 26.94368 13.003374
39.093478 25.147142 12.217233
39.390274 23.341556 11.458723
39.660419 21.458211 10.682196
39.57231 10.90411 11.611724
39.378412 12.544007 12.485938
39.283859 10.31578 12.773655
39.57231 10.90411 11.611724
39.728815 8.946034 10.695685
39.507009 0.601838 9.653257
39.292578 -1.571001 9.90896
39.517617 -1.255956 8.673085
39.700762 2.822616 9.333953
39.475724 2.50757 10.569828
39.507009 0.601838 9.653257
39.886204 5.031061 8.984395
39.700762 2.822616 9.333953
39.824675 6.972266 9.871227
39.886204 5.031061 8.984395
3 223 222 58
3 224 60 225
3 1 63 61
3 1 65 63
3 226 68 227
3 228 227 66
3 226 227 228
3 229 70 230
3 231 230 68
3 229 230 231
3 0 73 71
3 2 76 74
3 4 79 77
3 4 81 79
3 5 84 82
3 233 232 85
3 8 89 87
3 8 91 89
3 3 94 92
3 9 97 95
3 9 99 97
3 9 101 99
3 10 104 102
3 10 106 104
3 234 108 235
3 11 111 109
3 11 113 111
3 11 115 113
3 12 118 116
3 12 120 118
3 7 236 237
3 6 123 121
3 13 126 124
3 238 127 239
3 240 239 57
3 238 239 240
3 241 128 242
3 243 242 127
3 241 242 243
3 15 131 129
3 245 244 59
3 18 246 248
3 246 132 247
3 246 247 248
3 18 133 132
3 19 136 134
3 21 137 62
3 21 138 137
3 21 140 138
3 23 141 64
3 23 142 141
3 24 145 143
3 26 146 67
3 26 147 146
3 26 149 147
3 28 150 69
3 28 151 150
3 29 154 152
3 31 155 72
3 31 249 251
3 251 250 155
3 249 250 251
3 253 252 156
3 32 254 256
3 254 159 255
3 254 255 256
3 34 160 75
3 34 161 160
3 14 162 125
3 35 163 78
3 35 164 163
3 35 165 164
3 36 166 80
3 36 167 166
3 37 170 168
3 39 171 83
3 39 172 171
3 16 173 130
3 40 174 86
3 40 175 174
3 40 257 259
3 259 258 175
3 257 258 259
3 17 260 261
3 41 176 88
3 41 177 176
3 41 178 177
3 42 179 90
3 42 180 179
3 33 181 158
3 43 182 93
3 43 183 182
3 20 184 135
3 44 185 96
3 44 186 185
3 44 187 186
3 45 188 98
3 45 189 188
3 45 190 189
3 46 191 100
3 46 192 191
3 22 193 139
3 47 194 103
3 47 195 194
3 47 196 195
3 48 197 105
3 48 198 197
3 262 199 263
3 264 200 265
3 267 266 200
3 49 268 269
3 49 270 272
3 270 201 271
3 270 271 272
3 49 202 201
3 50 203 107
3 50 204 203
3 25 205 144
3 51 206 110
3 51 207 206
3 51 208 207
3 52 209 112
3 52 210 209
3 52 211 210
3 53 212 114
3 53 213 212
3 27 214 148
3 54 215 117
3 54 216 215
3 54 217 216
3 55 218 119
3 55 219 218
3 30 273 275
3 275 274 153
3 273 274 275
3 38 220 169
3 56 221 122
3 56 276 278
3 278 277 221
3 276 277 278
3 280 279 157
3 281 57 282
3 283 282 13
3 281 282 283
3 284 57 285
3 287 286 57
3 58 59 15
3 288 59 289
3 290 289 58
3 288 289 290
3 292 291 59
3 60 293 294
3 60 295 297
3 295 18 296
3 295 296 297
3 61 62 19
3 63 62 61
3 63 21 62
3 63 64 21
3 65 64 63
3 65 23 64
3 66 67 24
3 68 67 66
3 68 26 67
3 68 69 26
3 70 69 68
3 70 28 69
3 71 72 29
3 73 72 71
3 73 31 72
3 74 75 32
3 76 75 74
3 76 34 75
3 77 78 14
3 79 78 77
3 79 35 78
3 79 80 35
3 81 80 79
3 81 36 80
3 82 83 37
3 84 83 82
3 84 39 83
3 85 86 16
3 298 86 299
3 300 299 85
3 298 299 300
3 301 40 302
3 303 302 86
3 301 302 303
3 305 304 40
3 87 88 17
3 89 88 87
3 89 41 88
3 89 90 41
3 91 90 89
3 91 42 90
3 92 93 33
3 94 93 92
3 94 43 93
3 95 96 20
3 97 96 95
3 97 44 96
3 97 98 44
3 99 98 97
3 99 45 98
3 99 100 45
3 101 100 99
3 101 46 100
3 102 103 22
3 104 103 102
3 104 47 103
3 104 105 47
3 106 105 104
3 106 48 105
3 306 49 307
3 308 107 309
3 310 309 49
3 308 309 310
3 108 311 313
3 311 107 312
3 311 312 313
3 108 50 107
3 109 110 25
3 111 110 109
3 111 51 110
3 111 112 51
3 113 112 111
3 113 52 112
3 113 114 52
3 115 114 113
3 115 53 114
3 116 117 27
3 118 117 116
3 118 54 117
3 118 119 54
3 120 119 118
3 120 55 119
3 315 314 30
3 121 122 38
3 123 122 121
3 123 56 122
3 124 125 2
3 126 125 124
3 126 14 125
3 57 126 13
3 127 126 57
3 127 14 126
3 127 77 14
3 128 77 127
3 128 4 77
3 129 130 5
3 131 130 129
3 131 16 130
3 59 131 15
3 316 131 317
3 318 317 59
3 316 317 318
3 319 16 320
3 321 320 131
3 319 320 321
3 322 85 323
3 324 323 16
3 322 323 324
3 325 85 326
3 328 327 85
3 329 17 330
3 132 331 332
3 132 333 335
3 333 17 334
3 333 334 335
3 132 87 17
3 133 87 132
3 133 8 87
3 134 135 3
3 136 135 134
3 136 20 135
3 62 136 19
3 137 136 62
3 137 20 136
3 137 95 20
3 138 95 137
3 138 9 95
3 138 139 9
3 140 139 138
3 140 22 139
3 64 140 21
3 141 140 64
3 141 22 140
3 141 102 22
3 142 102 141
3 142 10 102
3 143 336 338
3 336 144 337
3 336 337 338
3 145 144 143
3 145 25 144
3 67 145 24
3 146 145 67
3 146 25 145
3 146 109 25
3 147 109 146
3 147 11 109
3 147 148 11
3 149 148 147
3 149 27 148
3 69 149 26
3 150 149 69
3 150 27 149
3 150 116 27
3 151 116 150
3 151 12 116
3 152 153 7
3 154 153 152
3 154 30 153
3 72 154 29
3 155 154 72
3 155 30 154
3 155 339 341
3 341 340 30
3 339 340 341
3 343 342 155
3 156 157 6
3 344 157 345
3 346 345 156
3 344 345 346
3 348 347 157
3 349 158 350
3 159 351 353
3 351 158 352
3 351 352 353
3 159 33 158
3 75 159 32
3 160 159 75
3 160 33 159
3 160 92 33
3 161 92 160
3 161 3 92
3 125 76 2
3 162 76 125
3 162 34 76
3 78 162 14
3 163 162 78
3 163 34 162
3 163 161 34
3 164 161 163
3 164 3 161
3 164 134 3
3 165 134 164
3 165 19 134
3 80 165 35
3 166 165 80
3 166 19 165
3 166 61 19
3 167 61 166
3 167 1 61
3 354 143 355
3 356 143 357
3 358 24 359
3 360 359 143
3 358 359 360
3 361 24 362
3 363 66 364
3 365 364 24
3 363 364 365
3 366 66 367
3 369 368 66
3 168 169 0
3 170 169 168
3 170 38 169
3 83 170 37
3 171 170 83
3 171 38 170
3 171 121 38
3 172 121 171
3 172 6 121
3 130 84 5
3 173 84 130
3 173 39 84
3 86 173 16
3 174 173 86
3 174 39 173
3 174 172 39
3 175 172 174
3 175 6 172
3 175 156 6
3 370 156 371
3 372 371 175
3 370 371 372
3 374 373 156
3 376 375 40
3 377 7 378
3 88 379 381
3 381 380 17
3 379 380 381
3 176 382 384
3 384 383 88
3 382 383 384
3 176 385 386
3 176 387 388
3 177 389 391
3 391 390 176
3 389 390 391
3 177 392 394
3 392 7 393
3 392 393 394
3 177 152 7
3 178 152 177
3 178 29 152
3 90 178 41
3 179 178 90
3 179 29 178
3 179 71 29
3 180 71 179
3 180 0 71
3 158 395 397
3 395 60 396
3 395 396 397
3 181 60 158
3 181 18 60
3 93 181 33
3 182 181 93
3 182 18 181
3 182 133 18
3 183 133 182
3 183 8 133
3 135 94 3
3 184 94 135
3 184 43 94
3 96 184 20
3 185 184 96
3 185 43 184
3 185 183 43
3 186 183 185
3 186 8 183
3 186 91 8
3 187 91 186
3 187 42 91
3 98 187 44
3 188 187 98
3 188 42 187
3 188 180 42
3 189 180 188
3 189 0 180
3 189 168 0
3 190 168 189
3 190 37 168
3 100 190 45
3 191 190 100
3 191 37 190
3 191 82 37
3 192 82 191
3 192 5 82
3 139 101 9
3 193 101 139
3 193 46 101
3 103 193 22
3 194 193 103
3 194 46 193
3 194 192 46
3 195 192 194
3 195 5 192
3 195 129 5
3 196 129 195
3 196 15 129
3 105 196 47
3 197 196 105
3 197 15 196
3 197 58 15
3 198 58 197
3 198 398 400
3 400 399 58
3 398 399 400
3 401 32 402
3 403 32 404
3 405 74 406
3 407 406 32
3 405 406 407
3 199 408 410
3 408 74 409
3 408 409 410
3 199 2 74
3 411 199 412
3 200 413 415
3 413 199 414
3 413 414 415
3 200 2 199
3 200 124 2
3 416 124 417
3 418 417 200
3 416 417 418
3 419 13 420
3 421 420 124
3 419 420 421
3 422 13 423
3 425 424 13
3 426 128 427
3 428 128 429
3 430 4 431
3 432 431 128
3 430 431 432
3 201 433 434
3 201 435 437
3 435 4 436
3 435 436 437
3 201 81 4
3 202 81 201
3 202 36 81
3 107 202 49
3 203 202 107
3 203 36 202
3 203 167 36
3 204 167 203
3 204 1 167
3 144 438 439
3 205 440 442
3 442 441 144
3 440 441 442
3 205 443 444
3 110 205 25
3 206 205 110
3 206 445 447
3 447 446 205
3 445 446 447
3 206 448 449
3 207 450 452
3 452 451 206
3 450 451 452
3 207 453 454
3 207 455 457
3 455 108 456
3 455 456 457
3 208 108 207
3 208 50 108
3 112 208 51
3 209 208 112
3 209 50 208
3 209 204 50
3 210 204 209
3 210 1 204
3 210 65 1
3 211 65 210
3 211 23 65
3 114 211 52
3 212 211 114
3 212 23 211
3 212 142 23
3 213 142 212
3 213 10 142
3 148 115 11
3 214 115 148
3 214 53 115
3 117 214 27
3 215 214 117
3 215 53 214
3 215 213 53
3 216 213 215
3 216 10 213
3 216 106 10
3 217 106 216
3 217 48 106
3 119 217 54
3 218 217 119
3 218 48 217
3 218 198 48
3 219 198 218
3 219 458 460
3 460 459 198
3 458 459 460
3 461 70 462
3 463 70 464
3 465 28 466
3 467 466 70
3 465 466 467
3 468 28 469
3 470 151 471
3 472 471 28
3 470 471 472
3 473 151 474
3 475 12 476
3 477 476 151
3 475 476 477
3 478 12 479
3 480 120 481
3 482 481 12
3 480 481 482
3 483 120 484
3 485 55 486
3 487 486 120
3 485 486 487
3 488 55 489
3 490 219 491
3 492 491 55
3 490 491 492
3 493 219 494
3 496 495 219
3 153 497 499
3 499 498 7
3 497 498 499
3 501 500 153
3 503 502 30
3 169 73 0
3 220 73 169
3 220 31 73
3 122 220 38
3 221 220 122
3 221 31 220
3 221 504 506
3 506 505 31
3 504 505 506
3 508 507 221
3 157 123 6
3 509 123 510
3 511 510 157
3 509 510 511
3 512 56 513
3 514 513 123
3 512 513 514
3 515 56 516
3 518 517 56
