ply
format ascii 1.0
element vertex 383
property float x
property float y
property float z
element face 385
property list uchar int vertex_index
end_header
38.458775 41.307529 -33.129135
35.251774 74.728706 -29.485252
33.986862 77.297798 -3.607514
35.545082 47.15015 -39.475239
34.891945 78.149864 -17.150377
37.730816 56.991535 -31.88072
34.398579 66.808807 -39.205219
37.259338 44.001583 -36.112453
36.657757 66.092178 -30.737013
36.687061 69.010109 -25.347551
34.467392 78.351204 -10.585112
36.09425 71.548927 -13.021619
35.605537 71.166519 -6.558722
34.975819 70.017479 0.173495
33.679958 79.489433 -33.351173
35.054012 71.127975 -34.803547
36.178795 62.327629 -35.637371
33.677296 82.797043 -27.553072
35.20657 76.87793 -23.473619
33.604973 84.124329 -21.292713
33.304699 84.646027 -14.40182
32.926422 84.017014 -7.198544
39.278111 43.043694 -29.567667
36.515285 70.676376 -19.415249
32.492401 82.45298 -0.00657
33.461067 75.197563 3.536027
35.225212 57.209541 -39.582165
36.937683 52.896965 -36.164242
37.98745 42.420696 -34.424328
37.283386 39.681965 -35.781284
38.000797 38.851303 -34.078144
35.98859 70.364426 -30.241577
36.744541 67.438286 -28.197266
36.032642 71.723618 -27.423742
34.225994 78.022629 -7.15813
34.998035 74.998993 -8.448271
34.777664 74.354836 -5.135904
35.328487 70.546402 -3.172059
34.502705 73.703392 -1.824459
34.508133 77.079956 -31.546761
34.364853 75.477341 -34.20475
35.182793 73.091354 -32.31126
35.860332 68.717712 -32.906887
34.594498 49.269203 -41.078224
34.49271 44.131592 -40.908718
32.858891 86.352684 -26.534008
33.652386 83.651932 -24.466658
32.831413 87.102814 -23.143023
32.642452 87.72699 -16.465326
32.510002 87.56456 -12.73467
33.096695 84.549156 -10.716907
32.307915 87.420204 -9.251736
32.875526 85.102722 -29.745951
35.079475 77.589317 -20.325422
35.910515 73.657623 -21.533669
35.692108 74.595032 -18.485397
36.687927 67.943893 -11.017351
36.950058 67.681404 -14.246972
34.84066 61.943539 -39.546837
36.957729 59.846523 -33.8386
36.641998 57.445164 -35.928757
37.414169 55.164314 -34.056297
37.685104 50.711281 -34.404972
36.435947 45.65023 -37.807835
35.487514 42.451775 -39.256317
36.42474 40.976154 -37.541313
37.252731 61.46109 -31.396265
37.386333 63.090336 -28.881775
37.367191 64.879997 -26.134258
37.336048 66.006813 -23.305721
34.65992 78.539909 -13.948483
35.515148 74.864128 -15.097593
35.312035 74.84951 -11.733521
35.847164 71.543709 -9.736718
36.457474 67.646317 -7.7565
36.10923 67.515923 -4.391239
34.126347 73.585579 -36.683132
34.817635 69.180954 -36.957321
35.321682 64.503387 -37.514629
35.674328 66.62825 -35.293503
36.500786 64.280174 -33.22192
34.469872 78.879616 -28.709417
35.23978 76.041801 -26.611242
34.461525 79.910599 -25.738579
34.436264 80.480591 -22.52887
34.282665 81.144852 -19.357969
32.763779 87.517197 -19.810713
33.498737 84.420387 -17.987503
34.109486 81.456238 -15.903296
33.866589 81.679634 -12.388849
33.694511 81.315926 -9.07971
33.499916 80.586014 -5.41211
33.738804 81.160744 -30.611113
38.853855 42.086014 -31.677446
35.945286 73.081223 -24.66501
36.615986 70.045616 -22.4195
36.358719 71.071007 -16.31179
37.161415 67.245941 -17.569387
32.704193 83.408348 -3.647305
33.197815 80.081924 -1.806683
32.274574 81.430611 3.450373
32.997044 78.864143 1.745546
33.721203 76.445557 -0.113533
34.171696 72.804245 1.848241
34.42284 54.363033 -41.322582
35.463936 52.38184 -39.567337
35.780922 59.815563 -37.750633
36.156891 55.028019 -37.821484
36.325054 50.438694 -37.937187
37.171982 48.440914 -36.148109
37.931477 46.25647 -34.395958
38.574966 38.615925 -32.383881
39.090366 39.09343 -30.442497
32.416416 88.40588 -24.207572
32.845152 86.727749 -24.838515
32.430155 88.030815 -25.903064
32.121302 88.919208 -12.018496
32.180724 89.03371 -13.779982
32.020258 88.847031 -10.277029
32.408958 87.492382 -10.993203
32.121302 88.919208 -12.018496
32.430155 88.030815 -25.903064
32.421002 87.574658 -27.5096
38.069013 55.593712 -30.914428
37.924684 54.794929 -32.056556
37.116861 65.99765 -11.632544
36.998888 65.972274 -10.016646
33.853966 67.698868 -40.159914
34.098027 69.036415 -39.094071
34.144512 65.248577 -40.188835
33.853966 67.698868 -40.159914
34.619619 64.376173 -39.376028
34.365553 62.815943 -40.359644
34.144512 65.248577 -40.188835
37.924684 54.794929 -32.056556
37.766361 53.881319 -33.144344
37.572492 56.077924 -32.968508
36.826182 38.227362 -36.401022
37.234633 37.643202 -35.518316
35.387595 68.489952 -0.521337
35.563929 68.754413 -2.194114
35.152153 70.28194 -1.499282
35.234966 67.982479 1.114803
35.387595 68.489952 -0.521337
33.566811 78.688606 -34.645077
33.18094 80.741215 -34.270641
34.923288 40.844532 -39.858418
35.449693 40.213864 -39.011975
32.335237 89.079003 -19.102514
32.400898 88.817532 -20.771383
36.882528 68.779495 -19.935105
36.932879 68.464115 -21.43723
36.565635 70.360996 -20.917375
37.449618 65.556253 -16.450431
37.055736 67.463673 -15.908179
37.343939 65.773985 -14.789223
37.539684 65.233221 -17.944165
37.449618 65.556253 -16.450431
32.598297 82.930664 -1.826937
32.342492 84.644036 -2.800065
32.236596 84.166351 -0.979697
32.185257 80.686375 5.236199
31.955767 82.453106 4.391139
33.229056 77.030853 2.640786
32.864951 78.34542 3.471122
33.096962 76.51213 4.366362
34.824026 55.786287 -40.452374
34.32221 56.707611 -41.311594
34.723396 58.130865 -40.441386
38.141524 47.388559 -33.518131
37.80829 48.483875 -34.400465
38.018337 49.615965 -33.522638
38.21073 45.378292 -33.642889
38.141524 47.388559 -33.518131
38.260402 36.98431 -32.919814
38.575603 36.892849 -31.960036
37.593338 37.227871 -34.666746
37.234633 37.643202 -35.518316
37.642091 39.266634 -34.929714
34.048502 47.693452 -41.74135
34.049127 50.249403 -41.887598
33.997608 45.124647 -41.656597
34.048502 47.693452 -41.74135
34.543604 46.700397 -40.993471
33.890194 42.575722 -41.494723
33.997608 45.124647 -41.656597
32.246949 89.114925 -15.64531
32.274574 89.183899 -17.42982
32.576227 87.645775 -14.599998
32.246949 89.114925 -15.64531
32.180724 89.03371 -13.779982
32.429319 86.949677 -29.115572
32.41165 86.28978 -30.612955
32.867209 85.727703 -28.13998
32.429319 86.949677 -29.115572
32.421002 87.574658 -27.5096
37.247926 65.866405 -13.247355
36.818993 67.812648 -12.632161
37.116861 65.99765 -11.632544
37.343939 65.773985 -14.789223
37.247926 65.866405 -13.247355
32.162031 83.596897 0.77782
32.236596 84.166351 -0.979697
33.332348 74.593918 5.161883
33.096962 76.51213 4.366362
33.68383 73.323075 4.399859
33.332348 74.593918 5.161883
34.531121 60.497864 -40.423721
34.365553 62.815943 -40.359644
35.032936 59.57654 -39.564501
34.723396 58.130865 -40.441386
34.531121 60.497864 -40.423721
37.901829 51.654803 -33.318681
37.549637 52.937798 -34.230635
37.766361 53.881319 -33.144344
38.018337 49.615965 -33.522638
37.901829 51.654803 -33.318681
39.412672 41.463048 -28.891331
39.430426 43.611754 -28.516647
35.918306 39.476053 -38.154472
35.449693 40.213864 -39.011975
35.956127 41.713965 -38.398815
36.396859 38.874456 -37.281036
36.854063 40.329059 -36.661299
36.826182 38.227362 -36.401022
35.918306 39.476053 -38.154472
36.396859 38.874456 -37.281036
37.607933 60.042518 -30.382948
37.846975 57.807741 -30.625175
37.491773 59.226312 -31.638492
37.674734 60.857141 -29.125703
37.607933 60.042518 -30.382948
37.319532 62.275713 -30.13902
37.700428 61.733139 -27.894317
37.674734 60.857141 -29.125703
37.690857 62.62797 -26.520559
37.700428 61.733139 -27.894317
37.376762 63.985167 -27.508017
37.71311 63.182423 -25.135904
37.690857 62.62797 -26.520559
37.697539 63.74583 -23.721635
37.71311 63.182423 -25.135904
37.351619 65.443405 -24.719989
37.656522 64.354763 -22.3082
37.697539 63.74583 -23.721635
36.883662 65.823487 -8.386221
36.998888 65.972274 -10.016646
36.5727 67.795105 -9.386926
36.731825 65.809838 -6.822917
36.883662 65.823487 -8.386221
36.557703 65.744641 -5.140287
36.731825 65.809838 -6.822917
36.283352 67.58112 -6.073869
36.392224 65.599674 -3.560998
36.557703 65.744641 -5.140287
35.9543 67.239174 -2.803704
35.718858 69.031162 -3.781649
35.563929 68.754413 -2.194114
36.392224 65.599674 -3.560998
35.9543 67.239174 -2.803704
33.909258 76.68256 -35.071865
33.566811 78.688606 -34.645077
34.022405 77.483387 -33.777962
33.790005 75.736679 -36.311056
33.909258 76.68256 -35.071865
34.2456 74.53146 -35.443941
33.634794 74.687073 -37.556854
33.790005 75.736679 -36.311056
33.961911 72.424801 -37.833027
33.634794 74.687073 -37.556854
34.307555 70.222488 -37.970122
33.961911 72.424801 -37.833027
34.471991 71.383266 -36.820227
34.608107 67.99488 -38.08127
34.098027 69.036415 -39.094071
34.307555 70.222488 -37.970122
34.425886 41.68444 -40.684618
34.990112 43.291683 -40.082518
34.923288 40.844532 -39.858418
33.890194 42.575722 -41.494723
34.425886 41.68444 -40.684618
32.434715 88.610341 -22.437537
32.416416 88.40588 -24.207572
32.797596 87.310005 -21.476868
32.434715 88.610341 -22.437537
32.400898 88.817532 -20.771383
32.703115 87.622094 -18.138019
32.335237 89.079003 -19.102514
32.274574 89.183899 -17.42982
33.254442 81.572689 -32.939468
33.18094 80.741215 -34.270641
32.852226 84.379334 -31.136857
32.41165 86.28978 -30.612955
33.283865 82.408344 -31.569438
32.852226 84.379334 -31.136857
33.307165 83.131733 -30.178532
33.709381 80.325088 -31.981143
33.254442 81.572689 -32.939468
33.283865 82.408344 -31.569438
38.671919 43.293064 -32.283633
38.656315 41.696771 -32.40329
38.474379 42.903822 -33.009478
38.873455 43.956282 -31.348395
38.671919 43.293064 -32.283633
39.085583 44.435122 -30.293506
39.065983 42.564854 -30.622557
38.873455 43.956282 -31.348395
39.233277 45.156143 -29.265441
39.085583 44.435122 -30.293506
39.430426 43.611754 -28.516647
39.233277 45.156143 -29.265441
38.069013 55.593712 -30.914428
37.846975 57.807741 -30.625175
37.29291 66.444714 -21.88034
36.976017 68.026214 -22.86261
36.932879 68.464115 -21.43723
37.656522 64.354763 -22.3082
37.29291 66.444714 -21.88034
37.205593 67.064278 -19.012173
36.882528 68.779495 -19.935105
36.83835 68.961159 -18.492318
37.205593 67.064278 -19.012173
37.539684 65.233221 -17.944165
31.917972 88.738369 -8.453255
32.020258 88.847031 -10.277029
32.214947 87.161441 -7.449177
31.917972 88.738369 -8.453255
32.524201 85.459846 -6.422581
32.617169 85.718609 -8.22514
32.214947 87.161441 -7.449177
32.413086 85.155514 -4.646962
32.342492 84.644036 -2.800065
32.815308 83.712681 -5.422924
32.524201 85.459846 -6.422581
32.413086 85.155514 -4.646962
32.053117 83.085712 2.506292
31.955767 82.453106 4.391139
32.383488 81.941795 1.721901
32.162031 83.596897 0.77782
32.053117 83.085712 2.506292
32.503715 79.628654 4.323535
32.185257 80.686375 5.236199
32.635809 80.147377 2.597959
32.503715 79.628654 4.323535
32.864951 78.34542 3.471122
34.039144 72.126416 3.555966
33.816381 74.000904 2.692134
33.68383 73.323075 4.399859
34.408644 70.933105 2.677433
34.039144 72.126416 3.555966
34.810705 69.539722 1.84006
34.573757 71.410862 1.010868
34.408644 70.933105 2.677433
35.234966 67.982479 1.114803
34.810705 69.539722 1.84006
33.887507 55.326262 -42.106454
34.32221 56.707611 -41.311594
33.963299 52.796318 -42.009777
33.887507 55.326262 -42.106454
34.508669 51.816118 -41.200403
34.049127 50.249403 -41.887598
33.963299 52.796318 -42.009777
38.238717 43.460405 -33.657074
37.959463 44.338583 -34.410143
38.21073 45.378292 -33.642889
38.474379 42.903822 -33.009478
38.223112 41.864113 -33.776731
38.238717 43.460405 -33.657074
38.833303 37.131602 -30.989344
38.575603 36.892849 -31.960036
38.832666 38.854677 -31.413189
39.3188 39.487915 -29.328747
39.184239 41.068562 -30.005082
39.412672 41.463048 -28.891331
39.132736 37.34787 -29.897987
39.3188 39.487915 -29.328747
38.833303 37.131602 -30.989344
39.132736 37.34787 -29.897987
37.973318 37.101999 -33.766945
38.287881 38.733614 -33.231013
38.260402 36.98431 -32.919814
37.593338 37.227871 -34.666746
37.973318 37.101999 -33.766945
3 0 30 28
3 1 33 31
3 2 36 34
3 2 38 36
3 1 41 39
3 1 31 41
3 3 44 43
3 113 47 114
3 115 114 45
3 113 114 115
3 116 49 117
3 118 51 119
3 120 119 49
3 118 119 120
3 121 45 122
3 5 123 124
3 4 55 53
3 126 125 56
3 6 127 128
3 6 129 130
3 6 131 133
3 131 58 132
3 131 132 133
3 5 61 59
3 5 134 136
3 136 135 61
3 134 135 136
3 7 65 63
3 138 137 29
3 8 67 66
3 9 68 32
3 9 69 68
3 10 72 70
3 12 73 35
3 12 74 73
3 12 75 74
3 13 139 141
3 141 140 37
3 139 140 141
3 13 142 143
3 14 144 145
3 15 76 40
3 15 77 76
3 15 79 77
3 8 80 42
3 8 66 80
3 147 146 64
3 17 83 81
3 19 84 46
3 19 85 84
3 148 86 149
3 20 87 48
3 20 88 87
3 20 89 88
3 21 90 50
3 21 91 90
3 17 92 52
3 17 81 92
3 18 94 82
3 23 95 54
3 23 150 152
3 152 151 95
3 150 151 152
3 11 96 71
3 153 97 154
3 155 154 57
3 153 154 155
3 157 156 97
3 24 158 160
3 158 98 159
3 158 159 160
3 24 99 98
3 161 100 162
3 25 163 165
3 163 101 164
3 163 164 165
3 25 102 101
3 25 103 102
3 26 166 168
3 166 104 167
3 166 167 168
3 26 105 104
3 16 106 78
3 27 107 60
3 27 108 107
3 27 109 108
3 169 110 170
3 171 170 62
3 169 170 171
3 173 172 110
3 22 112 93
3 175 174 111
3 28 29 7
3 30 29 28
3 30 176 178
3 178 177 29
3 176 177 178
3 31 32 8
3 33 32 31
3 33 9 32
3 34 35 10
3 36 35 34
3 36 12 35
3 36 37 12
3 38 37 36
3 38 13 37
3 39 40 14
3 41 40 39
3 41 15 40
3 41 42 15
3 31 42 41
3 31 8 42
3 43 179 180
3 44 181 183
3 183 182 43
3 181 182 183
3 44 184 185
3 45 46 17
3 47 46 45
3 47 19 46
3 186 48 187
3 49 188 190
3 188 48 189
3 188 189 190
3 49 20 48
3 49 50 20
3 51 50 49
3 51 21 50
3 191 52 192
3 45 193 195
3 193 52 194
3 193 194 195
3 45 17 52
3 53 54 18
3 55 54 53
3 55 23 54
3 56 57 11
3 196 57 197
3 198 197 56
3 196 197 198
3 200 199 57
3 201 24 202
3 203 25 204
3 206 205 25
3 58 207 208
3 58 209 211
3 209 26 210
3 209 210 211
3 59 60 16
3 61 60 59
3 61 27 60
3 61 62 27
3 212 62 213
3 214 213 61
3 212 213 214
3 216 215 62
3 218 217 22
3 63 64 3
3 65 64 63
3 65 219 221
3 221 220 64
3 219 220 221
3 29 65 7
3 222 65 223
3 224 223 29
3 222 223 224
3 226 225 65
3 66 227 229
3 229 228 5
3 227 228 229
3 67 230 232
3 232 231 66
3 230 231 232
3 67 233 234
3 32 67 8
3 68 67 32
3 68 235 237
3 237 236 67
3 235 236 237
3 68 238 239
3 69 240 242
3 242 241 68
3 240 241 242
3 69 243 244
3 70 71 4
3 72 71 70
3 72 11 71
3 35 72 10
3 73 72 35
3 73 11 72
3 73 56 11
3 74 56 73
3 74 245 247
3 247 246 56
3 245 246 247
3 74 248 249
3 75 250 252
3 252 251 74
3 250 251 252
3 75 253 254
3 37 75 12
3 255 75 256
3 257 256 37
3 255 256 257
3 259 258 75
3 40 260 262
3 262 261 14
3 260 261 262
3 76 263 265
3 265 264 40
3 263 264 265
3 76 266 267
3 76 268 269
3 77 270 272
3 272 271 76
3 270 271 272
3 77 273 275
3 273 6 274
3 273 274 275
3 77 78 6
3 79 78 77
3 79 16 78
3 42 79 15
3 80 79 42
3 80 16 79
3 80 59 16
3 66 59 80
3 66 5 59
3 64 44 3
3 276 44 277
3 278 277 64
3 276 277 278
3 280 279 44
3 81 82 1
3 83 82 81
3 83 18 82
3 46 83 17
3 84 83 46
3 84 18 83
3 84 53 18
3 85 53 84
3 85 4 53
3 281 47 282
3 86 283 285
3 283 47 284
3 283 284 285
3 86 19 47
3 48 286 288
3 286 86 287
3 286 287 288
3 87 86 48
3 87 19 86
3 87 85 19
3 88 85 87
3 88 4 85
3 88 70 4
3 89 70 88
3 89 10 70
3 50 89 20
3 90 89 50
3 90 10 89
3 90 34 10
3 91 34 90
3 91 2 34
3 289 14 290
3 52 291 292
3 92 293 295
3 295 294 52
3 293 294 295
3 92 296 298
3 296 14 297
3 296 297 298
3 92 39 14
3 81 39 92
3 81 1 39
3 299 93 300
3 301 300 0
3 299 300 301
3 302 93 303
3 304 22 305
3 306 305 93
3 304 305 306
3 307 22 308
3 310 309 22
3 312 311 5
3 82 33 1
3 94 33 82
3 94 9 33
3 54 94 18
3 95 94 54
3 95 9 94
3 95 69 9
3 313 69 314
3 315 314 95
3 313 314 315
3 317 316 69
3 71 55 4
3 96 55 71
3 96 23 55
3 57 96 11
3 97 96 57
3 97 23 96
3 97 318 320
3 320 319 23
3 318 319 320
3 322 321 97
3 323 51 324
3 325 51 326
3 327 21 328
3 329 328 51
3 327 328 329
3 98 330 331
3 98 332 334
3 332 21 333
3 332 333 334
3 98 91 21
3 99 91 98
3 99 2 91
3 100 335 336
3 100 337 339
3 337 24 338
3 337 338 339
3 340 100 341
3 101 342 344
3 342 100 343
3 342 343 344
3 101 24 100
3 101 99 24
3 102 99 101
3 102 2 99
3 102 38 2
3 103 38 102
3 103 13 38
3 345 103 346
3 347 346 25
3 345 346 347
3 348 103 349
3 350 13 351
3 352 351 103
3 350 351 352
3 354 353 13
3 104 355 356
3 104 357 358
3 104 359 361
3 359 43 360
3 359 360 361
3 105 43 104
3 105 3 43
3 78 58 6
3 106 58 78
3 106 26 58
3 60 106 16
3 107 106 60
3 107 26 106
3 107 105 26
3 108 105 107
3 108 3 105
3 108 63 3
3 109 63 108
3 109 7 63
3 62 109 27
3 110 109 62
3 110 7 109
3 110 28 7
3 362 28 363
3 364 363 110
3 362 363 364
3 365 0 366
3 367 366 28
3 365 366 367
3 93 111 0
3 112 111 93
3 112 368 370
3 370 369 111
3 368 369 370
3 371 112 372
3 373 372 22
3 371 372 373
3 374 112 375
3 377 376 112
3 111 30 0
3 378 30 379
3 380 379 111
3 378 379 380
3 382 381 30
