ply
format ascii 1.0
element vertex 188
property float x
property float y
property float z
element face 169
property list uchar int vertex_index
end_header
4.192447 1.464197 -64.315552
4.485586 14.074 -67.914154
2.446621 10.212641 -64.662262
2.406734 15.91398 -65.41259
6.537355 5.13424 -67.67247
0.772224 0.269692 -58.9641
2.399963 4.149558 -62.92609
4.38378 7.966296 -66.592293
6.877362 11.333016 -69.608589
4.844291 19.568981 -68.420563
0.785864 3.281712 -60.006958
1.565351 2.026477 -60.917099
1.537877 5.146084 -61.881367
3.377861 12.09609 -66.312279
3.367403 8.98342 -65.647995
4.455795 10.946624 -67.375572
5.571274 9.674022 -68.190063
5.65862 12.701612 -68.883423
3.967481 25.464836 -66.051239
2.64557 23.762403 -64.968193
3.755447 23.107164 -66.562958
3.65845 20.414907 -66.953957
4.999506 22.270979 -68.183655
3.149287 -0.463107 -62.391533
1.510337 8.154598 -62.701817
2.325157 12.973505 -64.991356
3.400791 15.018707 -66.71579
5.33193 3.177706 -66.037338
1.477161 -1.032351 -59.718678
2.356532 0.976919 -61.804794
3.266929 2.66871 -63.646534
2.386391 7.18167 -63.8139
3.356908 5.936368 -64.806267
4.261058 4.704139 -65.493065
5.339029 6.420121 -67.097672
6.678727 8.22253 -68.707405
3.510202 17.694641 -66.9524
4.708848 16.839224 -68.357475
6.06612 18.47094 -69.673103
5.887183 15.655773 -69.449387
7.149692 14.395432 -70.317337
0.739185 4.753251 -60.392351
0.395629 3.863291 -59.518147
1.115191 5.685437 -61.329555
1.161871 4.213898 -60.944162
0.739185 4.753251 -60.392351
4.580373 25.074119 -66.873752
4.751486 26.269414 -66.529709
4.474355 23.895283 -67.129612
3.861464 24.286 -66.307098
4.580373 25.074119 -66.873752
5.096385 23.477191 -67.93996
4.377477 22.689072 -67.373306
4.474355 23.895283 -67.129612
4.12329 -0.293576 -63.590526
3.60171 -1.257228 -62.628517
3.670867 0.500545 -63.353543
2.365946 14.443742 -65.201973
1.868248 13.462342 -64.352034
1.909037 14.932579 -64.56265
6.507909 3.355586 -67.030659
5.905196 2.377319 -66.213093
5.934642 4.155973 -66.854904
0.392829 -0.68687 -57.967165
0.415099 0.874772 -58.546009
0.759451 -1.255434 -58.416432
0.380056 -2.211996 -57.419497
0.392829 -0.68687 -57.967165
1.124693 -0.381329 -59.341389
1.11192 -1.906455 -58.79372
0.759451 -1.255434 -58.416432
7.533893 10.619573 -69.86227
7.434576 9.064329 -69.411678
6.778045 9.777773 -69.157997
2.070966 22.85633 -64.371947
2.632837 22.533854 -65.216919
6.690576 17.857655 -70.16647
6.817868 19.324015 -70.211182
6.601108 16.450072 -70.054611
5.976652 17.063356 -69.561245
6.690576 17.857655 -70.16647
7.232362 15.819902 -70.488586
6.518438 15.025602 -69.883362
6.601108 16.450072 -70.054611
1.915525 16.30955 -64.689811
1.909037 14.932579 -64.56265
7.165879 4.196015 -67.766666
7.281128 5.805098 -68.370709
0.421918 2.380782 -59.067438
0.395629 3.863291 -59.518147
0.779044 1.775702 -59.485529
0.415099 0.874772 -58.546009
0.421918 2.380782 -59.067438
4.11874 26.583926 -65.709778
4.751486 26.269414 -66.529709
3.40421 25.88055 -65.211109
3.55547 26.99964 -64.869648
4.11874 26.583926 -65.709778
3.306526 24.613619 -65.509716
2.743255 25.029334 -64.669586
3.40421 25.88055 -65.211109
3.187776 22.206235 -66.014301
2.632837 22.533854 -65.216919
3.200509 23.434784 -65.765575
3.706949 21.761035 -66.758457
3.139278 20.860106 -66.209801
3.187776 22.206235 -66.014301
3.091845 -2.179495 -61.688589
2.682805 -1.379864 -61.415757
3.091845 -2.179495 -61.688589
3.60171 -1.257228 -62.628517
1.068358 8.605853 -62.07904
1.101422 7.189694 -61.73978
1.477715 9.585843 -62.988811
1.068358 8.605853 -62.07904
1.945857 10.614864 -63.969034
1.978479 9.183619 -63.68204
1.477715 9.585843 -62.988811
1.885125 11.995296 -64.133581
1.868248 13.462342 -64.352034
2.385889 11.593073 -64.826809
1.945857 10.614864 -63.969034
1.885125 11.995296 -64.133581
5.244753 1.547835 -65.367344
4.675012 0.69108 -64.506451
4.762188 2.320952 -65.176445
5.81802 0.747448 -65.543098
5.244753 1.547835 -65.367344
5.905196 2.377319 -66.213093
6.507909 3.355586 -67.030659
7.165879 4.196015 -67.766666
1.432163 -2.718686 -59.060537
1.11192 -1.906455 -58.79372
1.846741 -1.664486 -60.079329
1.432163 -2.718686 -59.060537
2.286427 -0.659851 -61.122387
1.846741 -1.664486 -60.079329
1.916847 -0.027716 -60.761736
2.75291 0.256906 -62.098163
2.682805 -1.379864 -61.415757
2.286427 -0.659851 -61.122387
1.524107 6.650341 -62.291592
1.115191 5.685437 -61.329555
1.101422 7.189694 -61.73978
7.351814 7.349243 -68.888176
7.281128 5.805098 -68.370709
6.608041 6.678385 -68.189937
7.351814 7.349243 -68.888176
7.434576 9.064329 -69.411678
2.146189 24.204384 -64.178747
2.743255 25.029334 -64.669586
2.146189 24.204384 -64.178747
2.070966 22.85633 -64.371947
2.432911 17.324765 -65.457657
1.915525 16.30955 -64.689811
3.058769 19.575229 -66.228341
3.139278 20.860106 -66.209801
2.984645 18.215096 -66.227562
3.058769 19.575229 -66.228341
3.584326 19.054774 -66.953179
2.958468 16.80431 -66.182495
2.432911 17.324765 -65.457657
2.984645 18.215096 -66.227562
5.721936 23.002323 -68.691318
5.096385 23.477191 -67.93996
5.637182 21.707598 -68.901181
5.721936 23.002323 -68.691318
6.359612 22.438942 -69.408844
5.559574 20.356599 -69.019634
4.921899 20.91998 -68.302109
5.637182 21.707598 -68.901181
6.170488 19.807578 -69.645905
6.817868 19.324015 -70.211182
5.455205 19.01996 -69.046833
5.559574 20.356599 -69.019634
6.170488 19.807578 -69.645905
7.924016 15.193091 -70.878597
7.232362 15.819902 -70.488586
7.801892 13.693946 -70.616291
7.924016 15.193091 -70.878597
8.576216 14.491606 -71.177551
7.665727 12.162738 -70.261917
7.013527 12.864224 -69.962963
7.801892 13.693946 -70.616291
7.533893 10.619573 -69.86227
7.665727 12.162738 -70.261917
4.12329 -0.293576 -63.590526
4.675012 0.69108 -64.506451
3 41 10 42
3 43 12 44
3 45 44 10
3 43 44 45
3 1 15 13
3 1 17 15
3 46 18 47
3 48 20 49
3 50 49 18
3 48 49 50
3 51 22 52
3 53 52 20
3 51 52 53
3 0 54 56
3 56 55 23
3 54 55 56
3 3 57 59
3 57 25 58
3 57 58 59
3 3 26 25
3 4 60 62
3 62 61 27
3 60 61 62
3 5 63 64
3 5 65 67
3 65 66 67
3 5 68 70
3 68 28 69
3 68 69 70
3 6 29 11
3 6 30 29
3 2 31 24
3 7 32 14
3 7 33 32
3 7 34 33
3 8 35 16
3 8 71 73
3 73 72 35
3 71 72 73
3 75 74 19
3 9 36 21
3 9 37 36
3 76 38 77
3 78 39 79
3 80 79 38
3 78 79 80
3 81 40 82
3 83 82 39
3 81 82 83
3 84 3 85
3 87 86 4
3 10 88 89
3 10 90 92
3 90 5 91
3 90 91 92
3 10 11 5
3 12 11 10
3 12 6 11
3 13 14 2
3 15 14 13
3 15 7 14
3 15 16 7
3 17 16 15
3 17 8 16
3 18 93 94
3 18 95 97
3 95 96 97
3 18 98 100
3 98 19 99
3 98 99 100
3 20 19 18
3 20 101 103
3 103 102 19
3 101 102 103
3 20 104 106
3 104 21 105
3 104 105 106
3 22 21 20
3 22 9 21
3 23 107 108
3 110 109 23
3 111 24 112
3 113 24 114
3 115 2 116
3 117 116 24
3 115 116 117
3 25 118 119
3 25 120 122
3 120 2 121
3 120 121 122
3 25 13 2
3 26 13 25
3 26 1 13
3 27 123 125
3 125 124 0
3 123 124 125
3 128 127 27
3 126 127 128
3 130 129 4
3 28 131 132
3 28 133 134
3 11 28 5
3 29 28 11
3 29 135 137
3 137 136 28
3 135 136 137
3 29 138 140
3 138 23 139
3 138 139 140
3 30 23 29
3 30 0 23
3 24 141 143
3 141 12 142
3 141 142 143
3 31 12 24
3 31 6 12
3 14 31 2
3 32 31 14
3 32 6 31
3 32 30 6
3 33 30 32
3 33 0 30
3 33 27 0
3 34 27 33
3 34 4 27
3 16 34 7
3 35 34 16
3 35 4 34
3 35 144 146
3 146 145 4
3 144 145 146
3 148 147 35
3 19 149 150
3 152 151 19
3 153 3 154
3 21 155 156
3 36 157 159
3 159 158 21
3 157 158 159
3 36 160 162
3 160 3 161
3 160 161 162
3 36 26 3
3 37 26 36
3 37 1 26
3 163 22 164
3 165 22 166
3 165 166 167
3 168 9 169
3 170 169 22
3 168 169 170
3 38 171 172
3 38 173 175
3 173 9 174
3 173 174 175
3 38 37 9
3 39 37 38
3 39 1 37
3 39 17 1
3 40 17 39
3 40 8 17
3 176 40 177
3 178 40 179
3 178 179 180
3 181 8 182
3 183 182 40
3 181 182 183
3 185 184 8
3 187 186 0
