ply
format ascii 1.0
element vertex 368
property float x
property float y
property float z
element face 366
property list uchar int vertex_index
end_header
0.444677 -7.06246 -56.196083
9.896015 -36.803749 -38.542763
4.474018 -28.330954 -45.362991
-2.873408 -8.296381 -60.364635
0.303506 -18.365683 -52.774372
-0.766425 -1.947405 -60.218426
-2.571131 -2.880743 -62.286884
-1.171281 -7.482529 -58.61541
2.972758 -30.315971 -47.140476
2.176239 -23.441504 -49.057457
0.55762 -24.648371 -50.906559
-1.489678 -19.40382 -54.623848
16.396137 -33.581848 -31.478174
14.369769 -37.285191 -33.409447
11.448619 -34.12759 -36.592968
8.582203 -30.703056 -39.91106
5.929104 -26.74507 -43.39579
7.130352 -33.014774 -41.797718
5.591346 -35.092548 -43.753754
-4.647791 -4.043397 -63.830811
-5.003318 -9.456858 -61.766895
1.669844 -11.687292 -52.442436
3.605855 -22.09244 -47.097912
1.748684 -17.30127 -50.84745
0.256323 -12.588025 -54.572708
-1.361066 -13.222135 -56.654175
-3.288549 -14.150818 -58.33934
0.082975 -1.91109 -58.832207
-0.147483 -4.460351 -58.221821
-0.967914 -4.640103 -59.454624
-0.336235 -7.159232 -57.480095
8.792528 -26.589735 -39.871399
2.037019 -30.847561 -48.121201
1.652712 -27.496544 -49.081059
0.734063 -28.094727 -49.976421
-0.448227 -25.311844 -51.814434
12.06302 -37.118362 -35.980076
10.57549 -35.518318 -37.635612
9.976767 -32.418808 -38.255642
9.174673 -33.576511 -39.238201
7.774426 -31.62042 -40.932674
8.497135 -34.905781 -40.150379
-2.725143 -5.576911 -61.347202
-3.547963 -3.419249 -63.108742
-3.69354 -6.117154 -62.109001
-4.79875 -6.682404 -62.819904
-3.956782 -8.742924 -61.220646
5.148866 -27.300068 -44.465477
4.693485 -24.333055 -45.265633
4.01611 -25.224817 -46.199638
1.177889 -20.8957 -50.935265
1.932117 -20.310045 -49.948269
1.027333 -17.698555 -51.895523
1.019333 -14.790228 -52.668514
0.254368 -15.323114 -53.718365
-0.567769 -12.820652 -55.740295
-0.529652 -15.943672 -54.63063
-2.409589 -16.640142 -56.535023
-1.656259 -2.40526 -61.332668
-1.852878 -5.151157 -60.478836
-1.996595 -7.951622 -59.513226
3.730483 -29.231882 -46.298523
3.280348 -25.801311 -47.207577
2.56385 -26.783707 -48.062122
1.48949 -24.386539 -49.825985
0.407917 -21.546257 -51.812611
-0.519716 -18.871481 -53.700672
-0.564704 -21.956118 -52.847744
16.834236 -36.595184 -30.77832
15.352971 -35.365559 -32.414837
13.81737 -34.095699 -34.068417
12.937631 -35.625832 -34.962631
12.239736 -32.67281 -35.768799
10.690056 -31.036295 -37.485748
9.30476 -29.352339 -39.092964
7.985895 -27.706898 -40.711697
6.658536 -25.812624 -42.471973
7.221211 -28.751331 -41.634155
6.416376 -29.724216 -42.685398
5.749111 -30.73403 -43.574879
7.845899 -36.306568 -41.040562
6.371161 -34.150986 -42.792042
5.024193 -31.779104 -44.501469
4.260169 -32.648827 -45.416012
3.424856 -33.767197 -46.281246
-4.51328 -1.251544 -64.87175
-5.750908 -4.875681 -64.297531
-5.857636 -7.635052 -63.170193
-5.995003 -10.341696 -62.063797
1.023195 -9.522343 -54.289791
5.43125 -23.603191 -44.272083
4.310408 -21.395643 -46.103458
3.330577 -19.141735 -47.923927
2.936696 -22.747971 -48.047783
2.652445 -19.713293 -48.919056
2.46703 -17.009069 -49.716976
1.695849 -14.509713 -51.605099
0.932048 -12.001531 -53.636917
0.289281 -9.714567 -55.497681
-0.463858 -10.016495 -56.598957
-1.281738 -10.206438 -57.697277
-2.08922 -10.792953 -58.469547
-1.437495 -16.255955 -55.648624
-2.284882 -13.682994 -57.541992
-3.104773 -11.131582 -59.41021
-4.158901 -11.654835 -60.140816
0.148597 -5.761406 -57.208952
0.218068 -4.375015 -57.616964
0.514148 -5.67607 -56.604095
8.568907 -25.11816 -40.314907
8.116931 -25.654657 -40.739898
0.901841 -29.922739 -49.456112
1.385541 -29.471144 -49.048811
1.553319 -31.299155 -48.528502
0.210085 -28.504955 -50.385332
0.901841 -29.922739 -49.456112
10.235753 -36.161034 -38.089188
10.998411 -37.12644 -37.241514
10.658674 -37.769155 -37.69509
-0.65546 -0.721541 -60.517817
-0.23076 -0.703383 -59.824707
-0.341725 -1.929248 -59.525317
-1.109905 -0.79365 -61.17622
-0.65546 -0.721541 -60.517817
-1.211342 -2.176333 -60.775547
-1.554822 -1.022577 -61.733341
-1.109905 -0.79365 -61.17622
-1.001292 -24.003148 -52.72041
-1.015535 -25.605334 -52.252992
17.106945 -38.14689 -30.40525
17.596024 -37.241324 -29.895931
14.86137 -36.325375 -32.912142
15.602308 -36.89069 -32.096698
15.110707 -37.850506 -32.594003
8.227415 -38.12668 -40.691033
8.56037 -37.33034 -40.233448
5.981253 -34.621767 -43.272898
6.744524 -35.817516 -42.383391
6.354616 -36.288297 -42.864247
3.684321 -35.550596 -45.86296
4.163 -35.05383 -45.397272
2.95022 -34.291922 -46.705238
3.684321 -35.550596 -45.86296
-2.97211 -1.674055 -63.20619
-2.450245 -1.507171 -62.690827
-5.177324 -3.069483 -64.631863
-5.110069 -1.673557 -65.152332
-4.580535 -2.64747 -64.351281
-5.19935 -4.459539 -64.064171
-5.728883 -3.485626 -64.865223
-5.177324 -3.069483 -64.631863
17.003585 -32.729999 -30.969553
17.198927 -34.168825 -30.584295
1.699262 -10.405537 -52.807329
2.018064 -11.632302 -51.859375
1.34652 -10.604817 -53.366113
1.375938 -9.323063 -53.731006
1.699262 -10.405537 -52.807329
0.333297 -3.100385 -57.922157
0.465479 -1.769419 -58.209654
-0.032254 -3.18572 -58.527014
0.333297 -3.100385 -57.922157
0.218068 -4.375015 -57.616964
9.280496 -26.02521 -39.434593
9.4921 -27.334159 -39.048197
9.280496 -26.02521 -39.434593
8.568907 -25.11816 -40.314907
-0.381061 -27.113513 -51.304339
0.142918 -26.703285 -50.895427
0.210085 -28.504955 -50.385332
-1.015535 -25.605334 -52.252992
-0.381061 -27.113513 -51.304339
14.768648 -38.83477 -32.991633
15.110707 -37.850506 -32.594003
11.742176 -37.926462 -36.413746
12.491723 -38.768774 -35.589037
11.319255 -36.31834 -36.807844
11.742176 -37.926462 -36.413746
10.998411 -37.12644 -37.241514
5.985512 -36.987064 -43.299488
6.354616 -36.288297 -42.864247
5.246245 -35.716505 -44.133526
5.985512 -36.987064 -43.299488
16.219347 -32.202976 -31.821971
15.587154 -32.997265 -32.347916
2.013838 -12.91836 -51.501772
2.018064 -11.632302 -51.859375
-2.43766 -18.301033 -55.953164
-1.949634 -18.021981 -55.579436
-1.977705 -19.682872 -54.997576
-2.948554 -16.947748 -56.898388
-2.43766 -18.301033 -55.953164
-3.388034 -15.703086 -57.800546
-2.849069 -15.39548 -57.437182
-2.948554 -16.947748 -56.898388
-3.83916 -14.331073 -58.721327
-3.388034 -15.703086 -57.800546
10.344583 -38.559 -38.149277
10.658674 -37.769155 -37.69509
9.585427 -37.57893 -38.984549
10.344583 -38.559 -38.149277
0.192252 -0.592335 -59.155568
0.465479 -1.769419 -58.209654
0.192252 -0.592335 -59.155568
-0.23076 -0.703383 -59.824707
-1.992809 -1.269429 -62.213718
-1.554822 -1.022577 -61.733341
-2.113695 -2.643002 -61.809776
-2.450245 -1.507171 -62.690827
-1.992809 -1.269429 -62.213718
-1.05953 -22.325285 -53.237065
-0.506466 -23.633981 -52.331089
-1.001292 -24.003148 -52.72041
-1.522018 -21.049136 -54.125117
-1.027191 -20.679969 -53.735796
-1.05953 -22.325285 -53.237065
-1.977705 -19.682872 -54.997576
-1.522018 -21.049136 -54.125117
0.799631 -6.852882 -55.639822
0.514148 -5.67607 -56.604095
17.417977 -35.675493 -30.234368
17.596024 -37.241324 -29.895931
16.615187 -35.088516 -31.128247
17.198927 -34.168825 -30.584295
17.417977 -35.675493 -30.234368
16.342941 -37.505503 -31.27844
17.106945 -38.14689 -30.40525
16.093604 -35.980372 -31.596578
16.342941 -37.505503 -31.27844
15.602308 -36.89069 -32.096698
15.065571 -33.88912 -32.816248
15.587154 -32.997265 -32.347916
15.874554 -34.473703 -31.946506
14.297771 -33.25419 -33.643038
15.065571 -33.88912 -32.816248
14.585171 -34.730629 -33.241627
13.502549 -32.586619 -34.493095
14.297771 -33.25419 -33.643038
13.993835 -38.085854 -33.847217
14.768648 -38.83477 -32.991633
12.840461 -38.002439 -35.132532
12.491723 -38.768774 -35.589037
13.277767 -37.256175 -34.62381
12.840461 -38.002439 -35.132532
12.500325 -36.372097 -35.471353
13.6537 -36.455512 -34.186039
13.993835 -38.085854 -33.847217
13.277767 -37.256175 -34.62381
12.713732 -31.875174 -35.343287
13.502549 -32.586619 -34.493095
13.028553 -33.384254 -34.918608
11.948029 -31.241414 -36.16516
12.713732 -31.875174 -35.343287
11.173189 -30.423157 -37.023634
11.948029 -31.241414 -36.16516
11.464896 -31.854552 -36.627274
10.440863 -29.557439 -37.855372
11.173189 -30.423157 -37.023634
9.748216 -28.715461 -38.65898
10.440863 -29.557439 -37.855372
9.997408 -30.194317 -38.289356
9.048644 -27.971037 -39.482181
9.4921 -27.334159 -39.048197
9.748216 -28.715461 -38.65898
7.713614 -26.213239 -41.160048
8.116931 -25.654657 -40.739898
8.389212 -27.148316 -40.291548
7.322216 -26.759761 -41.591835
7.049934 -25.266102 -42.040185
7.713614 -26.213239 -41.160048
8.885987 -36.629946 -39.788356
9.196575 -35.854765 -39.346571
9.585427 -37.57893 -38.984549
8.171517 -35.606174 -40.595471
8.885987 -36.629946 -39.788356
8.56037 -37.33034 -40.233448
7.481893 -36.895308 -41.50765
8.227415 -38.12668 -40.691033
7.10853 -35.228777 -41.916302
7.481893 -36.895308 -41.50765
6.744524 -35.817516 -42.383391
4.580657 -34.494644 -44.964655
4.925757 -33.870688 -44.584883
5.246245 -35.716505 -44.133526
3.842513 -33.208012 -45.848629
4.580657 -34.494644 -44.964655
4.163 -35.05383 -45.397272
2.256301 -32.832104 -47.625215
2.730938 -32.307379 -47.201223
2.95022 -34.291922 -46.705238
1.553319 -31.299155 -48.528502
2.256301 -32.832104 -47.625215
-3.460527 -1.943308 -63.617119
-2.97211 -1.674055 -63.20619
-3.059547 -3.149996 -62.697813
-3.943185 -0.859455 -64.498623
-3.460527 -1.943308 -63.617119
-4.030622 -2.335396 -63.990246
-4.419796 0.19497 -65.349804
-3.943185 -0.859455 -64.498623
-5.040192 -0.19875 -65.687313
-4.419796 0.19497 -65.349804
-5.040192 -0.19875 -65.687313
-5.110069 -1.673557 -65.152332
-6.304613 -4.08599 -64.969761
-5.728883 -3.485626 -64.865223
-6.30094 -5.406395 -64.405548
-6.304613 -4.08599 -64.969761
-6.354304 -6.786081 -63.841879
-6.30094 -5.406395 -64.405548
-5.804272 -6.255367 -63.733862
-6.363338 -8.168757 -63.240055
-6.354304 -6.786081 -63.841879
-6.432021 -9.52208 -62.686857
-6.363338 -8.168757 -63.240055
-5.926319 -8.988374 -62.616995
-6.419343 -10.543483 -62.223669
-6.432021 -9.52208 -62.686857
17.003585 -32.729999 -30.969553
16.219347 -32.202976 -31.821971
1.08889 -8.082824 -54.686676
1.375938 -9.323063 -53.731006
0.733936 -8.292402 -55.242937
0.799631 -6.852882 -55.639822
1.08889 -8.082824 -54.686676
6.426831 -24.274496 -42.919485
7.049934 -25.266102 -42.040185
5.813188 -23.169779 -43.81954
6.426831 -24.274496 -42.919485
6.044893 -24.707907 -43.372028
5.246178 -22.114841 -44.710184
5.813188 -23.169779 -43.81954
4.685757 -21.011067 -45.625872
5.246178 -22.114841 -44.710184
4.870829 -22.499417 -45.18777
4.181645 -20.087701 -46.491144
4.685757 -21.011067 -45.625872
3.69173 -18.960746 -47.401378
4.181645 -20.087701 -46.491144
3.820492 -20.268689 -47.013693
3.242812 -17.798803 -48.317217
3.69173 -18.960746 -47.401378
2.811038 -16.73247 -49.213741
3.242812 -17.798803 -48.317217
2.898803 -18.075402 -48.820452
2.412431 -15.579249 -50.139042
2.811038 -16.73247 -49.213741
2.026841 -14.329571 -51.083103
2.412431 -15.579249 -50.139042
2.08144 -15.759391 -50.661038
1.682847 -13.098502 -52.023768
2.013838 -12.91836 -51.501772
2.026841 -14.329571 -51.083103
-4.274336 -13.083082 -59.622065
-3.723725 -12.902826 -59.240078
-3.83916 -14.331073 -58.721327
-4.676798 -11.930498 -60.418707
-4.274336 -13.083082 -59.622065
-5.099006 -10.831509 -61.231746
-4.58111 -10.555847 -60.953856
-4.676798 -11.930498 -60.418707
-5.594849 -11.273928 -61.380198
-5.499161 -9.899277 -61.915346
-5.099006 -10.831509 -61.231746
-6.113675 -11.410262 -61.655442
-5.594849 -11.273928 -61.380198
-6.419343 -10.543483 -62.223669
-6.113675 -11.410262 -61.655442
3 0 106 108
3 106 28 107
3 106 107 108
3 0 30 28
3 110 109 31
3 111 34 112
3 113 112 32
3 111 112 113
3 115 114 34
3 1 116 118
3 116 37 117
3 116 117 118
3 1 39 37
3 1 41 39
3 3 44 42
3 3 46 44
3 2 49 47
3 4 52 50
3 4 54 52
3 4 56 54
3 5 119 121
3 121 120 27
3 119 120 121
3 5 122 123
3 5 124 126
3 124 58 125
3 124 125 126
3 7 59 29
3 7 60 59
3 8 63 61
3 10 64 33
3 10 65 64
3 10 67 65
3 128 127 35
3 129 68 130
3 13 131 133
3 131 69 132
3 131 132 133
3 13 70 69
3 14 71 36
3 14 72 71
3 14 73 72
3 15 74 38
3 15 75 74
3 15 77 75
3 17 78 40
3 17 79 78
3 134 80 135
3 18 136 138
3 136 81 137
3 136 137 138
3 18 82 81
3 18 83 82
3 139 84 140
3 142 141 84
3 6 143 144
3 19 85 43
3 19 145 147
3 147 146 85
3 145 146 147
3 19 148 150
3 148 86 149
3 148 149 150
3 20 87 45
3 20 88 87
3 12 151 152
3 21 153 154
3 21 155 157
3 155 89 156
3 155 156 157
3 16 90 76
3 22 91 48
3 22 92 91
3 9 93 62
3 23 94 51
3 23 95 94
3 23 96 95
3 24 97 53
3 24 98 97
3 24 99 98
3 25 100 55
3 25 101 100
3 11 102 66
3 26 103 57
3 26 104 103
3 26 105 104
3 158 27 159
3 28 160 162
3 160 27 161
3 160 161 162
3 28 5 27
3 28 29 5
3 30 29 28
3 30 7 29
3 31 163 164
3 166 165 31
3 32 33 8
3 34 33 32
3 34 10 33
3 34 35 10
3 167 35 168
3 169 168 34
3 167 168 169
3 171 170 35
3 172 13 173
3 174 36 175
3 37 176 178
3 176 36 177
3 176 177 178
3 37 14 36
3 37 38 14
3 39 38 37
3 39 15 38
3 39 40 15
3 41 40 39
3 41 17 40
3 179 18 180
3 182 181 18
3 42 43 6
3 44 43 42
3 44 19 43
3 44 45 19
3 46 45 44
3 46 20 45
3 184 183 12
3 185 21 186
3 47 48 16
3 49 48 47
3 49 22 48
3 50 51 9
3 52 51 50
3 52 23 51
3 52 53 23
3 54 53 52
3 54 24 53
3 54 55 24
3 56 55 54
3 56 25 55
3 187 57 188
3 189 188 11
3 187 188 189
3 190 57 191
3 192 26 193
3 194 193 57
3 192 193 194
3 196 195 26
3 197 1 198
3 200 199 1
3 27 201 202
3 204 203 27
3 58 205 206
3 58 207 209
3 207 6 208
3 207 208 209
3 29 58 5
3 59 58 29
3 59 6 58
3 59 42 6
3 60 42 59
3 60 3 42
3 61 62 2
3 63 62 61
3 63 9 62
3 33 63 8
3 64 63 33
3 64 9 63
3 64 50 9
3 65 50 64
3 65 4 50
3 65 66 4
3 67 66 65
3 67 11 66
3 35 67 10
3 210 67 211
3 212 211 35
3 210 211 212
3 213 11 214
3 215 214 67
3 213 214 215
3 217 216 11
3 218 0 219
3 68 220 221
3 68 222 224
3 222 12 223
3 222 223 224
3 225 68 226
3 69 227 229
3 227 68 228
3 227 228 229
3 69 12 68
3 69 230 232
3 232 231 12
3 230 231 232
3 70 233 235
3 235 234 69
3 233 234 235
3 70 236 237
3 238 13 239
3 36 240 241
3 71 242 244
3 244 243 36
3 242 243 244
3 71 245 247
3 245 13 246
3 245 246 247
3 71 70 13
3 72 70 71
3 72 248 250
3 250 249 70
3 248 249 250
3 72 251 252
3 73 253 255
3 255 254 72
3 253 254 255
3 73 256 257
3 38 73 14
3 74 73 38
3 74 258 260
3 260 259 73
3 258 259 260
3 74 261 263
3 261 31 262
3 261 262 263
3 75 31 74
3 75 264 266
3 266 265 31
3 264 265 266
3 75 267 269
3 267 76 268
3 267 268 269
3 77 76 75
3 77 16 76
3 40 77 15
3 78 77 40
3 78 16 77
3 78 47 16
3 79 47 78
3 79 2 47
3 270 41 271
3 272 271 1
3 270 271 272
3 80 273 275
3 273 41 274
3 273 274 275
3 80 17 41
3 276 80 277
3 81 278 280
3 278 80 279
3 278 279 280
3 81 17 80
3 81 79 17
3 82 79 81
3 82 2 79
3 82 61 2
3 83 61 82
3 83 8 61
3 281 83 282
3 283 282 18
3 281 282 283
3 84 284 286
3 284 83 285
3 284 285 286
3 84 8 83
3 84 32 8
3 287 32 288
3 289 288 84
3 287 288 289
3 291 290 32
3 43 292 294
3 294 293 6
3 292 293 294
3 85 295 297
3 297 296 43
3 295 296 297
3 85 298 299
3 85 300 301
3 303 302 85
3 86 304 305
3 86 306 307
3 45 86 19
3 87 86 45
3 87 308 310
3 310 309 86
3 308 309 310
3 87 311 312
3 88 313 315
3 315 314 87
3 313 314 315
3 88 316 317
3 319 318 12
3 89 320 321
3 89 322 324
3 322 0 323
3 322 323 324
3 76 325 326
3 90 327 329
3 329 328 76
3 327 328 329
3 90 330 331
3 48 90 16
3 91 90 48
3 91 332 334
3 334 333 90
3 332 333 334
3 91 335 336
3 92 337 339
3 339 338 91
3 337 338 339
3 92 340 341
3 62 49 2
3 93 49 62
3 93 22 49
3 51 93 9
3 94 93 51
3 94 22 93
3 94 92 22
3 95 92 94
3 95 342 344
3 344 343 92
3 342 343 344
3 95 345 346
3 96 347 349
3 349 348 95
3 347 348 349
3 96 350 352
3 350 21 351
3 350 351 352
3 53 96 23
3 97 96 53
3 97 21 96
3 97 89 21
3 98 89 97
3 98 0 89
3 98 30 0
3 99 30 98
3 99 7 30
3 55 99 24
3 100 99 55
3 100 7 99
3 100 60 7
3 101 60 100
3 101 3 60
3 66 56 4
3 102 56 66
3 102 25 56
3 57 102 11
3 103 102 57
3 103 25 102
3 103 101 25
3 104 101 103
3 104 3 101
3 104 46 3
3 105 46 104
3 105 20 46
3 353 105 354
3 355 354 26
3 353 354 355
3 356 105 357
3 358 20 359
3 360 359 105
3 358 359 360
3 361 88 362
3 363 362 20
3 361 362 363
3 364 88 365
3 367 366 88
