ply
format ascii 1.0
element vertex 587
property float x
property float y
property float z
element face 696
property list uchar int vertex_index
end_header
6.100946 -75.283157 -43.880764
9.554511 8.075827 -70.306602
6.733288 -21.913244 -57.417297
-2.884538 -57.549728 -44.318584
16.068132 -40.252865 -53.615582
-4.579156 -45.625961 -44.407036
3.057129 -39.254333 -50.354649
0.38532 -28.850594 -50.804909
17.538254 -63.814774 -45.53101
21.987591 -46.646782 -50.853413
11.57533 -58.518627 -48.21051
8.444925 -5.943151 -64.610107
13.444701 -14.923699 -62.546486
0.713821 -67.793343 -44.556896
6.784005 -49.827591 -49.415119
10.959805 -31.836931 -55.518749
18.9021 -22.793791 -60.080601
-1.714025 -37.096523 -47.613861
12.07366 -69.544136 -44.953602
14.557706 -61.259823 -47.250092
8.918941 -67.015022 -46.026371
6.177349 -2.114428 -64.755943
8.979717 1.260642 -67.753761
11.687537 -3.086766 -67.057777
-6.058072 -65.70858 -41.930836
-4.316864 -71.051247 -42.32341
-1.217598 -62.793388 -44.502861
3.956108 -58.907135 -46.86668
1.827839 -54.057178 -46.934647
5.09691 -30.57962 -53.699284
7.097048 -35.729259 -53.045143
8.777035 -26.831591 -56.532738
12.412229 -23.045351 -59.037655
10.117143 -18.293949 -60.231071
19.035744 -43.696529 -52.434822
20.670744 -34.879635 -55.424686
17.777033 -31.291735 -56.784306
-3.911883 -51.66251 -44.358181
0.247922 -48.342819 -47.145363
-0.910508 -42.824429 -47.39175
1.570055 -34.047184 -50.684971
3.416296 -25.558735 -54.17783
19.818455 -55.50359 -48.069241
16.792009 -52.575684 -49.724289
13.970145 -49.30135 -50.766426
17.751371 -5.157186 -67.219872
4.820261 -17.243498 -57.919807
5.750049 -9.19916 -61.632618
7.778534 -13.745371 -61.080441
10.916636 -10.413039 -63.747574
14.284958 -7.527386 -65.832588
16.96113 -11.658252 -64.498337
-2.482189 -76.163712 -42.414017
3.291743 -71.915138 -44.489082
6.355738 -63.151051 -46.654583
9.086836 -54.36895 -48.939476
11.473126 -45.518597 -51.529053
4.75309 -44.73962 -49.840061
9.055471 -40.765041 -52.2798
13.364879 -36.351845 -54.576813
14.957343 -27.261711 -57.975075
16.020559 -19.132427 -61.28178
9.038397 -72.532494 -44.469589
10.450859 -68.557266 -45.524544
7.514924 -71.139153 -44.974503
8.0249 6.475955 -69.068947
7.794404 3.257789 -67.860863
9.354028 4.651549 -69.147461
10.673654 2.726273 -68.988991
10.917172 6.120985 -70.228783
-4.952558 -58.433407 -43.106968
-6.567098 -62.842327 -41.830254
-4.338158 -61.447243 -43.186855
-3.738294 -64.447723 -43.215878
-1.985681 -60.041 -44.487419
0.281168 -58.451004 -45.666817
-0.543482 -55.513336 -45.700871
5.924092 -26.152817 -55.529606
6.920376 -28.525734 -55.208832
7.669884 -24.310488 -56.989151
9.391181 -22.519838 -58.330372
8.420417 -20.092274 -58.878487
17.474382 -42.163548 -53.025089
19.749537 -39.361832 -53.879433
18.372089 -37.687775 -54.528343
19.111776 -33.531048 -55.993645
16.889463 -35.846832 -55.13018
-6.174724 -49.634254 -42.884407
-5.872509 -52.672245 -42.954582
-4.352693 -48.686481 -44.341534
-2.356387 -47.093464 -45.8587
-2.776134 -44.15942 -45.93425
-0.568431 -32.889679 -49.21014
-0.108983 -35.705635 -49.13435
0.971148 -31.293394 -50.835293
2.553969 -29.582937 -52.443626
1.894538 -27.229998 -52.526093
16.277065 -67.905556 -44.289001
19.188473 -64.567314 -44.462936
20.308739 -60.582439 -45.759605
21.207172 -56.640972 -47.092377
18.651875 -59.67635 -46.809402
13.107967 -59.764748 -47.85656
15.721155 -56.883976 -48.479774
14.286835 -55.33313 -49.066299
15.452662 -50.875393 -50.33342
12.794396 -53.827404 -49.474178
3.439029 -19.156656 -56.151154
7.292809 -4.068388 -64.737686
5.946186 -5.674436 -63.17345
7.051794 -7.766675 -63.087414
6.617887 -11.627822 -61.270111
8.208015 -9.972773 -62.825352
9.387981 -12.095975 -62.482315
9.734975 -8.125635 -64.279411
13.381606 -1.463587 -68.128799
12.980823 -5.151319 -66.547867
14.679812 -3.811411 -67.43058
16.010542 -6.296233 -66.612495
-1.767084 -69.530838 -43.500706
-3.341725 -73.530006 -42.455215
-0.726491 -71.994148 -43.539921
0.462739 -74.060356 -43.546906
1.858765 -69.923691 -44.553291
4.643038 -67.717415 -45.502201
3.480265 -65.586159 -45.637703
5.346334 -54.23542 -48.111568
6.537027 -56.510445 -47.976276
7.823985 -52.256229 -49.153854
10.131048 -50.053638 -50.128834
9.148494 -47.508476 -50.554096
1.626958 -44.079948 -48.608829
2.568639 -46.480339 -48.576138
3.772247 -42.156319 -50.017494
8.989397 -33.63028 -54.349937
8.071516 -38.321777 -52.650246
10.039312 -36.126534 -53.899845
11.209859 -38.490673 -53.485329
12.14874 -34.195538 -55.040752
14.310564 -31.876041 -56.226074
12.971775 -29.731743 -56.721954
12.915442 -18.960501 -60.768799
14.202544 -21.045616 -60.21114
14.753943 -16.991606 -61.949707
16.494299 -15.100729 -63.000267
15.222467 -13.234303 -63.593697
19.223537 -18.788105 -61.705647
-3.085865 -41.418121 -45.978622
-3.351477 -38.434525 -45.984768
-2.123996 -34.419418 -47.523533
14.756147 -67.011429 -45.197376
16.07761 -62.680134 -46.445267
13.234561 -65.571053 -46.069195
11.658593 -64.270844 -46.667229
10.219929 -62.859901 -47.082733
6.478463 1.576932 -66.388847
7.532007 -0.42677 -66.330643
8.725087 -2.221824 -66.269264
9.991348 -4.330706 -65.966614
10.34918 -0.630186 -67.59919
11.988064 0.549106 -68.581657
-5.288561 -68.683594 -42.095444
-2.73891 -67.025787 -43.398121
-0.212936 -65.21833 -44.587593
2.329852 -63.322826 -45.686634
1.329421 -60.747746 -45.742386
2.913883 -56.455856 -46.951649
4.288744 -51.982033 -48.205414
4.105123 -34.789661 -51.997036
4.989758 -37.714027 -51.639008
6.013562 -33.152027 -53.363853
7.829635 -31.351505 -54.661076
9.879539 -29.056679 -56.134983
11.817808 -27.253681 -57.324623
10.654131 -24.766039 -57.904034
11.196833 -20.739254 -59.606697
11.776877 -16.582741 -61.442326
20.384369 -45.476707 -51.637829
22.72595 -42.260281 -52.346973
21.284252 -40.844341 -53.166439
21.971169 -36.479103 -54.676167
21.209846 -30.685802 -56.955624
19.799265 -29.040844 -57.651985
18.299976 -26.990986 -58.415894
8.190425 9.906129 -70.115952
-5.520941 -55.718002 -42.979004
-3.252798 -54.292408 -44.473579
-1.245034 -52.795891 -45.727772
-1.860472 -49.915653 -45.785557
-0.379221 -45.598507 -47.266052
1.036837 -41.121704 -48.876022
-1.313932 -39.925663 -47.551521
0.330239 -38.432556 -48.95723
2.220126 -36.747993 -50.483742
3.319237 -32.153351 -52.267712
4.274629 -27.901854 -54.049484
4.993495 -23.817327 -55.781727
22.342728 -52.340801 -48.458328
20.789097 -51.141479 -49.461407
17.203476 -58.245487 -47.758862
18.349556 -54.115433 -48.961815
19.311781 -49.985107 -50.228905
17.920269 -48.198322 -51.028065
16.504154 -46.522827 -51.641525
15.112739 -44.835297 -52.132511
8.454092 12.992461 -70.915245
2.711498 -23.288736 -54.272991
4.232501 -21.392334 -56.069374
5.702363 -19.705376 -57.63929
5.309532 -13.267262 -59.73978
6.282584 -15.681278 -59.488796
7.269623 -17.940706 -59.176003
8.836547 -16.204605 -60.580193
10.497057 -14.3471 -61.963619
12.12452 -12.723837 -63.139534
11.341002 -6.665893 -65.465897
12.573281 -8.974834 -64.839996
13.922001 -11.152685 -64.230782
15.66815 -9.80503 -65.109627
17.292837 -8.488846 -65.85128
1.907869 -75.723915 -43.51627
4.644066 -73.825943 -44.235687
6.029855 -69.629295 -45.288635
7.349791 -65.45446 -46.315037
8.904506 -60.930973 -47.459866
5.006652 -61.259529 -46.732525
7.638885 -58.757885 -47.749413
10.28518 -56.344437 -48.65358
11.563787 -51.821327 -49.894703
12.638331 -47.501801 -51.156498
13.798998 -42.640766 -52.68235
1.061433 -51.084671 -47.081593
3.364985 -49.24321 -48.377678
5.690564 -47.264706 -49.631397
5.99103 -40.263908 -51.386536
6.947749 -42.643188 -51.129894
8.008877 -45.365128 -50.787418
10.374434 -42.868744 -52.036835
12.544366 -40.742317 -53.073925
14.77583 -38.104649 -54.203793
15.605727 -33.777695 -55.739498
16.272509 -29.468578 -57.336975
16.972197 -25.328871 -58.958233
13.692744 -25.160751 -58.527248
15.570946 -23.24168 -59.58844
17.411747 -21.276392 -60.585995
17.77096 -17.200422 -62.270393
7.569672 -73.907826 -44.175176
8.431723 -74.529931 -43.901495
6.962998 -75.905262 -43.607083
-5.37694 -47.630107 -43.645722
-6.22604 -48.082971 -42.885627
-5.428256 -46.078825 -43.646942
14.971967 -2.152828 -68.11829
14.030709 -2.637499 -67.77969
14.322864 -0.978916 -68.467399
15.627492 -3.400574 -67.706654
14.971967 -2.152828 -68.11829
23.131469 -45.140286 -51.103313
22.617859 -47.418997 -50.349049
19.763846 -21.641015 -60.548338
19.571227 -23.744234 -59.708199
19.062818 -20.790948 -60.893124
19.924565 -19.638172 -61.360861
19.763846 -21.641015 -60.548338
-4.089739 -38.908915 -45.212168
-4.04283 -40.526592 -45.213017
-2.251424 -33.024097 -47.506649
-2.855459 -34.999958 -46.707543
-1.582229 -32.370126 -48.320605
-2.251424 -33.024097 -47.506649
12.753113 -70.224403 -44.51557
11.320935 -71.599521 -44.386123
13.414904 -68.277783 -45.075489
14.094356 -68.95805 -44.637457
12.753113 -70.224403 -44.51557
6.507909 3.355586 -67.030659
5.905196 2.377319 -66.213093
12.217432 2.328505 -69.284863
11.330859 1.63769 -68.785324
11.560227 3.417089 -69.488529
12.893607 1.134267 -68.999081
12.217432 2.328505 -69.284863
-7.245764 -66.371094 -41.195179
-7.500278 -64.937967 -41.144888
-6.312585 -64.275453 -41.880545
-6.849336 -67.783046 -41.358889
-7.245764 -66.371094 -41.195179
-5.673317 -67.196087 -42.01314
-6.464581 -69.270554 -41.441193
-6.849336 -67.783046 -41.358889
21.729487 -33.45829 -55.834606
22.3797 -34.258024 -55.460346
21.320957 -35.679369 -55.050427
20.940295 -32.782719 -56.190155
21.999038 -31.361373 -56.600075
21.729487 -33.45829 -55.834606
7.533893 10.619573 -69.86227
7.434576 9.064329 -69.411678
9.335106 13.782052 -71.449635
8.576216 14.491606 -71.177551
9.137513 12.197555 -71.087993
9.335106 13.782052 -71.449635
2.410911 -21.973813 -54.356641
2.026045 -24.043765 -53.437976
5.595189 -2.950934 -63.950333
5.667463 -1.098232 -64.726647
5.249605 -8.231355 -61.595447
5.347674 -6.468993 -62.365864
5.848117 -7.436798 -62.403034
5.088264 -10.115502 -60.737501
5.249605 -8.231355 -61.595447
5.52979 -11.233211 -60.686199
4.868005 -12.149553 -59.791082
5.088264 -10.115502 -60.737501
18.298882 -6.377129 -66.76273
18.069615 -8.042959 -66.078434
17.522104 -6.823016 -66.535576
-5.140032 -73.058056 -41.776097
-5.591711 -71.87714 -41.662909
-3.797516 -76.868935 -41.863947
-4.227284 -75.552082 -41.884546
-2.911957 -74.846859 -42.434616
-3.264678 -78.096153 -41.88122
-4.580005 -78.801377 -41.33115
-3.797516 -76.868935 -41.863947
-1.769929 -77.096936 -42.455376
-3.264678 -78.096153 -41.88122
17.545968 -12.590846 -64.162897
17.312553 -14.312084 -63.413862
16.727715 -13.37949 -63.749302
17.705317 -11.011301 -64.833828
17.545968 -12.590846 -64.162897
23.923431 -40.854742 -52.563026
23.15585 -40.095264 -53.079393
9.803304 -73.0937 -44.144117
8.431723 -74.529931 -43.901495
10.556029 -71.038315 -44.711596
11.320935 -71.599521 -44.386123
9.803304 -73.0937 -44.144117
7.909652 4.866872 -68.464905
7.165879 4.196015 -67.766666
7.281128 5.805098 -68.370709
11.681986 5.114445 -70.108426
11.560227 3.417089 -69.488529
10.795413 4.423629 -69.608887
-5.759828 -60.637867 -42.468611
-6.802625 -61.284633 -41.777899
-5.995356 -59.080174 -42.416256
-6.993342 -50.0466 -42.157713
-6.22604 -48.082971 -42.885627
-6.941607 -51.667883 -42.189028
-6.993342 -50.0466 -42.157713
-6.023617 -51.15325 -42.919494
-6.790499 -53.186878 -42.224115
-6.941607 -51.667883 -42.189028
17.055185 -68.205204 -43.769393
15.673754 -69.840222 -43.67156
18.510889 -66.536083 -43.856361
17.055185 -68.205204 -43.769393
17.732769 -66.236435 -44.375968
19.925692 -64.887921 -43.865654
19.248109 -66.85669 -43.259079
18.510889 -66.536083 -43.856361
20.470693 -63.017275 -44.513592
19.925692 -64.887921 -43.865654
21.030826 -61.024838 -45.161926
20.470693 -63.017275 -44.513592
19.748606 -62.574877 -45.111271
21.598885 -59.040866 -45.820861
21.030826 -61.024838 -45.161926
20.757956 -58.611705 -46.425991
22.048101 -57.070133 -46.487247
21.598885 -59.040866 -45.820861
3.081781 -17.942394 -56.188505
2.774676 -19.907773 -55.295723
3.716929 -17.171567 -57.057213
3.081781 -17.942394 -56.188505
4.407545 -16.214987 -57.94154
4.129645 -18.200077 -57.03548
3.716929 -17.171567 -57.057213
16.292857 -4.642985 -67.297611
15.345177 -5.053822 -67.021537
15.627492 -3.400574 -67.706654
17.163272 -4.073462 -67.601299
16.880956 -5.72671 -66.916183
16.292857 -4.642985 -67.297611
20.082589 -17.746039 -62.130145
19.924565 -19.638172 -61.360861
19.359282 -17.056957 -62.423398
20.082589 -17.746039 -62.130145
-4.65667 -44.12231 -44.42415
-5.428256 -46.078825 -43.646942
-3.910025 -42.01839 -45.209944
-3.832511 -43.522041 -45.192829
-4.65667 -44.12231 -44.42415
-3.218671 -39.926323 -45.981695
-3.910025 -42.01839 -45.209944
-4.04283 -40.526592 -45.213017
-3.469199 -37.007511 -45.93816
-4.089739 -38.908915 -45.212168
-4.207461 -37.481901 -45.16556
-2.737737 -36.426972 -46.754151
-3.469199 -37.007511 -45.93816
-2.855459 -34.999958 -46.707543
-0.804447 -31.605256 -49.163908
-1.346213 -33.654549 -48.366837
-1.582229 -32.370126 -48.320605
-0.327571 -29.585714 -49.961292
-0.091556 -30.870137 -50.007525
-0.804447 -31.605256 -49.163908
14.854816 -69.405113 -44.183269
15.673754 -69.840222 -43.67156
15.516606 -67.458493 -44.743189
14.854816 -69.405113 -44.183269
14.094356 -68.95805 -44.637457
5.81802 0.747448 -65.543098
5.905196 2.377319 -66.213093
6.327906 -0.268748 -65.572395
5.667463 -1.098232 -64.726647
5.81802 0.747448 -65.543098
7.136433 2.417361 -67.124855
6.507909 3.355586 -67.030659
7.165879 4.196015 -67.766666
13.590378 0.127921 -68.772651
12.684835 -0.45724 -68.355228
12.893607 1.134267 -68.999081
14.322864 -0.978916 -68.467399
13.590378 0.127921 -68.772651
-7.597146 -63.309333 -41.148304
-6.802625 -61.284633 -41.777899
-7.597146 -63.309333 -41.148304
-7.500278 -64.937967 -41.144888
-6.077559 -70.693314 -41.548925
-6.464581 -69.270554 -41.441193
-4.802713 -69.867421 -42.209427
-5.591711 -71.87714 -41.662909
-6.077559 -70.693314 -41.548925
22.435001 -39.387294 -53.489126
23.15585 -40.095264 -53.079393
22.005101 -41.552311 -52.756706
22.778459 -37.204676 -54.24399
22.435001 -39.387294 -53.489126
21.62771 -38.661722 -53.921303
23.10231 -35.050459 -55.012295
22.778459 -37.204676 -54.24399
23.10231 -35.050459 -55.012295
22.3797 -34.258024 -55.460346
22.269042 -29.335145 -57.356318
21.999038 -31.361373 -56.600075
21.498362 -28.472013 -57.793621
22.269042 -29.335145 -57.356318
20.793071 -27.649534 -58.141801
21.498362 -28.472013 -57.793621
20.504555 -29.863323 -57.303804
20.019809 -26.86776 -58.493891
20.793071 -27.649534 -58.141801
19.270164 -25.842831 -58.875845
20.019809 -26.86776 -58.493891
19.04962 -28.015915 -58.03394
18.601038 -24.892388 -59.248248
19.571227 -23.744234 -59.708199
19.270164 -25.842831 -58.875845
7.351814 7.349243 -68.888176
7.281128 5.805098 -68.370709
8.107662 8.191042 -69.592449
7.351814 7.349243 -68.888176
7.434576 9.064329 -69.411678
-6.688136 -54.697186 -42.254423
-6.790499 -53.186878 -42.224115
-6.512352 -56.220064 -42.266634
-6.688136 -54.697186 -42.254423
-5.696725 -54.195123 -42.966793
-6.279547 -57.722471 -42.352274
-6.512352 -56.220064 -42.266634
-5.23675 -57.075705 -43.042986
-5.995356 -59.080174 -42.416256
-6.279547 -57.722471 -42.352274
22.491242 -55.123678 -47.173748
22.048101 -57.070133 -46.487247
23.059019 -52.973592 -47.856724
22.491242 -55.123678 -47.173748
21.77495 -54.490887 -47.775352
23.561655 -50.739393 -48.628761
23.059019 -52.973592 -47.856724
22.795428 -50.266007 -49.151506
23.561655 -50.739393 -48.628761
22.018612 -49.666345 -49.653046
22.795428 -50.266007 -49.151506
21.565913 -51.74114 -48.959868
21.388344 -48.894131 -50.15741
22.617859 -47.418997 -50.349049
22.018612 -49.666345 -49.653046
5.481273 -77.122867 -43.363514
6.962998 -75.905262 -43.607083
7.801892 13.693946 -70.616291
8.576216 14.491606 -71.177551
7.665727 12.162738 -70.261917
7.801892 13.693946 -70.616291
8.322259 11.449295 -70.515598
7.533893 10.619573 -69.86227
7.665727 12.162738 -70.261917
9.005679 10.654389 -70.688347
8.322259 11.449295 -70.515598
9.137513 12.197555 -71.087993
9.687722 9.739238 -70.783672
8.872468 8.990978 -70.211277
9.005679 10.654389 -70.688347
10.419098 8.817512 -70.822361
9.687722 9.739238 -70.783672
11.100428 7.840091 -70.783452
10.235841 7.098406 -70.267693
10.419098 8.817512 -70.822361
11.79566 6.88784 -70.697925
11.100428 7.840091 -70.783452
11.681986 5.114445 -70.108426
11.79566 6.88784 -70.697925
18.05179 -3.626791 -67.808457
17.163272 -4.073462 -67.601299
18.611359 -4.924257 -67.320641
18.05179 -3.626791 -67.808457
18.298882 -6.377129 -66.76273
18.611359 -4.924257 -67.320641
0.204444 -27.53541 -50.861439
-0.327571 -29.585714 -49.961292
0.862956 -26.824694 -51.703936
0.204444 -27.53541 -50.861439
1.617565 -26.014396 -52.564527
1.139929 -28.040296 -51.665501
0.862956 -26.824694 -51.703936
2.303018 -25.259367 -53.399542
1.617565 -26.014396 -52.564527
2.026045 -24.043765 -53.437976
3.075264 -21.222696 -55.212072
2.410911 -21.973813 -54.356641
2.774676 -19.907773 -55.295723
5.479608 -4.730937 -63.159086
5.595189 -2.950934 -63.950333
6.061768 -3.894432 -63.964697
5.479608 -4.730937 -63.159086
5.347674 -6.468993 -62.365864
4.652181 -14.226869 -58.851526
4.868005 -12.149553 -59.791082
5.064896 -15.25538 -58.829794
4.407545 -16.214987 -57.94154
4.652181 -14.226869 -58.851526
17.87117 -9.426597 -65.5103
17.705317 -11.011301 -64.833828
17.126984 -10.073549 -65.174809
17.87117 -9.426597 -65.5103
18.069615 -8.042959 -66.078434
4.595583 -76.536392 -43.52564
5.481273 -77.122867 -43.363514
-4.652462 -74.297436 -41.841999
-5.140032 -73.058056 -41.776097
-3.829294 -72.290627 -42.389313
-4.652462 -74.297436 -41.841999
-4.227284 -75.552082 -41.884546
-0.297465 -76.045257 -43.021821
-1.769929 -77.096936 -42.455376
-1.009725 -75.112034 -42.980462
0.4251 -76.877037 -43.006502
-0.297465 -76.045257 -43.021821
1.185304 -74.892135 -43.531588
1.104785 -77.846092 -42.936715
0.4251 -76.877037 -43.006502
2.499045 -76.756771 -43.343393
1.104785 -77.846092 -42.936715
3.867143 -75.807785 -43.703102
2.499045 -76.756771 -43.343393
3.275967 -74.774929 -43.875979
5.372506 -74.55455 -44.058225
4.595583 -76.536392 -43.52564
3.867143 -75.807785 -43.703102
18.632993 -16.263115 -62.70577
19.359282 -17.056957 -62.423398
18.497248 -17.994264 -61.98802
17.950883 -15.36193 -63.048925
17.13263 -16.150575 -62.63533
17.312553 -14.312084 -63.413862
18.632993 -16.263115 -62.70577
17.950883 -15.36193 -63.048925
23.500649 -42.947035 -51.850093
23.131469 -45.140286 -51.103313
22.35677 -44.453531 -51.600193
23.500649 -42.947035 -51.850093
23.923431 -40.854742 -52.563026
3 0 247 249
3 247 62 248
3 247 248 249
3 0 64 62
3 1 67 65
3 1 69 67
3 3 72 70
3 3 74 72
3 3 76 74
3 2 79 77
3 2 81 79
3 4 84 82
3 4 86 84
3 5 250 252
3 250 87 251
3 250 251 252
3 5 89 87
3 5 91 89
3 7 94 92
3 7 96 94
3 8 98 97
3 8 99 98
3 8 101 99
3 10 104 102
3 10 106 104
3 11 110 108
3 11 112 110
3 11 114 112
3 253 117 254
3 255 254 115
3 253 254 255
3 257 256 117
3 13 121 119
3 13 123 121
3 13 125 123
3 14 128 126
3 14 130 128
3 6 133 131
3 15 136 134
3 15 138 136
3 15 140 138
3 12 143 141
3 12 145 143
3 9 258 259
3 16 260 261
3 16 262 264
3 262 146 263
3 262 263 264
3 265 148 266
3 267 149 268
3 270 269 149
3 18 271 272
3 18 273 275
3 273 150 274
3 273 274 275
3 18 152 150
3 20 153 63
3 20 154 153
3 276 155 277
3 22 156 66
3 22 157 156
3 22 159 157
3 278 160 279
3 280 279 68
3 278 279 280
3 282 281 160
3 24 283 285
3 285 284 71
3 283 284 285
3 24 286 287
3 24 288 290
3 288 161 289
3 288 289 290
3 26 162 73
3 26 163 162
3 26 165 163
3 28 166 75
3 28 167 166
3 29 170 168
3 31 171 78
3 31 172 171
3 31 174 172
3 33 175 80
3 33 176 175
3 34 179 177
3 35 180 83
3 35 291 293
3 293 292 180
3 291 292 293
3 35 294 296
3 294 181 295
3 294 295 296
3 36 182 85
3 36 183 182
3 297 184 298
3 37 185 88
3 37 186 185
3 37 188 186
3 39 189 90
3 39 190 189
3 17 191 147
3 40 192 93
3 40 193 192
3 40 194 193
3 41 195 95
3 41 196 195
3 42 197 100
3 42 198 197
3 19 199 151
3 43 200 103
3 43 201 200
3 43 202 201
3 44 203 105
3 44 204 203
3 299 205 300
3 302 301 205
3 303 206 304
3 46 207 107
3 46 208 207
3 21 305 306
3 47 307 309
3 309 308 109
3 307 308 309
3 47 310 311
3 47 312 314
3 312 209 313
3 312 313 314
3 48 210 111
3 48 211 210
3 48 212 211
3 49 213 113
3 49 214 213
3 23 215 158
3 50 216 116
3 50 217 216
3 50 218 217
3 45 219 118
3 45 315 317
3 317 316 219
3 315 316 317
3 25 318 319
3 52 320 322
3 322 321 120
3 320 321 322
3 52 323 325
3 323 324 325
3 52 326 327
3 53 220 122
3 53 221 220
3 53 222 221
3 54 223 124
3 54 224 223
3 27 225 164
3 55 226 127
3 55 227 226
3 55 228 227
3 56 229 129
3 56 230 229
3 38 231 187
3 57 232 132
3 57 233 232
3 30 234 169
3 58 235 135
3 58 236 235
3 58 237 236
3 59 238 137
3 59 239 238
3 59 240 239
3 60 241 139
3 60 242 241
3 32 243 173
3 61 244 142
3 61 245 244
3 61 246 245
3 51 328 330
3 330 329 144
3 328 329 330
3 51 331 332
3 334 333 178
3 62 335 336
3 62 337 339
3 337 18 338
3 337 338 339
3 62 63 18
3 64 63 62
3 64 20 63
3 65 340 342
3 340 66 341
3 340 341 342
3 67 66 65
3 67 22 66
3 67 68 22
3 69 68 67
3 69 343 345
3 345 344 68
3 343 344 345
3 70 346 348
3 346 71 347
3 346 347 348
3 72 71 70
3 72 24 71
3 72 73 24
3 74 73 72
3 74 26 73
3 74 75 26
3 76 75 74
3 76 28 75
3 77 78 29
3 79 78 77
3 79 31 78
3 79 80 31
3 81 80 79
3 81 33 80
3 82 83 34
3 84 83 82
3 84 35 83
3 84 85 35
3 86 85 84
3 86 36 85
3 87 349 350
3 87 351 352
3 87 353 355
3 353 88 354
3 353 354 355
3 89 88 87
3 89 37 88
3 89 90 37
3 91 90 89
3 91 39 90
3 92 93 17
3 94 93 92
3 94 40 93
3 94 95 40
3 96 95 94
3 96 41 95
3 97 356 357
3 98 358 360
3 360 359 97
3 358 359 360
3 98 361 363
3 361 362 363
3 98 364 365
3 99 366 368
3 368 367 98
3 366 367 368
3 99 369 370
3 99 371 373
3 371 100 372
3 371 372 373
3 101 100 99
3 101 42 100
3 102 103 19
3 104 103 102
3 104 43 103
3 104 105 43
3 106 105 104
3 106 44 105
3 374 107 375
3 376 107 377
3 378 46 379
3 380 379 107
3 378 379 380
3 108 109 21
3 110 109 108
3 110 47 109
3 110 111 47
3 112 111 110
3 112 48 111
3 112 113 48
3 114 113 112
3 114 49 113
3 115 116 23
3 117 116 115
3 117 50 116
3 117 118 50
3 381 118 382
3 383 382 117
3 381 382 383
3 384 45 385
3 386 385 118
3 384 385 386
3 119 120 25
3 121 120 119
3 121 52 120
3 121 122 52
3 123 122 121
3 123 53 122
3 123 124 53
3 125 124 123
3 125 54 124
3 126 127 27
3 128 127 126
3 128 55 127
3 128 129 55
3 130 129 128
3 130 56 129
3 131 132 38
3 133 132 131
3 133 57 132
3 134 135 30
3 136 135 134
3 136 58 135
3 136 137 58
3 138 137 136
3 138 59 137
3 138 139 59
3 140 139 138
3 140 60 139
3 141 142 32
3 143 142 141
3 143 61 142
3 143 144 61
3 145 144 143
3 145 51 144
3 146 387 388
3 146 389 390
3 391 5 392
3 393 147 394
3 395 394 5
3 393 394 395
3 148 396 398
3 396 147 397
3 396 397 398
3 148 17 147
3 399 148 400
3 399 400 401
3 149 402 404
3 402 148 403
3 402 403 404
3 149 17 148
3 149 92 17
3 405 92 406
3 407 406 149
3 405 406 407
3 408 7 409
3 410 409 92
3 408 409 410
3 411 97 412
3 150 413 415
3 413 97 414
3 413 414 415
3 150 8 97
3 150 151 8
3 152 151 150
3 152 19 151
3 63 152 18
3 153 152 63
3 153 19 152
3 153 102 19
3 154 102 153
3 154 10 102
3 155 416 417
3 155 418 420
3 418 21 419
3 418 419 420
3 66 421 423
3 421 155 422
3 421 422 423
3 156 155 66
3 156 21 155
3 156 108 21
3 157 108 156
3 157 11 108
3 157 158 11
3 159 158 157
3 159 23 158
3 68 159 22
3 160 159 68
3 160 23 159
3 160 115 23
3 424 115 425
3 426 425 160
3 424 425 426
3 428 427 115
3 71 429 430
3 432 431 71
3 161 433 434
3 161 435 437
3 435 25 436
3 435 436 437
3 73 161 24
3 162 161 73
3 162 25 161
3 162 119 25
3 163 119 162
3 163 13 119
3 163 164 13
3 165 164 163
3 165 27 164
3 75 165 26
3 166 165 75
3 166 27 165
3 166 126 27
3 167 126 166
3 167 14 126
3 168 169 6
3 170 169 168
3 170 30 169
3 78 170 29
3 171 170 78
3 171 30 170
3 171 134 30
3 172 134 171
3 172 15 134
3 172 173 15
3 174 173 172
3 174 32 173
3 80 174 31
3 175 174 80
3 175 32 174
3 175 141 32
3 176 141 175
3 176 12 141
3 177 178 9
3 179 178 177
3 179 438 440
3 440 439 178
3 438 439 440
3 83 179 34
3 180 179 83
3 180 441 443
3 443 442 179
3 441 442 443
3 180 444 445
3 447 446 180
3 181 448 449
3 181 450 451
3 85 181 35
3 182 181 85
3 182 452 454
3 454 453 181
3 452 453 454
3 182 455 456
3 183 457 459
3 459 458 182
3 457 458 459
3 183 460 462
3 460 16 461
3 460 461 462
3 463 65 464
3 184 465 467
3 465 65 466
3 465 466 467
3 184 1 65
3 88 468 469
3 185 470 472
3 472 471 88
3 470 471 472
3 185 473 474
3 185 475 477
3 475 70 476
3 475 476 477
3 186 70 185
3 186 3 70
3 186 187 3
3 188 187 186
3 188 38 187
3 90 188 37
3 189 188 90
3 189 38 188
3 189 131 38
3 190 131 189
3 190 6 131
3 147 91 5
3 191 91 147
3 191 39 91
3 93 191 17
3 192 191 93
3 192 39 191
3 192 190 39
3 193 190 192
3 193 6 190
3 193 168 6
3 194 168 193
3 194 29 168
3 95 194 40
3 195 194 95
3 195 29 194
3 195 77 29
3 196 77 195
3 196 2 77
3 100 478 479
3 197 480 482
3 482 481 100
3 480 481 482
3 197 483 484
3 197 485 486
3 198 487 489
3 489 488 197
3 487 488 489
3 198 490 492
3 490 9 491
3 490 491 492
3 151 101 8
3 199 101 151
3 199 42 101
3 103 199 19
3 200 199 103
3 200 42 199
3 200 198 42
3 201 198 200
3 201 9 198
3 201 177 9
3 202 177 201
3 202 34 177
3 105 202 43
3 203 202 105
3 203 34 202
3 203 82 34
3 204 82 203
3 204 4 82
3 493 0 494
3 205 495 496
3 205 497 498
3 205 499 501
3 499 184 500
3 499 500 501
3 502 184 503
3 504 503 205
3 502 503 504
3 505 1 506
3 507 506 184
3 505 506 507
3 508 1 509
3 510 69 511
3 512 511 1
3 510 511 512
3 513 69 514
3 516 515 69
3 517 45 518
3 519 45 520
3 522 521 45
3 523 7 524
3 525 7 526
3 527 96 528
3 529 528 7
3 527 528 529
3 206 530 532
3 530 96 531
3 530 531 532
3 206 41 96
3 107 533 535
3 533 206 534
3 533 534 535
3 207 206 107
3 207 41 206
3 207 196 41
3 208 196 207
3 208 2 196
3 109 536 538
3 538 537 21
3 536 537 538
3 540 539 109
3 209 541 542
3 209 543 545
3 543 46 544
3 543 544 545
3 111 209 47
3 210 209 111
3 210 46 209
3 210 208 46
3 211 208 210
3 211 2 208
3 211 81 2
3 212 81 211
3 212 33 81
3 113 212 48
3 213 212 113
3 213 33 212
3 213 176 33
3 214 176 213
3 214 12 176
3 158 114 11
3 215 114 158
3 215 49 114
3 116 215 23
3 216 215 116
3 216 49 215
3 216 214 49
3 217 214 216
3 217 12 214
3 217 145 12
3 218 145 217
3 218 51 145
3 118 218 50
3 219 218 118
3 219 51 218
3 219 546 548
3 548 547 51
3 546 547 548
3 550 549 219
3 551 0 552
3 120 553 555
3 555 554 25
3 553 554 555
3 557 556 120
3 122 558 560
3 560 559 52
3 558 559 560
3 220 561 563
3 563 562 122
3 561 562 563
3 220 564 565
3 220 566 567
3 221 568 570
3 570 569 220
3 568 569 570
3 221 571 573
3 571 0 572
3 571 572 573
3 221 64 0
3 222 64 221
3 222 20 64
3 124 222 53
3 223 222 124
3 223 20 222
3 223 154 20
3 224 154 223
3 224 10 154
3 164 125 13
3 225 125 164
3 225 54 125
3 127 225 27
3 226 225 127
3 226 54 225
3 226 224 54
3 227 224 226
3 227 10 224
3 227 106 10
3 228 106 227
3 228 44 106
3 129 228 55
3 229 228 129
3 229 44 228
3 229 204 44
3 230 204 229
3 230 4 204
3 187 76 3
3 231 76 187
3 231 28 76
3 132 231 38
3 232 231 132
3 232 28 231
3 232 167 28
3 233 167 232
3 233 14 167
3 169 133 6
3 234 133 169
3 234 57 133
3 135 234 30
3 235 234 135
3 235 57 234
3 235 233 57
3 236 233 235
3 236 14 233
3 236 130 14
3 237 130 236
3 237 56 130
3 137 237 58
3 238 237 137
3 238 56 237
3 238 230 56
3 239 230 238
3 239 4 230
3 239 86 4
3 240 86 239
3 240 36 86
3 139 240 59
3 241 240 139
3 241 36 240
3 241 183 36
3 242 183 241
3 242 16 183
3 173 140 15
3 243 140 173
3 243 60 140
3 142 243 32
3 244 243 142
3 244 60 243
3 244 242 60
3 245 242 244
3 245 16 242
3 245 146 16
3 246 146 245
3 246 574 576
3 576 575 146
3 574 575 576
3 144 246 61
3 577 246 578
3 579 578 144
3 577 578 579
3 581 580 246
3 178 582 584
3 584 583 9
3 582 583 584
3 586 585 178
