ply
format ascii 1.0
element vertex 875
property float x
property float y
property float z
element face 1058
property list uchar int vertex_index
end_header
-35.148685 -51.245071 -27.766279
-34.803654 -2.069832 -61.390511
-40.854156 -27.051092 -31.189356
-39.125629 -29.613762 -45.496834
-40.892967 -4.314759 -44.579628
-26.910576 -64.305252 -8.372621
-35.921806 -44.491837 -14.046764
-20.897701 21.215652 -70.901268
-41.5033 -16.346043 -38.409542
-30.044308 -63.542824 -25.920618
-38.119534 -16.369896 -53.823238
-38.858257 -38.903675 -29.740751
-38.071434 -41.270241 -36.773037
-40.751961 -28.090578 -38.244709
-40.938885 -15.782024 -46.216919
-39.190456 -2.62526 -53.58268
-26.16873 -69.683281 -16.480824
-31.18865 -58.61401 -18.369013
-31.47887 -54.424015 -11.121252
-35.57563 -47.552517 -20.673944
-38.937374 -36.599796 -22.968935
-38.449287 7.455056 -49.990658
-35.007565 10.496861 -59.908096
-28.242828 21.245871 -64.30249
-32.758831 -57.428562 -26.790991
-31.847189 -59.418964 -30.559431
-34.465233 -53.197868 -31.339155
-36.782867 -9.115779 -57.746185
-40.085308 -32.84095 -30.470539
-40.005787 -33.775089 -34.083305
-40.886517 -27.711653 -34.663876
-41.366756 -10.273982 -41.831375
-41.407295 -16.073793 -42.180225
-41.099709 -9.827952 -45.705181
-40.303734 -9.312509 -50.098518
-40.325157 -3.343539 -49.076515
-26.578667 -66.990463 -12.278324
-28.738447 -64.17382 -17.287855
-29.037773 -61.590431 -13.45422
-31.862354 -52.531033 -7.57927
-33.832214 -49.320915 -12.608516
-33.499035 -51.362915 -15.948343
-35.681534 -45.983227 -17.415184
-37.413296 -42.127773 -21.932085
-37.543755 -40.719856 -18.61953
-36.215275 13.037577 -52.347351
-37.065346 9.107649 -55.223106
-34.368629 15.029756 -57.674561
-20.777428 25.31465 -68.741577
-24.44957 25.215597 -65.214546
-24.86203 21.43977 -68.166527
-28.847717 16.65897 -66.45977
-38.86335 -35.552761 -41.188725
-41.228054 -21.500549 -31.502493
-41.323757 -21.847139 -34.827824
-41.430607 -16.313349 -34.823971
-41.400963 -11.167083 -37.714474
-41.075302 -5.427233 -40.516647
-16.713011 24.523634 -71.052628
-27.020281 -69.71209 -25.239531
-28.725277 -65.931786 -29.777025
-38.867271 -23.187622 -49.788956
-37.220871 -44.971561 -28.831141
-36.772202 -46.657646 -32.181549
-38.657768 -40.019566 -33.223282
-39.665184 -34.542099 -37.800674
-40.180519 -29.017462 -41.89233
-41.32814 -22.037544 -38.532181
-41.022018 -22.40926 -42.357674
-40.299145 -22.53377 -46.101982
-39.831398 -15.828982 -50.347713
-38.905758 -9.105255 -54.087238
-37.309132 -2.181242 -57.827549
-28.115068 -66.955353 -21.320532
-30.784777 -61.12011 -22.07172
-33.197727 -55.278038 -22.870277
-27.224144 -61.765274 -4.371099
-30.166882 -55.013664 -2.323419
-29.549377 -57.050438 -5.947886
-29.250834 -59.189922 -9.70512
-31.318205 -56.413811 -14.626274
-33.379097 -53.253422 -19.32214
-35.463818 -49.272774 -24.088095
-37.349274 -43.529549 -25.258387
-38.935661 -37.631031 -26.384974
-40.041504 -32.103149 -27.180084
-40.770954 -26.527296 -27.83823
-40.36562 0.200357 -43.033047
-39.93689 1.782361 -47.414135
-38.994411 3.045355 -52.323814
-37.452198 3.990263 -56.891773
-35.185242 4.569337 -61.085182
-31.315235 19.804424 -59.483944
-31.949991 16.096741 -62.474487
-32.286018 10.947341 -64.116905
-32.095146 4.61782 -64.751823
-33.942715 -54.462208 -27.123306
-33.631279 -55.437778 -29.039963
-34.820553 -52.351643 -29.500898
-35.910645 -5.696893 -59.54026
-40.52602 -29.926132 -30.919689
-40.538624 -30.284712 -32.647312
-40.906567 -27.159702 -32.976913
-41.171169 -7.216521 -43.218262
-41.263306 -9.788437 -43.785225
-41.002464 -6.785673 -45.467327
-40.743034 -6.432964 -47.569061
-40.664776 -3.790097 -46.843323
-25.824518 -66.69178 -7.78218
-26.767792 -65.634895 -10.377374
-27.874857 -64.123062 -12.791249
-27.957811 -62.919647 -10.810432
-33.947487 -48.668701 -10.916031
-34.85994 -46.992928 -13.231608
-34.744446 -47.742161 -14.988701
-35.724926 -45.328278 -15.586422
-36.567497 -43.562798 -17.893488
-36.752281 -42.669315 -16.397671
-35.458633 13.948095 -55.00703
-33.998215 16.588345 -56.015553
-20.831488 23.294777 -70.040291
-22.740875 23.56275 -68.607918
-22.989962 21.249847 -69.699112
-25.02536 19.170551 -69.048523
-39.054317 -32.550694 -43.420822
-38.183018 -36.250237 -42.858994
-38.287296 -33.080765 -45.197384
-41.294315 -18.936306 -31.471123
-41.356709 -19.011496 -33.149738
-41.376816 -16.582043 -33.172836
-41.359913 -11.29455 -35.95623
-41.264301 -8.744244 -37.253216
-41.280666 -8.330132 -39.068043
-41.091457 -6.063686 -38.526081
-16.588095 26.495237 -69.866791
-28.524927 -66.713486 -25.579205
-27.889668 -67.928131 -27.433449
-29.472061 -64.740593 -27.798676
-38.608288 -19.793247 -51.74696
-37.92321 -23.082872 -51.59082
-37.480316 -19.778179 -53.615128
-38.074177 -41.988083 -29.321905
-37.956863 -42.66539 -31.029388
-38.770679 -39.540642 -31.556719
-40.412197 -31.125914 -36.137508
-39.876816 -34.167648 -36.00177
-40.268471 -31.328106 -38.023739
-39.979607 -31.829456 -39.827049
-40.524799 -28.583057 -40.011906
-41.449753 -19.090704 -36.617668
-41.362423 -21.672283 -36.746967
-41.463329 -18.902107 -38.638161
-41.228443 -16.110413 -44.169899
-41.272774 -19.125179 -42.396996
-41.027367 -19.186617 -44.343678
-40.730644 -22.36227 -44.268723
-40.672714 -19.165483 -46.235291
-40.143288 -19.080093 -48.27169
-40.472122 -15.701791 -48.329456
-39.826672 -5.885133 -51.826439
-39.673531 -9.29282 -52.168461
-39.11235 -5.688902 -53.922504
-38.146416 -5.523959 -56.077244
-38.335632 -2.36342 -55.773006
-25.74135 -71.234505 -18.450218
-26.673094 -69.918694 -20.954063
-27.111065 -68.483971 -19.006399
-29.998699 -61.371464 -17.831785
-29.7635 -62.674927 -19.559109
-31.028357 -59.831558 -20.177551
-32.04491 -58.132584 -22.427734
-32.221142 -56.993488 -20.706776
-31.72308 -53.292042 -9.432466
-30.714506 -54.773899 -6.808947
-30.498817 -55.755482 -8.501895
-29.268639 -58.28627 -7.685504
-30.336708 -56.810436 -10.266831
-30.293507 -57.760975 -12.108358
-31.433958 -55.294388 -12.920373
-34.553684 -49.537491 -18.354401
-33.441826 -52.253677 -17.567581
-34.502491 -50.423134 -20.022093
-34.444359 -51.336449 -21.720293
-35.460522 -48.580826 -22.295874
-36.429035 -46.440403 -24.646891
-36.447803 -45.722897 -22.897539
-38.247631 -39.262615 -22.457726
-38.228558 -39.873413 -24.12993
-38.919601 -37.183895 -24.735695
-39.536625 -34.845051 -26.775591
-39.518406 -34.411671 -24.995193
-40.461281 -28.759459 -26.014383
-40.447578 -0.683244 -40.642769
-37.869534 9.457439 -48.770527
-38.80175 6.758472 -47.526718
-39.592838 3.867786 -46.317577
-39.282852 4.575381 -48.739433
-39.569691 2.260707 -49.878342
-38.782154 5.435423 -51.215832
-36.129929 9.811992 -57.620647
-37.29528 6.738202 -56.199741
-36.29493 7.395437 -58.463852
-36.466637 4.315364 -58.953491
-35.197468 7.647876 -60.561531
-26.357977 23.291567 -64.944374
-26.09791 24.82729 -63.032444
-27.88802 22.89959 -62.784714
-29.464836 22.044754 -60.429657
-29.883581 20.593426 -62.003124
-31.691265 18.048475 -61.213924
-30.118694 18.852757 -63.483826
-28.968531 13.977408 -67.094627
-30.709639 13.811458 -65.313866
-30.690634 11.055087 -65.899429
-32.201202 7.952474 -64.613464
-37.485973 -43.980644 -34.592491
-36.415443 -47.394623 -34.104343
-36.993164 -44.885002 -36.338501
-31.48805 -60.379627 -26.314247
-30.906553 -61.709938 -28.332386
-32.283028 -58.659229 -28.523071
-33.189003 -56.380711 -30.763264
-37.559052 -12.741993 -55.765774
-39.568634 -35.675228 -30.206739
-39.482162 -36.383408 -31.879992
-40.089478 -33.210781 -32.327553
-40.512787 -30.665829 -34.463604
-40.869911 -27.780926 -36.414555
-41.476997 -13.180511 -40.05032
-41.48708 -16.059196 -40.299019
-41.42746 -13.134743 -42.031219
-41.303879 -12.966815 -43.979691
-41.067829 -12.640163 -46.069206
-40.6954 -12.627949 -48.128792
-40.762657 -9.305288 -47.98505
-40.349625 -6.01554 -49.734585
-39.829727 -2.947532 -51.387348
-26.446341 -68.233246 -14.375341
-27.498121 -66.902679 -16.956282
-27.681551 -65.540276 -14.774952
-28.92729 -62.841854 -15.386307
-30.07925 -60.206444 -15.849923
-33.110058 -50.059345 -8.365663
-32.86216 -50.922955 -10.074214
-32.638969 -51.884476 -11.707279
-32.576855 -52.701698 -13.52943
-33.656586 -50.261898 -14.223347
-34.616089 -48.663845 -16.656553
-35.584335 -46.84227 -19.007212
-36.543446 -44.836372 -21.408543
-36.586319 -44.082321 -19.733736
-37.43219 -41.502953 -20.193161
-38.239151 -38.813126 -20.709389
-37.398792 10.353299 -51.237289
-37.865173 8.27117 -52.614086
-36.755062 11.147137 -53.875381
-35.856537 12.078882 -56.403164
-34.807022 12.891461 -58.80069
-20.49354 27.056665 -67.222649
-22.371431 26.940001 -65.427238
-22.725697 25.414749 -67.030914
-24.613796 23.479828 -66.959877
-26.572578 21.423712 -66.431396
-28.553568 19.203978 -65.52993
-26.98864 19.125154 -67.351669
-27.013178 16.689646 -68.205818
-38.520393 -38.485439 -38.996761
-37.934109 -39.058224 -40.80225
-41.08989 -24.183409 -31.442499
-41.137657 -24.3561 -33.102261
-41.286873 -21.572193 -33.202034
-41.408836 -19.08741 -34.84177
-41.479248 -16.275242 -36.613041
-41.397449 -13.9559 -34.592697
-41.442017 -13.644893 -36.289902
-41.480186 -13.575704 -38.153076
-41.409321 -10.72381 -39.675499
-41.266014 -7.929244 -41.077808
-41.018883 -4.859139 -42.483898
-18.786346 25.080633 -70.018089
-18.734224 22.911333 -71.175667
-30.296026 -62.737759 -30.177229
-29.451536 -63.838959 -32.085968
-39.112705 -26.265648 -47.646633
-38.3815 -29.636143 -47.324505
-38.198208 -26.466648 -49.489353
-36.191879 -48.197758 -28.16534
-35.98563 -49.058937 -29.952686
-37.003952 -45.917549 -30.518559
-37.767487 -43.348026 -32.746376
-38.392906 -40.752834 -34.986279
-39.416855 -36.745037 -33.723434
-39.193546 -37.479275 -35.427414
-38.949425 -37.83783 -37.285831
-39.325989 -35.078426 -39.470695
-39.595089 -32.222286 -41.57449
-39.747978 -29.050079 -43.860054
-41.170376 -24.547274 -34.912704
-41.161304 -24.819752 -36.598289
-41.085293 -25.13269 -38.48204
-41.404556 -19.191654 -40.472958
-41.228767 -22.176413 -40.46291
-40.954536 -25.132519 -40.352039
-40.680859 -25.567198 -42.15218
-40.315754 -25.811922 -43.958614
-39.775597 -25.903763 -45.971699
-39.697292 -22.633665 -48.022499
-39.451275 -19.414379 -50.077881
-39.058445 -16.023115 -52.157135
-40.115601 -12.561457 -50.335724
-39.429237 -12.543749 -52.248779
-38.583424 -12.80237 -54.007183
-37.988182 -9.08217 -55.884346
-37.152542 -5.579572 -57.810719
-36.105968 -2.086677 -59.729275
-26.197165 -71.210236 -23.115429
-27.709776 -68.186378 -23.302074
-29.06962 -65.351624 -23.529198
-28.457611 -65.597954 -19.283871
-29.463448 -64.012138 -21.461712
-30.472883 -62.3451 -24.020983
-31.813005 -59.274349 -24.318327
-33.02095 -56.367771 -24.794743
-34.227577 -53.277561 -25.314302
-26.999849 -63.088367 -6.25663
-30.962704 -53.863853 -4.906942
-29.803232 -56.032501 -4.097448
-28.608139 -58.344563 -3.369593
-28.35718 -59.437767 -5.130463
-28.185335 -60.604271 -7.107281
-28.015427 -61.777596 -8.78892
-29.101971 -60.414169 -11.476011
-30.170952 -58.98251 -13.921995
-31.240749 -57.52845 -16.436089
-32.425392 -53.816139 -15.16246
-32.39452 -54.798153 -17.017008
-32.283913 -55.955547 -18.79664
-33.373547 -54.095325 -21.153658
-34.388844 -52.241985 -23.57583
-35.326813 -50.272568 -25.85429
-36.346443 -47.313549 -26.512373
-37.291943 -44.276718 -26.994871
-38.168934 -41.205532 -27.585674
-37.415241 -42.688148 -23.517778
-38.158897 -40.657578 -25.682926
-38.8979 -38.280758 -27.959051
-39.560959 -35.232571 -28.421741
-40.089993 -32.327011 -28.829378
-40.512341 -29.488916 -29.293306
-38.343235 -38.079079 -19.145021
-38.946274 -36.135803 -21.254572
-39.54174 -33.871662 -23.398979
-40.057575 -31.522877 -25.54306
-40.456909 -29.321037 -27.540022
-40.804672 -26.87364 -29.494459
-41.018707 -24.231546 -29.650208
-41.15152 -21.627409 -29.722044
-40.766285 -2.514736 -41.642525
-40.686184 -2.01669 -43.85548
-39.814529 2.962544 -43.997623
-40.234257 0.804351 -45.17667
-40.473228 -1.316062 -46.238697
-40.172928 -0.740762 -48.457302
-39.760735 -0.331553 -50.710258
-39.173923 0.227505 -52.978043
-38.087631 6.17526 -53.867886
-38.265671 3.680221 -54.733665
-38.423107 0.614936 -55.221249
-37.424953 0.918329 -57.521038
-36.371826 1.224092 -59.428322
-35.064949 1.458679 -61.34222
-32.482513 18.888277 -56.975891
-32.924576 17.417109 -58.719822
-33.335495 15.475577 -60.120365
-33.568474 13.294873 -61.28854
-30.362516 16.625256 -64.631783
-32.20118 13.669215 -63.407391
-33.764858 10.699701 -62.090122
-33.839809 7.909064 -62.617634
-33.669357 4.801821 -63.086945
-33.595612 1.27291 -63.051601
-35.699848 -49.848137 -31.8309
-35.250118 -50.665455 -33.760445
-34.616234 -3.803647 -61.311825
-35.16973 -5.617178 -60.3867
-35.35715 -3.883363 -60.465385
-34.02789 -2.09884 -62.182862
-34.616234 -3.803647 -61.311825
-35.390873 -45.742382 -13.639186
-34.971847 -46.58516 -12.420067
-35.502781 -45.334614 -12.827644
-33.663443 17.322145 -55.169849
-34.427917 16.086129 -54.761755
-21.874115 20.060612 -70.726784
-22.920246 20.07771 -70.125706
-21.943832 21.232749 -70.30019
-20.942678 19.817698 -71.223
-21.874115 20.060612 -70.726784
-41.34474 -16.552044 -32.331978
-41.335566 -17.759175 -32.321979
-41.303489 -17.729175 -31.481122
-41.171272 -7.744765 -36.926558
-41.247685 -8.980642 -36.334311
-41.08485 -6.404486 -37.56299
-41.177879 -7.403965 -37.889648
-41.171272 -7.744765 -36.926558
-25.488472 -71.08775 -16.309171
-25.65476 -70.357658 -15.261475
-25.95504 -70.458893 -17.465521
-25.274782 -71.863361 -17.293868
-25.488472 -71.08775 -16.309171
-29.728547 11.12658 -66.754704
-29.829583 12.516248 -66.497028
-28.867495 12.587741 -67.352303
-30.562022 9.600538 -66.111934
-29.728547 11.12658 -66.754704
-34.225714 -53.57271 -32.255206
-33.587599 -55.164131 -31.96726
-33.827118 -54.789289 -31.051209
-36.542662 -10.986772 -57.589042
-36.930754 -12.799879 -56.598837
-37.17096 -10.928886 -56.755979
-25.972568 -68.317115 -12.08046
-26.075591 -67.623554 -11.058151
-26.512504 -67.611854 -13.326833
-25.906405 -68.938507 -13.128968
-25.972568 -68.317115 -12.08046
-33.660826 -48.945896 -8.762549
-33.240908 -49.68957 -7.453612
-36.510677 12.519846 -51.073923
-35.87994 13.769576 -51.501429
-36.807034 11.695438 -51.79232
-37.102436 11.177707 -50.518892
-36.510677 12.519846 -51.073923
-25.977842 16.699244 -68.975612
-26.019269 17.930098 -68.627171
-24.983933 17.939696 -69.396965
-26.99072 15.382434 -68.468921
-25.977842 16.699244 -68.975612
-37.642696 -38.053648 -42.664183
-37.784754 -36.397374 -43.739674
-41.358959 -12.856129 -34.384411
-41.372867 -14.139775 -33.752815
-16.765217 23.403643 -71.499085
-17.775824 22.597492 -71.560604
-17.723618 23.717484 -71.114148
-26.638629 -70.375245 -26.272634
-26.249681 -71.181187 -25.203342
-27.88424 -67.560581 -29.602369
-27.466435 -68.558754 -28.430581
-28.307472 -66.929958 -28.605237
-28.209984 -66.628906 -30.670038
-27.88424 -67.560581 -29.602369
-29.766705 -62.760784 -33.124199
-30.224302 -62.293859 -32.161892
-28.881704 -64.500847 -32.935993
-29.766705 -62.760784 -33.124199
-37.509864 -24.875367 -51.376896
-37.317896 -23.277215 -52.364945
-25.7419 -71.950832 -21.958222
-25.407738 -72.719803 -23.057953
-26.668242 -62.925736 -3.983324
-26.783735 -62.292659 -3.010988
-27.111997 -62.42682 -5.313865
-26.556094 -63.587282 -4.926089
-26.668242 -62.925736 -3.983324
-29.773517 -55.591224 -1.023961
-30.385559 -54.528715 -1.465089
-29.56771 -56.10176 -1.892144
-29.773517 -55.591224 -1.023961
-31.412529 -53.197443 -6.243106
-31.585871 -52.706308 -5.391878
-32.035696 -52.039898 -6.728042
-38.690359 -36.747515 -19.41407
-38.3647 -37.85951 -18.320627
-38.991878 -35.775877 -20.468846
-38.644755 -37.107441 -20.199796
-38.690359 -36.747515 -19.41407
-39.793273 -32.505382 -23.668842
-39.555471 -33.614018 -22.634729
-40.051191 -31.33099 -24.740882
-39.799657 -32.69727 -24.47102
-39.793273 -32.505382 -23.668842
-41.116367 -21.496684 -28.894533
-41.060955 -22.763028 -28.883969
-41.186507 -20.312632 -29.768683
-41.116367 -21.496684 -28.894533
-39.468858 4.306175 -44.501192
-39.569584 3.732455 -43.318168
-24.290347 25.885537 -64.288185
-23.251278 26.747739 -64.394531
-23.410501 26.077799 -65.320892
-25.83145 25.442124 -62.091499
-26.849518 24.478898 -61.913059
-30.982372 20.549039 -58.682417
-30.057173 21.669204 -59.155273
-30.390035 20.924589 -59.9568
-31.898874 19.34635 -58.229917
-31.566011 20.090966 -57.42839
-30.982372 20.549039 -58.682417
-31.997186 2.962294 -64.698692
-32.747419 1.289839 -63.848581
-32.845379 2.945365 -63.901712
-35.548925 -49.448742 -34.871967
-35.83278 -49.030039 -33.932394
-36.131588 -47.813326 -35.043917
-34.907167 -51.151211 -34.631786
-35.548925 -49.448742 -34.871967
-37.87178 -31.57137 -47.088763
-37.884785 -29.870667 -48.113506
-35.639887 -7.504205 -59.482428
-36.075998 -9.213648 -58.58539
-36.346756 -7.406336 -58.643223
-35.639887 -7.504205 -59.482428
-35.16973 -5.617178 -60.3867
-25.698516 -67.474212 -8.810079
-25.255968 -67.950966 -7.549334
-26.170153 -66.94577 -10.107676
-25.698516 -67.474212 -8.810079
-26.296155 -66.163337 -9.079777
-26.673229 -66.312679 -11.327849
-26.075591 -67.623554 -11.058151
-26.170153 -66.94577 -10.107676
-34.515621 -47.423046 -11.262278
-34.079541 -48.250574 -10.037733
-34.403714 -47.830815 -12.073819
-34.515621 -47.423046 -11.262278
-34.971847 -46.58516 -12.420067
-35.536447 14.310745 -52.927654
-35.87994 13.769576 -51.501429
-35.158126 14.766004 -54.257493
-35.836954 13.492836 -53.677191
-35.536447 14.310745 -52.927654
-34.728424 15.26822 -55.511291
-35.158126 14.766004 -54.257493
-34.427917 16.086129 -54.761755
-23.937945 19.038062 -69.800411
-24.007661 20.210199 -69.373818
-22.920246 20.07771 -70.125706
-24.983933 17.939696 -69.396965
-23.937945 19.038062 -69.800411
-37.836893 -34.812638 -44.908869
-37.784754 -36.397374 -43.739674
-38.235157 -34.665501 -44.028189
-41.29549 -10.255795 -35.685817
-41.340191 -11.525454 -35.066177
-41.312107 -10.019397 -36.604723
-41.29549 -10.255795 -35.685817
-41.247685 -8.980642 -36.334311
-15.571495 27.087353 -69.615818
-16.550705 27.323619 -69.134869
-15.6265 26.141116 -70.290818
-15.571495 27.087353 -69.615818
-15.688959 25.155315 -70.883736
-16.650553 25.509436 -70.45971
-15.6265 26.141116 -70.290818
-15.741707 24.066804 -71.41161
-15.688959 25.155315 -70.883736
-31.422128 -60.083862 -31.398623
-32.205179 -58.373535 -31.611984
-37.096449 -21.624869 -53.377099
-37.317896 -23.277215 -52.364945
-37.701763 -21.430526 -52.602974
-25.069847 -72.59348 -18.396136
-25.274782 -71.863361 -17.293868
-25.513993 -71.962967 -19.625616
-25.069847 -72.59348 -18.396136
-26.207222 -70.5766 -19.70214
-25.979865 -71.305061 -20.877538
-25.513993 -71.962967 -19.625616
-27.346781 -61.15506 -3.403333
-26.783735 -62.292659 -3.010988
-30.808986 -53.862314 -2.775669
-30.385559 -54.528715 -1.465089
-40.43631 -28.637711 -25.151334
-40.253044 -29.949281 -24.976544
-40.594299 -27.471376 -26.099767
-40.43631 -28.637711 -25.151334
-40.749136 -26.355294 -27.011691
-40.616118 -27.643377 -26.926306
-40.594299 -27.471376 -26.099767
-40.870672 -25.212972 -27.942062
-40.749136 -26.355294 -27.011691
-40.225631 0.110996 -40.040634
-40.454514 -1.133344 -39.56032
-40.214088 0.561661 -41.129948
-40.225631 0.110996 -40.040634
-40.173109 1.003462 -42.325086
-40.406599 -0.241443 -41.837908
-40.214088 0.561661 -41.129948
-38.059441 8.905995 -47.490391
-37.532017 10.221671 -48.001793
-38.525549 7.556512 -46.868487
-38.059441 8.905995 -47.490391
-38.335642 8.107956 -48.148623
-38.962469 6.204139 -46.26574
-38.525549 7.556512 -46.868487
-39.197294 5.313129 -46.922148
-39.358013 4.758796 -45.661169
-38.962469 6.204139 -46.26574
-27.744573 23.515048 -61.789194
-26.849518 24.478898 -61.913059
-26.992965 23.86344 -62.908579
-28.676428 22.472172 -61.607185
-28.532981 23.087631 -60.611666
-27.744573 23.515048 -61.789194
-31.317306 8.049232 -65.468952
-31.445918 9.50378 -65.256446
-30.562022 9.600538 -66.111934
-31.264277 6.381905 -65.538131
-32.148174 6.285147 -64.682643
-31.317306 8.049232 -65.468952
-31.193867 4.668909 -65.519882
-31.264277 6.381905 -65.538131
-36.420448 -46.558515 -36.160995
-36.131588 -47.813326 -35.043917
-36.704304 -46.139813 -35.221422
-32.876086 -56.854408 -31.7139
-32.205179 -58.373535 -31.611984
-32.518096 -57.899838 -30.661347
-32.876086 -56.854408 -31.7139
-33.587599 -55.164131 -31.96726
-37.254362 -14.51292 -55.671404
-37.534604 -16.326871 -54.700136
-37.839293 -14.555945 -54.794506
-37.254362 -14.51292 -55.671404
-36.930754 -12.799879 -56.598837
-36.542662 -10.986772 -57.589042
-36.075998 -9.213648 -58.58539
-25.793565 -69.632641 -14.208734
-25.906405 -68.938507 -13.128968
-26.307536 -68.958263 -15.428082
-25.65476 -70.357658 -15.261475
-25.793565 -69.632641 -14.208734
-32.659548 -50.804054 -7.121239
-33.240908 -49.68957 -7.453612
-32.486206 -51.295189 -7.972466
-32.035696 -52.039898 -6.728042
-32.659548 -50.804054 -7.121239
-33.528773 -49.364023 -9.640847
-33.660826 -48.945896 -8.762549
-34.079541 -48.250574 -10.037733
-37.337807 10.729777 -49.285511
-37.532017 10.221671 -48.001793
-37.634163 9.905369 -50.003908
-37.337807 10.729777 -49.285511
-37.102436 11.177707 -50.518892
-21.432485 26.998333 -66.324944
-21.383544 27.681523 -65.357692
-20.444599 27.739855 -66.255398
-27.968396 14.026315 -67.913326
-27.990854 15.333527 -67.650222
-26.99072 15.382434 -68.468921
-28.867495 12.587741 -67.352303
-27.968396 14.026315 -67.913326
-38.045019 -40.201749 -38.76979
-37.82054 -41.59415 -37.657928
-38.295913 -39.87784 -37.884899
-37.751877 -40.488142 -39.672535
-38.045019 -40.201749 -38.76979
-38.227251 -38.771832 -39.899506
-37.40739 -40.772303 -40.592087
-37.751877 -40.488142 -39.672535
-37.518242 -39.457642 -41.635811
-38.058563 -37.65423 -41.830622
-37.642696 -38.053648 -42.664183
-37.40739 -40.772303 -40.592087
-37.518242 -39.457642 -41.635811
-41.362551 -15.452846 -33.042884
-41.34474 -16.552044 -32.331978
-41.387132 -15.268971 -33.882767
-41.362551 -15.452846 -33.042884
-41.372867 -14.139775 -33.752815
-41.378681 -12.625225 -35.274463
-41.358959 -12.856129 -34.384411
-41.340191 -11.525454 -35.066177
-25.335191 -67.275043 -6.480727
-25.255968 -67.950966 -7.549334
-25.891565 -66.028897 -6.724769
-25.335191 -67.275043 -6.480727
-26.434593 -64.835633 -7.01999
-26.367547 -65.498516 -8.0774
-25.891565 -66.028897 -6.724769
-36.020052 -44.129998 -13.173872
-35.502781 -45.334614 -12.827644
-36.418825 -43.212217 -14.387401
-36.020052 -44.129998 -13.173872
-19.429384 27.778301 -67.114186
-20.444599 27.739855 -66.255398
-19.530465 27.00747 -67.936272
-19.429384 27.778301 -67.114186
-19.672408 26.136463 -68.695736
-20.635484 26.185657 -67.982113
-19.530465 27.00747 -67.936272
-17.577742 26.726756 -69.258343
-16.550705 27.323619 -69.134869
-18.676868 26.019454 -69.333992
-17.577742 26.726756 -69.258343
-17.687221 25.787935 -69.94244
-19.781887 25.197641 -69.379833
-19.672408 26.136463 -68.695736
-18.676868 26.019454 -69.333992
-18.853378 21.652934 -71.537403
-19.935116 20.805093 -71.400204
-19.815963 22.063492 -71.038467
-18.853378 21.652934 -71.537403
-17.775824 22.597492 -71.560604
-16.765217 23.403643 -71.499085
-15.741707 24.066804 -71.41161
-27.073322 -69.483265 -27.369593
-26.638629 -70.375245 -26.272634
-27.454974 -68.82011 -26.33649
-27.073322 -69.483265 -27.369593
-27.466435 -68.558754 -28.430581
-30.646547 -61.743259 -31.207523
-31.071607 -61.078361 -30.36833
-31.422128 -60.083862 -31.398623
-29.873781 -63.288359 -31.131599
-30.646547 -61.743259 -31.207523
-30.224302 -62.293859 -32.161892
-28.573113 -65.582493 -31.82451
-28.209984 -66.628906 -30.670038
-29.088406 -64.885373 -30.931497
-28.573113 -65.582493 -31.82451
-28.881704 -64.500847 -32.935993
-37.793138 -28.28592 -49.195931
-37.884785 -29.870667 -48.113506
-38.289854 -28.051395 -48.406929
-37.647363 -26.567255 -50.326162
-38.060709 -24.77476 -50.540087
-37.509864 -24.875367 -51.376896
-37.793138 -28.28592 -49.195931
-37.647363 -26.567255 -50.326162
-37.214995 -18.031013 -54.596081
-37.799925 -18.074038 -53.719183
-37.534604 -16.326871 -54.700136
-36.860212 -19.882752 -54.366995
-37.214995 -18.031013 -54.596081
-37.096449 -21.624869 -53.377099
-36.860212 -19.882752 -54.366995
-25.838122 -71.93026 -24.141291
-25.407738 -72.719803 -23.057953
-26.608723 -70.461163 -24.17748
-26.249681 -71.181187 -25.203342
-25.838122 -71.93026 -24.141291
-26.435129 -70.564465 -22.034746
-25.7419 -71.950832 -21.958222
-25.979865 -71.305061 -20.877538
-26.47923 -64.22719 -5.961994
-26.556094 -63.587282 -4.926089
-26.955213 -63.69681 -7.314626
-26.434593 -64.835633 -7.01999
-26.47923 -64.22719 -5.961994
-31.206897 -53.287408 -4.067431
-31.585871 -52.706308 -5.391878
-30.564793 -54.438758 -3.615181
-30.808986 -53.862314 -2.775669
-31.206897 -53.287408 -4.067431
-29.385885 -56.611179 -2.779158
-29.56771 -56.10176 -1.892144
-29.985057 -55.523083 -3.210433
-28.788339 -57.76721 -2.415231
-29.385885 -56.611179 -2.779158
-29.205686 -57.188532 -3.733521
-28.206467 -58.84515 -1.962086
-28.788339 -57.76721 -2.415231
-28.038778 -59.444705 -2.902579
-28.206467 -58.84515 -1.962086
-27.913299 -59.991307 -3.783015
-28.038778 -59.444705 -2.902579
-28.48266 -58.891165 -4.250028
-27.790662 -60.60152 -4.750781
-27.346781 -61.15506 -3.403333
-27.913299 -59.991307 -3.783015
-36.834063 -42.300956 -15.562854
-36.337044 -43.580576 -15.222217
-36.418825 -43.212217 -14.387401
-37.179894 -41.435478 -16.691874
-36.834063 -42.300956 -15.562854
-37.575631 -40.460749 -17.802804
-37.148018 -41.694586 -17.508601
-37.179894 -41.435478 -16.691874
-37.97537 -39.14036 -18.065549
-38.3647 -37.85951 -18.320627
-37.943495 -39.399468 -18.882275
-37.575631 -40.460749 -17.802804
-37.97537 -39.14036 -18.065549
-39.257738 -34.746088 -21.562525
-38.991878 -35.775877 -20.468846
-39.244007 -35.003732 -22.326776
-39.257738 -34.746088 -21.562525
-39.555471 -33.614018 -22.634729
-40.259428 -30.141168 -25.778721
-40.051191 -31.33099 -24.740882
-40.253044 -29.949281 -24.976544
-40.994549 -24.065097 -28.848052
-40.89483 -25.379421 -28.744219
-40.870672 -25.212972 -27.942062
-41.085113 -22.929478 -29.686126
-40.994549 -24.065097 -28.848052
-41.060955 -22.763028 -28.883969
-41.257904 -18.96708 -30.643222
-41.222917 -20.281858 -30.596584
-41.186507 -20.312632 -29.768683
-41.303489 -17.729175 -31.481122
-41.257904 -18.96708 -30.643222
-40.962308 -5.146967 -38.050007
-41.08485 -6.404486 -37.56299
-40.955813 -4.722167 -39.013958
-40.962308 -5.146967 -38.050007
-40.947735 -4.40394 -40.009241
-41.083379 -5.745459 -39.521364
-40.955813 -4.722167 -39.013958
-40.633873 -2.031945 -40.072302
-40.454514 -1.133344 -39.56032
-40.793227 -2.947692 -40.57218
-40.633873 -2.031945 -40.072302
-40.606932 -1.59899 -41.142647
-40.920794 -3.970985 -41.079586
-40.947735 -4.40394 -40.009241
-40.793227 -2.947692 -40.57218
-39.897564 2.384555 -42.807374
-39.569584 3.732455 -43.318168
-40.090075 1.58145 -43.515335
-40.173109 1.003462 -42.325086
-39.897564 2.384555 -42.807374
-39.703683 3.415165 -45.1576
-39.468858 4.306175 -44.501192
-39.358013 4.758796 -45.661169
-22.20108 27.542666 -64.476648
-21.383544 27.681523 -65.357692
-22.20108 27.542666 -64.476648
-23.251278 26.747739 -64.394531
-25.114517 25.691384 -63.197134
-24.290347 25.885537 -64.288185
-25.27374 25.021444 -64.123495
-25.114517 25.691384 -63.197134
-25.83145 25.442124 -62.091499
-29.182226 22.673112 -59.415239
-28.532981 23.087631 -60.611666
-29.182226 22.673112 -59.415239
-30.057173 21.669204 -59.155273
-32.10044 19.574824 -56.116617
-31.566011 20.090966 -57.42839
-32.905592 18.47211 -55.650019
-32.10044 19.574824 -56.116617
-33.240364 17.738311 -56.495722
-33.663443 17.322145 -55.169849
-32.905592 18.47211 -55.650019
-33.423868 -0.427469 -63.013407
-34.02789 -2.09884 -62.182862
-34.199633 -0.398461 -62.221056
-33.423868 -0.427469 -63.013407
-32.747419 1.289839 -63.848581
-31.997186 2.962294 -64.698692
-31.193867 4.668909 -65.519882
-20.942678 19.817698 -71.223
-19.935116 20.805093 -71.400204
-34.618156 -52.306504 -33.465851
-34.225714 -53.57271 -32.255206
-34.857675 -51.931662 -32.5498
-34.618156 -52.306504 -33.465851
-34.907167 -51.151211 -34.631786
-37.281405 -43.401531 -37.44066
-37.532299 -43.077621 -36.555769
-37.82054 -41.59415 -37.657928
-36.720609 -45.104301 -37.287846
-37.281405 -43.401531 -37.44066
-36.420448 -46.558515 -36.160995
-36.720609 -45.104301 -37.287846
-37.824678 -33.293681 -46.025202
-38.334398 -31.358454 -46.260945
-37.87178 -31.57137 -47.088763
-37.836893 -34.812638 -44.908869
-37.824678 -33.293681 -46.025202
3 0 98 96
3 1 383 385
3 385 384 99
3 383 384 385
3 1 386 387
3 2 102 100
3 4 105 103
3 4 107 105
3 5 109 108
3 5 111 109
3 6 388 390
3 388 113 389
3 388 389 390
3 6 115 113
3 6 117 115
3 391 119 392
3 7 122 120
3 7 393 395
3 395 394 122
3 393 394 395
3 7 396 397
3 3 126 124
3 398 129 399
3 400 399 127
3 398 399 400
3 401 131 402
3 403 133 404
3 405 404 131
3 403 404 405
3 9 137 135
3 10 140 138
3 11 143 141
3 13 146 144
3 13 148 146
3 8 151 149
3 14 154 152
3 14 156 154
3 14 158 156
3 15 161 159
3 15 163 161
3 16 406 407
3 16 408 410
3 408 164 409
3 408 409 410
3 16 166 164
3 17 169 167
3 17 171 169
3 18 174 172
3 18 176 174
3 18 178 176
3 19 181 179
3 19 183 181
3 19 185 183
3 20 188 186
3 20 190 188
3 21 194 193
3 21 196 194
3 21 198 196
3 22 201 199
3 22 203 201
3 23 206 204
3 23 208 206
3 23 210 208
3 411 213 412
3 413 412 211
3 411 412 413
3 415 414 213
3 12 217 215
3 24 220 218
3 26 221 97
3 26 416 418
3 418 417 221
3 416 417 418
3 27 419 421
3 421 420 222
3 419 420 421
3 28 225 223
3 30 226 101
3 30 227 226
3 31 230 228
3 33 231 104
3 33 232 231
3 33 234 232
3 35 235 106
3 35 236 235
3 36 422 423
3 36 424 426
3 424 237 425
3 424 425 426
3 36 239 237
3 38 240 110
3 38 241 240
3 427 242 428
3 40 243 112
3 40 244 243
3 40 246 244
3 42 247 114
3 42 248 247
3 42 250 248
3 44 251 116
3 44 252 251
3 45 429 430
3 45 431 433
3 431 253 432
3 431 432 433
3 45 255 253
3 47 256 118
3 47 257 256
3 48 260 258
3 50 261 121
3 50 262 261
3 50 264 262
3 434 265 435
3 436 435 123
3 434 435 436
3 438 437 265
3 52 267 266
3 440 439 125
3 53 270 268
3 55 271 128
3 55 272 271
3 441 273 442
3 56 274 130
3 56 275 274
3 56 276 275
3 57 277 132
3 57 278 277
3 58 279 134
3 58 280 279
3 58 443 445
3 445 444 280
3 443 444 445
3 59 446 447
3 60 448 450
3 450 449 136
3 448 449 450
3 60 451 452
3 25 281 219
3 453 282 454
3 456 455 282
3 61 285 283
3 458 457 139
3 62 288 286
3 64 289 142
3 64 290 289
3 29 291 224
3 65 292 145
3 65 293 292
3 65 294 293
3 66 295 147
3 66 296 295
3 54 297 269
3 67 298 150
3 67 299 298
3 32 300 229
3 68 301 153
3 68 302 301
3 68 303 302
3 69 304 155
3 69 305 304
3 69 306 305
3 70 307 157
3 70 308 307
3 34 309 233
3 71 310 160
3 71 311 310
3 71 312 311
3 72 313 162
3 72 314 313
3 459 315 460
3 73 316 165
3 73 317 316
3 37 318 238
3 74 319 168
3 74 320 319
3 74 321 320
3 75 322 170
3 75 323 322
3 76 461 462
3 76 463 465
3 463 324 464
3 463 464 465
3 77 466 467
3 77 468 469
3 39 470 472
3 470 325 471
3 470 471 472
3 78 326 173
3 78 327 326
3 78 328 327
3 79 329 175
3 79 330 329
3 79 331 330
3 80 332 177
3 80 333 332
3 41 334 245
3 81 335 180
3 81 336 335
3 81 337 336
3 82 338 182
3 82 339 338
3 82 340 339
3 83 341 184
3 83 342 341
3 43 343 249
3 84 344 187
3 84 345 344
3 84 346 345
3 85 347 189
3 85 348 347
3 473 349 474
3 475 350 476
3 477 476 349
3 475 476 477
3 478 351 479
3 480 352 481
3 482 481 351
3 480 481 482
3 86 353 191
3 86 354 353
3 86 355 354
3 483 356 484
3 486 485 356
3 87 357 192
3 87 358 357
3 487 359 488
3 88 360 195
3 88 361 360
3 88 362 361
3 89 363 197
3 89 364 363
3 46 365 254
3 90 366 200
3 90 367 366
3 90 368 367
3 91 369 202
3 91 370 369
3 49 489 491
3 491 490 259
3 489 490 491
3 493 492 205
3 92 494 496
3 496 495 207
3 494 495 496
3 92 497 499
3 497 371 498
3 497 498 499
3 92 372 371
3 93 373 209
3 93 374 373
3 51 375 263
3 94 376 212
3 94 377 376
3 94 378 377
3 95 379 214
3 95 380 379
3 95 500 502
3 502 501 380
3 500 501 502
3 63 381 287
3 503 382 504
3 505 504 216
3 503 504 505
3 507 506 382
3 509 508 284
3 96 97 24
3 98 97 96
3 98 26 97
3 99 510 512
3 512 511 27
3 510 511 512
3 514 513 99
3 100 101 28
3 102 101 100
3 102 30 101
3 103 104 31
3 105 104 103
3 105 33 104
3 105 106 33
3 107 106 105
3 107 35 106
3 108 515 516
3 109 517 519
3 519 518 108
3 517 518 519
3 109 520 522
3 520 36 521
3 520 521 522
3 109 110 36
3 111 110 109
3 111 38 110
3 523 112 524
3 113 525 527
3 525 112 526
3 525 526 527
3 113 40 112
3 113 114 40
3 115 114 113
3 115 42 114
3 115 116 42
3 117 116 115
3 117 44 116
3 528 45 529
3 530 118 531
3 532 531 45
3 530 531 532
3 119 533 535
3 533 118 534
3 533 534 535
3 119 47 118
3 120 121 48
3 122 121 120
3 122 50 121
3 122 123 50
3 536 123 537
3 538 537 122
3 536 537 538
3 540 539 123
3 124 125 52
3 126 125 124
3 126 541 543
3 543 542 125
3 541 542 543
3 127 128 53
3 129 128 127
3 129 55 128
3 544 130 545
3 131 546 548
3 546 130 547
3 546 547 548
3 131 56 130
3 131 132 56
3 133 132 131
3 133 57 132
3 549 134 550
3 551 134 552
3 553 58 554
3 555 554 134
3 553 554 555
3 557 556 58
3 135 136 59
3 137 136 135
3 137 60 136
3 559 558 25
3 138 139 61
3 140 139 138
3 140 560 562
3 562 561 139
3 560 561 562
3 141 142 62
3 143 142 141
3 143 64 142
3 144 145 29
3 146 145 144
3 146 65 145
3 146 147 65
3 148 147 146
3 148 66 147
3 149 150 54
3 151 150 149
3 151 67 150
3 152 153 32
3 154 153 152
3 154 68 153
3 154 155 68
3 156 155 154
3 156 69 155
3 156 157 69
3 158 157 156
3 158 70 157
3 159 160 34
3 161 160 159
3 161 71 160
3 161 162 71
3 163 162 161
3 163 72 162
3 164 563 564
3 164 565 566
3 164 567 569
3 567 165 568
3 567 568 569
3 166 165 164
3 166 73 165
3 167 168 37
3 169 168 167
3 169 74 168
3 169 170 74
3 171 170 169
3 171 75 170
3 570 76 571
3 572 77 573
3 172 173 39
3 174 173 172
3 174 78 173
3 174 175 78
3 176 175 174
3 176 79 175
3 176 177 79
3 178 177 176
3 178 80 177
3 179 180 41
3 181 180 179
3 181 81 180
3 181 182 81
3 183 182 181
3 183 82 182
3 183 184 82
3 185 184 183
3 185 83 184
3 186 187 43
3 188 187 186
3 188 84 187
3 188 189 84
3 190 189 188
3 190 85 189
3 574 191 575
3 576 191 577
3 578 86 579
3 580 579 191
3 578 579 580
3 582 581 86
3 583 192 584
3 585 192 586
3 587 87 588
3 589 588 192
3 587 588 589
3 193 590 591
3 194 592 594
3 594 593 193
3 592 593 594
3 194 595 596
3 194 597 599
3 597 195 598
3 597 598 599
3 196 195 194
3 196 88 195
3 196 197 88
3 198 197 196
3 198 89 197
3 199 200 46
3 201 200 199
3 201 90 200
3 201 202 90
3 203 202 201
3 203 91 202
3 204 205 49
3 206 205 204
3 206 600 602
3 602 601 205
3 600 601 602
3 206 603 605
3 603 207 604
3 603 604 605
3 208 207 206
3 208 92 207
3 208 209 92
3 210 209 208
3 210 93 209
3 211 212 51
3 213 212 211
3 213 94 212
3 213 214 94
3 606 214 607
3 608 607 213
3 606 607 608
3 609 95 610
3 611 610 214
3 609 610 611
3 613 612 95
3 215 216 63
3 217 216 215
3 217 614 616
3 616 615 216
3 614 615 616
3 218 219 9
3 220 219 218
3 220 25 219
3 97 220 24
3 221 220 97
3 221 25 220
3 221 617 619
3 619 618 25
3 617 618 619
3 621 620 221
3 222 622 624
3 624 623 10
3 622 623 624
3 626 625 222
3 628 627 27
3 223 224 11
3 225 224 223
3 225 29 224
3 101 225 28
3 226 225 101
3 226 29 225
3 226 144 29
3 227 144 226
3 227 13 144
3 228 229 8
3 230 229 228
3 230 32 229
3 104 230 31
3 231 230 104
3 231 32 230
3 231 152 32
3 232 152 231
3 232 14 152
3 232 233 14
3 234 233 232
3 234 34 233
3 106 234 33
3 235 234 106
3 235 34 234
3 235 159 34
3 236 159 235
3 236 15 159
3 237 629 630
3 237 631 633
3 631 16 632
3 631 632 633
3 237 238 16
3 239 238 237
3 239 37 238
3 110 239 36
3 240 239 110
3 240 37 239
3 240 167 37
3 241 167 240
3 241 17 167
3 242 634 635
3 242 636 638
3 636 39 637
3 636 637 638
3 112 639 641
3 639 242 640
3 639 640 641
3 243 242 112
3 243 39 242
3 243 172 39
3 244 172 243
3 244 18 172
3 244 245 18
3 246 245 244
3 246 41 245
3 114 246 40
3 247 246 114
3 247 41 246
3 247 179 41
3 248 179 247
3 248 19 179
3 248 249 19
3 250 249 248
3 250 43 249
3 116 250 42
3 251 250 116
3 251 43 250
3 251 186 43
3 252 186 251
3 252 20 186
3 642 193 643
3 253 644 646
3 644 193 645
3 644 645 646
3 253 21 193
3 253 254 21
3 255 254 253
3 255 46 254
3 118 255 45
3 256 255 118
3 256 46 255
3 256 199 46
3 257 199 256
3 257 22 199
3 258 647 649
3 647 259 648
3 647 648 649
3 260 259 258
3 260 49 259
3 121 260 48
3 261 260 121
3 261 49 260
3 261 204 49
3 262 204 261
3 262 23 204
3 262 263 23
3 264 263 262
3 264 51 263
3 123 264 50
3 265 264 123
3 265 51 264
3 265 211 51
3 650 211 651
3 652 651 265
3 650 651 652
3 654 653 211
3 266 655 657
3 657 656 12
3 655 656 657
3 267 658 660
3 660 659 266
3 658 659 660
3 267 661 662
3 125 267 52
3 663 267 664
3 665 664 125
3 663 664 665
3 667 666 267
3 268 269 2
3 270 269 268
3 270 54 269
3 128 270 53
3 271 270 128
3 271 54 270
3 271 149 54
3 272 149 271
3 272 8 149
3 668 129 669
3 273 670 672
3 670 129 671
3 670 671 672
3 273 55 129
3 130 673 675
3 673 273 674
3 673 674 675
3 274 273 130
3 274 55 273
3 274 272 55
3 275 272 274
3 275 8 272
3 275 228 8
3 276 228 275
3 276 31 228
3 132 276 56
3 277 276 132
3 277 31 276
3 277 103 31
3 278 103 277
3 278 4 103
3 676 108 677
3 678 108 679
3 680 5 681
3 682 681 108
3 680 681 682
3 683 6 684
3 686 685 6
3 687 258 688
3 689 258 690
3 691 48 692
3 693 692 258
3 691 692 693
3 134 694 695
3 279 696 698
3 698 697 134
3 696 697 698
3 279 699 701
3 699 48 700
3 699 700 701
3 279 120 48
3 280 120 279
3 280 7 120
3 280 702 704
3 704 703 7
3 702 703 704
3 706 705 280
3 708 707 58
3 136 709 711
3 711 710 59
3 709 710 711
3 713 712 136
3 219 137 9
3 281 137 219
3 281 60 137
3 714 281 715
3 716 715 25
3 714 715 716
3 282 717 719
3 717 281 718
3 717 718 719
3 282 60 281
3 282 720 722
3 722 721 60
3 720 721 722
3 724 723 282
3 283 284 3
3 285 284 283
3 285 725 727
3 727 726 284
3 725 726 727
3 139 285 61
3 728 285 729
3 730 729 139
3 728 729 730
3 732 731 285
3 733 140 734
3 735 734 10
3 733 734 735
3 736 140 737
3 739 738 140
3 286 287 0
3 288 287 286
3 288 63 287
3 142 288 62
3 289 288 142
3 289 63 288
3 289 215 63
3 290 215 289
3 290 12 215
3 224 143 11
3 291 143 224
3 291 64 143
3 145 291 29
3 292 291 145
3 292 64 291
3 292 290 64
3 293 290 292
3 293 12 290
3 293 266 12
3 294 266 293
3 294 52 266
3 147 294 65
3 295 294 147
3 295 52 294
3 295 124 52
3 296 124 295
3 296 3 124
3 269 102 2
3 297 102 269
3 297 30 102
3 150 297 54
3 298 297 150
3 298 30 297
3 298 227 30
3 299 227 298
3 299 13 227
3 229 151 8
3 300 151 229
3 300 67 151
3 153 300 32
3 301 300 153
3 301 67 300
3 301 299 67
3 302 299 301
3 302 13 299
3 302 148 13
3 303 148 302
3 303 66 148
3 155 303 68
3 304 303 155
3 304 66 303
3 304 296 66
3 305 296 304
3 305 3 296
3 305 283 3
3 306 283 305
3 306 61 283
3 157 306 69
3 307 306 157
3 307 61 306
3 307 138 61
3 308 138 307
3 308 10 138
3 233 158 14
3 309 158 233
3 309 70 158
3 160 309 34
3 310 309 160
3 310 70 309
3 310 308 70
3 311 308 310
3 311 10 308
3 311 222 10
3 312 222 311
3 312 27 222
3 162 312 71
3 313 312 162
3 313 27 312
3 313 99 27
3 314 99 313
3 314 1 99
3 315 740 741
3 315 742 744
3 742 59 743
3 742 743 744
3 165 745 747
3 745 315 746
3 745 746 747
3 316 315 165
3 316 59 315
3 316 135 59
3 317 135 316
3 317 9 135
3 238 166 16
3 318 166 238
3 318 73 166
3 168 318 37
3 319 318 168
3 319 73 318
3 319 317 73
3 320 317 319
3 320 9 317
3 320 218 9
3 321 218 320
3 321 24 218
3 170 321 74
3 322 321 170
3 322 24 321
3 322 96 24
3 323 96 322
3 323 0 96
3 324 748 749
3 324 750 752
3 750 5 751
3 750 751 752
3 325 753 754
3 325 755 757
3 755 77 756
3 755 756 757
3 173 325 39
3 326 325 173
3 326 77 325
3 326 758 760
3 760 759 77
3 758 759 760
3 327 761 763
3 763 762 326
3 761 762 763
3 327 764 765
3 327 766 767
3 328 768 770
3 770 769 327
3 768 769 770
3 328 771 773
3 771 76 772
3 771 772 773
3 175 328 78
3 329 328 175
3 329 76 328
3 329 324 76
3 330 324 329
3 330 5 324
3 330 111 5
3 331 111 330
3 331 38 111
3 177 331 79
3 332 331 177
3 332 38 331
3 332 241 38
3 333 241 332
3 333 17 241
3 245 178 18
3 334 178 245
3 334 80 178
3 180 334 41
3 335 334 180
3 335 80 334
3 335 333 80
3 336 333 335
3 336 17 333
3 336 171 17
3 337 171 336
3 337 75 171
3 182 337 81
3 338 337 182
3 338 75 337
3 338 323 75
3 339 323 338
3 339 0 323
3 339 286 0
3 340 286 339
3 340 62 286
3 184 340 82
3 341 340 184
3 341 62 340
3 341 141 62
3 342 141 341
3 342 11 141
3 249 185 19
3 343 185 249
3 343 83 185
3 187 343 43
3 344 343 187
3 344 83 343
3 344 342 83
3 345 342 344
3 345 11 342
3 345 223 11
3 346 223 345
3 346 28 223
3 189 346 84
3 347 346 189
3 347 28 346
3 347 100 28
3 348 100 347
3 348 2 100
3 774 117 775
3 776 775 6
3 774 775 776
3 777 117 778
3 779 44 780
3 781 780 117
3 779 780 781
3 349 782 783
3 349 784 786
3 784 44 785
3 784 785 786
3 349 252 44
3 350 252 349
3 350 20 252
3 787 350 788
3 351 789 791
3 789 350 790
3 789 790 791
3 351 20 350
3 351 190 20
3 352 190 351
3 352 85 190
3 191 792 794
3 792 352 793
3 792 793 794
3 353 352 191
3 353 85 352
3 353 348 85
3 354 348 353
3 354 2 348
3 354 268 2
3 355 268 354
3 355 53 268
3 795 355 796
3 797 796 86
3 795 796 797
3 356 798 800
3 798 355 799
3 798 799 800
3 356 53 355
3 356 127 53
3 801 127 802
3 803 802 356
3 801 802 803
3 805 804 127
3 806 133 807
3 808 133 809
3 810 57 811
3 812 811 133
3 810 811 812
3 192 813 814
3 357 815 817
3 817 816 192
3 815 816 817
3 357 818 820
3 818 57 819
3 818 819 820
3 357 278 57
3 358 278 357
3 358 4 278
3 359 821 822
3 359 823 825
3 823 87 824
3 823 824 825
3 195 826 828
3 826 359 827
3 826 827 828
3 360 359 195
3 360 87 359
3 360 358 87
3 361 358 360
3 361 4 358
3 361 107 4
3 362 107 361
3 362 35 107
3 197 362 88
3 363 362 197
3 363 35 362
3 363 236 35
3 364 236 363
3 364 15 236
3 254 198 21
3 365 198 254
3 365 89 198
3 200 365 46
3 366 365 200
3 366 89 365
3 366 364 89
3 367 364 366
3 367 15 364
3 367 163 15
3 368 163 367
3 368 72 163
3 202 368 90
3 369 368 202
3 369 72 368
3 369 314 72
3 370 314 369
3 370 1 314
3 259 829 830
3 832 831 259
3 205 833 835
3 835 834 49
3 833 834 835
3 837 836 205
3 207 838 839
3 841 840 207
3 371 842 843
3 371 844 845
3 371 846 848
3 846 119 847
3 846 847 848
3 372 119 371
3 372 47 119
3 209 372 92
3 373 372 209
3 373 47 372
3 373 257 47
3 374 257 373
3 374 22 257
3 263 210 23
3 375 210 263
3 375 93 210
3 212 375 51
3 376 375 212
3 376 93 375
3 376 374 93
3 377 374 376
3 377 22 374
3 377 203 22
3 378 203 377
3 378 91 203
3 214 378 94
3 379 378 214
3 379 91 378
3 379 370 91
3 380 370 379
3 380 1 370
3 380 849 851
3 851 850 1
3 849 850 851
3 853 852 380
3 855 854 95
3 857 856 7
3 287 98 0
3 381 98 287
3 381 26 98
3 216 381 63
3 382 381 216
3 382 26 381
3 382 858 860
3 860 859 26
3 858 859 860
3 862 861 382
3 863 217 864
3 865 864 12
3 863 864 865
3 866 217 867
3 869 868 217
3 284 126 3
3 870 126 871
3 872 871 284
3 870 871 872
3 874 873 126
