ply
format ascii 1.0
element vertex 1016
property float x
property float y
property float z
element face 1335
property list uchar int vertex_index
end_header
-28.66691 -40.43227 32.491753
-39.887543 -9.875766 17.442411
-22.949369 -7.076767 -6.347281
-32.272938 -11.64097 3.306092
-35.786701 -43.277035 20.051643
-16.961929 -45.775288 35.702457
-23.703251 -26.826639 37.006119
-35.9617 -26.133116 28.038187
-38.436253 -27.689528 12.107186
-27.498064 -47.885513 30.29166
-32.757977 -42.375534 28.029186
-23.17733 -42.731667 34.121193
-28.428682 -18.077557 35.791538
-17.77718 -29.259663 40.406631
-38.687088 -17.925934 23.372663
-38.888065 -27.122202 20.65299
-39.089279 -19.2829 15.5522
-26.577215 -10.427498 -1.859916
-31.323875 -18.532808 0.788782
-37.724838 -11.030354 9.859914
-37.121796 -42.093597 10.197
-26.020565 -34.168747 34.553848
-32.090153 -34.016129 31.186029
-30.143667 -25.636759 33.421429
-34.568386 -17.171589 30.226391
-37.65041 -8.905974 25.392206
-19.727766 -36.093372 36.652546
-36.693016 -35.222507 24.837915
-38.52737 -35.706154 16.404354
-38.312817 -34.029602 6.911961
-35.84803 -19.806217 7.61036
-35.924957 -26.096584 3.682746
-28.20936 -43.878731 31.664782
-30.291883 -45.397324 29.220285
-30.707226 -41.432194 30.731134
-26.182564 -41.504459 33.336746
-25.23004 -45.711269 32.558182
-39.469349 -13.722162 20.557068
-39.403805 -18.560732 19.41765
-39.522457 -14.608348 16.496391
-24.386044 -8.930233 -4.160193
-26.773281 -13.144411 -3.152482
-33.551647 -46.972687 21.595568
-34.610695 -46.72879 16.894213
-35.289314 -46.100449 11.973898
-36.586639 -43.036373 15.150571
-24.78944 -30.365482 35.645882
-28.037134 -30.010967 34.150043
-26.96003 -26.02586 35.305977
-31.572929 -17.354996 33.193035
-33.611897 -13.209986 31.295082
-36.243324 -12.852661 28.019257
-20.678295 -27.86512 38.639439
-18.500219 -32.657623 38.317638
-21.454647 -31.402658 37.00238
-22.835339 -35.064312 35.616741
-34.111988 -30.241373 29.79229
-34.692616 -34.605007 28.39769
-36.447426 -30.660276 26.655968
-39.033596 -27.726284 16.483807
-38.794327 -31.710592 18.778147
-38.859272 -31.604057 14.350604
-38.612087 -35.074757 11.718349
-38.361786 -31.118519 9.846937
-35.261257 -11.593972 6.446991
-36.566586 -15.621774 8.857738
-34.111698 -15.771411 5.478236
-32.194401 -20.815424 -1.008101
-33.79435 -22.282486 2.2928
-32.107094 -46.42466 25.912924
-34.482925 -43.067539 24.457907
-20.038641 -44.424889 34.817749
-22.141607 -47.530899 33.289116
-22.889263 -23.427874 38.7104
-26.140039 -22.289799 36.6315
-37.534077 -22.070984 25.833212
-37.864346 -26.530298 24.575151
-38.844193 -22.633142 22.173441
-39.218647 -23.187757 18.161631
-38.668499 -23.611755 13.996209
-29.304708 -11.236243 0.609689
-31.386702 -15.47874 2.30196
-28.784342 -14.43709 -0.559285
-29.362547 -16.929815 -2.170329
-22.523855 -4.445214 -5.145306
-40.068359 -5.603367 14.570599
-39.317024 -10.597344 13.572127
-38.966648 -6.366356 10.667436
-36.876942 -6.859761 7.153438
-33.943001 -7.118064 3.938694
-30.768002 -7.160968 1.305387
-27.562456 -6.753108 -1.050967
-24.647291 -5.649778 -3.235133
-33.840145 -48.696014 8.406509
-35.938046 -44.779533 6.672934
-37.525028 -40.539471 5.181339
-27.495718 -37.57476 33.50983
-30.182961 -37.583218 32.08012
-29.22224 -33.951698 33.104973
-31.221188 -29.853634 32.279186
-33.341839 -25.722837 30.962534
-29.382341 -21.723751 34.455044
-32.525536 -21.384548 32.033207
-35.329678 -21.521862 29.179651
-37.020378 -17.393944 26.95224
-38.327488 -13.280492 24.375765
-39.296646 -9.174217 21.479223
-15.321208 -42.306442 37.309299
-15.677458 -34.001717 39.956829
-16.836489 -37.384098 37.80555
-18.198572 -40.980877 36.213779
-21.306719 -39.606831 35.335072
-24.446066 -38.443264 34.503426
-32.690239 -38.19949 29.835768
-34.890442 -38.908554 26.624008
-36.413857 -39.539013 22.797838
-38.058491 -31.188473 22.824379
-37.967056 -35.534634 20.753374
-37.494442 -39.451233 18.311321
-37.965866 -39.217937 13.488289
-38.148464 -38.227379 8.658536
-38.503643 -15.289291 12.627016
-37.837139 -19.796106 11.522815
-37.399246 -23.690491 9.939051
-33.564194 -19.393545 4.071786
-35.640377 -23.294975 5.93857
-37.295902 -27.15019 7.829859
-37.572598 -30.13863 5.42334
-28.512203 -41.965977 32.153328
-29.551363 -42.691601 31.206131
-29.550619 -40.884499 31.817438
-27.623661 -40.877384 32.890831
-27.261431 -42.697975 32.576801
-23.67292 -8.177349 -7.142745
-22.461229 -5.975803 -7.444369
-39.718502 -11.837421 19.031565
-39.637115 -14.215826 18.606501
-39.730106 -12.209197 16.986084
-23.564173 -8.003903 -5.246374
-24.712479 -10.161271 -4.82541
-24.135893 -9.259463 -5.964876
-34.753021 -45.046638 20.928299
-34.173851 -46.818802 19.351665
-35.265038 -45.003941 18.606007
-35.638165 -44.931793 16.085316
-36.244583 -43.209984 17.636999
-15.449823 -46.550545 36.204365
-16.434183 -48.188068 35.372478
-24.174692 -28.545729 36.314358
-25.842766 -28.275259 35.50996
-25.236889 -26.457272 36.205227
-34.421471 -10.973768 30.275822
-22.218273 -27.259981 37.798923
-21.124102 -29.539433 37.734768
-22.638382 -29.07135 37.003017
-23.182064 -30.850504 36.293194
-35.010761 -28.216078 29.0287
-35.34708 -30.422169 28.32653
-36.233891 -28.438181 27.369995
-38.810333 -27.611383 14.270337
-38.94865 -29.659445 15.461941
-38.737331 -29.554924 13.292209
-38.672501 -31.493637 12.127586
-38.381756 -29.494892 11.019722
-33.826714 -11.80646 4.871937
-34.537464 -13.718301 5.903963
-33.062881 -13.764697 4.250332
-31.536337 -43.92926 28.693848
-31.307096 -45.878563 27.65309
-32.557396 -44.376144 26.975971
-33.340916 -44.921761 25.066978
-33.727291 -42.717842 26.29192
-21.632652 -43.611324 34.446133
-20.992117 -46.030678 34.120323
-22.640551 -45.209213 33.729767
-26.411894 -46.923309 31.492367
-24.835108 -47.893116 31.958988
-21.352348 -24.015118 39.776573
-38.140842 -19.951672 24.687527
-38.308403 -22.235041 24.050444
-38.79776 -20.291265 22.749598
-39.35944 -19.052141 17.500528
-39.309227 -21.020544 18.939812
-39.209419 -21.198494 16.887642
-39.04834 -23.56502 16.091923
-38.856182 -21.53237 14.804499
-27.860304 -10.773549 -0.663524
-28.959278 -12.931924 0.128313
-27.687988 -12.417455 -1.140467
-28.058788 -15.075071 -2.64191
-39.651741 -6.033584 12.552891
-35.469521 -7.07209 5.487972
-34.975491 -4.937387 4.260038
-31.104406 -2.539201 0.365637
-31.732555 -4.816129 1.452769
-30.073832 -4.869194 0.297282
-29.174408 -6.986909 0.11387
-28.479738 -4.585266 -0.806648
-25.286106 -3.876714 -2.918326
-23.879866 -3.153177 -3.921026
-23.513973 -5.140196 -4.1873
-32.6726 -50.590252 9.067323
-33.463322 -49.304409 11.005792
-36.270885 -44.147865 11.002405
-35.627369 -45.496559 9.313959
-36.512039 -43.59866 8.536114
-36.80994 -42.733025 5.954223
-37.292652 -41.511436 7.635438
-26.75721 -36.038414 34.016193
-28.332888 -35.853252 33.34985
-27.614107 -34.06012 33.891571
-29.110815 -27.895746 33.808681
-29.663582 -29.919924 33.270191
-30.667704 -27.752348 32.854675
-32.229877 -27.857357 31.71796
-31.761898 -25.726101 32.26828
-27.31237 -20.205288 36.25964
-27.784445 -21.946716 35.548939
-28.962578 -19.762041 35.073429
-33.113293 -17.069723 31.76046
-32.022503 -19.268055 32.642525
-33.522507 -19.216194 31.252176
-33.96682 -21.260942 30.69396
-35.010826 -19.320288 29.659266
-36.232296 -19.529894 28.097467
-35.916359 -17.240068 28.580067
-37.062805 -10.979344 26.626848
-37.384838 -13.214697 26.240795
-38.02216 -11.087657 24.898745
-38.85907 -11.292706 22.937923
-38.567795 -9.088853 23.520342
-16.629045 -31.64827 40.236286
-19.100258 -34.217297 37.451351
-17.552731 -34.916183 38.148136
-18.252516 -36.656387 37.219662
-17.383148 -39.241764 36.990528
-18.911438 -38.548588 36.444855
-19.739916 -40.225376 35.765953
-20.494455 -37.785439 35.971275
-24.4846 -34.424358 35.107681
-23.610178 -36.724182 35.060337
-25.164507 -36.304935 34.58215
-26.000889 -38.008812 34.032017
-31.149107 -35.887165 31.659674
-31.494761 -37.887096 31.036245
-32.451077 -36.114876 30.545197
-35.778927 -34.919861 26.710941
-34.840565 -36.803482 27.577749
-35.861469 -37.064003 25.74671
-35.790569 -39.068115 24.778715
-36.652409 -37.400921 23.788774
-38.480988 -27.037663 22.649084
-37.94487 -29.035078 23.840443
-38.526859 -29.260691 21.768925
-38.70549 -33.769276 17.503698
-38.464905 -33.507599 19.820192
-38.337036 -35.544151 18.654757
-37.761372 -37.560452 19.675318
-38.090542 -37.556763 17.475328
-37.771633 -39.441525 15.943411
-38.293022 -37.481583 15.08565
-38.484467 -34.753174 9.23592
-38.413391 -36.756435 10.296845
-38.358009 -36.120754 7.743586
-38.178322 -37.406017 6.110194
-38.264214 -35.333164 5.276776
-38.641602 -10.721183 11.644296
-38.882057 -13.008667 13.056209
-38.102535 -13.186568 11.181181
-36.153458 -17.845276 8.291886
-37.217979 -17.757687 10.149066
-36.908157 -19.880304 9.522492
-37.534077 -21.865908 10.667974
-36.655296 -21.841465 8.699372
-31.259195 -17.146523 1.614359
-32.410866 -17.416765 3.106375
-32.411606 -18.944067 2.444937
-34.975918 -24.26828 3.064724
-34.712738 -22.859249 4.077953
-35.771843 -24.813768 4.989667
-36.546833 -25.30401 6.851077
-36.601818 -26.6647 5.705684
-37.390049 -28.694649 6.620368
-36.843327 -28.0599 4.630004
-27.931589 -45.814461 31.02319
-29.018129 -46.645287 29.724621
-29.307438 -44.638161 30.549328
-30.535831 -43.444454 30.03973
-31.688835 -42.029385 29.524349
-24.681227 -42.152477 33.737423
-24.138798 -44.408466 33.388691
-25.726215 -43.60017 32.989567
-26.746969 -44.800026 32.143242
-39.141983 -15.910425 21.919804
-39.180862 -18.140242 21.420494
-39.463734 -16.183969 19.972607
-39.514156 -16.617331 18.027859
-39.313419 -17.033855 16.140057
-25.398506 -9.768581 -3.036196
-26.515675 -11.848907 -2.438535
-25.551357 -11.118936 -3.642823
-25.981339 -12.239854 -4.398224
-32.923763 -48.687984 20.127474
-33.453213 -48.494339 17.914227
-33.808044 -48.401329 15.350636
-34.22308 -47.960693 12.854019
-34.964962 -46.495682 14.499435
-35.987003 -44.594765 13.587056
-36.847095 -42.723145 12.678541
-25.36574 -32.241386 35.086811
-27.06559 -32.144924 34.363865
-26.419554 -30.169327 34.921722
-27.561657 -27.86573 34.679165
-28.628397 -25.84354 34.354801
-29.999153 -17.607767 34.54184
-31.026865 -15.45569 33.836529
-32.567375 -15.22015 32.367931
-34.169044 -15.088203 30.692123
-35.506401 -15.01609 29.102032
-34.969368 -12.910287 29.710611
-35.768806 -10.885946 28.543406
-36.580315 -8.929661 27.174936
-19.17647 -28.631763 39.474689
-18.014954 -31.062222 39.31337
-19.545218 -30.296425 38.489536
-20.016268 -31.944496 37.623322
-20.62635 -33.796261 36.795315
-21.304905 -35.442501 36.132767
-22.2267 -33.062382 36.248302
-23.777397 -32.734161 35.661491
-33.14333 -32.20948 30.499617
-33.437035 -34.321434 29.906834
-34.430595 -32.403721 29.144529
-35.61599 -32.623672 27.558664
-36.57827 -33.064228 25.841284
-39.066467 -27.432222 18.478931
-38.871777 -29.433189 19.659883
-38.989391 -29.787264 17.620953
-38.907505 -31.771839 16.578114
-38.801495 -33.591404 15.32487
-38.64061 -35.377132 14.138489
-38.756294 -33.379597 13.151299
-38.589291 -33.173965 10.766335
-38.357819 -32.726086 8.554228
-36.551285 -11.358864 8.077324
-37.090702 -13.385955 9.361156
-35.813534 -13.70689 7.515121
-35.325741 -15.840899 7.049081
-34.9263 -17.827847 6.441706
-31.564133 -19.629971 -0.150628
-32.530987 -20.305357 1.537039
-32.906647 -21.536171 0.607506
-34.22113 -23.560587 1.29631
-35.315269 -25.455965 1.793755
-36.30838 -27.402769 2.468199
-30.001656 -47.347626 28.213957
-30.792917 -47.973888 26.582865
-31.658291 -48.338352 24.566601
-32.881954 -46.809315 23.819277
-34.057716 -45.097519 23.131559
-35.190575 -43.269474 22.313223
-18.517654 -45.005085 35.248569
-17.882172 -47.51997 34.935513
-19.448923 -46.861607 34.48801
-20.555708 -48.316616 33.694904
-23.751066 -46.606728 32.912914
-23.2271 -48.916718 32.366318
-23.373695 -25.063038 37.753098
-24.852997 -24.534454 36.915642
-24.443371 -22.805788 37.720558
-25.638815 -20.633341 37.459507
-17.372812 -27.671616 41.748249
-18.763052 -27.009924 40.679867
-20.248966 -26.188465 39.719643
-21.772161 -25.659433 38.704422
-36.817551 -23.971249 26.954861
-36.948658 -26.406559 26.478876
-37.720352 -24.333048 25.226372
-38.409298 -24.726877 23.396025
-38.876781 -24.81563 21.510685
-39.187435 -20.566414 20.809017
-39.155468 -22.962925 20.183773
-39.117088 -25.107819 19.48085
-39.121532 -25.490145 17.340338
-38.906857 -25.669554 15.152436
-38.501541 -25.622202 13.015118
-30.754431 -11.493968 1.89565
-31.758404 -13.63683 2.888806
-30.348524 -13.492285 1.471506
-30.04224 -15.079229 0.813171
-30.08293 -16.512751 0.17903
-27.713703 -13.847642 -1.844419
-28.992355 -15.869181 -1.288948
-30.234711 -17.725197 -0.761309
-30.763941 -18.851509 -1.605537
-22.55933 -5.830946 -5.68811
-21.896975 -4.791251 -6.665595
-21.626213 -3.407423 -6.155072
-39.998508 -7.728629 15.984201
-39.747852 -10.168484 15.470473
-39.732769 -8.010128 14.031563
-39.156513 -8.434867 12.098418
-38.313 -8.690154 10.186785
-38.021519 -6.464181 8.781143
-37.31469 -8.964628 8.52673
-35.96888 -9.220326 6.730783
-34.539333 -9.502354 5.163629
-33.105808 -9.551111 3.754355
-33.341656 -4.812899 2.720491
-32.407982 -7.230106 2.615881
-31.554363 -9.447032 2.363051
-29.88961 -9.218182 0.975712
-28.326319 -9.003892 -0.269947
-26.821987 -8.642361 -1.478315
-26.839289 -4.189847 -1.903986
-26.032995 -6.19749 -2.179746
-25.547182 -8.127142 -2.550659
-24.383558 -7.478839 -3.612376
-23.349073 -6.641452 -4.671977
-33.11657 -49.853909 6.504859
-34.274841 -47.872784 5.695596
-34.593689 -47.415291 10.276077
-34.949623 -46.741035 7.597623
-35.307674 -45.938255 4.935729
-28.169903 -39.200916 32.969662
-29.382029 -39.189522 32.319241
-28.8575 -37.564793 32.86956
-29.781456 -35.768562 32.582504
-30.693499 -33.868919 32.232376
-28.634464 -32.000896 33.62368
-30.194443 -31.893974 32.753441
-31.691046 -31.904329 31.743084
-32.803215 -29.968494 31.053144
-33.746616 -27.867846 30.404148
-34.757381 -25.83016 29.546099
-26.5033 -24.218689 35.934391
-28.146803 -23.90037 34.950565
-29.768038 -23.619913 33.916912
-30.468786 -19.505219 33.922337
-31.012962 -21.395304 33.275642
-31.415123 -23.504135 32.743565
-32.96217 -23.562462 31.473465
-34.35857 -23.44669 30.151482
-35.617489 -23.898157 28.677389
-36.521732 -21.721981 27.575733
-37.325432 -19.682699 26.3699
-38.00322 -17.641809 25.115156
-36.651661 -15.079846 27.516552
-37.706184 -15.333272 25.731506
-38.5467 -15.458604 23.86264
-39.01186 -13.617016 22.522699
-39.411591 -11.579511 21.058716
-39.745064 -9.537573 19.430042
-39.665997 -7.10958 19.97345
-39.98822 -7.414794 17.851547
-16.042904 -44.175747 36.471836
-17.039925 -33.228123 39.148796
-16.230978 -35.565605 38.835293
-15.423029 -38.035671 38.530487
-15.959911 -39.678596 37.657246
-16.721684 -41.537746 36.758842
-17.548172 -43.292835 35.993454
-19.144258 -42.618996 35.507027
-20.677168 -42.007469 35.090698
-22.165131 -41.186016 34.759903
-21.935019 -37.329586 35.535351
-22.883675 -38.89986 34.939964
-23.722992 -40.526821 34.380932
-25.277214 -39.965786 33.967037
-26.802185 -39.483566 33.498814
-30.574135 -39.51527 31.416849
-31.763634 -39.974598 30.245968
-32.874542 -40.253483 28.927032
-33.692806 -36.409054 29.199005
-33.852825 -38.48991 28.369801
-33.83519 -40.678631 27.419706
-34.778965 -40.954025 25.613325
-35.520947 -41.271748 23.662544
-36.143528 -41.502403 21.502798
-37.24128 -28.543011 25.601276
-37.308609 -30.953743 24.914085
-37.420135 -33.089157 23.956648
-38.525227 -31.410936 20.838598
-38.039783 -33.31868 21.942509
-37.410004 -35.347927 22.920059
-37.276829 -37.456566 21.859495
-37.020397 -39.547985 20.63674
-36.665131 -41.47554 19.282349
-37.057003 -41.382206 16.926514
-37.351116 -41.141319 14.503412
-37.565105 -40.748569 12.034211
-38.40387 -37.147011 12.740726
-38.11195 -38.684471 11.064146
-37.712578 -40.24707 9.489106
-37.86277 -39.407684 6.936963
-37.939056 -38.648987 4.414774
-39.441463 -12.649778 15.002096
-39.124599 -15.109071 14.545974
-38.833981 -17.368103 14.075858
-37.648308 -15.616595 10.76101
-38.122288 -17.571466 12.066286
-38.562859 -19.613943 13.510547
-38.26804 -21.847353 12.656407
-38.109238 -23.834982 11.932865
-37.966583 -25.831114 10.919712
-32.769588 -15.81768 3.863409
-33.688171 -17.626854 4.758682
-34.727791 -19.613762 5.824079
-33.551556 -20.864407 3.218842
-34.67329 -21.300322 5.086529
-35.734314 -21.6884 6.912224
-36.571487 -23.653303 7.89894
-37.255192 -25.428211 8.843122
-37.920906 -27.462191 10.000051
-37.89732 -29.053318 8.775524
-37.989586 -30.671623 7.689392
-38.06023 -32.06292 6.3248
-37.097389 -29.279148 3.185118
-37.72694 -31.310951 3.966157
-38.113922 -33.314796 4.616249
-28.044836 -48.295153 29.542875
-27.265812 -48.937393 29.849701
-26.684594 -48.517021 30.5409
-26.141509 -48.035919 31.141254
-26.954979 -47.404411 30.892014
-27.265812 -48.937393 29.849701
-26.684594 -48.517021 30.5409
-35.547512 -3.658735 4.395293
-35.750275 -4.773147 5.061167
-30.280835 -2.389966 -0.196661
-30.948832 -1.286683 -0.108633
-29.765548 -3.554963 -0.230839
-30.589119 -3.704198 0.33146
-30.280835 -2.389966 -0.196661
-28.968501 -3.412999 -0.782803
-29.276785 -4.72723 -0.254683
-29.765548 -3.554963 -0.230839
-23.561587 -1.953354 -4.245664
-24.264929 -2.146606 -3.80664
-23.268411 -2.87423 -4.391349
-23.561587 -1.953354 -4.245664
-33.282887 -49.526245 12.289499
-32.8729 -50.217706 11.413949
-17.203113 -30.453966 40.321458
-16.467495 -30.86674 40.837315
-17.041562 -29.672436 40.922487
-25.668326 -11.730419 -5.024735
-25.346909 -11.200563 -4.611817
-25.033895 -10.691128 -5.238328
-26.32828 -12.691309 -4.859327
-25.668326 -11.730419 -5.024735
-33.237705 -47.830336 20.861521
-32.599651 -48.709711 21.255373
-32.913593 -47.852063 21.98942
-30.784223 -14.538774 34.137964
-30.272098 -15.648736 34.511202
-33.089636 -14.215068 31.831506
-32.342228 -14.226907 32.623655
-32.864489 -13.221826 32.087231
-35.511043 -9.848105 28.791137
-35.095138 -10.929857 29.409614
-34.837376 -9.892016 29.657345
-35.916798 -8.869962 28.106902
-36.17456 -9.907803 27.859171
-35.511043 -9.848105 28.791137
-34.406416 -23.981664 0.659002
-33.827648 -23.078973 0.373081
-34.953485 -24.929353 0.907725
-34.7682 -24.508276 1.545033
-34.406416 -23.981664 0.659002
-35.527226 -25.943494 1.181503
-34.953485 -24.929353 0.907725
-21.878542 -48.688883 33.034699
-21.085592 -49.081742 33.237593
-21.348658 -47.923758 33.49201
-23.781042 -49.582676 31.79323
-24.031104 -48.404917 32.162653
-24.585046 -49.070875 31.589565
-22.983441 -50.066325 32.032682
-23.781042 -49.582676 31.79323
-25.444288 -19.766857 37.887333
-24.850086 -20.912578 38.019785
-26.241059 -19.520474 37.259012
-25.444288 -19.766857 37.887333
-17.180754 -26.930698 42.462385
-16.684894 -28.100254 42.274504
-19.276618 -25.927072 40.764597
-18.587919 -26.214756 41.334339
-20.019575 -25.516342 40.284485
-19.506009 -26.599195 40.199755
-19.276618 -25.927072 40.764597
-37.44923 -6.661971 7.967291
-37.864439 -5.423708 8.093424
-37.29215 -5.621498 7.279572
-33.119074 -3.618615 2.16342
-33.93535 -3.703509 2.87062
-26.467763 -2.932538 -2.35016
-27.322769 -3.088458 -1.842952
-36.117706 -44.295879 5.374305
-35.80252 -44.87524 4.505702
-35.62286 -45.358894 5.804331
-37.305975 -41.151359 4.317316
-36.948431 -42.248137 4.703758
-37.167484 -41.636248 5.567781
-37.60109 -40.097753 3.914557
-37.305975 -41.151359 4.317316
-17.649021 -48.751251 34.722577
-18.435446 -48.297003 34.523211
-39.816719 -6.067167 19.210306
-39.572401 -5.956258 20.248022
-39.977831 -6.219774 18.149354
-39.827108 -7.262187 18.912498
-39.816719 -6.067167 19.210306
-40.07757 -6.320764 17.116089
-39.977831 -6.219774 18.149354
-14.980532 -43.576639 37.17226
-14.648012 -42.637724 37.634735
-15.682056 -43.241095 36.890568
-15.34138 -44.511291 36.753529
-14.980532 -43.576639 37.17226
-15.045932 -34.326639 40.413059
-15.46887 -33.197962 40.583717
-15.262126 -35.184399 39.797621
-15.045932 -34.326639 40.413059
-21.644373 -4.250343 -7.212969
-21.425381 -3.603252 -6.910311
-38.055563 -37.597658 4.026661
-38.058689 -38.027502 5.262484
-38.175196 -36.976173 4.874371
-37.988205 -38.138233 3.195591
-38.055563 -37.597658 4.026661
-36.892227 -28.854501 2.14815
-36.702884 -28.340958 2.826658
-36.497722 -27.916311 1.789691
-37.80858 -31.837437 3.12098
-37.558407 -30.836507 2.836985
-38.002071 -32.839359 3.446026
-37.920431 -32.312874 4.291203
-37.80858 -31.837437 3.12098
-38.135674 -33.865901 3.772284
-38.002071 -32.839359 3.446026
-23.501469 -7.563353 -7.761802
-24.118426 -8.505107 -7.687403
-22.895624 -6.46258 -7.912614
-23.501469 -7.563353 -7.761802
-23.067075 -7.076576 -7.293557
-22.314351 -5.413024 -8.049909
-22.748746 -5.899802 -8.518154
-22.895624 -6.46258 -7.912614
-24.745603 -10.240224 -5.808061
-25.033895 -10.691128 -5.238328
-24.424186 -9.710367 -5.395143
-24.50976 -9.686833 -6.411802
-24.745603 -10.240224 -5.808061
-24.278274 -9.145776 -7.000737
-24.50976 -9.686833 -6.411802
-23.904407 -8.718406 -6.55381
-24.118426 -8.505107 -7.687403
-24.278274 -9.145776 -7.000737
-15.216062 -47.788931 36.012558
-14.741441 -46.992901 36.456372
-15.708242 -48.607692 35.596615
-15.216062 -47.788931 36.012558
-15.942003 -47.369307 35.788421
-16.186774 -49.477684 35.150909
-15.708242 -48.607692 35.596615
-33.308114 -12.160557 31.608251
-32.864489 -13.221826 32.087231
-33.712901 -11.042448 31.098621
-34.016684 -12.091877 30.785452
-33.308114 -12.160557 31.608251
-34.14995 -10.011612 30.53327
-33.712901 -11.042448 31.098621
-34.837376 -9.892016 29.657345
-34.14995 -10.011612 30.53327
-32.814284 -21.706392 -0.779124
-32.481148 -21.195362 -1.613955
-25.353116 -48.520823 31.374564
-25.623501 -47.408213 31.725678
-26.141509 -48.035919 31.141254
-24.585046 -49.070875 31.589565
-25.353116 -48.520823 31.374564
-23.47531 -22.309844 38.645232
-22.702779 -22.624165 39.20945
-21.179578 -23.259479 40.318996
-20.571266 -24.429668 40.31295
-21.934322 -22.917787 39.742536
-21.179578 -23.259479 40.318996
-22.702779 -22.624165 39.20945
-22.120805 -23.721496 39.243487
-21.934322 -22.917787 39.742536
-27.676839 -14.628419 -3.318073
-27.416035 -14.109741 -2.897196
-27.034085 -13.663089 -3.573359
-28.332187 -15.532739 -3.110092
-27.676839 -14.628419 -3.318073
-28.984067 -16.460112 -2.874302
-28.710667 -16.002443 -2.406119
-28.332187 -15.532739 -3.110092
-29.694806 -17.413351 -2.606687
-28.984067 -16.460112 -2.874302
-22.085026 -3.097647 -5.45718
-22.590406 -3.520249 -5.003489
-39.853822 -4.794841 12.725846
-39.86005 -5.818475 13.561745
-40.062131 -4.579732 13.7347
-39.611815 -4.941296 11.823391
-39.853822 -4.794841 12.725846
-39.269268 -5.107682 10.880664
-39.309195 -6.19997 11.610164
-39.611815 -4.941296 11.823391
-36.701 -5.734334 6.507867
-37.29215 -5.621498 7.279572
-35.99729 -5.840499 5.675134
-36.173231 -6.965925 6.320705
-36.701 -5.734334 6.507867
-35.222506 -6.004739 4.874005
-35.99729 -5.840499 5.675134
-35.750275 -4.773147 5.061167
-31.814009 -1.328899 0.467236
-30.948832 -1.286683 -0.108633
-32.000449 -2.481766 0.985993
-31.814009 -1.328899 0.467236
-31.418481 -3.677665 0.909203
-32.314523 -3.62023 1.529559
-32.000449 -2.481766 0.985993
-24.968049 -2.508375 -3.30529
-25.691171 -2.775971 -2.85733
-24.582986 -3.514946 -3.419676
-24.968049 -2.508375 -3.30529
-24.264929 -2.146606 -3.80664
-23.085465 -3.86774 -4.524487
-23.696919 -4.146687 -4.054163
-23.268411 -2.87423 -4.391349
-22.590406 -3.520249 -5.003489
-23.018914 -4.792705 -4.666303
-23.085465 -3.86774 -4.524487
-32.477539 -50.860628 10.444714
-32.049125 -51.541251 9.607335
-33.067961 -49.94733 10.036558
-32.477539 -50.860628 10.444714
-32.8729 -50.217706 11.413949
-14.960885 -41.449984 37.787374
-14.648012 -42.637724 37.634735
-15.944664 -32.021239 40.723446
-16.467495 -30.86674 40.837315
-16.153251 -32.824993 40.096558
-15.46887 -33.197962 40.583717
-15.944664 -32.021239 40.723446
-38.218142 -35.939746 4.457662
-38.175196 -36.976173 4.874371
-38.221268 -36.369591 5.693485
-26.638114 -13.210811 -4.19623
-27.034085 -13.663089 -3.573359
-26.37731 -12.692132 -3.775353
-26.638114 -13.210811 -4.19623
-26.32828 -12.691309 -4.859327
-32.287971 -49.540275 20.525429
-32.599651 -48.709711 21.255373
-32.534515 -49.549388 19.351826
-32.287971 -49.540275 20.525429
-32.79924 -49.452566 18.245202
-32.534515 -49.549388 19.351826
-33.188488 -48.591161 19.020851
-33.044506 -49.328956 17.03266
-32.79924 -49.452566 18.245202
-33.221922 -49.282451 15.750865
-33.044506 -49.328956 17.03266
-33.630629 -48.447834 16.632431
-33.455247 -49.074705 14.46192
-33.221922 -49.282451 15.750865
-34.015562 -48.181011 14.102327
-33.662766 -48.854387 13.213612
-33.455247 -49.074705 14.46192
-29.758242 -16.724774 34.863858
-29.213918 -17.842662 35.166689
-28.973006 -16.95967 35.488707
-30.513009 -16.531728 34.189184
-29.758242 -16.724774 34.863858
-30.272098 -15.648736 34.511202
-31.571973 -14.344677 33.357954
-30.784223 -14.538774 34.137964
-31.79712 -15.33792 33.10223
-31.571973 -14.344677 33.357954
-32.342228 -14.226907 32.623655
-33.170406 -22.066765 0.028679
-32.550524 -21.175798 -0.200297
-32.814284 -21.706392 -0.779124
-33.563889 -22.548379 0.951908
-33.170406 -22.066765 0.028679
-33.827648 -23.078973 0.373081
-36.023781 -26.916896 1.518724
-35.811825 -26.429367 2.130977
-35.527226 -25.943494 1.181503
-36.497722 -27.916311 1.789691
-36.023781 -26.916896 1.518724
-28.804868 -47.675039 29.259355
-28.044836 -48.295153 29.542875
-28.258097 -47.2654 30.00814
-29.296632 -48.026209 28.504024
-28.804868 -47.675039 29.259355
-29.509892 -46.996457 28.969289
-29.711165 -48.429195 27.672752
-29.296632 -48.026209 28.504024
-30.106795 -48.742327 26.857205
-29.711165 -48.429195 27.672752
-30.397286 -47.660757 27.398411
-30.544965 -48.96295 25.90856
-30.106795 -48.742327 26.857205
-30.977652 -49.145181 24.900428
-30.544965 -48.96295 25.90856
-31.225604 -48.15612 25.574733
-31.311611 -49.352914 23.852003
-30.977652 -49.145181 24.900428
-31.966915 -48.534895 23.474936
-31.311611 -49.352914 23.852003
-32.578747 -47.770376 23.101275
-31.966915 -48.534895 23.474936
-32.270122 -47.573833 24.192939
-33.216801 -46.891001 22.707422
-32.913593 -47.852063 21.98942
-32.578747 -47.770376 23.101275
-19.218822 -47.967821 34.299459
-18.435446 -48.297003 34.523211
-18.665548 -47.190788 34.711762
-19.772214 -48.695326 33.902907
-19.218822 -47.967821 34.299459
-20.002316 -47.589112 34.091457
-20.340387 -49.472594 33.437857
-19.772214 -48.695326 33.902907
-20.340387 -49.472594 33.437857
-21.085592 -49.081742 33.237593
-22.421288 -49.381793 32.5733
-21.878542 -48.688883 33.034699
-22.684354 -48.223809 32.827717
-22.421288 -49.381793 32.5733
-22.983441 -50.066325 32.032682
-24.252364 -21.998801 38.150311
-23.666317 -23.116831 38.215479
-23.47531 -22.309844 38.645232
-25.041093 -21.719565 37.590032
-24.252364 -21.998801 38.150311
-24.850086 -20.912578 38.019785
-27.077836 -19.306447 36.659078
-26.475593 -20.419314 36.859573
-26.241059 -19.520474 37.259012
-27.635992 -18.242582 36.425027
-27.870526 -19.141422 36.025589
-27.077836 -19.306447 36.659078
-28.210547 -17.112092 36.159662
-27.635992 -18.242582 36.425027
-28.973006 -16.95967 35.488707
-28.210547 -17.112092 36.159662
-16.839378 -28.878412 41.593296
-16.684894 -28.100254 42.274504
-17.574996 -28.46564 41.07744
-17.041562 -29.672436 40.922487
-16.839378 -28.878412 41.593296
-17.892798 -26.545602 41.86853
-17.180754 -26.930698 42.462385
-18.067932 -27.34077 41.214058
-17.892798 -26.545602 41.86853
-18.587919 -26.214756 41.334339
-20.800657 -25.101792 39.748108
-20.019575 -25.516342 40.284485
-20.571266 -24.429668 40.31295
-30.395503 -18.374198 -2.324291
-30.063244 -17.890662 -1.887933
-29.694806 -17.413351 -2.606687
-31.087073 -19.283691 -2.12957
-30.395503 -18.374198 -2.324291
-31.802304 -20.265649 -1.830852
-31.479171 -19.833467 -1.306819
-31.087073 -19.283691 -2.12957
-32.481148 -21.195362 -1.613955
-31.802304 -20.265649 -1.830852
-21.29 -2.911338 -6.655049
-21.425381 -3.603252 -6.910311
-21.761594 -4.099337 -6.410334
-21.636204 -2.578752 -5.962063
-22.075034 -3.926318 -5.650189
-22.085026 -3.097647 -5.45718
-21.20917 -2.152095 -6.43051
-21.636204 -2.578752 -5.962063
-21.29 -2.911338 -6.655049
-21.20917 -2.152095 -6.43051
-38.863325 -5.268061 9.933644
-39.269268 -5.107682 10.880664
-38.39076 -5.316973 8.990497
-37.864439 -5.423708 8.093424
-38.494084 -6.415268 9.72429
-38.863325 -5.268061 9.933644
-38.39076 -5.316973 8.990497
-34.752268 -3.765753 3.640394
-35.547512 -3.658735 4.395293
-34.158574 -4.875143 3.490264
-34.752268 -3.765753 3.640394
-33.93535 -3.703509 2.87062
-32.537106 -4.814514 2.08663
-33.119074 -3.618615 2.16342
-32.314523 -3.62023 1.529559
-28.142994 -3.286167 -1.294284
-28.968501 -3.412999 -0.782803
-27.659514 -4.387557 -1.355317
-28.142994 -3.286167 -1.294284
-27.322769 -3.088458 -1.842952
-26.062697 -4.033281 -2.411156
-26.467763 -2.932538 -2.35016
-25.691171 -2.775971 -2.85733
-32.309122 -51.158901 8.271131
-32.049125 -51.541251 9.607335
-32.531107 -50.79073 6.989899
-32.309122 -51.158901 8.271131
-32.894585 -50.222081 7.786091
-32.758648 -50.414633 5.641174
-32.531107 -50.79073 6.989899
-33.389332 -49.35562 5.204927
-32.758648 -50.414633 5.641174
-33.968468 -48.365057 4.800295
-33.389332 -49.35562 5.204927
-33.695706 -48.863347 6.100227
-34.500013 -47.399216 4.384003
-33.968468 -48.365057 4.800295
-33.843201 -48.632551 11.929906
-33.282887 -49.526245 12.289499
-33.662766 -48.854387 13.213612
-35.01643 -46.431951 4.004069
-34.500013 -47.399216 4.384003
-34.791258 -46.905519 5.315663
-35.512096 -45.440189 3.713334
-35.01643 -46.431951 4.004069
-35.512096 -45.440189 3.713334
-35.80252 -44.87524 4.505702
-36.553653 -43.272625 5.01495
-36.117706 -44.295879 5.374305
-36.373993 -43.756279 6.313579
-36.553653 -43.272625 5.01495
-36.948431 -42.248137 4.703758
-16.925027 -49.085301 34.941059
-17.158178 -47.854019 35.153996
-17.649021 -48.751251 34.722577
-16.186774 -49.477684 35.150909
-16.925027 -49.085301 34.941059
-36.265045 -7.889531 27.503816
-35.916798 -8.869962 28.106902
-36.896812 -7.886689 26.525185
-36.265045 -7.889531 27.503816
-37.43186 -7.874846 25.63382
-37.115363 -8.917817 26.283571
-36.896812 -7.886689 26.525185
-37.958617 -7.864576 24.649667
-37.43186 -7.874846 25.63382
-38.417309 -7.956015 23.713735
-38.109102 -8.997414 24.456274
-37.958617 -7.864576 24.649667
-38.814787 -7.987106 22.772806
-38.417309 -7.956015 23.713735
-39.179213 -8.029788 21.752246
-38.93222 -9.131535 22.499783
-38.814787 -7.987106 22.772806
-39.363888 -6.99747 20.99936
-39.572401 -5.956258 20.248022
-39.481321 -8.141898 20.726337
-39.179213 -8.029788 21.752246
-39.363888 -6.99747 20.99936
-40.082714 -6.477682 16.182416
-39.993364 -7.571711 16.917874
-40.07757 -6.320764 17.116089
-40.117639 -5.415051 15.475614
-40.033434 -6.665998 15.2774
-40.082714 -6.477682 16.182416
-40.178949 -4.354738 14.704749
-40.117639 -5.415051 15.475614
-40.062131 -4.579732 13.7347
-40.178949 -4.354738 14.704749
-15.04484 -45.69869 36.619793
-14.741441 -46.992901 36.456372
-15.746364 -45.363146 36.338101
-15.04484 -45.69869 36.619793
-15.34138 -44.511291 36.753529
-15.538886 -35.966343 39.236852
-15.262126 -35.184399 39.797621
-15.954218 -34.783661 39.396061
-15.134911 -37.201376 39.08445
-15.538886 -35.966343 39.236852
-15.827004 -36.800638 38.68289
-14.758976 -38.429325 38.90584
-15.134911 -37.201376 39.08445
-15.011795 -39.314598 38.397969
-14.758976 -38.429325 38.90584
-15.280236 -40.13606 37.961348
-15.011795 -39.314598 38.397969
-15.69147 -38.857134 38.093867
-15.64056 -40.992519 37.483272
-14.960885 -41.449984 37.787374
-15.280236 -40.13606 37.961348
-21.9265 -4.842619 -7.602356
-22.179102 -5.383527 -7.054982
-21.644373 -4.250343 -7.212969
-22.314351 -5.413024 -8.049909
-21.9265 -4.842619 -7.602356
-37.808104 -39.152512 3.531275
-37.60109 -40.097753 3.914557
-37.732042 -39.594229 4.798057
-37.808104 -39.152512 3.531275
-37.988205 -38.138233 3.195591
-37.243631 -29.820606 2.446465
-36.892227 -28.854501 2.14815
-37.412165 -30.295049 3.575638
-37.243631 -29.820606 2.446465
-37.558407 -30.836507 2.836985
-38.210819 -34.875085 4.102548
-38.189068 -34.32398 4.946512
-38.135674 -33.865901 3.772284
-38.218142 -35.939746 4.457662
-38.210819 -34.875085 4.102548
3 0 130 128
3 0 128 131
3 2 134 133
3 1 137 135
3 2 140 138
3 2 133 140
3 4 143 141
3 4 145 143
3 5 147 146
3 6 150 148
3 6 154 152
3 6 148 154
3 7 158 156
3 8 161 159
3 8 163 161
3 3 166 164
3 9 520 521
3 10 169 167
3 10 171 169
3 11 174 172
3 9 522 524
3 524 523 175
3 522 523 524
3 9 525 526
3 14 180 178
3 16 183 181
3 16 185 183
3 17 188 186
3 527 192 528
3 529 193 530
3 531 195 532
3 533 532 193
3 531 532 533
3 534 197 535
3 536 535 195
3 534 535 536
3 537 199 538
3 540 539 199
3 541 202 542
3 20 205 203
3 20 207 205
3 21 210 208
3 23 213 211
3 23 215 213
3 12 218 216
3 24 221 219
3 24 223 221
3 24 225 223
3 25 228 226
3 25 230 228
3 13 543 545
3 543 231 544
3 543 544 545
3 26 234 232
3 26 236 234
3 26 238 236
3 21 241 239
3 21 208 241
3 22 245 243
3 27 248 246
3 27 250 248
3 15 253 251
3 28 256 254
3 28 258 256
3 28 260 258
3 29 263 261
3 29 265 263
3 19 268 266
3 30 271 269
3 30 273 271
3 18 276 274
3 31 279 277
3 31 281 279
3 31 283 281
3 32 286 284
3 34 287 129
3 34 288 287
3 35 291 289
3 32 292 132
3 32 284 292
3 37 295 293
3 39 296 136
3 39 297 296
3 40 300 298
3 546 301 547
3 548 547 139
3 546 547 548
3 550 549 301
3 42 551 553
3 551 302 552
3 551 552 553
3 43 303 142
3 43 304 303
3 43 306 304
3 45 307 144
3 45 308 307
3 46 311 309
3 48 312 149
3 48 313 312
3 554 315 555
3 50 556 558
3 556 316 557
3 556 557 558
3 50 317 316
3 50 319 317
3 559 320 560
3 561 560 151
3 559 560 561
3 562 321 563
3 564 563 320
3 562 563 564
3 52 324 322
3 54 325 153
3 54 326 325
3 54 328 326
3 46 329 155
3 46 309 329
3 56 332 330
3 58 333 157
3 58 334 333
3 59 337 335
3 61 338 160
3 61 339 338
3 61 341 339
3 63 342 162
3 63 343 342
3 64 346 344
3 66 347 165
3 66 348 347
3 67 351 349
3 565 352 566
3 567 353 568
3 569 568 352
3 567 568 569
3 571 570 353
3 33 355 285
3 69 356 168
3 69 357 356
3 69 358 357
3 70 359 170
3 70 360 359
3 71 363 361
3 72 364 173
3 72 572 574
3 574 573 364
3 572 573 574
3 36 365 290
3 575 366 576
3 577 576 176
3 575 576 577
3 579 578 366
3 73 369 367
3 580 370 581
3 583 582 370
3 584 371 585
3 586 372 587
3 588 373 589
3 590 589 372
3 588 589 590
3 73 374 177
3 73 367 374
3 75 377 375
3 77 378 179
3 77 379 378
3 38 380 294
3 78 381 182
3 78 382 381
3 78 383 382
3 79 384 184
3 79 385 384
3 80 388 386
3 82 389 187
3 82 390 389
3 41 391 299
3 83 392 189
3 83 393 392
3 83 394 393
3 84 397 395
3 85 400 398
3 87 401 190
3 87 402 401
3 88 591 593
3 591 403 592
3 591 592 593
3 88 404 403
3 88 405 404
3 89 406 191
3 89 407 406
3 594 408 595
3 90 409 194
3 90 410 409
3 90 411 410
3 91 412 196
3 91 413 412
3 596 414 597
3 92 415 198
3 92 416 415
3 92 417 416
3 84 418 200
3 84 395 418
3 93 419 201
3 93 420 419
3 44 421 305
3 94 422 204
3 94 423 422
3 94 598 600
3 600 599 423
3 598 599 600
3 95 601 603
3 603 602 206
3 601 602 603
3 95 604 605
3 607 606 362
3 96 426 424
3 98 427 209
3 98 428 427
3 47 429 310
3 99 430 212
3 99 431 430
3 99 432 431
3 100 433 214
3 100 434 433
3 74 435 368
3 101 436 217
3 101 437 436
3 49 438 314
3 102 439 220
3 102 440 439
3 102 441 440
3 103 442 222
3 103 443 442
3 103 444 443
3 104 445 224
3 104 446 445
3 51 447 318
3 105 448 227
3 105 449 448
3 105 450 449
3 106 451 229
3 106 452 451
3 608 453 609
3 610 454 611
3 612 611 453
3 610 611 612
3 614 613 454
3 107 615 616
3 107 617 619
3 617 455 618
3 617 618 619
3 108 620 621
3 108 622 623
3 53 456 323
3 109 457 233
3 109 458 457
3 109 459 458
3 110 460 235
3 110 461 460
3 110 462 461
3 111 463 237
3 111 464 463
3 55 465 327
3 112 466 240
3 112 467 466
3 112 468 467
3 96 469 242
3 96 424 469
3 625 624 396
3 97 470 425
3 113 471 244
3 113 472 471
3 57 473 331
3 114 474 247
3 114 475 474
3 114 476 475
3 115 477 249
3 115 478 477
3 76 479 376
3 116 480 252
3 116 481 480
3 60 482 336
3 117 483 255
3 117 484 483
3 117 485 484
3 118 486 257
3 118 487 486
3 118 488 487
3 119 489 259
3 119 490 489
3 62 491 340
3 120 492 262
3 120 493 492
3 120 494 493
3 626 495 627
3 628 627 264
3 626 627 628
3 630 629 495
3 86 496 399
3 121 497 267
3 121 498 497
3 65 499 345
3 122 500 270
3 122 501 500
3 122 502 501
3 123 503 272
3 123 504 503
3 81 505 387
3 124 506 275
3 124 507 506
3 68 508 350
3 125 509 278
3 125 510 509
3 125 511 510
3 126 512 280
3 126 513 512
3 126 514 513
3 127 515 282
3 127 516 515
3 631 517 632
3 633 632 354
3 631 632 633
3 634 518 635
3 636 519 637
3 638 637 518
3 636 637 638
3 640 639 519
3 128 129 32
3 130 129 128
3 130 34 129
3 131 132 35
3 128 132 131
3 128 32 132
3 133 641 642
3 134 643 645
3 645 644 133
3 643 644 645
3 134 646 648
3 646 647 648
3 135 136 37
3 137 136 135
3 137 39 136
3 138 139 40
3 140 139 138
3 140 649 651
3 651 650 139
3 649 650 651
3 140 652 653
3 133 654 656
3 656 655 140
3 654 655 656
3 133 657 658
3 141 142 42
3 143 142 141
3 143 43 142
3 143 144 43
3 145 144 143
3 145 45 144
3 146 659 660
3 147 661 663
3 663 662 146
3 661 662 663
3 147 664 665
3 148 149 46
3 150 149 148
3 150 48 149
3 666 50 667
3 668 151 669
3 670 669 50
3 668 669 670
3 671 151 672
3 674 673 151
3 152 153 52
3 154 153 152
3 154 54 153
3 154 155 54
3 148 155 154
3 148 46 155
3 156 157 56
3 158 157 156
3 158 58 157
3 159 160 59
3 161 160 159
3 161 61 160
3 161 162 61
3 163 162 161
3 163 63 162
3 164 165 64
3 166 165 164
3 166 66 165
3 676 675 67
3 167 168 33
3 169 168 167
3 169 69 168
3 169 170 69
3 171 170 169
3 171 70 170
3 172 173 71
3 174 173 172
3 174 72 173
3 175 176 36
3 677 176 678
3 679 678 175
3 677 678 679
3 681 680 176
3 683 682 73
3 684 177 685
3 686 177 687
3 688 73 689
3 690 689 177
3 688 689 690
3 178 179 75
3 180 179 178
3 180 77 179
3 181 182 38
3 183 182 181
3 183 78 182
3 183 184 78
3 185 184 183
3 185 79 184
3 186 187 80
3 188 187 186
3 188 82 187
3 691 189 692
3 693 692 41
3 691 692 693
3 694 189 695
3 696 83 697
3 698 697 189
3 696 697 698
3 700 699 83
3 702 701 84
3 703 190 704
3 705 704 85
3 703 704 705
3 706 190 707
3 708 87 709
3 710 709 190
3 708 709 710
3 711 88 712
3 713 191 714
3 715 714 88
3 713 714 715
3 192 716 718
3 716 191 717
3 716 717 718
3 192 89 191
3 193 719 720
3 193 721 722
3 193 723 725
3 723 194 724
3 723 724 725
3 195 194 193
3 195 90 194
3 195 196 90
3 197 196 195
3 197 91 196
3 726 198 727
3 199 728 730
3 728 198 729
3 728 729 730
3 199 92 198
3 199 200 92
3 731 200 732
3 733 732 199
3 731 732 733
3 734 84 735
3 736 735 200
3 734 735 736
3 737 201 738
3 202 739 741
3 739 201 740
3 739 740 741
3 202 93 201
3 203 204 44
3 205 204 203
3 205 94 204
3 205 206 94
3 207 206 205
3 207 95 206
3 208 209 96
3 210 209 208
3 210 98 209
3 211 212 47
3 213 212 211
3 213 99 212
3 213 214 99
3 215 214 213
3 215 100 214
3 216 217 74
3 218 217 216
3 218 101 217
3 219 220 49
3 221 220 219
3 221 102 220
3 221 222 102
3 223 222 221
3 223 103 222
3 223 224 103
3 225 224 223
3 225 104 224
3 226 227 51
3 228 227 226
3 228 105 227
3 228 229 105
3 230 229 228
3 230 106 229
3 742 107 743
3 231 744 745
3 231 746 748
3 746 108 747
3 746 747 748
3 232 233 53
3 234 233 232
3 234 109 233
3 234 235 109
3 236 235 234
3 236 110 235
3 236 237 110
3 238 237 236
3 238 111 237
3 239 240 55
3 241 240 239
3 241 112 240
3 241 242 112
3 208 242 241
3 208 96 242
3 243 244 97
3 245 244 243
3 245 113 244
3 246 247 57
3 248 247 246
3 248 114 247
3 248 249 114
3 250 249 248
3 250 115 249
3 251 252 76
3 253 252 251
3 253 116 252
3 254 255 60
3 256 255 254
3 256 117 255
3 256 257 117
3 258 257 256
3 258 118 257
3 258 259 118
3 260 259 258
3 260 119 259
3 261 262 62
3 263 262 261
3 263 120 262
3 263 264 120
3 265 264 263
3 265 749 751
3 751 750 264
3 749 750 751
3 266 267 86
3 268 267 266
3 268 121 267
3 269 270 65
3 271 270 269
3 271 122 270
3 271 272 122
3 273 272 271
3 273 123 272
3 274 275 81
3 276 275 274
3 276 124 275
3 277 278 68
3 279 278 277
3 279 125 278
3 279 280 125
3 281 280 279
3 281 126 280
3 281 282 126
3 283 282 281
3 283 127 282
3 284 285 9
3 286 285 284
3 286 33 285
3 129 286 32
3 287 286 129
3 287 33 286
3 287 167 33
3 288 167 287
3 288 10 167
3 289 290 11
3 291 290 289
3 291 36 290
3 132 291 35
3 292 291 132
3 292 36 291
3 292 175 36
3 284 175 292
3 284 9 175
3 293 294 14
3 295 294 293
3 295 38 294
3 136 295 37
3 296 295 136
3 296 38 295
3 296 181 38
3 297 181 296
3 297 16 181
3 298 299 17
3 300 299 298
3 300 41 299
3 139 300 40
3 301 300 139
3 301 41 300
3 301 752 754
3 754 753 41
3 752 753 754
3 756 755 301
3 302 757 758
3 302 759 760
3 142 302 42
3 303 302 142
3 303 761 763
3 763 762 302
3 761 762 763
3 303 764 765
3 304 766 768
3 768 767 303
3 766 767 768
3 304 769 770
3 304 771 773
3 771 305 772
3 771 772 773
3 306 305 304
3 306 44 305
3 144 306 43
3 307 306 144
3 307 44 306
3 307 203 44
3 308 203 307
3 308 20 203
3 309 310 21
3 311 310 309
3 311 47 310
3 149 311 46
3 312 311 149
3 312 47 311
3 312 211 47
3 313 211 312
3 313 23 211
3 774 314 775
3 776 775 12
3 774 775 776
3 315 777 779
3 777 314 778
3 777 778 779
3 315 49 314
3 780 315 781
3 316 782 784
3 782 315 783
3 782 783 784
3 316 49 315
3 316 219 49
3 317 219 316
3 317 24 219
3 317 318 24
3 319 318 317
3 319 51 318
3 151 319 50
3 320 319 151
3 320 51 319
3 320 226 51
3 321 226 320
3 321 25 226
3 322 323 13
3 324 323 322
3 324 53 323
3 153 324 52
3 325 324 153
3 325 53 324
3 325 232 53
3 326 232 325
3 326 26 232
3 326 327 26
3 328 327 326
3 328 55 327
3 155 328 54
3 329 328 155
3 329 55 328
3 329 239 55
3 309 239 329
3 309 21 239
3 330 331 22
3 332 331 330
3 332 57 331
3 157 332 56
3 333 332 157
3 333 57 332
3 333 246 57
3 334 246 333
3 334 27 246
3 335 336 15
3 337 336 335
3 337 60 336
3 160 337 59
3 338 337 160
3 338 60 337
3 338 254 60
3 339 254 338
3 339 28 254
3 339 340 28
3 341 340 339
3 341 62 340
3 162 341 61
3 342 341 162
3 342 62 341
3 342 261 62
3 343 261 342
3 343 29 261
3 344 345 19
3 346 345 344
3 346 65 345
3 165 346 64
3 347 346 165
3 347 65 346
3 347 269 65
3 348 269 347
3 348 30 269
3 349 350 18
3 351 350 349
3 351 68 350
3 785 351 786
3 787 786 67
3 785 786 787
3 352 788 790
3 788 351 789
3 788 789 790
3 352 68 351
3 352 277 68
3 353 277 352
3 353 31 277
3 353 354 31
3 791 354 792
3 793 792 353
3 791 792 793
3 795 794 354
3 285 796 798
3 798 797 9
3 796 797 798
3 355 799 801
3 801 800 285
3 799 800 801
3 355 802 803
3 168 355 33
3 356 355 168
3 356 804 806
3 806 805 355
3 804 805 806
3 356 807 808
3 357 809 811
3 811 810 356
3 809 810 811
3 357 812 813
3 357 814 815
3 358 816 818
3 818 817 357
3 816 817 818
3 358 819 821
3 819 42 820
3 819 820 821
3 170 358 69
3 359 358 170
3 359 42 358
3 359 141 42
3 360 141 359
3 360 4 141
3 361 362 5
3 363 362 361
3 363 822 824
3 824 823 362
3 822 823 824
3 173 363 71
3 364 363 173
3 364 825 827
3 827 826 363
3 825 826 827
3 364 828 829
3 831 830 364
3 290 174 11
3 365 174 290
3 365 72 174
3 176 365 36
3 366 365 176
3 366 72 365
3 366 832 834
3 834 833 72
3 832 833 834
3 836 835 366
3 367 368 6
3 369 368 367
3 369 74 368
3 837 369 838
3 839 838 73
3 837 838 839
3 370 840 842
3 840 369 841
3 840 841 842
3 370 74 369
3 370 216 74
3 843 216 844
3 845 844 370
3 843 844 845
3 846 12 847
3 848 847 216
3 846 847 848
3 849 12 850
3 852 851 12
3 371 853 854
3 371 855 857
3 855 13 856
3 855 856 857
3 858 371 859
3 372 860 862
3 860 371 861
3 860 861 862
3 372 13 371
3 372 322 13
3 373 322 372
3 373 52 322
3 177 863 865
3 863 373 864
3 863 864 865
3 374 373 177
3 374 52 373
3 374 152 52
3 367 152 374
3 367 6 152
3 375 376 7
3 377 376 375
3 377 76 376
3 179 377 75
3 378 377 179
3 378 76 377
3 378 251 76
3 379 251 378
3 379 15 251
3 294 180 14
3 380 180 294
3 380 77 180
3 182 380 38
3 381 380 182
3 381 77 380
3 381 379 77
3 382 379 381
3 382 15 379
3 382 335 15
3 383 335 382
3 383 59 335
3 184 383 78
3 384 383 184
3 384 59 383
3 384 159 59
3 385 159 384
3 385 8 159
3 386 387 3
3 388 387 386
3 388 81 387
3 187 388 80
3 389 388 187
3 389 81 388
3 389 274 81
3 390 274 389
3 390 18 274
3 299 188 17
3 391 188 299
3 391 82 188
3 189 391 41
3 392 391 189
3 392 82 391
3 392 390 82
3 393 390 392
3 393 18 390
3 393 349 18
3 394 349 393
3 394 67 349
3 866 394 867
3 868 867 83
3 866 867 868
3 869 394 870
3 871 67 872
3 873 872 394
3 871 872 873
3 875 874 67
3 395 396 2
3 397 396 395
3 397 876 878
3 878 877 396
3 876 877 878
3 879 397 880
3 881 880 84
3 879 880 881
3 882 397 883
3 885 884 397
3 398 399 1
3 400 399 398
3 400 86 399
3 190 400 85
3 401 400 190
3 401 86 400
3 401 266 86
3 402 266 401
3 402 19 266
3 886 87 887
3 403 888 889
3 403 890 892
3 890 87 891
3 890 891 892
3 403 402 87
3 404 402 403
3 404 19 402
3 404 344 19
3 405 344 404
3 405 64 344
3 191 405 88
3 406 405 191
3 406 64 405
3 406 164 64
3 407 164 406
3 407 3 164
3 893 192 894
3 408 895 897
3 895 192 896
3 895 896 897
3 408 89 192
3 194 898 900
3 898 408 899
3 898 899 900
3 409 408 194
3 409 89 408
3 409 407 89
3 410 407 409
3 410 3 407
3 410 386 3
3 411 386 410
3 411 80 386
3 196 411 90
3 412 411 196
3 412 80 411
3 412 186 80
3 413 186 412
3 413 17 186
3 901 197 902
3 414 903 905
3 903 197 904
3 903 904 905
3 414 91 197
3 198 906 908
3 906 414 907
3 906 907 908
3 415 414 198
3 415 91 414
3 415 413 91
3 416 413 415
3 416 17 413
3 416 298 17
3 417 298 416
3 417 40 298
3 200 417 92
3 418 417 200
3 418 40 417
3 418 138 40
3 395 138 418
3 395 2 138
3 201 909 910
3 419 911 913
3 913 912 201
3 911 912 913
3 419 914 915
3 419 916 917
3 420 918 920
3 920 919 419
3 918 919 920
3 420 921 922
3 305 923 925
3 923 202 924
3 923 924 925
3 421 202 305
3 421 93 202
3 204 421 44
3 422 421 204
3 422 93 421
3 422 420 93
3 423 420 422
3 423 926 928
3 928 927 420
3 926 927 928
3 423 929 930
3 932 931 423
3 206 933 935
3 935 934 94
3 933 934 935
3 937 936 206
3 362 147 5
3 938 147 939
3 940 939 362
3 938 939 940
3 942 941 147
3 424 425 0
3 426 425 424
3 426 97 425
3 209 426 96
3 427 426 209
3 427 97 426
3 427 243 97
3 428 243 427
3 428 22 243
3 310 210 21
3 429 210 310
3 429 98 210
3 212 429 47
3 430 429 212
3 430 98 429
3 430 428 98
3 431 428 430
3 431 22 428
3 431 330 22
3 432 330 431
3 432 56 330
3 214 432 99
3 433 432 214
3 433 56 432
3 433 156 56
3 434 156 433
3 434 7 156
3 368 150 6
3 435 150 368
3 435 48 150
3 217 435 74
3 436 435 217
3 436 48 435
3 436 313 48
3 437 313 436
3 437 23 313
3 314 218 12
3 438 218 314
3 438 101 218
3 220 438 49
3 439 438 220
3 439 101 438
3 439 437 101
3 440 437 439
3 440 23 437
3 440 215 23
3 441 215 440
3 441 100 215
3 222 441 102
3 442 441 222
3 442 100 441
3 442 434 100
3 443 434 442
3 443 7 434
3 443 375 7
3 444 375 443
3 444 75 375
3 224 444 103
3 445 444 224
3 445 75 444
3 445 178 75
3 446 178 445
3 446 14 178
3 318 225 24
3 447 225 318
3 447 104 225
3 227 447 51
3 448 447 227
3 448 104 447
3 448 446 104
3 449 446 448
3 449 14 446
3 449 293 14
3 450 293 449
3 450 37 293
3 229 450 105
3 451 450 229
3 451 37 450
3 451 135 37
3 452 135 451
3 452 1 135
3 943 321 944
3 945 321 946
3 947 25 948
3 949 948 321
3 947 948 949
3 950 25 951
3 952 230 953
3 954 953 25
3 952 953 954
3 955 230 956
3 957 106 958
3 959 958 230
3 957 958 959
3 453 960 961
3 453 962 964
3 962 106 963
3 962 963 964
3 453 452 106
3 454 452 453
3 454 1 452
3 454 398 1
3 965 398 966
3 967 966 454
3 965 966 967
3 968 85 969
3 970 969 398
3 968 969 970
3 971 85 972
3 974 973 85
3 975 146 976
3 455 977 979
3 977 146 978
3 977 978 979
3 455 5 146
3 323 231 13
3 456 231 323
3 456 108 231
3 233 456 53
3 457 456 233
3 457 108 456
3 457 980 982
3 982 981 108
3 980 981 982
3 458 983 985
3 985 984 457
3 983 984 985
3 458 986 987
3 458 988 989
3 459 990 992
3 992 991 458
3 990 991 992
3 459 993 995
3 993 107 994
3 993 994 995
3 235 459 109
3 460 459 235
3 460 107 459
3 460 455 107
3 461 455 460
3 461 5 455
3 461 361 5
3 462 361 461
3 462 71 361
3 237 462 110
3 463 462 237
3 463 71 462
3 463 172 71
3 464 172 463
3 464 11 172
3 327 238 26
3 465 238 327
3 465 111 238
3 240 465 55
3 466 465 240
3 466 111 465
3 466 464 111
3 467 464 466
3 467 11 464
3 467 289 11
3 468 289 467
3 468 35 289
3 242 468 112
3 469 468 242
3 469 35 468
3 469 131 35
3 424 131 469
3 424 0 131
3 396 134 2
3 996 134 997
3 998 997 396
3 996 997 998
3 1000 999 134
3 425 130 0
3 470 130 425
3 470 34 130
3 244 470 97
3 471 470 244
3 471 34 470
3 471 288 34
3 472 288 471
3 472 10 288
3 331 245 22
3 473 245 331
3 473 113 245
3 247 473 57
3 474 473 247
3 474 113 473
3 474 472 113
3 475 472 474
3 475 10 472
3 475 171 10
3 476 171 475
3 476 70 171
3 249 476 114
3 477 476 249
3 477 70 476
3 477 360 70
3 478 360 477
3 478 4 360
3 376 158 7
3 479 158 376
3 479 58 158
3 252 479 76
3 480 479 252
3 480 58 479
3 480 334 58
3 481 334 480
3 481 27 334
3 336 253 15
3 482 253 336
3 482 116 253
3 255 482 60
3 483 482 255
3 483 116 482
3 483 481 116
3 484 481 483
3 484 27 481
3 484 250 27
3 485 250 484
3 485 115 250
3 257 485 117
3 486 485 257
3 486 115 485
3 486 478 115
3 487 478 486
3 487 4 478
3 487 145 4
3 488 145 487
3 488 45 145
3 259 488 118
3 489 488 259
3 489 45 488
3 489 308 45
3 490 308 489
3 490 20 308
3 340 260 28
3 491 260 340
3 491 119 260
3 262 491 62
3 492 491 262
3 492 119 491
3 492 490 119
3 493 490 492
3 493 20 490
3 493 207 20
3 494 207 493
3 494 95 207
3 264 494 120
3 495 494 264
3 495 95 494
3 495 1001 1003
3 1003 1002 95
3 1001 1002 1003
3 1005 1004 495
3 399 137 1
3 496 137 399
3 496 39 137
3 267 496 86
3 497 496 267
3 497 39 496
3 497 297 39
3 498 297 497
3 498 16 297
3 345 268 19
3 499 268 345
3 499 121 268
3 270 499 65
3 500 499 270
3 500 121 499
3 500 498 121
3 501 498 500
3 501 16 498
3 501 185 16
3 502 185 501
3 502 79 185
3 272 502 122
3 503 502 272
3 503 79 502
3 503 385 79
3 504 385 503
3 504 8 385
3 387 166 3
3 505 166 387
3 505 66 166
3 275 505 81
3 506 505 275
3 506 66 505
3 506 348 66
3 507 348 506
3 507 30 348
3 350 276 18
3 508 276 350
3 508 124 276
3 278 508 68
3 509 508 278
3 509 124 508
3 509 507 124
3 510 507 509
3 510 30 507
3 510 273 30
3 511 273 510
3 511 123 273
3 280 511 125
3 512 511 280
3 512 123 511
3 512 504 123
3 513 504 512
3 513 8 504
3 513 163 8
3 514 163 513
3 514 63 163
3 282 514 126
3 515 514 282
3 515 63 514
3 515 343 63
3 516 343 515
3 516 29 343
3 354 283 31
3 517 283 354
3 517 127 283
3 1006 517 1007
3 518 1008 1010
3 1008 517 1009
3 1008 1009 1010
3 518 127 517
3 518 516 127
3 519 516 518
3 519 29 516
3 519 265 29
3 1011 265 1012
3 1013 1012 519
3 1011 1012 1013
3 1015 1014 265
