ply
format ascii 1.0
element vertex 584
property float x
property float y
property float z
element face 632
property list uchar int vertex_index
end_header
33.974335 -22.29842 20.886658
27.849581 -41.851936 -12.872649
19.460794 -35.967686 -27.964001
30.450136 -45.620106 3.771632
24.975054 -53.520039 -11.647998
36.584541 -19.749786 12.602581
34.187229 -32.794403 3.863836
33.552994 -34.407307 12.772553
30.438377 -29.125673 -14.321609
24.56238 -39.256119 -20.639332
31.740616 -36.802692 21.136841
33.322235 -30.799561 -5.403019
29.683142 -43.779404 -4.638562
35.382965 -21.024178 16.931101
35.064598 -27.582048 12.72595
34.119644 -28.335255 16.925949
29.277662 -35.453976 -13.460328
27.381844 -34.329094 -17.670345
26.425766 -40.592293 -16.819839
30.823721 -38.050327 25.044739
31.392347 -42.443401 16.873192
32.34119 -39.297249 3.805891
32.148197 -38.313004 -0.512878
30.064226 -44.973446 -0.532168
26.37813 -47.975124 -12.204312
25.373251 -46.833282 -15.951728
24.321716 -52.693142 -15.027761
37.306957 -18.964251 7.964729
35.979649 -25.583157 3.611015
35.783794 -26.365383 8.231239
34.03297 -33.631683 8.427565
32.309242 -40.169319 8.41226
31.507755 -22.672888 -15.372363
29.098295 -22.095901 -19.777391
28.223549 -28.209583 -18.64954
22.304073 -37.809669 -24.249537
24.037256 -45.470123 -19.61463
22.246288 -43.991093 -23.216719
31.60264 -31.055868 24.87591
32.850925 -29.76342 20.983223
32.687004 -35.680317 17.051748
31.914778 -41.406208 12.596824
33.543201 -23.202507 -10.585999
32.144871 -30.018518 -9.872046
30.59948 -36.461582 -9.410638
33.954544 -31.922722 -0.725114
31.60796 -37.355885 -4.930292
28.899755 -42.872055 -8.89602
27.158449 -48.855785 -8.468848
34.692825 -21.749527 18.908791
34.73103 -24.898167 16.96513
34.103897 -25.384352 18.983583
28.593338 -38.528828 -13.215096
27.804094 -38.048683 -15.235498
27.163055 -41.378143 -14.843853
31.32476 -42.702011 3.757414
31.226494 -42.228409 1.576911
30.261072 -45.361206 1.60872
25.680393 -50.792095 -11.862713
25.330063 -50.200436 -13.644832
24.669336 -53.087967 -13.347469
37.237011 -16.156733 12.232774
37.669376 -15.635006 9.992383
36.977856 -19.569475 10.24658
36.553646 -22.781061 8.198047
36.255363 -23.172352 10.584237
34.280399 -31.208855 12.734976
34.679066 -30.474985 10.570134
33.800491 -34.192635 10.489032
33.128117 -37.121815 8.262529
32.987156 -37.430534 10.656374
31.069466 -25.822577 -14.690604
29.88405 -25.634508 -16.963943
29.375412 -28.565943 -16.578909
25.96694 -36.745113 -19.158575
26.19235 -33.779503 -19.795567
24.817108 -36.063927 -21.155403
23.503078 -35.47237 -23.144209
23.508736 -38.429657 -22.456171
24.297705 -49.410587 -17.296534
24.777792 -46.160824 -17.745737
23.754704 -48.543362 -19.075043
21.163351 -43.168472 -24.997602
31.254753 -37.393257 23.187166
31.179281 -34.562557 25.056236
31.714636 -34.118538 22.991096
32.232925 -30.473278 22.853346
32.275597 -33.529713 20.963116
32.842556 -32.652042 19.113817
32.211723 -36.336933 19.069344
31.678877 -41.923466 14.661827
31.305691 -44.040005 10.368873
33.564484 -27.07723 -7.884191
32.757298 -30.437605 -7.751366
31.412113 -33.339188 -9.513145
31.991711 -33.816429 -7.309455
35.154175 -29.066341 3.798532
35.030781 -28.86203 1.478652
34.192131 -32.16378 1.7256
30.910721 -41.131069 -2.717758
31.876879 -37.905079 -2.869771
30.609795 -40.639442 -4.934379
30.182789 -40.336754 -7.057629
29.285952 -43.479084 -6.765782
28.032038 -45.88628 -8.684818
28.399048 -46.370453 -6.626885
27.268276 -24.929873 -21.309332
36.014523 -17.027275 16.808023
36.026768 -20.309496 14.842434
35.84901 -23.669178 12.725397
35.340073 -24.210604 14.869024
34.640163 -27.89234 14.850358
33.878143 -31.536198 14.973412
29.836107 -32.332436 -13.941981
28.968634 -31.65572 -15.963692
28.422806 -34.809761 -15.564109
26.953741 -37.466881 -17.167065
25.590096 -39.868164 -18.698154
30.838423 -40.844505 23.204653
31.265781 -40.064766 21.098257
31.644657 -39.612106 19.0714
31.090235 -42.913628 19.085094
33.239834 -36.181519 3.735108
33.23756 -35.520096 1.552463
32.233849 -38.932079 1.574798
31.095629 -41.676731 -0.613701
29.956615 -44.245342 -2.515646
28.705404 -46.837624 -4.592784
28.981041 -47.177509 -2.681294
27.063635 -45.088772 -12.591047
26.57453 -44.282005 -14.490727
25.905823 -47.36409 -14.14996
24.804016 -49.951862 -15.509103
23.88727 -52.299625 -16.80759
38.283871 -11.437221 9.902328
38.021347 -14.833365 7.771235
37.481113 -18.535967 5.676906
36.782936 -21.880381 3.36387
36.71117 -22.438553 5.8156
35.932827 -26.006802 5.873126
35.076248 -29.608335 5.951861
35.454254 -27.067793 10.472225
34.896698 -30.17745 8.222679
34.147388 -33.241547 6.058037
33.252544 -36.559887 6.121084
32.293114 -39.961349 6.009466
31.451294 -42.913303 6.083328
18.357813 -37.887463 -29.013542
18.001717 -34.755802 -29.690416
32.12278 -19.461531 -15.776977
30.384632 -22.508953 -17.500187
28.693563 -25.154459 -19.122274
26.918827 -27.824753 -20.74173
27.786747 -31.295193 -18.164551
26.610008 -30.854076 -20.146688
25.36001 -30.114979 -22.129272
22.179892 -34.781487 -24.978306
20.872143 -36.836746 -26.209419
25.869738 -43.650383 -16.520096
25.108717 -43.010796 -18.400393
24.245596 -42.421883 -20.226137
23.078619 -47.736965 -20.854067
23.153423 -44.781055 -21.507366
23.278286 -41.553505 -22.078821
22.204939 -40.920933 -23.828941
21.047274 -39.852859 -25.578518
19.787031 -38.892834 -27.262495
30.666105 -35.392059 27.020081
30.985546 -31.86331 26.898989
31.368286 -28.210587 26.665966
32.057606 -27.457605 24.686195
32.74107 -26.874805 22.750132
33.444683 -26.202557 20.78684
33.480991 -29.148462 18.969831
33.378864 -32.166977 16.990089
33.107018 -35.242306 14.893708
32.031998 -39.138458 16.896536
32.398544 -38.532246 14.856899
32.729095 -37.932598 12.786251
32.151215 -40.734661 10.512744
31.402889 -43.477345 8.262374
33.159027 -19.76804 -13.458942
32.63834 -22.885494 -12.925686
31.996565 -26.183123 -12.561007
32.876579 -26.57579 -10.206073
31.403366 -29.488815 -12.055274
30.696718 -32.731346 -11.79077
30.000816 -35.972889 -11.42217
29.126173 -39.433975 -11.248112
35.902668 -25.160172 1.249877
34.851357 -28.458347 -0.788907
33.767075 -31.174288 -2.977525
33.074371 -35.082874 -0.702487
32.834255 -34.621277 -2.90017
32.481239 -34.190483 -5.083608
31.087751 -37.172451 -7.172688
29.813156 -39.562599 -9.12514
28.426571 -42.382648 -10.863597
27.581997 -45.493073 -10.652847
26.783024 -48.431049 -10.37763
25.988726 -51.282478 -10.148618
27.478479 -49.309689 -6.535113
34.33358 -22.023974 19.897725
34.615446 -20.048839 19.83983
34.256201 -20.323285 20.828764
29.911981 -46.926947 2.672941
29.817449 -46.797497 1.591485
30.355604 -45.490656 2.690176
19.356305 -34.523783 -28.273987
20.128301 -34.913355 -27.366224
36.910776 -17.95326 12.417677
36.952963 -16.338031 13.430065
36.626728 -18.134557 13.614969
23.577675 -50.154194 -18.839475
24.026204 -48.976974 -18.185789
23.849176 -50.587806 -17.950221
33.039766 -30.618583 -6.577192
33.428501 -28.947296 -6.727021
33.71097 -29.128274 -5.552848
26.562655 -24.62849 -22.361486
26.39028 -26.130122 -22.060673
35.698744 -19.025726 16.869562
35.644373 -17.418352 17.827034
35.328594 -19.416804 17.888573
30.804547 -42.193123 22.178975
30.649312 -42.433208 23.284267
31.018225 -41.803253 21.125777
31.052102 -40.454635 22.151455
30.804547 -42.193123 22.178975
30.930453 -43.227684 20.119196
31.178008 -41.489197 20.091676
31.018225 -41.803253 21.125777
38.048029 -11.815136 11.021508
38.336531 -9.701602 10.820932
17.106945 -38.14689 -30.40525
17.596024 -37.241324 -29.895931
17.868733 -38.79303 -29.522861
25.77142 -31.991207 -20.983431
26.401179 -32.316789 -19.971128
25.56259 -33.45392 -20.80787
25.14642 -31.621659 -21.974722
25.985009 -30.484527 -21.13798
25.77142 -31.991207 -20.983431
24.497059 -31.336653 -22.902504
25.14642 -31.621659 -21.974722
22.684293 -48.989345 -21.379401
22.987863 -49.369539 -20.561386
22.699855 -44.386074 -22.362043
22.700093 -45.962294 -22.064662
22.246526 -45.567312 -22.919339
20.534165 -40.984235 -26.1299
21.105313 -41.510666 -25.28806
20.592203 -42.642042 -25.839442
19.904043 -40.504223 -26.971888
20.417153 -39.372847 -26.420507
20.534165 -40.984235 -26.1299
19.301496 -39.94748 -27.772057
19.904043 -40.504223 -26.971888
30.744913 -36.721193 26.03241
30.528381 -36.98195 27.101771
30.607188 -38.311084 26.1141
30.992022 -44.992339 8.22426
31.35429 -43.758675 9.315624
30.943424 -45.273668 9.27751
30.965253 -44.77723 7.066557
30.992022 -44.992339 8.22426
33.975292 -18.07937 -12.468039
33.484465 -18.058652 -13.678209
33.090771 -23.044001 -11.755842
33.39382 -21.402434 -11.971918
33.84625 -21.560941 -10.802074
27.623295 -49.533424 -5.554512
28.091942 -48.073656 -5.563949
28.236757 -48.297392 -4.583347
29.330421 -20.572018 -20.109335
30.042014 -20.684345 -18.879705
17.003585 -32.729999 -30.969553
17.806375 -33.316977 -30.075674
17.198927 -34.168825 -30.584295
34.983524 -19.779478 18.877418
34.615446 -20.048839 19.83983
35.037895 -21.386852 17.919946
35.328594 -19.416804 17.888573
34.983524 -19.779478 18.877418
29.705177 -46.596691 0.506916
29.606753 -46.402811 -0.563527
30.162649 -45.167326 0.538276
29.705177 -46.596691 0.506916
29.817449 -46.797497 1.591485
37.251906 -14.395573 13.290954
36.952963 -16.338031 13.430065
37.524599 -14.174892 12.186731
37.251906 -14.395573 13.290954
37.453193 -15.895869 11.112578
37.740781 -13.914029 11.066536
37.524599 -14.174892 12.186731
24.874969 -34.596132 -21.487788
25.56259 -33.45392 -20.80787
25.504729 -34.921715 -20.475485
24.160093 -35.768148 -22.149806
24.217954 -34.300354 -22.482191
24.874969 -34.596132 -21.487788
21.790807 -45.136894 -23.784354
22.246526 -45.567312 -22.919339
21.249339 -44.725584 -24.674795
21.704819 -43.579783 -24.10716
21.790807 -45.136894 -23.784354
20.747954 -44.263645 -25.501292
21.249339 -44.725584 -24.674795
20.592203 -42.642042 -25.839442
20.747954 -44.263645 -25.501292
31.344568 -43.485332 14.678955
31.535612 -42.183433 15.767509
31.201303 -43.7453 15.784637
31.419992 -43.271324 13.563134
31.344568 -43.485332 14.678955
31.537942 -43.012695 12.530632
31.796827 -41.664837 13.629326
31.419992 -43.271324 13.563134
31.233398 -44.329594 11.416657
31.610234 -42.723107 11.482848
31.537942 -43.012695 12.530632
30.902725 -45.645306 10.33176
31.233398 -44.329594 11.416657
30.943424 -45.273668 9.27751
30.902725 -45.645306 10.33176
34.234634 -21.756673 -9.591676
33.84625 -21.560941 -10.802074
33.832094 -27.267108 -6.793434
34.219517 -25.533983 -6.902664
33.160891 -28.757418 -7.817779
33.832094 -27.267108 -6.793434
33.428501 -28.947296 -6.727021
27.450074 -23.349874 -21.688635
28.365084 -21.932889 -20.922665
28.183286 -23.512887 -20.543362
27.450074 -23.349874 -21.688635
26.562655 -24.62849 -22.361486
24.548281 -54.625275 -12.282596
24.699101 -54.734169 -11.437854
35.929834 -15.381683 17.745491
35.644373 -17.418352 17.827034
36.303558 -15.039274 16.713237
35.929834 -15.381683 17.745491
36.341719 -16.773302 15.71769
36.303558 -15.039274 16.713237
36.347842 -18.414412 14.734896
36.341719 -16.773302 15.71769
36.020646 -18.668385 15.825228
36.305655 -20.029641 13.722508
36.626728 -18.134557 13.614969
36.347842 -18.414412 14.734896
30.653367 -39.624086 25.176845
30.607188 -38.311084 26.1141
30.660718 -41.021175 24.256802
30.649312 -42.433208 23.284267
30.831072 -39.447416 24.124696
30.653367 -39.624086 25.176845
30.660718 -41.021175 24.256802
30.841057 -44.50022 19.022364
30.930453 -43.227684 20.119196
30.950912 -44.207079 18.04439
30.841057 -44.50022 19.022364
31.101968 -43.971965 16.938439
31.241291 -42.678515 17.979143
30.950912 -44.207079 18.04439
31.201303 -43.7453 15.784637
31.101968 -43.971965 16.938439
33.972983 -29.252761 -4.282917
33.71097 -29.128274 -5.552848
28.374575 -48.467334 -3.627602
28.236757 -48.297392 -4.583347
28.843223 -47.007566 -3.637039
29.065161 -47.504842 -1.63809
29.522634 -46.075478 -1.606731
29.606753 -46.402811 -0.563527
28.513383 -48.656284 -2.664745
29.065161 -47.504842 -1.63809
28.374575 -48.467334 -3.627602
28.513383 -48.656284 -2.664745
23.643958 -52.032325 -17.705748
23.849176 -50.587806 -17.950221
24.092488 -50.855106 -17.052062
24.395422 -54.409239 -13.132331
24.822195 -53.304003 -12.497733
24.548281 -54.625275 -12.282596
24.266038 -54.229754 -13.923825
24.395422 -54.409239 -13.132331
24.092228 -54.032341 -14.76397
24.495526 -52.890555 -14.187615
24.266038 -54.229754 -13.923825
23.935608 -53.866672 -15.581547
24.092228 -54.032341 -14.76397
23.718385 -53.669914 -16.471462
24.104493 -52.496384 -15.917676
23.935608 -53.866672 -15.581547
23.536838 -53.462549 -17.323963
23.718385 -53.669914 -16.471462
23.367953 -54.832838 -16.987835
23.643958 -52.032325 -17.705748
23.536838 -53.462549 -17.323963
38.564094 -9.325411 9.706533
38.336531 -9.701602 10.820932
38.44528 -11.210804 8.674499
38.725504 -9.098993 8.478704
38.564094 -9.325411 9.706533
37.976624 -13.536113 9.947356
38.048029 -11.815136 11.021508
37.740781 -13.914029 11.066536
38.314018 -12.908876 7.608953
38.44528 -11.210804 8.674499
38.152609 -13.135293 8.836782
38.092764 -14.737034 6.539237
38.314018 -12.908876 7.608953
37.822647 -16.588335 5.492072
38.092764 -14.737034 6.539237
37.75123 -16.684666 6.72407
37.503356 -18.333551 4.470028
37.822647 -16.588335 5.492072
37.132024 -20.208174 4.520388
37.154268 -20.005758 3.31351
37.503356 -18.333551 4.470028
17.417977 -35.675493 -30.234368
18.179765 -36.321632 -29.351979
17.596024 -37.241324 -29.895931
17.198927 -34.168825 -30.584295
17.417977 -35.675493 -30.234368
33.864762 -20.690849 21.76195
34.256201 -20.323285 20.828764
31.554257 -19.36716 -16.879498
32.437118 -17.798356 -16.032148
30.685182 -20.890871 -17.741103
31.554257 -19.36716 -16.879498
31.253706 -20.985242 -16.638582
29.741464 -22.302427 -18.638789
30.042014 -20.684345 -18.879705
30.685182 -20.890871 -17.741103
26.215556 -27.577562 -21.776872
26.39028 -26.130122 -22.060673
27.093552 -26.377313 -21.025531
25.436147 -28.722675 -22.470643
26.215556 -27.577562 -21.776872
26.139418 -28.969866 -21.435501
24.63857 -29.858251 -23.118621
25.436147 -28.722675 -22.470643
24.63857 -29.858251 -23.118621
24.497059 -31.336653 -22.902504
23.568593 -34.015349 -23.409973
24.217954 -34.300354 -22.482191
22.907 -33.669907 -24.327022
23.568593 -34.015349 -23.409973
22.841485 -35.126928 -24.061257
22.186408 -33.259819 -25.288461
22.907 -33.669907 -24.327022
21.487851 -34.320256 -25.873376
22.186408 -33.259819 -25.288461
20.833976 -35.347885 -26.488933
21.487851 -34.320256 -25.873376
21.526018 -35.809117 -25.593863
20.166469 -36.402216 -27.08671
20.128301 -34.913355 -27.366224
20.833976 -35.347885 -26.488933
23.325906 -49.772738 -19.671874
23.577675 -50.154194 -18.839475
23.416662 -48.140163 -19.964555
23.325906 -49.772738 -19.671874
22.987863 -49.369539 -20.561386
22.662691 -47.440248 -21.738012
22.684293 -48.989345 -21.379401
23.116021 -46.25901 -21.180717
22.662691 -47.440248 -21.738012
22.700093 -45.962294 -22.064662
18.586886 -39.444794 -28.64758
19.072422 -38.390148 -28.138019
19.301496 -39.94748 -27.772057
17.868733 -38.79303 -29.522861
18.586886 -39.444794 -28.64758
33.60713 -22.6904 21.801685
33.864762 -20.690849 21.76195
30.432762 -35.546957 28.113529
30.528381 -36.98195 27.101771
30.560419 -33.927906 27.939292
30.432762 -35.546957 28.113529
30.72014 -32.163531 27.878746
30.560419 -33.927906 27.939292
30.825826 -33.627685 26.959535
30.853503 -30.476926 27.769605
30.72014 -32.163531 27.878746
31.044873 -28.650565 27.653094
30.853503 -30.476926 27.769605
31.176916 -30.036949 26.782477
31.197231 -26.865814 27.545501
30.873818 -27.305792 28.532628
31.044873 -28.650565 27.653094
31.55205 -26.458773 26.582442
31.197231 -26.865814 27.545501
31.89671 -26.082282 25.592556
31.55205 -26.458773 26.582442
31.712946 -27.834096 25.676081
32.275858 -25.585717 24.650563
31.89671 -26.082282 25.592556
32.61759 -25.294317 23.682531
32.275858 -25.585717 24.650563
32.399338 -27.166205 23.718164
32.990498 -24.978592 22.733422
32.61759 -25.294317 23.682531
33.342304 -24.642468 21.751776
32.990498 -24.978592 22.733422
33.092877 -26.538681 21.768486
33.709509 -24.250488 20.836749
33.60713 -22.6904 21.801685
33.342304 -24.642468 21.751776
30.989455 -44.495209 5.977034
31.427091 -43.195324 7.172851
30.965253 -44.77723 7.066557
30.488876 -45.84861 4.821186
30.950715 -44.266705 4.92748
30.989455 -44.495209 5.977034
30.001828 -47.114527 3.710832
30.488876 -45.84861 4.821186
29.911981 -46.926947 2.672941
30.001828 -47.114527 3.710832
32.966341 -17.905397 -14.837226
32.437118 -17.798356 -16.032148
32.640904 -19.614785 -14.61796
32.966341 -17.905397 -14.837226
33.484465 -18.058652 -13.678209
33.654163 -19.843707 -12.238546
33.975292 -18.07937 -12.468039
32.898684 -21.326767 -13.192314
33.654163 -19.843707 -12.238546
33.39382 -21.402434 -11.971918
33.880832 -23.52324 -9.424835
34.234634 -21.756673 -9.591676
33.891474 -25.460601 -8.073931
34.219517 -25.533983 -6.902664
33.547522 -25.209882 -9.234872
33.891474 -25.460601 -8.073931
33.220531 -26.82651 -9.045132
33.20989 -24.889149 -10.396036
33.880832 -23.52324 -9.424835
33.547522 -25.209882 -9.234872
36.749479 -21.630952 2.193436
37.154268 -20.005758 3.31351
36.309345 -23.270848 1.136439
36.749479 -21.630952 2.193436
36.342802 -23.520277 2.306874
35.789226 -25.025287 0.094522
36.309345 -23.270848 1.136439
35.263571 -26.674374 -0.92487
35.789226 -25.025287 0.094522
35.377012 -26.809259 0.230485
34.737544 -28.082154 -1.975861
35.263571 -26.674374 -0.92487
34.195403 -29.440124 -3.07017
34.737544 -28.082154 -1.975861
34.309216 -29.816318 -1.883216
33.544655 -30.986925 -4.190272
33.972983 -29.252761 -4.282917
34.195403 -29.440124 -3.07017
27.052003 -50.665039 -6.531407
27.623295 -49.533424 -5.554512
26.89273 -50.490141 -7.453914
27.052003 -50.665039 -6.531407
26.732715 -50.263189 -8.420782
27.318464 -49.082737 -7.501981
26.89273 -50.490141 -7.453914
26.147853 -51.476535 -9.260666
26.573588 -50.069131 -9.308733
26.732715 -50.263189 -8.420782
25.63617 -52.581184 -10.031723
26.147853 -51.476535 -9.260666
25.129334 -53.699965 -10.781413
25.48189 -52.401258 -10.898308
25.63617 -52.581184 -10.031723
24.699101 -54.734169 -11.437854
25.129334 -53.699965 -10.781413
29.330421 -20.572018 -20.109335
28.365084 -21.932889 -20.922665
18.626767 -33.917841 -29.137194
19.356305 -34.523783 -28.273987
18.731255 -35.361744 -28.827208
18.626767 -33.917841 -29.137194
17.806375 -33.316977 -30.075674
3 0 202 204
3 202 49 203
3 202 203 204
3 0 51 49
3 1 54 52
3 3 57 55
3 3 205 207
3 207 206 57
3 205 206 207
3 2 208 209
3 4 60 58
3 5 210 212
3 210 61 211
3 210 211 212
3 5 63 61
3 5 65 63
3 7 68 66
3 7 70 68
3 8 73 71
3 9 76 74
3 9 78 76
3 213 81 214
3 215 214 79
3 213 214 215
3 10 85 83
3 10 87 85
3 10 89 87
3 11 216 218
3 216 93 217
3 216 217 218
3 11 95 93
3 6 98 96
3 12 101 99
3 12 103 101
3 12 105 103
3 220 219 106
3 13 221 223
3 221 107 222
3 221 222 223
3 13 108 107
3 13 110 108
3 15 111 50
3 15 112 111
3 16 115 113
3 18 116 53
3 18 117 116
3 224 118 225
3 226 119 227
3 228 227 118
3 226 227 228
3 229 121 230
3 231 230 119
3 229 230 231
3 21 124 122
3 23 125 56
3 23 126 125
3 23 128 126
3 24 131 129
3 26 132 59
3 26 133 132
3 232 134 233
3 27 135 62
3 27 136 135
3 27 138 136
3 29 139 64
3 29 140 139
3 14 141 109
3 30 142 67
3 30 143 142
3 30 144 143
3 31 145 69
3 31 146 145
3 236 235 147
3 234 235 236
3 32 150 149
3 34 151 72
3 34 152 151
3 17 153 114
3 237 154 238
3 239 238 75
3 237 238 239
3 240 155 241
3 242 241 154
3 240 241 242
3 244 243 155
3 35 156 77
3 35 157 156
3 25 158 130
3 36 159 80
3 36 160 159
3 245 161 246
3 37 247 249
3 247 162 248
3 247 248 249
3 37 163 162
3 37 164 163
3 250 165 251
3 252 251 82
3 250 251 252
3 253 166 254
3 255 254 165
3 253 254 255
3 257 256 166
3 19 258 260
3 258 167 259
3 258 259 260
3 38 168 84
3 38 169 168
3 38 170 169
3 39 171 86
3 39 172 171
3 39 173 172
3 40 174 88
3 40 175 174
3 20 176 120
3 41 177 90
3 41 178 177
3 41 179 178
3 261 180 262
3 263 262 91
3 261 262 263
3 265 264 180
3 266 181 267
3 42 268 270
3 268 182 269
3 268 269 270
3 42 183 182
3 43 184 92
3 43 185 184
3 43 186 185
3 44 187 94
3 44 188 187
3 28 189 137
3 45 190 97
3 45 191 190
3 22 192 123
3 46 193 100
3 46 194 193
3 46 195 194
3 47 196 102
3 47 197 196
3 47 198 197
3 48 199 104
3 48 200 199
3 271 201 272
3 273 272 127
3 271 272 273
3 33 274 275
3 278 277 148
3 276 277 278
3 49 279 280
3 49 281 283
3 281 13 282
3 281 282 283
3 49 50 13
3 51 50 49
3 51 15 50
3 52 53 16
3 54 53 52
3 54 18 53
3 55 56 21
3 57 56 55
3 57 23 56
3 57 284 286
3 286 285 23
3 284 285 286
3 288 287 57
3 58 59 24
3 60 59 58
3 60 26 59
3 61 289 290
3 61 291 292
3 61 293 295
3 293 62 294
3 293 294 295
3 63 62 61
3 63 27 62
3 63 64 27
3 65 64 63
3 65 29 64
3 66 67 14
3 68 67 66
3 68 30 67
3 68 69 30
3 70 69 68
3 70 31 69
3 71 72 32
3 73 72 71
3 73 34 72
3 74 75 17
3 76 75 74
3 76 296 298
3 298 297 75
3 296 297 298
3 76 299 301
3 299 77 300
3 299 300 301
3 78 77 76
3 78 35 77
3 79 80 25
3 81 80 79
3 81 36 80
3 302 37 303
3 304 82 305
3 306 305 37
3 304 305 306
3 307 82 308
3 310 309 82
3 83 84 19
3 85 84 83
3 85 38 84
3 85 86 38
3 87 86 85
3 87 39 86
3 87 88 39
3 89 88 87
3 89 40 88
3 311 90 312
3 313 312 20
3 311 312 313
3 314 90 315
3 316 41 317
3 318 317 90
3 316 317 318
3 319 91 320
3 321 320 41
3 319 320 321
3 322 91 323
3 325 324 91
3 326 42 327
3 328 92 329
3 93 330 332
3 330 92 331
3 330 331 332
3 93 43 92
3 93 94 43
3 95 94 93
3 95 44 94
3 96 97 28
3 98 97 96
3 98 45 97
3 99 100 22
3 101 100 99
3 101 46 100
3 101 102 46
3 103 102 101
3 103 47 102
3 103 104 47
3 105 104 103
3 105 48 104
3 106 333 335
3 335 334 33
3 333 334 335
3 337 336 106
3 339 338 4
3 107 340 341
3 107 342 343
3 107 344 345
3 108 346 348
3 348 347 107
3 346 347 348
3 108 349 351
3 349 5 350
3 349 350 351
3 108 109 5
3 110 109 108
3 110 14 109
3 50 110 13
3 111 110 50
3 111 14 110
3 111 66 14
3 112 66 111
3 112 7 66
3 113 114 8
3 115 114 113
3 115 17 114
3 53 115 16
3 116 115 53
3 116 17 115
3 116 74 17
3 117 74 116
3 117 9 74
3 352 19 353
3 118 354 355
3 118 356 358
3 356 19 357
3 356 357 358
3 118 83 19
3 119 83 118
3 119 10 83
3 119 120 10
3 121 120 119
3 121 20 120
3 359 121 360
3 361 121 362
3 363 20 364
3 365 364 121
3 363 364 365
3 367 366 20
3 368 11 369
3 122 123 6
3 124 123 122
3 124 22 123
3 56 124 21
3 125 124 56
3 125 22 124
3 125 99 22
3 126 99 125
3 126 12 99
3 126 127 12
3 128 127 126
3 128 370 372
3 372 371 127
3 370 371 372
3 373 128 374
3 375 374 23
3 373 374 375
3 376 128 377
3 379 378 128
3 129 130 1
3 131 130 129
3 131 25 130
3 59 131 24
3 132 131 59
3 132 25 131
3 132 79 25
3 133 79 132
3 133 380 382
3 382 381 79
3 380 381 382
3 383 60 384
3 385 384 4
3 383 384 385
3 386 60 387
3 388 26 389
3 390 389 60
3 388 389 390
3 391 26 392
3 393 133 394
3 395 394 26
3 393 394 395
3 396 133 397
3 396 397 398
3 400 399 133
3 134 401 402
3 134 403 405
3 403 404 405
3 62 406 408
3 406 134 407
3 406 407 408
3 135 134 62
3 135 409 411
3 411 410 134
3 409 410 411
3 135 412 413
3 136 414 416
3 416 415 135
3 414 415 416
3 136 417 418
3 136 419 421
3 419 137 420
3 419 420 421
3 138 137 136
3 138 28 137
3 64 138 27
3 139 138 64
3 139 28 138
3 139 96 28
3 140 96 139
3 140 6 96
3 109 65 5
3 141 65 109
3 141 29 65
3 67 141 14
3 142 141 67
3 142 29 141
3 142 140 29
3 143 140 142
3 143 6 140
3 143 122 6
3 144 122 143
3 144 21 122
3 69 144 30
3 145 144 69
3 145 21 144
3 145 55 21
3 146 55 145
3 146 3 55
3 147 148 2
3 422 148 423
3 424 423 147
3 422 423 424
3 426 425 148
3 427 0 428
3 149 429 430
3 150 431 433
3 433 432 149
3 431 432 433
3 150 434 436
3 434 33 435
3 434 435 436
3 72 150 32
3 151 150 72
3 151 33 150
3 151 106 33
3 152 106 151
3 152 437 439
3 439 438 106
3 437 438 439
3 114 73 8
3 153 73 114
3 153 34 73
3 75 153 17
3 154 153 75
3 154 34 153
3 154 152 34
3 155 152 154
3 155 440 442
3 442 441 152
3 440 441 442
3 155 443 444
3 446 445 155
3 77 447 448
3 156 449 451
3 451 450 77
3 449 450 451
3 156 452 453
3 156 454 455
3 157 456 458
3 458 457 156
3 456 457 458
3 157 459 461
3 459 2 460
3 459 460 461
3 130 54 1
3 158 54 130
3 158 18 54
3 80 158 25
3 159 158 80
3 159 18 158
3 159 117 18
3 160 117 159
3 160 9 117
3 462 81 463
3 161 464 466
3 464 81 465
3 464 465 466
3 161 36 81
3 467 161 468
3 162 469 471
3 469 161 470
3 469 470 471
3 162 36 161
3 162 160 36
3 163 160 162
3 163 9 160
3 163 78 9
3 164 78 163
3 164 35 78
3 82 164 37
3 165 164 82
3 165 35 164
3 165 157 35
3 166 157 165
3 166 2 157
3 166 147 2
3 472 147 473
3 474 473 166
3 472 473 474
3 476 475 147
3 477 0 478
3 167 479 480
3 167 481 482
3 84 167 19
3 168 167 84
3 168 483 485
3 485 484 167
3 483 484 485
3 168 486 487
3 169 488 490
3 490 489 168
3 488 489 490
3 169 491 493
3 491 492 493
3 169 494 495
3 170 496 498
3 498 497 169
3 496 497 498
3 170 499 500
3 86 170 38
3 171 170 86
3 171 501 503
3 503 502 170
3 501 502 503
3 171 504 505
3 172 506 508
3 508 507 171
3 506 507 508
3 172 509 511
3 509 0 510
3 509 510 511
3 172 51 0
3 173 51 172
3 173 15 51
3 88 173 39
3 174 173 88
3 174 15 173
3 174 112 15
3 175 112 174
3 175 7 112
3 120 89 10
3 176 89 120
3 176 40 89
3 90 176 20
3 177 176 90
3 177 40 176
3 177 175 40
3 178 175 177
3 178 7 175
3 178 70 7
3 179 70 178
3 179 31 70
3 91 179 41
3 180 179 91
3 180 31 179
3 180 146 31
3 512 146 513
3 514 513 180
3 512 513 514
3 515 3 516
3 517 516 146
3 515 516 517
3 518 3 519
3 521 520 3
3 522 149 523
3 181 524 526
3 524 149 525
3 524 525 526
3 181 32 149
3 527 181 528
3 182 529 531
3 529 181 530
3 529 530 531
3 182 32 181
3 182 71 32
3 183 71 182
3 183 8 71
3 532 42 533
3 92 534 535
3 184 536 538
3 538 537 92
3 536 537 538
3 184 539 541
3 539 42 540
3 539 540 541
3 184 183 42
3 185 183 184
3 185 8 183
3 185 113 8
3 186 113 185
3 186 16 113
3 94 186 43
3 187 186 94
3 187 16 186
3 187 52 16
3 188 52 187
3 188 1 52
3 137 542 543
3 189 544 546
3 546 545 137
3 544 545 546
3 189 547 548
3 97 189 28
3 190 189 97
3 190 549 551
3 551 550 189
3 549 550 551
3 190 552 553
3 191 554 556
3 556 555 190
3 554 555 556
3 191 557 559
3 557 11 558
3 557 558 559
3 123 98 6
3 192 98 123
3 192 45 98
3 100 192 22
3 193 192 100
3 193 45 192
3 193 191 45
3 194 191 193
3 194 11 191
3 194 95 11
3 195 95 194
3 195 44 95
3 102 195 46
3 196 195 102
3 196 44 195
3 196 188 44
3 197 188 196
3 197 1 188
3 197 129 1
3 198 129 197
3 198 24 129
3 104 198 47
3 199 198 104
3 199 24 198
3 199 58 24
3 200 58 199
3 200 4 58
3 127 105 12
3 201 105 127
3 201 48 105
3 560 201 561
3 562 201 563
3 564 48 565
3 566 565 201
3 564 565 566
3 567 200 568
3 569 568 48
3 567 568 569
3 570 200 571
3 572 4 573
3 574 573 200
3 572 573 574
3 576 575 4
3 578 577 33
3 148 579 581
3 581 580 2
3 579 580 581
3 583 582 148
