ply
format ascii 1.0
element vertex 639
property float x
property float y
property float z
element face 754
property list uchar int vertex_index
end_header
-6.843683 -10.74527 -62.383541
-11.479445 -64.831635 -47.242298
-11.201054 -34.686432 -54.878345
5.284311 -63.261143 -42.738468
1.06962 -31.75075 -48.935802
-2.374292 -65.592621 -45.792557
-3.60207 -49.729492 -48.395729
-11.644792 -50.290253 -50.716774
-6.76012 -0.361538 -66.780869
-11.925368 -7.628088 -65.659599
-20.432407 -62.292732 -45.57317
-20.368896 -48.652779 -51.138393
-19.038015 -34.023529 -56.430283
-16.433535 -19.774059 -61.522663
-9.220489 -20.672253 -59.134983
2.803171 -47.152935 -45.388348
-4.264316 -33.963917 -52.170731
-3.623931 -20.480474 -56.128201
-6.426416 -72.700928 -45.408051
-1.73701 -73.077301 -44.709534
-6.781259 -65.37056 -46.860241
-7.210773 -57.835186 -48.236122
-11.607743 -57.617226 -48.996864
-9.549664 2.792621 -69.19696
-6.547618 5.488169 -68.749542
-20.290768 -68.04528 -42.717564
-24.452887 -60.613495 -43.740314
-19.797119 -41.395226 -53.808765
-14.323195 -13.193902 -63.818836
4.000534 -55.181374 -43.922779
-7.596438 -42.351303 -51.507252
-4.120605 -41.74136 -50.164047
-7.471737 -34.704556 -53.489567
-7.051416 -27.35829 -55.643158
-10.347265 -27.411209 -57.004536
-1.582843 -25.898825 -52.691551
3.534955 -79.681328 -42.491314
2.698662 -72.485641 -43.400784
1.789033 -64.980858 -44.320984
0.615734 -56.685314 -45.567657
-3.047069 -57.825245 -46.971611
-7.676212 -49.933796 -49.852737
-11.653677 -42.263355 -52.795467
-11.123042 -71.487617 -45.373695
-6.850972 -5.937109 -64.513565
-9.40145 -3.326544 -66.758804
-8.864308 -9.341716 -63.934467
-16.037224 -69.874748 -44.38171
-16.001539 -63.777351 -46.796658
-20.528307 -55.74474 -48.374836
-16.064484 -56.799313 -49.111538
-15.908419 -49.393059 -51.333698
-15.596308 -42.041618 -53.544415
-15.008171 -34.774292 -55.77737
-18.035213 -26.700003 -59.047825
-14.14992 -27.223017 -58.221031
-12.654007 -20.124052 -60.543137
-10.916285 -14.121056 -62.532845
-7.965026 -15.035209 -60.989983
5.138675 -44.887985 -43.86578
1.780784 -39.488113 -47.077805
-0.235076 -48.601665 -46.975304
-0.895213 -40.709908 -48.668201
-1.398603 -33.27002 -50.595955
-4.035622 -26.768621 -54.203163
-6.255561 -20.72658 -57.71521
-5.532864 -14.918756 -59.731121
-8.868196 -68.909569 -46.30875
-6.791616 -68.867119 -46.21933
-9.180356 -65.132454 -47.167278
-9.184661 -61.739174 -47.874416
-11.580535 -61.177593 -48.155846
-7.947641 7.299314 -70.019516
4.610614 -59.388432 -43.298958
-9.501333 -38.589851 -53.173077
-7.715682 -38.388531 -52.560455
-9.30738 -34.803902 -54.193569
-9.043592 -31.335777 -55.170906
-10.8951 -30.995068 -55.965652
-0.313894 -28.915182 -50.794243
1.41458 -80.154213 -43.014462
-2.082812 -69.388306 -45.260876
0.418884 -72.727486 -44.168541
0.225655 -69.180878 -44.571678
2.212024 -68.793121 -43.858849
-0.218069 -65.318939 -45.091198
-0.825509 -61.315094 -45.719376
-2.788043 -61.6273 -46.394554
-9.472733 -53.914165 -49.492229
-7.463145 -53.843575 -49.023716
-9.630426 -49.951298 -50.38229
-9.657154 -46.075939 -51.289444
-11.738124 -46.125443 -51.780319
-8.754559 -75.393188 -44.576591
-11.018495 -74.744629 -44.306595
-8.030794 1.473084 -68.123993
-9.461782 -0.169651 -68.05896
-8.077904 -1.498571 -66.986488
-8.072165 -4.611405 -65.690643
-6.858318 -3.296299 -65.641991
-20.45392 -65.017265 -44.231689
-18.276924 -68.963867 -43.602409
-18.264578 -66.098114 -44.965599
-16.089151 -66.884857 -45.59623
-18.385418 -62.720352 -46.366329
-22.357233 -48.172939 -50.804646
-22.475016 -51.540051 -49.374207
-20.33695 -52.337257 -49.776516
-18.278963 -56.257652 -48.874928
-18.378965 -52.583817 -50.132149
-16.174675 -53.058712 -50.23698
-18.196682 -49.007175 -51.347927
-19.566303 -37.443657 -55.218647
-17.738365 -41.501339 -53.841896
-17.446541 -38.018055 -54.988239
-15.524817 -38.269047 -54.722
-17.038942 -34.176601 -56.257977
-17.333475 -23.007454 -60.383163
-16.086992 -26.858742 -58.740253
-15.351362 -23.562218 -59.850536
-13.380198 -23.822151 -59.296257
-14.506966 -20.124405 -61.016026
-13.207275 -10.257468 -64.829948
-12.573621 -13.600041 -63.237255
-11.443507 -10.864321 -64.116325
-9.879335 -11.402729 -63.385937
-10.312817 -8.479524 -64.827156
4.737559 -50.149864 -43.826588
4.09701 -46.172024 -44.586105
3.485872 -42.429024 -45.397106
2.166007 -43.02977 -46.310101
-1.617856 -53.342098 -46.987194
0.150432 -52.655785 -46.237511
-1.917423 -49.201855 -47.723881
-4.254978 -37.88015 -51.139179
-2.412089 -41.393795 -49.382904
-2.683875 -37.336884 -50.431309
-1.241956 -36.769386 -49.690746
-2.819561 -33.577686 -51.445652
-2.800595 -29.899485 -52.442337
-4.107867 -30.397272 -53.107018
-8.282699 -24.007294 -57.426285
-6.681116 -23.853331 -56.726383
-7.767795 -20.665674 -58.50082
-7.186303 -17.832533 -59.39785
-8.60975 -17.556103 -60.175407
-2.465732 -19.961924 -55.371304
-3.487518 -17.255354 -57.261753
-4.38977 -14.511329 -59.103313
-4.678249 -17.630632 -58.009796
-3.833673 -76.211472 -44.519989
-1.334983 -76.621651 -44.116459
-4.078916 -72.765564 -45.184956
-4.40976 -69.274391 -45.808556
-4.524995 -65.826317 -46.346069
-4.761484 -61.883659 -46.963612
-7.070065 -61.655396 -47.549168
-9.481711 -57.739536 -48.713139
-11.67665 -53.977001 -49.841969
-8.077204 4.386619 -69.179787
-6.749812 2.59266 -67.890617
-22.331778 -67.049156 -41.599251
-22.326283 -64.477661 -43.189476
-22.552197 -61.458302 -44.69466
-22.236708 -44.503654 -52.280399
-20.173035 -44.924473 -52.51709
-22.027487 -40.735458 -53.766407
-21.557281 -37.356579 -55.103298
-21.181763 -33.683743 -56.500252
-15.353804 -16.356434 -62.709679
-14.95495 -9.628344 -65.432465
5.480403 -54.257038 -43.079388
3.339926 -51.178654 -44.645798
-5.726311 -46.193874 -49.924606
-4.021502 -45.531746 -49.334194
-5.877804 -42.027924 -50.890232
-6.000678 -38.075043 -51.915955
-5.822442 -34.385689 -52.840714
-5.688683 -30.941902 -53.796352
-7.36434 -31.027212 -54.566246
-8.661219 -27.641798 -56.262844
-9.90476 -23.840937 -58.158379
-1.554357 -22.694452 -53.626385
-2.640972 -23.050808 -54.454205
0.749159 -76.46859 -43.667942
3.0146 -76.006126 -43.01355
4.048013 -67.947609 -43.123352
3.546649 -63.962856 -43.591965
2.891646 -60.128643 -44.161541
1.186299 -61.042957 -44.903793
-1.16364 -57.328369 -46.30019
-3.508082 -53.624573 -47.743881
-5.180735 -57.659626 -47.708118
-5.352994 -53.984669 -48.355747
-5.622126 -50.166546 -49.115814
-7.689856 -46.148842 -50.66507
-9.616334 -42.317627 -52.212742
-11.411883 -38.582523 -53.771549
2.475583 -34.816647 -47.12923
-6.333854 -75.93679 -44.650303
-8.734094 -72.284569 -45.465984
-11.303862 -68.182198 -46.338673
-5.337302 3.764224 -67.390007
-5.567104 0.854044 -66.502876
-5.706857 -2.09557 -65.432915
-6.86904 -8.702463 -63.309917
-10.639251 -5.376387 -66.281097
-9.194623 -6.529078 -65.30925
-7.931568 -7.52239 -64.358017
-7.703669 -10.111396 -63.095947
-17.968643 -71.898132 -42.258404
-13.412255 -74.007286 -43.773075
-13.564655 -70.854942 -44.958305
-13.637247 -67.76506 -46.036343
-13.858095 -64.278328 -47.124767
-24.652098 -57.444839 -45.385246
-22.596664 -58.327919 -46.249352
-22.653791 -54.869938 -47.838688
-20.533926 -59.068707 -46.975609
-18.277325 -59.673912 -47.617489
-16.049492 -60.083256 -48.06144
-13.781921 -60.974552 -48.12307
-13.899952 -57.245865 -49.145401
-13.990225 -53.549141 -50.131645
-13.831257 -49.823128 -51.120155
-17.983139 -45.441158 -52.535282
-15.914693 -45.547909 -52.492146
-13.752273 -45.930809 -52.181141
-13.604139 -42.133579 -53.239819
-13.447295 -38.471313 -54.301701
-13.110537 -34.467857 -55.482433
-18.547195 -30.458036 -57.693859
-16.494661 -30.525164 -57.469593
-14.590939 -30.857952 -57.025776
-12.691176 -30.773354 -56.596489
-12.194607 -27.286283 -57.670605
-11.64592 -23.797041 -58.792408
-10.89261 -20.702879 -59.752899
-13.522465 -16.667446 -62.186558
-11.803748 -17.151613 -61.511784
-10.193501 -17.575851 -60.797485
-9.39581 -14.555834 -61.80608
-8.528319 -12.065496 -62.57098
-7.328245 -12.475909 -61.840508
4.506823 -41.14513 -44.642262
2.913307 -38.59074 -46.278206
1.326275 -35.482399 -48.061417
2.522916 -56.273613 -44.648689
1.799828 -52.060284 -45.44521
1.335036 -48.027939 -46.187626
-2.157278 -45.446445 -48.467297
-0.571574 -44.62833 -47.777279
0.942492 -44.173409 -46.95948
0.424161 -40.064941 -47.954445
0.189342 -36.320454 -48.798466
-0.097388 -32.614124 -49.770565
-1.494761 -29.625389 -51.589207
-2.762808 -26.368622 -53.473381
-3.836855 -23.56082 -55.161739
-5.473346 -27.277382 -54.871563
-5.161162 -23.751949 -55.936134
-4.852588 -20.710621 -56.893307
-5.879116 -17.862352 -58.678337
-6.677036 -15.049882 -60.344715
-6.232346 -12.478829 -61.247086
-5.194695 -12.20616 -60.696598
6.349576 -64.669001 -42.092479
5.54072 -65.228327 -42.521574
6.086967 -62.742044 -42.297821
6.349576 -64.669001 -42.092479
4.947463 -61.324787 -43.018713
5.750119 -60.805689 -42.578066
6.086967 -62.742044 -42.297821
0.901841 -29.922739 -49.456112
1.553319 -31.299155 -48.528502
0.377863 -30.332966 -49.865023
0.210085 -28.504955 -50.385332
0.901841 -29.922739 -49.456112
0.163281 -79.973194 -43.27344
1.445494 -81.760822 -42.738321
-11.009877 -76.21753 -43.746384
-9.752406 -76.669727 -43.945
-16.883505 -21.390757 -60.952913
-17.850892 -21.098751 -61.184326
-17.400922 -19.482053 -61.754076
-23.271965 -66.644107 -40.895548
-22.233458 -68.365364 -40.770502
-23.173645 -67.960316 -40.066799
-23.389585 -62.545578 -43.464895
-23.406259 -63.902591 -42.592417
-24.469561 -61.970509 -42.867836
-23.162911 -42.527945 -52.820978
-23.260428 -44.313009 -52.057724
-23.0583 -40.643847 -53.563982
-22.132098 -42.619556 -53.023403
-23.162911 -42.527945 -52.820978
-22.427118 -35.397494 -55.723589
-22.676924 -37.148419 -54.990925
-22.239359 -33.561076 -56.422066
-21.369522 -35.520161 -55.801775
-22.427118 -35.397494 -55.723589
-15.150088 -7.867161 -66.182839
-15.917307 -9.25647 -65.702682
-14.267437 -8.239855 -65.894142
-15.150088 -7.867161 -66.182839
4.740469 -54.719206 -43.501084
5.780876 -56.251829 -42.78859
5.040942 -56.713997 -43.210285
-1.5686 -24.296639 -53.158968
-1.001292 -24.003148 -52.72041
-1.015535 -25.605334 -52.252992
4.814234 -81.184162 -41.894968
5.011952 -82.942195 -41.615114
3.732672 -81.439361 -42.21146
4.612959 -79.429767 -42.127747
4.814234 -81.184162 -41.894968
3.96836 -74.05479 -42.791058
4.126329 -75.815033 -42.597441
2.856631 -74.245883 -43.207167
3.616192 -72.111492 -43.048954
3.96836 -74.05479 -42.791058
3.209684 -36.075322 -46.286952
2.95022 -34.291922 -46.705238
3.684321 -35.550596 -45.86296
-6.168974 -77.596359 -44.212523
-5.014134 -77.674225 -44.233024
-4.831807 2.702854 -66.608933
-4.731321 4.135829 -67.021603
-4.946708 1.247764 -66.165367
-5.452203 2.309134 -66.946441
-4.831807 2.702854 -66.608933
-5.177324 -3.069483 -64.631863
-5.110069 -1.673557 -65.152332
-5.728883 -3.485626 -64.865223
-5.177324 -3.069483 -64.631863
-10.271833 1.917943 -69.087509
-10.315741 3.60825 -69.692955
-10.154419 -2.734657 -67.235164
-10.184586 -1.156211 -67.885243
-9.431616 -1.748098 -67.408882
-10.02035 -4.351465 -66.51995
-10.77332 -3.759578 -66.996311
-10.154419 -2.734657 -67.235164
-19.129706 -69.971706 -42.487984
-18.995094 -71.456604 -41.696909
-20.156157 -69.530178 -41.926489
-15.922441 -71.329696 -43.774818
-17.042292 -70.874256 -43.385168
-17.157074 -69.419308 -43.992059
-14.724739 -71.941017 -44.077393
-14.609957 -73.395965 -43.470501
-15.922441 -71.329696 -43.774818
-24.627865 -55.873817 -46.218302
-25.595729 -55.516333 -45.761364
-23.600148 -56.315357 -46.650355
-23.624381 -57.886379 -45.817299
-24.627865 -55.873817 -46.218302
-19.00977 -26.481126 -59.181568
-18.617309 -24.824425 -59.808434
-18.291204 -28.57902 -58.370842
-19.265761 -28.360143 -58.504585
-19.00977 -26.481126 -59.181568
6.04702 -46.310684 -43.046768
5.531003 -46.972383 -43.447945
5.676645 -44.416441 -43.413502
6.04702 -46.310684 -43.046768
4.822749 -43.016558 -44.254021
5.360718 -42.545013 -43.801743
5.676645 -44.416441 -43.413502
-7.89468 8.703449 -70.344071
-8.724199 8.190016 -70.557857
-7.213503 7.877166 -69.784584
-7.89468 8.703449 -70.344071
-6.513491 6.971594 -69.149597
-7.24763 6.393741 -69.384529
-7.213503 7.877166 -69.784584
-25.489074 -60.035291 -43.157657
-24.469561 -61.970509 -42.867836
5.345982 -58.817526 -42.898375
5.750119 -60.805689 -42.578066
4.305574 -57.284903 -43.610868
5.040942 -56.713997 -43.210285
5.345982 -58.817526 -42.898375
-0.381061 -27.113513 -51.304339
0.210085 -28.504955 -50.385332
-0.948368 -27.407004 -51.742897
-1.015535 -25.605334 -52.252992
-0.381061 -27.113513 -51.304339
2.672484 -81.675804 -42.473034
1.445494 -81.760822 -42.738321
2.474768 -79.91777 -42.752888
3.732672 -81.439361 -42.21146
2.672484 -81.675804 -42.473034
-8.620439 -76.994007 -44.079998
-7.379327 -77.324558 -44.175667
-9.886527 -75.068908 -44.441593
-8.620439 -76.994007 -44.079998
-9.752406 -76.669727 -43.945
-22.416125 -49.856495 -50.089427
-23.467385 -49.516621 -49.845356
-23.408493 -47.833065 -50.560575
-18.266441 -22.97815 -60.476103
-17.850892 -21.098751 -61.184326
-17.684344 -24.853728 -59.715494
-18.617309 -24.824425 -59.808434
-18.266441 -22.97815 -60.476103
5.330445 -49.603323 -43.428348
5.746458 -51.715 -43.038542
5.010171 -47.614403 -43.808107
5.330445 -49.603323 -43.428348
4.417285 -48.160944 -44.206347
4.617843 -45.530005 -44.225943
5.531003 -46.972383 -43.447945
5.010171 -47.614403 -43.808107
-2.43766 -18.301033 -55.953164
-1.977705 -19.682872 -54.997576
-2.948554 -16.947748 -56.898388
-2.43766 -18.301033 -55.953164
-2.976625 -18.608639 -56.316529
-3.388034 -15.703086 -57.800546
-2.948554 -16.947748 -56.898388
-3.938644 -15.883342 -58.182533
-3.83916 -14.331073 -58.721327
-3.388034 -15.703086 -57.800546
-2.584328 -76.416562 -44.318224
-1.2115 -78.206913 -43.824438
-2.460845 -78.001824 -44.026203
-9.498673 4.424309 -69.720802
-10.315741 3.60825 -69.692955
-8.697662 6.677656 -70.13208
-8.724199 8.190016 -70.557857
-8.762443 5.221308 -69.712215
-8.697662 6.677656 -70.13208
-8.012422 5.842966 -69.599651
-8.813434 3.58962 -69.188374
-9.498673 4.424309 -69.720802
-8.762443 5.221308 -69.712215
-21.176662 -69.032116 -41.367333
-22.233458 -68.365364 -40.770502
-21.311273 -67.547218 -42.158408
-20.156157 -69.530178 -41.926489
-21.176662 -69.032116 -41.367333
-23.409007 -65.188339 -41.797305
-23.271965 -66.644107 -40.895548
-22.329031 -65.763408 -42.394363
-23.409007 -65.188339 -41.797305
-23.406259 -63.902591 -42.592417
-23.320691 -46.147651 -51.319847
-23.408493 -47.833065 -50.560575
-22.296971 -46.338296 -51.542523
-23.320691 -46.147651 -51.319847
-23.260428 -44.313009 -52.057724
-22.912026 -38.837858 -54.322479
-23.0583 -40.643847 -53.563982
-21.792384 -39.046019 -54.434853
-22.912026 -38.837858 -54.322479
-22.676924 -37.148419 -54.990925
-16.863855 -17.741472 -62.391846
-17.400922 -19.482053 -61.754076
-16.323989 -16.03266 -62.985354
-15.893669 -18.065247 -62.116171
-16.863855 -17.741472 -62.391846
-15.729398 -14.46553 -63.545872
-16.323989 -16.03266 -62.985354
-15.214094 -12.884264 -64.10045
-14.8385 -14.775168 -63.264257
-15.729398 -14.46553 -63.545872
-15.529971 -11.101485 -64.907265
-15.917307 -9.25647 -65.702682
-14.639073 -11.411123 -64.62565
-15.214094 -12.884264 -64.10045
-15.529971 -11.101485 -64.907265
-13.3936 -8.554417 -65.592884
-14.081112 -9.942906 -65.131206
-14.267437 -8.239855 -65.894142
-12.752646 -7.239727 -66.00771
-12.566322 -8.942778 -65.244774
-13.3936 -8.554417 -65.592884
6.501813 -55.788017 -42.33609
5.780876 -56.251829 -42.78859
6.11788 -53.768587 -42.664942
6.501813 -55.788017 -42.33609
5.108981 -52.203451 -43.452988
5.746458 -51.715 -43.038542
6.11788 -53.768587 -42.664942
-1.05953 -22.325285 -53.237065
-1.001292 -24.003148 -52.72041
-1.522018 -21.049136 -54.125117
-1.05953 -22.325285 -53.237065
-2.010045 -21.328188 -54.498845
-1.977705 -19.682872 -54.997576
-1.522018 -21.049136 -54.125117
0.039798 -78.387932 -43.565461
0.163281 -79.973194 -43.27344
-1.2115 -78.206913 -43.824438
4.352781 -77.592166 -42.388864
4.612959 -79.429767 -42.127747
3.274777 -77.843727 -42.752432
4.352781 -77.592166 -42.388864
4.126329 -75.815033 -42.597441
3.372873 -70.265232 -43.277986
3.616192 -72.111492 -43.048954
2.455343 -70.639381 -43.629817
4.290868 -69.842476 -42.910238
3.372873 -70.265232 -43.277986
3.130019 -68.370365 -43.491101
5.270017 -69.534802 -42.462961
4.290868 -69.842476 -42.910238
4.922572 -67.57156 -42.714016
5.270017 -69.534802 -42.462961
4.671889 -65.579183 -42.948323
4.922572 -67.57156 -42.714016
3.797331 -65.955232 -43.357658
4.41548 -63.611999 -43.165216
5.54072 -65.228327 -42.521574
4.671889 -65.579183 -42.948323
2.256301 -32.832104 -47.625215
2.95022 -34.291922 -46.705238
1.772601 -33.283698 -48.032516
1.553319 -31.299155 -48.528502
2.256301 -32.832104 -47.625215
-3.764044 -77.811566 -44.167867
-2.460845 -78.001824 -44.026203
-5.083763 -76.074131 -44.585146
-3.764044 -77.811566 -44.167867
-5.014134 -77.674225 -44.233024
-7.544206 -75.664989 -44.613447
-6.168974 -77.596359 -44.212523
-7.379327 -77.324558 -44.175667
-5.852248 6.076435 -68.459587
-6.513491 6.971594 -69.149597
-5.247091 5.214462 -67.77982
-4.731321 4.135829 -67.021603
-5.94246 4.626196 -68.069774
-5.852248 6.076435 -68.459587
-5.247091 5.214462 -67.77982
-5.040192 -0.19875 -65.687313
-4.946708 1.247764 -66.165367
-5.63698 -0.620763 -65.967895
-5.040192 -0.19875 -65.687313
-5.110069 -1.673557 -65.152332
-6.304613 -4.08599 -64.969761
-6.282587 -2.695934 -65.537453
-5.728883 -3.485626 -64.865223
-6.30094 -5.406395 -64.405548
-6.854645 -4.616704 -65.077778
-6.304613 -4.08599 -64.969761
-6.354304 -6.786081 -63.841879
-6.30094 -5.406395 -64.405548
-6.363338 -8.168757 -63.240055
-6.860006 -7.319786 -63.911741
-6.354304 -6.786081 -63.841879
-6.432021 -9.52208 -62.686857
-6.363338 -8.168757 -63.240055
-6.419343 -10.543483 -62.223669
-6.856362 -9.723866 -62.846729
-6.432021 -9.52208 -62.686857
-12.116441 -5.948847 -66.417618
-12.752646 -7.239727 -66.00771
-10.227892 0.436807 -68.518509
-10.271833 1.917943 -69.087509
-9.505723 1.311485 -68.62796
-10.227892 0.436807 -68.518509
-10.184586 -1.156211 -67.885243
-11.473382 -4.822996 -66.728366
-10.77332 -3.759578 -66.996311
-11.28231 -6.502237 -65.970348
-12.116441 -5.948847 -66.417618
-11.473382 -4.822996 -66.728366
-17.929868 -73.244281 -41.478699
-18.995094 -71.456604 -41.696909
-16.795728 -73.821877 -42.007439
-17.929868 -73.244281 -41.478699
-16.888151 -72.341388 -42.713166
-18.122784 -70.430999 -42.930407
-17.042292 -70.874256 -43.385168
-16.795728 -73.821877 -42.007439
-16.888151 -72.341388 -42.713166
-13.438707 -75.365478 -43.15379
-14.609957 -73.395965 -43.470501
-12.206757 -75.848858 -43.479624
-13.438707 -75.365478 -43.15379
-12.215375 -74.375957 -44.039835
-11.009877 -76.21753 -43.746384
-12.206757 -75.848858 -43.479624
-25.551387 -58.608511 -44.019628
-25.489074 -60.035291 -43.157657
-25.650993 -57.024183 -44.842095
-25.595729 -55.516333 -45.761364
-24.552492 -59.029167 -44.56278
-25.551387 -58.608511 -44.019628
-25.650993 -57.024183 -44.842095
-23.51842 -51.218699 -49.047091
-23.467385 -49.516621 -49.845356
-23.607808 -52.883642 -48.279331
-23.51842 -51.218699 -49.047091
-22.564403 -53.204994 -48.606448
-23.628712 -54.586366 -47.445023
-23.607808 -52.883642 -48.279331
-22.625228 -56.598928 -47.04402
-23.600148 -56.315357 -46.650355
-23.628712 -54.586366 -47.445023
-21.947541 -31.630322 -57.207219
-22.239359 -33.561076 -56.422066
-20.906672 -31.800725 -57.214241
-21.947541 -31.630322 -57.207219
-19.834798 -31.970618 -57.179257
-20.109889 -33.853636 -56.465268
-20.906672 -31.800725 -57.214241
-19.589388 -30.187871 -57.811045
-19.265761 -28.360143 -58.504585
-18.792605 -32.240783 -57.062071
-19.834798 -31.970618 -57.179257
-19.589388 -30.187871 -57.811045
5.006224 -40.636005 -44.194769
5.360718 -42.545013 -43.801743
4.225305 -39.239563 -45.043469
5.006224 -40.636005 -44.194769
3.428546 -37.962368 -45.861441
4.225305 -39.239563 -45.043469
3.710065 -39.867935 -45.460234
2.694445 -36.703693 -46.703718
3.209684 -36.075322 -46.286952
3.428546 -37.962368 -45.861441
-4.274336 -13.083082 -59.622065
-3.83916 -14.331073 -58.721327
-4.676798 -11.930498 -60.418707
-4.274336 -13.083082 -59.622065
-4.792233 -13.358745 -59.899956
-5.099006 -10.831509 -61.231746
-4.676798 -11.930498 -60.418707
-5.594849 -11.273928 -61.380198
-5.099006 -10.831509 -61.231746
-6.113675 -11.410262 -61.655442
-5.594849 -11.273928 -61.380198
-5.71352 -12.342495 -60.971842
-6.538015 -11.612049 -61.815314
-6.419343 -10.543483 -62.223669
-6.113675 -11.410262 -61.655442
3 1 69 67
3 1 71 69
3 3 266 267
3 3 268 269
3 3 270 272
3 270 73 271
3 270 271 272
3 2 76 74
3 2 78 76
3 4 273 274
3 4 275 277
3 275 79 276
3 275 276 277
3 278 80 279
3 5 83 81
3 5 85 83
3 5 87 85
3 7 90 88
3 7 92 90
3 280 94 281
3 8 97 95
3 8 99 97
3 10 102 100
3 10 104 102
3 11 107 105
3 11 109 107
3 11 111 109
3 12 114 112
3 12 116 114
3 13 282 284
3 282 117 283
3 282 283 284
3 13 119 117
3 13 121 119
3 9 124 122
3 9 126 124
3 15 128 127
3 15 130 128
3 6 133 131
3 16 136 134
3 16 138 136
3 16 140 138
3 14 143 141
3 14 145 143
3 17 147 146
3 17 149 147
3 18 152 150
3 20 153 68
3 20 154 153
3 20 156 154
3 22 157 70
3 22 158 157
3 24 159 72
3 24 160 159
3 285 161 286
3 285 286 287
3 26 288 290
3 288 162 289
3 288 289 290
3 26 163 162
3 291 164 292
3 293 166 294
3 295 294 164
3 293 294 295
3 296 167 297
3 298 168 299
3 300 299 167
3 298 299 300
3 301 170 302
3 304 303 170
3 29 305 307
3 305 171 306
3 305 306 307
3 29 172 171
3 30 175 173
3 32 176 75
3 32 177 176
3 32 179 177
3 34 180 77
3 34 181 180
3 35 308 310
3 308 182 309
3 308 309 310
3 35 183 182
3 36 311 313
3 311 312 313
3 36 314 315
3 19 184 151
3 37 185 82
3 37 316 318
3 318 317 185
3 316 317 318
3 37 319 320
3 38 186 84
3 38 187 186
3 38 189 187
3 40 190 86
3 40 191 190
3 21 192 155
3 41 193 89
3 41 194 193
3 41 195 194
3 42 196 91
3 42 197 196
3 321 198 322
3 321 322 323
3 324 199 325
3 43 200 93
3 43 201 200
3 326 202 327
3 328 203 329
3 330 329 202
3 328 329 330
3 331 204 332
3 334 333 204
3 23 335 336
3 45 337 339
3 339 338 96
3 337 338 339
3 45 340 342
3 340 206 341
3 340 341 342
3 45 207 206
3 44 208 98
3 44 205 208
3 25 343 345
3 343 210 344
3 343 344 345
3 47 346 348
3 348 347 101
3 346 347 348
3 47 349 351
3 349 211 350
3 349 350 351
3 47 212 211
3 48 213 103
3 48 214 213
3 352 215 353
3 354 216 355
3 356 355 215
3 354 355 356
3 49 217 106
3 49 218 217
3 49 219 218
3 50 220 108
3 50 221 220
3 50 222 221
3 51 223 110
3 51 224 223
3 27 225 165
3 52 226 113
3 52 227 226
3 52 228 227
3 53 229 115
3 53 230 229
3 54 357 358
3 54 359 361
3 359 231 360
3 359 360 361
3 54 232 231
3 55 233 118
3 55 234 233
3 55 235 234
3 56 236 120
3 56 237 236
3 28 238 169
3 57 239 123
3 57 240 239
3 57 241 240
3 46 242 125
3 46 209 242
3 59 362 363
3 59 364 365
3 59 366 368
3 366 244 367
3 366 367 368
3 60 245 129
3 60 246 245
3 39 247 188
3 61 248 132
3 61 249 248
3 31 250 174
3 62 251 135
3 62 252 251
3 62 253 252
3 63 254 137
3 63 255 254
3 63 256 255
3 64 257 139
3 64 258 257
3 33 259 178
3 65 260 142
3 65 261 260
3 65 262 261
3 58 263 144
3 58 243 263
3 66 265 148
3 66 264 265
3 67 68 18
3 69 68 67
3 69 20 68
3 69 70 20
3 71 70 69
3 71 22 70
3 369 72 370
3 371 72 372
3 373 24 374
3 375 374 72
3 373 374 375
3 376 26 377
3 73 378 379
3 73 380 382
3 380 29 381
3 380 381 382
3 74 75 30
3 76 75 74
3 76 32 75
3 76 77 32
3 78 77 76
3 78 34 77
3 79 383 384
3 79 385 387
3 385 35 386
3 385 386 387
3 80 388 389
3 80 390 392
3 390 36 391
3 390 391 392
3 81 82 19
3 83 82 81
3 83 37 82
3 83 84 37
3 85 84 83
3 85 38 84
3 85 86 38
3 87 86 85
3 87 40 86
3 88 89 21
3 90 89 88
3 90 41 89
3 90 91 41
3 92 91 90
3 92 42 91
3 393 93 394
3 94 395 397
3 395 93 396
3 395 396 397
3 94 43 93
3 95 96 23
3 97 96 95
3 97 45 96
3 97 98 45
3 99 98 97
3 99 44 98
3 100 101 25
3 102 101 100
3 102 47 101
3 102 103 47
3 104 103 102
3 104 48 103
3 105 398 400
3 398 106 399
3 398 399 400
3 107 106 105
3 107 49 106
3 107 108 49
3 109 108 107
3 109 50 108
3 109 110 50
3 111 110 109
3 111 51 110
3 112 113 27
3 114 113 112
3 114 52 113
3 114 115 52
3 116 115 114
3 116 53 115
3 117 401 402
3 117 403 405
3 403 54 404
3 403 404 405
3 117 118 54
3 119 118 117
3 119 55 118
3 119 120 55
3 121 120 119
3 121 56 120
3 122 123 28
3 124 123 122
3 124 57 123
3 124 125 57
3 126 125 124
3 126 46 125
3 127 406 407
3 128 408 410
3 410 409 127
3 408 409 410
3 128 411 413
3 411 59 412
3 411 412 413
3 128 129 59
3 130 129 128
3 130 60 129
3 131 132 39
3 133 132 131
3 133 61 132
3 134 135 31
3 136 135 134
3 136 62 135
3 136 137 62
3 138 137 136
3 138 63 137
3 138 139 63
3 140 139 138
3 140 64 139
3 141 142 33
3 143 142 141
3 143 65 142
3 143 144 65
3 145 144 143
3 145 58 144
3 146 414 415
3 147 416 418
3 418 417 146
3 416 417 418
3 147 419 420
3 147 421 423
3 421 148 422
3 421 422 423
3 149 148 147
3 149 66 148
3 150 424 426
3 424 151 425
3 424 425 426
3 152 151 150
3 152 19 151
3 68 152 18
3 153 152 68
3 153 19 152
3 153 81 19
3 154 81 153
3 154 5 81
3 154 155 5
3 156 155 154
3 156 21 155
3 70 156 20
3 157 156 70
3 157 21 156
3 157 88 21
3 158 88 157
3 158 7 88
3 427 23 428
3 72 429 430
3 159 431 433
3 433 432 72
3 431 432 433
3 159 434 436
3 434 23 435
3 434 435 436
3 159 95 23
3 160 95 159
3 160 8 95
3 161 437 438
3 161 439 441
3 439 25 440
3 439 440 441
3 442 161 443
3 162 444 446
3 444 161 445
3 444 445 446
3 162 25 161
3 162 100 25
3 163 100 162
3 163 10 100
3 447 105 448
3 164 449 451
3 449 105 450
3 449 450 451
3 164 11 105
3 164 165 11
3 166 165 164
3 166 27 165
3 452 166 453
3 167 454 456
3 454 166 455
3 454 455 456
3 167 27 166
3 167 112 27
3 168 112 167
3 168 12 112
3 457 13 458
3 459 169 460
3 461 460 13
3 459 460 461
3 462 169 463
3 464 28 465
3 466 465 169
3 464 465 466
3 170 467 468
3 170 469 471
3 469 28 470
3 469 470 471
3 170 122 28
3 472 122 473
3 474 473 170
3 472 473 474
3 475 9 476
3 477 476 122
3 475 476 477
3 171 478 479
3 171 480 481
3 171 482 484
3 482 127 483
3 482 483 484
3 172 127 171
3 172 15 127
3 173 174 6
3 175 174 173
3 175 31 174
3 75 175 30
3 176 175 75
3 176 31 175
3 176 134 31
3 177 134 176
3 177 16 134
3 177 178 16
3 179 178 177
3 179 33 178
3 77 179 32
3 180 179 77
3 180 33 179
3 180 141 33
3 181 141 180
3 181 14 141
3 182 485 486
3 182 487 488
3 182 489 491
3 489 146 490
3 489 490 491
3 183 146 182
3 183 17 146
3 151 492 494
3 492 80 493
3 492 493 494
3 184 80 151
3 184 36 80
3 82 184 19
3 185 184 82
3 185 36 184
3 185 495 497
3 497 496 36
3 495 496 497
3 499 498 185
3 84 500 502
3 502 501 37
3 500 501 502
3 186 503 505
3 505 504 84
3 503 504 505
3 186 506 507
3 186 508 509
3 187 510 512
3 512 511 186
3 510 511 512
3 187 513 515
3 513 3 514
3 513 514 515
3 187 188 3
3 189 188 187
3 189 39 188
3 86 189 38
3 190 189 86
3 190 39 189
3 190 131 39
3 191 131 190
3 191 6 131
3 155 87 5
3 192 87 155
3 192 40 87
3 89 192 21
3 193 192 89
3 193 40 192
3 193 191 40
3 194 191 193
3 194 6 191
3 194 173 6
3 195 173 194
3 195 30 173
3 91 195 41
3 196 195 91
3 196 30 195
3 196 74 30
3 197 74 196
3 197 2 74
3 198 516 517
3 198 518 520
3 518 4 519
3 518 519 520
3 521 150 522
3 199 523 525
3 523 150 524
3 523 524 525
3 199 18 150
3 93 526 528
3 526 199 527
3 526 527 528
3 200 199 93
3 200 18 199
3 200 67 18
3 201 67 200
3 201 1 67
3 529 24 530
3 202 531 532
3 202 533 535
3 533 24 534
3 533 534 535
3 202 160 24
3 203 160 202
3 203 8 160
3 536 203 537
3 204 538 540
3 538 203 539
3 538 539 540
3 204 8 203
3 204 99 8
3 541 99 542
3 543 542 204
3 541 542 543
3 544 44 545
3 546 545 99
3 544 545 546
3 547 44 548
3 549 205 550
3 551 550 44
3 549 550 551
3 552 205 553
3 554 0 555
3 556 555 205
3 554 555 556
3 557 9 558
3 96 559 561
3 561 560 23
3 559 560 561
3 563 562 96
3 206 564 565
3 206 566 568
3 566 9 567
3 566 567 568
3 206 126 9
3 207 126 206
3 207 46 126
3 98 207 45
3 208 207 98
3 208 46 207
3 208 209 46
3 205 209 208
3 205 0 209
3 210 569 570
3 210 571 572
3 101 210 25
3 573 210 574
3 575 574 101
3 573 574 575
3 577 576 210
3 211 578 579
3 211 580 581
3 211 582 584
3 582 94 583
3 582 583 584
3 212 94 211
3 212 43 94
3 103 212 47
3 213 212 103
3 213 43 212
3 213 201 43
3 214 201 213
3 214 1 201
3 585 26 586
3 215 587 588
3 215 589 591
3 589 26 590
3 589 590 591
3 215 163 26
3 216 163 215
3 216 10 163
3 106 592 593
3 217 594 596
3 596 595 106
3 594 595 596
3 217 597 598
3 217 599 601
3 599 216 600
3 599 600 601
3 218 216 217
3 218 10 216
3 218 104 10
3 219 104 218
3 219 48 104
3 108 219 49
3 220 219 108
3 220 48 219
3 220 214 48
3 221 214 220
3 221 1 214
3 221 71 1
3 222 71 221
3 222 22 71
3 110 222 50
3 223 222 110
3 223 22 222
3 223 158 22
3 224 158 223
3 224 7 158
3 165 111 11
3 225 111 165
3 225 51 111
3 113 225 27
3 226 225 113
3 226 51 225
3 226 224 51
3 227 224 226
3 227 7 224
3 227 92 7
3 228 92 227
3 228 42 92
3 115 228 52
3 229 228 115
3 229 42 228
3 229 197 42
3 230 197 229
3 230 2 197
3 602 168 603
3 604 168 605
3 606 12 607
3 608 607 168
3 606 607 608
3 231 609 610
3 231 611 613
3 611 12 612
3 611 612 613
3 231 116 12
3 232 116 231
3 232 53 116
3 118 232 54
3 233 232 118
3 233 53 232
3 233 230 53
3 234 230 233
3 234 2 230
3 234 78 2
3 235 78 234
3 235 34 78
3 120 235 55
3 236 235 120
3 236 34 235
3 236 181 34
3 237 181 236
3 237 14 181
3 169 121 13
3 238 121 169
3 238 56 121
3 123 238 28
3 239 238 123
3 239 56 238
3 239 237 56
3 240 237 239
3 240 14 237
3 240 145 14
3 241 145 240
3 241 58 145
3 125 241 57
3 242 241 125
3 242 58 241
3 242 243 58
3 209 243 242
3 209 0 243
3 244 614 615
3 244 616 617
3 129 244 59
3 245 244 129
3 245 618 620
3 620 619 244
3 618 619 620
3 245 621 623
3 621 198 622
3 621 622 623
3 246 198 245
3 246 4 198
3 188 73 3
3 247 73 188
3 247 29 73
3 132 247 39
3 248 247 132
3 248 29 247
3 248 172 29
3 249 172 248
3 249 15 172
3 174 133 6
3 250 133 174
3 250 61 133
3 135 250 31
3 251 250 135
3 251 61 250
3 251 249 61
3 252 249 251
3 252 15 249
3 252 130 15
3 253 130 252
3 253 60 130
3 137 253 62
3 254 253 137
3 254 60 253
3 254 246 60
3 255 246 254
3 255 4 246
3 255 79 4
3 256 79 255
3 256 35 79
3 139 256 63
3 257 256 139
3 257 35 256
3 257 183 35
3 258 183 257
3 258 17 183
3 178 140 16
3 259 140 178
3 259 64 140
3 142 259 33
3 260 259 142
3 260 64 259
3 260 258 64
3 261 258 260
3 261 17 258
3 261 149 17
3 262 149 261
3 262 66 149
3 144 262 65
3 263 262 144
3 263 66 262
3 263 264 66
3 243 264 263
3 243 0 264
3 148 624 625
3 265 626 628
3 628 627 148
3 626 627 628
3 265 629 630
3 265 631 632
3 264 633 635
3 635 634 265
3 633 634 635
3 264 636 638
3 636 0 637
3 636 637 638
