ply
format ascii 1.0
element vertex 441
property float x
property float y
property float z
element face 461
property list uchar int vertex_index
end_header
30.994955 54.374344 -45.654152
25.632113 89.413521 -42.811924
27.416862 97.488976 -32.336323
31.607412 83.952881 -37.061638
24.82262 60.057564 -49.763691
24.343889 40.110817 -48.778278
22.192945 77.413986 -48.906933
29.439291 73.700485 -45.47966
35.411873 37.975952 -38.767632
28.110184 57.738396 -48.044163
24.915897 49.992142 -49.442528
28.023546 47.360214 -47.536873
22.829159 95.744423 -40.258305
21.477091 90.56929 -44.494705
24.075443 83.840958 -46.441017
26.109947 75.874786 -47.629223
27.91448 81.965805 -44.419552
33.143242 75.788567 -38.430576
33.503757 51.229603 -42.696972
30.814995 44.391586 -45.072807
33.287678 41.019852 -42.080727
24.046295 99.690994 -34.920139
26.770506 94.077255 -37.928608
28.89535 87.369049 -40.32159
29.635279 91.400017 -35.05159
21.533321 52.553974 -50.746738
21.145306 42.764221 -50.338455
20.141386 33.457096 -49.73455
27.261927 37.060791 -46.710632
23.860268 69.095352 -49.643829
27.460667 66.965721 -48.12368
30.610626 64.266983 -45.756851
30.816219 79.340439 -41.743805
32.144554 70.433952 -42.731743
33.12397 60.763588 -42.924797
29.563812 56.010357 -46.95565
28.142725 52.577671 -47.85471
29.599045 51.182896 -46.717831
24.421047 92.742065 -41.551613
22.199924 93.332428 -42.478287
23.632814 90.317558 -43.675503
22.809784 87.613541 -45.483536
24.786673 86.938141 -44.758392
25.997536 83.190941 -45.542343
26.741947 85.835358 -43.793594
33.502506 46.117702 -42.404476
26.138294 100.158447 -30.621529
24.434822 101.152328 -32.085796
25.964705 98.600952 -33.705505
25.422731 97.017639 -36.621826
27.072218 95.980782 -35.28619
28.319014 92.876396 -36.50695
28.555101 94.684937 -33.664669
23.058401 60.620899 -50.366348
21.421886 57.076668 -50.831066
23.225677 55.969437 -50.322517
24.681082 45.261635 -49.176758
23.117804 46.637821 -49.943901
22.737225 41.496101 -49.638958
20.732368 38.001175 -50.044174
22.197378 36.538483 -49.294746
30.462154 39.244732 -44.667431
29.076736 40.882362 -46.034321
28.580482 35.388882 -45.507401
23.119493 73.509895 -49.337795
27.890471 74.709412 -46.661285
26.971066 71.59964 -47.885418
28.599699 70.30751 -46.901653
29.128727 65.877716 -46.993347
30.116743 69.338753 -45.632694
30.332991 85.720894 -38.848381
29.999653 83.387375 -41.024494
31.345325 81.679131 -39.418293
33.797474 71.264023 -38.982922
32.706898 73.172417 -40.78112
33.309353 68.588928 -41.114609
32.703964 65.683716 -42.885899
33.890446 63.688347 -41.172451
34.221581 59.052189 -41.300606
36.368977 36.772758 -37.02076
26.467558 58.791035 -49.01778
25.02733 55.202999 -49.635536
26.644598 53.911701 -48.810814
26.53229 48.700047 -48.551121
26.196281 43.808392 -48.264935
21.329954 98.49604 -38.518932
21.954992 84.548866 -47.028275
23.107527 80.689171 -47.840897
24.235041 76.564171 -48.40163
25.146719 79.89183 -47.165707
27.003448 79.201065 -46.179169
28.680634 78.055885 -45.06205
32.681923 81.992996 -35.190109
32.458221 79.849731 -37.76992
33.453663 77.887779 -35.93898
32.315887 52.643478 -44.210903
30.956474 49.24614 -45.416641
32.318535 47.643089 -43.920433
32.072376 42.59103 -43.636356
31.730726 37.384686 -43.170479
34.359062 39.237289 -40.460518
22.965105 103.283493 -30.077606
22.506435 102.021278 -33.040485
21.969336 100.228447 -36.122536
23.457481 97.918961 -37.688511
24.88242 95.20105 -39.116322
26.158886 92.035446 -40.506947
27.386852 88.497841 -41.633953
27.874163 90.942917 -39.172306
29.384119 89.351562 -37.857143
30.700495 87.737679 -36.142956
29.884928 92.844788 -32.168648
32.828926 83.655945 -32.527763
23.296026 51.555119 -50.169823
21.546947 47.821487 -50.549229
19.23246 39.245964 -50.668373
18.737989 34.604477 -50.393917
18.02845 29.895758 -50.092007
29.402214 45.70153 -46.392567
27.528822 41.895893 -47.244884
25.758102 38.496262 -47.83289
25.058571 33.303265 -47.400837
23.6472 35.021027 -48.420208
21.475552 31.453571 -48.888607
22.653254 65.412933 -50.29285
24.478035 64.582169 -49.761036
25.132185 72.711441 -48.702583
25.786932 68.408546 -48.925125
26.193184 63.576321 -49.061352
27.853582 62.367455 -48.153023
29.4877 60.898407 -46.995319
30.873806 59.22863 -45.782345
28.479362 84.655067 -42.539288
29.434788 80.95491 -43.102791
30.230057 76.618881 -43.717335
32.069187 77.40097 -40.243378
31.593531 74.850716 -42.274044
30.921377 72.157349 -44.098663
31.411654 67.45533 -44.429688
31.900808 62.687412 -44.42625
32.1292 57.796497 -44.444763
33.352173 56.28949 -42.890327
29.26652 34.69161 -44.828595
29.521318 37.316807 -45.087416
30.207357 36.619535 -44.408609
21.101286 77.599556 -49.097351
21.58921 79.205521 -48.637051
21.700252 75.644077 -49.333098
21.101286 77.599556 -49.097351
22.656219 75.46194 -49.122364
22.163525 73.692031 -49.548529
21.700252 75.644077 -49.333098
33.853966 67.698868 -40.159914
33.553414 69.926475 -40.048766
34.098027 69.036415 -39.094071
34.144512 65.248577 -40.188835
33.599899 66.138638 -41.14353
33.853966 67.698868 -40.159914
34.365553 62.815943 -40.359644
34.144512 65.248577 -40.188835
36.777428 36.188598 -36.138054
36.826182 38.227362 -36.401022
37.234633 37.643202 -35.518316
36.25935 34.672615 -36.719195
36.777428 36.188598 -36.138054
21.774589 96.00169 -40.573187
21.024986 97.377499 -39.703501
22.079557 97.120231 -39.388618
20.694356 92.073723 -43.821281
21.055772 93.455292 -42.813073
21.838507 91.950859 -43.486496
20.257464 90.733467 -44.719273
20.694356 92.073723 -43.821281
21.014169 89.206665 -45.307533
20.257464 90.733467 -44.719273
33.566811 78.688606 -34.645077
33.067793 79.940387 -35.564544
33.18094 80.741215 -34.270641
34.885468 38.60662 -39.614075
34.923288 40.844532 -39.858418
35.449693 40.213864 -39.011975
23.880961 102.846397 -29.424563
23.188798 103.784157 -28.396535
30.014891 93.325043 -30.62524
29.395502 94.323765 -31.414955
32.38835 85.566391 -32.003861
32.333632 84.736321 -33.457832
20.679625 53.028126 -50.951629
20.623907 55.289473 -50.993793
21.477604 54.815321 -50.788902
20.680777 50.63479 -50.899206
20.679625 53.028126 -50.951629
20.415031 43.433111 -50.607023
20.615851 45.961744 -50.71241
21.346127 45.292854 -50.443842
20.188883 41.005093 -50.503414
19.458607 41.673983 -50.771982
20.415031 43.433111 -50.607023
23.957822 31.690797 -47.702477
24.626054 30.833756 -47.184101
23.252136 32.549678 -48.212162
24.352885 34.162146 -47.910522
23.957822 31.690797 -47.702477
22.166313 30.76595 -48.446362
22.561376 33.237299 -48.654408
23.252136 32.549678 -48.212162
23.256761 67.254143 -49.968339
22.263441 67.604679 -50.211326
22.866948 69.445888 -49.886816
34.32221 56.707611 -41.311594
34.723396 58.130865 -40.441386
34.048502 47.693452 -41.74135
33.503131 48.673653 -42.550724
34.049127 50.249403 -41.887598
33.997608 45.124647 -41.656597
34.048502 47.693452 -41.74135
33.890194 42.575722 -41.494723
33.395092 43.568777 -42.242602
33.997608 45.124647 -41.656597
34.739187 36.275352 -39.366196
35.263031 35.694036 -38.516211
25.286558 100.655387 -31.353662
24.615819 101.780815 -30.428657
25.467555 101.283874 -29.696524
22.240144 58.848783 -50.598707
21.317991 59.333036 -50.815508
22.136249 61.105152 -50.583149
22.49656 71.65316 -49.733799
22.163525 73.692031 -49.548529
23.48988 71.302624 -49.490812
22.866948 69.445888 -49.886816
22.49656 71.65316 -49.733799
34.531121 60.497864 -40.423721
34.056013 61.370268 -41.236529
34.365553 62.815943 -40.359644
34.723396 58.130865 -40.441386
34.531121 60.497864 -40.423721
35.918306 39.476053 -38.154472
35.449693 40.213864 -39.011975
36.396859 38.874456 -37.281036
36.826182 38.227362 -36.401022
35.890425 37.374355 -37.894196
35.918306 39.476053 -38.154472
36.396859 38.874456 -37.281036
35.741583 35.092439 -37.642775
35.263031 35.694036 -38.516211
35.890425 37.374355 -37.894196
35.741583 35.092439 -37.642775
36.25935 34.672615 -36.719195
26.288671 100.677707 -28.938524
25.467555 101.283874 -29.696524
26.935533 99.389038 -29.876652
26.288671 100.677707 -28.938524
27.574818 98.054303 -30.734049
26.777578 98.823712 -31.478926
26.935533 99.389038 -29.876652
28.161469 96.645859 -31.498793
27.574818 98.054303 -30.734049
20.27076 98.544037 -38.890537
20.529648 99.643425 -37.580284
20.27076 98.544037 -38.890537
21.024986 97.377499 -39.703501
21.459971 94.795693 -41.683178
21.774589 96.00169 -40.573187
22.514541 94.538425 -41.368296
21.459971 94.795693 -41.683178
21.055772 93.455292 -42.813073
21.680515 87.728791 -45.801949
21.014169 89.206665 -45.307533
22.143438 89.091415 -44.98912
21.25312 86.196453 -46.574318
21.680515 87.728791 -45.801949
22.382388 86.081204 -46.255905
20.810063 84.531288 -47.304799
21.25312 86.196453 -46.574318
21.470233 82.772961 -47.697722
20.810063 84.531288 -47.304799
22.046501 80.843113 -48.104033
21.470233 82.772961 -47.697722
22.53126 82.619019 -47.434586
22.650236 79.051579 -48.373915
21.58921 79.205521 -48.637051
22.046501 80.843113 -48.104033
33.909258 76.68256 -35.071865
33.566811 78.688606 -34.645077
33.790005 75.736679 -36.311056
33.909258 76.68256 -35.071865
33.634794 74.687073 -37.556854
33.298452 76.838173 -37.184778
33.790005 75.736679 -36.311056
33.961911 72.424801 -37.833027
33.470358 73.526295 -38.706749
33.634794 74.687073 -37.556854
34.307555 70.222488 -37.970122
33.961911 72.424801 -37.833027
34.098027 69.036415 -39.094071
34.307555 70.222488 -37.970122
30.841642 35.689512 -43.660134
30.207357 36.619535 -44.408609
31.09644 38.314709 -43.918955
34.425886 41.68444 -40.684618
34.923288 40.844532 -39.858418
33.82337 40.12857 -41.270623
33.890194 42.575722 -41.494723
34.425886 41.68444 -40.684618
34.212782 36.906021 -40.212639
34.885468 38.60662 -39.614075
34.739187 36.275352 -39.366196
33.624567 37.697786 -41.086111
34.212782 36.906021 -40.212639
33.088875 38.589067 -41.896215
33.82337 40.12857 -41.270623
33.624567 37.697786 -41.086111
32.310399 36.771484 -42.441091
32.509202 39.202269 -42.625603
33.088875 38.589067 -41.896215
31.488394 34.872053 -42.896755
32.310399 36.771484 -42.441091
30.841642 35.689512 -43.660134
31.488394 34.872053 -42.896755
22.247785 104.106346 -29.045828
23.188798 103.784157 -28.396535
21.904871 103.603825 -30.57157
22.247785 104.106346 -29.045828
23.699964 102.217911 -31.081701
23.880961 102.846397 -29.424563
24.615819 101.780815 -30.428657
21.675536 102.972717 -32.05301
21.904871 103.603825 -30.57157
22.73577 102.652386 -31.559045
21.460375 102.238983 -33.507052
21.675536 102.972717 -32.05301
21.191825 101.342568 -35.048077
21.460375 102.238983 -33.507052
22.237885 101.124863 -34.58151
20.849339 100.509628 -36.382086
21.191825 101.342568 -35.048077
21.649645 99.362244 -37.320734
20.529648 99.643425 -37.580284
20.849339 100.509628 -36.382086
28.730588 95.24384 -32.162966
27.985982 96.086956 -33.000496
28.161469 96.645859 -31.498793
29.220014 93.764862 -32.916658
28.730588 95.24384 -32.162966
29.395502 94.323765 -31.414955
30.454729 91.860096 -31.279942
30.014891 93.325043 -30.62524
30.387131 91.192627 -32.734318
30.454729 91.860096 -31.279942
30.262307 90.470242 -34.175789
29.760103 92.122402 -33.610119
30.387131 91.192627 -32.734318
30.794915 88.639072 -34.721472
30.167887 89.568848 -35.597273
30.262307 90.470242 -34.175789
31.269416 86.777187 -35.265428
30.794915 88.639072 -34.721472
31.722874 84.884788 -35.72477
31.153954 85.84528 -36.602297
31.269416 86.777187 -35.265428
32.26013 83.904846 -34.789005
32.144667 82.972938 -36.125873
31.722874 84.884788 -35.72477
32.755425 82.824471 -33.858936
32.26013 83.904846 -34.789005
32.333632 84.736321 -33.457832
33.254442 81.572689 -32.939468
33.18094 80.741215 -34.270641
32.755425 82.824471 -33.858936
32.852226 84.379334 -31.136857
32.38835 85.566391 -32.003861
32.41165 86.28978 -30.612955
33.283865 82.408344 -31.569438
32.852226 84.379334 -31.136857
33.254442 81.572689 -32.939468
33.283865 82.408344 -31.569438
20.520573 57.472538 -51.005257
21.317991 59.333036 -50.815508
20.520573 57.472538 -51.005257
20.623907 55.289473 -50.993793
20.68759 48.268547 -50.800451
20.680777 50.63479 -50.899206
21.540134 50.187731 -50.647983
20.68759 48.268547 -50.800451
20.615851 45.961744 -50.71241
18.464892 39.990105 -50.944349
19.458607 41.673983 -50.771982
18.267672 37.577088 -50.836256
18.464892 39.990105 -50.944349
18.020437 35.256344 -50.699028
18.267672 37.577088 -50.836256
18.985225 36.925221 -50.531145
17.706102 32.958634 -50.588173
18.020437 35.256344 -50.699028
17.351332 30.604274 -50.437218
17.706102 32.958634 -50.588173
18.383219 32.250118 -50.242962
16.997442 28.474321 -50.31909
17.351332 30.604274 -50.437218
28.227598 32.781939 -45.245098
29.26652 34.69161 -44.828595
27.487814 33.609625 -45.919854
28.227598 32.781939 -45.245098
26.828536 34.44558 -46.521469
27.921205 36.224837 -46.109016
27.487814 33.609625 -45.919854
25.726858 32.566817 -46.866572
24.626054 30.833756 -47.184101
26.160249 35.182028 -47.055734
26.828536 34.44558 -46.521469
25.726858 32.566817 -46.866572
21.049787 29.125863 -48.694035
22.166313 30.76595 -48.446362
20.424259 30.055447 -49.126845
21.049787 29.125863 -48.694035
19.757176 31.05721 -49.549816
20.808469 32.455334 -49.311578
20.424259 30.055447 -49.126845
18.700708 29.276541 -49.728544
19.084918 31.676427 -49.913279
19.757176 31.05721 -49.549816
17.6308 27.664704 -49.931734
18.700708 29.276541 -49.728544
16.997442 28.474321 -50.31909
17.6308 27.664704 -49.931734
21.638321 65.697868 -50.492887
22.263441 67.604679 -50.211326
21.933675 63.501169 -50.5464
21.638321 65.697868 -50.492887
22.855828 63.016916 -50.329599
22.136249 61.105152 -50.583149
21.933675 63.501169 -50.5464
33.887507 55.326262 -42.106454
33.786877 57.670839 -42.095467
34.32221 56.707611 -41.311594
33.963299 52.796318 -42.009777
33.427965 53.759546 -42.79365
33.887507 55.326262 -42.106454
34.049127 50.249403 -41.887598
33.963299 52.796318 -42.009777
3 0 37 35
3 1 40 38
3 1 42 40
3 1 44 42
3 2 48 46
3 2 50 48
3 2 52 50
3 4 55 53
3 5 58 56
3 5 60 58
3 142 63 143
3 144 143 61
3 142 143 144
3 6 145 146
3 6 147 148
3 6 149 151
3 149 64 150
3 149 150 151
3 7 67 65
3 7 69 67
3 3 72 70
3 152 75 153
3 154 153 73
3 152 153 154
3 155 77 156
3 157 156 75
3 155 156 157
3 159 158 77
3 160 79 161
3 160 161 162
3 164 163 79
3 9 82 80
3 11 83 36
3 11 84 83
3 12 165 167
3 167 166 85
3 165 166 167
3 13 168 170
3 170 169 39
3 168 169 170
3 13 171 172
3 13 173 174
3 14 86 41
3 14 87 86
3 14 89 87
3 16 90 43
3 16 91 90
3 175 94 176
3 177 176 92
3 175 176 177
3 18 97 95
3 20 98 45
3 20 99 98
3 8 178 180
3 178 100 179
3 178 179 180
3 181 101 182
3 21 102 47
3 21 103 102
3 21 104 103
3 22 105 49
3 22 106 105
3 22 108 106
3 24 109 51
3 24 110 109
3 183 111 184
3 185 112 186
3 25 187 189
3 189 188 54
3 187 188 189
3 25 190 191
3 10 113 81
3 26 114 57
3 26 192 194
3 194 193 114
3 192 193 194
3 26 195 197
3 195 115 196
3 195 196 197
3 27 116 59
3 27 117 116
3 19 118 96
3 28 119 62
3 28 120 119
3 198 121 199
3 200 122 201
3 202 201 121
3 200 201 202
3 203 123 204
3 205 204 122
3 203 204 205
3 29 206 208
3 206 124 207
3 206 207 208
3 29 125 124
3 15 126 88
3 30 127 66
3 30 128 127
3 30 129 128
3 31 130 68
3 31 131 130
3 23 132 107
3 32 133 71
3 32 134 133
3 17 135 93
3 33 136 74
3 33 137 136
3 33 138 137
3 34 139 76
3 34 140 139
3 34 141 140
3 210 209 78
3 35 36 9
3 37 36 35
3 37 11 36
3 38 39 12
3 40 39 38
3 40 13 39
3 40 41 13
3 42 41 40
3 42 14 41
3 42 43 14
3 44 43 42
3 44 16 43
3 211 45 212
3 213 212 18
3 211 212 213
3 214 45 215
3 216 20 217
3 218 217 45
3 216 217 218
3 220 219 8
3 46 221 223
3 221 47 222
3 221 222 223
3 48 47 46
3 48 21 47
3 48 49 21
3 50 49 48
3 50 22 49
3 50 51 22
3 52 51 50
3 52 24 51
3 53 224 226
3 224 54 225
3 224 225 226
3 55 54 53
3 55 25 54
3 56 57 10
3 58 57 56
3 58 26 57
3 58 59 26
3 60 59 58
3 60 27 59
3 61 62 19
3 63 62 61
3 63 28 62
3 64 227 228
3 64 229 231
3 229 29 230
3 229 230 231
3 65 66 15
3 67 66 65
3 67 30 66
3 67 68 30
3 69 68 67
3 69 31 68
3 70 71 23
3 72 71 70
3 72 32 71
3 73 74 17
3 75 74 73
3 75 33 74
3 75 76 33
3 77 76 75
3 77 34 76
3 77 78 34
3 232 78 233
3 234 233 77
3 232 233 234
3 236 235 78
3 237 8 238
3 79 239 240
3 79 241 243
3 241 8 242
3 241 242 243
3 79 244 246
3 246 245 8
3 244 245 246
3 248 247 79
3 249 46 250
3 251 46 252
3 253 2 254
3 255 254 46
3 253 254 255
3 257 256 2
3 80 81 4
3 82 81 80
3 82 10 81
3 36 82 9
3 83 82 36
3 83 10 82
3 83 56 10
3 84 56 83
3 84 5 56
3 85 258 259
3 261 260 85
3 39 262 264
3 264 263 12
3 262 263 264
3 266 265 39
3 41 267 269
3 269 268 13
3 267 268 269
3 86 270 272
3 272 271 41
3 270 271 272
3 86 273 274
3 86 275 276
3 87 277 279
3 279 278 86
3 277 278 279
3 87 280 282
3 280 6 281
3 280 281 282
3 87 88 6
3 89 88 87
3 89 15 88
3 43 89 14
3 90 89 43
3 90 15 89
3 90 65 15
3 91 65 90
3 91 7 65
3 92 93 3
3 94 93 92
3 94 17 93
3 283 94 284
3 285 94 286
3 287 17 288
3 289 288 94
3 287 288 289
3 290 73 291
3 292 291 17
3 290 291 292
3 293 73 294
3 296 295 73
3 95 96 0
3 97 96 95
3 97 19 96
3 45 97 18
3 98 97 45
3 98 19 97
3 98 61 19
3 99 61 98
3 99 297 299
3 299 298 61
3 297 298 299
3 100 300 301
3 100 302 304
3 302 20 303
3 302 303 304
3 305 100 306
3 307 306 8
3 305 306 307
3 308 100 309
3 310 20 311
3 312 311 100
3 310 311 312
3 313 99 314
3 315 314 20
3 313 314 315
3 316 99 317
3 319 318 99
3 101 320 321
3 101 322 323
3 47 324 326
3 324 101 325
3 324 325 326
3 102 101 47
3 102 327 329
3 329 328 101
3 327 328 329
3 102 330 331
3 103 332 334
3 334 333 102
3 332 333 334
3 103 335 336
3 103 337 339
3 337 85 338
3 337 338 339
3 104 85 103
3 104 12 85
3 49 104 21
3 105 104 49
3 105 12 104
3 105 38 12
3 106 38 105
3 106 1 38
3 106 107 1
3 108 107 106
3 108 23 107
3 51 108 22
3 109 108 51
3 109 23 108
3 109 70 23
3 110 70 109
3 110 3 70
3 340 52 341
3 342 341 2
3 340 341 342
3 111 343 345
3 343 52 344
3 343 344 345
3 111 24 52
3 346 111 347
3 348 111 349
3 350 24 351
3 352 351 111
3 350 351 352
3 353 110 354
3 355 354 24
3 353 354 355
3 356 110 357
3 358 3 359
3 360 359 110
3 358 359 360
3 361 92 362
3 363 362 3
3 361 362 363
3 112 364 366
3 364 92 365
3 364 365 366
3 112 367 369
3 369 368 92
3 367 368 369
3 370 112 371
3 370 371 372
3 373 112 374
3 376 375 112
3 54 377 378
3 380 379 54
3 81 55 4
3 113 55 81
3 113 25 55
3 57 113 10
3 114 113 57
3 114 25 113
3 114 381 383
3 383 382 25
3 381 382 383
3 385 384 114
3 115 386 387
3 115 388 389
3 59 115 26
3 116 115 59
3 116 390 392
3 392 391 115
3 390 391 392
3 116 393 394
3 117 395 397
3 397 396 116
3 395 396 397
3 117 398 399
3 96 37 0
3 118 37 96
3 118 11 37
3 62 118 19
3 119 118 62
3 119 11 118
3 119 84 11
3 120 84 119
3 120 5 84
3 400 63 401
3 402 63 403
3 404 28 405
3 406 405 63
3 404 405 406
3 121 407 408
3 121 409 411
3 409 28 410
3 409 410 411
3 121 120 28
3 122 120 121
3 122 5 120
3 122 60 5
3 123 60 122
3 123 27 60
3 412 123 413
3 414 123 415
3 416 27 417
3 418 417 123
3 416 417 418
3 419 117 420
3 421 420 27
3 419 420 421
3 422 117 423
3 425 424 117
3 124 426 427
3 124 428 429
3 124 430 432
3 430 53 431
3 430 431 432
3 125 53 124
3 125 4 53
3 88 64 6
3 126 64 88
3 126 29 64
3 66 126 15
3 127 126 66
3 127 29 126
3 127 125 29
3 128 125 127
3 128 4 125
3 128 80 4
3 129 80 128
3 129 9 80
3 68 129 30
3 130 129 68
3 130 9 129
3 130 35 9
3 131 35 130
3 131 0 35
3 107 44 1
3 132 44 107
3 132 16 44
3 71 132 23
3 133 132 71
3 133 16 132
3 133 91 16
3 134 91 133
3 134 7 91
3 93 72 3
3 135 72 93
3 135 32 72
3 74 135 17
3 136 135 74
3 136 32 135
3 136 134 32
3 137 134 136
3 137 7 134
3 137 69 7
3 138 69 137
3 138 31 69
3 76 138 33
3 139 138 76
3 139 31 138
3 139 131 31
3 140 131 139
3 140 0 131
3 140 95 0
3 141 95 140
3 141 18 95
3 78 141 34
3 433 141 434
3 435 434 78
3 433 434 435
3 436 18 437
3 438 437 141
3 436 437 438
3 440 439 18
