ply
format ascii 1.0
element vertex 314
property float x
property float y
property float z
element face 293
property list uchar int vertex_index
end_header
-34.18716 77.499817 -25.796505
-33.291344 73.481575 0.537523
-35.658127 40.187225 -35.150303
-36.351521 60.144604 -31.192137
-33.959553 77.062492 -12.891117
-35.574638 70.367165 -22.593025
-35.457634 69.480873 -28.675949
-34.917202 68.163582 -34.550934
-33.97094 76.510277 -31.939093
-34.785595 68.031776 -2.786148
-35.184544 69.514633 -9.318459
-33.677223 75.581375 -6.227548
-33.284271 38.094341 -39.477768
-34.873878 48.132446 -38.215523
-35.321484 58.492195 -36.699036
-35.508774 70.194176 -16.176226
-34.187653 77.497581 -19.48634
-32.335674 80.21196 -1.995365
-32.538803 82.57341 -9.055329
-32.68074 83.913574 -15.570352
-34.890678 73.986931 -24.34586
-35.543648 70.065887 -25.655914
-34.841473 73.665375 -27.369709
-34.686474 73.313156 -30.445654
-34.133194 77.048347 -28.853537
-33.994034 71.017067 -1.224492
-34.181366 72.063904 -4.449552
-33.460625 74.762535 -2.785229
-36.658283 41.609745 -32.605888
-35.966171 54.620663 -34.937447
-35.905712 59.553169 -33.968266
-34.151325 71.680458 -36.113361
-34.518795 66.985619 -37.162266
-34.61676 73.200821 -11.259274
-35.393112 69.838142 -12.790357
-34.784767 73.469559 -14.453613
-34.888248 73.727974 -17.778685
-34.135521 77.162216 -16.212961
-32.431824 81.552254 -5.53518
-32.763802 84.132759 -19.0762
-34.353283 52.212273 -39.777328
-33.859699 47.287411 -40.324253
-36.302513 66.286606 -20.717081
-36.236786 66.245102 -23.912889
-36.176731 65.555428 -26.903728
-35.9856 64.801605 -30.033173
-35.643471 64.262085 -32.979923
-35.279716 68.752106 -31.563597
-34.508564 72.389793 -33.329777
-35.751976 65.804565 -7.507118
-34.977951 68.880943 -5.902857
-34.41774 72.690659 -7.875782
-33.817291 76.453506 -9.521272
-33.093952 72.117279 3.831921
-36.259869 45.395386 -34.186905
-35.312916 44.122677 -36.640896
-35.754555 49.388454 -35.91209
-35.222416 53.224716 -37.526497
-34.615643 57.237495 -39.110779
-35.25922 63.284641 -35.534424
-35.969788 66.102669 -10.757677
-36.142864 66.354568 -14.271985
-36.275032 66.285828 -17.511242
-35.638351 69.997482 -19.442211
-34.931229 73.866295 -21.120197
-34.250401 77.399956 -22.715309
-32.629986 75.747681 2.471565
-32.795948 76.941513 -0.644983
-32.966728 78.052826 -4.044972
-33.074097 79.263992 -7.509731
-33.220184 80.033051 -11.078829
-32.60186 83.451263 -12.414474
-33.367363 80.396904 -14.372346
-33.413883 80.909744 -17.580669
-33.510769 80.913261 -21.020777
-33.511574 80.956146 -24.280287
-34.191051 43.228008 -38.978077
-33.642689 72.249321 -0.343484
-33.886843 70.375321 0.452768
-33.535498 71.607574 1.333775
-35.866141 38.294292 -34.231611
-36.366219 39.005552 -32.959404
-36.158205 40.898485 -33.878096
-35.274245 37.590557 -35.4156
-35.866141 38.294292 -34.231611
-35.08559 39.618358 -36.301197
-35.274245 37.590557 -35.4156
-36.644987 58.295741 -30.374759
-36.504864 60.534628 -29.699199
-36.430374 57.872885 -31.784007
-36.644987 58.295741 -30.374759
-36.128616 59.848886 -32.580202
-36.20747 57.577168 -33.172072
-36.430374 57.872885 -31.784007
-33.916369 71.170941 -37.429056
-33.74634 73.371983 -36.769752
-33.856533 51.624049 -40.771523
-34.074465 54.22814 -40.488058
-33.837566 76.229256 -33.334533
-34.106378 74.169014 -34.029875
-34.239752 74.450035 -32.634435
-35.042536 66.166858 -1.874541
-34.634363 67.720645 -1.197377
-35.185205 66.511039 -3.561838
-35.042536 66.166858 -1.874541
-34.881773 68.456359 -4.344502
-35.281383 66.935623 -5.120193
-35.185205 66.511039 -3.561838
-32.665146 35.424329 -39.688961
-33.42012 35.910542 -38.656915
-32.568245 37.409115 -40.395611
-32.665146 35.424329 -39.688961
-33.0084 71.329937 5.338107
-33.316299 70.281182 4.557875
-36.377258 47.922968 -33.779114
-36.645229 46.00452 -32.864628
-36.124601 49.919502 -34.641706
-36.007212 47.39192 -35.049498
-36.377258 47.922968 -33.779114
-34.607591 64.531582 -37.657709
-34.260159 66.414783 -38.321459
-32.352303 76.64013 3.496063
-32.5539 74.983826 4.067511
-32.262974 79.64077 -0.371285
-32.041627 81.258252 -1.035219
-32.565811 78.576737 -1.320174
-32.493111 78.005547 0.303907
-32.262974 79.64077 -0.371285
-32.6413 83.682418 -13.992413
-32.272986 85.121837 -13.100621
-32.312426 85.352993 -14.67856
-33.128317 82.680203 -21.783059
-33.137286 82.52301 -20.048488
-32.754834 84.289952 -20.810771
-33.12872 82.701645 -23.412814
-33.511172 80.934704 -22.650532
-33.128317 82.680203 -21.783059
-33.420261 44.6931 -40.631525
-33.249926 46.536741 -41.284056
-34.238582 69.213291 -0.416549
-33.886843 70.375321 0.452768
-34.389814 69.524421 -2.00532
-34.634363 67.720645 -1.197377
-34.238582 69.213291 -0.416549
-36.818973 39.439787 -31.768771
-37.057306 42.061835 -31.238238
-36.818973 39.439787 -31.768771
-36.366219 39.005552 -32.959404
-33.898663 38.571917 -38.464929
-33.42012 35.910542 -38.656915
-36.2377 55.110914 -33.656662
-36.23041 52.535607 -34.154385
-35.935941 57.086916 -34.452856
-36.2377 55.110914 -33.656662
-36.20747 57.577168 -33.172072
-34.100104 68.823521 -37.953508
-34.33506 69.333039 -36.637814
-33.916369 71.170941 -37.429056
-34.260159 66.414783 -38.321459
-34.100104 68.823521 -37.953508
-32.075516 81.941197 -2.731747
-32.041627 81.258252 -1.035219
-32.123592 82.611344 -4.501654
-32.383749 80.882107 -3.765273
-32.075516 81.941197 -2.731747
-32.148375 83.233116 -6.185503
-32.123592 82.611344 -4.501654
-32.201864 83.743695 -7.945578
-32.485314 82.062832 -7.295255
-32.148375 83.233116 -6.185503
-32.357832 85.479836 -16.327571
-32.312426 85.352993 -14.67856
-32.399363 85.589428 -18.080495
-32.722271 84.023167 -17.323276
-32.357832 85.479836 -16.327571
-32.372591 85.87194 -19.814737
-32.399363 85.589428 -18.080495
-32.754834 84.289952 -20.810771
-32.372591 85.87194 -19.814737
-33.609741 49.161617 -41.044985
-34.106491 49.749842 -40.05079
-33.856533 51.624049 -40.771523
-33.249926 46.536741 -41.284056
-33.609741 49.161617 -41.044985
-36.611124 64.248531 -21.437895
-36.629086 64.337099 -19.797984
-36.57826 64.227779 -23.035799
-36.611124 64.248531 -21.437895
-36.269649 66.265854 -22.314985
-36.536079 63.944794 -24.568592
-36.57826 64.227779 -23.035799
-36.506052 63.599957 -26.064011
-36.536079 63.944794 -24.568592
-36.206758 65.900265 -25.408309
-36.417469 63.24004 -27.554994
-36.506052 63.599957 -26.064011
-36.321903 62.863129 -29.119717
-36.417469 63.24004 -27.554994
-36.081165 65.178517 -28.468451
-36.16856 62.473104 -30.612655
-36.504864 60.534628 -29.699199
-36.321903 62.863129 -29.119717
-33.927759 73.814346 -35.421667
-34.329944 72.035125 -34.721569
-34.106378 74.169014 -34.029875
-33.74634 73.371983 -36.769752
-33.927759 73.814346 -35.421667
-35.668396 65.397434 -5.922324
-36.067621 63.81924 -6.692261
-35.364964 67.342754 -6.704987
-35.668396 65.397434 -5.922324
-35.281383 66.935623 -5.120193
-33.436802 70.925427 2.980974
-33.316299 70.281182 4.557875
-33.192648 72.799427 2.184722
-33.535498 71.607574 1.333775
-33.436802 70.925427 2.980974
-36.844437 44.1117 -32.07412
-37.057306 42.061835 -31.238238
-36.459076 43.502566 -33.396397
-36.844437 44.1117 -32.07412
-36.645229 46.00452 -32.864628
-35.860363 52.004559 -35.424768
-36.124601 49.919502 -34.641706
-36.23041 52.535607 -34.154385
-34.205645 56.740751 -40.154784
-34.074465 54.22814 -40.488058
-34.484463 54.724884 -39.444053
-34.977804 62.681093 -36.843788
-34.889007 65.13513 -36.348345
-34.607591 64.531582 -37.657709
-35.008936 60.28487 -37.426094
-35.290352 60.888418 -36.11673
-34.977804 62.681093 -36.843788
-34.656015 59.65752 -38.631965
-34.968564 57.864845 -37.904908
-35.008936 60.28487 -37.426094
-34.28731 59.205399 -39.832604
-34.656015 59.65752 -38.631965
-34.205645 56.740751 -40.154784
-34.28731 59.205399 -39.832604
-36.169979 64.013063 -8.27531
-36.067621 63.81924 -6.692261
-36.278885 64.162115 -9.90059
-36.169979 64.013063 -8.27531
-35.860882 65.953617 -9.132397
-36.378678 64.224789 -11.570881
-36.278885 64.162115 -9.90059
-36.465215 64.350739 -13.328036
-36.378678 64.224789 -11.570881
-36.056326 66.228619 -12.514831
-36.542823 64.298613 -14.99334
-36.465215 64.350739 -13.328036
-36.608908 64.264242 -16.612969
-36.542823 64.298613 -14.99334
-36.208948 66.320198 -15.891614
-36.615345 64.33671 -18.195065
-36.608908 64.264242 -16.612969
-36.288773 66.286217 -19.114162
-36.629086 64.337099 -19.797984
-36.615345 64.33671 -18.195065
-32.785883 73.168625 4.747688
-33.0084 71.329937 5.338107
-32.861969 73.93248 3.151743
-32.785883 73.168625 4.747688
-32.5539 74.983826 4.067511
-32.410129 77.408631 1.862181
-32.352303 76.64013 3.496063
-32.712967 76.344597 0.913291
-32.410129 77.408631 1.862181
-32.493111 78.005547 0.303907
-32.232156 84.248295 -9.725834
-32.201864 83.743695 -7.945578
-32.263684 84.687221 -11.405406
-32.272986 85.121837 -13.100621
-32.570332 83.012337 -10.734901
-32.232156 84.248295 -9.725834
-32.263684 84.687221 -11.405406
-33.12444 82.63591 -25.067624
-33.12872 82.701645 -23.412814
-33.489525 80.852626 -25.865769
-33.12444 82.63591 -25.067624
-33.827318 79.124462 -26.623879
-33.849367 79.227981 -25.038396
-33.489525 80.852626 -25.865769
-33.800335 78.898727 -28.152394
-34.160177 77.274082 -27.325021
-33.827318 79.124462 -26.623879
-33.729833 78.784336 -29.61562
-33.800335 78.898727 -28.152394
-33.648707 78.515301 -31.158398
-34.052067 76.779312 -30.396315
-33.729833 78.784336 -29.61562
-33.542536 78.214505 -32.711299
-33.648707 78.515301 -31.158398
-33.837566 76.229256 -33.334533
-33.542536 78.214505 -32.711299
-34.912985 41.586084 -37.046493
-35.08559 39.618358 -36.301197
-35.485522 42.154951 -35.8956
-34.352052 41.13875 -38.215084
-34.912985 41.586084 -37.046493
-34.751984 43.675342 -37.809486
-33.737661 40.661175 -39.227922
-33.898663 38.571917 -38.464929
-34.352052 41.13875 -38.215084
-33.585938 42.663398 -39.958437
-34.025375 45.25771 -39.651165
-33.420261 44.6931 -40.631525
-33.132548 40.096565 -40.208282
-33.737661 40.661175 -39.227922
-33.585938 42.663398 -39.958437
-32.568245 37.409115 -40.395611
-33.132548 40.096565 -40.208282
3 0 22 20
3 0 24 22
3 1 77 79
3 77 25 78
3 77 78 79
3 1 27 25
3 2 80 82
3 82 81 28
3 80 81 82
3 2 83 84
3 2 85 86
3 3 87 88
3 3 89 90
3 3 91 93
3 91 30 92
3 91 92 93
3 95 94 31
3 4 35 33
3 4 37 35
3 97 96 40
3 5 43 42
3 6 44 21
3 6 45 44
3 6 47 45
3 8 48 23
3 8 98 100
3 100 99 48
3 98 99 100
3 9 101 102
3 9 103 104
3 9 105 107
3 105 50 106
3 105 106 107
3 11 51 26
3 11 52 51
3 12 108 109
3 12 110 111
3 112 53 113
3 114 54 115
3 116 56 117
3 118 117 54
3 116 117 118
3 14 57 29
3 14 58 57
3 7 59 46
3 120 119 32
3 10 60 49
3 15 61 34
3 15 62 61
3 15 63 62
3 16 64 36
3 16 65 64
3 121 66 122
3 17 123 124
3 17 125 127
3 125 67 126
3 125 126 127
3 17 68 67
3 18 69 38
3 18 70 69
3 19 128 130
3 128 71 129
3 128 129 130
3 19 72 71
3 19 73 72
3 131 74 132
3 133 132 39
3 131 132 133
3 134 75 135
3 136 135 74
3 134 135 136
3 13 76 55
3 138 137 41
3 20 21 5
3 22 21 20
3 22 6 21
3 22 23 6
3 24 23 22
3 24 8 23
3 25 139 140
3 25 141 143
3 141 9 142
3 141 142 143
3 25 26 9
3 27 26 25
3 27 11 26
3 28 144 145
3 147 146 28
3 148 12 149
3 150 29 151
3 30 152 154
3 152 29 153
3 152 153 154
3 30 14 29
3 31 32 7
3 155 32 156
3 157 156 31
3 155 156 157
3 159 158 32
3 33 34 10
3 35 34 33
3 35 15 34
3 35 36 15
3 37 36 35
3 37 16 36
3 160 17 161
3 162 38 163
3 164 163 17
3 162 163 164
3 165 38 166
3 167 18 168
3 169 168 38
3 167 168 169
3 170 19 171
3 172 39 173
3 174 173 19
3 172 173 174
3 175 39 176
3 178 177 39
3 40 41 13
3 179 41 180
3 181 180 40
3 179 180 181
3 183 182 41
3 42 184 185
3 43 186 188
3 188 187 42
3 186 187 188
3 43 189 190
3 21 43 5
3 44 43 21
3 44 191 193
3 193 192 43
3 191 192 193
3 44 194 195
3 45 196 198
3 198 197 44
3 196 197 198
3 45 199 201
3 199 3 200
3 199 200 201
3 45 46 3
3 47 46 45
3 47 7 46
3 23 47 6
3 48 47 23
3 48 7 47
3 48 31 7
3 202 31 203
3 204 203 48
3 202 203 204
3 206 205 31
3 207 49 208
3 50 209 211
3 209 49 210
3 209 210 211
3 50 10 49
3 26 50 9
3 51 50 26
3 51 10 50
3 51 33 10
3 52 33 51
3 52 4 33
3 53 212 213
3 53 214 216
3 214 1 215
3 214 215 216
3 217 28 218
3 54 219 221
3 219 28 220
3 219 220 221
3 54 2 28
3 54 55 2
3 56 55 54
3 56 13 55
3 29 222 224
3 222 56 223
3 222 223 224
3 57 56 29
3 57 13 56
3 57 40 13
3 58 40 57
3 58 225 227
3 227 226 40
3 225 226 227
3 46 30 3
3 59 30 46
3 59 14 30
3 32 59 7
3 228 59 229
3 230 229 32
3 228 229 230
3 231 14 232
3 233 232 59
3 231 232 233
3 234 58 235
3 236 235 14
3 234 235 236
3 237 58 238
3 240 239 58
3 49 241 242
3 60 243 245
3 245 244 49
3 243 244 245
3 60 246 247
3 34 60 10
3 61 60 34
3 61 248 250
3 250 249 60
3 248 249 250
3 61 251 252
3 62 253 255
3 255 254 61
3 253 254 255
3 62 256 257
3 62 258 260
3 258 42 259
3 258 259 260
3 63 42 62
3 63 5 42
3 36 63 15
3 64 63 36
3 64 5 63
3 64 20 5
3 65 20 64
3 65 0 20
3 261 53 262
3 66 263 265
3 263 53 264
3 263 264 265
3 66 1 53
3 266 66 267
3 67 268 270
3 268 66 269
3 268 269 270
3 67 1 66
3 67 27 1
3 68 27 67
3 68 11 27
3 38 68 17
3 69 68 38
3 69 11 68
3 69 52 11
3 70 52 69
3 70 4 52
3 271 18 272
3 71 273 274
3 71 275 277
3 275 18 276
3 275 276 277
3 71 70 18
3 72 70 71
3 72 4 70
3 72 37 4
3 73 37 72
3 73 16 37
3 39 73 19
3 74 73 39
3 74 16 73
3 74 65 16
3 75 65 74
3 75 0 65
3 278 75 279
3 280 75 281
3 282 0 283
3 284 283 75
3 282 283 284
3 285 24 286
3 287 286 0
3 285 286 287
3 288 24 289
3 290 8 291
3 292 291 24
3 290 291 292
3 293 8 294
3 296 295 8
3 55 297 299
3 299 298 2
3 297 298 299
3 76 300 302
3 302 301 55
3 300 301 302
3 76 303 305
3 303 12 304
3 303 304 305
3 41 76 13
3 306 76 307
3 308 307 41
3 306 307 308
3 309 12 310
3 311 310 76
3 309 310 311
3 313 312 12
