ply
format ascii 1.0
element vertex 617
property float x
property float y
property float z
element face 730
property list uchar int vertex_index
end_header
-20.932058 -56.087105 -20.02438
-16.575109 -62.446892 -32.293568
-14.461926 -37.684673 -31.60664
-15.756681 -87.258865 -34.401756
-21.414686 -44.609932 -20.934381
-18.20752 -47.9744 -26.23209
-20.65406 -96.706924 -27.292664
-22.330656 -85.880119 -26.576414
-10.660212 -48.886456 -38.201885
-10.898592 -61.805645 -38.74511
-21.292746 -73.068146 -25.844028
-19.339605 -60.029488 -25.888914
-14.979403 -49.184036 -32.005592
-17.252865 -75.573921 -33.167027
-9.450857 -73.842491 -39.524006
-20.285074 -41.054153 -23.573526
-7.698593 -41.340847 -41.149689
-7.791169 -47.397781 -41.401192
-4.828001 -39.383305 -44.439568
-21.375542 -61.962879 -19.396452
-20.936401 -64.533592 -22.559935
-20.159922 -58.415081 -22.91493
-16.313063 -42.887398 -29.143559
-16.703354 -48.825539 -29.008694
-14.497495 -43.310581 -31.828531
-12.360336 -43.123436 -34.952835
-12.124 -37.494144 -34.596733
-18.422976 -92.716064 -31.165417
-16.227722 -97.03656 -31.5135
-13.880604 -92.295906 -34.755791
-10.809888 -86.135124 -37.689796
-19.138731 -68.089226 -29.188356
-19.742313 -74.656525 -29.597338
-17.125031 -68.918205 -32.614697
-7.038153 -59.72694 -41.725544
-10.48 -67.909874 -39.049583
-20.95747 -50.173771 -20.51984
-19.747822 -52.296391 -23.178526
-19.726803 -46.359829 -23.542246
-18.348915 -42.286186 -26.201212
-16.692936 -37.491707 -28.869761
-21.910589 -91.548729 -27.094776
-19.704453 -87.303192 -30.573189
-13.646776 -55.960278 -35.294994
-14.111869 -62.310497 -35.530373
-10.865894 -55.092682 -38.526669
-7.708489 -53.701511 -41.493649
-20.253742 -66.519852 -25.957144
-18.286215 -61.740097 -29.058355
-18.598183 -53.901291 -26.079086
-17.352793 -55.226883 -29.075733
-15.778894 -55.703659 -32.100464
-12.905939 -49.157032 -35.200829
-10.15792 -42.502815 -38.007824
-21.892677 -59.336086 -16.494352
-21.979851 -53.476734 -17.184826
-22.59761 -47.702843 -17.680405
-18.510265 -100.780144 -27.213907
-21.990774 -79.724236 -26.280697
-19.916735 -81.190826 -30.187141
-16.767408 -81.77935 -33.855625
-14.207091 -68.971558 -35.942856
-13.712633 -75.351883 -36.547565
-12.593347 -81.036415 -37.18689
-7.656379 -79.027176 -40.08329
-6.363271 -37.759575 -42.57954
-6.305643 -40.581055 -42.797871
-4.982109 -36.600807 -44.26125
-21.092827 -59.05191 -19.761852
-20.795156 -60.270473 -21.236414
-20.501822 -57.097664 -21.521257
-15.399191 -40.21529 -30.382389
-15.369299 -42.909 -30.515291
-14.267151 -40.308304 -31.905655
-13.224238 -40.284054 -33.331291
-13.271041 -37.643181 -33.109188
-17.147179 -90.014519 -32.883121
-16.284019 -92.522789 -33.065372
-14.826644 -89.755798 -34.718559
-12.475408 -89.266037 -36.257881
-13.451009 -86.817162 -36.082664
-17.8643 -65.282333 -30.818516
-18.291666 -68.793037 -30.864559
-16.811989 -65.693512 -32.542168
-21.169771 -47.306866 -20.684996
-20.39086 -48.391689 -22.015455
-20.511677 -45.737732 -22.247477
-19.280407 -41.564472 -24.932091
-18.594637 -39.504807 -26.196165
-17.585287 -39.911659 -27.494249
-17.8515 -37.276409 -27.469843
-23.342838 -87.743927 -24.567961
-23.253902 -90.717056 -24.741653
-22.308605 -88.852852 -26.690329
-20.9013 -89.543068 -28.85808
-21.166494 -86.690285 -28.603838
-12.212186 -52.471405 -36.671833
-12.287104 -55.396145 -36.939537
-10.743895 -51.842186 -38.40757
-6.277355 -46.531689 -42.886848
-7.81196 -50.458946 -41.431019
-20.214725 -62.512146 -24.223236
-20.628351 -65.617775 -24.289478
-19.79497 -63.290821 -25.875294
-19.333326 -64.218704 -27.509958
-18.892067 -60.979908 -27.40773
-19.025873 -50.150982 -24.712029
-19.126862 -52.905552 -24.699474
-18.291239 -50.702911 -26.262653
-15.901281 -49.258873 -30.47345
-16.954227 -51.942314 -29.091892
-16.19173 -52.327755 -30.584137
-16.595594 -55.446129 -30.604361
-15.362678 -52.463013 -32.058372
-14.340109 -52.360714 -33.6735
-13.970863 -49.172031 -33.610291
-11.082416 -39.891201 -36.307491
-11.277216 -42.96944 -36.498878
-9.95146 -39.502735 -37.862514
-8.691544 -38.927059 -39.553383
-22.695301 -51.916668 -15.764826
-22.207912 -50.618458 -17.492605
-19.678596 -98.833504 -27.3337
-13.739519 -96.609589 -33.298012
-22.195551 -75.246323 -24.108192
-22.640213 -78.529495 -24.180038
-21.720446 -76.546204 -26.009121
-18.659367 -75.442909 -31.385361
-19.893919 -78.0215 -29.895489
-18.58736 -78.567101 -31.772825
-18.54052 -81.857162 -31.987946
-17.160315 -78.94812 -33.435112
-12.57311 -62.12352 -37.176888
-14.073483 -65.492851 -35.855618
-12.482464 -65.465096 -37.4123
-9.975579 -70.915695 -39.321178
-12.150687 -71.692177 -37.772743
-11.570338 -74.66349 -38.146584
-13.214932 -78.23436 -36.884254
-11.003132 -77.717873 -38.388958
-10.13306 -80.154655 -38.731964
-8.51925 -76.390923 -39.88578
-21.789347 -41.923893 -21.09049
-20.827066 -43.087223 -22.293118
-23.213634 -84.68856 -24.45204
-9.190685 -45.134857 -39.634136
-9.248404 -48.113167 -39.834526
-7.834178 -44.455067 -41.217522
-6.249998 -43.432846 -42.926018
-4.734184 -42.61866 -44.441265
-21.142439 -63.226299 -21.011946
-20.497204 -61.430786 -22.777954
-19.764133 -59.137276 -24.360815
-17.327513 -45.275162 -27.653221
-17.442654 -48.30669 -27.639412
-16.471994 -45.820679 -29.056816
-15.623482 -46.100319 -30.447001
-14.668897 -46.108089 -31.954475
-13.718508 -46.249756 -33.451618
-13.381064 -43.062782 -33.441982
-12.135638 -40.041344 -34.828419
-10.946214 -37.21376 -36.165707
-19.578358 -94.747108 -29.368839
-18.566141 -96.969032 -29.538586
-17.352131 -94.989922 -31.458075
-15.098165 -94.728622 -33.247536
-12.480987 -94.083038 -34.961243
-9.617765 -88.325668 -37.841232
-20.268089 -70.715614 -27.561176
-20.66787 -73.997719 -27.673836
-19.484419 -71.43634 -29.370575
-18.502384 -72.161011 -31.147856
-17.237831 -72.322845 -32.894176
-8.953876 -60.792675 -40.333176
-10.671221 -64.756172 -38.942528
-8.627194 -63.77634 -40.466354
-8.433457 -67.033607 -40.459522
-7.640601 -69.857513 -40.786942
-6.866558 -72.703033 -41.002407
-20.866425 -53.096149 -20.329636
-20.354792 -54.16256 -21.690708
-20.301014 -51.210346 -21.891764
-19.693048 -49.357285 -23.337734
-18.940317 -47.174927 -24.895828
-19.9217 -43.686409 -23.608946
-19.069723 -44.234013 -24.900324
-18.19297 -44.984974 -26.26166
-17.361866 -42.627998 -27.619337
-16.518526 -40.274891 -28.890738
-15.593947 -37.627205 -30.208632
-22.360041 -95.973877 -25.050158
-21.359621 -94.248795 -27.286331
-20.258919 -92.115814 -29.293579
-19.128727 -89.990479 -30.970417
-17.828505 -87.365814 -32.5947
-15.145644 -59.127144 -33.76886
-15.379721 -62.259693 -33.958847
-13.839079 -58.964676 -35.468739
-12.401284 -58.601009 -37.116325
-10.959164 -58.574551 -38.6105
-9.333726 -51.29047 -39.937172
-9.3461 -54.693581 -40.041553
-9.319484 -57.93121 -40.090019
-7.503763 -56.722126 -41.554264
-21.72337 -72.083908 -24.040312
-21.391882 -67.499069 -22.425068
-21.193932 -68.856728 -24.072691
-20.784771 -69.742653 -25.860188
-19.797867 -67.414299 -27.545923
-18.722483 -64.865105 -29.108154
-17.431574 -61.931854 -30.771881
-19.855761 -55.189487 -23.158684
-19.421455 -56.128521 -24.508331
-18.932062 -57.064636 -26.018909
-17.667038 -51.552795 -27.634098
-17.988943 -54.584671 -27.579657
-18.369772 -57.557789 -27.531097
-17.802464 -58.348122 -29.027931
-17.100025 -58.796234 -30.554188
-16.119091 -58.921116 -32.268578
-14.754063 -55.711182 -33.705235
-13.321709 -52.480186 -35.183395
-11.812364 -49.03389 -36.709999
-12.603438 -46.142879 -35.109131
-11.528109 -45.903446 -36.614483
-10.437547 -45.758015 -38.088734
-9.018455 -42.021435 -39.499084
-7.593148 -38.433243 -41.005962
-21.595858 -60.539894 -17.954439
-21.419855 -57.695156 -18.363031
-21.869284 -56.443481 -16.841021
-21.40106 -54.922878 -18.591015
-21.501579 -52.068554 -18.831944
-21.726021 -49.185959 -19.047895
-22.025377 -46.256817 -19.335556
-22.960104 -44.861694 -18.075373
-17.428446 -99.120293 -29.425869
-22.933664 -81.659401 -24.430567
-22.192379 -82.875366 -26.479107
-20.899126 -77.223534 -28.012869
-21.098984 -80.533249 -28.23456
-21.142494 -83.652725 -28.508629
-19.904095 -84.220032 -30.362686
-18.264381 -84.722946 -32.297852
-16.277 -84.561882 -34.204288
-15.57011 -65.808731 -34.196873
-15.7354 -69.11348 -34.355015
-15.742469 -72.372185 -34.606426
-12.503695 -68.695885 -37.471157
-14.117677 -72.37484 -36.164967
-15.713305 -75.570984 -34.790451
-15.413129 -78.752327 -35.115692
-14.735068 -81.560982 -35.619049
-14.189392 -84.224419 -35.864094
-11.957954 -83.700714 -37.365536
-9.356012 -82.695488 -38.878082
-6.725537 -81.515305 -40.183002
-5.963199 -75.064865 -41.228783
-5.112843 -77.574158 -41.313877
-5.001581 -35.263954 -44.198121
-5.67269 -37.180191 -43.420395
-5.692162 -35.843338 -43.357265
-4.35503 -34.727698 -45.029786
-5.001581 -35.263954 -44.198121
-18.809557 -38.250282 -26.13248
-19.135064 -39.260323 -25.518711
-18.437989 -37.136083 -26.769319
-18.223069 -38.390608 -26.833004
-18.809557 -38.250282 -26.13248
-6.22604 -48.082971 -42.885627
-5.428256 -46.078825 -43.646942
-9.878678 -38.160345 -37.78746
-10.516938 -39.696968 -37.085003
-10.444156 -38.354578 -37.009949
-9.280165 -37.886816 -38.601252
-9.878678 -38.160345 -37.78746
-23.137566 -51.092867 -15.005854
-22.907567 -52.575983 -14.874219
-22.875059 -50.601872 -15.888243
-23.137566 -51.092867 -15.005854
-20.166328 -97.770214 -27.313182
-20.570939 -98.619713 -26.262004
-21.058671 -97.556423 -26.241486
-13.004611 -97.549774 -33.163857
-12.464032 -96.331356 -34.016524
-21.518161 -41.125763 -21.724824
-22.018835 -40.746629 -21.106336
-23.521712 -84.111488 -23.393989
-23.667446 -85.581039 -23.374609
-4.089739 -38.908915 -45.212168
-4.04283 -40.526592 -45.213017
-4.781092 -41.000982 -44.440416
-21.25899 -62.594589 -20.204199
-21.421617 -64.046976 -20.120395
-21.538169 -63.415266 -19.312648
-12.509483 -91.790173 -35.606358
-11.809675 -92.683739 -35.709084
-13.180796 -93.189472 -34.858517
-9.555521 -85.613381 -38.348557
-8.959459 -86.708652 -38.424274
-10.213826 -87.230396 -37.765514
-7.245764 -66.371094 -41.195179
-7.500278 -64.937967 -41.144888
-6.849336 -67.783046 -41.358889
-8.037029 -68.44556 -40.623232
-7.245764 -66.371094 -41.195179
-6.464581 -69.270554 -41.441193
-6.849336 -67.783046 -41.358889
-23.033643 -95.380443 -23.914176
-22.749421 -96.638485 -23.914716
-22.376686 -92.411652 -26.106192
-23.048343 -91.995815 -24.929631
-22.582245 -91.132892 -25.918214
-21.635105 -92.898762 -27.190554
-22.101202 -93.761685 -26.20197
-22.376686 -92.411652 -26.106192
-21.837464 -71.408062 -23.152995
-22.119502 -73.051956 -23.120103
-21.164141 -66.016331 -22.492501
-21.494666 -66.93747 -21.581646
-21.266925 -65.454731 -21.649079
-7.500972 -37.015898 -40.98267
-8.142346 -38.680151 -40.279672
-8.05017 -37.262806 -40.25638
-6.896116 -36.619018 -41.793663
-7.500972 -37.015898 -40.98267
-21.744267 -59.93799 -17.224395
-21.817802 -61.335809 -17.051856
-21.966211 -60.733906 -16.321813
-21.924568 -54.960107 -17.012923
-22.135116 -55.614669 -16.179092
-22.190399 -54.131296 -16.350994
-23.186959 -43.524681 -18.206326
-23.491138 -44.172089 -17.37446
-22.661257 -44.164823 -18.86756
-23.186959 -43.524681 -18.206326
-18.892823 -101.513077 -26.068748
-19.505926 -100.602166 -26.151981
-17.776848 -101.603466 -27.162732
-18.892823 -101.513077 -26.068748
-5.140032 -73.058056 -41.776097
-6.414879 -73.883949 -41.115595
-5.591711 -71.87714 -41.662909
-3.797516 -76.868935 -41.863947
-4.227284 -75.552082 -41.884546
-4.580005 -78.801377 -41.33115
-3.797516 -76.868935 -41.863947
-4.284515 -36.090653 -45.076401
-4.207461 -37.481901 -45.16556
-4.905055 -37.992056 -44.350409
-4.284515 -36.090653 -45.076401
-4.35503 -34.727698 -45.029786
-6.802625 -61.284633 -41.777899
-5.995356 -59.080174 -42.416256
-19.477949 -40.290155 -24.886674
-19.782741 -41.309313 -24.252809
-19.980283 -40.034996 -24.207391
-18.937522 -40.534639 -25.564128
-19.477949 -40.290155 -24.886674
-19.135064 -39.260323 -25.518711
-23.29837 -89.230491 -24.654807
-23.697755 -89.996437 -23.678736
-23.742223 -88.509873 -23.59189
-6.993342 -50.0466 -42.157713
-7.044657 -48.495317 -42.158934
-6.22604 -48.082971 -42.885627
-6.941607 -51.667883 -42.189028
-7.760224 -52.080229 -41.462334
-6.993342 -50.0466 -42.157713
-6.790499 -53.186878 -42.224115
-6.941607 -51.667883 -42.189028
-8.650206 -37.598978 -39.446686
-9.321502 -39.214897 -38.707949
-9.280165 -37.886816 -38.601252
-8.05017 -37.262806 -40.25638
-8.650206 -37.598978 -39.446686
-22.110661 -59.948423 -15.515437
-21.966211 -60.733906 -16.321813
-22.548125 -53.351263 -15.640994
-22.907567 -52.575983 -14.874219
-22.337576 -52.696701 -16.474826
-22.190399 -54.131296 -16.350994
-22.548125 -53.351263 -15.640994
-22.631365 -49.952766 -16.752133
-22.451607 -51.267563 -16.628715
-22.875059 -50.601872 -15.888243
-22.826214 -48.494959 -16.846032
-22.402761 -49.160651 -17.586505
-22.631365 -49.952766 -16.752133
-20.090091 -99.628846 -26.211877
-20.570939 -98.619713 -26.262004
-19.094431 -99.806824 -27.273803
-19.505926 -100.602166 -26.151981
-20.090091 -99.628846 -26.211877
-14.324356 -97.730969 -32.373484
-15.568458 -97.944454 -31.481228
-14.983621 -96.823074 -32.405756
-14.324356 -97.730969 -32.373484
-13.004611 -97.549774 -33.163857
-22.417882 -76.887909 -24.144115
-22.843515 -77.879452 -23.140801
-22.621184 -76.237865 -23.104878
-21.03702 -41.707428 -22.326138
-21.308206 -42.505558 -21.691804
-21.518161 -41.125763 -21.724824
-20.766025 -40.690893 -22.966342
-20.55607 -42.070688 -22.933322
-21.03702 -41.707428 -22.326138
-20.522528 -39.748867 -23.546759
-20.766025 -40.690893 -22.966342
-19.980283 -40.034996 -24.207391
-20.522528 -39.748867 -23.546759
-23.732048 -87.108722 -23.432569
-23.742223 -88.509873 -23.59189
-23.278236 -86.216243 -24.510001
-23.732048 -87.108722 -23.432569
-23.667446 -85.581039 -23.374609
-4.65667 -44.12231 -44.42415
-5.428256 -46.078825 -43.646942
-5.505769 -44.575175 -43.664057
-3.910025 -42.01839 -45.209944
-4.65667 -44.12231 -44.42415
-3.910025 -42.01839 -45.209944
-4.04283 -40.526592 -45.213017
-4.089739 -38.908915 -45.212168
-4.207461 -37.481901 -45.16556
-21.369944 -64.801085 -20.875085
-21.421617 -64.046976 -20.120395
-21.03942 -63.879945 -21.78594
-21.266925 -65.454731 -21.649079
-21.369944 -64.801085 -20.875085
-10.376054 -37.015857 -36.939056
-10.444156 -38.354578 -37.009949
-11.014315 -38.552481 -36.236599
-11.834765 -95.068081 -34.848139
-12.464032 -96.331356 -34.016524
-13.110253 -95.346314 -34.129627
-11.064796 -93.672588 -35.698822
-11.834765 -95.068081 -34.848139
-11.064796 -93.672588 -35.698822
-11.809675 -92.683739 -35.709084
-11.806885 -90.275238 -36.357402
-12.509483 -91.790173 -35.606358
-13.178006 -90.780971 -35.506836
-10.378064 -89.805053 -37.149078
-11.806885 -90.275238 -36.357402
-11.046587 -88.795852 -37.049556
-8.985031 -89.235805 -37.856906
-10.378064 -89.805053 -37.149078
-8.285309 -87.579292 -38.501182
-8.985031 -89.235805 -37.856906
-8.285309 -87.579292 -38.501182
-8.959459 -86.708652 -38.424274
-7.597146 -63.309333 -41.148304
-7.832674 -61.75164 -41.095949
-6.802625 -61.284633 -41.777899
-8.530326 -65.404973 -40.462938
-7.597146 -63.309333 -41.148304
-7.500278 -64.937967 -41.144888
-6.077559 -70.693314 -41.548925
-7.25358 -71.280273 -40.894675
-6.464581 -69.270554 -41.441193
-5.591711 -71.87714 -41.662909
-6.077559 -70.693314 -41.548925
-21.911662 -97.189899 -25.120233
-22.749421 -96.638485 -23.914716
-21.50705 -96.340401 -26.171411
-21.058671 -97.556423 -26.241486
-21.911662 -97.189899 -25.120233
-23.638261 -91.439933 -23.745571
-23.697755 -89.996437 -23.678736
-23.638261 -91.439933 -23.745571
-23.048343 -91.995815 -24.929631
-22.601412 -94.624225 -25.083883
-23.033643 -95.380443 -23.914176
-21.859831 -95.111336 -26.168245
-22.601412 -94.624225 -25.083883
-22.101202 -93.761685 -26.20197
-6.688136 -54.697186 -42.254423
-7.606126 -55.211819 -41.523956
-6.790499 -53.186878 -42.224115
-6.512352 -56.220064 -42.266634
-6.688136 -54.697186 -42.254423
-6.279547 -57.722471 -42.352274
-7.270958 -58.224533 -41.639904
-6.512352 -56.220064 -42.266634
-5.995356 -59.080174 -42.416256
-6.279547 -57.722471 -42.352274
-22.355593 -74.633163 -23.154043
-22.621184 -76.237865 -23.104878
-21.95946 -73.665115 -24.074252
-22.355593 -74.633163 -23.154043
-22.119502 -73.051956 -23.120103
-21.741609 -68.534344 -21.537424
-21.494666 -66.93747 -21.581646
-21.67172 -69.115643 -22.345373
-21.741609 -68.534344 -21.537424
-21.572745 -69.794472 -23.169185
-21.67172 -69.115643 -22.345373
-21.292907 -68.177898 -23.24888
-21.458651 -70.470318 -24.056501
-21.837464 -71.408062 -23.152995
-21.572745 -69.794472 -23.169185
-6.281177 -36.282184 -42.580452
-6.97821 -38.096409 -41.792751
-6.896116 -36.619018 -41.793663
-5.692162 -35.843338 -43.357265
-6.281177 -36.282184 -42.580452
-21.615615 -62.721968 -18.514921
-21.538169 -63.415266 -19.312648
-21.725773 -62.010475 -17.793914
-21.817802 -61.335809 -17.051856
-21.4857 -61.251386 -18.675446
-21.615615 -62.721968 -18.514921
-21.725773 -62.010475 -17.793914
-22.097195 -58.485798 -15.76725
-22.110661 -59.948423 -15.515437
-22.315179 -59.098135 -14.788335
-22.085499 -57.039495 -15.940584
-22.135116 -55.614669 -16.179092
-21.88098 -57.889784 -16.667687
-22.097195 -58.485798 -15.76725
-22.085499 -57.039495 -15.940584
-23.053615 -47.01721 -17.019772
-22.826214 -48.494959 -16.846032
-23.234862 -45.596636 -17.217256
-23.491138 -44.172089 -17.37446
-22.778857 -46.282269 -17.877889
-23.053615 -47.01721 -17.019772
-23.234862 -45.596636 -17.217256
-22.193894 -44.862385 -19.497652
-22.492741 -45.559255 -18.705464
-22.661257 -44.164823 -18.86756
-21.888548 -44.038943 -20.297064
-21.720031 -45.433374 -20.134968
-22.193894 -44.862385 -19.497652
-22.075879 -42.695923 -20.375119
-21.602016 -43.266913 -21.012435
-21.888548 -44.038943 -20.297064
-22.304773 -41.38996 -20.455575
-22.075879 -42.695923 -20.375119
-22.018835 -40.746629 -21.106336
-22.304773 -41.38996 -20.455575
-18.149951 -36.034126 -27.327235
-18.437989 -37.136083 -26.769319
-17.53974 -36.082813 -28.022128
-18.149951 -36.034126 -27.327235
-16.960458 -36.190462 -28.722087
-17.272218 -37.384058 -28.169802
-17.53974 -36.082813 -28.022128
-16.309293 -36.207825 -29.464517
-16.960458 -36.190462 -28.722087
-15.759799 -36.275574 -30.133952
-16.143442 -37.559456 -29.539197
-16.309293 -36.207825 -29.464517
-15.124626 -36.409691 -30.849746
-15.759799 -36.275574 -30.133952
-14.558616 -36.438425 -31.54875
-15.027936 -37.655939 -30.907636
-15.124626 -36.409691 -30.849746
-13.894573 -36.405653 -32.329252
-14.558616 -36.438425 -31.54875
-13.299131 -36.384907 -33.080527
-13.866484 -37.663927 -32.357914
-13.894573 -36.405653 -32.329252
-12.701435 -36.303657 -33.80546
-13.299131 -36.384907 -33.080527
-12.127914 -36.229139 -34.549233
-12.69752 -37.568663 -33.852961
-12.701435 -36.303657 -33.80546
-11.543183 -36.140422 -35.284603
-12.127914 -36.229139 -34.549233
-10.95429 -36.000231 -36.06909
-11.535107 -37.353952 -35.38122
-11.543183 -36.140422 -35.284603
-10.361622 -35.751314 -36.839291
-10.95429 -36.000231 -36.06909
-10.376054 -37.015857 -36.939056
-10.361622 -35.751314 -36.839291
-16.16882 -98.986321 -30.437413
-16.828084 -98.078427 -30.469684
-15.568458 -97.944454 -31.481228
-16.739405 -99.958877 -29.394231
-16.16882 -98.986321 -30.437413
-17.280314 -100.788803 -28.28825
-17.969355 -99.950219 -28.319888
-16.739405 -99.958877 -29.394231
-17.776848 -101.603466 -27.162732
-17.280314 -100.788803 -28.28825
-23.046625 -79.438076 -23.218703
-22.843515 -77.879452 -23.140801
-23.193351 -81.003029 -23.343967
-23.046625 -79.438076 -23.218703
-22.786938 -80.094448 -24.305302
-23.381727 -82.596908 -23.383253
-23.193351 -81.003029 -23.343967
-23.073649 -83.17398 -24.441304
-23.521712 -84.111488 -23.393989
-23.381727 -82.596908 -23.383253
-8.828582 -83.893563 -38.9427
-9.555521 -85.613381 -38.348557
-10.08295 -84.415306 -38.283939
-7.513345 -83.303471 -39.59516
-8.828582 -83.893563 -38.9427
-8.040774 -82.105396 -39.530542
-6.112445 -82.584408 -40.228206
-7.513345 -83.303471 -39.59516
-4.652462 -74.297436 -41.841999
-5.140032 -73.058056 -41.776097
-5.538021 -76.319512 -41.27133
-4.652462 -74.297436 -41.841999
-4.227284 -75.552082 -41.884546
-5.386352 -80.77195 -40.765712
-5.91919 -79.544731 -40.74844
-4.580005 -78.801377 -41.33115
-6.112445 -82.584408 -40.228206
-5.386352 -80.77195 -40.765712
3 259 67 260
3 261 260 65
3 259 260 261
3 263 262 67
3 0 70 68
3 2 73 71
3 2 75 73
3 3 78 76
3 3 80 78
3 1 83 81
3 4 86 84
3 264 88 265
3 266 90 267
3 268 267 88
3 266 267 268
3 7 93 91
3 7 95 93
3 8 98 96
3 270 269 99
3 11 103 101
3 11 105 103
3 5 108 106
3 12 111 109
3 12 113 111
3 12 115 113
3 271 118 272
3 273 272 116
3 271 272 273
3 275 274 118
3 276 120 277
3 279 278 120
3 6 280 282
3 280 122 281
3 280 281 282
3 284 283 123
3 10 126 124
3 13 129 127
3 13 131 129
3 9 134 132
3 14 137 135
3 14 139 137
3 14 141 139
3 286 285 142
3 287 144 288
3 16 147 145
3 18 148 66
3 18 149 148
3 18 289 291
3 291 290 149
3 289 290 291
3 19 292 294
3 292 150 293
3 292 293 294
3 21 151 69
3 21 152 151
3 22 155 153
3 24 156 72
3 24 157 156
3 24 159 157
3 26 160 74
3 26 161 160
3 27 164 162
3 29 165 77
3 29 166 165
3 29 295 297
3 297 296 166
3 295 296 297
3 30 167 79
3 30 298 300
3 300 299 167
3 298 299 300
3 31 170 168
3 33 171 82
3 33 172 171
3 34 175 173
3 301 176 302
3 303 177 304
3 305 304 176
3 303 304 305
3 307 306 177
3 36 181 179
3 38 182 85
3 38 183 182
3 15 184 143
3 39 185 87
3 39 186 185
3 39 187 186
3 40 188 89
3 40 189 188
3 308 190 309
3 41 310 312
3 312 311 92
3 310 311 312
3 41 313 315
3 313 191 314
3 313 314 315
3 41 192 191
3 42 193 94
3 42 194 193
3 43 197 195
3 45 198 97
3 45 199 198
3 17 200 146
3 46 201 100
3 46 202 201
3 46 203 202
3 316 204 317
3 20 318 320
3 318 205 319
3 318 319 320
3 47 206 102
3 47 207 206
3 47 208 207
3 48 209 104
3 48 210 209
3 37 211 180
3 49 212 107
3 49 213 212
3 23 214 154
3 50 215 110
3 50 216 215
3 50 217 216
3 51 218 112
3 51 219 218
3 51 220 219
3 52 221 114
3 52 222 221
3 25 223 158
3 53 224 117
3 53 225 224
3 53 226 225
3 321 227 322
3 323 322 119
3 321 322 323
3 325 324 227
3 54 326 328
3 326 228 327
3 326 327 328
3 54 229 228
3 55 329 331
3 329 230 330
3 329 330 331
3 55 231 230
3 55 232 231
3 56 233 121
3 56 234 233
3 332 235 333
3 335 334 235
3 57 336 337
3 57 338 339
3 28 236 163
3 58 237 125
3 58 238 237
3 32 239 169
3 59 240 128
3 59 241 240
3 59 242 241
3 60 243 130
3 60 244 243
3 44 245 196
3 61 246 133
3 61 247 246
3 35 248 174
3 62 249 136
3 62 250 249
3 62 251 250
3 63 252 138
3 63 253 252
3 63 254 253
3 64 255 140
3 64 256 255
3 340 257 341
3 342 341 178
3 340 341 342
3 343 258 344
3 346 345 258
3 65 66 16
3 67 66 65
3 67 18 66
3 67 347 349
3 349 348 18
3 347 348 349
3 351 350 67
3 68 69 19
3 70 69 68
3 70 21 69
3 71 72 22
3 73 72 71
3 73 24 72
3 73 74 24
3 75 74 73
3 75 26 74
3 76 77 27
3 78 77 76
3 78 29 77
3 78 79 29
3 80 79 78
3 80 30 79
3 81 82 31
3 83 82 81
3 83 33 82
3 353 352 34
3 84 85 36
3 86 85 84
3 86 38 85
3 354 87 355
3 356 355 15
3 354 355 356
3 88 357 359
3 357 87 358
3 357 358 359
3 88 39 87
3 88 89 39
3 90 89 88
3 90 40 89
3 91 360 362
3 360 92 361
3 360 361 362
3 93 92 91
3 93 41 92
3 93 94 41
3 95 94 93
3 95 42 94
3 96 97 43
3 98 97 96
3 98 45 97
3 99 100 17
3 363 100 364
3 365 364 99
3 363 364 365
3 366 46 367
3 368 367 100
3 366 367 368
3 370 369 46
3 101 102 20
3 103 102 101
3 103 47 102
3 103 104 47
3 105 104 103
3 105 48 104
3 106 107 37
3 108 107 106
3 108 49 107
3 109 110 23
3 111 110 109
3 111 50 110
3 111 112 50
3 113 112 111
3 113 51 112
3 113 114 51
3 115 114 113
3 115 52 114
3 116 117 25
3 118 117 116
3 118 53 117
3 118 119 53
3 371 119 372
3 373 372 118
3 371 372 373
3 375 374 119
3 376 54 377
3 120 378 379
3 120 380 382
3 380 55 381
3 380 381 382
3 120 121 55
3 383 121 384
3 385 384 120
3 383 384 385
3 386 56 387
3 388 387 121
3 386 387 388
3 122 389 390
3 122 391 393
3 391 57 392
3 391 392 393
3 123 394 396
3 396 395 28
3 394 395 396
3 398 397 123
3 124 399 401
3 399 125 400
3 399 400 401
3 126 125 124
3 126 58 125
3 127 128 32
3 129 128 127
3 129 59 128
3 129 130 59
3 131 130 129
3 131 60 130
3 132 133 44
3 134 133 132
3 134 61 133
3 135 136 35
3 137 136 135
3 137 62 136
3 137 138 62
3 139 138 137
3 139 63 138
3 139 140 63
3 141 140 139
3 141 64 140
3 142 143 4
3 402 143 403
3 404 403 142
3 402 403 404
3 405 15 406
3 407 406 143
3 405 406 407
3 408 15 409
3 411 410 15
3 412 91 413
3 144 414 416
3 414 91 415
3 414 415 416
3 144 7 91
3 145 146 8
3 147 146 145
3 147 17 146
3 66 147 16
3 148 147 66
3 148 17 147
3 148 99 17
3 149 99 148
3 149 417 419
3 419 418 99
3 417 418 419
3 149 420 421
3 423 422 149
3 425 424 18
3 150 426 427
3 150 428 430
3 428 20 429
3 428 429 430
3 69 150 19
3 151 150 69
3 151 20 150
3 151 101 20
3 152 101 151
3 152 11 101
3 153 154 5
3 155 154 153
3 155 23 154
3 72 155 22
3 156 155 72
3 156 23 155
3 156 109 23
3 157 109 156
3 157 12 109
3 157 158 12
3 159 158 157
3 159 25 158
3 74 159 24
3 160 159 74
3 160 25 159
3 160 116 25
3 161 116 160
3 161 431 433
3 433 432 116
3 431 432 433
3 162 163 6
3 164 163 162
3 164 28 163
3 77 164 27
3 165 164 77
3 165 28 164
3 165 123 28
3 166 123 165
3 166 434 436
3 436 435 123
3 434 435 436
3 166 437 438
3 440 439 166
3 79 441 443
3 443 442 29
3 441 442 443
3 167 444 446
3 446 445 79
3 444 445 446
3 167 447 448
3 167 449 450
3 452 451 167
3 168 169 10
3 170 169 168
3 170 32 169
3 82 170 31
3 171 170 82
3 171 32 170
3 171 127 32
3 172 127 171
3 172 13 127
3 173 174 9
3 175 174 173
3 175 35 174
3 453 175 454
3 455 454 34
3 453 454 455
3 176 456 458
3 456 175 457
3 456 457 458
3 176 35 175
3 176 135 35
3 177 135 176
3 177 14 135
3 177 178 14
3 459 178 460
3 461 460 177
3 459 460 461
3 463 462 178
3 179 180 0
3 181 180 179
3 181 37 180
3 85 181 36
3 182 181 85
3 182 37 181
3 182 106 37
3 183 106 182
3 183 5 106
3 143 86 4
3 184 86 143
3 184 38 86
3 87 184 15
3 185 184 87
3 185 38 184
3 185 183 38
3 186 183 185
3 186 5 183
3 186 153 5
3 187 153 186
3 187 22 153
3 89 187 39
3 188 187 89
3 188 22 187
3 188 71 22
3 189 71 188
3 189 2 71
3 190 464 465
3 190 466 468
3 466 6 467
3 466 467 468
3 92 469 470
3 472 471 92
3 473 190 474
3 191 475 477
3 475 190 476
3 475 476 477
3 191 6 190
3 191 162 6
3 192 162 191
3 192 27 162
3 94 192 41
3 193 192 94
3 193 27 192
3 193 76 27
3 194 76 193
3 194 3 76
3 195 196 1
3 197 196 195
3 197 44 196
3 97 197 43
3 198 197 97
3 198 44 197
3 198 132 44
3 199 132 198
3 199 9 132
3 146 98 8
3 200 98 146
3 200 45 98
3 100 200 17
3 201 200 100
3 201 45 200
3 201 199 45
3 202 199 201
3 202 9 199
3 202 173 9
3 203 173 202
3 203 34 173
3 478 203 479
3 480 479 46
3 478 479 480
3 481 203 482
3 483 34 484
3 485 484 203
3 483 484 485
3 487 486 34
3 488 124 489
3 204 490 492
3 490 124 491
3 490 491 492
3 204 10 124
3 205 493 494
3 205 495 496
3 102 205 20
3 206 205 102
3 206 497 499
3 499 498 205
3 497 498 499
3 206 500 502
3 500 204 501
3 500 501 502
3 207 204 206
3 207 10 204
3 207 168 10
3 208 168 207
3 208 31 168
3 104 208 47
3 209 208 104
3 209 31 208
3 209 81 31
3 210 81 209
3 210 1 81
3 180 70 0
3 211 70 180
3 211 21 70
3 107 211 37
3 212 211 107
3 212 21 211
3 212 152 21
3 213 152 212
3 213 11 152
3 154 108 5
3 214 108 154
3 214 49 108
3 110 214 23
3 215 214 110
3 215 49 214
3 215 213 49
3 216 213 215
3 216 11 213
3 216 105 11
3 217 105 216
3 217 48 105
3 112 217 50
3 218 217 112
3 218 48 217
3 218 210 48
3 219 210 218
3 219 1 210
3 219 195 1
3 220 195 219
3 220 43 195
3 114 220 51
3 221 220 114
3 221 43 220
3 221 96 43
3 222 96 221
3 222 8 96
3 158 115 12
3 223 115 158
3 223 52 115
3 117 223 25
3 224 223 117
3 224 52 223
3 224 222 52
3 225 222 224
3 225 8 222
3 225 145 8
3 226 145 225
3 226 16 145
3 119 226 53
3 227 226 119
3 227 16 226
3 227 65 16
3 503 65 504
3 505 504 227
3 503 504 505
3 507 506 65
3 508 19 509
3 228 510 511
3 228 512 514
3 512 19 513
3 512 513 514
3 228 68 19
3 229 68 228
3 229 0 68
3 515 54 516
3 515 516 517
3 230 518 519
3 230 520 522
3 520 54 521
3 520 521 522
3 230 229 54
3 231 229 230
3 231 0 229
3 231 179 0
3 232 179 231
3 232 36 179
3 121 232 55
3 233 232 121
3 233 36 232
3 233 84 36
3 234 84 233
3 234 4 84
3 523 56 524
3 235 525 526
3 235 527 529
3 527 56 528
3 527 528 529
3 235 234 56
3 530 234 531
3 532 531 235
3 530 531 532
3 533 4 534
3 535 534 234
3 533 534 535
3 536 142 537
3 538 537 4
3 536 537 538
3 539 142 540
3 542 541 142
3 543 90 544
3 545 90 546
3 547 40 548
3 549 548 90
3 547 548 549
3 550 40 551
3 552 189 553
3 554 553 40
3 552 553 554
3 555 189 556
3 557 2 558
3 559 558 189
3 557 558 559
3 560 2 561
3 562 75 563
3 564 563 2
3 562 563 564
3 565 75 566
3 567 26 568
3 569 568 75
3 567 568 569
3 570 26 571
3 572 161 573
3 574 573 26
3 572 573 574
3 575 161 576
3 578 577 161
3 163 122 6
3 236 122 163
3 236 57 122
3 579 236 580
3 581 580 28
3 579 580 581
3 582 236 583
3 584 57 585
3 586 585 236
3 584 585 586
3 588 587 57
3 125 589 590
3 237 591 593
3 593 592 125
3 591 592 593
3 237 594 595
3 237 596 598
3 596 144 597
3 596 597 598
3 238 144 237
3 238 7 144
3 169 126 10
3 239 126 169
3 239 58 126
3 128 239 32
3 240 239 128
3 240 58 239
3 240 238 58
3 241 238 240
3 241 7 238
3 241 95 7
3 242 95 241
3 242 42 95
3 130 242 59
3 243 242 130
3 243 42 242
3 243 194 42
3 244 194 243
3 244 3 194
3 196 83 1
3 245 83 196
3 245 33 83
3 133 245 44
3 246 245 133
3 246 33 245
3 246 172 33
3 247 172 246
3 247 13 172
3 174 134 9
3 248 134 174
3 248 61 134
3 136 248 35
3 249 248 136
3 249 61 248
3 249 247 61
3 250 247 249
3 250 13 247
3 250 131 13
3 251 131 250
3 251 60 131
3 138 251 62
3 252 251 138
3 252 60 251
3 252 244 60
3 253 244 252
3 253 3 244
3 253 80 3
3 254 80 253
3 254 30 80
3 140 254 63
3 255 254 140
3 255 30 254
3 255 599 601
3 601 600 30
3 599 600 601
3 256 602 604
3 604 603 255
3 602 603 604
3 256 605 606
3 178 141 14
3 257 141 178
3 257 64 141
3 607 257 608
3 258 609 611
3 609 257 610
3 609 610 611
3 258 64 257
3 258 256 64
3 612 256 613
3 614 613 258
3 612 613 614
3 616 615 256
