ply
format ascii 1.0
element vertex 574
property float x
property float y
property float z
element face 692
property list uchar int vertex_index
end_header
30.062569 16.553286 43.195202
29.875109 14.859743 58.33123
28.680504 -8.791149 47.526157
28.89456 -12.63067 65.377419
23.470007 -33.060814 69.955742
27.720547 13.365429 65.822296
29.563591 0.713356 62.044571
27.179058 -0.824224 69.090874
28.238106 -21.957628 50.663063
28.205482 -18.7806 41.847904
29.407101 5.062095 45.154213
29.650637 2.034346 53.338844
29.247784 -11.238466 56.518913
28.558199 -23.56164 60.023567
25.601391 -12.920989 71.48719
27.062794 -23.812483 68.241486
29.008778 -4.522088 39.68182
30.007164 13.634071 40.981323
25.472921 12.315516 68.185219
27.50609 6.196564 67.570625
25.259048 5.363174 69.702103
28.130913 -27.950592 52.507671
29.861057 8.973483 51.656353
29.927902 8.334947 56.221424
29.327812 -6.156971 63.735912
29.590677 -5.739565 59.543068
29.317705 -12.261396 61.173195
28.980986 -17.54443 58.447803
28.908365 -18.127968 62.787304
25.064476 -23.441971 71.003448
25.451115 -28.699968 69.379601
27.087461 -29.049854 66.117683
29.019955 -1.787791 46.231754
29.101227 0.182462 42.309631
28.656271 -6.927646 43.437244
29.154881 14.199371 62.411175
29.729336 7.547205 60.296513
28.962538 6.934903 64.410622
28.715515 0.05369 66.111794
28.350782 -6.81755 67.606606
28.410606 -15.479771 48.857655
28.304506 -13.964599 44.669449
28.10449 -20.45023 46.130817
30.059568 16.263596 46.045815
29.76532 11.417317 44.106777
29.763445 10.142307 47.58297
29.48103 3.535767 49.03693
29.166908 -3.526078 50.342873
29.763292 1.239056 57.687588
29.449636 -4.726768 54.908833
28.93461 -10.385562 52.00592
28.708546 -16.821257 53.641556
28.479013 -22.892418 55.316704
28.192005 -28.864904 57.145351
24.733124 -1.184563 71.029083
26.542534 -6.946466 70.432327
27.744286 -12.651102 68.893806
26.678368 -18.336227 70.078804
28.222563 -18.34071 66.850853
28.179289 -23.762646 64.520493
27.930573 -29.172211 62.021481
29.571609 7.192861 41.666473
28.513748 -11.763564 40.746346
30.029514 15.382855 42.179028
25.431469 8.812898 68.948959
29.953598 11.671432 57.302197
29.128117 -9.319344 64.648232
29.384657 -9.236359 62.428921
29.189291 -12.237556 63.411983
29.13912 -15.206285 61.972683
28.955048 -15.328976 64.166733
23.253036 -30.446123 70.825569
24.282211 -28.334387 70.641205
24.480156 -30.88887 69.778831
25.551821 -31.390188 68.345825
24.666958 -33.496426 68.730278
28.846087 -5.268698 46.908699
28.805391 -4.60809 44.807911
28.626007 -8.017879 45.447437
28.522741 13.79896 64.256554
29.052813 10.772587 63.455238
28.445461 10.266507 65.178604
27.377195 2.521766 68.359169
28.191889 3.063789 66.956108
28.036869 -0.337223 67.726364
28.586016 -3.383439 66.805649
27.889746 -3.810384 68.368645
26.829231 16.456823 66.169258
27.815277 16.956766 64.809799
28.607718 17.257328 63.237343
28.325041 -18.584995 49.756786
28.227608 -17.921047 47.43021
28.144951 -21.273241 48.271656
29.920576 13.487783 46.824772
29.947088 13.002459 48.779922
29.757698 5.616694 52.517643
29.689447 6.365846 50.326302
29.563942 2.799961 51.177032
29.313229 -0.071336 49.649319
29.424845 -0.728488 51.802879
29.646048 4.201982 61.202694
29.798052 4.364909 59.050331
29.7173 0.744221 59.926006
29.46316 -8.36112 58.042297
29.557728 -5.234995 57.257992
29.354431 -8.143294 55.796753
29.207113 -7.484741 53.401691
29.102806 -10.725699 54.179855
28.826504 -13.601125 52.860889
28.978006 -14.216537 55.086922
28.791769 -20.559006 59.186226
28.715899 -20.393837 56.829147
28.552031 -23.376419 57.726551
28.344521 -25.936296 56.275505
28.364847 -26.179329 58.687729
25.328949 -7.25319 71.415863
26.132841 -10.09233 71.001572
27.198412 -9.6612 69.813477
26.788277 -12.762494 70.355034
26.250999 -23.646353 69.672768
25.954441 -21.089293 70.541962
26.926394 -21.087172 69.233719
27.534742 -18.413157 68.646828
27.685003 -21.17975 67.606438
28.215271 -21.298014 65.780441
27.696852 -24.006117 66.503654
27.066669 -31.635185 64.899933
27.603485 -29.129402 64.126724
27.525721 -31.762981 62.85297
27.845558 -31.619434 60.625179
29.600285 8.439708 44.650372
29.66218 9.381569 42.936611
29.452951 6.085652 43.37714
28.995747 -2.507544 41.109268
29.264629 1.285128 40.661671
29.269409 -1.02036 39.29763
28.217178 -16.370989 43.143578
28.367683 -12.779483 42.607941
28.34025 -15.310931 41.190193
26.683306 12.863054 67.1604
27.626442 9.843101 66.704567
26.533527 9.376626 68.043251
26.533001 5.814049 68.726257
26.344486 2.308637 69.490952
28.177227 -25.057579 51.629955
28.096039 -24.366922 49.228382
28.06838 -27.506666 50.058075
29.987438 12.552746 50.861332
30.016075 12.131033 52.893967
29.91444 8.648474 53.857796
29.825687 5.368667 54.663078
29.460503 -2.825285 62.919521
29.631668 -2.613153 60.879715
29.529549 -5.875524 61.693462
29.474335 -8.938545 60.296429
29.327578 -11.828459 58.816914
29.123278 -14.480131 57.450783
29.182106 -14.939495 59.792332
28.997969 -17.910778 60.631767
28.75428 -20.894814 61.435261
23.736511 -23.038511 71.948196
24.083059 -25.698977 71.336075
25.374023 -26.14506 70.156586
26.310808 -26.494184 68.813118
27.067125 -26.493649 67.277817
26.354404 -29.123198 67.83474
26.458313 -31.493044 66.657822
29.21047 1.700122 45.591709
29.229288 2.557148 43.720051
29.004868 -1.097848 44.196068
28.866329 -3.41142 42.905235
28.779144 -5.731852 41.530987
29.586946 14.543675 60.457935
29.782108 11.32215 59.564747
29.497263 10.995356 61.557568
29.422398 7.497044 62.458935
29.351303 3.75398 63.26564
28.314718 6.449021 66.163132
28.840614 3.388529 65.32119
29.234322 0.45608 64.168228
29.108418 -2.935666 64.983864
28.946142 -6.309189 65.747055
28.725403 -9.588573 66.489494
28.537741 -12.188941 48.238323
28.475315 -11.260719 46.12674
28.335157 -14.598533 46.679832
28.187643 -17.23461 45.338108
28.111877 -19.75231 44.047905
28.046965 -23.80965 46.760223
28.055973 -22.882643 44.611828
28.127657 -22.048231 42.47488
30.050653 16.427753 44.452549
29.932396 14.376741 43.578354
29.906857 13.831663 45.082832
29.750071 10.796534 45.802387
29.575989 7.292041 46.446918
29.816006 9.727766 49.610416
29.622766 6.823244 48.360561
29.413696 4.010958 47.119305
29.239594 0.757574 47.589909
29.078587 -2.599353 48.289074
28.928448 -6.058114 48.972286
29.875792 8.219736 58.278362
29.842733 4.741008 56.919456
29.735855 1.775765 55.51091
29.686588 -2.232908 58.672916
29.646524 -1.918414 56.452766
29.564186 -1.121575 54.194733
29.324244 -3.881054 52.636532
29.063845 -6.797381 51.248474
28.799728 -9.398879 49.73867
28.661047 -12.935065 50.48502
28.553684 -16.113989 51.268841
28.448294 -19.405619 52.083126
28.873386 -17.243586 56.134007
28.604496 -19.769905 54.464725
28.364742 -22.546967 53.116581
28.271669 -25.541103 53.951572
28.180723 -28.547768 54.906284
23.801466 4.790642 70.377632
25.081947 1.945163 70.388321
26.044743 -0.898916 70.208473
25.742682 -4.048245 70.831879
26.871109 -3.849356 69.803017
27.56139 -6.690241 69.144234
28.066465 -9.647926 68.310364
28.425491 -12.476512 67.252274
24.765293 -20.693413 71.625076
25.596386 -18.287954 71.245384
26.16905 -15.637705 70.923485
27.215023 -15.430889 69.624748
27.999527 -15.608029 68.053963
28.570753 -15.547496 66.250969
28.649145 -18.444084 64.894516
28.584133 -21.046339 63.684456
28.446772 -23.755289 62.288174
27.66507 -26.511042 65.375282
28.06369 -26.417294 63.297501
28.264477 -26.55039 61.039917
28.128592 -29.0252 59.619366
28.015436 -31.537476 58.182598
29.853451 12.473297 42.461185
29.797071 10.34452 41.206322
29.774605 8.228007 39.966122
29.3398 3.805998 42.011063
29.525681 4.903163 40.322979
28.461546 -10.51885 44.034275
28.555489 -9.238187 42.146778
28.738831 -8.211342 40.245552
30.046042 15.96807 42.687115
30.104224 16.610937 42.15674
30.120752 17.196153 42.664828
29.914353 13.265587 57.816713
29.993116 13.401717 56.778379
29.953872 14.995873 57.292896
23.538118 -34.353809 69.473835
24.136594 -34.571616 68.861103
24.068483 -33.27862 69.34301
29.902027 16.599737 57.834104
29.74677 16.462617 58.933748
29.953872 14.995873 57.292896
29.902027 16.599737 57.834104
30.02751 14.429049 49.376699
30.013191 14.540269 48.309354
25.867116 -11.50666 71.244381
25.508184 -10.11638 71.433845
25.242459 -11.53071 71.676654
27.29464 -33.015917 63.17269
27.296195 -31.699083 63.876452
27.065114 -32.952019 64.196171
27.517007 -32.987691 62.086567
27.29464 -33.015917 63.17269
29.17624 -3.897396 38.827225
29.306556 -2.146532 38.63513
29.139094 -2.771224 39.489725
30.130762 14.372943 40.216305
30.108243 15.198383 40.866291
30.018153 12.681287 40.316647
30.130762 14.372943 40.216305
25.524785 14.069484 67.749401
24.8945 13.828685 68.097874
26.078114 12.589285 67.672809
26.129978 14.343253 67.236991
25.524785 14.069484 67.749401
30.060789 13.755239 53.558403
30.070757 13.877945 52.492323
29.921171 8.49171 55.03961
29.96349 10.166225 54.471239
29.97022 10.009461 55.653053
23.53036 -26.803156 71.433613
23.362407 -25.564393 71.711228
26.06256 -32.743434 66.903626
26.005067 -31.441616 67.501824
25.609314 -32.692006 67.747627
26.462372 -32.821332 66.03682
26.06256 -32.743434 66.903626
29.173893 15.978187 61.92782
28.900312 17.507166 62.340905
28.881299 15.72835 62.824259
29.370914 14.371523 61.434555
29.389926 16.15034 60.9512
29.173893 15.978187 61.92782
28.040621 -25.353843 47.229944
28.071502 -24.088286 47.994303
28.065158 -25.632479 48.464024
28.076613 -24.172926 43.93638
28.048065 -24.47836 44.95736
28.112454 -23.75572 42.867907
28.091815 -22.465437 43.543354
28.076613 -24.172926 43.93638
28.180069 -23.371504 41.776714
28.112454 -23.75572 42.867907
28.136105 -30.113537 56.446559
28.130463 -29.954968 55.327026
28.186364 -28.706336 56.025818
23.00455 4.640169 70.528496
23.161124 6.297937 70.198002
22.364208 6.147465 70.348866
24.907536 0.3803 70.708702
24.299693 1.786443 70.691506
24.125281 0.22158 71.011887
27.895727 -32.908177 58.638178
27.930497 -31.578455 59.403889
27.810788 -32.949156 59.859469
27.979591 -32.858919 57.469706
27.895727 -32.908177 58.638178
30.128281 17.587201 45.558651
30.133393 17.578905 46.44843
30.05511 16.345675 45.249182
30.123824 17.66928 44.762018
30.128281 17.587201 45.558651
29.537834 3.759488 39.628345
29.395155 3.094146 40.492325
29.407308 1.950471 39.797691
29.667419 5.526092 39.518257
29.537834 3.759488 39.628345
30.119418 16.072775 41.465143
30.194128 17.300857 41.442856
30.104224 16.610937 42.15674
30.018339 14.508463 41.580176
30.108243 15.198383 40.866291
30.119418 16.072775 41.465143
24.769756 10.267844 68.924267
25.452195 10.564207 68.567089
24.790482 12.019153 68.542396
24.761073 8.497091 69.297634
24.769756 10.267844 68.924267
24.674862 6.772229 69.674206
25.345258 7.088036 69.325531
24.761073 8.497091 69.297634
24.790482 12.019153 68.542396
24.8945 13.828685 68.097874
28.099478 -29.224516 51.767561
28.109025 -29.477002 52.918951
29.983069 11.677703 56.193439
29.993116 13.401717 56.778379
29.94075 10.003189 56.76181
29.97022 10.009461 55.653053
29.983069 11.677703 56.193439
23.767623 -29.390255 70.733387
23.629936 -28.120861 71.086178
23.115349 -29.176729 71.17836
25.166882 -33.745125 67.939853
25.609314 -32.692006 67.747627
25.109389 -32.443307 68.538051
24.700109 -34.814842 68.189235
25.166882 -33.745125 67.939853
24.700109 -34.814842 68.189235
24.136594 -34.571616 68.861103
26.817628 18.40961 65.673458
26.270354 18.06575 66.211994
27.310651 18.659582 64.993729
26.817628 18.40961 65.673458
27.322254 16.706795 65.489529
27.821994 18.866792 64.29059
27.310651 18.659582 64.993729
28.211498 17.107047 64.023571
28.218215 19.017074 63.504362
27.821994 18.866792 64.29059
29.999935 14.782931 47.33178
29.990072 14.87569 46.435294
30.069431 16.170837 46.942301
29.933832 13.245121 47.802347
29.999935 14.782931 47.33178
30.013191 14.540269 48.309354
24.019143 -1.323374 71.277489
24.125281 0.22158 71.011887
25.106238 -8.69681 71.640991
24.659349 -7.216633 71.726208
25.730895 -8.67276 71.208718
25.106238 -8.69681 71.640991
25.508184 -10.11638 71.433845
27.676925 -32.915918 60.972672
27.68564 -31.691207 61.739075
27.517007 -32.987691 62.086567
27.810788 -32.949156 59.859469
27.676925 -32.915918 60.972672
30.069431 16.170837 46.942301
30.133393 17.578905 46.44843
29.409698 0.797727 39.115671
29.407308 1.950471 39.797691
29.267019 0.132384 39.97965
29.448455 -0.316381 38.483946
29.409698 0.797727 39.115671
29.448455 -0.316381 38.483946
29.306556 -2.146532 38.63513
26.20294 16.140138 66.741421
26.270354 18.06575 66.211994
26.756269 14.659938 66.664829
26.20294 16.140138 66.741421
26.129978 14.343253 67.236991
28.051329 -27.202351 48.87887
28.065158 -25.632479 48.464024
28.08221 -25.936794 49.643229
28.068212 -29.002553 50.542763
28.099646 -27.728629 51.282873
28.099478 -29.224516 51.767561
28.060154 -28.72047 49.270865
28.068212 -29.002553 50.542763
28.051329 -27.202351 48.87887
28.060154 -28.72047 49.270865
30.056438 14.088802 51.476005
30.047686 14.204192 50.417404
30.001756 12.34189 51.87765
30.056438 14.088802 51.476005
30.070757 13.877945 52.492323
30.014307 11.907504 53.989325
30.060789 13.755239 53.558403
29.965257 10.389754 53.375882
30.014307 11.907504 53.989325
29.96349 10.166225 54.471239
24.891119 -12.809658 71.886249
25.242459 -11.53071 71.676654
23.189134 -24.23416 72.017288
23.036009 -22.86138 72.226959
23.909785 -24.368744 71.642135
23.189134 -24.23416 72.017288
23.362407 -25.564393 71.711228
24.182635 -27.016682 70.98864
23.53036 -26.803156 71.433613
23.629936 -28.120861 71.086178
26.76655 -32.892403 65.157875
26.762491 -31.564115 65.778877
26.462372 -32.821332 66.03682
27.065114 -32.952019 64.196171
26.76655 -32.892403 65.157875
28.300005 -18.324514 40.842508
28.245483 -20.049981 41.122644
22.553651 -30.238959 71.183792
23.115349 -29.176729 71.17836
22.666559 -31.493113 70.848591
22.553651 -30.238959 71.183792
22.775044 -32.800459 70.413678
23.361522 -31.753469 70.390656
22.666559 -31.493113 70.848591
22.848792 -34.08173 70.017174
22.775044 -32.800459 70.413678
28.631634 19.133135 62.671025
28.218215 19.017074 63.504362
28.631634 19.133135 62.671025
28.900312 17.507166 62.340905
29.602688 16.304583 59.997101
29.389926 16.15034 60.9512
29.731027 14.701709 59.394582
29.74677 16.462617 58.933748
29.602688 16.304583 59.997101
28.043561 -24.941863 46.031557
28.040621 -25.353843 47.229944
28.051469 -23.346147 45.686025
28.043561 -24.941863 46.031557
28.048065 -24.47836 44.95736
28.20657 -21.683796 41.436132
28.245483 -20.049981 41.122644
28.16657 -20.414416 42.161392
28.258983 -23.007069 40.737966
28.20657 -21.683796 41.436132
28.180069 -23.371504 41.776714
29.967263 12.777603 49.820627
30.02751 14.429049 49.376699
30.047686 14.204192 50.417404
28.13393 -29.77559 54.118257
28.109025 -29.477002 52.918951
28.155818 -28.24918 53.706978
28.13393 -29.77559 54.118257
28.130463 -29.954968 55.327026
23.946072 6.485964 70.011971
23.161124 6.297937 70.198002
24.530257 5.076908 70.039867
24.674862 6.772229 69.674206
23.946072 6.485964 70.011971
23.659453 3.209182 70.686161
23.00455 4.640169 70.528496
24.441707 3.367903 70.382977
23.659453 3.209182 70.686161
24.299693 1.786443 70.691506
24.584163 -2.670221 71.287433
24.019143 -1.323374 71.277489
24.882075 -5.704534 71.480823
24.659349 -7.216633 71.726208
25.088942 -4.102062 71.188831
24.882075 -5.704534 71.480823
25.535815 -5.650717 71.123871
25.237903 -2.616404 70.930481
24.584163 -2.670221 71.287433
25.088942 -4.102062 71.188831
25.274121 -14.181947 71.688076
24.891119 -12.809658 71.886249
23.526214 -21.719775 72.171852
22.825711 -21.542645 72.450615
23.036009 -22.86138 72.226959
24.040605 -20.547226 72.010292
23.526214 -21.719775 72.171852
24.250902 -21.865962 71.786636
24.509677 -19.346991 71.890709
24.040605 -20.547226 72.010292
24.925224 -18.144261 71.700863
24.509677 -19.346991 71.890709
25.180839 -19.490683 71.43523
25.271619 -16.865429 71.567173
24.925224 -18.144261 71.700863
25.557951 -15.540305 71.406224
25.271619 -16.865429 71.567173
25.882718 -16.962829 71.084435
25.88522 -14.279347 71.205337
25.274121 -14.181947 71.688076
25.557951 -15.540305 71.406224
28.04782 -31.449823 56.965183
28.136105 -30.113537 56.446559
28.103721 -30.20119 57.663974
28.04782 -31.449823 56.965183
27.979591 -32.858919 57.469706
22.916904 -35.374725 69.535267
23.538118 -34.353809 69.473835
22.848792 -34.08173 70.017174
30.119205 17.546854 43.995203
30.123824 17.66928 44.762018
30.056611 16.490519 43.823875
30.125163 17.60962 43.366529
30.119205 17.546854 43.995203
30.125163 17.60962 43.366529
30.120752 17.196153 42.664828
29.913106 11.036512 40.429146
30.018153 12.681287 40.316647
29.902117 11.989296 41.093823
29.901874 9.978255 39.809046
29.913106 11.036512 40.429146
29.785838 9.286264 40.586222
29.926138 8.899051 39.17923
29.901874 9.978255 39.809046
29.791881 7.188514 39.339828
29.650143 6.565585 40.14455
29.667419 5.526092 39.518257
29.926138 8.899051 39.17923
29.791881 7.188514 39.339828
28.367389 -16.589679 40.513652
28.272866 -17.045766 41.519048
28.300005 -18.324514 40.842508
28.447248 -14.758551 40.295365
28.367389 -16.589679 40.513652
28.533997 -12.984868 40.073441
28.426999 -13.537247 40.96827
28.447248 -14.758551 40.295365
28.635967 -11.32291 39.848105
28.533997 -12.984868 40.073441
28.748508 -9.546799 39.597707
28.626289 -9.987453 40.495949
28.635967 -11.32291 39.848105
28.881634 -7.639059 39.38668
28.748508 -9.546799 39.597707
29.016607 -5.794432 39.104815
28.873804 -6.366715 39.963686
28.881634 -7.639059 39.38668
29.17624 -3.897396 38.827225
29.016607 -5.794432 39.104815
3 0 249 251
3 249 63 250
3 249 250 251
3 1 252 254
3 252 65 253
3 252 253 254
3 3 68 66
3 3 70 68
3 4 73 71
3 4 75 73
3 4 255 257
3 257 256 75
3 255 256 257
3 1 258 259
3 1 260 261
3 2 78 76
3 5 81 79
3 7 84 82
3 7 86 84
3 5 88 87
3 5 79 88
3 8 92 90
3 262 94 263
3 11 97 95
3 11 99 97
3 6 102 100
3 12 105 103
3 12 107 105
3 12 109 107
3 13 112 110
3 13 114 112
3 14 264 266
3 264 116 265
3 264 265 266
3 14 118 116
3 15 121 119
3 15 123 121
3 15 125 123
3 267 128 268
3 269 268 126
3 267 268 269
3 271 270 128
3 10 132 130
3 16 135 133
3 16 272 274
3 274 273 135
3 272 273 274
3 9 138 136
3 17 275 276
3 17 277 278
3 18 141 139
3 20 142 64
3 20 143 142
3 18 279 280
3 18 281 283
3 281 139 282
3 281 282 283
3 21 146 144
3 284 148 285
3 23 286 288
3 286 149 287
3 286 287 288
3 23 150 149
3 24 153 151
3 26 154 67
3 26 155 154
3 26 157 155
3 28 158 69
3 28 159 158
3 289 161 290
3 30 162 72
3 30 163 162
3 30 165 163
3 291 166 292
3 293 292 74
3 291 292 293
3 295 294 166
3 32 169 167
3 34 170 77
3 34 171 170
3 35 174 172
3 37 175 80
3 37 176 175
3 19 177 140
3 38 178 83
3 38 179 178
3 38 180 179
3 39 181 85
3 39 182 181
3 35 296 298
3 298 297 89
3 296 297 298
3 35 299 301
3 299 172 300
3 299 300 301
3 40 185 183
3 42 186 91
3 42 187 186
3 302 188 303
3 304 303 145
3 302 303 304
3 305 189 306
3 307 190 308
3 309 308 189
3 307 308 309
3 311 310 190
3 43 193 191
3 45 194 93
3 45 195 194
3 22 196 147
3 46 197 96
3 46 198 197
3 46 199 198
3 47 200 98
3 47 201 200
3 36 202 173
3 48 203 101
3 48 204 203
3 25 205 152
3 49 206 104
3 49 207 206
3 49 208 207
3 50 209 106
3 50 210 209
3 50 211 210
3 51 212 108
3 51 213 212
3 27 214 156
3 52 215 111
3 52 216 215
3 52 217 216
3 53 218 113
3 53 312 314
3 314 313 218
3 312 313 314
3 315 219 316
3 315 316 317
3 54 318 320
3 318 220 319
3 318 319 320
3 54 221 220
3 55 222 115
3 55 223 222
3 55 224 223
3 56 225 117
3 56 226 225
3 29 227 160
3 57 228 120
3 57 229 228
3 57 230 229
3 58 231 122
3 58 232 231
3 58 233 232
3 59 234 124
3 59 235 234
3 31 236 164
3 60 237 127
3 60 238 237
3 60 239 238
3 321 240 322
3 323 322 129
3 321 322 323
3 325 324 240
3 43 326 327
3 43 328 330
3 328 191 329
3 328 329 330
3 44 241 192
3 61 242 131
3 61 243 242
3 33 244 168
3 331 245 332
3 333 332 134
3 331 332 333
3 335 334 245
3 41 246 184
3 62 247 137
3 62 248 247
3 63 336 338
3 336 337 338
3 63 339 341
3 339 17 340
3 339 340 341
3 342 64 343
3 344 343 18
3 342 343 344
3 345 64 346
3 347 20 348
3 349 348 64
3 347 348 349
3 350 18 351
3 353 352 21
3 65 354 355
3 65 356 358
3 356 23 357
3 356 357 358
3 66 67 24
3 68 67 66
3 68 26 67
3 68 69 26
3 70 69 68
3 70 28 69
3 71 359 361
3 359 72 360
3 359 360 361
3 73 72 71
3 73 30 72
3 73 74 30
3 75 74 73
3 75 362 364
3 364 363 74
3 362 363 364
3 75 365 366
3 368 367 75
3 76 77 32
3 78 77 76
3 78 34 77
3 79 80 35
3 81 80 79
3 81 37 80
3 82 83 19
3 84 83 82
3 84 38 83
3 84 85 38
3 86 85 84
3 86 39 85
3 87 369 370
3 88 371 373
3 373 372 87
3 371 372 373
3 88 374 375
3 88 376 378
3 376 89 377
3 376 377 378
3 79 89 88
3 79 35 89
3 90 91 40
3 92 91 90
3 92 42 91
3 379 93 380
3 381 380 43
3 379 380 381
3 94 382 384
3 382 93 383
3 382 383 384
3 94 45 93
3 95 96 22
3 97 96 95
3 97 46 96
3 97 98 46
3 99 98 97
3 99 47 98
3 100 101 36
3 102 101 100
3 102 48 101
3 103 104 25
3 105 104 103
3 105 49 104
3 105 106 49
3 107 106 105
3 107 50 106
3 107 108 50
3 109 108 107
3 109 51 108
3 110 111 27
3 112 111 110
3 112 52 111
3 112 113 52
3 114 113 112
3 114 53 113
3 385 54 386
3 387 115 388
3 116 389 391
3 389 115 390
3 389 390 391
3 116 55 115
3 116 117 55
3 118 117 116
3 118 56 117
3 119 120 29
3 121 120 119
3 121 57 120
3 121 122 57
3 123 122 121
3 123 58 122
3 123 124 58
3 125 124 123
3 125 59 124
3 126 127 31
3 128 127 126
3 128 60 127
3 128 129 60
3 392 129 393
3 394 393 128
3 392 393 394
3 396 395 129
3 397 43 398
3 130 131 44
3 132 131 130
3 132 61 131
3 133 134 33
3 135 134 133
3 135 399 401
3 401 400 134
3 399 400 401
3 135 402 403
3 405 404 135
3 136 137 41
3 138 137 136
3 138 62 137
3 139 140 5
3 141 140 139
3 141 19 140
3 64 141 18
3 142 141 64
3 142 19 141
3 142 82 19
3 143 82 142
3 143 7 82
3 406 87 407
3 139 408 410
3 408 87 409
3 408 409 410
3 139 5 87
3 144 145 8
3 146 145 144
3 146 411 413
3 413 412 145
3 411 412 413
3 414 146 415
3 416 415 21
3 414 415 416
3 417 146 418
3 420 419 146
3 421 147 422
3 148 423 425
3 423 147 424
3 423 424 425
3 148 22 147
3 426 148 427
3 149 428 430
3 428 148 429
3 428 429 430
3 149 22 148
3 149 95 22
3 150 95 149
3 150 11 95
3 151 152 6
3 153 152 151
3 153 25 152
3 67 153 24
3 154 153 67
3 154 25 153
3 154 103 25
3 155 103 154
3 155 12 103
3 155 156 12
3 157 156 155
3 157 27 156
3 69 157 26
3 158 157 69
3 158 27 157
3 158 110 27
3 159 110 158
3 159 13 110
3 431 14 432
3 433 160 434
3 161 435 437
3 435 160 436
3 435 436 437
3 161 29 160
3 72 438 440
3 438 161 439
3 438 439 440
3 162 161 72
3 162 29 161
3 162 119 29
3 163 119 162
3 163 15 119
3 163 164 15
3 165 164 163
3 165 31 164
3 74 165 30
3 166 165 74
3 166 31 165
3 166 126 31
3 441 126 442
3 443 442 166
3 441 442 443
3 445 444 126
3 167 168 10
3 169 168 167
3 169 33 168
3 77 169 32
3 170 169 77
3 170 33 169
3 170 133 33
3 171 133 170
3 171 16 133
3 447 446 9
3 172 173 1
3 174 173 172
3 174 36 173
3 80 174 35
3 175 174 80
3 175 36 174
3 175 100 36
3 176 100 175
3 176 6 100
3 140 81 5
3 177 81 140
3 177 37 81
3 83 177 19
3 178 177 83
3 178 37 177
3 178 176 37
3 179 176 178
3 179 6 176
3 179 151 6
3 180 151 179
3 180 24 151
3 85 180 38
3 181 180 85
3 181 24 180
3 181 66 24
3 182 66 181
3 182 3 66
3 448 71 449
3 450 71 451
3 452 4 453
3 454 453 71
3 452 453 454
3 456 455 4
3 89 457 458
3 460 459 89
3 172 461 462
3 172 463 465
3 463 1 464
3 463 464 465
3 183 184 2
3 185 184 183
3 185 41 184
3 91 185 40
3 186 185 91
3 186 41 185
3 186 136 41
3 187 136 186
3 187 9 136
3 145 92 8
3 188 92 145
3 188 42 92
3 466 188 467
3 189 468 470
3 468 188 469
3 468 469 470
3 189 42 188
3 189 187 42
3 190 187 189
3 190 9 187
3 190 471 473
3 473 472 9
3 471 472 473
3 476 475 190
3 474 475 476
3 191 192 0
3 193 192 191
3 193 44 192
3 93 193 43
3 194 193 93
3 194 44 193
3 194 130 44
3 195 130 194
3 195 10 130
3 147 477 479
3 477 94 478
3 477 478 479
3 196 94 147
3 196 45 94
3 96 196 22
3 197 196 96
3 197 45 196
3 197 195 45
3 198 195 197
3 198 10 195
3 198 167 10
3 199 167 198
3 199 32 167
3 98 199 46
3 200 199 98
3 200 32 199
3 200 76 32
3 201 76 200
3 201 2 76
3 173 65 1
3 202 65 173
3 202 23 65
3 101 202 36
3 203 202 101
3 203 23 202
3 203 150 23
3 204 150 203
3 204 11 150
3 152 102 6
3 205 102 152
3 205 48 102
3 104 205 25
3 206 205 104
3 206 48 205
3 206 204 48
3 207 204 206
3 207 11 204
3 207 99 11
3 208 99 207
3 208 47 99
3 106 208 49
3 209 208 106
3 209 47 208
3 209 201 47
3 210 201 209
3 210 2 201
3 210 183 2
3 211 183 210
3 211 40 183
3 108 211 50
3 212 211 108
3 212 40 211
3 212 90 40
3 213 90 212
3 213 8 90
3 156 109 12
3 214 109 156
3 214 51 109
3 111 214 27
3 215 214 111
3 215 51 214
3 215 213 51
3 216 213 215
3 216 8 213
3 216 144 8
3 217 144 216
3 217 21 144
3 113 217 52
3 218 217 113
3 218 21 217
3 218 480 482
3 482 481 21
3 480 481 482
3 484 483 218
3 219 485 486
3 219 487 489
3 487 20 488
3 487 488 489
3 490 219 491
3 220 492 494
3 492 219 493
3 492 493 494
3 220 20 219
3 220 143 20
3 221 143 220
3 221 7 143
3 495 54 496
3 115 497 498
3 222 499 501
3 501 500 115
3 499 500 501
3 222 502 504
3 502 54 503
3 502 503 504
3 222 221 54
3 223 221 222
3 223 7 221
3 223 86 7
3 224 86 223
3 224 39 86
3 117 224 55
3 225 224 117
3 225 39 224
3 225 182 39
3 226 182 225
3 226 3 182
3 505 14 506
3 160 507 509
3 507 508 509
3 227 510 512
3 512 511 160
3 510 511 512
3 227 513 514
3 120 227 29
3 228 227 120
3 228 515 517
3 517 516 227
3 515 516 517
3 228 518 519
3 229 520 522
3 522 521 228
3 520 521 522
3 229 523 525
3 523 14 524
3 523 524 525
3 229 118 14
3 230 118 229
3 230 56 118
3 122 230 57
3 231 230 122
3 231 56 230
3 231 226 56
3 232 226 231
3 232 3 226
3 232 70 3
3 233 70 232
3 233 28 70
3 124 233 58
3 234 233 124
3 234 28 233
3 234 159 28
3 235 159 234
3 235 13 159
3 164 125 15
3 236 125 164
3 236 59 125
3 127 236 31
3 237 236 127
3 237 59 236
3 237 235 59
3 238 235 237
3 238 13 235
3 238 114 13
3 239 114 238
3 239 53 114
3 129 239 60
3 240 239 129
3 240 53 239
3 240 526 528
3 528 527 53
3 526 527 528
3 530 529 240
3 533 532 4
3 531 532 533
3 191 534 535
3 191 536 538
3 536 0 537
3 536 537 538
3 539 0 540
3 192 63 0
3 241 63 192
3 241 17 63
3 131 241 44
3 242 241 131
3 242 17 241
3 242 541 543
3 543 542 17
3 541 542 543
3 243 544 546
3 546 545 242
3 544 545 546
3 243 547 548
3 168 132 10
3 244 132 168
3 244 61 132
3 134 244 33
3 245 244 134
3 245 61 244
3 245 243 61
3 549 243 550
3 551 550 245
3 549 550 551
3 553 552 243
3 184 78 2
3 246 78 184
3 246 34 78
3 137 246 41
3 247 246 137
3 247 34 246
3 247 171 34
3 248 171 247
3 248 16 171
3 554 138 555
3 556 555 9
3 554 555 556
3 557 138 558
3 559 62 560
3 561 560 138
3 559 560 561
3 562 62 563
3 564 248 565
3 566 565 62
3 564 565 566
3 567 248 568
3 569 16 570
3 571 570 248
3 569 570 571
3 573 572 16
