ply
format ascii 1.0
element vertex 352
property float x
property float y
property float z
element face 369
property list uchar int vertex_index
end_header
24.92609 -100.037758 -20.229496
24.818962 -79.691856 -13.258354
26.487488 -90.444237 -15.990846
24.322453 -82.119453 -21.67474
23.079554 -69.604469 -11.6112
22.973444 -71.862831 -18.526463
26.274145 -95.402832 -17.99958
25.596479 -91.889832 -21.205015
24.640099 -96.555099 -23.492872
23.785191 -74.527031 -12.193254
23.01053 -71.058464 -14.940533
23.841936 -76.165886 -16.041286
25.891626 -85.159317 -14.361892
24.79644 -81.357147 -17.443401
25.498833 -86.598953 -19.195702
22.277687 -103.571602 -22.544117
22.422377 -100.465149 -25.781202
22.976645 -65.243835 -10.817216
23.874666 -72.334259 -8.446026
24.722569 -77.336357 -9.134855
25.792233 -82.600449 -9.825167
26.707603 -88.163063 -11.018839
26.991951 -93.527588 -12.454642
26.320213 -98.535095 -14.314841
24.42108 -102.791206 -16.447166
22.672415 -66.352478 -13.902068
22.536127 -66.991173 -17.153362
23.684824 -76.913788 -19.951464
25.77878 -97.833405 -19.022995
25.588938 -96.102707 -20.803358
24.935934 -98.263878 -21.820751
24.255747 -76.990784 -12.745765
23.779856 -75.282082 -14.137389
24.314659 -77.987106 -14.773687
26.256819 -87.833664 -15.236049
25.758171 -85.94075 -16.741385
26.05024 -88.586464 -17.584772
24.819696 -92.006485 -23.725983
25.107235 -89.637054 -22.48848
20.431604 -104.984276 -23.481007
20.734703 -103.627914 -25.213091
18.623301 -104.671608 -26.434956
24.253269 -74.808784 -8.765543
24.723906 -75.919601 -7.03142
25.7642 -81.430748 -7.64863
26.260563 -83.990944 -7.807304
26.312401 -85.363281 -10.275331
23.006205 -104.487144 -17.447533
22.962181 -67.42173 -11.192253
22.785126 -65.876648 -12.404061
22.829357 -68.121658 -12.884032
22.994762 -71.477303 -16.759771
22.749258 -69.250977 -16.155132
22.685596 -69.285141 -17.883476
22.610788 -69.46579 -19.546381
24.646191 -81.977905 -19.592815
24.236 -79.307182 -18.96134
24.035446 -79.525429 -20.840357
22.35165 -98.340294 -27.162373
26.477417 -92.897148 -17.07659
26.111721 -91.18853 -18.731955
25.981268 -93.780464 -19.729366
25.279114 -94.225632 -22.286333
24.331425 -94.36721 -24.793861
23.369423 -71.996368 -11.843823
23.025728 -70.452995 -13.304033
23.356945 -72.821869 -13.599148
23.373747 -73.548676 -15.503492
23.392805 -74.139633 -17.323059
25.385006 -82.446083 -13.836744
24.879379 -80.742195 -15.280395
25.359591 -83.363365 -15.988868
25.191723 -83.933449 -18.254292
24.947195 -84.596085 -20.477362
25.684935 -89.328575 -20.071075
25.124239 -87.19249 -21.448473
24.471474 -84.773056 -22.745085
23.796885 -102.05513 -21.159481
23.879354 -100.399162 -22.955843
22.501827 -102.089134 -24.149933
20.865332 -101.896362 -26.907009
23.187765 -66.468689 -9.515725
23.249338 -68.804237 -9.798018
23.451944 -71.060791 -10.032616
23.808937 -73.607468 -10.363334
24.27257 -76.097084 -10.665072
24.784079 -78.682365 -11.173794
25.235527 -78.676849 -7.304607
25.265337 -80.00486 -9.424381
25.306534 -81.199303 -11.668547
25.852554 -83.869362 -12.120321
26.337124 -86.743469 -12.783817
26.65601 -89.435318 -13.504561
26.954466 -90.819214 -11.504936
26.798281 -92.006508 -14.297077
26.731493 -94.523392 -15.17169
26.386234 -97.052277 -16.242144
25.774025 -99.399857 -17.144178
25.544622 -100.791 -15.200022
24.821405 -101.476311 -18.31216
23.440439 -103.458214 -19.440237
21.866934 -104.903526 -20.552517
22.74095 -64.13974 -13.304108
22.608961 -64.471901 -14.905592
22.762991 -68.611504 -14.490761
22.595652 -66.713501 -15.548032
22.502085 -64.47168 -16.554726
24.324558 -78.733459 -16.800289
23.841221 -76.802422 -18.017645
23.309227 -74.348724 -19.263735
23.419891 -77.0495 -22.028513
23.147339 -74.629135 -21.235176
22.841238 -71.91671 -20.420378
23.744007 -98.67025 -24.539373
23.402798 -96.584869 -26.133774
24.552506 -90.827156 -24.316778
24.296537 -92.012375 -24.967358
18.449886 -105.319603 -25.482778
19.527453 -104.827942 -24.957982
19.354038 -105.475937 -24.005803
24.785666 -75.235039 -5.903077
24.535662 -74.739018 -6.899207
26.445793 -84.643017 -6.885309
26.21846 -83.236218 -6.693713
26.469487 -85.339054 -8.152548
26.445793 -84.643017 -6.885309
24.788726 -87.24392 -22.663139
25.115737 -88.414772 -21.968477
24.780224 -88.466202 -23.183143
24.462344 -86.034202 -23.311445
24.797857 -85.982773 -22.096779
24.788726 -87.24392 -22.663139
24.142847 -84.761933 -23.845849
24.462344 -86.034202 -23.311445
19.97926 -102.503971 -27.368373
20.800017 -102.762138 -26.06005
19.913946 -103.369747 -26.521414
19.970134 -101.590965 -28.152931
19.97926 -102.503971 -27.368373
23.334885 -67.05473 -8.816596
23.34952 -65.91803 -8.723621
23.365671 -68.222504 -8.957743
23.218552 -67.636463 -9.656872
23.334885 -67.05473 -8.816596
23.738715 -71.101502 -8.350724
23.957489 -71.69688 -7.511906
23.663305 -71.697525 -9.239321
23.527354 -70.464767 -9.144019
23.738715 -71.101502 -8.350724
25.479928 -79.308605 -6.340035
25.245997 -77.980293 -6.221398
26.973208 -92.173401 -11.979789
27.040799 -91.453464 -10.550664
27.059541 -92.807651 -11.025517
26.353223 -97.793686 -15.278492
26.59203 -96.575874 -14.794199
26.55902 -97.317284 -13.830547
24.982851 -101.791103 -15.823594
25.363855 -101.276543 -14.259968
24.802084 -102.276646 -14.88354
21.550117 -105.38192 -19.607184
22.43657 -104.695335 -19.000025
22.119752 -105.173729 -18.054692
20.8855 -105.487259 -21.143711
21.550117 -105.38192 -19.607184
22.940849 -64.473379 -11.342011
23.059783 -64.190883 -10.622284
22.462753 -65.775329 -17.648578
22.445732 -64.515583 -17.34926
22.519106 -65.731426 -16.854044
23.226993 -77.078496 -23.008195
23.554651 -78.375271 -22.468876
22.887308 -73.32095 -21.701193
22.983973 -74.592091 -22.18612
22.734257 -71.964737 -21.293794
22.994288 -73.272922 -20.827777
22.887308 -73.32095 -21.701193
22.626083 -70.651008 -20.916871
22.734257 -71.964737 -21.293794
22.667985 -96.308521 -27.373518
22.877224 -97.462581 -26.648073
22.142411 -97.186234 -27.887817
23.228963 -95.364646 -26.734641
22.667985 -96.308521 -27.373518
24.696275 -89.642441 -23.698027
24.963465 -90.82177 -23.107231
24.552506 -90.827156 -24.316778
24.780224 -88.466202 -23.183143
24.696275 -89.642441 -23.698027
18.858245 -103.891594 -27.132347
19.913946 -103.369747 -26.521414
19.679002 -104.149761 -25.824023
24.111042 -72.946347 -7.60651
23.957489 -71.69688 -7.511906
24.300344 -74.183609 -7.766269
24.063968 -73.571522 -8.605784
24.111042 -72.946347 -7.60651
24.488588 -75.364193 -7.898481
24.300344 -74.183609 -7.766269
24.535662 -74.739018 -6.899207
25.970278 -81.956119 -6.614376
25.744264 -80.685554 -6.512047
26.012382 -82.710846 -7.727967
25.970278 -81.956119 -6.614376
26.21846 -83.236218 -6.693713
26.495406 -86.025222 -9.386561
26.286482 -84.677112 -9.041317
26.469487 -85.339054 -8.152548
26.693007 -87.425113 -9.758315
26.510002 -86.763172 -10.647085
26.495406 -86.025222 -9.386561
27.020246 -94.15638 -11.418246
27.059541 -92.807651 -11.025517
26.894889 -94.81353 -12.900448
27.020246 -94.15638 -11.418246
26.53613 -97.817661 -12.791103
26.55902 -97.317284 -13.830547
24.176166 -103.22607 -15.423227
24.802084 -102.276646 -14.88354
23.468729 -104.074039 -15.92341
23.713642 -103.639175 -16.94735
24.176166 -103.22607 -15.423227
22.719735 -104.830215 -16.479158
23.468729 -104.074039 -15.92341
22.119752 -105.173729 -18.054692
22.719735 -104.830215 -16.479158
22.554105 -68.062549 -18.414374
22.479371 -66.915565 -18.049317
22.610861 -68.138157 -17.518419
22.516701 -68.152874 -19.245826
22.554105 -68.062549 -18.414374
22.648192 -69.375465 -18.714928
22.442686 -68.250355 -20.12329
22.516701 -68.152874 -19.245826
21.551085 -99.097725 -27.835252
22.387014 -99.402721 -26.471787
21.586449 -100.160152 -27.144666
21.468969 -97.992325 -28.457305
21.551085 -99.097725 -27.835252
22.142411 -97.186234 -27.887817
21.468969 -97.992325 -28.457305
24.052402 -93.192737 -25.501297
24.296537 -92.012375 -24.967358
24.575561 -93.186847 -24.259922
24.005932 -80.910247 -22.291989
24.074791 -82.183811 -22.782285
24.149301 -83.510613 -23.317457
24.074791 -82.183811 -22.782285
24.396963 -83.446254 -22.209913
24.149301 -83.510613 -23.317457
24.142847 -84.761933 -23.845849
20.807927 -100.875759 -27.70757
21.586449 -100.160152 -27.144666
21.643854 -101.180756 -26.344105
20.807927 -100.875759 -27.70757
19.970134 -101.590965 -28.152931
17.524209 -105.070256 -26.840739
18.449886 -105.319603 -25.482778
17.721451 -104.303688 -27.711987
17.524209 -105.070256 -26.840739
18.858245 -103.891594 -27.132347
17.721451 -104.303688 -27.711987
23.127002 -64.708027 -10.056867
23.059783 -64.190883 -10.622284
23.232562 -65.320453 -9.406122
23.34952 -65.91803 -8.723621
23.082205 -65.856262 -10.16647
23.127002 -64.708027 -10.056867
23.232562 -65.320453 -9.406122
23.426051 -69.33649 -9.02672
23.365671 -68.222504 -8.957743
23.350641 -69.932514 -9.915317
23.426051 -69.33649 -9.02672
23.527354 -70.464767 -9.144019
24.990186 -76.601669 -6.084805
24.785666 -75.235039 -5.903077
24.979717 -77.298225 -7.168013
24.990186 -76.601669 -6.084805
25.245997 -77.980293 -6.221398
25.499864 -80.053798 -7.476618
25.479928 -79.308605 -6.340035
25.744264 -80.685554 -6.512047
26.847561 -88.75996 -10.001483
26.693007 -87.425113 -9.758315
26.970993 -90.088036 -10.244532
27.040799 -91.453464 -10.550664
26.831035 -89.491139 -11.261888
26.847561 -88.75996 -10.001483
26.970993 -90.088036 -10.244532
26.76466 -95.311432 -14.258972
26.861722 -94.02549 -13.813166
26.894889 -94.81353 -12.900448
26.558864 -95.787835 -15.706917
26.76466 -95.311432 -14.258972
26.59203 -96.575874 -14.794199
26.233268 -99.021217 -13.239791
26.53613 -97.817661 -12.791103
25.845472 -100.149169 -13.682382
25.363855 -101.276543 -14.259968
25.932417 -99.663048 -14.757431
26.233268 -99.021217 -13.239791
25.845472 -100.149169 -13.682382
20.167835 -105.527634 -22.607956
21.149269 -104.943901 -22.016762
20.8855 -105.487259 -21.143711
19.354038 -105.475937 -24.005803
20.167835 -105.527634 -22.607956
22.84509 -64.789785 -12.135434
22.940849 -64.473379 -11.342011
22.880886 -65.560242 -11.610639
22.823002 -63.921332 -12.585457
22.84509 -64.789785 -12.135434
22.763038 -65.008194 -12.854084
22.857725 -63.061983 -13.005187
22.823002 -63.921332 -12.585457
22.770727 -63.197451 -13.719257
22.857725 -63.061983 -13.005187
22.704733 -63.363531 -14.519998
22.770727 -63.197451 -13.719257
22.674956 -64.305821 -14.10485
22.623444 -63.394047 -15.34431
22.704733 -63.363531 -14.519998
22.570006 -63.393937 -16.168877
22.623444 -63.394047 -15.34431
22.555523 -64.47179 -15.730159
22.492671 -63.328243 -17.004194
22.570006 -63.393937 -16.168877
22.492671 -63.328243 -17.004194
22.445732 -64.515583 -17.34926
22.462753 -65.775329 -17.648578
22.479371 -66.915565 -18.049317
23.862429 -79.613236 -21.874798
24.17895 -80.822441 -21.257548
24.005932 -80.910247 -22.291989
23.727669 -78.287464 -21.434435
23.862429 -79.613236 -21.874798
23.554651 -78.375271 -22.468876
23.120249 -75.802273 -22.582788
23.226993 -77.078496 -23.008195
23.283615 -75.839317 -21.631844
23.120249 -75.802273 -22.582788
22.983973 -74.592091 -22.18612
22.510858 -69.425548 -20.479872
22.726013 -70.69125 -19.983379
22.626083 -70.651008 -20.916871
22.442686 -68.250355 -20.12329
22.510858 -69.425548 -20.479872
23.693276 -94.255817 -26.064684
23.867112 -95.476039 -25.463817
23.228963 -95.364646 -26.734641
24.052402 -93.192737 -25.501297
23.693276 -94.255817 -26.064684
3 0 30 28
3 1 33 31
3 2 36 34
3 116 115 37
3 117 41 118
3 119 118 39
3 117 118 119
3 120 43 121
3 122 45 123
3 125 124 45
3 4 50 48
3 5 53 51
3 5 54 53
3 3 57 55
3 6 61 59
3 8 62 29
3 8 63 62
3 9 66 64
3 11 67 32
3 11 68 67
3 12 71 69
3 14 72 35
3 14 73 72
3 7 74 60
3 126 75 127
3 128 127 38
3 126 127 128
3 129 76 130
3 131 130 75
3 129 130 131
3 133 132 76
3 15 79 77
3 134 80 135
3 136 135 40
3 134 135 136
3 138 137 80
3 139 81 140
3 141 82 142
3 143 142 81
3 141 142 143
3 18 144 145
3 18 146 148
3 146 83 147
3 146 147 148
3 18 84 83
3 19 85 42
3 19 86 85
3 149 87 150
3 20 88 44
3 20 89 88
3 20 90 89
3 21 91 46
3 21 92 91
3 22 151 153
3 151 93 152
3 151 152 153
3 22 94 93
3 22 95 94
3 23 154 156
3 154 96 155
3 154 155 156
3 23 97 96
3 24 157 159
3 157 98 158
3 157 158 159
3 24 99 98
3 24 100 99
3 160 101 161
3 162 161 47
3 160 161 162
3 164 163 101
3 17 165 166
3 25 102 49
3 25 103 102
3 10 104 65
3 26 105 52
3 26 106 105
3 26 167 169
3 169 168 106
3 167 168 169
3 13 107 70
3 27 108 56
3 27 109 108
3 170 110 171
3 172 111 173
3 174 112 175
3 176 175 111
3 174 175 176
3 178 177 112
3 16 113 78
3 179 114 180
3 181 180 58
3 179 180 181
3 183 182 114
3 28 29 6
3 30 29 28
3 30 8 29
3 31 32 9
3 33 32 31
3 33 11 32
3 34 35 12
3 36 35 34
3 36 14 35
3 37 38 7
3 184 38 185
3 186 185 37
3 184 185 186
3 188 187 38
3 39 40 15
3 41 40 39
3 41 189 191
3 191 190 40
3 189 190 191
3 192 18 193
3 194 42 195
3 196 195 18
3 194 195 196
3 43 197 199
3 197 42 198
3 197 198 199
3 43 19 42
3 200 44 201
3 45 202 204
3 202 44 203
3 202 203 204
3 45 20 44
3 45 46 20
3 205 46 206
3 207 206 45
3 205 206 207
3 208 21 209
3 210 209 46
3 208 209 210
3 211 22 212
3 214 213 22
3 215 23 216
3 217 24 218
3 219 47 220
3 221 220 24
3 219 220 221
3 222 47 223
3 225 224 47
3 48 49 17
3 50 49 48
3 50 25 49
3 51 52 10
3 53 52 51
3 53 26 52
3 53 226 228
3 228 227 26
3 226 227 228
3 54 229 231
3 231 230 53
3 229 230 231
3 54 232 233
3 55 56 13
3 57 56 55
3 57 27 56
3 234 58 235
3 236 235 16
3 234 235 236
3 237 58 238
3 240 239 58
3 59 60 2
3 61 60 59
3 61 7 60
3 29 61 6
3 62 61 29
3 62 7 61
3 62 37 7
3 63 37 62
3 63 241 243
3 243 242 37
3 241 242 243
3 64 65 4
3 66 65 64
3 66 10 65
3 32 66 9
3 67 66 32
3 67 10 66
3 67 51 10
3 68 51 67
3 68 5 51
3 245 244 3
3 69 70 1
3 71 70 69
3 71 13 70
3 35 71 12
3 72 71 35
3 72 13 71
3 72 55 13
3 73 55 72
3 73 3 55
3 60 36 2
3 74 36 60
3 74 14 36
3 38 74 7
3 75 74 38
3 75 14 74
3 75 73 14
3 76 73 75
3 76 3 73
3 76 246 248
3 248 247 3
3 246 247 248
3 250 249 76
3 77 78 0
3 79 78 77
3 79 16 78
3 40 79 15
3 80 79 40
3 80 16 79
3 80 251 253
3 253 252 16
3 251 252 253
3 255 254 80
3 256 41 257
3 258 41 259
3 261 260 41
3 262 17 263
3 81 264 265
3 81 266 268
3 266 17 267
3 266 267 268
3 81 48 17
3 82 48 81
3 82 4 48
3 269 82 270
3 83 271 273
3 271 82 272
3 271 272 273
3 83 4 82
3 83 64 4
3 84 64 83
3 84 9 64
3 42 84 18
3 85 84 42
3 85 9 84
3 85 31 9
3 86 31 85
3 86 1 31
3 274 43 275
3 87 276 278
3 276 43 277
3 276 277 278
3 87 19 43
3 44 279 281
3 279 87 280
3 279 280 281
3 88 87 44
3 88 19 87
3 88 86 19
3 89 86 88
3 89 1 86
3 89 69 1
3 90 69 89
3 90 12 69
3 46 90 20
3 91 90 46
3 91 12 90
3 91 34 12
3 92 34 91
3 92 2 34
3 282 21 283
3 93 284 285
3 93 286 288
3 286 21 287
3 286 287 288
3 93 92 21
3 94 92 93
3 94 2 92
3 94 59 2
3 95 59 94
3 95 6 59
3 289 95 290
3 291 290 22
3 289 290 291
3 96 292 294
3 292 95 293
3 292 293 294
3 96 6 95
3 96 28 6
3 97 28 96
3 97 0 28
3 295 23 296
3 98 297 298
3 98 299 301
3 299 23 300
3 299 300 301
3 98 97 23
3 99 97 98
3 99 0 97
3 99 77 0
3 100 77 99
3 100 15 77
3 47 100 24
3 101 100 47
3 101 15 100
3 101 39 15
3 302 39 303
3 304 303 101
3 302 303 304
3 306 305 39
3 49 307 309
3 309 308 17
3 307 308 309
3 102 310 312
3 312 311 49
3 310 311 312
3 102 313 314
3 102 315 316
3 103 317 319
3 319 318 102
3 317 318 319
3 103 320 321
3 65 50 4
3 104 50 65
3 104 25 50
3 52 104 10
3 105 104 52
3 105 25 104
3 105 103 25
3 106 103 105
3 106 322 324
3 324 323 103
3 322 323 324
3 106 325 326
3 328 327 106
3 330 329 26
3 70 33 1
3 107 33 70
3 107 11 33
3 56 107 13
3 108 107 56
3 108 11 107
3 108 68 11
3 109 68 108
3 109 5 68
3 331 57 332
3 333 332 3
3 331 332 333
3 110 334 336
3 334 57 335
3 334 335 336
3 110 27 57
3 337 110 338
3 111 339 341
3 339 110 340
3 339 340 341
3 111 27 110
3 111 109 27
3 112 109 111
3 112 5 109
3 112 54 5
3 342 54 343
3 344 343 112
3 342 343 344
3 346 345 54
3 78 30 0
3 113 30 78
3 113 8 30
3 58 113 16
3 114 113 58
3 114 8 113
3 114 63 8
3 347 63 348
3 349 348 114
3 347 348 349
3 351 350 63
