ply
format ascii 1.0
element vertex 527
property float x
property float y
property float z
element face 631
property list uchar int vertex_index
end_header
2.772925 53.295296 40.94252
-1.288523 30.260149 53.570263
12.876076 31.030441 43.515469
15.545517 49.600792 29.705029
-4.593953 53.987244 45.228649
-2.797316 65.352928 37.504208
4.639659 63.473644 33.201981
11.13856 60.794109 27.928234
9.640492 51.981979 36.104591
0.758372 42.165726 47.515606
8.013113 41.775982 43.099159
5.774394 30.873129 49.107857
16.405222 57.49765 21.21616
20.437086 46.882549 21.449648
14.580656 40.85466 37.192436
20.079683 39.249615 29.300928
-0.995671 53.621956 43.1618
-3.645874 59.935993 41.414646
0.043891 59.379417 39.296467
0.977802 64.63871 35.303284
3.585368 58.496078 37.335484
7.248049 57.525135 34.905457
6.282763 52.775482 38.682827
-3.874609 35.774654 52.950863
-2.765766 41.644817 49.801121
-0.18109 36.045143 50.63409
3.306156 36.336552 48.521873
2.217687 30.846048 51.288765
13.288664 55.283989 28.989338
13.818754 59.17453 24.915638
15.866565 53.824894 25.49358
18.331011 52.021599 21.678217
18.074366 48.392963 25.652281
10.467188 36.233299 43.619461
11.28931 41.332458 40.54697
13.842508 35.881111 40.566532
1.047362 25.134327 54.009514
7.969782 62.232349 30.847391
10.345449 56.417439 32.306252
12.647458 50.984779 33.203598
16.083902 30.618898 40.262428
-1.924144 47.765381 46.568802
1.756518 47.752068 44.39233
5.356935 47.466351 42.240967
4.313901 41.889858 45.554981
6.910278 36.361706 46.260399
9.409134 31.010269 46.495052
4.555984 25.392708 51.715321
8.021297 25.562544 49.286308
20.730972 50.227123 17.38242
8.900389 47.05732 39.706284
12.049823 46.320259 37.007191
15.046732 45.4566 33.668957
16.927521 35.536198 36.942368
17.397396 40.208748 33.512035
17.741404 44.423916 29.831848
20.230137 43.173023 25.597252
22.66007 41.914227 20.999083
0.939901 53.449768 42.046135
-0.363103 56.355904 41.299503
1.328945 56.392353 40.174896
1.814823 59.050095 38.275482
3.173221 55.901985 39.194542
4.986129 55.704956 37.978622
4.620506 53.005905 39.817142
-2.529289 33.033375 53.230003
-2.017225 35.894512 51.769825
-0.761123 33.229218 52.100395
1.078981 33.390003 50.975025
0.466789 30.34971 52.497681
14.377128 52.338749 29.535007
14.651973 54.405891 27.349312
15.72296 51.636135 27.663019
16.948404 50.991817 25.735163
16.830929 48.95187 27.795416
11.620174 33.529312 43.72385
12.20854 36.119041 42.113556
13.337984 33.351231 42.169456
-6.044431 57.096241 44.564266
-3.251546 62.785667 39.454231
-4.952628 62.923038 40.511269
-4.710239 65.965141 38.408573
2.813831 64.114365 34.260818
5.047449 65.884651 31.082947
6.423561 62.848652 32.007828
8.442872 54.737892 35.561707
8.884858 56.978691 33.606014
10.026667 54.071087 34.319233
11.446793 53.790157 32.794846
11.224832 51.502258 34.657021
-1.043934 41.755119 48.73101
-2.355607 44.672344 48.226334
-0.610096 44.798622 47.136482
-0.01707 47.741539 45.446941
1.285083 44.978718 45.954868
3.19169 44.839027 44.894741
2.587378 42.009319 46.532074
4.623231 33.583103 48.827213
5.138613 36.198353 47.478867
6.441901 33.436329 47.730656
8.144506 33.617252 46.481953
7.619519 30.915119 47.847588
2.807128 25.189001 52.895023
9.779223 25.537964 47.961353
15.14249 58.24839 23.187777
19.404268 49.486614 21.46723
19.531454 51.296856 19.429926
20.588539 48.612297 19.327236
21.789268 47.80331 16.99942
21.669914 46.01717 19.170876
6.761874 44.509434 42.714851
7.116526 47.248554 41.067535
8.363266 44.504532 41.498569
12.887854 41.260262 38.961357
11.678641 43.82394 38.848984
13.273825 43.508499 37.268364
13.547051 45.922371 35.448135
14.763262 43.361774 35.457031
16.465105 33.072056 38.75161
19.924852 37.143898 31.152813
18.593918 37.665192 33.163345
18.862528 39.684113 31.326647
17.675871 42.362255 31.547384
18.898741 41.967701 29.531708
18.975166 43.989799 27.671665
20.112038 41.31028 27.54147
-2.771922 54.036572 44.049236
-4.09962 56.99638 43.343479
-2.22358 56.749752 42.273209
-1.826321 59.516697 40.461002
-1.349187 62.263542 38.491196
-0.817108 64.84304 36.464054
0.584199 61.955715 37.343876
2.404748 61.529709 36.296314
4.088666 61.086746 35.288773
5.864047 60.633701 34.092121
5.433973 58.130749 36.117096
6.821411 55.186333 36.79314
8.058584 52.14901 37.539295
-4.54774 41.789856 50.841797
-3.283696 38.718636 51.365707
-1.529684 38.777988 50.287312
0.321558 38.994133 49.126522
2.070436 39.053871 48.106884
1.54898 36.165264 49.599243
2.933554 33.510651 49.859951
4.009546 30.700018 50.275337
12.161753 57.876724 28.707989
12.496318 59.90617 26.566629
13.55574 57.181293 27.015272
14.791891 56.509033 25.329725
16.125931 55.577118 23.445669
17.316078 54.764942 21.565342
17.116594 52.772636 23.771135
18.212313 50.214405 23.635725
19.276936 47.618073 23.593773
9.20853 38.912663 43.482811
9.620565 41.62191 41.893131
10.87817 38.855186 42.114273
12.559792 38.753567 40.570126
14.151381 38.459232 38.991692
21.237959 36.729221 28.937635
21.314346 38.843121 27.069035
-1.841409 27.432341 54.973907
-0.149673 27.532938 53.904953
-5.468929 59.917549 42.627712
9.59185 61.50301 29.469809
7.558249 59.827915 33.026428
9.132602 59.296848 31.68132
10.640636 58.76812 30.187794
11.843157 55.789501 30.786556
13.041798 53.041462 31.122534
14.193273 50.222996 31.49765
13.849085 28.264208 43.538761
14.5213 30.627312 42.011719
-4.995103 50.846535 47.028606
-4.162342 44.769539 49.292774
-3.679669 47.639046 47.699631
-3.289096 50.944664 45.905888
-1.401097 50.728672 44.858109
0.378345 50.818493 43.741356
2.277631 50.476902 42.741653
4.059948 50.45644 41.592628
3.619395 47.627762 43.309082
4.971613 44.664822 43.865101
6.219596 41.827263 44.356365
3.913468 39.004585 47.056412
5.688412 39.152855 45.894855
7.510586 39.000839 44.722752
8.754783 36.131393 45.028294
10.005816 33.583794 45.070351
11.206761 30.746857 45.125923
1.607832 27.885952 52.721222
3.321573 27.938553 51.662224
5.155605 28.205122 50.421669
6.269057 25.389326 50.576469
6.963823 28.122286 49.244255
8.747081 28.173721 47.946194
10.513288 28.207781 46.55928
12.297276 28.203026 45.030243
18.544113 53.824547 19.552589
5.78974 49.952286 40.635483
7.554616 49.82338 39.324047
9.30605 49.549759 37.92207
10.037165 44.112137 40.273758
10.529931 46.587906 38.451008
10.876238 49.154583 36.56461
12.429284 48.637321 35.095684
13.955415 48.126827 33.401493
15.308945 47.526524 31.754154
14.92924 33.312458 40.488174
15.475688 35.763268 38.734589
15.724091 38.184692 37.181252
18.385803 35.337345 34.903198
17.228119 37.864231 35.227669
15.969618 40.533665 35.502396
16.2272 42.787987 33.67741
16.390676 44.97414 31.861778
16.600927 46.984833 29.912432
17.882854 46.48671 27.79553
19.183483 45.675755 25.674051
20.307207 45.041752 23.612707
21.397306 40.660374 25.257153
21.460382 42.527191 23.30278
21.48505 44.399174 21.335657
22.745335 43.555611 19.014759
-1.908906 31.646762 53.400133
-2.80771 31.573741 53.975536
-2.187328 30.187128 54.145666
-5.319192 55.541742 44.896457
-6.248159 55.547037 45.500134
-5.52292 53.992538 45.832325
-3.43615 66.963363 36.840168
-4.392611 67.26947 37.29235
-3.753777 65.659035 37.95639
-2.497405 66.663101 36.396137
-3.43615 66.963363 36.840168
3.948087 65.007448 32.689757
3.035173 65.327809 33.219175
3.726745 63.794004 33.7314
4.843554 64.679147 32.142464
4.151982 66.212952 31.63024
3.948087 65.007448 32.689757
11.293641 61.856645 26.854102
10.561457 62.271589 27.570805
15.958132 58.820643 21.044113
15.326766 59.196013 22.029922
15.773856 57.87302 22.201968
16.52964 58.466917 20.144429
15.958132 58.820643 21.044113
17.014577 57.055908 20.250301
16.52964 58.466917 20.144429
-4.707354 35.601488 53.550117
-4.063222 34.243949 53.687496
-4.470135 37.231353 52.723005
-4.707354 35.601488 53.550117
-3.579153 37.246645 52.158285
-4.174679 38.703345 51.930428
-4.470135 37.231353 52.723005
21.858617 35.464087 28.696109
21.153388 35.68165 29.857399
21.869453 36.553747 27.806213
21.858617 35.464087 28.696109
-2.212915 26.03369 55.713563
-2.739449 27.426141 55.536985
-1.313459 26.143695 55.109104
-2.212915 26.03369 55.713563
-5.926881 62.934171 41.160366
-5.73749 64.445325 40.076179
0.319691 66.102703 34.770808
-0.577763 66.204868 35.351192
0.080347 64.740875 35.883669
8.253277 63.205717 29.779749
7.388975 63.700956 30.36518
8.780816 61.86768 30.1586
9.064311 62.841048 29.090958
8.253277 63.205717 29.779749
14.742517 28.242062 42.606094
14.416819 27.077715 43.341452
-5.237621 49.348261 47.88533
-5.860801 50.812161 47.608679
7.145177 25.475935 49.931388
6.764985 24.178925 50.579384
7.641105 24.265535 49.934303
11.079809 26.901929 46.482325
10.146255 26.872872 47.260317
10.712777 25.56702 47.183361
11.971803 26.899552 45.717806
11.405282 28.205404 45.794761
11.079809 26.901929 46.482325
12.830391 26.912369 44.935367
11.971803 26.899552 45.717806
13.33488 60.524817 24.651189
12.673662 60.890636 25.476684
13.157536 59.54035 25.741134
20.228221 51.573435 17.424295
19.628462 52.108301 18.448048
20.131213 50.761989 18.406173
20.784492 51.163601 16.380292
20.281742 52.509912 16.422167
20.228221 51.573435 17.424295
21.298745 49.89953 16.209271
20.784492 51.163601 16.380292
22.351574 47.381882 15.934913
22.304476 46.56567 16.93986
19.0703 35.147527 33.896937
18.876806 34.081282 34.834904
22.032299 39.38106 25.026784
21.355826 39.751747 26.163094
21.990819 38.472433 25.932725
22.060226 42.220709 22.150931
22.074501 41.25108 23.119142
22.674345 40.944598 21.967294
-3.390562 32.87331 53.827066
-2.80771 31.573741 53.975536
-3.201949 34.404015 53.090433
-4.063222 34.243949 53.687496
-3.390562 32.87331 53.827066
-6.91967 57.10293 45.147185
-6.248159 55.547037 45.500134
-6.726864 58.600914 44.193697
-6.91967 57.10293 45.147185
-5.616295 65.966377 39.024831
-5.73749 64.445325 40.076179
-4.831433 64.44409 39.459921
-5.392155 67.416351 37.879086
-5.616295 65.966377 39.024831
-5.074528 68.72068 36.762863
-5.392155 67.416351 37.879086
-4.392611 67.26947 37.29235
2.173024 65.56617 33.741354
1.25501 65.828343 34.262586
1.895817 64.376538 34.782051
2.173024 65.56617 33.741354
3.035173 65.327809 33.219175
4.4188 67.344547 30.533191
4.151982 66.212952 31.63024
5.33148 67.00362 29.935997
4.4188 67.344547 30.533191
5.927809 65.527107 30.482958
5.33148 67.00362 29.935997
6.615865 64.009107 30.945399
5.927809 65.527107 30.482958
5.735505 64.366652 31.545388
7.196672 62.540501 31.42761
7.388975 63.700956 30.36518
6.615865 64.009107 30.945399
2.436128 23.925461 53.528997
1.927245 25.161664 53.452269
1.556245 23.898124 54.086242
3.330842 23.899969 52.956692
2.436128 23.925461 53.528997
4.20527 24.001822 52.366841
3.681556 25.290855 52.305172
3.330842 23.899969 52.956692
8.57448 24.274027 49.236176
7.641105 24.265535 49.934303
9.453443 24.261737 48.573698
8.90026 25.550254 48.62383
8.57448 24.274027 49.236176
10.346732 24.342272 47.835428
9.453443 24.261737 48.573698
10.712777 25.56702 47.183361
10.346732 24.342272 47.835428
14.671758 59.683277 22.90006
14.009891 60.146347 23.76399
14.480622 58.71146 24.051707
14.671758 59.683277 22.90006
15.326766 59.196013 22.029922
22.244799 45.6726 18.025588
22.304476 46.56567 16.93986
21.729591 46.91024 18.085148
17.003436 31.830855 38.605358
16.274504 31.845477 39.507019
16.812835 30.604275 39.360767
17.219248 33.017004 37.763388
17.003436 31.830855 38.605358
17.450457 34.249075 36.858767
16.696313 34.304127 37.846989
17.219248 33.017004 37.763388
19.259385 37.404545 32.158079
19.174357 36.311451 33.02701
19.839824 36.050804 32.021744
23.296248 40.715313 20.737744
22.674345 40.944598 21.967294
23.330309 41.528464 19.750553
23.296248 40.715313 20.737744
-4.806701 40.238954 51.668473
-5.492208 41.632445 51.516754
-3.915718 40.254246 51.103752
-4.806701 40.238954 51.668473
-4.174679 38.703345 51.930428
20.496834 35.888988 30.964988
19.839824 36.050804 32.021744
20.581406 36.93656 30.045224
20.496834 35.888988 30.964988
21.153388 35.68165 29.857399
21.907647 37.610697 26.871913
21.276153 37.786171 28.003335
21.869453 36.553747 27.806213
21.990819 38.472433 25.932725
21.907647 37.610697 26.871913
-2.46377 28.773224 54.847488
-2.739449 27.426141 55.536985
-1.564966 28.846245 54.272085
-2.187328 30.187128 54.145666
-2.46377 28.773224 54.847488
-0.467591 26.193994 54.574627
-0.995541 27.48264 54.43943
-1.313459 26.143695 55.109104
0.130926 24.994688 54.626908
0.448844 26.333633 53.957234
-0.467591 26.193994 54.574627
0.643918 23.815552 54.694677
0.130926 24.994688 54.626908
-0.272518 23.675914 55.312071
1.556245 23.898124 54.086242
0.643918 23.815552 54.694677
-6.439113 60.011568 43.22542
-6.726864 58.600914 44.193697
-5.75668 58.506895 43.595989
-6.185032 61.431427 42.218588
-5.210778 61.420293 41.569491
-5.926881 62.934171 41.160366
-6.439113 60.011568 43.22542
-6.185032 61.431427 42.218588
-1.5073 66.408157 35.87606
-2.497405 66.663101 36.396137
-1.807212 65.097984 36.984131
-1.5073 66.408157 35.87606
-0.577763 66.204868 35.351192
0.319691 66.102703 34.770808
1.25501 65.828343 34.262586
9.788101 62.62604 28.341593
9.064311 62.841048 29.090958
10.365205 61.14856 28.699022
10.561457 62.271589 27.570805
9.788101 62.62604 28.341593
15.078625 29.423614 41.842574
14.185192 29.44576 42.77524
14.742517 28.242062 42.606094
15.859926 29.419407 40.967928
15.302601 30.623105 41.137073
15.078625 29.423614 41.842574
16.668148 29.350814 40.047712
15.859926 29.419407 40.967928
16.812835 30.604275 39.360767
16.668148 29.350814 40.047712
-5.723496 52.422184 46.732304
-5.860801 50.812161 47.608679
-4.794528 52.416889 46.128628
-5.52292 53.992538 45.832325
-5.723496 52.422184 46.732304
-5.192789 43.163386 50.651463
-5.492208 41.632445 51.516754
-5.00009 44.653227 49.876951
-5.192789 43.163386 50.651463
-4.355041 43.279697 50.067285
-4.821241 46.309763 49.017414
-5.00009 44.653227 49.876951
-4.579904 47.744517 48.220843
-4.821241 46.309763 49.017414
-3.921005 46.204293 48.496202
-4.337386 49.24279 47.364119
-5.237621 49.348261 47.88533
-4.579904 47.744517 48.220843
5.035577 24.141928 51.770933
4.20527 24.001822 52.366841
5.892114 24.140237 51.201508
6.764985 24.178925 50.579384
5.41252 25.391017 51.145895
5.035577 24.141928 51.770933
5.892114 24.140237 51.201508
13.606295 26.94296 44.189627
13.07318 28.233617 44.284502
12.830391 26.912369 44.935367
14.416819 27.077715 43.341452
13.606295 26.94296 44.189627
11.97252 61.412676 26.173299
11.293641 61.856645 26.854102
11.817439 60.350139 27.247431
11.97252 61.412676 26.173299
12.673662 60.890636 25.476684
13.33488 60.524817 24.651189
14.009891 60.146347 23.76399
17.470005 55.689554 20.424892
17.014577 57.055908 20.250301
16.86065 56.131296 21.390751
18.084022 55.219357 19.418515
17.470005 55.689554 20.424892
17.930096 54.294745 20.558965
18.695743 54.720663 18.417991
18.084022 55.219357 19.418515
19.134791 53.372146 18.509379
19.037783 52.560702 19.491257
19.628462 52.108301 18.448048
18.695743 54.720663 18.417991
19.134791 53.372146 18.509379
21.827893 48.687624 16.017771
21.298745 49.89953 16.209271
21.26012 49.015217 17.19092
21.827893 48.687624 16.017771
22.351574 47.381882 15.934913
18.179597 34.149648 35.839182
18.876806 34.081282 34.834904
17.656662 35.436771 35.922783
17.450457 34.249075 36.858767
18.179597 34.149648 35.839182
18.48986 36.501268 34.033271
19.0703 35.147527 33.896937
19.174357 36.311451 33.02701
22.042963 40.317671 24.096329
22.032299 39.38106 25.026784
21.428844 41.593783 24.279967
22.042963 40.317671 24.096329
22.074501 41.25108 23.119142
22.78251 44.44182 17.947529
22.244799 45.6726 18.025588
22.207625 44.78639 19.092818
23.372942 42.349155 18.758392
22.702703 42.734919 20.006921
23.330309 41.528464 19.750553
23.390645 43.166609 17.772514
23.372942 42.349155 18.758392
24.018251 41.960154 17.516147
22.78251 44.44182 17.947529
23.390645 43.166609 17.772514
3 0 60 58
3 0 62 60
3 0 64 62
3 1 226 228
3 226 65 227
3 226 227 228
3 1 67 65
3 1 69 67
3 3 72 70
3 3 74 72
3 2 77 75
3 4 229 231
3 229 78 230
3 229 230 231
3 5 81 79
3 5 232 234
3 234 233 81
3 232 233 234
3 5 235 236
3 6 237 239
3 239 238 82
3 237 238 239
3 6 240 242
3 240 83 241
3 240 241 242
3 6 84 83
3 8 87 85
3 8 89 87
3 9 92 90
3 9 94 92
3 9 96 94
3 11 99 97
3 11 101 99
3 7 243 244
3 12 245 247
3 247 246 104
3 245 246 247
3 12 248 249
3 12 250 251
3 13 107 105
3 13 109 107
3 10 112 110
3 14 115 113
3 14 117 115
3 15 121 119
3 15 123 121
3 15 125 123
3 16 128 126
3 18 129 59
3 18 130 129
3 18 132 130
3 20 133 61
3 20 134 133
3 20 136 134
3 22 137 63
3 22 138 137
3 23 252 253
3 23 254 255
3 23 256 258
3 256 140 257
3 256 257 258
3 25 141 66
3 25 142 141
3 25 144 142
3 27 145 68
3 27 146 145
3 28 149 147
3 30 150 71
3 30 151 150
3 30 153 151
3 32 154 73
3 32 155 154
3 33 158 156
3 35 159 76
3 35 160 159
3 259 161 260
3 262 261 161
3 263 163 264
3 266 265 163
3 17 165 127
3 268 267 80
3 19 269 271
3 271 270 131
3 269 270 271
3 37 272 273
3 37 274 276
3 274 166 275
3 274 275 276
3 21 167 135
3 38 168 86
3 38 169 168
3 38 170 169
3 39 171 88
3 39 172 171
3 278 277 173
3 279 175 280
3 24 176 139
3 41 177 91
3 41 178 177
3 41 179 178
3 42 180 93
3 42 181 180
3 42 183 181
3 44 184 95
3 44 185 184
3 26 186 143
3 45 187 98
3 45 188 187
3 45 189 188
3 46 190 100
3 46 191 190
3 36 192 164
3 47 193 102
3 47 194 193
3 48 281 283
3 281 195 282
3 281 282 283
3 48 196 195
3 48 197 196
3 284 198 285
3 286 285 103
3 284 285 286
3 287 199 288
3 289 288 198
3 287 288 289
3 291 290 199
3 29 292 294
3 294 293 148
3 292 293 294
3 31 200 152
3 49 295 297
3 297 296 106
3 295 296 297
3 49 298 300
3 298 299 300
3 49 301 302
3 304 303 108
3 43 201 182
3 50 202 111
3 50 203 202
3 34 204 157
3 51 205 114
3 51 206 205
3 51 207 206
3 52 208 116
3 52 209 208
3 40 210 174
3 53 211 118
3 53 212 211
3 305 213 306
3 54 214 120
3 54 215 214
3 54 216 215
3 55 217 122
3 55 218 217
3 55 219 218
3 56 220 124
3 56 221 220
3 307 222 308
3 309 308 162
3 307 308 309
3 57 310 312
3 310 223 311
3 310 311 312
3 57 224 223
3 57 225 224
3 58 59 16
3 60 59 58
3 60 18 59
3 60 61 18
3 62 61 60
3 62 20 61
3 62 63 20
3 64 63 62
3 64 22 63
3 65 313 314
3 65 315 317
3 315 23 316
3 315 316 317
3 65 66 23
3 67 66 65
3 67 25 66
3 67 68 25
3 69 68 67
3 69 27 68
3 70 71 28
3 72 71 70
3 72 30 71
3 72 73 30
3 74 73 72
3 74 32 73
3 75 76 33
3 77 76 75
3 77 35 76
3 78 318 319
3 78 320 321
3 79 80 17
3 81 80 79
3 81 322 324
3 324 323 80
3 322 323 324
3 81 325 326
3 329 328 81
3 327 328 329
3 82 330 332
3 332 331 19
3 330 331 332
3 334 333 82
3 83 335 336
3 83 337 338
3 83 339 340
3 84 341 343
3 343 342 83
3 341 342 343
3 84 344 346
3 344 37 345
3 344 345 346
3 85 86 21
3 87 86 85
3 87 38 86
3 87 88 38
3 89 88 87
3 89 39 88
3 90 91 24
3 92 91 90
3 92 41 91
3 92 93 41
3 94 93 92
3 94 42 93
3 94 95 42
3 96 95 94
3 96 44 95
3 97 98 26
3 99 98 97
3 99 45 98
3 99 100 45
3 101 100 99
3 101 46 100
3 347 102 348
3 349 348 36
3 347 348 349
3 350 102 351
3 352 47 353
3 354 353 102
3 352 353 354
3 355 48 356
3 357 103 358
3 359 358 48
3 357 358 359
3 360 103 361
3 363 362 103
3 104 364 366
3 366 365 29
3 364 365 366
3 368 367 104
3 105 106 31
3 107 106 105
3 107 49 106
3 107 108 49
3 109 108 107
3 109 369 371
3 371 370 108
3 369 370 371
3 110 111 43
3 112 111 110
3 112 50 111
3 113 114 34
3 115 114 113
3 115 51 114
3 115 116 51
3 117 116 115
3 117 52 116
3 372 118 373
3 374 373 40
3 372 373 374
3 375 118 376
3 377 53 378
3 379 378 118
3 377 378 379
3 119 380 382
3 380 120 381
3 380 381 382
3 121 120 119
3 121 54 120
3 121 122 54
3 123 122 121
3 123 55 122
3 123 124 55
3 125 124 123
3 125 56 124
3 383 57 384
3 386 385 57
3 126 127 4
3 128 127 126
3 128 17 127
3 59 128 16
3 129 128 59
3 129 17 128
3 129 79 17
3 130 79 129
3 130 5 79
3 130 131 5
3 132 131 130
3 132 19 131
3 61 132 18
3 133 132 61
3 133 19 132
3 133 82 19
3 134 82 133
3 134 6 82
3 134 135 6
3 136 135 134
3 136 21 135
3 63 136 20
3 137 136 63
3 137 21 136
3 137 85 21
3 138 85 137
3 138 8 85
3 387 139 388
3 140 389 391
3 389 139 390
3 389 390 391
3 140 24 139
3 66 140 23
3 141 140 66
3 141 24 140
3 141 90 24
3 142 90 141
3 142 9 90
3 142 143 9
3 144 143 142
3 144 26 143
3 68 144 25
3 145 144 68
3 145 26 144
3 145 97 26
3 146 97 145
3 146 11 97
3 147 148 7
3 149 148 147
3 149 29 148
3 71 149 28
3 150 149 71
3 150 29 149
3 150 104 29
3 151 104 150
3 151 12 104
3 151 152 12
3 153 152 151
3 153 31 152
3 73 153 30
3 154 153 73
3 154 31 153
3 154 105 31
3 155 105 154
3 155 13 105
3 156 157 10
3 158 157 156
3 158 34 157
3 76 158 33
3 159 158 76
3 159 34 158
3 159 113 34
3 160 113 159
3 160 14 113
3 392 119 393
3 161 394 396
3 394 119 395
3 394 395 396
3 161 15 119
3 161 162 15
3 397 162 398
3 399 398 161
3 397 398 399
3 401 400 162
3 163 402 403
3 163 404 406
3 404 1 405
3 404 405 406
3 163 164 1
3 407 164 408
3 409 408 163
3 407 408 409
3 410 36 411
3 412 411 164
3 410 411 412
3 413 36 414
3 413 414 415
3 417 416 36
3 127 78 4
3 165 78 127
3 165 418 420
3 420 419 78
3 418 419 420
3 80 165 17
3 421 165 422
3 423 422 80
3 421 422 423
3 425 424 165
3 131 426 428
3 428 427 5
3 426 427 428
3 430 429 131
3 432 431 19
3 166 433 434
3 166 435 437
3 435 7 436
3 435 436 437
3 135 84 6
3 167 84 135
3 167 37 84
3 86 167 21
3 168 167 86
3 168 37 167
3 168 166 37
3 169 166 168
3 169 7 166
3 169 147 7
3 170 147 169
3 170 28 147
3 88 170 38
3 171 170 88
3 171 28 170
3 171 70 28
3 172 70 171
3 172 3 70
3 173 174 2
3 438 174 439
3 440 439 173
3 438 439 440
3 441 40 442
3 443 442 174
3 441 442 443
3 444 40 445
3 447 446 40
3 175 448 449
3 175 450 452
3 450 4 451
3 450 451 452
3 139 453 454
3 176 455 457
3 457 456 139
3 455 456 457
3 176 458 459
3 91 176 24
3 177 176 91
3 177 460 462
3 462 461 176
3 460 461 462
3 177 463 465
3 463 175 464
3 463 464 465
3 178 175 177
3 178 4 175
3 178 126 4
3 179 126 178
3 179 16 126
3 93 179 41
3 180 179 93
3 180 16 179
3 180 58 16
3 181 58 180
3 181 0 58
3 181 182 0
3 183 182 181
3 183 43 182
3 95 183 42
3 184 183 95
3 184 43 183
3 184 110 43
3 185 110 184
3 185 10 110
3 143 96 9
3 186 96 143
3 186 44 96
3 98 186 26
3 187 186 98
3 187 44 186
3 187 185 44
3 188 185 187
3 188 10 185
3 188 156 10
3 189 156 188
3 189 33 156
3 100 189 45
3 190 189 100
3 190 33 189
3 190 75 33
3 191 75 190
3 191 2 75
3 164 69 1
3 192 69 164
3 192 27 69
3 102 192 36
3 193 192 102
3 193 27 192
3 193 146 27
3 194 146 193
3 194 11 146
3 466 47 467
3 195 468 469
3 195 470 472
3 470 47 471
3 470 471 472
3 195 194 47
3 196 194 195
3 196 11 194
3 196 101 11
3 197 101 196
3 197 46 101
3 103 197 48
3 198 197 103
3 198 46 197
3 198 191 46
3 199 191 198
3 199 2 191
3 199 173 2
3 473 173 474
3 475 474 199
3 473 474 475
3 477 476 173
3 148 478 480
3 480 479 7
3 478 479 480
3 482 481 148
3 484 483 29
3 152 485 487
3 487 486 12
3 485 486 487
3 200 488 490
3 490 489 152
3 488 489 490
3 200 491 492
3 106 200 31
3 493 200 494
3 495 494 106
3 493 494 495
3 497 496 200
3 108 498 500
3 500 499 49
3 498 499 500
3 502 501 108
3 182 64 0
3 201 64 182
3 201 22 64
3 111 201 43
3 202 201 111
3 202 22 201
3 202 138 22
3 203 138 202
3 203 8 138
3 157 112 10
3 204 112 157
3 204 50 112
3 114 204 34
3 205 204 114
3 205 50 204
3 205 203 50
3 206 203 205
3 206 8 203
3 206 89 8
3 207 89 206
3 207 39 89
3 116 207 51
3 208 207 116
3 208 39 207
3 208 172 39
3 209 172 208
3 209 3 172
3 174 77 2
3 210 77 174
3 210 35 77
3 118 210 40
3 211 210 118
3 211 35 210
3 211 160 35
3 212 160 211
3 212 14 160
3 213 503 504
3 213 505 507
3 505 53 506
3 505 506 507
3 120 508 510
3 508 213 509
3 508 509 510
3 214 213 120
3 214 53 213
3 214 212 53
3 215 212 214
3 215 14 212
3 215 117 14
3 216 117 215
3 216 52 117
3 122 216 54
3 217 216 122
3 217 52 216
3 217 209 52
3 218 209 217
3 218 3 209
3 218 74 3
3 219 74 218
3 219 32 74
3 124 219 55
3 220 219 124
3 220 32 219
3 220 155 32
3 221 155 220
3 221 13 155
3 162 125 15
3 222 125 162
3 222 56 125
3 511 222 512
3 223 513 515
3 513 222 514
3 513 514 515
3 223 56 222
3 223 221 56
3 224 221 223
3 224 13 221
3 224 109 13
3 225 109 224
3 225 516 518
3 518 517 109
3 516 517 518
3 519 225 520
3 521 520 57
3 519 520 521
3 522 225 523
3 522 523 524
3 526 525 225
