ply
format ascii 1.0
element vertex 674
property float x
property float y
property float z
element face 779
property list uchar int vertex_index
end_header
17.165039 62.778118 -51.248756
0.428223 62.079052 -47.410851
6.071878 88.000343 -44.613766
5.383679 38.025261 -54.385822
8.540997 63.255203 -50.456841
3.89147 50.611832 -51.221378
11.230453 48.556496 -52.163887
17.9678 45.193554 -51.349934
-5.429057 58.986427 -42.559673
-4.647708 70.937546 -42.396343
3.332971 75.180359 -47.06218
12.8407 77.410286 -49.363594
9.3248 98.898705 -38.125401
16.534964 90.682693 -45.302849
-2.717985 50.479538 -48.14571
12.955297 63.173347 -51.139145
10.150247 56.249138 -51.45237
14.147142 55.742004 -51.677143
1.092664 85.593727 -43.327217
-0.041718 79.493652 -44.523949
4.63765 81.683571 -46.237087
8.038297 76.455521 -48.535767
9.787875 83.392479 -47.374176
7.092803 103.794754 -28.62331
5.247106 100.621185 -33.545586
11.170377 102.871704 -33.568802
18.371193 96.243958 -41.549103
19.665134 84.51371 -47.581322
-2.927421 60.862816 -45.078583
-4.033813 54.952518 -45.266331
-1.020056 56.043278 -47.622066
4.939553 44.421417 -52.864002
2.417478 39.844109 -54.429726
-0.233244 36.512226 -56.608471
2.717566 34.227238 -56.519073
14.329775 38.455051 -52.008469
2.232996 91.40303 -41.03204
4.374492 62.968815 -49.228149
2.407654 56.58334 -49.430809
6.403233 56.612938 -50.766125
7.560699 49.784714 -51.964203
8.307718 42.809219 -52.973595
21.214096 61.589405 -50.79995
17.949324 54.369869 -51.459755
-4.956594 64.97168 -42.47662
-1.961234 66.812065 -45.101387
-1.131218 73.218102 -44.922554
1.968162 68.288681 -47.405254
6.146541 69.685287 -48.985294
10.779076 70.376343 -50.104755
15.383924 70.827072 -50.568146
3.82324 96.562225 -37.766983
7.675148 93.81398 -41.953545
14.928373 100.281105 -37.932785
13.173433 95.469955 -42.175282
11.458139 89.683609 -45.356598
14.863297 84.293373 -47.86274
17.670345 78.048195 -49.468719
19.783756 70.293678 -50.445625
0.462404 50.754154 -49.994827
14.643045 47.172108 -51.944386
11.307005 40.779366 -52.67683
8.282313 35.699379 -53.861301
5.349189 31.506624 -55.784298
15.06919 63.478512 -51.231594
13.728921 59.580128 -51.449574
15.753196 59.335384 -51.477226
3.534416 86.81102 -44.062176
2.880333 83.728889 -44.886951
5.417623 84.93959 -45.557938
7.283359 82.55114 -46.939156
8.041951 85.97612 -46.078285
9.071972 103.503822 -31.185469
-1.391268 61.367542 -46.282597
-1.900685 58.499916 -46.405704
-0.283489 58.905254 -47.507839
5.247356 41.251007 -53.633911
3.700356 42.027973 -53.55563
3.869395 39.023388 -54.477489
2.579848 36.979401 -55.521023
4.032921 35.965118 -55.36977
16.674215 31.31279 -50.782429
15.272332 32.893391 -51.433914
-0.423398 89.877251 -40.333939
0.176132 92.401253 -39.035789
6.499353 62.96479 -49.959423
5.317925 59.803925 -50.007427
7.389494 59.807594 -50.587509
10.875859 52.734257 -51.822826
9.011549 52.889877 -51.684776
9.463299 49.489925 -52.094902
8.000921 46.495533 -52.469219
9.63097 45.6231 -52.513123
-6.074955 66.514 -41.063141
-4.732956 67.893539 -42.516548
-3.450895 65.761894 -43.951942
-3.246153 69.01828 -43.819118
1.548251 77.462692 -45.803909
-0.655558 76.240364 -44.781601
0.935283 74.258408 -46.022064
0.478861 70.934067 -46.230518
2.535097 71.862312 -47.198895
3.922356 69.103958 -48.214756
4.896991 72.377853 -48.151958
10.39942 77.000694 -49.016449
9.621163 73.604095 -49.418224
11.999143 73.969505 -49.822144
13.085855 70.794601 -50.398693
14.254725 74.301788 -50.044601
7.298891 99.955025 -35.906097
4.478444 98.679283 -35.761742
6.528544 97.620369 -38.219666
5.666492 95.322441 -39.948814
8.566114 96.567184 -40.119774
15.484035 102.305481 -35.396034
17.440857 100.708763 -37.343697
17.525867 93.456894 -43.662441
15.826352 95.955452 -42.00098
14.976637 93.271469 -43.837879
12.161475 92.686913 -43.87851
14.131002 90.339096 -45.409489
13.359569 87.361961 -46.644241
15.862379 87.555275 -46.729485
20.985474 80.997055 -48.367168
18.672007 81.405151 -48.631306
20.009626 77.785126 -49.287769
18.979261 74.331573 -50.017651
21.207558 73.874168 -49.759262
21.873627 69.796425 -50.129803
-6.467909 58.190048 -41.086422
-6.726932 55.661461 -41.135189
-5.830415 56.410885 -42.495304
-3.28116 52.929668 -46.708748
-4.594753 52.520145 -45.457058
3.241642 53.629696 -50.355186
1.470138 53.705803 -49.632935
2.162569 50.770496 -50.671871
-0.030098 34.195492 -57.920048
18.161507 49.967972 -51.420113
16.244865 50.794983 -51.701271
16.375538 46.352188 -51.689243
12.868988 39.783485 -52.372967
11.239166 36.877827 -52.852028
9.819255 38.184532 -53.17836
9.6784 34.497395 -53.444679
10.738596 63.452293 -50.850136
9.428241 59.71788 -51.008495
11.526132 59.83041 -51.277443
12.188331 56.050789 -51.620441
12.679976 51.901436 -51.89986
-1.361966 84.248878 -42.386864
-1.863152 81.314461 -42.960861
0.412305 82.667572 -43.95816
2.197864 80.630165 -45.436699
3.963081 78.495941 -46.713665
5.6514 75.894768 -47.869003
6.442631 79.2911 -47.473331
8.987713 79.934113 -48.079395
11.443811 80.602898 -48.455406
6.264174 102.328651 -31.298338
8.225972 101.878937 -33.646107
10.216945 101.115303 -35.806828
19.211565 98.592033 -39.262142
20.720018 96.258957 -40.888069
19.911621 93.578156 -43.147858
19.037836 90.897644 -44.94384
18.320171 87.911064 -46.470192
20.551247 87.84404 -46.120361
-4.271996 60.123302 -43.826889
-4.648946 57.182957 -43.947453
-3.378683 57.905243 -45.203762
-2.589557 55.694744 -46.480339
-1.910479 53.229469 -47.767208
4.494641 47.624859 -52.043613
2.789159 47.801216 -51.694054
3.32355 44.872189 -52.663437
2.102175 42.50272 -53.406445
0.750208 40.639877 -54.209366
1.105009 37.999638 -55.467045
1.262804 35.566662 -56.602844
1.396358 33.114254 -57.697044
17.697323 40.734245 -51.220325
16.092119 41.693829 -51.661697
15.849375 37.431698 -51.551403
-0.870078 87.050667 -41.546886
1.655059 88.654442 -42.267807
4.238458 89.870667 -42.945858
2.34351 62.481956 -48.409122
1.471908 59.395813 -48.454041
3.398034 59.614597 -49.331532
4.330126 56.595242 -50.172081
5.230478 53.56218 -50.956295
8.245755 56.315083 -51.184509
7.063345 53.083477 -51.408825
5.717938 50.250023 -51.661701
6.188073 46.783661 -52.384338
6.662555 43.707813 -52.976051
6.819239 40.377064 -53.582733
19.240147 62.381611 -51.093239
17.809189 58.658913 -51.387508
19.619259 57.868408 -51.179447
19.825928 53.502277 -51.156521
19.828234 48.715607 -51.051674
19.684755 44.102001 -50.875591
19.372967 28.657324 -49.365082
-6.214765 60.828148 -41.171318
-6.153462 63.539082 -41.067589
-5.188911 61.97543 -42.473549
-3.909804 62.949299 -43.817589
-2.426652 63.714867 -45.101532
-0.708805 64.583618 -46.301495
-4.326736 73.891098 -42.420341
-2.194504 78.213852 -43.428162
-2.635634 75.230797 -43.602776
-2.89034 72.054436 -43.798397
-1.451218 69.993248 -45.104664
-0.074422 67.779205 -46.302536
1.221365 65.096603 -47.43853
3.284893 65.675865 -48.397457
5.351889 66.251617 -49.15834
7.508834 66.73381 -49.789162
7.212125 73.208107 -48.831486
8.421195 70.351181 -49.58078
9.672305 66.790909 -50.309887
11.948254 67.047005 -50.671349
14.090514 67.166206 -50.880527
16.449327 66.899994 -50.977127
1.0037 95.031097 -37.347298
2.860618 93.976059 -39.542622
4.922545 92.819748 -41.498955
6.675768 91.000839 -43.347797
12.985301 101.749649 -35.839367
12.10609 99.773903 -38.056664
16.660528 98.478241 -39.803806
14.063397 98.13575 -40.058891
11.347649 97.264771 -40.364998
10.404963 94.89267 -42.03965
9.530905 91.943611 -43.728783
8.603617 89.106705 -44.950279
10.639567 86.651993 -46.476181
12.465988 84.109276 -47.665737
13.777616 80.999077 -48.697304
17.237043 84.722961 -47.757648
16.353613 81.368675 -48.748978
15.23005 77.769081 -49.517792
16.633537 74.475143 -50.110813
17.606625 70.833992 -50.566978
18.578606 66.718094 -50.897068
20.623388 65.982803 -50.692924
-5.208245 54.556831 -43.938324
0.7273 56.37286 -48.637569
-0.248578 53.390335 -48.823151
-1.244548 50.633373 -49.123318
1.148381 47.981361 -51.195103
-0.504276 48.137936 -50.495422
16.117533 55.308929 -51.619453
14.605371 51.600723 -51.834366
12.978714 47.968597 -52.094391
14.540187 42.93829 -52.004429
12.934725 43.802963 -52.264648
11.303583 44.704418 -52.43927
9.806533 41.73098 -52.885117
8.253175 39.116982 -53.475948
6.882704 37.013161 -54.149601
6.72255 33.49366 -54.747005
5.472414 34.909374 -55.056316
4.114676 32.964809 -56.185619
2.792043 31.604565 -57.398815
1.568854 30.521149 -58.698849
15.635379 29.891127 -51.032163
16.320324 29.182837 -50.664301
-0.654705 92.915932 -37.953075
-1.063214 91.704445 -38.614645
-4.690332 69.415543 -42.456446
-5.385466 68.766373 -41.775973
-5.342842 70.288376 -41.71587
18.585099 100.749786 -36.992666
17.69667 101.672264 -36.015486
21.101286 77.599556 -49.097351
20.49755 79.391091 -48.827468
21.58921 79.205521 -48.637051
21.700252 75.644077 -49.333098
20.608592 75.829647 -49.523516
21.101286 77.599556 -49.097351
22.163525 73.692031 -49.548529
21.700252 75.644077 -49.333098
-3.412743 50.427349 -47.539513
-3.69433 51.652414 -46.821032
-2.999573 51.704603 -47.427229
-3.188905 49.339594 -48.29447
-3.412743 50.427349 -47.539513
-0.696262 33.643492 -58.633065
0.072485 32.993769 -58.538256
11.110427 35.009594 -52.918039
11.930806 36.250311 -52.645935
10.330044 33.819378 -53.214365
10.458783 35.687611 -53.148353
11.110427 35.009594 -52.918039
6.678489 103.061702 -29.960824
5.236406 102.371311 -29.998807
5.650721 103.104363 -28.661293
21.774589 96.00169 -40.573187
21.024986 97.377499 -39.703501
20.694356 92.073723 -43.821281
21.055772 93.455292 -42.813073
20.257464 90.733467 -44.719273
19.474728 92.2379 -44.045849
20.694356 92.073723 -43.821281
21.014169 89.206665 -45.307533
19.794542 89.370842 -45.5321
20.257464 90.733467 -44.719273
16.57613 36.669955 -51.277771
16.773349 39.082971 -51.385864
17.500104 38.321228 -51.112232
14.664782 33.697771 -51.691021
14.327293 31.471038 -51.674158
-1.798088 87.703675 -40.557323
-2.042631 86.259365 -41.089475
20.679625 53.028126 -50.951629
20.623907 55.289473 -50.993793
20.680777 50.63479 -50.899206
19.827081 51.108942 -51.104097
20.679625 53.028126 -50.951629
20.415031 43.433111 -50.607023
20.615851 45.961744 -50.71241
19.458607 41.673983 -50.771982
20.415031 43.433111 -50.607023
18.899268 26.258979 -49.170542
19.998494 27.727739 -48.932272
18.303058 27.045486 -49.568272
18.899268 26.258979 -49.170542
-6.658624 61.561201 -40.412729
-6.668492 60.261154 -40.450535
-4.302411 75.425098 -42.249102
-5.107359 74.579502 -41.641824
3.922788 99.920693 -33.503293
4.322172 100.784641 -32.358143
2.790125 96.879909 -36.65424
3.117726 97.938438 -35.651619
4.150842 97.620754 -36.764363
2.41347 95.796661 -37.557141
1.380355 96.114345 -36.444397
2.790125 96.879909 -36.65424
22.263441 67.604679 -50.211326
22.866948 69.445888 -49.886816
-6.930827 54.462 -41.112679
-6.473685 54.804241 -41.857826
-5.201995 52.223084 -44.757204
-4.979056 51.261348 -45.546942
1.408752 46.620077 -51.754047
1.96877 47.891289 -51.444579
2.229141 46.530004 -52.003523
-1.078606 47.059853 -50.716915
-0.264128 46.873438 -51.123483
-1.334128 48.1509 -50.035001
-1.078606 47.059853 -50.716915
-0.985277 36.936968 -56.496416
-1.074019 38.114925 -55.802614
-0.321986 37.690184 -55.914669
6.03587 32.500142 -55.265652
6.698078 31.777826 -54.960651
6.011397 30.784309 -55.479298
2.762783 30.205827 -57.855459
3.394596 30.787579 -57.199485
2.151188 29.664119 -58.505476
2.180448 31.062857 -58.048832
2.762783 30.205827 -57.855459
9.437798 104.202393 -29.754636
8.082387 103.649288 -29.90439
8.448214 104.347859 -28.473557
10.46854 104.000084 -30.974262
9.437798 104.202393 -29.754636
11.517743 103.684025 -32.165928
10.121175 103.187763 -32.377136
10.46854 104.000084 -30.974262
15.973274 32.103091 -51.108171
16.287609 34.400801 -51.219026
16.98855 33.610501 -50.893284
14.934438 30.681428 -51.357906
15.973274 32.103091 -51.108171
15.635379 29.891127 -51.032163
14.327293 31.471038 -51.674158
14.934438 30.681428 -51.357906
-1.362979 90.442444 -39.26372
-1.574748 89.116967 -39.95085
-0.123633 91.139252 -39.684864
-1.362979 90.442444 -39.26372
-1.063214 91.704445 -38.614645
21.317991 59.333036 -50.815508
22.136249 61.105152 -50.583149
-6.056465 68.076603 -41.049269
-6.611763 67.286911 -40.364979
-5.403956 67.203769 -41.789845
-6.056465 68.076603 -41.049269
-5.385466 68.766373 -41.775973
16.718259 102.470623 -35.041654
15.938015 103.161354 -34.027792
16.462446 101.507122 -36.369866
16.718259 102.470623 -35.041654
17.69667 101.672264 -36.015486
22.49656 71.65316 -49.733799
21.540592 71.835296 -49.944533
22.163525 73.692031 -49.548529
22.866948 69.445888 -49.886816
22.49656 71.65316 -49.733799
-6.597421 56.925754 -41.110805
-6.985706 56.394415 -40.466331
-6.856194 57.658709 -40.441948
-6.025426 55.178953 -42.537883
-6.473685 54.804241 -41.857826
-6.278674 56.036173 -41.815247
-4.351127 51.447653 -46.195187
-3.937956 52.724907 -46.082903
-3.69433 51.652414 -46.821032
-4.979056 51.261348 -45.546942
-4.351127 51.447653 -46.195187
-0.768177 34.750242 -57.874937
-0.86975 35.908609 -57.219149
-0.131671 35.353859 -57.26426
-0.768177 34.750242 -57.874937
-0.696262 33.643492 -58.633065
12.745717 37.70314 -52.406405
13.599381 39.119268 -52.190718
13.476111 37.038923 -52.224155
12.054077 38.330656 -52.612498
12.745717 37.70314 -52.406405
11.930806 36.250311 -52.645935
5.279035 30.015164 -56.065635
6.011397 30.784309 -55.479298
4.673169 30.738608 -56.392227
5.279035 30.015164 -56.065635
-5.299681 71.741035 -41.704494
-5.342842 70.288376 -41.71587
-1.612559 82.781669 -42.673862
-2.783523 82.019722 -42.112077
-2.53293 83.48693 -41.825079
4.830706 101.638374 -31.234519
5.236406 102.371311 -29.998807
5.75564 101.474918 -32.421962
4.322172 100.784641 -32.358143
4.830706 101.638374 -31.234519
20.27076 98.544037 -38.890537
19.470453 99.691421 -37.951889
20.529648 99.643425 -37.580284
19.965792 97.425495 -40.075105
20.27076 98.544037 -38.890537
21.024986 97.377499 -39.703501
21.459971 94.795693 -41.683178
21.774589 96.00169 -40.573187
20.315819 94.918556 -42.017964
21.459971 94.795693 -41.683178
21.055772 93.455292 -42.813073
21.680515 87.728791 -45.801949
21.014169 89.206665 -45.307533
21.25312 86.196453 -46.574318
21.680515 87.728791 -45.801949
20.810063 84.531288 -47.304799
20.10819 86.178875 -46.850842
21.25312 86.196453 -46.574318
21.470233 82.772961 -47.697722
20.325304 82.755382 -47.974245
20.810063 84.531288 -47.304799
22.046501 80.843113 -48.104033
21.470233 82.772961 -47.697722
21.58921 79.205521 -48.637051
22.046501 80.843113 -48.104033
2.496336 45.065491 -52.488214
2.229141 46.530004 -52.003523
3.056355 46.336703 -52.178746
1.885649 43.880756 -52.859718
2.496336 45.065491 -52.488214
2.712862 43.687455 -53.034941
1.258515 42.828997 -53.190747
1.885649 43.880756 -52.859718
0.582531 41.897575 -53.592207
1.258515 42.828997 -53.190747
1.426191 41.571298 -53.807906
-0.028689 40.970062 -53.99594
0.582531 41.897575 -53.592207
0.16974 39.754009 -54.715117
-0.028689 40.970062 -53.99594
0.34714 38.433889 -55.343956
0.16974 39.754009 -54.715117
0.927608 39.319757 -54.838206
0.435882 37.255932 -56.037758
-0.321986 37.690184 -55.914669
0.34714 38.433889 -55.343956
0.785713 32.45315 -58.426754
0.072485 32.993769 -58.538256
0.68313 33.654873 -57.808546
15.560854 35.162544 -51.492659
16.57613 36.669955 -51.277771
16.287609 34.400801 -51.219026
14.953303 35.966924 -51.749765
15.560854 35.162544 -51.492659
14.664782 33.697771 -51.691021
14.193503 36.478601 -51.978298
15.089575 37.943374 -51.779936
14.953303 35.966924 -51.749765
13.476111 37.038923 -52.224155
14.193503 36.478601 -51.978298
-2.288575 84.858471 -41.509464
-2.53293 83.48693 -41.825079
-3.459538 84.096523 -40.947679
-1.116022 85.649773 -41.966875
-2.288575 84.858471 -41.509464
-2.042631 86.259365 -41.089475
-0.646738 88.463959 -40.940413
-1.798088 87.703675 -40.557323
-1.574748 89.116967 -39.95085
6.207138 103.754669 -27.419968
5.650721 103.104363 -28.661293
7.491151 104.377396 -27.190561
6.207138 103.754669 -27.419968
6.605486 104.337311 -25.987219
8.448214 104.347859 -28.473557
7.491151 104.377396 -27.190561
20.520573 57.472538 -51.005257
20.416677 59.728907 -50.989699
21.317991 59.333036 -50.815508
19.722594 55.685343 -51.167984
20.520573 57.472538 -51.005257
20.623907 55.289473 -50.993793
20.68759 48.268547 -50.800451
20.680777 50.63479 -50.899206
19.756494 46.408804 -50.963633
20.68759 48.268547 -50.800451
20.615851 45.961744 -50.71241
18.464892 39.990105 -50.944349
18.691039 42.418123 -51.047958
19.458607 41.673983 -50.771982
18.267672 37.577088 -50.836256
17.500104 38.321228 -51.112232
18.464892 39.990105 -50.944349
17.706102 32.958634 -50.588173
16.98855 33.610501 -50.893284
18.020437 35.256344 -50.699028
17.351332 30.604274 -50.437218
17.706102 32.958634 -50.588173
16.997442 28.474321 -50.31909
16.320324 29.182837 -50.664301
17.351332 30.604274 -50.437218
20.424259 30.055447 -49.126845
21.049787 29.125863 -48.694035
19.998494 27.727739 -48.932272
19.757176 31.05721 -49.549816
20.424259 30.055447 -49.126845
18.700708 29.276541 -49.728544
19.757176 31.05721 -49.549816
17.6308 27.664704 -49.931734
18.700708 29.276541 -49.728544
18.303058 27.045486 -49.568272
-6.795064 58.942104 -40.408087
-6.856194 57.658709 -40.441948
-6.341337 59.509098 -41.12887
-6.795064 58.942104 -40.408087
-6.668492 60.261154 -40.450535
-6.586239 65.756698 -40.363165
-6.611763 67.286911 -40.364979
-6.625493 64.269239 -40.365389
-6.586239 65.756698 -40.363165
-6.114209 65.026541 -41.065365
-6.627972 62.916668 -40.360864
-6.625493 64.269239 -40.365389
-6.184114 62.183615 -41.119453
-6.658624 61.561201 -40.412729
-6.627972 62.916668 -40.360864
-5.139195 73.217811 -41.716493
-5.107359 74.579502 -41.641824
-4.487222 72.414322 -42.408342
-5.299681 71.741035 -41.704494
-5.139195 73.217811 -41.716493
-2.872581 80.554905 -42.423332
-2.783523 82.019722 -42.112077
-3.038257 79.004601 -42.656982
-2.872581 80.554905 -42.423332
-2.028828 79.764156 -43.194512
-3.236294 77.586476 -42.753012
-3.038257 79.004601 -42.656982
-3.45686 76.094948 -42.840319
-3.236294 77.586476 -42.753012
-2.415069 76.722324 -43.515469
-3.481185 74.560947 -43.011558
-4.302411 75.425098 -42.249102
-3.45686 76.094948 -42.840319
3.538456 98.949742 -34.61137
3.922788 99.920693 -33.503293
4.862775 99.650234 -34.653664
3.538456 98.949742 -34.61137
3.117726 97.938438 -35.651619
0.010189 95.340824 -36.156601
1.380355 96.114345 -36.444397
-0.240921 94.230854 -37.108829
0.010189 95.340824 -36.156601
0.589916 93.716175 -38.191544
-0.654705 92.915932 -37.953075
-0.240921 94.230854 -37.108829
12.48501 103.236774 -33.367204
11.517743 103.684025 -32.165928
14.641839 102.953663 -34.280821
15.938015 103.161354 -34.027792
13.392471 102.675747 -34.502487
14.641839 102.953663 -34.280821
14.234668 102.027565 -35.6177
12.077839 102.310676 -34.704085
12.48501 103.236774 -33.367204
13.392471 102.675747 -34.502487
18.326211 99.650398 -38.30292
18.585099 100.749786 -36.992666
19.470453 99.691421 -37.951889
21.638321 65.697868 -50.492887
21.248507 67.889614 -50.411364
22.263441 67.604679 -50.211326
21.933675 63.501169 -50.5464
20.918742 63.786104 -50.746437
21.638321 65.697868 -50.492887
22.136249 61.105152 -50.583149
21.933675 63.501169 -50.5464
-7.119168 55.234413 -40.435363
-7.377942 55.967367 -39.766506
-6.985706 56.394415 -40.466331
-7.119168 55.234413 -40.435363
-6.930827 54.462 -41.112679
-5.714341 54.251926 -43.259394
-6.025426 55.178953 -42.537883
-5.51933 55.483858 -43.216814
-5.508741 53.241427 -43.997837
-4.901499 53.538488 -44.697691
-5.201995 52.223084 -44.757204
-5.714341 54.251926 -43.259394
-5.508741 53.241427 -43.997837
0.562201 46.79515 -51.473324
1.408752 46.620077 -51.754047
0.322053 48.059649 -50.845263
0.562201 46.79515 -51.473324
-0.264128 46.873438 -51.123483
-1.704264 49.398618 -49.34895
-0.874412 49.385655 -49.80937
-1.334128 48.1509 -50.035001
-2.440983 49.321701 -48.860146
-1.981267 50.556455 -48.634514
-1.704264 49.398618 -49.34895
-3.188905 49.339594 -48.29447
-2.440983 49.321701 -48.860146
-0.985277 36.936968 -56.496416
-0.86975 35.908609 -57.219149
9.518131 32.681371 -53.566986
10.330044 33.819378 -53.214365
8.902338 33.395442 -53.829574
9.518131 32.681371 -53.566986
8.204295 33.996434 -54.037886
8.980356 35.098387 -53.65299
8.902338 33.395442 -53.829574
7.424413 32.893574 -54.480738
6.698078 31.777826 -54.960651
7.502432 34.596519 -54.304153
8.204295 33.996434 -54.037886
7.424413 32.893574 -54.480738
4.055912 31.4677 -56.592888
4.731933 32.235717 -55.984959
4.673169 30.738608 -56.392227
3.45336 32.284687 -56.792217
4.055912 31.4677 -56.592888
3.394596 30.787579 -57.199485
0.871961 31.156598 -58.927656
0.785713 32.45315 -58.426754
1.482606 31.817702 -58.197947
1.469625 29.283436 -59.261244
2.151188 29.664119 -58.505476
0.896547 30.058765 -59.473734
1.469625 29.283436 -59.261244
0.199654 30.694213 -59.702541
0.871961 31.156598 -58.927656
0.896547 30.058765 -59.473734
3 0 66 64
3 2 69 67
3 2 71 69
3 1 75 73
3 3 78 76
3 3 80 78
3 270 269 81
3 271 84 272
3 4 87 85
3 6 90 88
3 6 92 90
3 9 273 275
3 273 94 274
3 273 274 275
3 9 96 94
3 10 99 97
3 10 101 99
3 10 103 101
3 11 106 104
3 11 108 106
3 12 111 109
3 12 113 111
3 276 115 277
3 13 118 116
3 13 120 118
3 13 122 120
3 278 125 279
3 280 279 123
3 278 279 280
3 281 127 282
3 283 282 125
3 281 282 283
3 285 284 127
3 8 131 129
3 14 286 288
3 288 287 132
3 286 287 288
3 14 289 290
3 5 136 134
3 292 291 137
3 7 140 138
3 293 142 294
3 295 144 296
3 297 296 142
3 295 296 297
3 15 147 145
3 17 148 65
3 17 149 148
3 18 152 150
3 20 153 68
3 20 154 153
3 20 156 154
3 22 157 70
3 22 158 157
3 23 298 300
3 298 159 299
3 298 299 300
3 25 160 72
3 25 161 160
3 301 163 302
3 303 164 304
3 305 165 306
3 307 306 164
3 305 306 307
3 308 167 309
3 310 309 165
3 308 309 310
3 28 170 168
3 30 171 74
3 30 172 171
3 31 175 173
3 32 176 77
3 32 177 176
3 32 178 177
3 34 179 79
3 34 180 179
3 311 183 312
3 313 312 181
3 311 312 313
3 315 314 82
3 316 184 317
3 36 185 83
3 36 186 185
3 37 189 187
3 39 190 86
3 39 191 190
3 16 192 146
3 40 193 89
3 40 194 193
3 40 195 194
3 41 196 91
3 41 197 196
3 42 200 198
3 318 201 319
3 320 202 321
3 322 321 201
3 320 321 322
3 323 203 324
3 326 325 203
3 327 204 328
3 330 329 204
3 331 205 332
3 44 206 93
3 44 207 206
3 44 208 207
3 45 209 95
3 45 210 209
3 333 211 334
3 19 212 151
3 46 213 98
3 46 214 213
3 46 215 214
3 47 216 100
3 47 217 216
3 47 218 217
3 48 219 102
3 48 220 219
3 21 221 155
3 49 222 105
3 49 223 222
3 49 224 223
3 50 225 107
3 50 226 225
3 24 335 336
3 51 337 339
3 339 338 110
3 337 338 339
3 51 340 342
3 340 227 341
3 340 341 342
3 51 228 227
3 52 229 112
3 52 230 229
3 53 231 114
3 53 232 231
3 26 233 162
3 54 234 117
3 54 235 234
3 54 236 235
3 55 237 119
3 55 238 237
3 55 239 238
3 56 240 121
3 56 241 240
3 27 242 166
3 57 243 124
3 57 244 243
3 57 245 244
3 58 246 126
3 58 247 246
3 58 248 247
3 344 343 128
3 346 345 130
3 29 249 169
3 348 347 133
3 38 250 188
3 59 251 135
3 59 252 251
3 349 253 350
3 351 350 174
3 349 350 351
3 352 254 353
3 355 354 254
3 33 356 358
3 356 357 358
3 43 255 199
3 60 256 139
3 60 257 256
3 35 258 182
3 61 259 141
3 61 260 259
3 61 261 260
3 62 262 143
3 62 263 262
3 63 359 361
3 359 264 360
3 359 360 361
3 63 265 264
3 63 266 265
3 362 267 363
3 364 268 365
3 366 365 267
3 364 365 366
3 64 65 15
3 66 65 64
3 66 17 65
3 67 68 18
3 69 68 67
3 69 20 68
3 69 70 20
3 71 70 69
3 71 22 70
3 367 72 368
3 369 368 23
3 367 368 369
3 370 72 371
3 372 25 373
3 374 373 72
3 372 373 374
3 73 74 28
3 75 74 73
3 75 30 74
3 76 77 31
3 78 77 76
3 78 32 77
3 78 79 32
3 80 79 78
3 80 34 79
3 81 375 377
3 375 82 376
3 375 376 377
3 378 82 379
3 380 379 81
3 378 379 380
3 382 381 82
3 383 83 384
3 84 385 387
3 385 83 386
3 385 386 387
3 84 36 83
3 85 86 37
3 87 86 85
3 87 39 86
3 88 89 16
3 90 89 88
3 90 40 89
3 90 91 40
3 92 91 90
3 92 41 91
3 389 388 42
3 390 93 391
3 94 392 394
3 392 93 393
3 392 393 394
3 94 44 93
3 94 95 44
3 96 95 94
3 96 45 95
3 97 98 19
3 99 98 97
3 99 46 98
3 99 100 46
3 101 100 99
3 101 47 100
3 101 102 47
3 103 102 101
3 103 48 102
3 104 105 21
3 106 105 104
3 106 49 105
3 106 107 49
3 108 107 106
3 108 50 107
3 109 110 24
3 111 110 109
3 111 51 110
3 111 112 51
3 113 112 111
3 113 52 112
3 395 114 396
3 115 397 399
3 397 114 398
3 397 398 399
3 115 53 114
3 116 117 26
3 118 117 116
3 118 54 117
3 118 119 54
3 120 119 118
3 120 55 119
3 120 121 55
3 122 121 120
3 122 56 121
3 123 124 27
3 125 124 123
3 125 57 124
3 125 126 57
3 127 126 125
3 127 58 126
3 127 128 58
3 400 128 401
3 402 401 127
3 400 401 402
3 404 403 128
3 129 405 407
3 405 130 406
3 405 406 407
3 131 130 129
3 131 408 410
3 410 409 130
3 408 409 410
3 132 133 29
3 411 133 412
3 413 412 132
3 411 412 413
3 415 414 133
3 134 135 38
3 136 135 134
3 136 59 135
3 137 416 418
3 418 417 33
3 416 417 418
3 420 419 137
3 138 139 43
3 140 139 138
3 140 60 139
3 421 141 422
3 423 422 35
3 421 422 423
3 142 424 426
3 424 141 425
3 424 425 426
3 142 61 141
3 142 143 61
3 144 143 142
3 144 62 143
3 427 63 428
3 430 429 63
3 145 146 4
3 147 146 145
3 147 16 146
3 65 147 15
3 148 147 65
3 148 16 147
3 148 88 16
3 149 88 148
3 149 6 88
3 431 9 432
3 150 433 435
3 433 151 434
3 433 434 435
3 152 151 150
3 152 19 151
3 68 152 18
3 153 152 68
3 153 19 152
3 153 97 19
3 154 97 153
3 154 10 97
3 154 155 10
3 156 155 154
3 156 21 155
3 70 156 20
3 157 156 70
3 157 21 156
3 157 104 21
3 158 104 157
3 158 11 104
3 159 436 437
3 159 438 440
3 438 24 439
3 438 439 440
3 72 159 23
3 160 159 72
3 160 24 159
3 160 109 24
3 161 109 160
3 161 12 109
3 441 162 442
3 441 442 443
3 163 444 446
3 444 162 445
3 444 445 446
3 163 26 162
3 447 163 448
3 164 449 451
3 449 163 450
3 449 450 451
3 164 26 163
3 164 116 26
3 165 116 164
3 165 13 116
3 165 166 13
3 167 166 165
3 167 27 166
3 452 167 453
3 454 167 455
3 456 27 457
3 458 457 167
3 456 457 458
3 459 123 460
3 461 460 27
3 459 460 461
3 462 123 463
3 465 464 123
3 168 169 8
3 170 169 168
3 170 29 169
3 74 170 28
3 171 170 74
3 171 29 170
3 171 132 29
3 172 132 171
3 172 14 132
3 173 174 5
3 175 174 173
3 175 466 468
3 468 467 174
3 466 467 468
3 77 175 31
3 176 175 77
3 176 469 471
3 471 470 175
3 469 470 471
3 176 472 473
3 177 474 476
3 476 475 176
3 474 475 476
3 177 477 478
3 177 479 480
3 178 481 483
3 483 482 177
3 481 482 483
3 178 484 486
3 484 33 485
3 484 485 486
3 79 178 32
3 179 178 79
3 179 33 178
3 179 137 33
3 180 137 179
3 180 487 489
3 489 488 137
3 487 488 489
3 181 182 7
3 183 182 181
3 183 35 182
3 82 490 492
3 490 183 491
3 490 491 492
3 493 183 494
3 495 494 82
3 493 494 495
3 496 35 497
3 498 497 183
3 496 497 498
3 500 499 35
3 501 150 502
3 501 502 503
3 184 504 506
3 504 150 505
3 504 505 506
3 184 18 150
3 83 507 509
3 507 184 508
3 507 508 509
3 185 184 83
3 185 18 184
3 185 67 18
3 186 67 185
3 186 2 67
3 187 188 1
3 189 188 187
3 189 38 188
3 86 189 37
3 190 189 86
3 190 38 189
3 190 134 38
3 191 134 190
3 191 5 134
3 146 87 4
3 192 87 146
3 192 39 87
3 89 192 16
3 193 192 89
3 193 39 192
3 193 191 39
3 194 191 193
3 194 5 191
3 194 173 5
3 195 173 194
3 195 31 173
3 91 195 40
3 196 195 91
3 196 31 195
3 196 76 31
3 197 76 196
3 197 3 76
3 510 23 511
3 512 23 513
3 512 513 514
3 516 515 23
3 198 199 0
3 200 199 198
3 200 43 199
3 517 200 518
3 519 518 42
3 517 518 519
3 201 520 522
3 520 200 521
3 520 521 522
3 201 43 200
3 201 138 43
3 202 138 201
3 202 7 138
3 523 202 524
3 203 525 527
3 525 202 526
3 525 526 527
3 203 7 202
3 203 181 7
3 528 181 529
3 530 529 203
3 528 529 530
3 533 532 181
3 531 532 533
3 534 81 535
3 534 535 536
3 537 81 538
3 541 540 81
3 539 540 541
3 204 542 544
3 542 543 544
3 204 545 546
3 204 547 548
3 551 550 204
3 549 550 551
3 552 129 553
3 205 554 556
3 554 129 555
3 554 555 556
3 205 8 129
3 93 557 558
3 206 559 561
3 561 560 93
3 559 560 561
3 206 562 563
3 206 564 566
3 564 205 565
3 564 565 566
3 207 205 206
3 207 8 205
3 207 168 8
3 208 168 207
3 208 28 168
3 95 208 44
3 209 208 95
3 209 28 208
3 209 73 28
3 210 73 209
3 210 1 73
3 211 567 568
3 211 569 571
3 569 9 570
3 569 570 571
3 151 572 573
3 212 574 576
3 576 575 151
3 574 575 576
3 212 577 578
3 98 212 19
3 213 212 98
3 213 579 581
3 581 580 212
3 579 580 581
3 213 582 584
3 582 211 583
3 582 583 584
3 214 211 213
3 214 9 211
3 214 96 9
3 215 96 214
3 215 45 96
3 100 215 46
3 216 215 100
3 216 45 215
3 216 210 45
3 217 210 216
3 217 1 210
3 217 187 1
3 218 187 217
3 218 37 187
3 102 218 47
3 219 218 102
3 219 37 218
3 219 85 37
3 220 85 219
3 220 4 85
3 155 103 10
3 221 103 155
3 221 48 103
3 105 221 21
3 222 221 105
3 222 48 221
3 222 220 48
3 223 220 222
3 223 4 220
3 223 145 4
3 224 145 223
3 224 15 145
3 107 224 49
3 225 224 107
3 225 15 224
3 225 64 15
3 226 64 225
3 226 0 64
3 110 585 587
3 587 586 24
3 585 586 587
3 589 588 110
3 227 590 591
3 227 592 593
3 227 594 596
3 594 84 595
3 594 595 596
3 228 84 227
3 228 36 84
3 112 228 51
3 229 228 112
3 229 36 228
3 229 186 36
3 230 186 229
3 230 2 186
3 597 25 598
3 114 599 600
3 231 601 603
3 603 602 114
3 601 602 603
3 231 604 606
3 604 25 605
3 604 605 606
3 231 161 25
3 232 161 231
3 232 12 161
3 162 607 609
3 607 115 608
3 607 608 609
3 233 115 162
3 233 53 115
3 117 233 26
3 234 233 117
3 234 53 233
3 234 232 53
3 235 232 234
3 235 12 232
3 235 113 12
3 236 113 235
3 236 52 113
3 119 236 54
3 237 236 119
3 237 52 236
3 237 230 52
3 238 230 237
3 238 2 230
3 238 71 2
3 239 71 238
3 239 22 71
3 121 239 55
3 240 239 121
3 240 22 239
3 240 158 22
3 241 158 240
3 241 11 158
3 166 122 13
3 242 122 166
3 242 56 122
3 124 242 27
3 243 242 124
3 243 56 242
3 243 241 56
3 244 241 243
3 244 11 241
3 244 108 11
3 245 108 244
3 245 50 108
3 126 245 57
3 246 245 126
3 246 50 245
3 246 226 50
3 247 226 246
3 247 0 226
3 247 198 0
3 248 198 247
3 248 42 198
3 128 248 58
3 610 248 611
3 612 611 128
3 610 611 612
3 613 42 614
3 615 614 248
3 613 614 615
3 617 616 42
3 130 618 620
3 618 619 620
3 622 621 130
3 169 131 8
3 249 131 169
3 249 623 625
3 625 624 131
3 623 624 625
3 133 249 29
3 626 249 627
3 628 627 133
3 626 627 628
3 630 629 249
3 188 75 1
3 250 75 188
3 250 30 75
3 135 250 38
3 251 250 135
3 251 30 250
3 251 172 30
3 252 172 251
3 252 14 172
3 174 136 5
3 253 136 174
3 253 59 136
3 631 253 632
3 254 633 635
3 633 253 634
3 633 634 635
3 254 59 253
3 254 252 59
3 636 252 637
3 638 637 254
3 636 637 638
3 639 14 640
3 641 640 252
3 639 640 641
3 643 642 14
3 645 644 33
3 199 66 0
3 255 66 199
3 255 17 66
3 139 255 43
3 256 255 139
3 256 17 255
3 256 149 17
3 257 149 256
3 257 6 149
3 182 140 7
3 258 140 182
3 258 60 140
3 141 258 35
3 259 258 141
3 259 60 258
3 259 257 60
3 260 257 259
3 260 6 257
3 260 92 6
3 261 92 260
3 261 41 92
3 143 261 61
3 262 261 143
3 262 41 261
3 262 197 41
3 263 197 262
3 263 3 197
3 646 144 647
3 648 144 649
3 650 62 651
3 652 651 144
3 650 651 652
3 264 653 654
3 264 655 657
3 655 62 656
3 655 656 657
3 264 263 62
3 265 263 264
3 265 3 263
3 265 80 3
3 266 80 265
3 266 34 80
3 658 266 659
3 660 659 63
3 658 659 660
3 267 661 663
3 661 266 662
3 661 662 663
3 267 34 266
3 267 180 34
3 268 180 267
3 268 664 666
3 666 665 180
3 664 665 666
3 667 268 668
3 669 268 670
3 673 672 268
3 671 672 673
