ply
format ascii 1.0
element vertex 245
property float x
property float y
property float z
element face 251
property list uchar int vertex_index
end_header
-10.057684 75.500885 -36.069984
-3.703894 82.724983 -41.263294
-8.804253 64.58567 -36.722088
-12.48711 66.273621 -29.889446
-9.439204 70.031128 -36.483856
-7.148571 68.059822 -39.666817
-7.347888 73.580124 -39.45919
-12.712161 76.065399 -32.195244
-11.691688 71.301956 -33.050335
-10.688843 65.955139 -33.353569
-10.54792 80.51181 -34.97044
-7.383429 79.283424 -38.865128
-7.174828 84.725716 -37.473694
-13.309158 80.754715 -30.896868
-8.43711 59.540775 -36.999607
-7.24448 57.127369 -39.797474
-7.102482 62.294254 -39.65414
-4.278085 76.959099 -42.077862
-11.176456 61.094589 -30.650217
-9.769308 60.7901 -33.986305
-9.761084 72.735992 -36.335934
-8.514183 71.983841 -38.013641
-8.733464 74.69207 -37.790123
-11.407918 75.885155 -34.179047
-12.217752 73.75795 -32.703129
-10.990214 73.304268 -34.569389
-10.55768 70.834579 -34.834972
-10.507637 83.142448 -34.255684
-8.98012 82.595497 -36.327492
-12.11084 83.121323 -32.001137
-11.923061 80.913383 -32.987633
-8.619085 61.997494 -36.771351
-7.887463 61.117905 -38.211536
-7.972935 63.720787 -38.165058
-6.037975 69.639206 -41.035397
-5.590317 80.994759 -40.208088
-5.787256 78.26725 -40.57375
-3.882011 79.795349 -41.885803
-13.129295 68.877228 -29.736654
-11.798856 63.627026 -30.206062
-9.710503 65.489243 -35.155617
-10.161243 63.302505 -33.690353
-9.373532 62.714607 -35.270397
-9.094725 60.237484 -35.512299
-9.13873 67.315514 -36.552589
-8.054045 66.435173 -38.240547
-8.323514 69.127014 -38.069057
-7.22965 70.9534 -39.622467
-5.951653 72.544525 -41.012646
-13.930139 75.958214 -30.218752
-13.448523 73.615318 -30.652956
-12.807647 71.415421 -31.171829
-12.18896 68.932205 -31.472622
-11.604223 66.272835 -31.636324
-11.222514 68.732826 -33.174057
-10.239335 68.154869 -34.791508
-10.35761 78.054276 -35.581688
-8.823518 77.389091 -37.54858
-8.942876 80.084793 -37.020748
-7.203148 82.117836 -38.389534
-5.339705 83.958374 -39.515793
-13.028385 78.348747 -31.703077
-11.715031 78.448624 -33.678337
-8.340112 57.303658 -37.264259
-7.889067 56.257618 -38.504299
-7.823612 58.561676 -38.395931
-7.122219 59.69416 -39.729752
-7.097524 64.999397 -39.663189
-7.344409 76.471634 -39.279064
-5.887982 75.267906 -40.863308
-10.674875 58.336212 -31.077101
-10.960257 63.580563 -32.02412
-10.451955 60.804565 -32.325623
-10.047321 58.47126 -32.820919
-9.492382 58.213482 -34.283951
-8.878113 57.885883 -35.881119
-9.628671 84.204842 -34.877264
-10.494637 84.267521 -33.742508
-11.296239 84.256958 -32.615234
-12.069076 84.238606 -31.46301
-10.494637 84.267521 -33.742508
-11.309238 83.131886 -33.128411
-11.296239 84.256958 -32.615234
-5.385466 68.766373 -41.775973
-5.342842 70.288376 -41.71587
-12.908107 66.127575 -29.013339
-13.2292 67.429378 -28.936943
-12.808203 67.575424 -29.81305
-12.54679 64.909209 -29.175016
-12.908107 66.127575 -29.013339
-12.142983 64.950323 -30.047754
-12.202663 63.585911 -29.333323
-12.54679 64.909209 -29.175016
-13.975441 80.506615 -29.813771
-13.395815 81.854821 -30.361192
-13.79465 79.521107 -30.278754
-13.975441 80.506615 -29.813771
-13.168772 79.551731 -31.299973
-13.654264 78.318123 -30.681859
-13.79465 79.521107 -30.278754
-6.658624 61.561201 -40.412729
-6.668492 60.261154 -40.450535
-7.11235 60.994207 -39.691946
-4.302411 75.425098 -42.249102
-5.107359 74.579502 -41.641824
-5.083033 76.113502 -41.470585
-11.253442 59.765656 -29.990234
-11.547068 60.981701 -29.724518
-10.925666 59.715401 -30.863659
-11.002651 58.386467 -30.203675
-11.253442 59.765656 -29.990234
-7.377942 55.967367 -39.766506
-7.700236 55.532491 -39.119918
-7.566774 56.692493 -39.150886
-8.864913 83.931366 -35.913168
-9.743879 82.868972 -35.291588
-9.628671 84.204842 -34.877264
-7.962267 84.996476 -36.486269
-8.077474 83.660607 -36.900593
-8.864913 83.931366 -35.913168
-12.796656 83.038125 -30.913327
-12.754891 84.155407 -30.3752
-12.069076 84.238606 -31.46301
-12.709999 81.938019 -31.449002
-13.395815 81.854821 -30.361192
-12.796656 83.038125 -30.913327
-6.056465 68.076603 -41.049269
-6.611763 67.286911 -40.364979
-6.593273 68.849514 -40.351107
-6.056465 68.076603 -41.049269
-5.385466 68.766373 -41.775973
-13.581945 68.58149 -28.800682
-13.493398 69.961754 -29.488619
-13.581945 68.58149 -28.800682
-13.2292 67.429378 -28.936943
-11.858268 62.24792 -29.50244
-12.202663 63.585911 -29.333323
-11.487656 62.360807 -30.42814
-11.547068 60.981701 -29.724518
-11.858268 62.24792 -29.50244
-6.985706 56.394415 -40.466331
-6.856194 57.658709 -40.441948
-5.299681 71.741035 -41.704494
-5.342842 70.288376 -41.71587
-5.994814 71.091865 -41.024022
-2.783523 82.019722 -42.112077
-2.53293 83.48693 -41.825079
-14.215356 74.71558 -29.532618
-14.515199 75.821678 -29.212379
-13.974547 73.544132 -29.749719
-14.215356 74.71558 -29.532618
-13.689331 74.786766 -30.435854
-13.653012 72.330799 -29.94677
-13.974547 73.544132 -29.749719
-13.332574 71.230851 -30.206207
-13.653012 72.330799 -29.94677
-13.128085 72.515369 -30.912392
-12.968471 70.146324 -30.454242
-13.493398 69.961754 -29.488619
-13.332574 71.230851 -30.206207
-6.977523 86.001755 -37.022232
-7.962267 84.996476 -36.486269
-6.094711 85.63454 -38.069558
-6.977523 86.001755 -37.022232
-5.17715 85.250869 -39.090607
-6.257267 84.342045 -38.494743
-6.094711 85.63454 -38.069558
-4.277444 84.713219 -40.073929
-5.17715 85.250869 -39.090607
-3.459538 84.096523 -40.947679
-4.5218 83.341679 -40.389544
-4.277444 84.713219 -40.073929
-2.53293 83.48693 -41.825079
-3.459538 84.096523 -40.947679
-14.105141 77.122856 -29.939696
-14.515199 75.821678 -29.212379
-13.479262 77.153481 -30.960915
-14.105141 77.122856 -29.939696
-13.654264 78.318123 -30.681859
-8.114589 56.780638 -37.884279
-8.103388 55.865486 -38.019806
-8.328911 56.388506 -37.399786
-6.795064 58.942104 -40.408087
-6.856194 57.658709 -40.441948
-7.18335 58.410764 -39.763613
-6.795064 58.942104 -40.408087
-6.668492 60.261154 -40.450535
-6.586239 65.756698 -40.363165
-7.123048 66.529609 -39.665003
-6.611763 67.286911 -40.364979
-6.625493 64.269239 -40.365389
-6.586239 65.756698 -40.363165
-6.627972 62.916668 -40.360864
-7.100003 63.646826 -39.658665
-6.625493 64.269239 -40.365389
-6.658624 61.561201 -40.412729
-6.627972 62.916668 -40.360864
-5.139195 73.217811 -41.716493
-5.919818 73.906216 -40.937977
-5.107359 74.579502 -41.641824
-5.299681 71.741035 -41.704494
-5.139195 73.217811 -41.716493
-2.872581 80.554905 -42.423332
-3.792953 81.260166 -41.574549
-2.783523 82.019722 -42.112077
-3.038257 79.004601 -42.656982
-2.872581 80.554905 -42.423332
-3.236294 77.586476 -42.753012
-4.080048 78.377224 -41.981833
-3.038257 79.004601 -42.656982
-3.45686 76.094948 -42.840319
-3.236294 77.586476 -42.753012
-4.302411 75.425098 -42.249102
-3.45686 76.094948 -42.840319
-10.756384 57.014488 -30.53423
-11.084161 57.064743 -29.660805
-11.002651 58.386467 -30.203675
-10.492183 57.064715 -31.370812
-10.756384 57.014488 -30.53423
-10.178406 57.132238 -32.242722
-10.492183 57.064715 -31.370812
-10.361098 58.403736 -31.94901
-9.919666 57.235848 -33.048561
-10.178406 57.132238 -32.242722
-9.642196 57.106959 -33.780077
-9.919666 57.235848 -33.048561
-9.769851 58.342371 -33.552435
-9.369725 57.107544 -34.587523
-9.642196 57.106959 -33.780077
-9.06259 56.943745 -35.386106
-9.369725 57.107544 -34.587523
-9.185247 58.049683 -35.082535
-8.806652 56.81361 -36.117409
-9.06259 56.943745 -35.386106
-8.537651 56.522498 -36.808979
-8.806652 56.81361 -36.117409
-8.609113 57.59477 -36.572689
-8.328911 56.388506 -37.399786
-8.537651 56.522498 -36.808979
-7.987163 55.226309 -38.49345
-8.103388 55.865486 -38.019806
-7.987163 55.226309 -38.49345
-7.700236 55.532491 -39.119918
-7.377942 55.967367 -39.766506
-6.985706 56.394415 -40.466331
3 0 22 20
3 0 25 23
3 0 20 25
3 77 76 27
3 78 29 79
3 80 27 81
3 82 81 29
3 80 81 82
3 2 33 31
3 84 83 34
3 1 37 35
3 3 85 87
3 87 86 38
3 85 86 87
3 3 88 89
3 3 90 92
3 90 39 91
3 90 91 92
3 2 42 40
3 2 31 42
3 4 46 44
3 6 47 21
3 6 48 47
3 7 50 49
3 8 51 24
3 8 52 51
3 8 54 52
3 4 55 26
3 4 44 55
3 10 58 56
3 12 59 28
3 12 60 59
3 13 93 94
3 13 95 96
3 13 97 99
3 97 61 98
3 97 98 99
3 10 62 30
3 10 56 62
3 14 65 63
3 16 66 32
3 16 100 102
3 102 101 66
3 100 101 102
3 5 67 45
3 11 68 57
3 17 69 36
3 17 103 105
3 105 104 69
3 103 104 105
3 18 106 107
3 18 108 110
3 108 70 109
3 108 109 110
3 9 71 53
3 19 72 41
3 19 73 72
3 19 74 73
3 14 75 43
3 14 63 75
3 15 111 113
3 113 112 64
3 111 112 113
3 20 21 4
3 22 21 20
3 22 6 21
3 23 24 7
3 25 24 23
3 25 8 24
3 25 26 8
3 20 26 25
3 20 4 26
3 27 28 10
3 114 28 115
3 116 115 27
3 114 115 116
3 117 12 118
3 119 118 28
3 117 118 119
3 29 120 122
3 120 121 122
3 29 123 125
3 123 13 124
3 123 124 125
3 29 30 13
3 27 30 29
3 27 10 30
3 31 32 14
3 33 32 31
3 33 16 32
3 34 126 128
3 128 127 5
3 126 127 128
3 130 129 34
3 35 36 11
3 37 36 35
3 37 17 36
3 38 131 132
3 134 133 38
3 39 135 136
3 39 137 139
3 137 18 138
3 137 138 139
3 40 41 9
3 42 41 40
3 42 19 41
3 42 43 19
3 31 43 42
3 31 14 43
3 141 140 15
3 44 45 2
3 46 45 44
3 46 5 45
3 21 46 4
3 47 46 21
3 47 5 46
3 47 34 5
3 48 34 47
3 48 142 144
3 144 143 34
3 142 143 144
3 146 145 1
3 49 147 148
3 50 149 151
3 151 150 49
3 149 150 151
3 50 152 153
3 24 50 7
3 51 50 24
3 51 154 156
3 156 155 50
3 154 155 156
3 51 157 159
3 157 38 158
3 157 158 159
3 52 38 51
3 52 3 38
3 52 53 3
3 54 53 52
3 54 9 53
3 26 54 8
3 55 54 26
3 55 9 54
3 55 40 9
3 44 40 55
3 44 2 40
3 56 57 0
3 58 57 56
3 58 11 57
3 28 58 10
3 59 58 28
3 59 11 58
3 59 35 11
3 60 35 59
3 60 1 35
3 160 12 161
3 162 12 163
3 164 60 165
3 166 165 12
3 164 165 166
3 167 60 168
3 169 1 170
3 171 170 60
3 169 170 171
3 173 172 1
3 174 49 175
3 61 176 178
3 176 49 177
3 176 177 178
3 61 7 49
3 30 61 13
3 62 61 30
3 62 7 61
3 62 23 7
3 56 23 62
3 56 0 23
3 63 179 181
3 179 64 180
3 179 180 181
3 65 64 63
3 65 15 64
3 32 65 14
3 66 65 32
3 66 15 65
3 66 182 184
3 184 183 15
3 182 183 184
3 186 185 66
3 45 33 2
3 67 33 45
3 67 16 33
3 187 67 188
3 189 188 5
3 187 188 189
3 190 67 191
3 192 16 193
3 194 193 67
3 192 193 194
3 196 195 16
3 57 22 0
3 68 22 57
3 68 6 22
3 36 68 11
3 69 68 36
3 69 6 68
3 69 48 6
3 197 48 198
3 199 198 69
3 197 198 199
3 201 200 48
3 202 37 203
3 204 203 1
3 202 203 204
3 205 37 206
3 207 17 208
3 209 208 37
3 207 208 209
3 210 17 211
3 213 212 17
3 70 214 216
3 214 215 216
3 70 217 218
3 53 39 3
3 71 39 53
3 71 18 39
3 41 71 9
3 72 71 41
3 72 18 71
3 72 70 18
3 73 70 72
3 73 219 221
3 221 220 70
3 219 220 221
3 73 222 223
3 74 224 226
3 226 225 73
3 224 225 226
3 74 227 228
3 43 74 19
3 75 74 43
3 75 229 231
3 231 230 74
3 229 230 231
3 75 232 233
3 63 234 236
3 236 235 75
3 234 235 236
3 63 237 238
3 64 239 240
3 242 241 64
3 244 243 15
