ply
format ascii 1.0
element vertex 916
property float x
property float y
property float z
element face 1212
property list uchar int vertex_index
end_header
-20.491482 -70.482437 12.900571
-25.16872 -56.253098 26.075338
-29.928886 -54.889572 6.584838
-12.766424 -65.522766 29.761169
-16.923676 -84.235611 -6.667034
-0.431999 -71.285469 30.577602
-8.513668 -83.872902 12.558245
-30.96493 -50.367477 23.137405
-21.196325 -52.287697 32.073872
-18.85857 -77.224236 3.743697
-22.269123 -74.375648 -6.571964
-23.434107 -68.189117 2.256902
-16.963409 -69.923317 22.262154
-10.727991 -74.966682 22.277903
-15.18876 -77.921196 13.478166
-12.81342 -85.705833 3.303697
-22.52566 -63.81876 20.230902
-25.109913 -62.664818 10.161342
-27.884697 -56.969296 17.029402
-33.102451 -49.748081 13.573205
-11.319777 -48.851643 37.986652
-8.931402 -58.904259 35.456985
-14.825514 -55.848644 33.822205
-19.077785 -61.389969 28.371344
-27.804794 -59.345737 -0.554578
2.525414 -81.119591 21.738148
-6.386343 -68.748871 30.077887
-3.991147 -78.475258 21.557755
-0.860119 -88.189552 11.685755
-5.231377 -92.470871 2.063604
-9.650433 -93.303276 -7.509133
-19.684063 -73.804207 8.439642
-21.167767 -72.875641 3.310316
-21.908773 -69.651794 7.750471
-18.903002 -70.663979 17.689867
-16.038322 -74.007416 18.181486
-17.983549 -74.311752 13.506019
-17.042963 -78.0084 8.755372
-23.833128 -60.194496 23.247107
-25.264084 -60.346825 18.771765
-26.754641 -56.944942 21.809433
-32.145267 -50.410793 18.576178
-12.924501 -52.296238 35.933598
-15.939365 -50.7673 34.92934
-23.308544 -54.558453 29.548283
-20.126123 -56.923706 30.483059
-22.235357 -58.789383 27.332396
-20.962685 -63.065495 24.604332
-15.43937 -87.889053 -11.663017
-18.692022 -82.819153 -11.386282
-24.687418 -69.210152 -7.316487
-24.212572 -72.123886 -11.593782
-27.523331 -58.704865 8.215512
-26.363373 -61.219803 4.762958
-28.778736 -57.003357 2.803868
1.02781 -76.24366 26.267
-10.71738 -62.393917 32.723217
-7.653258 -63.786068 33.252838
-9.594017 -67.21064 30.020718
-9.736647 -79.295883 17.786531
-7.41392 -76.677887 22.109728
-6.23589 -81.360313 17.294996
-2.512331 -83.379791 16.673834
-4.713886 -86.16597 12.079474
-2.975256 -90.765991 6.865397
-6.977102 -88.232773 7.362405
-14.92994 -85.290909 -1.648702
-11.503941 -89.4888 -2.310582
-13.506767 -88.99572 -7.00481
-26.513111 -52.16663 28.325857
-28.17454 -53.396786 24.637085
-29.420673 -49.510765 27.131546
-18.98872 -49.074036 34.110909
-24.334984 -50.248634 31.220142
-17.995033 -80.628281 -1.194451
-19.734228 -79.358368 -6.266637
-20.604429 -75.891136 -1.407728
-22.825748 -71.328384 -2.093705
-25.041176 -66.465782 -3.106242
-32.400726 -50.975357 4.77749
-14.971702 -68.144516 26.214178
-11.645136 -70.294083 26.473492
-13.953752 -72.548782 22.551977
-12.946303 -76.937111 18.122652
-12.020826 -81.035355 13.240738
-10.72578 -85.30603 7.878253
-14.099521 -81.784157 8.573771
-16.18434 -81.516594 3.589798
-21.458265 -67.181198 16.689079
-22.731258 -66.723831 11.761
-23.879786 -63.641113 15.283465
-26.406662 -59.870857 13.627431
-28.839619 -56.289505 11.958484
-29.509544 -53.756241 20.24544
-30.495937 -53.494175 15.241746
-31.42565 -52.492249 10.147347
-7.373525 -55.312492 38.261101
-10.100848 -53.862808 37.012077
-11.831042 -57.370716 34.664604
-13.911208 -60.684147 32.128437
-17.890717 -54.048119 33.031868
-16.974771 -58.923752 31.387299
-15.850789 -63.71133 29.183262
-17.948921 -65.823151 25.600191
-19.899439 -66.785309 21.580553
-21.576744 -77.507957 -11.250175
-24.116106 -65.417435 6.377168
-25.523722 -63.850594 0.951156
-6.068408 -60.361588 36.291599
-4.751873 -65.075455 33.74334
-3.40556 -69.967209 30.256083
-8.504879 -72.072227 26.316921
-5.237975 -73.543556 26.158257
-2.075928 -74.902924 26.071005
-0.723555 -79.910118 21.380772
0.869652 -84.819092 16.625425
1.037653 -92.742287 6.815278
-0.877334 -95.174011 1.728468
-9.366228 -89.221115 2.598867
-7.495318 -93.331299 -2.881298
-20.102331 -72.079643 10.752866
-20.743073 -71.870506 8.194816
-21.182184 -70.203293 10.324494
-19.767414 -70.650368 15.251424
-18.479481 -72.497597 15.546447
-19.331064 -72.378777 13.139159
-18.882761 -74.074371 11.067651
-24.450005 -58.264996 24.783661
-25.237003 -58.590904 22.687149
-25.962767 -56.752083 24.051783
-14.982301 -49.027317 35.820751
-24.241158 -55.521526 27.958008
-22.725975 -56.73867 28.520321
-23.686008 -57.488506 26.804346
-23.081999 -59.535831 25.455631
-16.191671 -86.120514 -9.189253
-17.197733 -85.249146 -11.439381
-17.778072 -83.631805 -9.00803
-25.572514 -68.256645 -9.837978
-28.75481 -56.730389 7.434288
-28.084639 -57.98156 5.545244
-29.270298 -56.033943 4.64732
1.003218 -71.83416 30.96384
1.727626 -74.396378 28.721764
0.250813 -73.710663 28.499346
-11.646009 -64.155281 31.235577
-10.160877 -64.987274 31.365606
-11.192869 -66.518967 29.828888
-9.169416 -81.525337 15.28721
-7.978746 -80.417358 17.497725
-7.359486 -82.764709 14.900207
-5.46796 -83.770775 14.733373
-6.579157 -85.109772 12.291476
-5.810007 -87.393089 9.641006
-7.784057 -86.066032 9.971106
-15.955028 -84.790207 -4.081941
-14.280503 -87.138245 -4.401417
-15.308077 -86.640648 -6.876408
-14.517137 -88.476433 -9.349261
-27.03356 -49.989273 29.407742
-28.005367 -50.767578 27.816273
-28.591608 -48.704792 28.79409
-25.871124 -49.148529 30.79014
-25.509115 -51.27594 29.864683
-18.439632 -78.941025 1.26365
-19.360601 -78.345985 -1.518396
-19.648674 -76.840691 1.024181
-22.292559 -70.593559 2.820699
-22.039837 -72.002251 0.664657
-23.096376 -69.747475 0.236805
-23.936007 -68.84201 -2.417841
-24.156891 -67.475502 -0.369687
-15.927352 -69.186211 24.31303
-14.39698 -70.350517 24.529099
-15.575109 -71.140953 22.522932
-15.627682 -75.938263 15.944575
-14.537652 -75.463501 18.286001
-14.135033 -77.391647 16.039101
-12.569847 -78.881439 15.816228
-13.721192 -79.384262 13.528535
-13.109643 -81.426582 11.065588
-14.620116 -79.85746 11.147508
-17.95426 -77.699455 6.309853
-16.592569 -79.762817 6.311508
-17.549658 -79.396095 3.813675
-17.112434 -81.10865 1.246755
-22.033566 -65.472351 18.413639
-22.730072 -65.337967 16.003857
-23.335644 -63.693043 17.748606
-26.571136 -58.643784 18.024744
-25.870579 -60.154411 16.338676
-27.131756 -58.422729 15.415279
-27.599237 -58.124233 12.695867
-28.314064 -56.789154 14.530756
-29.586998 -51.942795 23.874224
-28.873425 -53.701134 22.493481
-30.222784 -52.156998 21.75004
-32.635799 -50.163574 16.151094
-31.36215 -51.945942 16.982344
-31.790623 -51.68499 14.395267
-30.950613 -53.086422 12.6458
-32.282478 -51.131004 11.822105
-10.736893 -51.304855 37.550655
-13.900056 -54.030087 34.897373
-12.461774 -54.866734 35.318794
-13.346302 -56.518372 34.270966
-12.785734 -59.180256 33.409298
-14.314528 -58.346203 33.05088
-20.125067 -50.628571 33.180809
-18.445591 -51.570343 33.615547
-19.489279 -53.124996 32.602512
-19.6595 -59.106167 29.499714
-18.536673 -57.80389 31.037886
-18.136675 -60.184608 29.939917
-16.514666 -61.275574 30.349148
-17.44417 -62.547665 28.86231
-16.962069 -64.755112 27.540197
-18.542589 -63.581551 27.079575
-21.75536 -63.588314 22.501944
-20.362671 -65.021835 23.148285
-21.263882 -65.341911 20.835489
-20.704163 -67.101982 19.229513
-21.084185 -76.838303 -6.55312
-20.664371 -78.467346 -8.809135
-22.019423 -75.788574 -8.906476
-25.140789 -71.032036 -14.042127
-23.952093 -64.636238 10.970345
-23.398926 -66.159477 9.166524
-24.540545 -64.104744 8.316545
-27.064957 -60.321053 2.053508
-25.982422 -62.377029 2.786768
-26.651953 -61.633167 0.027815
-26.343327 -62.820045 -1.650876
-27.469418 -60.544846 -2.435566
-30.604237 -54.043766 -0.606759
-8.224401 -57.047626 36.796413
-7.499338 -59.601803 35.880905
-7.133131 -66.330872 31.687731
-6.166759 -64.592056 33.393055
-5.616109 -66.861443 31.929186
-4.175564 -67.617767 31.970106
-4.948628 -69.363945 30.124567
-11.19171 -72.672401 24.432011
-10.133987 -71.288925 26.330309
-9.661907 -73.500916 24.40712
-5.678368 -77.680054 21.745237
-6.320217 -75.286232 24.016361
-4.636004 -75.870644 24.054274
-3.655777 -74.368179 25.947613
-3.054983 -76.771194 23.737928
-1.360098 -77.419159 23.777672
-2.282485 -79.036575 21.647644
-1.769449 -85.707054 14.268
-0.821582 -84.061943 16.670765
-0.006705 -86.547577 14.150608
1.869632 -87.352249 14.181757
0.935863 -88.965958 11.70663
1.971608 -91.258972 9.385991
0.058957 -90.535652 9.194467
-4.177681 -91.708298 4.430247
-2.111796 -92.980072 4.203487
-3.034714 -93.994408 1.721347
-2.002091 -96.095352 -0.957714
-4.229148 -94.595551 -0.676305
-11.933471 -85.395096 5.75528
-10.113287 -87.196007 5.338229
-11.094454 -87.535011 2.99401
-10.588598 -91.422569 -4.880975
-9.537365 -91.54068 -2.727271
-8.407208 -93.600471 -5.313007
-6.333125 -95.406502 -5.585343
-7.437289 -95.417274 -7.892432
-19.263605 -75.504135 6.1908
-20.033356 -75.11702 3.520921
-20.433777 -73.403183 5.845697
-21.579556 -71.124039 5.596
-22.674105 -68.971252 4.933665
-17.982233 -70.384621 20.064583
-16.491257 -72.005241 20.271893
-17.492882 -72.436333 17.936544
-17.133175 -74.236816 15.774312
-16.5748 -76.180504 13.642829
-16.201828 -77.944153 11.229148
-17.580059 -76.067558 11.182757
-18.434731 -75.921783 8.597299
-23.157217 -62.023731 21.823572
-23.917021 -62.123257 19.402962
-24.577847 -60.3974 21.05311
-26.015266 -58.617622 20.405827
-27.377655 -57.020191 19.463083
-32.275539 -48.731438 22.383272
-31.652178 -50.392567 20.923384
-12.635789 -48.052132 37.356018
-12.059283 -50.585541 36.946938
-13.457898 -49.834114 36.376038
-14.430919 -51.629784 35.380306
-15.400354 -53.448757 34.383572
-22.351713 -53.551758 30.825649
-20.622156 -54.558571 31.392689
-21.692345 -55.779167 30.035757
-21.216099 -58.013325 28.9611
-20.655094 -60.201393 27.816689
-20.065685 -62.312122 26.599506
-21.571001 -60.981438 26.039742
-22.36912 -61.591652 24.10778
-23.494173 -71.814697 -6.932064
-23.227722 -73.28949 -9.095648
-24.406713 -70.741112 -9.309509
-25.366468 -69.643768 -11.882596
-26.247675 -60.789207 9.16764
-25.626581 -62.179394 7.458509
-26.817041 -60.119099 6.497345
-27.558023 -59.102226 3.788991
-28.213959 -58.211967 1.277575
2.610163 -76.883018 26.579126
1.88555 -78.65966 24.125069
-9.733917 -60.669403 34.131191
-8.267233 -61.299637 34.500771
-9.203177 -63.262222 32.890102
-8.57452 -65.675545 31.565491
-7.973225 -68.108208 29.981533
-10.168532 -77.238441 20.022713
-9.114195 -75.872253 22.185541
-8.439875 -78.184906 19.921852
-6.783738 -79.041985 19.755249
-5.097005 -80.115982 19.282516
-3.282255 -80.918282 19.152884
-4.374097 -82.40979 16.948366
-3.629466 -84.743813 14.498324
-2.751555 -87.216164 11.864134
-1.918549 -89.532265 9.317228
-3.944591 -88.329216 9.645768
-4.951408 -89.536736 7.150014
-6.127394 -90.357445 4.744124
-13.900772 -85.562469 0.866377
-12.137626 -87.661209 0.489213
-13.25526 -87.402382 -1.82315
-12.554434 -89.232475 -4.532724
-11.637207 -91.1791 -7.156346
-10.784862 -92.979858 -9.893472
-12.750072 -90.692184 -9.482378
-13.651198 -90.270187 -11.783888
-25.848656 -54.178249 27.318857
-26.739391 -54.741879 25.419029
-27.415785 -52.770145 26.675549
-28.824266 -51.546597 25.892311
-30.297014 -49.952011 25.234255
-21.615477 -49.846867 32.780281
-22.739782 -51.215931 31.699047
-23.853319 -52.34296 30.465805
-24.852428 -53.401371 29.010521
-17.418554 -82.518929 -3.849376
-18.393295 -81.802353 -6.45655
-18.780102 -80.245781 -3.859435
-20.182991 -77.655495 -3.893081
-21.371941 -75.337364 -4.110065
-20.898453 -74.385269 0.905352
-21.766212 -73.589355 -1.781114
-22.586876 -72.834953 -4.4345
-23.758347 -70.290161 -4.794774
-24.845863 -67.858307 -5.179274
-25.958611 -65.366013 -5.667358
-31.164848 -52.95285 5.779592
-30.515694 -54.010674 3.892932
-1.224255 -68.902596 32.44083
-13.79548 -67.040131 28.015516
-12.313542 -67.893112 28.194624
-13.320715 -69.359253 26.311665
-12.786846 -71.564713 24.535429
-12.279982 -73.68187 22.656324
-14.973601 -73.364159 20.522171
-13.475327 -74.757904 20.394152
-11.902051 -75.972343 20.296206
-11.374712 -78.129875 18.026047
-10.896426 -80.257706 15.578413
-10.263785 -82.515793 12.941604
-9.60905 -84.732674 10.231458
-11.393857 -83.16468 10.630816
-12.437106 -83.487488 8.49643
-13.557265 -83.683075 5.934038
-15.600857 -79.932877 8.789106
-15.165697 -81.816093 5.967841
-14.570761 -83.650391 3.487957
-15.580495 -83.423569 0.944062
-16.57884 -82.908867 -1.362831
-20.998333 -68.803864 14.747504
-21.601284 -68.672592 12.313879
-22.153877 -66.999069 14.160406
-23.354422 -65.102303 13.377618
-24.535555 -63.170605 12.725153
-24.567989 -62.007313 16.98765
-25.131296 -61.758873 14.522038
-25.753756 -61.251286 11.78094
-26.945223 -59.392864 10.839304
-28.128504 -57.54401 10.193412
-29.3421 -55.698845 9.30774
-27.394007 -55.235683 23.393894
-28.168886 -55.282738 21.141991
-28.638203 -55.447994 18.756069
-30.830784 -52.083961 19.585985
-30.065969 -53.642914 17.866129
-29.207956 -55.217426 16.161709
-29.726957 -54.813553 13.559959
-30.097689 -54.461044 10.92654
-30.649267 -53.720127 8.373816
-31.945644 -51.727551 7.47494
-8.725378 -54.59153 37.619583
-9.516199 -56.469402 36.280544
-11.540985 -53.232735 36.384037
-10.989176 -55.703587 35.775471
-10.375362 -58.038193 35.108257
-11.248683 -59.842155 33.829269
-12.243814 -61.672867 32.417538
-13.249756 -63.14064 31.07889
-17.415871 -49.982533 34.50964
-16.82782 -52.448673 34.054981
-16.415596 -54.962234 33.398216
-18.974909 -55.524914 31.884245
-17.496641 -56.421791 32.283669
-15.913081 -57.434673 32.657425
-15.442316 -59.939644 31.717793
-14.874017 -62.18961 30.776848
-14.334961 -64.634422 29.501068
-15.417838 -65.998817 27.744415
-16.513659 -67.019897 25.917078
-17.46365 -67.948463 23.917458
-19.490694 -64.45887 25.144949
-18.916811 -66.480522 23.648117
-18.504299 -68.378616 21.90797
-19.442459 -68.696434 19.652126
-20.247036 -68.886238 17.221035
-19.28845 -81.063736 -8.965045
-22.891453 -74.902313 -11.432194
-22.284153 -68.191727 9.838132
-23.035223 -67.478271 7.139532
-23.761057 -66.742531 4.370765
-25.232008 -63.333782 5.455015
-24.87199 -64.540718 3.5732
-24.435722 -66.085373 1.665049
-25.267893 -65.114494 -1.084869
-26.112339 -64.086197 -3.595548
-29.974047 -54.983692 2.001979
-29.380152 -56.168785 0.275497
-28.968538 -57.189857 -1.460869
-6.811429 -62.11808 34.748039
-5.422227 -62.760532 35.083344
-3.939171 -63.379372 35.530163
-3.406176 -65.818741 33.895504
-2.639589 -68.219299 32.23457
-1.851084 -70.821693 30.220415
-10.613407 -68.851868 28.261885
-9.002326 -69.678246 28.269226
-7.417346 -70.35936 28.304815
-7.950288 -74.4189 24.251728
-6.849127 -72.811592 26.268206
-5.860899 -71.142303 28.189568
-4.203575 -71.850159 28.169161
-2.711999 -72.474968 28.201368
-1.129136 -73.199806 28.249325
-0.538789 -75.678215 26.004622
0.273352 -78.089409 23.847916
0.973312 -80.58622 21.467165
-1.560601 -81.691887 19.029902
0.122389 -82.331467 19.08873
1.816904 -83.139961 19.041109
-0.97543 -91.817787 6.775949
0.134193 -93.974648 4.415334
-8.916321 -86.812859 7.618987
-8.268197 -88.781715 5.003623
-7.294092 -90.936905 2.330425
-10.340299 -89.623627 -0.00715
-8.426311 -91.33004 -0.159474
-6.306195 -93.081047 -0.462017
-5.406333 -95.01371 -3.131775
0.285609 -71.559815 30.770721
0.617684 -70.663841 31.907324
-0.099925 -70.389496 31.714205
-28.044836 -48.295153 29.542875
-27.812584 -49.347032 29.100916
-27.265812 -48.937393 29.849701
-26.684594 -48.517021 30.5409
-26.141509 -48.035919 31.141254
-27.265812 -48.937393 29.849701
-26.452342 -49.568901 30.098941
-26.684594 -48.517021 30.5409
-33.282887 -49.526245 12.289499
-32.8729 -50.217706 11.413949
-32.692464 -50.439543 12.697655
-11.028335 -50.078249 37.768653
-10.397604 -50.333073 38.153762
-10.689046 -49.106466 38.371761
-25.488472 -71.08775 -16.309171
-24.974502 -71.762127 -15.089823
-25.65476 -70.357658 -15.261475
3.376277 -81.392746 21.966788
2.955437 -80.283791 22.966183
2.99448 -82.359875 20.599303
3.376277 -81.392746 21.966788
-9.170385 -94.20039 -8.827043
-8.063813 -95.257389 -9.018692
-8.543861 -94.360275 -7.700783
-32.599651 -48.709711 21.255373
-32.913593 -47.852063 21.98942
-13.745479 -48.634686 36.542208
-13.046844 -48.943123 36.866028
-13.334424 -47.743695 37.032198
-15.969162 -87.396 -12.74493
-15.049176 -88.730469 -12.937652
-18.39138 -83.627716 -12.606533
-17.644236 -84.842713 -12.633083
-17.944878 -84.034149 -11.412831
-19.1242 -82.35672 -12.441304
-18.39138 -83.627716 -12.606533
-25.972568 -68.317115 -12.08046
-25.469491 -68.950207 -10.860287
-26.075591 -67.623554 -11.058151
-25.906405 -68.938507 -13.128968
-25.972568 -68.317115 -12.08046
-15.049176 -88.730469 -12.937652
-14.155091 -89.921036 -12.998088
-14.545284 -89.07962 -11.723453
-21.878542 -48.688883 33.034699
-21.085592 -49.081742 33.237593
-23.781042 -49.582676 31.79323
-24.585046 -49.070875 31.589565
-23.537383 -50.732282 31.459595
-22.983441 -50.066325 32.032682
-23.781042 -49.582676 31.79323
-32.078548 -51.485218 3.834684
-31.46061 -52.473964 4.335735
-31.782787 -51.964104 5.278541
-1.572663 -67.667355 33.368969
-0.882683 -67.954281 33.599233
-9.413113 -54.227169 37.31583
-9.079375 -53.304807 37.908507
-9.76711 -52.940447 37.604754
-18.202295 -49.528284 34.310274
-17.649021 -48.751251 34.722577
-18.435446 -48.297003 34.523211
-20.895395 -78.812591 -11.277936
-20.439208 -79.292286 -10.057416
-21.120558 -77.987651 -10.029655
-21.337893 -78.343456 -12.499355
-20.895395 -78.812591 -11.277936
-26.668242 -62.925736 -3.983324
-26.227833 -63.453121 -2.623212
-26.783735 -62.292659 -3.010988
-26.556094 -63.587282 -4.926089
-26.668242 -62.925736 -3.983324
-30.594346 -53.944954 1.558536
-30.24487 -54.497183 2.947456
-30.86517 -53.458445 2.504012
-29.773517 -55.591224 -1.023961
-29.992195 -55.106275 -0.165631
-30.385559 -54.528715 -1.465089
-29.56771 -56.10176 -1.892144
-29.174345 -56.679321 -0.592686
-29.773517 -55.591224 -1.023961
-6.70434 -55.738311 38.559835
-7.074447 -54.443876 38.962427
-5.740631 -59.454201 37.094755
-6.442934 -59.093897 36.801847
-5.35325 -60.644844 36.577106
-5.740631 -59.454201 37.094755
1.793006 -85.199489 16.679349
2.266633 -84.359924 17.887191
1.343278 -83.979526 17.833267
2.794297 -87.690185 14.297024
2.355986 -88.549492 12.997006
2.132053 -93.146431 6.950864
2.599031 -92.404774 8.236221
1.50463 -92.00063 8.100634
1.667235 -93.823864 5.685794
2.132053 -93.146431 6.950864
0.198418 -95.651367 1.83516
0.704181 -95.051685 3.178593
-0.37157 -94.57433 3.071901
-0.249909 -96.216011 0.506072
0.198418 -95.651367 1.83516
-1.361888 -97.087231 -2.161614
-2.550149 -96.367169 -2.132491
-5.213444 -96.265614 -5.68991
-5.760678 -96.365204 -6.906218
-10.288535 -93.886867 -11.2601
-11.277884 -92.792488 -11.06519
-15.216062 -47.788931 36.012558
-14.50768 -48.231287 36.264565
-14.741441 -46.992901 36.456372
-15.708242 -48.607692 35.596615
-15.216062 -47.788931 36.012558
-16.186774 -49.477684 35.150909
-15.460833 -49.897308 35.375045
-15.708242 -48.607692 35.596615
-25.698516 -67.474212 -8.810079
-25.129966 -68.733398 -8.577233
-25.255968 -67.950966 -7.549334
-26.170153 -66.94577 -10.107676
-25.698516 -67.474212 -8.810079
-26.075591 -67.623554 -11.058151
-26.170153 -66.94577 -10.107676
1.344571 -70.952275 32.170944
0.617684 -70.663841 31.907324
1.712674 -72.146523 31.16297
1.344571 -70.952275 32.170944
1.365422 -73.115269 29.842802
2.074879 -73.427631 30.041932
1.712674 -72.146523 31.16297
-25.353116 -48.520823 31.374564
-26.141509 -48.035919 31.141254
-25.103054 -49.698582 31.005141
-24.585046 -49.070875 31.589565
-25.353116 -48.520823 31.374564
-32.676277 -50.489256 3.454326
-33.03141 -49.916343 4.341242
-32.477539 -50.860628 10.444714
-32.049125 -51.541251 9.607335
-31.854064 -51.811627 10.984726
-32.477539 -50.860628 10.444714
-32.8729 -50.217706 11.413949
-10.085133 -51.66147 37.874043
-10.397604 -50.333073 38.153762
-10.418871 -52.583832 37.281366
-9.76711 -52.940447 37.604754
-10.085133 -51.66147 37.874043
-24.500842 -72.398083 -14.001057
-24.036734 -72.944008 -12.776884
-24.676681 -71.577961 -12.817954
-24.500842 -72.398083 -14.001057
-24.974502 -71.762127 -15.089823
-27.346781 -61.15506 -3.403333
-26.783735 -62.292659 -3.010988
-26.906372 -61.682446 -2.043221
-31.230154 -52.954748 -0.983013
-30.909441 -53.474991 0.254166
-31.027664 -53.377365 -1.917339
-31.230154 -52.954748 -0.983013
-30.808986 -53.862314 -2.775669
-30.385559 -54.528715 -1.465089
-31.027664 -53.377365 -1.917339
-7.520931 -57.436916 37.054254
-7.095492 -56.569349 37.786598
-7.798963 -56.180059 37.528757
-7.158399 -58.714005 36.5965
-7.520931 -57.436916 37.054254
-7.86187 -58.324714 36.338659
-6.783873 -59.981696 36.086252
-6.442934 -59.093897 36.801847
-7.158399 -58.714005 36.5965
1.889101 -89.356347 11.759442
2.355986 -88.549492 12.997006
1.402748 -88.159104 12.944194
1.453736 -90.112465 10.546311
2.406973 -90.502854 10.599123
1.889101 -89.356347 11.759442
-3.663678 -95.617268 -1.991787
-2.550149 -96.367169 -2.132491
-3.11562 -95.345451 -0.817009
-6.31276 -96.37059 -8.059763
-5.760678 -96.365204 -6.906218
-6.885207 -95.411888 -6.738888
-6.937703 -96.275188 -9.158688
-6.31276 -96.37059 -8.059763
-6.937703 -96.275188 -9.158688
-8.063813 -95.257389 -9.018692
-32.287971 -49.540275 20.525429
-31.963859 -49.562002 21.653328
-32.599651 -48.709711 21.255373
-32.534515 -49.549388 19.351826
-31.898722 -50.40168 19.749781
-32.287971 -49.540275 20.525429
-32.79924 -49.452566 18.245202
-32.534515 -49.549388 19.351826
-33.044506 -49.328956 17.03266
-32.390533 -50.287183 17.363636
-32.79924 -49.452566 18.245202
-33.221922 -49.282451 15.750865
-33.044506 -49.328956 17.03266
-33.455247 -49.074705 14.46192
-32.869125 -49.955827 14.86215
-33.221922 -49.282451 15.750865
-33.662766 -48.854387 13.213612
-33.455247 -49.074705 14.46192
-14.220099 -49.430715 36.098394
-13.745479 -48.634686 36.542208
-14.50768 -48.231287 36.264565
-16.848344 -86.076046 -12.633112
-15.969162 -87.396 -12.74493
-16.318551 -86.569099 -11.551199
-16.848344 -86.076046 -12.633112
-17.644236 -84.842713 -12.633083
-25.793565 -69.632641 -14.208734
-25.253629 -70.337902 -12.962362
-25.906405 -68.938507 -13.128968
-25.65476 -70.357658 -15.261475
-25.793565 -69.632641 -14.208734
2.496914 -74.654011 29.003922
2.074879 -73.427631 30.041932
2.938183 -75.897331 27.932603
2.496914 -74.654011 29.003922
2.168894 -75.639698 27.650445
3.331298 -77.164227 26.782846
2.938183 -75.897331 27.932603
2.997812 -78.165504 25.386672
3.331298 -77.164227 26.782846
2.635505 -79.053825 24.159644
2.997812 -78.165504 25.386672
2.247857 -77.771339 25.352097
2.205482 -79.889625 22.931608
2.955437 -80.283791 22.966183
2.635505 -79.053825 24.159644
-12.260489 -91.648651 -10.859643
-11.277884 -92.792488 -11.06519
-11.767467 -91.836021 -9.687925
-12.711051 -91.437653 -12.010398
-12.260489 -91.648651 -10.859643
-13.200635 -90.481186 -10.633133
-13.26575 -91.077529 -13.133972
-12.711051 -91.437653 -12.010398
-13.26575 -91.077529 -13.133972
-14.155091 -89.921036 -12.998088
-28.804868 -47.675039 29.259355
-28.044836 -48.295153 29.542875
-29.296632 -48.026209 28.504024
-28.804868 -47.675039 29.259355
-29.711165 -48.429195 27.672752
-29.006141 -49.107778 27.962818
-29.296632 -48.026209 28.504024
-30.106795 -48.742327 26.857205
-29.711165 -48.429195 27.672752
-30.544965 -48.96295 25.90856
-29.858843 -49.731388 26.182901
-30.106795 -48.742327 26.857205
-30.977652 -49.145181 24.900428
-30.544965 -48.96295 25.90856
-31.311611 -49.352914 23.852003
-30.630972 -50.159744 24.18583
-30.977652 -49.145181 24.900428
-31.966915 -48.534895 23.474936
-31.620235 -49.549458 22.760339
-31.311611 -49.352914 23.852003
-32.578747 -47.770376 23.101275
-31.966915 -48.534895 23.474936
-32.913593 -47.852063 21.98942
-32.578747 -47.770376 23.101275
-19.218822 -47.967821 34.299459
-18.435446 -48.297003 34.523211
-19.772214 -48.695326 33.902907
-19.218822 -47.967821 34.299459
-20.340387 -49.472594 33.437857
-19.556894 -49.851304 33.645859
-19.772214 -48.695326 33.902907
-20.870272 -50.237719 32.980545
-20.340387 -49.472594 33.437857
-21.085592 -49.081742 33.237593
-22.421288 -49.381793 32.5733
-21.878542 -48.688883 33.034699
-22.17763 -50.531399 32.239664
-22.421288 -49.381793 32.5733
-22.983441 -50.066325 32.032682
-25.335191 -67.275043 -6.480727
-25.255968 -67.950966 -7.549334
-24.766641 -68.534229 -6.247881
-25.891565 -66.028897 -6.724769
-25.335191 -67.275043 -6.480727
-25.402237 -66.61216 -5.423316
-26.434593 -64.835633 -7.01999
-25.891565 -66.028897 -6.724769
-31.136032 -53.002876 3.392405
-30.840271 -53.481762 4.836262
-31.46061 -52.473964 4.335735
-30.86517 -53.458445 2.504012
-31.136032 -53.002876 3.392405
-32.078548 -51.485218 3.834684
-32.676277 -50.489256 3.454326
-0.496053 -69.198059 32.645819
-0.882683 -67.954281 33.599233
-0.828127 -70.094032 31.509216
-0.099925 -70.389496 31.714205
-0.496053 -69.198059 32.645819
-32.309122 -51.158901 8.271131
-31.685647 -52.1099 8.811144
-32.049125 -51.541251 9.607335
-32.531107 -50.79073 6.989899
-32.309122 -51.158901 8.271131
-32.758648 -50.414633 5.641174
-32.173185 -51.351454 6.126215
-32.531107 -50.79073 6.989899
-33.389332 -49.35562 5.204927
-33.03141 -49.916343 4.341242
-32.758648 -50.414633 5.641174
-33.282887 -49.526245 12.289499
-33.662766 -48.854387 13.213612
-7.729267 -54.00815 38.611778
-7.074447 -54.443876 38.962427
-8.405193 -53.647669 38.29102
-9.079375 -53.304807 37.908507
-8.049451 -54.952011 37.940342
-7.729267 -54.00815 38.611778
-8.405193 -53.647669 38.29102
-16.925027 -49.085301 34.941059
-17.649021 -48.751251 34.722577
-16.677618 -50.374916 34.71949
-16.186774 -49.477684 35.150909
-16.925027 -49.085301 34.941059
-10.987638 -47.864861 38.59478
-10.689046 -49.106466 38.371761
-11.648699 -47.578467 38.164799
-10.987638 -47.864861 38.59478
-12.306705 -47.178711 37.849481
-11.977783 -48.451887 37.671335
-11.648699 -47.578467 38.164799
-12.972673 -46.801213 37.501869
-12.306705 -47.178711 37.849481
-13.334424 -47.743695 37.032198
-12.972673 -46.801213 37.501869
-19.751247 -80.590481 -10.135371
-19.976411 -79.765541 -8.88709
-20.439208 -79.292286 -10.057416
-19.453034 -81.468189 -11.345989
-18.990236 -81.941445 -10.175663
-19.751247 -80.590481 -10.135371
-19.1242 -82.35672 -12.441304
-19.453034 -81.468189 -11.345989
-23.376174 -74.333222 -12.696091
-23.552013 -73.5131 -11.512988
-24.036734 -72.944008 -12.776884
-22.731901 -75.618877 -12.58829
-23.376174 -74.333222 -12.696091
-22.074546 -76.9217 -12.497281
-22.234099 -76.205135 -11.341185
-22.731901 -75.618877 -12.58829
-21.337893 -78.343456 -12.499355
-22.074546 -76.9217 -12.497281
-26.47923 -64.22719 -5.961994
-26.035475 -64.726105 -4.631453
-26.556094 -63.587282 -4.926089
-26.434593 -64.835633 -7.01999
-26.47923 -64.22719 -5.961994
-30.289142 -54.513729 0.69761
-30.594346 -53.944954 1.558536
-30.909441 -53.474991 0.254166
-29.385885 -56.611179 -2.779158
-29.56771 -56.10176 -1.892144
-28.788339 -57.76721 -2.415231
-29.385885 -56.611179 -2.779158
-28.206467 -58.84515 -1.962086
-28.386666 -58.267797 -1.007723
-28.788339 -57.76721 -2.415231
-28.038778 -59.444705 -2.902579
-27.637106 -59.945291 -1.495072
-28.206467 -58.84515 -1.962086
-27.913299 -59.991307 -3.783015
-28.038778 -59.444705 -2.902579
-27.346781 -61.15506 -3.403333
-27.913299 -59.991307 -3.783015
-6.70434 -55.738311 38.559835
-7.095492 -56.569349 37.786598
-5.03016 -61.844316 35.972979
-5.35325 -60.644844 36.577106
-5.745318 -61.56106 35.687472
-4.288632 -62.153736 36.196388
-5.03016 -61.844316 35.972979
-4.680699 -63.069952 35.306753
-3.612936 -62.45422 36.477072
-4.288632 -62.153736 36.196388
-3.289723 -63.69019 35.724457
-3.612936 -62.45422 36.477072
-3.023225 -64.909874 34.907128
-3.289723 -63.69019 35.724457
-3.672674 -64.599057 34.712834
-2.663623 -66.125428 34.096306
-3.023225 -64.909874 34.907128
-2.28033 -67.325706 33.265839
-2.663623 -66.125428 34.096306
-3.022882 -67.01902 33.065037
-1.931922 -68.560947 32.3377
-1.572663 -67.667355 33.368969
-2.28033 -67.325706 33.265839
2.640225 -83.37006 19.250784
2.99448 -82.359875 20.599303
2.171159 -82.129776 20.389629
2.640225 -83.37006 19.250784
2.266633 -84.359924 17.887191
2.292997 -86.466068 15.457515
1.793006 -85.199489 16.679349
1.369642 -86.08567 15.403591
2.292997 -86.466068 15.457515
2.794297 -87.690185 14.297024
3.035262 -91.639423 9.525436
2.406973 -90.502854 10.599123
3.662685 -92.785225 8.375666
3.035262 -91.639423 9.525436
2.599031 -92.404774 8.236221
1.215505 -94.440044 4.485822
1.667235 -93.823864 5.685794
0.585923 -93.358468 5.615306
1.215505 -94.440044 4.485822
0.704181 -95.051685 3.178593
-0.812288 -96.676682 -0.837018
-0.249909 -96.216011 0.506072
-1.439712 -95.634681 0.385377
-0.812288 -96.676682 -0.837018
-1.361888 -97.087231 -2.161614
-4.25227 -95.826347 -3.219522
-3.663678 -95.617268 -1.991787
-4.817741 -94.804631 -1.90404
-4.750048 -96.069218 -4.463126
-5.869729 -95.210106 -4.358559
-5.213444 -96.265614 -5.68991
-4.25227 -95.826347 -3.219522
-4.750048 -96.069218 -4.463126
-9.737599 -94.038681 -10.019212
-9.170385 -94.20039 -8.827043
-10.217647 -93.141567 -8.701303
-9.737599 -94.038681 -10.019212
-10.288535 -93.886867 -11.2601
3 0 122 120
3 0 125 123
3 0 120 125
3 1 129 127
3 1 133 131
3 1 127 133
3 4 137 135
3 2 141 139
3 5 474 476
3 474 142 475
3 474 475 476
3 5 144 142
3 3 147 145
3 6 150 148
3 6 152 150
3 6 154 152
3 4 157 155
3 4 135 157
3 477 161 478
3 479 478 159
3 477 478 479
3 480 162 481
3 482 159 483
3 484 483 162
3 482 483 484
3 9 166 164
3 11 169 167
3 11 171 169
3 12 174 172
3 14 177 175
3 14 179 177
3 14 181 179
3 9 184 182
3 9 164 184
3 16 188 186
3 18 191 189
3 18 193 191
3 7 196 194
3 19 199 197
3 19 201 199
3 19 485 487
3 487 486 201
3 485 486 487
3 20 488 490
3 488 202 489
3 488 489 490
3 22 205 203
3 22 207 205
3 8 210 208
3 23 213 211
3 23 215 213
3 23 217 215
3 16 220 218
3 16 186 220
3 10 224 222
3 493 492 225
3 491 492 493
3 17 228 226
3 24 231 229
3 24 233 231
3 25 494 495
3 25 496 497
3 21 236 235
3 26 239 237
3 26 241 239
3 13 244 242
3 27 247 245
3 27 249 247
3 27 251 249
3 28 254 252
3 28 256 254
3 28 258 256
3 29 261 259
3 29 263 261
3 15 266 264
3 30 269 267
3 30 271 269
3 30 498 500
3 500 499 271
3 498 499 500
3 31 274 272
3 33 275 121
3 33 276 275
3 34 279 277
3 36 280 124
3 36 281 280
3 36 283 281
3 31 284 126
3 31 272 284
3 38 287 285
3 40 288 128
3 40 289 288
3 502 501 290
3 503 294 504
3 505 504 292
3 503 504 505
3 43 295 130
3 43 296 295
3 44 299 297
3 46 300 132
3 46 301 300
3 46 303 301
3 38 304 134
3 38 285 304
3 48 506 507
3 49 508 510
3 510 509 136
3 508 509 510
3 49 511 512
3 50 307 305
3 513 308 514
3 515 514 138
3 513 514 515
3 517 516 308
3 52 311 309
3 54 312 140
3 54 313 312
3 55 314 143
3 55 315 314
3 56 318 316
3 58 319 146
3 58 320 319
3 59 323 321
3 61 324 149
3 61 325 324
3 61 327 325
3 63 328 151
3 63 329 328
3 63 331 329
3 65 332 153
3 65 333 332
3 66 336 334
3 68 337 156
3 68 338 337
3 68 340 338
3 48 341 158
3 48 518 520
3 520 519 341
3 518 519 520
3 69 344 342
3 71 345 160
3 71 346 345
3 521 347 522
3 73 523 524
3 73 525 527
3 525 348 526
3 525 526 527
3 73 349 348
3 69 350 163
3 69 342 350
3 74 353 351
3 76 354 165
3 76 355 354
3 32 356 273
3 77 357 168
3 77 358 357
3 77 359 358
3 78 360 170
3 78 361 360
3 79 528 530
3 530 529 362
3 528 529 530
3 531 364 532
3 80 367 365
3 82 368 173
3 82 369 368
3 35 370 278
3 83 371 176
3 83 372 371
3 83 373 372
3 84 374 178
3 84 375 374
3 84 377 375
3 86 378 180
3 86 379 378
3 37 380 282
3 87 381 183
3 87 382 381
3 87 383 382
3 74 384 185
3 74 351 384
3 88 387 385
3 90 388 187
3 90 389 388
3 39 390 286
3 91 391 190
3 91 392 391
3 91 393 392
3 92 394 192
3 92 395 394
3 70 396 343
3 93 397 195
3 93 398 397
3 41 399 291
3 94 400 198
3 94 401 400
3 94 402 401
3 95 403 200
3 95 404 403
3 95 405 404
3 97 533 535
3 533 406 534
3 533 534 535
3 97 407 406
3 42 408 293
3 98 409 204
3 98 410 409
3 98 411 410
3 99 412 206
3 99 413 412
3 72 536 538
3 536 414 537
3 536 537 538
3 100 415 209
3 100 416 415
3 45 417 298
3 101 418 212
3 101 419 418
3 101 420 419
3 102 421 214
3 102 422 421
3 102 423 422
3 103 424 216
3 103 425 424
3 47 426 302
3 104 427 219
3 104 428 427
3 104 429 428
3 88 430 221
3 88 385 430
3 75 431 352
3 105 539 541
3 541 540 223
3 539 540 541
3 105 542 543
3 51 432 306
3 89 433 386
3 106 434 227
3 106 435 434
3 53 436 310
3 107 437 230
3 107 438 437
3 107 439 438
3 544 440 545
3 546 545 232
3 544 545 546
3 548 547 440
3 549 441 550
3 551 550 363
3 549 550 551
3 552 442 553
3 554 553 234
3 552 553 554
3 555 443 556
3 557 556 442
3 555 556 557
3 96 558 559
3 108 560 561
3 108 562 563
3 57 444 317
3 109 445 238
3 109 446 445
3 109 447 446
3 110 448 240
3 110 449 448
3 81 450 366
3 111 451 243
3 111 452 451
3 60 453 322
3 112 454 246
3 112 455 454
3 112 456 455
3 113 457 248
3 113 458 457
3 113 459 458
3 114 460 250
3 114 461 460
3 62 462 326
3 115 463 253
3 115 464 463
3 115 564 566
3 566 565 464
3 564 565 566
3 568 567 255
3 116 569 571
3 571 570 257
3 569 570 571
3 116 572 573
3 64 465 330
3 117 466 260
3 117 574 576
3 576 575 466
3 574 575 576
3 117 577 578
3 580 579 262
3 85 467 376
3 118 468 265
3 118 469 468
3 67 470 335
3 119 471 268
3 119 472 471
3 119 473 472
3 582 581 270
3 584 583 339
3 120 121 31
3 122 121 120
3 122 33 121
3 123 124 34
3 125 124 123
3 125 36 124
3 125 126 36
3 120 126 125
3 120 31 126
3 127 128 38
3 129 128 127
3 129 40 128
3 585 130 586
3 585 586 587
3 588 130 589
3 590 43 591
3 592 591 130
3 590 591 592
3 131 132 44
3 133 132 131
3 133 46 132
3 133 134 46
3 127 134 133
3 127 38 134
3 135 136 48
3 137 136 135
3 137 49 136
3 593 138 594
3 595 594 50
3 593 594 595
3 596 138 597
3 599 598 138
3 139 140 52
3 141 140 139
3 141 54 140
3 142 600 601
3 142 602 603
3 142 604 606
3 604 143 605
3 604 605 606
3 144 143 142
3 144 55 143
3 145 146 56
3 147 146 145
3 147 58 146
3 148 149 59
3 150 149 148
3 150 61 149
3 150 151 61
3 152 151 150
3 152 63 151
3 152 153 63
3 154 153 152
3 154 65 153
3 155 156 66
3 157 156 155
3 157 68 156
3 157 158 68
3 135 158 157
3 135 48 158
3 159 160 69
3 161 160 159
3 161 71 160
3 162 607 608
3 162 609 611
3 609 73 610
3 609 610 611
3 162 163 73
3 159 163 162
3 159 69 163
3 164 165 74
3 166 165 164
3 166 76 165
3 167 168 32
3 169 168 167
3 169 77 168
3 169 170 77
3 171 170 169
3 171 78 170
3 613 612 79
3 172 173 80
3 174 173 172
3 174 82 173
3 175 176 35
3 177 176 175
3 177 83 176
3 177 178 83
3 179 178 177
3 179 84 178
3 179 180 84
3 181 180 179
3 181 86 180
3 182 183 37
3 184 183 182
3 184 87 183
3 184 185 87
3 164 185 184
3 164 74 185
3 186 187 88
3 188 187 186
3 188 90 187
3 189 190 39
3 191 190 189
3 191 91 190
3 191 192 91
3 193 192 191
3 193 92 192
3 194 195 70
3 196 195 194
3 196 93 195
3 197 198 41
3 199 198 197
3 199 94 198
3 199 200 94
3 201 200 199
3 201 95 200
3 201 614 616
3 616 615 95
3 614 615 616
3 618 617 201
3 202 619 620
3 202 621 623
3 621 97 622
3 621 622 623
3 203 204 42
3 205 204 203
3 205 98 204
3 205 206 98
3 207 206 205
3 207 99 206
3 208 209 72
3 210 209 208
3 210 100 209
3 211 212 45
3 213 212 211
3 213 101 212
3 213 214 101
3 215 214 213
3 215 102 214
3 215 216 102
3 217 216 215
3 217 103 216
3 218 219 47
3 220 219 218
3 220 104 219
3 220 221 104
3 186 221 220
3 186 88 221
3 222 223 75
3 224 223 222
3 224 105 223
3 225 624 626
3 626 625 51
3 624 625 626
3 628 627 225
3 226 227 89
3 228 227 226
3 228 106 227
3 229 230 53
3 231 230 229
3 231 107 230
3 231 232 107
3 233 232 231
3 233 629 631
3 631 630 232
3 629 630 631
3 632 234 633
3 634 234 635
3 638 637 234
3 636 637 638
3 235 639 641
3 641 640 96
3 639 640 641
3 236 642 644
3 644 643 235
3 642 643 644
3 236 645 647
3 645 108 646
3 645 646 647
3 237 238 57
3 239 238 237
3 239 109 238
3 239 240 109
3 241 240 239
3 241 110 240
3 242 243 81
3 244 243 242
3 244 111 243
3 245 246 60
3 247 246 245
3 247 112 246
3 247 248 112
3 249 248 247
3 249 113 248
3 249 250 113
3 251 250 249
3 251 114 250
3 252 253 62
3 254 253 252
3 254 115 253
3 254 255 115
3 256 255 254
3 256 648 650
3 650 649 255
3 648 649 650
3 256 651 653
3 651 257 652
3 651 652 653
3 258 257 256
3 258 116 257
3 259 260 64
3 261 260 259
3 261 117 260
3 261 262 117
3 263 262 261
3 263 654 656
3 656 655 262
3 654 655 656
3 264 265 85
3 266 265 264
3 266 118 265
3 267 268 67
3 269 268 267
3 269 119 268
3 269 270 119
3 271 270 269
3 271 657 659
3 659 658 270
3 657 658 659
3 271 660 661
3 663 662 271
3 272 273 9
3 274 273 272
3 274 32 273
3 121 274 31
3 275 274 121
3 275 32 274
3 275 167 32
3 276 167 275
3 276 11 167
3 277 278 12
3 279 278 277
3 279 35 278
3 124 279 34
3 280 279 124
3 280 35 279
3 280 175 35
3 281 175 280
3 281 14 175
3 281 282 14
3 283 282 281
3 283 37 282
3 126 283 36
3 284 283 126
3 284 37 283
3 284 182 37
3 272 182 284
3 272 9 182
3 285 286 16
3 287 286 285
3 287 39 286
3 128 287 38
3 288 287 128
3 288 39 287
3 288 189 39
3 289 189 288
3 289 18 189
3 290 291 7
3 664 291 665
3 666 665 290
3 664 665 666
3 667 41 668
3 669 668 291
3 667 668 669
3 670 41 671
3 672 197 673
3 674 673 41
3 672 673 674
3 675 197 676
3 677 19 678
3 679 678 197
3 677 678 679
3 681 680 19
3 292 293 20
3 294 293 292
3 294 42 293
3 130 682 684
3 682 294 683
3 682 683 684
3 295 294 130
3 295 42 294
3 295 203 42
3 296 203 295
3 296 22 203
3 297 298 8
3 299 298 297
3 299 45 298
3 132 299 44
3 300 299 132
3 300 45 299
3 300 211 45
3 301 211 300
3 301 23 211
3 301 302 23
3 303 302 301
3 303 47 302
3 134 303 46
3 304 303 134
3 304 47 303
3 304 218 47
3 285 218 304
3 285 16 218
3 136 685 687
3 687 686 48
3 685 686 687
3 689 688 136
3 305 306 10
3 307 306 305
3 307 51 306
3 138 307 50
3 308 307 138
3 308 51 307
3 308 225 51
3 690 225 691
3 692 691 308
3 690 691 692
3 694 693 225
3 309 310 17
3 311 310 309
3 311 53 310
3 140 311 52
3 312 311 140
3 312 53 311
3 312 229 53
3 313 229 312
3 313 24 229
3 143 695 696
3 314 697 699
3 699 698 143
3 697 698 699
3 314 700 701
3 314 702 703
3 315 704 706
3 706 705 314
3 704 705 706
3 315 707 709
3 707 25 708
3 707 708 709
3 316 317 21
3 318 317 316
3 318 57 317
3 146 318 56
3 319 318 146
3 319 57 318
3 319 237 57
3 320 237 319
3 320 26 237
3 321 322 13
3 323 322 321
3 323 60 322
3 149 323 59
3 324 323 149
3 324 60 323
3 324 245 60
3 325 245 324
3 325 27 245
3 325 326 27
3 327 326 325
3 327 62 326
3 151 327 61
3 328 327 151
3 328 62 327
3 328 252 62
3 329 252 328
3 329 28 252
3 329 330 28
3 331 330 329
3 331 64 330
3 153 331 63
3 332 331 153
3 332 64 331
3 332 259 64
3 333 259 332
3 333 29 259
3 334 335 15
3 336 335 334
3 336 67 335
3 156 336 66
3 337 336 156
3 337 67 336
3 337 267 67
3 338 267 337
3 338 30 267
3 338 339 30
3 340 339 338
3 340 710 712
3 712 711 339
3 710 711 712
3 158 340 68
3 341 340 158
3 341 713 715
3 715 714 340
3 713 714 715
3 341 716 717
3 719 718 341
3 342 343 1
3 344 343 342
3 344 70 343
3 160 344 69
3 345 344 160
3 345 70 344
3 345 194 70
3 346 194 345
3 346 7 194
3 720 161 721
3 722 161 723
3 724 71 725
3 726 725 161
3 724 725 726
3 727 71 728
3 729 346 730
3 731 730 71
3 729 730 731
3 732 346 733
3 734 7 735
3 736 735 346
3 734 735 736
3 737 290 738
3 739 738 7
3 737 738 739
3 740 290 741
3 743 742 290
3 744 72 745
3 746 72 747
3 748 208 749
3 750 749 72
3 748 749 750
3 347 751 753
3 751 208 752
3 751 752 753
3 347 8 208
3 754 347 755
3 348 756 758
3 756 347 757
3 756 757 758
3 348 8 347
3 348 297 8
3 349 297 348
3 349 44 297
3 163 349 73
3 350 349 163
3 350 44 349
3 350 131 44
3 342 131 350
3 342 1 131
3 351 352 4
3 353 352 351
3 353 75 352
3 165 353 74
3 354 353 165
3 354 75 353
3 354 222 75
3 355 222 354
3 355 10 222
3 273 166 9
3 356 166 273
3 356 76 166
3 168 356 32
3 357 356 168
3 357 76 356
3 357 355 76
3 358 355 357
3 358 10 355
3 358 305 10
3 359 305 358
3 359 50 305
3 170 359 77
3 360 359 170
3 360 50 359
3 360 759 761
3 761 760 50
3 759 760 761
3 361 762 764
3 764 763 360
3 762 763 764
3 361 765 766
3 362 363 2
3 767 363 768
3 769 768 362
3 767 768 769
3 771 770 363
3 773 772 79
3 364 774 775
3 364 776 778
3 776 5 777
3 776 777 778
3 365 366 3
3 367 366 365
3 367 81 366
3 173 367 80
3 368 367 173
3 368 81 367
3 368 242 81
3 369 242 368
3 369 13 242
3 278 174 12
3 370 174 278
3 370 82 174
3 176 370 35
3 371 370 176
3 371 82 370
3 371 369 82
3 372 369 371
3 372 13 369
3 372 321 13
3 373 321 372
3 373 59 321
3 178 373 83
3 374 373 178
3 374 59 373
3 374 148 59
3 375 148 374
3 375 6 148
3 375 376 6
3 377 376 375
3 377 85 376
3 180 377 84
3 378 377 180
3 378 85 377
3 378 264 85
3 379 264 378
3 379 15 264
3 282 181 14
3 380 181 282
3 380 86 181
3 183 380 37
3 381 380 183
3 381 86 380
3 381 379 86
3 382 379 381
3 382 15 379
3 382 334 15
3 383 334 382
3 383 66 334
3 185 383 87
3 384 383 185
3 384 66 383
3 384 155 66
3 351 155 384
3 351 4 155
3 385 386 0
3 387 386 385
3 387 89 386
3 187 387 88
3 388 387 187
3 388 89 387
3 388 226 89
3 389 226 388
3 389 17 226
3 286 188 16
3 390 188 286
3 390 90 188
3 190 390 39
3 391 390 190
3 391 90 390
3 391 389 90
3 392 389 391
3 392 17 389
3 392 309 17
3 393 309 392
3 393 52 309
3 192 393 91
3 394 393 192
3 394 52 393
3 394 139 52
3 395 139 394
3 395 2 139
3 343 129 1
3 396 129 343
3 396 40 129
3 195 396 70
3 397 396 195
3 397 40 396
3 397 289 40
3 398 289 397
3 398 18 289
3 291 196 7
3 399 196 291
3 399 93 196
3 198 399 41
3 400 399 198
3 400 93 399
3 400 398 93
3 401 398 400
3 401 18 398
3 401 193 18
3 402 193 401
3 402 92 193
3 200 402 94
3 403 402 200
3 403 92 402
3 403 395 92
3 404 395 403
3 404 2 395
3 404 362 2
3 405 362 404
3 405 79 362
3 779 405 780
3 781 780 95
3 779 780 781
3 782 405 783
3 784 79 785
3 786 785 405
3 784 785 786
3 789 788 79
3 787 788 789
3 791 790 19
3 792 96 793
3 406 794 795
3 406 796 798
3 796 96 797
3 796 797 798
3 406 235 96
3 407 235 406
3 407 21 235
3 293 202 20
3 408 202 293
3 408 97 202
3 204 408 42
3 409 408 204
3 409 97 408
3 409 407 97
3 410 407 409
3 410 21 407
3 410 316 21
3 411 316 410
3 411 56 316
3 206 411 98
3 412 411 206
3 412 56 411
3 412 145 56
3 413 145 412
3 413 3 145
3 414 799 800
3 414 801 803
3 801 43 802
3 801 802 803
3 209 414 72
3 415 414 209
3 415 43 414
3 415 296 43
3 416 296 415
3 416 22 296
3 298 210 8
3 417 210 298
3 417 100 210
3 212 417 45
3 418 417 212
3 418 100 417
3 418 416 100
3 419 416 418
3 419 22 416
3 419 207 22
3 420 207 419
3 420 99 207
3 214 420 101
3 421 420 214
3 421 99 420
3 421 413 99
3 422 413 421
3 422 3 413
3 422 365 3
3 423 365 422
3 423 80 365
3 216 423 102
3 424 423 216
3 424 80 423
3 424 172 80
3 425 172 424
3 425 12 172
3 302 217 23
3 426 217 302
3 426 103 217
3 219 426 47
3 427 426 219
3 427 103 426
3 427 425 103
3 428 425 427
3 428 12 425
3 428 277 12
3 429 277 428
3 429 34 277
3 221 429 104
3 430 429 221
3 430 34 429
3 430 123 34
3 385 123 430
3 385 0 123
3 804 20 805
3 806 20 807
3 808 292 809
3 810 809 20
3 808 809 810
3 811 292 812
3 814 813 292
3 352 137 4
3 431 137 352
3 431 49 137
3 223 431 75
3 815 431 816
3 817 816 223
3 815 816 817
3 818 49 819
3 820 819 431
3 818 819 820
3 822 821 49
3 306 224 10
3 432 224 306
3 432 105 224
3 823 432 824
3 825 824 51
3 823 824 825
3 826 432 827
3 828 105 829
3 830 829 432
3 828 829 830
3 832 831 105
3 386 122 0
3 433 122 386
3 433 33 122
3 227 433 89
3 434 433 227
3 434 33 433
3 434 276 33
3 435 276 434
3 435 11 276
3 310 228 17
3 436 228 310
3 436 106 228
3 230 436 53
3 437 436 230
3 437 106 436
3 437 435 106
3 438 435 437
3 438 11 435
3 438 171 11
3 439 171 438
3 439 78 171
3 232 439 107
3 440 439 232
3 440 78 439
3 440 361 78
3 833 361 834
3 835 834 440
3 833 834 835
3 837 836 361
3 363 141 2
3 441 141 363
3 441 54 141
3 234 838 840
3 838 441 839
3 838 839 840
3 442 441 234
3 442 54 441
3 442 313 54
3 443 313 442
3 443 24 313
3 841 443 842
3 843 443 844
3 845 24 846
3 847 846 443
3 845 846 847
3 848 233 849
3 850 849 24
3 848 849 850
3 851 233 852
3 854 853 233
3 856 855 96
3 317 236 21
3 444 236 317
3 444 108 236
3 238 444 57
3 445 444 238
3 445 108 444
3 445 857 859
3 859 858 108
3 857 858 859
3 446 860 862
3 862 861 445
3 860 861 862
3 446 863 864
3 446 865 866
3 447 867 869
3 869 868 446
3 867 868 869
3 447 870 871
3 240 447 109
3 448 447 240
3 448 872 874
3 874 873 447
3 872 873 874
3 448 875 877
3 875 364 876
3 875 876 877
3 449 364 448
3 449 5 364
3 366 147 3
3 450 147 366
3 450 58 147
3 243 450 81
3 451 450 243
3 451 58 450
3 451 320 58
3 452 320 451
3 452 26 320
3 322 244 13
3 453 244 322
3 453 111 244
3 246 453 60
3 454 453 246
3 454 111 453
3 454 452 111
3 455 452 454
3 455 26 452
3 455 241 26
3 456 241 455
3 456 110 241
3 248 456 112
3 457 456 248
3 457 110 456
3 457 449 110
3 458 449 457
3 458 5 449
3 458 144 5
3 459 144 458
3 459 55 144
3 250 459 113
3 460 459 250
3 460 55 459
3 460 315 55
3 461 315 460
3 461 25 315
3 326 251 27
3 462 251 326
3 462 114 251
3 253 462 62
3 463 462 253
3 463 114 462
3 463 461 114
3 464 461 463
3 464 25 461
3 464 878 880
3 880 879 25
3 878 879 880
3 882 881 464
3 255 883 885
3 885 884 115
3 883 884 885
3 887 886 255
3 257 888 889
3 892 891 257
3 890 891 892
3 330 258 28
3 465 258 330
3 465 116 258
3 260 465 64
3 466 465 260
3 466 116 465
3 466 893 895
3 895 894 116
3 893 894 895
3 897 896 466
3 262 898 900
3 900 899 117
3 898 899 900
3 902 901 262
3 376 154 6
3 467 154 376
3 467 65 154
3 265 467 85
3 468 467 265
3 468 65 467
3 468 333 65
3 469 333 468
3 469 29 333
3 335 266 15
3 470 266 335
3 470 118 266
3 268 470 67
3 471 470 268
3 471 118 470
3 471 469 118
3 472 469 471
3 472 29 469
3 472 263 29
3 473 263 472
3 473 903 905
3 905 904 263
3 903 904 905
3 270 473 119
3 906 473 907
3 908 907 270
3 906 907 908
3 910 909 473
3 339 911 913
3 913 912 30
3 911 912 913
3 915 914 339
