ply
format ascii 1.0
element vertex 737
property float x
property float y
property float z
element face 901
property list uchar int vertex_index
end_header
-19.85149 60.060127 11.610872
-8.736671 93.161316 -27.075119
-1.238522 98.245697 -6.819683
-8.816068 78.96788 13.594213
-17.404055 80.443306 -5.76663
1.703861 71.965729 31.247068
2.545226 95.914993 4.384449
-1.356327 86.498276 13.510772
-5.845136 89.410683 3.454483
-10.481638 85.392593 -33.229332
-1.485542 93.430611 -36.870361
-14.229426 88.202614 -16.397032
-5.166464 97.577583 -17.938803
1.44423 100.907555 -28.542181
-15.000102 69.898941 13.396518
-18.926823 70.604568 3.840284
-13.478993 80.568687 3.90679
-10.268914 90.251869 -6.762197
-16.412539 58.567551 21.310192
-10.644199 67.742203 22.725607
-3.82166 75.830513 22.946648
3.70708 83.655731 21.84166
4.156519 94.127647 9.295656
2.372161 89.791832 13.402618
0.439478 91.46373 8.83088
-9.898586 89.508171 -30.724237
-6.402965 89.594193 -35.379047
-5.412499 93.887039 -32.055031
-11.625905 91.296135 -21.892733
-12.888869 88.368561 -25.769384
-3.058753 98.472717 -12.488165
-0.068096 101.372604 -17.994732
1.902848 101.947395 -12.238676
-12.183507 74.567581 13.566277
-14.350509 75.378815 8.80468
-11.219787 79.803566 8.980708
-3.719533 93.989616 -1.438025
-8.092038 90.160362 -1.751182
-5.889757 94.488991 -6.922797
-7.972806 94.286812 -12.374844
-13.648379 63.21854 22.259985
-11.562975 61.843426 26.707647
-2.196039 67.883461 31.491142
-4.846037 70.106804 27.308802
-1.046348 74.216331 27.071938
-0.078989 79.894012 22.405714
2.732856 78.019577 26.680838
5.749183 76.443893 30.475183
-18.380177 75.601257 -0.814751
0.738994 97.389542 -1.089141
3.489361 101.404915 -6.326842
-5.136065 83.063683 13.382799
-7.492592 84.265625 8.705955
-3.648046 88.138855 8.493389
-1.742771 92.876678 3.718219
4.8117 69.820679 35.215446
-2.726098 88.356682 -39.56776
-16.042833 84.701599 -11.064426
-7.272789 95.689697 -22.750813
-3.750025 97.448509 -27.959652
-1.883642 99.942245 -23.337965
3.362089 103.244049 -23.393318
-17.574995 64.880112 12.762913
-19.37941 65.467125 7.841538
-17.036226 70.457016 8.570286
-16.426048 75.67144 4.099341
-15.516346 80.815224 -0.942544
-9.794367 85.288223 3.641474
-12.149324 85.521606 -1.226156
-14.263101 85.347298 -6.130548
-12.406383 89.59362 -11.75801
-10.015993 93.122688 -17.214546
-20.399378 54.953178 14.927234
-18.089542 59.762161 16.375959
-15.737265 64.269371 17.362207
-13.008141 68.803352 18.094801
-9.818384 73.433289 18.320133
-8.427734 65.762634 27.330189
-7.43575 71.803856 22.992861
-6.451282 77.502815 18.296204
-2.625168 81.436203 18.206879
0.993602 85.150833 17.672796
-0.051842 97.705978 -33.101227
3.169619 92.048309 11.227593
-9.512152 91.356277 -28.906168
-7.774937 91.817268 -31.359959
-7.143313 93.667824 -29.568913
-20.970552 57.597786 10.832828
-20.726587 60.261856 9.073582
-10.221039 92.374077 -24.534462
-12.314219 89.958305 -23.974653
-10.992281 90.791183 -26.385466
-11.364575 89.269501 -28.195992
-2.125009 98.48909 -9.705277
-0.712253 100.206894 -12.430669
0.29399 100.197754 -9.470554
-10.543666 76.75531 13.688595
-11.771672 77.12442 11.354138
-10.037725 79.383888 11.344782
-2.516292 96.220543 -4.153698
-4.859214 94.26622 -4.154461
-3.596316 96.393684 -6.823238
-4.594728 96.513161 -9.66145
-13.125687 59.6394 26.30545
-0.215423 69.762032 31.569969
-1.6572 71.049561 29.342392
0.206429 73.034096 29.166
0.872917 76.226959 26.836254
2.229273 74.938248 29.100628
4.197884 77.33223 28.48649
3.739152 74.126709 30.965315
-17.989077 78.022072 -3.317284
1.703526 96.785629 1.616633
3.112203 99.089844 -1.026867
-3.295361 84.898491 13.294837
-4.426321 85.598259 11.003052
-2.486033 87.403915 10.982794
1.423168 93.829361 6.421281
-0.594569 92.165184 6.446232
0.336539 94.423859 3.98792
-0.496335 95.22821 1.330866
-8.749706 85.267235 -35.498844
-4.080266 91.517609 -36.20298
-4.651441 89.119644 -37.483986
-2.302559 91.007637 -38.193501
-15.059965 86.722534 -13.672577
-16.757576 84.113327 -13.311398
-15.899633 85.7901 -15.988153
-12.027311 85.355888 -30.924883
-6.216718 96.772263 -20.459303
-4.628001 97.885994 -23.178078
-3.622553 98.856285 -20.787525
2.521458 103.016357 -17.794071
1.767259 102.569687 -20.613472
-16.332861 67.498375 13.030393
-17.314692 67.766129 10.619112
-16.03356 70.14019 11.066213
-13.960202 77.878494 6.553362
-15.464056 75.539444 6.372009
-15.016711 78.169014 4.021979
-16.053892 78.252274 1.573659
-14.510001 80.793091 1.438338
-6.75682 86.838791 6.096199
-8.727987 84.715866 6.234512
-7.93691 87.244423 3.651928
-9.292903 90.098412 -4.08612
-10.224376 87.786148 -1.392698
-11.291151 87.947632 -4.019037
-13.192331 85.623749 -3.823788
-12.376511 87.809937 -6.44909
-13.346812 87.592995 -8.863025
-11.366384 89.959152 -9.116126
-6.742817 95.921799 -15.074112
-9.080788 93.735703 -14.842319
-7.642972 95.438034 -17.782761
-8.752362 94.484741 -20.031054
-18.50535 56.911953 18.061516
-17.25396 59.131397 18.939047
-16.927547 61.978344 16.986025
-16.037577 61.553246 19.305664
-12.180111 65.505211 22.544239
-13.315077 65.921486 20.327436
-11.911006 68.263542 20.379326
-11.419845 71.166847 18.298239
-10.261418 70.570984 20.567446
-4.334876 72.937836 25.236031
-6.242941 70.790642 25.282528
-5.595914 73.882156 23.035753
-6.943255 74.671799 20.71924
-5.091351 76.834778 20.57946
-4.610355 79.566841 18.137978
-3.359385 78.697838 20.451443
1.88303 81.841339 22.154863
0.507114 82.591637 20.08956
2.35418 84.507408 19.710264
2.893601 86.984566 17.382212
4.119692 86.23568 19.386654
-1.110627 99.300171 -28.346409
-2.042501 97.695381 -30.528759
0.726873 99.462341 -30.915972
-19.212296 67.999542 5.816834
-20.300423 65.405754 5.454865
-20.0445 68.04705 3.524442
3.456579 95.14045 6.853616
0.588178 88.360733 13.307867
-0.591574 88.973686 11.127234
1.375891 90.628204 11.160867
2.357841 93.040573 8.819763
-10.223072 87.588699 -32.07922
-8.608879 87.626839 -34.254837
-8.076806 89.902832 -33.068192
-5.918275 91.831856 -33.902725
-3.462886 93.82486 -34.548588
-13.005133 89.847382 -19.110861
-14.8115 87.427322 -18.72315
-13.62375 88.808495 -21.337885
-11.82733 87.308884 -29.647316
-4.247229 98.040581 -15.295433
-2.57043 99.612152 -18.156494
-1.724841 99.971481 -15.334179
0.942195 101.774918 -14.978737
3.573378 103.404945 -14.928534
-13.663547 72.093994 13.661237
-14.742029 72.673141 11.039263
-13.31117 74.947395 11.22308
-12.779871 77.798431 8.84324
-12.3066 80.43084 6.300754
-4.945193 91.700172 0.922323
-7.095622 89.640976 1.027769
-5.968351 92.065132 -1.545491
-7.100202 92.314774 -4.288916
-8.184419 92.319946 -6.741756
-9.305774 92.222504 -9.509598
-7.085246 94.338135 -9.583746
-5.553524 96.42305 -12.360616
-15.41745 58.204418 23.641695
-15.092987 61.020981 21.674393
-14.080734 60.459194 24.022612
-12.581502 62.491566 24.649719
-11.105243 64.863655 24.704405
-5.366555 67.100304 29.374292
-3.593812 68.959152 29.439651
-3.001915 72.11882 27.242079
-2.448711 75.123276 24.966482
-1.977335 77.93428 22.630943
-0.602549 77.086433 24.750261
1.305569 78.988403 24.551916
3.211356 80.824638 24.340796
5.212799 83.00473 23.796669
4.763595 80.24984 26.183411
4.208638 102.413971 -28.699276
3.397239 100.948097 -31.1707
-18.720509 73.087997 1.530401
-19.805124 70.604294 1.414076
-19.657835 72.836617 -0.902528
-0.224565 97.895088 -3.886913
1.19871 99.909302 -6.478389
2.015805 99.449287 -3.687173
-6.924756 81.056648 13.606935
-8.217258 81.646675 11.14152
-6.303894 83.655212 11.145347
-5.670479 86.013107 8.814453
-4.801167 88.712227 6.087492
-1.537338 89.840431 8.742799
-2.656881 90.571968 6.186952
-3.810238 91.255196 3.461417
-2.805229 93.472557 1.078287
-1.566891 95.746933 -1.405931
-0.71777 66.810661 33.472061
1.278279 68.835136 33.426952
3.234044 70.822159 33.310036
2.890041 67.768906 35.385387
-6.780218 87.277794 -36.57077
-5.014595 86.543365 -38.665421
-3.215183 85.468063 -40.632065
-16.827204 82.567375 -8.34859
-7.845289 94.711861 -25.117792
-6.262741 95.400459 -27.662449
-5.598841 96.671387 -25.448278
-2.837345 98.796211 -25.805704
-0.290463 100.570267 -25.917879
-0.999856 100.756645 -20.881685
0.710434 101.670441 -23.426765
2.437822 102.215584 -26.092787
5.321473 103.714584 -26.216627
2.674007 101.760498 -9.2959
-18.745298 62.689205 12.010348
-19.648514 62.690746 9.725365
-18.454214 65.419121 10.182817
-18.271191 68.019882 8.142931
-18.094088 70.410156 6.152202
-15.79103 72.959892 8.619195
-16.836473 72.961288 6.344156
-17.711185 73.206223 4.005167
-17.461275 75.620483 1.661041
-17.055504 78.129333 -0.772265
-16.541508 80.628731 -3.382732
-9.450929 82.142036 8.704691
-10.582528 82.582207 6.307483
-11.649879 83.06958 3.745895
-9.048421 87.701782 1.001194
-10.918272 85.498833 1.289219
-12.778604 83.232353 1.328067
-13.879245 83.254913 -1.07785
-14.934045 83.131546 -3.455997
-15.906651 82.933846 -5.89324
-15.218306 85.109543 -8.712429
-14.229665 87.305679 -11.434115
-13.271132 89.146286 -14.324279
-10.285757 91.943306 -11.97864
-11.221808 91.511009 -14.537437
-12.174157 90.764694 -16.807575
-10.907909 92.284859 -19.553406
-9.512635 93.565521 -22.413719
-21.229401 55.003696 12.518824
-20.186964 57.351616 13.233629
-19.280441 57.409939 15.60899
-19.017481 59.925705 13.904263
-17.863993 62.252277 14.556855
-16.606937 64.824615 14.990619
-15.277021 67.101784 15.586143
-14.768692 63.69236 19.812254
-14.350518 66.48584 17.957893
-13.950298 69.461227 15.803266
-12.496518 71.837471 15.927655
-11.002992 73.985092 16.039635
-9.346306 76.220726 16.000473
-10.048685 63.775871 27.065456
-9.554054 66.795502 25.055542
-6.664702 67.872574 27.444187
-7.968083 68.73494 25.243261
-9.093558 69.804001 22.868698
-8.673429 72.723282 20.567078
-8.260613 75.390625 18.344248
-7.632069 78.2118 16.042938
-5.867499 80.24575 15.890703
-4.005965 82.185776 15.79767
-2.140708 83.986473 15.747905
-1.485879 80.644913 20.265039
-0.825469 83.368141 17.889206
-0.129666 85.91201 15.602899
1.666878 87.585075 15.443388
3.480835 89.197807 15.294015
5.143047 73.122421 32.847996
-4.658158 95.781204 -30.064217
-2.850095 95.878166 -32.57732
-0.983322 95.650551 -34.965904
2.598469 99.2202 -33.460999
1.757009 97.197594 -35.541496
-20.480145 62.999729 7.23628
-18.065261 79.196453 -5.75729
-18.357772 77.985836 -4.532617
-17.696566 79.232689 -4.541957
3.14894 96.99908 3.198122
2.72809 97.434399 1.814214
2.124376 96.350311 3.000541
-9.615672 85.329914 -34.364088
-9.628671 84.204842 -34.877264
-10.494637 84.267521 -33.742508
-0.654705 92.915932 -37.953075
-1.063214 91.704445 -38.614645
-1.894051 92.219124 -37.531931
-11.296239 84.256958 -32.615234
-12.069076 84.238606 -31.46301
-11.254475 85.37424 -32.077107
-10.494637 84.267521 -33.742508
-11.296239 84.256958 -32.615234
3.475866 103.554573 -19.173927
3.901025 103.787811 -17.746609
-17.038035 57.473371 20.949938
-16.584929 57.232026 22.186072
-16.83325 58.849474 20.12462
-17.458745 57.755295 19.764365
-17.038035 57.473371 20.949938
4.601111 84.658276 21.535125
4.807417 85.94825 20.307622
3.913386 84.945706 20.614157
4.746591 95.16444 8.333752
4.396621 95.670841 7.112732
3.806549 94.634049 8.074636
-13.522456 87.922139 -24.504752
-13.235131 88.717011 -23.607387
-12.601544 89.163433 -24.872018
-13.725136 87.139072 -25.332964
-13.522456 87.922139 -24.504752
-13.079929 87.535923 -26.522002
-13.725136 87.139072 -25.332964
-15.006871 57.801619 24.749164
-15.675603 56.691967 24.517522
-14.338513 58.929006 24.939622
-14.749092 59.331806 23.832153
-15.006871 57.801619 24.749164
-2.894925 68.421307 30.465397
-3.838448 67.406791 30.475959
-3.139562 66.868946 31.501704
6.013357 77.969433 29.2879
5.237708 78.413601 28.293553
4.973534 76.888061 29.480837
6.707491 77.483963 30.266154
6.013357 77.969433 29.2879
5.236406 102.371311 -29.998807
5.650721 103.104363 -28.661293
3.772703 100.049515 -2.264895
4.216591 99.698662 -0.726515
0.02723 66.249904 34.426519
-0.977696 65.145471 34.472571
1.025255 67.262142 34.403965
0.280254 67.822899 33.449506
0.02723 66.249904 34.426519
1.831136 66.729027 35.383183
2.08416 68.302021 34.40617
1.025255 67.262142 34.403965
-1.798088 87.703675 -40.557323
-2.042631 86.259365 -41.089475
-2.970641 86.912373 -40.099913
-16.829073 83.390972 -10.924613
-17.221259 82.32386 -9.566695
-16.435018 83.634487 -9.706508
-17.494748 82.751423 -13.087264
-17.117584 83.594337 -14.383144
-15.63891 86.126937 -18.348978
-15.129494 86.788452 -19.652763
-20.814389 54.978437 13.723029
-21.391045 53.770467 13.245573
-20.976033 53.745209 14.449778
-9.238209 64.769253 27.197823
-9.474154 63.251562 28.191704
-8.663678 64.244944 28.32407
4.098644 88.915333 16.223953
3.187218 88.091186 16.338113
3.805027 87.808712 17.268051
4.228406 89.915188 15.13655
4.098644 88.915333 16.223953
6.122838 84.092197 23.413104
5.941244 82.688606 24.70727
3.922788 99.920693 -33.503293
2.997854 100.084148 -32.315849
4.322172 100.784641 -32.358143
2.790125 96.879909 -36.65424
3.117726 97.938438 -35.651619
1.380355 96.114345 -36.444397
2.790125 96.879909 -36.65424
-20.84374 64.070086 5.184311
-20.717213 65.404572 4.254169
-20.368113 69.214519 1.268134
-20.236587 70.414417 0.288883
5.016032 94.577377 9.568219
4.468038 93.621071 10.395932
3.596166 91.632843 12.257828
2.77089 90.920071 12.315106
3.197437 90.504604 13.34534
3.974588 92.581401 11.361901
3.596166 91.632843 12.257828
4.468038 93.621071 10.395932
3.663069 93.087978 10.261624
3.974588 92.581401 11.361901
-21.364285 57.638899 9.670718
-21.50791 56.33711 10.450132
-21.242302 58.970934 8.791096
-21.364285 57.638899 9.670718
-20.848569 58.929821 9.953205
-21.112949 60.314923 7.936167
-21.242302 58.970934 8.791096
-13.342792 58.199202 27.197045
-13.86099 58.519109 26.081041
-12.579282 59.241924 27.434497
-13.342792 58.199202 27.197045
-11.797926 60.343937 27.635596
-12.344331 60.741413 26.506549
-12.579282 59.241924 27.434497
-18.613715 76.694172 -3.241367
-18.809264 75.483765 -1.990101
-18.184627 76.811665 -2.066018
-18.613715 76.694172 -3.241367
-18.357772 77.985836 -4.532617
3.432428 98.586506 0.492464
2.407865 97.937736 0.294883
2.72809 97.434399 1.814214
4.216591 99.698662 -0.726515
3.432428 98.586506 0.492464
-8.864913 83.931366 -35.913168
-9.628671 84.204842 -34.877264
-7.962267 84.996476 -36.486269
-8.864913 83.931366 -35.913168
-1.362979 90.442444 -39.26372
-1.574748 89.116967 -39.95085
-2.514328 89.68216 -38.88063
-1.362979 90.442444 -39.26372
-1.063214 91.704445 -38.614645
-16.688613 84.432724 -15.721522
-17.117584 83.594337 -14.383144
-16.328605 84.951713 -14.649776
-12.754891 84.155407 -30.3752
-12.7496 85.092315 -29.807467
-12.754891 84.155407 -30.3752
-12.069076 84.238606 -31.46301
3.098766 103.331238 -20.583627
2.144359 102.793022 -19.203772
3.475866 103.554573 -19.173927
3.896181 103.668419 -21.97355
2.564674 102.906868 -22.003395
3.098766 103.331238 -20.583627
4.706155 103.93887 -23.357228
3.896181 103.668419 -21.97355
4.322641 102.291821 -7.607663
4.710713 102.090958 -6.122729
-20.611267 53.618444 15.638143
-20.976033 53.745209 14.449778
-18.08444 56.645573 19.3256
-18.672981 55.542912 18.94779
-17.879655 58.021675 18.500281
-18.08444 56.645573 19.3256
-17.458745 57.755295 19.764365
-7.772524 65.350174 28.384468
-8.663678 64.244944 28.32407
4.418073 87.434269 18.270273
3.805027 87.808712 17.268051
3.506646 86.610123 18.384433
5.048084 87.2071 19.104883
4.418073 87.434269 18.270273
5.048084 87.2071 19.104883
4.807417 85.94825 20.307622
5.789694 70.964867 35.02821
5.509956 69.239784 36.142854
-20.589251 66.72522 3.288957
-20.717213 65.404572 4.254169
-20.172461 66.726402 4.489654
4.059065 96.181218 5.834057
3.603389 96.568489 4.599474
3.000903 95.527721 5.619032
4.059065 96.181218 5.834057
4.396621 95.670841 7.112732
4.746591 95.16444 8.333752
5.016032 94.577377 9.568219
-14.535619 87.479039 -20.96013
-15.129494 86.788452 -19.652763
-14.217625 88.117908 -20.030518
-13.889896 88.142105 -22.289003
-12.968984 89.3834 -22.656269
-13.235131 88.717011 -23.607387
-14.535619 87.479039 -20.96013
-13.889896 88.142105 -22.289003
-12.317782 87.986393 -27.735306
-13.079929 87.535923 -26.522002
-12.126722 88.819031 -26.982688
-12.54916 87.006085 -28.460968
-12.317782 87.986393 -27.735306
-11.595952 88.289193 -28.921654
-12.64961 86.068814 -29.168683
-12.54916 87.006085 -28.460968
-11.927321 86.332386 -30.286099
-12.7496 85.092315 -29.807467
-12.64961 86.068814 -29.168683
4.426985 103.982105 -16.31384
3.901025 103.787811 -17.746609
3.047418 103.210651 -16.361303
-16.087384 57.050459 23.351823
-15.675603 56.691967 24.517522
-15.914994 58.385984 22.475943
-16.584929 57.232026 22.186072
-16.087384 57.050459 23.351823
-13.60321 60.049297 25.164031
-14.338513 58.929006 24.939622
-13.86099 58.519109 26.081041
-4.72482 66.477367 30.443279
-5.58092 65.534292 30.420266
-4.480183 68.029728 29.406972
-4.72482 66.477367 30.443279
-3.838448 67.406791 30.475959
5.716642 81.311161 25.900641
5.941244 82.688606 24.70727
4.988197 81.627285 24.99004
5.520563 79.872406 27.142013
4.48074 78.791035 27.33495
5.237708 78.413601 28.293553
5.716642 81.311161 25.900641
5.520563 79.872406 27.142013
4.830706 101.638374 -31.234519
3.802938 101.681034 -29.934988
5.236406 102.371311 -29.998807
4.322172 100.784641 -32.358143
4.830706 101.638374 -31.234519
-20.162943 71.530579 -0.869419
-20.236587 70.414417 0.288883
-19.731479 71.720455 0.255774
-19.448093 74.101444 -2.03399
-19.019006 74.218937 -0.858639
-18.809264 75.483765 -1.990101
-20.048995 72.689625 -2.051506
-19.448093 74.101444 -2.03399
-20.162943 71.530579 -0.869419
-20.048995 72.689625 -2.051506
3.224504 100.229236 -3.595047
2.564004 99.269565 -2.35702
3.772703 100.049515 -2.264895
3.961282 101.207051 -4.914882
2.752583 100.427101 -5.007008
3.224504 100.229236 -3.595047
4.710713 102.090958 -6.122729
3.961282 101.207051 -4.914882
3.14894 96.99908 3.198122
3.603389 96.568489 4.599474
-2.412644 66.277603 32.536066
-3.139562 66.868946 31.501704
-1.67351 65.741203 33.526525
-0.977696 65.145471 34.472571
-1.456904 67.347061 32.481601
-2.412644 66.277603 32.536066
-1.67351 65.741203 33.526525
2.566625 66.035294 36.378439
1.831136 66.729027 35.383183
3.620231 67.026573 36.428036
2.566625 66.035294 36.378439
4.58106 68.05246 36.343065
3.850871 68.794792 35.300416
3.620231 67.026573 36.428036
5.509956 69.239784 36.142854
4.58106 68.05246 36.343065
-6.977523 86.001755 -37.022232
-7.962267 84.996476 -36.486269
-7.764962 86.272514 -36.034807
-6.094711 85.63454 -38.069558
-6.977523 86.001755 -37.022232
-5.897406 86.910579 -37.618096
-5.17715 85.250869 -39.090607
-6.094711 85.63454 -38.069558
-4.277444 84.713219 -40.073929
-5.17715 85.250869 -39.090607
-4.114889 86.005714 -39.648743
-3.459538 84.096523 -40.947679
-4.277444 84.713219 -40.073929
-2.288575 84.858471 -41.509464
-3.459538 84.096523 -40.947679
-2.288575 84.858471 -41.509464
-2.042631 86.259365 -41.089475
-1.798088 87.703675 -40.557323
-1.574748 89.116967 -39.95085
-17.494239 81.372402 -8.260841
-17.782664 80.310368 -6.969861
-17.115629 81.505341 -7.05761
-17.494239 81.372402 -8.260841
-17.221259 82.32386 -9.566695
-17.186445 83.096836 -12.048099
-16.829073 83.390972 -10.924613
-16.400205 84.407463 -12.187912
-17.186445 83.096836 -12.048099
-17.494748 82.751423 -13.087264
-16.182976 85.308326 -16.981479
-15.355567 86.608711 -17.355652
-15.63891 86.126937 -18.348978
-16.688613 84.432724 -15.721522
-16.182976 85.308326 -16.981479
6.207138 103.754669 -27.419968
5.650721 103.104363 -28.661293
4.765055 103.064278 -27.457952
5.685847 104.174137 -24.768883
4.341781 103.479317 -24.804972
4.706155 103.93887 -23.357228
6.605486 104.337311 -25.987219
5.685847 104.174137 -24.768883
6.207138 103.754669 -27.419968
6.605486 104.337311 -25.987219
3.914963 102.469612 -9.092192
3.081684 101.582707 -7.811371
4.322641 102.291821 -7.607663
3.604991 102.628246 -10.60052
3.914963 102.469612 -9.092192
3.219411 102.721695 -12.071908
2.288428 101.853947 -10.767288
3.604991 102.628246 -10.60052
4.054676 103.45047 -13.416837
2.738113 102.67617 -13.583605
3.219411 102.721695 -12.071908
4.826104 104.073246 -14.752046
4.054676 103.45047 -13.416837
4.426985 103.982105 -16.31384
4.826104 104.073246 -14.752046
-21.757662 53.855138 12.068855
-21.391045 53.770467 13.245573
-21.637334 55.040065 11.29313
-21.757662 53.855138 12.068855
-21.099977 56.300741 11.675826
-21.50791 56.33711 10.450132
-21.637334 55.040065 11.29313
-19.988902 54.83761 16.158666
-20.611267 53.618444 15.638143
-19.041888 55.816997 17.725808
-18.672981 55.542912 18.94779
-19.429434 56.06599 16.499544
-19.041888 55.816997 17.725808
-18.892896 57.160946 16.835253
-19.839909 56.181559 15.268112
-19.988902 54.83761 16.158666
-19.429434 56.06599 16.499544
-11.035284 61.357157 27.80798
-11.797926 60.343937 27.635596
-10.278139 62.32338 27.986884
-9.474154 63.251562 28.191704
-10.80583 62.809649 26.886552
-11.035284 61.357157 27.80798
-10.278139 62.32338 27.986884
-6.241934 66.019009 29.40652
-5.58092 65.534292 30.420266
-6.891008 66.405144 28.441467
-6.241934 66.019009 29.40652
-6.015629 67.486439 28.409239
-7.546218 66.817604 27.387188
-7.772524 65.350174 28.384468
-6.891008 66.405144 28.441467
3.751774 90.207592 14.291039
3.197437 90.504604 13.34534
2.926498 89.49482 14.348316
3.751774 90.207592 14.291039
4.228406 89.915188 15.13655
5.353971 84.332775 22.51263
4.601111 84.658276 21.535125
4.459939 83.33023 22.819164
5.353971 84.332775 22.51263
6.122838 84.092197 23.413104
5.955367 72.615738 33.844485
4.977374 71.47155 34.031721
5.789694 70.964867 35.02821
6.135758 74.195767 32.682488
5.955367 72.615738 33.844485
6.438827 75.856503 31.496081
5.446115 74.783157 31.66159
6.135758 74.195767 32.682488
6.707491 77.483963 30.266154
6.438827 75.856503 31.496081
3.538456 98.949742 -34.61137
3.922788 99.920693 -33.503293
2.177739 98.208897 -34.501248
3.538456 98.949742 -34.61137
3.117726 97.938438 -35.651619
0.010189 95.340824 -36.156601
0.386844 96.424072 -35.2537
1.380355 96.114345 -36.444397
-0.240921 94.230854 -37.108829
-1.234432 94.540581 -35.918132
0.010189 95.340824 -36.156601
-0.654705 92.915932 -37.953075
-0.240921 94.230854 -37.108829
-20.989728 61.683859 7.017516
-21.112949 60.314923 7.936167
-20.603366 61.630792 8.154931
-20.933602 62.867073 6.075019
-20.390284 64.202742 6.345572
-20.84374 64.070086 5.184311
-20.989728 61.683859 7.017516
-20.933602 62.867073 6.075019
-20.4878 67.935897 2.323317
-19.924812 69.325672 2.469259
-20.368113 69.214519 1.268134
-20.589251 66.72522 3.288957
-20.4878 67.935897 2.323317
-18.065261 79.196453 -5.75729
-17.782664 80.310368 -6.969861
3 1 86 84
3 0 88 87
3 1 91 89
3 1 84 91
3 2 95 93
3 3 98 96
3 2 101 99
3 2 93 101
3 5 106 104
3 5 108 106
3 5 110 108
3 4 330 332
3 332 331 111
3 330 331 332
3 6 333 335
3 335 334 112
3 333 334 335
3 7 116 114
3 6 119 117
3 6 112 119
3 9 336 338
3 336 121 337
3 336 337 338
3 10 124 122
3 10 339 341
3 341 340 124
3 339 340 341
3 11 127 125
3 9 342 344
3 344 343 128
3 342 343 344
3 9 345 346
3 12 131 129
3 348 347 132
3 14 136 134
3 16 139 137
3 16 141 139
3 8 144 142
3 17 147 145
3 17 149 147
3 17 151 149
3 12 154 152
3 12 129 154
3 18 349 350
3 18 351 353
3 351 157 352
3 351 352 353
3 18 159 157
3 19 162 160
3 19 164 162
3 20 167 165
3 20 169 167
3 20 171 169
3 21 174 172
3 21 176 174
3 21 354 356
3 356 355 176
3 354 355 356
3 13 179 177
3 15 182 180
3 22 357 359
3 359 358 183
3 357 358 359
3 23 186 184
3 22 187 83
3 22 183 187
3 25 190 188
3 27 191 85
3 27 192 191
3 28 195 193
3 29 360 362
3 362 361 90
3 360 361 362
3 29 363 364
3 29 365 366
3 25 196 92
3 25 188 196
3 30 199 197
3 32 200 94
3 32 201 200
3 33 204 202
3 35 205 97
3 35 206 205
3 36 209 207
3 38 210 100
3 38 211 210
3 38 213 211
3 30 214 102
3 30 197 214
3 367 215 368
3 369 217 370
3 371 370 215
3 369 370 371
3 41 218 103
3 41 219 218
3 42 372 374
3 372 221 373
3 372 373 374
3 44 222 105
3 44 223 222
3 44 225 223
3 46 226 107
3 46 227 226
3 46 229 227
3 47 375 377
3 377 376 109
3 375 376 377
3 47 378 379
3 381 380 230
3 48 234 232
3 49 237 235
3 383 382 113
3 51 240 238
3 53 241 115
3 53 242 241
3 24 243 185
3 54 244 118
3 54 245 244
3 54 246 245
3 49 247 120
3 49 235 247
3 384 248 385
3 386 249 387
3 388 387 248
3 386 387 388
3 389 251 390
3 391 390 249
3 389 390 391
3 26 252 189
3 56 253 123
3 56 254 253
3 56 392 394
3 394 393 254
3 392 393 394
3 57 395 397
3 397 396 255
3 395 396 397
3 399 398 126
3 401 400 194
3 58 258 256
3 60 259 130
3 60 260 259
3 31 261 198
3 61 262 133
3 61 263 262
3 61 264 263
3 50 265 236
3 62 268 266
3 64 269 135
3 64 270 269
3 34 271 203
3 65 272 138
3 65 273 272
3 65 274 273
3 66 275 140
3 66 276 275
3 52 277 239
3 67 278 143
3 67 279 278
3 37 280 208
3 68 281 146
3 68 282 281
3 68 283 282
3 69 284 148
3 69 285 284
3 69 286 285
3 70 287 150
3 70 288 287
3 39 289 212
3 71 290 153
3 71 291 290
3 71 292 291
3 58 293 155
3 58 256 293
3 72 402 404
3 402 294 403
3 402 403 404
3 72 295 294
3 73 296 156
3 73 297 296
3 73 298 297
3 74 299 158
3 74 300 299
3 40 301 216
3 75 302 161
3 75 303 302
3 75 304 303
3 76 305 163
3 76 306 305
3 77 405 407
3 405 307 406
3 405 406 407
3 77 308 307
3 43 309 220
3 78 310 166
3 78 311 310
3 78 312 311
3 79 313 168
3 79 314 313
3 79 315 314
3 80 316 170
3 80 317 316
3 45 318 224
3 81 319 173
3 81 320 319
3 81 321 320
3 408 322 409
3 410 409 175
3 408 409 410
3 412 411 322
3 414 413 228
3 55 323 250
3 59 324 257
3 82 325 178
3 82 326 325
3 415 327 416
3 417 416 231
3 415 416 417
3 418 328 419
3 421 420 328
3 63 329 267
3 423 422 181
3 425 424 233
3 427 426 22
3 428 83 429
3 430 429 23
3 428 429 430
3 431 83 432
3 433 22 434
3 435 434 83
3 433 434 435
3 84 85 25
3 86 85 84
3 86 27 85
3 87 436 437
3 88 438 440
3 440 439 87
3 438 439 440
3 88 441 442
3 89 90 28
3 91 90 89
3 91 29 90
3 91 92 29
3 84 92 91
3 84 25 92
3 93 94 30
3 95 94 93
3 95 32 94
3 96 97 33
3 98 97 96
3 98 35 97
3 99 100 36
3 101 100 99
3 101 38 100
3 101 102 38
3 93 102 101
3 93 30 102
3 443 103 444
3 445 103 446
3 447 41 448
3 449 448 103
3 447 448 449
3 104 105 42
3 106 105 104
3 106 44 105
3 106 107 44
3 108 107 106
3 108 46 107
3 108 109 46
3 110 109 108
3 110 47 109
3 111 450 452
3 452 451 48
3 450 451 452
3 454 453 111
3 112 113 49
3 455 113 456
3 457 456 112
3 455 456 457
3 459 458 113
3 114 115 51
3 116 115 114
3 116 53 115
3 117 118 24
3 119 118 117
3 119 54 118
3 119 120 54
3 112 120 119
3 112 49 120
3 121 460 461
3 121 462 463
3 122 123 26
3 124 123 122
3 124 56 123
3 124 464 466
3 466 465 56
3 464 465 466
3 468 467 124
3 125 126 57
3 127 126 125
3 127 469 471
3 471 470 126
3 469 470 471
3 128 472 473
3 475 474 128
3 129 130 58
3 131 130 129
3 131 60 130
3 132 133 31
3 476 133 477
3 478 477 132
3 476 477 478
3 479 61 480
3 481 480 133
3 479 480 481
3 483 482 61
3 485 484 50
3 134 135 62
3 136 135 134
3 136 64 135
3 137 138 34
3 139 138 137
3 139 65 138
3 139 140 65
3 141 140 139
3 141 66 140
3 142 143 52
3 144 143 142
3 144 67 143
3 145 146 37
3 147 146 145
3 147 68 146
3 147 148 68
3 149 148 147
3 149 69 148
3 149 150 69
3 151 150 149
3 151 70 150
3 152 153 39
3 154 153 152
3 154 71 153
3 154 155 71
3 129 155 154
3 129 58 155
3 486 72 487
3 488 156 489
3 157 490 492
3 490 156 491
3 490 491 492
3 157 73 156
3 157 158 73
3 159 158 157
3 159 74 158
3 160 161 40
3 162 161 160
3 162 75 161
3 162 163 75
3 164 163 162
3 164 76 163
3 493 77 494
3 165 166 43
3 167 166 165
3 167 78 166
3 167 168 78
3 169 168 167
3 169 79 168
3 169 170 79
3 171 170 169
3 171 80 170
3 172 173 45
3 174 173 172
3 174 81 173
3 174 175 81
3 176 175 174
3 176 495 497
3 497 496 175
3 495 496 497
3 176 498 499
3 501 500 176
3 503 502 55
3 177 178 59
3 179 178 177
3 179 82 178
3 180 181 63
3 182 181 180
3 182 504 506
3 506 505 181
3 504 505 506
3 183 507 509
3 509 508 6
3 507 508 509
3 511 510 183
3 513 512 22
3 184 185 7
3 186 185 184
3 186 24 185
3 83 186 23
3 187 186 83
3 187 24 186
3 187 117 24
3 183 117 187
3 183 6 117
3 188 189 9
3 190 189 188
3 190 26 189
3 85 190 25
3 191 190 85
3 191 26 190
3 191 122 26
3 192 122 191
3 192 10 122
3 193 194 11
3 195 194 193
3 195 514 516
3 516 515 194
3 514 515 516
3 90 195 28
3 517 195 518
3 519 518 90
3 517 518 519
3 521 520 195
3 92 522 524
3 524 523 29
3 522 523 524
3 196 525 527
3 527 526 92
3 525 526 527
3 196 528 529
3 196 530 532
3 530 128 531
3 530 531 532
3 188 128 196
3 188 9 128
3 197 198 12
3 199 198 197
3 199 31 198
3 94 199 30
3 200 199 94
3 200 31 199
3 200 132 31
3 201 132 200
3 201 533 535
3 535 534 132
3 533 534 535
3 202 203 14
3 204 203 202
3 204 34 203
3 97 204 33
3 205 204 97
3 205 34 204
3 205 137 34
3 206 137 205
3 206 16 137
3 207 208 8
3 209 208 207
3 209 37 208
3 100 209 36
3 210 209 100
3 210 37 209
3 210 145 37
3 211 145 210
3 211 17 145
3 211 212 17
3 213 212 211
3 213 39 212
3 102 213 38
3 214 213 102
3 214 39 213
3 214 152 39
3 197 152 214
3 197 12 152
3 215 536 537
3 215 538 540
3 538 18 539
3 538 539 540
3 215 216 18
3 217 216 215
3 217 40 216
3 103 541 543
3 541 217 542
3 541 542 543
3 218 217 103
3 218 40 217
3 218 160 40
3 219 160 218
3 219 19 160
3 544 220 545
3 221 546 548
3 546 220 547
3 546 547 548
3 221 43 220
3 105 221 42
3 222 221 105
3 222 43 221
3 222 165 43
3 223 165 222
3 223 20 165
3 223 224 20
3 225 224 223
3 225 45 224
3 107 225 44
3 226 225 107
3 226 45 225
3 226 172 45
3 227 172 226
3 227 21 172
3 227 228 21
3 229 228 227
3 229 549 551
3 551 550 228
3 549 550 551
3 109 229 46
3 552 229 553
3 554 553 109
3 552 553 554
3 556 555 229
3 230 231 13
3 557 231 558
3 559 558 230
3 557 558 559
3 561 560 231
3 232 233 15
3 234 233 232
3 234 562 564
3 564 563 233
3 562 563 564
3 565 234 566
3 567 566 48
3 565 566 567
3 568 234 569
3 571 570 234
3 235 236 2
3 237 236 235
3 237 50 236
3 113 237 49
3 572 237 573
3 574 573 113
3 572 573 574
3 575 50 576
3 577 576 237
3 575 576 577
3 579 578 50
3 581 580 6
3 238 239 3
3 240 239 238
3 240 52 239
3 115 240 51
3 241 240 115
3 241 52 240
3 241 142 52
3 242 142 241
3 242 8 142
3 185 116 7
3 243 116 185
3 243 53 116
3 118 243 24
3 244 243 118
3 244 53 243
3 244 242 53
3 245 242 244
3 245 8 242
3 245 207 8
3 246 207 245
3 246 36 207
3 120 246 54
3 247 246 120
3 247 36 246
3 247 99 36
3 235 99 247
3 235 2 99
3 582 42 583
3 248 584 585
3 248 586 588
3 586 42 587
3 586 587 588
3 248 104 42
3 249 104 248
3 249 5 104
3 249 250 5
3 251 250 249
3 251 55 250
3 589 251 590
3 591 251 592
3 593 55 594
3 595 594 251
3 593 594 595
3 597 596 55
3 189 121 9
3 252 121 189
3 252 598 600
3 600 599 121
3 598 599 600
3 123 252 26
3 253 252 123
3 253 601 603
3 603 602 252
3 601 602 603
3 253 604 605
3 254 606 608
3 608 607 253
3 606 607 608
3 254 609 610
3 254 611 612
3 614 613 254
3 616 615 56
3 255 617 619
3 619 618 4
3 617 618 619
3 621 620 255
3 126 622 624
3 624 623 57
3 622 623 624
3 626 625 126
3 194 127 11
3 627 127 628
3 629 628 194
3 627 628 629
3 631 630 127
3 256 257 1
3 258 257 256
3 258 59 257
3 130 258 58
3 259 258 130
3 259 59 258
3 259 177 59
3 260 177 259
3 260 13 177
3 198 131 12
3 261 131 198
3 261 60 131
3 133 261 31
3 262 261 133
3 262 60 261
3 262 260 60
3 263 260 262
3 263 13 260
3 263 230 13
3 264 230 263
3 264 632 634
3 634 633 230
3 632 633 634
3 635 264 636
3 637 636 61
3 635 636 637
3 638 264 639
3 641 640 264
3 236 95 2
3 265 95 236
3 265 32 95
3 642 265 643
3 644 643 50
3 642 643 644
3 645 265 646
3 647 32 648
3 649 648 265
3 647 648 649
3 650 201 651
3 652 651 32
3 650 651 652
3 653 201 654
3 656 655 201
3 266 267 0
3 268 267 266
3 268 63 267
3 135 268 62
3 269 268 135
3 269 63 268
3 269 180 63
3 270 180 269
3 270 15 180
3 203 136 14
3 271 136 203
3 271 64 136
3 138 271 34
3 272 271 138
3 272 64 271
3 272 270 64
3 273 270 272
3 273 15 270
3 273 232 15
3 274 232 273
3 274 48 232
3 140 274 65
3 275 274 140
3 275 48 274
3 275 111 48
3 276 111 275
3 276 4 111
3 239 98 3
3 277 98 239
3 277 35 98
3 143 277 52
3 278 277 143
3 278 35 277
3 278 206 35
3 279 206 278
3 279 16 206
3 208 144 8
3 280 144 208
3 280 67 144
3 146 280 37
3 281 280 146
3 281 67 280
3 281 279 67
3 282 279 281
3 282 16 279
3 282 141 16
3 283 141 282
3 283 66 141
3 148 283 68
3 284 283 148
3 284 66 283
3 284 276 66
3 285 276 284
3 285 4 276
3 285 255 4
3 286 255 285
3 286 57 255
3 150 286 69
3 287 286 150
3 287 57 286
3 287 125 57
3 288 125 287
3 288 11 125
3 212 151 17
3 289 151 212
3 289 70 151
3 153 289 39
3 290 289 153
3 290 70 289
3 290 288 70
3 291 288 290
3 291 11 288
3 291 193 11
3 292 193 291
3 292 28 193
3 155 292 71
3 293 292 155
3 293 28 292
3 293 89 28
3 256 89 293
3 256 1 89
3 294 657 658
3 294 659 660
3 294 661 663
3 661 87 662
3 661 662 663
3 295 87 294
3 295 0 87
3 664 72 665
3 156 666 667
3 296 668 670
3 670 669 156
3 668 669 670
3 296 671 673
3 671 72 672
3 671 672 673
3 296 295 72
3 297 295 296
3 297 0 295
3 297 266 0
3 298 266 297
3 298 62 266
3 158 298 73
3 299 298 158
3 299 62 298
3 299 134 62
3 300 134 299
3 300 14 134
3 216 159 18
3 301 159 216
3 301 74 159
3 161 301 40
3 302 301 161
3 302 74 301
3 302 300 74
3 303 300 302
3 303 14 300
3 303 202 14
3 304 202 303
3 304 33 202
3 163 304 75
3 305 304 163
3 305 33 304
3 305 96 33
3 306 96 305
3 306 3 96
3 674 41 675
3 307 676 677
3 307 678 680
3 678 41 679
3 678 679 680
3 307 219 41
3 308 219 307
3 308 19 219
3 220 681 682
3 309 683 685
3 685 684 220
3 683 684 685
3 309 686 688
3 686 77 687
3 686 687 688
3 166 309 43
3 310 309 166
3 310 77 309
3 310 308 77
3 311 308 310
3 311 19 308
3 311 164 19
3 312 164 311
3 312 76 164
3 168 312 78
3 313 312 168
3 313 76 312
3 313 306 76
3 314 306 313
3 314 3 306
3 314 238 3
3 315 238 314
3 315 51 238
3 170 315 79
3 316 315 170
3 316 51 315
3 316 114 51
3 317 114 316
3 317 7 114
3 224 171 20
3 318 171 224
3 318 80 171
3 173 318 45
3 319 318 173
3 319 80 318
3 319 317 80
3 320 317 319
3 320 7 317
3 320 184 7
3 321 184 320
3 321 23 184
3 175 321 81
3 322 321 175
3 322 23 321
3 322 689 691
3 691 690 23
3 689 690 691
3 693 692 322
3 228 694 696
3 696 695 21
3 694 695 696
3 698 697 228
3 250 110 5
3 323 110 250
3 323 47 110
3 699 323 700
3 701 700 55
3 699 700 701
3 702 323 703
3 704 47 705
3 706 705 323
3 704 705 706
3 708 707 47
3 257 86 1
3 324 86 257
3 324 27 86
3 178 324 59
3 325 324 178
3 325 27 324
3 325 192 27
3 326 192 325
3 326 10 192
3 231 179 13
3 327 179 231
3 327 82 179
3 709 327 710
3 328 711 713
3 711 327 712
3 711 712 713
3 328 82 327
3 328 326 82
3 714 326 715
3 716 715 328
3 714 715 716
3 717 10 718
3 719 718 326
3 717 718 719
3 721 720 10
3 267 88 0
3 329 88 267
3 329 722 724
3 724 723 88
3 722 723 724
3 181 329 63
3 725 329 726
3 727 726 181
3 725 726 727
3 729 728 329
3 233 182 15
3 730 182 731
3 732 731 233
3 730 731 732
3 734 733 182
3 736 735 4
