ply
format ascii 1.0
element vertex 700
property float x
property float y
property float z
element face 814
property list uchar int vertex_index
end_header
19.607821 -9.392749 -65.605782
25.885391 12.901059 -70.331955
27.748724 -50.834244 -46.198147
32.113571 -17.100584 -59.008057
19.218931 23.310106 -72.269218
23.351063 -66.266602 -40.207859
10.864136 20.285072 -72.447449
17.200987 12.291487 -72.650742
15.264122 -0.494245 -68.806
22.898739 1.457074 -69.116684
27.310711 -65.971901 -32.64283
32.113583 -52.85273 -39.548855
35.547741 -37.839806 -46.011456
30.892057 -34.223248 -52.399582
24.8403 -29.120569 -57.009975
25.727671 -12.853556 -63.383682
30.48975 -1.073428 -65.342247
8.503469 27.561768 -69.146927
7.805839 22.812798 -70.49559
11.487254 25.177601 -71.647552
22.542471 18.77574 -71.88781
18.293835 18.186838 -73.109123
21.403652 13.221372 -72.132568
20.324045 7.077155 -71.174805
24.37088 7.073595 -70.170547
12.4468 4.107905 -69.988068
25.664482 -58.671597 -43.276459
28.083681 -59.535767 -39.85675
30.091444 -52.281441 -43.113457
33.972427 -45.630245 -42.836975
31.950472 -44.540043 -46.210323
33.436302 -36.449947 -49.348881
29.502285 -42.636364 -49.250134
23.585749 -37.930248 -53.811813
21.786877 -26.258224 -58.631618
34.668114 -11.356591 -59.116707
33.698982 -3.117537 -62.362423
31.651331 -8.788216 -62.323772
28.288628 -7.03097 -64.677353
28.830105 -14.950172 -61.546738
15.732861 26.872883 -71.493164
20.662912 -65.208527 -43.268372
22.88903 -57.499294 -45.882118
24.780582 -49.137985 -48.799194
34.857605 -19.433697 -55.986134
7.315032 17.244371 -70.659836
10.216121 14.571643 -71.984024
14.843111 22.177109 -73.008018
13.973381 16.75271 -73.140541
13.206937 10.791758 -72.094757
16.160059 6.120474 -71.138039
19.002815 0.968042 -69.462723
21.11084 -4.583806 -67.361458
19.495026 -15.325809 -63.141148
28.381254 -65.161041 -28.466724
30.914145 -59.605049 -32.101913
25.675638 -66.314034 -36.640617
29.768562 -59.855511 -36.145889
33.204552 -53.543365 -35.559166
35.270535 -46.513367 -39.087589
36.83567 -39.206902 -42.446362
36.51329 -29.862684 -49.340591
34.382202 -27.779234 -52.791004
31.740557 -25.922327 -55.593208
26.598454 -40.485027 -51.795784
27.999498 -31.772766 -54.93578
28.707493 -23.474199 -58.148159
25.632677 -20.553526 -60.325909
22.468559 -18.006666 -61.901386
22.292202 -10.866738 -64.822174
32.067852 4.689155 -65.258591
28.552561 6.129224 -68.059029
26.763741 0.452781 -67.652771
24.713245 -5.416555 -66.441727
9.853015 26.487207 -70.457901
11.846415 27.431023 -70.758453
24.217447 15.891437 -71.25914
22.116257 16.039993 -72.122536
23.643719 13.232411 -71.392044
22.943487 10.353755 -71.266449
25.108635 10.102015 -70.419189
26.647997 -54.892033 -44.751038
27.936766 -55.461929 -43.235565
28.972239 -51.470539 -44.816891
31.052164 -48.578938 -44.585232
30.044765 -47.461239 -46.259705
30.759689 -43.622879 -47.815693
28.563442 -47.008072 -47.655571
33.450893 -14.005194 -59.239178
33.139454 -10.187976 -60.809769
31.909554 -12.976199 -60.70089
30.321888 -11.895532 -62.00779
30.490187 -16.137774 -60.317783
21.752913 -61.467236 -44.564247
36.131088 -16.393431 -55.862682
36.025879 -20.738588 -54.26413
9.221377 21.485275 -71.599068
7.569617 20.17709 -70.74926
8.882803 18.921959 -71.63134
8.69834 15.990751 -71.439857
10.420907 17.503395 -72.324684
17.401596 25.209332 -72.052246
15.163807 24.641239 -72.421852
16.943966 22.896322 -72.802017
17.706259 15.273244 -73.035255
16.07946 17.664856 -73.290001
15.537998 14.6678 -73.038788
13.499143 13.659451 -72.712097
15.155934 11.655742 -72.511459
14.607234 8.547564 -71.720741
16.61862 9.472047 -72.062286
21.689037 4.353676 -70.209328
19.712488 4.08278 -70.414299
20.983828 1.413973 -69.435036
20.133587 -1.629363 -68.500046
21.932076 -1.605262 -68.308235
16.575172 -2.989737 -67.982727
27.933546 -65.568123 -30.609177
29.669582 -62.488285 -30.12262
29.211119 -62.755955 -32.295559
24.700874 -66.093849 -38.592308
30.093027 -56.348267 -39.716576
28.983376 -59.813484 -38.020496
30.925734 -56.414246 -38.01152
31.53533 -56.73315 -35.927208
32.668713 -53.413391 -37.57449
34.277332 -50.089268 -37.394257
33.75457 -49.838402 -39.248631
34.698872 -42.052441 -44.408627
35.478233 -42.485828 -42.677288
36.236477 -38.587696 -44.297421
37.529099 -35.372566 -43.92709
36.908474 -34.628716 -45.836403
37.362427 -30.781147 -47.445267
35.992432 -34.008961 -47.744385
32.23307 -35.250206 -50.98349
33.975307 -32.134979 -51.063679
32.778732 -31.031019 -52.596134
33.123787 -27.048977 -54.16663
31.332939 -29.892118 -54.095356
23.248127 -48.191212 -49.844685
25.695551 -44.89365 -50.263573
24.275347 -43.633789 -51.353214
24.23345 -33.621815 -55.348423
25.863834 -34.951981 -54.377789
26.374949 -30.526773 -56.027863
28.379372 -27.481709 -56.598316
26.784445 -26.289219 -57.654633
27.158607 -21.931217 -59.342041
25.405973 -24.779827 -58.650532
20.240353 -24.694677 -59.335796
22.19533 -21.965256 -60.320168
20.625593 -20.488239 -61.016075
20.941641 -16.703972 -62.554642
32.123539 -2.080468 -63.946957
32.986767 0.85626 -63.843174
31.275679 1.932207 -65.473106
30.365316 5.838687 -66.807907
29.580635 2.719475 -66.794373
27.612946 3.23903 -67.988892
28.747688 -0.374093 -66.522072
27.116428 -9.888318 -64.104568
26.492752 -6.049039 -65.697884
25.306492 -9.116512 -64.932793
23.523939 -8.176571 -65.680847
23.929554 -11.928989 -64.143974
8.060308 25.124588 -69.980171
9.572066 24.084385 -71.215691
11.039246 22.782238 -72.168518
20.931973 20.99007 -72.235733
18.692289 20.966219 -72.863876
20.370443 18.505741 -72.659012
19.890051 15.681136 -72.733261
19.264727 12.785802 -72.525658
18.859592 9.892452 -72.038788
20.890469 10.090434 -71.75795
22.346956 7.179839 -70.796684
23.69669 4.158694 -69.688644
13.79915 1.719429 -69.416504
24.478964 -62.512089 -41.82674
25.753479 -62.717823 -40.240311
26.857952 -59.341408 -41.616245
29.065042 -56.003696 -41.545025
31.159212 -52.723843 -41.343784
33.086769 -49.243927 -41.248978
32.193409 -48.775024 -43.048676
32.99527 -45.163841 -44.604057
33.869907 -41.162849 -46.160355
34.52541 -37.139961 -47.81456
32.765583 -40.539299 -47.751808
31.615898 -39.444412 -49.350616
30.186077 -38.551544 -50.804634
22.788231 -32.036945 -56.244526
23.328238 -27.984489 -57.757011
34.306477 -7.111215 -60.752548
32.881584 -6.204051 -62.254906
31.186708 -5.005483 -63.808205
29.487879 -3.963211 -65.106041
29.914116 -7.938358 -63.60688
28.669271 -11.076525 -63.078331
27.280945 -13.743756 -62.584877
24.667879 18.631979 -70.854576
26.321981 15.765289 -70.104721
22.121918 -65.613342 -41.906467
23.15094 -61.921021 -43.360939
24.296722 -58.050072 -44.721325
25.414186 -53.960155 -46.145168
26.203585 -50.21788 -47.537449
23.775311 -53.606384 -47.255119
34.84108 -15.382644 -57.556198
33.515812 -18.572008 -57.452484
6.274857 21.144217 -69.618706
9.820934 11.402649 -71.260742
13.564878 26.313061 -71.6707
13.103064 23.788528 -72.47612
12.756059 21.28813 -72.873337
16.593758 20.325466 -73.208191
14.364849 19.696732 -73.22686
12.357868 18.475513 -72.93972
12.005651 15.68692 -72.69294
11.597817 12.632896 -72.122688
11.283685 9.559198 -71.33812
12.674148 7.654695 -71.167068
14.195891 5.378591 -70.734406
15.61688 2.816735 -70.036163
18.178402 6.866772 -71.338684
17.645729 3.522296 -70.347931
17.037081 0.259995 -69.222221
18.352209 -2.096395 -68.397041
19.471348 -4.691329 -67.42141
18.846392 -7.597072 -66.305588
20.385851 -7.411275 -66.356758
18.449503 -10.364349 -65.169319
18.130806 -13.523439 -63.827457
19.587528 -11.849392 -64.591675
26.51232 -66.303528 -34.662838
26.8741 -62.993263 -38.320953
27.773767 -63.133369 -36.35577
28.490009 -63.139786 -34.360302
30.408901 -59.820995 -34.103825
32.181725 -56.450386 -33.902142
34.692402 -50.218502 -35.32933
35.637718 -46.967823 -37.01186
36.566429 -43.428593 -38.566628
34.667152 -46.217312 -40.98391
36.129211 -42.935974 -40.690201
36.922554 -25.849354 -50.821693
35.063446 -33.038177 -49.474491
35.518314 -28.922586 -51.078964
35.832661 -24.903648 -52.648933
34.667114 -23.722582 -54.364014
33.352913 -22.880184 -55.808857
31.946968 -21.492786 -57.343552
27.282223 -46.018707 -48.951443
27.968506 -41.832039 -50.542313
28.772173 -37.487926 -52.105415
25.120913 -39.449203 -52.779079
27.385489 -36.101147 -53.348068
29.460598 -33.240383 -53.646049
29.870333 -28.858303 -55.350533
30.336588 -24.515476 -56.97345
30.498053 -20.357914 -58.623478
28.895578 -19.244892 -59.8134
27.292568 -17.769354 -60.991299
25.783278 -16.625029 -61.874847
23.7742 -23.605106 -59.45351
24.096712 -19.255665 -61.16785
24.212074 -15.46303 -62.67749
22.513399 -14.430454 -63.355141
20.988541 -13.112321 -64.03154
20.825848 -9.853436 -65.370132
27.933945 12.350042 -69.080772
31.060152 8.423479 -66.498329
29.105152 9.121027 -68.089653
27.224487 9.583654 -69.312004
26.492895 6.721782 -69.242821
25.608347 3.969526 -69.017921
24.910152 1.056279 -68.475304
27.63847 -3.217019 -66.208427
25.775747 -2.512399 -67.115738
23.866495 -1.894935 -67.842773
22.869965 -4.853596 -67.02784
21.896641 -7.571875 -66.159561
12.124288 28.450603 -70.171341
11.157593 27.992128 -70.179962
36.545688 -21.344765 -53.351178
36.605574 -19.167271 -54.166678
14.971967 -2.152828 -68.11829
14.322864 -0.978916 -68.467399
15.919647 -1.741991 -68.394363
15.627492 -3.400574 -67.706654
14.971967 -2.152828 -68.11829
27.622129 -65.770012 -31.626003
26.9767 -67.163944 -30.800463
26.665282 -67.365834 -31.817289
24.025968 -66.180226 -39.400084
23.416033 -67.851135 -38.708481
22.741127 -67.937511 -39.516256
23.131469 -45.140286 -51.103313
23.761737 -45.912501 -50.59895
22.617859 -47.418997 -50.349049
19.763846 -21.641015 -60.548338
20.432973 -22.591458 -60.175936
19.571227 -23.744234 -59.708199
19.924565 -19.638172 -61.360861
19.763846 -21.641015 -60.548338
7.809527 27.973197 -68.403435
8.718571 28.513933 -68.6637
7.655567 26.887434 -68.864128
7.809527 27.973197 -68.403435
8.281889 26.343178 -69.563549
7.433986 25.668844 -69.28075
7.655567 26.887434 -68.864128
12.217432 2.328505 -69.284863
11.560227 3.417089 -69.488529
13.122975 2.913667 -69.702286
12.893607 1.134267 -68.999081
12.217432 2.328505 -69.284863
21.729487 -33.45829 -55.834606
22.3797 -34.258024 -55.460346
21.999038 -31.361373 -56.600075
21.729487 -33.45829 -55.834606
34.487296 -9.233903 -59.934627
34.96638 -7.651123 -59.911934
35.147198 -9.773812 -59.094014
25.803956 18.356214 -70.149818
24.961518 19.729942 -70.464389
26.631007 16.922868 -69.774891
25.49493 17.198634 -70.479648
25.803956 18.356214 -70.149818
20.02328 -67.079208 -42.637375
19.248109 -66.85669 -43.259079
21.392415 -65.410934 -42.587419
20.752783 -67.281616 -41.956423
20.02328 -67.079208 -42.637375
7.040348 21.978507 -70.057148
6.359612 22.438942 -69.408844
7.125103 23.273232 -69.847286
6.690576 17.857655 -70.16647
6.817868 19.324015 -70.211182
7.442324 18.710731 -70.704548
6.601108 16.450072 -70.054611
6.690576 17.857655 -70.16647
7.232362 15.819902 -70.488586
6.601108 16.450072 -70.054611
9.335106 13.782052 -71.449635
8.576216 14.491606 -71.177551
9.45723 15.281197 -71.71194
10.018527 12.987146 -71.622383
9.137513 12.197555 -71.087993
9.335106 13.782052 -71.449635
14.648869 26.592972 -71.581932
13.729782 27.273784 -71.177605
14.813773 27.553695 -71.088836
18.298882 -6.377129 -66.76273
18.069615 -8.042959 -66.078434
17.545968 -12.590846 -64.162897
17.312553 -14.312084 -63.413862
17.705317 -11.011301 -64.833828
18.290154 -11.943894 -64.498388
17.545968 -12.590846 -64.162897
27.670698 -66.537017 -27.485684
27.468216 -66.775219 -28.624287
28.510529 -64.970371 -27.325998
27.799974 -66.346348 -26.344958
27.670698 -66.537017 -27.485684
29.172722 -63.661003 -28.215865
28.510529 -64.970371 -27.325998
31.075943 -59.507874 -31.009893
30.453661 -60.949491 -30.020246
30.291863 -61.046667 -31.112267
31.689813 -58.051904 -31.943488
31.075943 -59.507874 -31.009893
25.00448 -67.945412 -35.824179
24.566701 -67.865319 -36.831909
26.093979 -66.308781 -35.651727
25.422821 -67.940159 -34.835289
25.00448 -67.945412 -35.824179
33.42572 -53.490676 -34.468345
32.914307 -54.944187 -33.639833
32.693139 -54.996876 -34.730654
33.948477 -51.880933 -35.444248
34.169646 -51.828245 -34.353427
33.42572 -53.490676 -34.468345
37.060663 -39.572187 -41.370738
36.707434 -41.436723 -40.492657
36.48244 -41.071438 -41.568281
37.387554 -37.7323 -42.182353
37.060663 -39.572187 -41.370738
38.024546 -33.837774 -43.734533
37.78047 -33.423617 -44.75882
37.125631 -28.322242 -49.188591
37.550199 -28.781473 -48.240929
36.937858 -30.321916 -48.392929
36.717922 -27.856019 -50.081142
37.330263 -26.315576 -49.929142
37.125631 -28.322242 -49.188591
24.353331 -38.689725 -53.295446
23.923431 -40.854742 -52.563026
23.15585 -40.095264 -53.079393
28.851337 12.181283 -68.38892
28.172752 13.757979 -68.869846
34.116757 -1.613902 -62.22641
34.421949 -3.545902 -61.513237
32.894543 4.240747 -64.382042
33.354 2.324299 -63.674334
32.52731 2.772708 -64.550883
32.436356 5.996626 -65.002015
32.894543 4.240747 -64.382042
31.564002 6.556317 -65.87846
31.932505 7.863788 -65.621883
32.436356 5.996626 -65.002015
9.48612 28.0575 -69.374199
8.718571 28.513933 -68.6637
10.160893 27.52022 -70.029686
9.178242 27.024487 -69.802414
9.48612 28.0575 -69.374199
10.849715 26.959115 -70.608177
10.160893 27.52022 -70.029686
11.157593 27.992128 -70.179962
11.681986 5.114445 -70.108426
11.560227 3.417089 -69.488529
19.925692 -64.887921 -43.865654
19.248109 -66.85669 -43.259079
20.470693 -63.017275 -44.513592
21.207912 -63.337882 -43.916309
19.925692 -64.887921 -43.865654
21.030826 -61.024838 -45.161926
20.470693 -63.017275 -44.513592
21.598885 -59.040866 -45.820861
22.320971 -59.483265 -45.223183
21.030826 -61.024838 -45.161926
22.048101 -57.070133 -46.487247
21.598885 -59.040866 -45.820861
36.658178 -16.994692 -54.965953
36.585878 -14.89897 -55.807216
36.078484 -18.566009 -55.063406
36.658178 -16.994692 -54.965953
36.605574 -19.167271 -54.166678
16.292857 -4.642985 -67.297611
15.627492 -3.400574 -67.706654
17.163272 -4.073462 -67.601299
16.292857 -4.642985 -67.297611
27.244362 -66.97876 -29.695513
26.9767 -67.163944 -30.800463
28.1574 -65.364582 -29.537951
27.468216 -66.775219 -28.624287
27.244362 -66.97876 -29.695513
24.079319 -67.755226 -37.807755
23.416033 -67.851135 -38.708481
25.188256 -66.203942 -37.616462
24.566701 -67.865319 -36.831909
24.079319 -67.755226 -37.807755
37.470157 -33.051693 -45.713476
37.78047 -33.423617 -44.75882
37.218787 -35.000641 -44.881746
37.13545 -32.704932 -46.640835
37.697134 -31.127908 -46.517908
37.470157 -33.051693 -45.713476
20.082589 -17.746039 -62.130145
20.783617 -18.596106 -61.785359
19.924565 -19.638172 -61.360861
19.359282 -17.056957 -62.423398
20.218333 -16.01489 -62.847895
20.082589 -17.746039 -62.130145
7.252337 24.429127 -69.589576
7.433986 25.668844 -69.28075
7.933073 23.968693 -70.237881
7.125103 23.273232 -69.847286
7.252337 24.429127 -69.589576
13.590378 0.127921 -68.772651
12.893607 1.134267 -68.999081
14.531636 0.612592 -69.111252
14.322864 -0.978916 -68.467399
13.590378 0.127921 -68.772651
26.285567 -67.595646 -32.822607
26.665282 -67.365834 -31.817289
22.435001 -39.387294 -53.489126
23.15585 -40.095264 -53.079393
22.778459 -37.204676 -54.24399
22.435001 -39.387294 -53.489126
23.10231 -35.050459 -55.012295
23.909599 -35.776032 -54.580118
22.778459 -37.204676 -54.24399
23.510841 -32.82938 -55.796475
23.10231 -35.050459 -55.012295
22.3797 -34.258024 -55.460346
22.269042 -29.335145 -57.356318
23.058234 -30.010717 -57.000768
21.999038 -31.361373 -56.600075
21.498362 -28.472013 -57.793621
22.557558 -27.121356 -58.194315
22.269042 -29.335145 -57.356318
20.793071 -27.649534 -58.141801
21.498362 -28.472013 -57.793621
20.019809 -26.86776 -58.493891
21.013615 -25.47645 -58.983707
20.793071 -27.649534 -58.141801
19.270164 -25.842831 -58.875845
20.019809 -26.86776 -58.493891
19.571227 -23.744234 -59.708199
19.270164 -25.842831 -58.875845
34.725697 -5.542741 -60.708299
34.96638 -7.651123 -59.911934
34.00273 -5.114376 -61.557485
34.421949 -3.545902 -61.513237
34.725697 -5.542741 -60.708299
15.918322 27.835304 -70.881813
14.813773 27.553695 -71.088836
16.828938 27.107537 -71.201439
15.918322 27.835304 -70.881813
17.014398 28.069959 -70.590088
17.663305 26.275762 -71.48098
16.567228 26.041108 -71.772705
16.828938 27.107537 -71.201439
18.539788 25.357816 -71.69772
17.663305 26.275762 -71.48098
19.448455 24.408203 -71.806206
18.310264 24.259719 -72.160732
18.539788 25.357816 -71.69772
20.332154 23.384421 -71.852154
19.448455 24.408203 -71.806206
21.188675 22.224403 -71.835411
20.075452 22.150088 -72.252476
20.332154 23.384421 -71.852154
21.989598 21.10926 -71.761692
21.188675 22.224403 -71.835411
22.794846 20.002095 -71.58773
21.737222 19.882905 -72.061771
21.989598 21.10926 -71.761692
23.857551 19.930215 -71.071113
24.961518 19.729942 -70.464389
23.605175 18.70386 -71.371193
22.794846 20.002095 -71.58773
23.857551 19.930215 -71.071113
22.123756 -67.737698 -40.377239
22.741127 -67.937511 -39.516256
21.509183 -67.411068 -41.226543
20.752783 -67.281616 -41.956423
22.736491 -65.939972 -41.057163
22.123756 -67.737698 -40.377239
21.509183 -67.411068 -41.226543
22.491242 -55.123678 -47.173748
23.332171 -55.552839 -46.568618
22.048101 -57.070133 -46.487247
23.059019 -52.973592 -47.856724
22.491242 -55.123678 -47.173748
23.561655 -50.739393 -48.628761
24.277946 -51.372185 -48.027157
23.059019 -52.973592 -47.856724
22.795428 -50.266007 -49.151506
24.014354 -48.664598 -49.321939
23.561655 -50.739393 -48.628761
22.018612 -49.666345 -49.653046
22.795428 -50.266007 -49.151506
22.617859 -47.418997 -50.349049
22.018612 -49.666345 -49.653046
35.31077 -11.777652 -58.314644
35.147198 -9.773812 -59.094014
36.042257 -14.296072 -56.687631
36.585878 -14.89897 -55.807216
35.397253 -13.790679 -57.53439
36.042257 -14.296072 -56.687631
35.486084 -15.888037 -56.70944
34.754597 -13.369618 -58.336453
35.31077 -11.777652 -58.314644
35.397253 -13.790679 -57.53439
5.637182 21.707598 -68.901181
6.359612 22.438942 -69.408844
5.559574 20.356599 -69.019634
5.637182 21.707598 -68.901181
6.170488 19.807578 -69.645905
6.922237 20.660654 -70.183983
6.817868 19.324015 -70.211182
5.559574 20.356599 -69.019634
6.170488 19.807578 -69.645905
7.924016 15.193091 -70.878597
7.232362 15.819902 -70.488586
8.006686 16.617561 -71.049847
7.924016 15.193091 -70.878597
8.576216 14.491606 -71.177551
9.005679 10.654389 -70.688347
9.137513 12.197555 -71.087993
9.687722 9.739238 -70.783672
9.005679 10.654389 -70.688347
12.87055 27.832765 -70.721481
12.124288 28.450603 -70.171341
12.705647 26.872042 -71.214576
12.87055 27.832765 -70.721481
13.729782 27.273784 -71.177605
10.419098 8.817512 -70.822361
9.687722 9.739238 -70.783672
10.552309 10.480923 -71.299431
11.100428 7.840091 -70.783452
10.419098 8.817512 -70.822361
11.79566 6.88784 -70.697925
11.100428 7.840091 -70.783452
11.978917 8.606946 -71.252594
12.560474 5.8813 -70.577568
11.681986 5.114445 -70.108426
11.79566 6.88784 -70.697925
18.05179 -3.626791 -67.808457
17.163272 -4.073462 -67.601299
17.46369 -2.543066 -68.189884
18.611359 -4.924257 -67.320641
18.05179 -3.626791 -67.808457
18.911778 -3.393862 -67.909225
19.15887 -6.144201 -66.863499
18.298882 -6.377129 -66.76273
18.611359 -4.924257 -67.320641
17.87117 -9.426597 -65.5103
17.705317 -11.011301 -64.833828
18.647948 -8.980711 -65.737454
17.87117 -9.426597 -65.5103
18.069615 -8.042959 -66.078434
18.632993 -16.263115 -62.70577
19.359282 -17.056957 -62.423398
17.950883 -15.36193 -63.048925
17.312553 -14.312084 -63.413862
18.812916 -14.424624 -63.484302
18.632993 -16.263115 -62.70577
17.950883 -15.36193 -63.048925
29.816886 -62.324625 -29.043813
29.172722 -63.661003 -28.215865
29.025418 -63.824663 -29.294672
29.816886 -62.324625 -29.043813
30.453661 -60.949491 -30.020246
25.886372 -67.76146 -33.832611
25.422821 -67.940159 -34.835289
26.911516 -66.137715 -33.652834
26.285567 -67.595646 -32.822607
25.886372 -67.76146 -33.832611
32.323603 -56.474573 -32.843603
31.689813 -58.051904 -31.943488
31.547935 -58.027718 -33.002027
32.323603 -56.474573 -32.843603
32.914307 -54.944187 -33.639833
34.779841 -50.343694 -34.215479
34.169646 -51.828245 -34.353427
35.310381 -48.637102 -35.117598
34.779841 -50.343694 -34.215479
35.783039 -47.011763 -35.958862
35.310381 -48.637102 -35.117598
35.16506 -48.593163 -36.170595
36.226813 -45.342263 -36.819521
35.783039 -47.011763 -35.958862
36.691168 -43.572648 -37.596905
36.226813 -45.342263 -36.819521
36.102074 -45.198208 -37.789244
37.086424 -41.836331 -38.431601
36.691168 -43.572648 -37.596905
36.926043 -41.683033 -39.43087
36.34782 -43.182283 -39.628415
36.707434 -41.436723 -40.492657
37.086424 -41.836331 -38.431601
36.926043 -41.683033 -39.43087
37.734268 -35.815132 -42.922716
37.387554 -37.7323 -42.182353
37.182384 -37.289734 -43.186726
37.734268 -35.815132 -42.922716
38.024546 -33.837774 -43.734533
37.917864 -29.145947 -47.265215
37.697134 -31.127908 -46.517908
37.917864 -29.145947 -47.265215
37.550199 -28.781473 -48.240929
37.44619 -24.220844 -50.769689
37.330263 -26.315576 -49.929142
36.994026 -23.900148 -51.629959
37.44619 -24.220844 -50.769689
36.449079 -23.427295 -52.543579
36.994026 -23.900148 -51.629959
36.377607 -25.376501 -51.735313
35.92927 -22.821118 -53.456531
36.545688 -21.344765 -53.351178
36.449079 -23.427295 -52.543579
23.500649 -42.947035 -51.850093
23.131469 -45.140286 -51.103313
24.69813 -41.541496 -52.066147
23.500649 -42.947035 -51.850093
23.923431 -40.854742 -52.563026
27.36677 15.465602 -69.381821
26.631007 16.922868 -69.774891
27.127963 14.057665 -69.592747
27.36677 15.465602 -69.381821
28.172752 13.757979 -68.869846
33.760649 0.372997 -62.966786
34.116757 -1.613902 -62.22641
33.342875 -1.130638 -63.102798
33.760649 0.372997 -62.966786
33.354 2.324299 -63.674334
31.343247 9.718839 -66.243496
31.932505 7.863788 -65.621883
30.41444 10.218001 -67.097698
31.343247 9.718839 -66.243496
29.43694 10.566776 -67.89336
30.41444 10.218001 -67.097698
30.082652 8.772253 -67.293991
28.519548 10.735534 -68.585212
28.851337 12.181283 -68.38892
29.43694 10.566776 -67.89336
3 283 75 284
3 1 78 76
3 1 80 78
3 2 83 81
3 2 85 83
3 2 87 85
3 3 90 88
3 3 92 90
3 285 95 286
3 6 98 96
3 6 100 98
3 4 103 101
3 7 106 104
3 7 108 106
3 7 110 108
3 9 113 111
3 9 115 113
3 8 287 288
3 8 289 291
3 289 116 290
3 289 290 291
3 10 292 294
3 292 117 293
3 292 293 294
3 10 119 117
3 5 295 297
3 295 120 296
3 295 296 297
3 11 123 121
3 11 125 123
3 11 127 125
3 12 130 128
3 12 132 130
3 12 134 132
3 13 137 135
3 13 139 137
3 298 142 299
3 300 299 140
3 298 299 300
3 14 145 143
3 14 147 145
3 14 149 147
3 301 152 302
3 303 302 150
3 301 302 303
3 305 304 152
3 16 156 154
3 16 158 156
3 16 160 158
3 15 163 161
3 15 165 163
3 17 306 307
3 17 308 309
3 17 310 312
3 310 166 311
3 310 311 312
3 19 167 74
3 19 168 167
3 20 171 169
3 22 172 77
3 22 173 172
3 22 175 173
3 24 176 79
3 24 177 176
3 25 313 314
3 25 315 317
3 315 178 316
3 315 316 317
3 26 181 179
3 28 182 82
3 28 183 182
3 28 185 183
3 30 186 84
3 30 187 186
3 30 189 187
3 32 190 86
3 32 191 190
3 318 192 319
3 321 320 192
3 35 322 324
3 322 194 323
3 322 323 324
3 37 195 89
3 37 196 195
3 37 198 196
3 39 199 91
3 39 200 199
3 325 201 326
3 327 202 328
3 329 328 201
3 327 328 329
3 41 330 331
3 41 332 334
3 332 203 333
3 332 333 334
3 41 204 203
3 42 205 93
3 42 206 205
3 42 208 206
3 44 209 94
3 44 210 209
3 18 335 337
3 335 211 336
3 335 336 337
3 45 338 340
3 340 339 97
3 338 339 340
3 45 341 342
3 45 343 344
3 46 345 347
3 347 346 99
3 345 346 347
3 46 348 350
3 348 212 349
3 348 349 350
3 40 351 353
3 351 213 352
3 351 352 353
3 47 214 102
3 47 215 214
3 21 216 170
3 48 217 105
3 48 218 217
3 48 219 218
3 49 220 107
3 49 221 220
3 49 222 221
3 50 223 109
3 50 224 223
3 23 225 174
3 51 226 112
3 51 227 226
3 51 228 227
3 52 229 114
3 52 231 229
3 354 230 355
3 356 233 357
3 358 232 359
3 360 359 233
3 358 359 360
3 54 361 362
3 54 363 365
3 363 364 365
3 54 366 367
3 55 368 370
3 370 369 118
3 368 369 370
3 55 371 372
3 56 373 374
3 56 375 377
3 375 235 376
3 375 376 377
3 27 236 180
3 57 237 122
3 57 238 237
3 57 239 238
3 58 240 124
3 58 378 380
3 380 379 240
3 378 379 380
3 58 381 383
3 381 241 382
3 381 382 383
3 59 242 126
3 59 243 242
3 29 244 184
3 60 245 129
3 60 384 386
3 386 385 245
3 384 385 386
3 60 387 388
3 390 389 131
3 61 391 393
3 393 392 133
3 391 392 393
3 61 394 396
3 394 246 395
3 394 395 396
3 31 247 188
3 62 248 136
3 62 249 248
3 62 250 249
3 63 251 138
3 63 252 251
3 43 253 207
3 64 254 141
3 64 255 254
3 33 397 399
3 397 256 398
3 397 398 399
3 65 257 144
3 65 258 257
3 65 259 258
3 66 260 146
3 66 261 260
3 66 262 261
3 67 263 148
3 67 264 263
3 34 265 193
3 68 266 151
3 68 267 266
3 68 268 267
3 53 269 153
3 53 234 269
3 400 271 401
3 36 402 403
3 70 404 406
3 406 405 155
3 404 405 406
3 70 407 408
3 70 409 411
3 409 272 410
3 409 410 411
3 71 273 157
3 71 274 273
3 71 275 274
3 72 276 159
3 72 277 276
3 38 278 197
3 73 279 162
3 73 280 279
3 73 281 280
3 69 282 164
3 69 270 282
3 412 17 413
3 414 74 415
3 416 415 17
3 414 415 416
3 75 417 419
3 417 74 418
3 417 418 419
3 75 19 74
3 76 77 20
3 78 77 76
3 78 22 77
3 78 79 22
3 80 79 78
3 80 24 79
3 420 25 421
3 81 82 26
3 83 82 81
3 83 28 82
3 83 84 28
3 85 84 83
3 85 30 84
3 85 86 30
3 87 86 85
3 87 32 86
3 88 89 35
3 90 89 88
3 90 37 89
3 90 91 37
3 92 91 90
3 92 39 91
3 422 41 423
3 424 93 425
3 426 425 41
3 424 425 426
3 427 93 428
3 429 42 430
3 431 430 93
3 429 430 431
3 433 432 42
3 434 94 435
3 95 436 438
3 436 94 437
3 436 437 438
3 95 44 94
3 96 97 18
3 98 97 96
3 98 45 97
3 98 99 45
3 100 99 98
3 100 46 99
3 101 102 40
3 103 102 101
3 103 47 102
3 104 105 21
3 106 105 104
3 106 48 105
3 106 107 48
3 108 107 106
3 108 49 107
3 108 109 49
3 110 109 108
3 110 50 109
3 111 112 23
3 113 112 111
3 113 51 112
3 113 114 51
3 115 114 113
3 115 52 114
3 116 439 440
3 116 441 442
3 117 443 444
3 117 445 447
3 445 54 446
3 445 446 447
3 117 118 54
3 119 118 117
3 119 55 118
3 120 448 449
3 120 450 452
3 450 56 451
3 450 451 452
3 121 122 27
3 123 122 121
3 123 57 122
3 123 124 57
3 125 124 123
3 125 58 124
3 125 126 58
3 127 126 125
3 127 59 126
3 128 129 29
3 130 129 128
3 130 60 129
3 130 131 60
3 132 131 130
3 132 453 455
3 455 454 131
3 453 454 455
3 132 456 458
3 456 133 457
3 456 457 458
3 134 133 132
3 134 61 133
3 135 136 31
3 137 136 135
3 137 62 136
3 137 138 62
3 139 138 137
3 139 63 138
3 140 141 43
3 142 141 140
3 142 64 141
3 143 144 33
3 145 144 143
3 145 65 144
3 145 146 65
3 147 146 145
3 147 66 146
3 147 148 66
3 149 148 147
3 149 67 148
3 150 151 34
3 152 151 150
3 152 68 151
3 152 153 68
3 459 153 460
3 461 460 152
3 459 460 461
3 462 53 463
3 464 463 153
3 462 463 464
3 154 155 36
3 156 155 154
3 156 70 155
3 156 157 70
3 158 157 156
3 158 71 157
3 158 159 71
3 160 159 158
3 160 72 159
3 161 162 38
3 163 162 161
3 163 73 162
3 163 164 73
3 165 164 163
3 165 69 164
3 166 465 466
3 166 467 469
3 467 18 468
3 467 468 469
3 74 166 17
3 167 166 74
3 167 18 166
3 167 96 18
3 168 96 167
3 168 6 96
3 169 170 4
3 171 170 169
3 171 21 170
3 77 171 20
3 172 171 77
3 172 21 171
3 172 104 21
3 173 104 172
3 173 7 104
3 173 174 7
3 175 174 173
3 175 23 174
3 79 175 22
3 176 175 79
3 176 23 175
3 176 111 23
3 177 111 176
3 177 9 111
3 178 470 471
3 178 472 474
3 472 8 473
3 472 473 474
3 475 10 476
3 179 180 5
3 181 180 179
3 181 27 180
3 82 181 26
3 182 181 82
3 182 27 181
3 182 121 27
3 183 121 182
3 183 11 121
3 183 184 11
3 185 184 183
3 185 29 184
3 84 185 28
3 186 185 84
3 186 29 185
3 186 128 29
3 187 128 186
3 187 12 128
3 187 188 12
3 189 188 187
3 189 31 188
3 86 189 30
3 190 189 86
3 190 31 189
3 190 135 31
3 191 135 190
3 191 13 135
3 477 33 478
3 479 33 480
3 481 143 482
3 483 482 33
3 481 482 483
3 192 484 486
3 484 143 485
3 484 485 486
3 192 14 143
3 192 193 14
3 487 193 488
3 489 488 192
3 487 488 489
3 490 34 491
3 492 491 193
3 490 491 492
3 493 34 494
3 495 150 496
3 497 496 34
3 495 496 497
3 498 150 499
3 501 500 150
3 194 502 503
3 194 504 506
3 504 36 505
3 504 505 506
3 89 194 35
3 195 194 89
3 195 36 194
3 195 154 36
3 196 154 195
3 196 16 154
3 196 197 16
3 198 197 196
3 198 38 197
3 91 198 37
3 199 198 91
3 199 38 198
3 199 161 38
3 200 161 199
3 200 15 161
3 507 40 508
3 509 40 510
3 509 510 511
3 512 101 513
3 514 513 40
3 512 513 514
3 515 101 516
3 517 4 518
3 519 518 101
3 517 518 519
3 520 4 521
3 522 169 523
3 524 523 4
3 522 523 524
3 525 169 526
3 527 20 528
3 529 528 169
3 527 528 529
3 201 530 531
3 201 532 534
3 532 20 533
3 532 533 534
3 201 76 20
3 202 76 201
3 202 1 76
3 535 5 536
3 203 537 538
3 203 539 541
3 539 5 540
3 539 540 541
3 203 179 5
3 204 179 203
3 204 26 179
3 93 204 41
3 205 204 93
3 205 26 204
3 205 81 26
3 206 81 205
3 206 2 81
3 206 207 2
3 208 207 206
3 208 43 207
3 542 208 543
3 544 543 42
3 542 543 544
3 545 208 546
3 547 43 548
3 549 548 208
3 547 548 549
3 550 140 551
3 552 551 43
3 550 551 552
3 553 140 554
3 556 555 140
3 557 35 558
3 94 559 560
3 209 561 563
3 563 562 94
3 561 562 563
3 209 564 566
3 564 35 565
3 564 565 566
3 209 88 35
3 210 88 209
3 210 3 88
3 211 567 568
3 211 569 570
3 97 211 18
3 571 211 572
3 573 572 97
3 571 572 573
3 575 574 211
3 99 576 578
3 578 577 45
3 576 577 578
3 580 579 99
3 212 581 582
3 212 583 584
3 585 75 586
3 213 587 589
3 587 75 588
3 587 588 589
3 213 19 75
3 102 213 40
3 214 213 102
3 214 19 213
3 214 168 19
3 215 168 214
3 215 6 168
3 170 103 4
3 216 103 170
3 216 47 103
3 105 216 21
3 217 216 105
3 217 47 216
3 217 215 47
3 218 215 217
3 218 6 215
3 218 100 6
3 219 100 218
3 219 46 100
3 107 219 48
3 220 219 107
3 220 46 219
3 220 212 46
3 221 212 220
3 221 590 592
3 592 591 212
3 590 591 592
3 221 593 594
3 222 595 597
3 597 596 221
3 595 596 597
3 222 598 600
3 598 25 599
3 598 599 600
3 109 222 49
3 223 222 109
3 223 25 222
3 223 178 25
3 224 178 223
3 224 8 178
3 174 110 7
3 225 110 174
3 225 50 110
3 112 225 23
3 226 225 112
3 226 50 225
3 226 224 50
3 227 224 226
3 227 8 224
3 227 116 8
3 228 116 227
3 228 601 603
3 603 602 116
3 601 602 603
3 114 228 51
3 229 228 114
3 229 604 606
3 606 605 228
3 604 605 606
3 229 607 609
3 607 230 608
3 607 608 609
3 231 230 229
3 231 0 230
3 610 232 611
3 230 612 614
3 612 232 613
3 612 613 614
3 230 0 232
3 615 53 616
3 233 617 618
3 233 619 621
3 619 53 620
3 619 620 621
3 233 234 53
3 232 234 233
3 232 0 234
3 118 622 624
3 624 623 54
3 622 623 624
3 626 625 118
3 235 627 628
3 235 629 631
3 629 10 630
3 629 630 631
3 180 120 5
3 236 120 180
3 236 56 120
3 122 236 27
3 237 236 122
3 237 56 236
3 237 235 56
3 238 235 237
3 238 10 235
3 238 119 10
3 239 119 238
3 239 55 119
3 124 239 57
3 240 239 124
3 240 55 239
3 240 632 634
3 634 633 55
3 632 633 634
3 636 635 240
3 241 637 638
3 241 639 640
3 126 241 58
3 242 241 126
3 242 641 643
3 643 642 241
3 641 642 643
3 242 644 645
3 243 646 648
3 648 647 242
3 646 647 648
3 243 649 650
3 184 127 11
3 244 127 184
3 244 59 127
3 129 244 29
3 245 244 129
3 245 59 244
3 245 243 59
3 651 243 652
3 653 652 245
3 651 652 653
3 655 654 243
3 131 656 658
3 658 657 60
3 656 657 658
3 660 659 131
3 133 661 662
3 664 663 133
3 246 665 666
3 246 667 668
3 188 134 12
3 247 134 188
3 247 61 134
3 136 247 31
3 248 247 136
3 248 61 247
3 248 246 61
3 249 246 248
3 249 669 671
3 671 670 246
3 669 670 671
3 249 672 674
3 672 95 673
3 672 673 674
3 250 95 249
3 250 44 95
3 138 250 62
3 251 250 138
3 251 44 250
3 251 210 44
3 252 210 251
3 252 3 210
3 207 87 2
3 253 87 207
3 253 32 87
3 141 253 43
3 254 253 141
3 254 32 253
3 254 191 32
3 255 191 254
3 255 13 191
3 675 142 676
3 256 677 679
3 677 142 678
3 677 678 679
3 256 64 142
3 144 256 33
3 257 256 144
3 257 64 256
3 257 255 64
3 258 255 257
3 258 13 255
3 258 139 13
3 259 139 258
3 259 63 139
3 146 259 65
3 260 259 146
3 260 63 259
3 260 252 63
3 261 252 260
3 261 3 252
3 261 92 3
3 262 92 261
3 262 39 92
3 148 262 66
3 263 262 148
3 263 39 262
3 263 200 39
3 264 200 263
3 264 15 200
3 193 149 14
3 265 149 193
3 265 67 149
3 151 265 34
3 266 265 151
3 266 67 265
3 266 264 67
3 267 264 266
3 267 15 264
3 267 165 15
3 268 165 267
3 268 69 165
3 153 268 68
3 269 268 153
3 269 69 268
3 269 270 69
3 234 270 269
3 234 0 270
3 680 202 681
3 271 682 684
3 682 202 683
3 682 683 684
3 271 1 202
3 155 685 687
3 687 686 36
3 685 686 687
3 689 688 155
3 272 690 691
3 272 692 693
3 157 272 70
3 273 272 157
3 273 694 696
3 696 695 272
3 694 695 696
3 273 697 699
3 697 271 698
3 697 698 699
3 274 271 273
3 274 1 271
3 274 80 1
3 275 80 274
3 275 24 80
3 159 275 71
3 276 275 159
3 276 24 275
3 276 177 24
3 277 177 276
3 277 9 177
3 197 160 16
3 278 160 197
3 278 72 160
3 162 278 38
3 279 278 162
3 279 72 278
3 279 277 72
3 280 277 279
3 280 9 277
3 280 115 9
3 281 115 280
3 281 52 115
3 164 281 73
3 282 281 164
3 282 52 281
3 282 231 52
3 270 231 282
3 270 0 231
