ply
format ascii 1.0
element vertex 509
property float x
property float y
property float z
element face 561
property list uchar int vertex_index
end_header
25.29129 43.441563 12.326591
25.823698 54.93568 -2.441801
14.57519 40.555191 -17.374008
22.26025 36.877525 -9.669761
17.85008 39.389153 -12.964732
22.180426 50.754559 -12.457651
25.648823 49.074089 4.82505
28.418846 42.980377 -2.256566
24.743767 59.897377 -9.635037
22.540522 60.269863 4.676126
21.163944 53.710583 13.145351
25.855656 47.091255 -7.729711
20.22164 52.321171 -14.792441
22.100956 57.598915 -14.359391
25.490911 46.317787 8.302843
27.613411 43.819984 4.249182
21.75561 57.058952 8.982013
14.633996 33.832996 -15.24724
19.938396 38.36356 -11.271214
25.505648 57.589821 -6.076673
25.29887 53.709343 -8.520334
26.376532 51.378014 -5.463036
29.964918 36.789482 -2.400556
28.344809 38.882763 -4.846082
16.216801 47.156544 -17.219398
16.022404 40.050598 -14.947287
17.969681 46.319054 -14.927681
20.058363 45.267227 -12.837152
22.270069 43.819027 -10.88036
25.842941 51.926197 1.16939
27.085135 48.761185 -2.233202
27.439148 46.279339 0.972162
29.191891 40.838833 0.668763
24.578157 63.837189 -7.104511
24.718067 60.80286 -3.03244
23.175997 63.549538 0.362579
24.440023 57.893322 0.902806
23.973482 54.639217 4.943289
23.447901 51.613113 8.915195
23.050562 48.48608 12.924674
22.819685 45.32803 16.880299
16.006306 33.133785 -13.100468
23.84799 55.637146 -11.456809
24.129107 49.017929 -10.119138
24.454746 42.271545 -9.008092
27.329922 45.01899 -5.0907
26.468983 40.559093 -7.078228
25.414719 44.83984 10.268475
26.59181 43.675014 8.145424
14.557769 37.016663 -16.251987
21.075941 37.710609 -10.471559
19.998117 34.848824 -10.518187
25.733603 56.20327 -4.331831
25.933788 54.456272 -5.802798
26.215628 53.331757 -4.092022
14.55934 43.637192 -18.582399
17.163034 50.274097 -17.262556
17.076397 46.846458 -16.039871
18.148699 49.876629 -15.999745
21.20487 51.486485 -13.590063
20.123447 48.835987 -13.790211
21.206051 48.044014 -12.649862
21.207581 44.649414 -11.825382
22.258392 47.512661 -11.642811
25.75794 50.542355 2.933995
26.635607 49.058334 1.014436
26.615812 47.76823 2.809225
28.701376 41.131886 4.055698
28.521675 42.351337 2.343
16.208885 50.32951 -18.556698
24.706625 62.312469 -5.007114
21.855841 63.160736 4.335423
22.130219 64.867813 2.309407
22.860447 62.008644 2.52011
23.782919 60.824291 0.675362
23.560894 59.037178 2.768548
24.256138 56.173096 2.895938
23.213331 57.409275 4.956363
21.464985 55.419216 10.970531
22.652393 54.298683 8.803704
22.295998 52.706249 11.056684
23.304626 49.985744 10.775428
22.119396 50.978294 13.045856
16.893179 39.708092 -13.898707
15.942882 36.462589 -13.99973
16.83197 36.395668 -13.062675
24.170631 61.02132 -11.371693
23.6609 58.803326 -12.277047
24.405993 57.766575 -10.653813
25.624657 50.511749 -7.989911
24.853962 51.222992 -9.371945
25.034159 48.063473 -8.920063
24.288727 45.724792 -9.540741
25.20896 44.752117 -8.517473
27.732899 45.849308 -2.318344
27.299459 47.206047 -3.806404
27.92128 43.944172 -3.747542
27.896463 36.440971 -5.762179
27.419052 39.749889 -6.020877
26.802599 37.018089 -6.770744
25.695454 38.120605 -7.692201
19.195576 52.60083 -15.918395
21.28142 54.877392 -14.525978
22.164471 54.113285 -13.334833
25.541544 47.688591 6.624672
26.595728 46.453068 4.529945
26.637396 44.989647 6.256862
21.477766 61.522377 6.466255
22.08581 58.759026 6.923631
18.88308 39.078072 -12.118745
17.812559 35.799919 -12.104878
18.848093 35.138111 -11.249489
25.170849 58.918949 -7.917707
25.017904 56.92128 -9.05599
25.541145 55.70171 -7.372662
25.88072 52.512695 -7.047668
26.251516 49.322342 -6.706703
29.169872 39.820263 -2.44979
28.577095 40.818111 -3.642381
29.191162 37.714428 -3.693779
15.297237 43.942677 -17.320148
15.247519 40.469807 -16.144688
16.062157 43.697437 -16.119675
16.900276 43.126747 -14.943327
17.849234 42.844849 -13.937879
19.125355 49.364151 -14.855288
18.941742 45.75832 -13.874448
18.902458 42.333397 -12.931304
20.046642 41.930634 -12.006659
21.078001 41.173645 -11.157403
22.225979 40.227104 -10.253781
25.907213 53.351974 -0.747345
26.445721 51.878365 -2.456095
26.563311 50.461506 -0.655454
27.328457 47.39851 -0.724955
28.073044 44.601231 -0.691259
27.569986 44.956432 2.591153
28.338732 43.436836 0.719962
28.923843 41.594913 -0.906583
29.739634 38.807507 -1.024694
15.327348 46.926277 -18.480412
24.786156 61.96793 -8.530132
25.068977 60.671001 -6.629877
25.217356 59.31554 -4.6238
25.280773 57.793556 -2.707179
21.465738 67.59285 1.819304
22.449692 66.577461 -0.03487
23.383797 65.244812 -1.840881
24.019148 62.354603 -1.482679
24.580065 59.489479 -1.038467
25.201517 56.475124 -0.761632
25.178875 54.721115 1.029742
24.961784 53.310257 3.044455
24.77495 51.813755 4.952556
22.878527 55.92963 6.947329
23.761009 53.094528 6.795432
24.591503 50.364723 6.814883
24.462074 48.882603 8.607644
24.283264 47.46138 10.569777
24.138914 46.024681 12.534514
20.838013 52.100079 15.378165
21.866518 49.571938 15.036122
22.913879 46.960453 14.870406
24.015907 44.518509 14.575269
24.035954 42.777607 16.53027
15.205111 37.062614 -15.140425
15.278348 33.586891 -14.121778
22.976723 56.695415 -12.957232
23.104712 53.379608 -12.06764
24.643721 54.490063 -9.946038
24.046196 52.396137 -10.687588
23.201443 50.218281 -11.319223
23.297346 46.77972 -10.604115
23.365755 43.119675 -9.959093
23.448404 39.736423 -9.408023
26.766167 50.195015 -3.817081
26.838831 48.254715 -5.250027
26.653486 46.243656 -6.372164
27.841303 41.950832 -4.943255
27.026741 42.897949 -6.214925
26.161036 43.87616 -7.373199
25.472124 41.543915 -8.075027
24.567543 38.737659 -8.550353
23.47188 36.136311 -8.90751
25.940866 42.891863 11.136922
26.00258 43.591002 10.107864
25.353005 44.140702 11.297533
25.924655 42.226288 12.087843
25.940866 42.891863 11.136922
14.566479 38.785927 -16.812998
14.291104 37.097307 -16.910073
14.299815 38.866571 -17.471083
21.68076 35.435325 -9.728938
21.088606 35.851867 -10.129837
21.668095 37.294067 -10.07066
22.274703 35.103635 -9.388049
21.68076 35.435325 -9.728938
14.287752 40.547872 -18.069028
14.279827 42.088873 -18.673223
14.567265 42.096192 -17.978203
14.299815 38.866571 -17.471083
14.287752 40.547872 -18.069028
18.172629 51.578671 -16.631778
17.655867 50.075363 -16.631151
17.679797 51.777405 -17.263184
29.11836 40.392077 3.14178
29.286397 39.775979 3.921479
17.679797 51.777405 -17.263184
17.198605 51.906709 -17.904664
26.949812 35.349767 -6.637333
27.349531 36.72953 -6.266462
27.496744 35.061208 -6.13305
26.34303 35.778364 -7.06145
26.949812 35.349767 -6.637333
21.691188 56.238153 -14.442685
21.250951 56.511202 -15.077025
21.660719 57.871963 -14.993731
27.152363 43.070486 7.069031
27.204534 42.387794 7.956201
20.875036 62.031126 7.534798
21.117948 62.864612 6.360516
21.239556 60.706766 7.621668
20.875036 62.031126 7.534798
14.431401 32.309995 -15.389632
14.3579 33.804845 -15.872981
14.689357 32.18401 -14.796616
14.431401 32.309995 -15.389632
19.446275 33.288684 -10.526179
19.977304 32.936818 -10.177843
24.468122 64.389568 -8.142092
24.322804 65.254768 -7.403977
24.682156 62.90256 -7.817322
24.572121 63.454939 -8.854902
24.468122 64.389568 -8.142092
21.296326 66.767013 2.931641
20.912488 68.186039 2.698694
20.784492 51.163601 16.380292
20.281742 52.509912 16.422167
21.298745 49.89953 16.209271
21.352266 50.836009 15.207144
20.784492 51.163601 16.380292
22.866782 46.144241 15.875352
22.351574 47.381882 15.934913
22.304476 46.56567 16.93986
24.68011 41.581906 16.268874
24.018251 41.960154 17.516147
24.666951 42.370058 15.3328
24.68011 41.581906 16.268874
15.680982 31.679032 -13.198871
15.317003 31.905585 -13.709526
15.642327 33.360338 -13.611123
17.324338 34.205815 -12.137429
17.82805 34.045895 -11.708842
24.651229 36.984222 -8.325038
25.131498 38.429132 -8.121277
25.215184 36.675695 -7.895962
24.103397 35.683548 -8.503616
24.019711 37.436985 -8.728931
24.651229 36.984222 -8.325038
23.567701 34.398463 -8.636978
24.103397 35.683548 -8.503616
22.058228 59.185857 -14.856272
21.660719 57.871963 -14.993731
26.591125 43.008589 9.046339
26.003265 44.257427 9.20695
26.00258 43.591002 10.107864
27.204534 42.387794 7.956201
26.591125 43.008589 9.046339
14.319786 35.396679 -16.375355
14.291104 37.097307 -16.910073
14.595883 35.42483 -15.749613
14.3579 33.804845 -15.872981
14.319786 35.396679 -16.375355
20.549694 34.420975 -10.153151
20.537029 36.279716 -10.494873
21.088606 35.851867 -10.129837
19.977304 32.936818 -10.177843
20.549694 34.420975 -10.153151
29.898537 35.840852 -2.982044
30.320782 35.372156 -2.414296
14.280064 43.635399 -19.280499
14.58532 45.190782 -19.185072
14.280064 43.635399 -19.280499
14.279827 42.088873 -18.673223
29.028509 41.001802 2.285431
28.611525 41.741612 3.199349
29.11836 40.392077 3.14178
29.363617 40.24555 1.448313
28.856783 41.595085 1.505882
29.028509 41.001802 2.285431
29.688768 39.397175 0.576781
29.363617 40.24555 1.448313
16.72153 51.934416 -18.551735
16.260927 51.916314 -19.19573
16.685959 50.301803 -17.909627
16.72153 51.934416 -18.551735
17.198605 51.906709 -17.904664
24.355951 64.62574 -6.327547
24.322804 65.254768 -7.403977
24.420185 63.86338 -5.278849
24.642391 63.074829 -6.055813
24.355951 64.62574 -6.327547
24.41386 63.100572 -4.238733
24.420185 63.86338 -5.278849
24.419581 62.345768 -3.251396
24.712346 61.557665 -4.019777
24.41386 63.100572 -4.238733
21.99303 64.014274 3.322415
21.628566 65.404495 3.176693
21.491377 64.550956 4.1897
22.244799 45.6726 18.025588
22.304476 46.56567 16.93986
23.915765 59.912323 -11.82437
23.55285 60.441168 -12.724656
23.807715 61.550165 -12.271978
25.789458 36.329622 -7.522178
26.249026 37.569347 -7.231472
26.34303 35.778364 -7.06145
25.215184 36.675695 -7.895962
25.789458 36.329622 -7.522178
19.234901 54.27928 -16.511413
18.696068 52.940771 -16.591103
19.723107 54.00359 -15.867948
19.234901 54.27928 -16.511413
20.236139 53.86376 -15.304971
19.708608 52.461 -15.355418
19.723107 54.00359 -15.867948
20.766029 55.14187 -15.17174
21.250951 56.511202 -15.077025
20.75153 53.599282 -14.659209
20.236139 53.86376 -15.304971
20.766029 55.14187 -15.17174
27.175156 43.727802 6.12475
26.614603 44.33233 7.201143
27.152363 43.070486 7.069031
27.663164 43.142971 5.12091
27.125403 44.404815 5.253022
27.175156 43.727802 6.12475
28.207147 41.798922 5.024169
28.157393 42.475935 4.15244
27.663164 43.142971 5.12091
28.772391 40.557246 4.883327
28.207147 41.798922 5.024169
29.286397 39.775979 3.921479
28.772391 40.557246 4.883327
21.306986 63.683792 5.2951
21.491377 64.550956 4.1897
21.666804 62.341556 5.400839
21.306986 63.683792 5.2951
21.117948 62.864612 6.360516
21.543578 59.325091 7.850356
21.781788 60.140701 6.694943
21.239556 60.706766 7.621668
21.378478 58.475054 8.879547
21.92071 57.908989 7.952822
21.543578 59.325091 7.850356
21.210389 57.536169 9.971079
21.378478 58.475054 8.879547
21.065077 56.716301 10.965338
21.610298 56.239084 9.976272
21.210389 57.536169 9.971079
20.864495 55.958862 12.044524
21.065077 56.716301 10.965338
20.713975 55.104546 13.131934
21.314464 54.564899 12.057941
20.864495 55.958862 12.044524
18.345817 33.71499 -11.281147
17.82805 34.045895 -11.708842
18.330326 35.469015 -11.677183
18.871263 33.433328 -10.891831
19.423105 34.993468 -10.883838
19.446275 33.288684 -10.526179
18.345817 33.71499 -11.281147
18.871263 33.433328 -10.891831
29.51166 36.303325 -3.628655
29.57804 37.251955 -3.047168
29.898537 35.840852 -2.982044
29.04549 36.589018 -4.21915
29.51166 36.303325 -3.628655
28.622314 37.173186 -4.795301
28.767986 38.298595 -4.269931
29.04549 36.589018 -4.21915
28.398141 35.952289 -5.253349
28.120636 37.661867 -5.30413
28.622314 37.173186 -4.795301
28.089236 34.787077 -5.677682
28.398141 35.952289 -5.253349
27.496744 35.061208 -6.13305
28.089236 34.787077 -5.677682
18.672137 51.23873 -15.95907
18.172629 51.578671 -16.631778
18.696068 52.940771 -16.591103
29.96264 38.381512 -0.269948
29.465762 39.82317 -0.177965
29.688768 39.397175 0.576781
30.169343 37.401154 -1.043978
29.96264 38.381512 -0.269948
30.281985 36.392142 -1.731909
29.852276 37.798495 -1.712625
30.169343 37.401154 -1.043978
30.320782 35.372156 -2.414296
30.281985 36.392142 -1.731909
15.805943 50.278334 -19.183217
16.260927 51.916314 -19.19573
15.365175 48.576718 -19.145074
15.805943 50.278334 -19.183217
15.768116 48.627893 -18.518555
14.969324 46.835325 -19.134079
15.00715 48.485765 -19.798741
15.365175 48.576718 -19.145074
14.943344 45.281734 -18.531405
14.58532 45.190782 -19.185072
14.969324 46.835325 -19.134079
24.001587 62.563315 -11.82093
23.807715 61.550165 -12.271978
24.274043 62.122595 -10.873507
24.001587 62.563315 -11.82093
24.560611 61.560623 -10.005179
24.457199 60.459349 -10.503365
24.274043 62.122595 -10.873507
24.581806 62.5959 -9.452727
24.572121 63.454939 -8.854902
24.764961 60.932654 -9.082584
24.560611 61.560623 -10.005179
24.581806 62.5959 -9.452727
21.038886 69.072586 1.569383
20.912488 68.186039 2.698694
21.598095 68.504146 0.606875
21.171244 69.983882 0.356953
21.038886 69.072586 1.569383
21.797978 66.230332 2.064356
21.296326 66.767013 2.931641
21.628566 65.404495 3.176693
22.090072 67.996452 -0.320212
21.598095 68.504146 0.606875
21.957715 67.085155 0.892217
22.588045 67.319683 -1.189765
22.090072 67.996452 -0.320212
23.055098 66.653358 -2.092771
22.588045 67.319683 -1.189765
22.916745 65.911136 -0.937875
23.442448 66.072689 -2.955154
23.055098 66.653358 -2.092771
23.752447 64.566744 -2.655616
23.442448 66.072689 -2.955154
24.070122 63.12164 -2.476516
23.752447 64.566744 -2.655616
23.701473 63.799707 -1.66178
24.368608 61.578732 -2.25756
24.419581 62.345768 -3.251396
24.070122 63.12164 -2.476516
20.596442 54.187736 14.175175
20.713975 55.104546 13.131934
20.433476 53.382485 15.291583
20.281742 52.509912 16.422167
21.000979 52.905331 14.261758
20.596442 54.187736 14.175175
20.433476 53.382485 15.291583
21.827893 48.687624 16.017771
21.298745 49.89953 16.209271
22.390199 48.266196 14.953264
21.827893 48.687624 16.017771
22.351574 47.381882 15.934913
22.78251 44.44182 17.947529
22.244799 45.6726 18.025588
23.390645 43.166609 17.772514
24.018251 41.960154 17.516147
23.427819 44.052819 16.705285
22.78251 44.44182 17.947529
23.390645 43.166609 17.772514
24.656928 43.240509 14.3553
24.025931 43.648058 15.55277
24.666951 42.370058 15.3328
25.294619 42.702036 13.230961
24.653599 43.980036 13.45093
24.656928 43.240509 14.3553
25.924655 42.226288 12.087843
25.294619 42.702036 13.230961
15.011533 32.060957 -14.233885
14.689357 32.18401 -14.796616
14.956172 33.709944 -14.684509
15.050189 30.379651 -13.821634
15.011533 32.060957 -14.233885
15.317003 31.905585 -13.709526
16.834043 34.503689 -12.616328
17.322264 36.097794 -12.583776
17.324338 34.205815 -12.137429
16.421211 32.872748 -12.635224
16.419138 34.764727 -13.081571
16.834043 34.503689 -12.616328
16.016101 31.376578 -12.725793
16.421211 32.872748 -12.635224
15.680982 31.679032 -13.198871
16.016101 31.376578 -12.725793
22.471363 58.756223 -14.119819
22.058228 59.185857 -14.856272
23.251335 59.358429 -13.078647
23.55285 60.441168 -12.724656
22.909247 58.304474 -13.41874
23.251335 59.358429 -13.078647
23.318812 57.74937 -12.61714
22.53884 57.147165 -13.658311
22.471363 58.756223 -14.119819
22.909247 58.304474 -13.41874
22.880518 34.733029 -9.006923
22.274703 35.103635 -9.388049
22.866065 36.506918 -9.288635
22.880518 34.733029 -9.006923
23.567701 34.398463 -8.636978
3 0 184 186
3 186 185 47
3 184 185 186
3 0 187 188
3 2 189 191
3 189 49 190
3 189 190 191
3 3 192 194
3 194 193 50
3 192 193 194
3 3 195 196
3 1 54 52
3 2 197 199
3 199 198 55
3 197 198 199
3 2 200 201
3 202 58 203
3 204 203 56
3 202 203 204
3 5 61 59
3 5 63 61
3 6 66 64
3 206 205 67
3 207 56 208
3 9 73 71
3 9 75 73
3 9 77 75
3 10 80 78
3 10 82 80
3 4 85 83
3 8 88 86
3 11 91 89
3 11 93 91
3 7 96 94
3 209 99 210
3 211 210 97
3 209 210 211
3 213 212 99
3 13 214 216
3 214 102 215
3 214 215 216
3 13 103 102
3 14 106 104
3 218 217 48
3 219 107 220
3 222 221 107
3 17 223 224
3 17 225 226
3 18 111 109
3 228 227 51
3 19 114 112
3 21 115 53
3 21 116 115
3 22 119 117
3 24 122 120
3 26 123 57
3 26 124 123
3 12 125 101
3 27 126 60
3 27 127 126
3 27 128 127
3 28 129 62
3 28 130 129
3 29 133 131
3 31 134 65
3 31 135 134
3 15 136 105
3 32 137 68
3 32 138 137
3 32 139 138
3 24 140 69
3 24 120 140
3 33 229 230
3 33 231 233
3 231 141 232
3 231 232 233
3 33 142 141
3 34 143 70
3 34 144 143
3 234 145 235
3 35 146 72
3 35 147 146
3 35 148 147
3 36 149 74
3 36 150 149
3 36 151 150
3 37 152 76
3 37 153 152
3 16 154 108
3 38 155 79
3 38 156 155
3 38 157 156
3 39 158 81
3 39 159 158
3 236 160 237
3 238 161 239
3 240 239 160
3 238 239 240
3 40 241 243
3 241 162 242
3 241 242 243
3 40 163 162
3 244 164 245
3 247 246 164
3 25 165 121
3 41 166 84
3 41 248 250
3 250 249 166
3 248 249 250
3 252 251 110
3 42 167 87
3 42 168 167
3 20 169 113
3 43 170 90
3 43 171 170
3 43 172 171
3 44 173 92
3 44 174 173
3 30 175 132
3 45 176 95
3 45 177 176
3 23 178 118
3 46 179 98
3 46 180 179
3 46 181 180
3 253 182 254
3 255 254 100
3 253 254 255
3 256 183 257
3 258 257 182
3 256 257 258
3 260 259 183
3 261 13 262
3 47 48 14
3 263 48 264
3 265 264 47
3 263 264 265
3 267 266 48
3 49 268 269
3 49 270 272
3 270 17 271
3 270 271 272
3 50 51 18
3 273 51 274
3 275 274 50
3 273 274 275
3 277 276 51
3 52 53 19
3 54 53 52
3 54 21 53
3 279 278 22
3 55 280 281
3 283 282 55
3 56 57 24
3 58 57 56
3 58 26 57
3 59 60 12
3 61 60 59
3 61 27 60
3 61 62 27
3 63 62 61
3 63 28 62
3 64 65 29
3 66 65 64
3 66 31 65
3 67 68 15
3 284 68 285
3 286 285 67
3 284 285 286
3 287 32 288
3 289 288 68
3 287 288 289
3 291 290 32
3 292 69 293
3 56 294 296
3 294 69 295
3 294 295 296
3 56 24 69
3 297 33 298
3 299 70 300
3 301 300 33
3 299 300 301
3 302 70 303
3 304 34 305
3 306 305 70
3 304 305 306
3 71 307 309
3 307 72 308
3 307 308 309
3 73 72 71
3 73 35 72
3 73 74 35
3 75 74 73
3 75 36 74
3 75 76 36
3 77 76 75
3 77 37 76
3 78 79 16
3 80 79 78
3 80 38 79
3 80 81 38
3 82 81 80
3 82 39 81
3 310 40 311
3 83 84 25
3 85 84 83
3 85 41 84
3 86 312 314
3 312 87 313
3 312 313 314
3 88 87 86
3 88 42 87
3 89 90 20
3 91 90 89
3 91 43 90
3 91 92 43
3 93 92 91
3 93 44 92
3 94 95 30
3 96 95 94
3 96 45 95
3 97 98 23
3 99 98 97
3 99 46 98
3 99 100 46
3 315 100 316
3 317 316 99
3 315 316 317
3 319 318 100
3 320 101 321
3 322 101 323
3 324 12 325
3 326 325 101
3 324 325 326
3 102 327 328
3 102 329 331
3 329 12 330
3 329 330 331
3 102 59 12
3 103 59 102
3 103 5 59
3 104 105 6
3 106 105 104
3 106 15 105
3 48 106 14
3 332 106 333
3 334 333 48
3 332 333 334
3 335 15 336
3 337 336 106
3 335 336 337
3 338 67 339
3 340 339 15
3 338 339 340
3 341 67 342
3 344 343 67
3 345 71 346
3 107 347 349
3 347 71 348
3 347 348 349
3 107 9 71
3 107 108 9
3 350 108 351
3 352 351 107
3 350 351 352
3 353 16 354
3 355 354 108
3 353 354 355
3 356 16 357
3 358 78 359
3 360 359 16
3 358 359 360
3 361 78 362
3 363 10 364
3 365 364 78
3 363 364 365
3 109 110 4
3 111 110 109
3 111 366 368
3 368 367 110
3 366 367 368
3 51 111 18
3 369 111 370
3 371 370 51
3 369 370 371
3 373 372 111
3 112 113 8
3 114 113 112
3 114 20 113
3 53 114 19
3 115 114 53
3 115 20 114
3 115 89 20
3 116 89 115
3 116 11 89
3 117 118 7
3 119 118 117
3 119 23 118
3 374 119 375
3 376 375 22
3 374 375 376
3 377 119 378
3 379 23 380
3 381 380 119
3 379 380 381
3 382 97 383
3 384 383 23
3 382 383 384
3 385 97 386
3 388 387 97
3 120 121 2
3 122 121 120
3 122 25 121
3 57 122 24
3 123 122 57
3 123 25 122
3 123 83 25
3 124 83 123
3 124 4 83
3 101 389 391
3 389 58 390
3 389 390 391
3 125 58 101
3 125 26 58
3 60 125 12
3 126 125 60
3 126 26 125
3 126 124 26
3 127 124 126
3 127 4 124
3 127 109 4
3 128 109 127
3 128 18 109
3 62 128 27
3 129 128 62
3 129 18 128
3 129 50 18
3 130 50 129
3 130 3 50
3 131 132 1
3 133 132 131
3 133 30 132
3 65 133 29
3 134 133 65
3 134 30 133
3 134 94 30
3 135 94 134
3 135 7 94
3 105 66 6
3 136 66 105
3 136 31 66
3 68 136 15
3 137 136 68
3 137 31 136
3 137 135 31
3 138 135 137
3 138 7 135
3 138 117 7
3 139 117 138
3 139 22 117
3 392 139 393
3 394 393 32
3 392 393 394
3 395 139 396
3 397 22 398
3 399 398 139
3 397 398 399
3 401 400 22
3 69 402 403
3 140 404 406
3 406 405 69
3 404 405 406
3 140 407 409
3 407 408 409
3 140 410 412
3 410 55 411
3 410 411 412
3 120 55 140
3 120 2 55
3 413 86 414
3 415 86 416
3 417 8 418
3 419 418 86
3 417 418 419
3 141 420 421
3 141 422 424
3 422 8 423
3 422 423 424
3 141 112 8
3 142 112 141
3 142 19 112
3 70 142 33
3 143 142 70
3 143 19 142
3 143 52 19
3 144 52 143
3 144 1 52
3 145 425 426
3 145 427 429
3 427 428 429
3 72 430 432
3 430 145 431
3 430 431 432
3 146 145 72
3 146 433 435
3 435 434 145
3 433 434 435
3 146 436 437
3 147 438 440
3 440 439 146
3 438 439 440
3 147 441 442
3 147 443 444
3 148 445 447
3 447 446 147
3 445 446 447
3 148 448 450
3 448 34 449
3 448 449 450
3 74 148 35
3 149 148 74
3 149 34 148
3 149 144 34
3 150 144 149
3 150 1 144
3 150 131 1
3 151 131 150
3 151 29 131
3 76 151 36
3 152 151 76
3 152 29 151
3 152 64 29
3 153 64 152
3 153 6 64
3 108 77 9
3 154 77 108
3 154 37 77
3 79 154 16
3 155 154 79
3 155 37 154
3 155 153 37
3 156 153 155
3 156 6 153
3 156 104 6
3 157 104 156
3 157 14 104
3 81 157 38
3 158 157 81
3 158 14 157
3 158 47 14
3 159 47 158
3 159 0 47
3 451 10 452
3 160 453 454
3 160 455 457
3 455 10 456
3 455 456 457
3 160 82 10
3 161 82 160
3 161 39 82
3 458 161 459
3 162 460 462
3 460 161 461
3 460 461 462
3 162 39 161
3 162 159 39
3 163 159 162
3 163 0 159
3 463 40 464
3 164 465 466
3 164 467 469
3 467 40 468
3 467 468 469
3 164 163 40
3 470 163 471
3 472 471 164
3 470 471 472
3 473 0 474
3 475 474 163
3 473 474 475
3 477 476 0
3 121 49 2
3 165 49 121
3 165 17 49
3 84 165 25
3 166 165 84
3 166 17 165
3 166 478 480
3 480 479 17
3 478 479 480
3 483 482 166
3 481 482 483
3 110 85 4
3 484 85 485
3 486 485 110
3 484 485 486
3 487 41 488
3 489 488 85
3 487 488 489
3 490 41 491
3 493 492 41
3 494 13 495
3 87 496 497
3 167 498 500
3 500 499 87
3 498 499 500
3 167 501 503
3 501 13 502
3 501 502 503
3 167 103 13
3 168 103 167
3 168 5 103
3 113 88 8
3 169 88 113
3 169 42 88
3 90 169 20
3 170 169 90
3 170 42 169
3 170 168 42
3 171 168 170
3 171 5 168
3 171 63 5
3 172 63 171
3 172 28 63
3 92 172 43
3 173 172 92
3 173 28 172
3 173 130 28
3 174 130 173
3 174 3 130
3 132 54 1
3 175 54 132
3 175 21 54
3 95 175 30
3 176 175 95
3 176 21 175
3 176 116 21
3 177 116 176
3 177 11 116
3 118 96 7
3 178 96 118
3 178 45 96
3 98 178 23
3 179 178 98
3 179 45 178
3 179 177 45
3 180 177 179
3 180 11 177
3 180 93 11
3 181 93 180
3 181 44 93
3 100 181 46
3 182 181 100
3 182 44 181
3 182 174 44
3 183 174 182
3 183 3 174
3 183 504 506
3 506 505 3
3 504 505 506
3 508 507 183
