ply
format ascii 1.0
element vertex 991
property float x
property float y
property float z
element face 1289
property list uchar int vertex_index
end_header
38.766216 -22.581221 11.36142
13.987062 -31.798193 40.980679
26.576248 -34.845402 32.674641
31.200109 -9.470311 2.799803
38.945908 -7.819839 16.255924
36.076595 -20.651478 28.332035
36.261192 -36.636971 18.116011
15.312548 -39.999348 37.708939
35.711483 -11.526642 29.877764
31.203585 -18.454273 34.113094
32.606537 -36.465221 26.59214
35.688683 -16.099583 7.158749
32.872856 -14.245028 -0.198012
37.520035 -20.652073 2.194935
39.261776 -27.58552 4.995993
19.239538 -24.575916 40.185799
25.560316 -25.642982 36.04958
20.050056 -32.966789 36.71167
27.088085 -1.158599 -1.198447
32.998184 -1.564164 3.360689
35.7878 -9.424891 9.080898
38.208801 -16.130535 15.1835
38.79641 -5.076818 23.140644
38.530899 -14.04398 23.067318
38.665218 -22.508972 20.44525
31.713572 -27.685732 31.301487
36.55138 -29.317961 24.142368
38.831509 -29.493685 15.213255
37.775513 -34.81139 7.939837
27.312773 -7.615458 -2.496353
30.888863 -13.904076 34.95116
28.285275 -17.564402 36.450485
37.528248 -19.277847 9.317506
36.502274 -18.60014 5.094601
38.243729 -21.913918 6.814953
38.865883 -24.191956 3.531689
39.153309 -25.218908 8.34499
16.480505 -28.304098 40.544369
19.451981 -28.690329 38.419613
16.863537 -32.222912 38.736675
38.654209 -4.304078 12.584405
36.821781 -5.21656 9.288454
37.69585 -8.889683 12.637546
37.150036 -12.804285 12.183049
38.375916 -12.095333 15.889577
37.320824 -3.675751 26.452229
35.900154 -16.097446 29.384453
37.534569 -12.759953 26.590254
37.586395 -17.388609 25.96023
38.534824 -18.436743 22.115524
37.716724 -21.785332 24.606779
26.023397 -30.174618 34.413239
28.777117 -26.646996 33.825596
29.25705 -31.139803 32.079056
34.734112 -36.652012 22.770775
34.684761 -32.892376 25.578566
36.573269 -33.080791 21.424831
37.981461 -29.688328 19.782097
37.774391 -33.066753 16.775806
38.495647 -32.436893 11.716951
37.215153 -36.01004 13.128543
28.948654 -5.515916 0.69325
26.596697 -4.785892 -1.589813
29.097589 -8.859453 0.043888
14.558175 -35.640137 39.182461
39.701321 -3.108794 16.091404
35.4506 -6.958923 29.90601
33.329311 -10.23651 32.731285
33.569839 -14.934897 32.386402
33.812996 -19.507479 31.507029
27.351994 -39.359825 30.705206
29.790962 -35.795162 29.976257
30.26046 -40.062946 27.59371
34.40773 -40.078697 19.453417
35.478424 -39.654533 14.501404
23.337385 -2.154346 -6.094872
33.540459 -12.99951 4.96361
31.589365 -12.18079 1.587435
34.271439 -15.51045 3.398383
35.544403 -17.517063 0.938881
38.408882 -22.379908 -1.361261
39.100502 -26.059738 -0.022843
38.914364 -29.626381 1.357064
25.356804 -21.423334 37.428299
22.304434 -25.039219 38.072327
22.709677 -29.340834 36.427803
23.296684 -33.980328 34.77351
17.570978 -36.502602 37.111382
20.816473 -37.463379 35.190189
24.129965 -38.427402 33.163155
29.908033 -1.441556 0.850272
31.657686 -5.744719 3.254996
35.831001 -1.167922 6.095695
34.388554 -5.729676 6.148092
33.605072 -9.759936 5.907718
35.444199 -13.19312 8.483019
37.115028 -16.458595 11.028318
38.350052 -19.477209 13.623888
39.750164 -1.982534 19.446928
39.331604 -6.453826 19.832289
37.419594 -8.181157 26.79077
38.624672 -9.635056 23.386364
38.939919 -11.015186 19.858425
38.721561 -15.286298 19.16494
38.744862 -19.077911 17.925116
38.966675 -22.739258 15.835244
28.436214 -22.221415 35.294109
31.343056 -23.173695 32.949837
34.166634 -24.04501 30.001387
32.212666 -32.172337 29.148346
34.364117 -28.661879 28.123806
36.299271 -25.114038 26.611439
37.894089 -25.833654 22.541046
38.840721 -26.154871 17.988253
39.213024 -26.000933 13.293904
39.221519 -28.862436 10.248365
38.816212 -31.311802 6.494578
36.212406 -38.504616 9.459366
36.623726 -37.019833 4.198556
24.538118 -0.401967 -3.134582
24.645819 -3.610777 -3.826251
26.013191 -6.003912 -5.181726
30.083166 -11.06216 -1.414209
28.889065 -9.394645 -4.435842
28.013004 -15.349942 37.016785
26.697477 -17.263609 37.601738
38.221169 -20.880171 10.302936
37.887508 -20.670935 8.170098
38.551796 -22.356474 9.077684
38.823254 -23.631927 7.634671
38.987946 -23.980759 9.978746
15.186319 -29.972736 40.80201
16.637838 -30.169147 39.64027
15.338911 -31.932051 39.87112
38.845211 -6.061475 14.4444
38.164898 -6.567317 12.686192
38.414509 -8.310732 14.391503
38.091167 -10.510106 14.332631
38.616863 -10.10103 16.136883
35.965481 -18.372618 28.967901
36.777763 -16.750849 27.830156
36.912445 -18.983231 27.199076
37.656384 -19.656946 25.326317
37.008064 -21.260544 26.479818
26.381815 -32.54707 33.489372
27.674465 -30.73171 33.26828
27.986074 -33.145348 32.297108
35.550999 -36.711376 20.59383
35.705276 -34.869858 22.094826
36.4566 -34.968548 19.812952
37.22451 -33.140007 19.222664
37.073284 -34.896317 17.38098
37.583584 -34.539696 14.928283
36.802681 -36.38821 15.663866
30.042128 -7.529512 1.723456
28.852932 -7.266866 0.418169
30.049597 -9.160564 1.349257
39.727001 -1.548703 14.196312
40.043327 -0.959059 15.948065
31.031517 -16.279995 34.585114
32.379368 -14.357775 33.605843
32.375004 -16.629536 33.380451
33.687405 -17.188047 32.019676
32.514622 -19.030685 32.878071
28.867073 -39.716473 29.249926
33.529343 -40.355568 21.766218
34.045021 -41.648487 17.744829
34.597965 -14.53118 5.980788
33.775177 -14.327919 4.152181
34.995167 -15.913502 5.250151
37.0294 -19.711012 3.728611
36.009415 -18.131071 2.953403
36.623131 -19.084919 1.413575
37.236782 -19.971041 -0.11782
38.029102 -21.631163 0.61812
39.177876 -25.952135 4.252406
39.028732 -25.065567 1.727086
39.191456 -26.940674 2.363399
39.090614 -27.882545 0.491024
39.144062 -28.707151 3.269231
22.299282 -22.925663 38.816612
20.733738 -24.772467 39.116859
19.622189 -30.808903 37.594891
21.03709 -29.016983 37.415638
21.322657 -31.084257 36.607861
23.036493 -31.608992 35.575108
21.699722 -33.40416 35.7472
14.88756 -37.792576 38.411522
16.029854 -36.084202 38.105038
16.421452 -38.24818 37.378483
19.528179 -39.281391 35.48513
21.23838 -39.812305 34.470901
22.473019 -38.090431 34.176815
22.863764 -40.298271 33.46035
24.521744 -40.705002 32.339565
32.39323 0.901332 2.032899
30.78701 0.964791 0.828085
31.502377 -1.545696 2.095177
30.732576 -3.753663 2.028727
32.263264 -3.841157 3.394451
37.069927 -0.832405 7.557102
36.25042 -7.293064 9.213516
35.66082 -5.395408 7.640886
35.06863 -7.661708 7.569407
33.82225 -7.682422 5.961325
34.67244 -9.58359 7.393773
34.483902 -11.519187 7.115443
35.529255 -11.341099 8.871171
37.700554 -14.523726 13.611208
37.061886 -14.737959 11.691526
37.6744 -16.2633 12.981104
37.81028 -18.037434 12.297953
38.207527 -17.781675 14.352335
38.782658 -2.924424 23.144463
39.307339 -3.564208 21.339325
39.552769 -4.186754 19.633673
39.180798 -5.798691 21.454426
35.637115 -9.295837 29.880209
36.559643 -7.509757 28.308546
36.643063 -9.892589 28.357651
38.137447 -13.500573 24.842899
38.109192 -11.114757 25.124498
38.552647 -11.945884 23.345957
38.89048 -10.308393 21.647802
38.798019 -12.504244 21.394291
38.800026 -13.320929 19.638405
38.719547 -14.74004 21.257984
38.59956 -20.493134 21.290966
38.732243 -18.804087 20.018343
38.80085 -20.771013 19.119158
38.834789 -20.990992 16.989529
38.896198 -22.736053 18.166807
25.41136 -23.473927 36.791573
26.962364 -21.670391 36.375732
27.010477 -23.963711 35.707527
30.315571 -27.07534 32.622311
30.181332 -24.940992 33.356388
31.684958 -25.321306 32.065338
32.866901 -23.606684 31.489525
33.042255 -25.956345 30.618311
31.265676 -36.179523 28.371592
30.995792 -34.00779 29.595716
32.335846 -34.36319 28.03129
35.688225 -31.01285 24.90947
34.540821 -30.874353 26.878134
35.506172 -28.986784 26.295168
35.455025 -26.813988 27.337948
36.421822 -27.314631 25.447775
37.209911 -25.466599 24.588924
37.254601 -27.434322 23.534327
38.456173 -29.621235 17.638187
38.478157 -27.884886 19.022499
38.85812 -27.967747 16.645266
39.091763 -26.184994 15.589038
39.117748 -27.840607 14.212956
39.259785 -27.433975 11.877712
39.07383 -29.296629 12.74074
38.184536 -33.683262 9.855011
38.699863 -31.929962 9.028061
38.345345 -33.101994 7.169342
38.466488 -32.342644 4.589702
34.937828 -41.000256 12.670247
35.942551 -39.023914 11.957237
35.337772 -40.29361 10.044924
35.785599 -38.87582 4.696416
36.021534 -37.913765 2.276955
36.786949 -36.084011 1.570694
26.236597 1.295082 -2.145058
24.870405 1.63735 -3.040499
25.752701 -0.83113 -2.185918
26.78105 -6.240563 -1.963985
25.607763 -4.326816 -2.676103
25.948631 -5.71925 -3.201591
25.222698 -4.96742 -4.345128
26.619293 -6.903749 -3.809939
32.256557 -13.396688 0.906861
30.848818 -11.75307 0.082574
31.564018 -12.756776 -0.827969
29.424324 -13.47924 36.167625
29.609602 -15.763147 35.773792
29.699263 -18.114546 35.336185
36.670338 -17.686363 8.245311
36.044502 -17.413607 6.221987
37.029179 -19.00457 7.188686
37.449455 -20.211632 5.945671
37.883034 -21.327885 4.518665
38.301662 -22.387978 2.870424
38.570026 -23.046827 5.221735
39.022858 -24.742945 5.920394
39.264973 -26.527399 6.85752
17.779737 -26.484392 40.395649
19.348295 -26.683674 39.248199
18.005878 -28.379196 39.436977
18.110441 -30.558849 38.546345
18.473246 -32.706196 37.632492
16.774635 -40.431671 36.776669
33.888168 0.754244 3.333774
38.409847 -2.534293 10.832504
37.497189 -3.046032 9.355732
37.823395 -4.950696 10.999256
37.281315 -7.068265 10.951294
36.787876 -9.093563 10.760617
36.535145 -11.131705 10.7171
37.371082 -10.841258 12.485431
37.829258 -12.560001 14.021667
38.227909 -14.100849 15.564597
38.167236 -4.328773 24.823301
35.812717 -13.92781 29.690279
36.688583 -12.252232 28.324415
36.786762 -14.438566 28.057789
37.514332 -15.122728 26.452759
38.119419 -15.687 24.615988
38.501205 -16.25515 22.771931
38.126404 -17.911213 24.207748
38.202347 -20.122744 23.439199
38.289436 -22.139477 22.543779
25.772686 -27.971436 35.220383
27.183764 -26.171164 34.956284
27.462498 -28.455866 34.102104
29.099552 -28.89398 32.919868
30.555868 -29.496696 31.656706
33.764671 -36.670921 24.66964
33.654827 -34.673237 26.138134
34.711239 -34.877838 24.247679
35.660717 -33.089561 23.629541
36.571941 -31.332287 22.816696
37.328995 -29.521881 22.082476
37.334839 -31.317919 20.688334
37.898643 -31.431118 18.416174
38.401703 -31.197266 15.939919
38.719219 -31.005802 13.544765
38.199341 -32.775982 14.34951
37.930031 -34.147507 12.604197
37.553169 -35.429546 10.566282
27.985928 -3.512352 -0.249628
26.669008 -3.058315 -1.359213
27.702845 -5.306517 -0.502575
27.789053 -6.859637 -0.784133
28.072483 -8.140725 -1.245636
33.676079 -15.017994 -1.527719
32.385506 -13.5397 -2.06269
14.254022 -33.641109 40.047352
39.178867 -2.013075 12.460893
39.293644 -3.719681 14.315279
39.310135 -5.534596 16.261997
34.444695 -8.590429 31.368855
34.511032 -10.859467 31.429171
32.192974 -12.173218 33.87899
33.520573 -12.568441 32.556362
34.740925 -13.169407 31.153397
34.792896 -15.598151 30.938808
34.869747 -17.979706 30.548382
35.022251 -20.223906 29.939941
27.03953 -37.135147 31.66231
28.212925 -35.439899 31.375671
28.62369 -37.623306 30.284468
30.097157 -37.984341 28.777433
31.362745 -38.179073 27.255095
32.687759 -38.40012 25.240002
33.712559 -38.502972 23.285553
34.613544 -38.452858 21.165054
35.400089 -38.322079 18.726345
35.90815 -38.243076 16.352638
34.997124 -39.986233 16.963633
34.547169 -41.387844 15.257518
32.382736 -11.299597 3.888986
31.366171 -11.063798 2.338961
32.570992 -12.70157 3.249016
32.972843 -13.893157 2.492497
33.598473 -14.994964 1.623011
35.426258 -17.043583 4.213107
34.816689 -16.51 2.268439
34.249893 -15.858527 0.266155
38.658672 -23.387068 1.045421
38.878185 -24.229221 -0.833295
25.249298 -19.155815 38.121796
23.728466 -21.095573 38.531815
23.87488 -23.207064 37.768883
23.945528 -25.310078 37.053116
20.959993 -26.964294 38.168594
22.555292 -27.223562 37.191261
24.120596 -27.461843 36.273499
24.361128 -29.708494 35.453709
24.75946 -32.011108 34.558311
24.913034 -34.373871 33.795067
15.706707 -34.048843 38.884552
17.247265 -34.352947 37.847401
18.795759 -34.818424 36.86507
17.974737 -38.652821 36.431816
19.060722 -36.940807 36.214645
20.36759 -35.251957 35.941578
21.991611 -35.785641 34.979374
23.620903 -36.25211 34.001213
25.384773 -36.611649 32.891964
25.750523 -38.943924 32.003899
26.202806 -41.267654 30.977552
27.610588 1.057697 -1.258756
29.132748 0.963836 -0.280491
28.412109 -1.439984 -0.223123
29.317749 -3.723047 0.853246
30.267679 -5.705458 1.929797
31.364119 -7.722754 3.158725
34.509418 -1.429938 4.748814
36.392445 -3.178347 7.7136
35.098541 -3.503428 6.197574
33.652554 -3.750716 4.710114
33.07336 -5.913497 4.725661
32.598072 -7.843662 4.543016
32.435707 -9.658294 4.369891
33.452827 -11.48678 5.502007
34.431271 -13.109122 6.596252
35.455261 -14.740139 7.80905
36.377048 -13.053329 10.405742
36.327896 -14.81446 9.804356
36.430302 -16.337648 9.069024
37.247253 -17.864061 10.210531
37.96582 -19.456848 11.371692
38.515617 -21.028788 12.47435
15.038507 -28.108387 41.811348
13.833439 -29.843397 42.021461
40.099205 -0.332428 17.674252
39.835945 -2.624149 17.813074
39.533897 -4.966807 18.025185
39.255688 -7.183044 18.122614
36.412807 -5.318897 28.25939
37.376614 -5.810741 26.65959
38.134933 -6.599848 25.063169
37.456585 -10.478143 26.808674
38.078991 -8.993787 25.265894
38.673798 -7.302414 23.445993
39.023575 -7.9692 21.662672
39.127281 -8.665726 19.876577
38.991837 -9.387856 18.049391
38.77763 -11.60925 17.973093
38.616379 -13.606516 17.608114
38.53907 -15.651011 17.156298
38.702461 -16.772362 20.740364
38.708126 -17.26754 18.676058
38.542107 -17.673302 16.487488
38.617188 -19.421871 15.776585
38.732365 -21.095919 14.680305
38.919876 -22.768435 13.571072
26.803574 -19.422163 37.048492
28.354239 -19.889345 35.921539
29.820436 -20.32851 34.800541
28.634573 -24.366972 34.581944
29.964048 -22.694765 34.126045
31.24383 -20.810469 33.609779
32.642799 -21.340223 32.279995
33.986542 -21.831013 30.805513
35.17971 -22.442478 29.199425
29.450565 -33.50502 31.11664
30.714132 -31.858543 30.687845
32.008156 -29.9659 30.229122
33.522472 -32.600262 27.430901
33.31144 -30.379469 28.701681
33.166656 -28.051571 29.774673
34.319271 -26.365843 29.064978
35.238682 -24.645977 28.452801
36.217484 -22.893373 27.501551
37.083801 -23.5455 25.62788
37.817379 -23.750904 23.666845
38.359333 -24.185495 21.553663
37.928101 -27.883123 21.282362
38.424709 -26.100407 20.374327
38.767464 -24.353785 19.24264
39.010155 -24.457762 16.879642
39.113941 -24.488958 14.565876
39.104168 -24.337484 12.191789
39.237129 -25.728518 10.853241
39.303204 -27.081749 9.319995
39.272995 -28.392757 7.638644
38.943501 -30.658352 10.92433
39.07988 -30.117117 8.400819
39.141144 -29.451008 5.845171
38.893326 -30.49531 3.90735
38.53656 -31.486526 2.014888
36.374439 -37.839024 13.982924
36.759907 -37.297764 11.387457
37.025772 -36.69614 8.751327
35.61541 -39.580559 7.360206
36.452591 -37.785301 6.745046
37.223217 -35.972878 6.04262
37.368633 -35.119251 3.241225
23.630318 2.072315 -3.905163
23.426857 0.141065 -4.097725
25.522493 -2.700669 -2.370523
24.437016 -2.150417 -3.421965
23.503845 -1.553699 -4.483349
23.927114 -2.957685 -4.970535
24.68679 -4.218709 -5.590319
30.345932 -10.543356 0.849554
29.375591 -9.933532 -0.651549
28.608027 -9.299617 -2.007066
30.904634 -11.92305 -2.469889
29.386044 -10.233929 -2.937976
27.9527 -8.562702 -3.430776
27.374329 -7.683801 -4.762673
25.874529 -17.114798 38.20149
26.615051 -16.190407 37.862911
40.195854 0.11516 15.921501
40.11075 -0.088956 15.065663
19.986638 -24.674191 39.651329
20.734619 -23.710052 39.528341
19.987519 -23.611777 40.062811
21.45999 -40.997936 34.107641
20.669437 -40.672543 34.617548
22.272683 -41.240919 33.602365
22.051072 -40.055288 33.965626
21.45999 -40.997936 34.107641
23.067903 -41.440334 33.069969
22.272683 -41.240919 33.602365
37.590189 -0.742507 8.342855
37.446321 0.305461 7.546704
37.829367 -34.512383 6.642746
38.114283 -33.657685 6.257499
38.060429 -33.956692 7.55459
34.873777 -41.208389 10.367891
35.1378 -40.646933 11.357585
34.673805 -41.561712 11.680553
35.693922 -38.397457 1.397622
35.586397 -38.888096 2.646494
36.083151 -37.482322 1.046466
35.693922 -38.397457 1.397622
28.670699 -13.27377 36.772516
29.322243 -12.356434 36.320505
34.320383 2.07674 3.232059
33.608095 2.034251 2.640821
37.723683 -2.894285 25.532631
37.263916 -2.607712 26.332626
37.74403 -4.002262 25.637765
38.146889 -3.220796 24.718167
37.723683 -2.894285 25.532631
33.495781 -14.619829 -2.435075
34.138918 -15.37097 -2.292232
39.461778 -0.861273 12.487436
39.10565 -1.09753 11.608078
33.887003 -9.41347 32.05007
33.847794 -8.294168 32.014626
33.290102 -9.117209 32.695841
31.540919 -13.038647 34.415075
31.461957 -11.864418 34.540531
30.809902 -12.729847 35.076616
32.684434 -39.353779 24.491284
32.153185 -39.245048 25.494632
33.196834 -39.405205 23.514059
33.200159 -38.451546 24.262777
32.684434 -39.353779 24.491284
34.071535 -42.269068 15.503435
34.296095 -41.518166 16.501174
33.820461 -42.399389 16.74709
34.296619 -42.042791 14.215954
34.071535 -42.269068 15.503435
23.078992 -1.668586 -6.71253
22.727626 -1.081125 -6.321703
23.737621 -2.659305 -6.501075
23.078992 -1.668586 -6.71253
35.281903 -17.0858 -0.043986
34.634647 -16.256532 -0.380349
34.897148 -16.687795 0.602518
38.311981 -21.87812 -2.55692
38.087137 -21.552495 -1.573739
38.557403 -22.770947 -2.316148
38.311981 -21.87812 -2.55692
39.040028 -25.565728 -1.329907
38.928869 -24.650469 -1.735133
38.989344 -25.144479 -0.428069
39.063617 -26.473358 -1.003556
39.040028 -25.565728 -1.329907
38.891091 -29.195713 -0.019053
38.979216 -28.323795 -0.452073
39.002489 -28.754463 0.924044
38.743583 -30.068313 0.374845
38.891091 -29.195713 -0.019053
22.920977 -20.948599 39.108238
23.662458 -20.054405 38.894649
18.19806 -39.852726 36.096618
17.374686 -39.542246 36.604242
17.598009 -40.742151 36.269045
25.552907 -42.177309 31.192172
25.362275 -40.986328 31.658558
24.712376 -41.895983 31.873179
26.366031 -42.371748 30.454099
25.552907 -42.177309 31.192172
27.983949 2.258794 -1.318465
27.260997 2.305039 -1.73004
35.573057 -0.058823 5.343413
36.22014 0.075421 6.014736
35.170209 -1.29893 5.422255
34.912265 -0.189831 4.669973
35.573057 -0.058823 5.343413
14.321036 -28.075703 42.502638
15.003324 -27.168045 42.337272
13.718502 -28.943208 42.607695
14.435973 -28.975892 41.916404
14.321036 -28.075703 42.502638
39.832487 -0.816797 19.343273
39.581716 -1.629501 20.291328
39.924684 -1.157481 18.56059
40.007008 0.008256 18.456935
39.832487 -0.816797 19.343273
35.931703 -6.13891 29.0827
35.873102 -4.939589 28.970796
35.391998 -5.759602 29.794106
38.285927 -32.374659 2.367913
38.501524 -31.914585 3.302295
38.250891 -32.802717 3.65532
38.312437 -31.91632 0.988495
38.285927 -32.374659 2.367913
35.292771 -40.111643 6.426607
35.142891 -40.547438 7.709156
37.145376 -35.125006 1.15837
36.841213 -35.620813 0.319383
25.784857 -5.512702 -5.889569
25.121656 -4.6201 -6.093865
25.34999 -5.111311 -5.386023
31.387286 -12.267422 -3.114257
31.64507 -12.731375 -2.26629
32.127722 -13.075747 -2.910658
29.137555 -9.814287 -3.686909
29.897322 -10.621975 -3.564841
29.648832 -10.202333 -4.313774
27.272814 -15.233574 37.570435
27.965039 -14.209121 37.197096
27.355241 -16.306776 37.309261
27.272814 -15.233574 37.570435
26.615051 -16.190407 37.862911
36.805994 -3.369703 27.236214
37.263916 -2.607712 26.332626
39.952587 -0.383778 14.189786
39.735845 -0.629086 13.355145
39.885164 -1.253881 15.072188
39.952587 -0.383778 14.189786
40.11075 -0.088956 15.065663
32.67629 -10.030418 33.374687
33.290102 -9.117209 32.695841
28.272023 -40.671851 29.42543
28.109534 -39.538149 29.977566
27.514484 -40.493527 30.15307
28.98142 -40.807024 28.631715
28.272023 -40.671851 29.42543
29.678114 -40.98026 27.803607
29.563766 -39.889709 28.421818
28.98142 -40.807024 28.631715
32.994286 -41.293526 22.010028
33.105227 -40.331503 22.754391
33.426462 -41.176481 20.913907
32.994286 -41.293526 22.010028
33.865656 -41.038046 19.757507
33.968536 -40.217132 20.609817
33.426462 -41.176481 20.913907
33.684302 -41.822941 18.903213
34.226376 -40.863592 18.599123
33.865656 -41.038046 19.757507
33.543449 -42.554741 17.995554
33.684302 -41.822941 18.903213
33.820461 -42.399389 16.74709
33.543449 -42.554741 17.995554
23.030921 -1.468088 -5.800361
22.727626 -1.081125 -6.321703
36.420821 -18.687642 0.362161
35.881456 -17.903714 0.124814
36.083767 -18.300991 1.176228
36.727646 -19.130703 -0.403537
36.420821 -18.687642 0.362161
36.929957 -19.52798 0.647877
37.062081 -19.487353 -1.213553
36.727646 -19.130703 -0.403537
37.501087 -20.348062 -0.952018
37.062081 -19.487353 -1.213553
37.897247 -21.178123 -0.584048
37.501087 -20.348062 -0.952018
37.632942 -20.801102 0.25015
38.218992 -22.005536 -0.371571
38.087137 -21.552495 -1.573739
37.897247 -21.178123 -0.584048
21.517391 -22.786651 39.378217
22.206386 -21.863644 39.250637
21.51651 -23.849065 38.966735
21.517391 -22.786651 39.378217
20.734619 -23.710052 39.528341
19.814337 -40.407086 35.124662
18.974781 -40.167011 35.623275
20.38328 -39.546848 34.978015
19.814337 -40.407086 35.124662
20.669437 -40.672543 34.617548
23.896894 -41.643699 32.509577
23.692754 -40.501637 32.899957
23.067903 -41.440334 33.069969
24.712376 -41.895983 31.873179
23.896894 -41.643699 32.509577
31.59012 0.933061 1.430492
31.260326 2.124967 0.802709
32.063437 2.093237 1.405115
36.839603 0.24318 6.745439
37.446321 0.305461 7.546704
36.450464 -1.000163 6.826398
36.22014 0.075421 6.014736
36.839603 0.24318 6.745439
39.097963 -2.100446 22.140095
38.835335 -1.770239 22.887032
39.360304 -2.420338 21.237526
39.097963 -2.100446 22.140095
39.044998 -3.244316 22.241894
39.528751 -2.773371 20.393127
39.581716 -1.629501 20.291328
39.360304 -2.420338 21.237526
38.174854 -33.278009 4.967678
38.405917 -32.722319 5.879522
38.114283 -33.657685 6.257499
38.250891 -32.802717 3.65532
38.174854 -33.278009 4.967678
35.468429 -39.369124 3.856225
35.377865 -39.759273 5.094712
35.903566 -38.394792 3.486686
35.468429 -39.369124 3.856225
35.586397 -38.888096 2.646494
36.465858 -36.567445 0.693335
36.404241 -36.998888 1.923825
36.083151 -37.482322 1.046466
36.841213 -35.620813 0.319383
36.465858 -36.567445 0.693335
25.553501 1.466216 -2.592779
25.179468 2.773338 -3.039351
25.862564 2.602203 -2.591631
29.406499 -9.658584 -5.112941
29.648832 -10.202333 -4.313774
28.651973 -8.864958 -5.213262
29.406499 -9.658584 -5.112941
30.077632 -12.517429 35.684849
29.322243 -12.356434 36.320505
30.156593 -13.691658 35.559393
30.809902 -12.729847 35.076616
30.077632 -12.517429 35.684849
28.718664 -14.414591 36.592205
28.670699 -13.27377 36.772516
27.965039 -14.209121 37.197096
16.286583 -41.39069 36.917168
16.043591 -40.215509 37.242804
15.55554 -41.174528 37.383303
17.037345 -41.572146 36.454569
16.286583 -41.39069 36.917168
17.598009 -40.742151 36.269045
17.037345 -41.572146 36.454569
32.860626 2.107794 1.990384
32.063437 2.093237 1.405115
33.140699 0.827788 2.683337
32.860626 2.107794 1.990384
33.608095 2.034251 2.640821
37.953518 -2.790163 10.094118
37.80382 -1.84932 9.24217
38.260149 -1.593451 9.980556
38.4546 -2.518622 23.878748
38.835335 -1.770239 22.887032
38.474947 -3.626599 23.983882
38.4546 -2.518622 23.878748
38.146889 -3.220796 24.718167
32.850494 -13.880681 -2.702561
33.030793 -14.278847 -1.795205
33.495781 -14.619829 -2.435075
32.127722 -13.075747 -2.910658
32.850494 -13.880681 -2.702561
13.535849 -33.583538 40.659672
14.120542 -32.719651 40.514015
13.402369 -32.66208 41.126335
13.736179 -34.529775 40.149626
13.535849 -33.583538 40.659672
13.888255 -35.52929 39.71718
14.406099 -34.640623 39.614907
13.736179 -34.529775 40.149626
14.015521 -36.513985 39.332991
13.888255 -35.52929 39.71718
14.180213 -37.590204 38.947522
14.722867 -36.716357 38.796992
14.015521 -36.513985 39.332991
14.384495 -38.687847 38.559157
14.180213 -37.590204 38.947522
14.596989 -39.791233 38.207865
15.100054 -38.895962 38.060231
14.384495 -38.687847 38.559157
14.825287 -40.834797 37.883316
14.596989 -39.791233 38.207865
15.55554 -41.174528 37.383303
14.825287 -40.834797 37.883316
38.72114 -1.358138 10.793883
38.260149 -1.593451 9.980556
38.794357 -2.273684 11.646698
38.72114 -1.358138 10.793883
39.10565 -1.09753 11.608078
39.452934 -1.780889 13.328603
39.461778 -0.861273 12.487436
39.735845 -0.629086 13.355145
34.907746 -6.617706 30.549658
35.391998 -5.759602 29.794106
34.404793 -7.433459 31.281081
33.847794 -8.294168 32.014626
34.947648 -7.774676 30.637432
34.907746 -6.617706 30.549658
34.404793 -7.433459 31.281081
32.108122 -10.998772 33.94854
31.461957 -11.864418 34.540531
32.761142 -11.204864 33.305138
32.67629 -10.030418 33.374687
32.108122 -10.998772 33.94854
30.373177 -40.990545 26.902526
29.678114 -40.98026 27.803607
30.939535 -40.076461 26.671486
30.373177 -40.990545 26.902526
31.490678 -39.134525 26.502178
30.811602 -39.121009 27.424402
30.939535 -40.076461 26.671486
32.025252 -38.289597 26.247549
31.490678 -39.134525 26.502178
32.153185 -39.245048 25.494632
33.620951 -39.42927 22.525886
33.196834 -39.405205 23.514059
33.105227 -40.331503 22.754391
34.491949 -41.848997 12.922319
34.742498 -41.19405 13.963883
34.296619 -42.042791 14.215954
34.673805 -41.561712 11.680553
34.491949 -41.848997 12.922319
34.347741 -15.836265 -1.277286
33.962986 -15.438261 -0.630782
34.634647 -16.256532 -0.380349
34.138918 -15.37097 -2.292232
34.347741 -15.836265 -1.277286
35.281903 -17.0858 -0.043986
35.881456 -17.903714 0.124814
38.792055 -23.695603 -2.052164
38.557403 -22.770947 -2.316148
38.643534 -23.304564 -1.097278
38.792055 -23.695603 -2.052164
38.928869 -24.650469 -1.735133
39.058673 -27.384761 -0.746623
39.063617 -26.473358 -1.003556
39.095558 -26.971142 0.234091
39.058673 -27.384761 -0.746623
38.979216 -28.323795 -0.452073
24.422874 -19.084526 38.68964
25.150439 -18.060901 38.46152
24.488882 -20.125694 38.326806
24.422874 -19.084526 38.68964
23.662458 -20.054405 38.894649
23.013874 -22.010618 38.674214
22.920977 -20.948599 39.108238
22.206386 -21.863644 39.250637
18.751458 -38.967106 35.958473
18.19806 -39.852726 36.096618
18.974781 -40.167011 35.623275
26.939889 -41.447441 30.289243
27.514484 -40.493527 30.15307
26.7774 -40.313739 30.841379
26.939889 -41.447441 30.289243
26.366031 -42.371748 30.454099
26.574002 2.423732 -2.173191
25.862564 2.602203 -2.591631
26.923592 1.176389 -1.701907
26.574002 2.423732 -2.173191
27.260997 2.305039 -1.73004
30.39819 2.147953 0.231323
31.260326 2.124967 0.802709
29.57106 2.147476 -0.322965
30.39819 2.147953 0.231323
29.959879 0.964314 0.273797
28.745029 2.211863 -0.829332
29.57106 2.147476 -0.322965
28.371668 1.010767 -0.769624
27.983949 2.258794 -1.318465
28.745029 2.211863 -0.829332
34.601641 0.902259 3.962452
34.320383 2.07674 3.232059
34.198793 -0.337847 4.041294
34.601641 0.902259 3.962452
34.912265 -0.189831 4.669973
37.283558 -1.939218 8.456417
37.590189 -0.742507 8.342855
37.80382 -1.84932 9.24217
19.154398 -23.566855 40.684235
19.987519 -23.611777 40.062811
18.512039 -24.511105 40.756433
19.154398 -23.566855 40.684235
17.782139 -25.465342 40.861358
18.509638 -25.530154 40.290724
18.512039 -24.511105 40.756433
17.091519 -26.41655 40.961176
17.782139 -25.465342 40.861358
16.441903 -27.326403 41.035536
17.130121 -27.394245 40.470009
17.091519 -26.41655 40.961176
15.720904 -27.228548 41.669026
15.003324 -27.168045 42.337272
15.759506 -28.206243 41.177858
16.441903 -27.326403 41.035536
15.720904 -27.228548 41.669026
13.14135 -29.869054 42.690658
13.718502 -28.943208 42.607695
13.252717 -30.753741 42.124721
13.14135 -29.869054 42.690658
13.329528 -31.731139 41.604331
13.910251 -30.820795 41.50107
13.252717 -30.753741 42.124721
13.402369 -32.66208 41.126335
13.329528 -31.731139 41.604331
40.19829 0.737754 17.566807
40.007008 0.008256 18.456935
40.223793 0.428476 16.784595
40.19829 0.737754 17.566807
40.071266 -0.645744 16.811158
40.195854 0.11516 15.921501
40.223793 0.428476 16.784595
36.351985 -4.191276 28.139795
35.873102 -4.939589 28.970796
36.866816 -4.497324 27.355809
36.805994 -3.369703 27.236214
36.351985 -4.191276 28.139795
25.973388 -18.209712 37.861767
25.874529 -17.114798 38.20149
25.150439 -18.060901 38.46152
38.554682 -30.998386 0.703758
38.743583 -30.068313 0.374845
38.725462 -30.556453 1.685976
38.554682 -30.998386 0.703758
38.312437 -31.91632 0.988495
35.004072 -40.903964 9.051516
34.873777 -41.208389 10.367891
35.476591 -39.937084 8.702565
35.004072 -40.903964 9.051516
35.142891 -40.547438 7.709156
35.700504 -39.228189 6.028311
35.292771 -40.111643 6.426607
35.377865 -39.759273 5.094712
37.553219 -35.093126 5.694138
37.829367 -34.512383 6.642746
37.499365 -35.392134 6.991229
37.625927 -34.666313 4.29344
37.553219 -35.093126 5.694138
37.295925 -35.546064 4.641922
37.701964 -34.191021 2.981082
37.625927 -34.666313 4.29344
37.436218 -34.642625 1.993635
37.077791 -35.601631 2.405959
37.145376 -35.125006 1.15837
37.701964 -34.191021 2.981082
37.436218 -34.642625 1.993635
24.471787 2.99526 -3.459303
25.179468 2.773338 -3.039351
23.851743 3.212743 -3.891635
24.471787 2.99526 -3.459303
24.250362 1.854833 -3.472831
23.220548 3.436156 -4.286757
23.851743 3.212743 -3.891635
23.078411 2.333697 -4.333379
23.220548 3.436156 -4.286757
22.97668 1.368072 -4.429659
23.078411 2.333697 -4.333379
23.528588 1.10669 -4.001444
22.972606 0.41495 -4.557381
22.97668 1.368072 -4.429659
23.0111 -0.432431 -4.750193
22.972606 0.41495 -4.557381
23.465351 -0.706317 -4.290537
23.114151 -1.167765 -4.994599
23.0111 -0.432431 -4.750193
23.325786 -1.869758 -5.238192
23.114151 -1.167765 -4.994599
23.71548 -2.255692 -4.726942
23.63225 -2.556015 -5.532704
23.030921 -1.468088 -5.800361
23.325786 -1.869758 -5.238192
24.412323 -3.691486 -6.248799
23.737621 -2.659305 -6.501075
24.012087 -3.186527 -5.842595
24.847189 -4.092878 -6.752345
24.412323 -3.691486 -6.248799
25.121656 -4.6201 -6.093865
30.656617 -11.466535 -3.330798
31.387286 -12.267422 -3.114257
30.145339 -11.078489 -2.703932
30.656617 -11.466535 -3.330798
29.897322 -10.621975 -3.564841
27.894605 -8.009536 -5.376677
28.131697 -8.539223 -4.599258
28.651973 -8.864958 -5.213262
27.219279 -7.259039 -5.499792
27.894605 -8.009536 -5.376677
26.538709 -6.419094 -5.709319
26.69376 -6.843856 -4.9722
27.219279 -7.259039 -5.499792
25.784857 -5.512702 -5.889569
26.538709 -6.419094 -5.709319
3 498 125 499
3 0 128 126
3 0 130 128
3 1 133 131
3 4 136 134
3 4 138 136
3 5 141 139
3 5 143 141
3 2 146 144
3 6 149 147
3 6 151 149
3 6 153 151
3 3 156 154
3 500 158 501
3 9 161 159
3 9 163 161
3 11 169 167
3 13 172 170
3 13 173 172
3 13 174 173
3 14 177 175
3 14 179 177
3 15 502 504
3 502 181 503
3 502 503 504
3 17 184 182
3 17 186 184
3 7 189 187
3 505 191 506
3 507 193 508
3 509 508 191
3 507 508 509
3 511 510 193
3 19 197 195
3 19 199 197
3 512 200 513
3 20 203 201
3 20 205 203
3 20 207 205
3 21 210 208
3 21 212 210
3 22 214 213
3 22 216 214
3 8 219 217
3 23 222 220
3 23 224 222
3 23 226 224
3 24 229 227
3 24 231 229
3 16 234 232
3 25 237 235
3 25 239 237
3 10 242 240
3 26 245 243
3 26 247 245
3 26 249 247
3 27 252 250
3 27 254 252
3 27 256 254
3 28 259 257
3 28 514 516
3 516 515 259
3 514 515 516
3 517 263 518
3 519 518 261
3 517 518 519
3 520 265 521
3 523 522 265
3 18 269 267
3 29 272 270
3 29 274 272
3 12 277 275
3 524 278 525
3 31 279 124
3 31 280 279
3 32 283 281
3 34 284 127
3 34 285 284
3 34 287 285
3 36 288 129
3 36 289 288
3 37 292 290
3 39 293 132
3 39 294 293
3 526 296 527
3 40 299 297
3 42 300 135
3 42 301 300
3 42 303 301
3 44 304 137
3 44 305 304
3 45 528 529
3 45 530 532
3 530 306 531
3 530 531 532
3 46 309 307
3 48 310 140
3 48 311 310
3 48 313 311
3 50 314 142
3 50 315 314
3 51 318 316
3 53 319 145
3 53 320 319
3 54 323 321
3 56 324 148
3 56 325 324
3 56 327 325
3 58 328 150
3 58 329 328
3 58 331 329
3 60 332 152
3 60 333 332
3 61 336 334
3 63 337 155
3 63 338 337
3 534 533 339
3 535 342 536
3 65 343 157
3 65 344 343
3 67 537 539
3 537 345 538
3 537 538 539
3 67 346 345
3 30 540 542
3 540 347 541
3 540 541 542
3 68 348 160
3 68 349 348
3 68 350 349
3 69 351 162
3 69 352 351
3 70 355 353
3 72 356 164
3 72 357 356
3 543 358 544
3 545 359 546
3 547 546 358
3 545 546 547
3 73 360 165
3 73 361 360
3 73 363 361
3 548 364 549
3 550 549 166
3 548 549 550
3 552 551 364
3 75 553 554
3 75 555 556
3 76 367 365
3 78 368 168
3 78 369 368
3 33 370 282
3 79 371 171
3 79 372 371
3 79 557 559
3 559 558 372
3 557 558 559
3 80 560 561
3 80 562 563
3 35 373 286
3 81 374 176
3 81 564 566
3 566 565 374
3 564 565 566
3 81 567 568
3 82 569 571
3 571 570 178
3 569 570 571
3 82 572 573
3 574 376 575
3 84 377 180
3 84 378 377
3 38 379 291
3 85 380 183
3 85 381 380
3 85 382 381
3 86 383 185
3 86 384 383
3 64 385 341
3 87 386 188
3 87 387 386
3 576 388 577
3 578 577 295
3 576 577 578
3 88 389 190
3 88 390 389
3 88 391 390
3 89 392 192
3 89 393 392
3 89 394 393
3 579 395 580
3 581 580 194
3 579 580 581
3 583 582 395
3 584 396 585
3 90 397 196
3 90 398 397
3 90 399 398
3 91 400 198
3 91 401 400
3 92 586 587
3 92 588 590
3 588 402 589
3 588 589 590
3 41 403 298
3 93 404 202
3 93 405 404
3 93 406 405
3 94 407 204
3 94 408 407
3 94 409 408
3 95 410 206
3 95 411 410
3 43 412 302
3 96 413 209
3 96 414 413
3 96 415 414
3 97 416 211
3 97 417 416
3 591 418 592
3 593 419 594
3 595 594 418
3 593 594 595
3 98 596 597
3 98 598 600
3 598 420 599
3 598 599 600
3 98 421 420
3 99 422 215
3 99 423 422
3 66 601 603
3 601 424 602
3 601 602 603
3 100 425 218
3 100 426 425
3 47 427 308
3 101 428 221
3 101 429 428
3 101 430 429
3 102 431 223
3 102 432 431
3 102 433 432
3 103 434 225
3 103 435 434
3 49 436 312
3 104 437 228
3 104 438 437
3 104 439 438
3 105 440 230
3 105 441 440
3 83 442 375
3 106 443 233
3 106 444 443
3 52 445 317
3 107 446 236
3 107 447 446
3 107 448 447
3 108 449 238
3 108 450 449
3 71 451 354
3 109 452 241
3 109 453 452
3 55 454 322
3 110 455 244
3 110 456 455
3 110 457 456
3 111 458 246
3 111 459 458
3 111 460 459
3 112 461 248
3 112 462 461
3 57 463 326
3 113 464 251
3 113 465 464
3 113 466 465
3 114 467 253
3 114 468 467
3 114 469 468
3 115 470 255
3 115 471 470
3 59 472 330
3 116 473 258
3 116 474 473
3 116 475 474
3 604 476 605
3 606 605 260
3 604 605 606
3 608 607 476
3 74 477 362
3 117 478 262
3 117 479 478
3 609 480 610
3 118 481 264
3 118 482 481
3 118 483 482
3 612 611 266
3 119 484 268
3 119 485 484
3 62 486 335
3 120 487 271
3 120 488 487
3 120 489 488
3 121 490 273
3 121 613 615
3 615 614 490
3 613 614 615
3 77 491 366
3 122 492 276
3 122 493 492
3 616 494 617
3 618 617 340
3 616 617 618
3 123 619 621
3 619 495 620
3 619 620 621
3 123 496 495
3 123 497 496
3 622 124 623
3 125 624 626
3 624 124 625
3 624 625 626
3 125 31 124
3 126 127 32
3 128 127 126
3 128 34 127
3 128 129 34
3 130 129 128
3 130 36 129
3 131 132 37
3 133 132 131
3 133 39 132
3 134 135 40
3 136 135 134
3 136 42 135
3 136 137 42
3 138 137 136
3 138 44 137
3 627 45 628
3 139 140 46
3 141 140 139
3 141 48 140
3 141 142 48
3 143 142 141
3 143 50 142
3 144 145 51
3 146 145 144
3 146 53 145
3 147 148 54
3 149 148 147
3 149 56 148
3 149 150 56
3 151 150 149
3 151 58 150
3 151 152 58
3 153 152 151
3 153 60 152
3 154 155 61
3 156 155 154
3 156 63 155
3 629 157 630
3 158 631 633
3 631 157 632
3 631 632 633
3 158 65 157
3 634 67 635
3 159 160 30
3 161 160 159
3 161 68 160
3 161 162 68
3 163 162 161
3 163 69 162
3 636 164 637
3 638 637 70
3 636 637 638
3 639 164 640
3 641 72 642
3 643 642 164
3 641 642 643
3 644 165 645
3 646 165 647
3 648 73 649
3 650 649 165
3 648 649 650
3 651 166 652
3 653 652 73
3 651 652 653
3 654 166 655
3 657 656 166
3 658 75 659
3 167 168 76
3 169 168 167
3 169 78 168
3 170 171 33
3 172 171 170
3 172 79 171
3 172 660 662
3 662 661 79
3 660 661 662
3 173 663 665
3 665 664 172
3 663 664 665
3 173 666 667
3 173 668 669
3 174 670 672
3 672 671 173
3 670 671 672
3 174 673 675
3 673 80 674
3 673 674 675
3 175 176 35
3 177 176 175
3 177 81 176
3 177 178 81
3 179 178 177
3 179 82 178
3 676 180 677
3 181 678 680
3 678 180 679
3 678 679 680
3 181 84 180
3 182 183 38
3 184 183 182
3 184 85 183
3 184 185 85
3 186 185 184
3 186 86 185
3 187 188 64
3 189 188 187
3 189 87 188
3 681 190 682
3 191 683 685
3 683 190 684
3 683 684 685
3 191 88 190
3 191 192 88
3 193 192 191
3 193 89 192
3 193 194 89
3 686 194 687
3 688 687 193
3 686 687 688
3 690 689 194
3 195 691 693
3 691 196 692
3 691 692 693
3 197 196 195
3 197 90 196
3 197 198 90
3 199 198 197
3 199 91 198
3 200 694 695
3 200 696 698
3 696 92 697
3 696 697 698
3 201 202 41
3 203 202 201
3 203 93 202
3 203 204 93
3 205 204 203
3 205 94 204
3 205 206 94
3 207 206 205
3 207 95 206
3 208 209 43
3 210 209 208
3 210 96 209
3 210 211 96
3 212 211 210
3 212 97 211
3 213 699 700
3 214 701 703
3 703 702 213
3 701 702 703
3 214 704 706
3 704 98 705
3 704 705 706
3 214 215 98
3 216 215 214
3 216 99 215
3 217 218 66
3 219 218 217
3 219 100 218
3 220 221 47
3 222 221 220
3 222 101 221
3 222 223 101
3 224 223 222
3 224 102 223
3 224 225 102
3 226 225 224
3 226 103 225
3 227 228 49
3 229 228 227
3 229 104 228
3 229 230 104
3 231 230 229
3 231 105 230
3 232 233 83
3 234 233 232
3 234 106 233
3 235 236 52
3 237 236 235
3 237 107 236
3 237 238 107
3 239 238 237
3 239 108 238
3 240 241 71
3 242 241 240
3 242 109 241
3 243 244 55
3 245 244 243
3 245 110 244
3 245 246 110
3 247 246 245
3 247 111 246
3 247 248 111
3 249 248 247
3 249 112 248
3 250 251 57
3 252 251 250
3 252 113 251
3 252 253 113
3 254 253 252
3 254 114 253
3 254 255 114
3 256 255 254
3 256 115 255
3 257 258 59
3 259 258 257
3 259 116 258
3 259 260 116
3 707 260 708
3 709 708 259
3 707 708 709
3 711 710 260
3 261 262 74
3 263 262 261
3 263 117 262
3 712 264 713
3 265 714 716
3 714 264 715
3 714 715 716
3 265 118 264
3 265 266 118
3 717 266 718
3 719 718 265
3 717 718 719
3 721 720 266
3 267 722 724
3 722 268 723
3 722 723 724
3 269 268 267
3 269 119 268
3 270 271 62
3 272 271 270
3 272 120 271
3 272 273 120
3 274 273 272
3 274 121 273
3 275 276 77
3 277 276 275
3 277 122 276
3 725 123 726
3 728 727 123
3 278 729 730
3 278 731 733
3 731 30 732
3 731 732 733
3 124 734 736
3 734 278 735
3 734 735 736
3 279 278 124
3 279 30 278
3 279 159 30
3 280 159 279
3 280 9 159
3 281 282 11
3 283 282 281
3 283 33 282
3 127 283 32
3 284 283 127
3 284 33 283
3 284 170 33
3 285 170 284
3 285 13 170
3 285 286 13
3 287 286 285
3 287 35 286
3 129 287 34
3 288 287 129
3 288 35 287
3 288 175 35
3 289 175 288
3 289 14 175
3 290 291 15
3 292 291 290
3 292 38 291
3 132 292 37
3 293 292 132
3 293 38 292
3 293 182 38
3 294 182 293
3 294 17 182
3 737 295 738
3 739 738 7
3 737 738 739
3 740 295 741
3 743 742 295
3 744 195 745
3 296 746 748
3 746 195 747
3 746 747 748
3 296 19 195
3 297 749 751
3 749 298 750
3 749 750 751
3 299 298 297
3 299 41 298
3 135 299 40
3 300 299 135
3 300 41 299
3 300 201 41
3 301 201 300
3 301 20 201
3 301 302 20
3 303 302 301
3 303 43 302
3 137 303 42
3 304 303 137
3 304 43 303
3 304 208 43
3 305 208 304
3 305 21 208
3 752 213 753
3 306 754 756
3 754 213 755
3 754 755 756
3 306 22 213
3 307 308 8
3 309 308 307
3 309 47 308
3 140 309 46
3 310 309 140
3 310 47 309
3 310 220 47
3 311 220 310
3 311 23 220
3 311 312 23
3 313 312 311
3 313 49 312
3 142 313 48
3 314 313 142
3 314 49 313
3 314 227 49
3 315 227 314
3 315 24 227
3 316 317 16
3 318 317 316
3 318 52 317
3 145 318 51
3 319 318 145
3 319 52 318
3 319 235 52
3 320 235 319
3 320 25 235
3 321 322 10
3 323 322 321
3 323 55 322
3 148 323 54
3 324 323 148
3 324 55 323
3 324 243 55
3 325 243 324
3 325 26 243
3 325 326 26
3 327 326 325
3 327 57 326
3 150 327 56
3 328 327 150
3 328 57 327
3 328 250 57
3 329 250 328
3 329 27 250
3 329 330 27
3 331 330 329
3 331 59 330
3 152 331 58
3 332 331 152
3 332 59 331
3 332 257 59
3 333 257 332
3 333 28 257
3 334 335 18
3 336 335 334
3 336 62 335
3 155 336 61
3 337 336 155
3 337 62 336
3 337 270 62
3 338 270 337
3 338 29 270
3 339 340 12
3 757 340 758
3 759 758 339
3 757 758 759
3 761 760 340
3 762 341 763
3 764 763 1
3 762 763 764
3 765 341 766
3 767 64 768
3 769 768 341
3 767 768 769
3 770 64 771
3 772 187 773
3 774 773 64
3 772 773 774
3 775 187 776
3 777 7 778
3 779 778 187
3 777 778 779
3 780 7 781
3 783 782 7
3 784 297 785
3 342 786 788
3 786 297 787
3 786 787 788
3 342 40 297
3 157 789 791
3 789 342 790
3 789 790 791
3 343 342 157
3 343 40 342
3 343 134 40
3 344 134 343
3 344 4 134
3 792 66 793
3 345 794 795
3 345 796 798
3 796 66 797
3 796 797 798
3 345 217 66
3 346 217 345
3 346 8 217
3 347 799 800
3 347 801 803
3 801 67 802
3 801 802 803
3 160 347 30
3 348 347 160
3 348 67 347
3 348 346 67
3 349 346 348
3 349 8 346
3 349 307 8
3 350 307 349
3 350 46 307
3 162 350 68
3 351 350 162
3 351 46 350
3 351 139 46
3 352 139 351
3 352 5 139
3 353 354 2
3 355 354 353
3 355 71 354
3 164 355 70
3 356 355 164
3 356 71 355
3 356 240 71
3 357 240 356
3 357 10 240
3 804 72 805
3 806 72 807
3 808 357 809
3 810 809 72
3 808 809 810
3 358 811 813
3 811 357 812
3 811 812 813
3 358 10 357
3 358 321 10
3 359 321 358
3 359 54 321
3 165 814 816
3 814 359 815
3 814 815 816
3 360 359 165
3 360 54 359
3 360 147 54
3 361 147 360
3 361 6 147
3 361 362 6
3 363 362 361
3 363 74 362
3 166 363 73
3 364 363 166
3 364 74 363
3 364 261 74
3 817 261 818
3 819 818 364
3 817 818 819
3 821 820 261
3 365 366 3
3 367 366 365
3 367 77 366
3 168 367 76
3 368 367 168
3 368 77 367
3 368 275 77
3 369 275 368
3 369 12 275
3 282 169 11
3 370 169 282
3 370 78 169
3 171 370 33
3 371 370 171
3 371 78 370
3 371 369 78
3 372 369 371
3 372 12 369
3 372 339 12
3 822 339 823
3 824 823 372
3 822 823 824
3 826 825 339
3 828 827 79
3 286 174 13
3 373 174 286
3 373 80 174
3 176 373 35
3 374 373 176
3 374 80 373
3 374 829 831
3 831 830 80
3 829 830 831
3 833 832 374
3 178 834 836
3 836 835 81
3 834 835 836
3 838 837 178
3 839 375 840
3 376 841 843
3 841 375 842
3 841 842 843
3 376 83 375
3 180 844 846
3 844 376 845
3 844 845 846
3 377 376 180
3 377 83 376
3 377 232 83
3 378 232 377
3 378 16 232
3 291 181 15
3 379 181 291
3 379 84 181
3 183 379 38
3 380 379 183
3 380 84 379
3 380 378 84
3 381 378 380
3 381 16 378
3 381 316 16
3 382 316 381
3 382 51 316
3 185 382 85
3 383 382 185
3 383 51 382
3 383 144 51
3 384 144 383
3 384 2 144
3 341 133 1
3 385 133 341
3 385 39 133
3 188 385 64
3 386 385 188
3 386 39 385
3 386 294 39
3 387 294 386
3 387 17 294
3 295 189 7
3 388 189 295
3 388 87 189
3 190 847 849
3 847 388 848
3 847 848 849
3 389 388 190
3 389 87 388
3 389 387 87
3 390 387 389
3 390 17 387
3 390 186 17
3 391 186 390
3 391 86 186
3 192 391 88
3 392 391 192
3 392 86 391
3 392 384 86
3 393 384 392
3 393 2 384
3 393 353 2
3 394 353 393
3 394 70 353
3 194 394 89
3 395 394 194
3 395 70 394
3 395 850 852
3 852 851 70
3 850 851 852
3 854 853 395
3 855 267 856
3 396 857 859
3 857 267 858
3 857 858 859
3 396 18 267
3 196 860 861
3 397 862 864
3 864 863 196
3 862 863 864
3 397 865 866
3 397 867 869
3 867 396 868
3 867 868 869
3 398 396 397
3 398 18 396
3 398 334 18
3 399 334 398
3 399 61 334
3 198 399 90
3 400 399 198
3 400 61 399
3 400 154 61
3 401 154 400
3 401 3 154
3 870 296 871
3 402 872 874
3 872 296 873
3 872 873 874
3 402 19 296
3 298 875 877
3 875 200 876
3 875 876 877
3 403 200 298
3 403 92 200
3 202 403 41
3 404 403 202
3 404 92 403
3 404 402 92
3 405 402 404
3 405 19 402
3 405 199 19
3 406 199 405
3 406 91 199
3 204 406 93
3 407 406 204
3 407 91 406
3 407 401 91
3 408 401 407
3 408 3 401
3 408 365 3
3 409 365 408
3 409 76 365
3 206 409 94
3 410 409 206
3 410 76 409
3 410 167 76
3 411 167 410
3 411 11 167
3 302 207 20
3 412 207 302
3 412 95 207
3 209 412 43
3 413 412 209
3 413 95 412
3 413 411 95
3 414 411 413
3 414 11 411
3 414 281 11
3 415 281 414
3 415 32 281
3 211 415 96
3 416 415 211
3 416 32 415
3 416 126 32
3 417 126 416
3 417 0 126
3 878 15 879
3 880 15 881
3 882 290 883
3 884 883 15
3 882 883 884
3 885 290 886
3 887 37 888
3 889 888 290
3 887 888 889
3 418 890 891
3 418 892 894
3 892 37 893
3 892 893 894
3 418 131 37
3 419 131 418
3 419 1 131
3 895 419 896
3 897 419 898
3 899 1 900
3 901 900 419
3 899 900 901
3 903 902 1
3 420 904 905
3 420 906 907
3 420 908 910
3 908 158 909
3 908 909 910
3 421 158 420
3 421 65 158
3 215 421 98
3 422 421 215
3 422 65 421
3 422 344 65
3 423 344 422
3 423 4 344
3 424 911 912
3 424 913 915
3 913 45 914
3 913 914 915
3 218 424 66
3 425 424 218
3 425 45 424
3 425 306 45
3 426 306 425
3 426 22 306
3 308 219 8
3 427 219 308
3 427 100 219
3 221 427 47
3 428 427 221
3 428 100 427
3 428 426 100
3 429 426 428
3 429 22 426
3 429 216 22
3 430 216 429
3 430 99 216
3 223 430 101
3 431 430 223
3 431 99 430
3 431 423 99
3 432 423 431
3 432 4 423
3 432 138 4
3 433 138 432
3 433 44 138
3 225 433 102
3 434 433 225
3 434 44 433
3 434 305 44
3 435 305 434
3 435 21 305
3 312 226 23
3 436 226 312
3 436 103 226
3 228 436 49
3 437 436 228
3 437 103 436
3 437 435 103
3 438 435 437
3 438 21 435
3 438 212 21
3 439 212 438
3 439 97 212
3 230 439 104
3 440 439 230
3 440 97 439
3 440 417 97
3 441 417 440
3 441 0 417
3 375 916 918
3 916 125 917
3 916 917 918
3 442 125 375
3 442 31 125
3 233 442 83
3 443 442 233
3 443 31 442
3 443 280 31
3 444 280 443
3 444 9 280
3 317 234 16
3 445 234 317
3 445 106 234
3 236 445 52
3 446 445 236
3 446 106 445
3 446 444 106
3 447 444 446
3 447 9 444
3 447 163 9
3 448 163 447
3 448 69 163
3 238 448 107
3 449 448 238
3 449 69 448
3 449 352 69
3 450 352 449
3 450 5 352
3 354 146 2
3 451 146 354
3 451 53 146
3 241 451 71
3 452 451 241
3 452 53 451
3 452 320 53
3 453 320 452
3 453 25 320
3 322 242 10
3 454 242 322
3 454 109 242
3 244 454 55
3 455 454 244
3 455 109 454
3 455 453 109
3 456 453 455
3 456 25 453
3 456 239 25
3 457 239 456
3 457 108 239
3 246 457 110
3 458 457 246
3 458 108 457
3 458 450 108
3 459 450 458
3 459 5 450
3 459 143 5
3 460 143 459
3 460 50 143
3 248 460 111
3 461 460 248
3 461 50 460
3 461 315 50
3 462 315 461
3 462 24 315
3 326 249 26
3 463 249 326
3 463 112 249
3 251 463 57
3 464 463 251
3 464 112 463
3 464 462 112
3 465 462 464
3 465 24 462
3 465 231 24
3 466 231 465
3 466 105 231
3 253 466 113
3 467 466 253
3 467 105 466
3 467 441 105
3 468 441 467
3 468 0 441
3 468 130 0
3 469 130 468
3 469 36 130
3 255 469 114
3 470 469 255
3 470 36 469
3 470 289 36
3 471 289 470
3 471 14 289
3 330 256 27
3 472 256 330
3 472 115 256
3 258 472 59
3 473 472 258
3 473 115 472
3 473 471 115
3 474 471 473
3 474 14 471
3 474 179 14
3 475 179 474
3 475 82 179
3 260 475 116
3 476 475 260
3 476 82 475
3 476 919 921
3 921 920 82
3 919 920 921
3 923 922 476
3 362 153 6
3 477 153 362
3 477 60 153
3 262 477 74
3 478 477 262
3 478 60 477
3 478 333 60
3 479 333 478
3 479 28 333
3 924 263 925
3 480 926 928
3 926 263 927
3 926 927 928
3 480 117 263
3 264 929 931
3 929 480 930
3 929 930 931
3 481 480 264
3 481 117 480
3 481 479 117
3 482 479 481
3 482 28 479
3 482 932 934
3 934 933 28
3 932 933 934
3 483 935 937
3 937 936 482
3 935 936 937
3 483 938 939
3 266 483 118
3 940 483 941
3 942 941 266
3 940 941 942
3 944 943 483
3 268 945 946
3 484 947 949
3 949 948 268
3 947 948 949
3 484 950 951
3 484 952 953
3 485 954 956
3 956 955 484
3 954 955 956
3 485 957 958
3 335 269 18
3 486 269 335
3 486 119 269
3 271 486 62
3 487 486 271
3 487 119 486
3 487 485 119
3 488 485 487
3 488 959 961
3 961 960 485
3 959 960 961
3 488 962 963
3 489 964 966
3 966 965 488
3 964 965 966
3 489 967 969
3 967 75 968
3 967 968 969
3 273 489 120
3 490 489 273
3 490 75 489
3 490 970 972
3 972 971 75
3 970 971 972
3 975 974 490
3 973 974 975
3 366 156 3
3 491 156 366
3 491 63 156
3 276 491 77
3 492 491 276
3 492 63 491
3 492 338 63
3 493 338 492
3 493 29 338
3 340 277 12
3 494 277 340
3 494 122 277
3 976 494 977
3 495 978 980
3 978 494 979
3 978 979 980
3 495 122 494
3 495 493 122
3 496 493 495
3 496 29 493
3 496 274 29
3 497 274 496
3 497 121 274
3 981 497 982
3 983 982 123
3 981 982 983
3 984 497 985
3 986 121 987
3 988 987 497
3 986 987 988
3 990 989 121
