ply
format ascii 1.0
element vertex 765
property float x
property float y
property float z
element face 946
property list uchar int vertex_index
end_header
10.774954 83.594551 6.69945
17.895477 64.619911 12.352779
5.583107 97.017273 -12.214788
6.620765 72.068352 24.347418
15.242155 81.890648 0.482383
19.50194 71.641045 3.019268
14.445807 75.427315 9.96898
8.907242 90.159058 -1.360725
14.124074 88.363304 -10.148912
4.764969 88.263931 8.058882
0.553652 97.086395 -1.984386
-0.616333 75.333694 28.217207
1.058252 101.061424 -23.831718
5.960558 94.517586 -31.466719
11.057216 93.048004 -21.014462
-6.305811 86.78952 21.062933
1.826442 82.94294 18.219578
8.847392 78.932617 14.890977
12.715467 68.488533 19.161516
12.764057 83.148087 3.800973
15.053135 78.613724 5.340942
12.542088 80.05941 8.303547
10.078156 86.597771 3.15851
12.335803 86.393028 -0.782051
8.259385 85.666 7.341908
6.732028 89.677719 3.153274
18.781248 68.008705 7.847273
21.126913 65.941177 4.043978
20.272306 62.539875 8.603341
19.483099 59.180523 12.902103
3.64982 99.410561 -17.989058
6.241457 97.362473 -22.545189
8.46483 95.451172 -16.885666
17.386803 83.456345 -8.476902
2.998762 97.405975 -7.049831
-1.788754 100.818565 -7.56439
0.762241 100.637291 -12.829229
-1.705058 102.951408 -18.854324
3.064672 73.832497 26.388384
0.557608 79.485023 23.221088
4.373772 77.626297 21.426958
5.526759 81.022331 16.526861
7.73339 75.665054 19.652119
10.884827 73.916153 17.168015
9.907735 70.402336 21.76927
10.708899 90.363007 -29.35708
7.836184 89.890572 -34.014908
12.199725 85.435196 -31.366041
17.677105 80.41156 -3.304675
17.547157 77.07402 1.72811
17.151533 73.536621 6.486701
16.371136 70.061996 11.197398
7.419984 93.753105 -6.580012
10.009239 93.006241 -11.346598
11.511187 89.686516 -5.955264
14.872993 85.304581 -4.703724
0.839647 91.035126 8.539913
-1.572343 95.620453 3.829599
2.676294 92.911423 3.20684
4.842122 93.831238 -1.818658
-5.583081 71.399277 35.140461
-4.649387 76.607101 30.181841
-1.681242 70.492157 33.056473
1.943679 69.417961 31.088472
5.615512 68.122589 28.789047
8.972822 66.391785 26.423014
-1.953897 101.583389 -29.390995
0.901946 97.88591 -33.10598
3.790611 98.149498 -28.013096
8.694981 94.322609 -26.375917
13.150491 89.86441 -24.330549
12.87429 90.963318 -15.439209
15.25014 88.220139 -19.0187
-4.509726 104.152023 -24.537779
-3.541291 81.029999 25.091055
-2.212769 85.006035 19.639391
-0.868327 88.412331 14.104456
3.28132 85.930092 13.025321
6.779299 83.847816 11.695386
10.006962 81.570091 10.373031
11.846977 77.165237 12.562086
13.65187 72.085953 14.476553
15.388117 66.703796 15.835566
11.901978 64.852631 23.516342
14.640801 62.874943 20.349319
17.030182 61.089516 16.930931
18.847372 55.616779 17.283394
3.156641 93.284851 -36.154034
4.94303 88.032715 -38.164284
11.66708 83.432129 5.424038
12.719615 81.597313 6.071642
11.595548 82.09893 7.371646
10.472222 84.971916 5.134821
11.485166 84.947578 3.410675
9.708656 84.534256 6.950962
9.100993 86.337059 5.135484
18.347153 66.261116 10.149544
19.57539 65.349121 8.140592
19.048513 63.597431 10.608687
19.851826 60.799343 10.831869
18.662889 61.807434 12.78803
4.674606 98.309418 -15.122577
5.993382 97.584122 -17.507332
7.044124 96.33815 -14.565714
4.290121 97.328453 -9.70747
1.853644 99.145378 -9.879713
3.203295 98.869141 -12.464159
2.130537 100.195976 -15.44931
4.916491 72.769989 25.533154
3.683187 75.801208 23.946602
5.414763 74.938408 22.991135
6.131071 76.687645 20.484112
7.174154 73.817123 22.100567
8.816171 73.157921 20.712919
8.319313 71.170967 23.1637
12.768995 88.188301 -28.109486
11.501772 88.02034 -30.528599
16.450239 81.228111 -1.382841
17.776312 78.573555 -0.780977
16.464342 79.485222 1.147216
14.783605 77.063133 7.648014
16.081053 76.159126 6.034906
15.777946 74.526688 8.334404
16.719917 71.921242 8.890971
15.43375 72.796593 10.627869
8.244745 91.97261 -3.980394
9.603419 91.773331 -6.496806
10.079292 90.134987 -3.670692
13.80195 84.293747 -0.177402
13.663912 85.767113 -2.57143
15.147151 83.55069 -2.024206
16.382196 82.944954 -4.158832
2.812233 89.783691 8.143847
1.727223 92.034599 5.919994
3.753846 90.633141 5.652465
7.781494 90.131279 0.691451
5.857683 91.675751 0.86914
6.866902 92.090187 -1.626743
6.161147 93.852974 -4.227333
-4.074984 68.573799 36.176128
-3.595396 71.095634 33.974743
-2.197493 67.973274 35.288067
1.532218 67.017975 33.221889
3.256516 66.541252 32.177532
3.79015 68.804443 29.983435
6.808168 65.169563 29.882969
19.78438 73.452812 0.442926
20.612034 70.552322 1.319461
-0.388195 101.460205 -26.676207
0.957488 99.945847 -28.814053
2.376076 99.737564 -26.163784
8.662881 95.326889 -21.735262
7.672751 95.841316 -24.42885
10.02915 93.727325 -23.644947
10.963634 92.18306 -25.486574
12.155835 91.574554 -22.807577
12.114954 90.777603 -10.816217
11.431129 92.135765 -13.470309
13.392971 89.909065 -12.775327
15.890975 87.378578 -16.28112
-0.590106 96.495262 0.902868
-1.822066 98.554924 -1.704334
-0.450736 102.217918 -21.361708
-3.158997 103.746643 -21.718027
-1.71022 102.688194 -24.39225
-3.296084 103.022484 -27.115334
-2.545314 75.93869 29.189056
-4.12505 78.844208 27.718306
-2.033124 78.178596 26.713396
1.185716 81.208328 20.802431
-0.906036 82.196053 21.642979
-0.089078 83.929642 18.93688
-1.541867 86.746109 16.915091
0.568092 85.716293 16.140884
1.19695 87.316444 13.436546
2.423549 84.701073 15.502277
7.292968 79.932961 15.719049
6.202913 82.426689 14.128376
7.859835 81.453804 13.300328
8.467397 82.725288 11.003293
9.362027 80.452522 12.543518
10.880933 79.491272 11.526097
10.321774 78.124031 13.78713
11.809834 71.334511 18.1448
12.247072 73.091507 15.875098
13.202243 70.38752 16.723618
14.568734 69.374229 15.192149
14.044523 67.697006 17.528881
9.984353 63.749069 27.213377
10.465732 65.714195 24.971588
11.448722 62.919182 25.77997
14.201027 61.118164 22.612343
15.511042 60.143635 20.872066
15.845042 62.066593 18.630064
16.654057 59.436184 19.072697
17.960876 58.314373 17.111954
17.623932 56.614166 19.284441
3.556507 96.217896 -32.334934
1.989529 95.768272 -34.76622
4.643645 94.011894 -33.847271
6.376739 89.117935 -36.172241
14.00708 82.600883 2.116235
15.185398 80.307213 2.894299
13.996528 80.979149 4.451349
13.783451 79.510582 6.740267
13.508827 77.908142 9.069861
9.603834 88.326874 0.925572
10.752177 88.251823 -1.107297
11.190515 86.568924 1.202226
12.709728 84.629532 1.568487
6.636407 87.004822 7.544157
5.626786 89.166649 5.558418
7.483928 87.704926 5.326361
8.512897 88.229614 2.929996
19.152702 69.861504 5.469797
20.359238 68.779228 3.578084
19.981186 67.04184 5.912124
20.758131 64.206848 6.254777
21.001347 59.891155 8.77708
20.665169 58.013386 10.960145
20.264006 56.498508 13.118517
2.260232 100.470398 -20.985882
3.755376 99.230537 -23.340868
4.843101 98.598312 -20.452192
7.438644 96.493607 -19.556255
9.819503 94.340294 -18.988575
15.862462 85.96534 -9.413059
15.400556 87.336281 -11.998566
1.631386 97.475784 -4.653481
-0.740985 99.055695 -4.556604
0.597768 99.166367 -7.246492
-0.602256 100.871452 -10.199875
-1.821407 102.277092 -12.926523
-3.173112 103.554344 -16.07494
-0.593562 102.015839 -15.770028
1.018442 101.249886 -18.343803
1.183114 74.64106 27.347393
-0.082894 77.570435 25.693584
1.773126 76.689972 24.912241
2.469775 78.578369 22.367807
3.126667 80.353386 19.824308
3.708586 82.054733 17.312267
4.911148 79.415123 18.97781
6.64254 78.380112 18.158232
8.270149 77.310715 17.329321
9.907187 76.377686 16.145573
9.397507 74.762405 18.423923
10.43482 72.136993 19.465961
11.334292 69.536621 20.459448
8.363728 92.535751 -30.516201
7.00878 92.205574 -32.897308
9.35943 90.146751 -31.782835
10.135335 87.735771 -32.742027
18.78327 76.002487 0.030918
18.623436 74.32959 2.350075
16.26619 77.910866 3.62228
17.337225 75.384155 4.168866
18.312618 72.694412 4.758883
17.939169 70.848732 7.292594
17.605488 69.042786 9.527115
17.063116 67.4188 11.946223
6.555377 95.426476 -9.302908
7.926784 94.961082 -11.666227
8.661835 93.535225 -9.004654
10.816807 91.432388 -8.744668
12.816434 89.150276 -8.132473
11.950336 88.029213 -3.223473
13.23511 87.538971 -5.267873
14.606377 86.805374 -7.383995
16.25338 84.375313 -6.726715
17.613081 81.936333 -5.864286
-1.187114 92.143326 9.117673
-2.573023 94.672615 6.639364
-0.347087 93.30706 6.333482
0.484347 94.228683 3.744597
1.566431 95.04332 0.765487
4.818071 91.204506 3.264663
3.812587 93.374107 0.737813
2.736655 95.539291 -2.028476
3.865214 95.765678 -4.47852
5.189482 95.708412 -6.94359
-5.089988 73.981422 32.747696
-3.162588 73.528503 31.724024
-1.2533 73.014755 30.720366
-0.338419 67.566696 34.238331
0.168724 69.937057 32.093739
0.66948 72.349106 29.762285
2.545964 71.634216 28.779043
4.365752 70.956322 27.675219
6.149832 70.0569 26.629183
7.798764 69.170364 25.543804
7.42448 67.164009 27.641493
8.536771 64.179085 28.712107
-1.876697 99.262398 -33.985088
-0.550598 99.847427 -31.438551
2.370756 98.145378 -30.665726
4.901969 96.481682 -29.808603
5.013209 97.894302 -25.462906
6.293938 96.310768 -27.2458
7.395557 94.527428 -28.984001
9.836378 92.323616 -28.08036
11.947427 90.3181 -26.836617
9.251848 94.342728 -14.107973
10.812897 93.189552 -16.179844
11.96735 92.162842 -18.216333
14.799804 88.590851 -14.470092
14.078777 89.745872 -17.321611
13.202599 90.739044 -20.097635
14.358573 89.04184 -21.645426
-3.010367 100.507744 -4.596641
-5.566209 81.829582 25.87793
-4.916452 83.935883 23.143642
-1.462436 80.204498 24.231943
-2.933303 83.07666 22.434431
-4.263173 85.97094 20.308167
-3.640879 87.88858 17.438261
-0.092427 89.817741 11.361245
1.95076 88.599976 10.860655
3.883756 87.339317 10.444316
4.316193 83.61731 14.811766
5.075334 84.939316 12.300048
5.847999 86.037994 9.919147
7.506027 84.886627 9.425334
9.105663 83.693428 8.932027
10.38411 82.79409 8.336391
11.282804 80.910957 9.319105
12.180635 78.736786 10.388757
13.191929 76.185516 11.402054
11.346951 75.661568 14.814235
12.743223 74.689827 13.593894
14.140377 73.564171 12.293097
15.070229 70.964607 12.928622
15.865228 68.421341 13.538893
16.697044 65.572571 14.126828
9.329759 68.565308 24.153357
10.826189 67.695328 22.803965
12.305777 66.623505 21.403866
12.851006 61.875103 24.38674
13.277419 63.751167 22.126251
13.72681 65.593605 19.827503
15.017192 64.788162 18.085503
16.246204 63.865547 16.379568
17.491898 62.754623 14.634254
18.279747 60.105305 14.956531
19.165285 57.413158 15.049315
20.02894 54.66489 15.205
19.72547 52.919746 17.466169
-0.736078 97.288574 -35.605427
5.564444 91.604057 -35.182186
3.97909 90.757851 -37.378864
13.134421 86.978607 -28.594234
13.747013 86.976853 -27.425204
-3.43615 66.963363 36.840168
-4.392611 67.26947 37.29235
-2.497405 66.663101 36.396137
-3.136239 68.273537 35.732097
-3.43615 66.963363 36.840168
3.948087 65.007448 32.689757
3.035173 65.327809 33.219175
4.151982 66.212952 31.63024
3.948087 65.007448 32.689757
-7.148444 88.206703 20.039825
-7.371125 87.132782 21.513036
-6.008356 87.757008 19.6444
-7.148444 88.206703 20.039825
11.293641 61.856645 26.854102
10.716538 63.334125 26.496673
10.561457 62.271589 27.570805
15.958132 58.820643 21.044113
15.326766 59.196013 22.029922
16.52964 58.466917 20.144429
16.082549 59.78991 19.972382
15.958132 58.820643 21.044113
17.014577 57.055908 20.250301
17.138995 58.025175 19.178569
16.52964 58.466917 20.144429
20.875036 62.031126 7.534798
21.117948 62.864612 6.360516
20.515218 63.373362 7.429059
20.636826 61.215515 8.69021
21.239556 60.706766 7.621668
20.875036 62.031126 7.534798
17.256034 84.110218 -9.812121
16.493863 85.364715 -10.2802
16.624633 84.710842 -8.94498
11.492885 85.31279 -32.389777
10.46069 86.463077 -33.07777
11.16753 86.585484 -32.054034
18.30275 79.031917 -2.925769
18.265702 79.894486 -4.177616
18.265702 79.894486 -4.177616
18.233691 80.656872 -5.457422
17.645093 81.173946 -4.58448
-6.576633 71.629193 35.653874
-5.828576 70.133419 36.24503
-6.316172 72.957852 34.417185
-6.576633 71.629193 35.653874
-5.336534 72.690349 33.944079
-6.069625 74.248924 33.220802
-6.316172 72.957852 34.417185
0.319691 66.102703 34.770808
-0.577763 66.204868 35.351192
8.253277 63.205717 29.779749
7.67247 64.674324 29.297538
7.388975 63.700956 30.36518
9.064311 62.841048 29.090958
8.253277 63.205717 29.779749
21.296326 66.767013 2.931641
20.912488 68.186039 2.698694
20.743075 67.360202 3.811031
-1.252247 100.715408 -30.414773
-1.842769 100.469955 -31.768459
-2.544419 101.337936 -30.744681
13.588573 88.88908 -24.983719
12.98704 89.115925 -26.236753
12.548959 90.091255 -25.583583
15.707138 87.332432 -14.05982
15.10018 87.963566 -13.234329
16.007514 86.705147 -12.824057
-2.746445 96.321884 3.959506
-3.246785 95.847965 5.364389
-2.072683 95.146534 5.234481
-3.079093 103.695545 -18.898737
-3.813119 103.997013 -17.509045
-2.439085 103.252876 -17.464632
-5.148846 104.587257 -23.262456
-4.473482 104.384567 -21.85258
-3.834361 103.949333 -23.127903
-5.885153 104.734436 -24.684454
-5.148846 104.587257 -23.262456
-5.230702 104.189247 -25.977518
-5.885153 104.734436 -24.684454
-3.29829 102.200592 -29.677578
-3.969383 102.92014 -28.539748
-2.624991 102.302937 -28.253165
-2.544419 101.337936 -30.744681
-3.29829 102.200592 -29.677578
-5.384858 78.131458 29.320122
-5.590303 76.869216 30.635454
-1.94828 88.969788 14.420601
-2.285051 88.136677 15.825918
-1.205097 87.57922 15.509774
-1.507846 89.656014 13.034204
-1.94828 88.969788 14.420601
-0.480377 89.115036 12.732851
-1.119896 90.358719 11.662598
-1.507846 89.656014 13.034204
13.33488 60.524817 24.651189
12.673662 60.890636 25.476684
20.228221 51.573435 17.424295
19.628462 52.108301 18.448048
20.281742 52.509912 16.422167
20.228221 51.573435 17.424295
1.777308 94.116264 -36.634278
1.193752 95.357975 -35.940371
2.573085 94.526561 -35.460127
2.297617 92.863877 -37.249466
1.777308 94.116264 -36.634278
3.671635 88.844288 -38.776798
3.189665 90.206856 -38.384089
4.46106 89.395283 -37.771574
4.03102 87.425812 -39.206459
3.671635 88.844288 -38.776798
17.955649 82.86517 -9.333187
18.083227 82.118935 -7.996405
12.500809 86.894627 -29.80379
12.135383 88.104321 -29.319043
13.134421 86.978607 -28.594234
12.849785 85.602055 -30.222511
11.850749 86.727768 -30.94732
12.500809 86.894627 -29.80379
-5.074528 68.72068 36.762863
-4.392611 67.26947 37.29235
-4.829033 69.986538 35.658294
-5.828576 70.133419 36.24503
-5.074528 68.72068 36.762863
2.173024 65.56617 33.741354
1.25501 65.828343 34.262586
2.394367 66.779614 32.69971
2.173024 65.56617 33.741354
3.035173 65.327809 33.219175
4.4188 67.344547 30.533191
3.523333 67.672848 31.080483
4.151982 66.212952 31.63024
5.33148 67.00362 29.935997
4.702831 68.463516 29.386241
4.4188 67.344547 30.533191
5.927809 65.527107 30.482958
6.21184 66.646076 29.336008
5.33148 67.00362 29.935997
6.615865 64.009107 30.945399
5.927809 65.527107 30.482958
7.388975 63.700956 30.36518
6.615865 64.009107 30.945399
20.336161 72.824219 -0.345199
19.849247 74.259029 -0.68088
20.749989 71.373974 0.093069
20.336161 72.824219 -0.345199
20.198207 72.002567 0.881193
21.171244 69.983882 0.356953
20.749989 71.373974 0.093069
21.628566 65.404495 3.176693
21.491377 64.550956 4.1897
16.715895 86.142224 -15.889263
16.252724 86.726295 -14.965334
16.385512 86.639099 -17.215661
16.715895 86.142224 -15.889263
16.065095 87.059879 -18.584451
15.570557 87.799359 -17.64991
16.385512 86.639099 -17.215661
15.699413 87.431786 -19.814698
16.065095 87.059879 -18.584451
-1.741459 97.181682 1.054885
-2.232577 96.744278 2.51825
-1.081225 96.057857 2.366233
-2.357438 98.211513 -0.248717
-1.741459 97.181682 1.054885
-1.206086 97.525093 -0.400733
-2.933985 99.233398 -1.671193
-2.357438 98.211513 -0.248717
-3.066663 101.525466 -7.42132
-2.4673 101.612949 -8.873188
14.671758 59.683277 22.90006
14.009891 60.146347 23.76399
14.856034 60.630899 21.742204
14.671758 59.683277 22.90006
15.326766 59.196013 22.029922
7.50308 88.180431 -35.535013
7.106461 89.504254 -35.093575
8.232803 88.56675 -34.456346
6.723273 87.658481 -36.625078
7.50308 88.180431 -35.535013
6.006418 87.115871 -37.621099
5.659885 88.575325 -37.168262
6.723273 87.658481 -36.625078
5.227632 86.615532 -38.549931
6.006418 87.115871 -37.621099
21.306986 63.683792 5.2951
21.491377 64.550956 4.1897
20.942522 65.074012 5.149377
21.306986 63.683792 5.2951
21.117948 62.864612 6.360516
21.543578 59.325091 7.850356
21.239556 60.706766 7.621668
21.378478 58.475054 8.879547
21.543578 59.325091 7.850356
21.210389 57.536169 9.971079
21.378478 58.475054 8.879547
20.833258 58.95227 9.868613
21.065077 56.716301 10.965338
21.210389 57.536169 9.971079
20.864495 55.958862 12.044524
21.065077 56.716301 10.965338
20.464588 57.255947 12.039331
20.713975 55.104546 13.131934
20.864495 55.958862 12.044524
16.262911 86.050186 -11.572954
15.631509 86.650811 -10.705813
16.493863 85.364715 -10.2802
16.007514 86.705147 -12.824057
16.262911 86.050186 -11.572954
17.256034 84.110218 -9.812121
17.955649 82.86517 -9.333187
-1.874051 101.639392 -10.190931
-2.4673 101.612949 -8.873188
-1.195505 100.845009 -8.882133
-2.483627 102.342212 -11.554254
-1.874051 101.639392 -10.190931
-1.211831 101.574272 -11.563199
-3.064107 103.005032 -13.079444
-2.483627 102.342212 -11.554254
-2.49726 102.915718 -14.500732
-3.73996 103.643658 -14.653652
-3.064107 103.005032 -13.079444
-6.634329 85.805194 22.436737
-7.371125 87.132782 21.513036
9.382378 87.48935 -33.819906
8.232803 88.56675 -34.456346
8.98576 88.813172 -33.378467
9.382378 87.48935 -33.819906
10.46069 86.463077 -33.07777
18.352353 78.112915 -1.66392
18.30275 79.031917 -2.925769
17.726709 79.492558 -2.042826
18.855832 76.827381 -1.257973
18.352353 78.112915 -1.66392
18.279791 77.288021 -0.37503
19.348692 75.533867 -0.886884
18.855832 76.827381 -1.257973
19.283825 74.727649 0.236922
19.849247 74.259029 -0.68088
19.348692 75.533867 -0.886884
18.196366 81.358929 -6.690097
18.083227 82.118935 -7.996405
17.499942 82.696339 -7.170594
18.196366 81.358929 -6.690097
18.233691 80.656872 -5.457422
-1.880069 93.407971 7.878519
-3.012633 94.064785 8.084954
-2.319679 92.80014 9.324109
-5.810604 75.556377 31.918381
-6.069625 74.248924 33.220802
-4.869687 75.294262 31.464768
-5.590303 76.869216 30.635454
-5.810604 75.556377 31.918381
-1.5073 66.408157 35.87606
-2.497405 66.663101 36.396137
-1.267956 67.769985 34.763199
-1.5073 66.408157 35.87606
-0.577763 66.204868 35.351192
0.5969 67.292336 33.73011
0.319691 66.102703 34.770808
1.25501 65.828343 34.262586
9.788101 62.62604 28.341593
9.260562 63.964077 27.962742
9.064311 62.841048 29.090958
10.561457 62.271589 27.570805
9.788101 62.62604 28.341593
21.038886 69.072586 1.569383
20.485636 69.665775 2.448773
20.912488 68.186039 2.698694
21.171244 69.983882 0.356953
21.038886 69.072586 1.569383
21.296326 66.767013 2.931641
21.628566 65.404495 3.176693
-2.505819 100.177441 -33.041727
-3.344807 99.900097 -34.316687
-1.213647 99.554913 -32.711819
-2.505819 100.177441 -33.041727
-1.842769 100.469955 -31.768459
13.397825 88.051025 -26.873188
12.358211 89.2532 -27.473052
12.98704 89.115925 -26.236753
13.747013 86.976853 -27.425204
13.397825 88.051025 -26.873188
15.345389 87.984714 -15.375606
15.707138 87.332432 -14.05982
16.252724 86.726295 -14.965334
15.253629 87.842636 -21.128062
14.804357 88.630989 -20.332063
15.699413 87.431786 -19.814698
14.733926 88.251305 -22.395137
15.253629 87.842636 -21.128062
14.129886 88.66259 -23.737699
13.754532 89.453125 -22.987988
14.733926 88.251305 -22.395137
13.588573 88.88908 -24.983719
14.129886 88.66259 -23.737699
-3.707326 95.238358 6.941537
-3.012633 94.064785 8.084954
-3.707326 95.238358 6.941537
-3.246785 95.847965 5.364389
-2.746445 96.321884 3.959506
-2.232577 96.744278 2.51825
-3.528136 100.209809 -3.117346
-2.933985 99.233398 -1.671193
-2.416216 99.531334 -3.150488
-3.677469 101.370056 -5.937445
-2.39956 100.663155 -6.080516
-3.066663 101.525466 -7.42132
-4.1673 101.115605 -4.432853
-3.677469 101.370056 -5.937445
-3.528136 100.209809 -3.117346
-4.1673 101.115605 -4.432853
-4.437009 104.197876 -16.047401
-3.73996 103.643658 -14.653652
-4.437009 104.197876 -16.047401
-3.813119 103.997013 -17.509045
-3.806062 104.093163 -20.330589
-3.079093 103.695545 -18.898737
-2.432027 103.349026 -20.286175
-3.806062 104.093163 -20.330589
-4.473482 104.384567 -21.85258
-4.623882 103.624478 -27.266295
-5.230702 104.189247 -25.977518
-3.902905 103.587254 -25.826557
-4.623882 103.624478 -27.266295
-3.969383 102.92014 -28.539748
-5.12269 79.250011 28.088355
-5.384858 78.131458 29.320122
-4.387218 77.725654 28.950073
-5.843269 80.742699 27.168166
-5.12269 79.250011 28.088355
-4.845629 80.336895 26.798118
-6.559119 82.191944 26.267509
-5.843269 80.742699 27.168166
-6.264528 83.325226 24.844235
-6.559119 82.191944 26.267509
-5.939649 84.378376 23.477092
-6.264528 83.325226 24.844235
-5.241331 82.882733 24.510786
-5.611131 85.362702 22.103288
-6.634329 85.805194 22.436737
-5.939649 84.378376 23.477092
-4.987037 87.347718 19.267018
-6.008356 87.757008 19.6444
-5.284492 86.38023 20.68555
-4.67589 88.306538 17.832065
-4.987037 87.347718 19.267018
-3.952026 86.92976 18.873214
-4.326251 89.183384 16.382677
-4.67589 88.306538 17.832065
-3.334556 88.707912 16.087503
-2.591373 87.317345 17.176676
-2.285051 88.136677 15.825918
-4.326251 89.183384 16.382677
-3.334556 88.707912 16.087503
-1.66724 91.521511 10.540812
-2.319679 92.80014 9.324109
-0.639771 90.980534 10.239459
-1.66724 91.521511 10.540812
-1.119896 90.358719 11.662598
11.97252 61.412676 26.173299
11.293641 61.856645 26.854102
12.149864 62.397143 25.083355
11.97252 61.412676 26.173299
12.673662 60.890636 25.476684
13.526017 61.496634 23.499541
13.33488 60.524817 24.651189
14.009891 60.146347 23.76399
20.596442 54.187736 14.175175
20.713975 55.104546 13.131934
20.146473 55.581699 14.161759
17.470005 55.689554 20.424892
17.014577 57.055908 20.250301
18.084022 55.219357 19.418515
17.470005 55.689554 20.424892
18.695743 54.720663 18.417991
18.235652 56.115472 18.283918
18.084022 55.219357 19.418515
19.134791 53.372146 18.509379
19.628462 52.108301 18.448048
19.286421 54.268263 17.374782
18.695743 54.720663 18.417991
19.134791 53.372146 18.509379
20.433476 53.382485 15.291583
19.877205 53.792318 16.335584
20.281742 52.509912 16.422167
20.596442 54.187736 14.175175
20.433476 53.382485 15.291583
-2.731054 98.900307 -35.213403
-3.344807 99.900097 -34.316687
-2.160744 97.913395 -36.023573
-2.731054 98.900307 -35.213403
-1.306388 98.275486 -34.795257
-1.5668 96.777324 -36.821815
-2.160744 97.913395 -36.023573
-0.169052 96.118126 -36.359974
0.626726 96.528423 -35.185823
1.193752 95.357975 -35.940371
-1.5668 96.777324 -36.821815
-0.169052 96.118126 -36.359974
2.708842 91.600377 -37.861881
2.297617 92.863877 -37.249466
3.567865 92.021351 -36.766449
2.708842 91.600377 -37.861881
3.189665 90.206856 -38.384089
4.03102 87.425812 -39.206459
5.227632 86.615532 -38.549931
13.057903 84.354042 -30.645168
12.849785 85.602055 -30.222511
12.361797 84.179981 -31.736916
13.057903 84.354042 -30.645168
11.492885 85.31279 -32.389777
12.361797 84.179981 -31.736916
3 0 91 89
3 0 89 92
3 0 92 94
3 1 98 96
3 1 100 98
3 2 103 101
3 2 106 104
3 2 101 106
3 3 110 108
3 3 112 110
3 3 114 112
3 351 350 115
3 4 119 117
3 6 122 120
3 6 124 122
3 7 127 125
3 4 130 128
3 4 117 130
3 9 134 132
3 7 137 135
3 7 125 137
3 352 139 353
3 354 141 355
3 356 355 139
3 354 355 356
3 357 143 358
3 360 359 143
3 5 147 146
3 12 150 148
3 14 153 151
3 14 155 153
3 8 158 156
3 10 161 160
3 12 164 162
3 12 148 164
3 15 361 362
3 15 363 364
3 11 168 166
3 16 171 169
3 16 173 171
3 16 175 173
3 17 178 176
3 17 180 178
3 17 182 180
3 18 185 183
3 18 187 185
3 365 190 366
3 367 366 188
3 365 366 367
3 368 192 369
3 370 194 371
3 372 371 192
3 370 371 372
3 373 196 374
3 375 374 194
3 373 374 375
3 13 199 197
3 19 203 201
3 21 204 90
3 21 205 204
3 22 208 206
3 19 209 93
3 19 201 209
3 24 212 210
3 22 213 95
3 22 206 213
3 26 216 214
3 28 217 97
3 28 376 378
3 378 377 217
3 376 377 378
3 28 379 381
3 379 218 380
3 379 380 381
3 29 219 99
3 29 220 219
3 30 223 221
3 32 224 102
3 32 225 224
3 33 382 384
3 384 383 226
3 382 383 384
3 34 230 228
3 36 231 105
3 36 232 231
3 36 234 232
3 30 235 107
3 30 221 235
3 38 238 236
3 40 239 109
3 40 240 239
3 40 242 240
3 42 243 111
3 42 244 243
3 42 246 244
3 44 247 113
3 44 248 247
3 45 251 249
3 47 252 116
3 47 385 387
3 387 386 252
3 385 386 387
3 48 388 389
3 49 253 118
3 49 254 253
3 20 255 202
3 50 256 121
3 50 257 256
3 50 258 257
3 51 259 123
3 51 260 259
3 52 263 261
3 54 264 126
3 54 265 264
3 23 266 207
3 55 267 129
3 55 268 267
3 55 269 268
3 48 270 131
3 48 390 392
3 392 391 270
3 390 391 392
3 56 273 271
3 58 274 133
3 58 275 274
3 25 276 211
3 59 277 136
3 59 278 277
3 59 279 278
3 52 280 138
3 52 261 280
3 60 393 394
3 60 395 396
3 60 397 399
3 397 281 398
3 397 398 399
3 62 282 140
3 62 283 282
3 400 284 401
3 63 285 142
3 63 286 285
3 63 287 286
3 64 288 144
3 64 289 288
3 64 291 289
3 402 292 403
3 404 403 145
3 402 403 404
3 406 405 292
3 27 407 409
3 409 408 215
3 407 408 409
3 66 410 412
3 410 294 411
3 410 411 412
3 68 295 149
3 68 296 295
3 31 297 222
3 69 298 152
3 69 299 298
3 69 300 299
3 70 301 154
3 70 413 415
3 415 414 301
3 413 414 415
3 53 302 262
3 71 303 157
3 71 304 303
3 416 305 417
3 418 417 227
3 416 417 418
3 72 306 159
3 72 307 306
3 72 308 307
3 57 419 421
3 421 420 272
3 419 420 421
3 35 309 229
3 37 422 424
3 424 423 233
3 422 423 424
3 73 425 427
3 427 426 163
3 425 426 427
3 73 428 429
3 73 430 431
3 66 432 434
3 434 433 165
3 432 433 434
3 66 435 436
3 61 437 438
3 74 310 167
3 74 311 310
3 39 312 237
3 75 313 170
3 75 314 313
3 75 315 314
3 76 439 441
3 441 440 172
3 439 440 441
3 76 442 443
3 76 444 446
3 444 316 445
3 444 445 446
3 77 317 174
3 77 318 317
3 41 319 241
3 78 320 177
3 78 321 320
3 78 322 321
3 79 323 179
3 79 324 323
3 79 325 324
3 80 326 181
3 80 327 326
3 43 328 245
3 81 329 184
3 81 330 329
3 81 331 330
3 82 332 186
3 82 333 332
3 65 334 290
3 83 335 189
3 83 336 335
3 447 337 448
3 84 338 191
3 84 339 338
3 84 340 339
3 85 341 193
3 85 342 341
3 85 343 342
3 86 344 195
3 86 345 344
3 449 346 450
3 452 451 346
3 67 347 293
3 87 453 455
3 455 454 198
3 453 454 455
3 87 456 457
3 46 348 250
3 88 349 200
3 88 458 460
3 460 459 349
3 458 459 460
3 88 461 462
3 89 90 19
3 91 90 89
3 91 21 90
3 92 93 22
3 89 93 92
3 89 19 93
3 94 95 24
3 92 95 94
3 92 22 95
3 96 97 26
3 98 97 96
3 98 28 97
3 98 99 28
3 100 99 98
3 100 29 99
3 101 102 30
3 103 102 101
3 103 32 102
3 464 463 33
3 104 105 34
3 106 105 104
3 106 36 105
3 106 107 36
3 101 107 106
3 101 30 107
3 108 109 38
3 110 109 108
3 110 40 109
3 110 111 40
3 112 111 110
3 112 42 111
3 112 113 42
3 114 113 112
3 114 44 113
3 115 116 45
3 465 116 466
3 467 466 115
3 465 466 467
3 468 47 469
3 470 469 116
3 468 469 470
3 117 118 48
3 119 118 117
3 119 49 118
3 120 121 20
3 122 121 120
3 122 50 121
3 122 123 50
3 124 123 122
3 124 51 123
3 125 126 52
3 127 126 125
3 127 54 126
3 128 129 23
3 130 129 128
3 130 55 129
3 130 131 55
3 117 131 130
3 117 48 131
3 132 133 56
3 134 133 132
3 134 58 133
3 135 136 25
3 137 136 135
3 137 59 136
3 137 138 59
3 125 138 137
3 125 52 138
3 139 471 472
3 139 473 475
3 473 60 474
3 473 474 475
3 139 140 60
3 141 140 139
3 141 62 140
3 476 142 477
3 143 478 480
3 478 142 479
3 478 479 480
3 143 63 142
3 143 144 63
3 481 144 482
3 483 482 143
3 481 482 483
3 484 64 485
3 486 485 144
3 484 485 486
3 487 145 488
3 489 488 64
3 487 488 489
3 490 145 491
3 493 492 145
3 146 494 495
3 147 496 498
3 498 497 146
3 496 497 498
3 147 499 500
3 502 501 27
3 148 149 66
3 150 149 148
3 150 68 149
3 151 152 31
3 153 152 151
3 153 69 152
3 153 154 69
3 155 154 153
3 155 70 154
3 156 157 53
3 158 157 156
3 158 71 157
3 503 159 504
3 505 159 506
3 507 72 508
3 509 508 159
3 507 508 509
3 511 510 72
3 160 512 514
3 514 513 57
3 512 513 514
3 161 515 517
3 517 516 160
3 515 516 517
3 161 518 519
3 521 520 35
3 162 163 37
3 164 163 162
3 164 73 163
3 164 165 73
3 148 165 164
3 148 66 165
3 166 167 61
3 168 167 166
3 168 74 167
3 169 170 39
3 171 170 169
3 171 75 170
3 171 172 75
3 173 172 171
3 173 76 172
3 173 174 76
3 175 174 173
3 175 77 174
3 176 177 41
3 178 177 176
3 178 78 177
3 178 179 78
3 180 179 178
3 180 79 179
3 180 181 79
3 182 181 180
3 182 80 181
3 183 184 43
3 185 184 183
3 185 81 184
3 185 186 81
3 187 186 185
3 187 82 186
3 188 189 65
3 190 189 188
3 190 83 189
3 522 191 523
3 192 524 526
3 524 191 525
3 524 525 526
3 192 84 191
3 192 193 84
3 194 193 192
3 194 85 193
3 194 195 85
3 196 195 194
3 196 86 195
3 197 198 67
3 199 198 197
3 199 87 198
3 527 200 528
3 529 528 46
3 527 528 529
3 530 200 531
3 532 88 533
3 534 533 200
3 532 533 534
3 536 535 88
3 201 202 4
3 203 202 201
3 203 20 202
3 90 203 19
3 204 203 90
3 204 20 203
3 204 120 20
3 205 120 204
3 205 6 120
3 206 207 7
3 208 207 206
3 208 23 207
3 93 208 22
3 209 208 93
3 209 23 208
3 209 128 23
3 201 128 209
3 201 4 128
3 210 211 9
3 212 211 210
3 212 25 211
3 95 212 24
3 213 212 95
3 213 25 212
3 213 135 25
3 206 135 213
3 206 7 135
3 214 215 5
3 216 215 214
3 216 27 215
3 97 216 26
3 217 216 97
3 217 27 216
3 217 537 539
3 539 538 27
3 537 538 539
3 541 540 217
3 218 542 543
3 218 544 545
3 99 218 28
3 219 218 99
3 219 546 548
3 548 547 218
3 546 547 548
3 219 549 550
3 220 551 553
3 553 552 219
3 551 552 553
3 220 554 555
3 221 222 12
3 223 222 221
3 223 31 222
3 102 223 30
3 224 223 102
3 224 31 223
3 224 151 31
3 225 151 224
3 225 14 151
3 226 227 8
3 556 227 557
3 558 557 226
3 556 557 558
3 560 559 227
3 562 561 33
3 228 229 10
3 230 229 228
3 230 35 229
3 105 230 34
3 231 230 105
3 231 35 230
3 231 563 565
3 565 564 35
3 563 564 565
3 232 566 568
3 568 567 231
3 566 567 568
3 232 569 570
3 232 571 573
3 571 233 572
3 571 572 573
3 234 233 232
3 234 37 233
3 107 234 36
3 235 234 107
3 235 37 234
3 235 162 37
3 221 162 235
3 221 12 162
3 574 15 575
3 236 237 11
3 238 237 236
3 238 39 237
3 109 238 38
3 239 238 109
3 239 39 238
3 239 169 39
3 240 169 239
3 240 16 169
3 240 241 16
3 242 241 240
3 242 41 241
3 111 242 40
3 243 242 111
3 243 41 242
3 243 176 41
3 244 176 243
3 244 17 176
3 244 245 17
3 246 245 244
3 246 43 245
3 113 246 42
3 247 246 113
3 247 43 246
3 247 183 43
3 248 183 247
3 248 18 183
3 249 250 13
3 251 250 249
3 251 46 250
3 116 251 45
3 252 251 116
3 252 46 251
3 252 576 578
3 578 577 46
3 576 577 578
3 580 579 252
3 118 581 583
3 583 582 48
3 581 582 583
3 253 584 586
3 586 585 118
3 584 585 586
3 253 587 588
3 253 589 591
3 589 146 590
3 589 590 591
3 254 146 253
3 254 5 146
3 202 119 4
3 255 119 202
3 255 49 119
3 121 255 20
3 256 255 121
3 256 49 255
3 256 254 49
3 257 254 256
3 257 5 254
3 257 214 5
3 258 214 257
3 258 26 214
3 123 258 50
3 259 258 123
3 259 26 258
3 259 96 26
3 260 96 259
3 260 1 96
3 261 262 2
3 263 262 261
3 263 53 262
3 126 263 52
3 264 263 126
3 264 53 263
3 264 156 53
3 265 156 264
3 265 8 156
3 207 127 7
3 266 127 207
3 266 54 127
3 129 266 23
3 267 266 129
3 267 54 266
3 267 265 54
3 268 265 267
3 268 8 265
3 268 226 8
3 269 226 268
3 269 33 226
3 131 269 55
3 270 269 131
3 270 33 269
3 270 592 594
3 594 593 33
3 592 593 594
3 596 595 270
3 271 597 599
3 597 272 598
3 597 598 599
3 273 272 271
3 273 57 272
3 133 273 56
3 274 273 133
3 274 57 273
3 274 160 57
3 275 160 274
3 275 10 160
3 211 134 9
3 276 134 211
3 276 58 134
3 136 276 25
3 277 276 136
3 277 58 276
3 277 275 58
3 278 275 277
3 278 10 275
3 278 228 10
3 279 228 278
3 279 34 228
3 138 279 59
3 280 279 138
3 280 34 279
3 280 104 34
3 261 104 280
3 261 2 104
3 281 600 601
3 281 602 604
3 602 61 603
3 602 603 604
3 140 281 60
3 282 281 140
3 282 61 281
3 282 166 61
3 283 166 282
3 283 11 166
3 605 141 606
3 284 607 609
3 607 141 608
3 607 608 609
3 284 62 141
3 142 610 612
3 610 284 611
3 610 611 612
3 285 284 142
3 285 62 284
3 285 283 62
3 286 283 285
3 286 11 283
3 286 236 11
3 287 236 286
3 287 38 236
3 144 287 63
3 288 287 144
3 288 38 287
3 288 108 38
3 289 108 288
3 289 3 108
3 289 290 3
3 291 290 289
3 291 65 290
3 145 291 64
3 292 291 145
3 292 65 291
3 292 188 65
3 613 188 614
3 615 614 292
3 613 614 615
3 617 616 188
3 215 147 5
3 618 147 619
3 620 619 215
3 618 619 620
3 622 621 147
3 624 623 27
3 625 293 626
3 294 627 629
3 627 293 628
3 627 628 629
3 294 67 293
3 149 294 66
3 295 294 149
3 295 67 294
3 295 197 67
3 296 197 295
3 296 13 197
3 222 150 12
3 297 150 222
3 297 68 150
3 152 297 31
3 298 297 152
3 298 68 297
3 298 296 68
3 299 296 298
3 299 13 296
3 299 249 13
3 300 249 299
3 300 45 249
3 154 300 69
3 301 300 154
3 301 45 300
3 301 115 45
3 630 115 631
3 632 631 301
3 630 631 632
3 634 633 115
3 262 103 2
3 302 103 262
3 302 32 103
3 157 302 53
3 303 302 157
3 303 32 302
3 303 225 32
3 304 225 303
3 304 14 225
3 227 158 8
3 305 158 227
3 305 71 158
3 159 635 637
3 635 305 636
3 635 636 637
3 306 305 159
3 306 71 305
3 306 304 71
3 307 304 306
3 307 14 304
3 307 155 14
3 308 155 307
3 308 70 155
3 638 308 639
3 640 639 72
3 638 639 640
3 641 308 642
3 643 70 644
3 645 644 308
3 643 644 645
3 647 646 70
3 272 648 649
3 651 650 272
3 653 652 57
3 229 161 10
3 309 161 229
3 309 654 656
3 656 655 161
3 654 655 656
3 657 309 658
3 659 658 35
3 657 658 659
3 660 309 661
3 663 662 309
3 233 664 665
3 667 666 233
3 163 668 670
3 670 669 37
3 668 669 670
3 672 671 163
3 165 673 675
3 675 674 73
3 673 674 675
3 677 676 165
3 167 678 680
3 680 679 61
3 678 679 680
3 310 681 683
3 683 682 167
3 681 682 683
3 310 684 685
3 310 686 687
3 311 688 690
3 690 689 310
3 688 689 690
3 311 691 693
3 691 15 692
3 691 692 693
3 237 168 11
3 312 168 237
3 312 74 168
3 170 312 39
3 313 312 170
3 313 74 312
3 313 311 74
3 314 311 313
3 314 15 311
3 314 694 696
3 696 695 15
3 694 695 696
3 315 697 699
3 699 698 314
3 697 698 699
3 315 700 701
3 172 315 75
3 702 315 703
3 704 703 172
3 702 703 704
3 706 705 315
3 707 271 708
3 316 709 711
3 709 271 710
3 709 710 711
3 316 56 271
3 174 316 76
3 317 316 174
3 317 56 316
3 317 132 56
3 318 132 317
3 318 9 132
3 241 175 16
3 319 175 241
3 319 77 175
3 177 319 41
3 320 319 177
3 320 77 319
3 320 318 77
3 321 318 320
3 321 9 318
3 321 210 9
3 322 210 321
3 322 24 210
3 179 322 78
3 323 322 179
3 323 24 322
3 323 94 24
3 324 94 323
3 324 0 94
3 324 91 0
3 325 91 324
3 325 21 91
3 181 325 79
3 326 325 181
3 326 21 325
3 326 205 21
3 327 205 326
3 327 6 205
3 245 182 17
3 328 182 245
3 328 80 182
3 184 328 43
3 329 328 184
3 329 80 328
3 329 327 80
3 330 327 329
3 330 6 327
3 330 124 6
3 331 124 330
3 331 51 124
3 186 331 81
3 332 331 186
3 332 51 331
3 332 260 51
3 333 260 332
3 333 1 260
3 290 114 3
3 334 114 290
3 334 44 114
3 189 334 65
3 335 334 189
3 335 44 334
3 335 248 44
3 336 248 335
3 336 18 248
3 712 190 713
3 337 714 716
3 714 190 715
3 714 715 716
3 337 83 190
3 191 717 719
3 717 337 718
3 717 718 719
3 338 337 191
3 338 83 337
3 338 336 83
3 339 336 338
3 339 18 336
3 339 187 18
3 340 187 339
3 340 82 187
3 193 340 84
3 341 340 193
3 341 82 340
3 341 333 82
3 342 333 341
3 342 1 333
3 342 100 1
3 343 100 342
3 343 29 100
3 195 343 85
3 344 343 195
3 344 29 343
3 344 220 29
3 345 220 344
3 345 720 722
3 722 721 220
3 720 721 722
3 723 196 724
3 725 196 726
3 727 86 728
3 729 728 196
3 727 728 729
3 346 730 731
3 346 732 734
3 732 86 733
3 732 733 734
3 346 345 86
3 735 345 736
3 737 736 346
3 735 736 737
3 739 738 345
3 293 740 741
3 347 742 744
3 744 743 293
3 742 743 744
3 347 745 746
3 198 347 67
3 747 347 748
3 749 748 198
3 747 748 749
3 751 750 347
3 250 199 13
3 348 199 250
3 348 87 199
3 200 348 46
3 349 348 200
3 349 87 348
3 349 752 754
3 754 753 87
3 752 753 754
3 756 755 349
3 758 757 88
3 759 47 760
3 761 47 762
3 764 763 47
