ply
format ascii 1.0
element vertex 188
property float x
property float y
property float z
element face 174
property list uchar int vertex_index
end_header
25.076122 7.595218 -22.21653
25.195616 -3.933396 -8.002165
24.891895 1.17836 -14.593688
24.794682 -1.468041 -11.107872
27.859087 -1.779743 -14.568269
27.882368 -4.733864 -10.970621
28.120338 4.992857 -22.296413
28.331184 8.843018 -26.606977
25.033373 4.244755 -18.36076
27.960791 1.498735 -18.365065
25.054792 -2.841982 -9.5476
26.32527 -3.197081 -10.933547
26.535955 -4.550164 -9.331366
29.693041 3.773641 -22.517412
29.784473 5.586611 -24.49283
23.405874 1.365841 -12.841656
23.363482 2.762305 -14.566969
23.367144 4.276382 -16.430588
24.812096 2.716088 -16.330843
26.383698 2.873666 -18.251097
26.451361 1.266361 -16.501534
29.373497 -3.200797 -14.666385
29.338476 -1.524053 -16.51383
23.334837 0.252174 -11.221595
24.839849 -0.275582 -12.727106
26.389563 -0.293051 -14.619729
26.27965 -1.764397 -12.708573
27.749031 -3.256641 -12.6768
29.304518 -4.767179 -12.730738
26.689072 6.252254 -22.3011
26.638733 8.186471 -24.367916
28.270779 6.897289 -24.46884
29.80393 7.603901 -26.628431
23.512123 7.274281 -20.174498
23.572025 5.627775 -18.305048
24.989634 6.010427 -20.336126
26.540987 4.523632 -20.254681
28.115641 3.211416 -20.381588
29.578751 1.85161 -20.393539
27.868387 -0.180769 -16.403662
29.518801 0.063115 -18.43416
25.556522 -5.021492 -6.597411
27.064228 -6.834277 -6.236911
26.577856 -5.607552 -7.682651
27.896688 -6.002172 -9.213383
26.886471 10.049119 -26.619652
25.125204 -3.387689 -8.774883
24.459018 -2.513184 -8.946036
24.529431 -3.058891 -8.173319
25.135867 8.458967 -23.237572
24.309209 8.293944 -22.206925
30.471342 4.021314 -23.544422
30.424169 3.098477 -22.557835
30.08936 -3.112142 -15.597279
30.089851 -3.922667 -14.68961
24.06476 -0.607933 -11.164734
23.467014 -0.392992 -10.492449
24.196936 -1.253099 -10.435588
30.563688 6.981734 -26.713489
29.794201 6.595256 -25.560631
30.553959 5.97309 -25.645688
30.578573 7.977654 -27.772596
30.563688 6.981734 -26.713489
22.789983 7.252044 -19.252733
22.801038 8.015604 -20.191065
30.25452 -0.651703 -18.476233
29.428638 -0.730469 -17.473995
30.164358 -1.445287 -17.516067
30.325707 0.275448 -19.518628
30.25452 -0.651703 -18.476233
25.784857 -5.512702 -5.889569
25.121656 -4.6201 -6.093865
27.623745 -7.044937 -6.947742
27.739555 -7.584774 -6.113796
27.380559 -6.431575 -7.670612
26.821042 -6.220915 -6.959781
27.623745 -7.044937 -6.947742
28.039975 -6.628885 -8.435978
27.237272 -5.804862 -8.448017
27.380559 -6.431575 -7.670612
24.326991 -1.94007 -9.655451
24.459018 -2.513184 -8.946036
24.924737 -2.155011 -10.327736
24.196936 -1.253099 -10.435588
24.326991 -1.94007 -9.655451
30.517058 4.927799 -24.532131
29.738757 4.680126 -23.505121
30.471342 4.021314 -23.544422
30.553959 5.97309 -25.645688
30.517058 4.927799 -24.532131
22.723291 2.242449 -12.942251
22.715178 1.70147 -12.157033
22.702095 2.940681 -13.804907
22.723291 2.242449 -12.942251
23.384678 2.064073 -13.704313
22.694501 3.561738 -14.618333
22.702095 2.940681 -13.804907
23.365313 3.519343 -15.498779
22.696332 4.318776 -15.550142
22.694501 3.561738 -14.618333
30.071849 -2.27377 -16.521001
29.355987 -2.362425 -15.590107
30.08936 -3.112142 -15.597279
30.164358 -1.445287 -17.516067
30.071849 -2.27377 -16.521001
28.386964 9.861928 -27.759906
29.104439 9.2205 -27.714824
22.759674 0.573389 -10.603575
23.467014 -0.392992 -10.492449
22.679659 1.144637 -11.347003
22.759674 0.573389 -10.603575
23.370356 0.809008 -12.031626
22.715178 1.70147 -12.157033
22.679659 1.144637 -11.347003
30.055361 -4.705858 -13.721787
30.089851 -3.922667 -14.68961
29.339008 -3.983988 -13.698562
24.666736 -3.54883 -7.454722
24.529431 -3.058891 -8.173319
29.840812 8.600941 -27.725552
29.104439 9.2205 -27.714824
29.067557 8.22346 -26.617704
29.840812 8.600941 -27.725552
30.578573 7.977654 -27.772596
23.527209 8.133475 -21.18591
22.801038 8.015604 -20.191065
24.294123 7.43475 -21.195514
24.309209 8.293944 -22.206925
23.527209 8.133475 -21.18591
22.69071 5.064848 -16.491546
22.696332 4.318776 -15.550142
22.79315 5.740545 -17.428776
22.69071 5.064848 -16.491546
23.469584 4.952078 -17.367818
22.819935 6.42879 -18.318008
22.79315 5.740545 -17.428776
23.542074 6.451028 -19.239773
22.789983 7.252044 -19.252733
22.819935 6.42879 -18.318008
30.367024 2.137461 -21.495899
30.424169 3.098477 -22.557835
29.635896 2.812626 -21.455475
30.355682 1.169695 -20.498317
29.548776 0.957363 -19.413849
30.325707 0.275448 -19.518628
30.367024 2.137461 -21.495899
30.355682 1.169695 -20.498317
24.847189 -4.092878 -6.752345
25.121656 -4.6201 -6.093865
25.376069 -4.477444 -7.299788
24.666736 -3.54883 -7.454722
24.847189 -4.092878 -6.752345
27.219279 -7.259039 -5.499792
27.739555 -7.584774 -6.113796
26.538709 -6.419094 -5.709319
27.219279 -7.259039 -5.499792
26.310375 -5.927885 -6.417161
25.784857 -5.512702 -5.889569
26.538709 -6.419094 -5.709319
28.658985 -6.808865 -9.134725
28.039975 -6.628885 -8.435978
28.57743 -6.13173 -9.986611
28.658985 -6.808865 -9.134725
28.57027 -5.497576 -10.86523
27.889528 -5.368018 -10.092002
28.57743 -6.13173 -9.986611
29.281346 -5.514233 -11.745289
28.593443 -4.750521 -11.85068
28.57027 -5.497576 -10.86523
30.028882 -5.500691 -12.743489
29.281346 -5.514233 -11.745289
30.055361 -4.705858 -13.721787
30.028882 -5.500691 -12.743489
25.917172 8.754593 -24.313265
25.135867 8.458967 -23.237572
25.857428 7.890845 -23.292223
26.041041 9.685917 -25.439133
25.917172 8.754593 -24.313265
26.762602 9.117795 -25.493784
26.038525 10.622128 -26.467883
26.041041 9.685917 -25.439133
27.664608 10.464978 -27.766243
27.608828 9.446068 -26.613315
28.386964 9.861928 -27.759906
26.810696 10.986811 -27.574818
27.664608 10.464978 -27.766243
26.038525 10.622128 -26.467883
26.810696 10.986811 -27.574818
3 1 46 48
3 46 10 47
3 46 47 48
3 1 12 10
3 0 49 50
3 52 51 13
3 2 16 15
3 2 18 16
3 2 20 18
3 54 53 21
3 3 55 57
3 55 23 56
3 55 56 57
3 3 24 23
3 3 26 24
3 5 27 11
3 5 28 27
3 6 31 29
3 58 32 59
3 60 59 14
3 58 59 60
3 62 61 32
3 63 33 64
3 8 34 17
3 8 35 34
3 8 36 35
3 9 37 19
3 9 38 37
3 4 39 25
3 65 40 66
3 67 66 22
3 65 66 67
3 69 68 40
3 70 41 71
3 72 42 73
3 74 43 75
3 76 75 42
3 74 75 76
3 77 44 78
3 79 78 43
3 77 78 79
3 7 45 30
3 10 80 81
3 10 82 84
3 82 3 83
3 82 83 84
3 10 11 3
3 12 11 10
3 12 5 11
3 13 14 6
3 85 14 86
3 87 86 13
3 85 86 87
3 89 88 14
3 15 90 91
3 16 92 94
3 94 93 15
3 92 93 94
3 16 95 96
3 16 97 99
3 97 17 98
3 97 98 99
3 18 17 16
3 18 8 17
3 18 19 8
3 20 19 18
3 20 9 19
3 21 22 4
3 100 22 101
3 102 101 21
3 100 101 102
3 104 103 22
3 106 105 7
3 23 107 108
3 23 109 110
3 23 111 113
3 111 15 112
3 111 112 113
3 24 15 23
3 24 2 15
3 24 25 2
3 26 25 24
3 26 4 25
3 11 26 3
3 27 26 11
3 27 4 26
3 27 21 4
3 28 21 27
3 28 114 116
3 116 115 21
3 114 115 116
3 117 1 118
3 29 30 0
3 31 30 29
3 31 7 30
3 14 31 6
3 32 31 14
3 32 7 31
3 32 119 121
3 121 120 7
3 119 120 121
3 123 122 32
3 33 124 125
3 33 126 128
3 126 0 127
3 126 127 128
3 17 129 130
3 34 131 133
3 133 132 17
3 131 132 133
3 34 134 135
3 34 136 138
3 136 33 137
3 136 137 138
3 35 33 34
3 35 0 33
3 35 29 0
3 36 29 35
3 36 6 29
3 19 36 8
3 37 36 19
3 37 6 36
3 37 13 6
3 38 13 37
3 38 139 141
3 141 140 13
3 139 140 141
3 25 20 2
3 39 20 25
3 39 9 20
3 22 39 4
3 40 39 22
3 40 9 39
3 40 38 9
3 142 38 143
3 144 143 40
3 142 143 144
3 146 145 38
3 41 147 148
3 41 149 151
3 149 1 150
3 149 150 151
3 42 152 153
3 42 154 155
3 42 156 158
3 156 41 157
3 156 157 158
3 43 41 42
3 43 1 41
3 43 12 1
3 44 12 43
3 44 5 12
3 159 44 160
3 161 44 162
3 163 5 164
3 165 164 44
3 163 164 165
3 166 28 167
3 168 167 5
3 166 167 168
3 169 28 170
3 172 171 28
3 30 173 175
3 175 174 0
3 173 174 175
3 45 176 178
3 178 177 30
3 176 177 178
3 45 179 180
3 181 45 182
3 183 182 7
3 181 182 183
3 184 45 185
3 187 186 45
