ply
format ascii 1.0
element vertex 436
property float x
property float y
property float z
element face 488
property list uchar int vertex_index
end_header
-19.035164 72.169449 -20.290688
-12.425122 54.121861 -24.873646
-19.792305 77.683273 -14.415194
-15.894688 83.499794 -24.074327
-15.100258 75.685143 -28.206007
-21.89492 69.595612 -5.315943
-22.066885 65.975075 -12.66338
-19.004997 59.587944 -16.720751
-15.85246 64.37944 -23.019209
-15.447488 86.149582 -20.582376
-13.47189 84.828743 -28.69005
-20.668051 70.224541 -0.83631
-19.976002 75.00563 -5.379596
-19.889597 75.147667 -17.594931
-21.348673 71.799477 -13.311667
-20.707226 69.244545 -16.264057
-20.866219 63.287777 -15.079028
-19.313993 66.027023 -18.368132
-17.45681 62.258091 -19.724245
-17.604107 68.542824 -22.009205
-13.857501 71.04628 -29.240585
-11.38198 55.44355 -28.254183
-18.947313 79.363457 -10.289655
-17.477592 83.075348 -15.45489
-18.043848 81.064522 -19.243126
-18.006306 78.039391 -22.133999
-17.197039 74.412445 -24.261696
-15.81554 79.889969 -26.579479
-13.653937 52.631321 -21.55051
-21.134003 65.403389 3.053472
-22.513515 64.84481 -1.261748
-23.368347 63.756958 -5.420521
-21.057508 73.776772 -9.677334
-22.478725 67.981865 -9.298411
-23.325575 62.245419 -9.051966
-22.367254 59.721287 -11.920923
-20.654762 56.744801 -13.944818
-15.353825 57.491364 -20.660889
-13.958344 59.415379 -23.849436
-15.834935 70.027657 -25.490309
-14.122559 65.401917 -26.403276
-12.566044 60.563324 -27.199631
-19.238352 75.366272 -3.165451
-18.726467 77.9496 -5.747951
-19.539656 73.771912 -19.087435
-20.376101 72.277168 -16.960701
-19.926653 70.751328 -18.202469
-20.102865 67.706093 -17.394646
-19.27042 69.214073 -19.315285
-18.490591 67.390282 -20.155788
-18.387766 70.473465 -21.258465
-11.900061 54.910618 -26.570856
-15.780288 84.865997 -22.404896
-16.879234 83.636909 -19.857021
-17.064867 82.335747 -21.575705
-18.172026 79.57122 -20.67626
-17.073925 80.878639 -23.104769
-17.031721 79.02137 -24.219194
-15.966636 81.755737 -25.396528
-13.482472 82.954926 -29.825516
-13.439619 48.981102 -20.741711
-14.252924 51.683689 -20.107439
-21.406223 69.811111 -3.099631
-21.636675 67.664482 -1.142353
-22.295786 67.104195 -3.343911
-23.025717 64.478355 -3.515241
-22.684589 66.759514 -5.421165
-19.503975 78.535561 -12.486132
-20.097431 76.639847 -10.106323
-20.504131 75.72982 -11.886512
-21.78817 68.861893 -12.985924
-21.93696 69.976273 -11.303857
-22.422909 66.914909 -11.005127
-22.952602 65.085121 -9.226655
-22.716724 64.153267 -10.85032
-22.950268 61.109642 -10.615059
-22.324694 62.947586 -12.131008
-20.068932 61.410843 -15.863936
-20.827814 60.02454 -14.44767
-19.845474 58.194256 -15.2747
-17.977751 57.480202 -17.237047
-16.635056 63.257915 -21.320906
-16.346647 59.945427 -20.277931
-15.631886 60.996468 -21.792269
-14.638823 58.533211 -22.24951
-14.89107 61.934082 -23.414854
-16.185335 75.188866 -26.230818
-16.596291 72.157242 -24.902761
-15.597353 72.993469 -26.860346
-14.034595 68.285751 -27.86471
-13.329105 65.981529 -28.137232
-13.352017 62.997948 -26.705345
-12.60647 63.544796 -28.460585
-11.91768 60.868813 -28.798819
-14.156043 87.475716 -23.24012
-14.561402 85.909584 -24.896545
-14.70355 84.298325 -26.449383
-13.270989 86.703285 -27.27462
-20.440155 72.542633 -3.200483
-21.048994 72.20459 -5.339927
-19.922279 76.517921 -16.225636
-20.649185 74.835785 -13.918686
-20.643553 73.647041 -15.44956
-21.094313 70.837112 -14.960418
-21.380365 67.823425 -14.510477
-21.573601 64.587616 -13.922339
-20.864107 66.275253 -15.624177
-20.123369 64.566666 -16.617033
-19.246082 62.691372 -17.414698
-18.269958 61.066505 -18.169508
-18.478825 64.159836 -19.0319
-17.679077 65.507431 -20.735655
-16.795576 66.273018 -22.40317
-14.500572 73.472946 -28.846483
-18.161274 80.177429 -8.173092
-17.615314 82.080345 -10.7848
-18.23192 81.389519 -12.86313
-18.725861 80.464859 -14.731366
-16.46632 84.826553 -17.974806
-17.829313 82.198723 -17.43203
-18.979362 79.450531 -16.801128
-19.095219 78.149376 -18.410395
-18.984482 76.753433 -19.848265
-18.622671 75.226868 -21.243061
-18.145788 73.387741 -22.273649
-17.650948 76.341919 -23.383801
-16.643517 77.278847 -25.406734
-15.545347 77.727608 -27.468924
-14.767299 82.417023 -27.663015
-14.641724 80.258514 -28.730673
-14.280143 78.287498 -29.660641
-13.04883 53.629486 -23.192368
-21.387058 62.734417 4.913757
-22.113611 62.680321 2.685164
-20.931101 67.824745 1.122192
-21.870922 65.22113 0.835355
-22.756554 62.452831 0.573774
-19.490252 77.321014 -7.840934
-20.556442 74.631485 -7.637829
-21.540514 71.646935 -7.466649
-21.306416 72.873886 -11.701124
-21.84729 70.908112 -9.436472
-22.311697 68.806465 -7.284722
-22.938154 65.994064 -7.316799
-23.461605 63.078388 -7.346342
-21.613262 61.524765 -13.474925
-21.623964 58.394073 -12.989436
-17.232428 59.004185 -18.710884
-16.161358 56.657784 -19.17783
-15.152761 54.169891 -19.610638
-14.459661 55.075455 -21.057835
-13.801051 55.978157 -22.603994
-13.142571 56.788914 -24.271809
-17.506281 71.493088 -23.115316
-16.764822 69.329475 -23.680523
-15.923971 67.337746 -24.243851
-14.860387 70.702179 -27.392378
-14.941196 67.892677 -26.115395
-14.989541 65.061096 -24.737007
-14.12359 62.551716 -25.041231
-13.236779 59.996063 -25.520069
-12.478397 57.336563 -25.993746
-11.906801 57.967453 -27.65444
-11.330428 58.436722 -29.33025
-18.065261 79.196453 -5.75729
-18.357772 77.985836 -4.532617
-12.174961 52.908343 -25.212513
-12.418801 52.49086 -24.362838
-12.162592 54.516239 -25.722251
-11.91243 53.302721 -26.061118
-12.174961 52.908343 -25.212513
-14.576831 51.146387 -19.405713
-14.148135 49.971037 -19.7218
-18.903844 57.963777 -16.324198
-19.324082 57.266934 -15.601173
-19.425235 58.8911 -15.997725
-18.491374 58.534073 -16.978899
-18.390221 56.909906 -16.582346
-18.903844 57.963777 -16.324198
-12.908107 66.127575 -29.013339
-13.2292 67.429378 -28.936943
-12.54679 64.909209 -29.175016
-12.967788 64.763162 -28.298908
-12.908107 66.127575 -29.013339
-12.202663 63.585911 -29.333323
-12.54679 64.909209 -29.175016
-13.522456 87.922139 -24.504752
-13.235131 88.717011 -23.607387
-13.725136 87.139072 -25.332964
-14.358722 86.69265 -24.068333
-13.522456 87.922139 -24.504752
-13.079929 87.535923 -26.522002
-13.916196 86.306434 -26.085583
-13.725136 87.139072 -25.332964
-11.205663 54.057537 -28.55482
-11.428099 53.820228 -27.716714
-11.109937 55.568157 -29.122771
-11.205663 54.057537 -28.55482
-16.829073 83.390972 -10.924613
-17.221259 82.32386 -9.566695
-17.854756 82.232434 -14.15901
-17.494748 82.751423 -13.087264
-17.117584 83.594337 -14.383144
-15.956904 85.488067 -19.278591
-15.63891 86.126937 -18.348978
-15.129494 86.788452 -19.652763
-13.975441 80.506615 -29.813771
-14.062098 81.60672 -29.278095
-13.395815 81.854821 -30.361192
-13.79465 79.521107 -30.278754
-14.460933 79.273006 -29.195657
-13.975441 80.506615 -29.813771
-13.654264 78.318123 -30.681859
-13.79465 79.521107 -30.278754
-13.298148 51.471445 -21.919561
-13.190988 49.646335 -21.515161
-13.546778 50.806212 -21.14611
-13.351384 53.130403 -22.371439
-12.995594 51.970528 -22.74049
-13.298148 51.471445 -21.919561
-21.260531 64.068903 3.983615
-20.84374 64.070086 5.184311
-20.717213 65.404572 4.254169
-20.799576 69.024643 0.142941
-20.368113 69.214519 1.268134
-20.236587 70.414417 0.288883
-22.927741 63.489748 -1.518906
-23.049261 62.293759 -0.601145
-22.635035 63.64882 -0.343987
-23.547342 62.70376 -4.629933
-23.376027 63.064459 -3.677294
-23.197032 64.117656 -4.467881
-23.645893 62.342411 -5.56599
-23.547342 62.70376 -4.629933
-23.613726 61.09955 -8.24971
-23.681742 61.516035 -7.396898
-23.39359 62.661903 -8.199154
-23.449618 60.699995 -9.095471
-23.613726 61.09955 -8.24971
-22.73086 58.827564 -11.181237
-23.022368 59.521742 -10.528306
-22.658761 60.415464 -11.267991
-22.381048 58.038807 -11.760767
-22.73086 58.827564 -11.181237
-21.061761 55.926701 -13.303554
-21.546362 56.751337 -12.825863
-21.139363 57.569437 -13.467127
-20.527667 55.027935 -13.711616
-21.061761 55.926701 -13.303554
-11.253442 59.765656 -29.990234
-11.624054 59.652768 -29.064535
-11.547068 60.981701 -29.724518
-11.002651 58.386467 -30.203675
-11.253442 59.765656 -29.990234
-18.613715 76.694172 -3.241367
-18.809264 75.483765 -1.990101
-18.982409 76.657936 -4.456701
-18.613715 76.694172 -3.241367
-18.357772 77.985836 -4.532617
-11.68714 53.553763 -26.875051
-11.91243 53.302721 -26.061118
-11.64102 55.177084 -27.41252
-11.428099 53.820228 -27.716714
-11.68714 53.553763 -26.875051
-16.688613 84.432724 -15.721522
-17.117584 83.594337 -14.383144
-12.754891 84.155407 -30.3752
-13.477181 83.891835 -29.257783
-12.7496 85.092315 -29.807467
-12.796656 83.038125 -30.913327
-12.754891 84.155407 -30.3752
-13.395815 81.854821 -30.361192
-12.796656 83.038125 -30.913327
-13.741483 48.619743 -20.038936
-13.429962 47.172077 -20.272732
-13.846272 50.332396 -20.424575
-13.741483 48.619743 -20.038936
-14.148135 49.971037 -19.7218
-20.589251 66.72522 3.288957
-20.717213 65.404572 4.254169
-19.694359 56.414708 -14.966528
-20.099004 55.68998 -14.301588
-20.250118 57.469529 -14.609759
-19.694359 56.414708 -14.966528
-19.324082 57.266934 -15.601173
-17.821743 55.74749 -16.837395
-18.390221 56.909906 -16.582346
-17.439619 56.504837 -17.526848
-17.821743 55.74749 -16.837395
-13.581945 68.58149 -28.800682
-13.946048 69.666016 -28.552647
-13.493398 69.961754 -29.488619
-13.68185 67.13364 -28.000971
-13.581945 68.58149 -28.800682
-13.2292 67.429378 -28.936943
-11.858268 62.24792 -29.50244
-12.262075 62.206805 -28.629702
-12.202663 63.585911 -29.333323
-11.547068 60.981701 -29.724518
-11.858268 62.24792 -29.50244
-14.535619 87.479039 -20.96013
-15.129494 86.788452 -19.652763
-13.889896 88.142105 -22.289003
-13.235131 88.717011 -23.607387
-14.801766 86.812649 -21.911248
-14.535619 87.479039 -20.96013
-13.889896 88.142105 -22.289003
-12.317782 87.986393 -27.735306
-13.079929 87.535923 -26.522002
-12.54916 87.006085 -28.460968
-12.317782 87.986393 -27.735306
-12.64961 86.068814 -29.168683
-13.37144 85.766014 -27.982335
-12.54916 87.006085 -28.460968
-12.7496 85.092315 -29.807467
-12.64961 86.068814 -29.168683
-20.162943 71.530579 -0.869419
-20.236587 70.414417 0.288883
-19.448093 74.101444 -2.03399
-18.809264 75.483765 -1.990101
-20.048995 72.689625 -2.051506
-19.448093 74.101444 -2.03399
-19.839253 73.954453 -3.182967
-20.554103 71.383587 -2.018397
-20.162943 71.530579 -0.869419
-20.048995 72.689625 -2.051506
-14.215356 74.71558 -29.532618
-14.800415 74.579044 -28.526245
-14.515199 75.821678 -29.212379
-13.974547 73.544132 -29.749719
-14.215356 74.71558 -29.532618
-13.653012 72.330799 -29.94677
-14.179036 72.259613 -29.043534
-13.974547 73.544132 -29.749719
-13.332574 71.230851 -30.206207
-13.653012 72.330799 -29.94677
-13.493398 69.961754 -29.488619
-13.332574 71.230851 -30.206207
-17.494239 81.372402 -8.260841
-17.782664 80.310368 -6.969861
-17.888294 81.128887 -9.478946
-17.494239 81.372402 -8.260841
-17.221259 82.32386 -9.566695
-17.186445 83.096836 -12.048099
-16.829073 83.390972 -10.924613
-17.923617 81.734932 -11.823965
-17.186445 83.096836 -12.048099
-17.494748 82.751423 -13.087264
-16.182976 85.308326 -16.981479
-15.63891 86.126937 -18.348978
-16.971956 83.950951 -16.714848
-16.688613 84.432724 -15.721522
-16.182976 85.308326 -16.981479
-14.105141 77.122856 -29.939696
-14.515199 75.821678 -29.212379
-14.6902 76.986321 -28.933324
-14.105141 77.122856 -29.939696
-13.654264 78.318123 -30.681859
-13.172208 47.756054 -21.052881
-13.429962 47.172077 -20.272732
-13.172208 47.756054 -21.052881
-13.190988 49.646335 -21.515161
-12.730655 52.244673 -23.522199
-12.995594 51.970528 -22.74049
-12.736976 53.875674 -24.033007
-12.418801 52.49086 -24.362838
-12.730655 52.244673 -23.522199
-20.933602 62.867073 6.075019
-20.84374 64.070086 5.184311
-21.443185 61.551203 5.856255
-20.933602 62.867073 6.075019
-21.884406 61.393349 4.66082
-21.443185 61.551203 5.856255
-22.247682 61.366301 3.546524
-21.884406 61.393349 4.66082
-21.750335 62.707369 3.799461
-22.573736 61.355917 2.426175
-22.247682 61.366301 3.546524
-20.4878 67.935897 2.323317
-20.368113 69.214519 1.268134
-21.032552 66.614067 2.087832
-20.589251 66.72522 3.288957
-20.4878 67.935897 2.323317
-22.895208 61.242172 1.37048
-22.573736 61.355917 2.426175
-22.435083 62.566576 1.629469
-23.176345 61.139539 0.309495
-22.895208 61.242172 1.37048
-23.176345 61.139539 0.309495
-23.049261 62.293759 -0.601145
-23.183842 63.30652 -2.645653
-22.927741 63.489748 -1.518906
-22.769616 64.661582 -2.388495
-23.183842 63.30652 -2.645653
-23.376027 63.064459 -3.677294
-18.44387 79.063514 -6.960522
-18.065261 79.196453 -5.75729
-17.782664 80.310368 -6.969861
-23.692522 62.003126 -6.5289
-23.645893 62.342411 -5.56599
-23.414976 63.417673 -6.383432
-23.692522 62.003126 -6.5289
-23.681742 61.516035 -7.396898
-23.261964 60.132107 -9.877018
-23.449618 60.699995 -9.095471
-23.137922 61.677531 -9.833513
-23.261964 60.132107 -9.877018
-23.022368 59.521742 -10.528306
-22.009403 57.3752 -12.295023
-22.381048 58.038807 -11.760767
-21.995609 59.05768 -12.455179
-22.009403 57.3752 -12.295023
-21.546362 56.751337 -12.825863
-20.527667 55.027935 -13.711616
-20.099004 55.68998 -14.301588
-17.066958 57.266829 -18.263766
-17.439619 56.504837 -17.526848
-17.605089 58.242193 -17.973965
-16.531422 56.093628 -18.497239
-17.066958 57.266829 -18.263766
-16.696893 57.830984 -18.944357
-16.016154 54.908777 -18.712922
-16.531422 56.093628 -18.497239
-15.511856 53.664831 -18.929326
-16.016154 54.908777 -18.712922
-15.657059 55.413837 -19.394234
-15.02675 52.389488 -19.157313
-15.511856 53.664831 -18.929326
-14.702842 52.92679 -19.859039
-14.576831 51.146387 -19.405713
-15.02675 52.389488 -19.157313
-11.084161 57.064743 -29.660805
-11.109937 55.568157 -29.122771
-11.356204 56.940136 -28.792217
-11.084161 57.064743 -29.660805
-11.002651 58.386467 -30.203675
3 164 43 165
3 0 46 44
3 0 48 46
3 0 50 48
3 1 166 167
3 1 168 170
3 168 51 169
3 168 169 170
3 3 54 52
3 3 56 54
3 3 58 56
3 171 61 172
3 5 64 62
3 5 66 64
3 2 69 67
3 6 72 70
3 6 74 72
3 6 76 74
3 7 79 77
3 7 173 175
3 175 174 79
3 173 174 175
3 7 176 178
3 176 80 177
3 176 177 178
3 8 83 81
3 8 85 83
3 4 88 86
3 179 90 180
3 181 92 182
3 183 182 90
3 181 182 183
3 185 184 92
3 186 94 187
3 188 95 189
3 190 189 94
3 188 189 190
3 191 97 192
3 193 192 95
3 191 192 193
3 12 98 42
3 12 99 98
3 13 102 100
3 15 103 45
3 15 104 103
3 15 106 104
3 17 107 47
3 17 108 107
3 17 110 108
3 19 111 49
3 19 112 111
3 21 194 195
3 21 196 197
3 198 115 199
3 23 200 202
3 200 116 201
3 200 201 202
3 23 117 116
3 9 203 205
3 203 118 204
3 203 204 205
3 24 119 53
3 24 120 119
3 24 121 120
3 25 122 55
3 25 123 122
3 25 125 123
3 27 126 57
3 27 127 126
3 10 128 96
3 206 129 207
3 208 207 59
3 206 207 208
3 209 130 210
3 211 210 129
3 209 210 211
3 213 212 130
3 28 214 216
3 216 215 60
3 214 215 216
3 28 217 219
3 217 131 218
3 217 218 219
3 29 220 222
3 220 132 221
3 220 221 222
3 29 133 132
3 11 223 225
3 223 134 224
3 223 224 225
3 30 135 63
3 30 136 135
3 30 226 228
3 228 227 136
3 226 227 228
3 31 229 231
3 231 230 65
3 229 230 231
3 31 232 233
3 22 137 114
3 32 138 68
3 32 139 138
3 14 140 101
3 33 141 71
3 33 142 141
3 33 143 142
3 34 144 73
3 34 234 236
3 236 235 144
3 234 235 236
3 34 237 238
3 35 239 241
3 241 240 75
3 239 240 241
3 35 242 243
3 16 145 105
3 36 146 78
3 36 244 246
3 246 245 146
3 244 245 246
3 36 247 248
3 18 147 109
3 37 148 82
3 37 149 148
3 37 150 149
3 38 151 84
3 38 152 151
3 26 153 124
3 39 154 87
3 39 155 154
3 20 156 113
3 40 157 89
3 40 158 157
3 40 159 158
3 41 160 91
3 41 161 160
3 41 162 161
3 249 163 250
3 251 250 93
3 249 250 251
3 253 252 163
3 254 42 255
3 43 256 258
3 256 42 257
3 256 257 258
3 43 12 42
3 44 45 13
3 46 45 44
3 46 15 45
3 46 47 15
3 48 47 46
3 48 17 47
3 48 49 17
3 50 49 48
3 50 19 49
3 51 259 260
3 51 261 263
3 261 21 262
3 261 262 263
3 264 23 265
3 52 53 9
3 54 53 52
3 54 24 53
3 54 55 24
3 56 55 54
3 56 25 55
3 56 57 25
3 58 57 56
3 58 27 57
3 266 59 267
3 268 267 10
3 266 267 268
3 269 59 270
3 272 271 59
3 273 60 274
3 61 275 277
3 275 60 276
3 275 276 277
3 61 28 60
3 278 29 279
3 62 63 11
3 64 63 62
3 64 30 63
3 64 65 30
3 66 65 64
3 66 31 65
3 67 68 22
3 69 68 67
3 69 32 68
3 70 71 14
3 72 71 70
3 72 33 71
3 72 73 33
3 74 73 72
3 74 34 73
3 74 75 34
3 76 75 74
3 76 35 75
3 77 78 16
3 79 78 77
3 79 36 78
3 79 280 282
3 282 281 36
3 280 281 282
3 284 283 79
3 80 285 286
3 80 287 288
3 81 82 18
3 83 82 81
3 83 37 82
3 83 84 37
3 85 84 83
3 85 38 84
3 86 87 26
3 88 87 86
3 88 39 87
3 289 89 290
3 291 290 20
3 289 290 291
3 90 292 294
3 292 89 293
3 292 293 294
3 90 40 89
3 90 91 40
3 92 91 90
3 92 41 91
3 92 93 41
3 295 93 296
3 297 296 92
3 295 296 297
3 299 298 93
3 300 9 301
3 94 302 303
3 94 304 306
3 304 9 305
3 304 305 306
3 94 52 9
3 95 52 94
3 95 3 52
3 95 96 3
3 97 96 95
3 97 10 96
3 307 97 308
3 309 97 310
3 311 10 312
3 313 312 97
3 311 312 313
3 315 314 10
3 316 11 317
3 42 318 319
3 98 320 322
3 322 321 42
3 320 321 322
3 98 323 325
3 323 11 324
3 323 324 325
3 98 62 11
3 99 62 98
3 99 5 62
3 100 101 2
3 102 101 100
3 102 14 101
3 45 102 13
3 103 102 45
3 103 14 102
3 103 70 14
3 104 70 103
3 104 6 70
3 104 105 6
3 106 105 104
3 106 16 105
3 47 106 15
3 107 106 47
3 107 16 106
3 107 77 16
3 108 77 107
3 108 7 77
3 108 109 7
3 110 109 108
3 110 18 109
3 49 110 17
3 111 110 49
3 111 18 110
3 111 81 18
3 112 81 111
3 112 8 81
3 326 113 327
3 328 327 4
3 326 327 328
3 329 113 330
3 331 20 332
3 333 332 113
3 331 332 333
3 334 20 335
3 337 336 20
3 338 114 339
3 115 340 342
3 340 114 341
3 340 341 342
3 115 22 114
3 343 115 344
3 116 345 347
3 345 115 346
3 345 346 347
3 116 22 115
3 116 67 22
3 117 67 116
3 117 2 67
3 118 348 349
3 118 350 352
3 350 23 351
3 350 351 352
3 53 118 9
3 119 118 53
3 119 23 118
3 119 117 23
3 120 117 119
3 120 2 117
3 120 100 2
3 121 100 120
3 121 13 100
3 55 121 24
3 122 121 55
3 122 13 121
3 122 44 13
3 123 44 122
3 123 0 44
3 123 124 0
3 125 124 123
3 125 26 124
3 57 125 25
3 126 125 57
3 126 26 125
3 126 86 26
3 127 86 126
3 127 4 86
3 96 58 3
3 128 58 96
3 128 27 58
3 59 128 10
3 129 128 59
3 129 27 128
3 129 127 27
3 130 127 129
3 130 4 127
3 130 353 355
3 355 354 4
3 353 354 355
3 357 356 130
3 60 358 359
3 361 360 60
3 131 362 363
3 131 364 366
3 364 1 365
3 364 365 366
3 132 367 368
3 132 369 370
3 132 371 372
3 133 373 375
3 375 374 132
3 373 374 375
3 133 376 377
3 134 378 379
3 134 380 382
3 380 29 381
3 380 381 382
3 63 134 11
3 135 134 63
3 135 29 134
3 135 133 29
3 136 133 135
3 136 383 385
3 385 384 133
3 383 384 385
3 136 386 387
3 389 388 136
3 65 390 392
3 392 391 30
3 390 391 392
3 394 393 65
3 114 395 397
3 395 43 396
3 395 396 397
3 137 43 114
3 137 12 43
3 68 137 22
3 138 137 68
3 138 12 137
3 138 99 12
3 139 99 138
3 139 5 99
3 101 69 2
3 140 69 101
3 140 32 69
3 71 140 14
3 141 140 71
3 141 32 140
3 141 139 32
3 142 139 141
3 142 5 139
3 142 66 5
3 143 66 142
3 143 31 66
3 73 143 33
3 144 143 73
3 144 31 143
3 144 398 400
3 400 399 31
3 398 399 400
3 402 401 144
3 75 403 405
3 405 404 34
3 403 404 405
3 407 406 75
3 105 76 6
3 145 76 105
3 145 35 76
3 78 145 16
3 146 145 78
3 146 35 145
3 146 408 410
3 410 409 35
3 408 409 410
3 412 411 146
3 414 413 36
3 109 80 7
3 147 80 109
3 147 415 417
3 417 416 80
3 415 416 417
3 82 147 18
3 148 147 82
3 148 418 420
3 420 419 147
3 418 419 420
3 148 421 422
3 149 423 425
3 425 424 148
3 423 424 425
3 149 426 427
3 149 428 430
3 428 61 429
3 428 429 430
3 150 61 149
3 150 28 61
3 84 150 37
3 151 150 84
3 151 28 150
3 151 131 28
3 152 131 151
3 152 1 131
3 124 50 0
3 153 50 124
3 153 19 50
3 87 153 26
3 154 153 87
3 154 19 153
3 154 112 19
3 155 112 154
3 155 8 112
3 113 88 4
3 156 88 113
3 156 39 88
3 89 156 20
3 157 156 89
3 157 39 156
3 157 155 39
3 158 155 157
3 158 8 155
3 158 85 8
3 159 85 158
3 159 38 85
3 91 159 40
3 160 159 91
3 160 38 159
3 160 152 38
3 161 152 160
3 161 1 152
3 161 51 1
3 162 51 161
3 162 21 51
3 93 162 41
3 163 162 93
3 163 21 162
3 163 431 433
3 433 432 21
3 431 432 433
3 435 434 163
