ply
format ascii 1.0
element vertex 450
property float x
property float y
property float z
element face 478
property list uchar int vertex_index
end_header
-24.928791 99.192078 -35.163021
-30.611696 69.632652 -46.147949
-22.337431 46.181484 -51.025429
-33.795647 56.244007 -41.198788
-28.706581 86.888481 -42.093388
-25.055664 79.681992 -49.069157
-25.850475 62.889072 -50.949558
-30.270145 35.628754 -43.039078
-28.943462 50.868393 -47.705826
-21.577196 52.104603 -51.983803
-22.590214 103.598114 -30.169764
-26.190983 100.515488 -29.119143
-28.199165 95.342072 -33.6035
-29.904785 89.053482 -37.215813
-26.991142 93.517403 -39.120998
-23.522257 86.866959 -47.134373
-32.42952 63.566265 -43.809952
-31.657909 53.53941 -44.877621
-30.280018 60.490906 -47.194698
-27.666294 57.595451 -49.557453
-28.404991 66.675323 -49.020493
-22.991539 39.44389 -49.630043
-19.286303 38.206821 -50.896542
-23.249777 96.923592 -40.110111
-34.001522 65.843948 -39.480652
-32.269669 72.866165 -42.119499
-31.384478 81.168968 -40.056366
-30.016071 78.717819 -44.45285
-25.562683 90.640617 -43.494026
-27.206093 83.300789 -46.130955
-28.182354 75.359734 -47.9063
-25.863533 71.487724 -50.358673
-23.283575 67.167809 -51.824818
-23.079561 59.685081 -52.059589
-32.640152 45.786072 -42.243858
-29.77965 43.362221 -45.494568
-26.397219 40.976101 -47.930923
-25.895142 48.411285 -49.641113
-24.643322 54.417309 -51.110401
-23.777267 101.570938 -32.816078
-24.47732 102.228279 -29.776485
-25.623453 100.024551 -32.15765
-27.228264 98.114716 -31.419777
-26.630388 97.501846 -34.455513
-27.635059 94.608315 -36.446823
-25.975426 96.5373 -37.254829
-34.890362 34.993889 -35.680897
-34.513054 39.049492 -37.452091
-31.577841 66.644127 -45.045513
-31.404972 61.827423 -45.670513
-30.552885 65.232376 -46.748466
-29.485106 63.615936 -48.097626
-29.551622 68.24826 -47.719936
-22.704422 42.891777 -50.36858
-21.12929 38.579838 -50.291779
-20.901556 41.871861 -50.904037
-33.681412 70.661423 -38.744751
-33.156902 69.159531 -41.030712
-32.859203 74.029388 -39.906822
-29.418186 87.949234 -39.762043
-30.698605 85.154221 -38.842518
-30.142876 84.170174 -41.155159
-30.755745 80.010902 -42.406883
-29.452816 82.9328 -43.336586
-22.311386 95.365593 -42.255848
-24.555365 93.867325 -41.886459
-23.506897 92.304016 -43.93277
-24.209164 83.406372 -48.273109
-25.43652 85.156822 -46.79446
-26.166262 81.65609 -47.712025
-27.828863 79.51149 -47.026817
-26.731749 77.809975 -48.526932
-27.162319 73.579201 -49.179077
-25.608418 75.594452 -49.787273
-33.359783 51.035824 -41.765717
-30.303427 52.015213 -46.454716
-30.843588 48.212837 -45.219345
-29.411924 47.13538 -46.625824
-28.156557 42.225521 -46.811428
-27.788309 45.887436 -47.85984
-26.118477 44.713097 -48.863369
-27.439455 49.706005 -48.791588
-26.836586 60.294838 -50.306664
-26.137745 55.924522 -50.458809
-25.388365 58.749348 -51.084885
-24.00839 57.364517 -51.628372
-24.500025 61.359173 -51.584633
-22.036623 49.441422 -51.560146
-20.702631 45.310886 -51.448853
-29.112518 92.387794 -35.36607
-28.527514 91.650818 -38.057587
-28.03425 90.255226 -40.537834
-22.430431 90.285347 -45.815041
-23.885691 77.43206 -50.179352
-31.852219 36.723888 -41.313454
-33.133934 59.662987 -42.609592
-32.836365 54.718456 -43.078747
-32.177246 58.52346 -44.411606
-31.028494 56.986603 -46.074013
-29.819754 56.030151 -47.457172
-28.428303 54.349796 -48.631424
-29.044476 58.864475 -48.460003
-28.277042 62.035664 -49.263485
-27.147003 64.775856 -50.114426
-22.912058 35.749939 -48.938713
-21.166115 31.450871 -48.911655
-21.644857 102.881653 -33.087387
-22.874008 100.711655 -35.600418
-24.138033 98.190254 -37.751072
-21.983004 99.486519 -38.165245
-34.696388 62.077545 -38.153152
-33.958977 61.173302 -40.554428
-33.265236 64.722099 -41.82132
-32.374424 68.388268 -43.19455
-31.477873 71.563553 -44.273594
-31.785322 82.527405 -37.48278
-32.404797 78.361816 -38.746632
-31.910189 77.132614 -41.122429
-31.255253 75.833107 -43.312508
-30.436171 74.330063 -45.33255
-25.256083 95.369896 -39.691845
-26.362024 92.229599 -41.334232
-27.189426 88.999664 -42.853165
-24.546358 88.903976 -45.449787
-26.350424 87.074554 -45.037495
-27.971298 85.25827 -44.24707
-28.701893 81.325821 -45.289219
-29.175785 76.996353 -46.324474
-29.49456 72.511276 -47.109055
-28.424501 71.041679 -48.533184
-27.253 69.452614 -49.720451
-26.008495 67.115936 -50.721592
-24.320526 73.254951 -50.812355
-24.655886 69.056564 -51.210629
-24.613167 65.261009 -51.484943
-23.394396 63.319344 -51.967876
-32.980824 42.098789 -40.938797
-31.593035 40.801868 -42.720387
-32.149155 49.742466 -43.664944
-31.182667 44.486938 -44.083187
-30.113201 39.700504 -44.285671
-28.447969 38.479729 -45.686844
-26.694342 37.563572 -46.947475
-24.777653 36.352558 -47.998802
-24.732088 40.187469 -48.843742
-24.493193 43.954697 -49.692688
-24.081144 47.186356 -50.435101
-26.866133 53.019619 -49.671776
-25.240274 51.435596 -50.459206
-23.615648 50.338448 -51.091991
-23.154848 53.490417 -51.631927
-22.482819 55.892414 -52.056259
-35.274245 37.590557 -35.4156
-35.482258 35.697625 -34.496909
-35.866141 38.294292 -34.231611
-35.08559 39.618358 -36.301197
-34.701708 37.021691 -36.566494
-35.274245 37.590557 -35.4156
-33.511383 72.862465 -38.085448
-33.916369 71.170941 -37.429056
-33.74634 73.371983 -36.769752
-33.100279 74.546447 -38.666483
-33.270308 72.345405 -39.325786
-33.511383 72.862465 -38.085448
-22.419849 92.883163 -44.076842
-22.909141 93.834805 -43.094309
-21.822094 94.413952 -43.238381
-29.408139 33.168615 -43.256707
-30.289622 33.553066 -42.409283
-29.472217 35.2592 -43.791493
-29.408139 33.168615 -43.256707
-33.577715 53.639916 -41.482253
-33.856533 51.624049 -40.771523
-34.074465 54.22814 -40.488058
-20.995802 50.381531 -51.950796
-21.225516 49.049941 -51.738968
-21.806909 50.773013 -51.771974
-22.917081 103.858722 -28.641241
-21.931235 104.362644 -28.991403
-25.581639 101.596482 -27.896505
-24.724807 102.452877 -28.225176
-25.334151 101.371883 -29.447814
-26.390439 100.661625 -27.630706
-25.581639 101.596482 -27.896505
-26.916722 99.537068 -28.730002
-26.390439 100.661625 -27.630706
-28.423504 95.609367 -32.061062
-27.938053 96.995689 -30.969201
-27.713715 96.728394 -32.511638
-28.893933 94.102837 -33.05489
-28.423504 95.609367 -32.061062
-28.655842 93.864933 -34.484785
-29.35061 92.625698 -33.936174
-28.893933 94.102837 -33.05489
-32.568245 37.409115 -40.395611
-31.94912 34.739103 -40.606804
-32.665146 35.424329 -39.688961
-22.091135 37.343249 -49.647604
-22.051395 35.496273 -49.301939
-22.951798 37.596914 -49.284378
-19.321948 36.451135 -50.604433
-20.243442 36.637644 -50.302052
-20.207797 38.39333 -50.594161
-18.426082 36.316486 -50.897383
-19.321948 36.451135 -50.604433
-19.95387 43.474539 -51.423073
-19.905852 45.14041 -51.633253
-21.178813 102.330365 -34.465546
-20.512473 103.291184 -33.209255
-21.793389 101.245365 -35.722061
-22.259432 101.796654 -34.343902
-21.178813 102.330365 -34.465546
-21.347887 100.632798 -37.004475
-22.428506 100.099087 -36.882831
-21.793389 101.245365 -35.722061
-34.348955 63.960746 -38.816902
-34.607591 64.531582 -37.657709
-34.260159 66.414783 -38.321459
-20.185173 29.440495 -48.948566
-20.234243 31.315188 -49.305664
-30.487874 87.742538 -36.630696
-30.109367 89.46756 -35.833786
-23.495944 74.087772 -50.934055
-24.103109 75.343506 -50.495853
-23.278526 76.176327 -50.617554
-23.96973 68.112187 -51.517724
-23.854186 69.991894 -51.37266
-23.168031 69.047516 -51.679755
-32.810488 43.942431 -41.591328
-33.420261 44.6931 -40.631525
-33.249926 46.536741 -41.284056
-22.40763 58.817284 -52.208323
-22.109259 56.92095 -52.206657
-22.78119 57.788747 -52.057924
-20.85517 51.856321 -52.11806
-21.345728 53.42157 -52.148724
-34.979111 32.986597 -34.89827
-35.482258 35.697625 -34.496909
-34.269839 32.337815 -36.051541
-34.979111 32.986597 -34.89827
-34.223166 34.360315 -36.75848
-34.269839 32.337815 -36.051541
-34.034511 36.388117 -37.644077
-34.223166 34.360315 -36.75848
-34.701708 37.021691 -36.566494
-33.898663 38.571917 -38.464929
-33.42012 35.910542 -38.656915
-34.034511 36.388117 -37.644077
-34.100104 68.823521 -37.953508
-33.916369 71.170941 -37.429056
-33.841467 68.252685 -39.112702
-34.260159 66.414783 -38.321459
-34.100104 68.823521 -37.953508
-22.537736 67.798199 -51.93807
-23.168031 69.047516 -51.679755
-22.643203 66.002137 -52.033794
-22.537736 67.798199 -51.93807
-33.609741 49.161617 -41.044985
-33.856533 51.624049 -40.771523
-32.999967 48.410948 -42.004788
-33.249926 46.536741 -41.284056
-33.609741 49.161617 -41.044985
-20.55852 46.984673 -51.683321
-21.369627 47.376154 -51.5045
-21.225516 49.049941 -51.738968
-19.905852 45.14041 -51.633253
-20.55852 46.984673 -51.683321
-20.995802 50.381531 -51.950796
-20.85517 51.856321 -52.11806
-23.860634 103.173805 -28.444602
-22.917081 103.858722 -28.641241
-23.533767 102.913196 -29.973125
-23.860634 103.173805 -28.444602
-24.724807 102.452877 -28.225176
-27.435362 98.336681 -29.880319
-26.916722 99.537068 -28.730002
-26.709623 99.315102 -30.26946
-27.435362 98.336681 -29.880319
-27.938053 96.995689 -30.969201
-29.713233 91.134716 -34.908915
-29.35061 92.625698 -33.936174
-29.508651 90.720638 -36.290942
-30.109367 89.46756 -35.833786
-29.713233 91.134716 -34.908915
-21.348158 90.768074 -45.896735
-21.881616 91.873829 -45.017977
-21.932824 89.210194 -46.566613
-21.348158 90.768074 -45.896735
-22.478737 87.501 -47.226278
-22.976344 88.576153 -46.474707
-21.932824 89.210194 -46.566613
-22.882444 85.838432 -47.825336
-22.478737 87.501 -47.226278
-23.225897 84.108139 -48.394705
-23.86571 85.136665 -47.703741
-22.882444 85.838432 -47.825336
-23.653316 82.311753 -48.87376
-23.225897 84.108139 -48.394705
-24.076566 80.449562 -49.271784
-24.632414 81.544182 -48.671133
-23.653316 82.311753 -48.87376
-23.491579 79.324597 -49.826881
-24.470678 78.557026 -49.624254
-24.076566 80.449562 -49.271784
-22.908372 78.138096 -50.303992
-23.491579 79.324597 -49.826881
-23.278526 76.176327 -50.617554
-22.908372 78.138096 -50.303992
-31.080659 34.100633 -41.546471
-31.94912 34.739103 -40.606804
-31.061182 36.176321 -42.176266
-30.289622 33.553066 -42.409283
-31.080659 34.100633 -41.546471
-22.039086 33.600405 -48.925184
-22.088873 31.757334 -48.493949
-22.961844 33.906868 -48.507479
-21.178423 33.346739 -49.28841
-22.039086 33.600405 -48.925184
-22.051395 35.496273 -49.301939
-20.234243 31.315188 -49.305664
-21.178423 33.346739 -49.28841
-21.16001 36.911223 -49.978472
-22.091135 37.343249 -49.647604
-22.060415 39.011864 -49.960911
-21.16001 36.911223 -49.978472
-20.243442 36.637644 -50.302052
-20.053332 41.755026 -51.150665
-20.802093 43.591374 -51.176445
-19.95387 43.474539 -51.423073
-19.245706 39.922506 -51.146918
-20.09393 40.039341 -50.900289
-20.053332 41.755026 -51.150665
-18.409636 38.068939 -51.142536
-19.245706 39.922506 -51.146918
-18.426082 36.316486 -50.897383
-18.409636 38.068939 -51.142536
-21.468137 104.088322 -30.395199
-21.931235 104.362644 -28.991403
-20.995458 103.730091 -31.854011
-20.512473 103.291184 -33.209255
-22.117535 103.239883 -31.628576
-21.468137 104.088322 -30.395199
-20.995458 103.730091 -31.854011
-20.888435 99.997345 -38.16078
-21.347887 100.632798 -37.004475
-21.491138 98.799343 -39.261154
-20.888435 99.997345 -38.16078
-22.124525 97.517879 -40.233587
-22.616391 98.205056 -39.137678
-21.491138 98.799343 -39.261154
-21.65533 96.73888 -41.306455
-22.780582 96.144593 -41.18298
-22.124525 97.517879 -40.233587
-21.228603 95.780384 -42.389418
-21.65533 96.73888 -41.306455
-21.822094 94.413952 -43.238381
-21.228603 95.780384 -42.389418
-34.205645 56.740751 -40.154784
-34.074465 54.22814 -40.488058
-34.977804 62.681093 -36.843788
-34.607591 64.531582 -37.657709
-35.008936 60.28487 -37.426094
-34.977804 62.681093 -36.843788
-34.656015 59.65752 -38.631965
-35.008936 60.28487 -37.426094
-34.28731 59.205399 -39.832604
-34.656015 59.65752 -38.631965
-34.327682 61.625423 -39.35379
-33.877312 58.708655 -40.876608
-34.205645 56.740751 -40.154784
-34.28731 59.205399 -39.832604
-21.104312 29.527701 -48.513137
-22.088873 31.757334 -48.493949
-21.104312 29.527701 -48.513137
-20.185173 29.440495 -48.948566
-30.884784 85.792908 -37.444048
-30.487874 87.742538 -36.630696
-30.301695 87.103852 -38.029165
-31.428142 84.4795 -36.764179
-30.884784 85.792908 -37.444048
-31.241964 83.840813 -38.162649
-31.959347 82.943303 -36.167037
-31.428142 84.4795 -36.764179
-32.282201 80.962097 -36.834158
-31.959347 82.943303 -36.167037
-32.591938 78.879303 -37.466083
-32.282201 80.962097 -36.834158
-32.09506 80.444611 -38.114706
-32.873075 76.712661 -38.086388
-32.591938 78.879303 -37.466083
-32.632 76.195602 -39.326727
-33.100279 74.546447 -38.666483
-32.873075 76.712661 -38.086388
-22.968664 91.294681 -44.873905
-22.419849 92.883163 -44.076842
-21.881616 91.873829 -45.017977
-23.686506 72.091087 -51.173523
-23.495944 74.087772 -50.934055
-24.488206 71.155757 -51.011492
-23.686506 72.091087 -51.173523
-23.854186 69.991894 -51.37266
-22.698614 64.077904 -52.105323
-23.338985 65.243577 -51.896347
-22.643203 66.002137 -52.033794
-22.682944 62.304051 -52.156629
-22.698614 64.077904 -52.105323
-22.525526 60.486919 -52.202486
-23.236978 61.502212 -52.013733
-22.682944 62.304051 -52.156629
-22.40763 58.817284 -52.208323
-22.525526 60.486919 -52.202486
-34.912985 41.586084 -37.046493
-35.08559 39.618358 -36.301197
-34.352052 41.13875 -38.215084
-34.912985 41.586084 -37.046493
-33.898663 38.571917 -38.464929
-34.352052 41.13875 -38.215084
-33.585938 42.663398 -39.958437
-33.420261 44.6931 -40.631525
-33.132548 40.096565 -40.208282
-33.585938 42.663398 -39.958437
-32.416522 39.411338 -41.126126
-32.568245 37.409115 -40.395611
-33.132548 40.096565 -40.208282
-29.393745 37.295074 -44.414789
-29.472217 35.2592 -43.791493
-30.191673 37.664629 -43.662374
-28.561129 36.684687 -45.115375
-29.393745 37.295074 -44.414789
-29.280585 39.090117 -44.986258
-27.581722 36.029011 -45.809933
-28.561129 36.684687 -45.115375
-26.704909 35.570932 -46.440248
-27.581722 36.029011 -45.809933
-27.571155 38.02165 -46.31716
-25.737281 35.106619 -47.034793
-26.704909 35.570932 -46.440248
-24.778937 34.501112 -47.560457
-25.737281 35.106619 -47.034793
-25.735997 36.958065 -47.473138
-23.894642 34.208178 -48.037523
-24.778937 34.501112 -47.560457
-23.844856 36.051248 -48.468757
-22.961844 33.906868 -48.507479
-23.894642 34.208178 -48.037523
-21.79854 55.315476 -52.184951
-21.345728 53.42157 -52.148724
-22.030007 53.998508 -52.020031
-21.79854 55.315476 -52.184951
-22.109259 56.92095 -52.206657
3 0 41 39
3 0 43 41
3 0 45 43
3 152 46 153
3 152 153 154
3 155 47 156
3 157 156 46
3 155 156 157
3 1 50 48
3 1 52 50
3 2 55 53
3 158 56 159
3 158 159 160
3 161 58 162
3 163 162 56
3 161 162 163
3 4 61 59
3 4 63 61
3 164 66 165
3 166 165 64
3 164 165 166
3 5 69 67
3 5 71 69
3 5 73 71
3 7 167 168
3 7 169 170
3 3 171 173
3 171 74 172
3 171 172 173
3 8 77 75
3 8 79 77
3 8 81 79
3 6 84 82
3 6 86 84
3 9 174 176
3 176 175 87
3 174 175 176
3 10 177 178
3 11 179 181
3 181 180 40
3 179 180 181
3 11 182 183
3 11 184 185
3 12 186 188
3 188 187 42
3 186 187 188
3 12 189 190
3 12 191 193
3 191 89 192
3 191 192 193
3 14 90 44
3 14 91 90
3 194 94 195
3 194 195 196
3 16 97 95
3 18 98 49
3 18 99 98
3 18 101 99
3 20 102 51
3 20 103 102
3 21 197 199
3 199 198 104
3 197 198 199
3 22 200 202
3 202 201 54
3 200 201 202
3 22 203 204
3 206 205 88
3 207 106 208
3 209 107 210
3 211 210 106
3 209 210 211
3 212 109 213
3 214 213 107
3 212 213 214
3 24 215 217
3 215 110 216
3 215 216 217
3 24 111 110
3 24 112 111
3 25 113 57
3 25 114 113
3 219 218 105
3 13 220 221
3 26 115 60
3 26 116 115
3 26 117 116
3 27 118 62
3 27 119 118
3 23 120 108
3 28 121 65
3 28 122 121
3 15 123 92
3 29 124 68
3 29 125 124
3 29 126 125
3 30 127 70
3 30 128 127
3 30 129 128
3 31 130 72
3 31 131 130
3 222 132 223
3 224 223 93
3 222 223 224
3 32 225 227
3 225 133 226
3 225 226 227
3 32 134 133
3 32 135 134
3 34 228 230
3 228 136 229
3 228 229 230
3 34 137 136
3 17 138 96
3 35 139 76
3 35 140 139
3 35 141 140
3 36 142 78
3 36 143 142
3 36 144 143
3 37 145 80
3 37 146 145
3 19 147 100
3 38 148 83
3 38 149 148
3 38 150 149
3 33 151 85
3 33 231 233
3 233 232 151
3 231 232 233
3 235 234 9
3 39 40 10
3 41 40 39
3 41 11 40
3 41 42 11
3 43 42 41
3 43 12 42
3 43 44 12
3 45 44 43
3 45 14 44
3 46 236 237
3 46 238 239
3 46 240 241
3 47 242 244
3 244 243 46
3 242 243 244
3 47 245 247
3 245 246 247
3 48 49 16
3 50 49 48
3 50 18 49
3 50 51 18
3 52 51 50
3 52 20 51
3 53 54 21
3 55 54 53
3 55 22 54
3 56 248 249
3 56 250 252
3 250 24 251
3 250 251 252
3 56 57 24
3 58 57 56
3 58 25 57
3 59 60 13
3 61 60 59
3 61 26 60
3 61 62 26
3 63 62 61
3 63 27 62
3 64 65 23
3 66 65 64
3 66 28 65
3 67 68 15
3 69 68 67
3 69 29 68
3 69 70 29
3 71 70 69
3 71 30 70
3 71 72 30
3 73 72 71
3 73 31 72
3 253 32 254
3 256 255 32
3 74 257 258
3 74 259 261
3 259 34 260
3 259 260 261
3 75 76 17
3 77 76 75
3 77 35 76
3 77 78 35
3 79 78 77
3 79 36 78
3 79 80 36
3 81 80 79
3 81 37 80
3 82 83 19
3 84 83 82
3 84 38 83
3 84 85 38
3 86 85 84
3 86 33 85
3 87 88 2
3 262 88 263
3 264 263 87
3 262 263 264
3 266 265 88
3 268 267 9
3 40 269 271
3 271 270 10
3 269 270 271
3 273 272 40
3 42 274 276
3 276 275 11
3 274 275 276
3 278 277 42
3 89 279 280
3 89 281 283
3 281 13 282
3 281 282 283
3 44 89 12
3 90 89 44
3 90 13 89
3 90 59 13
3 91 59 90
3 91 4 59
3 284 92 285
3 286 92 287
3 288 15 289
3 290 289 92
3 288 289 290
3 291 15 292
3 293 67 294
3 295 294 15
3 293 294 295
3 296 67 297
3 298 5 299
3 300 299 67
3 298 299 300
3 301 93 302
3 303 302 5
3 301 302 303
3 304 93 305
3 307 306 93
3 94 308 309
3 94 310 312
3 310 7 311
3 310 311 312
3 95 96 3
3 97 96 95
3 97 17 96
3 49 97 16
3 98 97 49
3 98 17 97
3 98 75 17
3 99 75 98
3 99 8 75
3 99 100 8
3 101 100 99
3 101 19 100
3 51 101 18
3 102 101 51
3 102 19 101
3 102 82 19
3 103 82 102
3 103 6 82
3 104 313 315
3 313 105 314
3 313 314 315
3 316 105 317
3 318 317 104
3 316 317 318
3 320 319 105
3 54 321 323
3 323 322 21
3 321 322 323
3 325 324 54
3 88 55 2
3 326 55 327
3 328 327 88
3 326 327 328
3 329 22 330
3 331 330 55
3 329 330 331
3 332 22 333
3 335 334 22
3 336 10 337
3 106 338 339
3 106 340 342
3 340 10 341
3 340 341 342
3 106 39 10
3 107 39 106
3 107 0 39
3 107 108 0
3 109 108 107
3 109 23 108
3 343 109 344
3 345 109 346
3 347 23 348
3 349 348 109
3 347 348 349
3 350 64 351
3 352 351 23
3 350 351 352
3 353 64 354
3 356 355 64
3 357 3 358
3 110 359 360
3 110 361 362
3 110 363 364
3 111 365 367
3 367 366 110
3 365 366 367
3 111 368 370
3 368 3 369
3 368 369 370
3 111 95 3
3 112 95 111
3 112 16 95
3 57 112 24
3 113 112 57
3 113 16 112
3 113 48 16
3 114 48 113
3 114 1 48
3 105 371 372
3 374 373 105
3 60 375 377
3 377 376 13
3 375 376 377
3 115 378 380
3 380 379 60
3 378 379 380
3 115 381 382
3 115 383 384
3 116 385 387
3 387 386 115
3 385 386 387
3 116 388 389
3 116 390 392
3 390 58 391
3 390 391 392
3 117 58 116
3 117 25 58
3 62 117 26
3 118 117 62
3 118 25 117
3 118 114 25
3 119 114 118
3 119 1 114
3 108 45 0
3 120 45 108
3 120 14 45
3 65 120 23
3 121 120 65
3 121 14 120
3 121 91 14
3 122 91 121
3 122 4 91
3 92 393 395
3 393 66 394
3 393 394 395
3 123 66 92
3 123 28 66
3 68 123 15
3 124 123 68
3 124 28 123
3 124 122 28
3 125 122 124
3 125 4 122
3 125 63 4
3 126 63 125
3 126 27 63
3 70 126 29
3 127 126 70
3 127 27 126
3 127 119 27
3 128 119 127
3 128 1 119
3 128 52 1
3 129 52 128
3 129 20 52
3 72 129 30
3 130 129 72
3 130 20 129
3 130 103 20
3 131 103 130
3 131 6 103
3 93 73 5
3 132 73 93
3 132 31 73
3 396 132 397
3 133 398 400
3 398 132 399
3 398 399 400
3 133 31 132
3 133 131 31
3 134 131 133
3 134 6 131
3 134 86 6
3 135 86 134
3 135 33 86
3 401 135 402
3 403 402 32
3 401 402 403
3 404 135 405
3 406 33 407
3 408 407 135
3 406 407 408
3 410 409 33
3 411 47 412
3 413 47 414
3 416 415 47
3 136 417 418
3 136 419 420
3 136 421 423
3 421 94 422
3 421 422 423
3 137 94 136
3 137 7 94
3 96 74 3
3 138 74 96
3 138 34 74
3 76 138 17
3 139 138 76
3 139 34 138
3 139 137 34
3 140 137 139
3 140 7 137
3 140 424 426
3 426 425 7
3 424 425 426
3 141 427 429
3 429 428 140
3 427 428 429
3 141 430 431
3 78 141 35
3 142 141 78
3 142 432 434
3 434 433 141
3 432 433 434
3 142 435 436
3 143 437 439
3 439 438 142
3 437 438 439
3 143 440 441
3 143 442 444
3 442 104 443
3 442 443 444
3 144 104 143
3 144 21 104
3 80 144 36
3 145 144 80
3 145 21 144
3 145 53 21
3 146 53 145
3 146 2 53
3 100 81 8
3 147 81 100
3 147 37 81
3 83 147 19
3 148 147 83
3 148 37 147
3 148 146 37
3 149 146 148
3 149 2 146
3 149 87 2
3 150 87 149
3 150 9 87
3 85 150 38
3 151 150 85
3 151 9 150
3 151 445 447
3 447 446 9
3 445 446 447
3 449 448 151
