ply
format ascii 1.0
element vertex 342
property float x
property float y
property float z
element face 335
property list uchar int vertex_index
end_header
-5.021052 -33.927101 -44.134991
0.5548 -5.926605 -56.475021
-9.805895 -36.817955 -37.712406
-5.337533 -24.225563 -43.484829
-1.063585 -19.281502 -50.507858
3.276666 -12.904658 -58.049446
-2.378853 -31.628777 -47.489765
-1.829467 -15.735155 -49.787899
0.018994 -12.405716 -53.646061
1.010359 -16.184998 -54.27874
1.822868 -9.245955 -57.461948
2.216322 -2.296621 -60.43998
-7.408796 -35.598553 -40.959377
-14.977753 -32.65683 -31.406055
-12.419728 -32.357655 -34.255943
-9.778469 -31.729252 -37.428913
-7.402918 -30.551376 -40.555077
-5.095305 -28.862911 -43.810589
-3.150345 -22.178856 -46.874313
-2.741199 -26.643578 -47.294666
-0.313185 -23.653267 -50.944824
2.110324 -20.65889 -54.440292
3.881884 -5.460009 -61.390991
-3.586921 -35.580498 -45.891552
-3.727951 -32.854588 -45.798321
-0.015407 -4.694543 -55.878014
-0.187276 -7.91672 -54.538074
-0.496717 -10.981037 -53.115528
0.418395 -9.149856 -55.229706
0.903224 -11.004333 -55.503853
1.20045 -7.611361 -57.026817
-8.608869 -36.270897 -39.339989
-16.463659 -32.561546 -29.816422
-11.090792 -32.299232 -35.805538
-10.086149 -29.43528 -37.148087
-7.478789 -28.212496 -40.424713
-6.295749 -27.279675 -42.038826
-6.297534 -29.814312 -42.087658
-5.201573 -26.502409 -43.607555
-1.477997 -17.583488 -50.072868
-2.454705 -19.042572 -48.278233
-2.140401 -20.919077 -48.58535
-2.90076 -24.261385 -47.154205
-1.784299 -22.756624 -48.974686
-1.544715 -25.140055 -49.096497
-0.687689 -21.315855 -50.789398
2.104189 -14.575431 -56.173569
1.487695 -18.462677 -54.328495
2.724533 -16.728132 -56.225857
3.994829 -15.186477 -57.963272
3.034404 -3.895882 -60.985645
4.054132 -2.051349 -62.865501
-1.040462 -30.320833 -49.117676
-1.377998 -12.684284 -51.175453
-0.899588 -14.219607 -51.647255
-0.480963 -15.855569 -52.032215
-0.047427 -17.916796 -52.328354
0.498485 -14.361269 -53.961105
1.474319 -12.67296 -55.895691
2.475217 -10.87838 -57.806614
5.157576 -0.082036 -64.69735
0.746679 -2.78056 -57.868763
1.387166 -4.405021 -58.402397
-6.199083 -34.804794 -42.581364
-15.925651 -34.923943 -30.059273
-14.655306 -35.192177 -31.49086
-13.716691 -32.759987 -32.770737
-13.32722 -35.126633 -33.051865
-12.131828 -34.964134 -34.501732
-10.962366 -34.786701 -35.972473
-9.77703 -34.288868 -37.512875
-8.68283 -28.859293 -38.867172
-8.517778 -31.086393 -39.054737
-8.602911 -33.759052 -39.087196
-7.353154 -33.072819 -40.792984
-6.247518 -32.245003 -42.315331
-5.051833 -31.228228 -43.973289
-2.73509 -16.902384 -48.139992
-3.434168 -20.203009 -46.609863
-4.228986 -23.34951 -45.141541
-4.074644 -25.454817 -45.30817
-3.875439 -27.66745 -45.605007
-3.864786 -30.350607 -45.628448
-2.595378 -29.043751 -47.385132
-1.291693 -27.587633 -49.169716
0.023568 -26.220226 -50.917969
0.441343 -19.838053 -52.652508
0.874867 -22.144991 -52.70406
1.340593 -24.798794 -52.602962
2.099387 -5.73664 -59.052517
2.859688 -7.337517 -59.515053
3.578204 -9.159481 -59.692738
5.013029 -3.787439 -63.144722
4.749162 -7.263549 -61.558277
4.426479 -11.031843 -59.842384
-5.001581 -35.263954 -44.198121
-5.692162 -35.843338 -43.357265
-4.374502 -33.390845 -44.966656
-4.35503 -34.727698 -45.029786
-5.001581 -35.263954 -44.198121
-9.878678 -38.160345 -37.78746
-10.444156 -38.354578 -37.009949
-9.207382 -36.544426 -38.526198
-9.280165 -37.886816 -38.601252
-9.878678 -38.160345 -37.78746
-10.318545 -28.381441 -37.012211
-10.773888 -29.669425 -36.35035
-5.816641 -25.752619 -42.761827
-6.401154 -26.278261 -41.937697
-5.922046 -24.751206 -42.660698
4.12329 -0.293576 -63.590526
3.60171 -1.257228 -62.628517
-2.251424 -33.024097 -47.506649
-2.855459 -34.999958 -46.707543
-2.982887 -33.604637 -46.690658
-1.709658 -30.974805 -48.30372
-1.582229 -32.370126 -48.320605
-2.251424 -33.024097 -47.506649
-1.185746 -11.082828 -51.925258
-1.597908 -11.804775 -51.046888
0.759451 -1.255434 -58.416432
0.380056 -2.211996 -57.419497
1.11192 -1.906455 -58.79372
0.759451 -1.255434 -58.416432
-7.500972 -37.015898 -40.98267
-8.05017 -37.262806 -40.25638
-6.80394 -35.201673 -41.77037
-6.896116 -36.619018 -41.793663
-7.500972 -37.015898 -40.98267
-13.06821 -32.558821 -33.51334
-13.283941 -31.392305 -33.407394
-12.635459 -31.191139 -34.149997
-8.208427 -27.492977 -39.543039
-8.896828 -27.861194 -38.695351
-2.282278 -16.31877 -48.963946
-2.494247 -15.392375 -48.812613
-2.041435 -14.80876 -49.636566
2.410911 -21.973813 -54.356641
2.026045 -24.043765 -53.437976
1.725458 -22.728842 -53.521627
5.595189 -2.950934 -63.950333
5.085303 -1.934737 -63.921036
5.667463 -1.098232 -64.726647
5.249605 -8.231355 -61.595447
5.347674 -6.468993 -62.365864
5.088264 -10.115502 -60.737501
4.58782 -9.147696 -60.70033
5.249605 -8.231355 -61.595447
4.868005 -12.149553 -59.791082
5.088264 -10.115502 -60.737501
-4.284515 -36.090653 -45.076401
-4.207461 -37.481901 -45.16556
-3.657436 -34.217543 -45.844937
-4.284515 -36.090653 -45.076401
-4.35503 -34.727698 -45.029786
-0.401477 -5.519509 -54.936331
-0.362041 -4.091874 -55.482811
-0.487411 -7.130597 -54.266361
-0.401477 -5.519509 -54.936331
-0.101342 -6.305632 -55.208044
-0.590385 -8.699046 -53.606569
-0.487411 -7.130597 -54.266361
-0.341997 -9.448878 -53.826801
-0.745105 -10.231204 -52.895296
-0.590385 -8.699046 -53.606569
-8.650206 -37.598978 -39.446686
-9.280165 -37.886816 -38.601252
-8.008833 -35.934725 -40.149683
-8.05017 -37.262806 -40.25638
-8.650206 -37.598978 -39.446686
-16.844482 -31.388832 -29.650799
-17.168912 -32.481657 -29.066243
-16.121299 -31.469417 -30.384291
-16.844482 -31.388832 -29.650799
-15.378346 -31.517058 -31.179108
-15.720706 -32.609188 -30.611238
-16.121299 -31.469417 -30.384291
-11.940678 -31.130612 -34.904278
-12.635459 -31.191139 -34.149997
-11.27621 -31.101401 -35.679075
-11.75526 -32.328444 -35.030741
-11.940678 -31.130612 -34.904278
-10.58847 -30.867256 -36.476812
-11.27621 -31.101401 -35.679075
-10.773888 -29.669425 -36.35035
-6.992674 -26.744672 -41.13064
-7.606407 -27.169579 -40.32181
-6.887269 -27.746085 -41.231769
-6.992674 -26.744672 -41.13064
-6.401154 -26.278261 -41.937697
3.081781 -17.942394 -56.188505
2.774676 -19.907773 -55.295723
2.417428 -18.693511 -55.333074
3.716929 -17.171567 -57.057213
3.081781 -17.942394 -56.188505
3.359681 -15.957304 -57.094565
4.407545 -16.214987 -57.94154
3.716929 -17.171567 -57.057213
3.091845 -2.179495 -61.688589
2.625363 -3.096252 -60.712812
2.682805 -1.379864 -61.415757
3.544268 -2.973616 -61.925573
3.091845 -2.179495 -61.688589
3.60171 -1.257228 -62.628517
-3.469199 -37.007511 -45.93816
-4.207461 -37.481901 -45.16556
-3.469199 -37.007511 -45.93816
-2.855459 -34.999958 -46.707543
-0.804447 -31.605256 -49.163908
-1.582229 -32.370126 -48.320605
-0.327571 -29.585714 -49.961292
-0.804447 -31.605256 -49.163908
-10.376054 -37.015857 -36.939056
-10.444156 -38.354578 -37.009949
-5.520313 -23.254866 -43.334816
-5.922046 -24.751206 -42.660698
-1.815701 -13.283325 -50.330343
-1.597908 -11.804775 -51.046888
-1.603733 -14.20972 -50.481676
-2.041435 -14.80876 -49.636566
-1.815701 -13.283325 -50.330343
-0.937358 -11.83266 -52.14549
-1.185746 -11.082828 -51.925258
-0.745105 -10.231204 -52.895296
5.244753 1.547835 -65.367344
4.675012 0.69108 -64.506451
5.81802 0.747448 -65.543098
5.244753 1.547835 -65.367344
5.667463 -1.098232 -64.726647
5.81802 0.747448 -65.543098
-0.000987 -3.168988 -56.424122
-0.362041 -4.091874 -55.482811
0.365636 -3.737552 -56.873389
-0.000987 -3.168988 -56.424122
0.380056 -2.211996 -57.419497
1.432163 -2.718686 -59.060537
1.066922 -3.59279 -58.13558
1.11192 -1.906455 -58.79372
1.846741 -1.664486 -60.079329
1.801744 -3.350821 -59.421188
1.432163 -2.718686 -59.060537
2.286427 -0.659851 -61.122387
1.846741 -1.664486 -60.079329
2.682805 -1.379864 -61.415757
2.286427 -0.659851 -61.122387
-6.281177 -36.282184 -42.580452
-6.896116 -36.619018 -41.793663
-5.610067 -34.365948 -43.358177
-5.692162 -35.843338 -43.357265
-6.281177 -36.282184 -42.580452
-16.845819 -33.725381 -29.195417
-17.168912 -32.481657 -29.066243
-16.576815 -34.90658 -29.316843
-16.845819 -33.725381 -29.195417
-16.194655 -33.742745 -29.937848
-16.309293 -36.207825 -29.464517
-16.576815 -34.90658 -29.316843
-15.759799 -36.275574 -30.133952
-16.309293 -36.207825 -29.464517
-15.124626 -36.409691 -30.849746
-15.759799 -36.275574 -30.133952
-15.290478 -35.05806 -30.775067
-14.558616 -36.438425 -31.54875
-15.124626 -36.409691 -30.849746
-14.61877 -31.416944 -31.98081
-15.378346 -31.517058 -31.179108
-13.988239 -31.468523 -32.663151
-13.283941 -31.392305 -33.407394
-14.347222 -32.708409 -32.088396
-14.61877 -31.416944 -31.98081
-13.988239 -31.468523 -32.663151
-13.894573 -36.405653 -32.329252
-14.558616 -36.438425 -31.54875
-13.991263 -35.159405 -32.271363
-13.299131 -36.384907 -33.080527
-13.894573 -36.405653 -32.329252
-12.701435 -36.303657 -33.80546
-13.299131 -36.384907 -33.080527
-12.729524 -35.045383 -33.776798
-12.127914 -36.229139 -34.549233
-12.701435 -36.303657 -33.80546
-11.543183 -36.140422 -35.284603
-12.127914 -36.229139 -34.549233
-11.547097 -34.875417 -35.237102
-10.95429 -36.000231 -36.06909
-11.543183 -36.140422 -35.284603
-10.361622 -35.751314 -36.839291
-10.95429 -36.000231 -36.06909
-10.369698 -34.537785 -36.742674
-9.791462 -35.553411 -37.61264
-10.376054 -37.015857 -36.939056
-10.361622 -35.751314 -36.839291
-9.598488 -28.149188 -37.835808
-10.318545 -28.381441 -37.012211
-9.38449 -29.147286 -38.007629
-9.598488 -28.149188 -37.835808
-8.896828 -27.861194 -38.695351
-8.080809 -28.535895 -39.645942
-8.208427 -27.492977 -39.543039
-7.606407 -27.169579 -40.32181
-4.912684 -22.781363 -44.211027
-5.520313 -23.254866 -43.334816
-2.971759 -16.074058 -47.953091
-2.494247 -15.392375 -48.812613
-3.257861 -17.62497 -47.246943
-2.971759 -16.074058 -47.953091
-3.6074 -19.275283 -46.481878
-3.257861 -17.62497 -47.246943
-3.084629 -18.552697 -47.374927
-3.961002 -20.770086 -45.773544
-3.6074 -19.275283 -46.481878
-4.35841 -22.343336 -45.039383
-3.961002 -20.770086 -45.773544
-3.831577 -21.77626 -45.875702
-4.783259 -23.787537 -44.313185
-4.912684 -22.781363 -44.211027
-4.35841 -22.343336 -45.039383
0.204444 -27.53541 -50.861439
-0.327571 -29.585714 -49.961292
-0.508447 -28.27053 -50.017823
0.862956 -26.824694 -51.703936
0.204444 -27.53541 -50.861439
0.68208 -25.50951 -51.760465
1.617565 -26.014396 -52.564527
0.862956 -26.824694 -51.703936
1.617565 -26.014396 -52.564527
2.026045 -24.043765 -53.437976
2.410911 -21.973813 -54.356641
2.774676 -19.907773 -55.295723
4.605854 -1.066693 -63.781425
4.12329 -0.293576 -63.590526
4.675012 0.69108 -64.506451
5.479608 -4.730937 -63.159086
5.595189 -2.950934 -63.950333
4.881096 -5.525494 -62.3515
5.479608 -4.730937 -63.159086
5.347674 -6.468993 -62.365864
4.652181 -14.226869 -58.851526
4.210654 -13.10916 -58.902828
4.868005 -12.149553 -59.791082
4.407545 -16.214987 -57.94154
4.652181 -14.226869 -58.851526
3 0 95 96
3 0 97 99
3 97 24 98
3 97 98 99
3 1 26 25
3 1 28 26
3 1 30 28
3 2 100 101
3 2 102 104
3 102 31 103
3 102 103 104
3 105 34 106
3 3 107 109
3 107 36 108
3 107 108 109
3 3 38 36
3 4 41 39
3 4 43 41
3 4 45 43
3 5 48 46
3 5 49 48
3 110 51 111
3 6 112 114
3 114 113 23
3 112 113 114
3 6 115 117
3 115 52 116
3 115 116 117
3 118 53 119
3 8 54 27
3 8 55 54
3 8 57 55
3 10 58 29
3 10 59 58
3 120 61 121
3 123 122 61
3 12 124 125
3 12 126 128
3 126 63 127
3 126 127 128
3 13 64 32
3 13 65 64
3 14 129 131
3 129 66 130
3 129 130 131
3 14 67 66
3 14 68 67
3 15 69 33
3 15 70 69
3 132 71 133
3 16 72 35
3 16 73 72
3 16 74 73
3 17 75 37
3 17 76 75
3 7 134 136
3 134 77 135
3 134 135 136
3 18 78 40
3 18 79 78
3 18 80 79
3 19 81 42
3 19 82 81
3 19 83 82
3 20 84 44
3 20 85 84
3 9 86 56
3 21 87 47
3 21 88 87
3 21 137 139
3 139 138 88
3 137 138 139
3 11 89 62
3 22 90 50
3 22 91 90
3 140 92 141
3 142 141 60
3 140 141 142
3 143 93 144
3 145 94 146
3 147 146 93
3 145 146 147
3 149 148 94
3 150 23 151
3 24 152 154
3 152 23 153
3 152 153 154
3 24 6 23
3 25 155 156
3 26 157 159
3 159 158 25
3 157 158 159
3 26 160 161
3 26 162 164
3 162 27 163
3 162 163 164
3 28 27 26
3 28 8 27
3 28 29 8
3 30 29 28
3 30 10 29
3 31 165 166
3 31 167 169
3 167 12 168
3 167 168 169
3 170 32 171
3 172 32 173
3 174 13 175
3 176 175 32
3 174 175 176
3 177 14 178
3 179 33 180
3 181 180 14
3 179 180 181
3 34 182 184
3 182 33 183
3 182 183 184
3 34 15 33
3 185 35 186
3 36 187 189
3 187 35 188
3 187 188 189
3 36 16 35
3 36 37 16
3 38 37 36
3 38 17 37
3 39 40 7
3 41 40 39
3 41 18 40
3 41 42 18
3 43 42 41
3 43 19 42
3 43 44 19
3 45 44 43
3 45 20 44
3 46 47 9
3 48 47 46
3 48 21 47
3 48 190 192
3 192 191 21
3 190 191 192
3 49 193 195
3 195 194 48
3 193 194 195
3 49 196 197
3 198 50 199
3 200 199 11
3 198 199 200
3 51 201 203
3 201 50 202
3 201 202 203
3 51 22 50
3 23 204 205
3 207 206 23
3 52 208 209
3 52 210 211
3 212 2 213
3 214 3 215
3 53 216 217
3 53 218 220
3 218 7 219
3 218 219 220
3 27 221 223
3 221 53 222
3 221 222 223
3 54 53 27
3 54 7 53
3 54 39 7
3 55 39 54
3 55 4 39
3 55 56 4
3 57 56 55
3 57 9 56
3 29 57 8
3 58 57 29
3 58 9 57
3 58 46 9
3 59 46 58
3 59 5 46
3 224 60 225
3 226 60 227
3 229 228 60
3 230 25 231
3 61 232 234
3 232 25 233
3 232 233 234
3 61 1 25
3 61 62 1
3 235 62 236
3 237 236 61
3 235 236 237
3 238 11 239
3 240 239 62
3 238 239 240
3 241 11 242
3 244 243 11
3 63 245 246
3 63 247 249
3 247 0 248
3 247 248 249
3 32 250 251
3 64 252 254
3 254 253 32
3 252 253 254
3 64 255 256
3 64 257 258
3 65 259 261
3 261 260 64
3 259 260 261
3 65 262 263
3 264 13 265
3 66 266 267
3 66 268 270
3 268 13 269
3 268 269 270
3 66 65 13
3 67 65 66
3 67 271 273
3 273 272 65
3 271 272 273
3 67 274 275
3 68 276 278
3 278 277 67
3 276 277 278
3 68 279 280
3 33 68 14
3 69 68 33
3 69 281 283
3 283 282 68
3 281 282 283
3 69 284 285
3 70 286 288
3 288 287 69
3 286 287 288
3 70 289 291
3 289 2 290
3 289 290 291
3 292 34 293
3 71 294 296
3 294 34 295
3 294 295 296
3 71 15 34
3 35 297 299
3 297 71 298
3 297 298 299
3 72 71 35
3 72 15 71
3 72 70 15
3 73 70 72
3 73 2 70
3 73 31 2
3 74 31 73
3 74 12 31
3 37 74 16
3 75 74 37
3 75 12 74
3 75 63 12
3 76 63 75
3 76 0 63
3 300 3 301
3 77 302 303
3 77 304 305
3 40 77 7
3 78 77 40
3 78 306 308
3 308 307 77
3 306 307 308
3 78 309 310
3 79 311 313
3 313 312 78
3 311 312 313
3 79 314 316
3 314 3 315
3 314 315 316
3 79 38 3
3 80 38 79
3 80 17 38
3 42 80 18
3 81 80 42
3 81 17 80
3 81 76 17
3 82 76 81
3 82 0 76
3 82 24 0
3 83 24 82
3 83 6 24
3 44 83 19
3 84 83 44
3 84 6 83
3 84 52 6
3 85 52 84
3 85 317 319
3 319 318 52
3 317 318 319
3 56 45 4
3 86 45 56
3 86 20 45
3 47 86 9
3 87 86 47
3 87 20 86
3 87 85 20
3 88 85 87
3 88 320 322
3 322 321 85
3 320 321 322
3 88 323 324
3 326 325 88
3 328 327 21
3 62 30 1
3 89 30 62
3 89 10 30
3 50 89 11
3 90 89 50
3 90 10 89
3 90 59 10
3 91 59 90
3 91 5 59
3 60 329 331
3 329 51 330
3 329 330 331
3 92 51 60
3 92 22 51
3 332 92 333
3 93 334 336
3 334 92 335
3 334 335 336
3 93 22 92
3 93 91 22
3 94 91 93
3 94 5 91
3 94 49 5
3 337 49 338
3 339 338 94
3 337 338 339
3 341 340 49
