ply
format ascii 1.0
element vertex 421
property float x
property float y
property float z
element face 454
property list uchar int vertex_index
end_header
-23.364277 -83.397156 23.408726
-26.28582 -85.588722 1.693339
-24.680716 -94.317986 3.511598
-25.253162 -85.318695 12.746408
-22.689062 -102.222488 -7.022058
-26.263781 -94.329269 -7.546952
-25.985506 -76.332664 9.627645
-25.192341 -75.358421 -1.152298
-22.324291 -87.500748 18.938763
-23.708393 -89.00341 13.810966
-24.340614 -84.614464 18.264668
-20.752586 -85.490341 23.987207
-19.3589 -104.416779 -7.049994
-21.205214 -101.265007 -1.768029
-25.978977 -90.167053 2.773947
-25.771439 -94.566742 -2.009389
-26.461424 -90.088371 -2.653966
-26.311277 -84.88755 -3.782234
-26.1341 -76.557358 14.928005
-25.205795 -71.016357 2.373727
-24.487024 -69.954086 -2.694212
-23.782494 -68.946075 -7.45398
-20.405722 -95.464699 9.049294
-22.380814 -97.361916 3.798123
-23.228161 -93.151299 8.950747
-25.014954 -89.957352 8.294302
-25.915646 -85.686722 7.248753
-25.068895 -80.453682 22.136833
-23.406897 -102.267464 -12.568782
-24.010569 -98.46051 -1.662234
-25.044569 -98.726006 -7.184369
-25.566565 -80.896317 16.760914
-25.877567 -81.171135 11.313988
-26.017191 -80.953911 5.869428
-25.816595 -71.512871 7.653046
-25.675634 -75.918907 4.152712
-25.893723 -80.360764 0.30563
-22.856333 -85.395645 21.266615
-23.372515 -86.259796 18.719637
-23.845657 -84.136276 20.833061
-22.214428 -84.615379 23.654123
-21.578793 -86.507874 21.553467
-20.243376 -100.420372 0.829783
-26.237331 -87.861603 2.302618
-26.264339 -90.306763 0.030295
-26.407736 -87.88028 -0.50786
-26.480066 -87.345795 -3.140842
-26.328568 -85.149673 -0.920218
-24.657997 -68.096275 -1.0421
-24.296713 -67.488289 -3.344265
-24.138882 -69.514717 -5.066866
-23.935095 -66.999146 -5.662582
-23.577492 -66.412888 -7.906157
-20.887318 -93.562309 11.596823
-21.951147 -94.626381 8.784482
-22.23 -92.626457 11.420653
-24.591566 -87.331856 13.33229
-24.439075 -89.399445 11.133822
-25.125507 -87.597961 10.704863
-25.579269 -87.800873 7.968442
-25.595064 -85.630058 10.072493
-21.186342 -103.427094 -6.931154
-21.68548 -103.803703 -9.610712
-22.033255 -103.89473 -12.468111
-23.139887 -102.391327 -9.823745
-23.696394 -96.031784 3.512689
-23.276196 -98.011917 1.052763
-24.452297 -96.329994 0.952235
-26.073423 -94.594521 -4.773139
-25.471464 -96.840736 -4.737193
-25.782484 -96.629456 -7.243268
-25.283627 -98.558075 -9.878201
-25.910517 -96.400795 -9.920916
-25.333969 -80.730583 19.544703
-25.81657 -78.758171 18.58518
-26.07513 -76.479652 12.234706
-25.971485 -78.713463 13.066381
-25.979616 -78.920692 10.304541
-25.9741 -81.03717 8.665721
-25.960457 -78.64019 7.799326
-25.11735 -73.020309 0.54602
-25.425175 -73.470406 3.221106
-25.450516 -75.598412 1.534515
-25.770113 -78.302391 2.400026
-25.568666 -77.806114 -0.273203
-25.732471 -79.858711 -2.213901
-25.322384 -77.371239 -3.022276
-22.618916 -90.475227 13.984048
-23.03071 -88.330879 16.352739
-24.054724 -86.691742 16.124928
-24.82699 -85.048325 15.446054
-20.44521 -102.925484 -4.472763
-22.00038 -101.789894 -4.157516
-25.465246 -92.385941 3.151803
-25.296185 -94.518723 0.762825
-25.899761 -92.423988 0.565724
-26.220503 -92.482155 -2.280395
-26.434809 -92.16671 -5.064223
-26.49749 -91.91468 -7.966772
-26.551643 -89.681458 -5.419557
-26.464832 -87.134331 -5.987218
-26.138523 -76.77713 17.61322
-26.105032 -74.103287 11.346196
-25.041233 -68.297462 1.505628
-24.856821 -70.413864 -0.152948
-24.816957 -72.566353 -1.762675
-24.862209 -74.608162 -3.615596
-24.468746 -72.072403 -4.304205
-20.929909 -98.534119 3.567842
-21.338173 -96.639465 6.319758
-22.835262 -95.351334 6.332359
-23.95619 -93.965683 6.137563
-23.47768 -91.119072 11.349792
-24.260681 -91.683212 8.598739
-24.896593 -92.200165 5.820482
-25.56616 -90.132874 5.465075
-25.961283 -87.959373 5.078304
-26.139063 -85.575531 4.569509
-24.291473 -82.111519 22.778238
-21.893049 -99.42054 0.882389
-22.765472 -99.998917 -1.706917
-23.446198 -100.485535 -4.494142
-25.002867 -96.721954 -1.862615
-24.646084 -98.668343 -4.506105
-24.014097 -100.597565 -7.077854
-24.351067 -100.60968 -9.838076
-24.48173 -100.418381 -12.493823
-24.680872 -82.531319 20.302347
-25.06604 -82.788872 17.603888
-25.383183 -83.048874 14.829978
-25.90638 -78.854225 15.738256
-25.756014 -80.942749 13.949438
-25.636402 -83.381897 12.104535
-25.873917 -83.414612 9.303265
-26.035402 -83.301361 6.717061
-26.138334 -83.311783 3.942008
-25.912201 -73.968964 8.624833
-25.53348 -71.294823 5.06992
-25.690176 -73.710556 5.973733
-25.854925 -76.32106 6.789882
-25.888685 -78.493073 5.036905
-25.997507 -80.808678 3.025608
-26.150696 -82.948105 1.268945
-26.099752 -82.632095 -1.588946
-25.976442 -82.171967 -4.192528
-22.789352 -84.006268 23.531424
-22.53314 -83.620709 24.7222
-23.108065 -83.011597 24.599502
-19.748536 -99.904873 2.066619
-19.332566 -100.763973 0.724853
-24.241501 -66.220276 -3.76276
-24.438524 -66.450271 -2.565385
-24.060692 -65.975705 -4.921919
-24.115904 -67.243718 -4.503424
-24.241501 -66.220276 -3.76276
-23.871015 -65.670448 -6.064583
-24.060692 -65.975705 -4.921919
-21.788046 -92.09198 12.786067
-21.558659 -93.094383 11.508738
-21.116705 -92.559906 12.874152
-21.116705 -92.559906 12.874152
-20.360669 -93.001583 12.864224
-26.264919 -94.25061 -8.989841
-26.088286 -95.286373 -10.176823
-26.087149 -95.365032 -8.733934
-25.988426 -77.618675 19.430132
-25.762192 -78.626758 19.902631
-22.677501 -87.915813 17.645751
-22.422443 -88.922379 16.501354
-22.069234 -88.507313 17.794366
-20.401457 -84.901161 25.149137
-21.142232 -84.566387 25.044497
-19.944477 -85.794841 24.021996
-19.593349 -85.205661 25.183925
-20.401457 -84.901161 25.149137
-20.422982 -86.439999 22.793222
-19.944477 -85.794841 24.021996
-21.634282 -88.052838 18.986723
-21.261533 -87.5564 20.294075
-21.951542 -87.004311 20.246115
-22.069234 -88.507313 17.794366
-21.634282 -88.052838 18.986723
-20.825212 -102.095246 -3.120396
-19.999766 -102.494511 -3.136941
-20.379769 -101.664272 -1.784575
-26.257197 -84.682556 -5.070491
-26.333975 -85.805947 -6.172983
-26.388055 -86.010941 -4.884726
-26.207468 -72.987297 12.030054
-26.180962 -74.172714 12.588536
-25.003255 -67.112133 1.075965
-25.206912 -67.272041 2.376482
-23.96091 -70.28529 -7.094969
-24.139104 -70.569611 -5.901413
-23.960688 -69.230396 -6.260423
-23.788378 -69.930763 -8.248815
-23.96091 -70.28529 -7.094969
-23.606367 -68.568264 -8.575846
-23.788378 -69.930763 -8.248815
-23.324937 -64.536075 -9.354726
-23.391579 -65.966457 -9.007696
-23.51085 -64.982506 -8.253188
-20.871948 -96.052082 7.684526
-20.55984 -97.046398 6.296968
-20.093615 -96.459015 7.661736
-19.575394 -95.837208 8.92071
-19.039417 -95.274887 10.138593
-19.869746 -94.902378 10.267177
-20.093615 -96.459015 7.661736
-19.575394 -95.837208 8.92071
-18.747909 -105.069607 -8.421958
-18.438457 -104.708958 -7.127405
-22.806503 -102.954231 -13.777572
-22.119681 -103.767865 -13.727237
-22.720076 -103.081097 -12.518446
-23.409356 -102.113541 -13.911948
-22.806503 -102.954231 -13.777572
-24.881808 -99.379154 -12.628013
-24.882678 -99.488228 -11.186012
-25.282756 -98.449002 -11.320201
-24.419008 -100.249482 -13.96986
-24.881808 -99.379154 -12.628013
-26.462091 -91.733882 -9.264534
-26.506361 -90.628368 -8.080998
-25.944704 -71.676987 8.942871
-25.93918 -70.45131 8.439637
-25.864398 -72.740917 8.138939
-25.992507 -72.905034 9.428765
-25.944704 -71.676987 8.942871
-25.369637 -71.15559 3.721824
-25.464158 -70.041851 4.535978
-25.300315 -69.902618 3.187882
-25.762871 -80.870148 -4.521338
-25.854456 -81.015339 -3.203215
-25.640886 -79.71352 -3.532024
-25.885088 -81.96859 -5.519139
-25.762871 -80.870148 -4.521338
-24.960712 -75.719219 -4.471969
-24.727253 -74.498795 -4.844374
-21.873153 -84.128906 24.877955
-22.53314 -83.620709 24.7222
-21.483507 -85.05286 23.820665
-21.142232 -84.566387 25.044497
-21.873153 -84.128906 24.877955
-19.89885 -101.241955 -0.485669
-19.332566 -100.763973 0.724853
-20.724295 -100.84269 -0.469123
-20.379769 -101.664272 -1.784575
-19.89885 -101.241955 -0.485669
-24.619166 -66.754265 -1.414303
-24.811637 -67.011539 -0.197899
-24.477355 -67.792282 -2.193182
-24.619166 -66.754265 -1.414303
-24.438524 -66.450271 -2.565385
-23.692213 -65.377319 -7.186371
-23.756293 -66.706017 -6.78437
-23.871015 -65.670448 -6.064583
-23.51085 -64.982506 -8.253188
-23.692213 -65.377319 -7.186371
-20.110543 -93.951183 11.540942
-20.360669 -93.001583 12.864224
-20.64652 -94.513504 10.323059
-19.869746 -94.902378 10.267177
-20.110543 -93.951183 11.540942
-20.590169 -104.17838 -8.290593
-19.676448 -104.673222 -8.350013
-20.272621 -103.921937 -6.990574
-20.839738 -104.366684 -9.630373
-20.590169 -104.17838 -8.290593
-21.435911 -103.615398 -8.270933
-21.117903 -104.436222 -10.867665
-20.839738 -104.366684 -9.630373
-21.859367 -103.849216 -11.039411
-21.291791 -104.481735 -12.296365
-21.117903 -104.436222 -10.867665
-25.596201 -97.370362 -11.341559
-25.282756 -98.449002 -11.320201
-25.597072 -97.479435 -9.899559
-25.873746 -96.252217 -11.362102
-25.596201 -97.370362 -11.341559
-25.873746 -96.252217 -11.362102
-26.088286 -95.286373 -10.176823
-25.520891 -79.612965 20.382392
-25.201432 -80.592132 20.840768
-25.388354 -79.474514 21.678457
-25.575269 -79.744377 19.064941
-25.520891 -79.612965 20.382392
-25.762192 -78.626758 19.902631
-25.782511 -70.207867 7.141047
-25.93918 -70.45131 8.439637
-25.435842 -78.469784 -3.936212
-25.640886 -79.71352 -3.532024
-25.527428 -78.614975 -2.618088
-22.216546 -89.994552 15.317009
-21.982504 -91.016365 14.067764
-22.824813 -89.403053 15.168394
-22.216546 -89.994552 15.317009
-22.422443 -88.922379 16.501354
-20.836086 -86.948765 21.576352
-20.422982 -86.439999 22.793222
-21.165689 -85.999108 22.770337
-20.836086 -86.948765 21.576352
-21.261533 -87.5564 20.294075
-19.017944 -103.994678 -5.727059
-18.438457 -104.708958 -7.127405
-19.561099 -103.249031 -4.438443
-19.999766 -102.494511 -3.136941
-19.902055 -103.671132 -5.761378
-19.017944 -103.994678 -5.727059
-19.561099 -103.249031 -4.438443
-26.533437 -89.511757 -6.807391
-26.506361 -90.628368 -8.080998
-26.524566 -90.798069 -6.693164
-26.490032 -88.238193 -7.091222
-26.533437 -89.511757 -6.807391
-26.508237 -88.407894 -5.703387
-26.398687 -86.894322 -7.304627
-26.490032 -88.238193 -7.091222
-26.398687 -86.894322 -7.304627
-26.333975 -85.805947 -6.172983
-26.304561 -75.634068 18.377937
-26.149403 -76.628154 18.944153
-26.255713 -75.661541 17.064808
-26.304561 -75.634068 18.377937
-26.253501 -75.551655 15.7222
-26.136311 -76.667244 16.270612
-26.255713 -75.661541 17.064808
-26.195497 -75.39975 14.379441
-26.253501 -75.551655 15.7222
-26.166012 -75.360897 13.032791
-26.104615 -76.518505 13.581356
-26.195497 -75.39975 14.379441
-26.090081 -75.29147 11.790451
-26.166012 -75.360897 13.032791
-26.180962 -74.172714 12.588536
-25.218035 -68.543171 2.753832
-25.206912 -67.272041 2.376482
-25.123514 -69.656909 1.939678
-25.300315 -69.902618 3.187882
-25.218035 -68.543171 2.753832
-24.849615 -68.196868 0.231764
-25.003255 -67.112133 1.075965
-24.811637 -67.011539 -0.197899
-24.530521 -73.230915 -5.188678
-24.727253 -74.498795 -4.844374
-24.665478 -73.340283 -3.9599
-24.304036 -71.848454 -5.520082
-24.303814 -70.79356 -4.685536
-24.139104 -70.569611 -5.901413
-24.530521 -73.230915 -5.188678
-24.304036 -71.848454 -5.520082
-23.503865 -67.301671 -8.801934
-23.606367 -68.568264 -8.575846
-23.679993 -67.679481 -7.680068
-23.503865 -67.301671 -8.801934
-23.391579 -65.966457 -9.007696
-20.355708 -97.993725 4.92101
-20.091803 -98.961747 3.435648
-21.134041 -97.586792 4.9438
-20.355708 -97.993725 4.92101
-20.55984 -97.046398 6.296968
-22.424458 -91.550842 12.70235
-21.788046 -92.09198 12.786067
-21.982504 -91.016365 14.067764
-24.123656 -81.751808 24.001736
-23.827875 -82.754337 23.093482
-23.660058 -82.394627 24.31698
-24.558887 -81.035488 23.659376
-24.123656 -81.751808 24.001736
-24.947598 -80.20657 23.338673
-24.680184 -81.282601 22.457535
-24.558887 -81.035488 23.659376
-25.308409 -79.361737 22.883109
-24.947598 -80.20657 23.338673
-25.388354 -79.474514 21.678457
-25.308409 -79.361737 22.883109
-23.660058 -82.394627 24.31698
-23.108065 -83.011597 24.599502
-18.747909 -105.069607 -8.421958
-19.676448 -104.673222 -8.350013
-21.339565 -104.505814 -13.651346
-21.291791 -104.481735 -12.296365
-21.425992 -104.378949 -14.910472
-21.339565 -104.505814 -13.651346
-22.119681 -103.767865 -13.727237
-20.586642 -99.477246 2.198813
-19.748536 -99.904873 2.066619
-20.091803 -98.961747 3.435648
-23.946772 -101.188999 -13.874468
-23.409356 -102.113541 -13.911948
-23.944313 -101.342923 -12.531303
-23.946772 -101.188999 -13.874468
-24.419008 -100.249482 -13.96986
-26.381773 -93.043316 -9.199751
-26.264919 -94.25061 -8.989841
-26.380636 -93.121974 -7.756862
-26.381773 -93.043316 -9.199751
-26.462091 -91.733882 -9.264534
-25.977546 -77.767651 18.0992
-25.988426 -77.618675 19.430132
-26.149403 -76.628154 18.944153
-26.088923 -72.972195 10.789447
-26.207468 -72.987297 12.030054
-26.008617 -74.036125 9.985515
-26.088923 -72.972195 10.789447
-25.992507 -72.905034 9.428765
-25.640953 -70.098843 5.849484
-25.464158 -70.041851 4.535978
-25.675038 -71.403847 6.361483
-25.782511 -70.207867 7.141047
-25.640953 -70.098843 5.849484
-26.089779 -83.324765 -5.275638
-26.257197 -84.682556 -5.070491
-26.143859 -83.529758 -3.987381
-26.089779 -83.324765 -5.275638
-25.885088 -81.96859 -5.519139
-25.190799 -77.100758 -4.175308
-25.092296 -75.9897 -3.318936
-24.960712 -75.719219 -4.471969
-25.435842 -78.469784 -3.936212
-25.190799 -77.100758 -4.175308
3 0 39 37
3 0 145 147
3 145 40 146
3 145 146 147
3 0 37 40
3 148 42 149
3 1 45 43
3 1 47 45
3 150 49 151
3 152 51 153
3 154 153 49
3 152 153 154
3 156 155 51
3 157 55 158
3 159 158 53
3 157 158 159
3 3 58 56
3 3 60 58
3 160 53 161
3 4 62 61
3 4 64 62
3 2 67 65
3 5 70 68
3 5 72 70
3 5 162 164
3 164 163 72
3 162 163 164
3 165 74 166
3 6 77 75
3 6 79 77
3 7 82 80
3 7 84 82
3 7 86 84
3 8 167 169
3 167 88 168
3 167 168 169
3 10 89 38
3 10 90 89
3 11 170 171
3 11 172 174
3 172 173 174
3 11 175 176
3 8 177 179
3 179 178 41
3 177 178 179
3 8 180 181
3 13 182 184
3 182 91 183
3 182 183 184
3 13 92 91
3 14 95 93
3 16 96 44
3 16 97 96
3 16 99 97
3 17 100 46
3 17 185 187
3 187 186 100
3 185 186 187
3 188 102 189
3 190 103 191
3 20 104 48
3 20 105 104
3 20 107 105
3 21 192 194
3 194 193 50
3 192 193 194
3 21 195 196
3 21 197 198
3 201 200 52
3 199 200 201
3 22 202 204
3 202 109 203
3 202 203 204
3 24 110 54
3 24 111 110
3 9 112 87
3 25 113 57
3 25 114 113
3 25 115 114
3 26 116 59
3 26 117 116
3 22 205 207
3 205 206 207
3 22 208 209
3 12 210 211
3 28 212 214
3 214 213 63
3 212 213 214
3 28 215 216
3 23 119 108
3 29 120 66
3 29 121 120
3 15 122 94
3 30 123 69
3 30 124 123
3 30 125 124
3 217 126 218
3 219 218 71
3 217 218 219
3 221 220 126
3 223 222 98
3 27 127 118
3 31 128 73
3 31 129 128
3 18 130 101
3 32 131 76
3 32 132 131
3 32 133 132
3 33 134 78
3 33 135 134
3 34 224 225
3 34 226 228
3 226 136 227
3 226 227 228
3 19 229 231
3 229 137 230
3 229 230 231
3 35 138 81
3 35 139 138
3 35 140 139
3 36 141 83
3 36 142 141
3 36 143 142
3 232 144 233
3 234 233 85
3 232 233 234
3 236 235 144
3 238 237 106
3 37 38 8
3 39 38 37
3 39 10 38
3 40 239 240
3 40 241 243
3 241 11 242
3 241 242 243
3 40 41 11
3 37 41 40
3 37 8 41
3 42 244 245
3 42 246 248
3 246 13 247
3 246 247 248
3 43 44 14
3 45 44 43
3 45 16 44
3 45 46 16
3 47 46 45
3 47 17 46
3 249 48 250
3 49 251 253
3 251 48 252
3 251 252 253
3 49 20 48
3 49 50 20
3 51 50 49
3 51 21 50
3 51 52 21
3 254 52 255
3 256 255 51
3 254 255 256
3 258 257 52
3 53 54 22
3 55 54 53
3 55 24 54
3 56 57 9
3 58 57 56
3 58 25 57
3 58 59 25
3 60 59 58
3 60 26 59
3 53 259 260
3 53 261 263
3 261 22 262
3 261 262 263
3 61 264 266
3 266 265 12
3 264 265 266
3 62 267 269
3 269 268 61
3 267 268 269
3 62 270 271
3 62 272 274
3 272 63 273
3 272 273 274
3 64 63 62
3 64 28 63
3 65 66 23
3 67 66 65
3 67 29 66
3 68 69 15
3 70 69 68
3 70 30 69
3 70 71 30
3 72 71 70
3 72 275 277
3 277 276 71
3 275 276 277
3 72 278 279
3 281 280 72
3 282 73 283
3 284 283 27
3 282 283 284
3 74 285 287
3 285 73 286
3 285 286 287
3 74 31 73
3 75 76 18
3 77 76 75
3 77 32 76
3 77 78 32
3 79 78 77
3 79 33 78
3 288 34 289
3 80 81 19
3 82 81 80
3 82 35 81
3 82 83 35
3 84 83 82
3 84 36 83
3 84 85 36
3 86 85 84
3 86 290 292
3 292 291 85
3 290 291 292
3 293 87 294
3 88 295 297
3 295 87 296
3 295 296 297
3 88 9 87
3 38 88 8
3 89 88 38
3 89 9 88
3 89 56 9
3 90 56 89
3 90 3 56
3 41 298 300
3 300 299 11
3 298 299 300
3 302 301 41
3 303 12 304
3 91 305 306
3 91 307 309
3 307 12 308
3 307 308 309
3 91 61 12
3 92 61 91
3 92 4 61
3 93 94 2
3 95 94 93
3 95 15 94
3 44 95 14
3 96 95 44
3 96 15 95
3 96 68 15
3 97 68 96
3 97 5 68
3 97 98 5
3 99 98 97
3 99 310 312
3 312 311 98
3 310 311 312
3 46 99 16
3 100 99 46
3 100 313 315
3 315 314 99
3 313 314 315
3 100 316 317
3 319 318 100
3 320 101 321
3 322 101 323
3 324 18 325
3 326 325 101
3 324 325 326
3 327 18 328
3 329 75 330
3 331 330 18
3 329 330 331
3 102 332 334
3 332 75 333
3 332 333 334
3 102 6 75
3 103 335 336
3 103 337 339
3 337 19 338
3 337 338 339
3 48 340 342
3 340 103 341
3 340 341 342
3 104 103 48
3 104 19 103
3 104 80 19
3 105 80 104
3 105 7 80
3 105 106 7
3 107 106 105
3 107 343 345
3 345 344 106
3 343 344 345
3 50 107 20
3 346 107 347
3 348 347 50
3 346 347 348
3 350 349 107
3 52 351 353
3 353 352 21
3 351 352 353
3 355 354 52
3 356 108 357
3 109 358 360
3 358 108 359
3 358 359 360
3 109 23 108
3 54 109 22
3 110 109 54
3 110 23 109
3 110 65 23
3 111 65 110
3 111 2 65
3 87 361 363
3 361 55 362
3 361 362 363
3 112 55 87
3 112 24 55
3 57 112 9
3 113 112 57
3 113 24 112
3 113 111 24
3 114 111 113
3 114 2 111
3 114 93 2
3 115 93 114
3 115 14 93
3 59 115 25
3 116 115 59
3 116 14 115
3 116 43 14
3 117 43 116
3 117 1 43
3 364 118 365
3 366 365 0
3 364 365 366
3 367 118 368
3 369 27 370
3 371 370 118
3 369 370 371
3 372 27 373
3 375 374 27
3 376 0 377
3 379 378 12
3 63 380 381
3 384 383 63
3 382 383 384
3 108 385 387
3 385 42 386
3 385 386 387
3 119 42 108
3 119 13 42
3 66 119 23
3 120 119 66
3 120 13 119
3 120 92 13
3 121 92 120
3 121 4 92
3 94 67 2
3 122 67 94
3 122 29 67
3 69 122 15
3 123 122 69
3 123 29 122
3 123 121 29
3 124 121 123
3 124 4 121
3 124 64 4
3 125 64 124
3 125 28 64
3 71 125 30
3 126 125 71
3 126 28 125
3 126 388 390
3 390 389 28
3 388 389 390
3 392 391 126
3 98 393 395
3 395 394 5
3 393 394 395
3 397 396 98
3 118 39 0
3 127 39 118
3 127 10 39
3 73 127 27
3 128 127 73
3 128 10 127
3 128 90 10
3 129 90 128
3 129 3 90
3 101 398 400
3 398 74 399
3 398 399 400
3 130 74 101
3 130 31 74
3 76 130 18
3 131 130 76
3 131 31 130
3 131 129 31
3 132 129 131
3 132 3 129
3 132 60 3
3 133 60 132
3 133 26 60
3 78 133 32
3 134 133 78
3 134 26 133
3 134 117 26
3 135 117 134
3 135 1 117
3 401 102 402
3 136 403 405
3 403 102 404
3 403 404 405
3 136 6 102
3 137 406 407
3 137 408 410
3 408 34 409
3 408 409 410
3 81 137 19
3 138 137 81
3 138 34 137
3 138 136 34
3 139 136 138
3 139 6 136
3 139 79 6
3 140 79 139
3 140 33 79
3 83 140 35
3 141 140 83
3 141 33 140
3 141 135 33
3 142 135 141
3 142 1 135
3 142 47 1
3 143 47 142
3 143 17 47
3 85 143 36
3 144 143 85
3 144 17 143
3 144 411 413
3 413 412 17
3 411 412 413
3 415 414 144
3 106 86 7
3 416 86 417
3 418 417 106
3 416 417 418
3 420 419 86
