ply
format ascii 1.0
element vertex 342
property float x
property float y
property float z
element face 335
property list uchar int vertex_index
end_header
30.848059 -41.658264 -9.10967
22.521866 -21.236002 -23.606716
21.46343 -41.684174 -10.139471
21.771389 -31.010586 -12.697017
26.336267 -30.519119 -19.822819
32.634167 -24.48522 -22.581774
35.58773 -40.037453 -10.727536
22.766232 -26.5767 -17.513321
23.364931 -25.837326 -22.574051
29.832621 -27.706776 -20.84918
26.771204 -24.121502 -26.025059
23.293135 -18.660213 -28.006531
25.682804 -42.02763 -8.967398
21.741154 -39.890472 -3.899021
20.215361 -36.322536 -6.926482
18.910124 -34.361561 -10.071421
19.727774 -35.020332 -13.127113
24.365004 -36.112587 -13.867815
21.668087 -31.125286 -17.231981
30.358181 -35.397133 -14.312248
34.26062 -33.069283 -15.56447
36.83242 -29.733557 -17.985167
30.13381 -21.08894 -28.462717
35.164604 -43.353062 -8.818398
33.499023 -40.893829 -9.652136
24.391701 -20.823765 -22.29372
23.359055 -22.324135 -21.146698
22.578047 -24.071692 -20.45006
22.631418 -23.410349 -23.083115
24.972897 -25.127897 -24.477964
23.57424 -22.606701 -25.227671
23.38237 -42.018341 -9.399054
21.613577 -40.86132 -2.294117
19.45644 -34.953773 -8.420074
22.376425 -35.419521 -8.495463
20.394043 -32.625507 -11.25006
19.931393 -32.506569 -13.121668
21.871426 -35.703346 -13.696718
20.486279 -32.855869 -14.818213
22.701 -28.688541 -19.837299
21.773035 -28.630314 -17.442673
23.832029 -31.270086 -18.853672
25.360458 -33.369385 -16.858576
28.297947 -32.554794 -17.115026
32.527218 -34.436977 -14.810064
30.576294 -31.496098 -17.558384
31.342083 -26.155094 -21.642254
33.596119 -28.455566 -19.003071
34.742165 -26.671692 -19.893816
35.668873 -24.951969 -21.052126
26.648457 -20.011776 -28.77212
28.530371 -18.379017 -29.685551
37.127464 -38.97456 -12.418284
24.014938 -25.044193 -18.134007
22.3328 -26.19895 -20.136641
24.601759 -28.270269 -21.684032
28.227427 -29.239222 -20.356339
26.464886 -27.481796 -22.97909
28.311014 -26.217514 -23.984985
29.842236 -24.699022 -24.84646
30.452017 -16.570219 -30.156488
22.569609 -19.169537 -24.303408
22.526281 -20.031132 -25.813156
28.244068 -41.986233 -8.958269
18.208082 -38.371532 -4.219246
17.953302 -37.298042 -5.697906
21.112867 -38.119637 -5.461558
17.89419 -36.469448 -7.210191
17.873138 -36.186089 -8.939525
17.959209 -36.53907 -10.463437
19.024134 -37.362755 -11.547037
21.354513 -33.694252 -9.786921
18.792997 -34.425678 -11.793041
20.913517 -38.169132 -11.818542
23.238565 -38.756683 -11.369137
25.598934 -39.078075 -11.212531
28.183685 -39.148312 -11.319459
24.550653 -27.958126 -15.46933
22.474552 -28.955593 -14.950251
20.858795 -30.692011 -14.964447
22.514816 -33.542889 -16.283134
27.315701 -36.023815 -14.049716
31.229061 -38.58955 -11.577894
33.54137 -37.672089 -12.015864
35.511513 -36.438831 -12.968059
36.941917 -35.137493 -14.452649
32.225513 -30.091587 -18.250637
35.719643 -31.518091 -16.593576
37.904903 -33.635605 -16.341166
24.977957 -21.430876 -27.294392
28.510031 -22.801563 -27.297617
31.250637 -22.923416 -25.821552
31.81181 -19.332462 -29.324305
32.594898 -21.001347 -26.82756
33.793335 -22.526775 -23.602262
31.864589 -42.803818 -8.379064
30.249405 -43.083023 -8.188738
32.173541 -41.276046 -9.380903
33.190071 -42.4216 -8.650297
31.864589 -42.803818 -8.379064
21.934759 -43.640915 -9.602179
20.802679 -43.356747 -9.96601
22.4229 -41.851258 -9.769262
22.894229 -43.807998 -9.23197
21.934759 -43.640915 -9.602179
24.639392 -37.234094 -8.114933
22.938177 -36.534977 -7.903927
20.851391 -31.758578 -12.909343
21.615982 -32.51278 -12.213369
22.53598 -31.764788 -12.001044
27.693998 -17.118217 -30.46285
26.627498 -17.831478 -29.83495
36.153256 -41.329315 -10.680225
35.941693 -42.98712 -9.725656
35.376167 -41.695257 -9.772967
36.357597 -39.506006 -11.57291
36.923123 -40.797869 -11.525599
36.153256 -41.329315 -10.680225
24.819037 -24.534813 -18.658122
26.047899 -25.860264 -18.075449
22.693736 -18.186797 -24.722398
23.965772 -19.380325 -23.998478
22.252557 -18.368231 -25.245001
22.693736 -18.186797 -24.722398
26.242645 -43.484419 -8.142298
25.049145 -43.693292 -8.360286
26.963436 -42.006932 -8.962833
27.523277 -43.463721 -8.137733
26.242645 -43.484419 -8.142298
20.664114 -37.221086 -6.19402
22.761018 -39.007835 -5.62667
22.312265 -38.109285 -6.359132
23.07114 -34.224404 -10.040662
23.690697 -35.347501 -9.47389
23.658442 -27.267413 -16.491326
25.462854 -27.614439 -16.034705
24.570643 -26.923726 -17.0567
37.532339 -30.958045 -18.195619
38.06858 -32.909069 -17.373618
37.368662 -31.684581 -17.163167
32.656988 -18.459091 -29.755572
31.131914 -17.951341 -29.740396
31.977092 -17.07797 -30.171664
33.821461 -20.856178 -25.809866
33.355282 -20.124536 -27.329153
34.420679 -21.618893 -24.197216
33.194116 -21.764061 -25.214911
33.821461 -20.856178 -25.809866
35.230643 -22.952222 -23.130133
34.420679 -21.618893 -24.197216
34.022861 -43.651217 -8.233428
34.641407 -44.960422 -7.981916
34.331813 -42.123446 -9.235267
34.022861 -43.651217 -8.233428
33.190071 -42.4216 -8.650297
25.764825 -21.964835 -21.4863
26.439421 -21.489677 -22.231075
25.248502 -22.715019 -20.912788
25.764825 -21.964835 -21.4863
23.875378 -21.57395 -21.720209
24.491095 -23.174785 -20.164467
25.248502 -22.715019 -20.912788
22.968551 -23.197913 -20.798379
24.100591 -24.048563 -19.816148
24.491095 -23.174785 -20.164467
23.898927 -43.688648 -8.576114
22.894229 -43.807998 -9.23197
24.532587 -42.022986 -9.183226
25.049145 -43.693292 -8.360286
23.898927 -43.688648 -8.576114
22.674108 -41.033941 -0.789561
21.306821 -41.004045 -1.494676
22.996051 -41.179327 -1.744503
22.674108 -41.033941 -0.789561
23.05984 -40.693903 -2.546955
21.677366 -40.375896 -3.096569
22.996051 -41.179327 -1.744503
21.857644 -36.986485 -7.119437
22.312265 -38.109285 -6.359132
21.478184 -36.302103 -7.866233
19.835901 -35.638154 -7.673278
21.857644 -36.986485 -7.119437
20.916432 -35.186647 -8.457769
21.478184 -36.302103 -7.866233
22.938177 -36.534977 -7.903927
21.847307 -32.572249 -11.277565
22.590905 -33.690031 -10.772232
20.162718 -32.566038 -12.185864
21.847307 -32.572249 -11.277565
21.615982 -32.51278 -12.213369
36.125241 -27.407431 -19.723972
37.170368 -28.938363 -18.769647
35.787292 -28.202624 -18.939492
36.588594 -26.547569 -20.303127
36.125241 -27.407431 -19.723972
35.205519 -25.81183 -20.472971
36.73377 -25.89257 -21.2899
36.588594 -26.547569 -20.303127
25.686541 -18.647858 -29.378235
24.970796 -19.335994 -28.389325
24.00888 -17.972076 -28.995441
27.589414 -19.195397 -29.228836
25.686541 -18.647858 -29.378235
26.627498 -17.831478 -29.83495
35.443109 -44.741509 -8.819377
34.641407 -44.960422 -7.981916
35.443109 -44.741509 -8.819377
35.941693 -42.98712 -9.725656
37.225881 -40.302853 -12.68419
36.923123 -40.797869 -11.525599
37.496924 -38.357788 -13.461126
37.225881 -40.302853 -12.68419
20.567703 -41.293594 -10.235332
20.802679 -43.356747 -9.96601
24.057711 -32.192589 -12.447465
22.53598 -31.764788 -12.001044
25.194997 -26.157473 -17.367044
26.047899 -25.860264 -18.075449
23.390585 -25.810446 -17.823664
24.570643 -26.923726 -17.0567
25.194997 -26.157473 -17.367044
23.296492 -24.557942 -19.292034
24.819037 -24.534813 -18.658122
24.100591 -24.048563 -19.816148
29.844997 -15.294842 -30.706535
28.654822 -16.213818 -30.698318
31.581908 -15.758666 -30.55939
29.844997 -15.294842 -30.706535
31.977092 -17.07797 -30.171664
31.581908 -15.758666 -30.55939
24.876818 -20.207439 -22.993634
26.439421 -21.489677 -22.231075
23.480655 -19.996651 -23.298564
24.876818 -20.207439 -22.993634
23.965772 -19.380325 -23.998478
22.230893 -18.799028 -25.999875
22.547945 -19.600334 -25.058282
22.252557 -18.368231 -25.245001
22.61432 -18.113569 -27.096562
22.909708 -19.345672 -26.909844
22.230893 -18.799028 -25.999875
22.633288 -17.259163 -28.151617
22.61432 -18.113569 -27.096562
24.00888 -17.972076 -28.995441
22.633288 -17.259163 -28.151617
28.947409 -43.247007 -8.113038
27.523277 -43.463721 -8.137733
29.546063 -41.822249 -9.033969
30.249405 -43.083023 -8.188738
28.947409 -43.247007 -8.113038
19.91655 -40.113178 -2.612871
21.306821 -41.004045 -1.494676
18.213803 -38.868284 -3.575436
19.91655 -40.113178 -2.612871
19.910829 -39.616426 -3.256682
17.159833 -38.641703 -4.632055
18.213803 -38.868284 -3.575436
17.490718 -38.413559 -5.276118
17.159833 -38.641703 -4.632055
17.363329 -37.876813 -6.015448
17.490718 -38.413559 -5.276118
18.080692 -37.834787 -4.958576
17.802363 -37.825945 -6.736871
17.363329 -37.876813 -6.015448
23.206532 -40.545523 -3.790532
23.05984 -40.693903 -2.546955
22.892388 -39.660105 -4.571801
22.761018 -39.007835 -5.62667
21.427011 -39.005054 -4.680289
23.206532 -40.545523 -3.790532
22.892388 -39.660105 -4.571801
17.772807 -37.411648 -7.493013
17.802363 -37.825945 -6.736871
17.923746 -36.883745 -6.454048
17.97315 -37.651416 -8.123248
17.772807 -37.411648 -7.493013
17.962625 -37.509737 -8.987915
17.97315 -37.651416 -8.123248
17.883664 -36.327769 -8.074858
18.099474 -37.900404 -9.431892
17.962625 -37.509737 -8.987915
18.142509 -38.076895 -10.193848
18.099474 -37.900404 -9.431892
17.916173 -36.36258 -9.701481
18.815593 -38.721043 -10.397315
18.142509 -38.076895 -10.193848
19.348055 -39.132885 -10.939115
18.815593 -38.721043 -10.397315
18.491672 -36.950913 -11.005237
20.243782 -39.523465 -10.843254
20.567703 -41.293594 -10.235332
19.348055 -39.132885 -10.939115
24.201653 -36.210136 -8.828162
24.639392 -37.234094 -8.114933
21.865469 -34.556887 -9.141192
24.201653 -36.210136 -8.828162
23.690697 -35.347501 -9.47389
20.874278 -33.15988 -10.51849
23.07114 -34.224404 -10.040662
22.590905 -33.690031 -10.772232
23.084899 -30.833923 -12.950883
24.057711 -32.192589 -12.447465
26.664957 -29.10686 -15.609376
25.462854 -27.614439 -16.034705
25.601168 -29.268626 -14.967691
26.664957 -29.10686 -15.609376
24.563117 -29.767359 -14.708151
25.601168 -29.268626 -14.967691
23.512602 -28.45686 -15.209791
23.436481 -29.806427 -14.0775
24.563117 -29.767359 -14.708151
22.628602 -30.674636 -14.084598
23.436481 -29.806427 -14.0775
21.666674 -29.823802 -14.957349
21.315092 -30.851298 -13.830732
23.084899 -30.833923 -12.950883
22.628602 -30.674636 -14.084598
37.40415 -36.439255 -14.478309
37.496924 -38.357788 -13.461126
37.03469 -37.056027 -13.435467
37.885643 -35.688311 -15.422567
37.40415 -36.439255 -14.478309
37.42341 -34.386549 -15.396908
37.913396 -35.006642 -16.613378
37.885643 -35.688311 -15.422567
37.913396 -35.006642 -16.613378
38.06858 -32.909069 -17.373618
37.532339 -30.958045 -18.195619
37.170368 -28.938363 -18.769647
29.491194 -17.474618 -29.921019
27.693998 -17.118217 -30.46285
28.654822 -16.213818 -30.698318
32.963738 -19.290093 -28.577526
32.656988 -18.459091 -29.755572
32.203354 -20.166905 -28.075933
32.963738 -19.290093 -28.577526
33.355282 -20.124536 -27.329153
36.168411 -24.16482 -21.855066
34.731104 -23.739372 -22.327194
35.230643 -22.952222 -23.130133
36.73377 -25.89257 -21.2899
36.168411 -24.16482 -21.855066
3 0 95 96
3 0 97 99
3 97 24 98
3 97 98 99
3 1 26 25
3 1 28 26
3 1 30 28
3 2 100 101
3 2 102 104
3 102 31 103
3 102 103 104
3 105 34 106
3 3 107 109
3 107 36 108
3 107 108 109
3 3 38 36
3 4 41 39
3 4 43 41
3 4 45 43
3 5 48 46
3 5 49 48
3 110 51 111
3 6 112 114
3 114 113 23
3 112 113 114
3 6 115 117
3 115 52 116
3 115 116 117
3 118 53 119
3 8 54 27
3 8 55 54
3 8 57 55
3 10 58 29
3 10 59 58
3 120 61 121
3 123 122 61
3 12 124 125
3 12 126 128
3 126 63 127
3 126 127 128
3 13 64 32
3 13 65 64
3 14 129 131
3 129 66 130
3 129 130 131
3 14 67 66
3 14 68 67
3 15 69 33
3 15 70 69
3 132 71 133
3 16 72 35
3 16 73 72
3 16 74 73
3 17 75 37
3 17 76 75
3 7 134 136
3 134 77 135
3 134 135 136
3 18 78 40
3 18 79 78
3 18 80 79
3 19 81 42
3 19 82 81
3 19 83 82
3 20 84 44
3 20 85 84
3 9 86 56
3 21 87 47
3 21 88 87
3 21 137 139
3 139 138 88
3 137 138 139
3 11 89 62
3 22 90 50
3 22 91 90
3 140 92 141
3 142 141 60
3 140 141 142
3 143 93 144
3 145 94 146
3 147 146 93
3 145 146 147
3 149 148 94
3 150 23 151
3 24 152 154
3 152 23 153
3 152 153 154
3 24 6 23
3 25 155 156
3 26 157 159
3 159 158 25
3 157 158 159
3 26 160 161
3 26 162 164
3 162 27 163
3 162 163 164
3 28 27 26
3 28 8 27
3 28 29 8
3 30 29 28
3 30 10 29
3 31 165 166
3 31 167 169
3 167 12 168
3 167 168 169
3 170 32 171
3 172 32 173
3 174 13 175
3 176 175 32
3 174 175 176
3 177 14 178
3 179 33 180
3 181 180 14
3 179 180 181
3 34 182 184
3 182 33 183
3 182 183 184
3 34 15 33
3 185 35 186
3 36 187 189
3 187 35 188
3 187 188 189
3 36 16 35
3 36 37 16
3 38 37 36
3 38 17 37
3 39 40 7
3 41 40 39
3 41 18 40
3 41 42 18
3 43 42 41
3 43 19 42
3 43 44 19
3 45 44 43
3 45 20 44
3 46 47 9
3 48 47 46
3 48 21 47
3 48 190 192
3 192 191 21
3 190 191 192
3 49 193 195
3 195 194 48
3 193 194 195
3 49 196 197
3 198 50 199
3 200 199 11
3 198 199 200
3 51 201 203
3 201 50 202
3 201 202 203
3 51 22 50
3 23 204 205
3 207 206 23
3 52 208 209
3 52 210 211
3 212 2 213
3 214 3 215
3 53 216 217
3 53 218 220
3 218 7 219
3 218 219 220
3 27 221 223
3 221 53 222
3 221 222 223
3 54 53 27
3 54 7 53
3 54 39 7
3 55 39 54
3 55 4 39
3 55 56 4
3 57 56 55
3 57 9 56
3 29 57 8
3 58 57 29
3 58 9 57
3 58 46 9
3 59 46 58
3 59 5 46
3 224 60 225
3 226 60 227
3 229 228 60
3 230 25 231
3 61 232 234
3 232 25 233
3 232 233 234
3 61 1 25
3 61 62 1
3 235 62 236
3 237 236 61
3 235 236 237
3 238 11 239
3 240 239 62
3 238 239 240
3 241 11 242
3 244 243 11
3 63 245 246
3 63 247 249
3 247 0 248
3 247 248 249
3 32 250 251
3 64 252 254
3 254 253 32
3 252 253 254
3 64 255 256
3 64 257 258
3 65 259 261
3 261 260 64
3 259 260 261
3 65 262 263
3 264 13 265
3 66 266 267
3 66 268 270
3 268 13 269
3 268 269 270
3 66 65 13
3 67 65 66
3 67 271 273
3 273 272 65
3 271 272 273
3 67 274 275
3 68 276 278
3 278 277 67
3 276 277 278
3 68 279 280
3 33 68 14
3 69 68 33
3 69 281 283
3 283 282 68
3 281 282 283
3 69 284 285
3 70 286 288
3 288 287 69
3 286 287 288
3 70 289 291
3 289 2 290
3 289 290 291
3 292 34 293
3 71 294 296
3 294 34 295
3 294 295 296
3 71 15 34
3 35 297 299
3 297 71 298
3 297 298 299
3 72 71 35
3 72 15 71
3 72 70 15
3 73 70 72
3 73 2 70
3 73 31 2
3 74 31 73
3 74 12 31
3 37 74 16
3 75 74 37
3 75 12 74
3 75 63 12
3 76 63 75
3 76 0 63
3 300 3 301
3 77 302 303
3 77 304 305
3 40 77 7
3 78 77 40
3 78 306 308
3 308 307 77
3 306 307 308
3 78 309 310
3 79 311 313
3 313 312 78
3 311 312 313
3 79 314 316
3 314 3 315
3 314 315 316
3 79 38 3
3 80 38 79
3 80 17 38
3 42 80 18
3 81 80 42
3 81 17 80
3 81 76 17
3 82 76 81
3 82 0 76
3 82 24 0
3 83 24 82
3 83 6 24
3 44 83 19
3 84 83 44
3 84 6 83
3 84 52 6
3 85 52 84
3 85 317 319
3 319 318 52
3 317 318 319
3 56 45 4
3 86 45 56
3 86 20 45
3 47 86 9
3 87 86 47
3 87 20 86
3 87 85 20
3 88 85 87
3 88 320 322
3 322 321 85
3 320 321 322
3 88 323 324
3 326 325 88
3 328 327 21
3 62 30 1
3 89 30 62
3 89 10 30
3 50 89 11
3 90 89 50
3 90 10 89
3 90 59 10
3 91 59 90
3 91 5 59
3 60 329 331
3 329 51 330
3 329 330 331
3 92 51 60
3 92 22 51
3 332 92 333
3 93 334 336
3 334 92 335
3 334 335 336
3 93 22 92
3 93 91 22
3 94 91 93
3 94 5 91
3 94 49 5
3 337 49 338
3 339 338 94
3 337 338 339
3 341 340 49
