ply
format ascii 1.0
element vertex 797
property float x
property float y
property float z
element face 1030
property list uchar int vertex_index
end_header
20.834915 -99.814491 3.965253
44.051384 -68.895798 6.383364
35.604076 -82.505844 -0.232191
43.95768 -76.680252 -9.358696
25.566692 -94.960365 -14.184679
10.731344 -89.829994 20.40432
27.400665 -85.56514 12.977524
26.355118 -92.113884 0.967111
30.951794 -91.230247 -6.384714
23.273577 -99.412537 -7.897018
40.748344 -76.729485 -15.496912
47.952099 -78.375381 5.473451
43.268951 -74.089134 0.226062
42.096516 -83.714195 -3.780142
39.04287 -87.493408 -13.628828
28.088623 -85.820511 -12.206287
14.738338 -96.38887 10.824247
12.335112 -101.930473 3.66822
20.465586 -91.716171 18.190418
25.046848 -94.344139 11.798309
29.178356 -86.841827 8.740385
16.789951 -98.363571 -9.209944
16.252579 -92.14325 -7.444507
23.507236 -83.027237 -9.373823
23.463722 -96.262535 1.549006
26.113708 -97.184837 -1.423414
21.851728 -99.840836 -1.868302
43.396904 -64.660645 3.503883
36.417885 -76.069252 -14.615087
43.332699 -69.376266 -16.246777
41.688866 -81.204231 3.528587
44.7248 -82.139137 1.497531
39.915047 -85.390709 -0.731939
29.228275 -95.188942 -11.148224
34.808384 -89.289223 -10.73213
31.852524 -91.367783 -13.826729
33.39859 -86.588943 -13.827716
26.951126 -90.353661 -11.418768
13.703592 -91.466064 14.240801
12.75948 -86.556732 23.838589
16.933262 -87.930077 18.812466
14.57839 -91.420753 18.07658
18.196348 -94.686386 14.66033
32.605728 -84.335022 13.121778
33.758423 -85.733521 11.01979
31.005772 -89.404861 13.058241
27.405293 -91.889328 10.141747
27.990366 -90.963478 15.261225
15.391484 -100.638214 -3.052694
19.734076 -86.762589 -8.413624
42.12244 -76.496559 -4.21078
40.679626 -68.450356 -2.417958
42.503155 -70.03994 -6.437389
29.944595 -86.523453 -0.221219
34.099762 -88.288368 -2.493894
28.860126 -92.418503 -2.307904
28.271282 -96.984879 -6.966999
24.404919 -98.944847 -12.858667
43.447151 -76.892662 -12.858388
45.018913 -70.452896 -10.10246
46.016121 -69.144943 -14.529837
47.633018 -73.35553 5.527556
43.963268 -71.585663 2.417592
46.715717 -76.348251 2.105648
45.058708 -79.380379 -1.555218
44.480583 -80.344528 -7.12159
37.105309 -87.390137 -5.223381
41.237644 -85.236313 -9.247725
43.803883 -81.635483 -12.348818
40.093758 -81.595474 -13.696973
34.893028 -81.387802 -13.144666
32.656677 -80.348846 -11.009687
17.550442 -100.362663 10.643998
15.788706 -101.582848 4.122391
11.518756 -100.718826 10.558832
9.040258 -99.193901 10.563457
24.653687 -82.915207 14.284604
21.089844 -86.624687 17.532923
25.272751 -88.943611 17.483868
24.014885 -94.722794 17.693348
21.082977 -97.748825 12.913513
24.527653 -98.048363 7.133588
48.763863 -74.994278 10.198949
43.198158 -78.258347 6.718989
36.333992 -78.794609 3.660707
32.720833 -80.811005 7.833865
29.727316 -82.443504 3.61878
26.997107 -88.497772 5.145953
27.398016 -93.965286 5.358683
17.482048 -101.742119 -3.381312
18.026499 -100.998428 -9.872725
19.076168 -98.946877 -14.210927
14.851135 -95.929459 -12.01113
20.343464 -95.398079 -10.836092
23.171085 -89.920067 -6.669104
25.573862 -84.743652 -10.33906
30.624882 -79.080811 -8.371935
41.617764 -66.069717 0.925876
22.354061 -98.304825 2.436462
22.597775 -98.658081 0.241191
21.258303 -100.471947 1.381854
43.381798 -67.0354 4.709636
35.425976 -75.254005 -13.399126
38.368786 -72.295059 -14.091542
38.585522 -81.858208 1.428697
40.697441 -83.367653 1.305065
38.006798 -83.970161 -0.530879
27.913471 -95.727058 -13.927048
30.844833 -93.515938 -13.115056
28.578518 -93.534828 -14.218481
29.014526 -91.02272 -13.428258
26.15773 -92.841721 -12.814563
12.189443 -90.069778 16.655231
11.970555 -90.63945 13.214908
11.697214 -88.972153 23.014187
13.325975 -88.610916 20.420853
12.530411 -90.803444 19.309389
13.696477 -92.141388 16.229826
29.724222 -84.718727 12.656552
31.425299 -86.764313 13.001745
29.12269 -87.513199 13.319699
29.463318 -90.29557 14.079793
27.402166 -88.236465 14.333853
42.633041 -76.837387 -7.257893
41.364727 -73.681252 -5.6826
42.862965 -73.688866 -7.803786
27.761328 -89.396988 0.712776
29.243338 -89.717911 -1.024334
27.225195 -92.286377 -0.637416
25.58602 -98.701706 -4.251162
28.096905 -97.200188 -3.889573
26.340631 -98.739426 -7.400714
26.634806 -98.281708 -9.92515
23.870165 -99.628265 -10.416216
42.587486 -76.838287 -14.549942
45.027214 -73.397499 -13.839872
44.472187 -73.395935 -15.685225
44.13438 -66.254128 -14.565488
48.643059 -75.589714 5.585465
47.454914 -74.845078 3.271911
47.64677 -77.491791 3.361031
43.623863 -83.41893 -1.369265
45.445656 -80.782822 -0.124488
44.189621 -81.939514 -2.783005
44.364407 -80.233162 -4.167788
43.244164 -82.058838 -5.382399
32.558529 -90.044083 -4.146621
35.996742 -88.93766 -3.543242
34.190102 -89.189819 -5.508677
37.364399 -88.95253 -12.328455
38.16621 -86.985817 -10.289316
40.686031 -86.416061 -11.621929
43.140171 -83.800827 -10.988209
41.94619 -84.6605 -13.079854
42.19112 -81.91188 -13.669942
39.569923 -84.663712 -13.973793
30.358051 -86.192909 -13.415527
33.840706 -84.307312 -13.62575
31.277813 -83.956131 -13.389261
33.173859 -80.96096 -12.332815
30.094845 -83.305244 -12.127142
15.913218 -98.64415 11.484316
14.401808 -100.736038 10.66232
12.757292 -98.629578 11.251062
8.575961 -98.186172 13.123151
18.677271 -90.001076 17.51012
19.222954 -87.946976 18.369139
21.337973 -89.801422 18.433041
23.271997 -87.827393 17.338636
23.63607 -90.938179 18.997021
25.302963 -92.096146 18.771576
22.23225 -93.371704 18.870478
16.99152 -95.023911 12.269954
19.916809 -96.730629 14.903547
17.933403 -97.727432 13.076967
19.471954 -99.294861 11.785975
39.721767 -78.382431 4.984057
36.810051 -77.312218 6.257426
31.365948 -86.340164 9.71703
32.99276 -83.403595 9.387671
30.699896 -83.991425 7.744809
30.833797 -81.209976 5.72606
28.379272 -84.288437 6.415803
27.765217 -85.248955 4.539117
27.233486 -87.599121 7.202628
26.624853 -93.320808 10.835521
27.618496 -93.110031 7.903572
27.009197 -94.932205 8.751541
26.492529 -96.490089 6.074481
25.248034 -96.413162 9.601376
13.698668 -102.449707 3.853545
16.90205 -102.19957 0.404435
14.866776 -102.565392 -0.020944
16.295877 -101.151299 -6.755407
16.714693 -100.207993 -9.711621
18.847149 -100.344063 -12.61244
17.087282 -99.088486 -12.267046
12.914103 -95.289818 -10.397589
15.446045 -94.302933 -10.092286
17.313404 -95.766464 -11.774248
18.423746 -93.810585 -8.753936
21.630253 -92.985176 -7.935252
19.405235 -91.357849 -6.233488
21.89542 -85.025917 -9.758133
22.71315 -85.916313 -8.110353
24.685349 -84.007065 -9.741013
28.218689 -82.476723 -9.400579
27.054016 -81.706001 -8.270737
43.463371 -72.920204 1.063136
41.983601 -69.436668 1.543793
41.698265 -70.668884 0.518368
42.111778 -64.808006 -3.545006
41.965645 -63.600258 -1.664462
45.167931 -67.011642 -10.390729
44.635876 -66.910507 -8.557951
25.112598 -94.398071 0.943954
26.070984 -94.776276 -0.664736
23.815403 -96.624443 -0.532435
23.730036 -98.82991 -1.928416
22.55167 -98.726761 -4.663751
38.47607 -76.500725 -15.445038
42.302876 -72.916344 -16.224197
40.199493 -72.667526 -15.493741
41.300972 -69.375008 -15.449762
45.543934 -80.401779 5.026135
46.383148 -80.34404 3.633401
43.416809 -82.240601 2.942628
42.435757 -84.313065 0.390199
41.352345 -85.564751 -2.236252
30.016464 -93.359177 -8.668047
32.677414 -90.413315 -8.51432
32.007992 -92.352005 -10.856465
34.133629 -91.228165 -12.6781
35.655067 -89.425858 -13.635549
36.381332 -87.002335 -14.201283
32.708817 -88.764511 -13.820951
29.708527 -88.156326 -13.191457
27.435383 -87.698128 -11.503071
14.026594 -93.658295 12.267977
12.156431 -96.417847 12.352534
12.081958 -93.61618 13.048017
15.123441 -86.35228 24.917009
16.699451 -86.685776 22.235607
14.720751 -87.024063 21.045841
15.651733 -89.508347 17.718891
17.441067 -92.078735 16.973143
18.70631 -94.038437 17.489491
15.771608 -93.425949 15.721441
15.35318 -93.133774 13.894499
33.788902 -86.397232 12.851354
32.463158 -88.079697 11.833193
30.528004 -88.847397 10.596848
28.013561 -89.273178 9.57591
29.486856 -90.953705 11.817583
28.127193 -92.262177 12.92491
26.616909 -92.932098 13.989676
12.372633 -100.505989 3.808448
13.884702 -101.541138 0.141094
17.556534 -89.11631 -7.155161
16.937733 -88.130341 -9.765662
21.400162 -83.988853 -11.031337
42.910347 -75.401047 -1.631831
41.483543 -71.901917 -0.782241
40.963634 -73.109192 -3.216804
41.139343 -69.35643 -4.665746
42.532467 -65.689827 -5.412521
32.569439 -83.936142 -0.656296
34.877247 -85.196762 -1.456809
31.91889 -87.354332 -1.529867
30.829136 -90.065308 -2.852426
29.937189 -92.176132 -4.179399
27.834372 -94.953453 -1.725318
29.085745 -94.792915 -4.100245
28.898838 -94.244873 -6.543259
28.154917 -96.391068 -9.243297
27.030432 -97.426834 -12.207646
24.955158 -97.249527 -14.278523
9.794314 -89.038818 24.536924
12.76219 -86.033951 27.788
10.735481 -87.372612 26.433277
28.434931 -82.600021 12.634569
44.176846 -76.716034 -11.233052
44.318569 -73.643509 -9.636312
44.623058 -73.606781 -11.629626
45.522316 -70.107559 -12.221272
45.574646 -66.212486 -12.479085
45.362984 -69.117111 -15.971921
45.382381 -65.280327 -14.029676
45.740234 -71.263931 6.054845
44.436451 -70.270065 4.141271
46.268974 -72.620796 3.662734
45.539875 -73.911102 2.157395
44.955868 -75.075615 1.307224
46.701149 -79.404953 1.918979
46.029625 -77.981888 0.862171
44.541767 -76.862839 -0.383144
43.88673 -78.016136 -2.718401
43.495407 -78.767075 -5.640485
44.511158 -78.526352 -8.399947
37.053158 -86.578896 -1.855344
38.884102 -87.0056 -2.889534
39.712334 -85.487724 -4.541886
35.457535 -87.515884 -7.853503
38.535839 -85.502899 -7.310965
41.146523 -83.639923 -6.455345
43.406902 -82.735962 -8.316786
44.843517 -80.893021 -9.851597
44.851028 -78.838928 -10.924059
43.754128 -79.209122 -12.799886
42.16235 -79.323746 -13.844484
40.197762 -78.939102 -14.308975
36.770653 -84.4114 -13.780401
37.564026 -81.149521 -13.237228
37.979073 -78.545387 -14.21891
35.644012 -78.447403 -13.575894
34.369728 -77.977089 -12.702606
33.501461 -77.12632 -11.685401
19.550915 -100.042542 7.304262
18.534252 -100.65712 4.135406
16.3277 -101.180885 7.829112
13.449557 -101.983009 7.671111
11.635679 -102.037277 7.311659
10.444828 -98.786423 12.726385
9.706826 -100.504623 10.848351
10.716758 -101.125015 7.078149
10.711771 -99.487984 7.042393
27.189159 -81.13517 13.313685
26.11117 -84.132576 13.501882
18.237072 -86.280319 20.530329
19.672886 -85.199661 19.118073
21.515486 -83.715279 17.622646
22.738092 -84.880753 16.166912
24.347311 -86.016197 15.454069
25.775122 -87.033028 14.903666
26.462717 -89.779633 16.716946
26.213573 -93.02771 16.754663
24.240942 -94.581802 14.657146
20.844501 -95.587936 17.060141
22.273802 -95.945663 14.75943
23.308353 -95.950806 11.514497
22.616272 -97.957466 9.834138
21.319403 -99.478195 8.569567
22.611298 -98.826218 5.33639
46.817284 -71.934364 8.203368
49.038395 -74.107956 8.039472
49.064251 -76.77388 7.674788
46.607338 -77.23806 8.651529
46.549381 -79.111877 6.748337
42.675354 -79.884125 5.019107
38.948326 -79.965714 3.152235
35.664131 -80.627274 1.558693
35.26107 -83.273697 11.376732
34.897453 -78.240463 8.301237
33.716351 -78.903214 5.702151
32.723396 -80.057236 3.036213
32.372292 -82.018539 0.901307
29.631535 -84.347565 1.370291
27.754416 -87.097107 2.405102
27.03886 -90.093712 3.095909
27.059616 -90.750839 7.621432
27.201681 -91.495163 5.167348
26.41135 -92.846313 3.265146
25.6129 -95.329292 3.371877
24.287312 -97.626366 3.929388
19.24629 -101.193657 0.930149
19.542454 -100.301163 -2.55775
19.537024 -99.92543 -6.238751
15.638911 -101.925476 -3.562719
17.711338 -101.362373 -6.713399
20.395695 -100.773918 -9.309361
21.294586 -100.535263 -11.995157
21.721527 -99.345947 -14.1616
22.289352 -97.397026 -14.556376
16.500977 -95.788979 -8.663439
13.594055 -96.445717 -9.920341
15.744249 -97.103516 -11.326216
16.882772 -97.439476 -13.517729
19.557995 -97.07444 -13.520638
23.001064 -95.467773 -12.701625
23.973045 -93.332512 -10.237837
25.107666 -90.256859 -8.857142
25.642303 -87.447411 -9.51893
20.935724 -88.010094 -6.267229
24.209766 -86.904137 -8.212466
26.534647 -85.456177 -11.115204
29.173313 -83.070412 -10.83308
31.722454 -79.882675 -9.471233
32.400837 -76.481392 -10.722328
26.236126 -80.275757 -7.540895
29.687872 -78.054283 -8.082247
42.722652 -68.262184 2.976147
42.286827 -65.257248 2.098312
40.963959 -67.194565 -0.435893
42.546795 -62.349815 0.027739
44.0019 -70.279724 -8.35443
43.545006 -66.340736 -7.006211
43.716591 -67.965599 5.5465
43.258187 -66.660957 5.501463
43.592979 -67.591156 6.338327
36.05117 -73.359573 -13.125492
34.897882 -74.700623 -12.906304
10.763948 -89.142688 18.633517
11.492998 -89.26258 16.758973
11.460394 -89.949886 18.529775
37.08811 -76.809559 7.689137
38.399175 -76.942341 6.693402
16.752322 -99.285782 -9.460783
16.547626 -99.837445 -7.993314
16.585254 -98.915233 -7.742476
15.849312 -93.223091 -8.768396
14.450963 -93.677334 -9.149549
14.85423 -92.597492 -7.825659
43.596296 -62.948275 -3.220285
43.540321 -63.603722 -3.966339
45.144808 -65.238487 -9.415689
45.069565 -65.171131 -10.318383
44.470436 -63.716969 3.680881
43.702374 -64.513084 4.230344
44.16304 -63.464875 3.135168
44.470436 -63.716969 3.680881
40.278874 -69.133415 -14.866554
39.834879 -70.835033 -14.770652
38.812781 -70.593441 -14.187444
41.139236 -67.799038 -14.86874
40.278874 -69.133415 -14.866554
10.892226 -91.926529 13.210498
10.780679 -90.243766 13.335062
33.197315 -85.366127 12.986566
34.429308 -85.616341 13.548317
33.837721 -84.585235 13.683529
13.690495 -100.062466 2.428348
13.054368 -99.464306 4.265739
15.16435 -88.517251 -10.26997
15.747732 -89.079483 -8.800937
20.297018 -84.767197 -11.985536
20.47192 -85.132587 -11.026454
8.963947 -88.4221 24.546945
9.195533 -88.463291 26.354
12.811443 -86.497097 29.359338
14.13994 -86.666199 28.069946
9.666117 -87.630188 27.302177
10.347148 -86.899929 28.194353
9.195533 -88.463291 26.354
10.264898 -88.205715 25.485101
9.666117 -87.630188 27.302177
29.599304 -81.204369 13.012932
29.988357 -82.341763 12.843058
44.606508 -64.172995 -13.28117
44.758381 -65.767227 -14.297582
43.982507 -64.659895 -13.549076
45.019035 -64.098961 -12.938233
44.606508 -64.172995 -13.28117
10.257315 -97.474594 13.192635
11.300629 -97.602135 12.539459
11.113117 -96.290306 13.005709
25.921423 -82.025188 13.799145
26.63024 -80.375088 13.758978
25.362504 -81.265106 14.244438
45.810696 -71.356483 9.05562
45.702837 -71.011139 8.147823
48.901129 -74.551117 9.119211
48.271729 -73.254105 9.176274
48.134462 -73.697266 10.256013
44.902748 -77.748204 7.685259
44.881056 -76.672985 8.658224
43.176466 -77.183129 7.691954
34.509746 -84.503609 11.198261
35.514021 -84.242188 12.13145
34.762698 -85.472099 11.95298
33.63514 -80.745029 9.010755
33.771103 -82.041325 9.787657
32.856797 -82.1073 8.610768
33.809143 -79.525734 8.067551
34.72345 -79.459758 9.24444
33.63514 -80.745029 9.010755
15.129037 -95.35931 -7.868585
16.64029 -94.984432 -6.940715
15.26835 -94.554764 -6.145861
27.534515 -78.720047 -7.772087
25.617428 -79.71569 -7.314129
29.260388 -77.60931 -8.042763
27.961999 -79.16502 -7.811571
27.534515 -78.720047 -7.772087
42.645437 -64.100187 1.299223
42.979969 -63.693953 1.885441
41.952296 -65.663483 1.512094
44.078501 -61.11824 -0.636151
42.25622 -62.975037 -0.818362
43.787926 -61.743461 -1.482251
44.422198 -61.019695 0.383265
44.078501 -61.11824 -0.636151
44.448677 -64.827675 -6.999678
44.090441 -66.625621 -7.782081
44.994112 -65.11256 -7.775548
44.397833 -64.665638 -6.423707
44.448677 -64.827675 -6.999678
43.694821 -65.700462 4.83322
43.258187 -66.660957 5.501463
43.389351 -65.848022 4.106759
43.702374 -64.513084 4.230344
43.694821 -65.700462 4.83322
37.522576 -71.8801 -13.471699
36.897381 -73.774532 -13.745334
36.05117 -73.359573 -13.125492
38.812781 -70.593441 -14.187444
37.522576 -71.8801 -13.471699
11.383554 -89.547416 15.038812
12.079999 -90.354614 14.93507
11.492998 -89.26258 16.758973
10.780679 -90.243766 13.335062
11.383554 -89.547416 15.038812
43.363432 -66.486156 -14.637225
43.733539 -67.815197 -15.406133
42.962592 -68.047225 -15.477869
43.213106 -65.107117 -13.530627
43.363432 -66.486156 -14.637225
43.982507 -64.659895 -13.549076
43.213106 -65.107117 -13.530627
8.17717 -96.719787 13.539915
9.322881 -97.174469 13.391018
8.000159 -97.514721 12.748123
8.17717 -96.719787 13.539915
8.232308 -98.018585 11.468276
8.80811 -98.690036 11.843304
8.000159 -97.514721 12.748123
9.048404 -98.279392 10.039672
8.232308 -98.018585 11.468276
24.131231 -82.373688 15.072024
25.362504 -81.265106 14.244438
47.972079 -74.348534 10.952089
48.134462 -73.697266 10.256013
41.593229 -77.415405 6.924183
43.176466 -77.183129 7.691954
39.855034 -77.477447 6.056717
41.459963 -78.320389 5.851523
41.593229 -77.415405 6.924183
38.265909 -77.847324 5.620741
39.855034 -77.477447 6.056717
38.399175 -76.942341 6.693402
16.338217 -100.309098 -6.515207
15.843681 -100.894756 -4.904051
15.886021 -100.052555 -4.663851
16.505285 -100.679646 -8.233514
16.338217 -100.309098 -6.515207
16.547626 -99.837445 -7.993314
13.184992 -94.170776 -9.3022
11.745838 -94.814423 -9.77561
14.180074 -94.796375 -10.244937
13.184992 -94.170776 -9.3022
14.450963 -93.677334 -9.149549
43.523229 -62.3444 -2.280013
42.038712 -64.204132 -2.604734
43.596296 -62.948275 -3.220285
43.787926 -61.743461 -1.482251
43.523229 -62.3444 -2.280013
44.878781 -65.187919 -8.4993
44.901904 -66.961074 -9.47434
45.144808 -65.238487 -9.415689
44.994112 -65.11256 -7.775548
44.878781 -65.187919 -8.4993
41.946728 -68.046596 -15.079362
42.962592 -68.047225 -15.477869
42.316835 -69.375637 -15.84827
41.946728 -68.046596 -15.079362
41.139236 -67.799038 -14.86874
11.07588 -94.889473 13.353451
11.113117 -96.290306 13.005709
12.119194 -95.017013 12.700276
10.947928 -93.414894 13.127052
12.026256 -92.127815 13.131462
10.892226 -91.926529 13.210498
11.07588 -94.889473 13.353451
10.947928 -93.414894 13.127052
15.911446 -86.519028 23.576308
17.009115 -86.990189 23.97931
16.22111 -86.823441 25.320011
34.777937 -85.803955 12.868762
34.429308 -85.616341 13.548317
33.773663 -86.065376 11.935572
34.762698 -85.472099 11.95298
34.777937 -85.803955 12.868762
14.44653 -100.58004 0.594671
13.128668 -101.023563 1.974771
13.690495 -100.062466 2.428348
15.199921 -100.128578 -1.002223
14.638093 -101.089676 -1.4558
14.44653 -100.58004 0.594671
16.239982 -99.492901 -2.613015
15.199921 -100.128578 -1.002223
15.886021 -100.052555 -4.663851
16.239982 -99.492901 -2.613015
17.283475 -97.699669 -7.550603
16.585254 -98.915233 -7.742476
15.405155 -91.085938 -7.640359
14.85423 -92.597492 -7.825659
16.057132 -89.572468 -7.495686
16.904556 -90.62978 -7.299834
15.405155 -91.085938 -7.640359
17.247134 -88.623325 -8.460411
16.057132 -89.572468 -7.495686
15.747732 -89.079483 -8.800937
16.678839 -87.99088 -11.023459
15.16435 -88.517251 -10.26997
18.240706 -87.203331 -10.393617
16.678839 -87.99088 -11.023459
19.638877 -86.519455 -9.717598
18.335905 -87.446465 -9.089643
18.240706 -87.203331 -10.393617
20.719549 -85.651119 -10.389852
20.814748 -85.894253 -9.085878
19.638877 -86.519455 -9.717598
21.647791 -84.507385 -10.394735
20.719549 -85.651119 -10.389852
20.47192 -85.132587 -11.026454
43.750665 -64.044632 -4.900097
43.540321 -63.603722 -3.966339
42.322122 -65.248917 -4.478763
9.567928 -88.702072 22.737643
10.036443 -89.09766 20.671341
10.262829 -89.434406 22.470622
9.567928 -88.702072 22.737643
8.963947 -88.4221 24.546945
15.320566 -86.825363 26.63445
16.22111 -86.823441 25.320011
13.942816 -86.193116 26.352505
15.320566 -86.825363 26.63445
14.13994 -86.666199 28.069946
11.360502 -86.230598 28.871714
12.811443 -86.497097 29.359338
11.748836 -86.703282 27.110639
11.360502 -86.230598 28.871714
10.347148 -86.899929 28.194353
33.562786 -83.46616 13.792737
33.837721 -84.585235 13.683529
32.073756 -83.209263 13.086662
33.562786 -83.46616 13.792737
30.633003 -83.401116 12.854049
31.164975 -84.526874 12.889165
32.073756 -83.209263 13.086662
29.079577 -83.659374 12.645561
30.633003 -83.401116 12.854049
29.988357 -82.341763 12.843058
45.272922 -64.771553 -11.362561
45.069565 -65.171131 -10.318383
45.371289 -66.612064 -11.434907
45.115167 -64.56504 -12.162938
45.478514 -65.746407 -13.25438
45.019035 -64.098961 -12.938233
45.272922 -64.771553 -11.362561
45.115167 -64.56504 -12.162938
33.935625 -75.63678 -12.049442
34.897882 -74.700623 -12.906304
34.463718 -76.190163 -12.542264
9.510395 -98.486298 12.924768
10.257315 -97.474594 13.192635
9.322881 -97.174469 13.391018
12.223937 -98.955303 5.882711
13.054368 -99.464306 4.265739
11.542202 -99.996986 5.42542
9.884161 -98.426434 8.279139
9.876015 -99.340942 8.802925
9.048404 -98.279392 10.039672
11.214399 -98.374459 7.269982
9.884161 -98.426434 8.279139
12.223937 -98.955303 5.882711
11.214399 -98.374459 7.269982
10.763948 -89.142688 18.633517
10.036443 -89.09766 20.671341
28.284099 -79.632317 13.543125
26.63024 -80.375088 13.758978
28.976419 -80.471943 13.35249
28.284099 -79.632317 13.543125
27.812045 -81.867595 12.974127
29.599304 -81.204369 13.012932
28.976419 -80.471943 13.35249
17.836441 -86.642212 22.951351
17.009115 -86.990189 23.97931
18.605252 -86.439483 22.098712
17.836441 -86.642212 22.951351
17.468262 -86.483047 21.382968
19.154205 -85.641052 21.225967
18.605252 -86.439483 22.098712
19.872113 -85.100723 20.519839
19.154205 -85.641052 21.225967
18.954979 -85.73999 19.824201
20.693362 -84.263626 19.725744
19.872113 -85.100723 20.519839
21.614663 -83.521435 18.978031
20.693362 -84.263626 19.725744
20.594186 -84.45747 18.370359
22.55728 -82.470318 17.910133
21.614663 -83.521435 18.978031
22.562131 -82.773724 16.741045
22.55728 -82.470318 17.910133
23.173434 -83.356461 16.013178
22.562131 -82.773724 16.741045
22.126789 -84.298016 16.894779
23.695889 -83.89798 15.225758
24.131231 -82.373688 15.072024
23.173434 -83.356461 16.013178
43.246675 -68.191418 7.040753
43.592979 -67.591156 6.338327
44.319887 -69.491856 7.237821
43.246675 -68.191418 7.040753
45.164312 -70.675922 7.073562
44.895809 -70.079864 6.219105
44.319887 -69.491856 7.237821
46.278759 -71.599148 7.129106
45.164312 -70.675922 7.073562
45.702837 -71.011139 8.147823
47.161173 -72.167309 9.258222
45.810696 -71.356483 9.05562
47.92784 -73.02116 8.12142
47.161173 -72.167309 9.258222
48.271729 -73.254105 9.176274
47.359772 -75.251846 10.233659
47.972079 -74.348534 10.952089
46.281509 -76.373738 9.459948
44.881056 -76.672985 8.658224
47.6856 -76.116169 9.425239
47.359772 -75.251846 10.233659
46.281509 -76.373738 9.459948
36.138506 -83.236847 12.482502
35.514021 -84.242188 12.13145
35.767103 -82.094642 12.003356
36.138506 -83.236847 12.482502
34.905258 -81.976375 10.782188
34.126915 -83.338646 10.382202
33.771103 -82.041325 9.787657
35.767103 -82.094642 12.003356
34.905258 -81.976375 10.782188
35.58001 -78.308769 9.788498
34.72345 -79.459758 9.24444
36.131811 -77.273682 8.711042
35.58001 -78.308769 9.788498
35.853752 -77.776341 7.279331
37.08811 -76.809559 7.689137
36.131811 -77.273682 8.711042
17.138988 -96.412373 -7.27735
16.64029 -94.984432 -6.940715
16.645464 -97.076275 -8.936692
17.283475 -97.699669 -7.550603
17.138988 -96.412373 -7.27735
12.05516 -95.75063 -9.701659
11.745838 -94.814423 -9.77561
12.395136 -96.328579 -9.463036
12.05516 -95.75063 -9.701659
13.254079 -95.867767 -10.158965
13.675577 -95.68768 -8.497036
12.395136 -96.328579 -9.463036
15.047516 -96.117348 -9.29189
15.129037 -95.35931 -7.868585
13.675577 -95.68768 -8.497036
33.385313 -75.314316 -11.567905
33.935625 -75.63678 -12.049442
32.951149 -76.803856 -11.203864
20.980317 -83.145405 -11.138209
20.297018 -84.767197 -11.985536
22.03479 -82.830425 -9.912175
20.980317 -83.145405 -11.138209
23.088327 -82.349617 -9.083418
22.453699 -83.508045 -10.20258
22.03479 -82.830425 -9.912175
24.452772 -80.973877 -8.166954
25.617428 -79.71569 -7.314129
24.871681 -81.651497 -8.457359
23.088327 -82.349617 -9.083418
24.452772 -80.973877 -8.166954
30.005688 -76.609146 -9.372194
29.260388 -77.60931 -8.042763
30.462097 -76.87392 -9.47342
30.005688 -76.609146 -9.372194
30.930602 -77.387184 -9.618264
30.156377 -78.567547 -8.227091
30.462097 -76.87392 -9.47342
31.81858 -76.087475 -10.79346
31.51286 -77.781102 -9.547131
30.930602 -77.387184 -9.618264
32.696579 -74.979019 -11.700575
31.81858 -76.087475 -10.79346
33.385313 -75.314316 -11.567905
32.696579 -74.979019 -11.700575
43.608002 -63.763176 2.432383
44.16304 -63.464875 3.135168
42.841865 -64.958946 2.801098
43.608002 -63.763176 2.432383
42.979969 -63.693953 1.885441
43.109953 -62.240236 0.850154
42.645437 -64.100187 1.299223
42.082279 -64.209766 0.476807
43.109953 -62.240236 0.850154
44.422198 -61.019695 0.383265
43.891564 -64.340183 -5.626862
43.038736 -66.015282 -6.209366
44.397833 -64.665638 -6.423707
43.750665 -64.044632 -4.900097
43.891564 -64.340183 -5.626862
3 0 100 98
3 1 396 398
3 396 101 397
3 396 397 398
3 400 399 102
3 2 106 104
3 4 109 107
3 4 111 109
3 5 401 403
3 403 402 112
3 401 402 403
3 5 116 114
3 5 112 116
3 6 120 118
3 6 122 120
3 3 125 123
3 7 128 126
3 9 131 129
3 9 133 131
3 10 136 134
3 11 140 138
3 13 143 141
3 13 145 143
3 8 148 146
3 14 151 149
3 14 153 151
3 14 155 153
3 15 158 156
3 15 160 158
3 16 163 161
3 18 167 165
3 18 169 167
3 18 171 169
3 16 174 172
3 16 161 174
3 404 177 405
3 20 180 178
3 20 182 180
3 20 184 182
3 19 187 185
3 19 189 187
3 17 192 190
3 21 406 408
3 406 194 407
3 406 407 408
3 21 196 194
3 22 409 411
3 409 198 410
3 409 410 411
3 22 200 198
3 22 202 200
3 23 205 203
3 23 207 205
3 12 210 208
3 413 412 211
3 415 414 213
3 24 217 215
3 26 218 99
3 26 219 218
3 27 416 417
3 27 418 419
3 28 222 220
3 420 223 421
3 422 421 103
3 420 421 422
3 424 423 223
3 30 226 224
3 32 227 105
3 32 228 227
3 33 231 229
3 35 232 108
3 35 233 232
3 35 235 233
3 37 236 110
3 37 237 236
3 38 240 238
3 426 425 113
3 39 243 241
3 41 244 115
3 41 245 244
3 41 247 245
3 38 248 117
3 38 238 248
3 43 427 429
3 427 249 428
3 427 428 429
3 45 250 119
3 45 251 250
3 45 253 251
3 47 254 121
3 47 255 254
3 431 430 256
3 432 259 433
3 434 260 435
3 50 263 261
3 52 264 124
3 52 265 264
3 53 268 266
3 55 269 127
3 55 270 269
3 25 271 216
3 56 272 130
3 56 273 272
3 56 274 273
3 57 275 132
3 57 276 275
3 437 436 277
3 438 278 439
3 440 279 441
3 442 277 443
3 444 443 279
3 442 443 444
3 445 280 446
3 58 283 281
3 60 284 135
3 60 285 284
3 29 286 221
3 447 287 448
3 449 448 137
3 447 448 449
3 451 450 287
3 61 290 288
3 63 291 139
3 63 292 291
3 31 293 225
3 64 294 142
3 64 295 294
3 64 296 295
3 65 297 144
3 65 298 297
3 54 299 267
3 66 300 147
3 66 301 300
3 34 302 230
3 67 303 150
3 67 304 303
3 67 305 304
3 68 306 152
3 68 307 306
3 68 308 307
3 69 309 154
3 69 310 309
3 36 311 234
3 70 312 157
3 70 313 312
3 70 314 313
3 71 315 159
3 71 316 315
3 72 319 317
3 74 320 162
3 74 321 320
3 452 322 453
3 454 453 239
3 452 453 454
3 75 323 164
3 75 324 323
3 75 325 324
3 76 455 457
3 455 326 456
3 455 456 457
3 76 327 326
3 40 328 242
3 77 329 166
3 77 330 329
3 77 331 330
3 78 332 168
3 78 333 332
3 78 334 333
3 79 335 170
3 79 336 335
3 42 337 246
3 80 338 173
3 80 339 338
3 80 340 339
3 72 341 175
3 72 317 341
3 458 343 459
3 82 460 462
3 460 344 461
3 460 461 462
3 82 345 344
3 83 463 465
3 463 346 464
3 463 464 465
3 83 347 346
3 83 348 347
3 84 349 176
3 84 350 349
3 44 466 468
3 466 351 467
3 466 467 468
3 85 469 471
3 471 470 179
3 469 470 471
3 85 472 474
3 472 352 473
3 472 473 474
3 85 353 352
3 86 354 181
3 86 355 354
3 86 356 355
3 87 357 183
3 87 358 357
3 46 359 252
3 88 360 186
3 88 361 360
3 88 362 361
3 81 363 188
3 81 342 363
3 73 364 318
3 89 365 191
3 89 366 365
3 48 367 257
3 90 368 193
3 90 369 368
3 90 370 369
3 91 371 195
3 91 372 371
3 475 373 476
3 475 476 477
3 92 374 197
3 92 375 374
3 92 376 375
3 93 377 199
3 93 378 377
3 93 379 378
3 94 380 201
3 94 381 380
3 49 382 258
3 95 383 204
3 95 384 383
3 95 385 384
3 96 386 206
3 96 387 386
3 478 388 479
3 480 389 481
3 482 481 388
3 480 481 482
3 62 390 289
3 97 391 209
3 97 483 485
3 485 484 391
3 483 484 485
3 51 392 262
3 486 393 487
3 488 487 212
3 486 487 488
3 490 489 393
3 59 394 282
3 491 395 492
3 493 492 214
3 491 492 493
3 495 494 395
3 98 99 24
3 100 99 98
3 100 26 99
3 101 496 497
3 101 498 500
3 498 27 499
3 498 499 500
3 102 103 28
3 501 103 502
3 503 502 102
3 501 502 503
3 505 504 103
3 104 105 30
3 106 105 104
3 106 32 105
3 107 108 33
3 109 108 107
3 109 35 108
3 109 110 35
3 111 110 109
3 111 37 110
3 112 113 38
3 506 113 507
3 508 507 112
3 506 507 508
3 510 509 113
3 114 115 39
3 116 115 114
3 116 41 115
3 116 117 41
3 112 117 116
3 112 38 117
3 118 119 43
3 120 119 118
3 120 45 119
3 120 121 45
3 122 121 120
3 122 47 121
3 123 124 50
3 125 124 123
3 125 52 124
3 126 127 53
3 128 127 126
3 128 55 127
3 129 130 25
3 131 130 129
3 131 56 130
3 131 132 56
3 133 132 131
3 133 57 132
3 134 135 58
3 136 135 134
3 136 60 135
3 511 137 512
3 513 512 29
3 511 512 513
3 514 137 515
3 517 516 137
3 138 139 61
3 140 139 138
3 140 63 139
3 141 142 31
3 143 142 141
3 143 64 142
3 143 144 64
3 145 144 143
3 145 65 144
3 146 147 54
3 148 147 146
3 148 66 147
3 149 150 34
3 151 150 149
3 151 67 150
3 151 152 67
3 153 152 151
3 153 68 152
3 153 154 68
3 155 154 153
3 155 69 154
3 156 157 36
3 158 157 156
3 158 70 157
3 158 159 70
3 160 159 158
3 160 71 159
3 161 162 72
3 163 162 161
3 163 74 162
3 518 164 519
3 520 164 521
3 522 75 523
3 524 523 164
3 522 523 524
3 526 525 75
3 527 76 528
3 165 166 40
3 167 166 165
3 167 77 166
3 167 168 77
3 169 168 167
3 169 78 168
3 169 170 78
3 171 170 169
3 171 79 170
3 172 173 42
3 174 173 172
3 174 80 173
3 174 175 80
3 161 175 174
3 161 72 175
3 529 82 530
3 531 83 532
3 533 176 534
3 535 534 83
3 533 534 535
3 177 536 538
3 536 176 537
3 536 537 538
3 177 84 176
3 178 179 44
3 180 179 178
3 180 85 179
3 180 181 85
3 182 181 180
3 182 86 181
3 182 183 86
3 184 183 182
3 184 87 183
3 185 186 46
3 187 186 185
3 187 88 186
3 187 188 88
3 189 188 187
3 189 81 188
3 190 191 73
3 192 191 190
3 192 89 191
3 539 193 540
3 541 540 48
3 539 540 541
3 194 542 544
3 542 193 543
3 542 543 544
3 194 90 193
3 194 195 90
3 196 195 194
3 196 91 195
3 545 197 546
3 198 547 549
3 547 197 548
3 547 548 549
3 198 92 197
3 198 199 92
3 200 199 198
3 200 93 199
3 200 201 93
3 202 201 200
3 202 94 201
3 203 204 49
3 205 204 203
3 205 95 204
3 205 206 95
3 207 206 205
3 207 96 206
3 208 209 62
3 210 209 208
3 210 97 209
3 211 212 51
3 550 212 551
3 552 551 211
3 550 551 552
3 554 553 212
3 213 214 59
3 555 214 556
3 557 556 213
3 555 556 557
3 559 558 214
3 215 216 7
3 217 216 215
3 217 25 216
3 99 217 24
3 218 217 99
3 218 25 217
3 218 129 25
3 219 129 218
3 219 9 129
3 220 221 10
3 222 221 220
3 222 29 221
3 103 222 28
3 223 222 103
3 223 29 222
3 223 560 562
3 562 561 29
3 560 561 562
3 564 563 223
3 224 225 11
3 226 225 224
3 226 31 225
3 105 226 30
3 227 226 105
3 227 31 226
3 227 141 31
3 228 141 227
3 228 13 141
3 229 230 8
3 231 230 229
3 231 34 230
3 108 231 33
3 232 231 108
3 232 34 231
3 232 149 34
3 233 149 232
3 233 14 149
3 233 234 14
3 235 234 233
3 235 36 234
3 110 235 35
3 236 235 110
3 236 36 235
3 236 156 36
3 237 156 236
3 237 15 156
3 238 239 16
3 240 239 238
3 240 565 567
3 567 566 239
3 565 566 567
3 113 240 38
3 568 240 569
3 570 569 113
3 568 569 570
3 572 571 240
3 241 573 575
3 573 242 574
3 573 574 575
3 243 242 241
3 243 40 242
3 115 243 39
3 244 243 115
3 244 40 243
3 244 165 40
3 245 165 244
3 245 18 165
3 245 246 18
3 247 246 245
3 247 42 246
3 117 247 41
3 248 247 117
3 248 42 247
3 248 172 42
3 238 172 248
3 238 16 172
3 249 576 577
3 249 578 580
3 578 44 579
3 578 579 580
3 119 249 43
3 250 249 119
3 250 44 249
3 250 178 44
3 251 178 250
3 251 20 178
3 251 252 20
3 253 252 251
3 253 46 252
3 121 253 45
3 254 253 121
3 254 46 253
3 254 185 46
3 255 185 254
3 255 19 185
3 256 257 17
3 581 257 582
3 583 582 256
3 581 582 583
3 584 48 585
3 586 585 257
3 584 585 586
3 587 48 588
3 590 589 48
3 591 21 592
3 593 22 594
3 595 258 596
3 597 596 22
3 595 596 597
3 259 598 600
3 598 258 599
3 598 599 600
3 259 49 258
3 601 259 602
3 603 259 604
3 605 49 606
3 607 606 259
3 605 606 607
3 608 203 609
3 610 609 49
3 608 609 610
3 260 611 613
3 611 203 612
3 611 612 613
3 260 23 203
3 261 262 12
3 263 262 261
3 263 51 262
3 124 263 50
3 264 263 124
3 264 51 263
3 264 211 51
3 265 211 264
3 265 614 616
3 616 615 211
3 614 615 616
3 266 267 2
3 268 267 266
3 268 54 267
3 127 268 53
3 269 268 127
3 269 54 268
3 269 146 54
3 270 146 269
3 270 8 146
3 216 128 7
3 271 128 216
3 271 55 128
3 130 271 25
3 272 271 130
3 272 55 271
3 272 270 55
3 273 270 272
3 273 8 270
3 273 229 8
3 274 229 273
3 274 33 229
3 132 274 56
3 275 274 132
3 275 33 274
3 275 107 33
3 276 107 275
3 276 4 107
3 277 617 619
3 619 618 5
3 617 618 619
3 621 620 277
3 622 241 623
3 278 624 626
3 624 241 625
3 624 625 626
3 278 39 241
3 627 278 628
3 279 629 631
3 629 278 630
3 629 630 631
3 279 39 278
3 279 114 39
3 277 114 279
3 277 5 114
3 632 43 633
3 634 43 635
3 636 118 637
3 638 637 43
3 636 637 638
3 280 639 641
3 639 118 640
3 639 640 641
3 280 6 118
3 281 282 3
3 283 282 281
3 283 59 282
3 135 283 58
3 284 283 135
3 284 59 283
3 284 213 59
3 285 213 284
3 285 642 644
3 644 643 213
3 642 643 644
3 221 136 10
3 286 136 221
3 286 60 136
3 137 286 29
3 287 286 137
3 287 60 286
3 287 285 60
3 645 285 646
3 647 646 287
3 645 646 647
3 649 648 285
3 288 289 1
3 290 289 288
3 290 62 289
3 139 290 61
3 291 290 139
3 291 62 290
3 291 208 62
3 292 208 291
3 292 12 208
3 225 140 11
3 293 140 225
3 293 63 140
3 142 293 31
3 294 293 142
3 294 63 293
3 294 292 63
3 295 292 294
3 295 12 292
3 295 261 12
3 296 261 295
3 296 50 261
3 144 296 64
3 297 296 144
3 297 50 296
3 297 123 50
3 298 123 297
3 298 3 123
3 267 106 2
3 299 106 267
3 299 32 106
3 147 299 54
3 300 299 147
3 300 32 299
3 300 228 32
3 301 228 300
3 301 13 228
3 230 148 8
3 302 148 230
3 302 66 148
3 150 302 34
3 303 302 150
3 303 66 302
3 303 301 66
3 304 301 303
3 304 13 301
3 304 145 13
3 305 145 304
3 305 65 145
3 152 305 67
3 306 305 152
3 306 65 305
3 306 298 65
3 307 298 306
3 307 3 298
3 307 281 3
3 308 281 307
3 308 58 281
3 154 308 68
3 309 308 154
3 309 58 308
3 309 134 58
3 310 134 309
3 310 10 134
3 234 155 14
3 311 155 234
3 311 69 155
3 157 311 36
3 312 311 157
3 312 69 311
3 312 310 69
3 313 310 312
3 313 10 310
3 313 220 10
3 314 220 313
3 314 28 220
3 159 314 70
3 315 314 159
3 315 28 314
3 315 102 28
3 316 102 315
3 316 650 652
3 652 651 102
3 650 651 652
3 317 318 0
3 319 318 317
3 319 73 318
3 162 319 72
3 320 319 162
3 320 73 319
3 320 190 73
3 321 190 320
3 321 17 190
3 239 163 16
3 322 163 239
3 322 74 163
3 164 653 655
3 653 322 654
3 653 654 655
3 323 322 164
3 323 74 322
3 323 321 74
3 324 321 323
3 324 17 321
3 324 256 17
3 325 256 324
3 325 656 658
3 658 657 256
3 656 657 658
3 659 325 660
3 661 660 75
3 659 660 661
3 662 325 663
3 665 664 325
3 667 666 5
3 326 668 669
3 326 670 671
3 326 672 674
3 672 280 673
3 672 673 674
3 327 280 326
3 327 6 280
3 242 675 676
3 328 677 679
3 679 678 242
3 677 678 679
3 328 680 681
3 166 328 40
3 329 328 166
3 329 682 684
3 684 683 328
3 682 683 684
3 329 685 686
3 330 687 689
3 689 688 329
3 687 688 689
3 330 690 691
3 330 692 693
3 331 694 696
3 696 695 330
3 694 695 696
3 331 697 699
3 697 76 698
3 697 698 699
3 168 331 77
3 332 331 168
3 332 76 331
3 332 327 76
3 333 327 332
3 333 6 327
3 333 122 6
3 334 122 333
3 334 47 122
3 170 334 78
3 335 334 170
3 335 47 334
3 335 255 47
3 336 255 335
3 336 19 255
3 246 171 18
3 337 171 246
3 337 79 171
3 173 337 42
3 338 337 173
3 338 79 337
3 338 336 79
3 339 336 338
3 339 19 336
3 339 189 19
3 340 189 339
3 340 81 189
3 175 340 80
3 341 340 175
3 341 81 340
3 341 342 81
3 317 342 341
3 317 0 342
3 700 1 701
3 702 1 703
3 704 288 705
3 706 705 1
3 704 705 706
3 343 707 709
3 707 288 708
3 707 708 709
3 343 61 288
3 710 343 711
3 344 712 714
3 712 343 713
3 712 713 714
3 344 61 343
3 344 138 61
3 345 138 344
3 345 11 138
3 715 82 716
3 346 717 718
3 346 719 721
3 719 82 720
3 719 720 721
3 346 345 82
3 347 345 346
3 347 11 345
3 347 224 11
3 348 224 347
3 348 30 224
3 176 348 83
3 349 348 176
3 349 30 348
3 349 104 30
3 350 104 349
3 350 2 104
3 351 722 723
3 351 724 725
3 179 351 44
3 726 351 727
3 728 727 179
3 726 727 728
3 730 729 351
3 352 731 732
3 352 733 734
3 352 735 737
3 735 177 736
3 735 736 737
3 353 177 352
3 353 84 177
3 181 353 85
3 354 353 181
3 354 84 353
3 354 350 84
3 355 350 354
3 355 2 350
3 355 266 2
3 356 266 355
3 356 53 266
3 183 356 86
3 357 356 183
3 357 53 356
3 357 126 53
3 358 126 357
3 358 7 126
3 252 184 20
3 359 184 252
3 359 87 184
3 186 359 46
3 360 359 186
3 360 87 359
3 360 358 87
3 361 358 360
3 361 7 358
3 361 215 7
3 362 215 361
3 362 24 215
3 188 362 88
3 363 362 188
3 363 24 362
3 363 98 24
3 342 98 363
3 342 0 98
3 318 100 0
3 364 100 318
3 364 26 100
3 191 364 73
3 365 364 191
3 365 26 364
3 365 219 26
3 366 219 365
3 366 9 219
3 257 192 17
3 367 192 257
3 367 89 192
3 193 367 48
3 368 367 193
3 368 89 367
3 368 366 89
3 369 366 368
3 369 9 366
3 369 133 9
3 370 133 369
3 370 57 133
3 195 370 90
3 371 370 195
3 371 57 370
3 371 276 57
3 372 276 371
3 372 4 276
3 373 738 739
3 373 740 742
3 740 21 741
3 740 741 742
3 197 743 744
3 374 745 747
3 747 746 197
3 745 746 747
3 374 748 749
3 374 750 752
3 750 373 751
3 750 751 752
3 375 373 374
3 375 21 373
3 375 196 21
3 376 196 375
3 376 91 196
3 199 376 92
3 377 376 199
3 377 91 376
3 377 372 91
3 378 372 377
3 378 4 372
3 378 111 4
3 379 111 378
3 379 37 111
3 201 379 93
3 380 379 201
3 380 37 379
3 380 237 37
3 381 237 380
3 381 15 237
3 258 202 22
3 382 202 258
3 382 94 202
3 204 382 49
3 383 382 204
3 383 94 382
3 383 381 94
3 384 381 383
3 384 15 381
3 384 160 15
3 385 160 384
3 385 71 160
3 206 385 95
3 386 385 206
3 386 71 385
3 386 316 71
3 387 316 386
3 387 753 755
3 755 754 316
3 753 754 755
3 756 260 757
3 758 260 759
3 760 23 761
3 762 761 260
3 760 761 762
3 388 763 764
3 388 765 767
3 765 23 766
3 765 766 767
3 388 207 23
3 389 207 388
3 389 96 207
3 768 389 769
3 770 389 771
3 772 96 773
3 774 773 389
3 772 773 774
3 775 387 776
3 777 776 96
3 775 776 777
3 778 387 779
3 781 780 387
3 289 101 1
3 390 101 289
3 390 27 101
3 209 390 62
3 391 390 209
3 391 27 390
3 391 782 784
3 784 783 27
3 782 783 784
3 786 785 391
3 262 210 12
3 392 210 262
3 392 97 210
3 212 392 51
3 393 392 212
3 393 97 392
3 393 787 789
3 789 788 97
3 787 788 789
3 791 790 393
3 282 125 3
3 394 125 282
3 394 52 125
3 214 394 59
3 395 394 214
3 395 52 394
3 395 265 52
3 792 265 793
3 794 793 395
3 792 793 794
3 796 795 265
