ply
format ascii 1.0
element vertex 529
property float x
property float y
property float z
element face 539
property list uchar int vertex_index
end_header
12.565488 -42.94735 1.787002
7.760425 -50.163292 8.412343
15.074542 -40.151245 -2.79118
7.966499 -36.019623 6.471274
4.661915 -45.290997 30.439449
8.202623 -34.131832 29.599802
8.824188 -44.583122 23.441784
4.409058 -43.592987 17.551952
1.921777 -40.73893 8.611888
10.394836 -47.42017 4.499756
16.5704 -47.081615 0.864426
13.815821 -41.680164 -0.663672
9.011736 -38.599861 33.818634
9.072212 -43.921036 31.179861
5.838526 -39.563164 31.883539
8.183559 -33.905437 27.204285
9.127485 -39.592434 27.246777
6.865383 -39.329365 24.324493
7.301393 -43.839821 20.596846
2.481328 -39.067818 22.09577
4.409619 -37.672707 6.365611
15.543831 -51.416821 6.30381
9.041919 -48.863548 6.368543
12.110695 -39.980179 4.954693
7.703569 -49.224842 29.209553
5.207573 -49.644348 25.627014
4.086635 -34.022434 30.658405
4.678579 -39.298431 28.422678
5.100066 -44.654575 26.098759
4.447173 -48.480446 20.918926
6.598173 -48.006477 18.238306
8.720942 -47.740974 15.951569
8.642812 -46.425056 13.31505
2.051556 -42.73053 13.290886
7.812427 -44.9258 10.486582
8.139769 -43.360394 7.987506
9.783854 -41.773537 6.218275
11.30185 -45.442802 2.832091
16.922575 -49.38921 3.790349
13.315268 -44.937416 0.523869
14.439529 -44.530163 -0.613243
13.13174 -42.449303 0.524442
7.616056 -36.489952 34.180119
7.593694 -38.972328 32.621468
6.141644 -36.879093 32.686337
4.120803 -30.633764 26.3195
6.68467 -30.746723 27.132584
5.774289 -33.772968 26.036585
7.475722 -36.596252 25.844284
4.920885 -36.53112 24.849873
4.730475 -39.140141 23.429356
10.152719 -52.188629 7.728609
11.043007 -51.70591 6.680908
8.464163 -49.519753 7.408335
15.8681 -43.026699 -2.946017
9.974317 -37.825668 5.383637
12.775757 -37.938255 5.098554
10.6872 -36.296135 6.203747
12.813644 -45.251385 31.742535
6.540554 -44.782764 31.072535
8.101923 -46.948036 30.935461
5.737588 -47.771172 30.478003
6.328352 -49.450172 27.649984
4.625656 -47.962566 28.723988
7.098868 -31.137669 30.177328
5.483134 -33.865467 29.424799
4.435485 -36.689621 29.457077
6.588493 -36.718884 28.878998
9.040365 -42.290764 25.540913
7.443804 -42.141106 26.65773
7.258672 -44.610184 24.817436
4.705785 -46.799458 23.661114
6.362948 -46.585056 22.22801
5.188 -47.977348 19.407963
8.103569 -46.648766 21.176289
5.773829 -43.719738 19.176567
8.169384 -45.777657 18.338665
7.245267 -45.43322 16.791859
8.876887 -47.19355 14.580792
6.160403 -45.049103 15.276457
1.739081 -41.93314 10.881166
4.771109 -43.91053 11.553723
4.400749 -43.062099 9.654881
7.812917 -44.151432 9.184217
4.614217 -41.938786 7.970095
6.11377 -36.660076 6.248644
6.610757 -39.563519 6.135095
8.228299 -38.606728 5.65219
10.85308 -40.965927 5.553333
12.839496 -49.890213 5.006682
16.449591 -50.393578 5.125993
13.46418 -48.956169 3.946243
13.656782 -47.746845 2.849056
10.812885 -46.437302 3.653892
17.97768 -46.701061 -0.300014
15.210295 -43.820057 -1.754235
14.466519 -40.887604 -1.750173
10.96095 -40.578045 33.432659
11.338552 -43.01939 31.843281
9.444616 -41.080433 32.153542
7.426495 -41.796196 31.480387
5.293882 -42.297752 30.943415
8.688207 -30.925375 28.446299
9.233583 -34.107735 28.662964
8.905493 -36.895763 28.642536
9.169753 -36.83889 27.269344
8.844931 -39.458576 25.73258
8.525068 -41.940228 23.888788
8.60185 -44.232765 21.950836
6.860925 -41.639275 22.679813
5.006585 -41.546669 21.486485
3.157557 -41.491028 19.929539
2.74309 -39.131844 7.02979
14.528563 -52.543377 7.196072
11.917595 -50.810143 5.901734
9.728884 -48.192108 5.396641
14.653059 -41.79483 3.173348
10.607225 -45.939934 31.054806
9.712245 -48.580421 30.139416
4.84044 -34.559216 32.7561
4.55721 -36.957344 31.368036
4.280646 -39.589748 30.394979
4.105247 -42.208923 29.448944
7.20361 -39.513424 27.943466
4.87286 -41.939323 27.457905
4.270992 -45.024731 28.353596
4.24662 -47.563522 26.034588
4.487699 -49.410667 23.179567
6.206843 -50.346607 16.690985
6.280405 -50.148407 15.307261
8.742559 -46.314301 19.773558
7.884303 -48.093513 17.165581
6.569727 -49.787842 14.174322
7.176309 -49.310921 13.143255
7.94473 -48.830132 12.028645
8.59878 -48.239365 10.929898
1.738189 -41.195404 17.840046
3.074453 -43.22887 15.558759
5.335195 -44.494499 13.491666
8.134946 -45.676929 11.903818
9.114322 -47.579201 9.770806
9.445632 -46.968269 8.665296
9.823265 -46.304104 7.585251
10.239431 -45.643745 6.630769
5.44944 -40.752243 6.811971
8.872465 -42.594681 7.006508
10.786875 -44.923298 5.757866
11.473431 -44.129955 5.045249
12.160226 -43.164146 4.408278
11.71806 -44.200016 2.145194
19.723822 -51.980469 5.716174
20.250668 -49.990215 2.976817
16.930614 -48.301643 2.321952
13.713916 -46.462425 1.652525
15.522191 -41.693321 1.956944
16.415201 -41.174221 0.750674
17.183895 -40.695869 -0.50045
17.878561 -40.04768 -1.697821
18.219524 -39.365036 -2.931625
6.879134 -35.563469 34.483234
7.066923 -35.799267 35.605973
6.141927 -35.758039 33.736344
6.87885 -36.684522 33.433228
6.879134 -35.563469 34.483234
4.231246 -33.766819 25.654657
4.947546 -32.203366 26.178043
3.404503 -32.197217 25.796114
3.804544 -35.145895 25.061301
5.347587 -35.152044 25.443229
4.231246 -33.766819 25.654657
3.632199 -36.504032 24.366994
3.804544 -35.145895 25.061301
8.956572 -51.175961 8.070476
9.584988 -52.469101 8.180868
8.388841 -51.456432 8.522735
15.836778 -41.250946 -3.36812
16.233557 -42.688673 -3.445538
15.471321 -41.588972 -2.868599
15.322485 -39.841862 -3.323685
15.836778 -41.250946 -3.36812
12.797956 -43.934088 32.501987
13.541894 -45.088663 32.484589
7.650746 -32.634751 29.888565
8.051753 -31.103658 29.996911
8.60363 -32.60074 29.708148
1.830429 -41.336035 9.746527
1.48011 -40.250074 10.71199
1.571458 -39.652969 9.577351
17.27404 -46.891338 0.282206
18.993094 -47.766644 0.539955
18.289454 -47.95692 1.122175
9.313096 -38.682467 34.79106
8.911398 -37.759302 36.037493
8.610038 -37.676696 35.065067
9.986343 -39.588953 33.625647
10.287703 -39.671559 34.598072
9.313096 -38.682467 34.79106
14.005261 -53.143127 7.602683
15.94209 -53.333391 7.545857
13.137978 -39.891631 4.695807
12.648858 -41.101536 4.486574
14.103593 -38.028661 4.979021
13.231715 -37.208887 5.447331
8.726832 -49.80393 28.523899
9.73117 -49.481719 28.98883
8.707907 -48.902631 29.674484
8.103113 -49.866669 27.808936
8.726832 -49.80393 28.523899
6.374424 -50.114186 25.142179
6.934814 -50.017098 26.153664
5.767962 -49.54726 26.638499
6.003489 -50.139305 24.2008
6.374424 -50.114186 25.142179
4.295096 -32.878305 31.584447
4.289925 -32.544267 30.494669
4.463538 -34.290825 31.707253
4.671998 -33.146696 32.633295
4.295096 -32.878305 31.584447
5.345038 -49.448075 20.665911
5.365301 -49.913185 21.796232
4.467436 -48.945556 22.049246
5.332377 -49.42157 19.650616
5.345038 -49.448075 20.665911
1.219097 -39.649429 17.817726
1.441383 -39.966121 18.964025
1.55488 -41.669714 14.365614
1.506855 -41.286759 13.123643
2.563004 -42.9797 14.424823
2.066328 -41.918884 15.49955
1.55488 -41.669714 14.365614
12.648858 -41.101536 4.486574
12.673623 -42.69352 4.213367
12.135461 -41.572163 4.681485
17.633826 -51.698645 6.009992
19.22672 -52.467693 6.251037
17.136724 -52.185869 6.544856
18.54932 -50.194998 4.138582
18.312828 -50.697182 4.806404
16.686083 -49.891394 4.458171
18.586621 -49.689712 3.383583
20.213366 -50.4955 3.731816
18.54932 -50.194998 4.138582
15.959257 -40.670936 2.960587
15.087625 -41.744075 2.565146
15.524691 -40.721691 3.568789
17.763633 -40.888876 1.408089
17.130152 -40.675638 1.935121
18.14798 -40.6497 0.782527
16.799548 -40.935045 0.125112
17.763633 -40.888876 1.408089
19.439313 -40.597225 -1.196528
19.060753 -40.500157 -0.419859
19.609794 -40.255903 -1.81343
18.049042 -39.706358 -2.314723
19.439313 -40.597225 -1.196528
7.912198 -36.621742 35.24581
7.066923 -35.799267 35.605973
8.313896 -37.544906 33.999376
8.610038 -37.676696 35.065067
7.912198 -36.621742 35.24581
5.402736 -30.690244 26.726042
5.912879 -29.07517 27.096743
4.630946 -29.01869 26.690201
3.536994 -37.808543 23.656735
4.82568 -37.835631 24.139615
3.632199 -36.504032 24.366994
2.41242 -37.772381 22.989943
3.605901 -39.10398 22.762563
3.536994 -37.808543 23.656735
11.286784 -53.073221 8.563066
9.584988 -52.469101 8.180868
11.817338 -52.965753 7.868952
11.286784 -53.073221 8.563066
10.597863 -51.94727 7.204758
12.262483 -52.724394 7.345102
11.817338 -52.965753 7.868952
17.887625 -44.235388 -2.906299
17.462177 -44.590367 -2.232629
17.887625 -44.235388 -2.906299
16.233557 -42.688673 -3.445538
12.187437 -36.387827 5.999928
13.231715 -37.208887 5.447331
11.731479 -37.117195 5.65115
13.43386 -46.427124 31.678595
13.541894 -45.088663 32.484589
12.407778 -46.572143 31.187947
13.43386 -46.427124 31.678595
7.663166 -29.639994 30.408918
8.051753 -31.103658 29.996911
6.311189 -29.752091 30.352097
7.663166 -29.639994 30.408918
5.796042 -31.101885 30.254131
6.311189 -29.752091 30.352097
4.988174 -32.465784 29.877866
5.796042 -31.101885 30.254131
6.291001 -32.501568 29.801063
4.784885 -33.94395 30.041602
4.289925 -32.544267 30.494669
4.988174 -32.465784 29.877866
1.350617 -40.888064 11.918783
1.48011 -40.250074 10.71199
1.895319 -42.331835 12.086026
1.506855 -41.286759 13.123643
1.350617 -40.888064 11.918783
19.758114 -47.643118 -0.12572
18.993094 -47.766644 0.539955
18.516967 -46.427548 -0.909628
19.758114 -47.643118 -0.12572
17.133275 -44.987046 -1.636738
18.516967 -46.427548 -0.909628
16.593988 -45.260559 -1.027124
15.539198 -43.423378 -2.350126
17.462177 -44.590367 -2.232629
17.133275 -44.987046 -1.636738
8.535462 -35.290705 7.151787
7.427604 -35.131775 7.367718
11.166002 -40.68842 34.475487
10.287703 -39.671559 34.598072
11.871609 -41.597418 33.347049
11.166002 -40.68842 34.475487
11.149751 -41.798718 32.63797
12.060409 -42.81809 32.55236
11.871609 -41.597418 33.347049
7.069271 -29.201898 27.625709
5.912879 -29.07517 27.096743
8.07104 -29.291224 28.282567
7.069271 -29.201898 27.625709
7.686438 -30.836049 27.789442
8.757397 -29.4015 28.993629
8.07104 -29.291224 28.282567
8.846422 -30.997511 29.131397
8.757397 -29.4015 28.993629
9.11911 -32.588691 29.239729
8.846422 -30.997511 29.131397
8.960895 -32.516555 28.554631
8.718103 -34.119783 29.131383
8.60363 -32.60074 29.708148
9.11911 -32.588691 29.239729
1.802555 -38.891571 8.553044
1.571458 -39.652969 9.577351
2.213211 -38.088028 7.761995
2.332434 -39.935387 7.820839
1.802555 -38.891571 8.553044
2.817654 -37.295818 7.298372
2.213211 -38.088028 7.761995
3.650919 -36.56625 6.966282
3.576354 -38.402276 6.6977
2.817654 -37.295818 7.298372
4.655665 -36.15971 6.989968
3.650919 -36.56625 6.966282
5.50774 -35.653394 6.931484
5.261694 -37.166392 6.307127
4.655665 -36.15971 6.989968
6.501239 -35.452001 7.256403
5.50774 -35.653394 6.931484
7.427604 -35.131775 7.367718
7.040134 -36.339849 6.359959
6.501239 -35.452001 7.256403
16.629091 -52.749147 6.990986
15.94209 -53.333391 7.545857
15.036197 -51.980099 6.749941
17.136724 -52.185869 6.544856
16.629091 -52.749147 6.990986
12.785785 -52.124644 6.93849
14.005261 -53.143127 7.602683
12.262483 -52.724394 7.345102
3.102873 -28.99784 26.333477
4.630946 -29.01869 26.690201
3.613016 -27.382766 26.704178
2.596811 -30.658238 25.885264
3.102873 -28.99784 26.333477
3.404503 -32.197217 25.796114
2.596811 -30.658238 25.885264
7.440364 -50.530672 8.912513
8.388841 -51.456432 8.522735
13.92004 -42.008861 3.595902
13.609274 -42.37109 2.480175
12.876254 -42.585121 2.902729
14.409161 -40.798956 3.805135
13.92004 -42.008861 3.595902
15.524691 -40.721691 3.568789
14.409161 -40.798956 3.805135
13.47051 -38.870669 4.767738
13.137978 -39.891631 4.695807
12.443226 -38.959217 5.026623
13.47051 -38.870669 4.767738
14.103593 -38.028661 4.979021
9.895813 -35.428961 7.018023
9.326849 -36.157879 6.337511
8.535462 -35.290705 7.151787
11.202825 -35.604011 6.480693
9.895813 -35.428961 7.018023
12.187437 -36.387827 5.999928
11.202825 -35.604011 6.480693
12.076098 -44.135388 31.792908
12.797956 -43.934088 32.501987
12.060409 -42.81809 32.55236
11.304569 -46.916418 30.844082
12.407778 -46.572143 31.187947
11.710434 -45.595659 31.398671
10.857079 -48.236661 30.386387
11.304569 -46.916418 30.844082
10.159735 -47.260177 30.597111
10.443419 -49.397489 29.625206
10.857079 -48.236661 30.386387
10.443419 -49.397489 29.625206
9.73117 -49.481719 28.98883
7.415504 -49.979334 27.029151
8.103113 -49.866669 27.808936
7.015961 -49.337507 28.429769
7.415504 -49.979334 27.029151
6.934814 -50.017098 26.153664
5.100878 -33.510153 33.916193
4.671998 -33.146696 32.633295
5.491326 -34.598101 33.771225
5.100878 -33.510153 33.916193
5.491042 -35.719155 32.721219
6.141927 -35.758039 33.736344
5.491326 -34.598101 33.771225
5.643552 -50.022464 22.977076
6.003489 -50.139305 24.2008
4.847636 -49.527507 24.40329
5.643552 -50.022464 22.977076
5.365301 -49.913185 21.796232
5.70279 -49.170021 18.895135
5.332377 -49.42157 19.650616
4.817586 -48.228897 20.163444
6.212212 -50.35465 17.536646
5.70279 -49.170021 18.895135
5.697421 -49.161977 18.049474
6.224118 -52.346232 16.337902
6.212212 -50.35465 17.536646
5.908859 -52.398868 15.475462
6.224118 -52.346232 16.337902
5.94564 -52.299768 14.7836
5.908859 -52.398868 15.475462
6.243624 -50.247507 15.999123
5.875413 -52.098446 14.002985
5.94564 -52.299768 14.7836
6.020074 -51.918163 13.436515
5.875413 -52.098446 14.002985
6.425066 -49.968125 14.740792
6.180733 -51.50761 12.713599
6.020074 -51.918163 13.436515
6.484024 -51.26915 12.198066
6.180733 -51.50761 12.713599
6.873018 -49.549381 13.658788
6.822389 -50.618302 11.724747
6.484024 -51.26915 12.198066
7.2066 -50.377907 11.167441
6.822389 -50.618302 11.724747
7.560519 -49.070526 12.58595
7.532516 -49.864092 10.720664
7.2066 -50.377907 11.167441
7.859541 -49.568708 10.17129
7.532516 -49.864092 10.720664
8.271755 -48.534748 11.479271
8.179602 -49.201329 9.671121
7.440364 -50.530672 8.912513
7.859541 -49.568708 10.17129
1.604464 -37.588507 22.170499
2.41242 -37.772381 22.989943
1.812952 -38.902329 21.091887
1.604464 -37.588507 22.170499
2.151067 -40.113934 20.008771
2.819443 -40.279423 21.012655
1.812952 -38.902329 21.091887
2.447873 -41.343216 18.884792
2.151067 -40.113934 20.008771
1.441383 -39.966121 18.964025
1.398196 -40.902151 16.640194
1.219097 -39.649429 17.817726
2.406321 -42.212137 16.699403
1.398196 -40.902151 16.640194
2.066328 -41.918884 15.49955
12.45254 -43.211455 3.081825
11.939143 -43.682081 3.276736
12.673623 -42.69352 4.213367
12.876254 -42.585121 2.902729
12.141774 -43.573683 1.966098
12.45254 -43.211455 3.081825
21.3601 -52.997925 5.828996
19.22672 -52.467693 6.251037
21.633641 -52.513859 5.18389
23.26992 -53.531315 5.296712
21.3601 -52.997925 5.828996
19.949943 -51.490628 5.101494
18.086706 -51.187023 5.421083
18.312828 -50.697182 4.806404
21.633641 -52.513859 5.18389
19.949943 -51.490628 5.101494
21.880471 -50.973745 3.071166
20.213366 -50.4955 3.731816
21.677207 -50.350174 2.254072
21.880471 -50.973745 3.071166
20.129589 -49.41122 2.17837
21.677207 -50.350174 2.254072
18.469561 -48.566935 1.850938
20.129589 -49.41122 2.17837
18.590641 -49.145929 2.649385
16.750507 -47.691629 1.593189
18.289454 -47.95692 1.122175
18.469561 -48.566935 1.850938
16.683647 -40.935188 2.538255
15.959257 -40.670936 2.960587
15.968696 -41.433771 1.353809
16.683647 -40.935188 2.538255
17.130152 -40.675638 1.935121
18.71342 -40.824251 0.178826
18.14798 -40.6497 0.782527
17.531228 -40.371775 -1.099136
18.71342 -40.824251 0.178826
19.060753 -40.500157 -0.419859
16.724495 -39.790079 -2.777006
15.322485 -39.841862 -3.323685
16.476551 -40.099463 -2.244501
16.894976 -39.448757 -3.393908
16.724495 -39.790079 -2.777006
18.049042 -39.706358 -2.314723
17.165554 -39.138455 -3.988244
16.894976 -39.448757 -3.393908
19.91655 -40.113178 -2.612871
19.609794 -40.255903 -1.81343
21.306821 -41.004045 -1.494676
18.213803 -38.868284 -3.575436
19.91655 -40.113178 -2.612871
17.159833 -38.641703 -4.632055
17.165554 -39.138455 -3.988244
18.213803 -38.868284 -3.575436
3 0 41 39
3 159 42 160
3 161 44 162
3 163 162 42
3 161 162 163
3 164 47 165
3 166 165 45
3 164 165 166
3 167 49 168
3 169 168 47
3 167 168 169
3 171 170 49
3 1 172 174
3 172 51 173
3 172 173 174
3 1 53 51
3 2 175 177
3 177 176 54
3 175 176 177
3 2 178 179
3 3 57 55
3 180 58 181
3 4 61 59
3 4 63 61
3 5 182 184
3 182 64 183
3 182 183 184
3 5 65 64
3 5 67 65
3 6 70 68
3 6 72 70
3 6 74 72
3 7 77 75
3 7 79 77
3 8 185 187
3 185 80 186
3 185 186 187
3 8 82 80
3 8 84 82
3 3 87 85
3 3 55 87
3 9 91 89
3 9 93 91
3 10 188 190
3 188 94 189
3 188 189 190
3 11 95 40
3 11 96 95
3 12 191 193
3 191 192 193
3 12 194 196
3 194 97 195
3 194 195 196
3 12 99 97
3 14 100 43
3 14 101 100
3 15 102 46
3 15 103 102
3 15 105 103
3 17 106 48
3 17 107 106
3 17 109 107
3 19 110 50
3 19 111 110
3 197 113 198
3 22 114 52
3 22 115 114
3 23 199 200
3 202 201 56
3 13 117 98
3 24 118 60
3 24 203 205
3 205 204 118
3 203 204 205
3 24 206 207
3 25 208 210
3 210 209 62
3 208 209 210
3 25 211 212
3 26 213 214
3 26 215 217
3 215 119 216
3 215 216 217
3 26 120 119
3 27 121 66
3 27 122 121
3 16 123 104
3 28 124 69
3 28 125 124
3 28 126 125
3 29 127 71
3 29 218 220
3 220 219 127
3 218 219 220
3 29 221 222
3 30 128 73
3 30 129 128
3 18 130 108
3 31 131 76
3 31 132 131
3 31 133 132
3 32 134 78
3 32 135 134
3 223 136 224
3 33 225 226
3 33 227 229
3 227 137 228
3 227 228 229
3 33 138 137
3 34 139 81
3 34 140 139
3 34 141 140
3 35 142 83
3 35 143 142
3 20 144 112
3 36 145 86
3 36 146 145
3 36 147 146
3 23 148 88
3 23 230 232
3 232 231 148
3 230 231 232
3 21 233 235
3 233 150 234
3 233 234 235
3 38 236 238
3 238 237 90
3 236 237 238
3 38 239 241
3 239 151 240
3 239 240 241
3 38 152 151
3 37 153 92
3 37 149 153
3 242 154 243
3 244 243 116
3 242 243 244
3 245 155 246
3 247 156 248
3 249 248 155
3 247 248 249
3 250 157 251
3 252 158 253
3 254 253 157
3 252 253 254
3 39 40 10
3 41 40 39
3 41 11 40
3 42 255 256
3 42 257 259
3 257 12 258
3 257 258 259
3 42 43 12
3 44 43 42
3 44 14 43
3 45 260 262
3 260 46 261
3 260 261 262
3 47 46 45
3 47 15 46
3 47 48 15
3 49 48 47
3 49 17 48
3 49 50 17
3 263 50 264
3 265 264 49
3 263 264 265
3 266 19 267
3 268 267 50
3 266 267 268
3 51 269 270
3 51 271 272
3 51 273 275
3 273 52 274
3 273 274 275
3 53 52 51
3 53 22 52
3 54 276 277
3 279 278 54
3 55 56 23
3 57 56 55
3 57 280 282
3 282 281 56
3 280 281 282
3 58 283 284
3 58 285 286
3 59 60 13
3 61 60 59
3 61 24 60
3 61 62 24
3 63 62 61
3 63 25 62
3 64 287 288
3 64 289 290
3 64 291 292
3 65 293 295
3 295 294 64
3 293 294 295
3 65 296 298
3 296 26 297
3 296 297 298
3 65 66 26
3 67 66 65
3 67 27 66
3 68 69 16
3 70 69 68
3 70 28 69
3 70 71 28
3 72 71 70
3 72 29 71
3 72 73 29
3 74 73 72
3 74 30 73
3 75 76 18
3 77 76 75
3 77 31 76
3 77 78 31
3 79 78 77
3 79 32 78
3 80 299 300
3 80 301 303
3 301 33 302
3 301 302 303
3 80 81 33
3 82 81 80
3 82 34 81
3 82 83 34
3 84 83 82
3 84 35 83
3 85 86 20
3 87 86 85
3 87 36 86
3 87 88 36
3 55 88 87
3 55 23 88
3 89 90 21
3 91 90 89
3 91 38 90
3 91 92 38
3 93 92 91
3 93 37 92
3 94 304 305
3 94 306 307
3 40 94 10
3 95 94 40
3 95 308 310
3 310 309 94
3 308 309 310
3 95 311 313
3 311 54 312
3 311 312 313
3 96 54 95
3 96 2 54
3 315 314 3
3 97 316 317
3 97 318 319
3 97 320 322
3 320 98 321
3 320 321 322
3 99 98 97
3 99 13 98
3 43 99 12
3 100 99 43
3 100 13 99
3 100 59 13
3 101 59 100
3 101 4 59
3 46 323 324
3 102 325 327
3 327 326 46
3 325 326 327
3 102 328 329
3 102 330 331
3 103 332 334
3 334 333 102
3 332 333 334
3 103 335 337
3 335 5 336
3 335 336 337
3 103 104 5
3 105 104 103
3 105 16 104
3 48 105 15
3 106 105 48
3 106 16 105
3 106 68 16
3 107 68 106
3 107 6 68
3 107 108 6
3 109 108 107
3 109 18 108
3 50 109 17
3 110 109 50
3 110 18 109
3 110 75 18
3 111 75 110
3 111 7 75
3 338 8 339
3 340 112 341
3 342 341 8
3 340 341 342
3 343 112 344
3 345 20 346
3 347 346 112
3 345 346 347
3 348 20 349
3 350 85 351
3 352 351 20
3 350 351 352
3 353 85 354
3 355 3 356
3 357 356 85
3 355 356 357
3 113 358 359
3 113 360 362
3 360 21 361
3 360 361 362
3 52 363 365
3 363 113 364
3 363 364 365
3 114 113 52
3 114 21 113
3 114 89 21
3 115 89 114
3 115 9 89
3 366 45 367
3 366 367 368
3 369 45 370
3 372 371 45
3 373 1 374
3 375 116 376
3 377 376 0
3 375 376 377
3 378 116 379
3 381 380 116
3 56 382 384
3 384 383 23
3 382 383 384
3 386 385 56
3 387 57 388
3 389 388 3
3 387 388 389
3 390 57 391
3 393 392 57
3 98 394 396
3 394 58 395
3 394 395 396
3 117 58 98
3 117 397 399
3 399 398 58
3 397 398 399
3 60 117 13
3 118 117 60
3 118 400 402
3 402 401 117
3 400 401 402
3 118 403 404
3 406 405 118
3 62 407 409
3 409 408 24
3 407 408 409
3 411 410 62
3 119 412 413
3 119 414 415
3 119 416 418
3 416 44 417
3 416 417 418
3 120 44 119
3 120 14 44
3 66 120 26
3 121 120 66
3 121 14 120
3 121 101 14
3 122 101 121
3 122 4 101
3 104 67 5
3 123 67 104
3 123 27 67
3 69 123 16
3 124 123 69
3 124 27 123
3 124 122 27
3 125 122 124
3 125 4 122
3 125 63 4
3 126 63 125
3 126 25 63
3 71 126 28
3 127 126 71
3 127 25 126
3 127 419 421
3 421 420 25
3 419 420 421
3 423 422 127
3 73 424 426
3 426 425 29
3 424 425 426
3 128 427 429
3 429 428 73
3 427 428 429
3 128 430 431
3 128 432 433
3 129 434 436
3 436 435 128
3 434 435 436
3 129 437 438
3 108 74 6
3 130 74 108
3 130 30 74
3 76 130 18
3 131 130 76
3 131 30 130
3 131 129 30
3 132 129 131
3 132 439 441
3 441 440 129
3 439 440 441
3 132 442 443
3 133 444 446
3 446 445 132
3 444 445 446
3 133 447 448
3 78 133 31
3 134 133 78
3 134 449 451
3 451 450 133
3 449 450 451
3 134 452 453
3 135 454 456
3 456 455 134
3 454 455 456
3 135 457 459
3 457 1 458
3 457 458 459
3 460 19 461
3 462 19 463
3 464 111 465
3 466 465 19
3 464 465 466
3 136 467 469
3 467 111 468
3 467 468 469
3 136 7 111
3 470 136 471
3 137 472 474
3 472 136 473
3 472 473 474
3 137 7 136
3 137 79 7
3 138 79 137
3 138 32 79
3 81 138 33
3 139 138 81
3 139 32 138
3 139 135 32
3 140 135 139
3 140 1 135
3 140 53 1
3 141 53 140
3 141 22 53
3 83 141 34
3 142 141 83
3 142 22 141
3 142 115 22
3 143 115 142
3 143 9 115
3 112 84 8
3 144 84 112
3 144 35 84
3 86 144 20
3 145 144 86
3 145 35 144
3 145 143 35
3 146 143 145
3 146 9 143
3 146 93 9
3 147 93 146
3 147 37 93
3 88 147 36
3 148 147 88
3 148 37 147
3 148 149 37
3 475 149 476
3 477 476 148
3 475 476 477
3 478 0 479
3 480 479 149
3 478 479 480
3 150 481 482
3 150 483 485
3 483 484 485
3 90 150 21
3 486 150 487
3 488 487 90
3 486 487 488
3 490 489 150
3 151 491 492
3 151 493 494
3 151 495 496
3 152 497 499
3 499 498 151
3 497 498 499
3 152 500 502
3 500 10 501
3 500 501 502
3 92 152 38
3 153 152 92
3 153 10 152
3 153 39 10
3 149 39 153
3 149 0 39
3 116 41 0
3 154 41 116
3 154 11 41
3 503 154 504
3 155 505 507
3 505 154 506
3 505 506 507
3 155 11 154
3 155 96 11
3 156 96 155
3 156 2 96
3 508 156 509
3 157 510 512
3 510 156 511
3 510 511 512
3 157 2 156
3 157 513 515
3 515 514 2
3 513 514 515
3 158 516 518
3 518 517 157
3 516 517 518
3 158 519 520
3 521 158 522
3 521 522 523
3 524 158 525
3 528 527 158
3 526 527 528
