ply
format ascii 1.0
element vertex 368
property float x
property float y
property float z
element face 366
property list uchar int vertex_index
end_header
-22.053761 -22.147312 -22.157974
-20.062887 -41.290447 -10.044857
-24.076029 -37.175339 -14.799502
-28.280878 -23.475311 -26.959827
-26.259991 -30.580145 -20.537716
-20.782764 -18.868856 -26.214046
-25.632477 -19.526798 -29.720098
-22.76016 -23.039099 -26.227146
-30.573761 -39.314232 -11.583014
-25.25316 -34.080334 -17.488548
-31.839746 -35.012806 -15.029922
-31.991177 -30.444935 -18.032627
-18.420395 -40.230206 -4.471829
-14.804474 -38.942928 -8.257678
-16.046398 -36.564758 -10.395082
-17.401407 -33.914879 -12.583822
-18.685078 -32.126743 -14.707672
-22.24687 -39.309334 -12.046737
-27.878651 -42.422859 -8.591564
-31.206842 -18.976126 -28.924368
-32.792213 -22.510342 -25.614796
-23.713253 -25.165976 -19.210484
-19.680859 -30.273386 -17.210119
-20.77858 -28.482767 -20.158539
-21.936665 -26.204914 -23.18923
-27.245228 -27.295914 -23.992075
-32.216942 -25.965084 -21.484718
-21.65416 -19.029472 -24.498363
-20.941814 -20.539118 -24.220903
-21.518047 -20.94549 -26.292414
-20.906473 -22.319492 -24.083698
-23.863873 -35.7897 -11.105558
-33.156536 -40.057091 -10.604841
-31.405762 -37.283409 -13.364705
-34.177227 -37.816299 -12.502515
-34.651295 -35.571682 -14.29287
-16.422115 -40.000885 -10.489268
-17.04277 -38.469311 -11.360784
-16.707336 -35.085327 -11.476718
-17.939434 -37.358192 -12.457346
-18.709553 -36.589569 -13.588194
-21.203497 -40.194344 -10.966395
-27.23374 -21.514637 -28.418697
-28.589703 -19.282566 -29.518839
-29.831421 -21.226423 -28.015202
-32.215256 -20.920702 -27.596466
-30.684393 -23.045559 -26.401999
-20.311312 -35.060123 -16.012548
-19.228203 -31.152872 -15.924591
-21.069157 -34.118141 -17.257597
-25.696466 -32.322281 -18.951519
-22.475771 -31.609497 -19.854849
-23.212688 -30.242184 -21.242702
-21.318996 -27.46969 -21.599672
-23.998257 -28.818771 -22.78343
-24.556757 -27.246485 -24.247559
-26.833654 -28.956446 -22.270983
-32.122356 -28.111902 -19.670904
-22.542667 -19.222038 -28.513439
-24.184221 -21.442398 -28.098461
-25.668661 -23.566719 -27.251917
-27.606899 -38.428822 -13.042746
-24.818861 -35.839821 -16.153036
-28.375355 -36.669357 -14.702936
-28.688938 -34.569309 -16.175312
-28.955292 -32.36747 -17.594265
-29.209326 -30.368484 -19.144199
-31.959278 -32.678421 -16.501925
-14.307446 -39.13327 -5.134778
-15.581897 -38.187805 -6.121695
-16.684668 -37.298645 -7.307515
-15.311383 -37.784077 -9.374662
-17.665833 -36.218739 -8.400392
-18.720625 -35.168049 -9.503866
-19.683397 -34.098167 -10.669642
-20.510977 -32.981758 -11.851048
-21.011372 -32.002617 -12.845167
-18.064121 -33.008556 -13.620874
-19.509348 -35.759502 -14.77226
-23.182673 -38.248817 -13.400516
-23.910103 -42.293564 -9.001379
-25.322477 -41.058098 -10.226194
-26.587101 -39.845882 -11.529776
-29.427555 -40.939262 -9.949997
-31.904028 -41.813694 -8.889996
-29.848206 -16.848354 -30.045908
-33.502525 -19.004604 -28.99757
-34.002388 -20.481789 -27.296881
-34.276245 -22.29068 -24.948675
-22.870981 -23.65073 -20.683472
-21.495136 -30.819225 -13.84597
-21.613752 -29.531925 -15.026378
-21.648144 -28.348904 -16.333946
-21.760666 -32.854668 -18.553989
-20.233313 -29.404846 -18.596205
-21.434383 -27.192327 -17.785046
-21.212391 -26.073856 -19.367191
-21.129892 -25.064545 -21.016911
-20.924946 -23.765158 -22.619699
-22.368443 -24.693249 -24.705349
-25.127575 -25.39941 -25.737421
-27.778757 -25.437916 -25.530764
-29.430593 -28.357983 -20.904657
-29.654858 -26.587337 -22.819685
-30.088724 -24.863106 -24.65115
-32.238731 -24.143627 -23.500742
-21.497788 -21.343215 -23.189439
-22.186674 -20.86194 -23.600658
-22.742648 -21.666038 -22.569193
-25.898064 -36.405497 -11.251749
-24.079422 -35.07103 -11.801212
-34.727461 -39.591093 -11.614144
-33.666882 -38.936695 -11.553678
-34.217116 -40.711489 -10.665306
-35.191294 -38.516953 -12.657764
-34.727461 -39.591093 -11.614144
-18.552829 -39.879879 -10.702821
-18.076313 -40.706253 -10.507435
-19.586371 -42.116821 -9.849472
-20.761542 -17.90164 -26.278393
-21.19724 -17.981947 -25.420551
-21.218462 -18.949164 -25.356205
-21.017772 -17.971493 -27.29808
-20.761542 -17.90164 -26.278393
-21.662716 -19.045447 -27.363743
-21.897724 -18.148083 -28.447777
-21.017772 -17.971493 -27.29808
-34.724062 -34.382098 -15.085921
-35.667321 -36.177429 -14.589764
-14.539197 -40.457887 -5.552497
-13.830493 -39.691519 -4.673267
-15.193186 -38.565366 -7.189687
-15.044154 -39.235323 -6.651194
-14.655442 -39.612884 -7.719186
-24.187926 -43.945898 -7.782428
-23.183087 -42.962278 -8.522609
-26.600564 -41.740479 -9.408879
-25.772509 -42.512591 -8.830087
-27.050596 -43.194971 -8.012772
-32.150119 -43.494301 -7.908575
-31.088453 -42.710633 -8.157615
-32.985884 -42.515436 -8.764256
-32.150119 -43.494301 -7.908575
-26.358958 -18.409754 -30.207074
-24.847063 -18.515351 -30.091393
-31.820823 -17.837412 -29.371021
-31.141505 -16.773526 -29.93179
-30.527524 -17.91224 -29.485138
-32.354684 -18.990365 -28.960969
-32.968664 -17.851651 -29.407621
-31.820823 -17.837412 -29.371021
-19.499852 -41.172612 -3.455494
-17.502485 -40.34397 -3.927503
-24.962363 -25.16631 -19.678007
-25.468268 -26.144089 -19.041797
-23.292117 -24.408353 -19.946978
-24.541227 -24.408687 -20.414502
-24.962363 -25.16631 -19.678007
-22.542847 -20.107118 -23.739388
-23.246648 -19.745356 -24.290768
-21.297987 -19.784295 -24.359633
-22.542847 -20.107118 -23.739388
-22.186674 -20.86194 -23.600658
-25.591366 -37.072314 -10.538828
-23.578862 -36.420832 -10.401494
-25.591366 -37.072314 -10.538828
-25.898064 -36.405497 -11.251749
-35.428327 -37.394644 -13.552941
-34.414261 -36.69399 -13.397693
-35.191294 -38.516953 -12.657764
-35.667321 -36.177429 -14.589764
-35.428327 -37.394644 -13.552941
-15.430071 -40.868097 -8.204598
-14.655442 -39.612884 -7.719186
-17.765985 -41.47204 -10.071677
-17.313986 -42.339187 -9.973189
-16.732443 -39.235098 -10.925026
-17.765985 -41.47204 -10.071677
-18.076313 -40.706253 -10.507435
-28.108441 -43.958585 -7.445007
-27.050596 -43.194971 -8.012772
-29.075765 -43.015215 -8.008399
-28.108441 -43.958585 -7.445007
-20.383768 -41.017488 -4.106599
-19.174464 -40.02563 -5.107072
-24.116712 -25.998604 -18.542876
-25.468268 -26.144089 -19.041797
-33.445329 -29.43368 -18.498542
-32.056767 -29.278419 -18.851765
-33.37974 -30.600196 -17.679404
-33.418148 -28.289675 -19.245451
-33.445329 -29.43368 -18.498542
-33.465441 -27.216265 -20.152358
-32.169649 -27.038493 -20.577811
-33.418148 -28.289675 -19.245451
-33.41469 -25.961247 -20.969202
-33.465441 -27.216265 -20.152358
-20.614557 -43.332743 -8.970963
-19.586371 -42.116821 -9.849472
-21.259479 -42.46072 -9.044348
-20.614557 -43.332743 -8.970963
-22.220785 -18.515743 -24.954327
-23.246648 -19.745356 -24.290768
-22.220785 -18.515743 -24.954327
-21.19724 -17.981947 -25.420551
-23.302158 -18.362971 -29.488064
-21.897724 -18.148083 -28.447777
-24.087572 -19.374418 -29.116768
-24.847063 -18.515351 -30.091393
-23.302158 -18.362971 -29.488064
-33.378054 -32.935467 -16.190448
-33.305287 -34.125051 -15.397398
-34.724062 -34.382098 -15.085921
-33.394003 -31.818724 -16.9558
-31.975228 -31.561678 -17.267276
-33.378054 -32.935467 -16.190448
-33.37974 -30.600196 -17.679404
-33.394003 -31.818724 -16.9558
-23.637112 -22.724451 -21.815798
-22.742648 -21.666038 -22.569193
-15.446011 -39.795502 -4.258978
-13.830493 -39.691519 -4.673267
-16.36392 -39.681738 -4.803304
-17.502485 -40.34397 -3.927503
-15.446011 -39.795502 -4.258978
-14.406928 -39.708056 -6.157736
-14.539197 -40.457887 -5.552497
-14.944672 -38.660538 -5.628236
-14.406928 -39.708056 -6.157736
-15.044154 -39.235323 -6.651194
-17.755215 -39.004429 -5.932005
-19.174464 -40.02563 -5.107072
-17.001146 -39.209006 -5.296762
-18.3066 -38.559849 -6.524915
-17.755215 -39.004429 -5.932005
-16.133282 -37.743225 -6.714605
-18.938251 -38.188969 -7.196636
-18.3066 -38.559849 -6.524915
-15.370955 -40.216723 -8.860245
-15.430071 -40.868097 -8.204598
-16.179776 -40.745701 -9.976039
-17.313986 -42.339187 -9.973189
-15.624409 -39.637297 -9.418737
-16.179776 -40.745701 -9.976039
-15.866749 -38.892481 -9.931965
-15.057928 -38.363503 -8.81617
-15.370955 -40.216723 -8.860245
-15.624409 -39.637297 -9.418737
-19.428834 -37.649016 -7.743075
-18.938251 -38.188969 -7.196636
-17.17525 -36.758692 -7.853954
-20.002681 -37.156906 -8.385112
-19.428834 -37.649016 -7.743075
-20.530077 -36.631562 -8.93685
-20.002681 -37.156906 -8.385112
-18.193229 -35.693394 -8.952129
-21.007238 -36.110006 -9.600648
-20.530077 -36.631562 -8.93685
-21.488625 -35.575065 -10.183535
-21.007238 -36.110006 -9.600648
-19.202011 -34.633108 -10.086754
-21.773635 -34.943933 -10.8876
-23.578862 -36.420832 -10.401494
-21.488625 -35.575065 -10.183535
-22.402974 -33.667059 -12.173957
-24.079422 -35.07103 -11.801212
-22.187425 -34.385729 -11.478303
-20.761175 -32.492188 -12.348108
-22.653171 -33.177488 -12.671017
-22.402974 -33.667059 -12.173957
-21.829783 -41.912668 -9.505118
-20.633192 -40.742396 -10.505626
-21.259479 -42.46072 -9.044348
-22.5568 -41.243954 -9.983887
-21.829783 -41.912668 -9.505118
-23.183087 -42.962278 -8.522609
-25.066322 -43.130324 -8.217679
-24.187926 -43.945898 -7.782428
-24.61629 -41.675831 -9.613786
-25.066322 -43.130324 -8.217679
-25.772509 -42.512591 -8.830087
-29.850217 -42.273416 -8.687615
-28.653103 -41.681061 -9.270781
-29.075765 -43.015215 -8.008399
-30.665792 -41.376478 -9.419996
-29.850217 -42.273416 -8.687615
-31.088453 -42.710633 -8.157615
-33.612139 -41.637135 -9.621678
-32.530282 -40.935392 -9.747419
-32.985884 -42.515436 -8.764256
-34.217116 -40.711489 -10.665306
-33.612139 -41.637135 -9.621678
-27.837571 -18.287637 -30.106445
-26.358958 -18.409754 -30.207074
-27.11109 -19.404682 -29.619468
-28.466823 -17.070532 -30.369979
-27.837571 -18.287637 -30.106445
-29.218955 -18.06546 -29.782373
-29.277202 -15.812843 -30.554866
-28.466823 -17.070532 -30.369979
-30.660569 -15.557755 -30.20355
-29.277202 -15.812843 -30.554866
-30.660569 -15.557755 -30.20355
-31.141505 -16.773526 -29.93179
-33.915853 -18.088923 -29.702821
-32.968664 -17.851651 -29.407621
-34.308948 -19.009197 -29.047102
-33.915853 -18.088923 -29.702821
-34.55888 -19.747789 -28.196758
-34.308948 -19.009197 -29.047102
-33.752457 -19.743196 -28.147225
-34.909525 -20.464741 -27.403196
-34.55888 -19.747789 -28.196758
-35.046453 -21.369186 -26.229094
-34.909525 -20.464741 -27.403196
-34.139317 -21.386235 -26.122778
-34.911459 -22.892877 -24.034148
-35.046453 -21.369186 -26.229094
-19.499852 -41.172612 -3.455494
-20.383768 -41.017488 -4.106599
-24.045722 -23.47616 -21.078547
-24.541227 -24.408687 -20.414502
-22.462371 -22.899021 -21.420723
-23.637112 -22.724451 -21.815798
-24.045722 -23.47616 -21.078547
-22.859649 -32.550789 -13.241167
-22.653171 -33.177488 -12.671017
-23.101531 -31.959093 -13.741568
-22.859649 -32.550789 -13.241167
-21.253254 -31.410921 -13.345568
-23.252815 -31.305594 -14.273672
-23.101531 -31.959093 -13.741568
-23.312123 -30.661943 -14.863876
-23.252815 -31.305594 -14.273672
-21.554444 -30.175575 -14.436174
-23.340764 -29.839429 -15.380667
-23.312123 -30.661943 -14.863876
-23.35796 -29.247919 -16.034451
-23.340764 -29.839429 -15.380667
-21.630948 -28.940415 -15.680162
-23.264953 -28.437821 -16.553488
-23.35796 -29.247919 -16.034451
-23.158072 -27.859532 -17.279038
-23.264953 -28.437821 -16.553488
-21.541263 -27.770615 -17.059496
-22.977277 -27.011779 -17.830157
-23.158072 -27.859532 -17.279038
-22.866281 -26.452544 -18.621229
-22.977277 -27.011779 -17.830157
-21.323387 -26.633091 -18.576118
-22.462822 -25.619916 -19.288837
-24.116712 -25.998604 -18.542876
-22.866281 -26.452544 -18.621229
-33.425584 -25.050518 -21.977214
-32.227837 -25.054355 -22.49273
-33.41469 -25.961247 -20.969202
-33.404087 -24.064858 -22.930906
-33.425584 -25.050518 -21.977214
-33.680828 -23.248216 -23.987933
-32.515472 -23.326985 -24.557769
-33.404087 -24.064858 -22.930906
-34.422844 -23.138385 -23.654873
-33.534229 -22.400511 -25.281735
-33.680828 -23.248216 -23.987933
-35.541113 -23.743445 -23.621598
-34.422844 -23.138385 -23.654873
-34.911459 -22.892877 -24.034148
-35.541113 -23.743445 -23.621598
3 0 106 108
3 106 28 107
3 106 107 108
3 0 30 28
3 110 109 31
3 111 34 112
3 113 112 32
3 111 112 113
3 115 114 34
3 1 116 118
3 116 37 117
3 116 117 118
3 1 39 37
3 1 41 39
3 3 44 42
3 3 46 44
3 2 49 47
3 4 52 50
3 4 54 52
3 4 56 54
3 5 119 121
3 121 120 27
3 119 120 121
3 5 122 123
3 5 124 126
3 124 58 125
3 124 125 126
3 7 59 29
3 7 60 59
3 8 63 61
3 10 64 33
3 10 65 64
3 10 67 65
3 128 127 35
3 129 68 130
3 13 131 133
3 131 69 132
3 131 132 133
3 13 70 69
3 14 71 36
3 14 72 71
3 14 73 72
3 15 74 38
3 15 75 74
3 15 77 75
3 17 78 40
3 17 79 78
3 134 80 135
3 18 136 138
3 136 81 137
3 136 137 138
3 18 82 81
3 18 83 82
3 139 84 140
3 142 141 84
3 6 143 144
3 19 85 43
3 19 145 147
3 147 146 85
3 145 146 147
3 19 148 150
3 148 86 149
3 148 149 150
3 20 87 45
3 20 88 87
3 12 151 152
3 21 153 154
3 21 155 157
3 155 89 156
3 155 156 157
3 16 90 76
3 22 91 48
3 22 92 91
3 9 93 62
3 23 94 51
3 23 95 94
3 23 96 95
3 24 97 53
3 24 98 97
3 24 99 98
3 25 100 55
3 25 101 100
3 11 102 66
3 26 103 57
3 26 104 103
3 26 105 104
3 158 27 159
3 28 160 162
3 160 27 161
3 160 161 162
3 28 5 27
3 28 29 5
3 30 29 28
3 30 7 29
3 31 163 164
3 166 165 31
3 32 33 8
3 34 33 32
3 34 10 33
3 34 35 10
3 167 35 168
3 169 168 34
3 167 168 169
3 171 170 35
3 172 13 173
3 174 36 175
3 37 176 178
3 176 36 177
3 176 177 178
3 37 14 36
3 37 38 14
3 39 38 37
3 39 15 38
3 39 40 15
3 41 40 39
3 41 17 40
3 179 18 180
3 182 181 18
3 42 43 6
3 44 43 42
3 44 19 43
3 44 45 19
3 46 45 44
3 46 20 45
3 184 183 12
3 185 21 186
3 47 48 16
3 49 48 47
3 49 22 48
3 50 51 9
3 52 51 50
3 52 23 51
3 52 53 23
3 54 53 52
3 54 24 53
3 54 55 24
3 56 55 54
3 56 25 55
3 187 57 188
3 189 188 11
3 187 188 189
3 190 57 191
3 192 26 193
3 194 193 57
3 192 193 194
3 196 195 26
3 197 1 198
3 200 199 1
3 27 201 202
3 204 203 27
3 58 205 206
3 58 207 209
3 207 6 208
3 207 208 209
3 29 58 5
3 59 58 29
3 59 6 58
3 59 42 6
3 60 42 59
3 60 3 42
3 61 62 2
3 63 62 61
3 63 9 62
3 33 63 8
3 64 63 33
3 64 9 63
3 64 50 9
3 65 50 64
3 65 4 50
3 65 66 4
3 67 66 65
3 67 11 66
3 35 67 10
3 210 67 211
3 212 211 35
3 210 211 212
3 213 11 214
3 215 214 67
3 213 214 215
3 217 216 11
3 218 0 219
3 68 220 221
3 68 222 224
3 222 12 223
3 222 223 224
3 225 68 226
3 69 227 229
3 227 68 228
3 227 228 229
3 69 12 68
3 69 230 232
3 232 231 12
3 230 231 232
3 70 233 235
3 235 234 69
3 233 234 235
3 70 236 237
3 238 13 239
3 36 240 241
3 71 242 244
3 244 243 36
3 242 243 244
3 71 245 247
3 245 13 246
3 245 246 247
3 71 70 13
3 72 70 71
3 72 248 250
3 250 249 70
3 248 249 250
3 72 251 252
3 73 253 255
3 255 254 72
3 253 254 255
3 73 256 257
3 38 73 14
3 74 73 38
3 74 258 260
3 260 259 73
3 258 259 260
3 74 261 263
3 261 31 262
3 261 262 263
3 75 31 74
3 75 264 266
3 266 265 31
3 264 265 266
3 75 267 269
3 267 76 268
3 267 268 269
3 77 76 75
3 77 16 76
3 40 77 15
3 78 77 40
3 78 16 77
3 78 47 16
3 79 47 78
3 79 2 47
3 270 41 271
3 272 271 1
3 270 271 272
3 80 273 275
3 273 41 274
3 273 274 275
3 80 17 41
3 276 80 277
3 81 278 280
3 278 80 279
3 278 279 280
3 81 17 80
3 81 79 17
3 82 79 81
3 82 2 79
3 82 61 2
3 83 61 82
3 83 8 61
3 281 83 282
3 283 282 18
3 281 282 283
3 84 284 286
3 284 83 285
3 284 285 286
3 84 8 83
3 84 32 8
3 287 32 288
3 289 288 84
3 287 288 289
3 291 290 32
3 43 292 294
3 294 293 6
3 292 293 294
3 85 295 297
3 297 296 43
3 295 296 297
3 85 298 299
3 85 300 301
3 303 302 85
3 86 304 305
3 86 306 307
3 45 86 19
3 87 86 45
3 87 308 310
3 310 309 86
3 308 309 310
3 87 311 312
3 88 313 315
3 315 314 87
3 313 314 315
3 88 316 317
3 319 318 12
3 89 320 321
3 89 322 324
3 322 0 323
3 322 323 324
3 76 325 326
3 90 327 329
3 329 328 76
3 327 328 329
3 90 330 331
3 48 90 16
3 91 90 48
3 91 332 334
3 334 333 90
3 332 333 334
3 91 335 336
3 92 337 339
3 339 338 91
3 337 338 339
3 92 340 341
3 62 49 2
3 93 49 62
3 93 22 49
3 51 93 9
3 94 93 51
3 94 22 93
3 94 92 22
3 95 92 94
3 95 342 344
3 344 343 92
3 342 343 344
3 95 345 346
3 96 347 349
3 349 348 95
3 347 348 349
3 96 350 352
3 350 21 351
3 350 351 352
3 53 96 23
3 97 96 53
3 97 21 96
3 97 89 21
3 98 89 97
3 98 0 89
3 98 30 0
3 99 30 98
3 99 7 30
3 55 99 24
3 100 99 55
3 100 7 99
3 100 60 7
3 101 60 100
3 101 3 60
3 66 56 4
3 102 56 66
3 102 25 56
3 57 102 11
3 103 102 57
3 103 25 102
3 103 101 25
3 104 101 103
3 104 3 101
3 104 46 3
3 105 46 104
3 105 20 46
3 353 105 354
3 355 354 26
3 353 354 355
3 356 105 357
3 358 20 359
3 360 359 105
3 358 359 360
3 361 88 362
3 363 362 20
3 361 362 363
3 364 88 365
3 367 366 88
