ply
format ascii 1.0
element vertex 737
property float x
property float y
property float z
element face 901
property list uchar int vertex_index
end_header
-37.586739 24.336643 24.561508
-38.45472 50.719719 -4.815085
-30.411663 47.691875 9.864762
-39.176243 37.006203 28.925226
-34.581123 36.633514 11.769715
-25.758877 27.445017 33.304909
-26.806192 46.627796 16.18157
-30.0156 35.696419 22.491892
-35.969341 45.756481 19.139124
-43.392399 43.170597 -13.208145
-32.423199 50.218655 -11.242071
-40.287849 44.80645 3.296486
-34.671333 51.813457 2.877866
-28.55452 52.176552 -5.299764
-45.285591 30.536213 26.426479
-43.386932 31.059284 20.467754
-40.749561 38.128284 20.996843
-37.093742 46.753014 12.329285
-44.895622 23.291782 32.334988
-38.565361 28.892075 32.866745
-30.460224 34.20005 34.464558
-25.117273 37.203651 32.534588
-23.589865 44.058533 18.272985
-24.654657 37.291641 20.983723
-27.667257 40.473671 17.059546
-41.184193 47.060699 -9.351214
-38.277908 46.468346 -11.732548
-37.983608 51.857849 -8.709338
-38.085346 47.767513 -0.057572
-39.214279 43.534462 -6.149956
-32.276913 49.514275 5.809905
-29.276028 48.880768 0.763165
-26.447104 47.889503 3.767619
-42.060341 33.25069 27.470291
-42.445385 33.721046 23.340158
-40.847027 38.421196 25.096323
-33.719028 49.770763 16.532681
-36.73291 47.228561 16.317266
-35.644215 51.76424 12.859505
-37.246979 50.864246 7.718902
-44.7402 26.868179 33.198299
-39.78664 25.977411 35.790916
-29.27071 27.389761 37.311611
-30.579243 32.146145 38.932823
-27.545542 33.212624 36.34919
-27.232441 34.430279 33.075676
-24.346024 33.694824 33.21949
-20.96912 31.034725 32.070168
-38.787434 33.093533 17.967056
-29.147837 46.118279 13.286377
-24.000965 47.359528 8.413408
-34.930332 37.877487 27.107733
-37.552204 41.834545 24.839142
-32.792252 40.871773 20.334707
-31.094254 45.628998 17.661709
-22.613136 24.176281 34.266747
-32.546642 42.95702 -11.381569
-37.806061 41.610722 6.833898
-37.441811 53.139294 0.153129
-35.486744 55.014961 -3.863145
-32.426739 52.031883 -1.505561
-25.097694 51.249062 -2.638731
-42.087372 27.587406 26.27059
-41.086132 28.468008 22.954456
-45.337669 31.849751 23.393894
-42.53371 34.406063 20.823029
-37.38723 37.254135 17.555916
-39.559395 43.639904 20.610773
-36.933998 42.261761 16.250622
-36.438965 41.6945 11.409719
-38.561279 45.653694 7.634006
-39.817802 50.313725 3.736569
-35.567268 19.675482 27.144587
-41.038227 23.799969 28.240442
-45.350746 26.765676 28.857813
-43.495369 29.345409 29.339148
-38.421509 31.133057 29.162085
-34.665833 29.253643 37.626183
-33.446533 31.254171 34.80011
-34.079201 33.390545 29.757849
-30.884541 33.225395 28.472637
-25.601345 33.309547 26.010834
-32.068386 54.773754 -8.648927
-24.025249 40.621376 19.318233
-39.829796 49.127316 -7.290266
-40.096588 49.717876 -9.22654
-39.377949 51.998657 -7.108018
-36.132423 22.312622 23.639973
-36.974304 23.901432 22.426174
-37.4762 49.329666 -2.213757
-37.668461 45.948074 -3.080496
-38.436653 47.49371 -5.615182
-40.320168 45.540005 -7.820354
-31.175083 48.653656 7.859647
-29.615871 48.150257 4.634198
-28.406727 46.740807 6.486341
-41.05265 35.185009 28.619385
-40.999592 35.671455 26.432943
-40.386402 38.217571 27.536972
-32.598778 48.866314 13.639381
-35.00045 50.719536 14.946646
-32.895775 50.164104 11.802613
-33.493797 50.886497 9.459005
-42.519428 24.941463 36.135555
-27.728088 27.259094 35.139652
-28.377583 30.406128 36.35955
-26.807257 30.55694 34.576176
-26.083084 33.591957 34.843075
-25.050114 30.661442 32.681278
-22.739706 32.222115 31.707983
-23.34 28.911337 31.943884
-35.822887 34.342354 15.582907
-28.091532 46.459221 14.860601
-26.136881 46.606972 12.971992
-32.760216 36.583637 24.779198
-33.823784 39.043003 23.613865
-31.285191 38.171471 21.205744
-26.84404 43.248615 16.089348
-29.699148 42.654217 16.734108
-28.618067 45.785828 16.785286
-30.057383 47.199409 16.395378
-41.543728 42.247581 -13.775149
-34.798466 48.205849 -9.975519
-35.209175 45.078194 -10.768902
-32.425201 46.130726 -11.494881
-39.691212 43.389641 5.457969
-38.702881 40.761555 4.38506
-39.649605 42.205944 2.643939
-43.713707 41.977825 -11.655701
-36.15913 52.968742 1.820528
-35.24403 53.23571 -0.3593
-33.658043 51.948509 0.626584
-25.590038 48.60207 0.349792
-27.09823 49.230618 -1.387308
-44.249233 28.983637 26.47134
-43.820206 29.726587 24.973747
-45.350792 31.271679 25.050014
-41.538311 35.641388 22.176006
-43.044922 34.236771 22.004498
-41.362309 35.890728 20.640656
-40.151432 35.7094 19.296883
-39.277386 37.568748 19.337345
-36.558205 43.921398 21.823944
-39.06852 43.395046 23.078669
-37.855225 45.667156 20.566299
-36.69577 46.997444 14.587107
-36.728081 44.622551 16.281574
-35.98687 44.282501 13.971466
-36.113991 41.851555 13.925827
-36.510384 43.888641 11.545155
-37.806305 43.834282 9.263651
-37.979649 45.976391 9.8944
-35.901211 50.441998 4.575783
-38.447857 50.537849 5.691842
-37.520302 51.520245 3.263153
-38.2024 51.91806 2.033603
-39.972839 21.719805 29.643454
-43.21563 23.596169 30.125067
-43.55407 25.139429 28.408146
-45.399834 25.062464 30.493366
-41.815987 28.012218 33.09938
-43.952278 27.931833 31.149715
-40.995216 28.430302 30.685822
-40.761559 30.054035 28.911154
-38.168491 29.266979 30.829159
-30.342138 33.929909 37.295074
-31.861282 32.676136 37.715954
-31.879818 33.216682 34.994987
-33.385994 31.817871 31.798298
-31.916065 33.003548 31.877615
-32.610081 33.924599 29.89027
-30.612072 33.471733 31.58646
-25.801508 35.270824 32.246273
-26.495871 33.167103 29.56459
-25.117521 34.92997 29.258615
-23.920872 35.702679 26.349888
-24.84259 37.500481 29.991037
-32.157642 53.483521 -4.402233
-33.953114 53.655785 -6.106256
-30.284512 53.171288 -6.861885
-42.802132 29.624512 22.067364
-40.01162 27.5805 21.234612
-41.242565 28.862656 20.298412
-24.721498 45.217682 16.565418
-27.113668 35.923252 21.202051
-28.543056 37.849983 19.312469
-25.937342 38.755859 18.718927
-25.01836 41.805061 17.035398
-42.551319 45.303185 -11.544969
-41.328968 45.160721 -12.892921
-40.844326 47.40456 -11.31146
-38.097244 49.189579 -10.100931
-34.974354 51.429607 -9.718721
-39.230835 45.968822 1.744387
-38.669125 43.064232 1.047105
-37.806133 44.272503 -0.733449
-41.995239 43.711113 -9.801065
-33.186104 50.280678 3.979982
-32.060432 50.715633 1.874978
-30.62532 49.613594 3.311953
-27.93269 48.55817 2.299292
-25.006645 49.679031 2.250547
-43.759453 31.76981 26.632061
-43.994427 32.447186 24.941265
-41.956299 33.313671 25.321825
-40.973358 35.684925 24.052046
-41.222511 38.426506 23.001869
-34.981453 48.317242 17.535896
-36.953041 47.359612 18.002262
-36.043736 49.574326 16.807156
-36.826271 49.884418 15.113879
-37.595642 50.077003 12.886144
-38.430809 49.676708 10.344271
-36.402153 51.523582 10.156499
-34.693321 50.502243 7.056922
-45.724785 23.222805 34.547935
-46.187702 25.23698 32.804115
-45.13813 25.336248 34.94257
-42.530632 26.823856 34.854637
-39.306629 27.845184 34.475529
-31.17329 30.149811 39.540413
-29.754101 30.207031 38.209332
-29.2561 32.747059 37.67683
-28.809071 34.839497 36.551628
-28.945139 34.346748 33.785759
-27.305964 35.448002 36.020451
-25.777431 35.900249 35.169823
-24.44109 36.386848 34.076263
-23.46526 37.703728 32.911072
-22.688648 35.270508 32.499039
-25.074642 53.010967 -5.904361
-26.816034 54.934845 -7.206071
-41.837078 32.259968 19.271049
-41.559986 30.146282 18.893549
-39.364361 31.147644 17.605843
-29.983189 46.700825 11.731499
-27.154785 46.062462 8.66887
-26.434717 45.813206 10.967066
-36.977161 38.103813 28.526886
-38.350296 39.929573 27.478277
-36.251568 40.025337 25.904102
-35.002312 41.36837 22.624584
-34.632725 43.310658 19.810549
-30.470327 40.567677 18.150583
-32.46558 43.069878 17.888321
-33.818615 45.789413 17.792444
-32.237083 48.173439 17.535231
-31.474796 47.815117 15.046661
-28.726856 24.422581 36.611931
-26.813166 24.297333 34.446922
-24.106596 25.540693 33.131321
-25.12088 22.449738 34.439186
-38.455696 43.656124 -12.395871
-35.718189 42.074959 -11.327826
-33.348885 40.5023 -10.034201
-35.666637 39.193062 8.543612
-37.564201 52.120789 -1.861428
-37.905605 53.695351 -3.970809
-36.651993 53.976093 -1.92503
-33.827827 53.659019 -2.532187
-30.395807 52.607788 -3.289747
-30.78104 50.411385 -0.725302
-28.961613 50.841381 -2.468768
-26.889301 52.022503 -3.880477
-22.99321 52.137074 -4.133458
-25.020372 47.146965 5.85263
-39.758343 26.05126 25.59227
-39.073711 26.647144 23.779774
-41.564144 28.443085 24.715902
-43.72757 30.071661 23.395004
-44.8447 31.615774 21.877176
-44.507034 33.162884 23.308914
-44.431873 33.227863 21.809849
-43.540245 32.990376 20.648129
-41.052856 34.085651 19.553471
-38.1455 35.160053 17.910456
-35.907391 37.058838 15.125051
-39.945423 41.022579 25.748775
-40.973484 41.388184 23.383169
-40.578041 40.87645 20.815733
-37.885895 45.343342 18.263996
-38.614441 42.986046 18.255203
-38.877544 40.303387 18.797491
-37.204933 39.709526 16.660305
-36.290276 39.539268 14.35381
-35.497364 39.324848 11.455709
-37.217003 41.788292 9.110586
-38.798573 43.73209 7.300475
-39.972763 45.546341 5.731379
-38.595158 48.857449 7.948419
-39.387306 48.337757 5.804341
-40.217731 47.208626 3.679076
-39.276497 49.057346 1.828727
-38.004829 50.797596 0.222068
-35.194805 20.154602 25.003143
-36.678444 22.190792 25.716578
-38.182575 22.067556 27.790543
-39.079308 24.052298 26.619776
-41.548969 25.421906 27.001822
-43.808968 27.048361 27.291275
-45.472904 28.650366 27.615316
-45.697151 26.835535 30.89921
-45.420231 28.365433 29.25745
-45.002739 30.136719 28.045935
-43.062714 31.372925 28.411316
-40.91161 32.692474 28.802319
-38.882446 34.174404 28.934774
-36.706654 27.113663 36.027111
-36.586071 29.090405 35.573929
-32.576305 31.020824 39.143345
-34.009712 30.850311 37.027626
-35.908485 29.799252 33.873333
-35.478951 30.446207 31.163086
-35.974312 32.529808 29.266842
-36.648823 35.39378 28.656916
-34.998459 35.886902 28.830637
-33.083691 35.167309 27.1905
-30.759161 33.99836 25.199825
-28.544468 32.948505 30.5203
-28.334513 32.557373 26.765614
-27.588215 33.65612 23.445148
-24.715429 34.846802 22.960346
-22.958981 37.395103 23.753681
-21.791904 27.541668 33.005039
-37.275318 54.29171 -6.14476
-35.104317 53.712669 -8.529137
-33.171318 54.356346 -10.537618
-28.710217 57.103371 -8.602602
-30.455683 56.834755 -10.829355
-38.412758 25.90958 21.658312
-34.613617 35.022789 12.049198
-35.234499 33.877209 13.955794
-35.202005 35.487934 13.676311
-26.606333 47.456825 15.737516
-27.249004 47.372537 15.077032
-27.448862 46.543509 15.521086
-42.468063 42.709089 -13.491647
-42.785906 41.458435 -14.100316
-43.710241 41.919943 -13.816814
-31.484564 48.936751 -11.931627
-31.485565 46.892786 -12.058032
-32.4242 48.17469 -11.368476
-44.195377 41.573143 -13.268559
-44.356032 40.976757 -12.492337
-43.553053 42.574211 -12.431923
-43.710241 41.919943 -13.816814
-44.195377 41.573143 -13.268559
-24.467731 49.524797 -0.357252
-24.176944 49.854645 0.584763
-43.305529 22.253777 31.994233
-44.103243 22.035805 32.931452
-44.055626 23.443976 31.230028
-42.465532 22.405971 30.889273
-43.305529 22.253777 31.994233
-24.721014 38.278633 32.522091
-24.583672 38.427048 31.250315
-24.979931 37.352066 31.262812
-23.316646 45.672115 18.242703
-23.882463 46.25169 17.388919
-24.155682 44.638108 17.419201
-38.768947 42.713127 -4.96811
-37.996038 43.919933 -3.43338
-38.44137 44.741268 -4.615226
-39.944004 41.619875 -5.895188
-38.768947 42.713127 -4.96811
-40.105412 42.379207 -7.136093
-39.944004 41.619875 -5.895188
-44.990469 23.310775 35.422956
-44.861543 22.199051 34.924473
-44.697142 24.367497 35.620274
-45.431457 24.279527 34.745253
-44.990469 23.310775 35.422956
-29.512405 28.798396 37.760472
-30.202238 28.898962 38.65781
-29.960543 27.490327 38.20895
-20.888006 32.736599 32.019621
-21.773299 33.330294 31.838528
-21.854413 31.62842 31.889076
-20.174692 32.292673 32.627137
-20.888006 32.736599 32.019621
-24.218936 54.476807 -6.849501
-23.064331 53.296215 -5.963323
-25.020461 47.431908 12.083125
-25.489393 48.23572 13.422871
-28.144846 22.986773 36.594808
-29.010932 23.199078 37.793724
-27.188001 22.924149 35.512304
-27.770011 24.359957 35.529426
-28.144846 22.986773 36.594808
-26.341858 22.000351 35.508436
-25.967023 23.373535 34.443054
-27.188001 22.924149 35.512304
-31.572029 41.936966 -11.097747
-31.973151 40.709606 -10.424063
-32.947764 41.72966 -10.707885
-37.499323 40.225043 6.403272
-36.429611 39.016212 7.258129
-36.736349 40.401892 7.688755
-39.294311 39.341658 4.426325
-39.65215 40.125512 3.521517
-39.358998 41.718841 0.914038
-38.71772 41.900657 -0.093507
-35.381037 19.915042 26.073865
-34.687027 18.652273 25.51061
-34.873258 18.412713 26.581333
-35.686244 28.183653 36.826647
-35.873987 27.118918 37.297191
-34.853577 28.188907 38.096728
-23.362678 38.048479 25.762915
-23.439926 36.548891 25.051785
-23.843623 37.202267 27.061019
-22.698231 38.883205 24.64679
-23.362678 38.048479 25.762915
-22.743709 38.592999 32.601236
-22.427887 37.501755 32.57304
-27.024762 57.71855 -8.699434
-27.763126 56.019108 -7.904336
-26.07767 56.634287 -8.001169
-29.148381 55.948845 -11.215215
-28.800547 57.652937 -10.748672
-30.591646 54.88158 -11.370792
-29.148381 55.948845 -11.215215
-39.564196 26.063875 20.548066
-40.093878 26.90966 20.265011
-41.112423 28.88024 18.652023
-40.630964 29.409678 17.882959
-23.107471 45.335644 19.555678
-23.289029 43.672914 19.552718
-23.510282 40.213112 20.576107
-24.339953 38.956508 20.150978
-23.824987 38.548244 21.408852
-23.506721 41.954336 20.075342
-23.510282 40.213112 20.576107
-23.289029 43.672914 19.552718
-23.807557 42.339954 18.795609
-23.506721 41.954336 20.075342
-36.376375 21.860586 22.692024
-35.918793 21.117038 23.380099
-36.797315 22.654991 22.085124
-36.376375 21.860586 22.692024
-36.553364 23.107027 23.033074
-37.372095 23.325876 21.51679
-36.797315 22.654991 22.085124
-42.123239 24.078395 36.809473
-43.38779 24.170105 36.216766
-41.122955 24.596965 36.903406
-42.123239 24.078395 36.809473
-39.756561 25.114939 36.731087
-41.153034 25.459437 35.963235
-41.122955 24.596965 36.903406
-36.08021 33.044486 15.635099
-37.562483 32.420076 16.827174
-37.30516 33.717944 16.774981
-36.08021 33.044486 15.635099
-35.234499 33.877209 13.955794
-26.271678 47.446413 14.132727
-27.114207 46.533096 13.916297
-27.249004 47.372537 15.077032
-25.489393 48.23572 13.422871
-26.271678 47.446413 14.132727
-41.565346 40.850761 -14.004217
-42.785906 41.458435 -14.100316
-40.187395 41.548811 -13.166434
-41.565346 40.850761 -14.004217
-31.455343 44.699965 -12.262187
-31.516064 43.113112 -12.205531
-32.485922 44.543873 -11.438225
-31.455343 44.699965 -12.262187
-31.485565 46.892786 -12.058032
-40.125512 40.847706 2.650957
-39.65215 40.125512 3.521517
-39.176243 41.48375 3.5145
-44.318032 39.909338 -11.55507
-43.316982 40.749544 -10.774026
-44.318032 39.909338 -11.55507
-44.356032 40.976757 -12.492337
-25.221827 49.839072 -1.225802
-26.344134 48.916344 -0.518758
-24.467731 49.524797 -0.357252
-24.221559 50.848293 -1.851513
-26.097962 50.23984 -2.013019
-25.221827 49.839072 -1.225802
-23.420345 52.035065 -2.361803
-24.221559 50.848293 -1.851513
-23.355068 48.664387 7.313383
-23.53957 49.126053 8.742939
-35.040661 18.077338 27.549555
-34.873258 18.412713 26.581333
-40.844137 21.467789 30.648466
-39.251852 20.244276 30.257832
-41.594234 22.657987 29.88426
-40.844137 21.467789 30.648466
-42.465532 22.405971 30.889273
-33.923359 29.258065 38.617348
-34.853577 28.188907 38.096728
-24.304482 38.101168 28.881594
-23.843623 37.202267 27.061019
-24.381731 36.60158 28.170462
-24.980583 39.0733 30.551936
-24.304482 38.101168 28.881594
-24.980583 39.0733 30.551936
-24.583672 38.427048 31.250315
-21.745775 25.404997 34.665594
-22.034337 23.742722 35.300219
-40.70935 27.550738 19.796911
-40.093878 26.90966 20.265011
-40.627093 28.221578 20.766512
-24.950684 46.732525 16.760639
-25.99303 47.437582 16.568715
-25.763845 45.922739 16.373494
-24.950684 46.732525 16.760639
-23.882463 46.25169 17.388919
-23.316646 45.672115 18.242703
-23.107471 45.335644 19.555678
-38.286224 42.504793 -0.983784
-38.71772 41.900657 -0.093507
-38.237629 43.668368 0.156828
-38.064875 43.082148 -2.259856
-37.737297 45.110288 -1.906973
-37.996038 43.919933 -3.43338
-38.286224 42.504793 -0.983784
-38.064875 43.082148 -2.259856
-40.658356 43.381979 -7.971292
-40.105412 42.379207 -7.136093
-39.767224 44.537233 -6.985155
-41.495891 42.467533 -8.961648
-40.658356 43.381979 -7.971292
-41.157703 44.625559 -8.810709
-42.457748 41.616188 -9.846708
-41.495891 42.467533 -8.961648
-42.854473 42.844469 -10.728383
-43.316982 40.749544 -10.774026
-42.457748 41.616188 -9.846708
-23.885248 50.393125 1.535141
-24.176944 49.854645 0.584763
-25.298341 49.140551 1.300169
-44.517824 22.001316 34.037926
-44.861543 22.199051 34.924473
-45.310204 23.257294 33.441462
-44.103243 22.035805 32.931452
-44.517824 22.001316 34.037926
-43.828779 25.138855 35.539062
-44.697142 24.367497 35.620274
-43.38779 24.170105 36.216766
-30.911833 28.870352 39.323351
-31.593402 29.103343 40.095274
-30.463696 30.178421 38.874873
-30.911833 28.870352 39.323351
-30.202238 28.898962 38.65781
-22.039581 36.285145 32.367024
-22.427887 37.501755 32.57304
-23.076954 36.487118 32.705056
-21.74777 34.85449 32.234057
-22.714177 33.746312 32.103511
-21.773299 33.330294 31.838528
-22.039581 36.285145 32.367024
-21.74777 34.85449 32.234057
-25.089632 55.438746 -7.500356
-25.945338 53.972906 -6.555216
-24.218936 54.476807 -6.849501
-26.07767 56.634287 -8.001169
-25.089632 55.438746 -7.500356
-39.533152 29.910359 17.239106
-40.630964 29.409678 17.882959
-40.462174 30.646963 18.249696
-37.850947 31.447131 16.646567
-39.075897 32.120588 17.786449
-37.562483 32.420076 16.827174
-38.694174 30.374206 16.363986
-37.850947 31.447131 16.646567
-39.533152 29.910359 17.239106
-38.694174 30.374206 16.363986
-25.169379 47.035025 11.080662
-26.285799 46.210089 11.969529
-25.020461 47.431908 12.083125
-23.952503 47.808186 9.803833
-25.217841 46.586367 9.690237
-25.169379 47.035025 11.080662
-23.53957 49.126053 8.742939
-23.952503 47.808186 9.803833
-26.606333 47.456825 15.737516
-25.99303 47.437582 16.568715
-29.859458 26.042703 38.094444
-29.960543 27.490327 38.20895
-29.587531 24.559113 37.744604
-29.010932 23.199078 37.793724
-28.998783 25.906171 36.961771
-29.859458 26.042703 38.094444
-29.587531 24.559113 37.744604
-25.565279 21.028295 35.561792
-26.341858 22.000351 35.508436
-24.301392 21.757469 35.085342
-25.565279 21.028295 35.561792
-23.047521 22.620741 34.999123
-23.867008 23.313009 34.352967
-24.301392 21.757469 35.085342
-22.034337 23.742722 35.300219
-23.047521 22.620741 34.999123
-38.643379 42.253082 -12.476795
-40.187395 41.548811 -13.166434
-39.999712 42.951853 -13.08551
-37.274625 41.462499 -11.942773
-38.643379 42.253082 -12.476795
-37.086943 42.865541 -11.861849
-36.057175 40.714788 -11.219715
-37.274625 41.462499 -11.942773
-34.872523 39.928459 -10.572903
-36.057175 40.714788 -11.219715
-34.533537 41.288629 -10.681013
-33.910458 39.130201 -9.408988
-34.872523 39.928459 -10.572903
-32.26141 39.735628 -9.280119
-33.910458 39.130201 -9.408988
-32.26141 39.735628 -9.280119
-31.973151 40.709606 -10.424063
-31.572029 41.936966 -11.097747
-31.516064 43.113112 -12.205531
-35.601284 37.715898 8.451838
-35.058527 36.436124 10.064889
-35.12388 37.913288 10.156664
-35.601284 37.715898 8.451838
-36.429611 39.016212 7.258129
-37.947733 39.800459 5.178854
-37.499323 40.225043 6.403272
-38.254471 41.186138 5.609479
-37.947733 39.800459 5.178854
-39.294311 39.341658 4.426325
-39.849238 41.289698 1.712455
-39.159365 42.635088 1.845522
-39.358998 41.718841 0.914038
-40.125512 40.847706 2.650957
-39.849238 41.289698 1.712455
-22.023615 52.859268 -5.077872
-23.064331 53.296215 -5.963323
-24.033926 52.574021 -5.018909
-22.368103 52.479071 -3.109167
-24.045452 51.693068 -3.386095
-23.420345 52.035065 -2.361803
-21.494091 53.224074 -3.868778
-22.368103 52.479071 -3.109167
-22.023615 52.859268 -5.077872
-21.494091 53.224074 -3.868778
-23.864771 48.558105 6.032993
-24.510669 47.253247 7.133019
-23.355068 48.664387 7.313383
-24.305872 48.509063 4.976144
-23.864771 48.558105 6.032993
-25.019239 48.880332 3.933638
-25.733738 47.518234 4.810125
-24.305872 48.509063 4.976144
-24.299009 49.775097 3.175102
-25.726875 48.784267 3.009083
-25.019239 48.880332 3.933638
-24.130538 51.247877 2.620539
-24.299009 49.775097 3.175102
-23.885248 50.393125 1.535141
-24.130538 51.247877 2.620539
-34.926916 18.794494 24.586073
-34.687027 18.652273 25.51061
-35.449984 20.038027 24.061684
-34.926916 18.794494 24.586073
-35.663614 21.233612 24.321558
-35.918793 21.117038 23.380099
-35.449984 20.038027 24.061684
-36.245956 19.480214 28.152385
-35.040661 18.077338 27.549555
-38.448741 20.502375 29.401818
-39.251852 20.244276 30.257832
-37.55361 20.676251 28.475363
-38.448741 20.502375 29.401818
-39.077707 21.893681 28.716998
-36.874921 20.871519 27.467565
-36.245956 19.480214 28.152385
-37.55361 20.676251 28.475363
-38.51388 25.663417 36.89213
-39.756561 25.114939 36.731087
-36.973886 26.231542 37.010227
-35.873987 27.118918 37.297191
-38.246647 26.545537 35.909014
-38.51388 25.663417 36.89213
-36.973886 26.231542 37.010227
-32.177087 29.706149 39.574463
-31.593402 29.103343 40.095274
-32.878595 30.141655 39.375929
-32.177087 29.706149 39.574463
-31.874797 30.585318 39.341879
-33.621069 30.137234 38.384764
-33.923359 29.258065 38.617348
-32.878595 30.141655 39.375929
-22.977148 38.599975 22.793831
-23.824987 38.548244 21.408852
-23.806819 37.343372 22.368702
-22.977148 38.599975 22.793831
-22.698231 38.883205 24.64679
-23.895007 38.528672 32.710333
-24.721014 38.278633 32.522091
-24.291266 37.453689 32.72283
-23.895007 38.528672 32.710333
-22.743709 38.592999 32.601236
-21.335159 27.087691 34.03474
-22.20252 25.858975 33.635893
-21.745775 25.404997 34.665594
-20.916995 28.774431 33.466953
-21.335159 27.087691 34.03474
-20.505603 30.520959 32.999517
-21.380512 29.288197 32.537604
-20.916995 28.774431 33.466953
-20.174692 32.292673 32.627137
-20.505603 30.520959 32.999517
-27.927814 57.787245 -9.635296
-27.024762 57.71855 -8.699434
-29.58295 56.969063 -9.715978
-27.927814 57.787245 -9.635296
-28.800547 57.652937 -10.748672
-31.949464 53.642376 -11.224923
-31.8135 55.595551 -10.683487
-30.591646 54.88158 -11.370792
-31.575404 51.573531 -11.57715
-32.797258 52.287501 -10.889844
-31.949464 53.642376 -11.224923
-31.484564 48.936751 -11.931627
-31.575404 51.573531 -11.57715
-38.091322 24.329949 21.132859
-37.372095 23.325876 21.51679
-37.693531 24.905506 22.042243
-38.764765 25.228414 20.759916
-39.212189 26.74504 21.446462
-39.564196 26.063875 20.548066
-38.091322 24.329949 21.132859
-38.764765 25.228414 20.759916
-40.953712 28.238427 19.354454
-41.401275 29.504469 19.59598
-41.112423 28.88024 18.652023
-40.70935 27.550738 19.796911
-40.953712 28.238427 19.354454
-34.613617 35.022789 12.049198
-35.058527 36.436124 10.064889
3 1 86 84
3 0 88 87
3 1 91 89
3 1 84 91
3 2 95 93
3 3 98 96
3 2 101 99
3 2 93 101
3 5 106 104
3 5 108 106
3 5 110 108
3 4 330 332
3 332 331 111
3 330 331 332
3 6 333 335
3 335 334 112
3 333 334 335
3 7 116 114
3 6 119 117
3 6 112 119
3 9 336 338
3 336 121 337
3 336 337 338
3 10 124 122
3 10 339 341
3 341 340 124
3 339 340 341
3 11 127 125
3 9 342 344
3 344 343 128
3 342 343 344
3 9 345 346
3 12 131 129
3 348 347 132
3 14 136 134
3 16 139 137
3 16 141 139
3 8 144 142
3 17 147 145
3 17 149 147
3 17 151 149
3 12 154 152
3 12 129 154
3 18 349 350
3 18 351 353
3 351 157 352
3 351 352 353
3 18 159 157
3 19 162 160
3 19 164 162
3 20 167 165
3 20 169 167
3 20 171 169
3 21 174 172
3 21 176 174
3 21 354 356
3 356 355 176
3 354 355 356
3 13 179 177
3 15 182 180
3 22 357 359
3 359 358 183
3 357 358 359
3 23 186 184
3 22 187 83
3 22 183 187
3 25 190 188
3 27 191 85
3 27 192 191
3 28 195 193
3 29 360 362
3 362 361 90
3 360 361 362
3 29 363 364
3 29 365 366
3 25 196 92
3 25 188 196
3 30 199 197
3 32 200 94
3 32 201 200
3 33 204 202
3 35 205 97
3 35 206 205
3 36 209 207
3 38 210 100
3 38 211 210
3 38 213 211
3 30 214 102
3 30 197 214
3 367 215 368
3 369 217 370
3 371 370 215
3 369 370 371
3 41 218 103
3 41 219 218
3 42 372 374
3 372 221 373
3 372 373 374
3 44 222 105
3 44 223 222
3 44 225 223
3 46 226 107
3 46 227 226
3 46 229 227
3 47 375 377
3 377 376 109
3 375 376 377
3 47 378 379
3 381 380 230
3 48 234 232
3 49 237 235
3 383 382 113
3 51 240 238
3 53 241 115
3 53 242 241
3 24 243 185
3 54 244 118
3 54 245 244
3 54 246 245
3 49 247 120
3 49 235 247
3 384 248 385
3 386 249 387
3 388 387 248
3 386 387 388
3 389 251 390
3 391 390 249
3 389 390 391
3 26 252 189
3 56 253 123
3 56 254 253
3 56 392 394
3 394 393 254
3 392 393 394
3 57 395 397
3 397 396 255
3 395 396 397
3 399 398 126
3 401 400 194
3 58 258 256
3 60 259 130
3 60 260 259
3 31 261 198
3 61 262 133
3 61 263 262
3 61 264 263
3 50 265 236
3 62 268 266
3 64 269 135
3 64 270 269
3 34 271 203
3 65 272 138
3 65 273 272
3 65 274 273
3 66 275 140
3 66 276 275
3 52 277 239
3 67 278 143
3 67 279 278
3 37 280 208
3 68 281 146
3 68 282 281
3 68 283 282
3 69 284 148
3 69 285 284
3 69 286 285
3 70 287 150
3 70 288 287
3 39 289 212
3 71 290 153
3 71 291 290
3 71 292 291
3 58 293 155
3 58 256 293
3 72 402 404
3 402 294 403
3 402 403 404
3 72 295 294
3 73 296 156
3 73 297 296
3 73 298 297
3 74 299 158
3 74 300 299
3 40 301 216
3 75 302 161
3 75 303 302
3 75 304 303
3 76 305 163
3 76 306 305
3 77 405 407
3 405 307 406
3 405 406 407
3 77 308 307
3 43 309 220
3 78 310 166
3 78 311 310
3 78 312 311
3 79 313 168
3 79 314 313
3 79 315 314
3 80 316 170
3 80 317 316
3 45 318 224
3 81 319 173
3 81 320 319
3 81 321 320
3 408 322 409
3 410 409 175
3 408 409 410
3 412 411 322
3 414 413 228
3 55 323 250
3 59 324 257
3 82 325 178
3 82 326 325
3 415 327 416
3 417 416 231
3 415 416 417
3 418 328 419
3 421 420 328
3 63 329 267
3 423 422 181
3 425 424 233
3 427 426 22
3 428 83 429
3 430 429 23
3 428 429 430
3 431 83 432
3 433 22 434
3 435 434 83
3 433 434 435
3 84 85 25
3 86 85 84
3 86 27 85
3 87 436 437
3 88 438 440
3 440 439 87
3 438 439 440
3 88 441 442
3 89 90 28
3 91 90 89
3 91 29 90
3 91 92 29
3 84 92 91
3 84 25 92
3 93 94 30
3 95 94 93
3 95 32 94
3 96 97 33
3 98 97 96
3 98 35 97
3 99 100 36
3 101 100 99
3 101 38 100
3 101 102 38
3 93 102 101
3 93 30 102
3 443 103 444
3 445 103 446
3 447 41 448
3 449 448 103
3 447 448 449
3 104 105 42
3 106 105 104
3 106 44 105
3 106 107 44
3 108 107 106
3 108 46 107
3 108 109 46
3 110 109 108
3 110 47 109
3 111 450 452
3 452 451 48
3 450 451 452
3 454 453 111
3 112 113 49
3 455 113 456
3 457 456 112
3 455 456 457
3 459 458 113
3 114 115 51
3 116 115 114
3 116 53 115
3 117 118 24
3 119 118 117
3 119 54 118
3 119 120 54
3 112 120 119
3 112 49 120
3 121 460 461
3 121 462 463
3 122 123 26
3 124 123 122
3 124 56 123
3 124 464 466
3 466 465 56
3 464 465 466
3 468 467 124
3 125 126 57
3 127 126 125
3 127 469 471
3 471 470 126
3 469 470 471
3 128 472 473
3 475 474 128
3 129 130 58
3 131 130 129
3 131 60 130
3 132 133 31
3 476 133 477
3 478 477 132
3 476 477 478
3 479 61 480
3 481 480 133
3 479 480 481
3 483 482 61
3 485 484 50
3 134 135 62
3 136 135 134
3 136 64 135
3 137 138 34
3 139 138 137
3 139 65 138
3 139 140 65
3 141 140 139
3 141 66 140
3 142 143 52
3 144 143 142
3 144 67 143
3 145 146 37
3 147 146 145
3 147 68 146
3 147 148 68
3 149 148 147
3 149 69 148
3 149 150 69
3 151 150 149
3 151 70 150
3 152 153 39
3 154 153 152
3 154 71 153
3 154 155 71
3 129 155 154
3 129 58 155
3 486 72 487
3 488 156 489
3 157 490 492
3 490 156 491
3 490 491 492
3 157 73 156
3 157 158 73
3 159 158 157
3 159 74 158
3 160 161 40
3 162 161 160
3 162 75 161
3 162 163 75
3 164 163 162
3 164 76 163
3 493 77 494
3 165 166 43
3 167 166 165
3 167 78 166
3 167 168 78
3 169 168 167
3 169 79 168
3 169 170 79
3 171 170 169
3 171 80 170
3 172 173 45
3 174 173 172
3 174 81 173
3 174 175 81
3 176 175 174
3 176 495 497
3 497 496 175
3 495 496 497
3 176 498 499
3 501 500 176
3 503 502 55
3 177 178 59
3 179 178 177
3 179 82 178
3 180 181 63
3 182 181 180
3 182 504 506
3 506 505 181
3 504 505 506
3 183 507 509
3 509 508 6
3 507 508 509
3 511 510 183
3 513 512 22
3 184 185 7
3 186 185 184
3 186 24 185
3 83 186 23
3 187 186 83
3 187 24 186
3 187 117 24
3 183 117 187
3 183 6 117
3 188 189 9
3 190 189 188
3 190 26 189
3 85 190 25
3 191 190 85
3 191 26 190
3 191 122 26
3 192 122 191
3 192 10 122
3 193 194 11
3 195 194 193
3 195 514 516
3 516 515 194
3 514 515 516
3 90 195 28
3 517 195 518
3 519 518 90
3 517 518 519
3 521 520 195
3 92 522 524
3 524 523 29
3 522 523 524
3 196 525 527
3 527 526 92
3 525 526 527
3 196 528 529
3 196 530 532
3 530 128 531
3 530 531 532
3 188 128 196
3 188 9 128
3 197 198 12
3 199 198 197
3 199 31 198
3 94 199 30
3 200 199 94
3 200 31 199
3 200 132 31
3 201 132 200
3 201 533 535
3 535 534 132
3 533 534 535
3 202 203 14
3 204 203 202
3 204 34 203
3 97 204 33
3 205 204 97
3 205 34 204
3 205 137 34
3 206 137 205
3 206 16 137
3 207 208 8
3 209 208 207
3 209 37 208
3 100 209 36
3 210 209 100
3 210 37 209
3 210 145 37
3 211 145 210
3 211 17 145
3 211 212 17
3 213 212 211
3 213 39 212
3 102 213 38
3 214 213 102
3 214 39 213
3 214 152 39
3 197 152 214
3 197 12 152
3 215 536 537
3 215 538 540
3 538 18 539
3 538 539 540
3 215 216 18
3 217 216 215
3 217 40 216
3 103 541 543
3 541 217 542
3 541 542 543
3 218 217 103
3 218 40 217
3 218 160 40
3 219 160 218
3 219 19 160
3 544 220 545
3 221 546 548
3 546 220 547
3 546 547 548
3 221 43 220
3 105 221 42
3 222 221 105
3 222 43 221
3 222 165 43
3 223 165 222
3 223 20 165
3 223 224 20
3 225 224 223
3 225 45 224
3 107 225 44
3 226 225 107
3 226 45 225
3 226 172 45
3 227 172 226
3 227 21 172
3 227 228 21
3 229 228 227
3 229 549 551
3 551 550 228
3 549 550 551
3 109 229 46
3 552 229 553
3 554 553 109
3 552 553 554
3 556 555 229
3 230 231 13
3 557 231 558
3 559 558 230
3 557 558 559
3 561 560 231
3 232 233 15
3 234 233 232
3 234 562 564
3 564 563 233
3 562 563 564
3 565 234 566
3 567 566 48
3 565 566 567
3 568 234 569
3 571 570 234
3 235 236 2
3 237 236 235
3 237 50 236
3 113 237 49
3 572 237 573
3 574 573 113
3 572 573 574
3 575 50 576
3 577 576 237
3 575 576 577
3 579 578 50
3 581 580 6
3 238 239 3
3 240 239 238
3 240 52 239
3 115 240 51
3 241 240 115
3 241 52 240
3 241 142 52
3 242 142 241
3 242 8 142
3 185 116 7
3 243 116 185
3 243 53 116
3 118 243 24
3 244 243 118
3 244 53 243
3 244 242 53
3 245 242 244
3 245 8 242
3 245 207 8
3 246 207 245
3 246 36 207
3 120 246 54
3 247 246 120
3 247 36 246
3 247 99 36
3 235 99 247
3 235 2 99
3 582 42 583
3 248 584 585
3 248 586 588
3 586 42 587
3 586 587 588
3 248 104 42
3 249 104 248
3 249 5 104
3 249 250 5
3 251 250 249
3 251 55 250
3 589 251 590
3 591 251 592
3 593 55 594
3 595 594 251
3 593 594 595
3 597 596 55
3 189 121 9
3 252 121 189
3 252 598 600
3 600 599 121
3 598 599 600
3 123 252 26
3 253 252 123
3 253 601 603
3 603 602 252
3 601 602 603
3 253 604 605
3 254 606 608
3 608 607 253
3 606 607 608
3 254 609 610
3 254 611 612
3 614 613 254
3 616 615 56
3 255 617 619
3 619 618 4
3 617 618 619
3 621 620 255
3 126 622 624
3 624 623 57
3 622 623 624
3 626 625 126
3 194 127 11
3 627 127 628
3 629 628 194
3 627 628 629
3 631 630 127
3 256 257 1
3 258 257 256
3 258 59 257
3 130 258 58
3 259 258 130
3 259 59 258
3 259 177 59
3 260 177 259
3 260 13 177
3 198 131 12
3 261 131 198
3 261 60 131
3 133 261 31
3 262 261 133
3 262 60 261
3 262 260 60
3 263 260 262
3 263 13 260
3 263 230 13
3 264 230 263
3 264 632 634
3 634 633 230
3 632 633 634
3 635 264 636
3 637 636 61
3 635 636 637
3 638 264 639
3 641 640 264
3 236 95 2
3 265 95 236
3 265 32 95
3 642 265 643
3 644 643 50
3 642 643 644
3 645 265 646
3 647 32 648
3 649 648 265
3 647 648 649
3 650 201 651
3 652 651 32
3 650 651 652
3 653 201 654
3 656 655 201
3 266 267 0
3 268 267 266
3 268 63 267
3 135 268 62
3 269 268 135
3 269 63 268
3 269 180 63
3 270 180 269
3 270 15 180
3 203 136 14
3 271 136 203
3 271 64 136
3 138 271 34
3 272 271 138
3 272 64 271
3 272 270 64
3 273 270 272
3 273 15 270
3 273 232 15
3 274 232 273
3 274 48 232
3 140 274 65
3 275 274 140
3 275 48 274
3 275 111 48
3 276 111 275
3 276 4 111
3 239 98 3
3 277 98 239
3 277 35 98
3 143 277 52
3 278 277 143
3 278 35 277
3 278 206 35
3 279 206 278
3 279 16 206
3 208 144 8
3 280 144 208
3 280 67 144
3 146 280 37
3 281 280 146
3 281 67 280
3 281 279 67
3 282 279 281
3 282 16 279
3 282 141 16
3 283 141 282
3 283 66 141
3 148 283 68
3 284 283 148
3 284 66 283
3 284 276 66
3 285 276 284
3 285 4 276
3 285 255 4
3 286 255 285
3 286 57 255
3 150 286 69
3 287 286 150
3 287 57 286
3 287 125 57
3 288 125 287
3 288 11 125
3 212 151 17
3 289 151 212
3 289 70 151
3 153 289 39
3 290 289 153
3 290 70 289
3 290 288 70
3 291 288 290
3 291 11 288
3 291 193 11
3 292 193 291
3 292 28 193
3 155 292 71
3 293 292 155
3 293 28 292
3 293 89 28
3 256 89 293
3 256 1 89
3 294 657 658
3 294 659 660
3 294 661 663
3 661 87 662
3 661 662 663
3 295 87 294
3 295 0 87
3 664 72 665
3 156 666 667
3 296 668 670
3 670 669 156
3 668 669 670
3 296 671 673
3 671 72 672
3 671 672 673
3 296 295 72
3 297 295 296
3 297 0 295
3 297 266 0
3 298 266 297
3 298 62 266
3 158 298 73
3 299 298 158
3 299 62 298
3 299 134 62
3 300 134 299
3 300 14 134
3 216 159 18
3 301 159 216
3 301 74 159
3 161 301 40
3 302 301 161
3 302 74 301
3 302 300 74
3 303 300 302
3 303 14 300
3 303 202 14
3 304 202 303
3 304 33 202
3 163 304 75
3 305 304 163
3 305 33 304
3 305 96 33
3 306 96 305
3 306 3 96
3 674 41 675
3 307 676 677
3 307 678 680
3 678 41 679
3 678 679 680
3 307 219 41
3 308 219 307
3 308 19 219
3 220 681 682
3 309 683 685
3 685 684 220
3 683 684 685
3 309 686 688
3 686 77 687
3 686 687 688
3 166 309 43
3 310 309 166
3 310 77 309
3 310 308 77
3 311 308 310
3 311 19 308
3 311 164 19
3 312 164 311
3 312 76 164
3 168 312 78
3 313 312 168
3 313 76 312
3 313 306 76
3 314 306 313
3 314 3 306
3 314 238 3
3 315 238 314
3 315 51 238
3 170 315 79
3 316 315 170
3 316 51 315
3 316 114 51
3 317 114 316
3 317 7 114
3 224 171 20
3 318 171 224
3 318 80 171
3 173 318 45
3 319 318 173
3 319 80 318
3 319 317 80
3 320 317 319
3 320 7 317
3 320 184 7
3 321 184 320
3 321 23 184
3 175 321 81
3 322 321 175
3 322 23 321
3 322 689 691
3 691 690 23
3 689 690 691
3 693 692 322
3 228 694 696
3 696 695 21
3 694 695 696
3 698 697 228
3 250 110 5
3 323 110 250
3 323 47 110
3 699 323 700
3 701 700 55
3 699 700 701
3 702 323 703
3 704 47 705
3 706 705 323
3 704 705 706
3 708 707 47
3 257 86 1
3 324 86 257
3 324 27 86
3 178 324 59
3 325 324 178
3 325 27 324
3 325 192 27
3 326 192 325
3 326 10 192
3 231 179 13
3 327 179 231
3 327 82 179
3 709 327 710
3 328 711 713
3 711 327 712
3 711 712 713
3 328 82 327
3 328 326 82
3 714 326 715
3 716 715 328
3 714 715 716
3 717 10 718
3 719 718 326
3 717 718 719
3 721 720 10
3 267 88 0
3 329 88 267
3 329 722 724
3 724 723 88
3 722 723 724
3 181 329 63
3 725 329 726
3 727 726 181
3 725 726 727
3 729 728 329
3 233 182 15
3 730 182 731
3 732 731 233
3 730 731 732
3 734 733 182
3 736 735 4
