ply
format ascii 1.0
element vertex 509
property float x
property float y
property float z
element face 561
property list uchar int vertex_index
end_header
37.578724 6.292004 23.681393
50.539589 20.422819 18.839504
32.986015 14.190193 12.54256
45.322376 7.954629 5.925715
39.249657 11.0577 11.143713
45.536682 16.803631 8.376594
41.686401 14.1029 20.8139
48.778278 9.686277 12.338432
54.868782 23.692547 12.072286
42.131157 23.689041 20.425831
35.495785 17.510012 24.605473
54.748371 13.969755 9.115396
42.984058 19.907618 9.324493
47.44278 22.321436 8.176931
39.145607 10.523288 21.908775
43.918716 8.698503 19.096836
37.886322 21.663311 22.386665
33.963066 6.607391 12.94133
42.173668 9.315045 8.719936
54.635448 22.667831 17.576008
54.721241 18.837805 15.16067
54.885315 16.700907 17.358986
52.25835 4.886122 8.191519
52.169212 7.641159 4.883325
35.71233 19.416103 12.127889
36.164085 12.821485 12.711782
38.871635 16.857187 10.540091
41.814659 14.541842 8.045591
44.838722 12.870608 4.854972
45.922272 16.90661 19.736868
50.322578 14.478363 19.449245
46.741341 11.6881 19.287497
47.664043 6.44065 14.165703
52.176891 26.326019 13.37974
50.666046 25.061926 18.669239
45.658951 25.631433 18.856897
46.360847 22.219433 18.783009
41.244705 19.254709 19.666286
37.491016 15.975909 21.747498
34.964363 11.624027 24.016367
33.221069 7.648314 26.982447
36.572502 5.835835 13.699597
50.884224 21.026131 10.959874
50.16613 14.551593 9.040134
50.450203 12.477314 2.634799
51.97805 12.389906 11.162406
52.539867 10.763864 2.675704
38.092152 8.345322 22.567862
40.733131 7.662283 21.152435
33.527119 10.46915 12.618109
43.793648 8.635242 7.389683
42.214958 6.384908 9.752663
53.053871 21.637245 18.686335
55.121742 19.7439 18.100605
52.996773 18.832848 18.877657
32.245781 17.060345 12.231718
37.469936 21.317852 11.068117
37.338036 18.158548 11.536822
39.207279 19.959507 10.687314
44.40749 18.38879 8.27501
42.182709 17.360622 8.230536
43.60939 16.086477 7.050865
43.305611 13.621597 6.531728
45.149414 14.843549 6.33454
43.65155 15.624661 20.420383
46.26968 14.370842 20.846979
44.378784 12.749552 20.892315
45.452625 5.988846 17.827042
45.694256 7.612065 16.741323
35.240772 22.113386 11.359258
51.530334 25.749645 16.397093
42.936905 25.496319 21.254419
43.383106 26.032642 19.445911
44.765762 24.737087 20.470768
46.865219 24.327602 19.830927
44.21228 22.957226 19.609425
43.698288 20.685644 19.087845
41.488171 21.747402 19.704876
36.693295 19.736088 23.631779
37.313408 18.852161 21.691282
36.156574 16.909016 22.931692
36.270935 14.0345 22.915051
34.795063 14.625859 24.067978
37.772076 11.955068 12.115413
36.424488 9.367655 13.081726
37.944695 8.614331 12.552496
54.437645 23.902206 9.34054
52.327332 22.465818 8.721861
53.806355 22.178499 11.086064
54.882301 15.819916 13.085447
52.415344 16.596821 13.214914
52.955864 14.598795 8.763908
50.584068 13.677002 5.312644
52.993366 13.55679 5.175624
49.526451 12.426452 16.081388
51.300819 13.735449 15.515536
50.068565 11.41249 11.923111
53.798656 7.108972 2.142862
52.150055 9.29702 3.615782
52.686077 8.506069 1.215987
51.574562 9.597235 0.921985
41.337013 21.301157 9.955557
45.123234 21.111305 8.804475
46.424984 19.563038 8.928085
40.283928 12.397132 21.374903
42.742043 11.144258 20.749508
41.639816 9.555983 20.889019
40.978676 24.718729 22.331951
39.620392 22.969894 21.247583
40.692116 10.109419 9.981074
39.404175 7.789022 11.754209
40.800144 7.013694 10.817728
54.99585 23.484264 15.221354
54.647839 21.821918 14.225146
55.568848 20.675991 16.57621
55.653534 17.658039 16.264688
55.483223 14.924785 13.678391
49.637753 6.776852 9.608347
50.100029 8.462626 8.439258
52.176933 6.042985 6.240233
34.131695 17.02796 12.670259
34.536362 13.517929 12.934758
35.865101 16.062281 12.390572
37.446373 14.944687 11.663815
39.008194 13.92782 10.847178
40.732704 18.6325 9.598985
40.30444 15.684187 9.370366
40.570923 12.896093 9.712099
41.974995 11.993314 8.264788
43.326977 11.170533 6.577928
44.898273 10.497702 4.874311
48.241138 18.658327 19.080618
50.458481 17.390079 19.576466
48.26281 15.700238 20.421793
48.504436 13.147202 19.479939
47.896687 10.851707 16.132307
45.059219 10.156655 19.097553
46.654465 9.365909 16.248577
47.970951 7.982944 12.977246
49.637596 5.407839 11.176302
33.527737 19.89049 12.218705
53.943481 25.333019 12.97099
53.697662 24.714241 16.010164
52.827759 23.919598 18.359241
50.818237 22.766144 18.849812
41.482586 27.085901 18.367401
43.564072 26.488104 16.817875
46.302551 26.254726 16.062696
48.140785 25.478954 18.484838
48.749683 23.666962 19.015873
48.384396 21.244862 18.564926
45.886059 19.620594 18.815943
43.503811 17.954691 19.432932
41.262421 16.635868 20.287296
39.079536 20.532322 20.408173
39.059326 17.724171 20.667463
39.423775 15.008632 21.25071
38.123219 13.22906 22.150799
36.836109 11.08057 22.864033
35.858097 8.729097 23.795897
34.180347 15.67524 25.781078
33.540878 12.829283 25.449854
33.839291 9.566106 25.349218
35.163151 6.790959 25.124886
35.427055 4.696379 26.649876
34.859135 9.930714 13.059451
35.136543 6.329931 13.585512
49.283039 21.160061 8.874544
47.751244 18.89941 10.742596
52.653942 20.205629 13.707529
49.768116 17.863935 12.719373
47.290718 15.307025 9.133807
47.576057 13.835722 5.841598
47.369896 12.551269 3.410809
47.305717 10.478773 2.881886
52.55896 15.873431 18.611813
53.91449 14.352057 14.634077
54.201611 12.976583 10.106245
50.686691 10.226032 7.571295
52.22694 11.563672 6.716588
53.537151 12.61054 5.779105
52.192822 11.896006 2.300081
49.97348 10.376541 1.357623
47.100548 7.47037 4.019286
38.950229 6.102704 22.957695
39.206943 7.129362 22.40093
37.835438 7.318663 23.124628
38.769028 5.459943 23.592146
38.950229 6.102704 22.957695
33.256567 12.329671 12.580334
33.003366 10.7419 12.198217
32.732815 12.602421 12.160443
44.506258 6.842811 7.331823
43.741894 7.183117 8.063807
44.558012 8.294935 6.657699
45.319658 6.612527 6.800261
44.506258 6.842811 7.331823
32.334865 13.93143 11.955312
31.964748 15.366506 11.799892
32.615898 15.625269 12.387139
32.732815 12.602421 12.160443
32.334865 13.93143 11.955312
39.327393 21.352548 10.336814
38.338607 20.638679 10.877716
38.458721 22.031721 10.527215
46.580673 5.52137 16.795811
46.883978 5.045509 17.660483
38.458721 22.031721 10.527215
37.325607 22.552215 10.534398
52.882778 7.306871 1.240702
53.242367 7.80752 1.679425
53.439068 6.608323 1.70414
51.973166 7.760958 1.251659
52.882778 7.306871 1.240702
46.283007 21.716371 8.490703
45.445421 22.406539 8.323734
46.605194 23.011604 8.009962
42.011808 7.241017 20.441034
41.883224 6.355792 21.060066
41.282291 24.942493 23.492424
41.843138 25.575274 22.649826
40.203947 24.181237 23.031986
41.282291 24.942493 23.492424
33.694904 4.906218 12.784859
33.5497 6.795001 12.467234
34.079384 4.81078 13.383498
33.694904 4.906218 12.784859
41.625366 5.158956 11.131072
42.489514 4.88271 10.839596
52.573324 26.567631 11.936412
51.389767 27.00091 12.218567
53.060186 25.829519 13.175365
53.456619 26.071131 11.732036
52.573324 26.567631 11.936412
42.038637 27.178348 19.783234
41.8139 27.938007 19.453259
33.628204 14.791997 26.626061
34.406593 16.131155 26.803805
33.30847 13.369018 26.460449
33.860613 14.252261 25.615466
33.628204 14.791997 26.626061
33.53018 8.60721 26.165833
33.239077 10.17642 26.272979
32.929966 9.217524 27.089594
37.060885 3.984523 26.69389
35.969629 3.938378 27.684908
36.58128 4.587336 25.77231
37.060885 3.984523 26.69389
35.95459 4.357678 14.188434
35.23661 4.604725 14.131391
35.854523 6.082883 13.642554
38.718941 6.513772 12.569792
39.442104 6.164363 12.347875
49.53645 8.779785 1.766955
50.774021 9.986888 1.139804
50.33699 8.390132 1.549136
48.099984 7.3267 3.097787
48.537014 8.923455 2.688455
49.53645 8.779785 1.766955
47.256686 6.101188 5.054812
48.099984 7.3267 3.097787
47.780975 23.494421 7.583737
46.605194 23.011604 8.009962
40.527433 6.787843 21.693216
39.412641 8.003802 21.860149
39.206943 7.129362 22.40093
41.883224 6.355792 21.060066
40.527433 6.787843 21.693216
33.331726 8.725881 12.305623
33.003366 10.7419 12.198217
33.745092 8.53827 12.77972
33.5497 6.795001 12.467234
33.331726 8.725881 12.305623
42.952549 6.057951 9.245297
43.004303 7.510075 8.571173
43.741894 7.183117 8.063807
42.489514 4.88271 10.839596
42.952549 6.057951 9.245297
53.676969 4.781338 6.768618
53.930704 4.748778 8.033998
31.63823 16.856329 11.4995
31.962708 18.490695 11.792341
31.63823 16.856329 11.4995
31.964748 15.366506 11.799892
46.701488 6.33298 16.252952
45.573441 6.800455 17.284183
46.580673 5.52137 16.795811
47.686382 5.747272 14.965142
46.67915 7.026357 15.453513
46.701488 6.33298 16.252952
48.899368 5.480961 13.808395
47.686382 5.747272 14.965142
36.211025 22.949982 10.679969
35.085886 23.359361 10.625245
36.355354 21.715619 11.213688
36.211025 22.949982 10.679969
37.325607 22.552215 10.534398
50.933832 26.693512 13.478207
51.389767 27.00091 12.218567
50.610554 26.405325 14.986884
51.853612 26.037832 14.888417
50.933832 26.693512 13.478207
50.192863 25.910818 16.29627
50.610554 26.405325 14.986884
49.760719 25.566958 17.432344
51.09819 25.405786 17.533166
50.192863 25.910818 16.29627
43.160005 25.76448 20.350165
42.988897 26.651718 20.322488
42.765797 26.383556 21.226743
32.821819 8.345735 28.021899
32.929966 9.217524 27.089594
53.382489 23.184012 9.031201
52.62598 23.528287 8.182769
53.681137 24.246481 8.492109
51.417408 8.306541 1.104658
52.130319 9.051652 1.068986
51.973166 7.760958 1.251659
50.33699 8.390132 1.549136
51.417408 8.306541 1.104658
41.471018 22.570128 9.263445
40.392259 22.023373 9.970935
42.371346 21.953871 9.436295
41.471018 22.570128 9.263445
43.194868 21.257102 9.120763
42.160535 20.604388 9.640025
42.371346 21.953871 9.436295
44.264456 21.858946 8.860754
45.445421 22.406539 8.323734
44.053646 20.509462 9.064484
43.194868 21.257102 9.120763
44.264456 21.858946 8.860754
42.465151 8.187867 20.309326
41.186474 8.609133 21.020727
42.011808 7.241017 20.441034
43.604601 7.759127 19.413235
42.779266 9.127243 19.992928
42.465151 8.187867 20.309326
44.371555 6.404298 18.778337
44.685671 7.343675 18.461939
43.604601 7.759127 19.413235
45.577702 5.216179 18.61072
44.371555 6.404298 18.778337
46.883978 5.045509 17.660483
45.577702 5.216179 18.61072
42.822253 25.964068 22.11106
42.765797 26.383556 21.226743
41.957791 25.107524 21.793185
42.822253 25.964068 22.11106
41.843138 25.575274 22.649826
39.524805 23.306819 22.489802
40.299534 23.844311 21.789767
40.203947 24.181237 23.031986
38.65777 22.653528 23.059343
38.753357 22.316603 21.817124
39.524805 23.306819 22.489802
38.077404 21.80784 23.625719
38.65777 22.653528 23.059343
37.480891 20.844228 24.248276
37.289808 20.6997 23.009222
38.077404 21.80784 23.625719
36.914212 19.8445 24.618316
37.480891 20.844228 24.248276
36.315456 18.731462 25.105163
36.09454 18.62305 24.118626
36.914212 19.8445 24.618316
40.140089 5.776699 11.879635
39.442104 6.164363 12.347875
40.102159 7.401358 11.285968
40.917959 5.473349 11.663604
41.507551 6.699301 10.285196
41.625366 5.158956 11.131072
40.140089 5.776699 11.879635
40.917959 5.473349 11.663604
53.636261 5.35977 5.792975
52.217641 5.464554 7.215876
53.676969 4.781338 6.768618
53.306921 5.949266 4.783305
53.636261 5.35977 5.792975
53.303061 6.748353 4.104852
52.173073 6.842072 5.561779
53.306921 5.949266 4.783305
54.117783 6.482259 2.73462
52.983934 7.375065 3.513094
53.303061 6.748353 4.104852
54.149805 6.003545 2.035572
54.117783 6.482259 2.73462
53.439068 6.608323 1.70414
54.149805 6.003545 2.035572
40.272146 20.630332 10.321435
39.327393 21.352548 10.336814
40.392259 22.023373 9.970935
49.886145 4.964556 12.313694
48.650819 5.924245 12.671003
48.899368 5.480961 13.808395
51.156216 4.910122 10.917731
49.886145 4.964556 12.313694
52.466593 4.649263 9.425339
50.947973 5.14698 9.68391
51.156216 4.910122 10.917731
53.930704 4.748778 8.033998
52.466593 4.649263 9.425339
34.117197 22.37038 11.205624
35.085886 23.359361 10.625245
33.26068 21.258933 11.635347
34.117197 22.37038 11.205624
34.384254 21.001938 11.788982
32.603687 19.905767 11.785834
32.336629 21.27421 11.202476
33.26068 21.258933 11.635347
32.886759 18.475417 12.225212
31.962708 18.490695 11.792341
32.603687 19.905767 11.785834
54.354559 24.886373 8.548559
53.681137 24.246481 8.492109
54.495911 24.775082 9.644514
54.354559 24.886373 8.548559
54.711479 24.670253 11.010387
54.653214 23.797376 10.706413
54.495911 24.775082 9.644514
54.248829 25.490489 11.459739
53.456619 26.071131 11.732036
54.406132 24.512783 12.521638
54.711479 24.670253 11.010387
54.248829 25.490489 11.459739
40.924951 27.847907 17.989576
41.8139 27.938007 19.453259
41.579225 27.38766 16.91476
41.021591 28.149666 16.536936
40.924951 27.847907 17.989576
42.432846 26.559272 18.906656
42.038637 27.178348 19.783234
42.988897 26.651718 20.322488
42.619968 27.088762 16.139997
41.579225 27.38766 16.91476
42.523329 26.787002 17.592638
43.882201 27.058329 15.536482
42.619968 27.088762 16.139997
45.25144 26.94164 15.158893
43.882201 27.058329 15.536482
44.933312 26.371415 16.440286
46.585384 26.772938 14.858825
45.25144 26.94164 15.158893
47.578972 26.163359 16.129072
46.585384 26.772938 14.858825
48.498089 25.775472 17.340143
47.578972 26.163359 16.129072
47.221668 25.86684 17.273767
49.403416 25.27044 18.577039
49.760719 25.566958 17.432344
48.498089 25.775472 17.340143
35.743263 17.82648 25.53022
36.315456 18.731462 25.105163
35.085544 16.909094 26.118023
34.406593 16.131155 26.803805
34.838066 16.592626 25.193275
35.743263 17.82648 25.53022
35.085544 16.909094 26.118023
33.089871 11.808009 26.323297
33.30847 13.369018 26.460449
33.690084 11.197695 25.399536
33.089871 11.808009 26.323297
33.239077 10.17642 26.272979
33.507099 6.560525 27.928224
32.821819 8.345735 28.021899
34.610092 5.084558 27.761939
35.969629 3.938378 27.684908
34.324062 6.172346 26.816161
33.507099 6.560525 27.928224
34.610092 5.084558 27.761939
36.449327 5.634626 25.009816
35.295103 5.743669 25.887381
36.58128 4.587336 25.77231
37.657114 5.385148 24.288069
36.370937 6.541481 24.40314
36.449327 5.634626 25.009816
38.769028 5.459943 23.592146
37.657114 5.385148 24.288069
34.666123 4.672051 13.705589
34.079384 4.81078 13.383498
34.549805 6.468661 13.263421
34.76619 2.946845 14.251468
34.666123 4.672051 13.705589
35.23661 4.604725 14.131391
37.989201 6.926426 12.968935
38.674435 8.201676 12.153353
38.718941 6.513772 12.569792
37.303105 5.537178 13.542486
37.258599 7.225083 13.126047
37.989201 6.926426 12.968935
36.686514 4.261266 14.44087
37.303105 5.537178 13.542486
35.95459 4.357678 14.188434
36.686514 4.261266 14.44087
48.887453 22.846778 7.995097
47.780975 23.494421 7.583737
51.329729 22.918969 8.267562
52.62598 23.528287 8.182769
49.807583 22.26609 8.343903
51.329729 22.918969 8.267562
50.805186 21.812939 8.798203
48.36291 21.740748 8.525737
48.887453 22.846778 7.995097
49.807583 22.26609 8.343903
46.208744 6.370398 5.847047
45.319658 6.612527 6.800261
46.211462 7.712499 4.972501
46.208744 6.370398 5.847047
47.256686 6.101188 5.054812
3 0 184 186
3 186 185 47
3 184 185 186
3 0 187 188
3 2 189 191
3 189 49 190
3 189 190 191
3 3 192 194
3 194 193 50
3 192 193 194
3 3 195 196
3 1 54 52
3 2 197 199
3 199 198 55
3 197 198 199
3 2 200 201
3 202 58 203
3 204 203 56
3 202 203 204
3 5 61 59
3 5 63 61
3 6 66 64
3 206 205 67
3 207 56 208
3 9 73 71
3 9 75 73
3 9 77 75
3 10 80 78
3 10 82 80
3 4 85 83
3 8 88 86
3 11 91 89
3 11 93 91
3 7 96 94
3 209 99 210
3 211 210 97
3 209 210 211
3 213 212 99
3 13 214 216
3 214 102 215
3 214 215 216
3 13 103 102
3 14 106 104
3 218 217 48
3 219 107 220
3 222 221 107
3 17 223 224
3 17 225 226
3 18 111 109
3 228 227 51
3 19 114 112
3 21 115 53
3 21 116 115
3 22 119 117
3 24 122 120
3 26 123 57
3 26 124 123
3 12 125 101
3 27 126 60
3 27 127 126
3 27 128 127
3 28 129 62
3 28 130 129
3 29 133 131
3 31 134 65
3 31 135 134
3 15 136 105
3 32 137 68
3 32 138 137
3 32 139 138
3 24 140 69
3 24 120 140
3 33 229 230
3 33 231 233
3 231 141 232
3 231 232 233
3 33 142 141
3 34 143 70
3 34 144 143
3 234 145 235
3 35 146 72
3 35 147 146
3 35 148 147
3 36 149 74
3 36 150 149
3 36 151 150
3 37 152 76
3 37 153 152
3 16 154 108
3 38 155 79
3 38 156 155
3 38 157 156
3 39 158 81
3 39 159 158
3 236 160 237
3 238 161 239
3 240 239 160
3 238 239 240
3 40 241 243
3 241 162 242
3 241 242 243
3 40 163 162
3 244 164 245
3 247 246 164
3 25 165 121
3 41 166 84
3 41 248 250
3 250 249 166
3 248 249 250
3 252 251 110
3 42 167 87
3 42 168 167
3 20 169 113
3 43 170 90
3 43 171 170
3 43 172 171
3 44 173 92
3 44 174 173
3 30 175 132
3 45 176 95
3 45 177 176
3 23 178 118
3 46 179 98
3 46 180 179
3 46 181 180
3 253 182 254
3 255 254 100
3 253 254 255
3 256 183 257
3 258 257 182
3 256 257 258
3 260 259 183
3 261 13 262
3 47 48 14
3 263 48 264
3 265 264 47
3 263 264 265
3 267 266 48
3 49 268 269
3 49 270 272
3 270 17 271
3 270 271 272
3 50 51 18
3 273 51 274
3 275 274 50
3 273 274 275
3 277 276 51
3 52 53 19
3 54 53 52
3 54 21 53
3 279 278 22
3 55 280 281
3 283 282 55
3 56 57 24
3 58 57 56
3 58 26 57
3 59 60 12
3 61 60 59
3 61 27 60
3 61 62 27
3 63 62 61
3 63 28 62
3 64 65 29
3 66 65 64
3 66 31 65
3 67 68 15
3 284 68 285
3 286 285 67
3 284 285 286
3 287 32 288
3 289 288 68
3 287 288 289
3 291 290 32
3 292 69 293
3 56 294 296
3 294 69 295
3 294 295 296
3 56 24 69
3 297 33 298
3 299 70 300
3 301 300 33
3 299 300 301
3 302 70 303
3 304 34 305
3 306 305 70
3 304 305 306
3 71 307 309
3 307 72 308
3 307 308 309
3 73 72 71
3 73 35 72
3 73 74 35
3 75 74 73
3 75 36 74
3 75 76 36
3 77 76 75
3 77 37 76
3 78 79 16
3 80 79 78
3 80 38 79
3 80 81 38
3 82 81 80
3 82 39 81
3 310 40 311
3 83 84 25
3 85 84 83
3 85 41 84
3 86 312 314
3 312 87 313
3 312 313 314
3 88 87 86
3 88 42 87
3 89 90 20
3 91 90 89
3 91 43 90
3 91 92 43
3 93 92 91
3 93 44 92
3 94 95 30
3 96 95 94
3 96 45 95
3 97 98 23
3 99 98 97
3 99 46 98
3 99 100 46
3 315 100 316
3 317 316 99
3 315 316 317
3 319 318 100
3 320 101 321
3 322 101 323
3 324 12 325
3 326 325 101
3 324 325 326
3 102 327 328
3 102 329 331
3 329 12 330
3 329 330 331
3 102 59 12
3 103 59 102
3 103 5 59
3 104 105 6
3 106 105 104
3 106 15 105
3 48 106 14
3 332 106 333
3 334 333 48
3 332 333 334
3 335 15 336
3 337 336 106
3 335 336 337
3 338 67 339
3 340 339 15
3 338 339 340
3 341 67 342
3 344 343 67
3 345 71 346
3 107 347 349
3 347 71 348
3 347 348 349
3 107 9 71
3 107 108 9
3 350 108 351
3 352 351 107
3 350 351 352
3 353 16 354
3 355 354 108
3 353 354 355
3 356 16 357
3 358 78 359
3 360 359 16
3 358 359 360
3 361 78 362
3 363 10 364
3 365 364 78
3 363 364 365
3 109 110 4
3 111 110 109
3 111 366 368
3 368 367 110
3 366 367 368
3 51 111 18
3 369 111 370
3 371 370 51
3 369 370 371
3 373 372 111
3 112 113 8
3 114 113 112
3 114 20 113
3 53 114 19
3 115 114 53
3 115 20 114
3 115 89 20
3 116 89 115
3 116 11 89
3 117 118 7
3 119 118 117
3 119 23 118
3 374 119 375
3 376 375 22
3 374 375 376
3 377 119 378
3 379 23 380
3 381 380 119
3 379 380 381
3 382 97 383
3 384 383 23
3 382 383 384
3 385 97 386
3 388 387 97
3 120 121 2
3 122 121 120
3 122 25 121
3 57 122 24
3 123 122 57
3 123 25 122
3 123 83 25
3 124 83 123
3 124 4 83
3 101 389 391
3 389 58 390
3 389 390 391
3 125 58 101
3 125 26 58
3 60 125 12
3 126 125 60
3 126 26 125
3 126 124 26
3 127 124 126
3 127 4 124
3 127 109 4
3 128 109 127
3 128 18 109
3 62 128 27
3 129 128 62
3 129 18 128
3 129 50 18
3 130 50 129
3 130 3 50
3 131 132 1
3 133 132 131
3 133 30 132
3 65 133 29
3 134 133 65
3 134 30 133
3 134 94 30
3 135 94 134
3 135 7 94
3 105 66 6
3 136 66 105
3 136 31 66
3 68 136 15
3 137 136 68
3 137 31 136
3 137 135 31
3 138 135 137
3 138 7 135
3 138 117 7
3 139 117 138
3 139 22 117
3 392 139 393
3 394 393 32
3 392 393 394
3 395 139 396
3 397 22 398
3 399 398 139
3 397 398 399
3 401 400 22
3 69 402 403
3 140 404 406
3 406 405 69
3 404 405 406
3 140 407 409
3 407 408 409
3 140 410 412
3 410 55 411
3 410 411 412
3 120 55 140
3 120 2 55
3 413 86 414
3 415 86 416
3 417 8 418
3 419 418 86
3 417 418 419
3 141 420 421
3 141 422 424
3 422 8 423
3 422 423 424
3 141 112 8
3 142 112 141
3 142 19 112
3 70 142 33
3 143 142 70
3 143 19 142
3 143 52 19
3 144 52 143
3 144 1 52
3 145 425 426
3 145 427 429
3 427 428 429
3 72 430 432
3 430 145 431
3 430 431 432
3 146 145 72
3 146 433 435
3 435 434 145
3 433 434 435
3 146 436 437
3 147 438 440
3 440 439 146
3 438 439 440
3 147 441 442
3 147 443 444
3 148 445 447
3 447 446 147
3 445 446 447
3 148 448 450
3 448 34 449
3 448 449 450
3 74 148 35
3 149 148 74
3 149 34 148
3 149 144 34
3 150 144 149
3 150 1 144
3 150 131 1
3 151 131 150
3 151 29 131
3 76 151 36
3 152 151 76
3 152 29 151
3 152 64 29
3 153 64 152
3 153 6 64
3 108 77 9
3 154 77 108
3 154 37 77
3 79 154 16
3 155 154 79
3 155 37 154
3 155 153 37
3 156 153 155
3 156 6 153
3 156 104 6
3 157 104 156
3 157 14 104
3 81 157 38
3 158 157 81
3 158 14 157
3 158 47 14
3 159 47 158
3 159 0 47
3 451 10 452
3 160 453 454
3 160 455 457
3 455 10 456
3 455 456 457
3 160 82 10
3 161 82 160
3 161 39 82
3 458 161 459
3 162 460 462
3 460 161 461
3 460 461 462
3 162 39 161
3 162 159 39
3 163 159 162
3 163 0 159
3 463 40 464
3 164 465 466
3 164 467 469
3 467 40 468
3 467 468 469
3 164 163 40
3 470 163 471
3 472 471 164
3 470 471 472
3 473 0 474
3 475 474 163
3 473 474 475
3 477 476 0
3 121 49 2
3 165 49 121
3 165 17 49
3 84 165 25
3 166 165 84
3 166 17 165
3 166 478 480
3 480 479 17
3 478 479 480
3 483 482 166
3 481 482 483
3 110 85 4
3 484 85 485
3 486 485 110
3 484 485 486
3 487 41 488
3 489 488 85
3 487 488 489
3 490 41 491
3 493 492 41
3 494 13 495
3 87 496 497
3 167 498 500
3 500 499 87
3 498 499 500
3 167 501 503
3 501 13 502
3 501 502 503
3 167 103 13
3 168 103 167
3 168 5 103
3 113 88 8
3 169 88 113
3 169 42 88
3 90 169 20
3 170 169 90
3 170 42 169
3 170 168 42
3 171 168 170
3 171 5 168
3 171 63 5
3 172 63 171
3 172 28 63
3 92 172 43
3 173 172 92
3 173 28 172
3 173 130 28
3 174 130 173
3 174 3 130
3 132 54 1
3 175 54 132
3 175 21 54
3 95 175 30
3 176 175 95
3 176 21 175
3 176 116 21
3 177 116 176
3 177 11 116
3 118 96 7
3 178 96 118
3 178 45 96
3 98 178 23
3 179 178 98
3 179 45 178
3 179 177 45
3 180 177 179
3 180 11 177
3 180 93 11
3 181 93 180
3 181 44 93
3 100 181 46
3 182 181 100
3 182 44 181
3 182 174 44
3 183 174 182
3 183 3 174
3 183 504 506
3 506 505 3
3 504 505 506
3 508 507 183
