ply
format ascii 1.0
element vertex 603
property float x
property float y
property float z
element face 730
property list uchar int vertex_index
end_header
-18.840448 -57.969337 -6.499952
-15.125685 -63.9021 0.706499
-6.559803 -80.136436 -1.729447
-21.996967 -53.999378 2.800575
-26.141449 -65.349472 2.988763
-5.444196 -90.029366 -3.465202
-21.608641 -80.030533 -6.119654
-16.012005 -47.079796 -7.246388
-28.107143 -49.047066 -5.17836
-8.650793 -96.571259 -11.04014
-20.085224 -52.009926 -3.863981
-10.066086 -59.267448 -1.614816
-3.750568 -69.29039 3.548649
-13.023493 -70.989395 -3.702371
-10.217953 -86.21981 -12.741697
-16.305161 -73.945396 -10.446157
-23.142553 -60.469727 -7.809002
-15.963327 -52.388847 -7.443072
-18.205858 -44.67749 -9.45711
-21.424313 -49.809643 -7.22391
-24.46575 -45.598232 -6.563477
-23.721645 -53.818207 -5.403732
-22.861855 -59.353722 -0.0803
-22.242647 -53.098186 -1.062575
-18.366131 -58.374195 -0.953189
-13.448103 -55.937977 -1.552036
-9.705516 -60.76017 1.099427
-3.166572 -80.919395 1.089386
-3.763876 -75.771111 4.979537
-4.70935 -74.985626 1.060899
-7.901212 -70.597458 -0.092959
-8.483955 -74.626389 -4.107711
-8.124084 -91.463219 -12.316227
-14.185354 -88.153984 -10.071793
-24.354193 -73.785095 -4.288605
-18.882221 -77.442421 -7.996717
-21.754623 -69.378693 -8.399527
-18.888704 -65.084572 -11.308554
-24.828718 -61.271618 -8.951258
-28.050404 -56.447063 -6.896549
-25.159481 -59.456135 3.006636
-22.318096 -65.271339 0.274133
-5.997573 -85.583969 -0.082086
-3.16589 -85.048325 -3.961052
-19.860086 -84.876213 -8.39855
-14.770948 -41.782505 -5.970217
-32.39621 -45.174908 -6.927153
-15.852664 -44.610939 -3.78819
-17.247095 -49.934399 -5.582662
-12.40151 -52.91674 -4.03517
-14.188173 -58.736328 -4.372842
-14.826868 -68.907532 1.47991
-7.84909 -70.964287 4.45343
-7.109939 -65.622177 3.917987
-6.73465 -64.809944 0.938453
-11.374059 -65.474739 -1.792465
-15.168948 -64.517853 -4.948683
-5.282879 -94.071625 -9.128253
-4.494155 -89.486046 -10.111514
-9.080882 -85.571495 -7.210886
-16.282757 -82.535141 -10.536107
-13.550962 -79.44416 -11.211981
-11.428938 -77.597252 -6.248965
-13.080116 -71.321617 -8.792501
-17.701214 -66.5261 -7.133218
-21.59808 -60.932606 -5.142735
-26.731592 -55.987267 -5.073353
-17.385735 -55.610218 -7.350358
-19.074944 -51.898582 -8.334477
-20.407995 -54.047585 -7.214697
-22.499619 -51.889313 -6.185512
-21.35985 -56.152489 -5.924058
-19.967337 -62.050316 -0.183097
-20.757727 -58.924511 -0.683517
-16.553196 -61.329784 -0.215395
-13.722033 -60.108543 0.018865
-11.676145 -62.617561 1.07687
-3.980258 -80.17556 -1.116755
-3.549775 -77.984749 0.985895
-5.796716 -77.618202 -0.546135
-7.185938 -74.958817 -1.085872
-8.271963 -77.496056 -2.772476
-12.256001 -91.073868 -8.804257
-15.830167 -88.777184 -8.243711
-25.912708 -70.008835 -4.36334
-22.497244 -71.71489 -5.516994
-24.358303 -67.711197 -6.200551
-23.34812 -65.136688 -8.990996
-25.984943 -63.964832 -6.828746
-27.163748 -60.694069 -7.237996
-26.074106 -62.454079 3.031063
-24.810205 -62.603668 1.126382
-24.744099 -65.511604 1.22487
-5.554345 -87.814178 -1.928866
-3.947529 -85.764656 -1.581689
-3.726109 -88.165291 -4.001054
-16.888388 -44.350636 -7.006083
-14.506411 -40.282841 -7.180694
-16.055668 -42.793266 -8.151519
-19.109856 -42.943195 -9.654087
-26.291876 -47.471375 -5.686788
-26.22254 -43.967083 -7.43398
-28.33823 -45.494312 -6.29845
-30.272879 -43.607571 -7.425233
-30.390268 -46.973724 -5.840241
-21.391512 -52.624695 -2.709862
-20.774107 -50.118111 -1.21603
-20.435223 -49.126106 -2.728199
-19.769314 -48.042229 -4.056695
-18.959927 -46.745262 -5.221745
-18.716621 -51.134197 -4.836906
-10.701582 -56.827961 -1.097547
-12.260342 -54.2537 -2.661781
-11.183344 -55.994347 -2.810133
-12.53433 -55.490578 -4.434018
-11.950815 -58.89978 -2.892904
-19.051512 -70.37085 1.226037
-3.234046 -72.234055 4.760355
-5.463149 -73.025894 5.440748
-4.342349 -69.608139 5.148807
-6.686376 -67.958099 4.634254
-4.754401 -66.965073 3.997068
-6.161608 -64.779144 2.833682
-5.062174 -66.761765 2.231561
-10.509347 -71.11351 -1.964907
-9.613039 -68.453842 -1.002923
-12.278026 -68.237953 -2.246353
-13.543335 -65.012566 -3.18141
-14.236647 -67.696457 -3.690096
-9.135399 -96.469849 -8.323496
-6.607305 -95.534134 -10.501005
-9.142802 -89.019997 -12.696313
-6.223264 -90.44841 -12.804912
-7.478398 -88.249207 -11.839935
-6.688859 -87.800346 -8.722205
-9.410704 -85.427353 -10.585609
-20.30374 -82.577812 -6.931963
-17.726143 -83.990921 -9.247659
-18.665735 -81.48101 -8.336943
-18.001001 -75.689941 -9.828604
-17.222425 -78.619949 -10.967009
-15.161794 -77.525558 -9.614714
-12.981868 -79.467209 -8.010065
-13.277659 -75.910477 -8.517176
-11.051055 -74.8508 -8.678236
-14.568596 -72.678757 -9.857744
-20.887945 -61.953838 -9.927661
-17.678507 -65.431625 -9.320646
-20.488747 -63.562141 -8.072573
-19.718273 -64.300209 -5.774468
-22.828312 -61.59193 -6.361197
-24.295135 -58.592041 -5.214038
-25.136143 -58.788788 -6.187907
-30.387461 -54.217232 -6.402609
-15.315512 -49.393105 -7.333199
-16.872026 -45.780842 -8.631548
-17.808872 -48.992832 -8.770678
-20.003403 -47.565422 -8.66278
-21.166227 -45.375038 -7.89707
-22.45607 -43.630993 -8.04384
-22.823771 -47.581463 -6.483028
-24.281734 -49.660213 -5.588314
-25.800812 -51.386303 -5.032253
-23.523602 -56.460976 1.159375
-22.386936 -53.491577 0.867046
-22.568287 -56.123951 -0.568732
-21.15897 -55.789062 -1.841369
-19.212215 -55.387978 -2.656863
-17.242689 -54.687294 -3.299714
-15.774992 -57.62204 -1.243844
-11.706328 -58.301552 0.095683
-9.310448 -59.694794 -0.086785
-4.100472 -81.55455 2.754107
-4.742234 -78.911812 4.274612
-3.138759 -78.568626 3.193074
-3.185799 -75.262405 3.171298
-3.882489 -72.151344 2.398541
-5.24416 -69.778725 1.390678
-6.127978 -72.674522 0.234864
-8.452625 -72.716248 -1.976304
-10.271723 -72.689705 -4.321806
-7.744507 -94.473358 -12.074953
-9.801495 -92.989059 -10.755268
-10.673028 -89.60202 -10.645136
-12.289001 -87.460175 -11.887054
-23.094507 -77.128372 -5.113119
-20.249186 -78.585182 -7.098904
-21.184658 -75.540451 -5.706052
-20.021688 -73.616707 -7.615505
-19.51189 -71.782692 -10.688456
-17.814617 -69.674843 -11.218966
-20.910786 -67.071465 -11.126052
-22.156818 -62.156548 -10.911452
-23.3624 -59.420746 -8.926632
-25.329628 -58.029671 -7.238943
-25.824213 -58.382122 -8.113561
-23.765972 -56.741169 3.065555
-24.501688 -59.539906 1.072184
-22.760166 -62.405922 0.068949
-18.999233 -64.70723 0.237887
-3.979121 -83.431961 0.85466
-3.331704 -82.891586 -1.235996
-4.494553 -82.36322 -3.199834
-19.146065 -86.947296 -8.619535
-21.703505 -85.128448 -9.652846
-23.101377 -82.927818 -7.640488
-24.009596 -80.776825 -6.223614
-25.354664 -78.359901 -5.347938
-26.457653 -75.156448 -4.899469
-15.937436 -41.490517 -9.462811
-15.190176 -43.134434 -4.805312
-17.905285 -45.564129 -6.161589
-16.147205 -48.450603 -6.232494
-15.314298 -53.260811 -3.64161
-14.05834 -51.39669 -4.18501
-14.049295 -49.968941 -5.547187
-13.617147 -52.239952 -5.673739
-14.822657 -55.318756 -5.790639
-16.326723 -58.789917 -6.187425
-22.314692 -68.089622 0.963818
-19.030674 -67.578781 0.515958
-14.952934 -66.388931 1.260312
-10.755664 -69.834381 2.97434
-10.336507 -67.095963 3.09078
-11.021654 -64.831497 2.374598
-8.358895 -63.440605 2.715891
-7.718507 -62.449593 1.481235
-8.484049 -62.340919 -0.432633
-7.2125 -67.589897 0.269352
-8.730921 -65.559769 -0.656928
-10.474213 -62.512779 -2.039166
-12.936295 -62.16349 -3.096804
-14.677686 -62.114616 -4.774948
-17.146463 -61.437298 -5.724833
-4.931802 -92.51873 -5.844498
-5.957673 -93.081062 -12.251371
-4.225694 -91.794937 -10.146346
-3.887938 -90.386757 -6.604828
-3.62857 -87.59343 -7.209969
-5.091311 -85.204269 -5.925574
-7.770507 -83.311203 -4.042207
-17.511433 -86.792953 -10.121283
-15.74003 -85.985603 -11.587442
-13.831343 -84.31543 -12.253111
-17.803465 -79.965652 -9.661457
-15.456555 -80.76429 -11.977201
-11.628996 -82.229568 -12.294011
-10.989395 -82.250061 -9.394018
-11.411183 -82.209007 -5.744713
-10.11548 -79.642883 -3.443696
-8.95889 -76.758156 -6.046711
-9.65341 -73.589119 -6.956438
-13.111227 -71.92347 -6.397808
-16.026211 -68.466011 -10.159528
-15.882878 -68.981857 -7.83417
-15.888692 -69.601242 -5.124474
-16.811785 -66.227135 -4.95214
-18.3958 -63.004784 -4.972678
-20.338779 -59.606701 -5.21052
-22.859394 -57.468315 -5.201044
-25.341404 -54.971382 -4.947987
-27.618753 -52.510162 -4.965201
-27.458197 -56.114708 -6.012649
-29.1745 -53.329216 -5.399185
-30.178045 -50.145489 -5.502876
-17.191136 -89.006604 -7.793798
-15.186542 -90.359837 -8.059489
-25.95899 -66.918411 -5.697382
-25.135506 -68.860016 -5.281945
-26.736193 -68.06723 -4.778777
-26.77231 -65.045229 -6.01148
-25.171623 -65.838014 -6.514648
-25.95899 -66.918411 -5.697382
-27.354199 -63.42992 -6.475769
-26.77231 -65.045229 -6.01148
-26.107778 -63.901775 3.009913
-26.000312 -62.175373 4.080515
-26.033984 -63.623069 4.059365
-5.49927 -88.921772 -2.697034
-6.855641 -88.290104 -2.110374
-6.800566 -89.397697 -2.878541
-18.076313 -40.706253 -10.507435
-19.586371 -42.116821 -9.849472
-20.804842 -52.786554 2.497461
-20.244087 -53.045904 3.297636
-10.814943 -93.491638 -10.475343
-9.879346 -94.189518 -11.25585
-27.925313 -59.380325 -7.267262
-28.571554 -60.307473 -7.276666
-24.139023 -58.060776 3.886784
-25.029252 -59.373856 3.937847
-24.462727 -58.098652 3.036096
-23.442269 -56.703293 3.916243
-24.139023 -58.060776 3.886784
-7.454082 -85.063427 0.404548
-7.20023 -86.09711 -0.463743
-6.06965 -84.591446 0.861875
-7.454082 -85.063427 0.404548
-4.988347 -84.507965 0.386287
-5.060424 -83.515442 1.330248
-6.06965 -84.591446 0.861875
-22.39937 -84.895988 -10.695793
-21.492542 -86.074581 -9.682923
-24.864708 -81.878285 -7.742342
-24.119295 -82.908104 -8.727811
-25.318818 -80.802788 -7.033905
-23.555487 -81.852322 -6.932051
-24.864708 -81.878285 -7.742342
-26.838966 -77.043633 -6.205002
-26.471519 -78.490116 -6.171923
-27.390461 -75.441906 -5.980767
-25.906159 -76.758174 -5.123703
-26.838966 -77.043633 -6.205002
-14.539197 -40.457887 -5.552497
-14.062244 -41.016136 -5.090986
-15.044154 -39.235323 -6.651194
-14.655442 -39.612884 -7.719186
-24.187926 -43.945898 -7.782428
-23.183087 -42.962278 -8.522609
-23.46091 -44.614612 -7.303658
-25.772509 -42.512591 -8.830087
-27.050596 -43.194971 -8.012772
-32.150119 -43.494301 -7.908575
-31.088453 -42.710633 -8.157615
-31.334544 -44.391239 -7.176193
-33.231976 -44.196043 -7.782834
-32.150119 -43.494301 -7.908575
-21.355918 -52.040504 -0.259363
-21.428062 -52.2372 0.705448
-22.314791 -53.294882 -0.097765
-18.851833 -49.387968 -0.671444
-18.903238 -48.802453 -1.343055
-14.133777 -43.658222 -3.194522
-16.219352 -45.337975 -3.219266
-14.270974 -43.015379 -3.615348
-14.133777 -43.658222 -3.194522
-15.52142 -43.872687 -4.296751
-13.93973 -42.277126 -4.123909
-14.270974 -43.015379 -3.615348
-22.171366 -69.567016 1.535967
-23.487224 -68.202221 1.557132
-5.115186 -76.029671 4.977245
-5.604365 -77.600021 4.624783
-4.253055 -77.341462 4.627074
-8.286178 -72.499363 4.322201
-7.093208 -73.530167 4.81586
-6.656119 -71.995091 4.947089
-9.767558 -71.81876 3.73554
-8.286178 -72.499363 4.322201
-9.302377 -70.399334 3.713885
-11.220845 -71.253807 2.995995
-9.767558 -71.81876 3.73554
-6.286185 -93.605621 -7.266726
-6.470336 -94.562745 -8.16339
-5.107341 -93.295177 -7.486376
-6.110646 -92.829174 -5.624848
-6.286185 -93.605621 -7.266726
-30.509648 -52.367682 -5.898186
-29.78098 -53.773224 -5.900897
-31.116129 -52.811689 -6.399898
-31.011421 -50.775818 -5.950031
-29.676272 -51.737353 -5.45103
-30.509648 -52.367682 -5.898186
-31.338096 -49.174477 -6.02612
-31.011421 -50.775818 -5.950031
-13.399459 -91.508179 -8.339762
-12.042196 -92.534042 -9.499837
-14.043084 -89.925526 -8.523984
-13.399459 -91.508179 -8.339762
-15.186542 -90.359837 -8.059489
-27.943601 -61.794539 -6.680394
-26.574345 -62.329451 -7.033371
-27.354199 -63.42992 -6.475769
-28.571554 -60.307473 -7.276666
-27.943601 -61.794539 -6.680394
-25.486565 -60.872827 3.95006
-26.000312 -62.175373 4.080515
-25.616793 -60.955107 3.018849
-25.029252 -59.373856 3.937847
-25.486565 -60.872827 3.95006
-6.978616 -87.212215 -1.387132
-6.855641 -88.290104 -2.110374
-5.775959 -86.699073 -1.005476
-7.20023 -86.09711 -0.463743
-6.978616 -87.212215 -1.387132
-15.430071 -40.868097 -8.204598
-14.655442 -39.612884 -7.719186
-15.28104 -41.538054 -7.666106
-17.765985 -41.47204 -10.071677
-17.313986 -42.339187 -9.973189
-18.657857 -43.810343 -9.555599
-17.765985 -41.47204 -10.071677
-18.076313 -40.706253 -10.507435
-28.108441 -43.958585 -7.445007
-27.050596 -43.194971 -8.012772
-27.280385 -44.730698 -6.866215
-29.305554 -44.550942 -6.861842
-29.075765 -43.015215 -8.008399
-28.108441 -43.958585 -7.445007
-18.733795 -48.30645 -2.099139
-18.903238 -48.802453 -1.343055
-20.604665 -49.622108 -1.972114
-18.510631 -47.595558 -2.689271
-18.733795 -48.30645 -2.099139
-18.177677 -47.053619 -3.353519
-18.510631 -47.595558 -2.689271
-20.102269 -48.584167 -3.392447
-17.810989 -46.326584 -3.922443
-16.219352 -45.337975 -3.219266
-18.177677 -47.053619 -3.353519
-18.964409 -71.749718 1.730021
-20.539776 -70.70763 1.667077
-17.176035 -71.046975 1.597265
-18.964409 -71.749718 1.730021
-15.063713 -70.315315 1.724201
-16.93919 -69.639191 1.352974
-17.176035 -71.046975 1.597265
-8.396596 -95.761856 -7.761011
-10.371939 -95.388379 -6.98251
-7.132549 -95.293999 -8.849766
-8.396596 -95.761856 -7.761011
-7.871352 -96.001992 -9.41225
-5.945092 -94.802879 -9.814629
-6.470336 -94.562745 -8.16339
-7.132549 -95.293999 -8.849766
-30.619761 -54.937224 -6.91111
-29.218933 -55.332148 -6.649579
-29.451233 -56.052139 -7.158079
-31.463748 -53.509571 -7.100542
-30.619761 -54.937224 -6.91111
-31.116129 -52.811689 -6.399898
-31.463748 -53.509571 -7.100542
-26.203143 -65.02185 4.107139
-26.033984 -63.623069 4.059365
-6.633717 -90.332707 -3.498401
-6.800566 -89.397697 -2.878541
-20.614557 -43.332743 -8.970963
-19.586371 -42.116821 -9.849472
-20.138041 -44.159117 -8.775578
-21.811149 -44.503016 -7.970455
-21.259479 -42.46072 -9.044348
-20.614557 -43.332743 -8.970963
-4.421353 -80.233181 3.51436
-5.689874 -80.014317 3.829594
-5.368993 -81.335686 3.069342
-8.850852 -94.931668 -11.915693
-8.19765 -95.522309 -11.557547
-9.303995 -95.980618 -11.398286
-8.773001 -93.731209 -11.415111
-8.850852 -94.931668 -11.915693
-9.879346 -94.189518 -11.25585
-11.028748 -92.031464 -9.779763
-10.814943 -93.491638 -10.475343
-12.042196 -92.534042 -9.499837
-27.255546 -58.224352 -7.705045
-26.49398 -59.538095 -7.675778
-27.925313 -59.380325 -7.267262
-28.368641 -57.256822 -7.096539
-26.937309 -57.414592 -7.505055
-27.255546 -58.224352 -7.705045
-29.451233 -56.052139 -7.158079
-28.368641 -57.256822 -7.096539
-21.519528 -54.140543 3.609843
-20.244087 -53.045904 3.297636
-22.404031 -55.511438 3.742332
-23.442269 -56.703293 3.916243
-22.88147 -55.370273 2.933065
-21.519528 -54.140543 3.609843
-22.404031 -55.511438 3.742332
-5.1211 -82.576737 2.279972
-5.368993 -81.335686 3.069342
-4.039796 -82.493256 1.804383
-5.1211 -82.576737 2.279972
-5.060424 -83.515442 1.330248
-20.213822 -86.984005 -9.166268
-18.849085 -88.091659 -7.98171
-20.424785 -86.037872 -9.136191
-20.213822 -86.984005 -9.166268
-21.492542 -86.074581 -9.682923
-23.420359 -84.008419 -9.733991
-22.39937 -84.895988 -10.695793
-22.402441 -84.028133 -8.646667
-23.420359 -84.008419 -9.733991
-24.119295 -82.908104 -8.727811
-25.798984 -79.698578 -6.609761
-25.318818 -80.802788 -7.033905
-24.68213 -79.568363 -5.785776
-25.798984 -79.698578 -6.609761
-26.471519 -78.490116 -6.171923
-27.784816 -73.898651 -6.011254
-27.390461 -75.441906 -5.980767
-27.160991 -73.441474 -4.891711
-27.784816 -73.898651 -6.011254
-26.10926 -72.755798 -4.586279
-25.405923 -74.470771 -4.594037
-27.160991 -73.441474 -4.891711
-26.888518 -70.867668 -4.623647
-25.13345 -71.896965 -4.325972
-26.10926 -72.755798 -4.586279
-27.606482 -69.059117 -4.906898
-26.888518 -70.867668 -4.623647
-26.736193 -68.06723 -4.778777
-27.606482 -69.059117 -4.906898
-14.406928 -39.708056 -6.157736
-14.539197 -40.457887 -5.552497
-14.63868 -41.032673 -6.575456
-14.406928 -39.708056 -6.157736
-15.044154 -39.235323 -6.651194
-15.370955 -40.216723 -8.860245
-15.430071 -40.868097 -8.204598
-15.996552 -42.141891 -8.807165
-16.179776 -40.745701 -9.976039
-17.071647 -43.084003 -9.459961
-17.313986 -42.339187 -9.973189
-15.624409 -39.637297 -9.418737
-16.179776 -40.745701 -9.976039
-15.370955 -40.216723 -8.860245
-15.624409 -39.637297 -9.418737
-21.829783 -41.912668 -9.505118
-21.259479 -42.46072 -9.044348
-21.829783 -41.912668 -9.505118
-23.183087 -42.962278 -8.522609
-25.066322 -43.130324 -8.217679
-24.187926 -43.945898 -7.782428
-25.344145 -44.782657 -6.998729
-25.066322 -43.130324 -8.217679
-25.772509 -42.512591 -8.830087
-29.850217 -42.273416 -8.687615
-29.075765 -43.015215 -8.008399
-29.850217 -42.273416 -8.687615
-31.088453 -42.710633 -8.157615
-10.910321 -95.870869 -7.526938
-10.371939 -95.388379 -6.98251
-9.866077 -96.899727 -8.929216
-10.910321 -95.870869 -7.526938
-9.623774 -96.950432 -10.287539
-8.893096 -96.520554 -9.681818
-9.866077 -96.899727 -8.929216
-9.555113 -96.778267 -11.491173
-9.623774 -96.950432 -10.287539
-9.303995 -95.980618 -11.398286
-9.555113 -96.778267 -11.491173
-20.999826 -52.532653 1.530696
-20.804842 -52.786554 2.497461
-22.191952 -53.745477 1.83381
-20.999826 -52.532653 1.530696
-21.428062 -52.2372 0.705448
-20.621648 -50.550466 -0.33609
-21.355918 -52.040504 -0.259363
-21.508377 -51.608148 -1.139302
-20.621648 -50.550466 -0.33609
-18.851833 -49.387968 -0.671444
-14.271857 -41.6921 -4.508534
-13.93973 -42.277126 -4.123909
-14.980562 -42.458469 -5.387764
-14.062244 -41.016136 -5.090986
-14.271857 -41.6921 -4.508534
-25.920996 -66.625462 3.56005
-26.203143 -65.02185 4.107139
-25.982689 -66.29784 4.678427
-25.400603 -66.832145 2.569605
-25.920996 -66.625462 3.56005
-24.701928 -66.913212 1.687658
-25.442774 -65.430538 2.106816
-25.400603 -66.832145 2.569605
-23.529395 -66.800613 1.094344
-24.701928 -66.913212 1.687658
-23.487224 -68.202221 1.557132
-20.683102 -69.230236 1.094928
-22.171366 -69.567016 1.535967
-20.539776 -70.70763 1.667077
-6.382232 -78.786556 4.450577
-5.689874 -80.014317 3.829594
-6.382232 -78.786556 4.450577
-5.604365 -77.600021 4.624783
-5.964823 -74.657062 5.207851
-5.115186 -76.029671 4.977245
-4.613512 -74.398503 5.210142
-5.964823 -74.657062 5.207851
-7.093208 -73.530167 4.81586
-13.028111 -70.77874 2.471417
-11.220845 -71.253807 2.995995
-12.791266 -69.370957 2.227125
-15.063713 -70.315315 1.724201
-13.028111 -70.77874 2.471417
-6.37752 -91.577389 -4.688049
-6.110646 -92.829174 -5.624848
-5.187999 -91.274048 -4.65485
-6.633717 -90.332707 -3.498401
-6.37752 -91.577389 -4.688049
-17.488116 -87.86224 -8.431623
-17.191136 -89.006604 -7.793798
-18.849085 -88.091659 -7.98171
-31.444207 -47.588594 -6.194803
-30.284157 -48.559607 -5.671558
-31.338096 -49.174477 -6.02612
-32.447178 -46.689187 -6.738259
-31.393239 -46.074316 -6.383697
-31.444207 -47.588594 -6.194803
-33.331786 -45.76911 -7.519693
-32.447178 -46.689187 -6.738259
-33.231976 -44.196043 -7.782834
-33.331786 -45.76911 -7.519693
3 0 69 67
3 0 71 69
3 1 74 72
3 1 76 74
3 2 79 77
3 2 81 79
3 265 83 266
3 267 86 268
3 269 268 84
3 267 268 269
3 270 88 271
3 272 271 86
3 270 271 272
3 274 273 88
3 4 275 277
3 275 90 276
3 275 276 277
3 4 92 90
3 5 278 280
3 278 93 279
3 278 279 280
3 5 95 93
3 7 98 96
3 282 281 99
3 8 102 100
3 8 104 102
3 3 283 284
3 10 107 105
3 10 108 107
3 10 110 108
3 11 113 111
3 11 115 113
3 12 119 117
3 12 121 119
3 12 123 121
3 13 126 124
3 13 128 126
3 9 130 129
3 14 133 131
3 14 135 133
3 6 138 136
3 15 141 139
3 15 143 141
3 15 145 143
3 16 148 146
3 16 150 148
3 16 152 150
3 17 156 154
3 19 157 68
3 19 158 157
3 19 160 158
3 21 161 70
3 21 162 161
3 22 165 163
3 24 166 73
3 24 167 166
3 24 169 167
3 26 170 75
3 26 171 170
3 27 174 172
3 29 175 78
3 29 176 175
3 29 178 176
3 31 179 80
3 31 180 179
3 285 182 286
3 33 183 82
3 33 184 183
3 34 187 185
3 36 188 85
3 36 189 188
3 36 191 189
3 38 192 87
3 38 193 192
3 38 195 193
3 288 287 89
3 40 289 290
3 40 291 293
3 291 196 292
3 291 292 293
3 40 197 196
3 41 198 91
3 41 199 198
3 42 294 295
3 42 296 297
3 42 298 300
3 298 200 299
3 298 299 300
3 43 201 94
3 43 202 201
3 301 204 302
3 303 205 304
3 305 206 306
3 307 306 205
3 305 306 307
3 308 207 309
3 310 208 311
3 312 311 207
3 310 311 312
3 45 313 314
3 316 315 97
3 18 209 155
3 20 317 319
3 319 318 159
3 317 318 319
3 321 320 101
3 46 322 324
3 324 323 103
3 322 323 324
3 46 325 326
3 23 327 329
3 329 328 164
3 327 328 329
3 331 330 106
3 47 332 333
3 47 334 335
3 47 336 338
3 336 210 337
3 336 337 338
3 48 211 109
3 48 212 211
3 25 213 168
3 49 214 112
3 49 215 214
3 49 216 215
3 50 217 114
3 50 218 217
3 339 219 340
3 51 220 116
3 51 221 220
3 28 341 343
3 343 342 173
3 341 342 343
3 52 344 346
3 346 345 118
3 344 345 346
3 52 347 348
3 52 349 351
3 349 222 350
3 349 350 351
3 53 223 120
3 53 224 223
3 53 225 224
3 54 226 122
3 54 227 226
3 30 228 177
3 55 229 125
3 55 230 229
3 55 231 230
3 56 232 127
3 56 233 232
3 57 352 353
3 57 354 356
3 354 234 355
3 354 355 356
3 32 235 181
3 58 236 132
3 58 237 236
3 58 238 237
3 59 239 134
3 59 240 239
3 44 241 203
3 60 242 137
3 60 243 242
3 35 244 186
3 61 245 140
3 61 246 245
3 61 247 246
3 62 248 142
3 62 249 248
3 62 250 249
3 63 251 144
3 63 252 251
3 37 253 190
3 64 254 147
3 64 255 254
3 64 256 255
3 65 257 149
3 65 258 257
3 65 259 258
3 66 260 151
3 66 261 260
3 39 262 194
3 357 263 358
3 359 358 153
3 357 358 359
3 360 264 361
3 362 361 263
3 360 361 362
3 364 363 264
3 67 68 17
3 69 68 67
3 69 19 68
3 69 70 19
3 71 70 69
3 71 21 70
3 72 73 22
3 74 73 72
3 74 24 73
3 74 75 24
3 76 75 74
3 76 26 75
3 77 78 27
3 79 78 77
3 79 29 78
3 79 80 29
3 81 80 79
3 81 31 80
3 365 82 366
3 83 367 369
3 367 82 368
3 367 368 369
3 83 33 82
3 84 85 34
3 86 85 84
3 86 36 85
3 86 87 36
3 88 87 86
3 88 38 87
3 88 89 38
3 370 89 371
3 372 371 88
3 370 371 372
3 374 373 89
3 90 375 376
3 90 377 379
3 377 40 378
3 377 378 379
3 90 91 40
3 92 91 90
3 92 41 91
3 93 380 381
3 93 382 384
3 382 42 383
3 382 383 384
3 93 94 42
3 95 94 93
3 95 43 94
3 96 97 45
3 98 97 96
3 98 385 387
3 387 386 97
3 385 386 387
3 99 388 390
3 390 389 18
3 388 389 390
3 392 391 99
3 100 101 20
3 102 101 100
3 102 393 395
3 395 394 101
3 393 394 395
3 102 396 398
3 396 103 397
3 396 397 398
3 104 103 102
3 104 46 103
3 105 106 23
3 107 106 105
3 107 399 401
3 401 400 106
3 399 400 401
3 107 402 403
3 108 404 406
3 406 405 107
3 404 405 406
3 108 407 409
3 407 47 408
3 407 408 409
3 108 109 47
3 110 109 108
3 110 48 109
3 111 112 25
3 113 112 111
3 113 49 112
3 113 114 49
3 115 114 113
3 115 50 114
3 410 116 411
3 412 116 413
3 414 51 415
3 416 415 116
3 414 415 416
3 117 118 28
3 119 118 117
3 119 52 118
3 119 120 52
3 121 120 119
3 121 53 120
3 121 122 53
3 123 122 121
3 123 54 122
3 124 125 30
3 126 125 124
3 126 55 125
3 126 127 55
3 128 127 126
3 128 56 127
3 129 417 418
3 130 419 421
3 421 420 129
3 419 420 421
3 130 422 424
3 422 57 423
3 422 423 424
3 131 132 32
3 133 132 131
3 133 58 132
3 133 134 58
3 135 134 133
3 135 59 134
3 136 137 44
3 138 137 136
3 138 60 137
3 139 140 35
3 141 140 139
3 141 61 140
3 141 142 61
3 143 142 141
3 143 62 142
3 143 144 62
3 145 144 143
3 145 63 144
3 146 147 37
3 148 147 146
3 148 64 147
3 148 149 64
3 150 149 148
3 150 65 149
3 150 151 65
3 152 151 150
3 152 66 151
3 425 153 426
3 427 426 39
3 425 426 427
3 428 153 429
3 431 430 153
3 432 4 433
3 434 5 435
3 154 155 7
3 156 155 154
3 156 18 155
3 68 156 17
3 157 156 68
3 157 18 156
3 157 99 18
3 158 99 157
3 158 436 438
3 438 437 99
3 436 437 438
3 158 439 441
3 439 159 440
3 439 440 441
3 160 159 158
3 160 20 159
3 70 160 19
3 161 160 70
3 161 20 160
3 161 100 20
3 162 100 161
3 162 8 100
3 163 164 3
3 165 164 163
3 165 23 164
3 73 165 22
3 166 165 73
3 166 23 165
3 166 105 23
3 167 105 166
3 167 10 105
3 167 168 10
3 169 168 167
3 169 25 168
3 75 169 24
3 170 169 75
3 170 25 169
3 170 111 25
3 171 111 170
3 171 11 111
3 172 442 444
3 442 173 443
3 442 443 444
3 174 173 172
3 174 28 173
3 78 174 27
3 175 174 78
3 175 28 174
3 175 117 28
3 176 117 175
3 176 12 117
3 176 177 12
3 178 177 176
3 178 30 177
3 80 178 29
3 179 178 80
3 179 30 178
3 179 124 30
3 180 124 179
3 180 13 124
3 445 181 446
3 447 446 9
3 445 446 447
3 182 448 450
3 448 181 449
3 448 449 450
3 182 32 181
3 82 451 453
3 451 182 452
3 451 452 453
3 183 182 82
3 183 32 182
3 183 131 32
3 184 131 183
3 184 14 131
3 185 186 6
3 187 186 185
3 187 35 186
3 85 187 34
3 188 187 85
3 188 35 187
3 188 139 35
3 189 139 188
3 189 15 139
3 189 190 15
3 191 190 189
3 191 37 190
3 87 191 36
3 192 191 87
3 192 37 191
3 192 146 37
3 193 146 192
3 193 16 146
3 193 194 16
3 195 194 193
3 195 39 194
3 89 195 38
3 454 195 455
3 456 455 89
3 454 455 456
3 457 39 458
3 459 458 195
3 457 458 459
3 461 460 39
3 462 3 463
3 196 464 465
3 196 466 468
3 466 3 467
3 466 467 468
3 196 163 3
3 197 163 196
3 197 22 163
3 91 197 40
3 198 197 91
3 198 22 197
3 198 72 22
3 199 72 198
3 199 1 72
3 469 172 470
3 200 471 473
3 471 172 472
3 471 472 473
3 200 27 172
3 94 200 42
3 201 200 94
3 201 27 200
3 201 77 27
3 202 77 201
3 202 2 77
3 474 203 475
3 204 476 478
3 476 203 477
3 476 477 478
3 204 44 203
3 479 204 480
3 205 481 483
3 481 204 482
3 481 482 483
3 205 44 204
3 205 136 44
3 206 136 205
3 206 6 136
3 484 206 485
3 207 486 488
3 486 206 487
3 486 487 488
3 207 6 206
3 207 185 6
3 208 185 207
3 208 34 185
3 489 208 490
3 491 208 492
3 493 34 494
3 495 494 208
3 493 494 495
3 496 84 497
3 498 497 34
3 496 497 498
3 499 84 500
3 502 501 84
3 97 503 505
3 505 504 45
3 503 504 505
3 507 506 97
3 155 98 7
3 209 98 155
3 209 508 510
3 510 509 98
3 508 509 510
3 511 209 512
3 513 512 18
3 511 512 513
3 514 209 515
3 517 516 209
3 159 518 519
3 521 520 159
3 101 522 524
3 524 523 20
3 522 523 524
3 526 525 101
3 103 527 528
3 530 529 103
3 531 129 532
3 533 129 534
3 535 9 536
3 537 536 129
3 535 536 537
3 538 9 539
3 541 540 9
3 164 542 544
3 544 543 3
3 542 543 544
3 546 545 164
3 106 547 549
3 549 548 23
3 547 548 549
3 551 550 106
3 210 552 553
3 210 554 556
3 554 45 555
3 554 555 556
3 109 210 47
3 211 210 109
3 211 45 210
3 211 96 45
3 212 96 211
3 212 7 96
3 168 110 10
3 213 110 168
3 213 48 110
3 112 213 25
3 214 213 112
3 214 48 213
3 214 212 48
3 215 212 214
3 215 7 212
3 215 154 7
3 216 154 215
3 216 17 154
3 114 216 49
3 217 216 114
3 217 17 216
3 217 67 17
3 218 67 217
3 218 0 67
3 557 4 558
3 557 558 559
3 560 4 561
3 562 92 563
3 564 563 4
3 562 563 564
3 219 565 567
3 565 92 566
3 565 566 567
3 219 41 92
3 116 568 570
3 568 219 569
3 568 569 570
3 220 219 116
3 220 41 219
3 220 199 41
3 221 199 220
3 221 1 199
3 173 571 572
3 574 573 173
3 118 575 577
3 577 576 28
3 575 576 577
3 579 578 118
3 222 580 581
3 222 582 584
3 582 51 583
3 582 583 584
3 120 222 52
3 223 222 120
3 223 51 222
3 223 221 51
3 224 221 223
3 224 1 221
3 224 76 1
3 225 76 224
3 225 26 76
3 122 225 53
3 226 225 122
3 226 26 225
3 226 171 26
3 227 171 226
3 227 11 171
3 177 123 12
3 228 123 177
3 228 54 123
3 125 228 30
3 229 228 125
3 229 54 228
3 229 227 54
3 230 227 229
3 230 11 227
3 230 115 11
3 231 115 230
3 231 50 115
3 127 231 55
3 232 231 127
3 232 50 231
3 232 218 50
3 233 218 232
3 233 0 218
3 234 585 586
3 234 587 589
3 587 5 588
3 587 588 589
3 181 130 9
3 235 130 181
3 235 57 130
3 132 235 32
3 236 235 132
3 236 57 235
3 236 234 57
3 237 234 236
3 237 5 234
3 237 95 5
3 238 95 237
3 238 43 95
3 134 238 58
3 239 238 134
3 239 43 238
3 239 202 43
3 240 202 239
3 240 2 202
3 203 590 592
3 590 83 591
3 590 591 592
3 241 83 203
3 241 33 83
3 137 241 44
3 242 241 137
3 242 33 241
3 242 184 33
3 243 184 242
3 243 14 184
3 186 138 6
3 244 138 186
3 244 60 138
3 140 244 35
3 245 244 140
3 245 60 244
3 245 243 60
3 246 243 245
3 246 14 243
3 246 135 14
3 247 135 246
3 247 59 135
3 142 247 61
3 248 247 142
3 248 59 247
3 248 240 59
3 249 240 248
3 249 2 240
3 249 81 2
3 250 81 249
3 250 31 81
3 144 250 62
3 251 250 144
3 251 31 250
3 251 180 31
3 252 180 251
3 252 13 180
3 190 145 15
3 253 145 190
3 253 63 145
3 147 253 37
3 254 253 147
3 254 63 253
3 254 252 63
3 255 252 254
3 255 13 252
3 255 128 13
3 256 128 255
3 256 56 128
3 149 256 64
3 257 256 149
3 257 56 256
3 257 233 56
3 258 233 257
3 258 0 233
3 258 71 0
3 259 71 258
3 259 21 71
3 151 259 65
3 260 259 151
3 260 21 259
3 260 162 21
3 261 162 260
3 261 8 162
3 194 152 16
3 262 152 194
3 262 66 152
3 153 262 39
3 263 262 153
3 263 66 262
3 263 261 66
3 264 261 263
3 264 8 261
3 264 104 8
3 593 104 594
3 595 594 264
3 593 594 595
3 596 46 597
3 598 597 104
3 596 597 598
3 599 46 600
3 602 601 46
