ply
format ascii 1.0
element vertex 241
property float x
property float y
property float z
element face 236
property list uchar int vertex_index
end_header
35.894794 30.60434 -2.081865
41.726238 42.619404 -13.388992
45.137505 28.519724 -13.582048
30.909595 27.24762 -6.152809
43.969063 31.359783 -7.30713
47.399208 32.180901 -12.618656
42.693531 29.466785 -9.029484
40.194458 26.356161 -9.927326
33.583775 29.472601 -4.076476
29.760204 28.476887 1.045561
46.397423 35.892124 -7.863242
37.16983 38.701557 -8.423193
46.716408 38.122246 -13.214312
43.102406 35.724167 -13.225759
39.951096 31.530579 -11.696648
41.585323 25.932058 -14.643669
42.7062 41.721191 -7.9466
40.006344 30.747019 -4.581243
43.230309 30.470318 -8.057745
39.268326 29.995749 -5.553055
38.307976 29.418255 -6.354319
34.759724 30.001404 -2.918898
31.238562 29.395523 -1.549111
32.372009 30.224451 -0.193311
42.000557 45.436504 -11.985285
38.913967 44.095478 -11.502502
36.267509 42.175903 -9.478357
39.574257 40.712852 -10.904621
46.583614 37.45607 -11.084659
48.271034 35.158512 -11.384722
46.231636 30.504068 -13.413408
45.802429 33.719593 -13.978772
44.125038 32.091789 -13.875711
41.61216 33.679256 -11.723433
43.010571 29.944611 -13.478037
41.259636 28.536335 -13.953076
43.54398 26.848099 -13.663162
35.575878 27.492252 -8.056189
38.694862 25.387375 -10.71011
34.239265 26.543085 -9.086349
29.819773 25.783417 -6.979341
28.713812 24.912617 -4.5857
44.237255 43.600445 -12.52248
47.452129 31.964352 -9.20854
48.562828 33.084938 -11.463046
46.66618 31.451405 -10.334788
45.827427 30.330929 -11.362423
45.207878 28.392859 -11.906836
43.745167 26.500982 -12.050325
41.626812 27.91099 -9.618779
36.993279 28.430241 -7.099719
32.311333 28.583612 -5.210798
29.399673 26.746353 -3.83306
30.201227 28.269577 -2.791456
43.809067 37.763405 -6.905855
33.61301 40.057217 -8.153901
34.82317 36.795246 -6.903572
44.566471 39.620567 -10.019023
45.839817 41.06414 -12.258779
44.729702 40.804192 -13.892191
47.416225 34.88084 -13.215765
45.338787 37.322201 -14.095253
42.41637 39.215683 -13.410715
40.413471 37.163513 -10.488367
38.554848 35.064354 -8.972822
36.347198 33.342995 -8.908217
41.845001 25.161476 -12.519228
42.0672 40.949428 -6.76135
41.798775 42.645763 -6.8921
41.159775 41.874001 -5.70685
48.84337 34.163099 -10.451626
48.524143 34.883196 -10.048858
44.372265 43.391414 -11.364215
44.126114 44.718462 -11.417361
29.47852 27.734062 0.350562
30.217699 28.193379 -0.946773
30.499383 28.936205 -0.251775
29.533244 26.831423 1.294542
29.47852 27.734062 0.350562
38.822277 31.152006 -12.206338
37.020328 32.058215 -10.812123
38.149147 32.436787 -10.302433
40.413322 27.2072 -15.062591
40.250479 28.509338 -14.717295
41.42248 27.234197 -14.298372
40.757927 25.816247 -15.36135
40.413322 27.2072 -15.062591
39.406281 25.011429 -12.111324
37.828767 25.229152 -11.251238
29.319946 25.055952 -3.183522
29.249601 25.993455 -2.701141
42.88855 43.302227 -7.919893
41.798775 42.645763 -6.8921
43.606738 42.451787 -9.076275
42.88855 43.302227 -7.919893
40.61026 46.280626 -11.149482
42.089597 46.820273 -10.935685
39.066965 45.610113 -10.908091
40.61026 46.280626 -11.149482
40.457262 44.765991 -11.743893
37.415228 44.773779 -10.845731
39.066965 45.610113 -10.908091
37.590738 43.13569 -10.49043
36.091999 43.813992 -9.833659
37.415228 44.773779 -10.845731
47.680433 36.031975 -9.898827
46.490519 36.674097 -9.473951
47.587338 35.250002 -8.288118
47.427324 36.307291 -11.23469
47.680433 36.031975 -9.898827
48.524143 34.883196 -10.048858
35.600969 25.807007 -10.439357
37.828767 25.229152 -11.251238
36.467064 25.96523 -9.898229
33.475929 26.115943 -9.49248
35.600969 25.807007 -10.439357
31.266183 25.736109 -8.438976
33.475929 26.115943 -9.49248
32.029519 26.163251 -8.032845
29.336235 24.99876 -7.292691
31.266183 25.736109 -8.438976
29.078557 24.389398 -6.146489
29.336235 24.99876 -7.292691
28.525576 23.953999 -4.949668
29.078557 24.389398 -6.146489
29.266793 25.348017 -5.782521
29.130797 23.15948 -3.983648
28.525576 23.953999 -4.949668
43.007765 45.636491 -11.148763
42.089597 46.820273 -10.935685
43.118906 44.518474 -12.253882
43.007765 45.636491 -11.148763
44.126114 44.718462 -11.417361
48.007479 32.524645 -10.335793
48.989267 33.126312 -10.490789
48.433918 32.566019 -9.363535
29.650378 26.755067 -2.180338
29.249601 25.993455 -2.701141
29.80045 27.507965 -3.312258
29.699031 27.630406 -1.567946
30.719895 28.83255 -2.170284
30.217699 28.193379 -0.946773
29.650378 26.755067 -2.180338
29.699031 27.630406 -1.567946
43.964552 37.803371 -5.64534
42.618634 38.970535 -6.240977
45.502651 37.16608 -6.197365
43.964552 37.803371 -5.64534
46.79683 36.23044 -6.676058
45.103245 36.827765 -7.384548
45.502651 37.16608 -6.197365
48.041489 35.235675 -7.2008
46.79683 36.23044 -6.676058
47.587338 35.250002 -8.288118
48.041489 35.235675 -7.2008
47.53295 32.207254 -8.074106
48.433918 32.566019 -9.363535
45.973098 32.148097 -7.635417
47.53295 32.207254 -8.074106
44.231566 31.845812 -6.684712
45.710596 31.662067 -8.257835
45.973098 32.148097 -7.635417
42.429167 31.685144 -5.600798
44.231566 31.845812 -6.684712
40.447807 31.378763 -4.237855
41.987703 31.053401 -5.944186
42.429167 31.685144 -5.600798
38.535086 31.163882 -2.935746
40.447807 31.378763 -4.237855
36.479311 31.092543 -1.686057
37.950569 30.67568 -3.331554
38.535086 31.163882 -2.935746
34.803457 30.831467 -0.558169
36.479311 31.092543 -1.686057
34.922899 42.452156 -10.238495
36.091999 43.813992 -9.833659
33.59565 41.392813 -9.576267
34.922899 42.452156 -10.238495
34.940259 41.11656 -8.816129
32.340893 40.152138 -9.419915
33.59565 41.392813 -9.576267
32.444648 39.027152 -7.760834
32.340893 40.152138 -9.419915
33.049728 37.396166 -7.13567
32.444648 39.027152 -7.760834
34.21809 38.426232 -7.528736
33.696125 35.889967 -6.945083
33.049728 37.396166 -7.13567
43.257633 39.742298 -7.426227
42.0672 40.949428 -6.76135
42.618634 38.970535 -6.240977
44.536873 41.401476 -10.112486
43.606738 42.451787 -9.076275
43.636336 40.670879 -8.982812
45.173546 42.123262 -11.232364
44.536873 41.401476 -10.112486
45.203144 40.342354 -11.138901
45.038536 42.332293 -12.390629
44.372265 43.391414 -11.364215
45.173546 42.123262 -11.232364
48.416931 34.121725 -11.423884
48.84337 34.163099 -10.451626
48.989267 33.126312 -10.490789
34.458139 34.163842 -7.947406
33.696125 35.889967 -6.945083
35.585184 35.06912 -7.905895
35.200241 32.978569 -9.40277
34.458139 34.163842 -7.947406
35.200241 32.978569 -9.40277
37.020328 32.058215 -10.812123
39.476547 29.654885 -13.334552
38.822277 31.152006 -12.206338
40.605366 30.033457 -12.824862
39.476547 29.654885 -13.334552
40.250479 28.509338 -14.717295
40.98135 24.89848 -13.015883
40.269931 25.274425 -11.614669
39.406281 25.011429 -12.111324
40.851511 25.283771 -14.078103
41.715162 25.546767 -13.581449
40.98135 24.89848 -13.015883
40.757927 25.816247 -15.36135
40.851511 25.283771 -14.078103
28.977016 24.139084 -3.559842
29.056742 25.829485 -4.20938
29.319946 25.055952 -3.183522
29.130797 23.15948 -3.983648
28.977016 24.139084 -3.559842
33.042064 30.641523 0.386108
34.133401 30.414395 -1.137588
34.803457 30.831467 -0.558169
31.605517 29.926468 1.180909
33.042064 30.641523 0.386108
30.299614 29.052686 1.800345
31.066107 29.350669 0.426125
31.605517 29.926468 1.180909
29.574951 27.513395 2.16519
30.299614 29.052686 1.800345
30.114361 28.089194 2.919974
29.533244 26.831423 1.294542
29.574951 27.513395 2.16519
3 67 16 68
3 67 68 69
3 0 19 17
3 0 21 19
3 0 23 21
3 1 25 24
3 1 27 25
3 70 29 71
3 2 32 30
3 2 34 32
3 2 36 34
3 3 39 37
3 3 40 39
3 3 41 40
3 72 42 73
3 4 45 43
3 6 46 18
3 6 47 46
3 6 49 47
3 8 50 20
3 8 51 50
3 8 53 51
3 9 74 76
3 76 75 22
3 74 75 76
3 9 77 78
3 11 55 26
3 11 56 55
3 10 57 54
3 12 58 28
3 12 59 58
3 5 60 44
3 13 61 31
3 13 62 61
3 13 63 62
3 14 64 33
3 14 65 64
3 14 79 81
3 81 80 65
3 79 80 81
3 15 82 84
3 84 83 35
3 82 83 84
3 15 85 86
3 7 66 48
3 88 87 38
3 90 89 52
3 16 91 92
3 16 93 94
3 17 18 4
3 19 18 17
3 19 6 18
3 19 20 6
3 21 20 19
3 21 8 20
3 21 22 8
3 23 22 21
3 23 9 22
3 24 95 96
3 25 97 99
3 99 98 24
3 97 98 99
3 25 100 101
3 25 102 104
3 102 26 103
3 102 103 104
3 27 26 25
3 27 11 26
3 105 28 106
3 107 106 10
3 105 106 107
3 29 108 110
3 108 28 109
3 108 109 110
3 29 12 28
3 30 31 5
3 32 31 30
3 32 13 31
3 32 33 13
3 34 33 32
3 34 14 33
3 34 35 14
3 36 35 34
3 36 15 35
3 37 38 7
3 39 38 37
3 39 111 113
3 113 112 38
3 111 112 113
3 39 114 115
3 40 116 118
3 118 117 39
3 116 117 118
3 40 119 120
3 40 121 122
3 41 123 125
3 125 124 40
3 123 124 125
3 41 126 127
3 128 24 129
3 42 130 132
3 130 24 131
3 130 131 132
3 42 1 24
3 43 133 135
3 133 44 134
3 133 134 135
3 45 44 43
3 45 5 44
3 18 45 4
3 46 45 18
3 46 5 45
3 46 30 5
3 47 30 46
3 47 2 30
3 47 48 2
3 49 48 47
3 49 7 48
3 20 49 6
3 50 49 20
3 50 7 49
3 50 37 7
3 51 37 50
3 51 3 37
3 51 52 3
3 53 52 51
3 53 136 138
3 138 137 52
3 136 137 138
3 22 53 8
3 139 53 140
3 141 140 22
3 139 140 141
3 143 142 53
3 144 54 145
3 146 54 147
3 148 10 149
3 150 149 54
3 148 149 150
3 151 10 152
3 154 153 10
3 155 43 156
3 157 43 158
3 159 4 160
3 161 160 43
3 159 160 161
3 162 4 163
3 164 17 165
3 166 165 4
3 164 165 166
3 167 17 168
3 169 0 170
3 171 170 17
3 169 170 171
3 173 172 0
3 26 174 175
3 55 176 178
3 178 177 26
3 176 177 178
3 55 179 180
3 55 181 182
3 56 183 185
3 185 184 55
3 183 184 185
3 56 186 187
3 54 188 190
3 188 16 189
3 188 189 190
3 57 16 54
3 57 191 193
3 193 192 16
3 191 192 193
3 28 57 10
3 58 57 28
3 58 194 196
3 196 195 57
3 194 195 196
3 58 197 199
3 197 42 198
3 197 198 199
3 59 42 58
3 59 1 42
3 44 200 202
3 200 29 201
3 200 201 202
3 60 29 44
3 60 12 29
3 31 60 5
3 61 60 31
3 61 12 60
3 61 59 12
3 62 59 61
3 62 1 59
3 62 27 1
3 63 27 62
3 63 11 27
3 33 63 13
3 64 63 33
3 64 11 63
3 64 56 11
3 65 56 64
3 65 203 205
3 205 204 56
3 203 204 205
3 65 206 207
3 209 208 65
3 35 210 212
3 212 211 14
3 210 211 212
3 214 213 35
3 48 36 2
3 66 36 48
3 66 15 36
3 38 66 7
3 215 66 216
3 217 216 38
3 215 216 217
3 218 15 219
3 220 219 66
3 218 219 220
3 222 221 15
3 52 41 3
3 223 41 224
3 225 224 52
3 223 224 225
3 227 226 41
3 228 23 229
3 230 229 0
3 228 229 230
3 231 23 232
3 233 9 234
3 235 234 23
3 233 234 235
3 236 9 237
3 236 237 238
3 240 239 9
