ply
format ascii 1.0
element vertex 314
property float x
property float y
property float z
element face 293
property list uchar int vertex_index
end_header
7.65668 36.41256 -5.693286
6.473692 37.146656 14.522717
5.387123 8.257059 -5.6161
5.380008 23.763874 -6.292828
6.700186 39.302582 3.966869
6.798564 32.283478 -2.197108
4.957601 30.72089 -7.404999
7.02503 28.073151 -10.016599
10.293276 33.726784 -9.094957
8.585731 31.956333 12.012433
7.586133 32.943588 7.449559
6.758414 38.731586 9.416385
5.745257 4.810871 -8.1728
6.231806 15.690994 -8.124268
5.902244 22.101133 -9.886492
6.340405 33.024422 2.784859
6.902225 38.55426 -1.346166
12.427088 38.407963 11.09714
12.028455 40.601135 6.602915
12.221316 40.245472 1.904413
5.719862 35.247231 -4.278344
6.332603 31.700979 -5.03039
5.848718 34.007225 -6.888294
7.19647 32.440243 -8.183121
9.069702 34.929359 -7.272073
7.126465 34.383995 12.900264
7.948944 35.167107 10.563734
6.700958 37.980522 11.991261
4.705658 9.644366 -4.236187
5.520266 19.871059 -7.489085
5.382374 22.934469 -8.197374
9.360814 30.099884 -11.456432
8.340579 27.217243 -11.730539
8.203327 35.96788 5.61695
6.729546 33.066582 5.194018
8.023274 35.768074 3.116643
7.259277 35.722828 0.611742
6.698293 39.143272 1.429841
11.873661 39.513359 8.777854
12.356146 39.983128 -0.547914
6.654263 18.301752 -10.537812
6.934821 14.543315 -9.376238
3.026179 31.1105 0.151558
4.386005 29.744898 -2.400562
5.683389 28.224087 -4.64989
5.438147 27.14201 -7.042966
4.923423 25.999216 -8.859869
5.474938 29.399311 -8.998427
8.446479 30.951351 -9.471821
5.275439 30.659521 9.797021
8.236929 32.498848 9.754827
8.268632 35.772919 8.064229
6.856214 39.217152 6.714962
6.727016 35.876862 16.772371
5.009892 13.29567 -5.608518
5.777776 12.088522 -6.73973
5.502463 16.395657 -6.985046
6.120763 18.959248 -8.966599
6.697717 21.446293 -11.532403
6.110412 25.103113 -10.346701
3.9754 31.454926 7.689218
2.70633 32.025024 5.304398
2.449233 31.898981 2.645123
6.485467 32.688713 0.332401
6.719289 35.583752 -1.910287
6.9576 37.815086 -3.702369
10.28666 36.248478 14.990892
9.830925 37.83725 12.838562
9.09298 39.232918 10.552458
8.66646 40.531822 8.053672
8.607816 41.244976 5.421846
12.064497 40.688438 4.385893
8.91238 40.594994 2.718574
9.478747 39.785011 0.347076
9.775129 38.864418 -1.983967
10.117928 37.957039 -4.085882
6.369807 10.901191 -7.929716
6.800078 35.765326 13.711491
6.745893 34.012102 14.213332
6.419507 35.393433 15.024559
4.59791 6.117109 -5.286492
4.257178 6.810763 -4.596535
5.04639 8.950712 -4.926144
4.682377 5.61045 -6.069415
4.59791 6.117109 -5.286492
5.462353 7.411355 -6.250584
4.682377 5.61045 -6.069415
4.437324 22.73688 -5.224079
4.758378 24.408797 -5.255286
5.151893 22.229785 -6.111389
4.437324 22.73688 -5.224079
5.381191 23.349172 -7.245101
5.153075 21.815083 -7.063662
5.151893 22.229785 -6.111389
8.852227 30.149786 -12.651946
9.10461 31.83374 -12.427504
6.953601 18.045707 -11.321644
6.7733 19.642048 -11.954328
10.305106 33.534615 -10.229508
9.381708 32.146898 -10.417939
9.369878 32.339067 -9.283389
8.179305 30.514159 12.919191
8.521564 31.674883 13.291098
7.532879 30.897475 11.869779
8.179305 30.514159 12.919191
8.41133 32.227591 10.88363
7.358479 31.168733 10.740976
7.532879 30.897475 11.869779
5.439651 2.124244 -8.823321
5.222595 2.994438 -7.950712
5.992252 3.854922 -8.734686
5.439651 2.124244 -8.823321
7.028635 35.205916 17.799906
6.279722 34.458178 17.376702
4.858505 15.304215 -5.705995
4.509484 13.840844 -4.940755
5.10479 16.854209 -6.394258
5.256177 14.845664 -6.296782
4.858505 15.304215 -5.705995
7.945963 25.796332 -11.804686
8.118917 27.178026 -12.985371
11.898934 36.067594 15.312113
10.470378 35.51914 15.9725
12.748358 37.793829 12.258987
13.539725 38.836996 11.916444
11.129006 38.122607 11.967851
11.450277 37.508472 13.129698
12.748358 37.793829 12.258987
12.142906 40.466955 3.145153
13.460356 41.022302 3.916499
13.538766 40.80082 2.675758
10.976814 39.25186 -2.39048
11.065638 39.423773 -1.265941
12.267323 39.811215 -1.672453
11.148214 38.79817 -3.441437
9.946528 38.410729 -3.034924
10.976814 39.25186 -2.39048
6.807583 11.996764 -9.227343
7.196024 14.10181 -10.059412
7.791931 32.888714 13.735014
6.745893 34.012102 14.213332
7.856098 33.170164 12.456349
8.521564 31.674883 13.291098
7.791931 32.888714 13.735014
4.365571 7.508428 -3.837538
4.227336 10.382458 -3.600801
4.365571 7.508428 -3.837538
4.257178 6.810763 -4.596535
5.64142 5.688261 -7.528934
5.222595 2.994438 -7.950712
5.222022 20.283378 -6.709517
5.113691 18.59191 -6.646278
5.45132 21.402764 -7.843229
5.222022 20.283378 -6.709517
5.153075 21.815083 -7.063662
8.34211 28.708465 -12.788999
8.850696 28.658563 -11.593485
8.852227 30.149786 -12.651946
8.118917 27.178026 -12.985371
8.34211 28.708465 -12.788999
13.37483 39.326498 10.619093
13.539725 38.836996 11.916444
13.098116 39.879196 9.45945
12.150374 38.960661 9.937497
13.37483 39.326498 10.619093
13.097262 40.300785 8.412235
13.098116 39.879196 9.45945
13.17466 40.844673 7.324765
11.951058 40.057247 7.690385
13.097262 40.300785 8.412235
13.427916 40.851055 1.358191
13.538766 40.80082 2.675758
13.495331 40.719883 0.132027
12.288731 40.1143 0.678249
13.427916 40.851055 1.358191
13.200579 40.817198 -1.103725
13.495331 40.719883 0.132027
12.267323 39.811215 -1.672453
13.200579 40.817198 -1.103725
7.093881 16.166488 -10.740856
6.794542 16.422534 -9.957025
6.953601 18.045707 -11.321644
7.196024 14.10181 -10.059412
7.093881 16.166488 -10.740856
1.824533 29.515145 0.021884
1.529216 30.187649 1.39546
2.504446 28.832344 -1.254176
1.824533 29.515145 0.021884
3.706092 30.427699 -1.124502
3.176403 28.088763 -2.406632
2.504446 28.832344 -1.254176
3.825095 27.328358 -3.531296
3.176403 28.088763 -2.406632
5.034697 28.984493 -3.525226
4.910068 26.638903 -4.433817
3.825095 27.328358 -3.531296
4.787447 26.097865 -5.630355
4.910068 26.638903 -4.433817
5.560768 27.683048 -5.846428
5.409078 25.452942 -6.667897
4.758378 24.408797 -5.255286
4.787447 26.097865 -5.630355
9.838875 31.721165 -11.410245
8.903647 30.525617 -10.464126
9.381708 32.146898 -10.417939
9.10461 31.83374 -12.427504
9.838875 31.721165 -11.410245
5.877733 30.249069 10.762073
4.349896 29.551074 10.961721
6.756184 31.579185 9.775924
5.877733 30.249069 10.762073
7.358479 31.168733 10.740976
6.546169 34.758536 16.149386
6.279722 34.458178 17.376702
6.600354 36.511759 15.647544
6.419507 35.393433 15.024559
6.546169 34.758536 16.149386
4.357367 12.015192 -4.254589
4.227336 10.382458 -3.600801
4.857775 11.470018 -4.922353
4.357367 12.015192 -4.254589
4.509484 13.840844 -4.940755
5.511364 18.133358 -7.237065
5.10479 16.854209 -6.394258
5.113691 18.59191 -6.646278
6.795027 21.214319 -12.451624
6.7733 19.642048 -11.954328
6.67599 19.874023 -11.035108
6.83088 24.739268 -11.112767
7.225496 26.160178 -11.03862
7.945963 25.796332 -11.804686
6.726796 23.238278 -10.882663
6.006328 23.602123 -10.116596
6.83088 24.739268 -11.112767
7.124532 22.910857 -11.705618
6.299981 21.773713 -10.709447
6.726796 23.238278 -10.882663
7.07468 22.706802 -12.811651
7.124532 22.910857 -11.705618
6.795027 21.214319 -12.451624
7.07468 22.706802 -12.811651
3.401408 30.082749 10.04161
4.349896 29.551074 10.961721
2.751389 30.480451 8.987709
3.401408 30.082749 10.04161
4.62542 31.057223 8.74312
2.225045 30.862254 7.861309
2.751389 30.480451 8.987709
1.59051 31.147303 6.6689
2.225045 30.862254 7.861309
3.340865 31.739975 6.496808
1.366166 31.070407 5.282979
1.59051 31.147303 6.6689
1.237618 31.007385 3.953342
1.366166 31.070407 5.282979
2.577781 31.962003 3.97476
1.240743 30.581889 2.642243
1.237618 31.007385 3.953342
2.737706 31.50474 1.39834
1.529216 30.187649 1.39546
1.240743 30.581889 2.642243
8.690556 35.333332 16.863239
7.028635 35.205916 17.799906
8.506838 36.06267 15.881632
8.690556 35.333332 16.863239
10.470378 35.51914 15.9725
11.678144 36.714087 14.205863
11.898934 36.067594 15.312113
10.058792 37.042864 13.914727
11.678144 36.714087 14.205863
11.450277 37.508472 13.129698
13.330978 40.984142 6.260915
13.17466 40.844673 7.324765
13.348999 41.027794 5.152404
13.460356 41.022302 3.916499
12.046476 40.644786 5.494404
13.330978 40.984142 6.260915
13.348999 41.027794 5.152404
11.319143 38.516182 -4.76738
11.148214 38.79817 -3.441437
10.655057 37.404503 -5.352547
11.319143 38.516182 -4.76738
9.424432 36.632264 -6.156249
8.887304 37.184799 -4.889584
10.655057 37.404503 -5.352547
10.130944 35.890663 -6.945642
8.363191 35.670959 -6.482679
9.424432 36.632264 -6.156249
10.260305 35.714195 -8.083478
10.130944 35.890663 -6.945642
10.872091 35.112908 -8.99492
9.681489 34.328072 -8.183515
10.260305 35.714195 -8.083478
10.430999 35.205963 -10.085486
10.872091 35.112908 -8.99492
10.305106 33.534615 -10.229508
10.430999 35.205963 -10.085486
5.65768 9.327087 -6.812399
5.462353 7.411355 -6.250584
5.58245 10.17279 -6.177915
5.953696 8.733422 -7.407392
5.65768 9.327087 -6.812399
6.073792 11.494857 -7.334723
6.057532 7.856031 -8.051258
5.64142 5.688261 -7.528934
5.953696 8.733422 -7.407392
6.525076 10.175702 -8.504082
6.652314 12.722253 -8.652977
6.807583 11.996764 -9.227343
6.212801 7.130541 -8.625624
6.057532 7.856031 -8.051258
6.525076 10.175702 -8.504082
5.992252 3.854922 -8.734686
6.212801 7.130541 -8.625624
3 0 22 20
3 0 24 22
3 1 77 79
3 77 25 78
3 77 78 79
3 1 27 25
3 2 80 82
3 82 81 28
3 80 81 82
3 2 83 84
3 2 85 86
3 3 87 88
3 3 89 90
3 3 91 93
3 91 30 92
3 91 92 93
3 95 94 31
3 4 35 33
3 4 37 35
3 97 96 40
3 5 43 42
3 6 44 21
3 6 45 44
3 6 47 45
3 8 48 23
3 8 98 100
3 100 99 48
3 98 99 100
3 9 101 102
3 9 103 104
3 9 105 107
3 105 50 106
3 105 106 107
3 11 51 26
3 11 52 51
3 12 108 109
3 12 110 111
3 112 53 113
3 114 54 115
3 116 56 117
3 118 117 54
3 116 117 118
3 14 57 29
3 14 58 57
3 7 59 46
3 120 119 32
3 10 60 49
3 15 61 34
3 15 62 61
3 15 63 62
3 16 64 36
3 16 65 64
3 121 66 122
3 17 123 124
3 17 125 127
3 125 67 126
3 125 126 127
3 17 68 67
3 18 69 38
3 18 70 69
3 19 128 130
3 128 71 129
3 128 129 130
3 19 72 71
3 19 73 72
3 131 74 132
3 133 132 39
3 131 132 133
3 134 75 135
3 136 135 74
3 134 135 136
3 13 76 55
3 138 137 41
3 20 21 5
3 22 21 20
3 22 6 21
3 22 23 6
3 24 23 22
3 24 8 23
3 25 139 140
3 25 141 143
3 141 9 142
3 141 142 143
3 25 26 9
3 27 26 25
3 27 11 26
3 28 144 145
3 147 146 28
3 148 12 149
3 150 29 151
3 30 152 154
3 152 29 153
3 152 153 154
3 30 14 29
3 31 32 7
3 155 32 156
3 157 156 31
3 155 156 157
3 159 158 32
3 33 34 10
3 35 34 33
3 35 15 34
3 35 36 15
3 37 36 35
3 37 16 36
3 160 17 161
3 162 38 163
3 164 163 17
3 162 163 164
3 165 38 166
3 167 18 168
3 169 168 38
3 167 168 169
3 170 19 171
3 172 39 173
3 174 173 19
3 172 173 174
3 175 39 176
3 178 177 39
3 40 41 13
3 179 41 180
3 181 180 40
3 179 180 181
3 183 182 41
3 42 184 185
3 43 186 188
3 188 187 42
3 186 187 188
3 43 189 190
3 21 43 5
3 44 43 21
3 44 191 193
3 193 192 43
3 191 192 193
3 44 194 195
3 45 196 198
3 198 197 44
3 196 197 198
3 45 199 201
3 199 3 200
3 199 200 201
3 45 46 3
3 47 46 45
3 47 7 46
3 23 47 6
3 48 47 23
3 48 7 47
3 48 31 7
3 202 31 203
3 204 203 48
3 202 203 204
3 206 205 31
3 207 49 208
3 50 209 211
3 209 49 210
3 209 210 211
3 50 10 49
3 26 50 9
3 51 50 26
3 51 10 50
3 51 33 10
3 52 33 51
3 52 4 33
3 53 212 213
3 53 214 216
3 214 1 215
3 214 215 216
3 217 28 218
3 54 219 221
3 219 28 220
3 219 220 221
3 54 2 28
3 54 55 2
3 56 55 54
3 56 13 55
3 29 222 224
3 222 56 223
3 222 223 224
3 57 56 29
3 57 13 56
3 57 40 13
3 58 40 57
3 58 225 227
3 227 226 40
3 225 226 227
3 46 30 3
3 59 30 46
3 59 14 30
3 32 59 7
3 228 59 229
3 230 229 32
3 228 229 230
3 231 14 232
3 233 232 59
3 231 232 233
3 234 58 235
3 236 235 14
3 234 235 236
3 237 58 238
3 240 239 58
3 49 241 242
3 60 243 245
3 245 244 49
3 243 244 245
3 60 246 247
3 34 60 10
3 61 60 34
3 61 248 250
3 250 249 60
3 248 249 250
3 61 251 252
3 62 253 255
3 255 254 61
3 253 254 255
3 62 256 257
3 62 258 260
3 258 42 259
3 258 259 260
3 63 42 62
3 63 5 42
3 36 63 15
3 64 63 36
3 64 5 63
3 64 20 5
3 65 20 64
3 65 0 20
3 261 53 262
3 66 263 265
3 263 53 264
3 263 264 265
3 66 1 53
3 266 66 267
3 67 268 270
3 268 66 269
3 268 269 270
3 67 1 66
3 67 27 1
3 68 27 67
3 68 11 27
3 38 68 17
3 69 68 38
3 69 11 68
3 69 52 11
3 70 52 69
3 70 4 52
3 271 18 272
3 71 273 274
3 71 275 277
3 275 18 276
3 275 276 277
3 71 70 18
3 72 70 71
3 72 4 70
3 72 37 4
3 73 37 72
3 73 16 37
3 39 73 19
3 74 73 39
3 74 16 73
3 74 65 16
3 75 65 74
3 75 0 65
3 278 75 279
3 280 75 281
3 282 0 283
3 284 283 75
3 282 283 284
3 285 24 286
3 287 286 0
3 285 286 287
3 288 24 289
3 290 8 291
3 292 291 24
3 290 291 292
3 293 8 294
3 296 295 8
3 55 297 299
3 299 298 2
3 297 298 299
3 76 300 302
3 302 301 55
3 300 301 302
3 76 303 305
3 303 12 304
3 303 304 305
3 41 76 13
3 306 76 307
3 308 307 41
3 306 307 308
3 309 12 310
3 311 310 76
3 309 310 311
3 313 312 12
