ply
format ascii 1.0
element vertex 188
property float x
property float y
property float z
element face 169
property list uchar int vertex_index
end_header
26.857626 -15.857417 -31.240149
25.087528 -6.34914 -34.370319
22.103561 -9.322348 -30.195551
24.267775 -6.300821 -32.069885
32.039131 -12.248479 -31.749567
22.817862 -17.204058 -25.141388
21.276651 -13.321881 -28.703684
24.892178 -11.037512 -32.972595
31.446091 -6.814356 -33.419029
26.246958 -1.503384 -35.316448
23.083088 -15.274037 -26.287674
21.544506 -15.010015 -26.86842
21.484278 -12.691428 -27.510212
23.060957 -7.95534 -32.813442
22.463623 -9.995839 -31.716419
24.828167 -8.702876 -33.804939
27.963755 -9.020097 -32.969868
27.802719 -6.42867 -33.645714
25.771008 1.134794 -32.623775
25.903687 -1.558151 -29.982395
24.891577 -0.077195 -33.397419
24.434885 -1.967994 -33.548897
26.440899 0.780574 -36.226036
24.724625 -17.283939 -29.98435
22.089268 -10.904707 -28.46026
23.133459 -7.681888 -31.265408
23.75687 -5.963489 -33.452843
29.237976 -14.019464 -31.256582
21.935505 -17.566925 -26.186594
21.973442 -15.858114 -28.296703
23.189121 -14.619936 -30.466064
21.279488 -11.010799 -29.393112
22.450459 -12.181955 -31.079884
25.714123 -13.43878 -32.22448
28.505829 -11.550734 -32.147839
31.740391 -9.562459 -32.539448
24.229235 -4.006332 -33.599056
25.756155 -3.934808 -34.730946
28.976324 -1.123837 -35.602657
28.576145 -3.640196 -34.270439
31.629009 -4.321279 -34.876431
23.381916 -14.473716 -26.931629
25.082951 -16.11088 -26.42935
22.582511 -13.182412 -27.542898
22.283683 -13.982733 -26.898943
23.381916 -14.473716 -26.931629
26.001053 1.903666 -34.623201
26.090733 2.756441 -34.271593
25.561338 1.297672 -35.010023
25.331292 0.5288 -33.010597
26.001053 1.903666 -34.623201
26.335999 1.726557 -36.424332
25.666238 0.351689 -34.811728
25.561338 1.297672 -35.010023
27.693998 -17.118217 -30.46285
26.627498 -17.831478 -29.83495
25.791125 -16.570678 -30.612249
23.700617 -6.991354 -31.667647
24.209981 -8.278534 -31.115932
24.777139 -7.588001 -31.51817
32.375465 -13.597796 -31.35593
30.974888 -14.483289 -31.109437
30.638554 -13.133971 -31.503075
24.089899 -18.397585 -24.417468
24.512729 -17.739756 -25.157921
22.693736 -18.186797 -24.722398
23.965772 -19.380325 -23.998478
24.089899 -18.397585 -24.417468
22.376683 -17.385492 -25.663991
22.252557 -18.368231 -25.245001
22.693736 -18.186797 -24.722398
32.080906 -7.923934 -34.695833
32.228056 -9.297986 -34.256042
31.593241 -8.188408 -32.979239
27.221836 -2.836957 -30.308059
25.53577 -2.167293 -30.650348
30.253653 -1.416885 -35.975802
30.071007 0.005825 -36.682907
30.053563 -2.675064 -35.309692
28.776235 -2.382016 -34.936548
30.253653 -1.416885 -35.975802
31.579995 -3.015606 -35.612688
30.102577 -3.980738 -34.573435
30.053563 -2.675064 -35.309692
25.477426 -6.925878 -31.761474
24.777139 -7.588001 -31.51817
33.10232 -13.171281 -32.472327
32.737774 -11.885771 -33.135222
24.645342 -16.774746 -25.731064
25.082951 -16.11088 -26.42935
22.950475 -16.239047 -25.714531
24.512729 -17.739756 -25.157921
24.645342 -16.774746 -25.731064
26.472253 1.63592 -32.450579
26.090733 2.756441 -34.271593
26.277118 0.313294 -30.679662
26.978363 0.814419 -30.506466
26.472253 1.63592 -32.450579
25.837347 -0.211678 -31.303085
26.343457 -1.033179 -29.358973
26.277118 0.313294 -30.679662
25.029715 -1.426815 -32.357861
25.53577 -2.167293 -30.650348
25.397632 -0.817673 -31.689907
24.663231 -1.022595 -33.473158
24.801369 -2.372214 -32.433599
25.029715 -1.426815 -32.357861
25.686541 -18.647858 -29.378235
24.00888 -17.972076 -28.995441
25.686541 -18.647858 -29.378235
26.627498 -17.831478 -29.83495
23.487347 -11.730605 -28.65356
22.885006 -12.289051 -28.017921
22.754703 -10.380236 -29.102393
23.487347 -11.730605 -28.65356
22.76185 -9.589056 -29.970039
22.096415 -10.113528 -29.327905
22.754703 -10.380236 -29.102393
23.276799 -8.768826 -30.504967
24.209981 -8.278534 -31.115932
22.61851 -8.502118 -30.73048
22.76185 -9.589056 -29.970039
23.276799 -8.768826 -30.504967
29.844997 -15.294842 -30.706535
28.654822 -16.213818 -30.698318
28.047801 -14.93844 -31.248365
31.581908 -15.758666 -30.55939
29.844997 -15.294842 -30.706535
30.974888 -14.483289 -31.109437
32.375465 -13.597796 -31.35593
33.10232 -13.171281 -32.472327
22.230893 -18.799028 -25.999875
22.252557 -18.368231 -25.245001
22.61432 -18.113569 -27.096562
22.230893 -18.799028 -25.999875
22.633288 -17.259163 -28.151617
22.61432 -18.113569 -27.096562
21.954473 -16.712519 -27.241649
23.349033 -16.571027 -29.140526
24.00888 -17.972076 -28.995441
22.633288 -17.259163 -28.151617
21.786773 -11.798068 -27.985236
22.582511 -13.182412 -27.542898
22.885006 -12.289051 -28.017921
32.588404 -10.542761 -33.530163
32.737774 -11.885771 -33.135222
31.889761 -10.905469 -32.144508
32.588404 -10.542761 -33.530163
32.228056 -9.297986 -34.256042
27.651181 -2.236693 -29.606244
26.343457 -1.033179 -29.358973
27.651181 -2.236693 -29.606244
27.221836 -2.836957 -30.308059
24.520237 -5.391392 -32.076425
25.477426 -6.925878 -31.761474
24.603792 -3.224978 -32.815931
24.801369 -2.372214 -32.433599
24.500967 -4.244147 -32.841011
24.603792 -3.224978 -32.815931
24.33206 -2.987163 -33.573977
24.248505 -5.153576 -32.83447
24.520237 -5.391392 -32.076425
24.500967 -4.244147 -32.841011
27.162159 2.264454 -37.223463
26.335999 1.726557 -36.424332
27.626201 1.071951 -36.549345
27.162159 2.264454 -37.223463
28.347461 2.555831 -37.546772
27.52923 -0.070028 -36.094551
26.343929 -0.361405 -35.771242
27.626201 1.071951 -36.549345
28.893913 0.119746 -36.237656
30.071007 0.005825 -36.682907
27.611641 -1.313611 -35.459553
27.52923 -0.070028 -36.094551
28.893913 0.119746 -36.237656
31.991968 -4.082147 -36.422337
31.579995 -3.015606 -35.612688
31.977129 -5.49933 -36.07782
31.991968 -4.082147 -36.422337
32.340088 -5.260198 -37.623726
31.88567 -6.745869 -35.349119
31.53755 -5.567818 -34.14773
31.977129 -5.49933 -36.07782
32.080906 -7.923934 -34.695833
31.88567 -6.745869 -35.349119
27.693998 -17.118217 -30.46285
28.654822 -16.213818 -30.698318
3 41 10 42
3 43 12 44
3 45 44 10
3 43 44 45
3 1 15 13
3 1 17 15
3 46 18 47
3 48 20 49
3 50 49 18
3 48 49 50
3 51 22 52
3 53 52 20
3 51 52 53
3 0 54 56
3 56 55 23
3 54 55 56
3 3 57 59
3 57 25 58
3 57 58 59
3 3 26 25
3 4 60 62
3 62 61 27
3 60 61 62
3 5 63 64
3 5 65 67
3 65 66 67
3 5 68 70
3 68 28 69
3 68 69 70
3 6 29 11
3 6 30 29
3 2 31 24
3 7 32 14
3 7 33 32
3 7 34 33
3 8 35 16
3 8 71 73
3 73 72 35
3 71 72 73
3 75 74 19
3 9 36 21
3 9 37 36
3 76 38 77
3 78 39 79
3 80 79 38
3 78 79 80
3 81 40 82
3 83 82 39
3 81 82 83
3 84 3 85
3 87 86 4
3 10 88 89
3 10 90 92
3 90 5 91
3 90 91 92
3 10 11 5
3 12 11 10
3 12 6 11
3 13 14 2
3 15 14 13
3 15 7 14
3 15 16 7
3 17 16 15
3 17 8 16
3 18 93 94
3 18 95 97
3 95 96 97
3 18 98 100
3 98 19 99
3 98 99 100
3 20 19 18
3 20 101 103
3 103 102 19
3 101 102 103
3 20 104 106
3 104 21 105
3 104 105 106
3 22 21 20
3 22 9 21
3 23 107 108
3 110 109 23
3 111 24 112
3 113 24 114
3 115 2 116
3 117 116 24
3 115 116 117
3 25 118 119
3 25 120 122
3 120 2 121
3 120 121 122
3 25 13 2
3 26 13 25
3 26 1 13
3 27 123 125
3 125 124 0
3 123 124 125
3 128 127 27
3 126 127 128
3 130 129 4
3 28 131 132
3 28 133 134
3 11 28 5
3 29 28 11
3 29 135 137
3 137 136 28
3 135 136 137
3 29 138 140
3 138 23 139
3 138 139 140
3 30 23 29
3 30 0 23
3 24 141 143
3 141 12 142
3 141 142 143
3 31 12 24
3 31 6 12
3 14 31 2
3 32 31 14
3 32 6 31
3 32 30 6
3 33 30 32
3 33 0 30
3 33 27 0
3 34 27 33
3 34 4 27
3 16 34 7
3 35 34 16
3 35 4 34
3 35 144 146
3 146 145 4
3 144 145 146
3 148 147 35
3 19 149 150
3 152 151 19
3 153 3 154
3 21 155 156
3 36 157 159
3 159 158 21
3 157 158 159
3 36 160 162
3 160 3 161
3 160 161 162
3 36 26 3
3 37 26 36
3 37 1 26
3 163 22 164
3 165 22 166
3 165 166 167
3 168 9 169
3 170 169 22
3 168 169 170
3 38 171 172
3 38 173 175
3 173 9 174
3 173 174 175
3 38 37 9
3 39 37 38
3 39 1 37
3 39 17 1
3 40 17 39
3 40 8 17
3 176 40 177
3 178 40 179
3 178 179 180
3 181 8 182
3 183 182 40
3 181 182 183
3 185 184 8
3 187 186 0
