ply
format ascii 1.0
element vertex 737
property float x
property float y
property float z
element face 893
property list uchar int vertex_index
end_header
14.360376 25.501125 -15.843188
27.731903 58.243652 -9.789348
24.090952 -2.002266 -12.836212
15.177922 43.336872 -21.935612
23.454927 20.217979 -19.518486
32.56908 34.984688 -6.986595
17.661961 -1.321264 -11.502674
17.215708 12.224379 -14.885304
19.572563 52.235329 -13.988111
23.624725 38.54121 -13.079791
30.815084 46.480999 -11.57918
12.249221 58.168079 -13.634946
8.874428 54.440666 -21.155708
29.671967 20.967869 -18.46636
25.344246 12.089085 -17.626568
12.859137 34.279846 -24.521381
14.016848 20.432837 -25.072342
19.975519 29.692205 -20.009312
27.338497 28.319067 -13.245999
37.929623 25.609381 -17.274261
20.44327 11.663499 -18.96204
29.694996 -0.398632 -13.549463
13.299037 13.586924 -14.024777
15.42547 19.698627 -14.154549
23.862864 56.476635 -13.053187
25.088512 48.773888 -11.490578
29.790176 53.677135 -11.170533
22.912718 54.237469 -7.368379
20.541666 59.324837 -11.674495
17.152735 58.254444 -15.202298
27.787144 22.245937 -13.663012
25.984961 17.707186 -14.532133
21.275785 -1.822398 -11.373795
12.84066 39.174789 -25.973572
14.475754 31.741962 -26.109119
17.211761 35.865303 -21.1276
27.15592 36.835953 -9.163968
23.745127 33.170959 -10.15982
29.951147 31.231104 -9.71539
33.515884 28.462687 -17.476959
35.747974 31.160101 -13.992848
12.664859 49.06469 -23.010754
11.928828 44.155766 -23.689743
13.113131 39.560966 -20.06992
17.979668 19.038282 -21.304356
16.059265 15.043073 -23.004843
20.363811 14.67765 -22.449982
27.602264 6.267546 -14.023859
14.216162 -1.188094 -12.636918
16.762079 4.973098 -14.932241
20.023495 3.946681 -14.12424
16.464649 47.322098 -16.145754
19.23192 40.695225 -16.118992
20.71188 44.659599 -11.961988
26.222818 42.115417 -10.485709
31.068777 40.247059 -10.685929
10.159478 58.484444 -18.222473
13.536855 53.540447 -17.7516
28.044983 21.078949 -21.50452
24.82066 16.433603 -22.145725
26.232279 17.815495 -19.121624
14.9537 30.171646 -19.816074
14.388384 23.394705 -21.439468
12.929262 27.014629 -25.742752
16.477667 25.203964 -23.767363
19.796423 24.02363 -16.540091
23.13069 35.132286 -17.090092
20.9771 28.995205 -12.766292
24.908955 24.880873 -16.013079
30.43549 25.02866 -20.023531
33.706947 23.771584 -18.500944
32.716331 24.5089 -13.408063
36.962673 25.070929 -11.792366
28.852697 24.214104 -7.606041
15.856949 18.545477 -19.264263
18.948988 12.96979 -16.929913
22.168453 5.045435 -14.190343
22.902641 11.907351 -18.572193
24.751545 5.865155 -13.907331
26.654148 -0.925416 -12.999814
12.538159 23.595282 -15.002403
13.21462 20.564075 -13.749365
14.840311 22.683762 -14.898829
25.955292 58.025887 -11.759245
26.599728 54.75721 -11.913204
29.109156 57.053123 -10.915833
25.740875 56.654991 -8.674817
22.414516 57.10865 -9.504091
24.46101 58.953522 -10.877184
22.605936 59.209675 -12.635221
27.363773 21.943735 -11.210985
22.728031 -2.021228 -12.09313
13.848948 41.363064 -24.895737
14.988652 37.753555 -24.704046
16.220186 39.679688 -21.67654
29.523945 36.11858 -7.204598
27.846079 33.921196 -7.628367
31.063995 33.136131 -8.089093
32.946663 31.463436 -11.600407
34.053284 32.614143 -9.897322
13.911711 46.272839 -22.973278
11.886881 46.77932 -24.577124
12.774256 44.014294 -25.07317
12.145502 41.655754 -25.277473
20.40642 19.033928 -19.090763
18.811855 16.325813 -22.112354
21.481689 17.222576 -21.004915
15.302961 13.082626 -14.063344
14.931539 9.237804 -15.476483
16.887241 8.602242 -15.658743
18.380592 4.533311 -14.686681
18.350143 7.770569 -15.768649
17.755066 49.783089 -14.544576
18.924347 46.049377 -14.171674
20.017467 48.406303 -12.430826
28.060312 47.67741 -10.388716
25.573334 45.569977 -10.03577
28.582714 44.264751 -11.04028
28.818645 40.741047 -12.528873
31.19311 42.864555 -13.212584
7.867018 59.229572 -16.544933
11.479906 59.204884 -16.124166
18.264433 55.248558 -14.439516
14.846756 55.69701 -15.798688
16.392481 52.971153 -15.36252
15.043718 50.615337 -17.021427
29.530407 20.924463 -20.713215
27.79303 19.323391 -21.077961
27.903549 19.639399 -18.942848
15.901975 -1.22738 -11.835188
16.083395 -4.369141 -12.859728
14.202011 32.212181 -21.993578
13.366081 28.527781 -23.620621
12.71346 30.479816 -25.517178
17.170277 30.378464 -22.778576
15.411713 28.455082 -24.926746
18.586294 27.280605 -21.660387
18.699842 24.584217 -19.761993
19.323324 26.979527 -17.846149
21.992575 39.931938 -14.832822
21.205313 37.880615 -16.916262
24.008268 37.245842 -15.374349
25.155487 30.11832 -10.246627
22.128717 31.253942 -11.371171
23.773916 28.353373 -11.773804
22.731174 26.275 -13.313324
25.918415 26.761837 -14.470694
27.700495 25.673092 -18.528708
28.971249 27.590931 -17.375656
36.060905 27.148376 -17.927769
34.287922 25.901785 -19.168982
35.773121 24.879354 -18.037485
33.605255 23.986362 -16.112993
36.085682 24.453627 -15.65806
32.712593 25.688801 -9.898611
13.607648 37.094444 -22.062351
12.923744 37.043541 -19.127655
14.292401 34.825851 -20.079121
14.203699 32.526806 -18.599092
13.193253 21.692469 -24.443689
14.871767 20.908306 -20.435482
13.741765 18.958267 -23.377714
18.111061 13.305623 -21.617197
17.168934 14.713468 -20.321352
19.486637 12.43379 -18.254354
20.366673 8.920223 -15.986104
21.380722 9.11607 -16.250019
24.393354 14.628856 -19.963039
23.277315 14.10343 -20.662642
24.132053 12.001698 -17.979723
28.647167 3.258646 -13.121432
26.180813 6.099912 -13.829529
27.328938 2.792183 -12.753495
25.759439 2.351509 -12.566819
28.317936 -0.859183 -13.217453
30.257452 -3.086409 -15.099704
11.950182 17.775837 -13.979357
14.05863 17.136663 -13.249476
16.155603 16.282993 -14.05258
21.545666 54.340202 -13.581415
22.164339 50.541557 -12.357178
24.577967 52.272316 -12.682421
27.309406 51.193676 -11.36177
30.310486 50.160347 -10.769286
19.401119 55.186108 -7.675267
17.723339 56.179832 -10.19966
16.209324 58.242516 -12.679842
15.093771 59.757252 -14.876416
18.580439 59.910686 -13.655864
20.259649 57.863991 -13.779724
28.636179 21.837444 -15.955847
27.046988 20.03651 -16.368795
26.50922 20.127487 -14.065106
19.523121 -1.56214 -11.22272
19.938023 -4.382178 -11.110477
12.407381 36.843338 -25.916943
12.823982 32.908783 -26.470531
13.537535 35.513847 -26.472818
16.027582 33.904873 -23.980301
19.065142 32.526665 -20.717457
25.579254 37.544689 -11.703232
24.352833 35.876286 -12.24189
25.324232 35.05101 -9.236399
26.505184 31.947363 -8.852335
28.880423 29.610361 -11.673554
30.630371 28.864496 -16.016102
32.213951 29.825577 -13.898143
34.932716 30.042347 -15.767929
37.48753 28.454519 -16.621338
11.167613 51.852741 -22.225941
11.141683 49.043522 -22.778095
11.379232 46.574821 -21.581665
11.543673 44.019829 -20.084156
12.719632 41.849865 -21.687689
12.500177 39.3955 -24.050619
16.028519 19.525318 -24.133041
14.792099 17.341284 -24.124226
16.653461 16.489597 -23.491158
18.00131 14.411588 -22.871117
19.934301 12.640679 -21.91942
26.344604 9.018427 -15.925514
29.883667 3.511344 -13.313225
30.933569 0.033752 -14.015402
31.586166 -2.461273 -15.732671
32.808796 -1.904888 -16.671204
12.684504 1.967979 -13.019457
14.172671 1.927169 -12.965866
15.664569 1.859724 -12.949656
13.273438 9.828253 -15.194555
15.203476 5.410964 -14.732607
17.168362 1.702146 -12.870201
18.842749 1.364258 -12.61409
20.473038 0.974645 -12.4679
22.014263 0.642145 -12.393327
15.742071 45.178688 -18.569952
16.497517 41.616478 -18.304098
17.789978 43.921085 -16.160442
20.114553 42.802174 -14.347282
22.040367 41.355465 -12.328013
22.6684 46.804482 -11.122195
23.306999 43.257668 -10.482965
24.438503 40.165485 -11.294009
26.99107 39.097023 -11.859541
29.281738 38.482689 -10.033331
31.276285 37.997086 -7.367768
7.18595 58.111137 -18.741777
9.153943 56.737804 -19.944315
13.724141 58.549999 -16.630819
11.853533 56.341164 -18.248011
11.356297 54.339081 -20.248041
12.996226 51.476246 -20.140289
14.351575 48.143627 -19.475031
25.864105 21.07765 -21.209316
24.257849 18.50481 -21.954651
26.420944 18.847401 -22.199532
25.997311 17.042528 -21.258015
24.861715 15.256216 -18.630424
25.798086 17.999676 -16.620165
25.38715 15.400452 -16.702692
28.888088 56.112469 -8.205218
26.181332 53.474812 -7.363257
14.948753 27.981686 -17.694433
15.495433 24.894104 -17.754559
14.890913 26.785076 -20.605734
13.031392 24.90144 -24.362507
13.372676 23.793262 -25.558723
13.398807 29.411459 -26.392578
14.017824 26.095947 -25.92392
14.814095 22.832407 -25.163759
17.487524 22.27206 -22.247318
18.998068 21.652237 -18.65885
21.395182 21.559875 -17.028843
17.86018 37.965832 -18.049145
20.241129 35.138268 -18.638912
21.155737 32.481602 -18.13645
22.862423 34.259193 -13.340326
20.848753 32.296234 -14.370418
19.723251 29.726995 -15.91527
20.266171 26.528683 -14.616379
22.015528 23.951269 -15.063787
24.342054 22.63949 -17.756819
26.800751 23.517668 -19.940649
29.308594 23.003473 -20.859308
31.09959 22.664005 -20.402836
31.721363 26.923618 -18.933327
32.548866 24.299601 -20.050091
31.793163 22.314743 -18.585936
31.020782 23.148561 -16.135355
30.109142 23.75938 -13.649844
29.108143 23.735502 -11.08301
33.254391 52.854034 -11.187425
33.395729 49.503021 -11.112136
33.698982 46.131275 -12.104744
33.578289 42.728409 -10.998633
37.693459 30.773434 -12.716028
39.241322 28.482342 -15.481514
39.930531 25.700436 -16.079031
40.117699 24.635483 -13.512537
38.252968 24.510071 -14.611484
35.042259 24.878408 -12.642954
30.933359 24.780039 -10.463427
13.506701 29.998005 -17.451946
12.705374 27.214344 -16.42873
15.820025 22.204571 -16.916971
16.414349 19.487455 -16.231968
17.201864 16.546572 -15.762212
14.968534 16.473719 -22.015261
17.355808 16.073792 -18.154764
18.249651 12.735971 -15.62009
19.343433 8.486072 -15.829477
21.06847 4.506964 -14.155449
23.07555 1.417501 -12.558428
22.686098 15.679468 -21.906761
21.79705 13.223478 -21.361835
21.682747 11.479147 -18.994846
25.041065 9.175674 -15.850687
23.782104 9.167084 -16.058628
22.469584 9.031235 -16.13261
23.488483 5.500373 -14.060667
24.380253 1.97405 -12.624692
25.134377 -1.263581 -13.024897
27.526913 20.325546 -10.600024
27.516931 21.330725 -10.097563
24.698758 -3.194656 -12.827541
24.017298 -3.204137 -12.456001
23.409492 -2.011747 -12.464671
25.400447 -3.212553 -13.451205
24.698758 -3.194656 -12.827541
11.2989 59.424048 -12.116252
12.914316 57.826349 -11.865035
10.535436 59.00185 -13.729781
11.2989 59.424048 -12.116252
11.864563 58.686481 -14.879556
10.150779 59.520252 -14.97439
10.535436 59.00185 -13.729781
17.761307 -2.887846 -11.722124
16.881314 -2.840904 -11.888381
16.781968 -1.274322 -11.668931
7.604205 53.755483 -21.201794
7.82492 55.197134 -20.634471
11.565521 19.442574 -14.712371
11.209229 18.010842 -15.129456
21.156919 54.711788 -7.521823
19.958945 54.648546 -6.34385
21.714745 54.174227 -6.190406
21.63714 -2.988729 -11.039679
20.760808 -2.858601 -10.964141
20.399453 -1.692269 -11.298258
31.102598 1.985459 -13.990794
30.415976 3.565896 -13.717904
31.634906 2.040011 -14.395473
31.627549 0.246664 -14.341883
30.408618 1.772548 -13.664313
31.102598 1.985459 -13.990794
32.565162 -0.722656 -15.669783
31.871182 -0.935568 -15.343303
31.627549 0.246664 -14.341883
11.774547 3.97831 -13.841352
12.009709 1.778012 -13.003248
13.874957 3.841133 -13.860038
13.195809 3.980751 -13.856872
14.620906 3.807411 -13.851933
14.91862 1.893447 -12.957761
13.874957 3.841133 -13.860038
13.286238 11.707588 -14.609666
12.417791 12.066678 -15.033338
12.430591 13.946013 -14.448449
26.493628 13.954887 -16.432842
25.867077 15.275308 -15.892621
25.9129 13.852154 -16.86152
26.493628 13.954887 -16.432842
30.352955 55.909317 -7.906033
29.0999 54.747599 -7.538225
27.746522 53.42877 -7.117244
26.330445 52.23097 -6.441986
29.0999 54.747599 -7.538225
27.53471 54.79364 -7.784237
27.746522 53.42877 -7.117244
14.282957 -2.759079 -13.196619
13.546019 -2.854253 -13.472662
13.479224 -1.283268 -12.912961
16.06191 -5.817996 -13.086666
17.101696 -5.778227 -12.621152
20.045279 -5.804655 -11.291548
21.128847 -5.552557 -10.893441
34.523234 52.545434 -10.248403
34.452091 54.058453 -10.429491
34.593902 50.869928 -10.210759
33.32506 51.178528 -11.14978
34.523234 52.545434 -10.248403
34.807735 45.791678 -11.146853
34.810961 47.369124 -10.739634
34.747389 44.090244 -10.593797
33.638635 44.429842 -11.551689
34.807735 45.791678 -11.146853
38.822277 31.152006 -12.206338
37.020328 32.058215 -10.812123
40.413322 27.2072 -15.062591
40.250479 28.509338 -14.717295
40.757927 25.816247 -15.36135
39.585926 27.091389 -15.780273
40.413322 27.2072 -15.062591
38.540186 24.853206 -12.652451
39.406281 25.011429 -12.111324
37.828767 25.229152 -11.251238
28.459796 23.336271 -7.893192
29.500127 23.619239 -9.321886
29.893028 24.497071 -9.034734
28.599785 22.618377 -6.830756
28.459796 23.336271 -7.893192
11.935917 39.14002 -19.829095
12.14657 40.486759 -19.823769
11.585993 36.5091 -19.560741
12.649231 35.762604 -18.842323
11.87041 27.83259 -17.282288
11.863661 26.127247 -16.699981
27.006619 -2.303374 -13.863508
26.246733 -2.472456 -13.876049
25.894262 -1.094499 -13.012355
32.71888 -3.895944 -18.627921
31.932064 -3.402471 -16.965279
32.372982 -2.954745 -17.395314
12.87639 22.079678 -14.375884
12.19774 20.836692 -14.597375
11.859509 22.352296 -15.223893
27.034712 20.782897 -11.542339
27.246398 20.933998 -12.768352
27.575458 22.094836 -12.436999
27.034712 20.782897 -11.542339
27.526913 20.325546 -10.600024
23.183042 -3.08741 -11.770879
22.456919 -2.987995 -11.411212
22.001908 -1.921813 -11.733462
23.183042 -3.08741 -11.770879
24.017298 -3.204137 -12.456001
8.344335 59.532596 -15.184774
7.204503 59.964956 -15.054194
9.673462 59.217228 -16.33455
8.344335 59.532596 -15.184774
10.150779 59.520252 -14.97439
26.165982 16.428676 -14.807341
26.886724 16.262766 -14.185787
16.972024 -4.411784 -12.400651
15.992685 -2.798261 -12.347458
16.881314 -2.840904 -11.888381
17.101696 -5.778227 -12.621152
16.972024 -4.411784 -12.400651
35.600969 25.807007 -10.439357
37.828767 25.229152 -11.251238
33.475929 26.115943 -9.49248
34.837633 25.379865 -10.845489
35.600969 25.807007 -10.439357
31.266183 25.736109 -8.438976
33.475929 26.115943 -9.49248
29.336235 24.99876 -7.292691
30.782645 24.951453 -8.752326
31.266183 25.736109 -8.438976
29.078557 24.389398 -6.146489
28.595019 23.604742 -6.459839
29.336235 24.99876 -7.292691
13.333559 34.653759 -19.318055
12.649231 35.762604 -18.842323
13.608072 35.934696 -19.603388
14.24805 33.676328 -19.339106
13.289209 33.504237 -18.578041
13.333559 34.653759 -19.318055
28.514174 -2.022576 -14.136491
27.68228 -2.055693 -14.027672
27.486042 -0.8923 -13.108633
29.483933 -3.136189 -15.077616
28.514174 -2.022576 -14.136491
29.287694 -1.972796 -14.158579
30.655192 -4.032912 -16.542439
29.881673 -4.082692 -16.520352
29.483933 -3.136189 -15.077616
11.756163 16.04047 -14.425739
11.209229 18.010842 -15.129456
12.62461 15.68138 -14.002067
12.430591 13.946013 -14.448449
11.756163 16.04047 -14.425739
12.582401 19.169956 -13.864361
11.565521 19.442574 -14.712371
12.19774 20.836692 -14.597375
18.909372 56.298996 -6.264641
19.958945 54.648546 -6.34385
17.653146 56.286493 -7.474178
18.909372 56.298996 -6.264641
16.814256 56.783355 -8.736375
17.653146 56.286493 -7.474178
18.562229 55.68297 -8.937463
15.651376 56.832225 -10.147391
16.814256 56.783355 -8.736375
14.894368 57.863568 -11.387483
15.651376 56.832225 -10.147391
16.966331 57.211174 -11.439751
14.229273 58.205298 -13.157394
12.914316 57.826349 -11.865035
14.894368 57.863568 -11.387483
26.607436 19.874773 -12.969399
27.148182 21.186712 -13.864059
27.246398 20.933998 -12.768352
26.697776 18.683639 -13.393911
26.607436 19.874773 -12.969399
26.435646 17.473489 -13.627425
26.24709 18.917336 -14.29862
26.697776 18.683639 -13.393911
26.886724 16.262766 -14.185787
26.435646 17.473489 -13.627425
20.968259 -4.268619 -10.908019
19.730572 -2.972159 -11.166598
20.760808 -2.858601 -10.964141
21.128847 -5.552557 -10.893441
20.968259 -4.268619 -10.908019
21.63714 -2.988729 -11.039679
22.456919 -2.987995 -11.411212
10.0712 51.669251 -21.689442
8.924608 52.963213 -21.154325
10.02102 53.146704 -21.690824
10.058235 50.264641 -21.965519
10.0712 51.669251 -21.689442
11.154648 50.448132 -22.502018
10.106849 48.684325 -21.707714
10.058235 50.264641 -21.965519
10.225624 47.449974 -21.109499
10.106849 48.684325 -21.707714
11.260458 47.809172 -22.17988
10.16639 46.049413 -20.977469
10.225624 47.449974 -21.109499
10.24861 44.771918 -20.228714
10.16639 46.049413 -20.977469
11.461453 45.297325 -20.832911
10.15288 43.41296 -20.419255
10.24861 44.771918 -20.228714
11.36184 42.71619 -19.830887
10.15288 43.41296 -20.419255
11.94982 41.631208 -20.632653
11.36184 42.71619 -19.830887
12.131653 42.934847 -20.885922
12.916381 40.705416 -20.878805
12.14657 40.486759 -19.823769
11.94982 41.631208 -20.632653
26.950525 9.038128 -16.062779
25.844425 10.553756 -16.776041
26.450346 10.573457 -16.913306
27.563794 7.668836 -15.176446
26.950525 9.038128 -16.062779
28.192624 6.293395 -14.225618
26.973434 7.642987 -14.974687
27.563794 7.668836 -15.176446
29.333326 4.915294 -13.870302
30.415976 3.565896 -13.717904
28.742966 4.889445 -13.668542
28.192624 6.293395 -14.225618
29.333326 4.915294 -13.870302
32.984297 -2.676553 -17.86458
32.372982 -2.954745 -17.395314
32.197481 -2.18308 -16.201937
33.434179 -1.590187 -17.298593
32.565162 -0.722656 -15.669783
33.37652 -2.206621 -18.534178
33.434179 -1.590187 -17.298593
33.552021 -2.978286 -19.727554
32.984297 -2.676553 -17.86458
33.37652 -2.206621 -18.534178
12.713395 0.294768 -13.10423
12.009709 1.778012 -13.003248
13.450333 0.389942 -12.828187
13.479224 -1.283268 -12.912961
12.713395 0.294768 -13.10423
12.451725 4.001156 -13.883667
11.774547 3.97831 -13.841352
13.428587 1.947574 -12.992662
12.451725 4.001156 -13.883667
13.195809 3.980751 -13.856872
12.516929 10.075208 -15.287941
12.417791 12.066678 -15.033338
13.425341 7.791675 -14.974382
12.516929 10.075208 -15.287941
14.390359 5.58303 -14.743408
13.425341 7.791675 -14.974382
14.238457 7.619609 -14.963581
15.434023 3.635344 -13.841131
14.620906 3.807411 -13.851933
14.390359 5.58303 -14.743408
6.969027 59.055273 -16.133771
6.306513 59.790657 -14.643031
7.204503 59.964956 -15.054194
6.628493 58.496055 -17.232193
6.969027 59.055273 -16.133771
7.526484 58.670355 -17.643355
6.708085 57.385 -18.233543
6.628493 58.496055 -17.232193
6.980681 57.03237 -19.427505
6.708085 57.385 -18.233543
7.964677 56.345703 -20.028774
6.980681 57.03237 -19.427505
8.169947 57.42447 -19.343046
9.014185 55.589235 -20.550012
7.82492 55.197134 -20.634471
7.964677 56.345703 -20.028774
26.072545 16.574921 -15.851357
25.891523 17.853431 -15.576149
26.165982 16.428676 -14.807341
25.592618 16.700064 -16.661428
26.072545 16.574921 -15.851357
25.867077 15.275308 -15.892621
25.650182 13.780036 -17.825386
25.124432 15.328334 -17.666558
25.9129 13.852154 -16.86152
25.891448 12.196471 -17.323458
25.102981 13.67265 -18.128496
25.650182 13.780036 -17.825386
26.450346 10.573457 -16.913306
25.891448 12.196471 -17.323458
30.087604 56.625574 -8.700894
29.509511 57.691166 -9.492959
28.309995 57.178061 -8.997283
30.087604 56.625574 -8.700894
30.352955 55.909317 -7.906033
23.052329 53.102404 -6.52437
21.714745 54.174227 -6.190406
24.686636 52.721075 -6.521809
24.835749 51.477234 -5.600538
26.330445 52.23097 -6.441986
24.547025 53.85614 -7.365818
23.052329 53.102404 -6.52437
24.686636 52.721075 -6.521809
15.216573 -4.349602 -13.308024
14.282957 -2.759079 -13.196619
15.149779 -2.778618 -12.748323
15.216573 -4.349602 -13.308024
16.06191 -5.817996 -13.086666
18.899338 -4.418302 -11.526025
17.761307 -2.887846 -11.722124
18.799992 -2.851721 -11.306576
18.899338 -4.418302 -11.526025
20.045279 -5.804655 -11.291548
28.389117 22.226609 -10.033575
27.516931 21.330725 -10.097563
28.235958 22.839619 -11.146998
30.198138 57.095901 -10.056202
28.42053 57.648387 -10.35259
29.509511 57.691166 -9.492959
30.905984 56.433166 -10.806119
30.198138 57.095901 -10.056202
31.246494 54.745172 -10.933469
29.449666 55.365129 -11.043183
30.905984 56.433166 -10.806119
32.978601 54.333622 -10.941915
34.452091 54.058453 -10.429491
31.522284 53.265585 -11.178979
31.246494 54.745172 -10.933469
32.978601 54.333622 -10.941915
34.659334 49.054997 -10.24333
34.593902 50.869928 -10.210759
33.547356 47.817148 -11.60844
34.659334 49.054997 -10.24333
34.810961 47.369124 -10.739634
34.922899 42.452156 -10.238495
34.747389 44.090244 -10.593797
36.091999 43.813992 -9.833659
33.59565 41.392813 -9.576267
34.922899 42.452156 -10.238495
32.340893 40.152138 -9.419915
32.323533 41.487734 -10.842281
33.59565 41.392813 -9.576267
32.444648 39.027152 -7.760834
31.172531 39.122073 -9.026848
32.340893 40.152138 -9.419915
33.049728 37.396166 -7.13567
32.444648 39.027152 -7.760834
33.696125 35.889967 -6.945083
31.922683 36.490887 -7.177181
33.049728 37.396166 -7.13567
34.458139 34.163842 -7.947406
33.696125 35.889967 -6.945083
35.200241 32.978569 -9.40277
33.311182 33.799415 -8.441959
34.458139 34.163842 -7.947406
35.873371 31.693789 -11.306675
35.200241 32.978569 -9.40277
37.020328 32.058215 -10.812123
39.476547 29.654885 -13.334552
38.822277 31.152006 -12.206338
38.46739 29.627888 -14.098771
39.476547 29.654885 -13.334552
40.250479 28.509338 -14.717295
40.98135 24.89848 -13.015883
39.406281 25.011429 -12.111324
40.851511 25.283771 -14.078103
40.98135 24.89848 -13.015883
40.024115 25.16796 -14.795784
40.757927 25.816247 -15.36135
40.851511 25.283771 -14.078103
28.587519 23.09697 -9.631677
30.020751 24.25777 -10.773218
29.500127 23.619239 -9.321886
28.389117 22.226609 -10.033575
28.587519 23.09697 -9.631677
28.599785 22.618377 -6.830756
28.595019 23.604742 -6.459839
7.604205 53.755483 -21.201794
8.924608 52.963213 -21.154325
11.841223 37.881307 -19.357962
11.935917 39.14002 -19.829095
13.018437 38.302253 -19.598788
11.841223 37.881307 -19.357962
11.585993 36.5091 -19.560741
12.936325 32.092474 -18.468369
13.289209 33.504237 -18.578041
12.587826 30.828074 -17.894796
12.936325 32.092474 -18.468369
13.8552 31.262405 -18.025519
12.271073 29.224421 -17.793895
12.587826 30.828074 -17.894796
13.106037 28.606175 -16.940338
11.87041 27.83259 -17.282288
12.271073 29.224421 -17.793895
11.780054 24.317716 -15.986818
11.859509 22.352296 -15.223893
12.621766 25.404813 -15.715567
11.780054 24.317716 -15.986818
11.863661 26.127247 -16.699981
25.922159 -2.843211 -13.545547
25.400447 -3.212553 -13.451205
24.612665 -1.632923 -12.930554
25.922159 -2.843211 -13.545547
26.246733 -2.472456 -13.876049
28.034751 -3.43365 -14.891365
27.006619 -2.303374 -13.863508
27.68228 -2.055693 -14.027672
31.267707 -3.71504 -16.648795
30.921809 -2.773841 -15.416187
31.932064 -3.402471 -16.965279
31.665447 -4.661543 -18.09153
30.655192 -4.032912 -16.542439
31.267707 -3.71504 -16.648795
3 0 82 80
3 1 85 83
3 1 88 86
3 1 83 88
3 322 321 90
3 2 323 325
3 325 324 91
3 323 324 325
3 2 326 327
3 3 94 92
3 5 97 95
3 5 99 97
3 3 102 100
3 3 92 102
3 4 106 104
3 7 109 107
3 7 111 109
3 8 114 112
3 10 117 115
3 10 119 117
3 11 328 329
3 11 330 331
3 11 332 334
3 332 121 333
3 332 333 334
3 8 124 122
3 8 112 124
3 13 128 126
3 6 335 337
3 337 336 129
3 335 336 337
3 15 133 131
3 17 136 134
3 17 138 136
3 9 141 139
3 18 144 142
3 18 146 144
3 18 148 146
3 19 151 149
3 19 153 151
3 12 338 339
3 15 157 155
3 15 131 157
3 16 161 159
3 20 164 162
3 20 166 164
3 14 169 167
3 21 172 170
3 21 174 172
3 21 175 174
3 340 176 341
3 23 177 81
3 23 178 177
3 24 181 179
3 26 182 84
3 26 183 182
3 27 342 344
3 342 184 343
3 342 343 344
3 28 185 87
3 28 186 185
3 28 188 186
3 24 189 89
3 24 179 189
3 30 192 190
3 32 345 347
3 347 346 193
3 345 346 347
3 33 197 195
3 35 198 93
3 35 199 198
3 36 202 200
3 38 203 96
3 38 204 203
3 38 206 204
3 40 207 98
3 40 208 207
3 41 210 209
3 42 211 101
3 42 212 211
3 42 213 212
3 33 214 103
3 33 195 214
3 44 217 215
3 46 218 105
3 46 219 218
3 348 221 349
3 348 349 350
3 351 222 352
3 353 352 221
3 351 352 353
3 354 224 355
3 356 355 222
3 354 355 356
3 357 225 358
3 359 226 360
3 361 227 362
3 363 362 226
3 361 362 363
3 22 364 366
3 364 228 365
3 364 365 366
3 49 229 108
3 49 230 229
3 49 231 230
3 50 232 110
3 50 233 232
3 51 236 234
3 53 237 113
3 53 238 237
3 25 239 180
3 54 240 116
3 54 241 240
3 54 242 241
3 55 243 118
3 55 244 243
3 56 245 120
3 56 246 245
3 29 247 187
3 57 248 123
3 57 249 248
3 57 250 249
3 51 251 125
3 51 234 251
3 58 254 252
3 60 255 127
3 60 256 255
3 31 257 191
3 367 258 368
3 370 369 258
3 372 371 259
3 373 260 374
3 375 259 376
3 377 376 260
3 375 376 377
3 48 378 380
3 378 379 380
3 382 381 130
3 384 383 194
3 61 263 261
3 63 264 132
3 63 265 264
3 34 266 196
3 64 267 135
3 64 268 267
3 64 269 268
3 65 270 137
3 65 271 270
3 52 272 235
3 66 273 140
3 66 274 273
3 37 275 201
3 67 276 143
3 67 277 276
3 67 278 277
3 68 279 145
3 68 280 279
3 68 281 280
3 69 282 147
3 69 283 282
3 39 284 205
3 70 285 150
3 70 286 285
3 70 287 286
3 71 288 152
3 71 289 288
3 385 290 386
3 387 291 388
3 389 388 290
3 387 388 389
3 390 292 391
3 392 293 393
3 394 393 292
3 392 393 394
3 395 294 396
3 397 295 398
3 399 296 400
3 401 400 295
3 399 400 401
3 72 402 404
3 402 297 403
3 402 403 404
3 72 298 297
3 72 299 298
3 73 300 154
3 73 405 407
3 407 406 300
3 405 406 407
3 73 408 409
3 43 410 411
3 413 412 156
3 61 301 158
3 61 261 301
3 414 302 415
3 62 303 262
3 74 304 160
3 74 305 304
3 45 306 216
3 75 307 163
3 75 308 307
3 75 309 308
3 76 310 165
3 76 311 310
3 59 312 253
3 77 313 168
3 77 314 313
3 47 315 220
3 78 316 171
3 78 317 316
3 78 318 317
3 79 319 173
3 79 320 319
3 79 416 418
3 418 417 320
3 416 417 418
3 421 420 223
3 419 420 421
3 80 422 424
3 422 81 423
3 422 423 424
3 82 81 80
3 82 23 81
3 83 84 24
3 85 84 83
3 85 26 84
3 86 87 27
3 88 87 86
3 88 28 87
3 88 89 28
3 83 89 88
3 83 24 89
3 90 425 427
3 427 426 30
3 425 426 427
3 429 428 90
3 91 430 432
3 432 431 32
3 430 431 432
3 434 433 91
3 92 93 33
3 94 93 92
3 94 35 93
3 95 96 36
3 97 96 95
3 97 38 96
3 97 98 38
3 99 98 97
3 99 40 98
3 100 101 41
3 102 101 100
3 102 42 101
3 102 103 42
3 92 103 102
3 92 33 103
3 104 105 44
3 106 105 104
3 106 46 105
3 107 108 22
3 109 108 107
3 109 49 108
3 109 110 49
3 111 110 109
3 111 50 110
3 112 113 51
3 114 113 112
3 114 53 113
3 115 116 25
3 117 116 115
3 117 54 116
3 117 118 54
3 119 118 117
3 119 55 118
3 435 120 436
3 121 437 439
3 437 120 438
3 437 438 439
3 121 56 120
3 122 123 29
3 124 123 122
3 124 57 123
3 124 125 57
3 112 125 124
3 112 51 125
3 126 127 58
3 128 127 126
3 128 60 127
3 441 440 31
3 129 130 48
3 442 130 443
3 444 443 129
3 442 443 444
3 446 445 130
3 131 132 61
3 133 132 131
3 133 63 132
3 134 135 34
3 136 135 134
3 136 64 135
3 136 137 64
3 138 137 136
3 138 65 137
3 139 140 52
3 141 140 139
3 141 66 140
3 142 143 37
3 144 143 142
3 144 67 143
3 144 145 67
3 146 145 144
3 146 68 145
3 146 147 68
3 148 147 146
3 148 69 147
3 149 150 39
3 151 150 149
3 151 70 150
3 151 152 70
3 153 152 151
3 153 71 152
3 447 72 448
3 449 154 450
3 451 450 72
3 449 450 451
3 452 154 453
3 454 73 455
3 456 455 154
3 454 455 456
3 459 458 73
3 457 458 459
3 155 156 43
3 157 156 155
3 157 460 462
3 462 461 156
3 460 461 462
3 157 463 465
3 463 158 464
3 463 464 465
3 131 158 157
3 131 61 158
3 159 160 62
3 161 160 159
3 161 74 160
3 162 163 45
3 164 163 162
3 164 75 163
3 164 165 75
3 166 165 164
3 166 76 165
3 167 168 59
3 169 168 167
3 169 77 168
3 170 171 47
3 172 171 170
3 172 78 171
3 172 173 78
3 174 173 172
3 174 79 173
3 174 466 468
3 468 467 79
3 466 467 468
3 175 469 471
3 471 470 174
3 469 470 471
3 175 472 474
3 472 473 474
3 176 475 476
3 176 477 479
3 477 22 478
3 477 478 479
3 81 480 482
3 480 176 481
3 480 481 482
3 177 176 81
3 177 22 176
3 177 107 22
3 178 107 177
3 178 7 107
3 179 180 8
3 181 180 179
3 181 25 180
3 84 181 24
3 182 181 84
3 182 25 181
3 182 115 25
3 183 115 182
3 183 10 115
3 184 483 484
3 184 485 486
3 87 184 27
3 185 184 87
3 185 487 489
3 489 488 184
3 487 488 489
3 185 490 491
3 186 492 494
3 494 493 185
3 492 493 494
3 186 495 497
3 495 11 496
3 495 496 497
3 186 187 11
3 188 187 186
3 188 29 187
3 89 188 28
3 189 188 89
3 189 29 188
3 189 122 29
3 179 122 189
3 179 8 122
3 190 191 13
3 192 191 190
3 192 31 191
3 498 192 499
3 500 499 30
3 498 499 500
3 501 192 502
3 503 31 504
3 505 504 192
3 503 504 505
3 507 506 31
3 193 194 6
3 508 194 509
3 510 509 193
3 508 509 510
3 512 511 194
3 514 513 32
3 195 196 15
3 197 196 195
3 197 34 196
3 93 197 33
3 198 197 93
3 198 34 197
3 198 134 34
3 199 134 198
3 199 17 134
3 200 201 9
3 202 201 200
3 202 37 201
3 96 202 36
3 203 202 96
3 203 37 202
3 203 142 37
3 204 142 203
3 204 18 142
3 204 205 18
3 206 205 204
3 206 39 205
3 98 206 38
3 207 206 98
3 207 39 206
3 207 149 39
3 208 149 207
3 208 19 149
3 209 515 517
3 517 516 12
3 515 516 517
3 210 518 520
3 520 519 209
3 518 519 520
3 210 521 522
3 101 210 41
3 211 210 101
3 211 523 525
3 525 524 210
3 523 524 525
3 211 526 527
3 212 528 530
3 530 529 211
3 528 529 530
3 212 531 532
3 212 533 534
3 213 535 537
3 537 536 212
3 535 536 537
3 213 538 540
3 538 43 539
3 538 539 540
3 103 213 42
3 214 213 103
3 214 43 213
3 214 155 43
3 195 155 214
3 195 15 155
3 215 216 16
3 217 216 215
3 217 45 216
3 105 217 44
3 218 217 105
3 218 45 217
3 218 162 45
3 219 162 218
3 219 20 162
3 541 220 542
3 543 542 14
3 541 542 543
3 544 220 545
3 546 47 547
3 548 547 220
3 546 547 548
3 221 549 550
3 221 551 553
3 551 47 552
3 551 552 553
3 221 170 47
3 222 170 221
3 222 21 170
3 222 223 21
3 224 223 222
3 224 554 556
3 556 555 223
3 554 555 556
3 557 224 558
3 559 224 560
3 563 562 224
3 561 562 563
3 225 564 565
3 225 566 568
3 566 48 567
3 566 567 568
3 569 225 570
3 226 571 573
3 571 225 572
3 571 572 573
3 226 48 225
3 226 129 48
3 227 129 226
3 227 6 129
3 228 574 575
3 228 576 577
3 108 228 22
3 229 228 108
3 229 578 580
3 580 579 228
3 578 579 580
3 229 581 583
3 581 227 582
3 581 582 583
3 230 227 229
3 230 6 227
3 230 193 6
3 231 193 230
3 231 32 193
3 110 231 49
3 232 231 110
3 232 32 231
3 232 91 32
3 233 91 232
3 233 2 91
3 234 235 3
3 236 235 234
3 236 52 235
3 113 236 51
3 237 236 113
3 237 52 236
3 237 139 52
3 238 139 237
3 238 9 139
3 180 114 8
3 239 114 180
3 239 53 114
3 116 239 25
3 240 239 116
3 240 53 239
3 240 238 53
3 241 238 240
3 241 9 238
3 241 200 9
3 242 200 241
3 242 36 200
3 118 242 54
3 243 242 118
3 243 36 242
3 243 95 36
3 244 95 243
3 244 5 95
3 120 584 586
3 584 585 586
3 245 587 589
3 589 588 120
3 587 588 589
3 245 590 591
3 245 592 593
3 246 594 596
3 596 595 245
3 594 595 596
3 246 597 599
3 597 12 598
3 597 598 599
3 187 121 11
3 247 121 187
3 247 56 121
3 123 247 29
3 248 247 123
3 248 56 247
3 248 246 56
3 249 246 248
3 249 12 246
3 249 209 12
3 250 209 249
3 250 41 209
3 125 250 57
3 251 250 125
3 251 41 250
3 251 100 41
3 234 100 251
3 234 3 100
3 252 253 4
3 254 253 252
3 254 59 253
3 127 254 58
3 255 254 127
3 255 59 254
3 255 167 59
3 256 167 255
3 256 14 167
3 191 128 13
3 257 128 191
3 257 60 128
3 600 257 601
3 602 601 31
3 600 601 602
3 258 603 605
3 603 257 604
3 603 604 605
3 258 60 257
3 258 256 60
3 606 256 607
3 608 607 258
3 606 607 608
3 609 14 610
3 611 610 256
3 609 610 611
3 613 612 14
3 259 614 616
3 616 615 1
3 614 615 616
3 618 617 259
3 619 27 620
3 260 621 623
3 621 622 623
3 260 624 626
3 624 27 625
3 624 625 626
3 260 86 27
3 259 86 260
3 259 1 86
3 130 627 629
3 629 628 48
3 627 628 629
3 631 630 130
3 194 632 634
3 634 633 6
3 632 633 634
3 636 635 194
3 261 262 0
3 263 262 261
3 263 62 262
3 132 263 61
3 264 263 132
3 264 62 263
3 264 159 62
3 265 159 264
3 265 16 159
3 196 133 15
3 266 133 196
3 266 63 133
3 135 266 34
3 267 266 135
3 267 63 266
3 267 265 63
3 268 265 267
3 268 16 265
3 268 215 16
3 269 215 268
3 269 44 215
3 137 269 64
3 270 269 137
3 270 44 269
3 270 104 44
3 271 104 270
3 271 4 104
3 235 94 3
3 272 94 235
3 272 35 94
3 140 272 52
3 273 272 140
3 273 35 272
3 273 199 35
3 274 199 273
3 274 17 199
3 201 141 9
3 275 141 201
3 275 66 141
3 143 275 37
3 276 275 143
3 276 66 275
3 276 274 66
3 277 274 276
3 277 17 274
3 277 138 17
3 278 138 277
3 278 65 138
3 145 278 67
3 279 278 145
3 279 65 278
3 279 271 65
3 280 271 279
3 280 4 271
3 280 252 4
3 281 252 280
3 281 58 252
3 147 281 68
3 282 281 147
3 282 58 281
3 282 126 58
3 283 126 282
3 283 13 126
3 205 148 18
3 284 148 205
3 284 69 148
3 150 284 39
3 285 284 150
3 285 69 284
3 285 283 69
3 286 283 285
3 286 13 283
3 286 190 13
3 287 190 286
3 287 30 190
3 152 287 70
3 288 287 152
3 288 30 287
3 288 90 30
3 289 90 288
3 289 637 639
3 639 638 90
3 637 638 639
3 640 85 641
3 642 641 1
3 640 641 642
3 643 85 644
3 645 26 646
3 647 646 85
3 645 646 647
3 290 648 649
3 290 650 652
3 650 26 651
3 650 651 652
3 290 183 26
3 291 183 290
3 291 10 183
3 653 291 654
3 292 655 657
3 655 291 656
3 655 656 657
3 292 10 291
3 292 119 10
3 293 119 292
3 293 55 119
3 658 293 659
3 658 659 660
3 661 293 662
3 663 55 664
3 665 664 293
3 663 664 665
3 666 244 667
3 668 667 55
3 666 667 668
3 669 244 670
3 671 5 672
3 673 672 244
3 671 672 673
3 674 5 675
3 676 99 677
3 678 677 5
3 676 677 678
3 294 679 681
3 679 99 680
3 679 680 681
3 294 40 99
3 682 294 683
3 295 684 686
3 684 294 685
3 684 685 686
3 295 40 294
3 295 208 40
3 296 208 295
3 296 19 208
3 297 687 688
3 297 689 690
3 297 691 693
3 691 296 692
3 691 692 693
3 298 296 297
3 298 19 296
3 298 153 19
3 299 153 298
3 299 71 153
3 154 299 72
3 300 299 154
3 300 71 299
3 300 289 71
3 694 289 695
3 696 695 300
3 694 695 696
3 698 697 289
3 700 699 73
3 702 701 12
3 156 703 705
3 705 704 43
3 703 704 705
3 707 706 156
3 158 708 709
3 301 710 712
3 712 711 158
3 710 711 712
3 301 713 714
3 301 715 717
3 715 302 716
3 715 716 717
3 261 302 301
3 261 0 302
3 718 80 719
3 302 720 722
3 720 80 721
3 720 721 722
3 302 0 80
3 262 82 0
3 303 82 262
3 303 23 82
3 160 303 62
3 304 303 160
3 304 23 303
3 304 178 23
3 305 178 304
3 305 7 178
3 216 161 16
3 306 161 216
3 306 74 161
3 163 306 45
3 307 306 163
3 307 74 306
3 307 305 74
3 308 305 307
3 308 7 305
3 308 111 7
3 309 111 308
3 309 50 111
3 165 309 75
3 310 309 165
3 310 50 309
3 310 233 50
3 311 233 310
3 311 2 233
3 253 106 4
3 312 106 253
3 312 46 106
3 168 312 59
3 313 312 168
3 313 46 312
3 313 219 46
3 314 219 313
3 314 20 219
3 220 169 14
3 315 169 220
3 315 77 169
3 171 315 47
3 316 315 171
3 316 77 315
3 316 314 77
3 317 314 316
3 317 20 314
3 317 166 20
3 318 166 317
3 318 76 166
3 173 318 78
3 319 318 173
3 319 76 318
3 319 311 76
3 320 311 319
3 320 2 311
3 320 723 725
3 725 724 2
3 723 724 725
3 727 726 320
3 730 729 79
3 728 729 730
3 223 175 21
3 731 175 732
3 733 732 223
3 731 732 733
3 736 735 175
3 734 735 736
