ply
format ascii 1.0
element vertex 404
property float x
property float y
property float z
element face 452
property list uchar int vertex_index
end_header
48.940086 26.209553 4.660007
39.825165 33.640339 9.26911
41.4282 40.177666 -5.5761
39.447506 22.74559 9.986313
51.792763 32.941048 -1.650377
49.415707 33.167686 -9.518531
41.027672 30.419147 1.945154
31.26527 25.406776 8.353024
51.761822 30.503525 5.183939
46.868217 27.291149 13.654955
42.336784 37.946438 2.036409
43.847435 24.767309 7.047513
51.159969 28.605801 0.852534
47.655285 30.335541 -1.076292
44.645199 27.577145 3.577704
39.446011 26.616146 6.652421
46.187794 32.734386 7.088158
49.065865 29.359394 9.228238
43.846375 30.968845 11.262943
38.565697 40.85038 4.930046
41.318287 36.027031 5.61161
47.596325 35.264259 4.541853
38.504826 30.966503 13.922333
47.969006 37.788231 -3.480802
50.676842 32.759117 -5.694901
45.04409 32.49514 -3.943975
38.317825 32.13335 -0.21062
32.256268 30.22753 3.927266
35.642937 29.227039 5.523873
34.931 24.605337 9.891231
53.161762 27.340906 3.832404
52.924629 24.590755 7.643677
53.837749 27.24708 8.080162
41.675865 27.689419 15.46212
42.360497 39.683815 -1.448128
47.684673 35.477352 0.350357
52.332428 31.511524 1.699184
46.333641 25.583569 5.717957
45.767609 23.701773 7.842993
48.119171 24.667406 6.990544
50.201729 27.168848 2.708386
48.080296 28.367147 2.111347
46.884155 26.832806 3.924089
44.129276 26.35857 5.176769
43.009029 33.397869 8.168777
44.722717 32.095135 9.485217
42.025486 32.536476 10.283851
37.350452 35.345882 8.516212
38.269615 36.813244 6.439775
40.409378 34.679981 7.276721
43.835804 34.368416 6.522199
50.497055 35.6343 -2.721823
50.436905 35.287037 -4.856966
51.522968 33.234604 -3.749393
44.272114 30.481195 0.272496
46.24799 31.528708 -2.240002
42.881435 31.806896 -0.916652
41.788277 32.449883 -2.547402
39.710186 31.713984 0.963839
36.731163 31.25444 2.910151
38.297401 30.084366 3.631795
39.391785 24.909977 8.507592
37.112988 25.964426 8.306172
37.181278 23.786579 10.000679
53.232666 28.777084 4.298841
53.908936 27.388752 5.99573
52.996765 28.82275 6.303317
48.006081 28.635599 11.29012
50.602642 27.675802 11.057394
49.690773 27.061005 13.576675
48.855392 26.071991 16.195448
40.210674 29.274139 14.582913
39.996998 39.320873 3.313512
40.994198 40.394825 1.851404
40.55249 41.271057 -0.135556
42.680016 38.910633 0.38651
45.132256 37.439003 -0.882577
44.776981 36.637409 1.134522
49.782475 32.613808 4.38116
50.343853 34.08041 3.378273
52.082012 30.950872 3.325366
53.045887 29.229223 2.536342
48.777252 34.60788 -8.712994
31.504862 28.000111 6.351388
30.193165 27.640772 4.980954
30.049799 25.037169 6.877034
41.605022 23.8391 8.571333
43.405678 22.606586 8.917032
51.939636 30.296331 -0.740035
50.966377 30.715464 -2.190128
49.133629 29.334797 -0.159724
45.754745 29.201878 1.34939
42.503571 28.717188 2.862719
39.843616 28.420828 4.410433
41.914398 27.120777 4.985058
41.702137 25.71254 6.870913
49.130363 31.686092 6.102105
50.511906 30.066071 7.138987
47.765141 31.21199 8.453751
46.355247 30.53208 10.296143
45.346489 29.178364 11.969244
37.37204 39.629944 6.343152
39.082809 38.220757 4.623872
42.009468 37.254822 3.701097
44.795269 36.671227 3.187786
44.71418 35.656147 5.219478
46.980442 33.61969 5.51407
31.374121 22.716377 9.987658
36.843254 33.961082 10.68548
38.841454 32.471661 11.547804
36.637733 32.658096 13.615332
44.120037 37.843338 -4.384826
47.196236 36.568756 -5.488875
49.685555 34.579227 -6.538358
50.087265 32.824272 -7.450412
49.67852 31.488811 -3.575693
48.187401 32.021496 -4.888566
47.61377 32.450157 -6.939673
44.494068 32.331841 -6.062295
40.889271 32.010506 -3.894466
37.063828 31.580746 -1.29025
33.71212 31.058594 0.965527
35.180088 31.570332 1.93614
33.905533 30.114414 4.850507
33.217327 27.727381 7.192342
37.417469 27.885639 6.076423
35.002579 26.930832 7.876202
32.92627 25.269175 9.329119
32.993622 22.627375 11.051989
51.419292 26.582565 3.89808
51.010769 25.577738 6.133356
53.049091 26.259317 5.824714
54.271473 25.870539 7.756579
54.554176 25.647959 9.948488
51.782234 28.35931 8.485204
52.969757 26.809244 10.493083
41.02018 31.014057 12.315998
42.547413 29.231039 13.077617
44.200329 27.628555 14.255089
39.622742 42.421032 -3.834796
39.567745 41.563225 -1.788023
41.55196 39.482494 -3.365341
45.19099 38.526253 -2.434338
48.106228 36.657558 -1.862511
50.300545 34.614124 -0.614932
47.549408 35.506805 2.512417
50.572685 33.991344 1.506778
52.256386 32.021423 0.112709
52.549786 29.749887 0.855419
52.296867 27.817043 2.332689
50.332127 23.37212 7.813263
30.839024 29.628485 2.555129
42.0672 40.949428 -6.76135
41.159775 41.874001 -5.70685
39.327393 21.352548 10.336814
38.458721 22.031721 10.527215
38.458721 22.031721 10.527215
37.325607 22.552215 10.534398
38.314392 23.266084 9.993496
48.84337 34.163099 -10.451626
48.524143 34.883196 -10.048858
49.09648 33.887783 -9.115762
45.445421 22.406539 8.323734
46.605194 23.011604 8.009962
37.002926 38.937443 7.261052
37.281277 40.48095 7.367542
31.045815 21.046647 9.85733
31.526878 21.318711 10.670311
35.907424 33.787396 13.271977
36.740493 33.309589 12.150406
36.010185 34.438888 11.807051
36.010185 34.438888 11.807051
36.227211 35.291984 10.550594
52.573324 26.567631 11.936412
51.7862 27.242523 10.775239
51.389767 27.00091 12.218567
53.456619 26.071131 11.732036
52.573324 26.567631 11.936412
39.273522 43.679531 -2.789105
39.588223 44.083704 -3.849675
39.093399 42.373392 5.116013
38.309914 41.735079 5.773199
29.791432 27.095337 4.132886
29.893318 25.824039 4.996895
47.780975 23.494421 7.583737
46.605194 23.011604 8.009962
46.94339 24.18459 7.416768
37.810034 36.079563 7.477994
37.451713 37.529093 7.309364
36.992132 36.795412 8.347582
36.211025 22.949982 10.679969
35.085886 23.359361 10.625245
36.056139 24.195958 9.945955
36.211025 22.949982 10.679969
37.325607 22.552215 10.534398
50.933832 26.693512 13.478207
51.389767 27.00091 12.218567
50.146708 27.368403 12.317035
50.610554 26.405325 14.986884
50.933832 26.693512 13.478207
50.192863 25.910818 16.29627
50.610554 26.405325 14.986884
49.273083 26.566498 14.886062
49.760719 25.566958 17.432344
50.192863 25.910818 16.29627
39.748735 29.79526 15.878045
39.35775 30.120321 14.252623
38.895812 30.641442 15.547756
40.288995 28.942026 16.097333
39.748735 29.79526 15.878045
41.021591 28.149666 16.536936
40.943269 28.481779 15.022517
40.288995 28.942026 16.097333
40.09182 40.65863 3.573327
39.37617 41.423383 4.381595
39.281347 40.085627 4.121779
40.59042 41.195606 2.842274
40.09182 40.65863 3.573327
40.495598 39.857849 2.582458
40.606026 41.881073 1.865318
40.59042 41.195606 2.842274
40.773344 40.832941 0.857924
40.385172 42.319189 0.871838
40.606026 41.881073 1.865318
52.62598 23.528287 8.182769
53.681137 24.246481 8.492109
47.680433 36.031975 -9.898827
47.587338 35.250002 -8.288118
47.680433 36.031975 -9.898827
48.524143 34.883196 -10.048858
29.821635 24.522238 5.944935
29.893318 25.824039 4.996895
30.121482 26.33897 5.928994
41.471018 22.570128 9.263445
40.392259 22.023373 9.970935
40.526264 23.292345 9.278823
42.371346 21.953871 9.436295
41.471018 22.570128 9.263445
42.50535 23.222843 8.744183
43.194868 21.257102 9.120763
42.371346 21.953871 9.436295
44.264456 21.858946 8.860754
44.586644 23.154179 8.380012
45.445421 22.406539 8.323734
43.194868 21.257102 9.120763
44.264456 21.858946 8.860754
37.713085 41.124861 6.479752
37.281277 40.48095 7.367542
37.968868 40.240162 5.636599
38.309914 41.735079 5.773199
37.713085 41.124861 6.479752
37.820828 38.221594 6.391464
37.002926 38.937443 7.261052
37.451713 37.529093 7.309364
48.989267 33.126312 -10.490789
48.433918 32.566019 -9.363535
30.823253 22.459122 9.178318
30.768828 23.804322 8.361002
31.319696 24.061577 9.170341
30.823253 22.459122 9.178318
31.045815 21.046647 9.85733
36.516223 33.250881 14.982895
35.907424 33.787396 13.271977
37.22224 32.345676 15.101931
36.516223 33.250881 14.982895
38.155787 31.49988 15.255432
37.57128 31.8123 13.768833
37.22224 32.345676 15.101931
38.895812 30.641442 15.547756
38.155787 31.49988 15.255432
36.48081 35.984385 9.46596
36.992132 36.795412 8.347582
37.096853 34.653482 9.600846
36.48081 35.984385 9.46596
36.227211 35.291984 10.550594
39.327393 21.352548 10.336814
40.392259 22.023373 9.970935
43.964552 37.803371 -5.64534
42.618634 38.970535 -6.240977
42.774119 39.010502 -4.980463
45.502651 37.16608 -6.197365
43.964552 37.803371 -5.64534
45.658136 37.206047 -4.936851
46.79683 36.23044 -6.676058
45.502651 37.16608 -6.197365
48.041489 35.235675 -7.2008
46.79683 36.23044 -6.676058
48.440895 35.573992 -6.013616
49.231403 34.593553 -7.625676
47.587338 35.250002 -8.288118
48.041489 35.235675 -7.2008
47.53295 32.207254 -8.074106
48.433918 32.566019 -9.363535
48.514738 32.808921 -8.229102
45.973098 32.148097 -7.635417
47.53295 32.207254 -8.074106
46.053919 32.390999 -6.500984
44.231566 31.845812 -6.684712
45.973098 32.148097 -7.635417
42.429167 31.685144 -5.600798
44.231566 31.845812 -6.684712
42.69167 32.171173 -4.978381
40.447807 31.378763 -4.237855
42.429167 31.685144 -5.600798
38.535086 31.163882 -2.935746
40.447807 31.378763 -4.237855
38.97655 31.795626 -2.592358
36.479311 31.092543 -1.686057
38.535086 31.163882 -2.935746
35.387974 31.31967 -0.162361
34.803457 30.831467 -0.558169
36.479311 31.092543 -1.686057
32.336629 21.27421 11.202476
31.526878 21.318711 10.670311
32.183872 22.671876 10.519824
34.117197 22.37038 11.205624
33.962311 23.616356 10.47161
35.085886 23.359361 10.625245
33.26068 21.258933 11.635347
34.117197 22.37038 11.205624
32.336629 21.27421 11.202476
33.26068 21.258933 11.635347
54.354559 24.886373 8.548559
53.681137 24.246481 8.492109
53.598051 25.230647 7.700128
54.495911 24.775082 9.644514
54.354559 24.886373 8.548559
54.412824 25.759249 8.852533
54.711479 24.670253 11.010387
54.495911 24.775082 9.644514
54.248829 25.490489 11.459739
53.761966 26.228601 10.220785
53.456619 26.071131 11.732036
54.711479 24.670253 11.010387
54.248829 25.490489 11.459739
41.579225 27.38766 16.91476
41.021591 28.149666 16.536936
42.619968 27.088762 16.139997
41.579225 27.38766 16.91476
43.882201 27.058329 15.536482
42.938097 27.658987 14.858605
42.619968 27.088762 16.139997
45.25144 26.94164 15.158893
43.882201 27.058329 15.536482
46.585384 26.772938 14.858825
45.534273 27.459852 13.955022
45.25144 26.94164 15.158893
47.578972 26.163359 16.129072
47.861805 26.68157 14.925202
46.585384 26.772938 14.858825
48.498089 25.775472 17.340143
47.578972 26.163359 16.129072
49.760719 25.566958 17.432344
48.498089 25.775472 17.340143
40.257046 42.995683 -4.836198
39.588223 44.083704 -3.849675
40.525471 41.299349 -4.705448
41.159775 41.874001 -5.70685
40.257046 42.995683 -4.836198
39.093399 42.373392 5.116013
39.37617 41.423383 4.381595
39.772556 42.559158 0.098562
40.385172 42.319189 0.871838
39.280183 42.705242 -0.727672
39.772556 42.559158 0.098562
40.060118 41.417141 -0.961789
39.246023 43.250628 -1.765718
39.280183 42.705242 -0.727672
39.595244 41.992128 -2.811409
39.273522 43.679531 -2.789105
39.246023 43.250628 -1.765718
48.887453 22.846778 7.995097
47.780975 23.494421 7.583737
49.225649 24.019763 7.401903
51.329729 22.918969 8.267562
51.628378 23.981437 7.72847
52.62598 23.528287 8.182769
49.807583 22.26609 8.343903
51.329729 22.918969 8.267562
48.887453 22.846778 7.995097
49.807583 22.26609 8.343903
42.0672 40.949428 -6.76135
42.618634 38.970535 -6.240977
48.84337 34.163099 -10.451626
48.989267 33.126312 -10.490789
33.042064 30.641523 0.386108
34.803457 30.831467 -0.558169
31.605517 29.926468 1.180909
33.042064 30.641523 0.386108
32.275572 30.343539 1.760328
30.299614 29.052686 1.800345
31.605517 29.926468 1.180909
30.114361 28.089194 2.919974
30.516095 28.634628 3.768041
29.791432 27.095337 4.132886
30.299614 29.052686 1.800345
30.114361 28.089194 2.919974
30.161092 23.619518 7.623006
30.657535 25.221972 7.615029
30.768828 23.804322 8.361002
30.033271 23.196385 6.683658
30.161092 23.619518 7.623006
29.821635 24.522238 5.944935
30.033271 23.196385 6.683658
3 0 39 37
3 0 42 40
3 0 37 42
3 1 46 44
3 1 49 47
3 1 44 49
3 2 152 153
3 3 154 155
3 4 53 51
3 6 56 54
3 6 58 56
3 6 60 58
3 3 63 61
3 3 156 158
3 158 157 63
3 156 157 158
3 8 66 64
3 9 69 67
3 9 70 69
3 10 73 72
3 10 75 73
3 10 77 75
3 8 80 78
3 8 64 80
3 5 159 161
3 161 160 82
3 159 160 161
3 7 85 83
3 11 87 86
3 163 162 38
3 12 90 88
3 14 91 41
3 14 92 91
3 14 94 92
3 11 95 43
3 11 86 95
3 16 98 96
3 18 99 45
3 18 100 99
3 164 101 165
3 20 102 48
3 20 103 102
3 20 105 103
3 16 106 50
3 16 96 106
3 167 166 107
3 168 110 169
3 170 169 108
3 168 169 170
3 171 108 172
3 23 112 111
3 24 113 52
3 24 114 113
3 13 115 89
3 25 116 55
3 25 117 116
3 25 118 117
3 26 119 57
3 26 120 119
3 26 122 120
3 28 123 59
3 28 124 123
3 15 125 93
3 29 126 62
3 29 127 126
3 29 128 127
3 30 131 129
3 32 132 65
3 32 133 132
3 17 134 97
3 173 135 174
3 175 174 68
3 173 174 175
3 177 176 135
3 22 136 109
3 33 137 71
3 33 138 137
3 178 139 179
3 19 180 181
3 34 140 74
3 34 141 140
3 34 142 141
3 35 143 76
3 35 144 143
3 21 145 104
3 36 146 79
3 36 147 146
3 36 148 147
3 30 149 81
3 30 129 149
3 31 150 130
3 27 151 121
3 183 182 84
3 37 38 11
3 39 38 37
3 39 184 186
3 186 185 38
3 184 185 186
3 40 41 12
3 42 41 40
3 42 14 41
3 42 43 14
3 37 43 42
3 37 11 43
3 44 45 16
3 46 45 44
3 46 18 45
3 47 187 189
3 187 48 188
3 187 188 189
3 49 48 47
3 49 20 48
3 49 50 20
3 44 50 49
3 44 16 50
3 51 52 23
3 53 52 51
3 53 24 52
3 54 55 13
3 56 55 54
3 56 25 55
3 56 57 25
3 58 57 56
3 58 26 57
3 58 59 26
3 60 59 58
3 60 28 59
3 61 62 15
3 63 62 61
3 63 29 62
3 63 190 192
3 192 191 29
3 190 191 192
3 194 193 63
3 64 65 30
3 66 65 64
3 66 32 65
3 67 68 17
3 69 68 67
3 69 195 197
3 197 196 68
3 195 196 197
3 69 198 199
3 70 200 202
3 202 201 69
3 200 201 202
3 70 203 204
3 205 71 206
3 207 206 22
3 205 206 207
3 208 71 209
3 210 33 211
3 212 211 71
3 210 211 212
3 72 213 215
3 215 214 19
3 213 214 215
3 73 216 218
3 218 217 72
3 216 217 218
3 73 219 220
3 73 221 223
3 221 74 222
3 221 222 223
3 75 74 73
3 75 34 74
3 75 76 34
3 77 76 75
3 77 35 76
3 78 79 21
3 80 79 78
3 80 36 79
3 80 81 36
3 64 81 80
3 64 30 81
3 225 224 31
3 82 226 227
3 229 228 82
3 83 84 27
3 85 84 83
3 85 230 232
3 232 231 84
3 230 231 232
3 86 233 235
3 235 234 3
3 233 234 235
3 87 236 238
3 238 237 86
3 236 237 238
3 87 239 240
3 38 87 11
3 241 87 242
3 243 242 38
3 241 242 243
3 245 244 87
3 88 89 4
3 90 89 88
3 90 13 89
3 41 90 12
3 91 90 41
3 91 13 90
3 91 54 13
3 92 54 91
3 92 6 54
3 92 93 6
3 94 93 92
3 94 15 93
3 43 94 14
3 95 94 43
3 95 15 94
3 95 61 15
3 86 61 95
3 86 3 61
3 96 97 8
3 98 97 96
3 98 17 97
3 45 98 16
3 99 98 45
3 99 17 98
3 99 67 17
3 100 67 99
3 100 9 67
3 101 246 247
3 101 248 250
3 248 19 249
3 248 249 250
3 48 251 253
3 251 101 252
3 251 252 253
3 102 101 48
3 102 19 101
3 102 72 19
3 103 72 102
3 103 10 72
3 103 104 10
3 105 104 103
3 105 21 104
3 50 105 20
3 106 105 50
3 106 21 105
3 106 78 21
3 96 78 106
3 96 8 78
3 255 254 5
3 107 256 258
3 258 257 7
3 256 257 258
3 260 259 107
3 108 109 1
3 110 109 108
3 110 22 109
3 261 110 262
3 263 110 264
3 265 22 266
3 267 266 110
3 265 266 267
3 269 268 22
3 270 47 271
3 108 272 274
3 272 47 273
3 272 273 274
3 108 1 47
3 276 275 3
3 111 277 279
3 279 278 2
3 277 278 279
3 112 280 282
3 282 281 111
3 280 281 282
3 112 283 284
3 52 112 23
3 113 112 52
3 113 285 287
3 287 286 112
3 285 286 287
3 113 288 290
3 288 82 289
3 288 289 290
3 114 82 113
3 114 5 82
3 89 53 4
3 115 53 89
3 115 24 53
3 55 115 13
3 116 115 55
3 116 24 115
3 116 114 24
3 117 114 116
3 117 5 114
3 117 291 293
3 293 292 5
3 291 292 293
3 118 294 296
3 296 295 117
3 294 295 296
3 118 297 298
3 57 118 25
3 119 118 57
3 119 299 301
3 301 300 118
3 299 300 301
3 119 302 303
3 120 304 306
3 306 305 119
3 304 305 306
3 120 307 308
3 120 309 311
3 309 121 310
3 309 310 311
3 122 121 120
3 122 27 121
3 59 122 26
3 123 122 59
3 123 27 122
3 123 83 27
3 124 83 123
3 124 7 83
3 93 60 6
3 125 60 93
3 125 28 60
3 62 125 15
3 126 125 62
3 126 28 125
3 126 124 28
3 127 124 126
3 127 7 124
3 127 107 7
3 128 107 127
3 128 312 314
3 314 313 107
3 312 313 314
3 315 128 316
3 317 316 29
3 315 316 317
3 318 128 319
3 321 320 128
3 129 130 0
3 131 130 129
3 131 31 130
3 65 131 30
3 132 131 65
3 132 31 131
3 132 322 324
3 324 323 31
3 322 323 324
3 133 325 327
3 327 326 132
3 325 326 327
3 133 328 329
3 97 66 8
3 134 66 97
3 134 32 66
3 68 134 17
3 135 134 68
3 135 32 134
3 135 133 32
3 330 133 331
3 332 331 135
3 330 331 332
3 334 333 133
3 109 46 1
3 136 46 109
3 136 18 46
3 71 136 22
3 137 136 71
3 137 18 136
3 137 100 18
3 138 100 137
3 138 9 100
3 335 33 336
3 337 33 338
3 339 138 340
3 341 340 33
3 339 340 341
3 342 138 343
3 344 9 345
3 346 345 138
3 344 345 346
3 347 70 348
3 349 348 9
3 347 348 349
3 350 70 351
3 353 352 70
3 139 354 355
3 139 356 358
3 356 2 357
3 356 357 358
3 360 359 19
3 74 361 362
3 140 363 365
3 365 364 74
3 363 364 365
3 140 366 367
3 140 368 370
3 368 139 369
3 368 369 370
3 141 139 140
3 141 2 139
3 141 111 2
3 142 111 141
3 142 23 111
3 76 142 34
3 143 142 76
3 143 23 142
3 143 51 23
3 144 51 143
3 144 4 51
3 104 77 10
3 145 77 104
3 145 35 77
3 79 145 21
3 146 145 79
3 146 35 145
3 146 144 35
3 147 144 146
3 147 4 144
3 147 88 4
3 148 88 147
3 148 12 88
3 81 148 36
3 149 148 81
3 149 12 148
3 149 40 12
3 129 40 149
3 129 0 40
3 130 39 0
3 150 39 130
3 150 371 373
3 373 372 39
3 371 372 373
3 374 150 375
3 376 375 31
3 374 375 376
3 377 150 378
3 380 379 150
3 382 381 2
3 384 383 5
3 121 385 386
3 151 387 389
3 389 388 121
3 387 388 389
3 151 390 391
3 84 151 27
3 392 151 393
3 394 393 84
3 392 393 394
3 396 395 151
3 397 85 398
3 399 398 7
3 397 398 399
3 400 85 401
3 403 402 85
