ply
format ascii 1.0
element vertex 974
property float x
property float y
property float z
element face 1224
property list uchar int vertex_index
end_header
-20.951971 -61.96032 8.059557
-16.033625 -45.649578 55.490803
-11.736608 -67.495117 34.872688
-7.308177 -73.34639 46.686378
-8.856435 -55.365685 59.898754
-9.657553 -54.801201 44.78561
-9.923994 -39.286098 42.404213
-11.918108 -55.856873 29.636593
-9.688078 -63.281929 54.813255
-16.599461 -63.837334 28.958277
-14.766714 -44.527153 46.206017
-6.441143 -64.523598 38.987965
-9.342852 -55.164345 36.822338
-3.819081 -66.521515 30.178127
-4.980695 -65.44931 23.194164
-7.590835 -72.580925 39.765034
-17.301737 -76.271896 42.214943
-7.659767 -49.518688 59.29076
-7.379402 -48.608517 50.93354
-7.102264 -55.045288 52.908794
-7.679178 -63.13195 47.050636
-15.7153 -43.940125 64.305283
-10.220331 -51.466774 68.683105
-19.932978 -60.253918 14.71209
-10.879416 -48.491154 43.832153
-14.853688 -44.675243 36.281075
-9.350746 -52.720726 24.382435
-6.12251 -61.871876 17.481779
-7.667762 -58.383942 10.483903
-18.589909 -58.201271 8.315122
-23.5189 -59.060997 6.447598
-25.126408 -63.807781 7.093064
-13.869543 -65.324142 32.077477
-18.194277 -41.784542 48.401066
-15.944969 -45.925301 50.531044
-4.3895 -70.659622 35.637608
-4.786 -65.565125 34.516087
-6.711624 -68.553078 31.680218
-8.962965 -66.408646 28.838459
-7.113053 -73.541191 42.960838
-12.686015 -73.32756 41.485634
-11.132953 -75.974167 44.082638
-7.103022 -52.587982 60.817505
-7.327172 -52.249931 56.326836
-7.534099 -55.335133 56.473534
-6.404223 -68.08152 51.902607
-9.052676 -63.418755 50.930477
-5.671295 -68.521904 47.783741
-5.274779 -69.168175 43.680126
-15.594769 -42.453255 68.167297
-12.614039 -48.690392 66.690697
-13.743581 -47.88995 70.800529
-20.68107 -60.576607 18.443073
-6.066502 -52.224205 47.692627
-8.279307 -48.549335 46.953663
-8.103865 -52.111988 43.598892
-11.439112 -55.875648 33.593712
-13.787145 -51.079247 36.510216
-15.169058 -49.753799 32.398201
-12.500083 -49.270973 29.234272
-11.218958 -54.487831 26.527271
-13.56033 -62.49007 23.133381
-5.911083 -63.690937 20.521358
-14.067508 -60.244263 20.749065
-13.051096 -57.714985 18.26594
-6.242245 -55.318256 8.850234
-5.304811 -56.131371 13.257108
-12.195342 -56.566856 58.376198
-11.470894 -57.013054 56.247784
-18.7146 -62.913551 25.73558
-17.672859 -40.87265 43.308052
-12.851471 -41.797001 43.552608
-7.497442 -59.298779 41.593605
-8.075663 -55.132179 40.24342
-7.097351 -59.316284 38.043304
-6.37008 -59.600853 34.072803
-6.843463 -61.110271 30.13833
-6.376454 -60.355305 26.838959
-4.167231 -66.464241 26.457455
-11.003601 -64.27623 26.058615
-9.665474 -70.035629 37.669655
-16.040844 -70.750076 33.990185
-14.711645 -71.670959 37.8027
-17.07494 -76.79319 37.273781
-12.002863 -48.209953 57.120522
-10.515843 -47.498001 52.845112
-6.713297 -48.717793 55.008507
-6.380809 -52.43969 52.018028
-8.285247 -54.626556 48.892601
-11.013933 -57.239708 53.460407
-11.947605 -57.753563 49.583813
-10.552172 -58.848309 45.409374
-6.386129 -63.233788 43.209408
-5.00053 -69.829803 39.517891
-15.722534 -44.734028 60.186157
-12.518126 -48.740574 61.814415
-7.729675 -50.904701 64.627396
-8.410179 -53.861065 64.500801
-19.478592 -61.702862 10.475173
-9.247543 -45.848713 48.966766
-7.554404 -44.224628 45.642727
-7.150417 -43.709236 42.981152
-11.069928 -52.055389 40.014313
-13.404813 -47.059265 40.353668
-8.459267 -41.792194 40.794079
-9.000072 -39.363689 38.352245
-6.668511 -51.737 22.177298
-6.401071 -59.58379 23.546152
-5.930193 -58.641579 20.063246
-5.382433 -57.482079 16.773174
-6.564081 -60.158142 14.042358
-13.519847 -57.654274 13.697522
-14.33855 -59.261314 9.874414
-11.040385 -56.758045 9.417599
-19.977825 -60.161095 7.986249
-22.356792 -60.911041 7.433838
-23.095078 -62.939716 7.774821
-12.740071 -66.44371 33.541843
-16.566593 -67.439049 31.00802
-15.612238 -67.588539 32.913311
-17.18767 -43.798275 54.486126
-17.501905 -44.139194 52.076775
-16.094793 -46.028687 52.927574
-8.039804 -69.417656 34.98349
-5.349066 -69.880417 33.540375
-9.221523 -67.754807 33.473316
-10.225009 -66.485634 32.307674
-7.114616 -73.548752 44.737469
-8.889839 -74.928574 43.373665
-8.680243 -75.309715 45.092003
-7.807562 -54.228294 60.591438
-7.639697 -54.030846 58.642597
-8.016637 -55.458801 58.394825
-6.477493 -70.969559 49.395317
-5.950812 -68.22628 49.834614
-6.223799 -71.261078 47.233318
-5.927767 -71.510689 45.226383
-15.211 -45.633606 69.39035
-15.40513 -44.929314 71.252258
-20.820312 -61.273857 20.254698
-7.051511 -53.614117 46.137779
-6.83377 -52.168568 45.466099
-8.042385 -53.355091 44.287712
-11.812392 -55.884594 31.627314
-13.785437 -53.108532 33.049782
-13.890498 -52.803173 30.984552
-14.269526 -49.400318 30.458273
-13.042435 -52.659996 29.334332
-11.784613 -52.061573 28.337383
-11.719383 -55.200031 28.081232
-17.184566 -60.906334 23.333786
-14.436358 -61.583118 21.744579
-17.780575 -60.318829 21.615063
-17.689808 -59.296181 20.08363
-6.466405 -53.340721 13.510574
-6.868014 -53.074574 15.845859
-25.926519 -61.896667 5.129967
-24.899023 -59.291576 4.869057
-17.700495 -63.286755 27.390467
-17.127245 -43.795612 47.006584
-18.126167 -41.494133 45.762115
-16.498297 -43.044006 44.770145
-15.574651 -41.706532 42.913586
-13.950058 -43.242371 44.635448
-6.680921 -61.447334 40.621838
-6.593698 -59.207558 39.752003
-6.959154 -61.98745 38.569752
-4.328698 -66.093811 32.46077
-5.444028 -62.21513 34.60466
-5.381164 -63.046181 32.493141
-6.698215 -60.547798 32.214634
-5.159279 -63.721874 30.001774
-4.675603 -63.600182 28.058048
-3.831941 -66.692467 28.258615
-12.282455 -63.765759 29.642883
-10.025584 -65.225418 27.472839
-13.648557 -62.662544 28.230078
-14.912725 -61.905449 26.728741
-8.574896 -71.286453 38.736904
-12.283949 -70.391068 38.230865
-11.289366 -71.584709 39.471611
-15.438362 -74.264626 41.831825
-16.277369 -73.822525 39.714195
-17.374891 -76.490822 39.671867
-17.478577 -79.469589 37.880138
-17.760174 -79.069473 40.423973
-10.07016 -48.942493 57.90382
-9.220199 -48.471897 55.854248
-7.156972 -49.202099 57.106121
-6.879754 -53.872597 54.334179
-7.005347 -52.30611 54.151356
-6.103835 -53.810448 52.321777
-5.88882 -53.768719 50.298447
-7.620538 -54.87849 50.899719
-11.338121 -59.951782 55.404644
-11.069813 -57.124229 55.020313
-10.999916 -60.278015 53.95631
-8.245287 -63.125103 49.023975
-11.079864 -60.814556 50.206154
-10.375628 -60.945198 48.095726
-11.548774 -58.340809 47.450718
-9.136677 -61.029072 46.120987
-8.275187 -61.196617 44.160114
-7.289938 -63.377052 44.936665
-5.692084 -71.652061 41.491432
-5.394371 -69.478783 41.640289
-5.473981 -71.665237 39.510296
-6.134874 -71.364525 37.726685
-15.660388 -44.323902 62.326363
-14.259418 -46.79961 60.952698
-14.488498 -46.760796 63.078663
-10.586073 -50.214573 68.178444
-9.748887 -50.216869 65.845154
-8.693026 -51.444897 66.843849
-7.450141 -52.448524 65.047401
-8.931073 -52.860077 66.657776
-19.805538 -60.673767 12.488383
-20.488651 -64.345413 9.062895
-16.90867 -74.345116 33.241543
-7.172722 -47.089638 52.001213
-9.975169 -46.634434 50.82246
-6.703874 -46.686256 49.760872
-9.425571 -48.55619 45.312382
-7.112834 -46.326782 45.804535
-8.000196 -46.305664 44.199879
-6.925536 -43.993538 44.171455
-9.467216 -45.894005 42.85947
-7.729095 -54.636177 38.248528
-9.424341 -53.605705 40.055836
-10.065782 -53.229256 37.976601
-15.507901 -48.186581 36.603081
-14.366266 -49.277039 38.658283
-14.269913 -45.946865 38.425289
-11.663408 -44.032722 40.032085
-12.391774 -42.811802 38.342964
-9.099022 -40.71656 39.542755
-12.638838 -41.501846 36.54744
-8.425364 -51.46056 27.233601
-6.285125 -51.408875 26.557663
-7.948221 -52.159466 23.524048
-4.197243 -62.664104 24.882162
-6.392266 -59.891052 25.230381
-4.154971 -62.393524 23.22028
-6.010405 -62.773144 19.061605
-4.169329 -61.612999 19.885738
-4.103541 -61.113415 18.140791
-5.634686 -57.955238 18.467525
-4.203545 -60.487354 16.313944
-4.309005 -59.893517 14.425573
-6.216825 -61.015053 15.754782
-17.095013 -57.8372 16.775267
-12.988238 -57.17461 16.17942
-17.112709 -57.998951 14.556867
-17.077183 -58.940788 12.282904
-6.632697 -57.301765 9.331575
-8.191641 -56.256401 8.386775
-9.392912 -57.708748 9.538202
-12.869162 -58.145039 9.615112
-11.28887 -58.652901 10.46726
-16.829315 -56.239983 8.568769
-19.464222 -56.722363 7.099153
-21.290161 -58.792664 7.342371
-24.587624 -61.35273 6.735183
-26.264837 -64.694229 5.225516
-15.180417 -64.532227 30.614422
-17.648317 -67.369324 29.281122
-17.435116 -44.140026 49.504322
-15.453222 -45.430779 48.269085
-4.374784 -67.746979 37.23024
-5.539096 -65.101242 36.570869
-3.668737 -68.331291 35.038185
-3.471309 -68.850616 32.649769
-4.269036 -68.838486 30.518286
-5.329749 -68.467224 28.896936
-7.760929 -67.559288 30.152288
-11.143619 -65.079796 30.917145
-7.136177 -73.342484 41.101158
-10.244162 -72.928299 40.738064
-9.425325 -74.127068 41.904285
-11.75868 -74.788528 42.742821
-14.269638 -75.359894 43.406002
-6.470725 -50.851746 60.277687
-6.535569 -50.720009 58.077496
-7.264735 -52.363087 58.584686
-7.515985 -54.009563 56.434944
-7.216333 -55.186756 54.639534
-7.939093 -65.7202 53.8344
-9.599424 -63.508034 52.898979
-7.208915 -65.581467 51.680889
-6.533151 -65.337479 49.667725
-6.159091 -65.478333 47.803089
-5.867418 -65.725342 45.717461
-5.517859 -68.869614 45.746525
-5.815642 -71.726791 43.374882
-15.632604 -43.42635 66.281517
-14.636256 -46.615551 65.341476
-14.98674 -45.981842 67.43055
-13.046512 -48.442848 68.963951
-11.831131 -49.839493 70.020432
-20.223083 -60.151501 16.650705
-7.449285 -51.051506 49.461922
-7.810634 -48.534962 48.909546
-7.745879 -50.92527 47.327431
-8.729482 -51.009598 45.524784
-9.866215 -50.908833 43.764229
-10.685541 -55.749683 35.406456
-11.452128 -53.268578 36.427589
-12.889806 -53.236805 34.932461
-14.941963 -50.349098 34.538376
-15.861662 -47.028561 34.350822
-14.700827 -43.661877 34.129524
-15.097742 -46.356468 32.166496
-10.188258 -51.746956 27.649652
-10.455715 -53.685463 25.265398
-9.252109 -65.023376 22.809797
-5.362515 -64.677574 21.665102
-10.117525 -63.582722 21.940104
-10.211156 -62.22459 21.051443
-9.672692 -60.967278 19.712273
-9.50665 -59.837181 18.187794
-13.402298 -58.798779 19.805414
-17.333834 -58.283661 18.675545
-5.577146 -55.872581 10.820679
-5.268513 -58.037365 10.949968
-7.614736 -73.242859 48.807858
-10.327405 -56.070641 59.18103
-9.706511 -56.220757 57.960407
-11.755558 -56.803108 57.409504
-12.011472 -59.604401 56.625038
-10.119362 -62.845398 56.438591
-8.273607 -65.579903 55.877068
-6.927981 -68.069839 54.045185
-6.921115 -70.718918 51.54969
-21.661346 -56.609215 6.127486
-23.118565 -56.665417 4.766932
-19.68128 -62.562462 23.956371
-16.710251 -39.708809 41.221214
-14.238043 -40.327953 41.770386
-11.492683 -40.458351 42.838055
-9.617112 -57.253071 42.928299
-9.402875 -55.316326 42.327278
-7.986806 -57.131264 40.833633
-6.91797 -56.57914 38.814781
-7.645559 -56.882088 37.536797
-6.265391 -62.098625 36.47065
-6.564555 -59.58329 36.15855
-8.269773 -57.642689 35.70628
-8.590947 -57.946766 33.744881
-8.764318 -58.163105 31.818274
-9.011209 -58.396576 29.953959
-9.28993 -58.125282 28.350336
-6.554767 -60.899487 28.254232
-4.394472 -63.168007 26.496479
-4.670481 -66.024109 24.761379
-6.528885 -67.965179 27.296488
-7.327717 -67.192856 25.712688
-8.276042 -66.272896 24.099791
-12.042913 -63.539173 24.4233
-16.058868 -61.407494 24.970541
-10.698229 -68.839653 36.352139
-14.453642 -68.289604 35.082577
-13.42338 -69.316483 36.723816
-15.3507 -71.130508 35.881889
-16.389797 -74.069641 35.469833
-13.811521 -72.302711 39.720917
-16.355446 -73.891594 37.589405
-17.226788 -77.378174 35.246307
-13.499001 -76.497047 44.90752
-16.42547 -76.58403 44.160351
-18.008005 -78.523376 42.996952
-14.207069 -47.152199 56.253273
-13.68009 -47.429695 53.922493
-11.285678 -48.02821 54.900017
-8.156611 -47.745781 53.966858
-6.773637 -48.549202 52.942719
-6.811732 -50.391693 55.975563
-7.338803 -50.239449 53.88567
-7.673365 -50.729057 51.746021
-5.969262 -52.259102 49.971184
-6.226567 -53.714245 48.224163
-9.117385 -54.51067 46.766228
-9.219056 -56.196602 56.442699
-8.890193 -56.109325 54.885426
-8.961199 -55.939873 53.189503
-11.20443 -60.534962 52.247852
-11.545824 -57.300285 51.601036
-9.605417 -55.681946 51.39035
-10.644501 -55.559406 49.392017
-11.255526 -55.877541 47.272026
-10.941033 -56.619366 45.150188
-8.902504 -59.184364 43.456818
-7.288541 -61.24876 42.327595
-6.241397 -63.710529 41.270512
-5.58254 -66.03466 43.7873
-5.674817 -66.574738 41.617783
-5.471652 -67.153488 39.174316
-4.301046 -70.274933 37.598625
-7.108073 -70.507431 36.407543
-16.857071 -42.65126 56.68095
-15.797472 -45.186829 57.846172
-14.192621 -46.99131 58.693493
-12.336821 -48.416622 59.45092
-10.173585 -49.40976 60.523674
-12.520531 -48.941795 64.22493
-9.950601 -49.898296 63.130501
-7.540502 -50.111645 61.875721
-6.697844 -51.563221 62.779865
-7.456792 -53.313301 62.833099
-8.607697 -54.643688 62.095772
-10.183569 -55.211266 60.861938
-19.899384 -62.264629 8.847471
-22.423309 -64.34684 8.201157
-21.306082 -64.465309 8.240698
-16.98978 -70.794762 31.610388
-13.324411 -47.070763 51.677746
-12.820148 -46.311958 49.674126
-12.116854 -45.388538 47.858307
-6.71131 -46.470909 47.687881
-8.560926 -45.001156 47.229935
-11.2997 -44.190197 46.267212
-10.372562 -42.948509 45.159397
-9.062452 -42.01017 44.356575
-7.77972 -41.198067 43.928993
-9.003778 -53.403481 42.308327
-9.566004 -52.0989 41.687717
-11.274419 -50.610558 41.888096
-12.459017 -51.665112 38.286137
-12.904111 -50.111015 40.309464
-12.236 -47.963371 42.116962
-10.618924 -45.06884 41.44511
-7.657395 -42.781471 42.006916
-6.540179 -40.527489 43.510193
-5.86571 -40.167828 42.563099
-5.75164 -39.247562 41.550945
-5.715139 -37.618355 40.288467
-5.830403 -51.194897 20.389011
-9.49185 -57.703602 26.655823
-9.34547 -57.15966 24.97366
-9.144711 -56.535992 23.439209
-4.149977 -62.028267 21.566845
-6.157325 -59.336895 21.690018
-8.878031 -55.993958 21.92284
-8.466594 -55.130798 20.476536
-7.937421 -54.333763 18.92396
-7.458697 -53.803856 17.220652
-5.279815 -56.7967 15.004021
-4.645147 -59.053936 12.636006
-7.237764 -59.167259 12.175932
-9.254347 -58.843269 16.535542
-9.636527 -58.126881 14.397171
-10.706897 -58.384502 12.113852
-13.958181 -58.849922 11.674069
-17.006935 -60.322197 10.247146
-17.84067 -60.20332 8.849836
-9.706118 -54.989056 8.459328
-13.077655 -55.438408 9.368219
-14.904943 -57.096367 9.428386
-16.44166 -58.62841 9.087743
-24.149687 -65.749649 7.882761
-14.941129 -43.273995 71.690708
-15.251545 -43.422981 70.710319
-21.438682 -63.060035 19.592224
-20.656168 -61.627657 21.196061
-10.499035 -38.332457 41.73774
-11.31803 -39.062025 41.781643
-9.09706 -38.754931 42.512566
-10.499035 -38.332457 41.73774
-19.136299 -61.150143 21.876243
-17.482571 -60.612582 22.474424
-18.838294 -61.443895 22.735605
-20.656168 -61.627657 21.196061
-19.300444 -60.796343 20.93488
-19.136299 -61.150143 21.876243
-6.065892 -51.833817 17.214593
-6.162188 -51.807129 16.052617
-26.000312 -62.175373 4.080515
-26.033984 -63.623069 4.059365
-17.966164 -65.424637 27.332809
-18.516681 -65.149348 26.548904
-17.149978 -63.562044 28.174372
-15.392404 -42.538678 63.676317
-14.947607 -42.463389 64.587177
-15.687844 -44.132013 63.315823
-15.364949 -42.730566 62.686858
-15.392404 -42.538678 63.676317
-20.338732 -62.09537 12.873309
-20.275012 -62.305294 11.761456
-19.869258 -60.463842 13.600237
-17.237824 -76.501713 31.964488
-17.342264 -76.195393 33.202503
-17.789422 -69.289593 29.223032
-17.421374 -69.1781 30.249676
-14.31857 -41.732399 67.429108
-13.821416 -41.741255 68.425804
-15.613687 -42.939802 67.224407
-14.337488 -42.218947 66.486217
-14.31857 -41.732399 67.429108
-21.051673 -61.978287 16.82724
-20.822679 -61.765734 15.931057
-20.452076 -60.364054 17.546889
-12.960093 -47.725836 29.93527
-13.844814 -47.790508 30.54727
-13.384805 -49.335645 29.846272
-11.755573 -47.783279 29.579994
-12.960093 -47.725836 29.93527
-11.462674 -49.143999 29.197515
-11.755573 -47.783279 29.579994
-8.430145 -74.094383 48.795352
-7.860542 -73.048474 49.911006
-11.577862 -60.915177 57.182814
-12.370628 -59.303885 57.169087
-10.631807 -62.535675 57.08959
-11.065417 -61.2249 56.531815
-11.577862 -60.915177 57.182814
-7.921764 -66.759823 55.957964
-8.625796 -65.432403 56.785112
-7.248951 -68.004791 55.042023
-7.600794 -66.824871 54.961126
-7.921764 -66.759823 55.957964
-7.513731 -71.786503 51.281921
-7.215321 -70.54681 52.519025
-7.860542 -73.048474 49.911006
-7.267926 -71.980888 50.178774
-7.513731 -71.786503 51.281921
-24.139023 -58.060776 3.886784
-24.008794 -57.978496 4.817994
-25.029252 -59.373856 3.937847
-23.442269 -56.703293 3.916243
-24.139023 -58.060776 3.886784
-19.817723 -64.556767 24.185918
-20.301063 -64.381222 23.296314
-19.19794 -62.738006 24.845976
-18.268127 -40.518961 47.744742
-17.889179 -40.537534 48.995054
-18.170885 -39.916219 43.883904
-18.397539 -40.226961 45.110935
-17.899513 -41.183391 44.535083
-18.00396 -39.624733 42.611757
-18.170885 -39.916219 43.883904
-17.191555 -40.290729 42.264633
-17.522657 -39.042812 41.568338
-18.00396 -39.624733 42.611757
-17.551806 -78.509579 36.569428
-17.62773 -78.80207 35.55569
-17.150864 -77.085682 36.260044
-17.733629 -81.225296 37.531672
-17.866961 -80.651714 38.468048
-14.61119 -76.659458 45.126143
-13.269965 -76.500855 45.471593
-16.074424 -76.70295 44.752558
-14.962236 -76.540538 44.533935
-14.61119 -76.659458 45.126143
-18.627206 -79.07983 43.043806
-17.922465 -78.102833 43.702129
-18.276871 -79.706092 42.180672
-18.627206 -79.07983 43.043806
-16.074601 -41.288277 56.855694
-16.672877 -41.623766 55.95686
-16.038194 -43.374476 59.5492
-15.769105 -43.129087 60.589611
-15.760003 -44.960429 59.016165
-16.075664 -43.600876 58.379207
-16.038194 -43.374476 59.5492
-10.938624 -54.968941 61.157925
-10.125195 -54.905971 61.999172
-10.929569 -55.432904 60.29298
-10.938624 -54.968941 61.157925
-21.000238 -65.671993 8.563844
-20.506636 -65.571304 8.345194
-13.413071 -42.031008 34.397946
-14.055536 -43.415762 33.261969
-5.456971 -50.854064 22.676603
-5.736552 -51.337235 23.695519
-6.249457 -51.465948 21.283155
-5.037917 -50.583012 21.782459
-5.456971 -50.854064 22.676603
-6.766492 -54.774847 8.244093
-6.386976 -53.967496 9.1978
-23.403537 -66.350556 8.040725
-23.286498 -65.048245 8.041959
-22.540348 -65.649151 8.199923
-16.944196 -69.252846 31.202322
-17.421374 -69.1781 30.249676
-16.089416 -67.513794 31.960665
-17.344788 -43.968734 53.28145
-17.424271 -42.773281 52.687141
-17.267154 -42.602821 53.891817
-15.346365 -42.184952 69.167839
-13.821416 -41.741255 68.425804
-15.154481 -43.775127 69.779365
-15.402884 -44.04343 68.778824
-15.346365 -42.184952 69.167839
-15.308065 -45.28146 70.321304
-15.154481 -43.775127 69.779365
-15.251545 -43.422981 70.710319
-21.340822 -62.580691 18.666624
-21.271201 -62.232066 17.760811
-20.750691 -60.925232 19.348886
-21.340822 -62.580691 18.666624
-21.438682 -63.060035 19.592224
-5.961384 -51.940202 14.884974
-6.205101 -51.912377 13.849832
-6.66721 -53.207648 14.678217
-5.961384 -51.940202 14.884974
-6.162188 -51.807129 16.052617
-12.462563 -57.785112 58.044667
-12.795438 -57.425224 58.486038
-25.486565 -60.872827 3.95006
-25.412771 -60.594121 4.999512
-26.000312 -62.175373 4.080515
-25.029252 -59.373856 3.937847
-25.486565 -60.872827 3.95006
-18.92973 -65.010767 25.767322
-19.436782 -64.824165 24.939878
-18.207548 -63.100153 26.563023
-18.92973 -65.010767 25.767322
-18.516681 -65.149348 26.548904
-18.007759 -80.451656 39.739965
-17.866961 -80.651714 38.468048
-17.619376 -79.269531 39.152056
-15.738032 -42.924025 61.659714
-15.364949 -42.730566 62.686858
-15.691461 -44.528965 61.25626
-15.769105 -43.129087 60.589611
-15.738032 -42.924025 61.659714
-20.616568 -64.141117 10.048712
-20.147095 -62.50959 10.775639
-20.275012 -62.305294 11.761456
-20.506636 -65.571304 8.345194
-20.616568 -64.141117 10.048712
-17.344421 -74.57948 32.012582
-16.910508 -72.781959 32.386903
-16.474757 -72.547596 33.615864
-17.344421 -74.57948 32.012582
-17.237824 -76.501713 31.964488
-7.164469 -50.578423 28.21381
-8.31113 -50.383881 28.246027
-6.094349 -50.55258 27.875841
-7.164469 -50.578423 28.21381
-7.355244 -51.434718 26.895632
-5.354791 -50.426918 27.289991
-6.094349 -50.55258 27.875841
-5.544859 -51.173172 25.885702
-5.354791 -50.426918 27.289991
-6.376406 -51.548468 24.368894
-5.544859 -51.173172 25.885702
-7.116673 -51.784171 25.040855
-7.308366 -51.948233 22.850673
-5.736552 -51.337235 23.695519
-6.376406 -51.548468 24.368894
-18.146769 -56.481173 7.833961
-17.198673 -55.635813 7.653956
-15.881219 -55.394623 8.388763
-26.203143 -65.02185 4.107139
-26.033984 -63.623069 4.059365
-26.095678 -63.295448 5.177741
-16.867648 -65.862617 29.026738
-17.57717 -65.515171 28.198665
-15.889939 -64.184781 29.78635
-18.101597 -67.281166 28.360087
-16.867648 -65.862617 29.026738
-16.414367 -65.950776 29.947772
-18.436547 -69.274548 27.321993
-18.101597 -67.281166 28.360087
-18.330284 -69.25473 28.359583
-17.107455 -67.404187 30.144571
-17.789422 -69.289593 29.223032
-18.436547 -69.274548 27.321993
-18.330284 -69.25473 28.359583
-18.037326 -41.757511 49.656675
-17.889179 -40.537534 48.995054
-17.69114 -42.934837 51.49453
-17.424271 -42.773281 52.687141
-17.657746 -42.935253 50.208303
-17.69114 -42.934837 51.49453
-17.468511 -44.13961 50.790548
-17.814697 -42.962284 48.952694
-18.037326 -41.757511 49.656675
-17.657746 -42.935253 50.208303
-14.906259 -42.206501 65.575294
-14.337488 -42.218947 66.486217
-15.673952 -43.683238 65.2934
-14.947607 -42.463389 64.587177
-14.906259 -42.206501 65.575294
-20.594451 -61.816468 14.955445
-20.449398 -61.867676 13.986137
-20.07803 -60.202709 15.681397
-20.594451 -61.816468 14.955445
-20.822679 -61.765734 15.931057
-21.051673 -61.978287 16.82724
-21.271201 -62.232066 17.760811
-14.253993 -44.763058 32.280455
-14.055536 -43.415762 33.261969
-14.899285 -45.009172 33.14801
-14.258922 -46.268583 31.401381
-14.683634 -47.878393 31.312385
-13.844814 -47.790508 30.54727
-14.253993 -44.763058 32.280455
-14.258922 -46.268583 31.401381
-11.104938 -50.539299 28.74907
-11.462674 -49.143999 29.197515
-12.142348 -50.666273 28.785827
-10.306761 -50.381991 28.405204
-11.104938 -50.539299 28.74907
-10.986435 -51.904264 27.993517
-9.192577 -50.527079 28.454052
-10.306761 -50.381991 28.405204
-9.306811 -51.603758 27.441626
-8.31113 -50.383881 28.246027
-9.192577 -50.527079 28.454052
-6.308075 -54.281813 10.0914
-6.386976 -53.967496 9.1978
-6.420154 -53.293045 12.42157
-6.205101 -51.912377 13.849832
-5.975525 -54.558975 11.076623
-6.420154 -53.293045 12.42157
-6.021776 -54.606651 12.165627
-5.909695 -55.595418 9.835456
-6.308075 -54.281813 10.0914
-5.975525 -54.558975 11.076623
-8.178463 -74.292274 47.870216
-8.025184 -74.34404 46.809477
-7.461456 -73.294624 47.747118
-8.178463 -74.292274 47.870216
-8.430145 -74.094383 48.795352
-12.242671 -57.903238 57.561319
-11.97545 -56.684982 57.892851
-12.462563 -57.785112 58.044667
-11.883515 -58.203755 57.017271
-12.242671 -57.903238 57.561319
-12.370628 -59.303885 57.169087
-9.548674 -64.065151 57.065874
-10.631807 -62.535675 57.08959
-9.196485 -64.21265 56.15783
-9.548674 -64.065151 57.065874
-8.625796 -65.432403 56.785112
-7.218755 -69.222271 53.766773
-7.248951 -68.004791 55.042023
-6.924548 -69.394379 52.797438
-7.218755 -69.222271 53.766773
-7.215321 -70.54681 52.519025
-18.440426 -55.738958 6.916383
-17.198673 -55.635813 7.653956
-19.538988 -55.682384 6.430549
-18.440426 -55.738958 6.916383
-20.562784 -56.665789 6.61332
-20.585531 -55.583325 5.901518
-19.538988 -55.682384 6.430549
-21.314141 -55.611425 5.221241
-20.585531 -55.583325 5.901518
-22.389955 -56.637316 5.447209
-22.080327 -55.473562 4.593021
-21.314141 -55.611425 5.221241
-22.080327 -55.473562 4.593021
-23.442269 -56.703293 3.916243
-20.688841 -64.141407 22.360202
-20.086652 -62.271959 23.046897
-20.688841 -64.141407 22.360202
-20.301063 -64.381222 23.296314
-19.817723 -64.556767 24.185918
-19.436782 -64.824165 24.939878
-17.966164 -65.424637 27.332809
-17.57717 -65.515171 28.198665
-18.234071 -40.373756 46.425266
-18.268127 -40.518961 47.744742
-18.160222 -41.639337 47.081591
-18.234071 -40.373756 46.425266
-18.397539 -40.226961 45.110935
-17.00704 -38.473833 40.50119
-17.522657 -39.042812 41.568338
-15.938088 -38.995573 40.625094
-17.00704 -38.473833 40.50119
-14.701985 -39.305145 40.89968
-15.938088 -38.995573 40.625094
-15.474147 -40.018381 41.4958
-13.475054 -39.582953 41.46473
-14.701985 -39.305145 40.89968
-12.102374 -39.648151 41.998564
-13.475054 -39.582953 41.46473
-12.865363 -40.393152 42.30422
-10.708338 -39.872225 42.621134
-11.31803 -39.062025 41.781643
-12.102374 -39.648151 41.998564
-20.086652 -62.271959 23.046897
-18.838294 -61.443895 22.735605
-18.432923 -61.734398 23.645079
-17.082828 -76.057656 34.316648
-17.342264 -76.195393 33.202503
-16.649234 -74.207379 34.355688
-17.501323 -77.711922 34.204886
-17.082828 -76.057656 34.316648
-16.808293 -75.723907 35.35807
-17.494461 -79.25108 34.514154
-17.501323 -77.711922 34.204886
-17.494461 -79.25108 34.514154
-17.62773 -78.80207 35.55569
-17.753624 -79.847778 36.872606
-17.551806 -78.509579 36.569428
-17.276758 -78.131389 37.57696
-17.753624 -79.847778 36.872606
-17.733629 -81.225296 37.531672
-8.711217 -75.325703 46.012289
-7.99421 -74.328052 45.88919
-8.025184 -74.34404 46.809477
-9.69947 -75.88155 45.333952
-8.711217 -75.325703 46.012289
-10.925825 -76.213775 44.82927
-9.906598 -75.641941 44.587321
-9.69947 -75.88155 45.333952
-12.108849 -76.475215 45.24171
-13.269965 -76.500855 45.471593
-12.315977 -76.235607 44.495079
-10.925825 -76.213775 44.82927
-12.108849 -76.475215 45.24171
-17.131197 -77.13316 44.283829
-16.074424 -76.70295 44.752558
-17.216738 -77.553703 43.578651
-17.131197 -77.13316 44.283829
-17.922465 -78.102833 43.702129
-18.152956 -79.979141 40.894182
-17.88409 -78.796425 41.710462
-18.276871 -79.706092 42.180672
-18.007759 -80.451656 39.739965
-18.152956 -79.979141 40.894182
-16.838177 -42.197273 54.859448
-17.267154 -42.602821 53.891817
-17.022371 -43.224767 55.583538
-16.838177 -42.197273 54.859448
-16.672877 -41.623766 55.95686
-16.605463 -42.333092 57.796596
-16.074601 -41.288277 56.855694
-16.327272 -43.919044 57.263561
-16.605463 -42.333092 57.796596
-16.075664 -43.600876 58.379207
-15.51831 -44.554709 72.116867
-14.941129 -43.273995 71.690708
-15.131412 -45.991551 71.736996
-15.51831 -44.554709 72.116867
-14.300638 -47.471868 71.511131
-14.574355 -46.409632 71.026393
-15.131412 -45.991551 71.736996
-13.653474 -48.572784 71.08501
-14.300638 -47.471868 71.511131
-12.697249 -49.547556 70.694962
-12.787356 -48.864722 70.410481
-13.653474 -48.572784 71.08501
-11.997984 -50.466045 70.030247
-12.697249 -49.547556 70.694962
-11.192584 -51.279686 69.361583
-11.025731 -50.653133 69.351768
-11.997984 -50.466045 70.030247
-10.602218 -52.119246 68.367165
-11.192584 -51.279686 69.361583
-9.957588 -52.815897 67.3545
-9.575702 -52.163426 67.67044
-10.602218 -52.119246 68.367165
-9.603665 -53.407171 66.158775
-9.957588 -52.815897 67.3545
-9.343217 -53.907666 65.080288
-8.670626 -53.360571 65.579288
-9.603665 -53.407171 66.158775
-9.2385 -54.230871 63.818603
-9.343217 -53.907666 65.080288
-9.337259 -54.622182 62.616089
-8.508938 -54.252376 63.298286
-9.2385 -54.230871 63.818603
-9.395633 -54.927477 61.478855
-9.337259 -54.622182 62.616089
-10.125195 -54.905971 61.999172
-11.001487 -55.862591 59.452526
-10.255487 -55.640954 60.021484
-10.929569 -55.432904 60.29298
-11.935455 -56.110698 59.05011
-11.261374 -56.318748 58.778614
-11.001487 -55.862591 59.452526
-12.79763 -56.461925 58.536926
-11.935455 -56.110698 59.05011
-12.795438 -57.425224 58.486038
-12.79763 -56.461925 58.536926
-21.981735 -65.708386 8.219693
-22.540348 -65.649151 8.199923
-21.864695 -64.406075 8.220928
-21.408953 -65.731941 8.152746
-20.897367 -64.405361 8.651796
-21.000238 -65.671993 8.563844
-21.981735 -65.708386 8.219693
-21.408953 -65.731941 8.152746
-20.338732 -62.09537 12.873309
-20.449398 -61.867676 13.986137
-17.632967 -70.855957 30.55086
-16.944196 -69.252846 31.202322
-16.301009 -69.191651 32.261849
-17.384976 -72.804303 31.197004
-16.515312 -70.772419 32.800286
-16.910508 -72.781959 32.386903
-17.715626 -72.923508 29.957019
-17.384976 -72.804303 31.197004
-17.632967 -70.855957 30.55086
-17.715626 -72.923508 29.957019
-7.405152 -39.375626 43.065556
-9.09706 -38.754931 42.512566
-8.232087 -39.906794 42.957203
-7.067918 -39.195796 42.592009
-7.405152 -39.375626 43.065556
-6.202945 -40.347659 43.036646
-6.372044 -38.679909 42.664448
-7.067918 -39.195796 42.592009
-6.31501 -38.219776 42.158371
-6.372044 -38.679909 42.664448
-5.808675 -39.707695 42.057022
-5.743685 -37.717033 41.93136
-6.31501 -38.219776 42.158371
-5.725434 -36.902429 41.300121
-5.743685 -37.717033 41.93136
-5.733389 -38.432958 40.919706
-5.266795 -36.31703 40.639761
-5.725434 -36.902429 41.300121
-12.382077 -40.950992 35.606904
-13.669833 -42.581862 35.338482
-13.413071 -42.031008 34.397946
-10.562693 -39.881914 36.509306
-10.819455 -40.432767 37.449843
-12.382077 -40.950992 35.606904
-8.92512 -38.557596 37.553497
-10.562693 -39.881914 36.509306
-7.282653 -37.684929 38.521608
-7.357606 -38.491022 39.320356
-8.92512 -38.557596 37.553497
-5.797691 -36.884806 39.34383
-7.282653 -37.684929 38.521608
-5.266795 -36.31703 40.639761
-5.797691 -36.884806 39.34383
-5.047011 -49.942322 20.809978
-5.037917 -50.583012 21.782459
-5.547086 -50.893979 19.486168
-5.047011 -49.942322 20.809978
-6.361233 -52.198458 17.901989
-5.547086 -50.893979 19.486168
-6.64455 -52.499376 18.804831
-7.163355 -53.439215 16.533256
-6.065892 -51.833817 17.214593
-6.361233 -52.198458 17.901989
-7.74119 -55.243919 8.012363
-6.766492 -54.774847 8.244093
-7.216943 -55.787329 8.618505
-8.498428 -54.610247 8.04864
-7.74119 -55.243919 8.012363
-8.94888 -55.622728 8.423051
-9.073969 -54.062221 7.831922
-8.498428 -54.610247 8.04864
-10.471247 -54.366217 8.362463
-9.073969 -54.062221 7.831922
-12.157015 -54.590893 8.816909
-10.471247 -54.366217 8.362463
-11.391887 -55.213732 8.913773
-14.005389 -54.993836 8.788488
-12.157015 -54.590893 8.816909
-14.953485 -55.839196 8.968494
-15.881219 -55.394623 8.388763
-14.005389 -54.993836 8.788488
-24.013156 -67.190445 7.565835
-23.403537 -66.350556 8.040725
-24.778275 -66.389633 7.112802
-24.013156 -67.190445 7.565835
-25.266635 -65.418699 6.717954
-24.638047 -64.778715 7.487913
-24.778275 -66.389633 7.112802
-25.83585 -65.861923 5.78418
-25.695622 -64.251005 6.15929
-25.266635 -65.418699 6.717954
-25.982689 -66.29784 4.678427
-25.83585 -65.861923 5.78418
-26.203143 -65.02185 4.107139
-25.982689 -66.29784 4.678427
3 0 116 114
3 2 119 117
3 1 122 120
3 2 125 123
3 2 117 125
3 3 129 127
3 4 132 130
3 3 135 133
3 3 127 135
3 459 138 460
3 462 461 139
3 6 463 464
3 6 465 466
3 5 142 140
3 7 145 143
3 7 147 145
3 7 149 147
3 467 152 468
3 469 468 150
3 467 468 469
3 470 139 471
3 472 471 152
3 470 471 472
3 473 155 474
3 476 475 156
3 9 477 479
3 479 478 158
3 477 478 479
3 10 161 159
3 10 163 161
3 11 166 164
3 13 169 167
3 13 171 169
3 13 173 171
3 9 176 174
3 9 158 176
3 15 180 178
3 16 183 181
3 16 185 183
3 17 188 186
3 19 191 189
3 19 193 191
3 8 196 194
3 20 199 197
3 20 201 199
3 20 203 201
3 15 206 204
3 15 178 206
3 21 480 481
3 21 482 484
3 482 208 483
3 482 483 484
3 21 210 208
3 22 213 211
3 22 215 213
3 23 485 487
3 487 486 216
3 485 486 487
3 489 488 218
3 18 221 219
3 24 224 222
3 24 226 224
3 12 229 227
3 25 232 230
3 25 234 232
3 25 236 234
3 26 238 237
3 26 239 238
3 14 242 240
3 27 245 243
3 27 247 245
3 27 249 247
3 23 252 250
3 23 216 252
3 28 256 254
3 28 258 256
3 29 261 259
3 31 262 115
3 31 263 262
3 32 265 264
3 491 490 118
3 34 266 121
3 34 267 266
3 35 270 268
3 37 271 124
3 37 272 271
3 37 274 272
3 32 275 126
3 32 264 275
3 39 278 276
3 41 279 128
3 41 280 279
3 42 283 281
3 44 284 131
3 44 285 284
3 45 288 286
3 47 289 134
3 47 290 289
3 47 292 290
3 39 293 136
3 39 276 293
3 49 492 493
3 49 494 496
3 494 294 495
3 494 495 496
3 49 296 294
3 51 297 137
3 51 298 297
3 52 497 499
3 499 498 299
3 497 498 499
3 53 302 300
3 55 303 141
3 55 304 303
3 56 307 305
3 58 308 144
3 58 309 308
3 58 311 309
3 59 500 502
3 502 501 146
3 500 501 502
3 59 503 504
3 59 505 506
3 60 312 148
3 60 313 312
3 61 316 314
3 63 317 151
3 63 318 317
3 63 320 318
3 52 321 153
3 52 299 321
3 66 322 154
3 66 323 322
3 508 507 324
3 67 327 325
3 509 328 510
3 511 329 512
3 513 512 328
3 511 512 513
3 514 330 515
3 516 331 517
3 518 517 330
3 516 517 518
3 519 332 520
3 521 324 522
3 523 522 332
3 521 522 523
3 30 333 260
3 524 334 525
3 526 525 157
3 524 525 526
3 528 527 334
3 69 529 531
3 531 530 335
3 529 530 531
3 33 532 533
3 70 534 536
3 536 535 160
3 534 535 536
3 70 537 538
3 70 539 541
3 539 336 540
3 539 540 541
3 71 337 162
3 71 338 337
3 72 341 339
3 74 342 165
3 74 343 342
3 36 344 269
3 75 345 168
3 75 346 345
3 75 347 346
3 76 348 170
3 76 349 348
3 76 351 349
3 78 352 172
3 78 353 352
3 38 354 273
3 79 355 175
3 79 356 355
3 79 357 356
3 69 358 177
3 69 335 358
3 80 361 359
3 82 362 179
3 82 363 362
3 40 364 277
3 83 365 182
3 83 366 365
3 83 542 544
3 544 543 366
3 542 543 544
3 546 545 184
3 547 367 548
3 549 368 550
3 551 550 367
3 549 550 551
3 552 369 553
3 555 554 369
3 84 372 370
3 86 373 187
3 86 374 373
3 43 375 282
3 87 376 190
3 87 377 376
3 87 378 377
3 88 379 192
3 88 380 379
3 68 381 326
3 89 382 195
3 89 383 382
3 46 384 287
3 90 385 198
3 90 386 385
3 90 387 386
3 91 388 200
3 91 389 388
3 91 390 389
3 92 391 202
3 92 392 391
3 48 393 291
3 93 394 205
3 93 395 394
3 93 396 395
3 80 397 207
3 80 359 397
3 556 398 557
3 94 558 559
3 94 560 562
3 560 399 561
3 560 561 562
3 94 400 399
3 95 401 209
3 95 402 401
3 50 403 295
3 96 404 212
3 96 405 404
3 96 406 405
3 97 407 214
3 97 408 407
3 563 409 564
3 566 565 409
3 98 412 410
3 568 567 217
3 81 413 360
3 85 414 371
3 99 415 220
3 99 416 415
3 54 417 301
3 100 418 223
3 100 419 418
3 100 420 419
3 101 421 225
3 101 422 421
3 73 423 340
3 102 424 228
3 102 425 424
3 57 426 306
3 103 427 231
3 103 428 427
3 103 429 428
3 104 430 233
3 104 431 430
3 104 432 431
3 105 433 235
3 105 434 433
3 570 569 310
3 106 571 572
3 106 573 575
3 573 435 574
3 573 574 575
3 77 436 350
3 107 437 241
3 107 438 437
3 62 439 315
3 108 440 244
3 108 441 440
3 108 442 441
3 109 443 246
3 109 444 443
3 109 445 444
3 110 446 248
3 110 447 446
3 64 448 319
3 111 449 251
3 111 450 449
3 111 451 450
3 98 452 253
3 98 410 452
3 65 576 577
3 113 454 255
3 113 455 454
3 113 456 455
3 112 457 257
3 112 453 457
3 578 458 579
3 580 579 411
3 578 579 580
3 114 115 29
3 116 115 114
3 116 31 115
3 117 118 32
3 119 118 117
3 119 581 583
3 583 582 118
3 581 582 583
3 120 584 586
3 584 121 585
3 584 585 586
3 122 121 120
3 122 34 121
3 123 124 35
3 125 124 123
3 125 37 124
3 125 126 37
3 117 126 125
3 117 32 126
3 127 128 39
3 129 128 127
3 129 41 128
3 130 131 42
3 132 131 130
3 132 44 131
3 133 134 45
3 135 134 133
3 135 47 134
3 135 136 47
3 127 136 135
3 127 39 136
3 587 49 588
3 589 137 590
3 591 590 49
3 589 590 591
3 138 592 594
3 592 137 593
3 592 593 594
3 138 51 137
3 139 595 597
3 597 596 52
3 595 596 597
3 599 598 139
3 140 141 53
3 142 141 140
3 142 55 141
3 143 144 56
3 145 144 143
3 145 58 144
3 145 146 58
3 147 146 145
3 147 59 146
3 147 148 59
3 149 148 147
3 149 60 148
3 150 151 61
3 152 151 150
3 152 63 151
3 152 153 63
3 139 153 152
3 139 52 153
3 600 154 601
3 155 602 604
3 602 154 603
3 602 603 604
3 155 66 154
3 606 605 67
3 156 157 30
3 607 157 608
3 609 608 156
3 607 608 609
3 611 610 157
3 158 612 614
3 614 613 69
3 612 613 614
3 616 615 158
3 159 160 33
3 161 160 159
3 161 70 160
3 161 162 70
3 163 162 161
3 163 71 162
3 164 165 72
3 166 165 164
3 166 74 165
3 167 168 36
3 169 168 167
3 169 75 168
3 169 170 75
3 171 170 169
3 171 76 170
3 171 172 76
3 173 172 171
3 173 78 172
3 174 175 38
3 176 175 174
3 176 79 175
3 176 177 79
3 158 177 176
3 158 69 177
3 178 179 80
3 180 179 178
3 180 82 179
3 181 182 40
3 183 182 181
3 183 83 182
3 183 184 83
3 185 184 183
3 185 617 619
3 619 618 184
3 617 618 619
3 186 187 84
3 188 187 186
3 188 86 187
3 189 190 43
3 191 190 189
3 191 87 190
3 191 192 87
3 193 192 191
3 193 88 192
3 194 195 68
3 196 195 194
3 196 89 195
3 197 198 46
3 199 198 197
3 199 90 198
3 199 200 90
3 201 200 199
3 201 91 200
3 201 202 91
3 203 202 201
3 203 92 202
3 204 205 48
3 206 205 204
3 206 93 205
3 206 207 93
3 178 207 206
3 178 80 207
3 208 620 621
3 208 622 624
3 622 94 623
3 622 623 624
3 208 209 94
3 210 209 208
3 210 95 209
3 211 212 50
3 213 212 211
3 213 96 212
3 213 214 96
3 215 214 213
3 215 97 214
3 216 217 98
3 625 217 626
3 627 626 216
3 625 626 627
3 629 628 217
3 218 630 632
3 632 631 81
3 630 631 632
3 634 633 218
3 219 220 85
3 221 220 219
3 221 99 220
3 222 223 54
3 224 223 222
3 224 100 223
3 224 225 100
3 226 225 224
3 226 101 225
3 227 228 73
3 229 228 227
3 229 102 228
3 230 231 57
3 232 231 230
3 232 103 231
3 232 233 103
3 234 233 232
3 234 104 233
3 234 235 104
3 236 235 234
3 236 105 235
3 237 635 636
3 238 637 639
3 639 638 237
3 637 638 639
3 238 640 641
3 238 642 643
3 239 644 646
3 646 645 238
3 644 645 646
3 239 647 649
3 647 106 648
3 647 648 649
3 240 241 77
3 242 241 240
3 242 107 241
3 243 244 62
3 245 244 243
3 245 108 244
3 245 246 108
3 247 246 245
3 247 109 246
3 247 248 109
3 249 248 247
3 249 110 248
3 250 251 64
3 252 251 250
3 252 111 251
3 252 253 111
3 216 253 252
3 216 98 253
3 254 255 65
3 256 255 254
3 256 113 255
3 256 257 113
3 258 257 256
3 258 112 257
3 259 650 652
3 650 260 651
3 650 651 652
3 261 260 259
3 261 30 260
3 115 261 29
3 262 261 115
3 262 30 261
3 262 156 30
3 263 156 262
3 263 653 655
3 655 654 156
3 653 654 655
3 264 656 658
3 658 657 9
3 656 657 658
3 265 659 661
3 661 660 264
3 659 660 661
3 265 662 663
3 118 265 32
3 664 265 665
3 666 665 118
3 664 665 666
3 668 667 265
3 669 33 670
3 121 671 672
3 266 673 675
3 675 674 121
3 673 674 675
3 266 676 678
3 676 33 677
3 676 677 678
3 266 159 33
3 267 159 266
3 267 10 159
3 268 269 11
3 270 269 268
3 270 36 269
3 124 270 35
3 271 270 124
3 271 36 270
3 271 167 36
3 272 167 271
3 272 13 167
3 272 273 13
3 274 273 272
3 274 38 273
3 126 274 37
3 275 274 126
3 275 38 274
3 275 174 38
3 264 174 275
3 264 9 174
3 276 277 15
3 278 277 276
3 278 40 277
3 128 278 39
3 279 278 128
3 279 40 278
3 279 181 40
3 280 181 279
3 280 16 181
3 281 282 17
3 283 282 281
3 283 43 282
3 131 283 42
3 284 283 131
3 284 43 283
3 284 189 43
3 285 189 284
3 285 19 189
3 286 287 8
3 288 287 286
3 288 46 287
3 134 288 45
3 289 288 134
3 289 46 288
3 289 197 46
3 290 197 289
3 290 20 197
3 290 291 20
3 292 291 290
3 292 48 291
3 136 292 47
3 293 292 136
3 293 48 292
3 293 204 48
3 276 204 293
3 276 15 204
3 294 679 680
3 294 681 683
3 681 21 682
3 681 682 683
3 294 295 21
3 296 295 294
3 296 50 295
3 137 296 49
3 297 296 137
3 297 50 296
3 297 211 50
3 298 211 297
3 298 22 211
3 299 684 686
3 686 685 23
3 684 685 686
3 688 687 299
3 690 689 52
3 300 301 18
3 302 301 300
3 302 54 301
3 141 302 53
3 303 302 141
3 303 54 302
3 303 222 54
3 304 222 303
3 304 24 222
3 305 306 12
3 307 306 305
3 307 57 306
3 144 307 56
3 308 307 144
3 308 57 307
3 308 230 57
3 309 230 308
3 309 25 230
3 309 310 25
3 311 310 309
3 311 691 693
3 693 692 310
3 691 692 693
3 146 311 58
3 694 311 695
3 696 695 146
3 694 695 696
3 698 697 311
3 148 699 701
3 701 700 59
3 699 700 701
3 312 702 704
3 704 703 148
3 702 703 704
3 312 705 706
3 312 707 709
3 707 237 708
3 707 708 709
3 313 237 312
3 313 26 237
3 314 315 14
3 316 315 314
3 316 62 315
3 151 316 61
3 317 316 151
3 317 62 316
3 317 243 62
3 318 243 317
3 318 27 243
3 318 319 27
3 320 319 318
3 320 64 319
3 153 320 63
3 321 320 153
3 321 64 320
3 321 250 64
3 299 250 321
3 299 23 250
3 710 65 711
3 154 712 713
3 322 714 716
3 716 715 154
3 714 715 716
3 322 717 719
3 717 65 718
3 717 718 719
3 322 254 65
3 323 254 322
3 323 28 254
3 324 720 722
3 722 721 3
3 720 721 722
3 724 723 324
3 325 326 4
3 327 326 325
3 327 68 326
3 725 327 726
3 727 726 67
3 725 726 727
3 328 728 730
3 728 327 729
3 728 729 730
3 328 68 327
3 328 194 68
3 329 194 328
3 329 8 194
3 731 329 732
3 330 733 735
3 733 329 734
3 733 734 735
3 330 8 329
3 330 286 8
3 331 286 330
3 331 45 286
3 736 331 737
3 332 738 740
3 738 331 739
3 738 739 740
3 332 45 331
3 332 133 45
3 324 133 332
3 324 3 133
3 260 741 742
3 333 743 745
3 745 744 260
3 743 744 745
3 333 746 747
3 157 333 30
3 334 333 157
3 334 748 750
3 750 749 333
3 748 749 750
3 334 751 752
3 754 753 334
3 335 755 756
3 758 757 335
3 760 759 69
3 762 761 9
3 160 763 765
3 765 764 33
3 763 764 765
3 767 766 160
3 336 768 769
3 336 770 771
3 162 336 70
3 337 336 162
3 337 772 774
3 774 773 336
3 772 773 774
3 337 775 776
3 338 777 779
3 779 778 337
3 777 778 779
3 338 780 782
3 780 6 781
3 780 781 782
3 339 340 5
3 341 340 339
3 341 73 340
3 165 341 72
3 342 341 165
3 342 73 341
3 342 227 73
3 343 227 342
3 343 12 227
3 269 166 11
3 344 166 269
3 344 74 166
3 168 344 36
3 345 344 168
3 345 74 344
3 345 343 74
3 346 343 345
3 346 12 343
3 346 305 12
3 347 305 346
3 347 56 305
3 170 347 75
3 348 347 170
3 348 56 347
3 348 143 56
3 349 143 348
3 349 7 143
3 349 350 7
3 351 350 349
3 351 77 350
3 172 351 76
3 352 351 172
3 352 77 351
3 352 240 77
3 353 240 352
3 353 14 240
3 273 173 13
3 354 173 273
3 354 78 173
3 175 354 38
3 355 354 175
3 355 78 354
3 355 353 78
3 356 353 355
3 356 14 353
3 356 314 14
3 357 314 356
3 357 61 314
3 177 357 79
3 358 357 177
3 358 61 357
3 358 150 61
3 335 150 358
3 335 783 785
3 785 784 150
3 783 784 785
3 359 360 2
3 361 360 359
3 361 81 360
3 179 361 80
3 362 361 179
3 362 81 361
3 362 218 81
3 363 218 362
3 363 786 788
3 788 787 218
3 786 787 788
3 277 180 15
3 364 180 277
3 364 82 180
3 182 364 40
3 365 364 182
3 365 82 364
3 365 363 82
3 366 363 365
3 366 789 791
3 791 790 363
3 789 790 791
3 366 792 793
3 795 794 366
3 184 796 798
3 798 797 83
3 796 797 798
3 800 799 184
3 801 129 802
3 803 802 3
3 801 802 803
3 804 129 805
3 806 41 807
3 808 807 129
3 806 807 808
3 367 809 810
3 367 811 813
3 811 41 812
3 811 812 813
3 367 280 41
3 368 280 367
3 368 16 280
3 814 368 815
3 369 816 818
3 816 368 817
3 816 817 818
3 369 16 368
3 369 185 16
3 819 185 820
3 821 820 369
3 819 820 821
3 823 822 185
3 370 371 1
3 372 371 370
3 372 85 371
3 187 372 84
3 373 372 187
3 373 85 372
3 373 219 85
3 374 219 373
3 374 18 219
3 282 188 17
3 375 188 282
3 375 86 188
3 190 375 43
3 376 375 190
3 376 86 375
3 376 374 86
3 377 374 376
3 377 18 374
3 377 300 18
3 378 300 377
3 378 53 300
3 192 378 87
3 379 378 192
3 379 53 378
3 379 140 53
3 380 140 379
3 380 5 140
3 326 132 4
3 381 132 326
3 381 44 132
3 195 381 68
3 382 381 195
3 382 44 381
3 382 285 44
3 383 285 382
3 383 19 285
3 287 196 8
3 384 196 287
3 384 89 196
3 198 384 46
3 385 384 198
3 385 89 384
3 385 383 89
3 386 383 385
3 386 19 383
3 386 193 19
3 387 193 386
3 387 88 193
3 200 387 90
3 388 387 200
3 388 88 387
3 388 380 88
3 389 380 388
3 389 5 380
3 389 339 5
3 390 339 389
3 390 72 339
3 202 390 91
3 391 390 202
3 391 72 390
3 391 164 72
3 392 164 391
3 392 11 164
3 291 203 20
3 393 203 291
3 393 92 203
3 205 393 48
3 394 393 205
3 394 92 393
3 394 392 92
3 395 392 394
3 395 11 392
3 395 268 11
3 396 268 395
3 396 35 268
3 207 396 93
3 397 396 207
3 397 35 396
3 397 123 35
3 359 123 397
3 359 2 123
3 824 120 825
3 398 826 828
3 826 120 827
3 826 827 828
3 398 1 120
3 829 398 830
3 399 831 833
3 831 398 832
3 831 832 833
3 399 1 398
3 399 370 1
3 400 370 399
3 400 84 370
3 209 400 94
3 401 400 209
3 401 84 400
3 401 186 84
3 402 186 401
3 402 17 186
3 295 210 21
3 403 210 295
3 403 95 210
3 212 403 50
3 404 403 212
3 404 95 403
3 404 402 95
3 405 402 404
3 405 17 402
3 405 281 17
3 406 281 405
3 406 42 281
3 214 406 96
3 407 406 214
3 407 42 406
3 407 130 42
3 408 130 407
3 408 4 130
3 834 138 835
3 836 138 837
3 838 51 839
3 840 839 138
3 838 839 840
3 841 51 842
3 843 298 844
3 845 844 51
3 843 844 845
3 846 298 847
3 848 22 849
3 850 849 298
3 848 849 850
3 851 22 852
3 853 215 854
3 855 854 22
3 853 854 855
3 856 215 857
3 858 97 859
3 860 859 215
3 858 859 860
3 861 97 862
3 863 408 864
3 865 864 97
3 863 864 865
3 409 866 868
3 866 408 867
3 866 867 868
3 409 4 408
3 409 325 4
3 869 325 870
3 871 870 409
3 869 870 871
3 872 67 873
3 874 873 325
3 872 873 874
3 875 67 876
3 878 877 67
3 410 411 0
3 412 411 410
3 412 879 881
3 881 880 411
3 879 880 881
3 217 412 98
3 882 412 883
3 884 883 217
3 882 883 884
3 886 885 412
3 888 887 23
3 360 119 2
3 413 119 360
3 413 889 891
3 891 890 119
3 889 890 891
3 892 413 893
3 894 893 81
3 892 893 894
3 895 413 896
3 898 897 413
3 371 122 1
3 414 122 371
3 414 34 122
3 220 414 85
3 415 414 220
3 415 34 414
3 415 267 34
3 416 267 415
3 416 10 267
3 301 221 18
3 417 221 301
3 417 99 221
3 223 417 54
3 418 417 223
3 418 99 417
3 418 416 99
3 419 416 418
3 419 10 416
3 419 163 10
3 420 163 419
3 420 71 163
3 225 420 100
3 421 420 225
3 421 71 420
3 421 338 71
3 422 338 421
3 422 6 338
3 340 142 5
3 423 142 340
3 423 55 142
3 228 423 73
3 424 423 228
3 424 55 423
3 424 304 55
3 425 304 424
3 425 24 304
3 306 229 12
3 426 229 306
3 426 102 229
3 231 426 57
3 427 426 231
3 427 102 426
3 427 425 102
3 428 425 427
3 428 24 425
3 428 226 24
3 429 226 428
3 429 101 226
3 233 429 103
3 430 429 233
3 430 101 429
3 430 422 101
3 431 422 430
3 431 6 422
3 431 899 901
3 901 900 6
3 899 900 901
3 432 902 904
3 904 903 431
3 902 903 904
3 432 905 906
3 235 432 104
3 433 432 235
3 433 907 909
3 909 908 432
3 907 908 909
3 433 910 911
3 434 912 914
3 914 913 433
3 912 913 914
3 434 915 916
3 310 236 25
3 917 236 918
3 919 918 310
3 917 918 919
3 920 105 921
3 922 921 236
3 920 921 922
3 923 105 924
3 925 434 926
3 927 926 105
3 925 926 927
3 928 434 929
3 931 930 434
3 435 932 933
3 435 934 935
3 350 149 7
3 436 149 350
3 436 60 149
3 241 436 77
3 437 436 241
3 437 60 436
3 437 313 60
3 438 313 437
3 438 26 313
3 315 242 14
3 439 242 315
3 439 107 242
3 244 439 62
3 440 439 244
3 440 107 439
3 440 438 107
3 441 438 440
3 441 26 438
3 441 239 26
3 442 239 441
3 442 106 239
3 246 442 108
3 443 442 246
3 443 106 442
3 443 435 106
3 444 435 443
3 444 936 938
3 938 937 435
3 936 937 938
3 444 939 941
3 939 155 940
3 939 940 941
3 445 155 444
3 445 66 155
3 248 445 109
3 446 445 248
3 446 66 445
3 446 323 66
3 447 323 446
3 447 28 323
3 319 249 27
3 448 249 319
3 448 110 249
3 251 448 64
3 449 448 251
3 449 110 448
3 449 447 110
3 450 447 449
3 450 28 447
3 450 258 28
3 451 258 450
3 451 112 258
3 253 451 111
3 452 451 253
3 452 112 451
3 452 453 112
3 410 453 452
3 410 0 453
3 255 942 944
3 944 943 65
3 942 943 944
3 454 945 947
3 947 946 255
3 945 946 947
3 454 948 949
3 454 950 951
3 455 952 954
3 954 953 454
3 952 953 954
3 455 955 956
3 455 957 959
3 957 259 958
3 957 958 959
3 456 259 455
3 456 29 259
3 257 456 113
3 457 456 257
3 457 29 456
3 457 114 29
3 453 114 457
3 453 0 114
3 411 116 0
3 458 116 411
3 458 31 116
3 960 458 961
3 962 458 963
3 964 31 965
3 966 965 458
3 964 965 966
3 967 263 968
3 969 968 31
3 967 968 969
3 970 263 971
3 973 972 263
