ply
format ascii 1.0
element vertex 916
property float x
property float y
property float z
element face 1212
property list uchar int vertex_index
end_header
-41.523941 -67.886139 27.374378
-50.336304 -61.944725 36.300362
-44.155315 -54.018627 21.968929
-38.49892 -67.408585 46.3946
-44.391331 -75.948067 14.787341
-27.658627 -64.756554 37.292046
-36.244152 -83.423508 26.565063
-48.105827 -54.108643 31.532557
-46.667362 -57.526428 40.7925
-43.342674 -70.458748 22.172649
-41.55114 -70.408524 11.812872
-41.662983 -65.368484 17.766068
-39.37426 -70.177269 38.132385
-34.030117 -78.1698 39.271351
-42.26577 -74.963211 30.260763
-42.192223 -79.216553 21.258133
-41.733906 -63.692474 33.837818
-37.90733 -59.595924 26.026764
-48.068504 -59.329052 28.391699
-51.663643 -54.493614 24.830276
-33.067341 -50.321159 32.966694
-34.584251 -58.825207 37.127808
-40.078651 -58.681801 39.786339
-44.293385 -65.097519 42.849628
-39.687366 -57.690926 14.52516
-28.782852 -67.205673 24.31184
-32.403576 -68.401535 42.97541
-31.575516 -75.011154 31.538599
-32.745697 -78.63237 16.681274
-36.325352 -86.945312 14.733853
-35.628986 -81.779884 9.830777
-45.963882 -69.325989 24.327145
-43.989861 -68.474709 19.351454
-42.028767 -65.975922 22.852108
-39.796638 -69.465073 32.574684
-39.830101 -73.509201 33.388161
-44.719734 -71.751343 29.274668
-44.722652 -72.959106 25.82402
-46.748936 -63.348244 35.007572
-44.678425 -61.203835 31.243652
-50.085194 -61.452606 32.29488
-50.080296 -54.675049 27.777042
-37.432312 -54.854576 34.636208
-41.257141 -54.846039 35.657032
-49.221138 -59.8825 40.725441
-46.453209 -61.935486 43.021675
-47.956501 -63.938927 39.628689
-43.520557 -64.537888 38.154095
-43.003609 -78.073837 9.897253
-47.820488 -75.82695 11.157013
-41.684486 -65.898422 10.783483
-43.646717 -68.586006 8.659657
-40.560192 -55.964775 24.027313
-37.539192 -58.499744 20.151495
-38.947029 -54.207203 18.490067
-28.713818 -64.861191 31.19453
-37.279076 -63.800861 41.451302
-34.156796 -63.539421 40.41238
-35.038445 -68.478378 45.150063
-34.010368 -81.021683 33.153503
-31.681864 -78.950607 36.133411
-32.344368 -81.130783 29.047113
-33.108986 -77.148422 23.882992
-34.794628 -81.837875 22.318356
-35.099525 -82.914536 16.274273
-37.132698 -84.922325 20.846828
-43.232704 -77.325745 18.144733
-39.844559 -81.981094 15.438312
-39.273266 -78.098221 12.91378
-49.387413 -57.819 38.365318
-49.895428 -58.289967 33.972073
-48.68029 -54.152496 36.028553
-44.109196 -54.112282 37.738583
-49.692139 -56.303547 42.580173
-42.469261 -73.556679 18.175831
-44.623764 -73.42424 13.523061
-40.983456 -70.219666 16.992697
-41.062561 -67.113388 15.08163
-42.195271 -64.354874 12.767678
-48.303032 -52.285603 20.97901
-39.329765 -69.655296 44.093178
-35.671402 -72.588272 45.558006
-36.719635 -73.974098 39.270374
-37.611801 -76.809456 33.773884
-37.5397 -77.525406 29.096384
-39.146606 -81.540749 23.883028
-39.930485 -75.485855 26.06513
-41.077732 -74.437294 22.391083
-39.032135 -65.992966 31.051403
-38.394249 -63.937328 26.869522
-39.511822 -61.723015 30.072754
-42.474335 -58.638481 27.400105
-45.403599 -56.511921 25.203119
-51.801746 -58.522217 29.738775
-50.764576 -57.562786 25.956333
-48.951595 -54.859447 23.418911
-30.235209 -54.971973 35.667007
-33.555859 -54.814404 34.375313
-37.068268 -58.659046 38.588211
-39.853416 -62.812248 43.121399
-43.858582 -58.939342 39.771019
-42.734222 -62.680126 44.468864
-41.264011 -66.286911 45.606129
-41.122932 -67.411926 41.155811
-40.133976 -66.641953 35.827339
-45.981514 -72.181374 9.414026
-38.846336 -62.265633 21.62817
-39.869743 -61.585804 16.101597
-30.951324 -59.055328 37.224113
-31.350281 -63.249626 39.957661
-29.542377 -67.764297 41.474903
-32.403198 -73.635513 43.565231
-31.279266 -71.952126 40.256065
-30.954865 -68.726303 35.149353
-30.687292 -70.834427 27.332449
-31.326412 -73.238838 19.361403
-29.476543 -81.637207 12.415277
-31.469894 -86.298813 12.308125
-39.963531 -84.153183 17.562622
-36.679192 -86.260674 11.18123
-43.57803 -68.63356 25.850916
-43.871483 -67.559059 23.533264
-42.017181 -66.757057 25.302666
-40.812832 -68.870239 30.131922
-42.025604 -70.720329 30.86285
-43.346207 -69.871964 28.074497
-45.828888 -70.518234 26.597057
-49.203667 -63.421806 35.473492
-48.47718 -62.733665 33.507057
-50.615852 -61.881214 34.388985
-39.504337 -52.621246 33.974136
-49.949203 -60.911316 38.628735
-48.921864 -62.258339 40.172821
-49.415619 -63.016277 37.808392
-47.877602 -64.121155 37.281715
-43.554729 -76.601326 11.964562
-45.810562 -77.675133 10.882826
-46.185596 -75.96698 12.766972
-42.916668 -65.247162 9.309075
-42.243126 -54.795296 22.952154
-39.418232 -54.940269 21.3887
-41.197678 -53.602314 20.637764
-26.747173 -63.030556 35.946739
-26.884363 -63.080029 32.968201
-28.101572 -64.779106 34.117355
-37.981544 -65.691139 44.08548
-36.268917 -65.912994 43.473991
-36.67411 -68.03849 46.051884
-35.003544 -82.399612 29.864277
-32.674519 -82.128197 31.606625
-34.175671 -83.128738 28.027243
-33.987812 -81.76767 25.774548
-35.250286 -83.385231 24.828146
-36.100834 -83.591209 21.936752
-36.840336 -84.142349 23.784414
-43.394207 -76.591873 16.31493
-41.230255 -78.26693 15.553227
-41.548126 -76.829544 13.460185
-40.450859 -77.245308 10.815325
-49.474918 -55.741833 39.575878
-48.816013 -56.002216 37.216408
-49.342445 -54.218311 38.424477
-50.256336 -55.512245 41.896694
-49.818775 -56.941841 40.694908
-41.235027 -71.839378 20.366032
-41.469299 -72.119537 17.388226
-41.455547 -70.11216 19.63106
-43.189835 -66.817017 18.49176
-42.144989 -67.723602 17.490808
-42.132603 -66.53125 16.20126
-41.627296 -65.689232 13.86648
-42.050236 -65.05938 15.061201
-39.361767 -70.19886 41.04781
-38.006783 -71.976784 42.04438
-38.14119 -71.963295 38.728519
-41.595333 -74.67514 32.314827
-39.255821 -75.417679 34.02784
-39.976063 -76.048416 31.974417
-37.822186 -77.308777 31.688797
-39.965797 -75.758553 30.135202
-38.99881 -76.015602 27.675364
-41.411846 -74.742104 28.50824
-44.402302 -71.57988 24.047058
-42.206318 -72.835815 24.671902
-41.62656 -72.132713 22.685278
-41.796673 -74.040039 20.330166
-39.926525 -64.651283 32.560795
-38.951817 -63.76226 30.692768
-40.662262 -62.581688 31.947815
-46.418476 -60.288074 29.674505
-43.547951 -59.942883 29.277258
-45.228111 -58.951283 27.940716
-43.931602 -57.448608 26.419605
-46.599304 -58.044239 26.898382
-48.923344 -56.423035 32.642342
-50.933197 -58.290649 31.776505
-49.827072 -56.48951 30.594967
-51.05724 -54.710888 26.382757
-51.570808 -56.396599 27.17248
-51.541237 -56.237812 25.447088
-49.551445 -56.254345 24.730345
-50.936302 -55.489704 23.872702
-33.320869 -52.58136 33.125511
-38.884109 -56.937782 37.03894
-37.056305 -56.639294 36.674549
-38.154209 -58.373878 39.369526
-38.437103 -60.683662 40.952858
-39.568451 -60.242603 41.963203
-45.470173 -56.042473 39.336018
-44.214104 -56.596413 38.375652
-45.338299 -58.238808 40.014229
-45.750282 -63.650097 43.466682
-44.573509 -62.469124 43.996384
-43.824318 -64.288582 44.651726
-42.087013 -64.502502 45.332447
-42.543056 -65.843063 44.265732
-41.209087 -67.151199 43.492985
-42.423965 -66.132568 42.078285
-42.758846 -64.151611 35.807423
-41.482498 -65.394119 37.092464
-40.925438 -65.214828 34.696751
-39.452297 -66.462936 33.391235
-42.77961 -72.323257 12.313321
-45.39082 -73.280167 11.163843
-43.749634 -71.867722 10.357583
-42.830452 -67.065712 6.984153
-37.712189 -61.837463 26.560247
-38.670906 -62.965759 24.384731
-37.719063 -61.122307 23.801197
-38.236038 -58.106243 17.275555
-38.516499 -60.100121 17.980137
-39.74926 -59.645313 15.347603
-41.47657 -60.98122 13.640552
-41.824665 -59.24456 13.20405
-41.061199 -52.093163 15.65994
-32.447716 -56.852551 35.930122
-32.62162 -59.06599 36.933144
-33.392502 -65.788132 42.120827
-32.69841 -63.390461 40.051441
-32.075356 -65.768967 41.504326
-30.878933 -65.669022 40.894562
-31.039865 -68.234383 42.122921
-34.429192 -75.615105 42.557533
-33.718834 -73.587502 44.931656
-32.608421 -76.499115 41.594288
-31.64179 -77.339066 33.688637
-31.839794 -75.431396 37.640888
-32.020714 -73.746437 35.774143
-31.311386 -70.465599 38.084301
-31.852728 -71.651962 33.587242
-31.025494 -69.627098 31.424282
-31.179291 -72.787491 29.454193
-32.997108 -77.892822 20.207226
-32.359619 -75.232597 21.321705
-31.465551 -76.29203 17.693708
-29.731436 -75.065987 16.220001
-30.384119 -77.863968 14.596222
-28.535297 -79.710541 12.779418
-31.576715 -79.686203 14.057875
-35.577152 -85.063858 15.864471
-33.290943 -84.107643 13.847231
-34.06094 -86.52343 13.461655
-32.369343 -88.639313 12.52667
-34.692516 -88.612686 12.667265
-41.029659 -80.337204 22.759123
-39.885937 -83.003868 20.963718
-41.592781 -81.849106 19.476976
-37.736378 -82.139992 12.342296
-38.173988 -83.980179 13.035269
-36.077133 -84.232368 10.222959
-34.224255 -86.291084 8.936568
-33.631409 -83.98439 8.146287
-45.999805 -70.498627 22.81447
-43.899151 -69.725296 20.505863
-45.244919 -68.879013 21.592833
-43.436504 -67.276772 20.989904
-41.618217 -65.875206 20.379282
-39.116375 -69.794823 35.272762
-38.222584 -71.597237 35.395424
-39.990253 -71.598083 32.929527
-42.467522 -72.670715 31.723749
-44.224335 -73.74971 30.124899
-44.111263 -74.096367 28.061901
-45.993484 -72.59082 27.337841
-46.6576 -71.436928 25.01412
-44.194221 -63.178886 34.71719
-43.135536 -62.298302 32.75407
-45.777534 -62.439953 33.307076
-47.399723 -61.775166 31.558163
-49.283302 -60.63689 30.089371
-48.861923 -52.079918 30.684784
-48.945927 -54.360638 29.48555
-35.107857 -50.239189 32.726788
-35.46946 -52.51783 32.979221
-37.589214 -52.656982 33.263481
-39.385468 -54.948418 35.018654
-40.783642 -57.161705 37.386345
-48.038857 -58.757286 41.681374
-46.618904 -59.81144 41.511616
-47.97599 -61.118065 41.737022
-47.459709 -63.100208 42.001812
-46.268269 -64.491226 41.40374
-44.08741 -65.061951 40.564049
-46.053291 -64.495422 39.138237
-45.238197 -63.854694 36.609116
-41.036068 -67.989609 11.36039
-42.501583 -69.64193 10.027935
-42.185925 -67.366013 9.717792
-43.199135 -66.246399 8.220189
-38.900291 -57.633789 24.992743
-37.481239 -58.969135 23.153286
-38.037731 -56.886543 22.254883
-37.790447 -56.200447 19.235157
-38.382759 -55.876537 16.282478
-27.247671 -63.620983 29.962948
-28.883947 -65.776749 27.96973
-36.204552 -61.30056 39.148811
-34.545872 -61.27758 38.569958
-35.656902 -63.69453 40.879009
-34.741173 -66.063354 42.747601
-33.719131 -68.598099 44.033459
-33.977318 -79.723892 36.181152
-32.46225 -79.124428 38.162239
-32.260296 -80.796089 35.066231
-31.550003 -80.20372 32.781467
-31.780224 -78.346497 29.82456
-31.848774 -76.22892 27.337864
-32.800049 -79.203934 26.634907
-34.02079 -79.692238 23.249866
-34.065086 -80.081924 19.594387
-34.290638 -80.60154 16.537731
-35.422424 -81.950829 19.545481
-36.377083 -84.197655 18.877707
-37.409454 -85.502975 17.743389
-43.055061 -78.088791 19.710966
-42.368755 -80.57814 18.174614
-42.015274 -79.64521 16.955349
-39.383717 -80.263901 14.36528
-37.274788 -79.671379 11.770475
-35.640099 -79.652061 9.080049
-37.942253 -78.011665 10.207409
-39.936081 -78.382278 8.573503
-50.101559 -59.95536 37.387119
-50.527687 -60.057251 35.283604
-49.444572 -58.141224 36.189156
-48.629204 -56.358837 34.767879
-48.098915 -54.185966 33.739311
-46.845299 -55.528595 40.659363
-48.202148 -56.828533 41.975941
-49.363152 -57.915672 41.510181
-49.656258 -58.890526 39.511517
-44.351261 -74.724869 17.030958
-45.703941 -74.806831 15.044485
-43.68499 -73.417885 15.785772
-42.223797 -72.17202 14.580203
-40.988525 -70.456955 14.188457
-41.97953 -68.85891 18.599817
-40.816147 -68.577042 16.271738
-40.573341 -68.424751 13.549212
-41.063145 -66.524216 12.617745
-41.97385 -64.976646 11.747815
-43.243496 -63.763721 11.07099
-46.144505 -52.940083 21.741613
-43.233864 -52.580658 20.291553
-28.343731 -64.789925 39.98605
-39.225868 -68.988823 46.377369
-37.168427 -70.027855 46.755867
-37.647839 -71.192429 45.297722
-36.298023 -73.797981 42.700653
-35.525967 -76.27285 39.441647
-37.432121 -73.69326 35.75016
-36.961128 -75.843719 36.281807
-35.602547 -77.824707 36.359577
-35.772205 -78.8162 33.696556
-35.90522 -79.811684 30.994205
-36.977928 -81.159027 27.760614
-37.847862 -82.722588 25.270823
-38.15815 -79.257721 26.229229
-39.529747 -78.316689 24.747156
-40.619881 -77.555069 23.682192
-42.318787 -74.003395 26.538548
-40.451942 -74.738312 24.396168
-41.483498 -76.760155 22.167627
-42.577629 -76.044266 20.439447
-43.172302 -75.404076 18.719135
-39.828621 -66.972122 29.217335
-39.943123 -65.924522 27.168873
-38.782345 -65.02655 28.913855
-38.194462 -62.885193 28.627056
-38.61187 -60.70512 28.103611
-41.950253 -61.046745 30.82518
-40.866039 -60.033417 28.984196
-39.76606 -58.715431 27.105291
-41.407093 -57.228264 25.777256
-42.975906 -55.96809 24.704178
-44.655663 -55.351124 23.442293
-51.325764 -60.052643 33.143841
-51.583092 -60.133636 30.859686
-50.953125 -59.713024 28.73704
-50.832436 -56.595215 28.87524
-51.791798 -58.431843 27.607367
-49.626518 -58.573883 26.990881
-48.042946 -57.097382 25.474295
-47.092625 -55.631378 24.022652
-46.641537 -54.408134 23.017694
-48.51284 -53.482128 22.336651
-31.805883 -54.897778 34.77293
-34.197212 -56.743542 35.946587
-35.585884 -54.671959 34.409817
-35.581581 -56.720409 36.275822
-36.043888 -58.926704 37.715675
-37.552441 -61.239235 39.943886
-38.726139 -63.470631 42.19767
-39.241993 -65.181656 44.657204
-42.876656 -54.488335 36.524971
-42.689201 -57.035133 37.743599
-42.020943 -59.08065 39.904926
-45.174408 -60.527679 41.927837
-43.161674 -60.9529 42.413567
-41.275105 -60.616554 42.536613
-41.099316 -62.456501 44.055218
-40.607159 -64.59623 45.335274
-39.989727 -66.718796 46.306896
-40.354614 -67.948563 45.114033
-40.299145 -68.535934 42.498196
-40.126396 -68.723045 39.779881
-42.077133 -65.81572 39.791397
-40.780296 -67.089157 38.425926
-39.894371 -68.391861 37.110569
-39.219803 -68.158409 34.323963
-39.399319 -67.876724 31.732189
-46.816898 -74.460419 12.447908
-44.553619 -70.474319 8.908875
-40.151226 -64.789146 24.860968
-40.293365 -64.054398 22.301277
-40.109901 -63.875252 19.724195
-37.897682 -60.539734 20.926456
-39.161171 -62.071888 18.765146
-40.386703 -63.447853 17.050631
-41.599976 -62.96986 14.506976
-43.344311 -62.726524 12.605397
-40.722065 -52.670471 18.224539
-39.397179 -53.822182 15.800618
-39.948467 -55.705727 13.664505
-32.91748 -61.288551 38.224266
-31.330288 -61.164623 38.524971
-30.228924 -61.168133 39.477928
-30.231497 -63.189331 40.400318
-29.552784 -65.412666 40.71949
-28.49404 -66.748207 39.492153
-34.986107 -70.767639 46.381416
-33.339394 -71.209106 45.509632
-31.964611 -71.028793 44.288723
-31.912088 -76.326859 39.571289
-31.513376 -73.050674 41.893948
-30.720724 -70.628494 42.977585
-29.857227 -69.832687 41.363708
-29.646 -68.58519 38.690666
-29.247 -66.799301 35.907654
-30.144375 -66.812737 32.781609
-30.007818 -67.554108 29.495739
-30.074158 -68.831596 25.423954
-31.89747 -74.20224 25.012655
-31.560995 -72.099419 22.968369
-30.424686 -70.112968 21.621868
-32.53952 -81.762894 14.068149
-30.4767 -83.725494 12.131093
-38.252869 -84.158615 22.648504
-38.679012 -85.027229 19.504812
-38.49398 -85.977699 16.09878
-40.251492 -83.199448 16.256222
-38.63493 -85.285416 14.476667
-36.896065 -87.584702 12.841093
-34.771141 -88.406181 10.523343
-27.2029 -63.893555 36.619393
-27.069634 -63.214908 37.554851
-27.52536 -64.077907 38.227505
-49.691858 -54.330936 39.572077
-49.408682 -54.980072 39.000178
-49.758094 -55.092697 40.147778
-50.148803 -54.977903 41.308185
-50.333313 -54.796859 42.418937
-49.758094 -55.092697 40.147778
-49.865627 -55.627039 40.736286
-50.148803 -54.977903 41.308185
-52.023451 -54.373617 24.041156
-51.65978 -54.871662 23.56237
-51.299972 -54.991659 24.351489
-33.194105 -51.451259 33.046103
-32.261568 -51.563404 33.481056
-32.134804 -50.433304 33.401647
-42.035658 -66.318272 5.701441
-42.435608 -67.426758 6.409832
-42.430502 -65.957226 6.275763
-27.897318 -67.147469 24.051746
-28.033026 -66.119179 25.52225
-28.588481 -68.175518 22.851895
-27.897318 -67.147469 24.051746
-34.535522 -81.820339 8.77735
-33.536734 -82.922592 7.935105
-34.630197 -82.882137 8.988532
-49.235101 -52.258471 29.632067
-49.938739 -51.550307 30.614486
-37.32625 -51.444852 33.183748
-36.348535 -51.448086 32.995134
-36.085572 -50.235956 32.915402
-44.134337 -78.684463 9.47879
-42.674995 -78.949157 9.033825
-47.766556 -76.686741 10.210887
-46.761593 -77.610833 10.073794
-46.815525 -76.751041 11.01992
-48.437224 -75.34312 10.148039
-47.766556 -76.686741 10.210887
-43.806004 -65.145195 7.909589
-43.057901 -65.74678 8.764632
-43.66477 -64.645577 8.454032
-43.257223 -65.328102 7.366744
-43.806004 -65.145195 7.909589
-42.674995 -78.949157 9.033825
-41.141232 -79.103378 8.371951
-41.469845 -78.228058 9.235378
-46.697365 -54.573773 40.738535
-46.008184 -54.696768 39.928076
-49.027371 -55.71942 42.44239
-49.642727 -55.533057 42.860136
-48.947143 -56.56604 42.278057
-48.282375 -55.981912 42.140274
-49.027371 -55.71942 42.44239
-46.854845 -51.916581 20.447966
-45.775582 -52.24382 20.829268
-47.223769 -52.612843 21.360312
-28.799484 -64.044208 40.644103
-28.35584 -64.159172 40.919314
-32.680871 -54.856091 34.574122
-31.554319 -53.834024 34.320678
-32.429307 -53.792338 34.12187
-43.492926 -54.300308 37.131777
-42.559351 -53.274004 36.511934
-43.175621 -53.085977 37.118741
-46.742161 -72.974972 9.859974
-46.446814 -73.524369 10.734883
-45.686167 -72.730771 10.288934
-46.855482 -72.401184 8.823762
-46.742161 -72.974972 9.859974
-43.601439 -61.847564 12.364477
-42.41044 -61.853872 13.122974
-42.667568 -60.974913 12.882054
-44.371842 -62.87437 12.10082
-43.601439 -61.847564 12.364477
-41.785857 -52.056209 18.136715
-41.977964 -52.625564 19.258046
-43.041756 -52.011303 19.170222
-40.06511 -53.709496 14.449118
-40.229189 -52.957673 15.730279
-40.89712 -52.844986 14.378779
-40.340754 -54.651268 13.381062
-39.672823 -54.763954 14.732561
-40.06511 -53.709496 14.449118
-29.448802 -54.932025 36.417788
-29.356285 -53.962041 36.270454
-29.95478 -58.015781 37.377916
-30.762249 -58.006418 36.807671
-30.263275 -59.099787 37.750597
-29.95478 -58.015781 37.377916
-30.434114 -72.587349 19.011927
-29.983251 -71.024414 20.142159
-30.875549 -71.675903 20.491636
-28.661469 -74.893986 16.291187
-28.758491 -76.273811 15.171805
-27.930654 -81.833817 12.392721
-27.460031 -80.870484 12.574791
-29.00592 -80.673874 12.597347
-28.470706 -82.809776 12.243574
-27.930654 -81.833817 12.392721
-30.03799 -86.330749 12.354611
-29.541393 -85.04409 12.266095
-30.973297 -85.012153 12.219609
-30.539975 -87.527008 12.50673
-30.03799 -86.330749 12.354611
-31.512212 -89.550972 12.442308
-32.61474 -89.261345 11.998957
-33.317728 -87.56686 9.226976
-32.89707 -86.508693 8.607214
-34.773173 -79.901546 7.805225
-36.349205 -79.268162 8.402935
-39.152754 -51.468711 33.984881
-38.283811 -51.426985 33.539075
-37.932228 -50.27445 33.54982
-40.299025 -52.428904 34.488661
-39.152754 -51.468711 33.984881
-41.175427 -53.5413 35.330109
-40.380739 -53.733643 34.815584
-40.299025 -52.428904 34.488661
-42.924026 -64.824016 9.712758
-42.300577 -65.572792 10.046279
-42.307935 -65.149646 10.449962
-43.865375 -64.603154 9.153519
-42.924026 -64.824016 9.712758
-43.66477 -64.645577 8.454032
-43.865375 -64.603154 9.153519
-26.484958 -62.535652 37.138786
-27.069634 -63.214908 37.554851
-26.065182 -62.322758 35.587494
-26.484958 -62.535652 37.138786
-26.815768 -63.055293 34.45747
-26.133776 -62.347495 34.098225
-26.065182 -62.322758 35.587494
-49.924825 -55.137405 42.518396
-50.333313 -54.796859 42.418937
-49.974238 -55.907896 42.238433
-49.642727 -55.533057 42.860136
-49.924825 -55.137405 42.518396
-48.208877 -51.734354 19.812458
-49.654318 -52.414946 20.367809
-50.848185 -55.120718 23.166282
-49.855831 -54.805589 22.939387
-49.943948 -55.174576 23.645806
-50.848185 -55.120718 23.166282
-51.65978 -54.871662 23.56237
-32.311812 -52.675815 33.496969
-32.261568 -51.563404 33.481056
-33.438364 -53.697882 33.750412
-32.429307 -53.792338 34.12187
-32.311812 -52.675815 33.496969
-43.408119 -68.236782 7.03724
-43.816251 -68.996929 7.874992
-43.238585 -67.825859 7.821905
-43.408119 -68.236782 7.03724
-42.435608 -67.426758 6.409832
-42.841616 -60.106583 12.663803
-42.667568 -60.974913 12.882054
-41.650618 -60.11289 13.422301
-41.983657 -51.343533 15.63378
-41.955424 -51.767556 16.854416
-41.493364 -51.801897 14.308027
-41.983657 -51.343533 15.63378
-41.329284 -52.55372 13.026866
-40.89712 -52.844986 14.378779
-41.493364 -51.801897 14.308027
-31.510445 -56.905029 36.160675
-30.404192 -55.96474 36.029117
-31.341462 -55.912262 35.798564
-31.597397 -58.011749 36.662186
-31.510445 -56.905029 36.160675
-32.534668 -57.959271 36.431633
-31.786472 -59.060659 37.078629
-30.762249 -58.006418 36.807671
-31.597397 -58.011749 36.662186
-29.084833 -77.672802 14.359915
-28.758491 -76.273811 15.171805
-30.057778 -76.464978 15.408112
-29.459708 -78.787255 13.68782
-28.160422 -78.596089 13.451514
-29.084833 -77.672802 14.359915
-33.776327 -89.248031 12.069254
-32.61474 -89.261345 11.998957
-33.530929 -88.626 12.596967
-32.600647 -85.355346 8.212074
-32.89707 -86.508693 8.607214
-33.927832 -85.137737 8.541427
-32.246878 -84.323147 7.494407
-32.600647 -85.355346 8.212074
-32.246878 -84.323147 7.494407
-33.536734 -82.922592 7.935105
-49.277103 -53.398831 29.03245
-48.903925 -53.220278 30.085167
-49.235101 -52.258471 29.632067
-49.844288 -53.556036 28.178196
-49.513111 -54.517843 28.631296
-49.277103 -53.398831 29.03245
-50.38843 -53.702551 27.393611
-49.844288 -53.556036 28.178196
-50.876902 -53.72047 26.696469
-50.568768 -54.692968 27.0799
-50.38843 -53.702551 27.393611
-51.483052 -53.822964 25.946388
-50.876902 -53.72047 26.696469
-51.786253 -53.714327 25.170147
-51.360442 -54.602251 25.606517
-51.483052 -53.822964 25.946388
-52.379052 -53.883007 24.436444
-51.786253 -53.714327 25.170147
-38.546775 -52.639114 33.618809
-37.32625 -51.444852 33.183748
-38.283811 -51.426985 33.539075
-45.537813 -78.485112 9.971577
-44.134337 -78.684463 9.47879
-44.407085 -77.874485 10.39004
-45.537813 -78.485112 9.971577
-46.761593 -77.610833 10.073794
-43.072882 -65.737759 6.748726
-43.014793 -66.656056 7.602171
-43.257223 -65.328102 7.366744
-42.430502 -65.957226 6.275763
-43.072882 -65.737759 6.748726
-26.055106 -62.556597 32.603033
-26.133776 -62.347495 34.098225
-26.23676 -62.827074 31.100406
-26.055106 -62.556597 32.603033
-27.066017 -63.350506 31.465575
-26.284315 -63.470745 29.667836
-26.23676 -62.827074 31.100406
-27.265435 -64.326834 28.347804
-26.284315 -63.470745 29.667836
-28.083573 -65.404717 27.351195
-27.265435 -64.326834 28.347804
-28.065809 -64.698866 28.966339
-28.833399 -66.491211 26.140785
-28.033026 -66.119179 25.52225
-28.083573 -65.404717 27.351195
-37.500282 -78.447964 8.966615
-36.349205 -79.268162 8.402935
-36.791176 -78.831863 9.643729
-38.497196 -78.63327 8.149662
-37.500282 -78.447964 8.966615
-38.939167 -78.196971 9.390456
-39.433864 -79.038204 7.688243
-38.497196 -78.63327 8.149662
-39.433864 -79.038204 7.688243
-41.141232 -79.103378 8.371951
-49.603256 -53.57547 39.189014
-49.691858 -54.330936 39.572077
-49.318655 -53.38006 38.042983
-49.603256 -53.57547 39.189014
-48.987578 -53.347152 36.845021
-49.011367 -54.185403 37.226515
-49.318655 -53.38006 38.042983
-48.753517 -53.158926 35.673998
-48.987578 -53.347152 36.845021
-48.462829 -53.175661 34.529377
-48.389602 -54.169231 34.883932
-48.753517 -53.158926 35.673998
-48.314205 -53.096605 33.341774
-48.462829 -53.175661 34.529377
-48.317661 -53.057944 32.238397
-48.102371 -54.147305 32.635934
-48.314205 -53.096605 33.341774
-48.695709 -52.043581 31.814511
-48.483875 -53.09428 31.108671
-48.317661 -53.057944 32.238397
-49.546089 -51.284039 31.639578
-48.695709 -52.043581 31.814511
-49.938739 -51.550307 30.614486
-49.546089 -51.284039 31.639578
-43.633467 -53.107368 37.894709
-43.175621 -53.085977 37.118741
-44.640133 -53.988612 38.467686
-43.633467 -53.107368 37.894709
-45.320622 -54.953707 39.266404
-44.789684 -55.077377 38.537301
-44.640133 -53.988612 38.467686
-46.157736 -55.785534 39.997691
-45.320622 -54.953707 39.266404
-46.008184 -54.696768 39.928076
-47.60395 -55.331944 41.481985
-46.697365 -54.573773 40.738535
-47.523724 -56.178564 41.317652
-47.60395 -55.331944 41.481985
-48.282375 -55.981912 42.140274
-42.452618 -64.688759 10.932127
-42.307935 -65.149646 10.449962
-41.829168 -65.437534 11.265649
-43.08744 -64.082296 10.593715
-42.452618 -64.688759 10.932127
-42.608673 -64.370183 11.409402
-44.066948 -63.72212 10.604701
-43.08744 -64.082296 10.593715
-44.320261 -52.064108 20.104237
-44.689184 -52.760371 21.016583
-45.775582 -52.24382 20.829268
-43.041756 -52.011303 19.170222
-44.320261 -52.064108 20.104237
-46.854845 -51.916581 20.447966
-48.208877 -51.734354 19.812458
-27.867912 -64.094593 39.574507
-28.35584 -64.159172 40.919314
-28.001179 -64.773239 38.639048
-27.52536 -64.077907 38.227505
-27.867912 -64.094593 39.574507
-49.636454 -54.11693 22.398257
-48.732217 -54.170788 22.877781
-49.855831 -54.805589 22.939387
-49.715503 -53.537256 21.784019
-49.636454 -54.11693 22.398257
-49.610599 -52.938994 21.105199
-48.407936 -52.883865 21.65783
-49.715503 -53.537256 21.784019
-50.961885 -53.068337 20.493999
-49.654318 -52.414946 20.367809
-49.610599 -52.938994 21.105199
-52.023451 -54.373617 24.041156
-52.379052 -53.883007 24.436444
-29.944674 -53.917837 35.409275
-29.356285 -53.962041 36.270454
-30.730011 -53.88074 34.962237
-31.554319 -53.834024 34.320678
-31.020546 -54.934876 35.219969
-29.944674 -53.917837 35.409275
-30.730011 -53.88074 34.962237
-41.985184 -53.362448 35.764078
-42.559351 -53.274004 36.511934
-42.066898 -54.667187 36.091002
-41.175427 -53.5413 35.330109
-41.985184 -53.362448 35.764078
-32.349308 -49.393196 33.719539
-32.134804 -50.433304 33.401647
-33.26333 -49.284439 33.280121
-32.349308 -49.393196 33.719539
-34.283589 -49.243454 33.160168
-34.087599 -50.280174 32.846741
-33.26333 -49.284439 33.280121
-35.202883 -49.153483 33.075524
-34.283589 -49.243454 33.160168
-36.085572 -50.235956 32.915402
-35.202883 -49.153483 33.075524
-47.159853 -74.114495 11.376915
-46.103859 -73.870293 11.805875
-46.446814 -73.524369 10.734883
-47.661648 -74.79776 10.731468
-47.318693 -75.143685 11.80246
-47.159853 -74.114495 11.376915
-48.437224 -75.34312 10.148039
-47.661648 -74.79776 10.731468
-44.269702 -69.941085 7.999601
-44.100168 -69.530162 8.784266
-43.816251 -68.996929 7.874992
-45.190752 -70.756057 8.177748
-44.269702 -69.941085 7.999601
-45.904699 -71.609585 8.430324
-45.267567 -71.327846 9.161451
-45.190752 -70.756057 8.177748
-46.855482 -72.401184 8.823762
-45.904699 -71.609585 8.430324
-44.321434 -63.392969 11.333616
-43.293903 -63.245122 11.838193
-44.371842 -62.87437 12.10082
-44.066948 -63.72212 10.604701
-44.321434 -63.392969 11.333616
-40.891632 -52.381817 16.942239
-41.785857 -52.056209 18.136715
-41.955424 -51.767556 16.854416
-41.117345 -55.74823 12.607132
-40.340754 -54.651268 13.381062
-41.040957 -56.643422 13.186578
-41.117345 -55.74823 12.607132
-40.910406 -57.636021 13.616906
-39.817916 -56.698327 14.094832
-41.040957 -56.643422 13.186578
-41.979056 -58.412838 12.956351
-40.756016 -58.467743 13.864605
-40.910406 -57.636021 13.616906
-43.264196 -59.284385 12.697655
-41.979056 -58.412838 12.956351
-42.841616 -60.106583 12.663803
-43.264196 -59.284385 12.697655
-29.448802 -54.932025 36.417788
-30.404192 -55.96474 36.029117
-30.452757 -60.154434 38.401026
-30.263275 -59.099787 37.750597
-31.140806 -60.109976 37.874542
-29.902075 -60.156189 38.877505
-30.452757 -60.154434 38.401026
-30.779606 -61.166378 39.001449
-29.505758 -60.281124 39.737583
-29.902075 -60.156189 38.877505
-29.849916 -61.342098 40.222793
-29.505758 -60.281124 39.737583
-29.851202 -62.352698 40.683988
-29.849916 -61.342098 40.222793
-30.23021 -62.178732 39.939123
-29.743367 -63.243912 40.851236
-29.851202 -62.352698 40.683988
-29.404011 -64.355579 41.010823
-29.743367 -63.243912 40.851236
-29.892141 -64.300999 40.559904
-28.948257 -65.101295 40.35277
-28.799484 -64.044208 40.644103
-29.404011 -64.355579 41.010823
-29.409398 -69.629165 21.506909
-28.588481 -68.175518 22.851895
-29.603769 -68.659321 22.966854
-29.409398 -69.629165 21.506909
-29.983251 -71.024414 20.142159
-29.636626 -73.500923 17.441226
-30.434114 -72.587349 19.011927
-30.528924 -74.152412 17.790702
-29.636626 -73.500923 17.441226
-28.661469 -74.893986 16.291187
-27.097442 -79.778386 12.976558
-28.160422 -78.596089 13.451514
-26.022176 -80.938328 12.771932
-27.097442 -79.778386 12.976558
-27.460031 -80.870484 12.574791
-28.970785 -83.85392 12.101482
-28.470706 -82.809776 12.243574
-29.976622 -82.681351 12.273185
-28.970785 -83.85392 12.101482
-29.541393 -85.04409 12.266095
-30.9897 -88.697258 12.616003
-30.539975 -87.527008 12.50673
-31.919618 -87.469063 12.417397
-30.9897 -88.697258 12.616003
-31.512212 -89.550972 12.442308
-33.81564 -89.144779 10.997294
-33.776327 -89.248031 12.069254
-34.731828 -88.509434 11.595304
-33.591171 -88.624409 10.020364
-34.497698 -87.348633 9.729955
-33.317728 -87.56686 9.226976
-33.81564 -89.144779 10.997294
-33.591171 -88.624409 10.020364
-34.541079 -80.756428 8.401986
-34.535522 -81.820339 8.77735
-35.634542 -80.715972 9.455413
-34.541079 -80.756428 8.401986
-34.773173 -79.901546 7.805225
3 0 122 120
3 0 125 123
3 0 120 125
3 1 129 127
3 1 133 131
3 1 127 133
3 4 137 135
3 2 141 139
3 5 474 476
3 474 142 475
3 474 475 476
3 5 144 142
3 3 147 145
3 6 150 148
3 6 152 150
3 6 154 152
3 4 157 155
3 4 135 157
3 477 161 478
3 479 478 159
3 477 478 479
3 480 162 481
3 482 159 483
3 484 483 162
3 482 483 484
3 9 166 164
3 11 169 167
3 11 171 169
3 12 174 172
3 14 177 175
3 14 179 177
3 14 181 179
3 9 184 182
3 9 164 184
3 16 188 186
3 18 191 189
3 18 193 191
3 7 196 194
3 19 199 197
3 19 201 199
3 19 485 487
3 487 486 201
3 485 486 487
3 20 488 490
3 488 202 489
3 488 489 490
3 22 205 203
3 22 207 205
3 8 210 208
3 23 213 211
3 23 215 213
3 23 217 215
3 16 220 218
3 16 186 220
3 10 224 222
3 493 492 225
3 491 492 493
3 17 228 226
3 24 231 229
3 24 233 231
3 25 494 495
3 25 496 497
3 21 236 235
3 26 239 237
3 26 241 239
3 13 244 242
3 27 247 245
3 27 249 247
3 27 251 249
3 28 254 252
3 28 256 254
3 28 258 256
3 29 261 259
3 29 263 261
3 15 266 264
3 30 269 267
3 30 271 269
3 30 498 500
3 500 499 271
3 498 499 500
3 31 274 272
3 33 275 121
3 33 276 275
3 34 279 277
3 36 280 124
3 36 281 280
3 36 283 281
3 31 284 126
3 31 272 284
3 38 287 285
3 40 288 128
3 40 289 288
3 502 501 290
3 503 294 504
3 505 504 292
3 503 504 505
3 43 295 130
3 43 296 295
3 44 299 297
3 46 300 132
3 46 301 300
3 46 303 301
3 38 304 134
3 38 285 304
3 48 506 507
3 49 508 510
3 510 509 136
3 508 509 510
3 49 511 512
3 50 307 305
3 513 308 514
3 515 514 138
3 513 514 515
3 517 516 308
3 52 311 309
3 54 312 140
3 54 313 312
3 55 314 143
3 55 315 314
3 56 318 316
3 58 319 146
3 58 320 319
3 59 323 321
3 61 324 149
3 61 325 324
3 61 327 325
3 63 328 151
3 63 329 328
3 63 331 329
3 65 332 153
3 65 333 332
3 66 336 334
3 68 337 156
3 68 338 337
3 68 340 338
3 48 341 158
3 48 518 520
3 520 519 341
3 518 519 520
3 69 344 342
3 71 345 160
3 71 346 345
3 521 347 522
3 73 523 524
3 73 525 527
3 525 348 526
3 525 526 527
3 73 349 348
3 69 350 163
3 69 342 350
3 74 353 351
3 76 354 165
3 76 355 354
3 32 356 273
3 77 357 168
3 77 358 357
3 77 359 358
3 78 360 170
3 78 361 360
3 79 528 530
3 530 529 362
3 528 529 530
3 531 364 532
3 80 367 365
3 82 368 173
3 82 369 368
3 35 370 278
3 83 371 176
3 83 372 371
3 83 373 372
3 84 374 178
3 84 375 374
3 84 377 375
3 86 378 180
3 86 379 378
3 37 380 282
3 87 381 183
3 87 382 381
3 87 383 382
3 74 384 185
3 74 351 384
3 88 387 385
3 90 388 187
3 90 389 388
3 39 390 286
3 91 391 190
3 91 392 391
3 91 393 392
3 92 394 192
3 92 395 394
3 70 396 343
3 93 397 195
3 93 398 397
3 41 399 291
3 94 400 198
3 94 401 400
3 94 402 401
3 95 403 200
3 95 404 403
3 95 405 404
3 97 533 535
3 533 406 534
3 533 534 535
3 97 407 406
3 42 408 293
3 98 409 204
3 98 410 409
3 98 411 410
3 99 412 206
3 99 413 412
3 72 536 538
3 536 414 537
3 536 537 538
3 100 415 209
3 100 416 415
3 45 417 298
3 101 418 212
3 101 419 418
3 101 420 419
3 102 421 214
3 102 422 421
3 102 423 422
3 103 424 216
3 103 425 424
3 47 426 302
3 104 427 219
3 104 428 427
3 104 429 428
3 88 430 221
3 88 385 430
3 75 431 352
3 105 539 541
3 541 540 223
3 539 540 541
3 105 542 543
3 51 432 306
3 89 433 386
3 106 434 227
3 106 435 434
3 53 436 310
3 107 437 230
3 107 438 437
3 107 439 438
3 544 440 545
3 546 545 232
3 544 545 546
3 548 547 440
3 549 441 550
3 551 550 363
3 549 550 551
3 552 442 553
3 554 553 234
3 552 553 554
3 555 443 556
3 557 556 442
3 555 556 557
3 96 558 559
3 108 560 561
3 108 562 563
3 57 444 317
3 109 445 238
3 109 446 445
3 109 447 446
3 110 448 240
3 110 449 448
3 81 450 366
3 111 451 243
3 111 452 451
3 60 453 322
3 112 454 246
3 112 455 454
3 112 456 455
3 113 457 248
3 113 458 457
3 113 459 458
3 114 460 250
3 114 461 460
3 62 462 326
3 115 463 253
3 115 464 463
3 115 564 566
3 566 565 464
3 564 565 566
3 568 567 255
3 116 569 571
3 571 570 257
3 569 570 571
3 116 572 573
3 64 465 330
3 117 466 260
3 117 574 576
3 576 575 466
3 574 575 576
3 117 577 578
3 580 579 262
3 85 467 376
3 118 468 265
3 118 469 468
3 67 470 335
3 119 471 268
3 119 472 471
3 119 473 472
3 582 581 270
3 584 583 339
3 120 121 31
3 122 121 120
3 122 33 121
3 123 124 34
3 125 124 123
3 125 36 124
3 125 126 36
3 120 126 125
3 120 31 126
3 127 128 38
3 129 128 127
3 129 40 128
3 585 130 586
3 585 586 587
3 588 130 589
3 590 43 591
3 592 591 130
3 590 591 592
3 131 132 44
3 133 132 131
3 133 46 132
3 133 134 46
3 127 134 133
3 127 38 134
3 135 136 48
3 137 136 135
3 137 49 136
3 593 138 594
3 595 594 50
3 593 594 595
3 596 138 597
3 599 598 138
3 139 140 52
3 141 140 139
3 141 54 140
3 142 600 601
3 142 602 603
3 142 604 606
3 604 143 605
3 604 605 606
3 144 143 142
3 144 55 143
3 145 146 56
3 147 146 145
3 147 58 146
3 148 149 59
3 150 149 148
3 150 61 149
3 150 151 61
3 152 151 150
3 152 63 151
3 152 153 63
3 154 153 152
3 154 65 153
3 155 156 66
3 157 156 155
3 157 68 156
3 157 158 68
3 135 158 157
3 135 48 158
3 159 160 69
3 161 160 159
3 161 71 160
3 162 607 608
3 162 609 611
3 609 73 610
3 609 610 611
3 162 163 73
3 159 163 162
3 159 69 163
3 164 165 74
3 166 165 164
3 166 76 165
3 167 168 32
3 169 168 167
3 169 77 168
3 169 170 77
3 171 170 169
3 171 78 170
3 613 612 79
3 172 173 80
3 174 173 172
3 174 82 173
3 175 176 35
3 177 176 175
3 177 83 176
3 177 178 83
3 179 178 177
3 179 84 178
3 179 180 84
3 181 180 179
3 181 86 180
3 182 183 37
3 184 183 182
3 184 87 183
3 184 185 87
3 164 185 184
3 164 74 185
3 186 187 88
3 188 187 186
3 188 90 187
3 189 190 39
3 191 190 189
3 191 91 190
3 191 192 91
3 193 192 191
3 193 92 192
3 194 195 70
3 196 195 194
3 196 93 195
3 197 198 41
3 199 198 197
3 199 94 198
3 199 200 94
3 201 200 199
3 201 95 200
3 201 614 616
3 616 615 95
3 614 615 616
3 618 617 201
3 202 619 620
3 202 621 623
3 621 97 622
3 621 622 623
3 203 204 42
3 205 204 203
3 205 98 204
3 205 206 98
3 207 206 205
3 207 99 206
3 208 209 72
3 210 209 208
3 210 100 209
3 211 212 45
3 213 212 211
3 213 101 212
3 213 214 101
3 215 214 213
3 215 102 214
3 215 216 102
3 217 216 215
3 217 103 216
3 218 219 47
3 220 219 218
3 220 104 219
3 220 221 104
3 186 221 220
3 186 88 221
3 222 223 75
3 224 223 222
3 224 105 223
3 225 624 626
3 626 625 51
3 624 625 626
3 628 627 225
3 226 227 89
3 228 227 226
3 228 106 227
3 229 230 53
3 231 230 229
3 231 107 230
3 231 232 107
3 233 232 231
3 233 629 631
3 631 630 232
3 629 630 631
3 632 234 633
3 634 234 635
3 638 637 234
3 636 637 638
3 235 639 641
3 641 640 96
3 639 640 641
3 236 642 644
3 644 643 235
3 642 643 644
3 236 645 647
3 645 108 646
3 645 646 647
3 237 238 57
3 239 238 237
3 239 109 238
3 239 240 109
3 241 240 239
3 241 110 240
3 242 243 81
3 244 243 242
3 244 111 243
3 245 246 60
3 247 246 245
3 247 112 246
3 247 248 112
3 249 248 247
3 249 113 248
3 249 250 113
3 251 250 249
3 251 114 250
3 252 253 62
3 254 253 252
3 254 115 253
3 254 255 115
3 256 255 254
3 256 648 650
3 650 649 255
3 648 649 650
3 256 651 653
3 651 257 652
3 651 652 653
3 258 257 256
3 258 116 257
3 259 260 64
3 261 260 259
3 261 117 260
3 261 262 117
3 263 262 261
3 263 654 656
3 656 655 262
3 654 655 656
3 264 265 85
3 266 265 264
3 266 118 265
3 267 268 67
3 269 268 267
3 269 119 268
3 269 270 119
3 271 270 269
3 271 657 659
3 659 658 270
3 657 658 659
3 271 660 661
3 663 662 271
3 272 273 9
3 274 273 272
3 274 32 273
3 121 274 31
3 275 274 121
3 275 32 274
3 275 167 32
3 276 167 275
3 276 11 167
3 277 278 12
3 279 278 277
3 279 35 278
3 124 279 34
3 280 279 124
3 280 35 279
3 280 175 35
3 281 175 280
3 281 14 175
3 281 282 14
3 283 282 281
3 283 37 282
3 126 283 36
3 284 283 126
3 284 37 283
3 284 182 37
3 272 182 284
3 272 9 182
3 285 286 16
3 287 286 285
3 287 39 286
3 128 287 38
3 288 287 128
3 288 39 287
3 288 189 39
3 289 189 288
3 289 18 189
3 290 291 7
3 664 291 665
3 666 665 290
3 664 665 666
3 667 41 668
3 669 668 291
3 667 668 669
3 670 41 671
3 672 197 673
3 674 673 41
3 672 673 674
3 675 197 676
3 677 19 678
3 679 678 197
3 677 678 679
3 681 680 19
3 292 293 20
3 294 293 292
3 294 42 293
3 130 682 684
3 682 294 683
3 682 683 684
3 295 294 130
3 295 42 294
3 295 203 42
3 296 203 295
3 296 22 203
3 297 298 8
3 299 298 297
3 299 45 298
3 132 299 44
3 300 299 132
3 300 45 299
3 300 211 45
3 301 211 300
3 301 23 211
3 301 302 23
3 303 302 301
3 303 47 302
3 134 303 46
3 304 303 134
3 304 47 303
3 304 218 47
3 285 218 304
3 285 16 218
3 136 685 687
3 687 686 48
3 685 686 687
3 689 688 136
3 305 306 10
3 307 306 305
3 307 51 306
3 138 307 50
3 308 307 138
3 308 51 307
3 308 225 51
3 690 225 691
3 692 691 308
3 690 691 692
3 694 693 225
3 309 310 17
3 311 310 309
3 311 53 310
3 140 311 52
3 312 311 140
3 312 53 311
3 312 229 53
3 313 229 312
3 313 24 229
3 143 695 696
3 314 697 699
3 699 698 143
3 697 698 699
3 314 700 701
3 314 702 703
3 315 704 706
3 706 705 314
3 704 705 706
3 315 707 709
3 707 25 708
3 707 708 709
3 316 317 21
3 318 317 316
3 318 57 317
3 146 318 56
3 319 318 146
3 319 57 318
3 319 237 57
3 320 237 319
3 320 26 237
3 321 322 13
3 323 322 321
3 323 60 322
3 149 323 59
3 324 323 149
3 324 60 323
3 324 245 60
3 325 245 324
3 325 27 245
3 325 326 27
3 327 326 325
3 327 62 326
3 151 327 61
3 328 327 151
3 328 62 327
3 328 252 62
3 329 252 328
3 329 28 252
3 329 330 28
3 331 330 329
3 331 64 330
3 153 331 63
3 332 331 153
3 332 64 331
3 332 259 64
3 333 259 332
3 333 29 259
3 334 335 15
3 336 335 334
3 336 67 335
3 156 336 66
3 337 336 156
3 337 67 336
3 337 267 67
3 338 267 337
3 338 30 267
3 338 339 30
3 340 339 338
3 340 710 712
3 712 711 339
3 710 711 712
3 158 340 68
3 341 340 158
3 341 713 715
3 715 714 340
3 713 714 715
3 341 716 717
3 719 718 341
3 342 343 1
3 344 343 342
3 344 70 343
3 160 344 69
3 345 344 160
3 345 70 344
3 345 194 70
3 346 194 345
3 346 7 194
3 720 161 721
3 722 161 723
3 724 71 725
3 726 725 161
3 724 725 726
3 727 71 728
3 729 346 730
3 731 730 71
3 729 730 731
3 732 346 733
3 734 7 735
3 736 735 346
3 734 735 736
3 737 290 738
3 739 738 7
3 737 738 739
3 740 290 741
3 743 742 290
3 744 72 745
3 746 72 747
3 748 208 749
3 750 749 72
3 748 749 750
3 347 751 753
3 751 208 752
3 751 752 753
3 347 8 208
3 754 347 755
3 348 756 758
3 756 347 757
3 756 757 758
3 348 8 347
3 348 297 8
3 349 297 348
3 349 44 297
3 163 349 73
3 350 349 163
3 350 44 349
3 350 131 44
3 342 131 350
3 342 1 131
3 351 352 4
3 353 352 351
3 353 75 352
3 165 353 74
3 354 353 165
3 354 75 353
3 354 222 75
3 355 222 354
3 355 10 222
3 273 166 9
3 356 166 273
3 356 76 166
3 168 356 32
3 357 356 168
3 357 76 356
3 357 355 76
3 358 355 357
3 358 10 355
3 358 305 10
3 359 305 358
3 359 50 305
3 170 359 77
3 360 359 170
3 360 50 359
3 360 759 761
3 761 760 50
3 759 760 761
3 361 762 764
3 764 763 360
3 762 763 764
3 361 765 766
3 362 363 2
3 767 363 768
3 769 768 362
3 767 768 769
3 771 770 363
3 773 772 79
3 364 774 775
3 364 776 778
3 776 5 777
3 776 777 778
3 365 366 3
3 367 366 365
3 367 81 366
3 173 367 80
3 368 367 173
3 368 81 367
3 368 242 81
3 369 242 368
3 369 13 242
3 278 174 12
3 370 174 278
3 370 82 174
3 176 370 35
3 371 370 176
3 371 82 370
3 371 369 82
3 372 369 371
3 372 13 369
3 372 321 13
3 373 321 372
3 373 59 321
3 178 373 83
3 374 373 178
3 374 59 373
3 374 148 59
3 375 148 374
3 375 6 148
3 375 376 6
3 377 376 375
3 377 85 376
3 180 377 84
3 378 377 180
3 378 85 377
3 378 264 85
3 379 264 378
3 379 15 264
3 282 181 14
3 380 181 282
3 380 86 181
3 183 380 37
3 381 380 183
3 381 86 380
3 381 379 86
3 382 379 381
3 382 15 379
3 382 334 15
3 383 334 382
3 383 66 334
3 185 383 87
3 384 383 185
3 384 66 383
3 384 155 66
3 351 155 384
3 351 4 155
3 385 386 0
3 387 386 385
3 387 89 386
3 187 387 88
3 388 387 187
3 388 89 387
3 388 226 89
3 389 226 388
3 389 17 226
3 286 188 16
3 390 188 286
3 390 90 188
3 190 390 39
3 391 390 190
3 391 90 390
3 391 389 90
3 392 389 391
3 392 17 389
3 392 309 17
3 393 309 392
3 393 52 309
3 192 393 91
3 394 393 192
3 394 52 393
3 394 139 52
3 395 139 394
3 395 2 139
3 343 129 1
3 396 129 343
3 396 40 129
3 195 396 70
3 397 396 195
3 397 40 396
3 397 289 40
3 398 289 397
3 398 18 289
3 291 196 7
3 399 196 291
3 399 93 196
3 198 399 41
3 400 399 198
3 400 93 399
3 400 398 93
3 401 398 400
3 401 18 398
3 401 193 18
3 402 193 401
3 402 92 193
3 200 402 94
3 403 402 200
3 403 92 402
3 403 395 92
3 404 395 403
3 404 2 395
3 404 362 2
3 405 362 404
3 405 79 362
3 779 405 780
3 781 780 95
3 779 780 781
3 782 405 783
3 784 79 785
3 786 785 405
3 784 785 786
3 789 788 79
3 787 788 789
3 791 790 19
3 792 96 793
3 406 794 795
3 406 796 798
3 796 96 797
3 796 797 798
3 406 235 96
3 407 235 406
3 407 21 235
3 293 202 20
3 408 202 293
3 408 97 202
3 204 408 42
3 409 408 204
3 409 97 408
3 409 407 97
3 410 407 409
3 410 21 407
3 410 316 21
3 411 316 410
3 411 56 316
3 206 411 98
3 412 411 206
3 412 56 411
3 412 145 56
3 413 145 412
3 413 3 145
3 414 799 800
3 414 801 803
3 801 43 802
3 801 802 803
3 209 414 72
3 415 414 209
3 415 43 414
3 415 296 43
3 416 296 415
3 416 22 296
3 298 210 8
3 417 210 298
3 417 100 210
3 212 417 45
3 418 417 212
3 418 100 417
3 418 416 100
3 419 416 418
3 419 22 416
3 419 207 22
3 420 207 419
3 420 99 207
3 214 420 101
3 421 420 214
3 421 99 420
3 421 413 99
3 422 413 421
3 422 3 413
3 422 365 3
3 423 365 422
3 423 80 365
3 216 423 102
3 424 423 216
3 424 80 423
3 424 172 80
3 425 172 424
3 425 12 172
3 302 217 23
3 426 217 302
3 426 103 217
3 219 426 47
3 427 426 219
3 427 103 426
3 427 425 103
3 428 425 427
3 428 12 425
3 428 277 12
3 429 277 428
3 429 34 277
3 221 429 104
3 430 429 221
3 430 34 429
3 430 123 34
3 385 123 430
3 385 0 123
3 804 20 805
3 806 20 807
3 808 292 809
3 810 809 20
3 808 809 810
3 811 292 812
3 814 813 292
3 352 137 4
3 431 137 352
3 431 49 137
3 223 431 75
3 815 431 816
3 817 816 223
3 815 816 817
3 818 49 819
3 820 819 431
3 818 819 820
3 822 821 49
3 306 224 10
3 432 224 306
3 432 105 224
3 823 432 824
3 825 824 51
3 823 824 825
3 826 432 827
3 828 105 829
3 830 829 432
3 828 829 830
3 832 831 105
3 386 122 0
3 433 122 386
3 433 33 122
3 227 433 89
3 434 433 227
3 434 33 433
3 434 276 33
3 435 276 434
3 435 11 276
3 310 228 17
3 436 228 310
3 436 106 228
3 230 436 53
3 437 436 230
3 437 106 436
3 437 435 106
3 438 435 437
3 438 11 435
3 438 171 11
3 439 171 438
3 439 78 171
3 232 439 107
3 440 439 232
3 440 78 439
3 440 361 78
3 833 361 834
3 835 834 440
3 833 834 835
3 837 836 361
3 363 141 2
3 441 141 363
3 441 54 141
3 234 838 840
3 838 441 839
3 838 839 840
3 442 441 234
3 442 54 441
3 442 313 54
3 443 313 442
3 443 24 313
3 841 443 842
3 843 443 844
3 845 24 846
3 847 846 443
3 845 846 847
3 848 233 849
3 850 849 24
3 848 849 850
3 851 233 852
3 854 853 233
3 856 855 96
3 317 236 21
3 444 236 317
3 444 108 236
3 238 444 57
3 445 444 238
3 445 108 444
3 445 857 859
3 859 858 108
3 857 858 859
3 446 860 862
3 862 861 445
3 860 861 862
3 446 863 864
3 446 865 866
3 447 867 869
3 869 868 446
3 867 868 869
3 447 870 871
3 240 447 109
3 448 447 240
3 448 872 874
3 874 873 447
3 872 873 874
3 448 875 877
3 875 364 876
3 875 876 877
3 449 364 448
3 449 5 364
3 366 147 3
3 450 147 366
3 450 58 147
3 243 450 81
3 451 450 243
3 451 58 450
3 451 320 58
3 452 320 451
3 452 26 320
3 322 244 13
3 453 244 322
3 453 111 244
3 246 453 60
3 454 453 246
3 454 111 453
3 454 452 111
3 455 452 454
3 455 26 452
3 455 241 26
3 456 241 455
3 456 110 241
3 248 456 112
3 457 456 248
3 457 110 456
3 457 449 110
3 458 449 457
3 458 5 449
3 458 144 5
3 459 144 458
3 459 55 144
3 250 459 113
3 460 459 250
3 460 55 459
3 460 315 55
3 461 315 460
3 461 25 315
3 326 251 27
3 462 251 326
3 462 114 251
3 253 462 62
3 463 462 253
3 463 114 462
3 463 461 114
3 464 461 463
3 464 25 461
3 464 878 880
3 880 879 25
3 878 879 880
3 882 881 464
3 255 883 885
3 885 884 115
3 883 884 885
3 887 886 255
3 257 888 889
3 892 891 257
3 890 891 892
3 330 258 28
3 465 258 330
3 465 116 258
3 260 465 64
3 466 465 260
3 466 116 465
3 466 893 895
3 895 894 116
3 893 894 895
3 897 896 466
3 262 898 900
3 900 899 117
3 898 899 900
3 902 901 262
3 376 154 6
3 467 154 376
3 467 65 154
3 265 467 85
3 468 467 265
3 468 65 467
3 468 333 65
3 469 333 468
3 469 29 333
3 335 266 15
3 470 266 335
3 470 118 266
3 268 470 67
3 471 470 268
3 471 118 470
3 471 469 118
3 472 469 471
3 472 29 469
3 472 263 29
3 473 263 472
3 473 903 905
3 905 904 263
3 903 904 905
3 270 473 119
3 906 473 907
3 908 907 270
3 906 907 908
3 910 909 473
3 339 911 913
3 913 912 30
3 911 912 913
3 915 914 339
