ply
format ascii 1.0
element vertex 421
property float x
property float y
property float z
element face 454
property list uchar int vertex_index
end_header
19.461132 -81.319016 37.159706
4.241766 -73.507721 20.185389
6.229918 -82.775269 22.122953
9.573874 -79.36615 28.581293
5.991403 -94.308273 12.665042
3.983674 -84.949539 9.130072
18.947515 -74.309525 20.581093
13.418744 -65.210014 14.858358
12.6822 -84.261826 37.091129
6.543648 -81.872795 33.779018
13.473897 -81.262154 32.433506
19.074955 -83.965622 40.136097
10.069802 -96.162766 13.658884
9.590802 -89.848083 13.455217
3.824773 -78.83046 22.322554
7.362185 -83.800064 16.265202
5.946529 -78.575401 16.083557
3.050182 -73.519066 14.476138
19.973221 -72.430199 27.219936
22.277483 -67.946121 16.371086
19.491444 -65.444878 12.656989
19.552046 -64.994965 7.867976
8.596753 -87.887764 28.171076
8.0482 -86.58535 21.093077
5.662863 -84.753555 28.744715
4.743117 -79.528397 28.179224
6.710753 -75.805008 25.397396
20.308767 -76.687828 33.766571
8.486601 -95.980278 7.624395
5.496687 -88.661674 15.512858
4.35115 -90.096283 9.574266
17.296124 -78.143532 28.122442
13.496002 -78.021164 22.967485
11.196268 -72.873726 21.284214
22.076359 -67.205399 22.863428
16.420263 -70.481277 17.562302
6.017293 -68.431976 16.346172
16.162149 -83.329216 36.574612
12.539507 -82.651665 35.035263
16.526798 -81.614037 34.380684
18.734859 -82.901871 38.978783
16.088066 -84.86776 38.311867
10.796553 -88.455383 16.862715
3.949244 -75.978439 21.541515
5.099736 -78.5746 19.302555
4.792109 -75.845154 18.479832
3.715261 -76.303528 15.430811
3.148856 -73.089645 17.515873
23.49601 -64.7752 15.039798
22.150198 -64.894394 12.475882
18.860586 -65.216393 10.462959
21.455582 -65.02565 10.139051
21.428473 -64.895554 7.695866
7.781991 -86.203583 31.936213
6.691986 -86.859856 28.242794
6.081599 -85.350098 32.332455
7.859216 -80.364975 31.304058
5.198838 -80.443253 31.104801
6.611325 -78.749039 29.294836
5.338801 -77.562149 27.35672
8.069359 -77.743515 27.079132
7.77838 -95.253403 13.95668
7.424358 -96.843269 12.373095
9.05655 -97.364883 9.515886
6.564498 -95.436577 9.8972
6.700835 -84.760696 21.379566
6.63703 -87.528061 18.340551
5.399843 -85.706192 19.283777
6.053121 -84.422279 11.686562
5.986951 -87.110588 12.029431
4.134393 -87.403214 9.150312
4.915721 -91.138069 6.806548
4.98511 -88.249107 6.836334
19.172834 -77.514694 30.710257
19.805182 -74.753616 30.059896
19.666431 -73.788574 23.939156
17.824976 -76.654602 24.053623
16.09621 -76.628822 21.217642
12.008421 -75.644455 21.801504
14.622995 -74.351921 19.83572
18.241772 -67.161606 15.244841
19.214838 -69.713333 15.82198
15.13441 -67.512558 17.10117
11.719137 -69.025795 17.695402
9.693745 -66.4944 15.388678
5.316444 -67.017113 14.014404
9.270518 -65.244225 12.642675
6.747744 -83.796623 35.249855
9.17872 -83.049904 35.953468
9.55073 -81.842926 33.42992
11.038157 -80.858986 30.526342
9.813897 -93.213608 13.206088
7.645192 -92.500046 13.198596
5.140781 -80.817398 22.527266
5.991453 -83.416283 19.576641
5.392406 -80.87413 19.415808
6.938599 -81.025368 16.162979
4.832327 -81.814064 12.499238
4.284188 -82.177513 9.299282
3.803885 -79.366768 12.716039
3.380168 -77.052223 12.323961
19.930405 -71.172852 30.284683
20.948328 -70.176773 24.803444
24.091793 -64.86319 17.737051
21.13847 -66.742783 14.325641
17.041124 -64.905754 14.028807
13.15694 -64.170151 11.67201
16.359699 -64.460144 11.189796
9.341542 -88.365326 20.938362
8.13358 -87.805382 24.556965
6.850759 -85.810509 24.763254
6.667342 -83.380707 25.412817
5.157419 -83.042923 32.084724
5.357961 -82.029167 28.772528
5.495429 -80.856712 25.432423
4.162769 -78.78035 25.462645
4.232543 -76.265266 24.610491
5.429345 -74.354599 22.635082
20.283907 -79.22229 35.261955
8.715706 -87.917511 17.249508
7.23953 -89.450012 14.822256
5.701166 -91.172813 12.988371
5.929851 -86.394661 15.702146
5.277036 -89.350761 12.691335
4.882274 -92.585121 10.678205
5.357121 -93.713394 7.648934
7.956712 -94.115067 6.113735
17.907164 -79.759262 32.272087
15.466265 -79.903656 30.109549
13.316545 -80.019348 27.85854
18.814556 -75.606079 27.174091
15.713399 -78.814804 25.395929
11.431921 -78.664383 25.704035
9.921928 -76.895744 24.33205
8.845609 -74.464615 22.881357
7.063616 -72.870819 20.667253
20.957127 -71.007645 21.434303
22.518978 -67.898743 19.506517
20.447704 -71.021561 18.123096
17.540401 -73.06002 18.274122
13.74571 -71.334465 19.663788
8.826881 -70.934326 18.758741
4.466539 -70.937859 18.63682
3.115967 -69.822594 15.81743
3.68593 -70.13517 13.53974
19.097995 -82.110444 38.069244
19.231085 -81.019947 40.059945
19.594221 -80.22852 39.150406
10.763948 -89.142688 18.633517
11.492998 -89.26258 16.758973
22.704849 -63.676934 12.856336
23.102837 -63.37249 14.268325
22.35754 -63.742562 11.68792
21.80289 -64.960022 11.307467
22.704849 -63.676934 12.856336
22.068832 -64.169804 10.355475
22.35754 -63.742562 11.68792
7.191354 -85.200276 33.832581
6.931795 -85.77684 32.134334
8.04155 -85.627018 33.634459
8.04155 -85.627018 33.634459
9.067213 -86.076119 32.76688
4.931826 -85.277039 8.386045
5.432544 -86.926823 7.239176
4.484392 -86.599323 7.983203
19.575567 -72.319629 31.463925
19.777075 -74.19873 31.508018
10.93046 -83.655865 36.522299
9.605721 -83.881916 36.521912
11.357461 -84.487877 37.090742
20.06715 -82.841179 41.261036
19.597945 -82.311295 41.234579
19.657318 -84.262604 40.126637
20.649513 -83.138161 41.251576
20.06715 -82.841179 41.261036
18.008625 -84.964752 39.481369
19.657318 -84.262604 40.126637
12.935144 -85.083039 37.443748
14.638078 -85.386006 38.054118
14.385133 -84.564793 37.701498
11.357461 -84.487877 37.090742
12.935144 -85.083039 37.443748
9.70235 -91.530845 13.330652
10.892226 -91.926529 13.210498
10.780679 -90.243766 13.335062
3.748857 -74.174644 13.581809
3.91385 -75.941223 12.50572
3.215175 -75.285644 13.40005
20.750971 -67.739472 26.753163
20.79595 -69.497253 26.409477
24.188277 -63.101633 18.362413
23.799912 -62.848307 19.727256
18.283162 -64.806454 7.992026
17.937432 -64.917168 9.289517
19.206316 -65.105679 9.165468
18.827457 -65.984604 7.999366
18.283162 -64.806454 7.992026
19.99887 -65.833718 7.584424
18.827457 -65.984604 7.999366
22.530875 -64.963715 7.453524
21.857948 -65.468518 7.338384
22.101399 -64.390751 7.811006
8.365167 -87.846573 26.364021
8.963947 -88.4221 24.546945
9.195533 -88.463291 26.354
9.666117 -87.630188 27.302177
10.347148 -86.899929 28.194353
9.277783 -87.157505 29.063252
9.195533 -88.463291 26.354
9.666117 -87.630188 27.302177
10.257315 -97.474594 13.192635
11.113117 -96.290306 13.005709
10.101814 -96.620605 7.560983
10.386788 -97.312908 8.506728
8.771576 -96.672581 8.570141
10.203978 -95.472092 7.359186
10.101814 -96.620605 7.560983
7.809648 -92.789364 6.034744
6.436216 -92.626568 6.460142
6.289153 -91.300865 6.381151
9.696045 -93.444695 6.17152
7.809648 -92.789364 6.034744
5.95064 -82.82534 9.13158
4.900702 -81.137428 9.6942
21.818615 -66.789208 24.377629
21.533978 -64.944859 24.661232
21.516743 -69.106522 22.148865
21.258999 -68.690331 23.663066
21.818615 -66.789208 24.377629
22.398231 -67.922432 17.938801
23.080414 -66.106567 20.204154
22.959667 -66.130257 18.636438
4.967759 -68.712688 12.889469
4.501187 -68.576142 13.777072
5.783015 -67.15366 13.126801
4.755448 -70.966931 13.53369
4.967759 -68.712688 12.889469
11.62569 -64.9394 11.052253
13.411929 -64.558621 10.294031
19.427897 -81.779419 40.655922
19.231085 -81.019947 40.059945
18.904907 -83.433746 39.55744
19.597945 -82.311295 41.234579
19.427897 -81.779419 40.655922
11.383554 -89.547416 15.038812
11.492998 -89.26258 16.758973
10.193677 -89.151733 15.158966
10.780679 -90.243766 13.335062
11.383554 -89.547416 15.038812
23.775743 -63.312893 15.550283
23.890386 -63.057638 17.013786
22.823104 -64.834797 13.75784
23.775743 -63.312893 15.550283
23.102837 -63.37249 14.268325
22.055278 -64.104756 9.133883
21.442028 -64.960602 8.917459
22.068832 -64.169804 10.355475
22.101399 -64.390751 7.811006
22.055278 -64.104756 9.133883
8.870403 -86.315415 30.945821
9.067213 -86.076119 32.76688
8.189372 -87.045673 30.053644
9.277783 -87.157505 29.063252
8.870403 -86.315415 30.945821
8.17717 -96.719787 13.539915
9.322881 -97.174469 13.391018
8.924091 -95.708085 13.807782
8.000159 -97.514721 12.748123
8.17717 -96.719787 13.539915
7.601369 -96.048336 13.164887
8.232308 -98.018585 11.468276
8.000159 -97.514721 12.748123
8.240454 -97.104076 10.944491
9.048404 -98.279392 10.039672
8.232308 -98.018585 11.468276
6.323847 -89.856384 6.396043
6.289153 -91.300865 6.381151
4.950416 -89.693588 6.821441
6.499066 -88.764668 6.686827
6.323847 -89.856384 6.396043
6.499066 -88.764668 6.686827
5.432544 -86.926823 7.239176
19.460901 -75.57927 31.833198
19.7408 -77.101261 32.238414
20.028868 -75.165836 33.361355
19.489008 -76.134155 30.385076
19.460901 -75.57927 31.833198
19.777075 -74.19873 31.508018
22.233882 -65.303877 23.336138
21.533978 -64.944859 24.661232
7.760052 -66.267216 12.440936
5.783015 -67.15366 13.126801
7.293481 -66.130669 13.32854
8.390232 -84.255275 36.170105
7.524427 -84.423538 35.29128
7.963232 -83.423263 35.601661
8.390232 -84.255275 36.170105
9.605721 -83.881916 36.521912
16.51518 -85.415821 38.569254
18.008625 -84.964752 39.481369
17.581511 -84.416691 39.223982
16.51518 -85.415821 38.569254
14.638078 -85.386006 38.054118
11.07588 -94.889473 13.353451
11.113117 -96.290306 13.005709
10.947928 -93.414894 13.127052
10.892226 -91.926529 13.210498
9.94185 -94.688187 13.432486
11.07588 -94.889473 13.353451
10.947928 -93.414894 13.127052
4.66055 -79.732056 11.402579
4.900702 -81.137428 9.6942
4.044037 -80.772141 11.007661
4.448691 -78.574783 11.206539
4.66055 -79.732056 11.402579
3.592027 -78.209496 12.52
4.977771 -77.771679 11.919213
4.448691 -78.574783 11.206539
4.977771 -77.771679 11.919213
3.91385 -75.941223 12.50572
19.208061 -68.807301 31.779005
19.638179 -70.529247 31.576318
19.837815 -69.303521 30.528806
19.208061 -68.807301 31.779005
19.859223 -69.932194 28.996432
19.951813 -71.801525 28.75231
19.837815 -69.303521 30.528806
20.308397 -70.623966 27.617722
19.859223 -69.932194 28.996432
20.155001 -71.303154 25.977333
19.819826 -73.109386 25.579546
20.308397 -70.623966 27.617722
20.307379 -71.982674 24.3713
20.155001 -71.303154 25.977333
20.79595 -69.497253 26.409477
23.866822 -64.588791 19.319421
23.799912 -62.848307 19.727256
23.184638 -66.404656 17.054068
22.959667 -66.130257 18.636438
23.866822 -64.588791 19.319421
23.793901 -64.819195 16.388424
24.188277 -63.101633 18.362413
23.890386 -63.057638 17.013786
15.013309 -64.703617 10.052924
13.411929 -64.558621 10.294031
14.758319 -64.315147 11.430903
16.686988 -64.539043 9.652936
17.610143 -64.838268 10.826377
17.937432 -64.917168 9.289517
15.013309 -64.703617 10.052924
16.686988 -64.539043 9.652936
20.937083 -65.784012 7.498369
19.99887 -65.833718 7.584424
20.49026 -64.945259 7.781921
20.937083 -65.784012 7.498369
21.857948 -65.468518 7.338384
9.567928 -88.702072 22.737643
10.036443 -89.09766 20.671341
8.737561 -88.085354 22.747664
9.567928 -88.702072 22.737643
8.963947 -88.4221 24.546945
6.414671 -84.573361 33.791155
7.191354 -85.200276 33.832581
7.524427 -84.423538 35.29128
20.137034 -78.556927 36.935461
19.872519 -80.270653 36.210831
19.725647 -79.605289 37.884337
20.175114 -77.542671 35.89344
20.137034 -78.556927 36.935461
20.187544 -76.27544 35.145748
20.296337 -77.955059 34.514263
20.175114 -77.542671 35.89344
19.844293 -74.894829 34.508063
20.187544 -76.27544 35.145748
20.028868 -75.165836 33.361355
19.844293 -74.894829 34.508063
19.725647 -79.605289 37.884337
19.594221 -80.22852 39.150406
10.257315 -97.474594 13.192635
9.322881 -97.174469 13.391018
9.884161 -98.426434 8.279139
9.048404 -98.279392 10.039672
11.214399 -98.374459 7.269982
9.884161 -98.426434 8.279139
10.386788 -97.312908 8.506728
10.069047 -88.410354 18.900539
10.763948 -89.142688 18.633517
10.036443 -89.09766 20.671341
9.939033 -94.539486 6.603856
10.203978 -95.472092 7.359186
8.221656 -95.047673 6.869065
9.939033 -94.539486 6.603856
9.696045 -93.444695 6.17152
5.082083 -83.891026 8.47065
4.931826 -85.277039 8.386045
4.133931 -83.563526 9.214677
5.082083 -83.891026 8.47065
5.95064 -82.82534 9.13158
19.867793 -72.963234 30.172289
19.575567 -72.319629 31.463925
19.638179 -70.529247 31.576318
21.254599 -68.274895 25.347637
20.750971 -67.739472 26.753163
20.952728 -70.592209 23.118873
21.254599 -68.274895 25.347637
21.258999 -68.690331 23.663066
22.455191 -65.650549 21.657683
23.080414 -66.106567 20.204154
22.297669 -67.552071 21.184973
22.233882 -65.303877 23.336138
22.455191 -65.650549 21.657683
4.066731 -72.482697 13.113609
3.748857 -74.174644 13.581809
3.368056 -71.827118 14.007939
4.066731 -72.482697 13.113609
4.755448 -70.966931 13.53369
9.682479 -65.476437 11.537586
11.213729 -64.707188 12.157343
11.62569 -64.9394 11.052253
7.760052 -66.267216 12.440936
9.682479 -65.476437 11.537586
3 0 39 37
3 0 145 147
3 145 40 146
3 145 146 147
3 0 37 40
3 148 42 149
3 1 45 43
3 1 47 45
3 150 49 151
3 152 51 153
3 154 153 49
3 152 153 154
3 156 155 51
3 157 55 158
3 159 158 53
3 157 158 159
3 3 58 56
3 3 60 58
3 160 53 161
3 4 62 61
3 4 64 62
3 2 67 65
3 5 70 68
3 5 72 70
3 5 162 164
3 164 163 72
3 162 163 164
3 165 74 166
3 6 77 75
3 6 79 77
3 7 82 80
3 7 84 82
3 7 86 84
3 8 167 169
3 167 88 168
3 167 168 169
3 10 89 38
3 10 90 89
3 11 170 171
3 11 172 174
3 172 173 174
3 11 175 176
3 8 177 179
3 179 178 41
3 177 178 179
3 8 180 181
3 13 182 184
3 182 91 183
3 182 183 184
3 13 92 91
3 14 95 93
3 16 96 44
3 16 97 96
3 16 99 97
3 17 100 46
3 17 185 187
3 187 186 100
3 185 186 187
3 188 102 189
3 190 103 191
3 20 104 48
3 20 105 104
3 20 107 105
3 21 192 194
3 194 193 50
3 192 193 194
3 21 195 196
3 21 197 198
3 201 200 52
3 199 200 201
3 22 202 204
3 202 109 203
3 202 203 204
3 24 110 54
3 24 111 110
3 9 112 87
3 25 113 57
3 25 114 113
3 25 115 114
3 26 116 59
3 26 117 116
3 22 205 207
3 205 206 207
3 22 208 209
3 12 210 211
3 28 212 214
3 214 213 63
3 212 213 214
3 28 215 216
3 23 119 108
3 29 120 66
3 29 121 120
3 15 122 94
3 30 123 69
3 30 124 123
3 30 125 124
3 217 126 218
3 219 218 71
3 217 218 219
3 221 220 126
3 223 222 98
3 27 127 118
3 31 128 73
3 31 129 128
3 18 130 101
3 32 131 76
3 32 132 131
3 32 133 132
3 33 134 78
3 33 135 134
3 34 224 225
3 34 226 228
3 226 136 227
3 226 227 228
3 19 229 231
3 229 137 230
3 229 230 231
3 35 138 81
3 35 139 138
3 35 140 139
3 36 141 83
3 36 142 141
3 36 143 142
3 232 144 233
3 234 233 85
3 232 233 234
3 236 235 144
3 238 237 106
3 37 38 8
3 39 38 37
3 39 10 38
3 40 239 240
3 40 241 243
3 241 11 242
3 241 242 243
3 40 41 11
3 37 41 40
3 37 8 41
3 42 244 245
3 42 246 248
3 246 13 247
3 246 247 248
3 43 44 14
3 45 44 43
3 45 16 44
3 45 46 16
3 47 46 45
3 47 17 46
3 249 48 250
3 49 251 253
3 251 48 252
3 251 252 253
3 49 20 48
3 49 50 20
3 51 50 49
3 51 21 50
3 51 52 21
3 254 52 255
3 256 255 51
3 254 255 256
3 258 257 52
3 53 54 22
3 55 54 53
3 55 24 54
3 56 57 9
3 58 57 56
3 58 25 57
3 58 59 25
3 60 59 58
3 60 26 59
3 53 259 260
3 53 261 263
3 261 22 262
3 261 262 263
3 61 264 266
3 266 265 12
3 264 265 266
3 62 267 269
3 269 268 61
3 267 268 269
3 62 270 271
3 62 272 274
3 272 63 273
3 272 273 274
3 64 63 62
3 64 28 63
3 65 66 23
3 67 66 65
3 67 29 66
3 68 69 15
3 70 69 68
3 70 30 69
3 70 71 30
3 72 71 70
3 72 275 277
3 277 276 71
3 275 276 277
3 72 278 279
3 281 280 72
3 282 73 283
3 284 283 27
3 282 283 284
3 74 285 287
3 285 73 286
3 285 286 287
3 74 31 73
3 75 76 18
3 77 76 75
3 77 32 76
3 77 78 32
3 79 78 77
3 79 33 78
3 288 34 289
3 80 81 19
3 82 81 80
3 82 35 81
3 82 83 35
3 84 83 82
3 84 36 83
3 84 85 36
3 86 85 84
3 86 290 292
3 292 291 85
3 290 291 292
3 293 87 294
3 88 295 297
3 295 87 296
3 295 296 297
3 88 9 87
3 38 88 8
3 89 88 38
3 89 9 88
3 89 56 9
3 90 56 89
3 90 3 56
3 41 298 300
3 300 299 11
3 298 299 300
3 302 301 41
3 303 12 304
3 91 305 306
3 91 307 309
3 307 12 308
3 307 308 309
3 91 61 12
3 92 61 91
3 92 4 61
3 93 94 2
3 95 94 93
3 95 15 94
3 44 95 14
3 96 95 44
3 96 15 95
3 96 68 15
3 97 68 96
3 97 5 68
3 97 98 5
3 99 98 97
3 99 310 312
3 312 311 98
3 310 311 312
3 46 99 16
3 100 99 46
3 100 313 315
3 315 314 99
3 313 314 315
3 100 316 317
3 319 318 100
3 320 101 321
3 322 101 323
3 324 18 325
3 326 325 101
3 324 325 326
3 327 18 328
3 329 75 330
3 331 330 18
3 329 330 331
3 102 332 334
3 332 75 333
3 332 333 334
3 102 6 75
3 103 335 336
3 103 337 339
3 337 19 338
3 337 338 339
3 48 340 342
3 340 103 341
3 340 341 342
3 104 103 48
3 104 19 103
3 104 80 19
3 105 80 104
3 105 7 80
3 105 106 7
3 107 106 105
3 107 343 345
3 345 344 106
3 343 344 345
3 50 107 20
3 346 107 347
3 348 347 50
3 346 347 348
3 350 349 107
3 52 351 353
3 353 352 21
3 351 352 353
3 355 354 52
3 356 108 357
3 109 358 360
3 358 108 359
3 358 359 360
3 109 23 108
3 54 109 22
3 110 109 54
3 110 23 109
3 110 65 23
3 111 65 110
3 111 2 65
3 87 361 363
3 361 55 362
3 361 362 363
3 112 55 87
3 112 24 55
3 57 112 9
3 113 112 57
3 113 24 112
3 113 111 24
3 114 111 113
3 114 2 111
3 114 93 2
3 115 93 114
3 115 14 93
3 59 115 25
3 116 115 59
3 116 14 115
3 116 43 14
3 117 43 116
3 117 1 43
3 364 118 365
3 366 365 0
3 364 365 366
3 367 118 368
3 369 27 370
3 371 370 118
3 369 370 371
3 372 27 373
3 375 374 27
3 376 0 377
3 379 378 12
3 63 380 381
3 384 383 63
3 382 383 384
3 108 385 387
3 385 42 386
3 385 386 387
3 119 42 108
3 119 13 42
3 66 119 23
3 120 119 66
3 120 13 119
3 120 92 13
3 121 92 120
3 121 4 92
3 94 67 2
3 122 67 94
3 122 29 67
3 69 122 15
3 123 122 69
3 123 29 122
3 123 121 29
3 124 121 123
3 124 4 121
3 124 64 4
3 125 64 124
3 125 28 64
3 71 125 30
3 126 125 71
3 126 28 125
3 126 388 390
3 390 389 28
3 388 389 390
3 392 391 126
3 98 393 395
3 395 394 5
3 393 394 395
3 397 396 98
3 118 39 0
3 127 39 118
3 127 10 39
3 73 127 27
3 128 127 73
3 128 10 127
3 128 90 10
3 129 90 128
3 129 3 90
3 101 398 400
3 398 74 399
3 398 399 400
3 130 74 101
3 130 31 74
3 76 130 18
3 131 130 76
3 131 31 130
3 131 129 31
3 132 129 131
3 132 3 129
3 132 60 3
3 133 60 132
3 133 26 60
3 78 133 32
3 134 133 78
3 134 26 133
3 134 117 26
3 135 117 134
3 135 1 117
3 401 102 402
3 136 403 405
3 403 102 404
3 403 404 405
3 136 6 102
3 137 406 407
3 137 408 410
3 408 34 409
3 408 409 410
3 81 137 19
3 138 137 81
3 138 34 137
3 138 136 34
3 139 136 138
3 139 6 136
3 139 79 6
3 140 79 139
3 140 33 79
3 83 140 35
3 141 140 83
3 141 33 140
3 141 135 33
3 142 135 141
3 142 1 135
3 142 47 1
3 143 47 142
3 143 17 47
3 85 143 36
3 144 143 85
3 144 17 143
3 144 411 413
3 413 412 17
3 411 412 413
3 415 414 144
3 106 86 7
3 416 86 417
3 418 417 106
3 416 417 418
3 420 419 86
