ply
format ascii 1.0
element vertex 519
property float x
property float y
property float z
element face 619
property list uchar int vertex_index
end_header
-6.430344 -9.63243 31.311136
-7.957753 -20.07555 38.917122
-11.780729 -1.847551 41.690292
-6.614561 -7.250777 40.906242
-13.200437 -13.152565 40.855553
-6.77506 -22.625999 31.291742
-3.427007 -22.407253 27.417307
-5.068969 3.933039 29.195312
-4.073333 -0.46828 34.037636
-3.635872 -14.17352 35.84985
-5.060375 -26.335297 37.205025
-11.333196 -30.310251 38.915932
-4.818452 -35.015705 40.991055
-12.283579 -5.013696 45.058727
-12.174225 -7.783107 42.283192
-5.517169 -28.34972 30.437256
-8.529433 -28.246588 29.51651
-4.396354 6.276919 32.609547
-4.585342 3.350723 36.74295
-7.460348 -13.389627 39.503838
-4.521485 -10.344784 38.939842
-4.817496 -16.939627 39.332428
-4.119331 -20.580416 37.121918
-4.936402 -23.68807 40.852268
-15.165926 -38.282337 40.028973
-15.647046 -32.884258 37.505836
-11.662781 -35.137436 40.061352
-8.019608 -32.689713 40.916527
-6.878379 -37.19199 42.765797
-5.730879 -2.86871 30.801296
-1.172503 -1.514044 28.933445
-3.125049 -8.531089 29.64686
-10.00289 1.392217 39.019222
-6.492175 -0.925539 39.632027
-9.669023 -4.792019 40.282433
-9.922407 -10.415331 40.649178
-11.022622 -15.92657 38.374214
-6.962028 -16.393068 31.49242
-5.380548 -15.829394 29.422245
-7.026937 -22.217562 29.056376
-5.814446 -28.76145 27.206512
-6.262609 2.165499 31.553356
-5.989698 -4.736158 32.864754
-4.308943 -3.711964 38.623177
-3.672353 -7.365137 34.865807
-5.069435 -11.794782 32.790138
-4.094074 -18.334946 32.41497
-4.000992 -24.32234 32.753006
-4.438185 -29.44957 33.633865
-14.998644 -17.97492 39.189568
-12.638573 -21.146841 36.9417
-14.206288 -26.956604 36.289703
-9.265259 -25.351971 38.839363
-6.704255 -28.534367 40.95451
-5.490087 -30.691406 38.774658
-5.340585 -33.293468 35.753433
-1.189164 -15.296991 27.494049
-12.746539 -8.179365 45.090355
-4.478517 -30.8857 30.170681
-6.956913 -31.030268 30.165924
-5.831073 4.544976 37.397415
-7.973052 -16.364155 38.761692
-6.215437 -14.946264 39.210167
-6.397179 -18.561924 39.425781
-4.75128 -20.406534 40.1604
-6.134929 -22.129374 40.440205
-12.712065 -38.837952 41.159073
-13.417211 -36.683964 39.760399
-11.074076 -37.378815 41.071266
-9.34857 -36.030869 41.325989
-8.270126 -38.223763 42.620918
-6.065583 -6.23101 31.240173
-4.487648 -5.610263 30.369518
-5.162959 -9.041522 30.442715
-10.949501 -0.34053 40.245167
-9.704291 -1.771103 39.806816
-11.073107 -3.342952 40.668488
-12.490985 -10.543245 41.889198
-11.135794 -9.073454 41.32666
-11.682404 -11.764016 40.56588
-10.43543 -13.14646 39.67667
-12.199356 -14.421147 39.34148
-6.918367 -19.613394 31.431519
-7.301377 -19.167265 30.284298
-7.769817 -22.316725 30.360346
-8.555359 -31.34939 28.568289
-7.632225 -28.450104 28.233118
-4.277853 2.989502 33.434143
-4.997271 4.31443 31.931849
-4.955865 1.007148 32.573536
-6.284208 -1.194925 32.304268
-4.742728 -2.445584 33.108086
-6.522389 -4.265447 40.36573
-5.025064 -2.124172 39.679207
-5.029412 -5.493958 40.301254
-3.833174 -12.14018 37.499447
-4.054898 -8.895503 36.995167
-3.496793 -10.92534 35.265404
-3.868795 -9.509033 33.418621
-3.563953 -12.948328 33.524956
-4.436533 -15.032965 32.544094
-3.628045 -16.243607 33.977337
-4.73826 -23.463886 37.347347
-4.315057 -22.373831 34.736115
-4.618171 -25.339556 34.834763
-4.103112 -27.067719 33.001305
-4.834152 -28.026297 35.288311
-14.148831 -19.274326 37.407825
-14.937123 -22.101456 36.961639
-13.535327 -31.51502 37.776844
-15.068973 -29.883167 36.692318
-12.709669 -28.730108 37.145912
-11.717773 -26.00263 37.140511
-10.287797 -27.875443 38.709881
-7.952773 -27.098272 40.550255
-9.020986 -29.429901 40.51474
-6.126669 -33.825752 41.418495
-6.471573 -31.706394 40.404064
-5.144443 -32.820522 40.074497
-4.953782 -32.005943 37.522717
-4.779647 -34.031887 38.540852
-4.496827 -19.091537 28.358521
-3.390758 -15.612836 28.658947
-2.178414 -18.9091 27.584192
-12.342255 -3.333003 43.34343
-12.104987 -4.857282 42.0009
-12.613109 -6.378472 43.552906
-12.889208 -9.386303 43.524284
-13.494308 -12.150808 42.648952
-6.380091 -25.575207 30.972134
-8.1254 -25.361002 30.50275
-7.861623 -28.31538 30.499592
-4.470207 4.818024 34.770164
-4.392655 1.482136 35.587261
-6.992063 -10.407982 40.509449
-5.256982 -8.788279 40.418186
-5.761761 -11.913819 39.792549
-4.617916 -13.543645 38.989754
-3.926346 -15.450689 38.086338
-3.965057 -17.484369 36.497101
-4.000561 -18.825392 38.760262
-4.133733 -21.995747 39.361637
-4.846254 -24.960066 39.434471
-17.303829 -37.238857 39.781166
-17.405649 -34.292961 38.486641
-15.630849 -35.677631 38.640472
-13.685216 -34.136646 38.532387
-11.801558 -32.734406 39.293541
-9.7659 -31.615366 40.47184
-9.885305 -33.766365 40.489685
-7.613534 -34.91328 41.733978
-5.735729 -36.186504 42.311775
-5.396151 0.552377 30.092808
-3.110736 1.313728 29.203583
-3.767931 -2.177643 29.959965
-1.87176 -5.032589 29.424042
-2.004412 -25.934002 26.473759
-1.137183 -22.466078 26.302958
-7.040534 2.248424 38.344917
-8.203606 0.147938 39.153191
-8.154383 -3.045078 39.897137
-8.088801 -6.029133 40.641518
-11.070984 -6.309032 41.15974
-9.730886 -7.585978 40.968044
-8.221284 -8.881025 40.852142
-8.71138 -11.830947 40.030327
-9.236247 -14.740099 39.05571
-9.686388 -17.806438 38.065071
-6.83255 -13.011793 31.40357
-5.956912 -12.540489 30.353827
-6.724231 -15.943285 30.303656
-6.208773 -19.075638 29.165503
-5.38598 -22.244848 28.066885
-7.940236 -25.247913 29.196674
-6.47709 -25.455647 27.981989
-4.636825 -25.770426 27.144165
-6.201579 5.480386 30.551474
-6.274159 3.159969 30.261913
-6.465503 -0.250922 31.092243
-6.514398 -3.652999 31.792439
-6.482184 -7.088387 32.16378
-5.214069 1.260897 38.621758
-4.41695 -0.214886 37.807011
-4.361445 -2.080309 36.376034
-4.319785 -7.022727 38.979637
-4.18841 -5.562016 36.846119
-3.949986 -4.026004 34.578377
-4.324687 -6.004373 33.383953
-5.605935 -8.244967 32.966053
-6.497031 -10.613812 32.274452
-6.18742 -14.022379 32.291882
-5.688909 -17.374393 32.050724
-5.340949 -20.497185 31.705475
-3.86182 -19.430195 34.463264
-3.944801 -21.4268 32.549995
-4.885283 -23.446587 31.403107
-4.359694 -26.222559 31.234665
-3.982422 -28.804707 31.319117
-4.113656 -31.336542 31.892941
-11.52239 0.631931 42.025757
-11.53966 -0.893353 43.799664
-14.032049 -15.493906 40.052906
-13.253713 -16.713757 38.301151
-11.874293 -18.424868 37.363762
-10.257347 -20.612865 37.718761
-17.149708 -31.213018 37.572983
-16.445751 -28.137135 36.816853
-15.670636 -25.089064 36.650723
-13.361389 -24.090141 36.515217
-10.956438 -23.32123 37.533882
-8.438364 -22.902111 39.139019
-6.975718 -24.723686 40.643044
-5.857027 -26.288263 41.021549
-5.458241 -27.305359 39.689884
-7.638934 -30.65691 40.832848
-6.173395 -29.53422 39.856434
-5.400878 -28.659611 37.867321
-5.091238 -29.960804 36.328186
-4.975671 -31.408783 34.77301
-4.846227 -33.242035 32.915161
-4.220702 -12.2093 29.572613
-1.897246 -11.919328 28.664572
-4.930575 -32.231763 29.819978
-4.253754 -32.138767 30.432896
-7.012539 4.98059 37.227461
-6.402531 6.108777 36.749258
-10.499035 -38.332457 41.73774
-11.893071 -38.108384 41.11517
-11.31803 -39.062025 41.781643
-9.09706 -38.754931 42.512566
-9.672101 -37.801289 41.846092
-10.499035 -38.332457 41.73774
-7.847456 -31.529342 27.962602
-8.4541 -32.943933 27.965272
-15.760167 -22.750447 37.598526
-15.385669 -21.349334 37.754902
-3.840469 4.367333 28.690048
-4.988157 5.659101 28.59252
-13.050728 -10.231873 44.073418
-12.817874 -8.782834 44.30732
-12.979393 -9.628405 44.856453
-13.353278 -11.614126 43.635751
-13.191758 -10.768555 43.086618
-13.050728 -10.231873 44.073418
-7.776891 -31.045381 29.960836
-7.354453 -32.484355 29.814386
-4.527774 4.084373 35.756557
-4.732708 5.722301 35.339591
-4.790275 4.98865 36.325985
-2.002023 -8.350069 29.100963
-1.375378 -6.600819 28.989553
-2.498405 -6.781839 29.535451
-1.251372 -25.897229 25.693297
-1.541924 -27.604603 25.940487
-9.103248 0.770077 39.086207
-8.751376 1.697708 38.516039
-9.651018 2.319848 38.449055
-4.699394 -28.943337 26.835286
-4.110583 -27.447826 26.804113
-5.225636 -27.265938 27.175339
-4.796185 6.953444 31.690655
-4.427682 7.90936 32.181953
-11.457073 1.95978 42.085358
-11.48347 1.489106 41.181942
-11.224178 -0.36749 44.862406
-11.295599 0.337522 43.931948
-11.542028 -1.713087 44.588327
-11.224178 -0.36749 44.862406
-14.911414 -17.456817 40.364869
-15.35925 -18.734032 40.026743
-14.515346 -16.734413 39.621237
-14.428117 -16.21631 40.796537
-14.911414 -17.456817 40.364869
-0.977876 0.230204 28.447754
-1.946993 1.644089 28.582823
-2.14162 -0.100158 29.068514
-0.893743 -13.424803 27.260458
-1.247784 -11.735971 27.84572
-1.543205 -13.608159 28.07931
-0.909584 -20.549377 26.168057
-0.738785 -22.331021 25.314611
-12.33381 -7.531422 45.809294
-12.515059 -6.596531 45.074541
-12.10233 -5.948588 45.79348
-12.683627 -9.106323 45.782532
-12.33381 -7.531422 45.809294
-12.979393 -9.628405 44.856453
-12.683627 -9.106323 45.782532
-6.169773 -32.304047 29.8176
-5.717715 -30.957984 30.168302
-4.930575 -32.231763 29.819978
-7.354453 -32.484355 29.814386
-6.169773 -32.304047 29.8176
-5.413141 5.585776 36.653217
-6.402531 6.108777 36.749258
-5.208208 3.94785 37.070183
-4.790275 4.98865 36.325985
-5.413141 5.585776 36.653217
-7.385889 -30.0797 27.795017
-8.093792 -29.899747 28.400703
-7.847456 -31.529342 27.962602
-6.476999 -30.235373 27.281714
-6.723336 -28.605777 27.719815
-7.385889 -30.0797 27.795017
-5.418515 -30.419728 26.786592
-6.476999 -30.235373 27.281714
-15.416429 -19.286066 38.868866
-15.35925 -18.734032 40.026743
-14.991523 -19.935769 37.977995
-14.573738 -18.624623 38.298697
-15.416429 -19.286066 38.868866
-14.542977 -20.687891 37.184732
-14.991523 -19.935769 37.977995
-15.385669 -21.349334 37.754902
-0.715761 -1.330885 27.980292
-0.81354 -3.07389 28.436235
-8.229246 -29.687938 30.127669
-7.409268 -29.672824 30.332758
-7.776891 -31.045381 29.960836
-8.563151 -29.653541 29.636128
-8.195528 -28.280984 30.008051
-8.229246 -29.687938 30.127669
-8.576114 -31.204943 29.162018
-8.542396 -29.797989 29.0424
-8.563151 -29.653541 29.636128
-8.70067 -32.800967 28.612468
-8.576114 -31.204943 29.162018
-8.4541 -32.943933 27.965272
-8.70067 -32.800967 28.612468
-4.555623 7.197852 33.249353
-4.427682 7.90936 32.181953
-4.592549 6.468404 34.329662
-4.732708 5.722301 35.339591
-4.433281 5.547472 33.689856
-4.555623 7.197852 33.249353
-4.592549 6.468404 34.329662
-17.354739 -35.765909 39.133904
-17.949463 -34.928078 39.549707
-17.898553 -36.401026 40.19697
-1.163169 -4.833163 28.681534
-0.81354 -3.07389 28.436235
-1.522131 -3.273316 29.178743
-1.163169 -4.833163 28.681534
-1.375378 -6.600819 28.989553
-0.817758 -24.163266 25.607897
-1.570797 -24.20004 26.388359
-1.251372 -25.897229 25.693297
-0.738785 -22.331021 25.314611
-0.817758 -24.163266 25.607897
-8.16984 2.747952 38.111902
-7.61727 3.832314 37.701212
-7.62207 1.198181 38.749054
-8.16984 2.747952 38.111902
-8.751376 1.697708 38.516039
-17.819446 -37.807837 40.848314
-17.898553 -36.401026 40.19697
-17.00704 -38.473833 40.50119
-17.819446 -37.807837 40.848314
-15.938088 -38.995573 40.625094
-16.234877 -37.760597 39.905069
-17.00704 -38.473833 40.50119
-14.701985 -39.305145 40.89968
-15.938088 -38.995573 40.625094
-13.475054 -39.582953 41.46473
-13.938996 -38.560144 40.594023
-14.701985 -39.305145 40.89968
-12.102374 -39.648151 41.998564
-13.475054 -39.582953 41.46473
-11.31803 -39.062025 41.781643
-12.102374 -39.648151 41.998564
-2.794377 -27.529613 26.46891
-3.320619 -25.852214 26.808962
-4.110583 -27.447826 26.804113
-1.541924 -27.604603 25.940487
-2.794377 -27.529613 26.46891
-4.699394 -28.943337 26.835286
-5.418515 -30.419728 26.786592
-5.580883 5.166167 29.161679
-4.988157 5.659101 28.59252
-5.096644 5.9722 31.351806
-4.796185 6.953444 31.690655
-4.696813 5.295675 32.270698
-5.698798 6.555178 30.661618
-5.096644 5.9722 31.351806
-5.599425 4.897408 31.241661
-6.325596 7.103763 29.956907
-5.698798 6.555178 30.661618
-6.147188 5.939841 29.83976
-6.325596 7.103763 29.956907
-6.183478 4.779632 29.69498
-6.147188 5.939841 29.83976
-6.237869 4.320177 30.406693
-5.671564 3.546504 29.728613
-5.580883 5.166167 29.161679
-6.183478 4.779632 29.69498
-6.435804 3.3967 37.871166
-7.012539 4.98059 37.227461
-7.61727 3.832314 37.701212
-4.071324 -32.364188 31.294026
-4.253754 -32.138767 30.432896
-4.296086 -31.111121 31.031811
-10.514693 2.791421 38.875996
-9.651018 2.319848 38.449055
-10.723721 1.869249 39.678674
-10.514693 2.791421 38.875996
-11.197026 1.002876 40.291647
-10.476195 0.525844 39.632194
-10.723721 1.869249 39.678674
-11.235945 0.145701 41.135462
-11.197026 1.002876 40.291647
-11.48347 1.489106 41.181942
-11.286963 1.100164 43.044995
-11.457073 1.95978 42.085358
-11.531025 -0.130711 42.912711
-11.286963 1.100164 43.044995
-11.295599 0.337522 43.931948
-11.943326 -2.932912 44.36021
-11.940957 -2.113178 43.571547
-11.542028 -1.713087 44.588327
-11.913988 -3.773259 45.217859
-12.312917 -4.17335 44.201078
-11.943326 -2.932912 44.36021
-11.723069 -4.634971 45.990364
-11.913988 -3.773259 45.217859
-12.10233 -5.948588 45.79348
-11.723069 -4.634971 45.990364
-13.61389 -12.854694 43.502712
-13.353278 -11.614126 43.635751
-13.837492 -13.305409 42.436491
-13.61389 -12.854694 43.502712
-13.690557 -13.806287 41.539791
-13.347373 -12.651687 41.752252
-13.837492 -13.305409 42.436491
-14.106363 -14.976958 41.138468
-14.428117 -16.21631 40.796537
-13.616243 -14.323235 40.454229
-13.690557 -13.806287 41.539791
-14.106363 -14.976958 41.138468
-17.844231 -33.372436 38.99476
-17.949463 -34.928078 39.549707
-17.71626 -31.832465 38.537931
-17.844231 -33.372436 38.99476
-17.277679 -32.752989 38.029812
-17.470633 -30.294514 38.132685
-17.71626 -31.832465 38.537931
-17.118655 -28.756573 37.75462
-17.470633 -30.294514 38.132685
-16.79773 -29.675077 37.194918
-16.811279 -27.2637 37.514629
-17.118655 -28.756573 37.75462
-16.423721 -25.739664 37.431565
-16.811279 -27.2637 37.514629
-16.058194 -26.6131 36.733788
-16.126924 -24.244252 37.443068
-16.423721 -25.739664 37.431565
-15.30388 -23.59526 36.806181
-15.760167 -22.750447 37.598526
-16.126924 -24.244252 37.443068
-4.437609 -33.316935 31.805135
-4.071324 -32.364188 31.294026
-4.479941 -32.289288 32.404051
-7.405152 -39.375626 43.065556
-9.09706 -38.754931 42.512566
-7.067918 -39.195796 42.592009
-7.405152 -39.375626 43.065556
-6.372044 -38.679909 42.664448
-7.574253 -37.707876 42.693358
-7.067918 -39.195796 42.592009
-6.31501 -38.219776 42.158371
-6.372044 -38.679909 42.664448
-5.743685 -37.717033 41.93136
-6.307054 -36.689247 42.538786
-6.31501 -38.219776 42.158371
-5.725434 -36.902429 41.300121
-5.743685 -37.717033 41.93136
-5.266795 -36.31703 40.639761
-5.27709 -35.601104 41.651415
-5.725434 -36.902429 41.300121
-5.349348 -35.583481 39.695124
-5.266795 -36.31703 40.639761
-5.329946 -35.091572 38.470022
-4.799049 -34.523796 39.765954
-5.349348 -35.583481 39.695124
-5.481592 -34.564928 37.142973
-5.329946 -35.091572 38.470022
-5.762061 -34.195718 35.749263
-5.060116 -33.662678 37.147143
-5.481592 -34.564928 37.142973
-5.401762 -34.406419 34.471002
-5.762061 -34.195718 35.749263
-5.154583 -34.380703 33.051867
-5.093406 -33.267752 34.334297
-5.401762 -34.406419 34.471002
-4.507952 -34.61474 32.214022
-5.154583 -34.380703 33.051867
-4.437609 -33.316935 31.805135
-4.507952 -34.61474 32.214022
-2.861353 3.057678 28.694184
-3.840469 4.367333 28.690048
-4.089853 2.623384 29.199447
-2.861353 3.057678 28.694184
-1.946993 1.644089 28.582823
-0.977876 0.230204 28.447754
-0.715761 -1.330885 27.980292
-1.388121 -10.044189 28.609818
-2.002023 -8.350069 29.100963
-2.511147 -10.225209 29.155716
-1.388121 -10.044189 28.609818
-1.247784 -11.735971 27.84572
-1.430199 -18.770888 26.808675
-1.657799 -20.687589 26.943575
-0.909584 -20.549377 26.168057
-0.935574 -16.964833 26.763603
-1.683789 -17.103046 27.539121
-1.430199 -18.770888 26.808675
-0.829452 -15.11826 26.432516
-0.935574 -16.964833 26.763603
-0.893743 -13.424803 27.260458
-0.829452 -15.11826 26.432516
3 223 222 58
3 224 60 225
3 1 63 61
3 1 65 63
3 226 68 227
3 228 227 66
3 226 227 228
3 229 70 230
3 231 230 68
3 229 230 231
3 0 73 71
3 2 76 74
3 4 79 77
3 4 81 79
3 5 84 82
3 233 232 85
3 8 89 87
3 8 91 89
3 3 94 92
3 9 97 95
3 9 99 97
3 9 101 99
3 10 104 102
3 10 106 104
3 234 108 235
3 11 111 109
3 11 113 111
3 11 115 113
3 12 118 116
3 12 120 118
3 7 236 237
3 6 123 121
3 13 126 124
3 238 127 239
3 240 239 57
3 238 239 240
3 241 128 242
3 243 242 127
3 241 242 243
3 15 131 129
3 245 244 59
3 18 246 248
3 246 132 247
3 246 247 248
3 18 133 132
3 19 136 134
3 21 137 62
3 21 138 137
3 21 140 138
3 23 141 64
3 23 142 141
3 24 145 143
3 26 146 67
3 26 147 146
3 26 149 147
3 28 150 69
3 28 151 150
3 29 154 152
3 31 155 72
3 31 249 251
3 251 250 155
3 249 250 251
3 253 252 156
3 32 254 256
3 254 159 255
3 254 255 256
3 34 160 75
3 34 161 160
3 14 162 125
3 35 163 78
3 35 164 163
3 35 165 164
3 36 166 80
3 36 167 166
3 37 170 168
3 39 171 83
3 39 172 171
3 16 173 130
3 40 174 86
3 40 175 174
3 40 257 259
3 259 258 175
3 257 258 259
3 17 260 261
3 41 176 88
3 41 177 176
3 41 178 177
3 42 179 90
3 42 180 179
3 33 181 158
3 43 182 93
3 43 183 182
3 20 184 135
3 44 185 96
3 44 186 185
3 44 187 186
3 45 188 98
3 45 189 188
3 45 190 189
3 46 191 100
3 46 192 191
3 22 193 139
3 47 194 103
3 47 195 194
3 47 196 195
3 48 197 105
3 48 198 197
3 262 199 263
3 264 200 265
3 267 266 200
3 49 268 269
3 49 270 272
3 270 201 271
3 270 271 272
3 49 202 201
3 50 203 107
3 50 204 203
3 25 205 144
3 51 206 110
3 51 207 206
3 51 208 207
3 52 209 112
3 52 210 209
3 52 211 210
3 53 212 114
3 53 213 212
3 27 214 148
3 54 215 117
3 54 216 215
3 54 217 216
3 55 218 119
3 55 219 218
3 30 273 275
3 275 274 153
3 273 274 275
3 38 220 169
3 56 221 122
3 56 276 278
3 278 277 221
3 276 277 278
3 280 279 157
3 281 57 282
3 283 282 13
3 281 282 283
3 284 57 285
3 287 286 57
3 58 59 15
3 288 59 289
3 290 289 58
3 288 289 290
3 292 291 59
3 60 293 294
3 60 295 297
3 295 18 296
3 295 296 297
3 61 62 19
3 63 62 61
3 63 21 62
3 63 64 21
3 65 64 63
3 65 23 64
3 66 67 24
3 68 67 66
3 68 26 67
3 68 69 26
3 70 69 68
3 70 28 69
3 71 72 29
3 73 72 71
3 73 31 72
3 74 75 32
3 76 75 74
3 76 34 75
3 77 78 14
3 79 78 77
3 79 35 78
3 79 80 35
3 81 80 79
3 81 36 80
3 82 83 37
3 84 83 82
3 84 39 83
3 85 86 16
3 298 86 299
3 300 299 85
3 298 299 300
3 301 40 302
3 303 302 86
3 301 302 303
3 305 304 40
3 87 88 17
3 89 88 87
3 89 41 88
3 89 90 41
3 91 90 89
3 91 42 90
3 92 93 33
3 94 93 92
3 94 43 93
3 95 96 20
3 97 96 95
3 97 44 96
3 97 98 44
3 99 98 97
3 99 45 98
3 99 100 45
3 101 100 99
3 101 46 100
3 102 103 22
3 104 103 102
3 104 47 103
3 104 105 47
3 106 105 104
3 106 48 105
3 306 49 307
3 308 107 309
3 310 309 49
3 308 309 310
3 108 311 313
3 311 107 312
3 311 312 313
3 108 50 107
3 109 110 25
3 111 110 109
3 111 51 110
3 111 112 51
3 113 112 111
3 113 52 112
3 113 114 52
3 115 114 113
3 115 53 114
3 116 117 27
3 118 117 116
3 118 54 117
3 118 119 54
3 120 119 118
3 120 55 119
3 315 314 30
3 121 122 38
3 123 122 121
3 123 56 122
3 124 125 2
3 126 125 124
3 126 14 125
3 57 126 13
3 127 126 57
3 127 14 126
3 127 77 14
3 128 77 127
3 128 4 77
3 129 130 5
3 131 130 129
3 131 16 130
3 59 131 15
3 316 131 317
3 318 317 59
3 316 317 318
3 319 16 320
3 321 320 131
3 319 320 321
3 322 85 323
3 324 323 16
3 322 323 324
3 325 85 326
3 328 327 85
3 329 17 330
3 132 331 332
3 132 333 335
3 333 17 334
3 333 334 335
3 132 87 17
3 133 87 132
3 133 8 87
3 134 135 3
3 136 135 134
3 136 20 135
3 62 136 19
3 137 136 62
3 137 20 136
3 137 95 20
3 138 95 137
3 138 9 95
3 138 139 9
3 140 139 138
3 140 22 139
3 64 140 21
3 141 140 64
3 141 22 140
3 141 102 22
3 142 102 141
3 142 10 102
3 143 336 338
3 336 144 337
3 336 337 338
3 145 144 143
3 145 25 144
3 67 145 24
3 146 145 67
3 146 25 145
3 146 109 25
3 147 109 146
3 147 11 109
3 147 148 11
3 149 148 147
3 149 27 148
3 69 149 26
3 150 149 69
3 150 27 149
3 150 116 27
3 151 116 150
3 151 12 116
3 152 153 7
3 154 153 152
3 154 30 153
3 72 154 29
3 155 154 72
3 155 30 154
3 155 339 341
3 341 340 30
3 339 340 341
3 343 342 155
3 156 157 6
3 344 157 345
3 346 345 156
3 344 345 346
3 348 347 157
3 349 158 350
3 159 351 353
3 351 158 352
3 351 352 353
3 159 33 158
3 75 159 32
3 160 159 75
3 160 33 159
3 160 92 33
3 161 92 160
3 161 3 92
3 125 76 2
3 162 76 125
3 162 34 76
3 78 162 14
3 163 162 78
3 163 34 162
3 163 161 34
3 164 161 163
3 164 3 161
3 164 134 3
3 165 134 164
3 165 19 134
3 80 165 35
3 166 165 80
3 166 19 165
3 166 61 19
3 167 61 166
3 167 1 61
3 354 143 355
3 356 143 357
3 358 24 359
3 360 359 143
3 358 359 360
3 361 24 362
3 363 66 364
3 365 364 24
3 363 364 365
3 366 66 367
3 369 368 66
3 168 169 0
3 170 169 168
3 170 38 169
3 83 170 37
3 171 170 83
3 171 38 170
3 171 121 38
3 172 121 171
3 172 6 121
3 130 84 5
3 173 84 130
3 173 39 84
3 86 173 16
3 174 173 86
3 174 39 173
3 174 172 39
3 175 172 174
3 175 6 172
3 175 156 6
3 370 156 371
3 372 371 175
3 370 371 372
3 374 373 156
3 376 375 40
3 377 7 378
3 88 379 381
3 381 380 17
3 379 380 381
3 176 382 384
3 384 383 88
3 382 383 384
3 176 385 386
3 176 387 388
3 177 389 391
3 391 390 176
3 389 390 391
3 177 392 394
3 392 7 393
3 392 393 394
3 177 152 7
3 178 152 177
3 178 29 152
3 90 178 41
3 179 178 90
3 179 29 178
3 179 71 29
3 180 71 179
3 180 0 71
3 158 395 397
3 395 60 396
3 395 396 397
3 181 60 158
3 181 18 60
3 93 181 33
3 182 181 93
3 182 18 181
3 182 133 18
3 183 133 182
3 183 8 133
3 135 94 3
3 184 94 135
3 184 43 94
3 96 184 20
3 185 184 96
3 185 43 184
3 185 183 43
3 186 183 185
3 186 8 183
3 186 91 8
3 187 91 186
3 187 42 91
3 98 187 44
3 188 187 98
3 188 42 187
3 188 180 42
3 189 180 188
3 189 0 180
3 189 168 0
3 190 168 189
3 190 37 168
3 100 190 45
3 191 190 100
3 191 37 190
3 191 82 37
3 192 82 191
3 192 5 82
3 139 101 9
3 193 101 139
3 193 46 101
3 103 193 22
3 194 193 103
3 194 46 193
3 194 192 46
3 195 192 194
3 195 5 192
3 195 129 5
3 196 129 195
3 196 15 129
3 105 196 47
3 197 196 105
3 197 15 196
3 197 58 15
3 198 58 197
3 198 398 400
3 400 399 58
3 398 399 400
3 401 32 402
3 403 32 404
3 405 74 406
3 407 406 32
3 405 406 407
3 199 408 410
3 408 74 409
3 408 409 410
3 199 2 74
3 411 199 412
3 200 413 415
3 413 199 414
3 413 414 415
3 200 2 199
3 200 124 2
3 416 124 417
3 418 417 200
3 416 417 418
3 419 13 420
3 421 420 124
3 419 420 421
3 422 13 423
3 425 424 13
3 426 128 427
3 428 128 429
3 430 4 431
3 432 431 128
3 430 431 432
3 201 433 434
3 201 435 437
3 435 4 436
3 435 436 437
3 201 81 4
3 202 81 201
3 202 36 81
3 107 202 49
3 203 202 107
3 203 36 202
3 203 167 36
3 204 167 203
3 204 1 167
3 144 438 439
3 205 440 442
3 442 441 144
3 440 441 442
3 205 443 444
3 110 205 25
3 206 205 110
3 206 445 447
3 447 446 205
3 445 446 447
3 206 448 449
3 207 450 452
3 452 451 206
3 450 451 452
3 207 453 454
3 207 455 457
3 455 108 456
3 455 456 457
3 208 108 207
3 208 50 108
3 112 208 51
3 209 208 112
3 209 50 208
3 209 204 50
3 210 204 209
3 210 1 204
3 210 65 1
3 211 65 210
3 211 23 65
3 114 211 52
3 212 211 114
3 212 23 211
3 212 142 23
3 213 142 212
3 213 10 142
3 148 115 11
3 214 115 148
3 214 53 115
3 117 214 27
3 215 214 117
3 215 53 214
3 215 213 53
3 216 213 215
3 216 10 213
3 216 106 10
3 217 106 216
3 217 48 106
3 119 217 54
3 218 217 119
3 218 48 217
3 218 198 48
3 219 198 218
3 219 458 460
3 460 459 198
3 458 459 460
3 461 70 462
3 463 70 464
3 465 28 466
3 467 466 70
3 465 466 467
3 468 28 469
3 470 151 471
3 472 471 28
3 470 471 472
3 473 151 474
3 475 12 476
3 477 476 151
3 475 476 477
3 478 12 479
3 480 120 481
3 482 481 12
3 480 481 482
3 483 120 484
3 485 55 486
3 487 486 120
3 485 486 487
3 488 55 489
3 490 219 491
3 492 491 55
3 490 491 492
3 493 219 494
3 496 495 219
3 153 497 499
3 499 498 7
3 497 498 499
3 501 500 153
3 503 502 30
3 169 73 0
3 220 73 169
3 220 31 73
3 122 220 38
3 221 220 122
3 221 31 220
3 221 504 506
3 506 505 31
3 504 505 506
3 508 507 221
3 157 123 6
3 509 123 510
3 511 510 157
3 509 510 511
3 512 56 513
3 514 513 123
3 512 513 514
3 515 56 516
3 518 517 56
