ply
format ascii 1.0
element vertex 574
property float x
property float y
property float z
element face 692
property list uchar int vertex_index
end_header
-11.605218 -8.899723 47.882778
-9.101554 -10.86822 57.406494
-13.658503 -28.456635 46.767418
-5.402651 -29.018951 62.225578
-14.477129 -41.618675 72.129158
-9.245534 -9.683733 64.947334
-6.989091 -19.480457 62.274452
-5.950472 -18.064802 70.044807
-15.859179 -37.038574 50.584652
-18.493277 -35.563194 40.612774
-11.988548 -19.269966 46.325794
-6.510956 -20.966934 52.51244
-5.594564 -29.578619 53.152596
-8.223721 -38.331398 56.589558
-5.272285 -29.462042 70.990089
-4.448464 -41.68605 64.69838
-16.583212 -23.399439 38.235413
-13.212247 -11.077444 44.622551
-9.715894 -9.531166 68.449837
-6.536281 -13.8194 67.71167
-8.341893 -13.763174 70.403122
-17.346638 -41.407368 53.297508
-5.160821 -16.245068 51.521465
-5.213391 -16.330883 55.397583
-8.027399 -24.20738 63.602283
-9.112638 -25.265837 58.15556
-6.290396 -29.67802 57.675606
-5.686475 -34.601261 54.210999
-5.912916 -34.750031 58.267101
-4.42186 -41.627007 69.643829
-8.59496 -42.508381 68.90596
-10.537999 -41.101624 64.803833
-13.454694 -23.868908 46.756901
-15.566432 -21.189148 42.759918
-16.420721 -26.243963 42.58197
-9.48661 -10.390939 61.342773
-5.871511 -15.878145 60.099129
-6.036041 -14.536466 63.959023
-6.026431 -18.670622 66.455666
-6.274644 -23.893169 67.526405
-14.574946 -32.55669 48.356438
-17.362175 -31.744587 43.538338
-18.142208 -36.803764 45.738728
-8.550943 -9.277471 50.295624
-11.707739 -14.235629 47.933823
-8.414885 -15.304438 49.937561
-8.633298 -20.370682 48.810112
-9.944926 -24.689348 50.071224
-7.225627 -20.523905 57.357635
-8.101044 -25.685345 53.506958
-8.960483 -29.143703 49.804096
-9.460531 -32.923607 51.431164
-12.326114 -36.811348 54.089165
-15.292131 -39.925293 57.030437
-8.508533 -18.528885 72.804947
-6.277092 -23.892258 71.690948
-4.068587 -29.071009 66.905418
-3.017889 -35.413994 66.804398
-4.186833 -35.182877 62.594109
-5.470483 -40.05143 60.185585
-12.859517 -40.049988 61.032951
-14.049171 -15.997437 43.812542
-17.791559 -29.376011 38.692387
-12.620715 -10.033281 46.474709
-8.920036 -11.655454 69.279579
-7.465304 -13.999664 56.509369
-6.416667 -26.601963 62.753426
-7.214284 -26.900824 60.50053
-6.181264 -29.291203 60.045124
-6.307397 -32.037285 57.738792
-6.042864 -31.906696 60.176586
-10.676507 -41.004406 73.224274
-8.050913 -42.110737 71.765717
-11.016261 -41.132763 70.884544
-12.048064 -41.029255 68.684311
-15.097961 -41.916649 70.168381
-13.69853 -26.221674 46.899792
-15.088847 -25.070904 44.74633
-15.321665 -27.569164 44.743095
-9.303488 -10.04272 63.206261
-7.809486 -12.739097 62.599487
-7.848318 -12.272703 64.387413
-5.965472 -15.872763 68.955803
-5.502681 -16.205624 67.117966
-5.788097 -18.258703 68.248978
-6.59471 -20.985409 67.467644
-6.165825 -20.807253 69.125435
-10.471245 -7.18329 65.413582
-10.116748 -7.187748 63.641632
-9.973219 -7.299595 62.070454
-15.172308 -34.731491 49.490704
-16.654554 -34.64093 47.017006
-17.15839 -36.979691 48.219872
-8.611525 -12.338936 50.382912
-6.965714 -12.517196 50.732693
-5.218563 -19.188334 51.630562
-6.373013 -18.617363 49.730515
-6.998876 -20.842472 50.319565
-9.584967 -22.270844 49.635162
-8.161074 -22.648823 51.269489
-5.354869 -17.798637 61.217262
-5.322074 -18.395258 58.8536
-7.205454 -19.923578 59.809582
-7.052984 -27.83884 55.476959
-8.724733 -25.658916 55.664162
-6.688905 -27.691345 53.259491
-7.343263 -27.366016 51.176342
-6.610708 -29.304861 51.063812
-8.876666 -31.085133 50.273743
-6.556054 -31.525806 51.653309
-6.793573 -36.632645 55.257294
-8.731604 -35.653225 54.150158
-10.352351 -37.449062 55.462139
-13.776308 -38.590797 55.373035
-11.810776 -38.782482 56.983776
-7.292628 -24.127924 73.149414
-5.641098 -26.818867 71.585213
-5.027112 -26.585003 69.585136
-4.180657 -29.184612 69.369476
-4.209403 -42.091454 67.262329
-3.268 -39.197346 67.503792
-3.333141 -39.039143 65.508461
-3.263241 -35.367271 64.668289
-3.871194 -38.750103 63.31963
-4.557048 -38.239445 61.239124
-4.910987 -40.92033 62.3839
-14.179914 -40.986652 64.869072
-11.66797 -40.541866 62.89201
-15.069509 -41.13723 63.047352
-15.815676 -41.524147 60.993065
-11.824064 -16.802057 47.140774
-13.047956 -15.143008 46.002911
-13.185648 -17.641193 45.19529
-16.392847 -22.072948 40.51115
-15.719856 -19.493145 40.863918
-15.834215 -20.597212 38.548164
-18.365023 -33.560379 41.959835
-17.974539 -30.730051 41.07457
-18.282812 -32.451912 39.50288
-9.320185 -9.497852 66.75045
-7.85695 -11.847444 66.285698
-8.166979 -11.528354 67.987778
-7.212542 -13.578918 69.340836
-6.748574 -15.641751 70.618408
-16.685274 -39.246979 51.879688
-17.584082 -39.290527 49.589043
-17.880375 -41.73048 50.912285
-5.454081 -13.008974 51.400566
-5.290844 -13.377515 52.946289
-4.772811 -16.38813 53.331665
-5.005219 -19.175533 54.033104
-8.440224 -21.381922 63.531914
-9.212033 -21.842896 60.842731
-8.948489 -24.611643 61.044792
-7.445271 -27.411327 57.97049
-5.766667 -29.802288 55.389538
-5.270175 -31.91655 53.449501
-5.431809 -32.083248 55.562065
-5.32441 -34.629566 56.171825
-5.32517 -37.070847 56.8088
-5.446736 -40.458183 71.074928
-6.188783 -41.53289 72.082581
-6.104914 -42.931091 69.646606
-6.384531 -42.761745 66.94812
-6.883556 -42.071442 64.560074
-9.395417 -41.976036 66.680344
-13.042372 -41.011543 66.690918
-12.809198 -21.578831 46.482208
-13.902143 -20.2314 44.782635
-14.703517 -22.615475 44.680405
-16.033356 -23.668278 42.601761
-16.943319 -24.835615 40.320889
-9.463635 -10.764883 59.531494
-7.858727 -13.965268 58.95586
-7.761488 -13.446478 60.794353
-5.91836 -15.193454 62.130943
-5.353174 -17.213999 63.268047
-6.140487 -14.14639 65.828354
-5.39928 -16.616282 65.259338
-6.517677 -19.091686 64.453514
-7.507768 -21.157471 65.729019
-6.974566 -24.048916 65.638474
-5.695413 -26.485865 64.791069
-13.950229 -30.640381 47.191025
-15.703819 -30.077427 45.084892
-16.301413 -32.350616 45.959473
-17.758999 -34.341316 44.479816
-18.724518 -36.463802 43.113884
-18.341976 -39.25338 47.088417
-18.668911 -38.959789 44.459755
-18.335062 -38.376816 41.915462
-10.261301 -9.123528 49.307823
-11.749619 -11.54275 48.110542
-10.385374 -12.019699 49.51466
-10.234326 -14.764238 49.188896
-10.113525 -17.46196 48.174629
-6.619311 -15.875455 50.409039
-8.23538 -17.99078 48.852684
-10.354074 -19.803837 47.574425
-11.226474 -21.991364 48.114307
-11.799816 -24.255114 48.617935
-11.777765 -26.561258 48.585651
-5.759518 -16.170816 57.711731
-5.265725 -18.779312 56.392159
-6.8782 -20.856518 55.021484
-9.381513 -22.370735 58.005775
-8.97191 -22.86307 55.531792
-8.210079 -22.905117 53.343719
-8.315847 -25.275738 51.560406
-9.530746 -27.052464 49.799614
-11.479441 -28.764868 48.556084
-11.474974 -30.728241 48.922493
-12.071203 -32.498486 50.073887
-13.113182 -34.39069 51.477173
-7.222798 -33.805862 52.721416
-10.823134 -34.717903 52.971142
-14.151155 -36.685234 52.443653
-15.339247 -38.801136 53.707672
-16.488684 -40.596272 55.232769
-9.890371 -14.652272 70.219391
-8.34436 -15.999735 71.582848
-6.846417 -18.08527 71.856712
-7.194594 -20.972904 72.797501
-6.341169 -20.777409 71.125275
-6.019628 -23.845047 69.6521
-5.186068 -26.459476 67.213631
-4.57675 -29.024555 64.522949
-4.073701 -39.018791 68.450081
-3.797281 -35.412766 68.301056
-3.845984 -32.169708 68.763748
-3.450699 -32.013023 66.718163
-3.871435 -31.99876 64.360535
-4.838724 -32.063885 62.280823
-5.39953 -35.065392 60.63102
-4.989109 -37.585899 59.016682
-6.488996 -39.288315 58.176155
-7.63487 -41.246059 62.347267
-8.699231 -40.382515 60.461903
-10.103886 -39.493782 58.745678
-14.020871 -39.805515 59.112751
-16.353855 -42.014923 58.912243
-12.81322 -12.607492 46.387169
-13.733472 -13.55858 44.356472
-14.180677 -14.46001 42.22403
-14.697611 -18.618561 43.202431
-14.824185 -16.938715 41.540169
-16.823742 -29.039612 42.841438
-17.451851 -27.724493 40.47612
-17.176807 -26.390265 38.212406
-12.112967 -9.466502 47.178743
-12.270898 -8.45838 46.501471
-11.76315 -7.891601 47.205506
-8.283429 -12.433942 56.957932
-7.792059 -12.350443 55.950277
-8.610184 -10.784721 56.39884
-14.941129 -43.273995 71.690708
-15.251545 -43.422981 70.710319
-14.787545 -41.767662 71.14877
-8.726527 -9.02858 57.062002
-9.284308 -9.091691 58.018286
-8.610184 -10.784721 56.39884
-8.726527 -9.02858 57.062002
-6.229724 -11.172197 51.066587
-6.937387 -10.983435 50.734503
-5.456691 -28.140455 71.287651
-6.291688 -26.967405 72.193612
-6.107281 -28.288992 71.89605
-15.392404 -42.538678 63.676317
-14.624712 -41.061941 63.958212
-14.947607 -42.463389 64.587177
-15.364949 -42.730566 62.686858
-15.392404 -42.538678 63.676317
-15.760167 -22.750447 37.598526
-15.385669 -21.349334 37.754902
-16.208714 -21.998325 38.391789
-13.050728 -10.231873 44.073418
-12.979393 -9.628405 44.856453
-13.353278 -11.614126 43.635751
-13.050728 -10.231873 44.073418
-10.29647 -8.430753 67.8676
-10.641416 -8.646866 68.699845
-9.51804 -9.514509 67.600144
-10.098616 -8.414096 67.017906
-10.29647 -8.430753 67.8676
-5.85654 -11.955365 53.475078
-5.245575 -11.817011 52.873432
-4.993101 -16.359507 54.364624
-5.508885 -15.078053 53.926132
-5.729175 -15.049429 54.959091
-7.274909 -41.039379 72.988903
-6.716415 -40.491737 72.771557
-14.31857 -41.732399 67.429108
-12.545218 -41.020399 67.687614
-13.821416 -41.741255 68.425804
-14.337488 -42.218947 66.486217
-14.31857 -41.732399 67.429108
-9.649901 -8.899007 60.848211
-9.893206 -7.353336 61.212052
-9.729914 -8.845267 61.706614
-9.475123 -10.577911 60.437134
-9.638414 -9.08598 59.942571
-9.649901 -8.899007 60.848211
-18.268127 -40.518961 47.744742
-17.963029 -39.271953 48.33873
-17.889179 -40.537534 48.995054
-18.170885 -39.916219 43.883904
-18.397539 -40.226961 45.110935
-18.00396 -39.624733 42.611757
-18.501987 -38.668302 43.187608
-18.170885 -39.916219 43.883904
-17.522657 -39.042812 41.568338
-18.00396 -39.624733 42.611757
-16.074601 -41.288277 56.855694
-16.672877 -41.623766 55.95686
-15.890407 -40.260783 56.131603
-10.503431 -15.272051 69.691201
-10.616785 -14.118873 69.269916
-11.229845 -14.738653 68.741726
-8.426447 -17.26431 72.193897
-9.098126 -16.476581 71.509804
-9.180212 -17.741155 72.120854
-16.038194 -43.374476 59.5492
-16.084765 -41.769535 59.952654
-15.769105 -43.129087 60.589611
-16.075664 -43.600876 58.379207
-16.038194 -43.374476 59.5492
-8.850155 -7.767843 49.866349
-8.07599 -7.835608 50.414303
-9.406122 -9.200499 49.801723
-9.705334 -7.690872 49.372448
-8.850155 -7.767843 49.866349
-14.911414 -17.456817 40.364869
-15.27202 -18.21593 41.202044
-15.35925 -18.734032 40.026743
-14.428117 -16.21631 40.796537
-14.911414 -17.456817 40.364869
-12.683627 -9.106323 45.782532
-12.33381 -7.531422 45.809294
-12.270898 -8.45838 46.501471
-12.916481 -10.555363 45.54863
-12.979393 -9.628405 44.856453
-12.683627 -9.106323 45.782532
-9.853433 -10.883037 69.286125
-9.317965 -10.59331 68.864708
-10.251361 -9.820893 68.871254
-9.555347 -12.02243 69.323158
-9.853433 -10.883037 69.286125
-9.266276 -13.07629 69.884929
-8.630965 -12.709314 69.841351
-9.555347 -12.02243 69.323158
-10.251361 -9.820893 68.871254
-10.641416 -8.646866 68.699845
-17.424271 -42.773281 52.687141
-17.267154 -42.602821 53.891817
-6.855131 -13.883819 55.514984
-7.792059 -12.350443 55.950277
-6.339347 -15.165273 55.953476
-5.729175 -15.049429 54.959091
-6.855131 -13.883819 55.514984
-9.36371 -41.557572 72.494995
-8.205974 -41.328302 72.830471
-9.518771 -40.775137 73.55975
-15.346365 -42.184952 69.167839
-13.821416 -41.741255 68.425804
-13.573013 -41.472952 69.426346
-15.154481 -43.775127 69.779365
-15.346365 -42.184952 69.167839
-15.154481 -43.775127 69.779365
-15.251545 -43.422981 70.710319
-10.793797 -5.851525 64.956074
-11.136062 -6.06677 65.858295
-10.616549 -5.853754 64.070099
-10.793797 -5.851525 64.956074
-10.293996 -7.185519 64.527607
-10.159661 -5.653386 63.329926
-10.616549 -5.853754 64.070099
-10.044984 -7.243671 62.856043
-10.087897 -5.709309 62.544337
-10.159661 -5.653386 63.329926
-7.760293 -10.894305 50.559613
-8.581234 -10.808204 50.339268
-7.730002 -9.363573 50.515968
-7.78862 -12.428066 50.557802
-7.760293 -10.894305 50.559613
-6.937387 -10.983435 50.734503
-9.4025 -18.886894 72.90437
-9.180212 -17.741155 72.120854
-7.117452 -25.621933 72.975712
-8.048523 -24.284541 73.513249
-6.466863 -25.473396 72.367313
-7.117452 -25.621933 72.975712
-6.291688 -26.967405 72.193612
-15.738032 -42.924025 61.659714
-15.442592 -41.330689 62.020208
-15.364949 -42.730566 62.686858
-15.769105 -43.129087 60.589611
-15.738032 -42.924025 61.659714
-7.730002 -9.363573 50.515968
-8.07599 -7.835608 50.414303
-15.416429 -19.286066 38.868866
-15.35925 -18.734032 40.026743
-15.777036 -20.045178 39.706041
-14.991523 -19.935769 37.977995
-15.416429 -19.286066 38.868866
-14.991523 -19.935769 37.977995
-15.385669 -21.349334 37.754902
-10.674146 -7.256815 66.349472
-11.136062 -6.06677 65.858295
-9.895715 -8.340571 66.082016
-10.674146 -7.256815 66.349472
-10.098616 -8.414096 67.017906
-18.037326 -41.757511 49.656675
-17.889179 -40.537534 48.995054
-17.732228 -40.510503 50.250664
-17.69114 -42.934837 51.49453
-17.613506 -41.568924 52.104896
-17.424271 -42.773281 52.687141
-17.657746 -42.935253 50.208303
-17.69114 -42.934837 51.49453
-18.037326 -41.757511 49.656675
-17.657746 -42.935253 50.208303
-5.327193 -11.63274 52.100571
-5.473908 -11.418086 51.400524
-5.372463 -13.193245 52.173428
-5.327193 -11.63274 52.100571
-5.245575 -11.817011 52.873432
-5.767901 -13.572745 53.733444
-5.85654 -11.955365 53.475078
-5.031828 -14.882822 53.138977
-5.767901 -13.572745 53.733444
-5.508885 -15.078053 53.926132
-6.048452 -29.587542 71.234172
-6.107281 -28.288992 71.89605
-6.345391 -39.954383 72.26773
-6.428036 -39.735743 71.042568
-5.817759 -40.995537 71.578755
-6.345391 -39.954383 72.26773
-6.716415 -40.491737 72.771557
-7.119848 -41.821814 71.924149
-7.274909 -41.039379 72.988903
-8.205974 -41.328302 72.830471
-14.906259 -42.206501 65.575294
-13.611143 -40.999098 65.779995
-14.337488 -42.218947 66.486217
-14.947607 -42.463389 64.587177
-14.906259 -42.206501 65.575294
-17.949463 -34.928078 39.549707
-17.898553 -36.401026 40.19697
-10.914716 -40.545862 73.996368
-9.518771 -40.775137 73.55975
-12.37409 -41.326183 73.560127
-10.914716 -40.545862 73.996368
-14.274401 -41.633318 73.01257
-12.576818 -41.311541 72.676716
-12.37409 -41.326183 73.560127
-15.054309 -42.899389 72.555317
-14.274401 -41.633318 73.01257
-9.602104 -5.707707 62.01244
-10.087897 -5.709309 62.544337
-9.602104 -5.707707 62.01244
-9.893206 -7.353336 61.212052
-9.465348 -9.040023 59.080786
-9.638414 -9.08598 59.942571
-9.282595 -10.816551 58.468994
-9.284308 -9.091691 58.018286
-9.465348 -9.040023 59.080786
-18.234071 -40.373756 46.425266
-18.268127 -40.518961 47.744742
-18.505443 -39.106584 45.774086
-18.234071 -40.373756 46.425266
-18.397539 -40.226961 45.110935
-17.819446 -37.807837 40.848314
-17.898553 -36.401026 40.19697
-18.414169 -36.970005 41.264118
-17.00704 -38.473833 40.50119
-17.819446 -37.807837 40.848314
-17.522657 -39.042812 41.568338
-6.209898 -12.763085 51.066629
-6.229724 -11.172197 51.066587
-5.473908 -11.418086 51.400524
-16.838177 -42.197273 54.859448
-17.267154 -42.602821 53.891817
-16.917661 -41.00182 54.265138
-16.838177 -42.197273 54.859448
-16.672877 -41.623766 55.95686
-10.040515 -13.520839 69.793064
-10.616785 -14.118873 69.269916
-9.116132 -14.207723 70.311256
-9.266276 -13.07629 69.884929
-10.040515 -13.520839 69.793064
-9.871132 -15.802849 70.828076
-10.503431 -15.272051 69.691201
-9.117366 -15.326003 70.901119
-9.871132 -15.802849 70.828076
-9.098126 -16.476581 71.509804
-8.623604 -19.985751 73.295044
-9.4025 -18.886894 72.90437
-8.015652 -22.78527 73.467277
-8.048523 -24.284541 73.513249
-7.966635 -21.20776 73.291321
-8.015652 -22.78527 73.467277
-7.243611 -22.550414 72.973457
-7.851564 -19.750895 72.801224
-8.623604 -19.985751 73.295044
-7.966635 -21.20776 73.291321
-5.178645 -30.90081 70.358543
-6.048452 -29.587542 71.234172
-5.506288 -39.662874 69.616176
-6.487588 -38.940433 69.583817
-6.428036 -39.735743 71.042568
-4.81977 -38.943178 68.303753
-5.506288 -39.662874 69.616176
-4.760218 -39.738487 69.762505
-4.562117 -37.190207 68.446037
-4.81977 -38.943178 68.303753
-4.423907 -35.387194 68.371525
-4.562117 -37.190207 68.446037
-3.935491 -37.215778 68.375568
-4.441143 -33.876171 69.014026
-4.423907 -35.387194 68.371525
-4.465495 -32.254643 69.245373
-4.441143 -33.876171 69.014026
-3.821632 -33.791237 68.532402
-4.559134 -30.815875 69.876919
-5.178645 -30.90081 70.358543
-4.465495 -32.254643 69.245373
-16.605463 -42.333092 57.796596
-16.074601 -41.288277 56.855694
-15.822993 -40.970108 57.97134
-16.605463 -42.333092 57.796596
-16.075664 -43.600876 58.379207
-15.51831 -44.554709 72.116867
-14.941129 -43.273995 71.690708
-15.054309 -42.899389 72.555317
-10.390701 -7.63146 48.739593
-9.705334 -7.690872 49.372448
-10.93326 -9.011626 48.595301
-11.06266 -7.519557 48.027071
-10.390701 -7.63146 48.739593
-11.06266 -7.519557 48.027071
-11.76315 -7.891601 47.205506
-13.61389 -12.854694 43.502712
-13.353278 -11.614126 43.635751
-13.47286 -12.318012 44.489511
-13.837492 -13.305409 42.436491
-13.61389 -12.854694 43.502712
-13.957075 -14.009295 43.290251
-13.690557 -13.806287 41.539791
-13.837492 -13.305409 42.436491
-14.106363 -14.976958 41.138468
-14.502431 -15.699362 41.882099
-14.428117 -16.21631 40.796537
-13.690557 -13.806287 41.539791
-14.106363 -14.976958 41.138468
-17.844231 -33.372436 38.99476
-18.388044 -34.007553 40.057827
-17.949463 -34.928078 39.549707
-17.71626 -31.832465 38.537931
-17.844231 -33.372436 38.99476
-17.470633 -30.294514 38.132685
-18.037185 -30.913961 39.097634
-17.71626 -31.832465 38.537931
-17.118655 -28.756573 37.75462
-17.470633 -30.294514 38.132685
-16.811279 -27.2637 37.514629
-17.484183 -27.883138 38.452396
-17.118655 -28.756573 37.75462
-16.423721 -25.739664 37.431565
-16.811279 -27.2637 37.514629
-16.126924 -24.244252 37.443068
-16.880009 -24.894852 38.22391
-16.423721 -25.739664 37.431565
-15.760167 -22.750447 37.598526
-16.126924 -24.244252 37.443068
3 0 249 251
3 249 63 250
3 249 250 251
3 1 252 254
3 252 65 253
3 252 253 254
3 3 68 66
3 3 70 68
3 4 73 71
3 4 75 73
3 4 255 257
3 257 256 75
3 255 256 257
3 1 258 259
3 1 260 261
3 2 78 76
3 5 81 79
3 7 84 82
3 7 86 84
3 5 88 87
3 5 79 88
3 8 92 90
3 262 94 263
3 11 97 95
3 11 99 97
3 6 102 100
3 12 105 103
3 12 107 105
3 12 109 107
3 13 112 110
3 13 114 112
3 14 264 266
3 264 116 265
3 264 265 266
3 14 118 116
3 15 121 119
3 15 123 121
3 15 125 123
3 267 128 268
3 269 268 126
3 267 268 269
3 271 270 128
3 10 132 130
3 16 135 133
3 16 272 274
3 274 273 135
3 272 273 274
3 9 138 136
3 17 275 276
3 17 277 278
3 18 141 139
3 20 142 64
3 20 143 142
3 18 279 280
3 18 281 283
3 281 139 282
3 281 282 283
3 21 146 144
3 284 148 285
3 23 286 288
3 286 149 287
3 286 287 288
3 23 150 149
3 24 153 151
3 26 154 67
3 26 155 154
3 26 157 155
3 28 158 69
3 28 159 158
3 289 161 290
3 30 162 72
3 30 163 162
3 30 165 163
3 291 166 292
3 293 292 74
3 291 292 293
3 295 294 166
3 32 169 167
3 34 170 77
3 34 171 170
3 35 174 172
3 37 175 80
3 37 176 175
3 19 177 140
3 38 178 83
3 38 179 178
3 38 180 179
3 39 181 85
3 39 182 181
3 35 296 298
3 298 297 89
3 296 297 298
3 35 299 301
3 299 172 300
3 299 300 301
3 40 185 183
3 42 186 91
3 42 187 186
3 302 188 303
3 304 303 145
3 302 303 304
3 305 189 306
3 307 190 308
3 309 308 189
3 307 308 309
3 311 310 190
3 43 193 191
3 45 194 93
3 45 195 194
3 22 196 147
3 46 197 96
3 46 198 197
3 46 199 198
3 47 200 98
3 47 201 200
3 36 202 173
3 48 203 101
3 48 204 203
3 25 205 152
3 49 206 104
3 49 207 206
3 49 208 207
3 50 209 106
3 50 210 209
3 50 211 210
3 51 212 108
3 51 213 212
3 27 214 156
3 52 215 111
3 52 216 215
3 52 217 216
3 53 218 113
3 53 312 314
3 314 313 218
3 312 313 314
3 315 219 316
3 315 316 317
3 54 318 320
3 318 220 319
3 318 319 320
3 54 221 220
3 55 222 115
3 55 223 222
3 55 224 223
3 56 225 117
3 56 226 225
3 29 227 160
3 57 228 120
3 57 229 228
3 57 230 229
3 58 231 122
3 58 232 231
3 58 233 232
3 59 234 124
3 59 235 234
3 31 236 164
3 60 237 127
3 60 238 237
3 60 239 238
3 321 240 322
3 323 322 129
3 321 322 323
3 325 324 240
3 43 326 327
3 43 328 330
3 328 191 329
3 328 329 330
3 44 241 192
3 61 242 131
3 61 243 242
3 33 244 168
3 331 245 332
3 333 332 134
3 331 332 333
3 335 334 245
3 41 246 184
3 62 247 137
3 62 248 247
3 63 336 338
3 336 337 338
3 63 339 341
3 339 17 340
3 339 340 341
3 342 64 343
3 344 343 18
3 342 343 344
3 345 64 346
3 347 20 348
3 349 348 64
3 347 348 349
3 350 18 351
3 353 352 21
3 65 354 355
3 65 356 358
3 356 23 357
3 356 357 358
3 66 67 24
3 68 67 66
3 68 26 67
3 68 69 26
3 70 69 68
3 70 28 69
3 71 359 361
3 359 72 360
3 359 360 361
3 73 72 71
3 73 30 72
3 73 74 30
3 75 74 73
3 75 362 364
3 364 363 74
3 362 363 364
3 75 365 366
3 368 367 75
3 76 77 32
3 78 77 76
3 78 34 77
3 79 80 35
3 81 80 79
3 81 37 80
3 82 83 19
3 84 83 82
3 84 38 83
3 84 85 38
3 86 85 84
3 86 39 85
3 87 369 370
3 88 371 373
3 373 372 87
3 371 372 373
3 88 374 375
3 88 376 378
3 376 89 377
3 376 377 378
3 79 89 88
3 79 35 89
3 90 91 40
3 92 91 90
3 92 42 91
3 379 93 380
3 381 380 43
3 379 380 381
3 94 382 384
3 382 93 383
3 382 383 384
3 94 45 93
3 95 96 22
3 97 96 95
3 97 46 96
3 97 98 46
3 99 98 97
3 99 47 98
3 100 101 36
3 102 101 100
3 102 48 101
3 103 104 25
3 105 104 103
3 105 49 104
3 105 106 49
3 107 106 105
3 107 50 106
3 107 108 50
3 109 108 107
3 109 51 108
3 110 111 27
3 112 111 110
3 112 52 111
3 112 113 52
3 114 113 112
3 114 53 113
3 385 54 386
3 387 115 388
3 116 389 391
3 389 115 390
3 389 390 391
3 116 55 115
3 116 117 55
3 118 117 116
3 118 56 117
3 119 120 29
3 121 120 119
3 121 57 120
3 121 122 57
3 123 122 121
3 123 58 122
3 123 124 58
3 125 124 123
3 125 59 124
3 126 127 31
3 128 127 126
3 128 60 127
3 128 129 60
3 392 129 393
3 394 393 128
3 392 393 394
3 396 395 129
3 397 43 398
3 130 131 44
3 132 131 130
3 132 61 131
3 133 134 33
3 135 134 133
3 135 399 401
3 401 400 134
3 399 400 401
3 135 402 403
3 405 404 135
3 136 137 41
3 138 137 136
3 138 62 137
3 139 140 5
3 141 140 139
3 141 19 140
3 64 141 18
3 142 141 64
3 142 19 141
3 142 82 19
3 143 82 142
3 143 7 82
3 406 87 407
3 139 408 410
3 408 87 409
3 408 409 410
3 139 5 87
3 144 145 8
3 146 145 144
3 146 411 413
3 413 412 145
3 411 412 413
3 414 146 415
3 416 415 21
3 414 415 416
3 417 146 418
3 420 419 146
3 421 147 422
3 148 423 425
3 423 147 424
3 423 424 425
3 148 22 147
3 426 148 427
3 149 428 430
3 428 148 429
3 428 429 430
3 149 22 148
3 149 95 22
3 150 95 149
3 150 11 95
3 151 152 6
3 153 152 151
3 153 25 152
3 67 153 24
3 154 153 67
3 154 25 153
3 154 103 25
3 155 103 154
3 155 12 103
3 155 156 12
3 157 156 155
3 157 27 156
3 69 157 26
3 158 157 69
3 158 27 157
3 158 110 27
3 159 110 158
3 159 13 110
3 431 14 432
3 433 160 434
3 161 435 437
3 435 160 436
3 435 436 437
3 161 29 160
3 72 438 440
3 438 161 439
3 438 439 440
3 162 161 72
3 162 29 161
3 162 119 29
3 163 119 162
3 163 15 119
3 163 164 15
3 165 164 163
3 165 31 164
3 74 165 30
3 166 165 74
3 166 31 165
3 166 126 31
3 441 126 442
3 443 442 166
3 441 442 443
3 445 444 126
3 167 168 10
3 169 168 167
3 169 33 168
3 77 169 32
3 170 169 77
3 170 33 169
3 170 133 33
3 171 133 170
3 171 16 133
3 447 446 9
3 172 173 1
3 174 173 172
3 174 36 173
3 80 174 35
3 175 174 80
3 175 36 174
3 175 100 36
3 176 100 175
3 176 6 100
3 140 81 5
3 177 81 140
3 177 37 81
3 83 177 19
3 178 177 83
3 178 37 177
3 178 176 37
3 179 176 178
3 179 6 176
3 179 151 6
3 180 151 179
3 180 24 151
3 85 180 38
3 181 180 85
3 181 24 180
3 181 66 24
3 182 66 181
3 182 3 66
3 448 71 449
3 450 71 451
3 452 4 453
3 454 453 71
3 452 453 454
3 456 455 4
3 89 457 458
3 460 459 89
3 172 461 462
3 172 463 465
3 463 1 464
3 463 464 465
3 183 184 2
3 185 184 183
3 185 41 184
3 91 185 40
3 186 185 91
3 186 41 185
3 186 136 41
3 187 136 186
3 187 9 136
3 145 92 8
3 188 92 145
3 188 42 92
3 466 188 467
3 189 468 470
3 468 188 469
3 468 469 470
3 189 42 188
3 189 187 42
3 190 187 189
3 190 9 187
3 190 471 473
3 473 472 9
3 471 472 473
3 476 475 190
3 474 475 476
3 191 192 0
3 193 192 191
3 193 44 192
3 93 193 43
3 194 193 93
3 194 44 193
3 194 130 44
3 195 130 194
3 195 10 130
3 147 477 479
3 477 94 478
3 477 478 479
3 196 94 147
3 196 45 94
3 96 196 22
3 197 196 96
3 197 45 196
3 197 195 45
3 198 195 197
3 198 10 195
3 198 167 10
3 199 167 198
3 199 32 167
3 98 199 46
3 200 199 98
3 200 32 199
3 200 76 32
3 201 76 200
3 201 2 76
3 173 65 1
3 202 65 173
3 202 23 65
3 101 202 36
3 203 202 101
3 203 23 202
3 203 150 23
3 204 150 203
3 204 11 150
3 152 102 6
3 205 102 152
3 205 48 102
3 104 205 25
3 206 205 104
3 206 48 205
3 206 204 48
3 207 204 206
3 207 11 204
3 207 99 11
3 208 99 207
3 208 47 99
3 106 208 49
3 209 208 106
3 209 47 208
3 209 201 47
3 210 201 209
3 210 2 201
3 210 183 2
3 211 183 210
3 211 40 183
3 108 211 50
3 212 211 108
3 212 40 211
3 212 90 40
3 213 90 212
3 213 8 90
3 156 109 12
3 214 109 156
3 214 51 109
3 111 214 27
3 215 214 111
3 215 51 214
3 215 213 51
3 216 213 215
3 216 8 213
3 216 144 8
3 217 144 216
3 217 21 144
3 113 217 52
3 218 217 113
3 218 21 217
3 218 480 482
3 482 481 21
3 480 481 482
3 484 483 218
3 219 485 486
3 219 487 489
3 487 20 488
3 487 488 489
3 490 219 491
3 220 492 494
3 492 219 493
3 492 493 494
3 220 20 219
3 220 143 20
3 221 143 220
3 221 7 143
3 495 54 496
3 115 497 498
3 222 499 501
3 501 500 115
3 499 500 501
3 222 502 504
3 502 54 503
3 502 503 504
3 222 221 54
3 223 221 222
3 223 7 221
3 223 86 7
3 224 86 223
3 224 39 86
3 117 224 55
3 225 224 117
3 225 39 224
3 225 182 39
3 226 182 225
3 226 3 182
3 505 14 506
3 160 507 509
3 507 508 509
3 227 510 512
3 512 511 160
3 510 511 512
3 227 513 514
3 120 227 29
3 228 227 120
3 228 515 517
3 517 516 227
3 515 516 517
3 228 518 519
3 229 520 522
3 522 521 228
3 520 521 522
3 229 523 525
3 523 14 524
3 523 524 525
3 229 118 14
3 230 118 229
3 230 56 118
3 122 230 57
3 231 230 122
3 231 56 230
3 231 226 56
3 232 226 231
3 232 3 226
3 232 70 3
3 233 70 232
3 233 28 70
3 124 233 58
3 234 233 124
3 234 28 233
3 234 159 28
3 235 159 234
3 235 13 159
3 164 125 15
3 236 125 164
3 236 59 125
3 127 236 31
3 237 236 127
3 237 59 236
3 237 235 59
3 238 235 237
3 238 13 235
3 238 114 13
3 239 114 238
3 239 53 114
3 129 239 60
3 240 239 129
3 240 53 239
3 240 526 528
3 528 527 53
3 526 527 528
3 530 529 240
3 533 532 4
3 531 532 533
3 191 534 535
3 191 536 538
3 536 0 537
3 536 537 538
3 539 0 540
3 192 63 0
3 241 63 192
3 241 17 63
3 131 241 44
3 242 241 131
3 242 17 241
3 242 541 543
3 543 542 17
3 541 542 543
3 243 544 546
3 546 545 242
3 544 545 546
3 243 547 548
3 168 132 10
3 244 132 168
3 244 61 132
3 134 244 33
3 245 244 134
3 245 61 244
3 245 243 61
3 549 243 550
3 551 550 245
3 549 550 551
3 553 552 243
3 184 78 2
3 246 78 184
3 246 34 78
3 137 246 41
3 247 246 137
3 247 34 246
3 247 171 34
3 248 171 247
3 248 16 171
3 554 138 555
3 556 555 9
3 554 555 556
3 557 138 558
3 559 62 560
3 561 560 138
3 559 560 561
3 562 62 563
3 564 248 565
3 566 565 62
3 564 565 566
3 567 248 568
3 569 16 570
3 571 570 248
3 569 570 571
3 573 572 16
