ply
format ascii 1.0
element vertex 665
property float x
property float y
property float z
element face 783
property list uchar int vertex_index
end_header
-45.071728 -18.124628 -30.889538
-47.711708 -58.551983 -7.824346
-48.957573 -41.384983 -23.889023
-32.873718 -2.383291 -43.127495
-26.968506 1.940394 -39.756062
-53.83894 -58.627159 -7.575541
-54.496086 -41.80706 -21.335186
-55.684986 -31.116171 -28.504175
-49.644699 -30.772684 -26.353893
-53.544533 -18.87282 -34.913872
-46.365898 -8.606184 -34.485191
-43.61039 -9.558275 -41.804718
-37.252754 -8.069107 -34.639336
-56.734474 -52.735737 -15.764522
-49.553478 -50.557171 -14.802447
-27.979465 5.045961 -41.390205
-52.833424 -29.070995 -23.763361
-54.152779 -24.042288 -27.787262
-55.311035 -24.505392 -31.204981
-54.192284 -18.804081 -31.474705
-43.286125 -3.584273 -38.010597
-46.81953 -8.398522 -40.041714
-41.546406 -4.373875 -42.453835
-32.687157 -3.478176 -39.185555
-34.534584 -6.810571 -40.53413
-33.620613 -7.890225 -36.325691
-47.80027 -62.208241 -6.480618
-42.091286 -61.826927 -5.327167
-55.545452 -49.092308 -11.959619
-57.466988 -44.899651 -17.069672
-53.280231 -43.13623 -24.646841
-53.65559 -47.460777 -21.094349
-49.737278 -45.076508 -18.620697
-44.92606 -48.122814 -12.768309
-46.180775 -42.074848 -16.93545
-45.982689 -39.462475 -22.232622
-47.827511 -24.026163 -28.533951
-46.626568 -30.173309 -22.956493
-45.383549 -23.490978 -24.542442
-43.34623 -16.518225 -26.440739
-36.479179 -0.779887 -43.274803
-32.478645 2.479408 -41.088203
-30.638809 0.611017 -42.15731
-30.090628 -0.554875 -37.09922
-51.222313 -62.509144 -6.281444
-52.12328 -60.413689 -9.397002
-55.965191 -39.748367 -18.114485
-52.423473 -34.723553 -19.091253
-54.358845 -36.347942 -24.873089
-53.767357 -37.818275 -27.519199
-49.964153 -36.873341 -26.029272
-53.269653 -31.209858 -28.976612
-51.682213 -24.545792 -31.28299
-48.995316 -18.312004 -34.039761
-50.923458 -13.592901 -36.202564
-48.501019 -13.796679 -38.944862
-43.810184 -14.147141 -36.593483
-37.528584 -5.65294 -43.444481
-39.998905 -8.76829 -38.532482
-42.003838 -11.501798 -31.986328
-39.023663 -11.012857 -28.298611
-54.310097 -51.45417 -8.37443
-56.545937 -55.622578 -11.259693
-53.949791 -58.155891 -13.45872
-58.030968 -46.998196 -20.61167
-54.34441 -54.037361 -18.423241
-48.820862 -54.838829 -11.176042
-43.268383 -53.089897 -9.774248
-46.504677 -35.838142 -24.362251
-53.227802 -23.000835 -25.175579
-54.114025 -21.048183 -27.350208
-54.738747 -21.450184 -29.686682
-53.569359 -18.829977 -29.055471
-41.493969 -2.144256 -38.601749
-42.815788 -3.944228 -40.341026
-40.373222 -2.641523 -41.070557
-32.929642 -3.790626 -36.618153
-33.330273 -5.692943 -37.806156
-33.314465 -6.093416 -35.0765
-47.964359 -60.171764 -6.984228
-45.327477 -61.512402 -5.85304
-45.074585 -59.728691 -6.290406
-42.217049 -60.20269 -5.93182
-45.205666 -58.073498 -6.753146
-51.114403 -42.775623 -24.605129
-51.454895 -44.291782 -22.418804
-49.750927 -42.957298 -21.173977
-47.98365 -43.582661 -17.49197
-47.982582 -41.485851 -20.618176
-46.19384 -40.560913 -19.71814
-47.436363 -40.238251 -23.215948
-46.68615 -20.797102 -29.74078
-46.476067 -23.67872 -26.657446
-45.422768 -20.406973 -27.614298
-44.409538 -20.072054 -25.445827
-44.248245 -17.165546 -28.651657
-33.324001 3.050696 -39.786572
-31.171677 5.070086 -39.081329
-27.148342 3.68485 -41.829346
-29.508356 2.896236 -42.240967
-28.752085 1.619648 -42.071075
-30.361444 -0.107023 -40.554192
-28.651093 0.928263 -38.797131
-53.676868 -60.045525 -5.791578
-52.727257 -62.069019 -5.345222
-53.095192 -61.249958 -7.069402
-51.531128 -61.846581 -8.085362
-53.377876 -60.203369 -8.965372
-54.286964 -30.323935 -26.39809
-53.443459 -32.844326 -24.261898
-55.252831 -34.145252 -26.556015
-55.292549 -37.439056 -26.519039
-55.366386 -34.835384 -28.059912
-53.826893 -35.078938 -28.208624
-55.090668 -31.349789 -29.312845
-54.517876 -21.593319 -33.104019
-53.842628 -24.467258 -31.918432
-52.769341 -21.62447 -33.476448
-50.744743 -21.129959 -32.523071
-51.548523 -18.660618 -35.195339
-47.741432 -11.561978 -32.257271
-50.238411 -13.995718 -33.442078
-48.246895 -11.390035 -35.502602
-45.649902 -8.899907 -41.651627
-47.749825 -10.952585 -40.102814
-45.979897 -11.522922 -40.699596
-45.934235 -14.327451 -38.316002
-43.884705 -11.935529 -39.648273
-34.451462 -1.379259 -44.062687
-36.931843 -3.370002 -44.180965
-34.927773 -4.180427 -43.524803
-35.975704 -7.629987 -37.766766
-37.177071 -7.157283 -39.258854
-38.527447 -8.051695 -36.521248
-41.037987 -9.945165 -35.425869
-39.762432 -8.999998 -33.024517
-40.674644 -10.794239 -29.804043
-38.237953 -9.075306 -31.441433
-56.087139 -51.022247 -13.790149
-56.497734 -52.352165 -11.817966
-56.395031 -54.397804 -13.247107
-55.723602 -57.60302 -12.758391
-55.737316 -56.286018 -14.838072
-55.020092 -41.109112 -19.480326
-57.380547 -43.141106 -19.602865
-56.385052 -44.190838 -20.781326
-51.931416 -49.051262 -18.258709
-54.421288 -50.524605 -20.002682
-51.996357 -52.136433 -16.826626
-51.432087 -54.737984 -15.085553
-49.080597 -52.913239 -13.226057
-45.957157 -53.631409 -9.851023
-46.627411 -51.662331 -11.864391
-50.120064 -33.881763 -25.903549
-48.349937 -36.399147 -24.936533
-48.685402 -33.788689 -24.378958
-45.063423 -30.576687 -21.380108
-44.978741 -33.450848 -22.221464
-25.552649 3.040447 -39.69648
-53.836281 -57.382488 -5.859077
-52.707848 -27.65066 -20.880722
-52.65741 -25.208334 -23.194523
-53.434742 -26.494808 -26.052103
-54.964611 -27.488369 -28.19042
-55.500111 -27.946558 -29.752735
-55.309319 -24.419907 -29.510584
-55.238991 -21.50411 -31.665241
-54.542267 -18.986134 -33.570076
-45.331795 -5.618867 -36.628647
-46.435951 -8.47096 -37.559303
-45.196831 -5.911988 -39.369499
-44.332169 -6.13934 -41.509262
-42.738441 -6.853843 -43.016212
-32.250816 -3.160065 -41.443218
-33.387062 -4.92365 -42.148941
-33.135811 -5.481457 -40.114494
-33.891533 -7.655061 -38.575878
-35.060341 -8.923772 -36.479023
-36.053852 -9.531241 -33.639057
-34.121468 -10.100727 -34.838554
-47.802834 -63.727467 -5.974149
-56.212048 -47.127857 -9.959392
-55.513054 -47.177971 -14.612505
-57.075459 -48.774208 -16.780392
-54.293213 -42.556137 -23.319601
-54.949181 -45.046974 -22.125957
-53.05064 -45.316353 -22.764263
-51.289452 -46.435993 -20.056904
-49.393745 -47.725655 -16.480877
-47.247597 -49.237251 -13.414401
-47.501621 -46.182293 -15.01536
-45.567123 -44.983738 -14.230115
-48.812054 -27.514277 -27.288095
-48.182884 -30.451813 -24.705526
-47.208466 -27.205761 -25.705896
-45.943424 -26.948895 -23.647543
-44.595131 -27.245829 -21.865673
-44.173141 -23.80418 -22.608883
-42.134712 -16.519735 -24.515335
-37.876694 -0.534118 -41.440533
-35.577785 1.442277 -41.117271
-34.121986 1.109598 -42.490791
-32.842659 0.6329 -43.135738
-30.360586 3.780222 -40.690025
-31.525156 1.735826 -42.040962
-31.928665 -0.614832 -42.270416
-31.567114 -1.467086 -40.801525
-31.866278 -1.881384 -38.424202
-49.1166 -63.860687 -5.942359
-49.609486 -62.699657 -6.704206
-49.929379 -60.970764 -7.644786
-50.29282 -59.314953 -8.979945
-54.283478 -37.505981 -18.134386
-53.38208 -38.471363 -20.514015
-52.031017 -31.550335 -21.203991
-52.725487 -35.435711 -22.224592
-53.787445 -38.994221 -23.031652
-54.478466 -39.851734 -24.931059
-53.488728 -40.573479 -26.21347
-51.116035 -40.242077 -26.28867
-48.943867 -39.34206 -25.784893
-51.846386 -37.493919 -27.308781
-51.900188 -34.488548 -27.370417
-51.241199 -31.042871 -27.943516
-54.502827 -28.053308 -30.547466
-52.639019 -27.864544 -29.92075
-50.508579 -27.699921 -28.894703
-49.581604 -24.302128 -30.109655
-48.431938 -20.676657 -31.133001
-46.77589 -18.306326 -32.713234
-51.960865 -16.385136 -31.047871
-52.935497 -16.217392 -33.844109
-52.989738 -16.059526 -36.019222
-48.662853 -10.926758 -38.199745
-50.387428 -13.384455 -38.227779
-51.296307 -16.075821 -37.12566
-48.719589 -16.380093 -36.879993
-46.292347 -16.346003 -35.585552
-44.417854 -16.1766 -33.776558
-38.905041 -2.843688 -43.294647
-39.662376 -5.085667 -43.822681
-40.611546 -7.634074 -42.753365
-35.665417 -5.995465 -41.872211
-38.967426 -7.395216 -40.903358
-41.593651 -9.639689 -40.175545
-42.13427 -11.506842 -37.781757
-42.688808 -13.03774 -34.49538
-43.503597 -14.856659 -31.444202
-42.774197 -13.719991 -29.1115
-41.520073 -13.352402 -27.008518
-39.89859 -13.756704 -25.558691
-36.755165 -10.712576 -30.784214
-37.466099 -12.555795 -27.869633
-54.063824 -55.233482 -7.940731
-55.784332 -50.370064 -10.368238
-55.365631 -53.617207 -10.014551
-55.099022 -56.9039 -9.292148
-54.763847 -58.758556 -10.793421
-53.368916 -59.398895 -11.385094
-51.089043 -58.387623 -10.690704
-58.013561 -41.963558 -18.498398
-58.754089 -45.700375 -19.23859
-57.829945 -50.203941 -18.673243
-56.35804 -47.59684 -21.509274
-56.775219 -51.159405 -20.254761
-56.511864 -54.252563 -17.888914
-53.855408 -56.4636 -16.134701
-51.533428 -56.493263 -12.90419
-48.465881 -56.899403 -9.168158
-45.746422 -55.760429 -8.020021
-44.139137 -50.879181 -11.514501
-47.389046 -38.473564 -25.318113
-45.852879 -38.087685 -24.653852
-44.747028 -37.655811 -23.635042
-46.663979 -33.395096 -23.114105
-44.640762 -35.726158 -24.165657
-53.914592 -19.670192 -26.962073
-54.379959 -20.589544 -26.111083
-53.642259 -18.56109 -27.814704
-53.841692 -19.93908 -28.202839
-53.914592 -19.670192 -26.962073
-40.243212 -1.303773 -38.873322
-40.859379 -1.049579 -37.561803
-39.682839 -1.552407 -40.107726
-40.933595 -2.392889 -39.836153
-40.243212 -1.303773 -38.873322
-32.399516 -5.44082 -34.404892
-33.122053 -4.942021 -35.847327
-32.207105 -4.289425 -35.175719
-32.596134 -6.633102 -33.876002
-32.399516 -5.44082 -34.404892
-30.771782 6.880306 -39.156078
-31.801817 5.890662 -38.850307
-46.632566 -8.46779 -32.782925
-45.980227 -7.056389 -33.911314
-47.053665 -10.084081 -33.371231
-47.320334 -9.945687 -31.668965
-46.632566 -8.46779 -32.782925
-44.172142 -32.133204 -21.569114
-44.000431 -30.771104 -21.085961
-25.339531 3.667175 -39.251187
-25.717056 4.149051 -40.287319
-54.489186 -56.771862 -5.111229
-54.144386 -58.257584 -5.182133
-53.486734 -23.484139 -22.8889
-53.608939 -24.726748 -22.024921
-43.663059 -3.331816 -36.459201
-42.893097 -2.27139 -37.224588
-44.30896 -4.60157 -37.319622
-44.685894 -4.349113 -35.768226
-43.663059 -3.331816 -36.459201
-46.702252 -62.801977 -6.018988
-46.703533 -63.56159 -5.765754
-47.801552 -62.967854 -6.227384
-42.336986 -62.671972 -5.148605
-43.955082 -62.51471 -5.411542
-43.709381 -61.669664 -5.590103
-41.064352 -63.627308 -5.597806
-42.336986 -62.671972 -5.148605
-41.014664 -62.632271 -5.920275
-41.064352 -63.627308 -5.597806
-41.298553 -60.759844 -6.705462
-42.304344 -59.196495 -6.30334
-56.490021 -46.038811 -15.841089
-55.736114 -45.317512 -14.552154
-56.713082 -44.178353 -15.780738
-44.784481 -43.252684 -15.744601
-44.477655 -44.707128 -14.391933
-45.873949 -43.529293 -15.582783
-45.159672 -41.97421 -16.728558
-44.784481 -43.252684 -15.744601
-45.195998 -39.74963 -20.593847
-45.301573 -40.298849 -19.336606
-46.088265 -40.011694 -20.975381
-45.305678 -39.188547 -21.810516
-45.195998 -39.74963 -20.593847
-43.335194 -18.330133 -24.977224
-43.866848 -20.107047 -24.479768
-43.877884 -18.29514 -25.943283
-42.740471 -16.51898 -25.478037
-42.729435 -18.330888 -24.014522
-43.335194 -18.330133 -24.977224
-34.976503 2.739034 -39.974243
-36.185211 1.599807 -40.266418
-29.170026 4.413092 -41.040115
-29.616593 5.195451 -40.233896
-28.426032 5.828321 -40.583986
-30.536006 -1.598859 -36.106464
-31.423831 -2.262113 -36.768955
-30.978453 -1.218129 -37.761711
-50.941307 -63.13126 -5.795001
-51.693779 -62.911198 -5.32689
-51.974785 -62.289081 -5.813333
-50.169456 -63.184916 -6.111902
-49.88845 -63.807032 -5.625458
-50.941307 -63.13126 -5.795001
-53.353476 -36.114767 -18.61282
-54.360565 -35.469455 -17.734716
-53.430563 -34.078242 -18.21315
-50.760929 -15.254262 -30.544744
-51.732031 -16.424272 -29.430397
-35.953383 -11.355868 -32.173428
-36.404508 -10.121908 -32.211635
-35.602726 -10.7652 -33.600849
-37.074965 -13.804517 -27.964706
-36.800642 -12.943861 -29.482149
-37.945331 -13.770393 -26.439104
-37.074965 -13.804517 -27.964706
-54.138061 -52.483673 -7.183194
-55.028376 -50.772238 -7.216981
-54.18696 -53.343826 -8.15758
-54.014925 -54.373329 -6.966345
-54.138061 -52.483673 -7.183194
-56.989376 -40.855963 -18.306441
-57.632757 -40.27111 -17.931089
-56.608572 -39.163515 -17.739133
-43.001165 -54.320726 -8.885426
-44.345552 -54.591482 -8.923813
-44.61277 -53.360653 -9.812635
-42.072062 -54.61965 -9.818841
-43.001165 -54.320726 -8.885426
-43.910265 -35.878842 -23.380844
-44.809752 -34.588503 -23.193561
-44.079255 -34.741186 -22.408748
-44.062176 -36.711534 -23.530069
-43.910265 -35.878842 -23.380844
-53.936847 -21.56587 -25.023768
-53.77193 -22.38039 -23.879428
-53.670913 -22.024509 -26.262893
-53.936847 -21.56587 -25.023768
-54.379959 -20.589544 -26.111083
-41.997019 -1.551381 -37.520164
-40.859379 -1.049579 -37.561803
-42.390047 -2.864264 -38.306173
-42.893097 -2.27139 -37.224588
-41.997019 -1.551381 -37.520164
-33.357543 -7.327233 -34.600889
-33.510616 -8.225637 -35.225485
-33.467539 -6.991821 -35.701096
-33.357543 -7.327233 -34.600889
-32.596134 -6.633102 -33.876002
-43.798653 -58.131899 -6.714003
-42.304344 -59.196495 -6.30334
-43.711358 -59.138094 -6.342483
-57.376351 -43.115623 -16.688756
-56.713082 -44.178353 -15.780738
-32.877979 4.880966 -39.202929
-33.849611 3.543244 -39.308893
-33.403589 5.373514 -38.725251
-32.247839 4.060391 -39.43395
-32.877979 4.880966 -39.202929
-31.801817 5.890662 -38.850307
-53.202062 -61.057272 -5.5684
-53.379402 -61.919605 -4.920316
-53.854208 -60.907858 -5.143494
-52.695694 -32.599213 -18.782128
-53.430563 -34.078242 -18.21315
-48.143023 -11.18922 -30.538187
-47.320334 -9.945687 -31.668965
-48.651212 -12.842683 -31.149444
-48.143023 -11.18922 -30.538187
-48.989922 -12.778848 -32.849675
-49.899702 -14.059553 -31.741847
-48.651212 -12.842683 -31.149444
-55.366575 -49.897509 -8.278077
-55.028376 -50.772238 -7.216981
-43.60803 -49.542379 -12.805547
-43.864148 -48.029978 -13.126148
-44.129801 -33.570284 -21.989792
-45.021082 -32.013768 -21.800786
-44.172142 -32.133204 -21.569114
-44.079255 -34.741186 -22.408748
-44.129801 -33.570284 -21.989792
-27.384864 6.283001 -40.956337
-28.426032 5.828321 -40.583986
-26.930464 5.151808 -41.134182
-27.384864 6.283001 -40.956337
-26.514903 4.471253 -41.353752
-27.563904 4.365405 -41.609775
-26.930464 5.151808 -41.134182
-26.350496 3.362648 -40.762913
-26.514903 4.471253 -41.353752
-25.717056 4.149051 -40.287319
-54.06468 -59.589102 -5.148383
-53.854208 -60.907858 -5.143494
-53.756574 -58.714006 -5.825328
-54.06468 -59.589102 -5.148383
-54.144386 -58.257584 -5.182133
-53.634158 -25.947912 -20.86802
-54.016304 -27.358695 -19.903227
-52.682629 -26.429497 -22.037622
-53.634158 -25.947912 -20.86802
-53.608939 -24.726748 -22.024921
-52.942606 -24.104585 -24.185051
-53.486734 -23.484139 -22.8889
-53.77193 -22.38039 -23.879428
-45.463175 -5.56273 -34.983042
-44.685894 -4.349113 -35.768226
-45.848847 -7.112526 -35.556919
-45.980227 -7.056389 -33.911314
-45.463175 -5.56273 -34.983042
-34.636534 -11.049943 -34.200598
-35.602726 -10.7652 -33.600849
-35.08766 -9.815984 -34.238805
-33.761044 -9.330889 -34.481916
-33.87104 -8.995476 -35.582122
-33.510616 -8.225637 -35.225485
-33.883341 -10.586196 -34.115164
-33.761044 -9.330889 -34.481916
-34.636534 -11.049943 -34.200598
-33.883341 -10.586196 -34.115164
-46.927639 -64.386263 -5.643486
-47.641942 -64.424036 -5.660862
-46.927639 -64.386263 -5.643486
-46.703533 -63.56159 -5.765754
-45.465855 -62.454058 -5.705199
-46.702252 -62.801977 -6.018988
-46.563873 -61.860321 -6.166829
-45.465855 -62.454058 -5.705199
-43.955082 -62.51471 -5.411542
-41.077545 -61.820152 -6.222601
-41.014664 -62.632271 -5.920275
-42.154167 -61.014809 -5.629494
-41.077545 -61.820152 -6.222601
-41.298553 -60.759844 -6.705462
-57.045844 -45.623703 -9.83204
-57.606074 -46.634382 -9.325598
-55.688858 -46.218149 -10.873153
-57.045844 -45.623703 -9.83204
-55.35556 -47.200375 -11.873266
-55.87875 -48.110083 -10.959505
-55.688858 -46.218149 -10.873153
-55.339361 -46.243206 -13.19971
-55.736114 -45.317512 -14.552154
-55.529253 -48.13514 -13.286062
-55.35556 -47.200375 -11.873266
-55.339361 -46.243206 -13.19971
-44.184679 -46.460439 -13.85705
-43.864148 -48.029978 -13.126148
-45.246592 -46.553276 -13.499212
-44.184679 -46.460439 -13.85705
-44.477655 -44.707128 -14.391933
-45.166204 -41.217243 -18.119903
-45.159672 -41.97421 -16.728558
-46.187308 -41.317881 -18.326795
-45.166204 -41.217243 -18.119903
-45.301573 -40.298849 -19.336606
-43.766285 -29.105675 -21.328744
-44.000431 -30.771104 -21.085961
-44.829277 -28.911258 -21.622891
-43.676752 -27.619543 -21.443092
-43.766285 -29.105675 -21.328744
-43.465757 -25.898718 -21.814698
-43.676752 -27.619543 -21.443092
-44.384136 -25.525005 -22.237278
-43.387626 -24.207088 -22.089984
-43.465757 -25.898718 -21.814698
-43.748649 -21.97311 -23.061295
-44.291339 -21.938117 -24.027355
-43.866848 -20.107047 -24.479768
-43.387626 -24.207088 -22.089984
-43.748649 -21.97311 -23.061295
-42.044124 -18.64284 -23.370245
-42.729435 -18.330888 -24.014522
-41.458767 -16.892387 -23.948027
-42.044124 -18.64284 -23.370245
-37.334665 0.611609 -40.428049
-38.434574 -0.498704 -40.292714
-36.727239 0.45408 -41.278902
-37.334665 0.611609 -40.428049
-36.185211 1.599807 -40.266418
-34.450893 2.246487 -40.451921
-34.976503 2.739034 -39.974243
-33.849611 3.543244 -39.308893
-30.022138 5.840383 -39.429548
-30.771782 6.880306 -39.156078
-30.766132 4.425154 -39.885677
-30.022138 5.840383 -39.429548
-29.616593 5.195451 -40.233896
-31.955513 -3.216735 -35.865931
-32.39796 -2.836005 -37.521178
-31.423831 -2.262113 -36.768955
-32.207105 -4.289425 -35.175719
-31.955513 -3.216735 -35.865931
-52.446106 -62.818548 -4.793822
-53.379402 -61.919605 -4.920316
-52.446106 -62.818548 -4.793822
-51.693779 -62.911198 -5.32689
-48.803177 -64.541633 -5.414938
-49.575027 -64.487978 -5.098038
-49.88845 -63.807032 -5.625458
-48.298824 -64.490646 -5.644967
-48.803177 -64.541633 -5.414938
-48.459717 -63.794077 -5.958254
-47.641942 -64.424036 -5.660862
-48.298824 -64.490646 -5.644967
-56.101869 -37.965754 -17.681757
-56.608572 -39.163515 -17.739133
-55.261013 -36.844561 -17.691707
-54.360565 -35.469455 -17.734716
-55.124335 -38.627174 -18.124435
-56.101869 -37.965754 -17.681757
-55.261013 -36.844561 -17.691707
-52.837881 -29.062766 -19.676862
-54.016304 -27.358695 -19.903227
-52.499466 -31.012604 -19.838497
-52.837881 -29.062766 -19.676862
-52.369433 -29.600497 -21.042356
-52.227245 -33.136944 -20.147622
-52.695694 -32.599213 -18.782128
-52.499466 -31.012604 -19.838497
-25.433877 2.305959 -38.121611
-25.339531 3.667175 -39.251187
-25.650092 1.795669 -38.472662
-25.433877 2.305959 -38.121611
-26.35802 1.245642 -38.502453
-26.260578 2.49042 -39.726271
-25.650092 1.795669 -38.472662
-26.811201 0.672193 -38.232574
-26.35802 1.245642 -38.502453
-27.652494 0.166127 -37.753109
-27.8098 1.434328 -39.276596
-26.811201 0.672193 -38.232574
-28.079958 -0.630685 -37.261929
-27.652494 0.166127 -37.753109
-28.799726 -1.372254 -36.412973
-29.37086 0.186694 -37.948176
-28.079958 -0.630685 -37.261929
-29.090699 -2.271254 -35.862007
-28.799726 -1.372254 -36.412973
-30.536006 -1.598859 -36.106464
-29.090699 -2.271254 -35.862007
-52.536278 -17.646693 -28.434196
-53.642259 -18.56109 -27.814704
-52.765112 -17.607557 -30.051671
-52.536278 -17.646693 -28.434196
-51.732031 -16.424272 -29.430397
-51.099638 -15.190427 -32.244974
-50.760929 -15.254262 -30.544744
-49.899702 -14.059553 -31.741847
-39.124958 -1.58782 -41.255545
-39.682839 -1.552407 -40.107726
-38.434574 -0.498704 -40.292714
-40.340706 -15.510872 -24.469704
-41.458767 -16.892387 -23.948027
-41.016651 -15.138219 -25.037013
-36.445175 -12.022251 -30.93944
-35.953383 -11.355868 -32.173428
-37.110632 -11.634186 -29.326923
-36.445175 -12.022251 -30.93944
-36.800642 -12.943861 -29.482149
-39.161577 -14.370847 -25.283632
-38.682344 -13.156249 -26.714162
-37.945331 -13.770393 -26.439104
-40.340706 -15.510872 -24.469704
-39.161577 -14.370847 -25.283632
-53.901153 -55.447832 -5.925518
-54.489186 -56.771862 -5.111229
-53.950052 -56.307985 -6.899904
-53.901153 -55.447832 -5.925518
-54.014925 -54.373329 -6.966345
-56.317551 -47.734352 -9.070558
-57.606074 -46.634382 -9.325598
-56.103693 -49.355455 -9.274981
-56.317551 -47.734352 -9.070558
-55.99819 -48.74896 -10.163815
-55.047214 -50.912117 -9.371334
-55.366575 -49.897509 -8.278077
-56.103693 -49.355455 -9.274981
-57.649637 -41.647577 -17.403119
-57.632757 -40.27111 -17.931089
-57.740274 -43.431604 -17.784035
-57.376351 -43.115623 -16.688756
-57.649637 -41.647577 -17.403119
-44.069031 -56.975364 -7.34744
-43.798653 -58.131899 -6.714003
-45.476044 -56.916964 -7.386584
-44.240185 -55.655992 -8.008312
-45.85179 -54.695919 -8.935522
-44.345552 -54.591482 -8.923813
-44.069031 -56.975364 -7.34744
-44.240185 -55.655992 -8.008312
-43.214569 -50.920563 -12.178643
-44.532598 -49.500997 -12.141405
-43.60803 -49.542379 -12.805547
-42.792963 -52.214325 -11.495195
-43.214569 -50.920563 -12.178643
-42.357586 -53.319683 -10.625069
-43.70376 -51.984539 -10.644374
-42.792963 -52.214325 -11.495195
-42.072062 -54.61965 -9.818841
-42.357586 -53.319683 -10.625069
-45.240773 -38.501152 -23.02113
-45.305678 -39.188547 -21.810516
-45.917784 -38.77508 -23.443237
-44.687847 -38.285215 -22.511725
-45.240773 -38.501152 -23.02113
-45.299954 -37.871748 -24.144447
-43.880697 -38.305645 -22.562526
-44.687847 -38.285215 -22.511725
-44.115308 -37.676361 -23.264762
-44.693895 -36.690984 -23.900349
-44.062176 -36.711534 -23.530069
-43.880697 -38.305645 -22.562526
-44.115308 -37.676361 -23.264762
3 276 70 277
3 278 72 279
3 280 279 70
3 278 279 280
3 281 73 282
3 283 75 284
3 285 284 73
3 283 284 285
3 286 78 287
3 288 287 76
3 286 287 288
3 290 289 78
3 1 81 79
3 1 83 81
3 2 86 84
3 2 88 86
3 2 90 88
3 0 93 91
3 0 95 93
3 291 97 292
3 4 100 98
3 4 102 100
3 5 105 103
3 5 107 105
3 7 110 108
3 7 112 110
3 7 114 112
3 9 117 115
3 9 119 117
3 10 293 294
3 10 295 297
3 295 120 296
3 295 296 297
3 10 122 120
3 11 125 123
3 11 127 125
3 3 130 128
3 12 133 131
3 12 135 133
3 12 137 135
3 13 140 138
3 13 142 140
3 6 145 143
3 14 148 146
3 14 150 148
3 14 152 150
3 8 155 153
3 299 298 156
3 300 158 301
3 302 159 303
3 304 161 305
3 17 162 69
3 17 163 162
3 17 165 163
3 19 166 71
3 19 167 166
3 20 306 307
3 20 308 310
3 308 168 309
3 308 309 310
3 20 170 168
3 22 171 74
3 22 172 171
3 23 175 173
3 25 176 77
3 25 177 176
3 25 179 177
3 26 311 313
3 313 312 180
3 311 312 313
3 27 314 316
3 316 315 80
3 314 315 316
3 27 317 318
3 27 319 320
3 322 321 82
3 29 323 325
3 323 182 324
3 323 324 325
3 29 183 182
3 30 186 184
3 32 187 85
3 32 188 187
3 32 190 188
3 34 191 87
3 34 326 328
3 328 327 191
3 326 327 328
3 34 329 330
3 35 331 333
3 333 332 89
3 331 332 333
3 35 334 335
3 36 194 192
3 38 195 92
3 38 196 195
3 38 197 196
3 39 336 338
3 338 337 94
3 336 337 338
3 39 339 341
3 339 198 340
3 339 340 341
3 342 200 343
3 41 201 96
3 41 202 201
3 15 344 346
3 344 203 345
3 344 345 346
3 42 204 99
3 42 205 204
3 42 206 205
3 43 207 101
3 43 347 349
3 349 348 207
3 347 348 349
3 44 350 352
3 352 351 104
3 350 351 352
3 44 353 355
3 353 208 354
3 353 354 355
3 44 209 208
3 45 210 106
3 45 211 210
3 47 356 358
3 356 212 357
3 356 357 358
3 47 213 212
3 16 214 160
3 48 215 109
3 48 216 215
3 48 217 216
3 49 218 111
3 49 219 218
3 49 221 219
3 51 222 113
3 51 223 222
3 18 224 164
3 52 225 116
3 52 226 225
3 52 227 226
3 53 228 118
3 53 229 228
3 359 230 360
3 54 231 121
3 54 232 231
3 21 233 169
3 55 234 124
3 55 235 234
3 55 236 235
3 56 237 126
3 56 238 237
3 40 239 199
3 57 240 129
3 57 241 240
3 24 242 174
3 58 243 132
3 58 244 243
3 58 245 244
3 59 246 134
3 59 247 246
3 59 248 247
3 60 249 136
3 60 250 249
3 361 251 362
3 363 362 178
3 361 362 363
3 364 252 365
3 367 366 252
3 61 368 369
3 61 370 372
3 370 253 371
3 370 371 372
3 28 254 181
3 62 255 139
3 62 256 255
3 62 257 256
3 63 258 141
3 63 259 258
3 46 373 375
3 373 260 374
3 373 374 375
3 64 261 144
3 64 262 261
3 31 263 185
3 65 264 147
3 65 265 264
3 65 266 265
3 66 267 149
3 66 268 267
3 66 269 268
3 67 376 378
3 378 377 151
3 376 377 378
3 67 379 380
3 33 270 189
3 50 271 220
3 68 272 154
3 68 273 272
3 37 274 193
3 381 275 382
3 383 382 157
3 381 382 383
3 385 384 275
3 386 69 387
3 70 388 390
3 388 69 389
3 388 389 390
3 70 17 69
3 70 71 17
3 72 71 70
3 72 19 71
3 73 391 392
3 73 393 395
3 393 20 394
3 393 394 395
3 73 74 20
3 75 74 73
3 75 22 74
3 76 77 23
3 78 77 76
3 78 25 77
3 78 396 398
3 398 397 25
3 396 397 398
3 400 399 78
3 79 80 26
3 81 80 79
3 81 27 80
3 81 82 27
3 83 82 81
3 83 401 403
3 403 402 82
3 401 402 403
3 404 29 405
3 84 85 30
3 86 85 84
3 86 32 85
3 86 87 32
3 88 87 86
3 88 34 87
3 88 89 34
3 90 89 88
3 90 35 89
3 91 92 36
3 93 92 91
3 93 38 92
3 93 94 38
3 95 94 93
3 95 39 94
3 406 96 407
3 406 407 408
3 97 409 411
3 409 96 410
3 409 410 411
3 97 41 96
3 98 99 15
3 100 99 98
3 100 42 99
3 100 101 42
3 102 101 100
3 102 43 101
3 103 412 414
3 412 104 413
3 412 413 414
3 105 104 103
3 105 44 104
3 105 106 44
3 107 106 105
3 107 45 106
3 415 47 416
3 108 109 16
3 110 109 108
3 110 48 109
3 110 111 48
3 112 111 110
3 112 49 111
3 112 113 49
3 114 113 112
3 114 51 113
3 115 116 18
3 117 116 115
3 117 52 116
3 117 118 52
3 119 118 117
3 119 53 118
3 120 417 418
3 120 419 420
3 120 421 423
3 421 121 422
3 421 422 423
3 122 121 120
3 122 54 121
3 123 124 21
3 125 124 123
3 125 55 124
3 125 126 55
3 127 126 125
3 127 56 126
3 128 129 40
3 130 129 128
3 130 57 129
3 131 132 24
3 133 132 131
3 133 58 132
3 133 134 58
3 135 134 133
3 135 59 134
3 135 136 59
3 137 136 135
3 137 60 136
3 424 61 425
3 138 139 28
3 140 139 138
3 140 62 139
3 140 141 62
3 142 141 140
3 142 63 141
3 143 144 46
3 145 144 143
3 145 64 144
3 146 147 31
3 148 147 146
3 148 65 147
3 148 149 65
3 150 149 148
3 150 66 149
3 150 151 66
3 152 151 150
3 152 67 151
3 427 426 33
3 153 154 50
3 155 154 153
3 155 68 154
3 156 157 37
3 428 157 429
3 430 429 156
3 428 429 430
3 432 431 157
3 433 15 434
3 435 15 436
3 437 98 438
3 439 438 15
3 437 438 439
3 158 440 442
3 440 98 441
3 440 441 442
3 158 4 98
3 443 103 444
3 159 445 447
3 445 103 446
3 445 446 447
3 159 5 103
3 448 160 449
3 161 450 452
3 450 160 451
3 450 451 452
3 161 16 160
3 69 453 455
3 453 161 454
3 453 454 455
3 162 161 69
3 162 16 161
3 162 108 16
3 163 108 162
3 163 7 108
3 163 164 7
3 165 164 163
3 165 18 164
3 71 165 17
3 166 165 71
3 166 18 165
3 166 115 18
3 167 115 166
3 167 9 115
3 168 456 457
3 168 458 460
3 458 10 459
3 458 459 460
3 168 169 10
3 170 169 168
3 170 21 169
3 74 170 20
3 171 170 74
3 171 21 170
3 171 123 21
3 172 123 171
3 172 11 123
3 173 174 3
3 175 174 173
3 175 24 174
3 77 175 23
3 176 175 77
3 176 24 175
3 176 131 24
3 177 131 176
3 177 12 131
3 177 178 12
3 179 178 177
3 179 461 463
3 463 462 178
3 461 462 463
3 464 179 465
3 466 465 25
3 464 465 466
3 467 179 468
3 470 469 179
3 180 471 472
3 474 473 180
3 80 475 477
3 477 476 26
3 475 476 477
3 479 478 80
3 82 480 482
3 482 481 27
3 480 481 482
3 484 483 82
3 485 181 486
3 487 181 488
3 489 28 490
3 491 490 181
3 489 490 491
3 182 492 493
3 182 494 496
3 494 28 495
3 494 495 496
3 182 138 28
3 183 138 182
3 183 13 138
3 184 185 6
3 186 185 184
3 186 31 185
3 85 186 30
3 187 186 85
3 187 31 186
3 187 146 31
3 188 146 187
3 188 14 146
3 188 189 14
3 190 189 188
3 190 33 189
3 87 190 32
3 191 190 87
3 191 33 190
3 191 497 499
3 499 498 33
3 497 498 499
3 501 500 191
3 89 502 504
3 504 503 34
3 502 503 504
3 506 505 89
3 192 193 8
3 194 193 192
3 194 37 193
3 92 194 36
3 195 194 92
3 195 37 194
3 195 156 37
3 196 156 195
3 196 507 509
3 509 508 156
3 507 508 509
3 196 510 511
3 197 512 514
3 514 513 196
3 512 513 514
3 197 515 516
3 94 197 38
3 517 197 518
3 519 518 94
3 517 518 519
3 521 520 197
3 198 522 523
3 198 524 525
3 526 199 527
3 200 528 530
3 528 199 529
3 528 529 530
3 200 40 199
3 96 531 533
3 531 200 532
3 531 532 533
3 201 200 96
3 201 40 200
3 201 128 40
3 202 128 201
3 202 3 128
3 534 97 535
3 203 536 538
3 536 97 537
3 536 537 538
3 203 41 97
3 99 203 15
3 204 203 99
3 204 41 203
3 204 202 41
3 205 202 204
3 205 3 202
3 205 173 3
3 206 173 205
3 206 23 173
3 101 206 42
3 207 206 101
3 207 23 206
3 207 76 23
3 539 76 540
3 541 540 207
3 539 540 541
3 543 542 76
3 104 544 545
3 547 546 104
3 208 548 550
3 548 549 550
3 208 551 552
3 208 553 555
3 553 180 554
3 553 554 555
3 209 180 208
3 209 26 180
3 106 209 44
3 210 209 106
3 210 26 209
3 210 79 26
3 211 79 210
3 211 1 79
3 556 46 557
3 212 558 559
3 212 560 562
3 560 46 561
3 560 561 562
3 212 143 46
3 213 143 212
3 213 6 143
3 160 563 564
3 214 565 567
3 567 566 160
3 565 566 567
3 214 568 570
3 568 47 569
3 568 569 570
3 109 214 16
3 215 214 109
3 215 47 214
3 215 213 47
3 216 213 215
3 216 6 213
3 216 184 6
3 217 184 216
3 217 30 184
3 111 217 48
3 218 217 111
3 218 30 217
3 218 84 30
3 219 84 218
3 219 2 84
3 219 220 2
3 221 220 219
3 221 50 220
3 113 221 49
3 222 221 113
3 222 50 221
3 222 153 50
3 223 153 222
3 223 8 153
3 164 114 7
3 224 114 164
3 224 51 114
3 116 224 18
3 225 224 116
3 225 51 224
3 225 223 51
3 226 223 225
3 226 8 223
3 226 192 8
3 227 192 226
3 227 36 192
3 118 227 52
3 228 227 118
3 228 36 227
3 228 91 36
3 229 91 228
3 229 0 91
3 571 158 572
3 573 158 574
3 575 4 576
3 577 576 158
3 575 576 577
3 578 4 579
3 580 102 581
3 582 581 4
3 580 581 582
3 583 102 584
3 585 43 586
3 587 586 102
3 585 586 587
3 588 43 589
3 591 590 43
3 592 72 593
3 230 594 596
3 594 72 595
3 594 595 596
3 230 19 72
3 121 597 599
3 597 230 598
3 597 598 599
3 231 230 121
3 231 19 230
3 231 167 19
3 232 167 231
3 232 9 167
3 169 122 10
3 233 122 169
3 233 54 122
3 124 233 21
3 234 233 124
3 234 54 233
3 234 232 54
3 235 232 234
3 235 9 232
3 235 119 9
3 236 119 235
3 236 53 119
3 126 236 55
3 237 236 126
3 237 53 236
3 237 229 53
3 238 229 237
3 238 0 229
3 199 600 602
3 600 75 601
3 600 601 602
3 239 75 199
3 239 22 75
3 129 239 40
3 240 239 129
3 240 22 239
3 240 172 22
3 241 172 240
3 241 11 172
3 174 130 3
3 242 130 174
3 242 57 130
3 132 242 24
3 243 242 132
3 243 57 242
3 243 241 57
3 244 241 243
3 244 11 241
3 244 127 11
3 245 127 244
3 245 56 127
3 134 245 58
3 246 245 134
3 246 56 245
3 246 238 56
3 247 238 246
3 247 0 238
3 247 95 0
3 248 95 247
3 248 39 95
3 136 248 59
3 249 248 136
3 249 39 248
3 249 198 39
3 250 198 249
3 250 603 605
3 605 604 198
3 603 604 605
3 178 137 12
3 251 137 178
3 251 60 137
3 606 251 607
3 252 608 610
3 608 251 609
3 608 609 610
3 252 60 251
3 252 250 60
3 611 250 612
3 613 612 252
3 611 612 613
3 615 614 250
3 616 159 617
3 253 618 620
3 618 159 619
3 618 619 620
3 253 5 159
3 181 621 622
3 254 623 625
3 625 624 181
3 623 624 625
3 254 626 628
3 626 61 627
3 626 627 628
3 139 254 28
3 255 254 139
3 255 61 254
3 255 253 61
3 256 253 255
3 256 5 253
3 256 107 5
3 257 107 256
3 257 45 107
3 141 257 62
3 258 257 141
3 258 45 257
3 258 211 45
3 259 211 258
3 259 1 211
3 260 629 630
3 260 631 633
3 631 29 632
3 631 632 633
3 144 260 46
3 261 260 144
3 261 29 260
3 261 183 29
3 262 183 261
3 262 13 183
3 185 145 6
3 263 145 185
3 263 64 145
3 147 263 31
3 264 263 147
3 264 64 263
3 264 262 64
3 265 262 264
3 265 13 262
3 265 142 13
3 266 142 265
3 266 63 142
3 149 266 65
3 267 266 149
3 267 63 266
3 267 259 63
3 268 259 267
3 268 1 259
3 268 83 1
3 269 83 268
3 269 634 636
3 636 635 83
3 634 635 636
3 151 269 66
3 637 269 638
3 639 638 151
3 637 638 639
3 641 640 269
3 189 152 14
3 270 152 189
3 270 67 152
3 642 270 643
3 644 643 33
3 642 643 644
3 645 270 646
3 647 67 648
3 649 648 270
3 647 648 649
3 651 650 67
3 220 90 2
3 271 90 220
3 271 35 90
3 154 271 50
3 272 271 154
3 272 35 271
3 272 652 654
3 654 653 35
3 652 653 654
3 273 655 657
3 657 656 272
3 655 656 657
3 273 658 659
3 193 155 8
3 274 155 193
3 274 68 155
3 157 274 37
3 275 274 157
3 275 68 274
3 275 273 68
3 660 273 661
3 662 661 275
3 660 661 662
3 664 663 273
