ply
format ascii 1.0
element vertex 824
property float x
property float y
property float z
element face 1077
property list uchar int vertex_index
end_header
-36.337971 -85.400948 -2.178378
-20.206055 -100.153297 -7.890028
-18.552105 -89.236023 -7.343885
-42.375168 -81.927818 -13.346838
-40.213612 -68.239983 -0.288888
-29.270096 -92.965805 9.674661
-12.082575 -97.43782 13.913533
-28.246204 -95.352074 -4.970094
-28.74332 -93.812035 -14.715332
-39.654671 -87.355865 -7.786521
-10.385092 -90.52034 27.868906
-16.57868 -91.551865 17.999336
-21.773365 -97.961113 13.487486
-25.646469 -86.854454 13.130916
-47.481049 -65.120605 -5.347575
-30.790691 -79.356888 -11.45785
-15.128546 -98.286606 -3.66442
-17.146034 -96.571022 -15.906466
-28.244839 -86.203751 -16.930134
-39.419323 -75.649658 -15.124295
-40.906799 -81.081581 6.551746
-42.923515 -80.955956 0.280447
-47.905766 -74.393044 6.766906
-26.981588 -85.701653 1.690971
-12.110125 -102.125259 3.025029
-21.817572 -97.39003 1.334301
-43.976299 -74.00145 -5.373944
-39.839195 -69.905113 -6.939305
-30.335629 -89.49437 -5.356091
-32.168083 -91.015938 -8.048635
-38.28014 -87.47673 -4.787759
-20.479151 -89.386391 14.465843
-15.872023 -100.796768 -7.896215
-15.374377 -98.381508 -12.802127
-18.666899 -98.783134 -15.758034
-35.580402 -88.154312 -15.152486
-29.038504 -89.884491 -15.81749
-35.793652 -84.652687 -16.161207
-35.68565 -80.886581 -14.106648
-40.002129 -79.182579 -13.382495
-46.716179 -79.603149 7.211955
-37.058311 -78.884262 7.72582
-10.134097 -94.59919 21.321402
-8.649881 -97.181168 8.874176
-7.577096 -101.592773 6.105723
-11.178501 -101.085777 9.220084
-26.213434 -96.249008 10.943656
-20.501261 -97.456528 7.118536
-23.102959 -93.753914 6.177293
-23.147028 -91.396057 1.182851
-26.152246 -88.869507 6.65404
-40.380486 -75.077095 0.935569
-41.726551 -77.617905 -2.722762
-42.185398 -71.366539 -3.153871
-43.520294 -65.278786 -4.734588
-11.82839 -93.994217 -10.195417
-24.515867 -98.393707 -6.886982
-23.183655 -97.370171 -14.59833
-27.282221 -95.67897 -10.544291
-33.667767 -89.890907 -10.710879
-41.579865 -84.825211 -10.823321
-13.358107 -91.529861 22.611458
-14.372606 -95.986488 18.595022
-15.460587 -99.250648 14.130468
-19.080942 -94.883301 15.826807
-23.725132 -92.690865 13.692897
-28.378424 -90.887024 13.00605
-45.122974 -66.247543 -3.198951
-23.095236 -84.663528 -11.73874
-13.520086 -96.514664 -8.335223
-12.112971 -97.165085 -13.556185
-17.250164 -94.00885 -10.651777
-23.127344 -94.934532 -17.076639
-23.600338 -91.131668 -12.587336
-22.632986 -87.638336 -13.21359
-29.205938 -83.367905 -13.599306
-35.418617 -77.063904 -14.072355
-38.042854 -84.059097 2.210305
-41.342644 -85.43644 -0.314134
-43.498962 -83.518677 4.03192
-45.156166 -78.706039 3.778846
-41.708179 -73.426163 4.806528
-43.479378 -70.224098 5.894412
-39.947636 -66.302536 3.226888
-32.860138 -89.883377 11.471244
-31.569885 -86.726303 8.277861
-30.784668 -82.627899 5.544107
-33.607273 -81.980759 3.295916
-31.532627 -85.509354 -1.30434
-8.629576 -99.726875 3.535793
-10.257278 -101.978554 -1.279115
-15.189722 -102.170647 -2.720661
-15.546591 -99.325813 8.232064
-17.785412 -100.839005 2.149882
-21.488071 -99.443649 -1.919596
-25.371082 -96.607658 -1.872964
-28.281353 -91.128853 -1.661861
-41.990341 -83.15712 -3.370327
-42.224503 -81.05098 -6.710533
-44.724243 -77.411919 -8.889882
-45.599834 -68.443268 -4.805074
-43.971832 -71.45118 -6.384728
-42.597195 -76.232559 -9.903352
-39.257683 -73.635216 -10.592127
-33.487831 -86.695419 -4.222174
-34.338917 -87.969193 -5.536056
-37.336899 -86.135872 -3.538349
-21.551212 -83.726051 14.74192
-17.849569 -100.669853 -8.007933
-17.397263 -99.787315 -11.711122
-19.487055 -99.581261 -12.090699
-39.284088 -85.483742 -14.428877
-35.78997 -86.684219 -16.233391
-39.452862 -83.803871 -14.856915
-38.522491 -82.247276 -14.15242
-41.510342 -80.626472 -13.640877
-11.585156 -95.394066 17.446426
-10.594208 -92.89994 18.216543
-11.910029 -93.790443 13.511472
-11.2634 -97.154648 10.725962
-9.75388 -99.80455 9.410357
-11.636144 -99.579544 11.838007
-27.827799 -95.050888 10.199286
-25.008221 -95.117584 8.294342
-26.335285 -93.733772 8.155606
-24.582907 -91.58918 6.479174
-27.597061 -91.157387 8.035034
-40.057384 -71.84668 0.623446
-40.94989 -73.154495 -1.106712
-41.077354 -69.976562 -1.788706
-14.542917 -91.94249 -7.875268
-26.806479 -97.343483 -6.000814
-24.893744 -96.605545 -8.914731
-27.048559 -95.569359 -7.618634
-36.441269 -89.759727 -8.135641
-33.198021 -91.249039 -9.553053
-37.178955 -88.758492 -9.141374
-38.146328 -87.44191 -10.789467
-40.688244 -86.215881 -9.066641
-16.521809 -89.089783 19.616262
-15.729971 -89.419312 22.14201
-14.777033 -91.804932 20.205404
-13.420616 -94.446449 21.015842
-15.753252 -93.707321 18.706532
-16.355511 -95.159683 16.707302
-17.665075 -93.145515 16.778112
-23.189411 -88.150803 13.748934
-21.966074 -91.247719 13.995712
-24.614035 -89.849808 13.59836
-26.175999 -91.787415 13.358111
-26.813913 -88.860168 13.277685
-26.98885 -82.580246 -11.41582
-25.137213 -82.88839 -9.815135
-15.508367 -97.892448 -15.684511
-13.54379 -98.092232 -13.758135
-14.474849 -96.74865 -15.057137
-14.260641 -95.561272 -12.84476
-17.349342 -95.798294 -13.320783
-26.249348 -96.455673 -15.165895
-23.623392 -96.737953 -16.889677
-26.430195 -94.671265 -16.648748
-28.517162 -87.87043 -16.137514
-26.337315 -89.887657 -14.051379
-25.624994 -88.525597 -14.985339
-23.310259 -89.334702 -12.673317
-24.959888 -87.153091 -15.618225
-25.051636 -85.300034 -14.783518
-28.688635 -84.570389 -15.43088
-37.683514 -78.272781 -14.698725
-35.476204 -78.891434 -13.305616
-37.450294 -76.54982 -15.825007
-39.494545 -82.535423 4.318062
-40.808582 -84.233253 3.418978
-42.359993 -82.940102 5.429897
-48.375557 -76.956757 7.042806
-46.953209 -79.370201 5.134428
-46.740417 -76.626892 5.440226
-43.641891 -76.146187 4.443583
-45.033012 -74.056297 5.666562
-43.985786 -69.407852 7.090327
-42.040764 -67.787804 5.83551
-41.162224 -68.689499 4.867073
-30.862347 -84.661903 6.842528
-33.442059 -81.860794 7.723923
-38.931648 -79.69413 6.802983
-35.588371 -79.929054 5.423203
-37.545933 -81.057053 4.690066
-35.855228 -82.951263 2.476751
-6.094728 -99.395615 6.343492
-9.421454 -102.210571 4.478144
-8.347918 -101.939835 2.392929
-10.627803 -102.705933 0.857858
-12.513798 -102.574913 -2.359211
-13.39533 -102.642929 0.426405
-18.54619 -98.725052 13.864184
-15.588407 -99.805824 11.409885
-18.673107 -99.124672 10.955503
-20.055504 -97.328644 3.631031
-18.481771 -98.680786 4.202734
-20.475391 -99.687668 2.105392
-19.830067 -100.525993 0.13774
-22.650665 -99.628021 0.124123
-23.699535 -98.367241 -1.782935
-23.541233 -97.073776 -0.336989
-24.796141 -88.503578 1.737944
-25.421156 -91.204491 -0.40129
-27.117228 -88.207504 -0.392646
-29.550488 -88.112129 -1.863781
-29.25915 -85.294823 -0.289163
-42.960049 -83.207443 0.258157
-42.13118 -84.355759 -1.866206
-42.747711 -81.682686 -0.989113
-42.691681 -75.61702 -4.212098
-41.621376 -79.185982 -4.364194
-42.872578 -77.452957 -5.875185
-44.008968 -79.061478 -7.806848
-44.563545 -75.626663 -7.077319
-47.046577 -66.115219 -4.272354
-45.296005 -67.506836 -4.068837
-46.444515 -66.559456 -4.827959
-41.090218 -67.126213 -5.31631
-43.029579 -68.401512 -5.233611
-41.720798 -70.952621 -6.573789
-43.26553 -73.922951 -8.089472
-41.32711 -73.838852 -8.074339
-40.773567 -75.57238 -10.158464
-39.612305 -72.528214 -8.712402
-28.619928 -92.576111 -4.865942
-28.761591 -93.062767 -6.775313
-31.014322 -90.111115 -6.66939
-35.475883 -89.234741 -6.733182
-39.065819 -87.853073 -6.40847
-17.745911 -88.498474 17.363678
-18.4599 -90.794327 16.051275
-19.345982 -87.176254 15.400335
-21.969715 -85.999184 13.751361
-24.497284 -84.81279 12.673037
-15.231367 -99.703194 -5.868963
-16.736023 -97.722717 -8.711088
-16.670227 -99.086647 -10.565153
-16.623142 -98.923782 -14.607315
-17.673838 -97.727448 -16.994944
-32.021126 -90.830612 -14.780432
-29.07778 -91.926407 -15.552908
-32.194954 -89.686317 -16.378632
-32.002697 -87.506065 -16.878138
-31.622015 -85.436394 -17.092823
-32.25124 -83.473221 -15.935852
-35.358448 -82.841278 -15.381022
-37.736 -80.01001 -13.795728
-39.118179 -77.249451 -13.713407
-42.346382 -79.824478 8.170398
-43.976425 -81.291992 7.21773
-45.265064 -79.29509 9.060328
-47.712624 -77.546532 9.264761
-49.053959 -74.859291 9.139066
-10.061445 -92.781166 24.921009
-8.295034 -91.40358 26.997931
-8.708154 -92.72007 22.825668
-6.094972 -100.192963 7.60213
-7.417868 -99.837608 8.099943
-9.130974 -101.442444 7.454226
-11.151719 -101.612785 6.141867
-24.489069 -97.013 12.322112
-21.753069 -98.230103 10.042787
-23.597445 -96.572891 9.537012
-21.511179 -95.560379 6.636459
-20.698574 -95.31282 3.210252
-22.224125 -94.538498 1.039703
-21.996222 -92.592491 3.851737
-23.730337 -89.588211 4.267111
-25.756857 -86.827614 4.175068
-41.761047 -78.146034 0.671874
-42.045692 -79.430855 -1.146184
-41.042439 -76.393135 -1.073618
-42.037174 -74.275536 -2.755899
-43.370556 -72.2584 -4.240451
-46.052444 -65.045059 -5.312823
-45.604233 -63.395714 -5.557359
-42.582687 -63.517017 -4.970043
-40.037418 -65.427689 -5.868445
-38.947914 -67.811165 -7.839609
-9.957197 -95.389977 -11.756433
-22.138268 -99.397003 -7.863866
-21.3529 -98.743797 -11.773189
-22.779516 -97.320908 -10.520854
-25.062544 -96.550316 -12.577644
-28.323521 -95.191505 -13.112628
-29.446192 -93.543747 -9.105475
-30.163671 -93.159752 -11.176643
-30.686102 -91.89032 -12.729452
-34.871056 -88.85218 -12.99852
-38.909405 -86.895271 -12.951805
-42.307579 -83.29895 -12.398905
-14.151169 -89.262611 24.488026
-12.177366 -91.158287 25.238684
-11.338918 -93.946899 23.01977
-11.8538 -96.083389 20.279018
-12.717854 -97.331833 16.989435
-13.234842 -98.819893 14.430614
-14.984528 -97.294479 16.034445
-17.490032 -97.189827 15.263989
-20.573433 -96.423294 15.340472
-19.739895 -92.545326 15.284103
-21.273056 -93.978958 15.110893
-23.187559 -95.395042 14.356157
-25.433157 -94.613991 13.136279
-27.656254 -93.955322 12.54504
-29.392277 -92.5569 11.772093
-42.138531 -65.05098 -0.730221
-42.406986 -66.534843 -2.10233
-44.92379 -64.740616 -2.358406
-47.371571 -65.367752 -3.533163
-48.489754 -65.22258 -4.887517
-21.28158 -87.020714 -9.713
-10.596754 -97.329605 -9.534937
-14.328064 -97.576378 -10.522052
-12.102378 -97.976555 -11.577998
-10.459433 -96.985275 -11.942207
-11.825134 -95.323662 -12.30165
-14.290503 -93.675766 -10.47899
-17.639435 -91.716171 -8.44048
-21.126852 -98.377792 -15.594913
-20.60672 -97.348808 -17.280415
-19.958721 -95.815155 -16.588291
-26.155117 -92.381027 -15.370386
-23.099625 -92.994225 -14.983106
-20.080639 -94.677246 -14.253458
-20.670021 -92.950851 -11.46567
-20.943142 -90.618515 -10.380877
-21.335251 -88.638657 -9.882362
-22.728012 -86.04866 -12.638262
-25.710789 -83.953796 -13.119673
-29.887915 -81.842682 -11.890389
-32.774208 -82.12104 -13.590866
-33.009686 -80.287621 -11.89514
-33.239063 -77.9767 -12.351193
-36.806263 -85.042252 0.045017
-38.971893 -86.041687 -0.985824
-39.457809 -85.515289 1.156855
-42.045132 -84.852074 1.809196
-43.706066 -82.810097 2.060549
-45.289989 -81.786201 5.440686
-45.366673 -81.365494 3.651962
-43.912285 -80.164612 2.126171
-42.378075 -77.274742 2.635322
-40.745945 -74.661522 2.894346
-39.557514 -71.333664 2.528999
-47.502808 -73.76857 10.305923
-47.72945 -72.620995 8.233498
-45.827885 -71.037796 7.446622
-45.665642 -72.325829 6.165729
-42.768723 -71.64724 5.239713
-40.084328 -70.229027 4.056353
-39.721893 -67.458405 1.470188
-26.384766 -82.030426 12.370165
-27.46487 -83.982346 12.07187
-28.606085 -86.362686 12.401097
-29.610056 -88.755203 12.705336
-30.655081 -90.462631 12.357945
-31.014166 -91.093246 10.426515
-32.411201 -88.842636 9.517385
-29.994167 -89.880363 8.990907
-28.777613 -87.710953 7.688123
-27.957371 -85.542625 5.805435
-28.50304 -83.93779 3.497655
-33.906246 -80.151031 6.530401
-31.822794 -81.549881 4.28891
-30.220749 -83.418846 1.801159
-32.621449 -83.772316 1.071072
-34.73988 -84.433968 0.4056
-33.865192 -85.444077 -1.879403
-11.752586 -98.851753 -0.033277
-7.092618 -100.944023 4.726452
-9.045177 -100.768661 0.824584
-11.840626 -100.442078 -2.616121
-13.170926 -101.745316 -4.475992
-15.512258 -102.330933 -5.392749
-18.043009 -101.63147 -4.749676
-13.344894 -100.346626 11.720908
-13.311386 -100.718674 8.628774
-13.479344 -100.741417 4.920281
-18.44236 -98.681564 7.533367
-16.296778 -99.74379 4.334676
-14.984088 -101.780098 2.415828
-16.510029 -101.442871 -0.013611
-18.398029 -100.790527 -2.188771
-20.709503 -100.204216 -4.468062
-23.194492 -98.647041 -4.341185
-25.853992 -98.076401 -3.499856
-27.849091 -96.135681 -3.00344
-24.281437 -94.460861 -0.732307
-27.138327 -94.110474 -1.711467
-28.522583 -93.394806 -3.343215
-28.776819 -90.563431 -3.752921
-30.970789 -87.42881 -3.359595
-40.074181 -86.05262 -2.560184
-40.775211 -85.757919 -4.318503
-40.739021 -85.120697 -5.765731
-41.989799 -80.463165 -2.603922
-41.621368 -82.331604 -5.045244
-41.26482 -84.324036 -7.048916
-42.551125 -82.919907 -8.47958
-43.86375 -81.174446 -9.900558
-43.783978 -79.824387 -11.084047
-43.172829 -68.285355 -3.202987
-44.123909 -69.467148 -4.201413
-44.960899 -70.684311 -4.840636
-44.808754 -66.881897 -4.913712
-45.196007 -69.47731 -5.445895
-45.287663 -72.52034 -6.084743
-44.918148 -74.337868 -7.952895
-44.083393 -76.523079 -9.541334
-43.31126 -78.616066 -12.024038
-41.725536 -78.012817 -11.963707
-39.691612 -76.778084 -11.744881
-39.368824 -74.654861 -12.732138
-39.353416 -70.909897 -12.082304
-17.191136 -89.006604 -7.793798
-15.186542 -90.359837 -8.059489
-16.547511 -90.589257 -7.609577
-29.724498 -79.759338 -10.650395
-27.823578 -81.371017 -10.629379
-28.88977 -80.968567 -11.436835
-15.635588 -97.254852 -5.219742
-15.028604 -97.457871 -2.653891
-39.812449 -74.759686 -15.847223
-38.827934 -75.209767 -16.197578
-38.434809 -76.099739 -15.474651
-42.035658 -66.318272 5.701441
-42.435608 -67.426758 6.409832
-41.539226 -66.54929 5.168653
-42.035658 -66.318272 5.701441
-34.535522 -81.820339 8.77735
-33.536734 -82.922592 7.935105
-9.406153 -89.795048 28.822952
-10.24531 -88.903702 28.389323
-5.643033 -99.044739 7.411405
-6.066321 -98.60566 6.800707
-18.755104 -86.805015 17.211996
-18.130468 -87.37072 18.414102
-19.555139 -86.143906 16.230325
-18.545946 -87.837364 16.382006
-18.755104 -86.805015 17.211996
-22.759842 -84.308728 13.427756
-21.760464 -84.862617 14.24664
-22.55059 -83.172161 13.923036
-24.023626 -83.71553 12.888594
-23.2335 -85.405987 13.212199
-22.759842 -84.308728 13.427756
-44.134337 -78.684463 9.47879
-43.805723 -79.559784 8.615363
-42.674995 -78.949157 9.033825
-47.766556 -76.686741 10.210887
-46.761593 -77.610833 10.073794
-48.437224 -75.34312 10.148039
-48.383291 -76.202911 9.201913
-47.766556 -76.686741 10.210887
-42.674995 -78.949157 9.033825
-41.141232 -79.103378 8.371951
-9.86702 -91.89083 19.180076
-10.483865 -92.005592 16.548693
-7.673529 -96.141163 9.985384
-9.057758 -95.463582 9.930315
-7.515131 -97.668053 8.951802
-7.673529 -96.141163 9.985384
-8.033874 -98.509388 8.48706
-6.899125 -98.996273 8.564686
-7.515131 -97.668053 8.951802
-46.702252 -62.801977 -6.018988
-46.703533 -63.56159 -5.765754
-42.336986 -62.671972 -5.148605
-43.955082 -62.51471 -5.411542
-41.064352 -63.627308 -5.597806
-41.310052 -64.472353 -5.419244
-42.336986 -62.671972 -5.148605
-39.98773 -64.432652 -6.190914
-41.064352 -63.627308 -5.597806
-10.814943 -93.491638 -10.475343
-9.879346 -94.189518 -11.25585
-10.892793 -94.692097 -10.975925
-44.97464 -64.16042 -1.781949
-43.53116 -64.895798 -1.544313
-43.58201 -64.315601 -0.967857
-48.472416 -65.014816 -3.815453
-47.505301 -64.708084 -3.094426
-49.031508 -64.94223 -4.49263
-47.930662 -65.295166 -4.21034
-48.472416 -65.014816 -3.815453
-22.39937 -84.895988 -10.695793
-21.492542 -86.074581 -9.682923
-22.188408 -85.842121 -10.72587
-24.119295 -82.908104 -8.727811
-25.882627 -81.85857 -8.829666
-13.102664 -95.893276 -7.532801
-14.48297 -95.738602 -6.530867
-12.05842 -96.922134 -8.93508
-11.640999 -96.300747 -8.132658
-13.102664 -95.893276 -7.532801
-35.385576 -76.299892 -14.737735
-34.295799 -76.756291 -13.877154
-34.32884 -77.520302 -13.211774
-46.742161 -72.974972 9.859974
-46.446814 -73.524369 10.734883
-46.855482 -72.401184 8.823762
-47.616129 -73.194783 9.269711
-46.742161 -72.974972 9.859974
-40.88888 -65.244416 1.995138
-40.776009 -65.82235 1.116788
-39.834765 -66.880471 2.348538
-27.930654 -81.833817 12.392721
-27.460031 -80.870484 12.574791
-28.470706 -82.809776 12.243574
-26.924818 -83.006386 12.221018
-27.930654 -81.833817 12.392721
-30.03799 -86.330749 12.354611
-29.541393 -85.04409 12.266095
-30.539975 -87.527008 12.50673
-29.108071 -87.558944 12.553217
-30.03799 -86.330749 12.354611
-31.75761 -90.173004 11.914594
-31.512212 -89.550972 12.442308
-32.61474 -89.261345 11.998957
-31.990543 -87.78447 8.897623
-33.317728 -87.56686 9.226976
-32.89707 -86.508693 8.607214
-35.482279 -79.517647 7.128111
-34.773173 -79.901546 7.805225
-36.349205 -79.268162 8.402935
-7.463403 -90.390961 27.817633
-7.782553 -90.928417 25.821135
-10.225378 -98.737042 3.025157
-8.545873 -98.953384 4.447106
-10.191081 -99.289314 1.751258
-11.786884 -98.299481 1.240622
-10.225378 -98.737042 3.025157
-38.979692 -68.898026 -8.855934
-39.101258 -66.53828 -8.360017
-40.106051 -69.555816 -12.701322
-39.649118 -68.92643 -11.686215
-39.882436 -71.626751 -13.201342
-40.106051 -69.555816 -12.701322
-21.8497 -82.825691 15.732283
-20.657754 -84.418804 15.901117
-22.513746 -82.06678 14.768959
-21.8497 -82.825691 15.732283
-22.55059 -83.172161 13.923036
-22.513746 -82.06678 14.768959
-11.141775 -92.450843 14.196158
-10.483865 -92.005592 16.548693
-11.252118 -93.345191 15.864007
-10.687832 -93.768219 12.248963
-11.141775 -92.450843 14.196158
-10.364518 -95.450322 10.856209
-10.687832 -93.768219 12.248963
-11.586714 -95.472545 12.118717
-9.956641 -97.167908 9.800069
-9.057758 -95.463582 9.930315
-10.364518 -95.450322 10.856209
-13.399459 -91.508179 -8.339762
-12.042196 -92.534042 -9.499837
-13.185654 -92.968354 -9.035343
-13.399459 -91.508179 -8.339762
-15.186542 -90.359837 -8.059489
-16.12589 -89.254548 20.879136
-16.620569 -88.275857 21.834377
-17.016488 -88.111092 20.571503
-26.897759 -81.52509 -9.829037
-26.063032 -82.734318 -10.615478
-27.823578 -81.371017 -10.629379
-25.882627 -81.85857 -8.829666
-26.897759 -81.52509 -9.829037
-14.831358 -96.368882 -7.555144
-14.48297 -95.738602 -6.530867
-37.678359 -75.662063 -16.26328
-36.662521 -75.919106 -15.386954
-36.434455 -76.806862 -14.948681
-37.678359 -75.662063 -16.26328
-38.827934 -75.209767 -16.197578
-43.408119 -68.236782 7.03724
-43.816251 -68.996929 7.874992
-43.013275 -68.597828 6.462919
-43.408119 -68.236782 7.03724
-42.435608 -67.426758 6.409832
-41.099957 -67.000137 4.684435
-41.601494 -68.238652 5.351292
-41.539226 -66.54929 5.168653
-40.492663 -65.806656 3.864343
-40.55493 -67.496017 4.046981
-41.099957 -67.000137 4.684435
-41.028748 -64.748181 2.796984
-40.492663 -65.806656 3.864343
-33.776327 -89.248031 12.069254
-32.61474 -89.261345 11.998957
-32.600647 -85.355346 8.212074
-32.89707 -86.508693 8.607214
-32.246878 -84.323147 7.494407
-31.216116 -85.694103 7.560194
-32.600647 -85.355346 8.212074
-32.152203 -83.261348 7.283226
-32.246878 -84.323147 7.494407
-33.536734 -82.922592 7.935105
-7.278449 -98.787754 5.850955
-6.066321 -98.60566 6.800707
-7.362152 -99.561245 4.939642
-8.545873 -98.953384 4.447106
-7.278449 -98.787754 5.850955
-17.518417 -87.666374 19.540394
-17.016488 -88.111092 20.571503
-17.13386 -88.794128 18.48997
-17.518417 -87.666374 19.540394
-18.130468 -87.37072 18.414102
-20.448597 -85.451153 15.071127
-19.555139 -86.143906 16.230325
-20.657754 -84.418804 15.901117
-30.557296 -78.123615 -11.766296
-31.776407 -77.659851 -12.637839
-45.537813 -78.485112 9.971577
-44.134337 -78.684463 9.47879
-46.488844 -78.420811 9.162544
-45.537813 -78.485112 9.971577
-46.761593 -77.610833 10.073794
-37.500282 -78.447964 8.966615
-36.349205 -79.268162 8.402935
-38.497196 -78.63327 8.149662
-37.500282 -78.447964 8.966615
-39.433864 -79.038204 7.688243
-37.994979 -79.289196 7.264401
-38.497196 -78.63327 8.149662
-40.639015 -79.759304 7.48669
-39.433864 -79.038204 7.688243
-41.141232 -79.103378 8.371951
-7.989113 -91.586663 23.735003
-7.782553 -90.928417 25.821135
-8.501594 -92.061825 24.9118
-8.923993 -91.800895 21.484639
-9.651181 -92.810005 20.521106
-9.86702 -91.89083 19.180076
-7.989113 -91.586663 23.735003
-8.923993 -91.800895 21.484639
-6.237677 -99.173951 8.315779
-5.643155 -99.443413 8.040724
-6.75642 -100.015286 7.851036
-6.237677 -99.173951 8.315779
-6.899125 -98.996273 8.564686
-46.927639 -64.386263 -5.643486
-46.766746 -65.082832 -5.330199
-47.641942 -64.424036 -5.660862
-45.828339 -64.220386 -5.435091
-46.927639 -64.386263 -5.643486
-46.703533 -63.56159 -5.765754
-45.465855 -62.454058 -5.705199
-46.702252 -62.801977 -6.018988
-44.09346 -63.456366 -5.263701
-45.465855 -62.454058 -5.705199
-43.955082 -62.51471 -5.411542
-39.442978 -65.62439 -7.176496
-39.492666 -66.619427 -6.854027
-39.98773 -64.432652 -6.190914
-39.101258 -66.53828 -8.360017
-39.442978 -65.62439 -7.176496
-8.850852 -94.931668 -11.915693
-9.303995 -95.980618 -11.398286
-8.850852 -94.931668 -11.915693
-9.879346 -94.189518 -11.25585
-10.814943 -93.491638 -10.475343
-12.042196 -92.534042 -9.499837
-11.26034 -89.569855 27.305602
-10.24531 -88.903702 28.389323
-15.742493 -88.212391 22.819311
-16.620569 -88.275857 21.834377
-14.953092 -88.13404 23.99232
-15.742493 -88.212391 22.819311
-14.94057 -89.340962 23.315018
-14.208799 -87.908867 25.141715
-14.953092 -88.13404 23.99232
-13.143378 -88.94099 25.615162
-14.208799 -87.908867 25.141715
-12.156477 -89.888829 25.990491
-13.143378 -88.94099 25.615162
-13.164267 -90.210449 24.863355
-11.281229 -90.839314 26.553795
-11.26034 -89.569855 27.305602
-12.156477 -89.888829 25.990491
-46.28141 -64.394516 -2.507048
-44.97464 -64.16042 -1.781949
-46.14768 -65.054184 -2.945785
-46.28141 -64.394516 -2.507048
-47.505301 -64.708084 -3.094426
-49.575027 -64.487978 -5.098038
-49.031508 -64.94223 -4.49263
-48.803177 -64.541633 -5.414938
-49.575027 -64.487978 -5.098038
-48.298824 -64.490646 -5.644967
-47.985401 -65.171593 -5.117546
-48.803177 -64.541633 -5.414938
-47.641942 -64.424036 -5.660862
-48.298824 -64.490646 -5.644967
-20.213822 -86.984005 -9.166268
-18.849085 -88.091659 -7.98171
-19.916843 -88.128368 -8.528443
-20.213822 -86.984005 -9.166268
-21.492542 -86.074581 -9.682923
-23.420359 -84.008419 -9.733991
-22.39937 -84.895988 -10.695793
-24.116225 -83.775959 -10.776937
-23.420359 -84.008419 -9.733991
-24.119295 -82.908104 -8.727811
-29.724498 -79.759338 -10.650395
-30.557296 -78.123615 -11.766296
-9.866077 -96.899727 -8.929216
-10.910321 -95.870869 -7.526938
-11.640999 -96.300747 -8.132658
-9.623774 -96.950432 -10.287539
-9.866077 -96.899727 -8.929216
-16.439326 -96.972908 -7.743076
-15.635588 -97.254852 -5.219742
-15.932284 -98.004661 -6.187754
-15.235347 -96.899739 -8.648559
-16.439326 -96.972908 -7.743076
-15.532044 -97.649548 -9.61657
-13.924075 -97.045521 -9.428638
-14.831358 -96.368882 -7.555144
-15.235347 -96.899739 -8.648559
-9.555113 -96.778267 -11.491173
-9.623774 -96.950432 -10.287539
-10.528094 -97.15744 -10.738572
-10.208315 -96.187626 -11.84932
-9.303995 -95.980618 -11.398286
-9.555113 -96.778267 -11.491173
-33.000593 -76.969757 -13.08451
-31.776407 -77.659851 -12.637839
-32.014877 -78.666794 -11.904522
-33.000593 -76.969757 -13.08451
-34.295799 -76.756291 -13.877154
-35.385576 -76.299892 -14.737735
-36.662521 -75.919106 -15.386954
-47.159853 -74.114495 11.376915
-46.446814 -73.524369 10.734883
-47.661648 -74.79776 10.731468
-47.159853 -74.114495 11.376915
-48.278384 -74.31393 9.722494
-48.437224 -75.34312 10.148039
-47.661648 -74.79776 10.731468
-44.269702 -69.941085 7.999601
-43.816251 -68.996929 7.874992
-45.190752 -70.756057 8.177748
-44.269702 -69.941085 7.999601
-44.906835 -70.222824 7.268474
-45.904699 -71.609585 8.430324
-45.190752 -70.756057 8.177748
-46.778667 -71.829396 7.84006
-46.855482 -72.401184 8.823762
-45.904699 -71.609585 8.430324
-41.984327 -64.618638 0.016583
-40.930212 -66.254693 0.369984
-40.776009 -65.82235 1.116788
-43.58201 -64.315601 -0.967857
-41.984327 -64.618638 0.016583
-40.88888 -65.244416 1.995138
-41.028748 -64.748181 2.796984
-26.022176 -80.938328 12.771932
-27.460031 -80.870484 12.574791
-24.967368 -82.324348 12.737158
-26.022176 -80.938328 12.771932
-25.441025 -83.421608 12.521601
-24.023626 -83.71553 12.888594
-24.967368 -82.324348 12.737158
-28.970785 -83.85392 12.101482
-28.470706 -82.809776 12.243574
-28.035477 -85.172516 12.236484
-28.970785 -83.85392 12.101482
-29.541393 -85.04409 12.266095
-30.9897 -88.697258 12.616003
-30.539975 -87.527008 12.50673
-30.132568 -89.608917 12.531641
-30.9897 -88.697258 12.616003
-31.512212 -89.550972 12.442308
-33.81564 -89.144779 10.997294
-33.776327 -89.248031 12.069254
-33.591171 -88.624409 10.020364
-33.317728 -87.56686 9.226976
-32.635669 -89.363006 10.494315
-33.81564 -89.144779 10.997294
-33.591171 -88.624409 10.020364
-34.541079 -80.756428 8.401986
-34.535522 -81.820339 8.77735
-33.674153 -81.005912 7.127162
-34.541079 -80.756428 8.401986
-34.773173 -79.901546 7.805225
-8.361123 -90.236668 28.387465
-9.406153 -89.795048 28.822952
-9.340063 -90.96196 27.433419
-8.361123 -90.236668 28.387465
-7.463403 -90.390961 27.817633
-13.340624 -97.740444 -0.838319
-11.786884 -98.299481 1.240622
-13.440566 -98.56918 -1.848848
-15.028604 -97.457871 -2.653891
-13.340624 -97.740444 -0.838319
-6.09485 -99.794289 6.972811
-5.643033 -99.044739 7.411405
-5.643155 -99.443413 8.040724
-39.311888 -71.25655 -9.292331
-39.280109 -70.16969 -8.276006
-38.979692 -68.898026 -8.855934
-39.134577 -71.810051 -10.232193
-39.434994 -73.081715 -9.652265
-39.311888 -71.25655 -9.292331
-39.182444 -70.447392 -10.977282
-39.649118 -68.92643 -11.686215
-39.305549 -72.272557 -11.337215
-39.134577 -71.810051 -10.232193
-39.182444 -70.447392 -10.977282
-39.890141 -73.499233 -13.526259
-39.36112 -72.782379 -12.407221
-39.882436 -71.626751 -13.201342
-39.91539 -73.996632 -14.722337
-39.394073 -75.152259 -13.928217
-39.890141 -73.499233 -13.526259
-39.812449 -74.759686 -15.847223
-39.91539 -73.996632 -14.722337
-17.191136 -89.006604 -7.793798
-18.849085 -88.091659 -7.98171
3 0 106 104
3 1 110 108
3 3 113 111
3 3 115 113
3 6 118 116
3 6 119 118
3 6 121 119
3 5 124 122
3 5 126 124
3 4 129 127
3 2 418 420
3 420 419 130
3 418 419 420
3 7 133 131
3 9 136 134
3 9 138 136
3 11 141 139
3 11 143 141
3 11 145 143
3 13 148 146
3 13 150 148
3 15 421 423
3 423 422 151
3 421 422 423
3 16 424 425
3 17 155 153
3 17 157 155
3 8 160 158
3 18 163 161
3 18 165 163
3 18 167 165
3 19 170 168
3 19 426 428
3 428 427 170
3 426 427 428
3 20 173 171
3 22 176 174
3 22 178 176
3 429 180 430
3 432 431 180
3 433 183 434
3 20 186 184
3 20 171 186
3 10 435 436
3 437 188 438
3 24 191 189
3 24 193 191
3 12 196 194
3 25 199 197
3 25 201 199
3 25 203 201
3 23 206 204
3 23 208 206
3 21 211 209
3 26 214 212
3 26 216 214
3 14 219 217
3 27 222 220
3 27 224 222
3 27 226 224
3 28 229 227
3 30 230 105
3 30 231 230
3 439 232 440
3 441 234 442
3 443 442 232
3 441 442 443
3 444 235 445
3 446 445 107
3 444 445 446
3 447 236 448
3 449 448 235
3 447 448 449
3 32 239 237
3 34 240 109
3 34 241 240
3 35 244 242
3 37 245 112
3 37 246 245
3 37 248 246
3 39 249 114
3 39 250 249
3 450 253 451
3 452 451 251
3 450 451 452
3 453 254 454
3 455 255 456
3 457 456 254
3 455 456 457
3 458 251 459
3 42 258 256
3 461 460 117
3 43 462 463
3 43 464 465
3 43 466 468
3 466 260 467
3 466 467 468
3 45 261 120
3 45 262 261
3 46 265 263
3 48 266 123
3 48 267 266
3 48 269 267
3 50 270 125
3 50 271 270
3 51 274 272
3 53 275 128
3 53 276 275
3 469 278 470
3 471 279 472
3 473 280 474
3 475 474 279
3 473 474 475
3 477 476 280
3 55 478 480
3 480 479 282
3 478 479 480
3 56 285 283
3 58 286 132
3 58 287 286
3 29 288 228
3 59 289 135
3 59 290 289
3 59 291 290
3 60 292 137
3 60 293 292
3 61 294 140
3 61 295 294
3 61 296 295
3 62 297 142
3 62 298 297
3 62 300 298
3 64 301 144
3 64 302 301
3 31 303 233
3 65 304 147
3 65 305 304
3 65 306 305
3 66 307 149
3 66 308 307
3 481 311 482
3 483 482 309
3 481 482 483
3 484 312 485
3 486 313 487
3 488 487 312
3 486 487 488
3 68 489 491
3 491 490 314
3 489 490 491
3 493 492 152
3 69 494 495
3 69 496 498
3 496 315 497
3 496 497 498
3 33 316 238
3 70 317 154
3 70 318 317
3 70 319 318
3 71 320 156
3 71 321 320
3 57 322 284
3 72 323 159
3 72 324 323
3 36 325 243
3 73 326 162
3 73 327 326
3 73 328 327
3 74 329 164
3 74 330 329
3 74 331 330
3 75 332 166
3 75 333 332
3 38 334 247
3 76 335 169
3 76 336 335
3 76 499 501
3 501 500 336
3 499 500 501
3 77 339 337
3 79 340 172
3 79 341 340
3 40 342 252
3 80 343 175
3 80 344 343
3 80 345 344
3 81 346 177
3 81 347 346
3 502 348 503
3 504 349 505
3 506 505 348
3 504 505 506
3 82 350 179
3 82 351 350
3 82 352 351
3 83 353 181
3 83 354 353
3 83 507 509
3 509 508 354
3 507 508 509
3 510 355 511
3 512 356 513
3 514 513 355
3 512 513 514
3 515 357 516
3 517 358 518
3 519 518 357
3 517 518 519
3 84 520 522
3 520 359 521
3 520 521 522
3 84 360 359
3 85 523 525
3 523 361 524
3 523 524 525
3 85 362 361
3 85 363 362
3 86 364 182
3 86 365 364
3 41 526 528
3 526 366 527
3 526 527 528
3 87 367 185
3 87 368 367
3 87 369 368
3 77 370 187
3 77 337 370
3 530 529 257
3 89 531 532
3 89 533 535
3 533 372 534
3 533 534 535
3 44 373 259
3 90 374 190
3 90 375 374
3 90 376 375
3 91 377 192
3 91 378 377
3 63 379 299
3 92 380 195
3 92 381 380
3 47 382 264
3 93 383 198
3 93 384 383
3 93 385 384
3 94 386 200
3 94 387 386
3 94 388 387
3 95 389 202
3 95 390 389
3 49 391 268
3 96 392 205
3 96 393 392
3 96 394 393
3 88 395 207
3 88 371 395
3 78 396 338
3 97 397 210
3 97 398 397
3 52 399 273
3 98 400 213
3 98 401 400
3 98 402 401
3 99 403 215
3 99 404 403
3 67 405 310
3 100 406 218
3 100 407 406
3 54 408 277
3 101 409 221
3 101 410 409
3 101 411 410
3 102 412 223
3 102 413 412
3 102 414 413
3 103 415 225
3 103 416 415
3 537 536 281
3 538 417 539
3 541 540 417
3 104 105 28
3 106 105 104
3 106 30 105
3 542 107 543
3 544 107 545
3 547 546 107
3 108 109 32
3 110 109 108
3 110 34 109
3 111 112 35
3 113 112 111
3 113 37 112
3 113 114 37
3 115 114 113
3 115 39 114
3 116 117 42
3 118 117 116
3 118 548 550
3 550 549 117
3 548 549 550
3 118 551 552
3 119 553 555
3 555 554 118
3 553 554 555
3 119 556 558
3 556 43 557
3 556 557 558
3 119 120 43
3 121 120 119
3 121 45 120
3 122 123 46
3 124 123 122
3 124 48 123
3 124 125 48
3 126 125 124
3 126 50 125
3 127 128 51
3 129 128 127
3 129 53 128
3 130 559 561
3 561 560 55
3 559 560 561
3 563 562 130
3 131 132 56
3 133 132 131
3 133 58 132
3 134 135 29
3 136 135 134
3 136 59 135
3 136 137 59
3 138 137 136
3 138 60 137
3 139 564 566
3 564 140 565
3 564 565 566
3 141 140 139
3 141 61 140
3 141 142 61
3 143 142 141
3 143 62 142
3 143 144 62
3 145 144 143
3 145 64 144
3 146 147 31
3 148 147 146
3 148 65 147
3 148 149 65
3 150 149 148
3 150 66 149
3 151 152 68
3 567 152 568
3 569 568 151
3 567 568 569
3 571 570 152
3 572 69 573
3 153 154 33
3 155 154 153
3 155 70 154
3 155 156 70
3 157 156 155
3 157 71 156
3 158 159 57
3 160 159 158
3 160 72 159
3 161 162 36
3 163 162 161
3 163 73 162
3 163 164 73
3 165 164 163
3 165 74 164
3 165 166 74
3 167 166 165
3 167 75 166
3 168 169 38
3 170 169 168
3 170 76 169
3 170 574 576
3 576 575 76
3 574 575 576
3 578 577 170
3 171 172 77
3 173 172 171
3 173 79 172
3 174 175 40
3 176 175 174
3 176 80 175
3 176 177 80
3 178 177 176
3 178 81 177
3 579 179 580
3 180 581 583
3 581 179 582
3 581 582 583
3 180 82 179
3 180 181 82
3 584 181 585
3 586 585 180
3 584 585 586
3 587 83 588
3 589 588 181
3 587 588 589
3 591 590 83
3 592 84 593
3 594 85 595
3 596 182 597
3 598 597 85
3 596 597 598
3 183 599 601
3 599 182 600
3 599 600 601
3 183 86 182
3 184 185 41
3 186 185 184
3 186 87 185
3 186 187 87
3 171 187 186
3 171 77 187
3 188 602 603
3 188 604 606
3 604 89 605
3 604 605 606
3 189 190 44
3 191 190 189
3 191 90 190
3 191 192 90
3 193 192 191
3 193 91 192
3 194 195 63
3 196 195 194
3 196 92 195
3 197 198 47
3 199 198 197
3 199 93 198
3 199 200 93
3 201 200 199
3 201 94 200
3 201 202 94
3 203 202 201
3 203 95 202
3 204 205 49
3 206 205 204
3 206 96 205
3 206 207 96
3 208 207 206
3 208 88 207
3 209 210 78
3 211 210 209
3 211 97 210
3 212 213 52
3 214 213 212
3 214 98 213
3 214 215 98
3 216 215 214
3 216 99 215
3 217 218 67
3 219 218 217
3 219 100 218
3 220 221 54
3 222 221 220
3 222 101 221
3 222 223 101
3 224 223 222
3 224 102 223
3 224 225 102
3 226 225 224
3 226 103 225
3 227 228 7
3 229 228 227
3 229 29 228
3 105 229 28
3 230 229 105
3 230 29 229
3 230 134 29
3 231 134 230
3 231 9 134
3 607 139 608
3 232 609 611
3 609 139 610
3 609 610 611
3 232 11 139
3 232 233 11
3 234 233 232
3 234 31 233
3 107 612 614
3 612 234 613
3 612 613 614
3 235 234 107
3 235 31 234
3 235 146 31
3 236 146 235
3 236 13 146
3 616 615 15
3 237 238 16
3 239 238 237
3 239 33 238
3 109 239 32
3 240 239 109
3 240 33 239
3 240 153 33
3 241 153 240
3 241 17 153
3 242 243 8
3 244 243 242
3 244 36 243
3 112 244 35
3 245 244 112
3 245 36 244
3 245 161 36
3 246 161 245
3 246 18 161
3 246 247 18
3 248 247 246
3 248 38 247
3 114 248 37
3 249 248 114
3 249 38 248
3 249 168 38
3 250 168 249
3 250 19 168
3 251 252 20
3 253 252 251
3 253 40 252
3 617 253 618
3 254 619 621
3 619 253 620
3 619 620 621
3 254 40 253
3 254 174 40
3 255 174 254
3 255 22 174
3 622 41 623
3 624 41 625
3 626 184 627
3 628 627 41
3 626 627 628
3 251 629 631
3 629 184 630
3 629 630 631
3 251 20 184
3 256 257 10
3 258 257 256
3 258 632 634
3 634 633 257
3 632 633 634
3 117 258 42
3 635 258 636
3 637 636 117
3 635 636 637
3 639 638 258
3 640 259 641
3 260 642 644
3 642 259 643
3 642 643 644
3 260 44 259
3 120 260 43
3 261 260 120
3 261 44 260
3 261 189 44
3 262 189 261
3 262 24 189
3 263 264 12
3 265 264 263
3 265 47 264
3 123 265 46
3 266 265 123
3 266 47 265
3 266 197 47
3 267 197 266
3 267 25 197
3 267 268 25
3 269 268 267
3 269 49 268
3 125 269 48
3 270 269 125
3 270 49 269
3 270 204 49
3 271 204 270
3 271 23 204
3 272 273 21
3 274 273 272
3 274 52 273
3 128 274 51
3 275 274 128
3 275 52 274
3 275 212 52
3 276 212 275
3 276 26 212
3 645 277 646
3 647 646 14
3 645 646 647
3 278 648 650
3 648 277 649
3 648 649 650
3 278 54 277
3 651 278 652
3 279 653 655
3 653 278 654
3 653 654 655
3 279 54 278
3 279 220 54
3 280 220 279
3 280 27 220
3 280 281 27
3 656 281 657
3 658 657 280
3 656 657 658
3 660 659 281
3 282 661 662
3 664 663 282
3 666 665 55
3 283 284 1
3 285 284 283
3 285 57 284
3 132 285 56
3 286 285 132
3 286 57 285
3 286 158 57
3 287 158 286
3 287 8 158
3 228 133 7
3 288 133 228
3 288 58 133
3 135 288 29
3 289 288 135
3 289 58 288
3 289 287 58
3 290 287 289
3 290 8 287
3 290 242 8
3 291 242 290
3 291 35 242
3 137 291 59
3 292 291 137
3 292 35 291
3 292 111 35
3 293 111 292
3 293 3 111
3 667 10 668
3 140 669 670
3 294 671 673
3 673 672 140
3 671 672 673
3 294 674 675
3 294 676 677
3 295 678 680
3 680 679 294
3 678 679 680
3 295 681 683
3 681 10 682
3 681 682 683
3 295 256 10
3 296 256 295
3 296 42 256
3 142 296 61
3 297 296 142
3 297 42 296
3 297 116 42
3 298 116 297
3 298 6 116
3 298 299 6
3 300 299 298
3 300 63 299
3 144 300 62
3 301 300 144
3 301 63 300
3 301 194 63
3 302 194 301
3 302 12 194
3 233 145 11
3 303 145 233
3 303 64 145
3 147 303 31
3 304 303 147
3 304 64 303
3 304 302 64
3 305 302 304
3 305 12 302
3 305 263 12
3 306 263 305
3 306 46 263
3 149 306 65
3 307 306 149
3 307 46 306
3 307 122 46
3 308 122 307
3 308 5 122
3 309 310 4
3 311 310 309
3 311 67 310
3 684 311 685
3 312 686 688
3 686 311 687
3 686 687 688
3 312 67 311
3 312 217 67
3 313 217 312
3 313 14 217
3 689 313 690
3 691 313 692
3 693 14 694
3 695 694 313
3 693 694 695
3 697 696 14
3 314 698 700
3 700 699 2
3 698 699 700
3 702 701 314
3 152 703 705
3 705 704 68
3 703 704 705
3 707 706 152
3 709 708 15
3 315 710 712
3 710 711 712
3 315 713 714
3 238 715 717
3 717 716 16
3 715 716 717
3 316 718 720
3 720 719 238
3 718 719 720
3 316 721 723
3 721 69 722
3 721 722 723
3 154 316 33
3 317 316 154
3 317 69 316
3 317 315 69
3 318 315 317
3 318 724 726
3 726 725 315
3 724 725 726
3 318 727 729
3 727 282 728
3 727 728 729
3 319 282 318
3 319 55 282
3 156 319 70
3 320 319 156
3 320 55 319
3 320 130 55
3 321 130 320
3 321 2 130
3 284 110 1
3 322 110 284
3 322 34 110
3 159 322 57
3 323 322 159
3 323 34 322
3 323 241 34
3 324 241 323
3 324 17 241
3 243 160 8
3 325 160 243
3 325 72 160
3 162 325 36
3 326 325 162
3 326 72 325
3 326 324 72
3 327 324 326
3 327 17 324
3 327 157 17
3 328 157 327
3 328 71 157
3 164 328 73
3 329 328 164
3 329 71 328
3 329 321 71
3 330 321 329
3 330 2 321
3 330 314 2
3 331 314 330
3 331 68 314
3 166 331 74
3 332 331 166
3 332 68 331
3 332 151 68
3 333 151 332
3 333 15 151
3 247 167 18
3 334 167 247
3 334 75 167
3 169 334 38
3 335 334 169
3 335 75 334
3 335 333 75
3 336 333 335
3 336 15 333
3 336 730 732
3 732 731 15
3 730 731 732
3 734 733 336
3 736 735 76
3 337 338 0
3 339 338 337
3 339 78 338
3 172 339 77
3 340 339 172
3 340 78 339
3 340 209 78
3 341 209 340
3 341 21 209
3 252 173 20
3 342 173 252
3 342 79 173
3 175 342 40
3 343 342 175
3 343 79 342
3 343 341 79
3 344 341 343
3 344 21 341
3 344 272 21
3 345 272 344
3 345 51 272
3 177 345 80
3 346 345 177
3 346 51 345
3 346 127 51
3 347 127 346
3 347 4 127
3 348 737 738
3 348 739 740
3 348 741 743
3 741 255 742
3 741 742 743
3 349 255 348
3 349 22 255
3 179 744 745
3 350 746 748
3 748 747 179
3 746 747 748
3 350 749 750
3 350 751 753
3 751 349 752
3 751 752 753
3 351 349 350
3 351 22 349
3 351 178 22
3 352 178 351
3 352 81 178
3 181 352 82
3 353 352 181
3 353 81 352
3 353 347 81
3 354 347 353
3 354 4 347
3 354 309 4
3 754 309 755
3 756 755 354
3 754 755 756
3 758 757 309
3 760 759 83
3 355 761 762
3 355 763 764
3 355 765 767
3 765 236 766
3 765 766 767
3 356 236 355
3 356 13 236
3 768 356 769
3 357 770 772
3 770 356 771
3 770 771 772
3 357 13 356
3 357 150 13
3 358 150 357
3 358 66 150
3 773 358 774
3 359 775 777
3 775 358 776
3 775 776 777
3 359 66 358
3 359 308 66
3 360 308 359
3 360 5 308
3 778 84 779
3 361 780 781
3 361 782 784
3 782 84 783
3 782 783 784
3 361 360 84
3 362 360 361
3 362 5 360
3 362 126 5
3 363 126 362
3 363 50 126
3 182 363 85
3 364 363 182
3 364 50 363
3 364 271 50
3 365 271 364
3 365 23 271
3 785 183 786
3 366 787 789
3 787 183 788
3 787 788 789
3 366 86 183
3 185 366 41
3 367 366 185
3 367 86 366
3 367 365 86
3 368 365 367
3 368 23 365
3 368 208 23
3 369 208 368
3 369 88 208
3 187 369 87
3 370 369 187
3 370 88 369
3 370 371 88
3 337 371 370
3 337 0 371
3 257 790 792
3 792 791 10
3 790 791 792
3 794 793 257
3 372 795 796
3 372 797 799
3 797 16 798
3 797 798 799
3 259 800 802
3 800 188 801
3 800 801 802
3 373 188 259
3 373 89 188
3 190 373 44
3 374 373 190
3 374 89 373
3 374 372 89
3 375 372 374
3 375 16 372
3 375 237 16
3 376 237 375
3 376 32 237
3 192 376 90
3 377 376 192
3 377 32 376
3 377 108 32
3 378 108 377
3 378 1 108
3 299 121 6
3 379 121 299
3 379 45 121
3 195 379 63
3 380 379 195
3 380 45 379
3 380 262 45
3 381 262 380
3 381 24 262
3 264 196 12
3 382 196 264
3 382 92 196
3 198 382 47
3 383 382 198
3 383 92 382
3 383 381 92
3 384 381 383
3 384 24 381
3 384 193 24
3 385 193 384
3 385 91 193
3 200 385 93
3 386 385 200
3 386 91 385
3 386 378 91
3 387 378 386
3 387 1 378
3 387 283 1
3 388 283 387
3 388 56 283
3 202 388 94
3 389 388 202
3 389 56 388
3 389 131 56
3 390 131 389
3 390 7 131
3 268 203 25
3 391 203 268
3 391 95 203
3 205 391 49
3 392 391 205
3 392 95 391
3 392 390 95
3 393 390 392
3 393 7 390
3 393 227 7
3 394 227 393
3 394 28 227
3 207 394 96
3 395 394 207
3 395 28 394
3 395 104 28
3 371 104 395
3 371 0 104
3 338 106 0
3 396 106 338
3 396 30 106
3 210 396 78
3 397 396 210
3 397 30 396
3 397 231 30
3 398 231 397
3 398 9 231
3 273 211 21
3 399 211 273
3 399 97 211
3 213 399 52
3 400 399 213
3 400 97 399
3 400 398 97
3 401 398 400
3 401 9 398
3 401 138 9
3 402 138 401
3 402 60 138
3 215 402 98
3 403 402 215
3 403 60 402
3 403 293 60
3 404 293 403
3 404 3 293
3 310 129 4
3 405 129 310
3 405 53 129
3 218 405 67
3 406 405 218
3 406 53 405
3 406 276 53
3 407 276 406
3 407 26 276
3 277 219 14
3 408 219 277
3 408 100 219
3 221 408 54
3 409 408 221
3 409 100 408
3 409 407 100
3 410 407 409
3 410 26 407
3 410 216 26
3 411 216 410
3 411 99 216
3 223 411 101
3 412 411 223
3 412 99 411
3 412 404 99
3 413 404 412
3 413 3 404
3 413 115 3
3 414 115 413
3 414 39 115
3 225 414 102
3 415 414 225
3 415 39 414
3 415 250 39
3 416 250 415
3 416 19 250
3 281 226 27
3 803 226 804
3 805 804 281
3 803 804 805
3 806 103 807
3 808 807 226
3 806 807 808
3 417 809 810
3 417 811 813
3 811 103 812
3 811 812 813
3 417 416 103
3 814 416 815
3 816 815 417
3 814 815 816
3 817 19 818
3 819 818 416
3 817 818 819
3 821 820 19
3 823 822 2
