ply
format ascii 1.0
element vertex 352
property float x
property float y
property float z
element face 369
property list uchar int vertex_index
end_header
-13.007599 -92.718796 3.052699
-13.87184 -79.567703 11.855423
-11.367078 -87.239708 7.483241
-6.637514 -81.116821 3.384576
-20.350042 -71.808693 7.874718
-15.673683 -74.496994 2.822464
-11.450212 -89.993729 3.842838
-10.847486 -87.757317 -0.404561
-10.612933 -91.094887 -2.760705
-16.66366 -75.624359 9.856702
-20.038004 -75.239731 5.368088
-15.371222 -78.577927 6.673853
-12.376501 -83.745682 10.675071
-12.816043 -81.306259 5.752589
-11.966185 -84.19783 3.148693
-14.371346 -95.275681 0.060786
-11.60848 -94.306908 -5.641524
-22.657387 -66.951462 8.198689
-17.132416 -69.721298 7.56965
-12.861157 -72.203423 10.6392
-8.605277 -76.441864 13.401297
-7.480002 -81.663712 11.606812
-6.092635 -87.589401 10.006448
-6.70751 -91.590919 5.565703
-8.225123 -96.371277 6.542158
-24.420225 -70.112228 5.584447
-22.02804 -71.044411 2.108117
-9.953967 -76.765701 4.704844
-12.276731 -91.386917 3.452316
-12.568644 -90.382736 0.632333
-12.853534 -91.287949 -0.220682
-15.073779 -77.353722 11.271312
-16.563992 -77.748917 8.722608
-15.061483 -79.448929 9.486538
-11.683153 -85.759781 9.515103
-13.046984 -84.656433 7.003543
-12.698435 -85.97908 5.214198
-8.156937 -88.766029 -2.291881
-8.402887 -86.610252 -0.845399
-14.928662 -96.629135 -1.643361
-15.445854 -94.96254 -4.726511
-16.14263 -96.223099 -6.775065
-14.898857 -70.811996 8.729053
-13.20739 -69.366142 7.221736
-8.504532 -72.012505 11.489836
-6.290534 -74.450577 12.137205
-7.836928 -79.13018 12.096578
-8.462171 -98.179893 5.358418
-21.909727 -69.620621 7.84318
-23.876625 -68.631241 7.248909
-22.598436 -71.47316 6.879309
-18.422884 -75.455704 3.668365
-21.158472 -73.558403 3.365398
-18.877306 -73.128586 2.234006
-15.300558 -71.723099 1.968493
-9.987211 -80.743019 4.118034
-11.357311 -79.04776 5.092256
-8.022231 -78.661301 4.626543
-7.657793 -95.053864 -7.198526
-10.938931 -88.494125 5.269846
-12.244917 -87.461945 3.206952
-12.214222 -88.895813 1.690666
-10.836229 -89.389053 -1.618795
-7.823238 -90.636047 -3.5316
-18.412867 -73.872101 8.693693
-20.623795 -73.989891 6.924588
-18.56698 -75.939217 7.696349
-17.681013 -77.115555 5.937672
-15.583521 -76.914101 4.262131
-13.060469 -81.634666 11.366282
-14.316127 -81.234901 9.063756
-13.562094 -82.881973 8.174153
-12.346716 -82.75753 4.755048
-9.421999 -82.594711 2.633332
-11.341673 -85.896042 1.283761
-8.910591 -84.542885 0.891183
-6.141728 -83.598923 1.805837
-13.710558 -94.079071 1.781936
-13.762093 -92.670815 -1.815057
-14.649127 -93.778343 -3.24915
-12.685243 -95.271889 -6.730379
-21.511824 -66.998573 8.064794
-20.333952 -69.166199 8.1794
-18.5847 -70.809006 8.406916
-16.675289 -72.364235 9.510074
-14.811122 -74.053711 11.001135
-13.070094 -75.922394 12.564558
-10.876078 -70.563904 9.226956
-10.661901 -73.932861 12.699544
-11.498686 -78.245087 13.276949
-10.573668 -80.655815 12.45215
-9.883848 -82.942307 11.824121
-9.117693 -85.394348 11.198924
-7.015115 -84.622635 11.522631
-8.612194 -87.879791 9.204042
-8.463302 -89.172005 6.604791
-9.14962 -90.618217 4.989338
-10.076687 -92.387802 5.275918
-7.427587 -93.880798 6.174298
-11.077082 -94.67836 5.360728
-11.562288 -96.472305 4.131664
-11.821181 -97.747208 2.514522
-25.406862 -67.029617 6.342843
-25.700542 -67.901451 4.131337
-22.494732 -73.063759 5.161771
-23.807926 -70.994179 3.562024
-24.659756 -68.314819 2.150446
-13.898328 -79.954605 6.630502
-13.107016 -77.751572 4.979962
-12.403638 -75.30751 3.583083
-6.466496 -76.288231 4.974953
-8.723266 -74.034439 4.190972
-11.686026 -72.673233 3.01765
-10.515509 -92.627609 -4.237222
-7.289491 -93.139618 -5.405199
-6.855641 -88.290104 -2.110374
-6.800566 -89.397697 -2.878541
-15.635588 -97.254852 -5.219742
-15.535646 -96.426117 -4.209213
-15.028604 -97.457871 -2.653891
-13.949932 -68.556671 8.277134
-14.482871 -68.879433 7.013991
-5.219242 -73.744843 11.790961
-6.343008 -72.259121 11.372498
-5.950708 -76.118988 11.812148
-5.219242 -73.744843 11.790961
-7.454082 -85.063427 0.404548
-8.656739 -85.576569 0.022892
-7.20023 -86.09711 -0.463743
-6.06965 -84.591446 0.861875
-7.52616 -84.070904 1.34851
-7.454082 -85.063427 0.404548
-5.060424 -83.515442 1.330248
-6.06965 -84.591446 0.861875
-13.102664 -95.893276 -7.532801
-14.065549 -95.117215 -5.728445
-14.48297 -95.738602 -6.530867
-11.640999 -96.300747 -8.132658
-13.102664 -95.893276 -7.532801
-21.018222 -66.897884 7.846143
-21.000238 -65.671993 8.563844
-20.429286 -67.981697 7.903446
-20.922888 -68.082386 8.122097
-21.018222 -66.897884 7.846143
-18.12833 -69.154141 7.485188
-17.527321 -68.800888 7.474153
-17.858558 -70.265152 7.988283
-18.854472 -69.697994 7.903821
-18.12833 -69.154141 7.485188
-9.934408 -69.477597 9.070653
-11.366267 -69.162163 8.936019
-6.553875 -86.106018 10.76454
-6.134357 -84.249756 11.521202
-5.673117 -85.733139 10.76311
-7.928565 -91.104568 5.27752
-7.525353 -90.193603 6.214231
-6.304298 -90.679955 6.502413
-7.826355 -95.126037 6.358228
-6.45908 -94.639839 6.952285
-6.857848 -95.885079 7.136215
-10.225378 -98.737042 3.025157
-10.141676 -97.96355 3.93647
-8.545873 -98.953384 4.447106
-11.786884 -98.299481 1.240622
-10.225378 -98.737042 3.025157
-23.403537 -66.350556 8.040725
-22.540348 -65.649151 8.199923
-22.171366 -69.567016 1.535967
-23.487224 -68.202221 1.557132
-23.343898 -69.679615 2.129282
-5.115186 -76.029671 4.977245
-5.604365 -77.600021 4.624783
-8.286178 -72.499363 4.322201
-7.093208 -73.530167 4.81586
-9.767558 -71.81876 3.73554
-10.204646 -73.353836 3.604311
-8.286178 -72.499363 4.322201
-11.220845 -71.253807 2.995995
-9.767558 -71.81876 3.73554
-6.286185 -93.605621 -7.266726
-7.473642 -94.096741 -6.301863
-6.470336 -94.562745 -8.16339
-6.110646 -92.829174 -5.624848
-6.286185 -93.605621 -7.266726
-6.978616 -87.212215 -1.387132
-8.279912 -87.688141 -1.56864
-6.855641 -88.290104 -2.110374
-7.20023 -86.09711 -0.463743
-6.978616 -87.212215 -1.387132
-14.831358 -96.368882 -7.555144
-14.48297 -95.738602 -6.530867
-15.794242 -95.59282 -5.750788
-16.445384 -69.057011 7.187947
-17.527321 -68.800888 7.474153
-15.328605 -69.60236 7.767649
-16.015636 -70.266647 8.149351
-16.445384 -69.057011 7.187947
-14.053123 -70.089069 7.975395
-15.328605 -69.60236 7.767649
-14.482871 -68.879433 7.013991
-7.450006 -71.040085 11.048814
-8.748635 -70.201897 10.202094
-7.397533 -73.231541 11.81352
-7.450006 -71.040085 11.048814
-6.343008 -72.259121 11.372498
-6.723904 -78.458789 11.791835
-7.063731 -76.790379 12.116891
-5.950708 -76.118988 11.812148
-6.545441 -79.725555 11.546951
-7.658465 -80.396946 11.851695
-6.723904 -78.458789 11.791835
-5.188569 -87.242508 10.171553
-5.673117 -85.733139 10.76311
-5.996861 -88.679195 8.722786
-5.188569 -87.242508 10.171553
-5.174316 -90.5158 6.977212
-6.304298 -90.679955 6.502413
-7.131519 -97.093491 6.90004
-6.857848 -95.885079 7.136215
-7.250043 -97.997799 6.308171
-8.343647 -97.275585 5.950288
-7.131519 -97.093491 6.90004
-7.278449 -98.787754 5.850955
-7.250043 -97.997799 6.308171
-8.545873 -98.953384 4.447106
-7.278449 -98.787754 5.850955
-18.964409 -71.749718 1.730021
-20.539776 -70.70763 1.667077
-20.452673 -72.086499 2.171061
-17.176035 -71.046975 1.597265
-18.964409 -71.749718 1.730021
-17.088932 -72.425843 2.101249
-15.063713 -70.315315 1.724201
-17.176035 -71.046975 1.597265
-8.396596 -95.761856 -7.761011
-9.633136 -94.680386 -6.420025
-10.371939 -95.388379 -6.98251
-7.132549 -95.293999 -8.849766
-8.396596 -95.761856 -7.761011
-6.470336 -94.562745 -8.16339
-7.132549 -95.293999 -8.849766
-6.633717 -90.332707 -3.498401
-6.800566 -89.397697 -2.878541
-7.990087 -89.701038 -2.911741
-5.689874 -80.014317 3.829594
-5.368993 -81.335686 3.069342
-5.1211 -82.576737 2.279972
-5.368993 -81.335686 3.069342
-6.389621 -82.357872 2.595206
-5.1211 -82.576737 2.279972
-5.060424 -83.515442 1.330248
-10.910321 -95.870869 -7.526938
-10.371939 -95.388379 -6.98251
-12.146861 -94.789399 -6.185951
-10.910321 -95.870869 -7.526938
-11.640999 -96.300747 -8.132658
-16.439326 -96.972908 -7.743076
-15.635588 -97.254852 -5.219742
-15.235347 -96.899739 -8.648559
-16.439326 -96.972908 -7.743076
-14.831358 -96.368882 -7.555144
-15.235347 -96.899739 -8.648559
-21.981735 -65.708386 8.219693
-22.540348 -65.649151 8.199923
-21.408953 -65.731941 8.152746
-21.000238 -65.671993 8.563844
-22.084606 -66.975018 8.131742
-21.981735 -65.708386 8.219693
-21.408953 -65.731941 8.152746
-19.729098 -68.876591 7.790063
-20.429286 -67.981697 7.903446
-19.459326 -69.987603 8.293158
-19.729098 -68.876591 7.790063
-18.854472 -69.697994 7.903821
-12.531923 -68.563282 7.933409
-13.949932 -68.556671 8.277134
-12.041734 -69.965023 8.224346
-12.531923 -68.563282 7.933409
-11.366267 -69.162163 8.936019
-9.690305 -71.288205 10.358396
-9.934408 -69.477597 9.070653
-8.748635 -70.201897 10.202094
-6.416588 -81.239426 11.651224
-6.545441 -79.725555 11.546951
-6.184145 -82.718887 11.609134
-6.134357 -84.249756 11.521202
-7.247559 -83.143174 11.564722
-6.416588 -81.239426 11.651224
-6.184145 -82.718887 11.609134
-7.182194 -89.470497 7.021957
-7.277969 -88.380703 8.30562
-5.996861 -88.679195 8.722786
-8.806461 -89.895111 5.797064
-7.182194 -89.470497 7.021957
-7.525353 -90.193603 6.214231
-5.641796 -92.201504 6.3441
-5.174316 -90.5158 6.977212
-6.001835 -93.346443 6.648397
-6.45908 -94.639839 6.952285
-7.067549 -92.735859 5.87
-5.641796 -92.201504 6.3441
-6.001835 -93.346443 6.648397
-13.340624 -97.740444 -0.838319
-13.374921 -97.188172 0.43558
-11.786884 -98.299481 1.240622
-15.028604 -97.457871 -2.653891
-13.340624 -97.740444 -0.838319
-24.013156 -67.190445 7.565835
-23.403537 -66.350556 8.040725
-23.267006 -67.791352 7.723799
-24.778275 -66.389633 7.112802
-24.013156 -67.190445 7.565835
-24.641744 -67.830429 6.795876
-25.266635 -65.418699 6.717954
-24.778275 -66.389633 7.112802
-25.83585 -65.861923 5.78418
-25.266635 -65.418699 6.717954
-25.982689 -66.29784 4.678427
-25.83585 -65.861923 5.78418
-25.553702 -67.465534 5.23709
-25.920996 -66.625462 3.56005
-25.982689 -66.29784 4.678427
-25.400603 -66.832145 2.569605
-25.920996 -66.625462 3.56005
-25.180149 -68.108135 3.140892
-24.701928 -66.913212 1.687658
-25.400603 -66.832145 2.569605
-24.701928 -66.913212 1.687658
-23.487224 -68.202221 1.557132
-22.171366 -69.567016 1.535967
-20.539776 -70.70763 1.667077
-6.382232 -78.786556 4.450577
-7.329873 -79.889061 4.00556
-5.689874 -80.014317 3.829594
-7.244364 -77.474766 4.800748
-6.382232 -78.786556 4.450577
-5.604365 -77.600021 4.624783
-5.964823 -74.657062 5.207851
-5.115186 -76.029671 4.977245
-7.594881 -75.161335 4.582963
-5.964823 -74.657062 5.207851
-7.093208 -73.530167 4.81586
-13.028111 -70.77874 2.471417
-13.493292 -72.198166 2.493072
-11.220845 -71.253807 2.995995
-15.063713 -70.315315 1.724201
-13.028111 -70.77874 2.471417
-6.37752 -91.577389 -4.688049
-7.556364 -91.887833 -4.4684
-6.110646 -92.829174 -5.624848
-6.633717 -90.332707 -3.498401
-6.37752 -91.577389 -4.688049
3 0 30 28
3 1 33 31
3 2 36 34
3 116 115 37
3 117 41 118
3 119 118 39
3 117 118 119
3 120 43 121
3 122 45 123
3 125 124 45
3 4 50 48
3 5 53 51
3 5 54 53
3 3 57 55
3 6 61 59
3 8 62 29
3 8 63 62
3 9 66 64
3 11 67 32
3 11 68 67
3 12 71 69
3 14 72 35
3 14 73 72
3 7 74 60
3 126 75 127
3 128 127 38
3 126 127 128
3 129 76 130
3 131 130 75
3 129 130 131
3 133 132 76
3 15 79 77
3 134 80 135
3 136 135 40
3 134 135 136
3 138 137 80
3 139 81 140
3 141 82 142
3 143 142 81
3 141 142 143
3 18 144 145
3 18 146 148
3 146 83 147
3 146 147 148
3 18 84 83
3 19 85 42
3 19 86 85
3 149 87 150
3 20 88 44
3 20 89 88
3 20 90 89
3 21 91 46
3 21 92 91
3 22 151 153
3 151 93 152
3 151 152 153
3 22 94 93
3 22 95 94
3 23 154 156
3 154 96 155
3 154 155 156
3 23 97 96
3 24 157 159
3 157 98 158
3 157 158 159
3 24 99 98
3 24 100 99
3 160 101 161
3 162 161 47
3 160 161 162
3 164 163 101
3 17 165 166
3 25 102 49
3 25 103 102
3 10 104 65
3 26 105 52
3 26 106 105
3 26 167 169
3 169 168 106
3 167 168 169
3 13 107 70
3 27 108 56
3 27 109 108
3 170 110 171
3 172 111 173
3 174 112 175
3 176 175 111
3 174 175 176
3 178 177 112
3 16 113 78
3 179 114 180
3 181 180 58
3 179 180 181
3 183 182 114
3 28 29 6
3 30 29 28
3 30 8 29
3 31 32 9
3 33 32 31
3 33 11 32
3 34 35 12
3 36 35 34
3 36 14 35
3 37 38 7
3 184 38 185
3 186 185 37
3 184 185 186
3 188 187 38
3 39 40 15
3 41 40 39
3 41 189 191
3 191 190 40
3 189 190 191
3 192 18 193
3 194 42 195
3 196 195 18
3 194 195 196
3 43 197 199
3 197 42 198
3 197 198 199
3 43 19 42
3 200 44 201
3 45 202 204
3 202 44 203
3 202 203 204
3 45 20 44
3 45 46 20
3 205 46 206
3 207 206 45
3 205 206 207
3 208 21 209
3 210 209 46
3 208 209 210
3 211 22 212
3 214 213 22
3 215 23 216
3 217 24 218
3 219 47 220
3 221 220 24
3 219 220 221
3 222 47 223
3 225 224 47
3 48 49 17
3 50 49 48
3 50 25 49
3 51 52 10
3 53 52 51
3 53 26 52
3 53 226 228
3 228 227 26
3 226 227 228
3 54 229 231
3 231 230 53
3 229 230 231
3 54 232 233
3 55 56 13
3 57 56 55
3 57 27 56
3 234 58 235
3 236 235 16
3 234 235 236
3 237 58 238
3 240 239 58
3 59 60 2
3 61 60 59
3 61 7 60
3 29 61 6
3 62 61 29
3 62 7 61
3 62 37 7
3 63 37 62
3 63 241 243
3 243 242 37
3 241 242 243
3 64 65 4
3 66 65 64
3 66 10 65
3 32 66 9
3 67 66 32
3 67 10 66
3 67 51 10
3 68 51 67
3 68 5 51
3 245 244 3
3 69 70 1
3 71 70 69
3 71 13 70
3 35 71 12
3 72 71 35
3 72 13 71
3 72 55 13
3 73 55 72
3 73 3 55
3 60 36 2
3 74 36 60
3 74 14 36
3 38 74 7
3 75 74 38
3 75 14 74
3 75 73 14
3 76 73 75
3 76 3 73
3 76 246 248
3 248 247 3
3 246 247 248
3 250 249 76
3 77 78 0
3 79 78 77
3 79 16 78
3 40 79 15
3 80 79 40
3 80 16 79
3 80 251 253
3 253 252 16
3 251 252 253
3 255 254 80
3 256 41 257
3 258 41 259
3 261 260 41
3 262 17 263
3 81 264 265
3 81 266 268
3 266 17 267
3 266 267 268
3 81 48 17
3 82 48 81
3 82 4 48
3 269 82 270
3 83 271 273
3 271 82 272
3 271 272 273
3 83 4 82
3 83 64 4
3 84 64 83
3 84 9 64
3 42 84 18
3 85 84 42
3 85 9 84
3 85 31 9
3 86 31 85
3 86 1 31
3 274 43 275
3 87 276 278
3 276 43 277
3 276 277 278
3 87 19 43
3 44 279 281
3 279 87 280
3 279 280 281
3 88 87 44
3 88 19 87
3 88 86 19
3 89 86 88
3 89 1 86
3 89 69 1
3 90 69 89
3 90 12 69
3 46 90 20
3 91 90 46
3 91 12 90
3 91 34 12
3 92 34 91
3 92 2 34
3 282 21 283
3 93 284 285
3 93 286 288
3 286 21 287
3 286 287 288
3 93 92 21
3 94 92 93
3 94 2 92
3 94 59 2
3 95 59 94
3 95 6 59
3 289 95 290
3 291 290 22
3 289 290 291
3 96 292 294
3 292 95 293
3 292 293 294
3 96 6 95
3 96 28 6
3 97 28 96
3 97 0 28
3 295 23 296
3 98 297 298
3 98 299 301
3 299 23 300
3 299 300 301
3 98 97 23
3 99 97 98
3 99 0 97
3 99 77 0
3 100 77 99
3 100 15 77
3 47 100 24
3 101 100 47
3 101 15 100
3 101 39 15
3 302 39 303
3 304 303 101
3 302 303 304
3 306 305 39
3 49 307 309
3 309 308 17
3 307 308 309
3 102 310 312
3 312 311 49
3 310 311 312
3 102 313 314
3 102 315 316
3 103 317 319
3 319 318 102
3 317 318 319
3 103 320 321
3 65 50 4
3 104 50 65
3 104 25 50
3 52 104 10
3 105 104 52
3 105 25 104
3 105 103 25
3 106 103 105
3 106 322 324
3 324 323 103
3 322 323 324
3 106 325 326
3 328 327 106
3 330 329 26
3 70 33 1
3 107 33 70
3 107 11 33
3 56 107 13
3 108 107 56
3 108 11 107
3 108 68 11
3 109 68 108
3 109 5 68
3 331 57 332
3 333 332 3
3 331 332 333
3 110 334 336
3 334 57 335
3 334 335 336
3 110 27 57
3 337 110 338
3 111 339 341
3 339 110 340
3 339 340 341
3 111 27 110
3 111 109 27
3 112 109 111
3 112 5 109
3 112 54 5
3 342 54 343
3 344 343 112
3 342 343 344
3 346 345 54
3 78 30 0
3 113 30 78
3 113 8 30
3 58 113 16
3 114 113 58
3 114 8 113
3 114 63 8
3 347 63 348
3 349 348 114
3 347 348 349
3 351 350 63
