ply
format ascii 1.0
element vertex 245
property float x
property float y
property float z
element face 251
property list uchar int vertex_index
end_header
-45.323082 32.182762 -14.949312
-34.472031 37.758102 -8.783775
-38.765556 26.594391 -9.807171
-36.068935 32.369541 -4.303487
-44.477356 27.619999 -12.765176
-42.159233 25.035084 -14.336782
-42.509686 29.083441 -14.484648
-47.24128 33.906445 -12.700418
-43.210175 30.338486 -10.747808
-36.752209 28.824713 -5.714358
-44.134865 37.753761 -14.987966
-40.209373 35.325615 -12.833876
-38.831062 40.85004 -12.557719
-46.858437 36.518044 -12.18423
-31.262939 27.295094 -8.81093
-28.757776 24.435043 -11.297239
-36.741375 24.894726 -13.026976
-36.17112 31.583578 -10.90618
-29.945578 30.731678 -1.253584
-30.228006 28.935522 -4.943326
-45.46386 29.797907 -14.054482
-44.371277 28.127171 -14.171587
-44.013969 30.714975 -14.974091
-46.514294 33.150536 -14.1253
-45.754948 32.136406 -12.314406
-46.053185 30.723591 -13.307816
-44.353191 28.783808 -11.777522
-44.028084 40.669289 -14.425482
-41.586964 39.453941 -14.233284
-44.998356 39.975689 -13.328972
-45.797123 37.602909 -14.074582
-35.169659 27.302933 -9.31412
-34.453503 26.200277 -10.91053
-38.315723 25.763042 -11.62885
-40.695412 25.674809 -15.612551
-37.443451 36.46347 -10.497736
-38.584461 33.246685 -11.153101
-35.351707 34.660103 -9.031426
-39.400768 32.742027 -6.199633
-32.820755 31.786463 -2.342454
-37.653996 27.696514 -7.616437
-33.307888 29.030628 -4.912859
-34.168633 28.143723 -7.148751
-30.610168 28.201603 -6.916121
-42.209778 26.36315 -11.048491
-41.825378 25.222233 -12.352244
-43.827316 26.007818 -13.314931
-42.830009 26.672924 -14.526462
-40.259686 27.732168 -14.49346
-47.571606 34.150124 -10.751265
-45.343246 33.391705 -10.670952
-42.530205 32.175777 -9.637863
-39.640297 31.002645 -7.635251
-36.325066 30.679693 -5.185096
-40.348976 29.149731 -8.311638
-41.306236 27.742594 -9.425413
-44.547043 34.935707 -15.06917
-42.633263 33.712257 -14.945142
-41.903362 36.633293 -14.367549
-39.315266 38.176201 -12.567233
-36.39616 39.354618 -11.111605
-47.807529 35.337452 -12.613446
-46.365292 35.349476 -14.131479
-27.869654 26.047943 -7.926487
-27.022171 24.347372 -8.991604
-30.093405 25.993475 -10.195572
-32.710976 25.084444 -12.23471
-40.126453 24.542505 -13.765753
-41.500206 32.109596 -13.713641
-39.594643 30.174057 -12.680838
-27.770483 29.025396 -0.685568
-32.865288 30.256306 -3.337365
-29.956522 29.780407 -3.022646
-27.634848 28.279779 -2.600576
-27.681686 27.536602 -4.318985
-27.768543 26.791336 -6.118112
-42.785906 41.458435 -14.100316
-43.710241 41.919943 -13.816814
-44.195377 41.573143 -13.268559
-44.356032 40.976757 -12.492337
-43.710241 41.919943 -13.816814
-44.51322 40.322489 -13.877227
-44.195377 41.573143 -13.268559
-39.583233 25.340988 -16.390579
-39.347061 26.32111 -15.767387
-36.152561 32.80517 -3.417445
-37.818478 32.991413 -4.365518
-37.734852 32.555784 -5.25156
-34.505808 32.587177 -2.554336
-36.152561 32.80517 -3.417445
-34.444845 32.078002 -3.32297
-32.881718 32.295638 -1.573819
-34.505808 32.587177 -2.554336
-47.141022 36.355347 -10.891016
-45.890397 37.179448 -11.819335
-47.567795 35.814789 -11.350718
-47.141022 36.355347 -10.891016
-47.332983 35.927748 -12.398838
-48.042341 35.224493 -11.565326
-47.567795 35.814789 -11.350718
-35.532873 24.388247 -13.600869
-33.517674 24.483106 -13.204735
-34.726175 24.989585 -12.630843
-36.604292 30.275424 -12.2332
-38.316053 29.570664 -13.120528
-37.882881 30.878818 -11.793509
-28.965367 30.183194 0.029542
-30.017887 31.183563 -0.349413
-28.85803 29.878537 -0.969576
-27.87782 29.330053 0.31355
-28.965367 30.183194 0.029542
-27.472997 23.283462 -10.062269
-26.605194 23.239627 -8.909451
-27.889973 24.391208 -10.144421
-41.565346 40.850761 -14.004217
-42.807524 40.061615 -14.329383
-42.785906 41.458435 -14.100316
-40.187395 41.548811 -13.166434
-40.209013 40.15199 -13.395501
-41.565346 40.850761 -14.004217
-44.960356 38.90827 -12.391706
-44.318032 39.909338 -11.55507
-44.356032 40.976757 -12.492337
-45.928397 38.246867 -12.756601
-45.890397 37.179448 -11.819335
-44.960356 38.90827 -12.391706
-40.319809 24.934902 -15.680625
-41.05172 24.61504 -15.042741
-41.427323 25.354947 -14.974666
-40.319809 24.934902 -15.680625
-39.583233 25.340988 -16.390579
-39.417488 33.073279 -5.132622
-40.865072 33.01177 -6.860493
-39.417488 33.073279 -5.132622
-37.818478 32.991413 -4.365518
-31.455475 31.710956 -0.893848
-32.881718 32.295638 -1.573819
-31.383167 31.25907 -1.798019
-30.017887 31.183563 -0.349413
-31.455475 31.710956 -0.893848
-27.84566 23.57409 -11.298261
-29.714009 24.103972 -12.328073
-39.129199 27.349789 -15.207842
-39.347061 26.32111 -15.767387
-40.477549 26.703488 -15.053006
-33.18963 36.998477 -8.201588
-32.822983 38.363529 -8.654905
-46.318771 33.973492 -9.476337
-47.372789 34.104181 -9.608698
-45.204591 33.594283 -9.436181
-46.318771 33.973492 -9.476337
-46.457426 33.770915 -10.711108
-43.836311 33.336609 -9.096152
-45.204591 33.594283 -9.436181
-42.429791 32.728645 -8.579607
-43.836311 33.336609 -9.096152
-43.936726 32.783741 -10.154407
-40.965486 32.458902 -7.918748
-40.865072 33.01177 -6.860493
-42.429791 32.728645 -8.579607
-38.643379 42.253082 -12.476795
-40.187395 41.548811 -13.166434
-37.274625 41.462499 -11.942773
-38.643379 42.253082 -12.476795
-36.057175 40.714788 -11.219715
-37.613611 40.102329 -11.834662
-37.274625 41.462499 -11.942773
-34.872523 39.928459 -10.572903
-36.057175 40.714788 -11.219715
-33.910458 39.130201 -9.408988
-35.434095 38.55636 -9.94769
-34.872523 39.928459 -10.572903
-32.822983 38.363529 -8.654905
-33.910458 39.130201 -9.408988
-47.92438 34.630829 -10.634235
-47.372789 34.104181 -9.608698
-47.689568 34.743788 -11.682355
-47.92438 34.630829 -10.634235
-48.042341 35.224493 -11.565326
-27.445912 25.197657 -8.459046
-26.733238 23.861275 -7.67837
-27.156979 24.71156 -7.145811
-31.690609 24.428672 -12.796809
-29.714009 24.103972 -12.328073
-30.734376 24.759743 -11.765974
-31.690609 24.428672 -12.796809
-33.517674 24.483106 -13.204735
-40.03533 24.36875 -14.757226
-41.142843 24.788795 -14.051267
-41.05172 24.61504 -15.042741
-38.898529 24.154038 -14.370264
-40.03533 24.36875 -14.757226
-37.20599 24.330148 -14.000875
-38.433914 24.718615 -13.396365
-38.898529 24.154038 -14.370264
-35.532873 24.388247 -13.600869
-37.20599 24.330148 -14.000875
-38.648575 28.349719 -14.02684
-39.927165 28.953113 -13.587149
-38.316053 29.570664 -13.120528
-39.129199 27.349789 -15.207842
-38.648575 28.349719 -14.02684
-33.629469 35.449478 -8.325413
-34.911869 36.209103 -8.907601
-33.18963 36.998477 -8.201588
-34.007891 34.006714 -8.996676
-33.629469 35.449478 -8.325413
-34.417597 32.468452 -9.934054
-35.761414 33.12184 -9.968803
-34.007891 34.006714 -8.996676
-34.834193 31.278013 -11.411614
-34.417597 32.468452 -9.934054
-36.604292 30.275424 -12.2332
-34.834193 31.278013 -11.411614
-27.532768 27.88986 0.524936
-27.640105 28.194517 1.524054
-27.87782 29.330053 0.31355
-27.476293 27.632302 -0.405405
-27.532768 27.88986 0.524936
-27.408476 27.259494 -1.36291
-27.476293 27.632302 -0.405405
-27.702666 28.652588 -1.643072
-27.328 26.933565 -2.162933
-27.408476 27.259494 -1.36291
-27.351419 26.561977 -3.022137
-27.328 26.933565 -2.162933
-27.658267 27.90819 -3.45978
-27.274915 26.170581 -3.802722
-27.351419 26.561977 -3.022137
-27.318344 25.797948 -4.702286
-27.274915 26.170581 -3.802722
-27.725115 27.163969 -5.218548
-27.226566 25.444814 -5.464866
-27.318344 25.797948 -4.702286
-27.277121 25.073117 -6.369054
-27.226566 25.444814 -5.464866
-27.819099 26.41964 -7.022299
-27.156979 24.71156 -7.145811
-27.277121 25.073117 -6.369054
-26.896187 22.613096 -7.603324
-26.733238 23.861275 -7.67837
-26.896187 22.613096 -7.603324
-26.605194 23.239627 -8.909451
-27.472997 23.283462 -10.062269
-27.84566 23.57409 -11.298261
3 0 22 20
3 0 25 23
3 0 20 25
3 77 76 27
3 78 29 79
3 80 27 81
3 82 81 29
3 80 81 82
3 2 33 31
3 84 83 34
3 1 37 35
3 3 85 87
3 87 86 38
3 85 86 87
3 3 88 89
3 3 90 92
3 90 39 91
3 90 91 92
3 2 42 40
3 2 31 42
3 4 46 44
3 6 47 21
3 6 48 47
3 7 50 49
3 8 51 24
3 8 52 51
3 8 54 52
3 4 55 26
3 4 44 55
3 10 58 56
3 12 59 28
3 12 60 59
3 13 93 94
3 13 95 96
3 13 97 99
3 97 61 98
3 97 98 99
3 10 62 30
3 10 56 62
3 14 65 63
3 16 66 32
3 16 100 102
3 102 101 66
3 100 101 102
3 5 67 45
3 11 68 57
3 17 69 36
3 17 103 105
3 105 104 69
3 103 104 105
3 18 106 107
3 18 108 110
3 108 70 109
3 108 109 110
3 9 71 53
3 19 72 41
3 19 73 72
3 19 74 73
3 14 75 43
3 14 63 75
3 15 111 113
3 113 112 64
3 111 112 113
3 20 21 4
3 22 21 20
3 22 6 21
3 23 24 7
3 25 24 23
3 25 8 24
3 25 26 8
3 20 26 25
3 20 4 26
3 27 28 10
3 114 28 115
3 116 115 27
3 114 115 116
3 117 12 118
3 119 118 28
3 117 118 119
3 29 120 122
3 120 121 122
3 29 123 125
3 123 13 124
3 123 124 125
3 29 30 13
3 27 30 29
3 27 10 30
3 31 32 14
3 33 32 31
3 33 16 32
3 34 126 128
3 128 127 5
3 126 127 128
3 130 129 34
3 35 36 11
3 37 36 35
3 37 17 36
3 38 131 132
3 134 133 38
3 39 135 136
3 39 137 139
3 137 18 138
3 137 138 139
3 40 41 9
3 42 41 40
3 42 19 41
3 42 43 19
3 31 43 42
3 31 14 43
3 141 140 15
3 44 45 2
3 46 45 44
3 46 5 45
3 21 46 4
3 47 46 21
3 47 5 46
3 47 34 5
3 48 34 47
3 48 142 144
3 144 143 34
3 142 143 144
3 146 145 1
3 49 147 148
3 50 149 151
3 151 150 49
3 149 150 151
3 50 152 153
3 24 50 7
3 51 50 24
3 51 154 156
3 156 155 50
3 154 155 156
3 51 157 159
3 157 38 158
3 157 158 159
3 52 38 51
3 52 3 38
3 52 53 3
3 54 53 52
3 54 9 53
3 26 54 8
3 55 54 26
3 55 9 54
3 55 40 9
3 44 40 55
3 44 2 40
3 56 57 0
3 58 57 56
3 58 11 57
3 28 58 10
3 59 58 28
3 59 11 58
3 59 35 11
3 60 35 59
3 60 1 35
3 160 12 161
3 162 12 163
3 164 60 165
3 166 165 12
3 164 165 166
3 167 60 168
3 169 1 170
3 171 170 60
3 169 170 171
3 173 172 1
3 174 49 175
3 61 176 178
3 176 49 177
3 176 177 178
3 61 7 49
3 30 61 13
3 62 61 30
3 62 7 61
3 62 23 7
3 56 23 62
3 56 0 23
3 63 179 181
3 179 64 180
3 179 180 181
3 65 64 63
3 65 15 64
3 32 65 14
3 66 65 32
3 66 15 65
3 66 182 184
3 184 183 15
3 182 183 184
3 186 185 66
3 45 33 2
3 67 33 45
3 67 16 33
3 187 67 188
3 189 188 5
3 187 188 189
3 190 67 191
3 192 16 193
3 194 193 67
3 192 193 194
3 196 195 16
3 57 22 0
3 68 22 57
3 68 6 22
3 36 68 11
3 69 68 36
3 69 6 68
3 69 48 6
3 197 48 198
3 199 198 69
3 197 198 199
3 201 200 48
3 202 37 203
3 204 203 1
3 202 203 204
3 205 37 206
3 207 17 208
3 209 208 37
3 207 208 209
3 210 17 211
3 213 212 17
3 70 214 216
3 214 215 216
3 70 217 218
3 53 39 3
3 71 39 53
3 71 18 39
3 41 71 9
3 72 71 41
3 72 18 71
3 72 70 18
3 73 70 72
3 73 219 221
3 221 220 70
3 219 220 221
3 73 222 223
3 74 224 226
3 226 225 73
3 224 225 226
3 74 227 228
3 43 74 19
3 75 74 43
3 75 229 231
3 231 230 74
3 229 230 231
3 75 232 233
3 63 234 236
3 236 235 75
3 234 235 236
3 63 237 238
3 64 239 240
3 242 241 64
3 244 243 15
