ply
format ascii 1.0
element vertex 731
property float x
property float y
property float z
element face 864
property list uchar int vertex_index
end_header
-26.444305 23.375177 -6.365135
-36.091507 -2.930036 -6.492784
-34.381817 4.471898 -15.267891
-36.810722 -5.485922 6.320035
-34.865906 13.343363 -3.471344
-36.78553 1.801648 -11.076767
-30.417679 14.512476 -8.384148
-34.209633 -8.042219 11.603786
-32.317677 7.934532 12.944147
-30.404583 10.956021 8.175913
-33.076141 -22.157825 17.878031
-40.085468 -11.920057 -14.369019
-27.182104 26.239208 -0.125243
-32.940426 -21.740784 8.837976
-34.890682 -19.819159 0.495686
-36.40461 -16.617191 -7.268318
-36.934715 -4.373636 -0.121744
-31.701336 12.843508 1.615878
-30.023426 4.519989 -14.180147
-31.609243 19.581524 -3.966733
-34.822395 15.054723 -6.423547
-27.763767 18.525629 -6.382677
-34.226788 -30.376148 13.110959
-36.695454 -8.588753 -10.953904
-37.639515 -6.146729 -13.872488
-36.099998 3.60428 -13.531012
-38.199974 -0.866872 -19.477589
-36.962593 1.646258 -21.070148
-34.659615 2.572815 -21.598928
-34.861984 -15.754938 18.420448
-32.875977 -22.751118 13.06073
-34.734039 -16.097321 14.659225
-35.76368 -6.611509 9.029647
-38.222031 -14.48983 7.981522
-38.631573 -13.213278 4.319129
-35.717995 -18.802029 -3.622206
-37.612499 -11.757548 0.440722
-36.086479 -11.209089 -3.603694
-37.210438 -4.776818 3.397486
-28.6297 18.77709 8.60775
-30.894476 11.873193 4.825542
-29.160114 20.02914 5.247516
-30.33407 20.648195 2.261514
-25.447348 10.483641 -16.960682
-37.423225 4.105564 -4.00471
-36.621014 -0.359848 -8.811296
-36.342812 7.089031 -6.395957
-35.04895 9.247078 -8.952902
-32.854126 9.871896 -11.853478
-34.008614 -8.96401 14.659782
-33.06356 0.917299 9.899291
-33.599327 1.752753 7.011504
-30.803341 9.540387 11.007406
-31.520218 -27.708576 17.505386
-38.186653 -3.579605 -16.911594
-26.868145 24.80456 -3.286459
-30.892542 -27.757711 12.238621
-32.296059 -27.280392 7.251402
-34.497173 -26.671783 2.82161
-36.188629 -15.61233 11.244552
-33.550827 -20.222698 4.819011
-37.307831 -25.566935 -1.431922
-39.588528 -23.450315 -5.161836
-41.343334 -20.208755 -8.435099
-37.967983 -14.623441 -10.942823
-35.714211 -10.104431 -7.384538
-36.47205 -3.76503 -3.34817
-34.36805 2.462118 4.267208
-35.389198 2.859625 1.555159
-36.849705 3.751213 -1.151515
-33.301704 13.494565 -0.905748
-31.094376 20.259342 -0.970658
-26.004246 20.551632 -11.189358
-26.785528 15.809687 -11.500068
-30.147959 11.254934 -13.68149
-27.585236 11.308327 -15.571968
-32.066845 4.930824 -14.944647
-33.681053 0.858237 -19.13677
-28.172918 21.086002 -4.394076
-29.71052 18.998594 -4.957263
-26.770203 20.87882 -6.215044
-36.043304 -6.072274 -8.664942
-37.247719 -7.369308 -12.464964
-36.630524 -4.77003 -9.956497
-35.34481 4.222608 -14.572965
-36.718399 2.032591 -17.064251
-35.888477 2.853729 -17.779413
-35.823349 2.434414 -21.347569
-34.781231 3.19639 -17.997372
-34.516853 -15.985123 16.542927
-34.074547 -12.746958 16.645569
-36.239349 -6.13446 7.66053
-35.789089 -11.084443 5.842976
-36.59798 -10.282592 4.327628
-38.299721 -12.411145 2.493505
-36.949646 -9.314089 3.002653
-37.157154 -8.861808 1.438279
-37.10215 -5.057897 4.938168
-28.181568 22.822336 8.455286
-28.745117 19.522381 6.928493
-27.939337 23.397095 6.562811
-28.046951 23.669071 4.808972
-35.297775 8.592668 -3.607187
-37.030167 5.721612 -5.168526
-35.414452 10.153711 -4.84393
-32.574879 14.711931 -7.150812
-35.02607 12.266691 -7.703411
-33.412388 12.382952 -8.732103
-33.938385 9.583264 -10.29333
-31.848038 12.343825 -10.209639
-32.965378 0.312925 11.604279
-32.244331 4.73174 11.639552
-32.054688 5.530819 10.453857
-31.410427 8.692974 12.043272
-36.808624 0.803752 -10.001955
-37.271347 -2.602331 -12.483447
-37.418282 -1.49001 -13.782657
-32.063454 -25.165524 17.53406
-30.865351 -27.769342 14.999941
-31.583424 -25.355734 15.049037
-32.900932 -22.40897 10.830622
-31.445705 -25.139215 9.845382
-31.839041 -24.78809 7.446711
-33.276836 -26.940699 5.024437
-32.397469 -24.373413 5.253131
-33.829235 -8.584047 13.154577
-33.370716 -12.668909 12.697218
-33.782532 -12.545954 10.832323
-36.348518 -16.200035 5.536738
-36.266582 -16.968445 7.327183
-34.211464 -19.846798 2.655001
-34.287437 -23.774368 0.91183
-35.474583 -23.421022 -1.17001
-38.528526 -24.70883 -3.39005
-36.328957 -22.841436 -3.145055
-36.050068 -17.760553 -5.465524
-37.841221 -20.554869 -6.81714
-38.508507 -19.004089 -8.431287
-42.128475 -18.373552 -10.004319
-39.127903 -17.423685 -10.001559
-40.204777 -15.89465 -11.647917
-37.086731 -15.684082 -9.105848
-36.968906 -8.122378 -2.107708
-35.762566 -10.718926 -5.585746
-36.379868 -7.686641 -3.767807
-35.90583 -7.207227 -5.350854
-36.767941 -4.129139 -1.757521
-32.18071 6.790795 7.73715
-33.951458 2.263076 5.675557
-32.506992 7.135816 6.293675
-31.256702 12.177058 3.209529
-33.283146 7.693484 3.248222
-33.551567 7.960127 1.799433
-35.999027 3.16901 0.089537
-33.955269 8.25603 0.396518
-34.349354 8.364345 -1.016913
-32.345745 13.310491 0.23828
-28.426706 23.383429 1.32175
-30.779535 20.534369 0.633662
-28.564188 23.003479 -0.283455
-28.733829 22.519659 -1.771686
-27.021152 25.587351 -1.72529
-25.573898 16.249443 -13.46604
-28.451574 13.462453 -12.498219
-26.969467 13.743917 -13.728473
-27.75852 7.786582 -15.075337
-26.496296 10.926458 -16.373947
-28.851749 8.143651 -15.083035
-29.984182 8.281908 -14.872025
-31.041143 4.652317 -14.620044
-33.017506 2.39328 -16.360798
-32.23629 1.834164 -15.382051
-34.160576 17.125362 -3.458904
-35.545662 14.612967 -4.913159
-33.247887 17.563839 -5.079579
-31.323343 16.876949 -5.882339
-29.14187 16.425503 -7.172811
-38.013115 -10.657508 -13.084729
-40.747169 -10.207156 -15.971769
-38.605175 -9.233208 -14.577664
-39.099709 -7.761 -16.201221
-39.477566 -6.285153 -17.838856
-36.634632 2.671155 -12.364515
-37.532665 -0.423653 -15.155462
-37.294975 0.803892 -16.167616
-37.767864 0.515345 -20.402657
-34.064552 -18.934492 18.23381
-32.795628 -22.661257 15.46652
-33.8862 -19.348656 15.990341
-34.306877 -19.466305 13.904245
-34.863037 -19.351147 12.049282
-34.970325 -7.307487 10.290475
-34.509071 -12.24624 9.027897
-35.091152 -11.764132 7.383189
-38.725166 -13.751348 6.260271
-36.236919 -15.669538 3.532392
-35.377357 -19.500027 -1.616225
-36.050793 -15.410561 1.081668
-35.967205 -15.187449 -1.23373
-35.816288 -14.504087 -3.27152
-35.743446 -14.054937 -5.373675
-36.760719 -11.537434 -1.603379
-37.389565 -8.510837 -0.352297
-37.114372 -4.616525 1.557486
-29.198528 14.946322 8.454523
-30.543921 11.479023 6.498592
-29.365585 15.511177 6.732741
-29.766876 16.045286 5.037679
-30.404215 16.610628 3.44329
-31.265442 17.107866 2.146174
-29.739511 20.427494 3.794633
-28.203136 23.739521 3.02303
-27.295053 26.754324 1.73544
-31.268301 1.513981 -14.434616
-36.809265 0.754985 -4.675757
-36.3111 -1.676881 -7.694905
-36.87851 2.001478 -5.915911
-37.025204 3.382442 -7.156183
-36.724937 4.415608 -8.443945
-35.788666 11.523282 -6.33019
-35.805553 8.322611 -7.657725
-36.176338 5.472198 -9.616179
-35.422367 6.216498 -10.911054
-34.536572 6.755301 -12.19997
-33.546165 7.047961 -13.395567
-34.816017 -9.336958 15.953959
-34.92411 -4.443068 14.205063
-34.850571 -3.821271 12.898722
-34.868156 -3.320365 11.463022
-35.057476 -2.911947 9.858788
-35.418388 -2.429796 8.305456
-36.049526 -2.203202 7.081175
-33.336433 1.466554 8.454718
-32.061119 6.120267 9.137616
-30.447735 10.337905 9.662359
-29.97636 13.471387 11.405928
-29.387201 14.318192 10.027934
-28.833241 18.059526 10.231672
-28.737652 21.899744 10.117361
-32.934063 -25.450235 19.138874
-33.672844 -22.38583 19.512714
-34.684895 -19.204454 19.712358
-37.065655 -3.639323 -11.252747
-37.947563 -4.831496 -15.283139
-39.636242 -4.761228 -19.43573
-38.324707 -2.309489 -18.310131
-39.756584 -3.038025 -20.988951
-26.684589 24.098291 -4.811621
-31.356451 -30.000784 15.101544
-31.95747 -29.637585 12.544241
-32.946217 -29.170918 10.244653
-31.3883 -25.363152 12.410926
-31.436975 -27.543934 9.665741
-34.051517 -28.644236 8.04442
-35.233177 -28.213955 5.967149
-36.673592 -27.743109 3.937098
-38.310547 -27.198727 1.824679
-33.522114 -12.777261 14.697629
-35.357056 -16.004009 12.866348
-35.488415 -18.766592 10.394528
-37.387993 -15.190674 9.685885
-35.936153 -17.867796 8.910967
-33.163048 -20.86932 6.926554
-33.268505 -24.082708 3.005554
-35.938236 -26.171896 0.701541
-37.110752 -21.836304 -5.068833
-40.486061 -21.912796 -6.816893
-41.439156 -14.191546 -13.24122
-38.948311 -13.349658 -12.61036
-35.94838 -13.375789 -7.449986
-36.38842 -12.603483 -9.436124
-37.118416 -11.662386 -11.341629
-36.066792 -9.411839 -9.245809
-35.724346 -6.624146 -7.042436
-36.187431 -3.373466 -4.971473
-36.498623 -1.895558 5.66924
-37.111023 -1.513603 4.278684
-37.59063 -1.151135 2.752782
-32.922585 7.402808 4.835887
-34.922405 2.553436 2.926897
-38.019726 -0.879445 1.209986
-38.116116 -0.473007 -0.322106
-37.774437 0.022357 -1.719148
-37.394722 0.573228 -3.174221
-37.27211 4.038823 -2.464278
-34.90081 8.442143 -2.316904
-34.232117 13.552118 -2.1317
-32.209 17.448647 0.928214
-33.204617 17.551172 -0.461734
-33.794594 17.451574 -1.899302
-31.45463 20.091011 -2.490151
-28.597759 21.906626 -3.145816
-26.188217 22.131882 -8.827299
-26.344929 19.586624 -8.611441
-27.147406 17.41362 -8.9923
-25.885529 18.232632 -11.136911
-28.459126 15.281065 -9.817978
-30.023432 13.071123 -11.273462
-31.551291 10.668279 -12.822418
-32.35421 7.891 -13.939871
-25.797018 13.778433 -15.338667
-28.868662 11.35272 -14.605962
-31.186829 8.326228 -14.443295
-33.217804 4.83752 -15.178785
-33.907448 2.898973 -17.341127
-33.893452 2.010763 -20.549124
-35.025863 -11.21565 16.758198
-34.574875 -12.608628 17.429641
-28.106685 24.901541 7.045429
-28.060452 23.109716 7.509048
-28.227801 24.614162 7.991666
-27.825967 25.209882 6.090581
-28.106685 24.901541 7.045429
-32.555172 5.804989 12.854304
-32.921563 7.365113 13.264139
-32.281004 6.333136 12.291849
-32.518499 4.203594 12.202006
-32.555172 5.804989 12.854304
-41.752211 -11.07434 -15.306893
-41.37047 -12.158601 -14.55839
-25.315668 16.392157 -14.63322
-25.726816 17.535966 -14.745197
-26.013452 15.139394 -14.764436
-26.271683 14.99668 -13.597257
-25.315668 16.392157 -14.63322
-35.702088 -29.895947 12.647539
-35.011605 -30.737879 13.215861
-34.743551 -29.762456 12.240334
-35.702088 -29.895947 12.647539
-37.547835 1.58878 -22.643251
-37.95047 1.023324 -22.309506
-37.365229 1.080801 -20.736403
-36.933254 1.964425 -22.870254
-37.547835 1.58878 -22.643251
-35.132264 2.640597 -23.317345
-35.71413 2.571396 -23.191665
-35.241482 2.503614 -21.473249
-34.469828 2.653166 -23.319913
-35.132264 2.640597 -23.317345
-27.811824 25.437484 3.307868
-28.125044 23.704296 3.916001
-27.733731 25.402259 4.200839
-27.357782 26.944885 2.664073
-27.749094 25.246923 2.379235
-27.811824 25.437484 3.307868
-35.051479 -2.95704 14.945994
-35.122732 -4.784244 14.830921
-34.081242 -2.049934 12.974169
-34.43253 -2.350361 13.689961
-34.090035 -1.799481 12.256319
-34.859364 -3.570818 12.180872
-34.081242 -2.049934 12.974169
-29.742935 15.358821 11.517962
-30.317132 14.859905 12.004911
-29.448355 15.782224 10.828965
-29.681781 13.894789 10.716931
-29.742935 15.358821 11.517962
-29.171375 17.652891 10.930834
-29.110221 16.188859 10.129803
-29.448355 15.782224 10.828965
-29.441983 23.110214 10.336323
-29.155855 21.434363 10.826992
-28.906731 23.67409 9.639532
-29.441983 23.110214 10.336323
-33.899231 -24.115139 19.830361
-33.572373 -25.643242 19.667676
-34.268621 -22.582936 20.01728
-33.303454 -23.918032 19.325794
-33.899231 -24.115139 19.830361
-35.791092 -17.778389 20.148806
-35.290777 -19.404085 20.207186
-35.200247 -17.59837 19.724318
-35.791092 -17.778389 20.148806
-42.329435 -9.12756 -16.816496
-41.034967 -9.320419 -16.780659
-40.703812 -1.739424 -22.39392
-39.678636 -2.211467 -21.689464
-40.923988 -2.797004 -21.672822
-40.703812 -1.739424 -22.39392
-31.438334 -28.85468 16.303465
-31.442396 -30.052419 16.443978
-31.524279 -28.906315 17.645899
-38.604346 -26.023476 -0.877599
-37.919548 -26.325957 0.189132
-36.623034 -25.869416 -0.36519
-39.280254 -25.460933 -1.853035
-38.604346 -26.023476 -0.877599
-41.016137 -23.703475 -4.615754
-40.486136 -24.332732 -3.729862
-39.058527 -24.079572 -4.275943
-41.533447 -22.85308 -5.419683
-41.016137 -23.703475 -4.615754
-42.824812 -20.247589 -7.825195
-42.396175 -21.099609 -7.016093
-40.914698 -21.060775 -7.625996
-43.122788 -19.186521 -8.566221
-42.824812 -20.247589 -7.825195
-43.831194 -17.107672 -10.052809
-42.487505 -17.365569 -10.796705
-27.472997 23.283462 -10.062269
-26.605194 23.239627 -8.909451
-26.174588 20.069128 -9.900399
-26.639237 21.149881 -9.955362
-26.468895 21.632385 -11.244321
-26.335528 17.021159 -11.31849
-25.665499 18.513208 -12.329845
-26.115499 17.301735 -12.511423
-25.240975 11.646414 -18.059407
-24.850568 11.318269 -18.496677
-26.356225 12.441107 -16.473376
-25.811755 12.250172 -16.874365
-27.040766 11.117393 -15.972957
-26.691127 12.54338 -15.455317
-25.462116 13.67616 -16.356725
-26.356225 12.441107 -16.473376
-33.555082 1.353203 -21.453825
-33.661282 1.929466 -22.160002
-33.787253 1.4345 -19.842947
-32.2613 0.732275 -15.957131
-31.930633 0.351656 -15.371035
-33.605654 -30.887738 14.173239
-35.011605 -30.737879 13.215861
-34.796028 -14.22771 17.37832
-34.689419 -15.87003 17.481687
-34.968593 -14.112617 18.31708
-34.2957 -14.366041 16.594248
-34.796028 -14.22771 17.37832
-34.574875 -12.608628 17.429641
-27.879774 25.34587 5.213661
-27.993144 23.533083 5.685892
-27.825967 25.209882 6.090581
-27.733731 25.402259 4.200839
-27.879774 25.34587 5.213661
-32.879023 1.994186 12.184369
-33.138645 0.017164 12.326947
-32.604855 2.522333 11.621916
-32.879023 1.994186 12.184369
-32.518499 4.203594 12.202006
-38.900332 -1.12589 -20.933783
-38.619005 -0.299864 -21.455154
-40.987219 -16.890636 -10.795324
-42.487505 -17.365569 -10.796705
-40.628189 -17.898618 -10.002939
-39.66634 -16.659167 -10.824738
-41.525656 -16.126118 -11.618503
-40.987219 -16.890636 -10.795324
-27.153894 21.510106 -12.376265
-26.468895 21.632385 -11.244321
-25.509684 17.521613 -13.494409
-25.726816 17.535966 -14.745197
-26.179713 16.029565 -12.483054
-26.115499 17.301735 -12.511423
-25.509684 17.521613 -13.494409
-32.845747 9.24545 13.169791
-32.921563 7.365113 13.264139
-32.167145 9.743374 13.032867
-32.845747 9.24545 13.169791
-39.96397 -8.833445 -16.083606
-41.034967 -9.320419 -16.780659
-39.676172 -9.720182 -15.274717
-40.211237 -8.097341 -16.895384
-39.96397 -8.833445 -16.083606
-38.852442 -8.497104 -15.389443
-40.419353 -7.18463 -17.660025
-40.211237 -8.097341 -16.895384
-40.608282 -6.446706 -18.478843
-40.419353 -7.18463 -17.660025
-39.288638 -7.023077 -17.020038
-40.808893 -5.427185 -19.306052
-40.608282 -6.446706 -18.478843
-38.40295 0.391244 -21.917689
-38.619005 -0.299864 -21.455154
-37.983919 -0.175763 -19.940123
-38.40295 0.391244 -21.917689
-37.95047 1.023324 -22.309506
-36.363632 2.358503 -23.008964
-36.933254 1.964425 -22.870254
-36.392971 2.040336 -21.208858
-36.363632 2.358503 -23.008964
-35.71413 2.571396 -23.191665
-24.918947 10.311313 -17.148413
-24.850568 11.318269 -18.496677
-26.028669 9.059476 -15.989386
-24.918947 10.311313 -17.148413
-27.184255 7.710947 -15.046714
-26.602934 9.135112 -16.018009
-26.028669 9.059476 -15.989386
-28.353262 6.146117 -14.403565
-27.184255 7.710947 -15.046714
-29.485715 4.512821 -13.95597
-28.890973 6.153285 -14.627742
-28.353262 6.146117 -14.403565
-30.108153 3.009817 -14.083205
-30.645864 3.016985 -14.307381
-29.485715 4.512821 -13.95597
-30.764943 1.391367 -14.100759
-30.108153 3.009817 -14.083205
-31.930633 0.351656 -15.371035
-30.764943 1.391367 -14.100759
-36.080061 -7.843808 16.633247
-35.396598 -9.510651 16.412393
-35.430679 -7.566208 16.270477
-36.080061 -7.843808 16.633247
-35.026978 -7.379734 15.623389
-34.412316 -9.150484 15.30687
-35.430679 -7.566208 16.270477
-34.664984 -7.044714 15.05828
-35.026978 -7.379734 15.623389
-34.575294 -6.854733 14.305677
-33.918925 -8.774029 13.907179
-34.664984 -7.044714 15.05828
-34.376672 -6.513558 13.67982
-34.575294 -6.854733 14.305677
-35.122732 -4.784244 14.830921
-34.469299 -2.66126 14.343132
-35.051479 -2.95704 14.945994
-34.887341 -4.132169 13.551893
-34.469299 -2.66126 14.343132
-34.43253 -2.350361 13.689961
-33.916767 -1.50372 11.533651
-34.090035 -1.799481 12.256319
-33.138645 0.017164 12.326947
-31.71352 10.122595 12.58243
-31.864052 8.313753 12.493709
-32.167145 9.743374 13.032867
-31.138324 10.603143 12.232931
-31.71352 10.122595 12.58243
-30.834781 11.026849 11.714997
-31.106884 9.116681 11.525339
-31.138324 10.603143 12.232931
-30.421291 12.992349 11.914258
-30.317132 14.859905 12.004911
-30.389851 11.505887 11.206667
-30.834781 11.026849 11.714997
-30.421291 12.992349 11.914258
-29.203649 19.514254 10.884147
-29.171375 17.652891 10.930834
-28.785446 19.979635 10.174516
-29.203649 19.514254 10.884147
-29.155855 21.434363 10.826992
-28.628688 24.135385 8.808494
-28.45961 22.36104 9.286323
-28.906731 23.67409 9.639532
-28.227801 24.614162 7.991666
-28.628688 24.135385 8.808494
-31.98056 -27.930304 18.391159
-31.524279 -28.906315 17.645899
-32.687483 -26.801134 19.207903
-33.572373 -25.643242 19.667676
-32.227141 -26.579406 18.32213
-31.98056 -27.930304 18.391159
-32.687483 -26.801134 19.207903
-34.784752 -20.994773 20.107364
-34.268621 -22.582936 20.01728
-34.178869 -20.795142 19.612536
-34.784752 -20.994773 20.107364
-35.290777 -19.404085 20.207186
-34.890075 -17.463389 18.985045
-34.374724 -19.069473 18.973084
-35.200247 -17.59837 19.724318
-35.288792 -15.873613 19.078364
-34.463268 -17.344715 18.327129
-34.890075 -17.463389 18.985045
-35.554035 -14.286461 18.881363
-35.288792 -15.873613 19.078364
-34.968593 -14.112617 18.31708
-35.554035 -14.286461 18.881363
-42.083061 -10.217889 -16.108268
-41.752211 -11.07434 -15.306893
-40.416319 -11.063606 -15.170394
-42.083061 -10.217889 -16.108268
-42.329435 -9.12756 -16.816496
-40.888232 -4.665223 -20.104489
-40.808893 -5.427185 -19.306052
-39.556904 -5.523191 -18.637293
-38.962698 -1.847199 -20.350054
-38.26234 -1.58818 -18.89386
-38.900332 -1.12589 -20.933783
-39.040645 -2.673757 -19.649541
-38.962698 -1.847199 -20.350054
-39.678636 -2.211467 -21.689464
-40.863817 -3.658606 -20.896211
-39.696413 -3.899627 -20.21234
-40.923988 -2.797004 -21.672822
-40.888232 -4.665223 -20.104489
-40.863817 -3.658606 -20.896211
-26.733238 23.861275 -7.67837
-27.156979 24.71156 -7.145811
-27.640105 28.194517 1.524054
-27.357782 26.944885 2.664073
-27.532768 27.88986 0.524936
-27.640105 28.194517 1.524054
-27.476293 27.632302 -0.405405
-27.238578 26.496766 0.805099
-27.532768 27.88986 0.524936
-27.408476 27.259494 -1.36291
-27.476293 27.632302 -0.405405
-27.328 26.933565 -2.162933
-27.101628 25.91328 -0.925266
-27.408476 27.259494 -1.36291
-27.351419 26.561977 -3.022137
-27.328 26.933565 -2.162933
-27.274915 26.170581 -3.802722
-26.944648 25.195956 -2.505875
-27.351419 26.561977 -3.022137
-27.318344 25.797948 -4.702286
-27.274915 26.170581 -3.802722
-27.226566 25.444814 -5.464866
-26.776367 24.451425 -4.04904
-27.318344 25.797948 -4.702286
-27.277121 25.073117 -6.369054
-27.226566 25.444814 -5.464866
-27.156979 24.71156 -7.145811
-26.564447 23.736734 -5.588378
-27.277121 25.073117 -6.369054
-32.170485 -30.700056 15.168531
-31.442396 -30.052419 16.443978
-32.791619 -30.188466 14.106251
-33.605654 -30.887738 14.173239
-32.170485 -30.700056 15.168531
-33.608892 -29.393175 11.956975
-34.743551 -29.762456 12.240334
-33.092129 -30.006867 12.8276
-34.103266 -29.159841 10.807181
-33.608892 -29.393175 11.956975
-32.451843 -29.404252 11.394447
-34.645252 -28.601354 9.905192
-34.103266 -29.159841 10.807181
-35.197902 -28.338013 8.805075
-34.645252 -28.601354 9.905192
-33.498867 -28.907577 9.144537
-35.735 -27.904523 7.813557
-35.197902 -28.338013 8.805075
-36.32583 -27.689383 6.774921
-35.735 -27.904523 7.813557
-34.642347 -28.429095 7.005785
-36.911401 -27.285663 5.798262
-36.32583 -27.689383 6.774921
-37.631609 -27.050241 4.783237
-36.911401 -27.285663 5.798262
-35.953384 -27.978532 4.952123
-38.390446 -26.756409 3.784848
-37.631609 -27.050241 4.783237
-39.208923 -26.484218 2.728639
-38.390446 -26.756409 3.784848
-37.492069 -27.470918 2.880889
-40.038121 -26.201821 1.782376
-39.208923 -26.484218 2.728639
-34.445282 -11.041958 16.299764
-35.025863 -11.21565 16.758198
-35.396598 -9.510651 16.412393
-39.105704 -26.839372 0.750701
-37.124392 -26.685312 1.26311
-37.919548 -26.325957 0.189132
-40.038121 -26.201821 1.782376
-39.105704 -26.839372 0.750701
-39.890602 -25.03188 -2.832099
-39.280254 -25.460933 -1.853035
-37.918178 -25.137882 -2.410986
-39.890602 -25.03188 -2.832099
-40.486136 -24.332732 -3.729862
-41.982214 -22.084321 -6.247212
-41.533447 -22.85308 -5.419683
-40.037295 -22.681556 -5.989365
-41.982214 -22.084321 -6.247212
-42.396175 -21.099609 -7.016093
-43.515358 -18.26892 -9.350831
-43.122788 -19.186521 -8.566221
-41.735905 -19.291154 -9.219709
-43.515358 -18.26892 -9.350831
-43.831194 -17.107672 -10.052809
-42.11722 -15.059306 -12.25224
-41.525656 -16.126118 -11.618503
-42.734409 -14.207755 -13.048891
-42.11722 -15.059306 -12.25224
-40.821967 -15.043098 -12.444568
-43.296421 -13.020235 -13.659481
-42.734409 -14.207755 -13.048891
-42.047314 -13.294346 -13.99449
-43.296421 -13.020235 -13.659481
-40.801891 -12.873401 -13.67906
-42.047314 -13.294346 -13.99449
-40.193733 -13.770602 -12.92579
-39.516889 -12.634857 -13.48969
-41.37047 -12.158601 -14.55839
-40.801891 -12.873401 -13.67906
-26.896187 22.613096 -7.603324
-26.607254 22.126998 -6.29009
-26.733238 23.861275 -7.67837
-26.47921 21.505351 -7.521171
-26.896187 22.613096 -7.603324
-26.605194 23.239627 -8.909451
-26.560881 22.42251 -10.063292
-27.472997 23.283462 -10.062269
-26.266573 20.859253 -8.71937
-26.560881 22.42251 -10.063292
-26.639237 21.149881 -9.955362
-26.224137 20.672724 -12.393978
-27.153894 21.510106 -12.376265
-26.164778 19.513224 -12.367754
-25.665499 18.513208 -12.329845
-25.944888 19.392132 -11.163134
-26.224137 20.672724 -12.393978
-26.164778 19.513224 -12.367754
-25.765448 11.867822 -17.76604
-25.240975 11.646414 -18.059407
-25.971822 10.70505 -16.667314
-25.765448 11.867822 -17.76604
-25.811755 12.250172 -16.874365
-25.622514 14.95023 -16.880805
-25.462116 13.67616 -16.356725
-25.427228 15.156652 -15.569533
-25.622514 14.95023 -16.880805
-26.383243 13.761175 -14.53357
-26.013452 15.139394 -14.764436
-25.427228 15.156652 -15.569533
-34.086747 2.37214 -22.795011
-34.469828 2.653166 -23.319913
-34.276533 2.291789 -21.074026
-34.086747 2.37214 -22.795011
-33.661282 1.929466 -22.160002
-32.745294 0.892366 -16.430849
-31.752295 1.674072 -14.908334
-32.2613 0.732275 -15.957131
-33.467676 0.404402 -18.308208
-32.958671 1.3462 -17.259411
-32.745294 0.892366 -16.430849
-33.548282 0.659466 -20.757092
-33.467676 0.404402 -18.308208
-33.555082 1.353203 -21.453825
-33.548282 0.659466 -20.757092
3 0 80 78
3 1 83 81
3 2 86 84
3 2 88 86
3 306 90 307
3 3 93 91
3 3 95 93
3 3 97 95
3 308 100 309
3 310 309 98
3 308 309 310
3 312 311 100
3 4 104 102
3 6 107 105
3 6 109 107
3 8 313 314
3 8 315 317
3 315 111 316
3 315 316 317
3 8 113 111
3 11 318 319
3 5 116 114
3 10 119 117
3 13 122 120
3 13 124 122
3 7 127 125
3 14 130 128
3 14 132 130
3 14 134 132
3 15 137 135
3 15 139 137
3 15 141 139
3 16 144 142
3 16 146 144
3 9 149 147
3 17 152 150
3 17 154 152
3 17 156 154
3 12 159 157
3 12 161 159
3 320 162 321
3 322 164 323
3 324 323 162
3 322 323 324
3 18 167 165
3 18 169 167
3 18 171 169
3 19 174 172
3 21 175 79
3 21 176 175
3 22 325 326
3 22 327 328
3 23 179 177
3 24 180 82
3 24 181 180
3 25 184 182
3 27 185 85
3 27 329 331
3 331 330 185
3 329 330 331
3 27 332 333
3 28 334 336
3 336 335 87
3 334 335 336
3 28 337 338
3 29 188 186
3 31 189 89
3 31 190 189
3 32 193 191
3 34 194 92
3 34 195 194
3 34 197 195
3 36 198 94
3 36 199 198
3 36 201 199
3 38 202 96
3 38 203 202
3 39 206 204
3 41 207 99
3 41 208 207
3 41 210 208
3 339 211 340
3 341 340 101
3 339 340 341
3 342 212 343
3 344 343 211
3 342 343 344
3 44 216 214
3 46 217 103
3 46 218 217
3 20 219 173
3 47 220 106
3 47 221 220
3 47 222 221
3 48 223 108
3 48 224 223
3 345 226 346
3 347 227 348
3 349 228 350
3 351 350 227
3 349 350 351
3 50 229 110
3 50 230 229
3 50 232 230
3 52 233 112
3 52 234 233
3 352 235 353
3 354 236 355
3 356 355 235
3 354 355 356
3 357 237 358
3 359 358 236
3 357 358 359
3 360 238 361
3 363 362 238
3 364 239 365
3 366 240 367
3 368 367 239
3 366 367 368
3 369 241 370
3 372 371 241
3 374 373 178
3 45 242 215
3 54 243 115
3 54 244 243
3 26 245 183
3 375 246 376
3 378 377 246
3 53 379 381
3 379 248 380
3 379 380 381
3 56 249 118
3 56 250 249
3 30 251 187
3 57 252 121
3 57 253 252
3 57 254 253
3 58 255 123
3 58 256 255
3 49 257 225
3 59 258 126
3 59 259 258
3 33 260 192
3 60 261 129
3 60 262 261
3 60 263 262
3 61 264 131
3 61 382 384
3 384 383 264
3 382 383 384
3 61 385 386
3 62 387 389
3 389 388 133
3 387 388 389
3 62 390 391
3 35 265 196
3 63 266 136
3 63 392 394
3 394 393 266
3 392 393 394
3 63 395 396
3 398 397 138
3 64 267 140
3 64 268 267
3 37 269 200
3 65 270 143
3 65 271 270
3 65 272 271
3 66 273 145
3 66 274 273
3 51 275 231
3 67 276 148
3 67 277 276
3 40 278 205
3 68 279 151
3 68 280 279
3 68 281 280
3 69 282 153
3 69 283 282
3 69 284 283
3 70 285 155
3 70 286 285
3 42 287 209
3 71 288 158
3 71 289 288
3 71 290 289
3 55 291 160
3 55 247 291
3 399 292 400
3 72 401 403
3 401 293 402
3 401 402 403
3 72 294 293
3 73 404 406
3 404 295 405
3 404 405 406
3 73 296 295
3 73 297 296
3 74 298 163
3 74 299 298
3 43 407 408
3 75 409 411
3 411 410 166
3 409 410 411
3 75 412 414
3 412 300 413
3 412 413 414
3 75 301 300
3 76 302 168
3 76 303 302
3 76 304 303
3 77 305 170
3 77 415 417
3 417 416 305
3 415 416 417
3 419 418 213
3 78 79 19
3 80 79 78
3 80 21 79
3 420 22 421
3 81 82 23
3 83 82 81
3 83 24 82
3 84 85 25
3 86 85 84
3 86 27 85
3 86 87 27
3 88 87 86
3 88 28 87
3 422 89 423
3 424 423 29
3 422 423 424
3 90 425 427
3 425 89 426
3 425 426 427
3 90 31 89
3 91 92 32
3 93 92 91
3 93 34 92
3 93 94 34
3 95 94 93
3 95 36 94
3 95 96 36
3 97 96 95
3 97 38 96
3 98 99 39
3 100 99 98
3 100 41 99
3 100 101 41
3 428 101 429
3 430 429 100
3 428 429 430
3 432 431 101
3 102 103 44
3 104 103 102
3 104 46 103
3 105 106 20
3 107 106 105
3 107 47 106
3 107 108 47
3 109 108 107
3 109 48 108
3 433 110 434
3 111 435 437
3 435 110 436
3 435 436 437
3 111 50 110
3 111 112 50
3 113 112 111
3 113 52 112
3 114 115 45
3 116 115 114
3 116 54 115
3 439 438 26
3 117 118 53
3 119 118 117
3 119 56 118
3 120 121 30
3 122 121 120
3 122 57 121
3 122 123 57
3 124 123 122
3 124 58 123
3 125 126 49
3 127 126 125
3 127 59 126
3 128 129 33
3 130 129 128
3 130 60 129
3 130 131 60
3 132 131 130
3 132 61 131
3 132 133 61
3 134 133 132
3 134 62 133
3 135 136 35
3 137 136 135
3 137 63 136
3 137 138 63
3 139 138 137
3 139 440 442
3 442 441 138
3 440 441 442
3 139 443 445
3 443 140 444
3 443 444 445
3 141 140 139
3 141 64 140
3 142 143 37
3 144 143 142
3 144 65 143
3 144 145 65
3 146 145 144
3 146 66 145
3 147 148 51
3 149 148 147
3 149 67 148
3 150 151 40
3 152 151 150
3 152 68 151
3 152 153 68
3 154 153 152
3 154 69 153
3 154 155 69
3 156 155 154
3 156 70 155
3 157 158 42
3 159 158 157
3 159 71 158
3 159 160 71
3 161 160 159
3 161 55 160
3 446 72 447
3 162 448 449
3 162 450 452
3 450 73 451
3 450 451 452
3 162 163 73
3 164 163 162
3 164 74 163
3 165 166 43
3 167 166 165
3 167 75 166
3 167 168 75
3 169 168 167
3 169 76 168
3 169 170 76
3 171 170 169
3 171 77 170
3 172 173 4
3 174 173 172
3 174 20 173
3 79 174 19
3 175 174 79
3 175 20 174
3 175 105 20
3 176 105 175
3 176 6 105
3 453 8 454
3 456 455 8
3 177 178 11
3 179 178 177
3 179 457 459
3 459 458 178
3 457 458 459
3 82 179 23
3 180 179 82
3 180 460 462
3 462 461 179
3 460 461 462
3 180 463 464
3 181 465 467
3 467 466 180
3 465 466 467
3 181 468 469
3 182 183 5
3 184 183 182
3 184 26 183
3 85 184 25
3 185 184 85
3 185 26 184
3 185 470 472
3 472 471 26
3 470 471 472
3 474 473 185
3 87 475 477
3 477 476 27
3 475 476 477
3 479 478 87
3 186 187 10
3 188 187 186
3 188 30 187
3 89 188 29
3 189 188 89
3 189 30 188
3 189 120 30
3 190 120 189
3 190 13 120
3 191 192 7
3 193 192 191
3 193 33 192
3 92 193 32
3 194 193 92
3 194 33 193
3 194 128 33
3 195 128 194
3 195 14 128
3 195 196 14
3 197 196 195
3 197 35 196
3 94 197 34
3 198 197 94
3 198 35 197
3 198 135 35
3 199 135 198
3 199 15 135
3 199 200 15
3 201 200 199
3 201 37 200
3 96 201 36
3 202 201 96
3 202 37 201
3 202 142 37
3 203 142 202
3 203 16 142
3 204 205 9
3 206 205 204
3 206 40 205
3 99 206 39
3 207 206 99
3 207 40 206
3 207 150 40
3 208 150 207
3 208 17 150
3 208 209 17
3 210 209 208
3 210 42 209
3 101 210 41
3 211 210 101
3 211 42 210
3 211 157 42
3 212 157 211
3 212 12 157
3 480 43 481
3 482 43 483
3 484 165 485
3 486 485 43
3 484 485 486
3 487 165 488
3 489 18 490
3 491 490 165
3 489 490 491
3 492 213 493
3 494 493 18
3 492 493 494
3 495 213 496
3 498 497 213
3 214 215 1
3 216 215 214
3 216 45 215
3 103 216 44
3 217 216 103
3 217 45 216
3 217 114 45
3 218 114 217
3 218 5 114
3 173 104 4
3 219 104 173
3 219 46 104
3 106 219 20
3 220 219 106
3 220 46 219
3 220 218 46
3 221 218 220
3 221 5 218
3 221 182 5
3 222 182 221
3 222 25 182
3 108 222 47
3 223 222 108
3 223 25 222
3 223 84 25
3 224 84 223
3 224 2 84
3 499 225 500
3 501 225 502
3 503 49 504
3 505 504 225
3 503 504 505
3 506 49 507
3 508 125 509
3 510 509 49
3 508 509 510
3 226 511 513
3 511 125 512
3 511 512 513
3 226 7 125
3 514 226 515
3 227 516 518
3 516 226 517
3 516 517 518
3 227 7 226
3 227 191 7
3 228 191 227
3 228 32 191
3 110 519 521
3 519 228 520
3 519 520 521
3 229 228 110
3 229 32 228
3 229 91 32
3 230 91 229
3 230 3 91
3 230 231 3
3 232 231 230
3 232 51 231
3 112 232 50
3 233 232 112
3 233 51 232
3 233 147 51
3 234 147 233
3 234 9 147
3 522 113 523
3 524 523 8
3 522 523 524
3 525 113 526
3 527 52 528
3 529 528 113
3 527 528 529
3 235 530 531
3 235 532 534
3 532 52 533
3 532 533 534
3 235 234 52
3 236 234 235
3 236 9 234
3 236 204 9
3 237 204 236
3 237 39 204
3 535 237 536
3 238 537 539
3 537 237 538
3 537 538 539
3 238 39 237
3 238 98 39
3 540 98 541
3 542 541 238
3 540 541 542
3 544 543 98
3 545 53 546
3 239 547 548
3 239 549 551
3 549 53 550
3 549 550 551
3 239 117 53
3 240 117 239
3 240 10 117
3 552 240 553
3 241 554 556
3 554 240 555
3 554 555 556
3 241 10 240
3 241 186 10
3 557 186 558
3 559 558 241
3 557 558 559
3 560 29 561
3 562 561 186
3 560 561 562
3 563 29 564
3 566 565 29
3 178 567 569
3 569 568 11
3 567 568 569
3 571 570 178
3 215 83 1
3 242 83 215
3 242 24 83
3 115 242 45
3 243 242 115
3 243 24 242
3 243 181 24
3 244 181 243
3 244 572 574
3 574 573 181
3 572 573 574
3 183 116 5
3 245 116 183
3 245 54 116
3 575 245 576
3 577 576 26
3 575 576 577
3 246 578 580
3 578 245 579
3 578 579 580
3 246 54 245
3 246 244 54
3 581 244 582
3 583 582 246
3 581 582 583
3 585 584 244
3 587 586 0
3 588 212 589
3 590 212 591
3 592 12 593
3 594 593 212
3 592 593 594
3 595 12 596
3 597 161 598
3 599 598 12
3 597 598 599
3 600 161 601
3 602 55 603
3 604 603 161
3 602 603 604
3 605 55 606
3 607 247 608
3 609 608 55
3 607 608 609
3 610 247 611
3 612 0 613
3 614 613 247
3 612 613 614
3 248 615 616
3 248 617 619
3 617 22 618
3 617 618 619
3 118 248 53
3 249 248 118
3 249 22 248
3 249 620 622
3 622 621 22
3 620 621 622
3 250 623 625
3 625 624 249
3 623 624 625
3 250 626 627
3 187 119 10
3 251 119 187
3 251 56 119
3 121 251 30
3 252 251 121
3 252 56 251
3 252 250 56
3 253 250 252
3 253 628 630
3 630 629 250
3 628 629 630
3 253 631 632
3 254 633 635
3 635 634 253
3 633 634 635
3 254 636 637
3 123 254 57
3 255 254 123
3 255 638 640
3 640 639 254
3 638 639 640
3 255 641 642
3 256 643 645
3 645 644 255
3 643 644 645
3 256 646 647
3 225 648 650
3 648 90 649
3 648 649 650
3 257 90 225
3 257 31 90
3 126 257 49
3 258 257 126
3 258 31 257
3 258 190 31
3 259 190 258
3 259 13 190
3 192 127 7
3 260 127 192
3 260 59 127
3 129 260 33
3 261 260 129
3 261 59 260
3 261 259 59
3 262 259 261
3 262 13 259
3 262 124 13
3 263 124 262
3 263 58 124
3 131 263 60
3 264 263 131
3 264 58 263
3 264 256 58
3 651 256 652
3 653 652 264
3 651 652 653
3 655 654 256
3 133 656 658
3 658 657 61
3 656 657 658
3 660 659 133
3 196 134 14
3 265 134 196
3 265 62 134
3 136 265 35
3 266 265 136
3 266 62 265
3 266 661 663
3 663 662 62
3 661 662 663
3 665 664 266
3 138 666 668
3 668 667 63
3 666 667 668
3 670 669 138
3 140 671 672
3 267 673 675
3 675 674 140
3 673 674 675
3 267 676 677
3 267 678 679
3 268 680 682
3 682 681 267
3 680 681 682
3 268 683 685
3 683 11 684
3 683 684 685
3 200 141 15
3 269 141 200
3 269 64 141
3 143 269 37
3 270 269 143
3 270 64 269
3 270 268 64
3 271 268 270
3 271 11 268
3 271 177 11
3 272 177 271
3 272 23 177
3 145 272 65
3 273 272 145
3 273 23 272
3 273 81 23
3 274 81 273
3 274 1 81
3 231 97 3
3 275 97 231
3 275 38 97
3 148 275 51
3 276 275 148
3 276 38 275
3 276 203 38
3 277 203 276
3 277 16 203
3 205 149 9
3 278 149 205
3 278 67 149
3 151 278 40
3 279 278 151
3 279 67 278
3 279 277 67
3 280 277 279
3 280 16 277
3 280 146 16
3 281 146 280
3 281 66 146
3 153 281 68
3 282 281 153
3 282 66 281
3 282 274 66
3 283 274 282
3 283 1 274
3 283 214 1
3 284 214 283
3 284 44 214
3 155 284 69
3 285 284 155
3 285 44 284
3 285 102 44
3 286 102 285
3 286 4 102
3 209 156 17
3 287 156 209
3 287 70 156
3 158 287 42
3 288 287 158
3 288 70 287
3 288 286 70
3 289 286 288
3 289 4 286
3 289 172 4
3 290 172 289
3 290 19 172
3 160 290 71
3 291 290 160
3 291 19 290
3 291 78 19
3 247 78 291
3 247 0 78
3 686 80 687
3 688 687 0
3 686 687 688
3 292 689 691
3 689 80 690
3 689 690 691
3 292 21 80
3 692 292 693
3 293 694 696
3 694 292 695
3 694 695 696
3 293 21 292
3 293 176 21
3 294 176 293
3 294 6 176
3 697 72 698
3 295 699 700
3 295 701 703
3 701 72 702
3 701 702 703
3 295 294 72
3 296 294 295
3 296 6 294
3 296 109 6
3 297 109 296
3 297 48 109
3 163 297 73
3 298 297 163
3 298 48 297
3 298 224 48
3 299 224 298
3 299 2 224
3 166 704 706
3 706 705 43
3 704 705 706
3 708 707 166
3 300 709 710
3 300 711 712
3 300 713 715
3 713 164 714
3 713 714 715
3 301 164 300
3 301 74 164
3 168 301 75
3 302 301 168
3 302 74 301
3 302 299 74
3 303 299 302
3 303 2 299
3 303 88 2
3 304 88 303
3 304 28 88
3 170 304 76
3 305 304 170
3 305 28 304
3 305 716 718
3 718 717 28
3 716 717 718
3 720 719 305
3 213 171 18
3 721 171 722
3 723 722 213
3 721 722 723
3 724 77 725
3 726 725 171
3 724 725 726
3 727 77 728
3 730 729 77
