ply
format ascii 1.0
element vertex 888
property float x
property float y
property float z
element face 1094
property list uchar int vertex_index
end_header
46.091343 -43.95858 7.23614
62.468353 -33.475281 -15.488635
46.739368 -24.690159 -11.228084
58.935875 -40.881435 -4.968057
53.735271 -57.563801 5.979207
53.877983 -54.103264 -5.417683
62.393768 -8.02269 -22.219589
45.039551 -36.945789 -2.708194
51.372398 -43.647633 0.496755
48.757244 5.062775 -34.519878
45.880646 -60.942444 6.282901
56.363678 -58.173492 0.959845
47.129272 -60.14463 1.755565
62.675407 -26.14888 -12.14013
56.399494 -17.408169 -16.76058
63.872547 -19.670498 -16.956013
56.471142 -18.927759 -22.831827
54.797905 -33.222538 -17.312588
52.325512 -32.853004 -9.136188
64.826927 -34.832424 -8.00496
54.605812 -50.98082 7.118942
61.926575 -49.750965 3.481389
63.159912 -45.763073 -4.946239
57.207752 -41.946934 -11.089889
56.832306 1.974344 -27.860937
51.978027 -7.775342 -27.861027
45.38451 -41.540871 2.207456
48.541672 -43.859425 4.096295
45.447056 8.938763 -37.392357
49.679638 8.46046 -32.788887
47.764507 -62.274834 3.684587
65.978645 -28.01445 -13.010298
65.549637 -22.439001 -13.747251
63.182716 -27.327103 -16.897985
58.768768 -25.631138 -17.619711
58.722912 -33.278381 -16.652868
51.057648 -39.400627 -4.620014
47.828949 -35.367226 -6.209039
55.323174 -36.300659 -6.530859
59.825348 -33.609444 -9.290922
62.300652 -37.674973 -6.238636
56.691132 -55.144653 8.295423
58.080414 -50.732746 5.225605
58.956005 -55.327137 4.842669
55.044212 -54.505413 -2.953246
59.471077 -51.56245 -2.393756
57.517895 -49.344509 -5.303788
60.344154 -43.591148 -7.713407
54.542259 -47.962364 -8.131082
61.631886 -11.622684 -18.303814
52.852257 -13.239305 -20.562244
57.932686 -7.496241 -22.58083
54.224541 -3.964869 -25.255041
59.847137 -3.135298 -25.574636
55.919353 -2.129366 -29.745495
58.822235 -8.159205 -26.634472
47.749901 -41.278919 -1.766266
55.000938 -43.052795 -2.936208
40.521206 7.998955 -37.63728
42.812626 3.690725 -35.820728
44.997784 -0.697563 -33.505997
49.912117 -59.743938 5.423087
56.314068 -60.490417 4.080672
52.082253 -62.431114 3.708857
51.705982 -58.484203 0.940747
51.535652 -57.374859 -2.153976
53.849022 -25.860691 -12.711039
51.229321 -21.759945 -14.518553
59.487709 -21.452925 -14.083475
63.832924 -16.270924 -14.52413
63.881329 -13.849955 -19.365183
60.390907 -13.383563 -23.524664
60.601135 -19.801983 -20.814133
54.990303 -24.598621 -19.972813
45.417889 -30.814859 -7.081604
49.107964 -29.048771 -10.578048
57.387493 -29.602383 -10.999189
64.589813 -29.983633 -10.135526
65.363754 -33.62281 -12.447034
45.866055 -46.239372 10.098739
50.404488 -47.238056 6.19381
49.155098 -49.847977 9.21205
49.187004 -56.681206 8.270183
44.694393 -58.035576 7.811531
53.783192 -46.851776 3.732941
57.520569 -45.86655 1.923532
61.210869 -44.888405 -0.602619
60.699181 -54.901867 1.653074
63.831215 -47.814964 -0.153906
64.769058 -42.607662 -3.427211
65.308174 -40.368938 -6.73037
62.99836 -38.336525 -10.13657
61.289146 -39.080872 -13.957266
57.400208 -40.091911 -16.069998
52.313568 5.251546 -28.747334
53.947044 4.740747 -32.003059
49.905602 -0.772072 -31.064917
47.08551 -6.94704 -31.632141
55.185913 -13.544043 -25.526638
45.024811 -42.249977 6.805513
45.81287 -42.624901 4.969688
47.141045 -44.002979 5.626052
46.843044 8.885142 -33.257748
47.353432 7.114707 -30.838673
64.614334 -30.624523 -14.413989
65.069489 -27.670679 -15.094862
62.794212 -30.530827 -16.288095
61.131203 -30.244625 -17.115597
60.662464 -33.376564 -16.174139
54.960915 -40.035503 -4.985513
53.137665 -37.786629 -5.454346
56.90197 -38.526199 -5.616979
58.722149 -36.918209 -6.208675
60.728535 -39.422955 -5.670451
55.619946 -56.714722 7.684927
58.051403 -55.376171 6.666718
56.500923 -57.16996 5.559041
54.530724 -54.317268 -4.289307
56.564354 -52.190727 -4.300131
55.062183 -51.318897 -5.373591
55.798748 -48.301613 -6.595076
53.907555 -50.994392 -6.987164
62.610695 -9.067446 -19.777296
59.746632 -9.356254 -20.768167
61.125877 -6.40996 -21.756443
59.56955 -4.51514 -23.432919
61.194618 -5.305739 -23.852488
59.90815 -5.24445 -26.250324
61.09906 -7.980385 -24.621132
48.119465 -42.947212 1.094798
46.385712 -41.628826 0.090033
49.581615 -42.745571 -0.94255
51.243233 -42.175625 -2.585324
53.249168 -43.443707 -1.365583
39.548046 13.828074 -38.152359
38.901348 10.932441 -37.886688
41.357841 11.087807 -38.437424
47.245754 6.856631 -36.104744
44.282349 6.372924 -37.27877
45.633259 4.308759 -35.28138
43.949715 1.584302 -34.654148
46.807781 2.404464 -33.642078
47.801178 -60.215942 5.791044
51.150551 -61.346722 4.880313
48.918922 -61.816612 5.191803
47.466175 -60.951488 2.599762
49.594261 -60.507233 2.328861
49.539936 -59.048779 1.125276
51.530449 -57.2971 -0.964499
49.406933 -58.186119 -0.143096
58.328209 -25.811192 -13.000925
56.689678 -23.610647 -13.555777
61.237507 -23.663666 -13.358052
65.378471 -20.994547 -15.231503
64.922279 -19.314358 -13.872114
64.942093 -17.266581 -15.414503
64.438759 -14.4692 -16.440582
64.070259 -16.641891 -18.216496
62.721436 -16.956873 -20.790413
62.314838 -19.450483 -19.035902
56.514854 -29.073877 -17.376663
56.544079 -24.973516 -18.426907
54.514721 -28.722961 -18.423046
49.931721 -34.240776 -7.800738
46.534519 -33.174034 -6.74705
48.414246 -32.229576 -8.395642
47.03643 -30.075211 -8.970537
50.723907 -31.005787 -9.691093
53.208668 -29.487875 -10.954149
54.817547 -31.201853 -10.004995
62.743004 -34.00103 -8.159445
62.294872 -31.676752 -9.642756
64.809105 -32.424339 -8.896788
65.968666 -31.40926 -10.495195
65.531532 -33.874451 -9.823559
47.513721 -48.15546 9.418347
53.59037 -55.23357 10.661524
46.958801 -57.188072 7.54004
52.557446 -49.026924 6.419131
51.971748 -47.095909 4.881286
54.301014 -49.071728 5.32855
59.972404 -50.545769 4.428589
57.970531 -48.47858 3.245374
60.124287 -47.654255 2.51489
59.236351 -45.535011 0.771141
62.062885 -46.86517 1.697148
57.008526 -60.31007 2.614444
59.109352 -58.259773 3.122068
59.127419 -56.909172 1.44588
60.980968 -48.571167 -3.733343
61.801586 -49.776447 -1.486108
63.726952 -46.590805 -2.722427
64.719498 -44.889767 -1.954281
65.057602 -44.012726 -4.024152
65.477654 -41.387455 -4.878761
64.721077 -43.152355 -5.830581
58.60865 -42.265133 -9.152365
61.984253 -40.863022 -8.944436
60.343239 -39.797794 -10.802708
61.753456 -37.832027 -12.262163
59.5471 -40.491749 -12.970447
53.677624 -19.782785 -15.720804
49.901619 -19.460096 -15.801649
52.227928 -17.676861 -17.504238
51.042816 -10.989176 -21.468861
56.546753 -0.650282 -26.020319
52.109486 -1.981075 -26.01265
54.278015 1.195721 -27.230875
51.836998 2.668731 -27.682072
54.801128 4.083592 -28.507233
53.878365 5.958208 -30.235723
55.661701 3.655239 -29.930811
53.847271 -5.113735 -28.899155
52.954132 -1.793596 -30.831858
50.49667 -4.395527 -29.400116
47.601891 -3.78722 -30.234364
48.909706 -7.325657 -29.091152
58.28009 -16.001541 -23.131945
58.141071 -13.659798 -24.872522
56.048256 -16.135479 -24.286266
46.795822 -42.858234 3.09183
49.937263 -43.753872 2.209118
43.545235 11.161205 -37.390251
45.325562 10.225347 -35.449345
48.108452 9.093954 -35.354698
50.12104 7.550009 -34.465706
44.462715 -62.058006 6.261018
47.174187 -62.449364 5.251261
45.650066 -62.905682 5.314935
45.543968 -62.773293 3.85788
44.929176 -62.269104 2.766453
65.586273 -26.4177 -11.832709
64.823975 -23.97591 -12.588198
66.031693 -25.335896 -13.464697
65.327438 -24.67304 -15.402489
63.490273 -23.500317 -16.750362
61.531353 -22.492136 -17.714092
60.892067 -26.4021 -17.151602
58.841789 -29.598166 -17.151104
56.948719 -33.296936 -17.065186
47.581585 -38.352982 -3.851016
46.204514 -36.204136 -4.522904
49.436989 -37.248802 -5.275961
51.654339 -36.056656 -6.746747
53.956703 -34.72501 -8.482532
56.400414 -33.076496 -9.700716
57.561512 -35.150276 -8.0503
60.733971 -35.615353 -7.323309
63.640003 -36.158028 -6.954129
56.088661 -53.014965 7.835707
56.404869 -50.913708 6.088983
57.96703 -53.072243 6.788291
59.381268 -53.107391 5.670649
60.48106 -52.897682 4.169897
55.614544 -55.848621 -0.89322
58.015442 -54.690411 -0.270571
57.212872 -52.923359 -2.717375
58.791847 -50.538975 -4.273346
60.27404 -47.596825 -5.254017
61.986492 -44.746891 -6.433994
58.737743 -46.51207 -6.47299
57.045067 -45.375469 -7.771655
55.232262 -44.731781 -9.335875
59.273064 -14.750438 -17.355434
54.740669 -15.542938 -18.812363
57.472424 -12.735671 -19.96983
55.367043 -10.635841 -21.813894
53.450329 -8.700938 -23.057463
51.732361 -6.570023 -23.957462
56.204079 -5.602899 -24.105999
58.258942 -2.39152 -25.084202
58.473488 -0.619353 -26.907843
57.143013 0.604252 -29.117212
58.410606 -2.538606 -27.954645
57.117481 -5.396402 -28.164984
55.473194 -7.967681 -27.208485
56.044006 -22.0807 -24.019283
55.098389 -19.128273 -24.889498
45.096016 -39.725914 -0.495552
46.187691 -39.243317 -2.403296
49.370445 -40.512615 -3.333156
53.021099 -41.295975 -3.977408
57.009686 -42.024464 -4.149
37.91283 7.590356 -36.418713
39.283634 4.739739 -36.128174
42.708199 8.657031 -38.248188
41.622169 5.724587 -37.04266
40.604099 2.385308 -36.085594
42.014088 0.325058 -35.943806
51.870209 -58.903687 5.309287
54.880596 -59.251366 4.840781
53.240479 -60.663933 4.73749
54.243752 -62.114788 3.930819
54.269691 -60.904869 2.517941
49.876034 -62.298634 3.577092
51.955555 -60.707996 2.315961
53.885185 -58.466553 1.181007
53.45591 -56.419544 -1.086172
53.230766 -56.175056 -3.061664
53.342735 -56.576225 -4.054418
49.725384 -25.722027 -12.078344
48.777412 -23.472759 -13.089157
52.391918 -23.816525 -13.049403
55.102551 -21.773489 -14.142186
57.676281 -19.44063 -14.944318
63.709412 -21.454493 -13.334134
62.043079 -18.941845 -14.121028
60.578449 -16.5383 -15.228307
62.926655 -13.760193 -15.889766
63.864124 -11.706656 -17.927597
63.296753 -10.443226 -20.4772
61.914673 -10.689768 -23.073887
62.275063 -13.493761 -21.460094
60.492104 -16.528316 -22.219025
58.659523 -19.451012 -22.008511
59.644238 -21.954273 -18.957693
57.67701 -22.164042 -20.159616
56.508461 -22.207392 -21.805668
54.911781 -24.52877 -22.331621
45.194252 -33.890572 -4.870484
44.463982 -31.396908 -4.86358
46.068047 -27.776279 -9.198682
47.742035 -26.893061 -10.867923
51.407948 -27.602448 -11.801352
55.717243 -27.763666 -12.134689
60.088905 -27.923731 -11.813109
58.90099 -31.351358 -10.333502
61.559013 -29.551987 -10.664705
64.157257 -27.919292 -10.937848
65.954063 -28.807079 -11.298584
65.740646 -30.924429 -12.614284
64.264481 -34.063194 -14.538836
46.107346 -44.897694 8.685431
48.258987 -45.617935 6.69917
47.995026 -46.666233 7.878883
49.986141 -48.458817 7.746208
51.814186 -50.330776 7.901919
50.791149 -51.445812 9.403339
53.54192 -52.150707 8.541104
54.761139 -54.134636 9.268709
54.968681 -56.023376 9.432621
53.734406 -57.026081 8.768022
51.83498 -57.045006 9.727324
51.557739 -57.073303 7.02449
49.356361 -57.929028 6.08184
47.16394 -58.721741 6.371087
45.067936 -59.483265 6.871408
44.946667 -43.548393 10.413796
49.739929 -45.491772 5.386261
51.308418 -45.147728 4.137951
52.920868 -44.558079 2.852098
56.096123 -48.892567 4.223363
55.587868 -46.333458 2.959411
54.65929 -44.392891 1.250002
56.315845 -44.481609 -0.526592
58.155373 -44.086697 -1.952527
60.311268 -43.137951 -3.190419
58.029285 -58.19754 4.278727
59.875317 -55.552185 3.283283
61.832539 -52.390888 2.44821
60.380501 -53.409107 -0.209843
62.284954 -51.286018 0.682442
63.298138 -48.962746 1.945099
63.814411 -45.855705 0.298959
63.307545 -43.790295 -2.000201
62.404369 -41.838287 -4.088985
63.811333 -40.398537 -4.868053
64.827324 -38.7491 -5.965853
65.089737 -37.531757 -7.273123
63.660622 -42.342964 -7.605075
64.339844 -39.509735 -8.441495
64.754723 -36.677917 -8.987275
63.980064 -35.798168 -10.941875
63.336571 -36.55352 -13.522677
62.188255 -37.038475 -15.11622
43.673111 -62.130657 1.67257
46.2976 -59.689575 0.738792
49.035606 -58.335365 -1.236841
51.63335 -57.916817 -3.071873
53.437054 -56.993919 -5.021564
53.959984 -54.229633 -7.248872
56.733204 -43.40897 -13.395689
59.361206 -41.954697 -14.623227
59.714638 -39.663666 -15.362823
59.716194 -36.290302 -15.33547
57.564995 -36.434319 -15.814954
56.250721 -37.273758 -16.890024
50.579834 -15.374399 -18.904823
48.885384 5.664187 -28.885372
51.127876 7.191 -30.744705
52.275341 7.203898 -32.491337
51.772289 5.138113 -33.698997
55.074287 1.431777 -31.167431
52.553528 1.924676 -32.511692
49.524864 2.356923 -32.859085
47.018219 -0.370716 -31.692585
45.765556 -3.699554 -32.508244
60.060566 -11.351028 -25.524052
57.204205 -11.063823 -26.239111
53.892467 -10.732648 -26.55159
53.966248 -16.45439 -25.937134
52.281544 -13.74821 -26.924557
50.609669 -10.763423 -27.885639
46.832636 7.197319 -29.173383
46.04761 7.847157 -30.410089
46.544943 -23.367539 -11.370902
46.095297 -23.855981 -10.188911
40.59737 13.637137 -37.535381
39.695048 15.057082 -37.09091
41.502268 12.267003 -37.677914
40.452944 12.45794 -38.294891
40.59737 13.637137 -37.535381
54.120632 -32.93663 -17.974533
53.97904 -30.686842 -18.529762
54.656313 -30.972749 -17.867817
44.677168 -35.687131 -2.740253
44.562382 -35.881757 -1.643316
49.708735 -10.614968 -20.603147
50.392387 -9.768894 -21.728314
44.35556 10.030717 -33.980372
44.004599 11.018933 -35.166788
44.398361 -63.310456 5.746251
45.056391 -62.481844 5.787977
43.804686 -62.886617 6.219292
44.470436 -63.716969 3.680881
44.775906 -63.569408 4.407343
44.16304 -63.464875 3.135168
45.236572 -62.521198 3.312167
44.470436 -63.716969 3.680881
56.278126 -21.840769 -25.326823
56.135616 -23.235186 -24.317133
44.928665 -40.585328 1.927879
44.921133 -40.328444 3.013673
44.245043 -1.093414 -34.747815
43.721008 0.047518 -35.32189
44.473749 0.44337 -34.080072
45.186205 -2.168373 -34.617497
44.245043 -1.093414 -34.747815
44.844487 -29.836685 -5.904414
44.367533 -30.12771 -4.795402
44.940936 -31.105883 -5.972592
45.108751 -29.576924 -7.102609
44.844487 -29.836685 -5.904414
51.57489 -52.342821 9.650191
50.185342 -51.928981 10.201438
52.950276 -52.695268 9.219074
52.166534 -51.79826 8.972221
51.57489 -52.342821 9.650191
53.559885 -53.687233 9.582876
54.151529 -53.142671 8.904906
52.950276 -52.695268 9.219074
54.378445 -56.444164 9.994219
54.279525 -55.628473 10.047072
53.689289 -56.049261 10.608671
53.761307 -56.945516 9.66192
54.351543 -56.524728 9.100321
54.378445 -56.444164 9.994219
50.510992 -56.863106 8.998753
50.796553 -57.000428 10.310392
49.472565 -56.818528 9.581822
45.406361 -44.893883 10.256267
44.89032 -44.150169 11.179139
45.350014 -45.495659 11.021611
42.645437 -64.100187 1.299223
42.979969 -63.693953 1.885441
45.953904 -59.78812 -0.280624
44.422198 -61.019695 0.383265
47.322907 -59.111015 -1.268441
47.666603 -59.01247 -0.249025
45.953904 -59.78812 -0.280624
51.895435 -58.393486 -3.654475
50.251309 -58.454365 -2.888024
52.797287 -57.932037 -4.62932
52.535202 -57.455368 -4.046718
51.895435 -58.393486 -3.654475
54.651085 -54.904235 -8.032083
54.147131 -56.087046 -6.846669
53.979431 -53.031015 -8.167004
54.651085 -54.904235 -8.032083
57.05665 -44.158916 -14.433218
56.00292 -45.337057 -13.877299
58.370651 -43.43178 -15.046986
58.047205 -42.681833 -14.009458
57.05665 -44.158916 -14.433218
58.557423 -39.877789 -15.71641
59.142678 -41.183466 -15.901616
57.985462 -41.397588 -16.255204
56.269098 -39.227406 -18.001582
56.425843 -38.985641 -17.179286
55.747553 -37.475502 -17.43956
56.269098 -39.227406 -18.001582
49.585425 -21.355723 -14.16349
48.35947 -22.212131 -13.448792
50.003366 -22.616352 -13.803855
48.623457 -18.89179 -15.074181
49.355579 -18.247837 -16.314832
52.114317 -4.134695 -24.785661
50.868227 -5.437272 -24.136872
52.978451 -5.267446 -24.606251
50.538433 -1.871335 -24.99694
51.305826 -0.840703 -26.09329
50.880281 4.758544 -27.804987
50.641997 3.467136 -27.272356
52.075283 3.960139 -28.214703
50.599476 5.457866 -28.816353
49.16619 4.964864 -27.874006
50.880281 4.758544 -27.804987
46.99399 -6.604764 -33.381199
46.334013 -4.981021 -33.81925
46.425533 -5.323297 -32.070192
54.522717 -17.746343 -26.72103
54.532319 -17.791331 -25.413316
55.088787 -19.083284 -26.197212
51.608747 -13.459931 -28.343852
52.546499 -15.035353 -27.851009
50.77281 -11.967537 -28.824393
51.445606 -12.255816 -27.405098
51.608747 -13.459931 -28.343852
49.725121 -10.433394 -29.200401
50.77281 -11.967537 -28.824393
45.418841 -42.437439 5.8876
45.297741 -41.518366 5.67025
44.903712 -41.330904 6.588163
45.792416 8.732374 -31.619627
45.114301 9.360615 -32.884573
47.098238 7.999925 -32.04821
45.792416 8.732374 -31.619627
46.04761 7.847157 -30.410089
38.527933 15.216456 -37.684131
39.695048 15.057082 -37.09091
38.144556 13.736025 -38.052853
38.527933 15.216456 -37.684131
39.224697 12.380258 -38.019523
37.821207 12.288208 -37.920017
38.144556 13.736025 -38.052853
54.129559 -28.361051 -19.379559
54.36735 -26.298881 -20.154443
54.752512 -26.660791 -19.19793
54.129559 -28.361051 -19.379559
53.97904 -30.686842 -18.529762
46.481782 -47.788763 10.524252
46.689888 -47.197416 9.758543
45.65795 -46.830719 10.864448
47.079156 -48.730955 10.174603
46.481782 -47.788763 10.524252
47.899845 -49.577213 10.071455
48.334409 -49.001718 9.315199
47.079156 -48.730955 10.174603
52.413798 -54.687092 11.135537
52.974501 -54.2367 10.279284
53.143269 -55.56572 11.346081
52.413798 -54.687092 11.135537
53.689289 -56.049261 10.608671
53.143269 -55.56572 11.346081
48.144652 -56.678976 9.084169
49.472565 -56.818528 9.581822
47.03055 -56.932409 8.719097
48.072902 -56.934639 7.905112
48.144652 -56.678976 9.084169
45.856302 -57.118776 8.539545
47.03055 -56.932409 8.719097
44.724098 -57.542528 8.67529
45.826597 -57.611824 7.675785
45.856302 -57.118776 8.539545
45.65795 -46.830719 10.864448
45.350014 -45.495659 11.021611
57.630787 -41.872146 -17.183692
57.985462 -41.397588 -16.255204
57.000586 -40.394718 -16.769273
57.630787 -41.872146 -17.183692
50.518734 -17.35622 -17.166126
49.355579 -18.247837 -16.314832
51.064774 -18.568478 -16.652943
50.105373 -11.924565 -20.511744
51.010094 -13.04963 -20.058436
51.947536 -12.114241 -21.015552
50.105373 -11.924565 -20.511744
49.708735 -10.614968 -20.603147
52.390091 0.747695 -26.702402
51.305826 -0.840703 -26.09329
53.193751 -0.392677 -26.621763
53.057507 1.932226 -27.456474
51.169583 1.4842 -26.928001
52.390091 0.747695 -26.702402
45.127454 -41.281598 3.27303
44.921133 -40.328444 3.013673
45.341634 -41.823612 4.654146
45.297741 -41.518366 5.67025
45.833111 -41.940279 3.715217
45.341634 -41.823612 4.654146
46.304346 -42.741568 4.030759
46.090166 -42.199553 2.649643
45.127454 -41.281598 3.27303
45.833111 -41.940279 3.715217
43.114435 11.486861 -36.137242
42.595964 12.303702 -37.154328
44.435398 10.693276 -36.419798
43.114435 11.486861 -36.137242
44.004599 11.018933 -35.166788
46.084303 9.555245 -34.353547
44.35556 10.030717 -33.980372
45.114301 9.360615 -32.884573
44.828955 -63.635603 5.13587
44.398361 -63.310456 5.746251
45.597017 -62.839488 4.586407
44.828955 -63.635603 5.13587
44.775906 -63.569408 4.407343
51.596144 -8.624775 -22.522616
50.392387 -9.768894 -21.728314
52.246572 -9.845057 -22.263162
52.591345 -7.63548 -23.507462
50.73716 -7.559317 -22.972615
51.596144 -8.624775 -22.522616
55.805317 -20.364556 -25.76193
55.571197 -20.604487 -24.454391
56.278126 -21.840769 -25.326823
55.088787 -19.083284 -26.197212
55.805317 -20.364556 -25.76193
44.72056 -37.111801 -1.683982
44.562382 -35.881757 -1.643316
45.429266 -40.629305 0.869168
44.928665 -40.585328 1.927879
45.885111 -41.584848 1.148745
44.784418 -39.677849 0.576376
45.429266 -40.629305 0.869168
45.740864 -40.67737 -0.202759
44.716942 -38.528906 0.469083
44.784418 -39.677849 0.576376
44.748793 -38.501863 -0.577661
44.716942 -38.528906 0.469083
45.29463 -38.260565 -1.531532
44.748793 -38.501863 -0.577661
45.641853 -39.484616 -1.449424
45.613621 -38.094553 -2.555745
44.72056 -37.111801 -1.683982
45.29463 -38.260565 -1.531532
37.494577 10.652909 -37.335673
37.821207 12.288208 -37.920017
37.000318 8.981867 -36.601685
37.494577 10.652909 -37.335673
38.407089 9.261399 -37.1527
36.568262 6.886775 -36.479832
37.000318 8.981867 -36.601685
37.389813 5.625184 -36.622992
36.568262 6.886775 -36.479832
38.075215 4.199876 -36.477722
37.389813 5.625184 -36.622992
38.598232 6.165048 -36.273443
39.01222 2.914719 -36.676876
38.075215 4.199876 -36.477722
42.451538 11.124506 -37.913837
41.502268 12.267003 -37.677914
42.595964 12.303702 -37.154328
39.672453 1.737503 -36.655586
39.01222 2.914719 -36.676876
39.943866 3.562524 -36.106884
40.69354 0.913003 -37.076103
39.672453 1.737503 -36.655586
41.398535 -0.117122 -37.005209
40.69354 0.913003 -37.076103
41.309094 1.355183 -36.0147
42.462696 -0.904054 -37.198521
41.398535 -0.117122 -37.005209
42.753195 -0.582104 -35.966719
42.981901 0.95468 -35.298977
43.721008 0.047518 -35.32189
42.462696 -0.904054 -37.198521
42.753195 -0.582104 -35.966719
55.569503 -24.459221 -23.473302
56.135616 -23.235186 -24.317133
55.477894 -23.304735 -23.175452
54.328088 -26.263955 -21.333847
54.951042 -24.563696 -21.152217
54.36735 -26.298881 -20.154443
54.707416 -25.950904 -22.688482
54.328088 -26.263955 -21.333847
55.569503 -24.459221 -23.473302
54.707416 -25.950904 -22.688482
46.084217 -25.024304 -10.246489
46.095297 -23.855981 -10.188911
45.25965 -35.316305 -3.647608
44.677168 -35.687131 -2.740253
45.622033 -36.574962 -3.615549
44.754519 -34.159523 -3.821398
45.25965 -35.316305 -3.647608
45.699383 -35.047354 -4.696694
44.681961 -32.868116 -3.680847
44.754519 -34.159523 -3.821398
44.316826 -31.621285 -3.677395
44.681961 -32.868116 -3.680847
44.829117 -32.64374 -4.867032
44.603884 -30.411817 -3.55655
44.316826 -31.621285 -3.677395
44.603884 -30.411817 -3.55655
44.367533 -30.12771 -4.795402
45.918022 -29.2071 -8.047076
45.108751 -29.576924 -7.102609
46.227159 -30.445035 -8.02607
45.43383 -28.057634 -8.161148
45.918022 -29.2071 -8.047076
46.552239 -28.925745 -9.084609
45.435727 -26.851686 -8.063752
45.43383 -28.057634 -8.161148
45.748556 -26.567363 -9.231789
45.435727 -26.851686 -8.063752
46.58555 -26.125754 -10.066409
45.748556 -26.567363 -9.231789
46.905041 -27.33467 -10.033302
47.240702 -25.79161 -11.048004
46.084217 -25.024304 -10.246489
46.58555 -26.125754 -10.066409
48.592444 -50.332477 10.016012
47.899845 -49.577213 10.071455
49.410469 -51.131395 10.111657
50.185342 -51.928981 10.201438
49.973123 -50.646895 9.307695
48.592444 -50.332477 10.016012
49.410469 -51.131395 10.111657
54.175754 -54.684103 9.965117
53.559885 -53.687233 9.582876
52.974501 -54.2367 10.279284
52.210531 -57.160692 10.79975
50.796553 -57.000428 10.310392
52.811594 -56.954979 10.141571
52.210531 -57.160692 10.79975
52.784693 -57.035544 9.247673
53.761307 -56.945516 9.66192
52.811594 -56.954979 10.141571
43.562669 -57.983505 8.824778
44.724098 -57.542528 8.67529
43.642393 -58.6075 8.136852
43.562669 -57.983505 8.824778
43.829165 -59.331345 7.66679
44.881164 -58.759421 7.341469
43.642393 -58.6075 8.136852
44.194109 -60.098425 7.092404
43.829165 -59.331345 7.66679
44.600464 -60.828015 6.798151
45.474291 -60.212855 6.577154
44.194109 -60.098425 7.092404
43.891498 -61.385796 6.787209
45.171681 -61.500225 6.271959
44.600464 -60.828015 6.798151
43.284143 -62.22734 6.707164
43.891498 -61.385796 6.787209
43.804686 -62.886617 6.219292
43.284143 -62.22734 6.707164
45.228177 -42.803299 11.185921
44.89032 -44.150169 11.179139
45.207956 -42.180248 10.458576
45.228177 -42.803299 11.185921
44.94738 -42.991863 9.645644
45.207956 -42.180248 10.458576
45.52772 -43.666514 8.781462
44.94738 -42.991863 9.645644
45.527006 -44.223044 9.549613
46.099345 -44.428137 7.960786
45.519718 -43.196956 8.056817
45.52772 -43.666514 8.781462
45.045252 -41.398872 7.619115
44.903712 -41.330904 6.588163
44.986452 -42.342655 7.841503
45.045252 -41.398872 7.619115
45.519718 -43.196956 8.056817
45.558077 -43.104278 7.020827
44.986452 -42.342655 7.841503
43.608002 -63.763176 2.432383
44.16304 -63.464875 3.135168
44.301143 -62.19988 2.219511
43.608002 -63.763176 2.432383
42.979969 -63.693953 1.885441
43.109953 -62.240236 0.850154
42.645437 -64.100187 1.299223
44.985355 -60.910116 1.205681
43.109953 -62.240236 0.850154
44.422198 -61.019695 0.383265
48.952437 -58.663639 -1.970508
47.322907 -59.111015 -1.268441
50.334478 -58.126091 -2.154357
48.952437 -58.663639 -1.970508
50.251309 -58.454365 -2.888024
53.885666 -57.469189 -5.733015
52.797287 -57.932037 -4.62932
53.698519 -55.611776 -6.135218
53.885666 -57.469189 -5.733015
54.147131 -56.087046 -6.846669
53.953216 -51.413394 -8.03615
53.933769 -52.612012 -7.118018
53.979431 -53.031015 -8.167004
54.270568 -49.89738 -8.608109
54.224907 -49.478378 -7.559123
53.953216 -51.413394 -8.03615
54.304129 -48.446448 -9.264868
54.270568 -49.89738 -8.608109
54.64913 -46.831156 -9.867265
54.88726 -46.347072 -8.733479
54.304129 -48.446448 -9.264868
54.82399 -45.191912 -10.606331
54.64913 -46.831156 -9.867265
55.811735 -43.799488 -11.483338
56.220007 -43.339357 -10.212882
54.82399 -45.191912 -10.606331
55.574461 -44.530506 -12.636239
56.00292 -45.337057 -13.877299
56.970478 -42.677952 -12.242789
55.811735 -43.799488 -11.483338
55.574461 -44.530506 -12.636239
58.965962 -42.328981 -15.531818
58.370651 -43.43178 -15.046986
59.537922 -40.809182 -14.993025
58.965962 -42.328981 -15.531818
59.142678 -41.183466 -15.901616
57.08298 -38.565922 -16.641751
57.482602 -38.263115 -15.942476
57.000586 -40.394718 -16.769273
56.907858 -36.854039 -16.352489
57.08298 -38.565922 -16.641751
56.425843 -38.985641 -17.179286
56.096552 -35.487091 -17.527141
56.59972 -35.285347 -16.977605
55.747553 -37.475502 -17.43956
55.021145 -35.449892 -17.650842
55.873312 -33.259737 -17.188887
56.096552 -35.487091 -17.527141
54.669418 -35.271151 -18.291996
55.021145 -35.449892 -17.650842
54.120632 -32.93663 -17.974533
54.669418 -35.271151 -18.291996
47.563964 -22.758838 -12.301439
46.544943 -23.367539 -11.370902
47.75839 -24.081459 -12.158621
47.563964 -22.758838 -12.301439
48.35947 -22.212131 -13.448792
48.921573 -20.205799 -14.805038
49.585425 -21.355723 -14.16349
50.56547 -20.61002 -15.160101
48.921573 -20.205799 -14.805038
48.623457 -18.89179 -15.074181
49.694687 -16.204988 -17.866419
50.518734 -17.35622 -17.166126
51.403881 -16.52563 -18.204531
49.873883 -14.117177 -19.229726
51.716045 -14.306852 -19.733534
51.010094 -13.04963 -20.058436
49.292782 -14.918575 -18.054756
49.873883 -14.117177 -19.229726
49.694687 -16.204988 -17.866419
49.292782 -14.918575 -18.054756
50.245796 -6.294671 -23.035638
50.73716 -7.559317 -22.972615
50.245796 -6.294671 -23.035638
50.868227 -5.437272 -24.136872
51.056789 -3.142798 -25.164466
52.114317 -4.134695 -24.785661
53.167013 -2.972972 -25.633845
51.056789 -3.142798 -25.164466
50.538433 -1.871335 -24.99694
50.568359 2.59174 -26.474676
51.169583 1.4842 -26.928001
50.568359 2.59174 -26.474676
50.641997 3.467136 -27.272356
48.585515 5.886232 -26.998725
49.16619 4.964864 -27.874006
47.598612 6.472059 -28.196732
48.585515 5.886232 -26.998725
48.119408 6.389447 -29.862023
46.832636 7.197319 -29.173383
47.598612 6.472059 -28.196732
45.570091 -3.669369 -34.11862
45.186205 -2.168373 -34.617497
45.38167 -2.198558 -33.00712
45.570091 -3.669369 -34.11862
46.334013 -4.981021 -33.81925
53.388852 -16.388443 -27.357298
54.522717 -17.746343 -26.72103
53.123896 -15.1013 -26.430846
53.388852 -16.388443 -27.357298
52.546499 -15.035353 -27.851009
48.875139 -8.714511 -29.803157
49.759687 -9.04454 -28.488396
49.725121 -10.433394 -29.200401
47.963041 -8.525203 -31.073652
47.997608 -7.136349 -30.361646
48.875139 -8.714511 -29.803157
47.768355 -8.054867 -32.753195
47.963041 -8.525203 -31.073652
46.99399 -6.604764 -33.381199
47.768355 -8.054867 -32.753195
3 0 101 99
3 403 103 404
3 1 106 104
3 1 108 106
3 3 111 109
3 3 113 111
3 4 116 114
3 5 119 117
3 5 121 119
3 2 405 406
3 6 124 122
3 6 126 124
3 6 128 126
3 8 131 129
3 8 133 131
3 407 134 408
3 409 136 410
3 411 410 134
3 409 410 411
3 9 139 137
3 9 141 139
3 10 144 142
3 12 147 145
3 12 149 147
3 13 152 150
3 15 155 153
3 15 157 155
3 15 159 157
3 17 162 160
3 17 412 414
3 414 413 162
3 412 413 414
3 7 415 416
3 18 165 163
3 18 167 165
3 18 169 167
3 19 172 170
3 19 174 172
3 20 180 178
3 21 183 181
3 21 185 183
3 11 188 186
3 22 191 189
3 22 193 191
3 22 195 193
3 23 198 196
3 23 200 198
3 14 203 201
3 418 417 204
3 24 207 205
3 24 209 207
3 24 211 209
3 25 214 212
3 25 216 214
3 16 219 217
3 27 220 100
3 27 221 220
3 419 223 420
3 29 224 102
3 29 225 224
3 421 228 422
3 423 422 226
3 421 422 423
3 424 229 425
3 426 230 427
3 428 427 229
3 426 427 428
3 31 233 231
3 33 234 105
3 33 235 234
3 33 237 235
3 35 238 107
3 35 239 238
3 36 242 240
3 38 243 110
3 38 244 243
3 38 246 244
3 40 247 112
3 40 248 247
3 41 251 249
3 43 252 115
3 43 253 252
3 44 256 254
3 46 257 118
3 46 258 257
3 46 260 258
3 48 261 120
3 48 262 261
3 49 265 263
3 51 266 123
3 51 267 266
3 51 269 267
3 53 270 125
3 53 271 270
3 53 273 271
3 55 274 127
3 55 275 274
3 430 429 276
3 26 431 432
3 56 278 130
3 56 279 278
3 56 280 279
3 57 281 132
3 57 282 281
3 58 283 135
3 58 284 283
3 28 285 222
3 59 286 138
3 59 287 286
3 59 288 287
3 60 433 435
3 435 434 140
3 433 434 435
3 60 436 437
3 61 291 289
3 63 292 143
3 63 293 292
3 30 294 227
3 64 295 146
3 64 296 295
3 64 297 296
3 65 298 148
3 65 299 298
3 66 302 300
3 68 303 151
3 68 304 303
3 32 305 232
3 69 306 154
3 69 307 306
3 69 308 307
3 70 309 156
3 70 310 309
3 70 312 310
3 72 313 158
3 72 314 313
3 34 315 236
3 73 316 161
3 73 317 316
3 73 318 317
3 37 319 241
3 74 320 164
3 74 438 440
3 440 439 320
3 438 439 440
3 74 441 442
3 75 321 166
3 75 322 321
3 75 323 322
3 76 324 168
3 76 325 324
3 39 326 245
3 77 327 171
3 77 328 327
3 77 329 328
3 78 330 173
3 78 331 330
3 79 334 332
3 81 335 175
3 81 336 335
3 443 337 444
3 445 338 446
3 447 446 337
3 445 446 447
3 448 339 449
3 450 449 338
3 448 449 450
3 451 340 452
3 453 452 176
3 451 452 453
3 454 341 455
3 456 455 340
3 454 455 456
3 82 457 459
3 457 342 458
3 457 458 459
3 82 343 342
3 82 344 343
3 83 345 177
3 83 346 345
3 79 460 462
3 460 347 461
3 460 461 462
3 79 332 347
3 80 348 333
3 84 349 179
3 84 350 349
3 42 351 250
3 85 352 182
3 85 353 352
3 85 354 353
3 86 355 184
3 86 356 355
3 62 357 290
3 87 358 187
3 87 359 358
3 45 360 255
3 88 361 190
3 88 362 361
3 88 363 362
3 89 364 192
3 89 365 364
3 89 366 365
3 90 367 194
3 90 368 367
3 47 369 259
3 91 370 197
3 91 371 370
3 91 372 371
3 92 373 199
3 92 374 373
3 463 375 464
3 465 376 466
3 467 377 468
3 469 468 376
3 467 468 469
3 470 378 471
3 472 379 473
3 474 473 378
3 472 473 474
3 475 380 476
3 478 477 380
3 479 381 480
3 481 382 482
3 483 482 381
3 481 482 483
3 93 484 486
3 484 383 485
3 484 485 486
3 93 384 383
3 93 385 384
3 487 386 488
3 490 489 386
3 67 491 493
3 493 492 301
3 491 492 493
3 495 494 202
3 50 387 264
3 52 496 498
3 498 497 268
3 496 497 498
3 500 499 206
3 94 501 503
3 503 502 208
3 501 502 503
3 94 504 506
3 504 388 505
3 504 505 506
3 94 389 388
3 95 390 210
3 95 391 390
3 54 392 272
3 96 393 213
3 96 394 393
3 96 395 394
3 97 396 215
3 97 507 509
3 509 508 396
3 507 508 509
3 71 397 311
3 98 398 218
3 98 399 398
3 510 400 511
3 512 511 277
3 510 511 512
3 513 401 514
3 515 402 516
3 517 516 401
3 515 516 517
3 519 518 402
3 99 520 522
3 520 100 521
3 520 521 522
3 101 100 99
3 101 27 100
3 523 102 524
3 103 525 527
3 525 102 526
3 525 526 527
3 103 29 102
3 104 105 31
3 106 105 104
3 106 33 105
3 106 107 33
3 108 107 106
3 108 35 107
3 109 110 36
3 111 110 109
3 111 38 110
3 111 112 38
3 113 112 111
3 113 40 112
3 114 115 41
3 116 115 114
3 116 43 115
3 117 118 44
3 119 118 117
3 119 46 118
3 119 120 46
3 121 120 119
3 121 48 120
3 122 123 49
3 124 123 122
3 124 51 123
3 124 125 51
3 126 125 124
3 126 53 125
3 126 127 53
3 128 127 126
3 128 55 127
3 129 130 26
3 131 130 129
3 131 56 130
3 131 132 56
3 133 132 131
3 133 57 132
3 134 528 529
3 134 530 531
3 134 532 534
3 532 135 533
3 532 533 534
3 136 135 134
3 136 58 135
3 137 138 28
3 139 138 137
3 139 59 138
3 139 140 59
3 141 140 139
3 141 60 140
3 142 143 61
3 144 143 142
3 144 63 143
3 145 146 30
3 147 146 145
3 147 64 146
3 147 148 64
3 149 148 147
3 149 65 148
3 150 151 66
3 152 151 150
3 152 68 151
3 153 154 32
3 155 154 153
3 155 69 154
3 155 156 69
3 157 156 155
3 157 70 156
3 157 158 70
3 159 158 157
3 159 72 158
3 160 161 34
3 162 161 160
3 162 73 161
3 162 535 537
3 537 536 73
3 535 536 537
3 539 538 162
3 163 164 37
3 165 164 163
3 165 74 164
3 165 166 74
3 167 166 165
3 167 75 166
3 167 168 75
3 169 168 167
3 169 76 168
3 170 171 39
3 172 171 170
3 172 77 171
3 172 173 77
3 174 173 172
3 174 78 173
3 540 175 541
3 542 541 79
3 540 541 542
3 543 175 544
3 545 81 546
3 547 546 175
3 545 546 547
3 548 176 549
3 550 176 551
3 553 552 176
3 554 82 555
3 556 177 557
3 558 557 82
3 556 557 558
3 559 177 560
3 561 83 562
3 563 562 177
3 561 562 563
3 564 79 565
3 178 179 80
3 180 179 178
3 180 84 179
3 181 182 42
3 183 182 181
3 183 85 182
3 183 184 85
3 185 184 183
3 185 86 184
3 186 187 62
3 188 187 186
3 188 87 187
3 189 190 45
3 191 190 189
3 191 88 190
3 191 192 88
3 193 192 191
3 193 89 192
3 193 194 89
3 195 194 193
3 195 90 194
3 196 197 47
3 198 197 196
3 198 91 197
3 198 199 91
3 200 199 198
3 200 92 199
3 566 93 567
3 569 568 93
3 201 202 67
3 203 202 201
3 203 570 572
3 572 571 202
3 570 571 572
3 204 573 575
3 575 574 50
3 573 574 575
3 577 576 204
3 205 206 52
3 207 206 205
3 207 578 580
3 580 579 206
3 578 579 580
3 207 581 583
3 581 208 582
3 581 582 583
3 209 208 207
3 209 94 208
3 209 210 94
3 211 210 209
3 211 95 210
3 212 213 54
3 214 213 212
3 214 96 213
3 214 215 96
3 216 215 214
3 216 97 215
3 217 218 71
3 219 218 217
3 219 98 218
3 584 26 585
3 100 586 587
3 220 588 590
3 590 589 100
3 588 589 590
3 220 591 593
3 591 26 592
3 591 592 593
3 220 129 26
3 221 129 220
3 221 8 129
3 594 222 595
3 223 596 598
3 596 222 597
3 596 597 598
3 223 28 222
3 102 599 601
3 599 223 600
3 599 600 601
3 224 223 102
3 224 28 223
3 224 137 28
3 225 137 224
3 225 9 137
3 226 227 10
3 228 227 226
3 228 30 227
3 602 228 603
3 229 604 606
3 604 228 605
3 604 605 606
3 229 30 228
3 229 145 30
3 230 145 229
3 230 12 145
3 231 232 13
3 233 232 231
3 233 32 232
3 105 233 31
3 234 233 105
3 234 32 233
3 234 153 32
3 235 153 234
3 235 15 153
3 235 236 15
3 237 236 235
3 237 34 236
3 107 237 33
3 238 237 107
3 238 34 237
3 238 160 34
3 239 160 238
3 239 17 160
3 240 241 7
3 242 241 240
3 242 37 241
3 110 242 36
3 243 242 110
3 243 37 242
3 243 163 37
3 244 163 243
3 244 18 163
3 244 245 18
3 246 245 244
3 246 39 245
3 112 246 38
3 247 246 112
3 247 39 246
3 247 170 39
3 248 170 247
3 248 19 170
3 249 250 20
3 251 250 249
3 251 42 250
3 115 251 41
3 252 251 115
3 252 42 251
3 252 181 42
3 253 181 252
3 253 21 181
3 254 255 11
3 256 255 254
3 256 45 255
3 118 256 44
3 257 256 118
3 257 45 256
3 257 189 45
3 258 189 257
3 258 22 189
3 258 259 22
3 260 259 258
3 260 47 259
3 120 260 46
3 261 260 120
3 261 47 260
3 261 196 47
3 262 196 261
3 262 23 196
3 263 264 14
3 265 264 263
3 265 50 264
3 123 265 49
3 266 265 123
3 266 50 265
3 266 204 50
3 267 204 266
3 267 607 609
3 609 608 204
3 607 608 609
3 267 610 612
3 610 268 611
3 610 611 612
3 269 268 267
3 269 52 268
3 125 269 51
3 270 269 125
3 270 52 269
3 270 205 52
3 271 205 270
3 271 24 205
3 271 272 24
3 273 272 271
3 273 54 272
3 127 273 53
3 274 273 127
3 274 54 273
3 274 212 54
3 275 212 274
3 275 25 212
3 276 277 16
3 613 277 614
3 615 614 276
3 613 614 615
3 617 616 277
3 618 7 619
3 130 620 622
3 622 621 26
3 620 621 622
3 278 623 625
3 625 624 130
3 623 624 625
3 278 626 627
3 278 628 629
3 279 630 632
3 632 631 278
3 630 631 632
3 279 633 635
3 633 7 634
3 633 634 635
3 279 240 7
3 280 240 279
3 280 36 240
3 132 280 56
3 281 280 132
3 281 36 280
3 281 109 36
3 282 109 281
3 282 3 109
3 135 636 637
3 283 638 640
3 640 639 135
3 638 639 640
3 283 641 642
3 283 643 644
3 284 645 647
3 647 646 283
3 645 646 647
3 284 648 649
3 222 650 652
3 650 136 651
3 650 651 652
3 285 136 222
3 285 58 136
3 138 285 28
3 286 285 138
3 286 58 285
3 286 284 58
3 287 284 286
3 287 653 655
3 655 654 284
3 653 654 655
3 287 656 657
3 288 658 660
3 660 659 287
3 658 659 660
3 288 661 662
3 140 288 59
3 663 288 664
3 665 664 140
3 663 664 665
3 667 666 288
3 289 290 4
3 291 290 289
3 291 62 290
3 143 291 61
3 292 291 143
3 292 62 291
3 292 186 62
3 293 186 292
3 293 11 186
3 227 144 10
3 294 144 227
3 294 63 144
3 146 294 30
3 295 294 146
3 295 63 294
3 295 293 63
3 296 293 295
3 296 11 293
3 296 254 11
3 297 254 296
3 297 44 254
3 148 297 64
3 298 297 148
3 298 44 297
3 298 117 44
3 299 117 298
3 299 5 117
3 300 301 2
3 302 301 300
3 302 67 301
3 151 302 66
3 303 302 151
3 303 67 302
3 303 201 67
3 304 201 303
3 304 14 201
3 232 152 13
3 305 152 232
3 305 68 152
3 154 305 32
3 306 305 154
3 306 68 305
3 306 304 68
3 307 304 306
3 307 14 304
3 307 263 14
3 308 263 307
3 308 49 263
3 156 308 69
3 309 308 156
3 309 49 308
3 309 122 49
3 310 122 309
3 310 6 122
3 310 311 6
3 312 311 310
3 312 71 311
3 158 312 70
3 313 312 158
3 313 71 312
3 313 217 71
3 314 217 313
3 314 16 217
3 236 159 15
3 315 159 236
3 315 72 159
3 161 315 34
3 316 315 161
3 316 72 315
3 316 314 72
3 317 314 316
3 317 16 314
3 317 276 16
3 318 276 317
3 318 668 670
3 670 669 276
3 668 669 670
3 671 318 672
3 673 672 73
3 671 672 673
3 674 318 675
3 677 676 318
3 678 2 679
3 241 680 682
3 682 681 7
3 680 681 682
3 319 683 685
3 685 684 241
3 683 684 685
3 319 686 687
3 164 319 37
3 320 319 164
3 320 688 690
3 690 689 319
3 688 689 690
3 320 691 692
3 694 693 320
3 166 695 697
3 697 696 74
3 695 696 697
3 321 698 700
3 700 699 166
3 698 699 700
3 321 701 702
3 321 703 704
3 322 705 707
3 707 706 321
3 705 706 707
3 322 708 710
3 708 2 709
3 708 709 710
3 322 300 2
3 323 300 322
3 323 66 300
3 168 323 75
3 324 323 168
3 324 66 323
3 324 150 66
3 325 150 324
3 325 13 150
3 245 169 18
3 326 169 245
3 326 76 169
3 171 326 39
3 327 326 171
3 327 76 326
3 327 325 76
3 328 325 327
3 328 13 325
3 328 231 13
3 329 231 328
3 329 31 231
3 173 329 77
3 330 329 173
3 330 31 329
3 330 104 31
3 331 104 330
3 331 1 104
3 332 333 0
3 334 333 332
3 334 80 333
3 175 334 79
3 335 334 175
3 335 80 334
3 335 178 80
3 336 178 335
3 336 20 178
3 711 81 712
3 337 713 714
3 337 715 717
3 715 81 716
3 715 716 717
3 337 336 81
3 338 336 337
3 338 20 336
3 338 249 20
3 339 249 338
3 339 41 249
3 176 718 720
3 718 339 719
3 718 719 720
3 340 339 176
3 340 41 339
3 340 114 41
3 341 114 340
3 341 4 114
3 342 721 722
3 342 723 724
3 342 725 727
3 725 341 726
3 725 726 727
3 343 341 342
3 343 4 341
3 343 289 4
3 344 289 343
3 344 61 289
3 177 344 82
3 345 344 177
3 345 61 344
3 345 142 61
3 346 142 345
3 346 10 142
3 728 83 729
3 730 83 731
3 732 346 733
3 734 733 83
3 732 733 734
3 735 346 736
3 737 10 738
3 739 738 346
3 737 738 739
3 740 226 741
3 742 741 10
3 740 741 742
3 743 226 744
3 746 745 226
3 347 747 748
3 347 749 750
3 347 751 752
3 332 753 755
3 755 754 347
3 753 754 755
3 332 756 758
3 756 0 757
3 756 757 758
3 759 99 760
3 761 99 762
3 763 0 764
3 765 764 99
3 763 764 765
3 333 101 0
3 348 101 333
3 348 27 101
3 179 348 80
3 349 348 179
3 349 27 348
3 349 221 27
3 350 221 349
3 350 8 221
3 250 180 20
3 351 180 250
3 351 84 180
3 182 351 42
3 352 351 182
3 352 84 351
3 352 350 84
3 353 350 352
3 353 8 350
3 353 133 8
3 354 133 353
3 354 57 133
3 184 354 85
3 355 354 184
3 355 57 354
3 355 282 57
3 356 282 355
3 356 3 282
3 290 116 4
3 357 116 290
3 357 43 116
3 187 357 62
3 358 357 187
3 358 43 357
3 358 253 43
3 359 253 358
3 359 21 253
3 255 188 11
3 360 188 255
3 360 87 188
3 190 360 45
3 361 360 190
3 361 87 360
3 361 359 87
3 362 359 361
3 362 21 359
3 362 185 21
3 363 185 362
3 363 86 185
3 192 363 88
3 364 363 192
3 364 86 363
3 364 356 86
3 365 356 364
3 365 3 356
3 365 113 3
3 366 113 365
3 366 40 113
3 194 366 89
3 367 366 194
3 367 40 366
3 367 248 40
3 368 248 367
3 368 19 248
3 259 195 22
3 369 195 259
3 369 90 195
3 197 369 47
3 370 369 197
3 370 90 369
3 370 368 90
3 371 368 370
3 371 19 368
3 371 174 19
3 372 174 371
3 372 78 174
3 199 372 91
3 373 372 199
3 373 78 372
3 373 331 78
3 374 331 373
3 374 1 331
3 766 230 767
3 375 768 770
3 768 230 769
3 768 769 770
3 375 12 230
3 771 375 772
3 376 773 775
3 773 375 774
3 773 774 775
3 376 12 375
3 376 149 12
3 377 149 376
3 377 65 149
3 776 377 777
3 378 778 780
3 778 377 779
3 778 779 780
3 378 65 377
3 378 299 65
3 379 299 378
3 379 5 299
3 781 379 782
3 380 783 785
3 783 379 784
3 783 784 785
3 380 5 379
3 380 121 5
3 786 121 787
3 788 787 380
3 786 787 788
3 789 48 790
3 791 790 121
3 789 790 791
3 792 48 793
3 794 262 795
3 796 795 48
3 794 795 796
3 797 262 798
3 799 23 800
3 801 800 262
3 799 800 801
3 381 802 803
3 381 804 806
3 804 23 805
3 804 805 806
3 381 200 23
3 382 200 381
3 382 92 200
3 807 382 808
3 383 809 811
3 809 382 810
3 809 810 811
3 383 92 382
3 383 374 92
3 384 374 383
3 384 1 374
3 384 108 1
3 385 108 384
3 385 35 108
3 812 385 813
3 814 813 93
3 812 813 814
3 386 815 817
3 815 385 816
3 815 816 817
3 386 35 385
3 386 239 35
3 818 239 819
3 820 819 386
3 818 819 820
3 821 17 822
3 823 822 239
3 821 822 823
3 824 17 825
3 827 826 17
3 301 828 830
3 830 829 2
3 828 829 830
3 832 831 301
3 202 833 835
3 835 834 67
3 833 834 835
3 837 836 202
3 264 203 14
3 387 203 264
3 387 838 840
3 840 839 203
3 838 839 840
3 841 387 842
3 843 842 50
3 841 842 843
3 844 387 845
3 847 846 387
3 268 848 849
3 851 850 268
3 206 852 854
3 854 853 52
3 852 853 854
3 856 855 206
3 208 857 858
3 860 859 208
3 388 861 862
3 388 863 864
3 388 865 867
3 865 103 866
3 865 866 867
3 389 103 388
3 389 29 103
3 210 389 94
3 390 389 210
3 390 29 389
3 390 225 29
3 391 225 390
3 391 9 225
3 272 211 24
3 392 211 272
3 392 95 211
3 213 392 54
3 393 392 213
3 393 95 392
3 393 391 95
3 394 391 393
3 394 9 391
3 394 141 9
3 395 141 394
3 395 60 141
3 215 395 96
3 396 395 215
3 396 60 395
3 396 868 870
3 870 869 60
3 868 869 870
3 872 871 396
3 311 128 6
3 397 128 311
3 397 55 128
3 218 397 71
3 398 397 218
3 398 55 397
3 398 275 55
3 399 275 398
3 399 25 275
3 277 219 16
3 400 219 277
3 400 98 219
3 873 400 874
3 401 875 877
3 875 400 876
3 875 876 877
3 401 98 400
3 401 399 98
3 402 399 401
3 402 25 399
3 402 216 25
3 878 216 879
3 880 879 402
3 878 879 880
3 881 97 882
3 883 882 216
3 881 882 883
3 884 97 885
3 887 886 97
