ply
format ascii 1.0
element vertex 639
property float x
property float y
property float z
element face 754
property list uchar int vertex_index
end_header
-35.546673 -23.495075 -23.119621
-42.706806 -64.533554 -18.89942
-35.582447 -43.8685 -21.852894
-27.559677 -66.125626 -5.194213
-35.277695 -41.365887 -10.725772
-29.754889 -68.888817 -13.541179
-27.526611 -58.537617 -14.604831
-38.799469 -53.531384 -19.971779
-33.491241 -14.685613 -31.242321
-40.782822 -17.265039 -23.380718
-40.812988 -60.097401 -11.132191
-41.76284 -48.317879 -15.37115
-43.014366 -38.955479 -21.490011
-42.937439 -30.965521 -20.791815
-35.573425 -32.639359 -25.752552
-32.340473 -54.152405 -9.5535
-29.194996 -42.780151 -18.26861
-36.845158 -31.8971 -18.223808
-35.676994 -73.07029 -16.306149
-29.351376 -74.610748 -13.254129
-36.019547 -66.542458 -15.65737
-34.766914 -61.123451 -15.476224
-41.119316 -58.616112 -20.442509
-35.1516 -11.999159 -33.562641
-32.413521 -9.518183 -32.015053
-39.254601 -65.265396 -8.880426
-42.39164 -58.1903 -6.67486
-42.162327 -42.396782 -17.097332
-42.602112 -24.609995 -21.571085
-29.979359 -59.920876 -7.315335
-30.093121 -50.418896 -17.563246
-26.403194 -50.014729 -15.928474
-29.291698 -43.194588 -20.433651
-30.511871 -37.144772 -22.960468
-34.621147 -38.101601 -23.801676
-36.683346 -36.783176 -14.886658
-26.62804 -80.828751 -7.844196
-28.323269 -75.727364 -7.062066
-30.333878 -69.226288 -7.490773
-31.116863 -63.171989 -9.40132
-29.400904 -64.312866 -14.025381
-32.098248 -56.400978 -16.292126
-36.651287 -48.569214 -19.847225
-41.503448 -71.186203 -17.279774
-35.115372 -19.01379 -29.096634
-36.68383 -15.05324 -28.059778
-38.655777 -19.978867 -23.452383
-40.858685 -68.201736 -13.32034
-43.300121 -62.710472 -15.877619
-41.243637 -54.79464 -14.344586
-43.593071 -56.050323 -19.435698
-41.531769 -50.91523 -19.505281
-39.637596 -45.260303 -19.791002
-40.696888 -40.984062 -23.454662
-43.179768 -36.031525 -22.596031
-39.215866 -37.077999 -22.323109
-39.493263 -32.13969 -23.504766
-39.985172 -26.524902 -22.674417
-37.690712 -27.785862 -25.729095
-31.844797 -51.406147 -6.397187
-34.595348 -47.685398 -10.049529
-29.76535 -56.499146 -12.656733
-30.919668 -49.12154 -13.866364
-35.254902 -43.155544 -15.075793
-34.733021 -38.03632 -19.751257
-34.960793 -32.013832 -23.481813
-36.931141 -26.996365 -21.245703
-39.559654 -69.34124 -17.831406
-36.014915 -69.878738 -16.312611
-39.603951 -65.392563 -17.556919
-39.111469 -62.345512 -17.761868
-42.415955 -61.33622 -19.844547
-33.40062 -8.56105 -34.125278
-28.723455 -62.895008 -6.122791
-32.939594 -46.283379 -19.101662
-29.426901 -46.772423 -18.804348
-32.332642 -43.474041 -20.809734
-31.901524 -40.73719 -22.296204
-35.073547 -41.16909 -22.758698
-36.20536 -39.217606 -12.813013
-28.658306 -80.161789 -9.842939
-29.002466 -71.632957 -13.552394
-29.035938 -75.307419 -10.021105
-29.391516 -72.288101 -10.115545
-29.11198 -72.640854 -7.123038
-30.37347 -69.368271 -10.602175
-30.685236 -66.621536 -11.085165
-29.944223 -66.390747 -13.732368
-37.114845 -57.168739 -17.601849
-33.496704 -58.854744 -15.722757
-36.022503 -54.498528 -17.395231
-34.917271 -51.959145 -17.313007
-37.706703 -51.204689 -19.717014
-37.906425 -74.774307 -16.701553
-40.205574 -73.869713 -16.57015
-34.140385 -13.659871 -32.692524
-36.135185 -13.331927 -31.094666
-35.404305 -15.995995 -31.309107
-36.416679 -17.309195 -29.018421
-34.329182 -17.173243 -30.408072
-40.414398 -62.593117 -10.039429
-39.94482 -66.942963 -11.290126
-41.440388 -63.887321 -12.485799
-42.140343 -65.533447 -14.631475
-41.874329 -61.562176 -13.628123
-42.802235 -47.937141 -13.483986
-42.290001 -50.961945 -12.842786
-41.806519 -51.680492 -15.366682
-42.3255 -55.860756 -17.147223
-42.552448 -52.178711 -17.858986
-42.964211 -53.224525 -19.859289
-41.537998 -49.537891 -17.389448
-42.519005 -40.184315 -19.132971
-40.673286 -43.548592 -18.416094
-41.096687 -41.255474 -20.314363
-40.179802 -42.970078 -21.855724
-41.772182 -39.784695 -22.414278
-43.280861 -33.68972 -21.75812
-41.385502 -36.315468 -22.016895
-41.188103 -34.126945 -22.360859
-39.291294 -34.651985 -23.493053
-40.990631 -31.677881 -21.92931
-41.953537 -20.765945 -22.225155
-40.979492 -25.478798 -21.638708
-40.546135 -21.877859 -22.009459
-39.72892 -22.947857 -22.619457
-39.436058 -18.628635 -22.899101
-30.852062 -55.657215 -7.41961
-32.540035 -52.80191 -7.798476
-33.63929 -49.589485 -7.951974
-33.433372 -50.958961 -9.840296
-29.731663 -61.030052 -12.35637
-30.683002 -59.971069 -11.103064
-28.457169 -57.483959 -13.470398
-27.326452 -46.035858 -16.95116
-28.050894 -49.435387 -14.942141
-29.809315 -46.282902 -15.947752
-33.00172 -46.180668 -14.708551
-32.432308 -43.320774 -16.97459
-35.038059 -40.592575 -17.426111
-31.963146 -40.49424 -19.293123
-32.59161 -34.207146 -24.973602
-32.556206 -34.444546 -23.549299
-34.048908 -31.598114 -25.407627
-35.638489 -29.603241 -25.212589
-36.669353 -30.051029 -25.9708
-34.768303 -30.755457 -17.326181
-34.71394 -28.467447 -18.819998
-34.612438 -25.957409 -20.453686
-36.852936 -29.428036 -19.766945
-32.762123 -75.962814 -13.817827
-30.323902 -76.890343 -12.074743
-32.182552 -73.474266 -15.20434
-31.928289 -70.652634 -15.628963
-32.321823 -67.844681 -15.650909
-32.018738 -65.301346 -15.788397
-35.546566 -63.712891 -15.632666
-38.159111 -59.663643 -17.892963
-39.851311 -56.076366 -20.343344
-33.645214 -11.071666 -33.391773
-32.919281 -12.036033 -31.617609
-39.938042 -63.437614 -6.513383
-40.380058 -61.316998 -7.479105
-40.621307 -58.973061 -8.545305
-43.388187 -44.430519 -14.553751
-41.706245 -45.238121 -15.744905
-44.138569 -41.873573 -16.521667
-44.409306 -40.036785 -18.955072
-44.628666 -38.914619 -21.388409
-42.758373 -27.993256 -21.020512
-43.324158 -20.14204 -23.513708
-28.686878 -58.066582 -7.296528
-31.076483 -57.244152 -8.660701
-27.690491 -54.926716 -16.326033
-26.569683 -54.469624 -15.109503
-27.129963 -50.819214 -16.938927
-27.243982 -46.474506 -18.029905
-28.027552 -42.795174 -19.481247
-29.370533 -39.966351 -20.657461
-29.65831 -40.009697 -21.9112
-31.832272 -37.602646 -23.913811
-34.678913 -35.199715 -25.014484
-34.796829 -33.192513 -15.878972
-36.893524 -34.448383 -16.669437
-29.040537 -78.035118 -9.694643
-27.588373 -78.620331 -6.995908
-27.864328 -71.726501 -4.883954
-29.300257 -68.109398 -5.450456
-30.14024 -64.891479 -6.423284
-30.871744 -66.207535 -8.231599
-30.47489 -63.828197 -11.654399
-28.625788 -61.823383 -14.307617
-31.118 -62.984901 -15.925662
-30.017706 -60.887859 -16.138592
-28.712627 -58.262444 -16.153522
-31.002029 -53.599487 -16.782761
-33.859001 -49.042061 -17.741709
-36.073849 -46.226059 -20.813354
-34.067741 -43.217178 -8.638515
-35.352535 -75.535881 -15.403116
-38.959328 -72.328995 -17.476889
-42.301701 -68.013535 -17.973495
-30.625244 -12.039531 -30.98679
-31.472931 -14.267157 -30.361191
-32.434803 -16.698698 -29.817673
-35.816662 -20.447693 -27.509512
-38.424564 -14.984991 -25.008574
-37.484711 -16.946959 -25.326813
-37.121391 -18.851234 -26.352777
-38.249374 -21.208569 -23.754789
-39.011471 -69.984886 -9.872259
-40.411457 -72.343605 -14.320379
-41.579315 -69.736458 -15.429792
-43.005207 -66.959801 -16.460081
-44.158394 -63.974171 -17.856892
-42.733948 -55.551556 -7.996603
-40.87574 -56.149403 -9.863433
-41.446789 -53.549469 -11.475889
-40.981304 -57.536945 -12.627739
-42.029301 -58.842602 -15.403218
-43.670097 -59.800453 -17.902184
-44.221699 -60.20755 -19.870012
-43.297539 -57.188782 -20.86969
-42.156891 -54.555542 -21.181213
-41.020569 -52.078747 -21.009808
-40.708305 -46.593853 -17.415993
-40.257576 -48.31646 -18.934101
-39.667603 -49.788902 -20.421291
-38.766491 -47.071075 -21.075459
-38.756737 -44.860073 -22.439651
-38.593678 -42.677025 -23.316051
-43.483589 -37.696911 -22.894482
-41.734089 -38.124561 -22.521917
-39.950493 -39.374886 -22.696949
-37.705208 -40.550392 -23.130215
-37.242329 -37.695881 -23.49732
-37.326828 -35.173706 -24.430628
-37.82452 -32.585762 -25.008615
-40.974705 -28.876398 -21.764629
-39.649826 -29.370808 -23.241444
-38.392944 -29.722378 -24.745476
-39.204929 -27.174774 -24.077808
-39.29644 -24.45747 -23.47414
-38.178581 -25.841181 -25.177597
-32.498146 -48.203465 -6.549365
-34.267361 -46.363312 -8.112233
-35.465485 -44.440624 -10.233926
-31.035793 -61.787415 -7.986394
-31.164722 -58.746735 -10.012085
-31.059626 -55.32682 -11.435325
-27.453571 -53.442589 -14.163936
-29.482372 -52.417206 -13.406126
-31.88764 -51.832897 -11.915326
-33.45237 -48.538361 -12.257575
-35.122017 -45.521202 -12.542497
-36.335297 -42.187412 -12.76136
-36.703979 -40.002556 -15.023077
-36.808922 -37.626095 -17.217041
-36.653503 -35.112274 -19.155294
-31.746876 -37.644753 -21.509731
-34.561539 -35.179516 -21.625683
-36.580536 -32.315422 -20.940077
-36.800629 -29.614094 -22.480734
-37.003521 -27.684586 -24.048222
-36.805981 -25.196211 -22.294521
-34.569443 -23.98609 -22.361071
-25.95899 -66.918411 -5.697382
-26.736193 -68.06723 -4.778777
-26.77231 -65.045229 -6.01148
-25.95899 -66.918411 -5.697382
-28.141566 -64.510317 -5.658502
-27.354199 -63.42992 -6.475769
-26.77231 -65.045229 -6.01148
-34.727461 -39.591093 -11.614144
-34.217116 -40.711489 -10.665306
-35.741528 -40.291747 -11.769392
-35.191294 -38.516953 -12.657764
-34.727461 -39.591093 -11.614144
-29.724498 -79.759338 -10.650395
-27.823578 -81.371017 -10.629379
-39.812449 -74.759686 -15.847223
-38.827934 -75.209767 -16.197578
-43.10915 -32.327621 -21.274968
-44.172142 -32.133204 -21.569114
-44.000431 -30.771104 -21.085961
-41.014664 -62.632271 -5.920275
-39.98773 -64.432652 -6.190914
-41.064352 -63.627308 -5.597806
-41.385849 -59.753649 -7.076982
-41.298553 -60.759844 -6.705462
-42.304344 -59.196495 -6.30334
-44.784481 -43.252684 -15.744601
-44.477655 -44.707128 -14.391933
-45.159672 -41.97421 -16.728558
-43.763378 -43.152046 -15.537709
-44.784481 -43.252684 -15.744601
-45.195998 -39.74963 -20.593847
-45.301573 -40.298849 -19.336606
-45.305678 -39.188547 -21.810516
-44.518986 -39.475702 -20.17174
-45.195998 -39.74963 -20.593847
-43.335194 -18.330133 -24.977224
-43.866848 -20.107047 -24.479768
-42.729435 -18.330888 -24.014522
-43.335194 -18.330133 -24.977224
-29.333118 -58.993729 -7.305931
-27.925313 -59.380325 -7.267262
-28.571554 -60.307473 -7.276666
-35.740088 -34.987844 -15.382815
-34.724062 -34.382098 -15.085921
-35.667321 -36.177429 -14.589764
-24.864708 -81.878285 -7.742342
-24.119295 -82.908104 -8.727811
-25.882627 -81.85857 -8.829666
-25.318818 -80.802788 -7.033905
-24.864708 -81.878285 -7.742342
-26.838966 -77.043633 -6.205002
-26.471519 -78.490116 -6.171923
-27.955821 -77.173847 -7.028987
-27.390461 -75.441906 -5.980767
-26.838966 -77.043633 -6.205002
-33.231976 -44.196043 -7.782834
-32.985884 -42.515436 -8.764256
-32.150119 -43.494301 -7.908575
-35.385576 -76.299892 -14.737735
-34.295799 -76.756291 -13.877154
-29.665721 -13.408431 -31.025307
-29.185738 -12.466476 -31.556216
-30.089565 -14.522244 -30.712508
-31.049087 -13.153344 -30.673991
-29.665721 -13.408431 -31.025307
-31.820823 -17.837412 -29.371021
-31.141505 -16.773526 -29.93179
-32.968664 -17.851651 -29.407621
-31.820823 -17.837412 -29.371021
-35.953383 -11.355868 -32.173428
-35.602726 -10.7652 -33.600849
-37.074965 -13.804517 -27.964706
-36.800642 -12.943861 -29.482149
-36.409508 -14.192584 -29.577222
-37.554197 -15.019116 -26.534176
-37.945331 -13.770393 -26.439104
-37.074965 -13.804517 -27.964706
-39.133036 -67.625141 -9.376342
-38.979692 -68.898026 -8.855934
-39.101258 -66.53828 -8.360017
-40.106051 -69.555816 -12.701322
-39.649118 -68.92643 -11.686215
-40.401753 -67.57235 -12.305233
-40.635071 -70.272671 -13.82036
-39.882436 -71.626751 -13.201342
-40.106051 -69.555816 -12.701322
-43.001165 -54.320726 -8.885426
-44.345552 -54.591482 -8.923813
-42.072062 -54.61965 -9.818841
-41.804844 -55.850479 -8.930018
-43.001165 -54.320726 -8.885426
-43.910265 -35.878842 -23.380844
-44.079255 -34.741186 -22.408748
-43.331679 -36.864218 -22.745256
-44.062176 -36.711534 -23.530069
-43.910265 -35.878842 -23.380844
-30.509648 -52.367682 -5.898186
-31.116129 -52.811689 -6.399898
-31.011421 -50.775818 -5.950031
-30.509648 -52.367682 -5.898186
-32.171471 -49.804806 -6.473276
-31.338096 -49.174477 -6.02612
-31.011421 -50.775818 -5.950031
-33.357543 -7.327233 -34.600889
-33.510616 -8.225637 -35.225485
-32.639211 -7.866919 -33.400391
-33.357543 -7.327233 -34.600889
-32.145662 -8.345486 -32.345278
-32.907071 -9.039617 -33.070166
-32.639211 -7.866919 -33.400391
-43.798653 -58.131899 -6.714003
-42.304344 -59.196495 -6.30334
-27.943601 -61.794539 -6.680394
-27.354199 -63.42992 -6.475769
-29.351407 -61.407942 -6.719063
-28.571554 -60.307473 -7.276666
-27.943601 -61.794539 -6.680394
-35.428327 -37.394644 -13.552941
-35.191294 -38.516953 -12.657764
-36.444353 -38.000391 -13.849836
-35.667321 -36.177429 -14.589764
-35.428327 -37.394644 -13.552941
-26.897759 -81.52509 -9.829037
-27.823578 -81.371017 -10.629379
-27.643173 -80.49527 -8.843567
-25.882627 -81.85857 -8.829666
-26.897759 -81.52509 -9.829037
-37.678359 -75.662063 -16.26328
-36.662521 -75.919106 -15.386954
-39.055999 -74.32201 -16.635852
-37.678359 -75.662063 -16.26328
-38.827934 -75.209767 -16.197578
-42.546118 -49.449543 -13.163386
-43.60803 -49.542379 -12.805547
-43.864148 -48.029978 -13.126148
-44.129801 -33.570284 -21.989792
-44.172142 -32.133204 -21.569114
-43.230315 -34.860623 -22.177076
-44.079255 -34.741186 -22.408748
-44.129801 -33.570284 -21.989792
-30.619761 -54.937224 -6.91111
-29.451233 -56.052139 -7.158079
-31.463748 -53.509571 -7.100542
-30.619761 -54.937224 -6.91111
-31.696049 -54.229563 -7.609043
-32.192416 -52.104028 -7.097831
-31.116129 -52.811689 -6.399898
-31.463748 -53.509571 -7.100542
-33.445329 -29.43368 -18.498542
-33.37974 -30.600196 -17.679404
-33.418148 -28.289675 -19.245451
-33.445329 -29.43368 -18.498542
-34.741122 -29.611452 -18.073089
-33.465441 -27.216265 -20.152358
-33.418148 -28.289675 -19.245451
-34.663189 -27.212428 -19.636842
-33.41469 -25.961247 -20.969202
-33.465441 -27.216265 -20.152358
-31.543013 -76.426579 -12.946285
-30.557296 -78.123615 -11.766296
-31.776407 -77.659851 -12.637839
-34.636534 -11.049943 -34.200598
-35.602726 -10.7652 -33.600849
-33.761044 -9.330889 -34.481916
-33.510616 -8.225637 -35.225485
-33.883341 -10.586196 -34.115164
-33.761044 -9.330889 -34.481916
-33.522917 -9.816358 -33.758526
-34.398407 -11.535412 -33.477207
-34.636534 -11.049943 -34.200598
-33.883341 -10.586196 -34.115164
-39.442978 -65.62439 -7.176496
-39.98773 -64.432652 -6.190914
-39.596322 -64.351505 -7.696905
-39.101258 -66.53828 -8.360017
-39.442978 -65.62439 -7.176496
-41.077545 -61.820152 -6.222601
-41.014664 -62.632271 -5.920275
-40.15905 -62.377306 -6.996244
-41.077545 -61.820152 -6.222601
-41.298553 -60.759844 -6.705462
-44.184679 -46.460439 -13.85705
-43.864148 -48.029978 -13.126148
-43.095211 -46.18383 -14.018868
-44.184679 -46.460439 -13.85705
-44.477655 -44.707128 -14.391933
-45.166204 -41.217243 -18.119903
-45.159672 -41.97421 -16.728558
-44.273938 -40.955179 -17.73837
-45.166204 -41.217243 -18.119903
-45.301573 -40.298849 -19.336606
-43.766285 -29.105675 -21.328744
-44.000431 -30.771104 -21.085961
-43.676752 -27.619543 -21.443092
-42.847906 -29.479388 -20.906163
-43.766285 -29.105675 -21.328744
-43.465757 -25.898718 -21.814698
-43.676752 -27.619543 -21.443092
-43.387626 -24.207088 -22.089984
-42.680242 -26.301626 -21.295799
-43.465757 -25.898718 -21.814698
-43.748649 -21.97311 -23.061295
-43.866848 -20.107047 -24.479768
-42.963135 -22.376018 -22.542397
-43.387626 -24.207088 -22.089984
-43.748649 -21.97311 -23.061295
-42.044124 -18.64284 -23.370245
-42.638847 -20.453992 -22.869432
-42.729435 -18.330888 -24.014522
-41.458767 -16.892387 -23.948027
-41.368179 -19.015492 -22.802937
-42.044124 -18.64284 -23.370245
-27.255546 -58.224352 -7.705045
-27.925313 -59.380325 -7.267262
-28.368641 -57.256822 -7.096539
-27.255546 -58.224352 -7.705045
-29.76947 -56.861898 -7.358069
-29.451233 -56.052139 -7.158079
-28.368641 -57.256822 -7.096539
-33.378054 -32.935467 -16.190448
-34.724062 -34.382098 -15.085921
-33.394003 -31.818724 -16.9558
-33.378054 -32.935467 -16.190448
-34.782566 -31.973985 -16.602576
-33.37974 -30.600196 -17.679404
-33.394003 -31.818724 -16.9558
-29.491104 -78.526066 -10.958841
-29.724498 -79.759338 -10.650395
-30.557296 -78.123615 -11.766296
-25.798984 -79.698578 -6.609761
-25.318818 -80.802788 -7.033905
-27.108207 -79.724541 -7.420052
-25.798984 -79.698578 -6.609761
-26.471519 -78.490116 -6.171923
-27.784816 -73.898651 -6.011254
-27.390461 -75.441906 -5.980767
-28.717624 -74.184109 -7.092552
-27.160991 -73.441474 -4.891711
-27.784816 -73.898651 -6.011254
-28.488154 -72.183678 -6.003496
-26.10926 -72.755798 -4.586279
-27.160991 -73.441474 -4.891711
-26.888518 -70.867668 -4.623647
-26.10926 -72.755798 -4.586279
-27.606482 -69.059117 -4.906898
-26.888518 -70.867668 -4.623647
-28.582293 -69.917949 -5.167205
-28.429967 -67.117512 -5.322335
-26.736193 -68.06723 -4.778777
-27.606482 -69.059117 -4.906898
-33.612139 -41.637135 -9.621678
-32.985884 -42.515436 -8.764256
-34.672718 -42.291533 -9.682143
-34.217116 -40.711489 -10.665306
-33.612139 -41.637135 -9.621678
-33.000593 -76.969757 -13.08451
-31.776407 -77.659851 -12.637839
-34.057329 -75.749347 -14.610471
-33.000593 -76.969757 -13.08451
-34.295799 -76.756291 -13.877154
-36.62948 -75.155094 -16.052335
-35.385576 -76.299892 -14.737735
-36.662521 -75.919106 -15.386954
-31.051464 -9.668476 -31.868705
-32.145662 -8.345486 -32.345278
-30.157325 -10.92915 -31.354574
-29.185738 -12.466476 -31.556216
-31.519382 -10.778857 -31.500922
-31.051464 -9.668476 -31.868705
-30.157325 -10.92915 -31.354574
-30.660569 -15.557755 -30.20355
-30.089565 -14.522244 -30.712508
-31.953867 -15.482927 -30.089432
-30.660569 -15.557755 -30.20355
-31.141505 -16.773526 -29.93179
-33.915853 -18.088923 -29.702821
-33.381993 -16.93597 -30.112873
-32.968664 -17.851651 -29.407621
-34.308948 -19.009197 -29.047102
-34.722277 -18.093516 -29.752353
-33.915853 -18.088923 -29.702821
-34.55888 -19.747789 -28.196758
-34.308948 -19.009197 -29.047102
-34.909525 -20.464741 -27.403196
-35.466017 -19.730742 -28.303073
-34.55888 -19.747789 -28.196758
-35.046453 -21.369186 -26.229094
-34.909525 -20.464741 -27.403196
-34.911459 -22.892877 -24.034148
-35.681668 -21.971384 -25.314566
-35.046453 -21.369186 -26.229094
-40.340706 -15.510872 -24.469704
-41.458767 -16.892387 -23.948027
-36.445175 -12.022251 -30.93944
-35.953383 -11.355868 -32.173428
-35.643393 -12.665543 -32.328654
-36.445175 -12.022251 -30.93944
-36.800642 -12.943861 -29.482149
-39.161577 -14.370847 -25.283632
-37.945331 -13.770393 -26.439104
-39.603693 -16.125015 -24.194646
-40.340706 -15.510872 -24.469704
-39.161577 -14.370847 -25.283632
-39.311888 -71.25655 -9.292331
-38.979692 -68.898026 -8.855934
-39.134577 -71.810051 -10.232193
-39.311888 -71.25655 -9.292331
-39.182444 -70.447392 -10.977282
-39.478145 -68.463925 -10.581193
-39.649118 -68.92643 -11.686215
-39.134577 -71.810051 -10.232193
-39.182444 -70.447392 -10.977282
-39.890141 -73.499233 -13.526259
-39.882436 -71.626751 -13.201342
-39.91539 -73.996632 -14.722337
-39.890141 -73.499233 -13.526259
-40.308515 -73.106659 -15.445265
-39.812449 -74.759686 -15.847223
-39.91539 -73.996632 -14.722337
-44.069031 -56.975364 -7.34744
-43.798653 -58.131899 -6.714003
-44.240185 -55.655992 -8.008312
-44.345552 -54.591482 -8.923813
-42.562794 -56.870928 -7.335731
-44.069031 -56.975364 -7.34744
-44.240185 -55.655992 -8.008312
-43.214569 -50.920563 -12.178643
-43.60803 -49.542379 -12.805547
-42.792963 -52.214325 -11.495195
-43.214569 -50.920563 -12.178643
-41.868395 -52.255707 -12.159337
-42.357586 -53.319683 -10.625069
-42.792963 -52.214325 -11.495195
-41.161265 -54.849436 -10.669661
-42.072062 -54.61965 -9.818841
-42.357586 -53.319683 -10.625069
-45.240773 -38.501152 -23.02113
-45.305678 -39.188547 -21.810516
-44.687847 -38.285215 -22.511725
-45.240773 -38.501152 -23.02113
-43.880697 -38.305645 -22.562526
-43.821516 -38.935049 -21.43921
-44.687847 -38.285215 -22.511725
-44.115308 -37.676361 -23.264762
-44.062176 -36.711534 -23.530069
-43.248978 -38.326195 -22.192246
-43.880697 -38.305645 -22.562526
-44.115308 -37.676361 -23.264762
-31.444207 -47.588594 -6.194803
-31.338096 -49.174477 -6.02612
-32.447178 -46.689187 -6.738259
-31.444207 -47.588594 -6.194803
-33.331786 -45.76911 -7.519693
-32.447178 -46.689187 -6.738259
-33.382753 -47.283389 -7.330799
-34.167551 -44.790245 -8.375374
-33.231976 -44.196043 -7.782834
-33.331786 -45.76911 -7.519693
-33.425584 -25.050518 -21.977214
-33.41469 -25.961247 -20.969202
-33.404087 -24.064858 -22.930906
-33.425584 -25.050518 -21.977214
-34.590941 -24.97175 -21.407379
-33.680828 -23.248216 -23.987933
-33.404087 -24.064858 -22.930906
-34.422844 -23.138385 -23.654873
-33.680828 -23.248216 -23.987933
-35.541113 -23.743445 -23.621598
-34.422844 -23.138385 -23.654873
-35.687712 -24.591151 -22.327796
-36.176327 -24.345643 -22.707071
-34.911459 -22.892877 -24.034148
-35.541113 -23.743445 -23.621598
3 1 69 67
3 1 71 69
3 3 266 267
3 3 268 269
3 3 270 272
3 270 73 271
3 270 271 272
3 2 76 74
3 2 78 76
3 4 273 274
3 4 275 277
3 275 79 276
3 275 276 277
3 278 80 279
3 5 83 81
3 5 85 83
3 5 87 85
3 7 90 88
3 7 92 90
3 280 94 281
3 8 97 95
3 8 99 97
3 10 102 100
3 10 104 102
3 11 107 105
3 11 109 107
3 11 111 109
3 12 114 112
3 12 116 114
3 13 282 284
3 282 117 283
3 282 283 284
3 13 119 117
3 13 121 119
3 9 124 122
3 9 126 124
3 15 128 127
3 15 130 128
3 6 133 131
3 16 136 134
3 16 138 136
3 16 140 138
3 14 143 141
3 14 145 143
3 17 147 146
3 17 149 147
3 18 152 150
3 20 153 68
3 20 154 153
3 20 156 154
3 22 157 70
3 22 158 157
3 24 159 72
3 24 160 159
3 285 161 286
3 285 286 287
3 26 288 290
3 288 162 289
3 288 289 290
3 26 163 162
3 291 164 292
3 293 166 294
3 295 294 164
3 293 294 295
3 296 167 297
3 298 168 299
3 300 299 167
3 298 299 300
3 301 170 302
3 304 303 170
3 29 305 307
3 305 171 306
3 305 306 307
3 29 172 171
3 30 175 173
3 32 176 75
3 32 177 176
3 32 179 177
3 34 180 77
3 34 181 180
3 35 308 310
3 308 182 309
3 308 309 310
3 35 183 182
3 36 311 313
3 311 312 313
3 36 314 315
3 19 184 151
3 37 185 82
3 37 316 318
3 318 317 185
3 316 317 318
3 37 319 320
3 38 186 84
3 38 187 186
3 38 189 187
3 40 190 86
3 40 191 190
3 21 192 155
3 41 193 89
3 41 194 193
3 41 195 194
3 42 196 91
3 42 197 196
3 321 198 322
3 321 322 323
3 324 199 325
3 43 200 93
3 43 201 200
3 326 202 327
3 328 203 329
3 330 329 202
3 328 329 330
3 331 204 332
3 334 333 204
3 23 335 336
3 45 337 339
3 339 338 96
3 337 338 339
3 45 340 342
3 340 206 341
3 340 341 342
3 45 207 206
3 44 208 98
3 44 205 208
3 25 343 345
3 343 210 344
3 343 344 345
3 47 346 348
3 348 347 101
3 346 347 348
3 47 349 351
3 349 211 350
3 349 350 351
3 47 212 211
3 48 213 103
3 48 214 213
3 352 215 353
3 354 216 355
3 356 355 215
3 354 355 356
3 49 217 106
3 49 218 217
3 49 219 218
3 50 220 108
3 50 221 220
3 50 222 221
3 51 223 110
3 51 224 223
3 27 225 165
3 52 226 113
3 52 227 226
3 52 228 227
3 53 229 115
3 53 230 229
3 54 357 358
3 54 359 361
3 359 231 360
3 359 360 361
3 54 232 231
3 55 233 118
3 55 234 233
3 55 235 234
3 56 236 120
3 56 237 236
3 28 238 169
3 57 239 123
3 57 240 239
3 57 241 240
3 46 242 125
3 46 209 242
3 59 362 363
3 59 364 365
3 59 366 368
3 366 244 367
3 366 367 368
3 60 245 129
3 60 246 245
3 39 247 188
3 61 248 132
3 61 249 248
3 31 250 174
3 62 251 135
3 62 252 251
3 62 253 252
3 63 254 137
3 63 255 254
3 63 256 255
3 64 257 139
3 64 258 257
3 33 259 178
3 65 260 142
3 65 261 260
3 65 262 261
3 58 263 144
3 58 243 263
3 66 265 148
3 66 264 265
3 67 68 18
3 69 68 67
3 69 20 68
3 69 70 20
3 71 70 69
3 71 22 70
3 369 72 370
3 371 72 372
3 373 24 374
3 375 374 72
3 373 374 375
3 376 26 377
3 73 378 379
3 73 380 382
3 380 29 381
3 380 381 382
3 74 75 30
3 76 75 74
3 76 32 75
3 76 77 32
3 78 77 76
3 78 34 77
3 79 383 384
3 79 385 387
3 385 35 386
3 385 386 387
3 80 388 389
3 80 390 392
3 390 36 391
3 390 391 392
3 81 82 19
3 83 82 81
3 83 37 82
3 83 84 37
3 85 84 83
3 85 38 84
3 85 86 38
3 87 86 85
3 87 40 86
3 88 89 21
3 90 89 88
3 90 41 89
3 90 91 41
3 92 91 90
3 92 42 91
3 393 93 394
3 94 395 397
3 395 93 396
3 395 396 397
3 94 43 93
3 95 96 23
3 97 96 95
3 97 45 96
3 97 98 45
3 99 98 97
3 99 44 98
3 100 101 25
3 102 101 100
3 102 47 101
3 102 103 47
3 104 103 102
3 104 48 103
3 105 398 400
3 398 106 399
3 398 399 400
3 107 106 105
3 107 49 106
3 107 108 49
3 109 108 107
3 109 50 108
3 109 110 50
3 111 110 109
3 111 51 110
3 112 113 27
3 114 113 112
3 114 52 113
3 114 115 52
3 116 115 114
3 116 53 115
3 117 401 402
3 117 403 405
3 403 54 404
3 403 404 405
3 117 118 54
3 119 118 117
3 119 55 118
3 119 120 55
3 121 120 119
3 121 56 120
3 122 123 28
3 124 123 122
3 124 57 123
3 124 125 57
3 126 125 124
3 126 46 125
3 127 406 407
3 128 408 410
3 410 409 127
3 408 409 410
3 128 411 413
3 411 59 412
3 411 412 413
3 128 129 59
3 130 129 128
3 130 60 129
3 131 132 39
3 133 132 131
3 133 61 132
3 134 135 31
3 136 135 134
3 136 62 135
3 136 137 62
3 138 137 136
3 138 63 137
3 138 139 63
3 140 139 138
3 140 64 139
3 141 142 33
3 143 142 141
3 143 65 142
3 143 144 65
3 145 144 143
3 145 58 144
3 146 414 415
3 147 416 418
3 418 417 146
3 416 417 418
3 147 419 420
3 147 421 423
3 421 148 422
3 421 422 423
3 149 148 147
3 149 66 148
3 150 424 426
3 424 151 425
3 424 425 426
3 152 151 150
3 152 19 151
3 68 152 18
3 153 152 68
3 153 19 152
3 153 81 19
3 154 81 153
3 154 5 81
3 154 155 5
3 156 155 154
3 156 21 155
3 70 156 20
3 157 156 70
3 157 21 156
3 157 88 21
3 158 88 157
3 158 7 88
3 427 23 428
3 72 429 430
3 159 431 433
3 433 432 72
3 431 432 433
3 159 434 436
3 434 23 435
3 434 435 436
3 159 95 23
3 160 95 159
3 160 8 95
3 161 437 438
3 161 439 441
3 439 25 440
3 439 440 441
3 442 161 443
3 162 444 446
3 444 161 445
3 444 445 446
3 162 25 161
3 162 100 25
3 163 100 162
3 163 10 100
3 447 105 448
3 164 449 451
3 449 105 450
3 449 450 451
3 164 11 105
3 164 165 11
3 166 165 164
3 166 27 165
3 452 166 453
3 167 454 456
3 454 166 455
3 454 455 456
3 167 27 166
3 167 112 27
3 168 112 167
3 168 12 112
3 457 13 458
3 459 169 460
3 461 460 13
3 459 460 461
3 462 169 463
3 464 28 465
3 466 465 169
3 464 465 466
3 170 467 468
3 170 469 471
3 469 28 470
3 469 470 471
3 170 122 28
3 472 122 473
3 474 473 170
3 472 473 474
3 475 9 476
3 477 476 122
3 475 476 477
3 171 478 479
3 171 480 481
3 171 482 484
3 482 127 483
3 482 483 484
3 172 127 171
3 172 15 127
3 173 174 6
3 175 174 173
3 175 31 174
3 75 175 30
3 176 175 75
3 176 31 175
3 176 134 31
3 177 134 176
3 177 16 134
3 177 178 16
3 179 178 177
3 179 33 178
3 77 179 32
3 180 179 77
3 180 33 179
3 180 141 33
3 181 141 180
3 181 14 141
3 182 485 486
3 182 487 488
3 182 489 491
3 489 146 490
3 489 490 491
3 183 146 182
3 183 17 146
3 151 492 494
3 492 80 493
3 492 493 494
3 184 80 151
3 184 36 80
3 82 184 19
3 185 184 82
3 185 36 184
3 185 495 497
3 497 496 36
3 495 496 497
3 499 498 185
3 84 500 502
3 502 501 37
3 500 501 502
3 186 503 505
3 505 504 84
3 503 504 505
3 186 506 507
3 186 508 509
3 187 510 512
3 512 511 186
3 510 511 512
3 187 513 515
3 513 3 514
3 513 514 515
3 187 188 3
3 189 188 187
3 189 39 188
3 86 189 38
3 190 189 86
3 190 39 189
3 190 131 39
3 191 131 190
3 191 6 131
3 155 87 5
3 192 87 155
3 192 40 87
3 89 192 21
3 193 192 89
3 193 40 192
3 193 191 40
3 194 191 193
3 194 6 191
3 194 173 6
3 195 173 194
3 195 30 173
3 91 195 41
3 196 195 91
3 196 30 195
3 196 74 30
3 197 74 196
3 197 2 74
3 198 516 517
3 198 518 520
3 518 4 519
3 518 519 520
3 521 150 522
3 199 523 525
3 523 150 524
3 523 524 525
3 199 18 150
3 93 526 528
3 526 199 527
3 526 527 528
3 200 199 93
3 200 18 199
3 200 67 18
3 201 67 200
3 201 1 67
3 529 24 530
3 202 531 532
3 202 533 535
3 533 24 534
3 533 534 535
3 202 160 24
3 203 160 202
3 203 8 160
3 536 203 537
3 204 538 540
3 538 203 539
3 538 539 540
3 204 8 203
3 204 99 8
3 541 99 542
3 543 542 204
3 541 542 543
3 544 44 545
3 546 545 99
3 544 545 546
3 547 44 548
3 549 205 550
3 551 550 44
3 549 550 551
3 552 205 553
3 554 0 555
3 556 555 205
3 554 555 556
3 557 9 558
3 96 559 561
3 561 560 23
3 559 560 561
3 563 562 96
3 206 564 565
3 206 566 568
3 566 9 567
3 566 567 568
3 206 126 9
3 207 126 206
3 207 46 126
3 98 207 45
3 208 207 98
3 208 46 207
3 208 209 46
3 205 209 208
3 205 0 209
3 210 569 570
3 210 571 572
3 101 210 25
3 573 210 574
3 575 574 101
3 573 574 575
3 577 576 210
3 211 578 579
3 211 580 581
3 211 582 584
3 582 94 583
3 582 583 584
3 212 94 211
3 212 43 94
3 103 212 47
3 213 212 103
3 213 43 212
3 213 201 43
3 214 201 213
3 214 1 201
3 585 26 586
3 215 587 588
3 215 589 591
3 589 26 590
3 589 590 591
3 215 163 26
3 216 163 215
3 216 10 163
3 106 592 593
3 217 594 596
3 596 595 106
3 594 595 596
3 217 597 598
3 217 599 601
3 599 216 600
3 599 600 601
3 218 216 217
3 218 10 216
3 218 104 10
3 219 104 218
3 219 48 104
3 108 219 49
3 220 219 108
3 220 48 219
3 220 214 48
3 221 214 220
3 221 1 214
3 221 71 1
3 222 71 221
3 222 22 71
3 110 222 50
3 223 222 110
3 223 22 222
3 223 158 22
3 224 158 223
3 224 7 158
3 165 111 11
3 225 111 165
3 225 51 111
3 113 225 27
3 226 225 113
3 226 51 225
3 226 224 51
3 227 224 226
3 227 7 224
3 227 92 7
3 228 92 227
3 228 42 92
3 115 228 52
3 229 228 115
3 229 42 228
3 229 197 42
3 230 197 229
3 230 2 197
3 602 168 603
3 604 168 605
3 606 12 607
3 608 607 168
3 606 607 608
3 231 609 610
3 231 611 613
3 611 12 612
3 611 612 613
3 231 116 12
3 232 116 231
3 232 53 116
3 118 232 54
3 233 232 118
3 233 53 232
3 233 230 53
3 234 230 233
3 234 2 230
3 234 78 2
3 235 78 234
3 235 34 78
3 120 235 55
3 236 235 120
3 236 34 235
3 236 181 34
3 237 181 236
3 237 14 181
3 169 121 13
3 238 121 169
3 238 56 121
3 123 238 28
3 239 238 123
3 239 56 238
3 239 237 56
3 240 237 239
3 240 14 237
3 240 145 14
3 241 145 240
3 241 58 145
3 125 241 57
3 242 241 125
3 242 58 241
3 242 243 58
3 209 243 242
3 209 0 243
3 244 614 615
3 244 616 617
3 129 244 59
3 245 244 129
3 245 618 620
3 620 619 244
3 618 619 620
3 245 621 623
3 621 198 622
3 621 622 623
3 246 198 245
3 246 4 198
3 188 73 3
3 247 73 188
3 247 29 73
3 132 247 39
3 248 247 132
3 248 29 247
3 248 172 29
3 249 172 248
3 249 15 172
3 174 133 6
3 250 133 174
3 250 61 133
3 135 250 31
3 251 250 135
3 251 61 250
3 251 249 61
3 252 249 251
3 252 15 249
3 252 130 15
3 253 130 252
3 253 60 130
3 137 253 62
3 254 253 137
3 254 60 253
3 254 246 60
3 255 246 254
3 255 4 246
3 255 79 4
3 256 79 255
3 256 35 79
3 139 256 63
3 257 256 139
3 257 35 256
3 257 183 35
3 258 183 257
3 258 17 183
3 178 140 16
3 259 140 178
3 259 64 140
3 142 259 33
3 260 259 142
3 260 64 259
3 260 258 64
3 261 258 260
3 261 17 258
3 261 149 17
3 262 149 261
3 262 66 149
3 144 262 65
3 263 262 144
3 263 66 262
3 263 264 66
3 243 264 263
3 243 0 264
3 148 624 625
3 265 626 628
3 628 627 148
3 626 627 628
3 265 629 630
3 265 631 632
3 264 633 635
3 635 634 265
3 633 634 635
3 264 636 638
3 636 0 637
3 636 637 638
