ply
format ascii 1.0
element vertex 436
property float x
property float y
property float z
element face 488
property list uchar int vertex_index
end_header
-49.429783 30.744513 -1.785467
-28.274033 26.405987 7.528047
-45.066338 35.224876 4.781203
-43.758762 37.624779 -4.450016
-47.173973 34.058239 -8.466132
-43.508881 27.264978 12.00607
-52.047882 27.063482 6.121575
-42.143871 25.489904 6.778148
-37.455128 29.917675 2.808343
-38.766315 40.737083 -1.234118
-42.920258 39.521263 -9.892351
-39.701942 28.673075 16.87237
-36.690796 31.108974 12.717801
-49.747711 32.956219 0.37262
-50.00193 32.345436 6.563102
-50.788876 29.22723 3.011128
-47.768745 25.873968 5.744334
-45.139851 28.639475 2.907137
-39.596951 27.958109 4.838927
-43.061226 30.133266 0.150084
-42.329376 33.281513 -7.521352
-27.420511 27.135447 3.592707
-38.390152 35.9678 6.656766
-40.601418 39.489468 2.657975
-45.204693 38.514099 0.133644
-49.203236 35.486427 -3.437159
-47.839443 32.799767 -4.52469
-47.771568 36.021088 -7.066974
-30.146313 24.320684 10.555284
-40.176136 26.238819 19.29541
-44.810925 24.978462 17.112288
-50.233162 25.11212 14.46932
-43.104645 32.450096 9.085932
-49.249409 28.43338 9.05961
-53.236622 24.531338 10.50408
-50.730186 22.669765 7.37302
-45.075829 22.264702 7.957282
-34.289124 26.947453 7.998294
-32.097221 29.772091 5.892009
-42.370693 32.4464 -3.017407
-36.605148 32.873199 -0.470537
-30.478165 31.845392 2.506633
-36.337532 31.746618 15.687292
-34.646111 33.412064 12.328681
-50.75053 31.765055 -1.054951
-51.196873 30.864399 1.575115
-50.269451 29.813862 0.467944
-48.001617 28.494389 2.807602
-47.477726 29.554218 0.411806
-44.208179 29.616085 1.423046
-46.188995 30.323355 -1.069193
-27.712597 27.022669 5.618351
-40.928062 39.022934 -2.94652
-42.029285 38.897869 -0.710328
-44.418961 38.060425 -2.169449
-47.517704 37.120445 -1.682911
-46.819267 36.928299 -3.730361
-48.52774 35.723034 -5.145171
-45.962055 36.67054 -5.697029
-44.922356 37.840851 -11.454439
-29.574057 20.968983 11.536622
-31.432415 23.094687 11.570214
-40.56636 27.162241 14.23107
-41.804123 26.282471 16.264948
-44.22538 25.518362 14.48567
-47.553715 24.747379 15.992697
-47.121136 25.771755 12.632739
-42.032417 35.801464 5.751567
-40.268303 33.719101 8.178774
-44.107944 33.553627 7.267958
-51.617714 29.838861 6.304845
-49.532093 31.030872 8.2377
-51.490582 28.033606 7.532436
-51.661537 26.287457 9.598772
-52.534832 25.492294 7.618683
-52.792042 23.389141 8.302034
-51.7458 24.4828 6.39742
-44.786152 25.626368 6.223847
-46.398266 24.122637 6.984536
-43.567631 23.903248 7.546854
-39.52002 24.869379 7.838938
-38.414738 28.870508 3.825758
-36.863129 27.576147 6.314674
-35.578068 28.651062 5.479038
-33.080044 28.328892 7.098334
-34.634998 30.067112 4.341182
-47.181549 33.583149 -6.251227
-45.132412 32.383125 -3.715563
-44.849033 33.323891 -5.780652
-39.434208 33.40453 -4.06561
-36.236187 33.240799 -2.531403
-33.458305 32.709354 1.180907
-32.94268 32.804813 -0.805185
-30.090195 31.635448 0.554759
-38.323616 41.891792 -3.786263
-40.673729 39.705288 -5.64042
-43.027973 37.96357 -7.144821
-40.996544 41.223953 -8.122231
-38.023987 29.600769 15.122129
-39.738689 29.194843 12.458158
-47.353962 33.650444 2.449577
-47.530972 33.48341 6.107516
-50.092625 32.247955 3.58783
-51.43177 30.600826 4.275661
-51.516136 28.518896 4.963799
-50.546062 26.215057 5.590181
-49.316456 27.875238 4.747229
-46.292412 27.221186 4.83785
-43.533855 27.266169 5.080321
-40.856621 26.814152 5.87502
-42.379684 28.451071 3.694034
-41.269341 29.377289 2.53556
-40.356258 29.877314 1.494616
-45.065937 33.79686 -8.20141
-35.535931 36.238735 8.360064
-37.192585 38.839363 5.972647
-39.885742 37.921761 4.467591
-42.943729 37.649055 3.624985
-40.04887 40.373451 0.780971
-43.132587 39.218437 1.694718
-45.273968 36.564411 1.994582
-47.60471 35.715683 -0.094799
-49.645126 34.752499 -1.699978
-50.246643 33.130852 -2.877829
-48.660622 31.763437 -3.128203
-49.612701 33.76313 -4.459532
-48.680313 34.420174 -6.122482
-48.215446 34.858208 -8.174835
-45.383446 37.126171 -8.485971
-47.423607 36.19265 -9.597803
-48.277153 35.111534 -10.517206
-29.075809 25.448435 9.161703
-39.116772 24.547249 19.861521
-41.38084 23.556499 18.961981
-40.66486 27.614197 18.410496
-42.224468 25.250286 17.959126
-44.137466 23.425552 18.617035
-36.767052 33.337704 9.631741
-39.419147 31.739279 10.365474
-42.995853 29.983072 10.812822
-46.930435 32.600712 8.435397
-46.317326 30.850597 9.707109
-46.412823 27.887232 10.458567
-49.669453 26.365719 11.219564
-52.158226 25.134016 12.736715
-49.29261 24.167883 6.358349
-47.877338 22.611221 7.455414
-38.199139 26.248173 7.209379
-35.64785 25.542038 8.734299
-33.412334 24.636486 10.3787
-31.995838 25.975758 9.651385
-30.83317 27.381964 8.483478
-29.777288 28.628698 7.045784
-45.427883 31.214962 -2.244392
-42.512428 31.080837 -1.23474
-39.745621 31.238638 -0.083696
-42.355026 33.436359 -5.081614
-39.590191 32.757195 -1.983156
-36.940758 31.590368 1.318213
-34.024723 31.604366 2.939512
-31.238811 31.092457 4.368571
-28.800411 29.60705 5.336895
-28.264582 29.901546 3.355489
-27.985157 29.63471 1.312668
-34.613617 35.022789 12.049198
-35.234499 33.877209 13.955794
-28.106685 24.901541 7.045429
-28.227801 24.614162 7.991666
-27.993315 26.714328 6.573199
-27.825967 25.209882 6.090581
-28.106685 24.901541 7.045429
-32.172342 22.412826 11.829921
-31.116425 21.468705 12.029937
-41.487609 24.463102 7.597443
-42.199489 23.669774 7.981796
-42.855751 24.696576 7.162501
-40.831946 25.179641 7.308543
-40.175684 24.152839 8.127838
-41.487609 24.463102 7.597443
-36.152561 32.80517 -3.417445
-37.818478 32.991413 -4.365518
-34.505808 32.587177 -2.554336
-34.589433 33.022806 -1.668294
-36.152561 32.80517 -3.417445
-32.881718 32.295638 -1.573819
-34.505808 32.587177 -2.554336
-38.768947 42.713127 -4.96811
-37.996038 43.919933 -3.43338
-39.944004 41.619875 -5.895188
-39.498672 40.79854 -4.713342
-38.768947 42.713127 -4.96811
-40.105412 42.379207 -7.136093
-40.835137 40.464621 -6.881325
-39.944004 41.619875 -5.895188
-27.811824 25.437484 3.307868
-27.733731 25.402259 4.200839
-27.357782 26.944885 2.664073
-27.811824 25.437484 3.307868
-37.499323 40.225043 6.403272
-36.429611 39.016212 7.258129
-40.24358 38.705614 3.562783
-39.294311 39.341658 4.426325
-39.65215 40.125512 3.521517
-39.407592 40.555267 -0.226574
-39.358998 41.718841 0.914038
-38.71772 41.900657 -0.093507
-47.141022 36.355347 -10.891016
-46.172981 37.016751 -10.526121
-45.890397 37.179448 -11.819335
-47.567795 35.814789 -11.350718
-47.85038 35.652092 -10.057505
-47.141022 36.355347 -10.891016
-48.042341 35.224493 -11.565326
-47.567795 35.814789 -11.350718
-29.441983 23.110214 10.336323
-29.155855 21.434363 10.826992
-29.860185 22.644834 11.045953
-29.611061 24.88456 9.858493
-28.906731 23.67409 9.639532
-29.441983 23.110214 10.336323
-39.646454 25.393034 19.578466
-39.564196 26.063875 20.548066
-40.093878 26.90966 20.265011
-40.183401 28.143636 17.641433
-41.112423 28.88024 18.652023
-40.630964 29.409678 17.882959
-45.994959 24.345509 17.728113
-45.65823 23.569055 18.480487
-44.474196 24.202007 17.864662
-50.134335 24.457484 15.780081
-48.794611 24.275113 16.54177
-48.893439 24.929749 15.231008
-51.327366 24.373037 15.011544
-50.134335 24.457484 15.780081
-53.459303 23.88789 12.076148
-52.920105 24.189229 13.192466
-52.697424 24.832677 11.620397
-53.417761 23.531021 10.889937
-53.459303 23.88789 12.076148
-51.275499 22.270546 8.541975
-52.306427 22.630233 9.006482
-51.761114 23.029453 7.837527
-49.875336 22.027561 8.124358
-51.275499 22.270546 8.541975
-45.652195 21.487396 8.293111
-47.052949 21.660656 8.042177
-46.476584 22.437962 7.706348
-44.404112 21.079788 8.234972
-45.652195 21.487396 8.293111
-28.965367 30.183194 0.029542
-29.037676 30.635079 0.933713
-30.017887 31.183563 -0.349413
-27.87782 29.330053 0.31355
-28.965367 30.183194 0.029542
-36.08021 33.044486 15.635099
-37.562483 32.420076 16.827174
-35.491822 32.579341 14.007986
-36.08021 33.044486 15.635099
-35.234499 33.877209 13.955794
-27.879774 25.34587 5.213661
-27.825967 25.209882 6.090581
-27.566554 27.079058 4.605529
-27.733731 25.402259 4.200839
-27.879774 25.34587 5.213661
-40.125512 40.847706 2.650957
-39.65215 40.125512 3.521517
-44.318032 39.909338 -11.55507
-43.921307 38.681057 -10.673395
-43.316982 40.749544 -10.774026
-44.960356 38.90827 -12.391706
-44.318032 39.909338 -11.55507
-45.890397 37.179448 -11.819335
-44.960356 38.90827 -12.391706
-30.187247 20.405853 12.013141
-29.541784 19.107619 11.583309
-30.503236 22.031835 11.553418
-30.187247 20.405853 12.013141
-31.116425 21.468705 12.029937
-40.70935 27.550738 19.796911
-40.093878 26.90966 20.265011
-43.034396 22.803762 8.146178
-43.788494 21.984488 8.351392
-44.32173 23.083975 7.752068
-43.034396 22.803762 8.146178
-42.199489 23.669774 7.981796
-39.076695 23.80444 8.793096
-40.175684 24.152839 8.127838
-38.320929 24.526042 8.558652
-39.076695 23.80444 8.793096
-39.417488 33.073279 -5.132622
-40.881792 33.343021 -5.793481
-40.865072 33.01177 -6.860493
-37.835197 33.322665 -3.298507
-39.417488 33.073279 -5.132622
-37.818478 32.991413 -4.365518
-31.455475 31.710956 -0.893848
-31.516438 32.220131 -0.125213
-32.881718 32.295638 -1.573819
-30.017887 31.183563 -0.349413
-31.455475 31.710956 -0.893848
-38.286224 42.504793 -0.983784
-38.71772 41.900657 -0.093507
-38.064875 43.082148 -2.259856
-37.996038 43.919933 -3.43338
-38.544966 41.314437 -2.510191
-38.286224 42.504793 -0.983784
-38.064875 43.082148 -2.259856
-40.658356 43.381979 -7.971292
-40.105412 42.379207 -7.136093
-41.495891 42.467533 -8.961648
-40.658356 43.381979 -7.971292
-42.457748 41.616188 -9.846708
-41.958401 40.372608 -9.007291
-41.495891 42.467533 -8.961648
-43.316982 40.749544 -10.774026
-42.457748 41.616188 -9.846708
-39.533152 29.910359 17.239106
-40.630964 29.409678 17.882959
-37.850947 31.447131 16.646567
-37.562483 32.420076 16.827174
-38.694174 30.374206 16.363986
-37.850947 31.447131 16.646567
-37.18076 30.673693 15.404711
-38.862965 29.136922 15.997249
-39.533152 29.910359 17.239106
-38.694174 30.374206 16.363986
-46.318771 33.973492 -9.476337
-46.119955 33.927549 -8.333771
-47.372789 34.104181 -9.608698
-45.204591 33.594283 -9.436181
-46.318771 33.973492 -9.476337
-43.836311 33.336609 -9.096152
-43.697657 33.539186 -7.861381
-45.204591 33.594283 -9.436181
-42.429791 32.728645 -8.579607
-43.836311 33.336609 -9.096152
-40.865072 33.01177 -6.860493
-42.429791 32.728645 -8.579607
-35.601284 37.715898 8.451838
-35.058527 36.436124 10.064889
-36.364258 37.539049 7.166355
-35.601284 37.715898 8.451838
-36.429611 39.016212 7.258129
-37.947733 39.800459 5.178854
-37.499323 40.225043 6.403272
-38.539164 38.380562 5.220119
-37.947733 39.800459 5.178854
-39.294311 39.341658 4.426325
-39.849238 41.289698 1.712455
-39.358998 41.718841 0.914038
-40.325144 39.93146 1.719473
-40.125512 40.847706 2.650957
-39.849238 41.289698 1.712455
-47.92438 34.630829 -10.634235
-47.372789 34.104181 -9.608698
-47.725563 34.584886 -9.491669
-47.92438 34.630829 -10.634235
-48.042341 35.224493 -11.565326
-29.203649 19.514254 10.884147
-29.541784 19.107619 11.583309
-29.203649 19.514254 10.884147
-29.155855 21.434363 10.826992
-28.628688 24.135385 8.808494
-28.906731 23.67409 9.639532
-28.674921 25.927211 8.344875
-28.227801 24.614162 7.991666
-28.628688 24.135385 8.808494
-38.764765 25.228414 20.759916
-39.564196 26.063875 20.548066
-38.443329 23.648784 20.234464
-38.764765 25.228414 20.759916
-39.615448 23.094048 19.761769
-38.443329 23.648784 20.234464
-40.747482 22.598673 19.311999
-39.615448 23.094048 19.761769
-40.248806 24.051874 19.411751
-42.236971 22.357944 19.055612
-40.747482 22.598673 19.311999
-40.953712 28.238427 19.354454
-41.112423 28.88024 18.652023
-40.420498 26.926508 18.852953
-40.70935 27.550738 19.796911
-40.953712 28.238427 19.354454
-43.615284 22.292471 18.883139
-42.236971 22.357944 19.055612
-42.759153 23.491025 18.789508
-45.190716 22.330524 18.614744
-43.615284 22.292471 18.883139
-45.190716 22.330524 18.614744
-45.65823 23.569055 18.480487
-47.366354 24.229968 17.168318
-45.994959 24.345509 17.728113
-46.18232 24.862921 16.552492
-47.366354 24.229968 17.168318
-48.794611 24.275113 16.54177
-35.091021 34.8254 10.344372
-34.613617 35.022789 12.049198
-35.058527 36.436124 10.064889
-52.289898 24.383985 14.145242
-51.327366 24.373037 15.011544
-51.195694 25.123068 13.603017
-52.289898 24.383985 14.145242
-52.920105 24.189229 13.192466
-53.195471 22.959922 9.788913
-53.417761 23.531021 10.889937
-53.014332 23.96024 9.403057
-53.195471 22.959922 9.788913
-52.306427 22.630233 9.006482
-48.448912 21.998289 8.165555
-49.875336 22.027561 8.124358
-49.303762 22.640493 7.414217
-48.448912 21.998289 8.165555
-47.052949 21.660656 8.042177
-44.404112 21.079788 8.234972
-43.788494 21.984488 8.351392
-37.660488 25.215439 8.243873
-38.320929 24.526042 8.558652
-38.85958 25.558776 7.524159
-36.384844 24.862372 9.006332
-37.660488 25.215439 8.243873
-36.923495 25.895105 7.971839
-35.281799 24.359106 9.757815
-36.384844 24.862372 9.006332
-34.164041 23.90633 10.580016
-35.281799 24.359106 9.757815
-34.530092 25.089262 9.5565
-33.162302 23.183726 11.234164
-34.164041 23.90633 10.580016
-32.422375 23.865586 10.974457
-32.172342 22.412826 11.829921
-33.162302 23.183726 11.234164
-27.640105 28.194517 1.524054
-27.357782 26.944885 2.664073
-27.702834 28.385078 2.452687
-27.640105 28.194517 1.524054
-27.87782 29.330053 0.31355
3 164 43 165
3 0 46 44
3 0 48 46
3 0 50 48
3 1 166 167
3 1 168 170
3 168 51 169
3 168 169 170
3 3 54 52
3 3 56 54
3 3 58 56
3 171 61 172
3 5 64 62
3 5 66 64
3 2 69 67
3 6 72 70
3 6 74 72
3 6 76 74
3 7 79 77
3 7 173 175
3 175 174 79
3 173 174 175
3 7 176 178
3 176 80 177
3 176 177 178
3 8 83 81
3 8 85 83
3 4 88 86
3 179 90 180
3 181 92 182
3 183 182 90
3 181 182 183
3 185 184 92
3 186 94 187
3 188 95 189
3 190 189 94
3 188 189 190
3 191 97 192
3 193 192 95
3 191 192 193
3 12 98 42
3 12 99 98
3 13 102 100
3 15 103 45
3 15 104 103
3 15 106 104
3 17 107 47
3 17 108 107
3 17 110 108
3 19 111 49
3 19 112 111
3 21 194 195
3 21 196 197
3 198 115 199
3 23 200 202
3 200 116 201
3 200 201 202
3 23 117 116
3 9 203 205
3 203 118 204
3 203 204 205
3 24 119 53
3 24 120 119
3 24 121 120
3 25 122 55
3 25 123 122
3 25 125 123
3 27 126 57
3 27 127 126
3 10 128 96
3 206 129 207
3 208 207 59
3 206 207 208
3 209 130 210
3 211 210 129
3 209 210 211
3 213 212 130
3 28 214 216
3 216 215 60
3 214 215 216
3 28 217 219
3 217 131 218
3 217 218 219
3 29 220 222
3 220 132 221
3 220 221 222
3 29 133 132
3 11 223 225
3 223 134 224
3 223 224 225
3 30 135 63
3 30 136 135
3 30 226 228
3 228 227 136
3 226 227 228
3 31 229 231
3 231 230 65
3 229 230 231
3 31 232 233
3 22 137 114
3 32 138 68
3 32 139 138
3 14 140 101
3 33 141 71
3 33 142 141
3 33 143 142
3 34 144 73
3 34 234 236
3 236 235 144
3 234 235 236
3 34 237 238
3 35 239 241
3 241 240 75
3 239 240 241
3 35 242 243
3 16 145 105
3 36 146 78
3 36 244 246
3 246 245 146
3 244 245 246
3 36 247 248
3 18 147 109
3 37 148 82
3 37 149 148
3 37 150 149
3 38 151 84
3 38 152 151
3 26 153 124
3 39 154 87
3 39 155 154
3 20 156 113
3 40 157 89
3 40 158 157
3 40 159 158
3 41 160 91
3 41 161 160
3 41 162 161
3 249 163 250
3 251 250 93
3 249 250 251
3 253 252 163
3 254 42 255
3 43 256 258
3 256 42 257
3 256 257 258
3 43 12 42
3 44 45 13
3 46 45 44
3 46 15 45
3 46 47 15
3 48 47 46
3 48 17 47
3 48 49 17
3 50 49 48
3 50 19 49
3 51 259 260
3 51 261 263
3 261 21 262
3 261 262 263
3 264 23 265
3 52 53 9
3 54 53 52
3 54 24 53
3 54 55 24
3 56 55 54
3 56 25 55
3 56 57 25
3 58 57 56
3 58 27 57
3 266 59 267
3 268 267 10
3 266 267 268
3 269 59 270
3 272 271 59
3 273 60 274
3 61 275 277
3 275 60 276
3 275 276 277
3 61 28 60
3 278 29 279
3 62 63 11
3 64 63 62
3 64 30 63
3 64 65 30
3 66 65 64
3 66 31 65
3 67 68 22
3 69 68 67
3 69 32 68
3 70 71 14
3 72 71 70
3 72 33 71
3 72 73 33
3 74 73 72
3 74 34 73
3 74 75 34
3 76 75 74
3 76 35 75
3 77 78 16
3 79 78 77
3 79 36 78
3 79 280 282
3 282 281 36
3 280 281 282
3 284 283 79
3 80 285 286
3 80 287 288
3 81 82 18
3 83 82 81
3 83 37 82
3 83 84 37
3 85 84 83
3 85 38 84
3 86 87 26
3 88 87 86
3 88 39 87
3 289 89 290
3 291 290 20
3 289 290 291
3 90 292 294
3 292 89 293
3 292 293 294
3 90 40 89
3 90 91 40
3 92 91 90
3 92 41 91
3 92 93 41
3 295 93 296
3 297 296 92
3 295 296 297
3 299 298 93
3 300 9 301
3 94 302 303
3 94 304 306
3 304 9 305
3 304 305 306
3 94 52 9
3 95 52 94
3 95 3 52
3 95 96 3
3 97 96 95
3 97 10 96
3 307 97 308
3 309 97 310
3 311 10 312
3 313 312 97
3 311 312 313
3 315 314 10
3 316 11 317
3 42 318 319
3 98 320 322
3 322 321 42
3 320 321 322
3 98 323 325
3 323 11 324
3 323 324 325
3 98 62 11
3 99 62 98
3 99 5 62
3 100 101 2
3 102 101 100
3 102 14 101
3 45 102 13
3 103 102 45
3 103 14 102
3 103 70 14
3 104 70 103
3 104 6 70
3 104 105 6
3 106 105 104
3 106 16 105
3 47 106 15
3 107 106 47
3 107 16 106
3 107 77 16
3 108 77 107
3 108 7 77
3 108 109 7
3 110 109 108
3 110 18 109
3 49 110 17
3 111 110 49
3 111 18 110
3 111 81 18
3 112 81 111
3 112 8 81
3 326 113 327
3 328 327 4
3 326 327 328
3 329 113 330
3 331 20 332
3 333 332 113
3 331 332 333
3 334 20 335
3 337 336 20
3 338 114 339
3 115 340 342
3 340 114 341
3 340 341 342
3 115 22 114
3 343 115 344
3 116 345 347
3 345 115 346
3 345 346 347
3 116 22 115
3 116 67 22
3 117 67 116
3 117 2 67
3 118 348 349
3 118 350 352
3 350 23 351
3 350 351 352
3 53 118 9
3 119 118 53
3 119 23 118
3 119 117 23
3 120 117 119
3 120 2 117
3 120 100 2
3 121 100 120
3 121 13 100
3 55 121 24
3 122 121 55
3 122 13 121
3 122 44 13
3 123 44 122
3 123 0 44
3 123 124 0
3 125 124 123
3 125 26 124
3 57 125 25
3 126 125 57
3 126 26 125
3 126 86 26
3 127 86 126
3 127 4 86
3 96 58 3
3 128 58 96
3 128 27 58
3 59 128 10
3 129 128 59
3 129 27 128
3 129 127 27
3 130 127 129
3 130 4 127
3 130 353 355
3 355 354 4
3 353 354 355
3 357 356 130
3 60 358 359
3 361 360 60
3 131 362 363
3 131 364 366
3 364 1 365
3 364 365 366
3 132 367 368
3 132 369 370
3 132 371 372
3 133 373 375
3 375 374 132
3 373 374 375
3 133 376 377
3 134 378 379
3 134 380 382
3 380 29 381
3 380 381 382
3 63 134 11
3 135 134 63
3 135 29 134
3 135 133 29
3 136 133 135
3 136 383 385
3 385 384 133
3 383 384 385
3 136 386 387
3 389 388 136
3 65 390 392
3 392 391 30
3 390 391 392
3 394 393 65
3 114 395 397
3 395 43 396
3 395 396 397
3 137 43 114
3 137 12 43
3 68 137 22
3 138 137 68
3 138 12 137
3 138 99 12
3 139 99 138
3 139 5 99
3 101 69 2
3 140 69 101
3 140 32 69
3 71 140 14
3 141 140 71
3 141 32 140
3 141 139 32
3 142 139 141
3 142 5 139
3 142 66 5
3 143 66 142
3 143 31 66
3 73 143 33
3 144 143 73
3 144 31 143
3 144 398 400
3 400 399 31
3 398 399 400
3 402 401 144
3 75 403 405
3 405 404 34
3 403 404 405
3 407 406 75
3 105 76 6
3 145 76 105
3 145 35 76
3 78 145 16
3 146 145 78
3 146 35 145
3 146 408 410
3 410 409 35
3 408 409 410
3 412 411 146
3 414 413 36
3 109 80 7
3 147 80 109
3 147 415 417
3 417 416 80
3 415 416 417
3 82 147 18
3 148 147 82
3 148 418 420
3 420 419 147
3 418 419 420
3 148 421 422
3 149 423 425
3 425 424 148
3 423 424 425
3 149 426 427
3 149 428 430
3 428 61 429
3 428 429 430
3 150 61 149
3 150 28 61
3 84 150 37
3 151 150 84
3 151 28 150
3 151 131 28
3 152 131 151
3 152 1 131
3 124 50 0
3 153 50 124
3 153 19 50
3 87 153 26
3 154 153 87
3 154 19 153
3 154 112 19
3 155 112 154
3 155 8 112
3 113 88 4
3 156 88 113
3 156 39 88
3 89 156 20
3 157 156 89
3 157 39 156
3 157 155 39
3 158 155 157
3 158 8 155
3 158 85 8
3 159 85 158
3 159 38 85
3 91 159 40
3 160 159 91
3 160 38 159
3 160 152 38
3 161 152 160
3 161 1 152
3 161 51 1
3 162 51 161
3 162 21 51
3 93 162 41
3 163 162 93
3 163 21 162
3 163 431 433
3 433 432 21
3 431 432 433
3 435 434 163
