ply
format ascii 1.0
element vertex 700
property float x
property float y
property float z
element face 814
property list uchar int vertex_index
end_header
47.736862 -20.401623 -27.536579
47.049847 -5.089583 -38.271751
48.83461 -55.424683 -14.815598
56.320385 -29.736822 -25.502083
38.740807 1.089698 -37.225578
44.971199 -63.33062 -10.246037
31.869328 -0.033768 -41.786507
40.346478 -5.754767 -41.819092
40.147278 -10.117638 -28.271656
48.033226 -13.655563 -37.974426
44.968864 -62.399437 -4.387672
56.714344 -57.535809 -11.940449
58.504112 -46.793831 -20.106853
53.294121 -43.931068 -21.286316
48.741692 -37.8563 -19.979847
53.154835 -26.576931 -29.141205
55.934387 -16.328505 -32.953888
27.655609 7.646194 -39.60358
29.837589 3.714289 -39.53698
31.531902 5.280822 -41.435009
42.911304 -2.133166 -38.453236
40.482628 -1.973183 -43.869804
45.100056 -5.003535 -43.19965
44.350986 -9.164528 -39.92334
49.607227 -8.709524 -40.915169
36.86985 -8.665413 -32.017384
47.240913 -57.938255 -10.408282
50.69437 -58.610943 -9.668406
53.325359 -56.720512 -15.090494
56.968132 -53.127937 -16.774426
54.472973 -53.036449 -19.383774
56.16449 -46.688461 -22.442642
51.295403 -49.759888 -17.440037
45.111103 -43.79533 -15.319334
46.175854 -35.836281 -19.947651
56.227226 -24.389673 -24.614983
55.079185 -19.038296 -27.504925
59.150383 -23.393696 -29.577152
56.937519 -21.638823 -32.447609
56.682014 -28.91711 -29.287222
35.223694 6.183194 -36.540951
43.830635 -63.065662 -12.532664
43.225155 -57.420143 -10.165125
46.00481 -52.678619 -12.569693
53.451874 -31.519342 -21.093767
31.530981 -1.709933 -36.348946
32.959511 -5.440677 -39.046509
35.028118 1.614956 -43.011902
35.694561 -2.817915 -43.141266
36.839233 -4.212734 -37.138481
40.931892 -6.4976 -34.723591
44.154747 -11.31232 -32.824574
47.271435 -16.984392 -31.54804
45.820683 -28.251469 -21.293453
45.610207 -59.886665 -1.30004
52.15752 -58.870155 -4.237076
45.352348 -63.314613 -6.993146
52.256847 -62.18523 -7.509073
55.342186 -55.578838 -8.815294
54.442505 -50.309875 -12.592215
57.380096 -44.908863 -15.470746
56.287476 -41.181053 -19.11314
56.034027 -40.27108 -21.96137
55.351269 -37.565697 -24.402735
48.050804 -46.315941 -15.608427
50.779541 -40.968132 -20.521708
53.750511 -35.600044 -26.69483
50.974533 -32.39904 -25.278282
48.490253 -30.199747 -23.473129
49.691891 -23.706333 -27.27832
50.935951 -13.171652 -29.763147
50.770496 -10.801226 -36.347359
53.338615 -14.674698 -37.591026
51.483959 -18.951471 -32.745491
29.619558 6.866088 -40.494572
31.197956 7.215843 -38.236023
45.107994 -3.414349 -38.67775
44.375191 -3.449549 -41.41153
46.910316 -4.807744 -41.066669
47.419098 -6.550772 -42.129108
49.025887 -6.380076 -40.038071
48.168095 -56.733437 -12.349396
50.420479 -56.760895 -12.594458
50.948174 -56.318859 -15.394238
53.77058 -55.813526 -17.617558
51.420967 -54.704842 -17.415318
52.862617 -51.749565 -18.627939
50.141308 -53.124176 -16.405228
56.381035 -26.890512 -25.307795
57.895741 -23.931679 -27.25292
58.366566 -26.616379 -27.560833
59.007591 -26.409134 -29.734295
57.422199 -29.356937 -27.646963
42.733772 -60.640453 -10.814298
53.744396 -27.99914 -20.336073
53.443359 -32.650723 -18.636478
31.048162 2.15801 -40.690758
31.165689 1.135487 -37.763157
31.973913 -0.871606 -39.11842
32.354927 -3.843014 -37.968243
32.204811 -3.195946 -40.409843
36.866795 3.660012 -36.827271
35.024788 3.041697 -39.888954
36.899834 0.947639 -40.2085
40.213997 -4.312327 -44.190269
37.973488 -2.508022 -44.465221
38.049629 -4.342658 -42.678772
36.457539 -3.412299 -40.349319
38.698036 -4.718574 -39.630348
39.037014 -4.87065 -35.926258
40.721638 -6.154371 -38.361168
46.09367 -11.145098 -38.72028
44.286495 -10.468132 -36.346294
45.902885 -12.88199 -35.405354
45.866371 -13.749621 -32.215149
47.334641 -15.480093 -35.111782
41.950691 -12.204783 -26.914921
45.080814 -61.088543 -2.895564
48.869267 -58.991913 -2.704174
48.835991 -60.415344 -4.147974
45.121685 -63.465332 -8.440649
54.292358 -58.919941 -10.833662
51.89962 -60.809704 -8.705646
55.53595 -60.428539 -9.329191
55.527607 -59.867104 -7.699905
56.930138 -56.63612 -10.205641
55.161732 -53.193886 -10.796744
56.112823 -54.486645 -12.548165
58.144844 -50.001472 -18.723557
56.909168 -48.523476 -16.711081
58.57859 -46.111759 -17.793621
58.570717 -42.703266 -16.440409
57.861366 -43.652382 -18.297386
56.600964 -40.697525 -17.468548
57.799694 -44.08551 -20.167469
54.613056 -45.499908 -22.194294
56.697792 -43.547173 -22.82645
55.956951 -42.379372 -23.647165
55.918934 -38.565327 -23.104898
54.344616 -41.133507 -23.6506
44.1516 -51.384541 -11.894617
47.146038 -49.411263 -14.010104
45.456558 -47.894428 -13.260199
46.846645 -40.875103 -17.466537
48.098698 -42.227013 -17.420776
49.741035 -39.540943 -20.158741
52.114388 -38.453671 -23.778574
51.315735 -36.744453 -23.452658
52.349163 -33.861546 -26.281153
50.090191 -34.883003 -22.689373
45.109791 -35.495617 -20.368086
47.702465 -33.220394 -21.592005
46.391209 -32.660107 -21.125986
47.170094 -29.104675 -22.279457
55.718121 -18.095724 -30.253372
52.811455 -16.322495 -28.777462
52.799294 -14.911054 -31.657953
50.484291 -11.985527 -33.071178
53.217018 -13.580218 -34.915154
52.959484 -12.428932 -37.709293
55.202942 -15.338951 -35.500439
55.389484 -24.662928 -31.187531
54.323414 -20.286802 -32.778847
53.058258 -22.810474 -30.670605
50.478279 -21.355164 -30.165075
51.300037 -25.148441 -28.205276
28.277866 5.886158 -40.227005
29.943569 4.970984 -41.573265
31.465984 3.156008 -42.548054
40.782982 -0.559303 -38.066612
39.60516 -0.698973 -40.971779
41.89373 -2.022392 -41.497169
42.709572 -3.504337 -43.675308
42.375286 -5.843287 -43.528866
42.314991 -7.185668 -40.822224
44.571857 -7.170126 -42.565052
46.81958 -8.954249 -41.279282
49.044361 -11.44816 -40.091362
38.501995 -8.857754 -29.744091
45.394421 -59.999817 -9.688845
46.64296 -59.938393 -8.651012
48.90036 -57.912727 -10.20808
52.324287 -57.497395 -12.102954
55.04591 -57.759178 -13.83452
56.851757 -55.809803 -14.639911
55.888603 -56.421074 -16.581219
56.621723 -53.801262 -18.810379
57.406158 -50.355888 -20.865519
57.567585 -47.120201 -21.811449
55.553673 -49.710377 -21.354488
53.745697 -48.453117 -20.249783
52.147835 -46.630157 -19.016434
45.794746 -39.452118 -17.863457
47.512032 -36.420403 -19.921345
56.512245 -21.600838 -26.634363
57.704407 -21.135824 -28.84614
58.257977 -20.058573 -30.975163
57.396564 -18.674358 -33.222298
58.596882 -22.720381 -31.371067
57.444897 -25.749424 -30.969671
55.107666 -28.003674 -29.650303
43.492302 -1.489266 -35.989632
45.374626 -3.639183 -35.728996
44.655689 -62.917595 -11.846791
44.489166 -60.274303 -10.569347
45.384979 -57.875374 -10.565105
46.217033 -55.901161 -11.941912
47.305828 -54.244953 -13.615591
44.652821 -55.142841 -11.118387
54.503052 -27.373037 -23.045343
54.711712 -30.438503 -23.464998
28.811502 1.363328 -36.872654
33.786705 -7.363363 -38.156525
33.222221 5.12722 -38.878426
33.244408 3.53544 -42.371746
32.818645 1.276791 -43.612263
37.84203 -0.350213 -43.650536
35.459606 -0.663155 -44.31041
33.251934 -1.613405 -42.839581
34.05373 -3.097216 -40.372406
34.785007 -4.330729 -38.0177
35.340904 -6.373379 -35.927467
36.78968 -5.981483 -34.274437
38.6786 -6.33286 -32.553413
40.700401 -7.722034 -31.049911
42.53603 -8.062102 -37.43932
42.623405 -8.945854 -33.524696
42.42281 -10.054224 -29.882023
44.014076 -12.493219 -29.042877
45.58757 -15.098221 -28.546555
44.641304 -16.315544 -25.343122
46.947796 -18.105204 -28.84226
44.407158 -22.193712 -21.826904
44.267216 -26.302872 -20.620392
46.152985 -25.829838 -22.164717
45.25066 -62.99054 -5.841203
47.961296 -60.821259 -7.686434
48.584667 -61.892414 -7.000937
48.715805 -61.937126 -5.686977
52.57777 -60.782127 -5.58375
54.334278 -57.944458 -6.444466
53.998878 -51.832397 -9.085136
54.065998 -48.930531 -10.398654
54.415718 -45.652042 -11.876788
55.729012 -51.855389 -14.81629
55.272636 -47.265144 -14.358908
55.244385 -37.677246 -17.989096
57.37019 -44.189125 -21.595356
56.05233 -41.190948 -20.52812
54.540932 -37.319763 -19.271404
54.376381 -36.123566 -20.801472
54.750946 -34.787407 -22.490788
55.351799 -33.71801 -24.256367
48.792118 -51.096191 -15.084554
49.678303 -47.905602 -16.357595
50.803154 -44.997475 -18.036413
46.508888 -44.993534 -15.207338
49.428596 -43.465523 -17.522686
51.97039 -42.277527 -20.740091
53.067024 -39.735466 -23.793898
54.728004 -36.770054 -25.831654
55.972633 -33.051758 -26.468399
55.339794 -32.443813 -27.950928
53.658562 -30.976231 -28.06459
52.217766 -29.527191 -27.232574
48.776413 -33.805794 -22.055965
49.789696 -31.255085 -24.470587
50.429226 -28.015549 -26.358541
49.04224 -26.799686 -25.227179
47.703781 -25.72171 -23.834621
48.346043 -22.627745 -26.154926
46.90247 -6.262488 -35.130257
48.840572 -10.103365 -30.515162
48.451199 -9.162694 -33.874249
49.024487 -7.827349 -37.28709
50.916054 -9.432298 -38.957573
51.540016 -11.653957 -39.509624
50.746292 -13.931082 -38.390419
55.358959 -17.742336 -34.954552
52.498421 -16.938702 -35.823231
49.790401 -16.116796 -35.695473
49.101692 -18.338423 -32.599327
48.733589 -20.15851 -29.551636
31.123902 9.222931 -37.63319
30.137245 8.256586 -38.355583
54.120632 -32.93663 -17.974533
53.97904 -30.686842 -18.529762
40.329437 -11.899623 -26.957547
39.521393 -11.199359 -27.814526
41.048985 -11.16121 -27.593288
41.231144 -12.943196 -26.279179
40.329437 -11.899623 -26.957547
45.024839 -61.74399 -3.641618
43.596296 -62.948275 -3.220285
43.540321 -63.603722 -3.966339
45.046442 -63.397976 -9.343343
45.144808 -65.238487 -9.415689
45.069565 -65.171131 -10.318383
43.891052 -49.089871 -12.883864
44.804079 -49.639484 -12.577408
43.238573 -50.834927 -12.201073
45.214905 -33.873593 -20.890284
45.7505 -34.077862 -20.747036
44.574196 -35.291348 -20.511333
45.730874 -32.269171 -20.861041
45.214905 -33.873593 -20.890284
27.138933 7.649121 -38.571647
27.467175 9.018661 -38.808916
27.303487 6.667055 -39.053874
27.138933 7.649121 -38.571647
27.966738 6.766176 -39.915292
27.614615 5.787037 -39.365587
27.303487 6.667055 -39.053874
37.250671 -10.248337 -30.949105
36.784311 -10.366157 -32.274631
37.685923 -8.761584 -30.880738
38.066744 -10.344507 -29.812458
37.250671 -10.248337 -30.949105
44.418478 -40.690235 -17.746529
44.853981 -41.167175 -17.008895
45.207428 -39.032411 -18.322336
44.418478 -40.690235 -17.746529
56.369736 -22.995255 -25.624673
56.278126 -21.840769 -25.326823
56.135616 -23.235186 -24.317133
44.245043 -1.093414 -34.747815
43.721008 0.047518 -35.32189
45.186205 -2.168373 -34.617497
44.433464 -2.564224 -35.859314
44.245043 -1.093414 -34.747815
44.606508 -64.172995 -13.28117
43.982507 -64.659895 -13.549076
44.243162 -62.991629 -12.189728
45.019035 -64.098961 -12.938233
44.606508 -64.172995 -13.28117
29.324545 2.538809 -38.204817
28.347461 2.555831 -37.546772
28.860504 3.731311 -38.878935
30.253653 -1.416885 -35.975802
30.071007 0.005825 -36.682907
31.348335 -0.287223 -37.056051
30.053563 -2.675064 -35.309692
30.253653 -1.416885 -35.975802
31.579995 -3.015606 -35.612688
30.053563 -2.675064 -35.309692
32.64238 -6.059029 -38.162859
32.340088 -5.260198 -37.623726
32.657219 -4.641846 -38.507376
33.373108 -6.40202 -38.601517
33.055977 -7.020372 -37.717867
32.64238 -6.059029 -38.162859
34.222957 5.655207 -37.709688
33.254844 6.974441 -37.665382
34.255581 7.502428 -36.496645
44.201263 -15.370952 -25.634701
44.023063 -17.370376 -24.101343
43.473067 -24.909052 -20.791521
43.346491 -27.063136 -20.423602
43.543037 -22.854472 -21.394777
44.337187 -24.248292 -21.223648
43.473067 -24.909052 -20.791521
44.078501 -61.11824 -0.636151
43.787926 -61.743461 -1.482251
45.953904 -59.78812 -0.280624
44.422198 -61.019695 0.383265
44.078501 -61.11824 -0.636151
47.322907 -59.111015 -1.268441
45.953904 -59.78812 -0.280624
51.895435 -58.393486 -3.654475
50.251309 -58.454365 -2.888024
50.513393 -58.931034 -3.470625
52.797287 -57.932037 -4.62932
51.895435 -58.393486 -3.654475
44.448677 -64.827675 -6.999678
44.994112 -65.11256 -7.775548
45.301504 -63.152577 -6.417174
44.397833 -64.665638 -6.423707
44.448677 -64.827675 -6.999678
54.651085 -54.904235 -8.032083
54.147131 -56.087046 -6.846669
54.838232 -56.761648 -7.62988
54.670532 -53.705618 -8.950215
53.979431 -53.031015 -8.167004
54.651085 -54.904235 -8.032083
57.05665 -44.158916 -14.433218
56.00292 -45.337057 -13.877299
56.326366 -46.087003 -14.914827
58.370651 -43.43178 -15.046986
57.05665 -44.158916 -14.433218
59.142678 -41.183466 -15.901616
57.985462 -41.397588 -16.255204
56.269098 -39.227406 -18.001582
56.425843 -38.985641 -17.179286
56.44422 -40.939289 -18.290844
55.76593 -39.429149 -18.551118
55.747553 -37.475502 -17.43956
56.269098 -39.227406 -18.001582
45.809995 -44.394432 -15.263336
45.100568 -45.805433 -14.304683
44.401676 -45.206331 -14.360682
46.99399 -6.604764 -33.381199
46.334013 -4.981021 -33.81925
54.522717 -17.746343 -26.72103
55.088787 -19.083284 -26.197212
51.608747 -13.459931 -28.343852
52.546499 -15.035353 -27.851009
51.873703 -14.747073 -29.270305
50.77281 -11.967537 -28.824393
51.608747 -13.459931 -28.343852
49.888261 -11.637508 -30.139155
49.725121 -10.433394 -29.200401
50.77281 -11.967537 -28.824393
28.366071 8.471761 -39.039361
27.467175 9.018661 -38.808916
29.348046 8.081708 -39.484858
28.637583 7.256141 -40.049076
28.366071 8.471761 -39.039361
30.408757 7.040966 -39.365297
29.348046 8.081708 -39.484858
30.137245 8.256586 -38.355583
36.325294 -8.862029 -33.224009
36.784311 -10.366157 -32.274631
43.061234 -63.512884 -12.514215
43.982507 -64.659895 -13.549076
42.512802 -62.30028 -11.655031
43.282204 -61.853058 -11.673481
43.061234 -63.512884 -12.514215
41.888126 -60.700277 -10.852889
42.512802 -62.30028 -11.655031
42.133817 -59.090122 -10.528303
42.979464 -59.030298 -10.489712
41.888126 -60.700277 -10.852889
42.291622 -57.41984 -10.362376
42.133817 -59.090122 -10.528303
54.129559 -28.361051 -19.379559
54.36735 -26.298881 -20.154443
53.593878 -30.324931 -19.486275
54.129559 -28.361051 -19.379559
53.97904 -30.686842 -18.529762
42.009348 -13.964999 -25.556102
41.231144 -12.943196 -26.279179
42.855957 -13.315572 -26.420601
42.009348 -13.964999 -25.556102
43.523229 -62.3444 -2.280013
43.596296 -62.948275 -3.220285
45.345511 -60.487604 -2.097802
43.787926 -61.743461 -1.482251
43.523229 -62.3444 -2.280013
44.878781 -65.187919 -8.4993
45.144808 -65.238487 -9.415689
45.237016 -63.389972 -7.716897
44.994112 -65.11256 -7.775548
44.878781 -65.187919 -8.4993
57.630787 -41.872146 -17.183692
57.985462 -41.397588 -16.255204
58.216042 -43.177824 -17.368897
57.231165 -42.174954 -17.882967
57.000586 -40.394718 -16.769273
57.630787 -41.872146 -17.183692
46.120316 -30.491455 -21.437776
46.780652 -30.882391 -21.702722
45.730874 -32.269171 -20.861041
45.445611 -30.064852 -20.944775
46.495389 -28.678072 -21.786455
46.120316 -30.491455 -21.437776
28.080642 4.817246 -39.223947
27.614615 5.787037 -39.365587
29.057727 4.800223 -39.881992
28.860504 3.731311 -38.878935
28.080642 4.817246 -39.223947
38.698752 -10.569418 -28.550743
38.066744 -10.344507 -29.812458
39.324636 -9.487696 -29.007874
39.521393 -11.199359 -27.814526
38.698752 -10.569418 -28.550743
43.750665 -64.044632 -4.900097
43.540321 -63.603722 -3.966339
43.787943 -44.921942 -15.069913
44.401676 -45.206331 -14.360682
44.512159 -43.338781 -15.736833
43.787943 -44.921942 -15.069913
45.379931 -41.878668 -16.810435
45.978874 -42.335217 -16.392936
44.512159 -43.338781 -15.736833
46.320695 -40.163611 -17.664997
45.379931 -41.878668 -16.810435
44.853981 -41.167175 -17.008895
46.066071 -37.516554 -19.351281
46.653389 -37.936261 -18.892401
45.207428 -39.032411 -18.322336
45.397982 -37.224493 -19.364434
46.843943 -36.128342 -19.934498
46.066071 -37.516554 -19.351281
44.891219 -37.077759 -19.922241
45.397982 -37.224493 -19.364434
44.358187 -36.907427 -20.132459
45.642823 -35.665949 -20.157868
44.891219 -37.077759 -19.922241
43.912812 -36.578493 -20.623078
44.358187 -36.907427 -20.132459
44.574196 -35.291348 -20.511333
43.912812 -36.578493 -20.623078
55.805317 -20.364556 -25.76193
56.278126 -21.840769 -25.326823
55.795715 -20.319567 -27.069644
55.088787 -19.083284 -26.197212
55.805317 -20.364556 -25.76193
35.65575 8.278286 -36.662804
34.255581 7.502428 -36.496645
36.568262 6.886775 -36.479832
35.65575 8.278286 -36.662804
37.000318 8.981867 -36.601685
37.389813 5.625184 -36.622992
36.045245 4.921603 -36.684111
36.568262 6.886775 -36.479832
38.075215 4.199876 -36.477722
37.389813 5.625184 -36.622992
39.01222 2.914719 -36.676876
37.803801 2.374855 -37.026425
38.075215 4.199876 -36.477722
39.672453 1.737503 -36.655586
39.01222 2.914719 -36.676876
40.69354 0.913003 -37.076103
39.761894 0.265198 -37.646095
39.672453 1.737503 -36.655586
41.398535 -0.117122 -37.005209
40.69354 0.913003 -37.076103
42.462696 -0.904054 -37.198521
41.847143 -1.346235 -38.259924
41.398535 -0.117122 -37.005209
42.753195 -0.582104 -35.966719
43.721008 0.047518 -35.32189
43.201803 -1.811216 -37.221434
42.462696 -0.904054 -37.198521
42.753195 -0.582104 -35.966719
45.272922 -64.771553 -11.362561
45.069565 -65.171131 -10.318383
45.115167 -64.56504 -12.162938
45.019035 -64.098961 -12.938233
44.813444 -63.124108 -11.046414
45.272922 -64.771553 -11.362561
45.115167 -64.56504 -12.162938
43.005455 -56.281189 -10.839008
43.938988 -56.281492 -10.641756
42.291622 -57.41984 -10.362376
43.733473 -54.786945 -11.059629
43.005455 -56.281189 -10.839008
44.409467 -53.554834 -11.785281
45.328816 -53.91073 -11.84404
43.733473 -54.786945 -11.059629
43.482862 -52.907795 -11.447744
45.078205 -52.03158 -12.232155
44.409467 -53.554834 -11.785281
42.577803 -52.588334 -11.930851
43.482862 -52.907795 -11.447744
43.238573 -50.834927 -12.201073
42.577803 -52.588334 -11.930851
55.569503 -24.459221 -23.473302
56.135616 -23.235186 -24.317133
54.328088 -26.263955 -21.333847
54.36735 -26.298881 -20.154443
54.707416 -25.950904 -22.688482
54.328088 -26.263955 -21.333847
54.123724 -27.686089 -21.690708
55.365139 -25.881355 -23.830163
55.569503 -24.459221 -23.473302
54.707416 -25.950904 -22.688482
27.626201 1.071951 -36.549345
28.347461 2.555831 -37.546772
27.52923 -0.070028 -36.094551
27.626201 1.071951 -36.549345
28.893913 0.119746 -36.237656
29.988596 1.249408 -37.317905
30.071007 0.005825 -36.682907
27.52923 -0.070028 -36.094551
28.893913 0.119746 -36.237656
31.991968 -4.082147 -36.422337
31.579995 -3.015606 -35.612688
31.942954 -2.776473 -37.158594
31.991968 -4.082147 -36.422337
32.340088 -5.260198 -37.623726
33.251213 -8.198438 -37.064581
33.055977 -7.020372 -37.717867
34.127243 -8.508233 -37.382763
33.251213 -8.198438 -37.064581
32.242712 8.018752 -37.344181
31.123902 9.222931 -37.63319
32.210088 6.171532 -38.557225
32.242712 8.018752 -37.344181
33.254844 6.974441 -37.665382
34.904342 -8.013241 -36.268234
34.127243 -8.508233 -37.382763
34.563805 -6.868371 -37.041996
35.560822 -7.716012 -35.179051
34.904342 -8.013241 -36.268234
36.285209 -7.520064 -34.352536
35.560822 -7.716012 -35.179051
36.065292 -6.177431 -35.100952
36.829765 -7.323448 -33.14591
36.325294 -8.862029 -33.224009
36.285209 -7.520064 -34.352536
43.88765 -13.45979 -27.484579
42.855957 -13.315572 -26.420601
42.982383 -12.349001 -27.978899
44.674397 -14.762291 -27.236418
43.88765 -13.45979 -27.484579
44.800823 -13.79572 -28.794716
45.114437 -15.706882 -26.944839
44.201263 -15.370952 -25.634701
44.674397 -14.762291 -27.236418
43.905991 -20.309461 -22.343234
43.543037 -22.854472 -21.394777
44.524231 -19.254628 -23.585013
43.905991 -20.309461 -22.343234
44.023063 -17.370376 -24.101343
44.783658 -29.224016 -20.744284
45.445611 -30.064852 -20.944775
44.006924 -28.249718 -20.407754
43.346491 -27.063136 -20.423602
45.043949 -27.277171 -20.956922
44.783658 -29.224016 -20.744284
44.006924 -28.249718 -20.407754
48.952437 -58.663639 -1.970508
47.322907 -59.111015 -1.268441
47.239737 -59.439289 -2.002107
48.952437 -58.663639 -1.970508
50.251309 -58.454365 -2.888024
43.891564 -64.340183 -5.626862
44.397833 -64.665638 -6.423707
45.109762 -62.694989 -5.114438
43.750665 -64.044632 -4.900097
43.891564 -64.340183 -5.626862
53.885666 -57.469189 -5.733015
52.797287 -57.932037 -4.62932
53.245899 -58.407306 -5.340771
53.885666 -57.469189 -5.733015
54.147131 -56.087046 -6.846669
53.953216 -51.413394 -8.03615
53.979431 -53.031015 -8.167004
54.270568 -49.89738 -8.608109
53.953216 -51.413394 -8.03615
54.304129 -48.446448 -9.264868
54.270568 -49.89738 -8.608109
54.032438 -50.381464 -9.741895
54.64913 -46.831156 -9.867265
54.304129 -48.446448 -9.264868
54.82399 -45.191912 -10.606331
54.64913 -46.831156 -9.867265
54.240858 -47.291286 -11.137721
55.811735 -43.799488 -11.483338
54.82399 -45.191912 -10.606331
55.574461 -44.530506 -12.636239
54.844177 -46.458593 -13.117848
56.00292 -45.337057 -13.877299
55.811735 -43.799488 -11.483338
55.574461 -44.530506 -12.636239
58.965962 -42.328981 -15.531818
58.370651 -43.43178 -15.046986
57.975407 -43.806064 -15.955578
58.965962 -42.328981 -15.531818
59.142678 -41.183466 -15.901616
57.08298 -38.565922 -16.641751
57.000586 -40.394718 -16.769273
57.08298 -38.565922 -16.641751
56.425843 -38.985641 -17.179286
56.096552 -35.487091 -17.527141
55.747553 -37.475502 -17.43956
55.021145 -35.449892 -17.650842
56.096552 -35.487091 -17.527141
54.669418 -35.271151 -18.291996
55.021145 -35.449892 -17.650842
54.892658 -37.498504 -18.63025
53.992145 -34.985243 -18.953941
54.120632 -32.93663 -17.974533
54.669418 -35.271151 -18.291996
44.574404 -47.25588 -13.331114
43.891052 -49.089871 -12.883864
45.982723 -46.443981 -14.233769
44.574404 -47.25588 -13.331114
45.100568 -45.805433 -14.304683
45.570091 -3.669369 -34.11862
45.186205 -2.168373 -34.617497
46.138548 -4.950836 -35.429626
45.570091 -3.669369 -34.11862
46.334013 -4.981021 -33.81925
53.388852 -16.388443 -27.357298
54.522717 -17.746343 -26.72103
53.94532 -17.680395 -28.141193
53.388852 -16.388443 -27.357298
52.546499 -15.035353 -27.851009
48.875139 -8.714511 -29.803157
49.725121 -10.433394 -29.200401
47.963041 -8.525203 -31.073652
48.875139 -8.714511 -29.803157
47.768355 -8.054867 -32.753195
47.963041 -8.525203 -31.073652
48.645886 -9.633029 -32.194705
47.676834 -7.712591 -34.502253
46.99399 -6.604764 -33.381199
47.768355 -8.054867 -32.753195
3 283 75 284
3 1 78 76
3 1 80 78
3 2 83 81
3 2 85 83
3 2 87 85
3 3 90 88
3 3 92 90
3 285 95 286
3 6 98 96
3 6 100 98
3 4 103 101
3 7 106 104
3 7 108 106
3 7 110 108
3 9 113 111
3 9 115 113
3 8 287 288
3 8 289 291
3 289 116 290
3 289 290 291
3 10 292 294
3 292 117 293
3 292 293 294
3 10 119 117
3 5 295 297
3 295 120 296
3 295 296 297
3 11 123 121
3 11 125 123
3 11 127 125
3 12 130 128
3 12 132 130
3 12 134 132
3 13 137 135
3 13 139 137
3 298 142 299
3 300 299 140
3 298 299 300
3 14 145 143
3 14 147 145
3 14 149 147
3 301 152 302
3 303 302 150
3 301 302 303
3 305 304 152
3 16 156 154
3 16 158 156
3 16 160 158
3 15 163 161
3 15 165 163
3 17 306 307
3 17 308 309
3 17 310 312
3 310 166 311
3 310 311 312
3 19 167 74
3 19 168 167
3 20 171 169
3 22 172 77
3 22 173 172
3 22 175 173
3 24 176 79
3 24 177 176
3 25 313 314
3 25 315 317
3 315 178 316
3 315 316 317
3 26 181 179
3 28 182 82
3 28 183 182
3 28 185 183
3 30 186 84
3 30 187 186
3 30 189 187
3 32 190 86
3 32 191 190
3 318 192 319
3 321 320 192
3 35 322 324
3 322 194 323
3 322 323 324
3 37 195 89
3 37 196 195
3 37 198 196
3 39 199 91
3 39 200 199
3 325 201 326
3 327 202 328
3 329 328 201
3 327 328 329
3 41 330 331
3 41 332 334
3 332 203 333
3 332 333 334
3 41 204 203
3 42 205 93
3 42 206 205
3 42 208 206
3 44 209 94
3 44 210 209
3 18 335 337
3 335 211 336
3 335 336 337
3 45 338 340
3 340 339 97
3 338 339 340
3 45 341 342
3 45 343 344
3 46 345 347
3 347 346 99
3 345 346 347
3 46 348 350
3 348 212 349
3 348 349 350
3 40 351 353
3 351 213 352
3 351 352 353
3 47 214 102
3 47 215 214
3 21 216 170
3 48 217 105
3 48 218 217
3 48 219 218
3 49 220 107
3 49 221 220
3 49 222 221
3 50 223 109
3 50 224 223
3 23 225 174
3 51 226 112
3 51 227 226
3 51 228 227
3 52 229 114
3 52 231 229
3 354 230 355
3 356 233 357
3 358 232 359
3 360 359 233
3 358 359 360
3 54 361 362
3 54 363 365
3 363 364 365
3 54 366 367
3 55 368 370
3 370 369 118
3 368 369 370
3 55 371 372
3 56 373 374
3 56 375 377
3 375 235 376
3 375 376 377
3 27 236 180
3 57 237 122
3 57 238 237
3 57 239 238
3 58 240 124
3 58 378 380
3 380 379 240
3 378 379 380
3 58 381 383
3 381 241 382
3 381 382 383
3 59 242 126
3 59 243 242
3 29 244 184
3 60 245 129
3 60 384 386
3 386 385 245
3 384 385 386
3 60 387 388
3 390 389 131
3 61 391 393
3 393 392 133
3 391 392 393
3 61 394 396
3 394 246 395
3 394 395 396
3 31 247 188
3 62 248 136
3 62 249 248
3 62 250 249
3 63 251 138
3 63 252 251
3 43 253 207
3 64 254 141
3 64 255 254
3 33 397 399
3 397 256 398
3 397 398 399
3 65 257 144
3 65 258 257
3 65 259 258
3 66 260 146
3 66 261 260
3 66 262 261
3 67 263 148
3 67 264 263
3 34 265 193
3 68 266 151
3 68 267 266
3 68 268 267
3 53 269 153
3 53 234 269
3 400 271 401
3 36 402 403
3 70 404 406
3 406 405 155
3 404 405 406
3 70 407 408
3 70 409 411
3 409 272 410
3 409 410 411
3 71 273 157
3 71 274 273
3 71 275 274
3 72 276 159
3 72 277 276
3 38 278 197
3 73 279 162
3 73 280 279
3 73 281 280
3 69 282 164
3 69 270 282
3 412 17 413
3 414 74 415
3 416 415 17
3 414 415 416
3 75 417 419
3 417 74 418
3 417 418 419
3 75 19 74
3 76 77 20
3 78 77 76
3 78 22 77
3 78 79 22
3 80 79 78
3 80 24 79
3 420 25 421
3 81 82 26
3 83 82 81
3 83 28 82
3 83 84 28
3 85 84 83
3 85 30 84
3 85 86 30
3 87 86 85
3 87 32 86
3 88 89 35
3 90 89 88
3 90 37 89
3 90 91 37
3 92 91 90
3 92 39 91
3 422 41 423
3 424 93 425
3 426 425 41
3 424 425 426
3 427 93 428
3 429 42 430
3 431 430 93
3 429 430 431
3 433 432 42
3 434 94 435
3 95 436 438
3 436 94 437
3 436 437 438
3 95 44 94
3 96 97 18
3 98 97 96
3 98 45 97
3 98 99 45
3 100 99 98
3 100 46 99
3 101 102 40
3 103 102 101
3 103 47 102
3 104 105 21
3 106 105 104
3 106 48 105
3 106 107 48
3 108 107 106
3 108 49 107
3 108 109 49
3 110 109 108
3 110 50 109
3 111 112 23
3 113 112 111
3 113 51 112
3 113 114 51
3 115 114 113
3 115 52 114
3 116 439 440
3 116 441 442
3 117 443 444
3 117 445 447
3 445 54 446
3 445 446 447
3 117 118 54
3 119 118 117
3 119 55 118
3 120 448 449
3 120 450 452
3 450 56 451
3 450 451 452
3 121 122 27
3 123 122 121
3 123 57 122
3 123 124 57
3 125 124 123
3 125 58 124
3 125 126 58
3 127 126 125
3 127 59 126
3 128 129 29
3 130 129 128
3 130 60 129
3 130 131 60
3 132 131 130
3 132 453 455
3 455 454 131
3 453 454 455
3 132 456 458
3 456 133 457
3 456 457 458
3 134 133 132
3 134 61 133
3 135 136 31
3 137 136 135
3 137 62 136
3 137 138 62
3 139 138 137
3 139 63 138
3 140 141 43
3 142 141 140
3 142 64 141
3 143 144 33
3 145 144 143
3 145 65 144
3 145 146 65
3 147 146 145
3 147 66 146
3 147 148 66
3 149 148 147
3 149 67 148
3 150 151 34
3 152 151 150
3 152 68 151
3 152 153 68
3 459 153 460
3 461 460 152
3 459 460 461
3 462 53 463
3 464 463 153
3 462 463 464
3 154 155 36
3 156 155 154
3 156 70 155
3 156 157 70
3 158 157 156
3 158 71 157
3 158 159 71
3 160 159 158
3 160 72 159
3 161 162 38
3 163 162 161
3 163 73 162
3 163 164 73
3 165 164 163
3 165 69 164
3 166 465 466
3 166 467 469
3 467 18 468
3 467 468 469
3 74 166 17
3 167 166 74
3 167 18 166
3 167 96 18
3 168 96 167
3 168 6 96
3 169 170 4
3 171 170 169
3 171 21 170
3 77 171 20
3 172 171 77
3 172 21 171
3 172 104 21
3 173 104 172
3 173 7 104
3 173 174 7
3 175 174 173
3 175 23 174
3 79 175 22
3 176 175 79
3 176 23 175
3 176 111 23
3 177 111 176
3 177 9 111
3 178 470 471
3 178 472 474
3 472 8 473
3 472 473 474
3 475 10 476
3 179 180 5
3 181 180 179
3 181 27 180
3 82 181 26
3 182 181 82
3 182 27 181
3 182 121 27
3 183 121 182
3 183 11 121
3 183 184 11
3 185 184 183
3 185 29 184
3 84 185 28
3 186 185 84
3 186 29 185
3 186 128 29
3 187 128 186
3 187 12 128
3 187 188 12
3 189 188 187
3 189 31 188
3 86 189 30
3 190 189 86
3 190 31 189
3 190 135 31
3 191 135 190
3 191 13 135
3 477 33 478
3 479 33 480
3 481 143 482
3 483 482 33
3 481 482 483
3 192 484 486
3 484 143 485
3 484 485 486
3 192 14 143
3 192 193 14
3 487 193 488
3 489 488 192
3 487 488 489
3 490 34 491
3 492 491 193
3 490 491 492
3 493 34 494
3 495 150 496
3 497 496 34
3 495 496 497
3 498 150 499
3 501 500 150
3 194 502 503
3 194 504 506
3 504 36 505
3 504 505 506
3 89 194 35
3 195 194 89
3 195 36 194
3 195 154 36
3 196 154 195
3 196 16 154
3 196 197 16
3 198 197 196
3 198 38 197
3 91 198 37
3 199 198 91
3 199 38 198
3 199 161 38
3 200 161 199
3 200 15 161
3 507 40 508
3 509 40 510
3 509 510 511
3 512 101 513
3 514 513 40
3 512 513 514
3 515 101 516
3 517 4 518
3 519 518 101
3 517 518 519
3 520 4 521
3 522 169 523
3 524 523 4
3 522 523 524
3 525 169 526
3 527 20 528
3 529 528 169
3 527 528 529
3 201 530 531
3 201 532 534
3 532 20 533
3 532 533 534
3 201 76 20
3 202 76 201
3 202 1 76
3 535 5 536
3 203 537 538
3 203 539 541
3 539 5 540
3 539 540 541
3 203 179 5
3 204 179 203
3 204 26 179
3 93 204 41
3 205 204 93
3 205 26 204
3 205 81 26
3 206 81 205
3 206 2 81
3 206 207 2
3 208 207 206
3 208 43 207
3 542 208 543
3 544 543 42
3 542 543 544
3 545 208 546
3 547 43 548
3 549 548 208
3 547 548 549
3 550 140 551
3 552 551 43
3 550 551 552
3 553 140 554
3 556 555 140
3 557 35 558
3 94 559 560
3 209 561 563
3 563 562 94
3 561 562 563
3 209 564 566
3 564 35 565
3 564 565 566
3 209 88 35
3 210 88 209
3 210 3 88
3 211 567 568
3 211 569 570
3 97 211 18
3 571 211 572
3 573 572 97
3 571 572 573
3 575 574 211
3 99 576 578
3 578 577 45
3 576 577 578
3 580 579 99
3 212 581 582
3 212 583 584
3 585 75 586
3 213 587 589
3 587 75 588
3 587 588 589
3 213 19 75
3 102 213 40
3 214 213 102
3 214 19 213
3 214 168 19
3 215 168 214
3 215 6 168
3 170 103 4
3 216 103 170
3 216 47 103
3 105 216 21
3 217 216 105
3 217 47 216
3 217 215 47
3 218 215 217
3 218 6 215
3 218 100 6
3 219 100 218
3 219 46 100
3 107 219 48
3 220 219 107
3 220 46 219
3 220 212 46
3 221 212 220
3 221 590 592
3 592 591 212
3 590 591 592
3 221 593 594
3 222 595 597
3 597 596 221
3 595 596 597
3 222 598 600
3 598 25 599
3 598 599 600
3 109 222 49
3 223 222 109
3 223 25 222
3 223 178 25
3 224 178 223
3 224 8 178
3 174 110 7
3 225 110 174
3 225 50 110
3 112 225 23
3 226 225 112
3 226 50 225
3 226 224 50
3 227 224 226
3 227 8 224
3 227 116 8
3 228 116 227
3 228 601 603
3 603 602 116
3 601 602 603
3 114 228 51
3 229 228 114
3 229 604 606
3 606 605 228
3 604 605 606
3 229 607 609
3 607 230 608
3 607 608 609
3 231 230 229
3 231 0 230
3 610 232 611
3 230 612 614
3 612 232 613
3 612 613 614
3 230 0 232
3 615 53 616
3 233 617 618
3 233 619 621
3 619 53 620
3 619 620 621
3 233 234 53
3 232 234 233
3 232 0 234
3 118 622 624
3 624 623 54
3 622 623 624
3 626 625 118
3 235 627 628
3 235 629 631
3 629 10 630
3 629 630 631
3 180 120 5
3 236 120 180
3 236 56 120
3 122 236 27
3 237 236 122
3 237 56 236
3 237 235 56
3 238 235 237
3 238 10 235
3 238 119 10
3 239 119 238
3 239 55 119
3 124 239 57
3 240 239 124
3 240 55 239
3 240 632 634
3 634 633 55
3 632 633 634
3 636 635 240
3 241 637 638
3 241 639 640
3 126 241 58
3 242 241 126
3 242 641 643
3 643 642 241
3 641 642 643
3 242 644 645
3 243 646 648
3 648 647 242
3 646 647 648
3 243 649 650
3 184 127 11
3 244 127 184
3 244 59 127
3 129 244 29
3 245 244 129
3 245 59 244
3 245 243 59
3 651 243 652
3 653 652 245
3 651 652 653
3 655 654 243
3 131 656 658
3 658 657 60
3 656 657 658
3 660 659 131
3 133 661 662
3 664 663 133
3 246 665 666
3 246 667 668
3 188 134 12
3 247 134 188
3 247 61 134
3 136 247 31
3 248 247 136
3 248 61 247
3 248 246 61
3 249 246 248
3 249 669 671
3 671 670 246
3 669 670 671
3 249 672 674
3 672 95 673
3 672 673 674
3 250 95 249
3 250 44 95
3 138 250 62
3 251 250 138
3 251 44 250
3 251 210 44
3 252 210 251
3 252 3 210
3 207 87 2
3 253 87 207
3 253 32 87
3 141 253 43
3 254 253 141
3 254 32 253
3 254 191 32
3 255 191 254
3 255 13 191
3 675 142 676
3 256 677 679
3 677 142 678
3 677 678 679
3 256 64 142
3 144 256 33
3 257 256 144
3 257 64 256
3 257 255 64
3 258 255 257
3 258 13 255
3 258 139 13
3 259 139 258
3 259 63 139
3 146 259 65
3 260 259 146
3 260 63 259
3 260 252 63
3 261 252 260
3 261 3 252
3 261 92 3
3 262 92 261
3 262 39 92
3 148 262 66
3 263 262 148
3 263 39 262
3 263 200 39
3 264 200 263
3 264 15 200
3 193 149 14
3 265 149 193
3 265 67 149
3 151 265 34
3 266 265 151
3 266 67 265
3 266 264 67
3 267 264 266
3 267 15 264
3 267 165 15
3 268 165 267
3 268 69 165
3 153 268 68
3 269 268 153
3 269 69 268
3 269 270 69
3 234 270 269
3 234 0 270
3 680 202 681
3 271 682 684
3 682 202 683
3 682 683 684
3 271 1 202
3 155 685 687
3 687 686 36
3 685 686 687
3 689 688 155
3 272 690 691
3 272 692 693
3 157 272 70
3 273 272 157
3 273 694 696
3 696 695 272
3 694 695 696
3 273 697 699
3 697 271 698
3 697 698 699
3 274 271 273
3 274 1 271
3 274 80 1
3 275 80 274
3 275 24 80
3 159 275 71
3 276 275 159
3 276 24 275
3 276 177 24
3 277 177 276
3 277 9 177
3 197 160 16
3 278 160 197
3 278 72 160
3 162 278 38
3 279 278 162
3 279 72 278
3 279 277 72
3 280 277 279
3 280 9 277
3 280 115 9
3 281 115 280
3 281 52 115
3 164 281 73
3 282 281 164
3 282 52 281
3 282 231 52
3 270 231 282
3 270 0 231
