ply
format ascii 1.0
element vertex 188
property float x
property float y
property float z
element face 174
property list uchar int vertex_index
end_header
47.314735 -18.558365 1.707057
37.833565 -29.241507 12.487432
42.432102 -23.26827 7.542353
40.11438 -26.068939 10.3375
47.361977 -22.489532 7.179688
44.454647 -26.29269 7.791732
51.170242 -14.251417 4.081695
51.903847 -10.88328 0.487921
44.605057 -20.807779 4.614203
49.410088 -18.655273 6.022879
39.075996 -27.660496 11.44756
42.57312 -26.062283 9.736067
41.205677 -27.953053 10.318624
53.627453 -13.847984 3.28331
54.174141 -11.69043 2.476035
39.077457 -25.912838 8.172535
40.323494 -25.115435 6.360281
41.548225 -24.484932 4.583957
43.490059 -21.94976 6.194264
46.896717 -19.117544 6.107083
45.933556 -20.852434 7.283967
48.960297 -22.645123 4.834383
50.180656 -20.447308 4.425757
37.759827 -26.934092 9.904699
41.28764 -24.600155 9.031168
44.975914 -22.606346 8.227903
43.97757 -24.268442 9.05522
46.148586 -24.306887 7.501239
47.708572 -24.723942 5.379801
48.775311 -15.843924 3.334949
49.641418 -14.756861 1.286039
51.501904 -12.445401 2.404157
54.48896 -9.774202 1.008164
44.305523 -22.555843 1.390468
42.933735 -23.666134 2.891206
45.792507 -19.87653 3.138855
47.819588 -17.413919 4.738561
50.352734 -16.46023 5.189419
52.595814 -16.099766 3.989047
48.436909 -20.673498 6.722127
51.439606 -18.444294 4.359778
36.913788 -31.064499 13.495718
39.094208 -32.101147 11.728838
40.058609 -29.94227 10.63651
43.056145 -28.415796 7.927203
50.704243 -13.727591 -0.679175
38.45478 -28.451001 11.967496
37.203163 -28.323732 12.396762
36.581947 -29.114238 12.916698
47.848062 -18.195814 0.717736
46.562973 -19.804829 0.859676
55.197974 -12.712406 2.251167
54.920758 -13.828181 2.396779
50.734161 -21.68053 3.926167
50.165593 -22.871226 4.418203
38.937103 -26.501516 10.121099
37.121431 -27.472209 10.740393
38.298708 -27.039632 10.956794
55.988987 -9.523735 0.853529
54.33155 -10.732316 1.7421
55.831577 -10.481849 1.587464
56.315296 -8.285224 0.335912
55.988987 -9.523735 0.853529
42.653782 -23.921009 1.503432
43.320273 -23.341518 0.680793
52.574863 -18.474236 3.459326
50.810131 -19.445801 4.392767
51.945388 -19.475744 3.492315
53.235926 -17.297458 3.239707
52.574863 -18.474236 3.459326
36.563137 -31.876272 14.323189
35.613994 -31.060704 15.018853
40.589287 -31.401417 10.272895
40.217606 -32.470995 11.138179
41.071488 -30.321979 9.726731
39.576408 -31.021708 11.182674
40.589287 -31.401417 10.272895
42.570256 -29.558742 8.372077
41.557377 -29.179033 9.281856
41.071488 -30.321979 9.726731
37.779516 -27.835411 11.511824
37.203163 -28.323732 12.396762
39.595188 -26.864717 10.89253
38.298708 -27.039632 10.956794
37.779516 -27.835411 11.511824
55.471317 -11.633629 1.847529
53.900797 -12.769207 2.879672
55.197974 -12.712406 2.251167
55.831577 -10.481849 1.587464
55.471317 -11.633629 1.847529
37.924053 -26.498966 7.74378
37.196692 -26.727321 8.710619
38.547072 -26.100265 6.837652
37.924053 -26.498966 7.74378
39.700475 -25.514136 7.266408
39.270305 -25.892898 5.893049
38.547072 -26.100265 6.837652
40.935859 -24.800184 5.472119
39.882671 -25.577647 5.004887
39.270305 -25.892898 5.893049
51.344341 -20.581623 3.721854
49.570476 -21.546216 4.63007
50.734161 -21.68053 3.926167
51.945388 -19.475744 3.492315
51.344341 -20.581623 3.721854
52.335472 -10.087463 -0.47056
53.596384 -9.320781 -0.24301
35.904755 -27.435606 10.614894
37.121431 -27.472209 10.740393
36.537876 -27.237948 9.576701
35.904755 -27.435606 10.614894
38.418642 -26.423465 9.038617
37.196692 -26.727321 8.710619
36.537876 -27.237948 9.576701
49.53973 -23.910635 4.690912
50.165593 -22.871226 4.418203
48.334435 -23.684533 5.107092
36.270897 -29.589571 13.666424
36.581947 -29.114238 12.916698
54.888941 -8.766243 0.017112
53.596384 -9.320781 -0.24301
53.196404 -10.328741 0.748043
54.888941 -8.766243 0.017112
56.315296 -8.285224 0.335912
45.058367 -21.803568 0.701381
43.320273 -23.341518 0.680793
45.810129 -20.557104 1.548763
46.562973 -19.804829 0.859676
45.058367 -21.803568 0.701381
40.605375 -25.285448 4.027393
39.882671 -25.577647 5.004887
41.29813 -24.876049 3.181018
40.605375 -25.285448 4.027393
42.24098 -24.075533 3.737582
41.967888 -24.476154 2.253801
41.29813 -24.876049 3.181018
43.619629 -23.110988 2.140837
42.653782 -23.921009 1.503432
41.967888 -24.476154 2.253801
54.404938 -14.954071 2.749648
54.920758 -13.828181 2.396779
53.111633 -14.973875 3.636178
53.81403 -16.125194 3.054341
52.01771 -17.27203 4.174412
53.235926 -17.297458 3.239707
54.404938 -14.954071 2.749648
53.81403 -16.125194 3.054341
35.811008 -30.501067 14.170567
35.613994 -31.060704 15.018853
37.373677 -30.153003 12.991575
36.270897 -29.589571 13.666424
35.811008 -30.501067 14.170567
38.767708 -33.007791 12.663288
40.217606 -32.470995 11.138179
37.653347 -32.394596 13.439749
38.767708 -33.007791 12.663288
38.003998 -31.582823 12.612278
36.563137 -31.876272 14.323189
37.653347 -32.394596 13.439749
44.300148 -28.74326 7.401776
42.570256 -29.558742 8.372077
44.811402 -27.649693 6.868666
44.300148 -28.74326 7.401776
45.510652 -26.588141 6.800931
43.755396 -27.354243 7.859468
44.811402 -27.649693 6.868666
47.137615 -25.803767 5.594965
46.081609 -25.508316 6.585767
45.510652 -26.588141 6.800931
49.084154 -24.982235 5.334485
47.137615 -25.803767 5.594965
49.53973 -23.910635 4.690912
49.084154 -24.982235 5.334485
49.011404 -16.295062 0.507227
47.848062 -18.195814 0.717736
48.478077 -16.657613 1.496548
49.542817 -15.780427 -0.47538
49.011404 -16.295062 0.507227
50.172831 -14.242226 0.303432
49.98914 -15.122632 -1.485212
49.542817 -15.780427 -0.47538
51.73567 -11.509619 -1.054107
51.304045 -12.305435 -0.095627
52.335472 -10.087463 -0.47056
51.17185 -12.963638 -1.691723
51.73567 -11.509619 -1.054107
49.98914 -15.122632 -1.485212
51.17185 -12.963638 -1.691723
3 1 46 48
3 46 10 47
3 46 47 48
3 1 12 10
3 0 49 50
3 52 51 13
3 2 16 15
3 2 18 16
3 2 20 18
3 54 53 21
3 3 55 57
3 55 23 56
3 55 56 57
3 3 24 23
3 3 26 24
3 5 27 11
3 5 28 27
3 6 31 29
3 58 32 59
3 60 59 14
3 58 59 60
3 62 61 32
3 63 33 64
3 8 34 17
3 8 35 34
3 8 36 35
3 9 37 19
3 9 38 37
3 4 39 25
3 65 40 66
3 67 66 22
3 65 66 67
3 69 68 40
3 70 41 71
3 72 42 73
3 74 43 75
3 76 75 42
3 74 75 76
3 77 44 78
3 79 78 43
3 77 78 79
3 7 45 30
3 10 80 81
3 10 82 84
3 82 3 83
3 82 83 84
3 10 11 3
3 12 11 10
3 12 5 11
3 13 14 6
3 85 14 86
3 87 86 13
3 85 86 87
3 89 88 14
3 15 90 91
3 16 92 94
3 94 93 15
3 92 93 94
3 16 95 96
3 16 97 99
3 97 17 98
3 97 98 99
3 18 17 16
3 18 8 17
3 18 19 8
3 20 19 18
3 20 9 19
3 21 22 4
3 100 22 101
3 102 101 21
3 100 101 102
3 104 103 22
3 106 105 7
3 23 107 108
3 23 109 110
3 23 111 113
3 111 15 112
3 111 112 113
3 24 15 23
3 24 2 15
3 24 25 2
3 26 25 24
3 26 4 25
3 11 26 3
3 27 26 11
3 27 4 26
3 27 21 4
3 28 21 27
3 28 114 116
3 116 115 21
3 114 115 116
3 117 1 118
3 29 30 0
3 31 30 29
3 31 7 30
3 14 31 6
3 32 31 14
3 32 7 31
3 32 119 121
3 121 120 7
3 119 120 121
3 123 122 32
3 33 124 125
3 33 126 128
3 126 0 127
3 126 127 128
3 17 129 130
3 34 131 133
3 133 132 17
3 131 132 133
3 34 134 135
3 34 136 138
3 136 33 137
3 136 137 138
3 35 33 34
3 35 0 33
3 35 29 0
3 36 29 35
3 36 6 29
3 19 36 8
3 37 36 19
3 37 6 36
3 37 13 6
3 38 13 37
3 38 139 141
3 141 140 13
3 139 140 141
3 25 20 2
3 39 20 25
3 39 9 20
3 22 39 4
3 40 39 22
3 40 9 39
3 40 38 9
3 142 38 143
3 144 143 40
3 142 143 144
3 146 145 38
3 41 147 148
3 41 149 151
3 149 1 150
3 149 150 151
3 42 152 153
3 42 154 155
3 42 156 158
3 156 41 157
3 156 157 158
3 43 41 42
3 43 1 41
3 43 12 1
3 44 12 43
3 44 5 12
3 159 44 160
3 161 44 162
3 163 5 164
3 165 164 44
3 163 164 165
3 166 28 167
3 168 167 5
3 166 167 168
3 169 28 170
3 172 171 28
3 30 173 175
3 175 174 0
3 173 174 175
3 45 176 178
3 178 177 30
3 176 177 178
3 45 179 180
3 181 45 182
3 183 182 7
3 181 182 183
3 184 45 185
3 187 186 45
