ply
format ascii 1.0
element vertex 195
property float x
property float y
property float z
element face 176
property list uchar int vertex_index
end_header
-31.484568 -4.788224 -33.733284
-21.529686 -7.869424 -30.919458
-22.388355 -15.287626 -30.475567
-21.167704 -15.290342 -26.703192
-25.479692 0.504212 -30.625311
-24.038502 -0.854971 -33.674583
-24.431902 -3.770107 -34.945908
-25.29154 -7.219474 -34.571968
-20.637075 -11.043344 -30.382471
-26.919018 -11.071783 -33.131065
-28.706198 -14.777331 -31.063824
-31.877802 -7.172788 -32.675503
-24.546198 0.019466 -32.199471
-24.383163 -2.281967 -30.785635
-22.992945 -4.559144 -32.749371
-22.729061 -6.148573 -33.107155
-24.795593 -5.494007 -34.876301
-22.269802 -7.689448 -33.101665
-20.279217 -14.852324 -28.056637
-20.156204 -12.743104 -28.186081
-20.896622 -12.939931 -30.24791
-23.141687 -11.566957 -33.018208
-24.494753 -13.587828 -32.675941
-27.746231 -12.89342 -32.125641
-25.748684 -15.438222 -31.880619
-20.74032 -16.934423 -26.342739
-21.252781 -17.074129 -28.382114
-24.061649 -17.503904 -30.462688
-30.981384 -2.642843 -35.113708
-25.315104 1.57147 -36.546741
-25.747534 0.550891 -37.248844
-23.420425 -3.295092 -31.996037
-24.143354 -2.085047 -34.652882
-26.653896 -0.596008 -36.709087
-27.508823 -2.189632 -35.726727
-28.090771 -3.987634 -34.624794
-28.546305 -5.851719 -33.638512
-20.814184 -9.230633 -30.638103
-22.307425 -9.615814 -33.01897
-26.051357 -9.185848 -33.992393
-29.105505 -7.824171 -32.648075
-29.689407 -9.818769 -31.722357
-27.08544 -17.292709 -30.69405
-32.399516 -5.44082 -34.404892
-32.207105 -4.289425 -35.175719
-31.681185 -5.980506 -33.204393
-32.596134 -6.633102 -33.876002
-32.399516 -5.44082 -34.404892
-25.817073 -3.165961 -30.489617
-24.974267 -2.022806 -30.016565
-22.129373 -7.008999 -32.013306
-22.807856 -6.618894 -32.214704
-22.208169 -7.47932 -31.120856
-20.761542 -17.90164 -26.278393
-21.19724 -17.981947 -25.420551
-21.017772 -17.971493 -27.29808
-20.99655 -17.004276 -27.362427
-20.761542 -17.90164 -26.278393
-21.897724 -18.148083 -28.447777
-21.017772 -17.971493 -27.29808
-30.536006 -1.598859 -36.106464
-31.423831 -2.262113 -36.768955
-26.23034 0.75208 -29.858185
-27.045004 -0.159857 -28.379953
-26.294356 -0.407724 -29.14708
-26.036452 1.747376 -32.353143
-26.23034 0.75208 -29.858185
-25.575475 1.489416 -32.974072
-26.036452 1.747376 -32.353143
-23.943296 -4.735766 -31.767547
-24.652303 -4.141974 -31.60426
-21.624155 -14.706472 -27.093027
-22.69211 -16.256505 -26.664213
-20.706034 -11.092087 -29.417119
-20.465598 -11.941968 -28.318924
-20.396639 -11.893224 -29.284276
-20.72563 -10.136988 -30.510287
-20.794588 -10.185732 -29.544935
-20.706034 -11.092087 -29.417119
-29.665721 -13.408431 -31.025307
-29.185738 -12.466476 -31.556216
-28.226215 -13.835376 -31.594732
-30.089565 -14.522244 -30.712508
-29.665721 -13.408431 -31.025307
-26.358958 -18.409754 -30.207074
-25.573544 -17.398306 -30.578369
-24.847063 -18.515351 -30.091393
-32.639211 -7.866919 -33.400391
-33.357543 -7.327233 -34.600889
-32.596134 -6.633102 -33.876002
-32.145662 -8.345486 -32.345278
-32.639211 -7.866919 -33.400391
-25.522532 -0.629717 -29.936402
-26.294356 -0.407724 -29.14708
-25.055785 -0.872089 -30.723483
-25.012945 0.261839 -31.412391
-25.522532 -0.629717 -29.936402
-24.464681 -1.13125 -31.492553
-25.055785 -0.872089 -30.723483
-24.974267 -2.022806 -30.016565
-22.939799 -5.824179 -32.035812
-23.729556 -5.367792 -32.144214
-22.861003 -5.353858 -32.928263
-22.939799 -5.824179 -32.035812
-22.807856 -6.618894 -32.214704
-22.425722 -8.823568 -30.720315
-22.208169 -7.47932 -31.120856
-21.977556 -16.646178 -26.056741
-22.69211 -16.256505 -26.664213
-21.763865 -17.468218 -25.876514
-22.220785 -18.515743 -24.954327
-21.19724 -17.981947 -25.420551
-20.954012 -16.112382 -26.522966
-21.977556 -16.646178 -26.056741
-21.763865 -17.468218 -25.876514
-23.302158 -18.362971 -29.488064
-22.657215 -17.289016 -29.422401
-21.897724 -18.148083 -28.447777
-24.847063 -18.515351 -30.091393
-23.302158 -18.362971 -29.488064
-31.955513 -3.216735 -35.865931
-31.423831 -2.262113 -36.768955
-31.232976 -3.715533 -34.423496
-32.207105 -4.289425 -35.175719
-31.955513 -3.216735 -35.865931
-25.108728 1.247043 -33.761153
-25.575475 1.489416 -32.974072
-25.012945 0.261839 -31.412391
-25.493181 2.023045 -35.934787
-25.108728 1.247043 -33.761153
-24.930651 0.795468 -34.373106
-25.220759 2.932687 -37.676317
-25.493181 2.023045 -35.934787
-25.433877 2.305959 -38.121611
-25.339531 3.667175 -39.251187
-25.220759 2.932687 -37.676317
-25.650092 1.795669 -38.472662
-25.433877 2.305959 -38.121611
-25.531319 1.06118 -36.897792
-26.35802 1.245642 -38.502453
-25.650092 1.795669 -38.472662
-25.133671 -3.635412 -30.999059
-25.817073 -3.165961 -30.489617
-23.901794 -2.78853 -31.390836
-25.133671 -3.635412 -30.999059
-24.652303 -4.141974 -31.60426
-23.206685 -3.927118 -32.372704
-23.943296 -4.735766 -31.767547
-23.729556 -5.367792 -32.144214
-26.811201 0.672193 -38.232574
-26.35802 1.245642 -38.502453
-26.200715 -0.022558 -36.978966
-27.652494 0.166127 -37.753109
-26.811201 0.672193 -38.232574
-28.079958 -0.630685 -37.261929
-27.652494 0.166127 -37.753109
-27.081359 -1.39282 -36.217907
-28.799726 -1.372254 -36.412973
-28.079958 -0.630685 -37.261929
-29.090699 -2.271254 -35.862007
-28.799726 -1.372254 -36.412973
-27.799797 -3.088633 -35.17576
-29.536077 -3.315238 -34.869251
-30.536006 -1.598859 -36.106464
-29.090699 -2.271254 -35.862007
-21.67365 -9.160256 -30.20666
-22.425722 -8.823568 -30.720315
-21.118405 -13.432853 -27.834471
-21.624155 -14.706472 -27.093027
-20.661954 -14.016723 -27.444637
-21.118405 -13.432853 -27.834471
-20.465598 -11.941968 -28.318924
-21.315899 -9.840861 -30.065983
-20.794588 -10.185732 -29.544935
-21.171935 -8.550028 -30.77878
-21.67365 -9.160256 -30.20666
-21.315899 -9.840861 -30.065983
-31.051464 -9.668476 -31.868705
-32.145662 -8.345486 -32.345278
-30.783604 -8.495779 -32.19893
-30.157325 -10.92915 -31.354574
-28.717819 -11.356095 -31.923999
-29.185738 -12.466476 -31.556216
-31.051464 -9.668476 -31.868705
-30.157325 -10.92915 -31.354574
-27.837571 -18.287637 -30.106445
-26.358958 -18.409754 -30.207074
-28.466823 -17.070532 -30.369979
-27.837571 -18.287637 -30.106445
-29.277202 -15.812843 -30.554866
-27.895819 -16.03502 -30.878937
-28.466823 -17.070532 -30.369979
-30.660569 -15.557755 -30.20355
-30.089565 -14.522244 -30.712508
-29.277202 -15.812843 -30.554866
3 0 43 44
3 0 45 47
3 45 11 46
3 45 46 47
3 48 13 49
3 1 50 52
3 50 15 51
3 50 51 52
3 1 17 15
3 2 20 18
3 2 22 20
3 2 24 22
3 53 25 54
3 55 26 56
3 57 56 25
3 55 56 57
3 59 58 26
3 60 28 61
3 4 62 64
3 62 63 64
3 4 65 66
3 4 67 68
3 5 29 12
3 5 30 29
3 69 31 70
3 6 32 14
3 6 33 32
3 6 34 33
3 7 35 16
3 7 36 35
3 3 71 72
3 8 73 75
3 75 74 19
3 73 74 75
3 8 76 78
3 76 37 77
3 76 77 78
3 8 38 37
3 9 39 21
3 9 40 39
3 9 41 40
3 10 79 81
3 81 80 23
3 79 80 81
3 10 82 83
3 84 42 85
3 86 85 27
3 84 85 86
3 11 87 89
3 87 88 89
3 11 90 91
3 92 4 93
3 94 12 95
3 96 95 4
3 94 95 96
3 13 97 99
3 97 12 98
3 97 98 99
3 13 5 12
3 100 14 101
3 15 102 104
3 102 14 103
3 102 103 104
3 15 6 14
3 15 16 6
3 17 16 15
3 17 7 16
3 18 19 3
3 20 19 18
3 20 8 19
3 20 21 8
3 22 21 20
3 22 9 21
3 22 23 9
3 24 23 22
3 24 10 23
3 105 1 106
3 107 3 108
3 25 109 111
3 109 110 111
3 25 112 114
3 112 3 113
3 112 113 114
3 25 18 3
3 26 18 25
3 26 2 18
3 26 27 2
3 115 27 116
3 117 116 26
3 115 116 117
3 119 118 27
3 28 120 121
3 28 122 124
3 122 0 123
3 122 123 124
3 12 125 127
3 127 126 4
3 125 126 127
3 29 128 130
3 130 129 12
3 128 129 130
3 29 131 132
3 29 133 135
3 133 134 135
3 30 136 138
3 138 137 29
3 136 137 138
3 30 139 140
3 141 13 142
3 31 143 145
3 143 13 144
3 143 144 145
3 31 5 13
3 14 146 148
3 146 31 147
3 146 147 148
3 32 31 14
3 32 5 31
3 32 30 5
3 33 30 32
3 33 149 151
3 151 150 30
3 149 150 151
3 33 152 153
3 34 154 156
3 156 155 33
3 154 155 156
3 34 157 158
3 16 34 6
3 35 34 16
3 35 159 161
3 161 160 34
3 159 160 161
3 35 162 164
3 162 28 163
3 162 163 164
3 36 28 35
3 36 0 28
3 165 1 166
3 19 167 169
3 169 168 3
3 167 168 169
3 171 170 19
3 37 172 173
3 37 174 176
3 174 1 175
3 174 175 176
3 37 17 1
3 38 17 37
3 38 7 17
3 21 38 8
3 39 38 21
3 39 7 38
3 39 36 7
3 40 36 39
3 40 0 36
3 40 11 0
3 41 11 40
3 41 177 179
3 179 178 11
3 177 178 179
3 23 41 9
3 180 41 181
3 182 181 23
3 180 181 182
3 184 183 41
3 27 24 2
3 42 24 27
3 42 10 24
3 185 42 186
3 187 42 188
3 189 10 190
3 191 190 42
3 189 190 191
3 194 193 10
3 192 193 194
