ply
format ascii 1.0
element vertex 674
property float x
property float y
property float z
element face 779
property list uchar int vertex_index
end_header
-14.369802 27.23912 -21.472563
-29.844456 22.779324 -20.519169
-23.027014 42.605923 -11.214326
-25.074902 3.986102 -12.962189
-19.346409 24.22072 -17.067408
-23.787943 14.083369 -21.912395
-16.508059 13.737849 -21.651657
-13.17615 14.621597 -14.084213
-32.016754 22.713612 -15.402644
-37.998711 26.967411 -15.922224
-24.209452 32.041042 -10.074414
-17.000526 35.417706 -20.691719
-21.026279 57.20121 -13.497386
-12.557821 48.361355 -21.318405
-25.057438 16.534872 -15.8004
-15.96476 25.586859 -23.080673
-17.868999 19.446407 -21.499983
-14.650465 20.727596 -22.403212
-28.360861 39.694012 -9.957674
-29.198847 34.881691 -7.843192
-23.536697 37.314854 -10.83842
-19.955631 34.294811 -14.594104
-21.535889 39.165852 -16.706238
-21.05402 53.581463 -6.022286
-25.339306 58.333729 -8.796267
-17.874537 56.243874 -11.222278
-9.185536 55.495739 -20.390131
-10.785097 44.162186 -22.272099
-33.363609 21.410765 -19.706224
-27.525074 20.511942 -15.92798
-29.461847 18.443701 -21.357031
-23.298185 9.932823 -17.247852
-27.885166 4.356252 -13.445439
-32.592964 -0.810669 -16.307453
-30.137115 -1.67877 -14.712891
-15.563093 6.670674 -15.568216
-28.211502 45.709148 -11.229298
-24.586102 23.5881 -16.215813
-26.78764 18.316351 -22.920187
-22.30134 18.913448 -18.707935
-19.870905 13.506662 -21.08724
-20.932823 9.474658 -16.800213
-12.030127 28.26413 -18.157913
-14.687711 22.503321 -16.610304
-37.526848 23.435574 -16.993919
-33.971027 26.60202 -18.64056
-31.130869 31.233984 -13.260382
-27.325878 28.401806 -15.090811
-21.099422 28.195364 -13.081072
-19.369358 29.992447 -19.036968
-14.435628 31.306599 -24.235538
-27.84108 55.062935 -11.601076
-22.167557 49.984138 -11.60815
-13.754977 58.920494 -16.007275
-15.54921 52.773468 -15.541176
-17.434349 45.331749 -14.712545
-14.463857 41.57671 -21.705029
-12.365213 37.470898 -24.078054
-12.886709 33.886383 -19.763649
-26.068497 14.792735 -20.93469
-16.49789 16.138527 -16.568111
-18.369343 8.204206 -16.114113
-22.246588 2.482358 -12.512346
-27.205318 -2.556696 -14.336639
-14.368179 26.186825 -23.263058
-15.051844 23.21184 -23.253025
-14.474861 24.056162 -22.071009
-25.605473 41.254406 -10.108347
-25.772287 38.661552 -9.745403
-23.687908 39.840858 -11.630899
-22.713709 38.188602 -13.690428
-23.260494 41.018494 -14.592316
-19.504902 54.723705 -8.631506
-32.138435 21.78826 -20.822308
-31.378057 19.988949 -20.608147
-30.422108 20.020679 -22.045322
-24.073956 7.084016 -14.680407
-25.294048 7.432513 -14.828379
-26.45159 4.175262 -13.143359
-29.171803 1.083116 -13.328272
-27.756674 1.024558 -12.761293
-14.011572 0.286572 -12.003645
-15.210428 1.446795 -12.180494
-30.485485 43.269203 -13.029493
-30.545929 47.654846 -12.621183
-21.566488 23.516277 -15.469068
-23.457806 21.300543 -17.580347
-20.574806 21.232159 -16.786726
-16.660154 16.189087 -22.709349
-18.353994 15.969867 -21.584745
-18.117107 12.933905 -22.070843
-20.227211 11.551442 -19.578585
-18.95575 11.821691 -19.223597
-39.944206 24.194996 -15.7487
-38.471054 25.007166 -17.168606
-36.398159 24.370108 -18.447985
-35.756645 27.105221 -17.543623
-26.506378 33.685104 -9.014641
-30.097584 32.643738 -10.090101
-27.692322 31.578608 -11.146776
-28.972141 30.202225 -14.247086
-25.631098 29.992977 -12.11974
-24.181936 28.030369 -13.112349
-22.261557 30.367594 -11.612874
-19.869913 34.861046 -18.211142
-19.576971 32.165596 -16.677502
-18.752161 32.829433 -20.326069
-16.999073 30.607464 -22.480042
-15.682836 33.633904 -23.167812
-23.379356 58.950836 -11.532223
-27.145411 58.471119 -10.66799
-24.503307 56.281452 -11.794249
-24.868952 52.241261 -11.12802
-21.675026 53.508465 -12.631346
-11.860491 56.953911 -14.127879
-10.036152 58.893921 -17.178432
-11.062231 51.920319 -20.912712
-11.864811 54.177574 -17.687065
-13.4811 50.500591 -17.619087
-16.664383 49.225273 -14.889486
-14.645239 46.79686 -17.719511
-15.685367 43.323227 -17.94076
-13.410153 44.887169 -21.656641
-10.451361 42.013863 -20.250284
-11.578547 40.808384 -23.159225
-12.012066 39.085705 -20.691828
-12.978848 35.93729 -21.79302
-11.195131 36.670181 -19.770824
-10.594162 33.804394 -19.717688
-30.670242 23.7729 -13.358907
-26.933544 22.713137 -11.299284
-28.303543 22.46858 -13.563171
-25.879734 18.822489 -16.024355
-25.445469 18.793783 -13.522779
-25.248276 16.201906 -23.004082
-26.805456 15.729465 -23.30505
-25.33049 13.993372 -22.177607
-33.350986 -1.980407 -18.954023
-14.105719 19.02721 -14.541461
-15.572232 19.362066 -16.677389
-15.215734 15.560491 -14.547999
-16.984751 7.469807 -15.982882
-18.736317 4.221119 -13.94335
-20.093098 4.904968 -14.136057
-20.927177 1.562007 -12.385206
-18.441717 25.01832 -20.645239
-18.639439 21.969601 -19.096144
-17.143429 22.74633 -22.439989
-15.884906 19.981304 -23.016573
-15.225866 17.189556 -22.225815
-31.173935 38.968956 -8.526036
-31.90723 36.238853 -7.619401
-28.548603 37.641254 -7.943487
-25.821606 36.336769 -8.566335
-23.277103 34.751404 -9.710683
-21.121105 33.180328 -11.309355
-21.358021 35.894234 -12.280214
-21.027742 36.647682 -15.719574
-18.886032 37.230148 -18.131699
-23.36323 55.942646 -7.794642
-21.671329 57.823658 -10.151073
-19.622869 59.085865 -12.842023
-7.794123 58.840218 -19.600534
-6.579442 56.421124 -21.599924
-8.779973 53.230797 -22.566858
-10.234064 49.658272 -23.283844
-11.105428 46.176682 -23.465977
-9.725382 47.484543 -21.813557
-33.1506 21.698599 -17.567327
-29.637798 21.75318 -15.813856
-30.959957 20.779861 -18.230585
-28.728199 19.662151 -18.56879
-26.884119 18.169886 -18.751087
-23.031727 12.006701 -20.020409
-24.253788 12.152896 -20.032673
-24.390545 10.138985 -17.336145
-26.609991 7.635311 -15.018091
-28.948004 4.505652 -13.731794
-30.261585 1.268754 -13.766901
-31.492228 -1.311742 -15.342852
-32.500774 -2.870738 -17.827997
-12.569771 9.691913 -15.952029
-14.379852 10.744613 -15.538881
-14.221585 5.754438 -14.853233
-30.597416 40.916912 -10.813925
-28.041195 42.165508 -11.237528
-25.291927 44.274105 -9.842287
-27.088934 23.918329 -19.046806
-28.303349 20.757523 -21.890516
-25.803171 21.63698 -20.062466
-24.68927 19.146967 -20.920795
-23.340359 16.749737 -20.952261
-19.30938 18.660152 -18.873362
-20.678226 16.268412 -19.845066
-21.883034 14.085999 -20.779819
-21.664303 11.707018 -19.680826
-22.050488 9.725594 -17.043009
-22.746342 6.586997 -14.451053
-14.00249 28.254681 -18.87154
-14.758438 25.109253 -18.865982
-13.468992 25.435394 -17.209372
-12.951184 22.129932 -15.575331
-12.258859 18.534349 -14.27408
-11.539255 13.759809 -14.755789
-12.327753 -2.303954 -14.018476
-34.324371 23.881767 -14.174761
-37.670605 23.76557 -14.974774
-35.213341 22.838535 -16.118395
-35.48394 22.427502 -18.164547
-34.434082 23.209837 -19.510906
-32.206097 24.577805 -19.35531
-37.037464 28.96727 -13.560219
-32.664074 33.353325 -8.961927
-33.497265 30.972448 -11.917048
-34.619587 29.378574 -15.309027
-32.490097 29.912632 -16.584908
-30.742405 28.187748 -17.400766
-29.022638 26.005322 -18.435673
-26.139914 26.031826 -15.860552
-23.027214 25.71727 -14.100098
-20.283894 26.207561 -14.901059
-19.973932 31.293964 -13.319301
-19.392517 29.134338 -15.331815
-19.175732 27.055532 -17.845186
-18.070866 27.820801 -21.395071
-15.087862 28.275793 -23.755962
-13.773053 29.124756 -23.617733
-30.72761 52.928406 -11.912229
-28.212717 50.353794 -11.194045
-25.240164 48.319862 -10.104092
-22.378235 46.195381 -10.966702
-15.856476 58.27478 -13.658796
-17.382145 58.587097 -15.078633
-11.382395 57.893555 -18.254211
-14.897611 56.680687 -16.153927
-18.190973 55.067036 -14.816032
-19.184589 51.48822 -13.949771
-20.262066 47.965828 -13.73615
-21.431433 44.398193 -14.214595
-19.208012 42.051952 -15.641052
-17.125504 39.887245 -17.911221
-15.589121 38.359673 -21.487301
-11.975132 42.843697 -24.23291
-12.946884 39.404751 -24.308811
-14.16687 36.659843 -24.139994
-13.369519 34.482777 -24.344868
-13.504476 32.545879 -22.867496
-14.058935 30.698114 -20.504284
-12.478186 31.177124 -18.909216
-26.444027 20.793816 -13.598597
-28.556065 18.031811 -22.973251
-27.621708 16.692118 -21.620716
-25.448009 16.122026 -18.422943
-25.034601 12.809187 -19.158133
-25.127214 13.573886 -17.374784
-15.249494 21.952353 -19.299845
-15.292139 18.63925 -19.867493
-16.289495 15.536192 -19.527988
-16.172596 11.764131 -15.358197
-17.596535 12.667076 -16.263872
-18.214994 12.538493 -17.94688
-19.650517 8.97693 -16.353361
-21.390379 5.769413 -14.286238
-23.662443 3.221831 -12.618082
-24.745144 -0.300987 -12.430651
-26.388952 0.281638 -12.515647
-28.75053 -2.120895 -14.580154
-31.162054 -3.573064 -17.261171
-32.818214 -3.764523 -20.806591
-15.160528 -1.069741 -11.981621
-14.55831 -1.660932 -12.520471
-31.484564 48.936751 -11.931627
-31.485565 46.892786 -12.058032
-38.234882 25.987288 -16.545415
-39.583233 25.340988 -16.390579
-39.347061 26.32111 -15.767387
-8.140916 59.316426 -17.289747
-9.130162 58.728205 -15.632699
-10.648543 39.122598 -20.560463
-11.231714 40.549784 -20.471056
-9.86819 40.586678 -20.339691
-10.240075 37.914836 -20.099961
-11.603599 37.877943 -20.231326
-10.648543 39.122598 -20.560463
-9.887238 36.44157 -20.508873
-10.240075 37.914836 -20.099961
-25.315668 16.392157 -14.63322
-25.726816 17.535966 -14.745197
-25.468586 17.67868 -15.912377
-26.013452 15.139394 -14.764436
-25.315668 16.392157 -14.63322
-33.033464 -1.456372 -21.12806
-33.215124 -2.196009 -20.385414
-19.244805 2.289564 -12.928328
-18.118775 3.786996 -13.661366
-20.340235 0.960008 -12.149256
-19.831747 2.891563 -13.164278
-19.244805 2.289564 -12.928328
-22.208625 54.762055 -6.908464
-24.218936 54.476807 -6.849501
-23.064331 53.296215 -5.963323
-5.752512 55.966742 -21.475185
-5.982287 57.382448 -20.543407
-8.404374 51.912357 -22.310859
-7.390398 53.411349 -22.685327
-9.13142 50.126095 -22.669351
-9.507019 51.444535 -22.925351
-8.404374 51.912357 -22.310859
-8.877079 49.039231 -21.934208
-9.979723 48.571407 -22.5487
-9.13142 50.126095 -22.669351
-13.617833 5.180129 -14.393807
-13.395678 7.723175 -15.402631
-12.791926 7.148867 -14.943205
-15.779181 1.935484 -12.400051
-16.421601 0.007278 -11.746626
-31.572029 41.936966 -11.097747
-31.973151 40.709606 -10.424063
-12.037591 21.821589 -15.855158
-12.192398 23.513196 -16.442372
-11.691429 20.023797 -15.204532
-12.605021 20.332141 -14.924705
-12.037591 21.821589 -15.855158
-10.899903 13.172391 -15.268938
-11.09569 15.681119 -14.977138
-11.468784 11.109314 -15.298786
-10.899903 13.172391 -15.268938
-12.90447 -4.24289 -14.096984
-11.831784 -2.880659 -14.663864
-13.355593 -3.513282 -13.965129
-12.90447 -4.24289 -14.096984
-35.532873 24.388247 -13.600869
-33.517674 24.483106 -13.204735
-36.604292 30.275424 -12.2332
-38.316053 29.570664 -13.120528
-27.024762 57.71855 -8.699434
-26.07767 56.634287 -8.001169
-29.148381 55.948845 -11.215215
-28.800547 57.652937 -10.748672
-27.493246 56.767027 -11.134533
-29.284345 53.995671 -11.756653
-30.591646 54.88158 -11.370792
-29.148381 55.948845 -11.215215
-10.365697 32.277596 -19.69601
-9.406017 33.405046 -20.769351
-26.639237 21.149881 -9.955362
-26.468895 21.632385 -11.244321
-25.665499 18.513208 -12.329845
-26.115499 17.301735 -12.511423
-25.240975 11.646414 -18.059407
-24.644194 12.481041 -19.595403
-24.850568 11.318269 -18.496677
-26.356225 12.441107 -16.473376
-25.811755 12.250172 -16.874365
-25.462116 13.67616 -16.356725
-26.356225 12.441107 -16.473376
-32.923631 -0.430051 -16.89355
-32.2613 0.732275 -15.957131
-31.930633 0.351656 -15.371035
-25.975231 -1.428842 -13.383645
-25.325299 -1.714746 -13.357348
-26.555385 -2.842601 -14.310342
-31.701389 -4.235029 -18.657212
-30.485802 -3.862941 -17.171586
-32.529469 -4.330758 -20.429922
-31.990134 -3.668794 -19.033881
-31.701389 -4.235029 -18.657212
-18.776397 55.062639 -7.04568
-20.279461 54.152584 -7.326896
-19.550956 54.491518 -5.74107
-17.745602 55.125661 -8.312618
-18.776397 55.062639 -7.04568
-16.930419 55.885746 -9.608004
-18.68972 55.48379 -9.926892
-17.745602 55.125661 -8.312618
-14.611 0.866684 -12.09207
-14.112255 3.026308 -13.057437
-13.512827 2.446196 -12.969013
-15.759956 -0.48963 -12.070045
-14.611 0.866684 -12.09207
-15.160528 -1.069741 -11.981621
-16.421601 0.007278 -11.746626
-15.759956 -0.48963 -12.070045
-31.455343 44.699965 -12.262187
-31.516064 43.113112 -12.205531
-30.515707 45.462024 -12.825338
-31.455343 44.699965 -12.262187
-31.485565 46.892786 -12.058032
-11.73187 26.580295 -17.733663
-11.033129 27.898653 -18.689545
-40.319809 24.934902 -15.680625
-41.05172 24.61504 -15.042741
-39.20763 24.601081 -16.458653
-40.319809 24.934902 -15.680625
-39.583233 25.340988 -16.390579
-10.042331 57.7582 -14.107423
-11.280348 57.535391 -12.46047
-10.948321 57.923916 -15.653156
-10.042331 57.7582 -14.107423
-9.130162 58.728205 -15.632699
-9.586753 35.008676 -20.482305
-10.894647 35.237288 -19.744256
-9.887238 36.44157 -20.508873
-9.406017 33.405046 -20.769351
-9.586753 35.008676 -20.482305
-28.801893 23.243018 -12.329096
-27.84566 23.57409 -11.298261
-29.714009 24.103972 -12.328073
-27.153894 21.510106 -12.376265
-26.468895 21.632385 -11.244321
-27.618544 22.590858 -12.431228
-25.509684 17.521613 -13.494409
-25.662602 18.808136 -14.773567
-25.726816 17.535966 -14.745197
-26.115499 17.301735 -12.511423
-25.509684 17.521613 -13.494409
-33.443274 -1.432076 -19.760311
-33.064262 -0.847208 -18.437026
-32.971975 -1.395538 -17.630738
-33.443274 -1.432076 -19.760311
-33.033464 -1.456372 -21.12806
-17.242992 5.41134 -14.681132
-16.273922 7.070241 -15.775549
-16.532163 5.011774 -14.473799
-17.860534 5.845463 -14.963116
-17.242992 5.41134 -14.681132
-18.118775 3.786996 -13.661366
-27.962693 -3.829657 -15.561518
-26.555385 -2.842601 -14.310342
-28.507434 -3.354757 -15.70932
-27.962693 -3.829657 -15.561518
-39.129199 27.349789 -15.207842
-39.347061 26.32111 -15.767387
-31.540582 37.603904 -8.072719
-33.18963 36.998477 -8.201588
-32.822983 38.363529 -8.654905
-25.089632 55.438746 -7.500356
-24.218936 54.476807 -6.849501
-24.351268 57.138188 -8.295454
-26.07767 56.634287 -8.001169
-25.089632 55.438746 -7.500356
-6.589627 58.591995 -19.543712
-7.019901 59.289574 -18.500798
-5.815406 59.041352 -18.443976
-7.186782 57.630671 -20.600229
-6.589627 58.591995 -19.543712
-5.982287 57.382448 -20.543407
-6.290133 55.006512 -22.201861
-5.752512 55.966742 -21.475185
-7.679708 54.825961 -22.083391
-6.290133 55.006512 -22.201861
-7.390398 53.411349 -22.685327
-8.225992 47.332369 -21.726699
-8.877079 49.039231 -21.934208
-9.151567 46.08923 -21.191165
-8.225992 47.332369 -21.726699
-9.681425 44.428051 -21.420436
-10.25524 45.823364 -22.042828
-9.151567 46.08923 -21.191165
-9.514557 43.35389 -20.409529
-10.618229 43.088025 -21.261192
-9.681425 44.428051 -21.420436
-8.869061 41.76125 -20.964438
-9.514557 43.35389 -20.409529
-9.86819 40.586678 -20.339691
-8.869061 41.76125 -20.964438
-24.918947 10.311313 -17.148413
-24.850568 11.318269 -18.496677
-24.322167 11.145941 -18.684409
-26.028669 9.059476 -15.989386
-24.918947 10.311313 -17.148413
-25.500268 8.887148 -16.177118
-27.184255 7.710947 -15.046714
-26.028669 9.059476 -15.989386
-28.353262 6.146117 -14.403565
-27.184255 7.710947 -15.046714
-27.778998 6.070481 -14.374942
-29.485715 4.512821 -13.95597
-28.353262 6.146117 -14.403565
-30.108153 3.009817 -14.083205
-29.485715 4.512821 -13.95597
-30.764943 1.391367 -14.100759
-30.108153 3.009817 -14.083205
-29.604795 2.887203 -13.749348
-31.427275 0.229042 -15.037177
-31.930633 0.351656 -15.371035
-30.764943 1.391367 -14.100759
-32.790018 -2.641174 -19.822401
-33.215124 -2.196009 -20.385414
-32.92588 -2.425572 -18.39101
-14.716006 3.600617 -13.516863
-13.617833 5.180129 -14.393807
-14.112255 3.026308 -13.057437
-15.28476 4.089306 -13.73642
-14.716006 3.600617 -13.516863
-15.779181 1.935484 -12.400051
-15.955514 4.547424 -14.093912
-14.892339 6.212556 -15.210724
-15.28476 4.089306 -13.73642
-16.532163 5.011774 -14.473799
-15.955514 4.547424 -14.093912
-32.26141 39.735628 -9.280119
-32.822983 38.363529 -8.654905
-33.910458 39.130201 -9.408988
-30.885675 39.942934 -9.66998
-32.26141 39.735628 -9.280119
-31.973151 40.709606 -10.424063
-30.54145 42.093058 -11.921709
-31.572029 41.936966 -11.097747
-31.516064 43.113112 -12.205531
-22.023615 52.859268 -5.077872
-23.064331 53.296215 -5.963323
-20.524496 53.946268 -4.813192
-22.023615 52.859268 -5.077872
-21.494091 53.224074 -3.868778
-19.550956 54.491518 -5.74107
-20.524496 53.946268 -4.813192
-12.451302 25.165927 -17.259392
-12.74956 26.849762 -17.683642
-11.73187 26.580295 -17.733663
-13.210088 23.782663 -16.392352
-12.451302 25.165927 -17.259392
-12.192398 23.513196 -16.442372
-11.455493 18.068388 -14.736284
-11.691429 20.023797 -15.204532
-11.899057 16.147079 -14.514934
-11.455493 18.068388 -14.736284
-11.09569 15.681119 -14.977138
-11.984042 9.075366 -15.896905
-12.054513 11.725861 -15.353909
-11.468784 11.109314 -15.298786
-12.206198 6.53232 -14.888082
-12.791926 7.148867 -14.943205
-11.984042 9.075366 -15.896905
-13.170424 1.69204 -12.437057
-13.512827 2.446196 -12.969013
-12.671679 3.851665 -13.402425
-13.61102 -0.354357 -12.163249
-13.170424 1.69204 -12.437057
-14.157759 -2.301861 -12.680076
-14.55831 -1.660932 -12.520471
-13.61102 -0.354357 -12.163249
-11.55971 -1.317577 -13.565226
-11.06374 -1.894282 -14.210614
-11.831784 -2.880659 -14.663864
-12.050967 -0.446867 -13.025131
-11.55971 -1.317577 -13.565226
-12.769111 -1.64962 -13.170665
-12.050967 -0.446867 -13.025131
-13.796951 -2.858948 -13.117318
-12.769111 -1.64962 -13.170665
-13.355593 -3.513282 -13.965129
-31.690609 24.428672 -12.796809
-29.714009 24.103972 -12.328073
-32.497307 23.827334 -13.766834
-31.690609 24.428672 -12.796809
-33.517674 24.483106 -13.204735
-40.03533 24.36875 -14.757226
-41.05172 24.61504 -15.042741
-38.898529 24.154038 -14.370264
-40.03533 24.36875 -14.757226
-38.807406 23.980283 -15.361737
-37.20599 24.330148 -14.000875
-38.898529 24.154038 -14.370264
-35.997488 23.823669 -14.574768
-35.532873 24.388247 -13.600869
-37.20599 24.330148 -14.000875
-38.648575 28.349719 -14.02684
-38.316053 29.570664 -13.120528
-37.518088 27.96734 -14.741221
-39.129199 27.349789 -15.207842
-38.648575 28.349719 -14.02684
-33.629469 35.449478 -8.325413
-33.18963 36.998477 -8.201588
-34.007891 34.006714 -8.996676
-33.629469 35.449478 -8.325413
-32.285652 34.796089 -8.290664
-34.417597 32.468452 -9.934054
-34.007891 34.006714 -8.996676
-34.834193 31.278013 -11.411614
-34.417597 32.468452 -9.934054
-33.080669 32.162886 -10.439487
-35.267364 29.969859 -12.738633
-36.604292 30.275424 -12.2332
-34.834193 31.278013 -11.411614
-27.927814 57.787245 -9.635296
-27.024762 57.71855 -8.699434
-26.242359 58.402424 -9.732128
-27.927814 57.787245 -9.635296
-28.800547 57.652937 -10.748672
-31.949464 53.642376 -11.224923
-30.591646 54.88158 -11.370792
-31.575404 51.573531 -11.57715
-31.949464 53.642376 -11.224923
-30.636769 50.291626 -12.266706
-31.484564 48.936751 -11.931627
-31.575404 51.573531 -11.57715
-15.828202 56.048518 -11.124561
-16.930419 55.885746 -9.608004
-12.821179 56.403536 -12.577362
-11.280348 57.535391 -12.46047
-14.819171 57.06397 -12.342821
-12.821179 56.403536 -12.577362
-13.858484 57.614345 -13.893338
-16.865507 57.259327 -12.440537
-15.828202 56.048518 -11.124561
-14.819171 57.06397 -12.342821
-8.915138 58.867069 -18.389483
-8.140916 59.316426 -17.289747
-7.019901 59.289574 -18.500798
-11.307709 30.96396 -19.291774
-11.536174 32.490759 -19.313452
-10.365697 32.277596 -19.69601
-11.083679 29.507464 -18.916123
-12.254157 29.720627 -18.533565
-11.307709 30.96396 -19.291774
-11.033129 27.898653 -18.689545
-11.083679 29.507464 -18.916123
-26.560881 22.42251 -10.063292
-27.472997 23.283462 -10.062269
-27.84566 23.57409 -11.298261
-26.560881 22.42251 -10.063292
-26.639237 21.149881 -9.955362
-26.224137 20.672724 -12.393978
-27.153894 21.510106 -12.376265
-27.373785 21.631198 -13.580884
-26.164778 19.513224 -12.367754
-25.944748 19.793799 -13.560688
-25.665499 18.513208 -12.329845
-26.224137 20.672724 -12.393978
-26.164778 19.513224 -12.367754
-25.765448 11.867822 -17.76604
-25.240975 11.646414 -18.059407
-25.080907 13.191536 -18.266458
-25.765448 11.867822 -17.76604
-25.811755 12.250172 -16.874365
-25.622514 14.95023 -16.880805
-25.287611 14.847956 -17.898863
-25.462116 13.67616 -16.356725
-25.427228 15.156652 -15.569533
-25.252724 16.328449 -17.111671
-25.622514 14.95023 -16.880805
-26.013452 15.139394 -14.764436
-25.427228 15.156652 -15.569533
-32.923631 -0.430051 -16.89355
-33.064262 -0.847208 -18.437026
-21.536909 -0.25708 -12.354391
-20.340235 0.960008 -12.149256
-22.118025 0.260559 -12.467897
-21.536909 -0.25708 -12.354391
-22.77773 0.720735 -12.531468
-21.586883 2.022182 -12.448776
-22.118025 0.260559 -12.467897
-24.027008 -0.670938 -12.49062
-25.325299 -1.714746 -13.357348
-23.495866 1.090685 -12.471498
-22.77773 0.720735 -12.531468
-24.027008 -0.670938 -12.49062
-29.28004 -3.136857 -15.831078
-27.977924 -2.338795 -14.458396
-28.507434 -3.354757 -15.70932
-29.956292 -2.846979 -15.920663
-29.28004 -3.136857 -15.831078
-30.485802 -3.862941 -17.171586
-32.948738 -3.088067 -21.311698
-32.790018 -2.641174 -19.822401
-32.659494 -3.31763 -19.317294
-32.565603 -3.944439 -22.454448
-32.529469 -4.330758 -20.429922
-32.196013 -3.191055 -22.644736
-32.565603 -3.944439 -22.454448
-32.326537 -2.514599 -23.149842
-32.948738 -3.088067 -21.311698
-32.196013 -3.191055 -22.644736
3 0 66 64
3 2 69 67
3 2 71 69
3 1 75 73
3 3 78 76
3 3 80 78
3 270 269 81
3 271 84 272
3 4 87 85
3 6 90 88
3 6 92 90
3 9 273 275
3 273 94 274
3 273 274 275
3 9 96 94
3 10 99 97
3 10 101 99
3 10 103 101
3 11 106 104
3 11 108 106
3 12 111 109
3 12 113 111
3 276 115 277
3 13 118 116
3 13 120 118
3 13 122 120
3 278 125 279
3 280 279 123
3 278 279 280
3 281 127 282
3 283 282 125
3 281 282 283
3 285 284 127
3 8 131 129
3 14 286 288
3 288 287 132
3 286 287 288
3 14 289 290
3 5 136 134
3 292 291 137
3 7 140 138
3 293 142 294
3 295 144 296
3 297 296 142
3 295 296 297
3 15 147 145
3 17 148 65
3 17 149 148
3 18 152 150
3 20 153 68
3 20 154 153
3 20 156 154
3 22 157 70
3 22 158 157
3 23 298 300
3 298 159 299
3 298 299 300
3 25 160 72
3 25 161 160
3 301 163 302
3 303 164 304
3 305 165 306
3 307 306 164
3 305 306 307
3 308 167 309
3 310 309 165
3 308 309 310
3 28 170 168
3 30 171 74
3 30 172 171
3 31 175 173
3 32 176 77
3 32 177 176
3 32 178 177
3 34 179 79
3 34 180 179
3 311 183 312
3 313 312 181
3 311 312 313
3 315 314 82
3 316 184 317
3 36 185 83
3 36 186 185
3 37 189 187
3 39 190 86
3 39 191 190
3 16 192 146
3 40 193 89
3 40 194 193
3 40 195 194
3 41 196 91
3 41 197 196
3 42 200 198
3 318 201 319
3 320 202 321
3 322 321 201
3 320 321 322
3 323 203 324
3 326 325 203
3 327 204 328
3 330 329 204
3 331 205 332
3 44 206 93
3 44 207 206
3 44 208 207
3 45 209 95
3 45 210 209
3 333 211 334
3 19 212 151
3 46 213 98
3 46 214 213
3 46 215 214
3 47 216 100
3 47 217 216
3 47 218 217
3 48 219 102
3 48 220 219
3 21 221 155
3 49 222 105
3 49 223 222
3 49 224 223
3 50 225 107
3 50 226 225
3 24 335 336
3 51 337 339
3 339 338 110
3 337 338 339
3 51 340 342
3 340 227 341
3 340 341 342
3 51 228 227
3 52 229 112
3 52 230 229
3 53 231 114
3 53 232 231
3 26 233 162
3 54 234 117
3 54 235 234
3 54 236 235
3 55 237 119
3 55 238 237
3 55 239 238
3 56 240 121
3 56 241 240
3 27 242 166
3 57 243 124
3 57 244 243
3 57 245 244
3 58 246 126
3 58 247 246
3 58 248 247
3 344 343 128
3 346 345 130
3 29 249 169
3 348 347 133
3 38 250 188
3 59 251 135
3 59 252 251
3 349 253 350
3 351 350 174
3 349 350 351
3 352 254 353
3 355 354 254
3 33 356 358
3 356 357 358
3 43 255 199
3 60 256 139
3 60 257 256
3 35 258 182
3 61 259 141
3 61 260 259
3 61 261 260
3 62 262 143
3 62 263 262
3 63 359 361
3 359 264 360
3 359 360 361
3 63 265 264
3 63 266 265
3 362 267 363
3 364 268 365
3 366 365 267
3 364 365 366
3 64 65 15
3 66 65 64
3 66 17 65
3 67 68 18
3 69 68 67
3 69 20 68
3 69 70 20
3 71 70 69
3 71 22 70
3 367 72 368
3 369 368 23
3 367 368 369
3 370 72 371
3 372 25 373
3 374 373 72
3 372 373 374
3 73 74 28
3 75 74 73
3 75 30 74
3 76 77 31
3 78 77 76
3 78 32 77
3 78 79 32
3 80 79 78
3 80 34 79
3 81 375 377
3 375 82 376
3 375 376 377
3 378 82 379
3 380 379 81
3 378 379 380
3 382 381 82
3 383 83 384
3 84 385 387
3 385 83 386
3 385 386 387
3 84 36 83
3 85 86 37
3 87 86 85
3 87 39 86
3 88 89 16
3 90 89 88
3 90 40 89
3 90 91 40
3 92 91 90
3 92 41 91
3 389 388 42
3 390 93 391
3 94 392 394
3 392 93 393
3 392 393 394
3 94 44 93
3 94 95 44
3 96 95 94
3 96 45 95
3 97 98 19
3 99 98 97
3 99 46 98
3 99 100 46
3 101 100 99
3 101 47 100
3 101 102 47
3 103 102 101
3 103 48 102
3 104 105 21
3 106 105 104
3 106 49 105
3 106 107 49
3 108 107 106
3 108 50 107
3 109 110 24
3 111 110 109
3 111 51 110
3 111 112 51
3 113 112 111
3 113 52 112
3 395 114 396
3 115 397 399
3 397 114 398
3 397 398 399
3 115 53 114
3 116 117 26
3 118 117 116
3 118 54 117
3 118 119 54
3 120 119 118
3 120 55 119
3 120 121 55
3 122 121 120
3 122 56 121
3 123 124 27
3 125 124 123
3 125 57 124
3 125 126 57
3 127 126 125
3 127 58 126
3 127 128 58
3 400 128 401
3 402 401 127
3 400 401 402
3 404 403 128
3 129 405 407
3 405 130 406
3 405 406 407
3 131 130 129
3 131 408 410
3 410 409 130
3 408 409 410
3 132 133 29
3 411 133 412
3 413 412 132
3 411 412 413
3 415 414 133
3 134 135 38
3 136 135 134
3 136 59 135
3 137 416 418
3 418 417 33
3 416 417 418
3 420 419 137
3 138 139 43
3 140 139 138
3 140 60 139
3 421 141 422
3 423 422 35
3 421 422 423
3 142 424 426
3 424 141 425
3 424 425 426
3 142 61 141
3 142 143 61
3 144 143 142
3 144 62 143
3 427 63 428
3 430 429 63
3 145 146 4
3 147 146 145
3 147 16 146
3 65 147 15
3 148 147 65
3 148 16 147
3 148 88 16
3 149 88 148
3 149 6 88
3 431 9 432
3 150 433 435
3 433 151 434
3 433 434 435
3 152 151 150
3 152 19 151
3 68 152 18
3 153 152 68
3 153 19 152
3 153 97 19
3 154 97 153
3 154 10 97
3 154 155 10
3 156 155 154
3 156 21 155
3 70 156 20
3 157 156 70
3 157 21 156
3 157 104 21
3 158 104 157
3 158 11 104
3 159 436 437
3 159 438 440
3 438 24 439
3 438 439 440
3 72 159 23
3 160 159 72
3 160 24 159
3 160 109 24
3 161 109 160
3 161 12 109
3 441 162 442
3 441 442 443
3 163 444 446
3 444 162 445
3 444 445 446
3 163 26 162
3 447 163 448
3 164 449 451
3 449 163 450
3 449 450 451
3 164 26 163
3 164 116 26
3 165 116 164
3 165 13 116
3 165 166 13
3 167 166 165
3 167 27 166
3 452 167 453
3 454 167 455
3 456 27 457
3 458 457 167
3 456 457 458
3 459 123 460
3 461 460 27
3 459 460 461
3 462 123 463
3 465 464 123
3 168 169 8
3 170 169 168
3 170 29 169
3 74 170 28
3 171 170 74
3 171 29 170
3 171 132 29
3 172 132 171
3 172 14 132
3 173 174 5
3 175 174 173
3 175 466 468
3 468 467 174
3 466 467 468
3 77 175 31
3 176 175 77
3 176 469 471
3 471 470 175
3 469 470 471
3 176 472 473
3 177 474 476
3 476 475 176
3 474 475 476
3 177 477 478
3 177 479 480
3 178 481 483
3 483 482 177
3 481 482 483
3 178 484 486
3 484 33 485
3 484 485 486
3 79 178 32
3 179 178 79
3 179 33 178
3 179 137 33
3 180 137 179
3 180 487 489
3 489 488 137
3 487 488 489
3 181 182 7
3 183 182 181
3 183 35 182
3 82 490 492
3 490 183 491
3 490 491 492
3 493 183 494
3 495 494 82
3 493 494 495
3 496 35 497
3 498 497 183
3 496 497 498
3 500 499 35
3 501 150 502
3 501 502 503
3 184 504 506
3 504 150 505
3 504 505 506
3 184 18 150
3 83 507 509
3 507 184 508
3 507 508 509
3 185 184 83
3 185 18 184
3 185 67 18
3 186 67 185
3 186 2 67
3 187 188 1
3 189 188 187
3 189 38 188
3 86 189 37
3 190 189 86
3 190 38 189
3 190 134 38
3 191 134 190
3 191 5 134
3 146 87 4
3 192 87 146
3 192 39 87
3 89 192 16
3 193 192 89
3 193 39 192
3 193 191 39
3 194 191 193
3 194 5 191
3 194 173 5
3 195 173 194
3 195 31 173
3 91 195 40
3 196 195 91
3 196 31 195
3 196 76 31
3 197 76 196
3 197 3 76
3 510 23 511
3 512 23 513
3 512 513 514
3 516 515 23
3 198 199 0
3 200 199 198
3 200 43 199
3 517 200 518
3 519 518 42
3 517 518 519
3 201 520 522
3 520 200 521
3 520 521 522
3 201 43 200
3 201 138 43
3 202 138 201
3 202 7 138
3 523 202 524
3 203 525 527
3 525 202 526
3 525 526 527
3 203 7 202
3 203 181 7
3 528 181 529
3 530 529 203
3 528 529 530
3 533 532 181
3 531 532 533
3 534 81 535
3 534 535 536
3 537 81 538
3 541 540 81
3 539 540 541
3 204 542 544
3 542 543 544
3 204 545 546
3 204 547 548
3 551 550 204
3 549 550 551
3 552 129 553
3 205 554 556
3 554 129 555
3 554 555 556
3 205 8 129
3 93 557 558
3 206 559 561
3 561 560 93
3 559 560 561
3 206 562 563
3 206 564 566
3 564 205 565
3 564 565 566
3 207 205 206
3 207 8 205
3 207 168 8
3 208 168 207
3 208 28 168
3 95 208 44
3 209 208 95
3 209 28 208
3 209 73 28
3 210 73 209
3 210 1 73
3 211 567 568
3 211 569 571
3 569 9 570
3 569 570 571
3 151 572 573
3 212 574 576
3 576 575 151
3 574 575 576
3 212 577 578
3 98 212 19
3 213 212 98
3 213 579 581
3 581 580 212
3 579 580 581
3 213 582 584
3 582 211 583
3 582 583 584
3 214 211 213
3 214 9 211
3 214 96 9
3 215 96 214
3 215 45 96
3 100 215 46
3 216 215 100
3 216 45 215
3 216 210 45
3 217 210 216
3 217 1 210
3 217 187 1
3 218 187 217
3 218 37 187
3 102 218 47
3 219 218 102
3 219 37 218
3 219 85 37
3 220 85 219
3 220 4 85
3 155 103 10
3 221 103 155
3 221 48 103
3 105 221 21
3 222 221 105
3 222 48 221
3 222 220 48
3 223 220 222
3 223 4 220
3 223 145 4
3 224 145 223
3 224 15 145
3 107 224 49
3 225 224 107
3 225 15 224
3 225 64 15
3 226 64 225
3 226 0 64
3 110 585 587
3 587 586 24
3 585 586 587
3 589 588 110
3 227 590 591
3 227 592 593
3 227 594 596
3 594 84 595
3 594 595 596
3 228 84 227
3 228 36 84
3 112 228 51
3 229 228 112
3 229 36 228
3 229 186 36
3 230 186 229
3 230 2 186
3 597 25 598
3 114 599 600
3 231 601 603
3 603 602 114
3 601 602 603
3 231 604 606
3 604 25 605
3 604 605 606
3 231 161 25
3 232 161 231
3 232 12 161
3 162 607 609
3 607 115 608
3 607 608 609
3 233 115 162
3 233 53 115
3 117 233 26
3 234 233 117
3 234 53 233
3 234 232 53
3 235 232 234
3 235 12 232
3 235 113 12
3 236 113 235
3 236 52 113
3 119 236 54
3 237 236 119
3 237 52 236
3 237 230 52
3 238 230 237
3 238 2 230
3 238 71 2
3 239 71 238
3 239 22 71
3 121 239 55
3 240 239 121
3 240 22 239
3 240 158 22
3 241 158 240
3 241 11 158
3 166 122 13
3 242 122 166
3 242 56 122
3 124 242 27
3 243 242 124
3 243 56 242
3 243 241 56
3 244 241 243
3 244 11 241
3 244 108 11
3 245 108 244
3 245 50 108
3 126 245 57
3 246 245 126
3 246 50 245
3 246 226 50
3 247 226 246
3 247 0 226
3 247 198 0
3 248 198 247
3 248 42 198
3 128 248 58
3 610 248 611
3 612 611 128
3 610 611 612
3 613 42 614
3 615 614 248
3 613 614 615
3 617 616 42
3 130 618 620
3 618 619 620
3 622 621 130
3 169 131 8
3 249 131 169
3 249 623 625
3 625 624 131
3 623 624 625
3 133 249 29
3 626 249 627
3 628 627 133
3 626 627 628
3 630 629 249
3 188 75 1
3 250 75 188
3 250 30 75
3 135 250 38
3 251 250 135
3 251 30 250
3 251 172 30
3 252 172 251
3 252 14 172
3 174 136 5
3 253 136 174
3 253 59 136
3 631 253 632
3 254 633 635
3 633 253 634
3 633 634 635
3 254 59 253
3 254 252 59
3 636 252 637
3 638 637 254
3 636 637 638
3 639 14 640
3 641 640 252
3 639 640 641
3 643 642 14
3 645 644 33
3 199 66 0
3 255 66 199
3 255 17 66
3 139 255 43
3 256 255 139
3 256 17 255
3 256 149 17
3 257 149 256
3 257 6 149
3 182 140 7
3 258 140 182
3 258 60 140
3 141 258 35
3 259 258 141
3 259 60 258
3 259 257 60
3 260 257 259
3 260 6 257
3 260 92 6
3 261 92 260
3 261 41 92
3 143 261 61
3 262 261 143
3 262 41 261
3 262 197 41
3 263 197 262
3 263 3 197
3 646 144 647
3 648 144 649
3 650 62 651
3 652 651 144
3 650 651 652
3 264 653 654
3 264 655 657
3 655 62 656
3 655 656 657
3 264 263 62
3 265 263 264
3 265 3 263
3 265 80 3
3 266 80 265
3 266 34 80
3 658 266 659
3 660 659 63
3 658 659 660
3 267 661 663
3 661 266 662
3 661 662 663
3 267 34 266
3 267 180 34
3 268 180 267
3 268 664 666
3 666 665 180
3 664 665 666
3 667 268 668
3 669 268 670
3 673 672 268
3 671 672 673
