ply
format ascii 1.0
element vertex 441
property float x
property float y
property float z
element face 461
property list uchar int vertex_index
end_header
-4.375581 21.274685 -22.255453
-3.749428 48.272858 -22.541739
-6.534758 51.170429 -9.186365
-9.614317 40.297382 -13.086348
-7.989491 26.354919 -21.435047
-8.354994 9.651247 -15.769705
-9.285019 39.159492 -20.429098
-2.762487 35.63327 -26.487619
-4.750122 5.970342 -7.035042
-5.023767 22.826601 -24.841787
-8.349089 19.220364 -19.452036
-6.321117 16.381136 -19.87009
-4.925582 55.51236 -21.350445
-8.028776 50.593918 -22.054859
-5.405385 43.787594 -23.465611
-4.591501 37.676353 -26.548771
-3.150604 41.934757 -24.601048
-9.816805 34.367409 -14.19895
-6.21451 19.944628 -16.314083
-6.232853 14.41493 -14.863194
-6.270973 10.238241 -9.894945
-5.610575 57.656322 -13.385409
-6.877194 50.359879 -15.951756
-6.633298 44.484322 -17.17889
-8.162115 46.003418 -11.448648
-11.123999 21.513245 -16.134985
-10.260551 12.584974 -15.782087
-11.774182 1.41022 -12.031786
-7.776613 5.122885 -12.540792
-8.217872 33.005699 -21.821014
-4.471598 30.684454 -27.555182
-3.118043 28.032154 -25.912237
-5.778393 38.555916 -19.25786
-5.227363 32.802925 -20.376286
-6.018717 26.171412 -19.072126
-4.429999 21.700359 -23.921682
-5.679984 19.430298 -22.588823
-5.319669 18.832134 -21.172686
-4.178862 52.108299 -22.04929
-6.000824 53.5919 -22.803797
-5.077495 49.96323 -22.826691
-6.726602 47.180195 -21.639841
-4.279563 46.31963 -24.05505
-3.859457 43.100559 -25.06209
-3.477126 45.156025 -23.421528
-6.594832 15.868709 -12.748159
-6.525377 54.776112 -7.625758
-6.571579 58.676353 -9.791755
-8.213901 55.150307 -10.473255
-6.986318 54.061115 -14.74737
-8.87184 51.048462 -11.977048
-7.780409 47.949421 -13.03286
-7.211065 48.49427 -10.388796
-10.03613 27.533176 -19.221176
-11.433612 24.89646 -17.309412
-9.645559 24.144104 -18.707277
-8.324556 15.00815 -17.849924
-9.391199 16.437998 -16.648609
-9.227632 11.350084 -16.33868
-10.475797 6.811418 -14.944277
-9.780905 5.057146 -13.805493
-6.803681 8.037988 -11.441271
-6.747448 10.640197 -13.688914
-7.010454 2.832772 -11.88166
-8.579344 36.212959 -21.246922
-3.451929 36.742474 -27.264105
-4.546048 34.388157 -27.337284
-3.396552 33.408825 -27.752884
-3.459889 29.118076 -27.240717
-2.814837 32.040466 -26.703419
-7.058094 42.40535 -14.831304
-6.385271 41.425026 -18.08189
-7.147698 39.538979 -15.780031
-9.370035 31.415668 -14.229677
-7.351023 33.701279 -17.088894
-7.47034 30.868214 -17.189075
-5.343239 29.481119 -20.033976
-7.586642 27.58046 -16.733498
-7.327949 24.585983 -15.974733
-3.757502 4.193027 -5.977708
-6.137738 24.508402 -24.198292
-7.970706 22.739025 -20.967457
-6.73282 20.833817 -22.705997
-7.167768 17.604332 -20.437155
-7.271988 13.62236 -18.003485
-5.385131 58.343773 -19.486889
-8.577752 44.693916 -20.568773
-7.286761 41.508636 -21.678591
-6.587344 38.444046 -23.120794
-4.854909 40.745811 -25.161829
-3.564188 39.883324 -26.359598
-2.907584 38.736675 -25.620106
-11.23624 38.126793 -11.107086
-9.832762 37.26162 -13.82323
-10.550016 35.230446 -11.482725
-5.495955 20.920826 -19.39938
-5.421887 18.257046 -18.79842
-6.090459 17.198076 -15.849589
-6.578938 12.557677 -12.264257
-6.179521 5.382041 -10.080999
-5.54227 8.04834 -8.179973
-5.835488 62.28883 -8.967982
-4.905242 61.000732 -12.144992
-4.625819 59.476234 -15.879692
-5.194656 56.577534 -17.683369
-5.281527 53.219727 -19.043646
-4.756259 49.610088 -19.911249
-4.54371 46.609863 -20.51215
-6.525473 47.368664 -16.666727
-7.022612 45.15435 -13.976776
-9.130978 43.246162 -12.432239
-9.945643 46.921734 -9.436447
-11.330309 38.988716 -8.669493
-9.629654 20.636679 -17.630184
-10.652126 17.602428 -15.198488
-11.398314 8.45882 -15.841782
-12.329275 3.097508 -12.870468
-13.210469 -0.995286 -12.322853
-5.936071 15.585284 -17.777405
-6.631866 12.196154 -16.202751
-7.931087 7.653569 -14.200815
-8.106608 0.845797 -14.090567
-9.495464 2.739018 -12.521466
-10.791666 -0.3312 -13.111975
-10.137232 30.750797 -19.674332
-8.018201 29.746286 -21.905766
-6.123861 35.248516 -24.325891
-5.934952 31.807959 -25.059647
-5.858153 28.135046 -24.977604
-4.490892 26.453638 -26.492737
-3.788094 25.194384 -25.825232
-3.633153 24.467665 -24.347042
-4.314727 43.605034 -21.242134
-3.830741 40.561905 -22.434879
-3.506579 37.410641 -23.505789
-7.434997 36.541649 -16.560223
-5.457948 35.703629 -20.029734
-3.273029 34.214874 -24.307314
-3.461292 30.780228 -23.912029
-3.899922 27.266468 -22.872166
-4.850724 24.069864 -21.32548
-6.410033 23.093006 -18.021046
-6.562767 2.139021 -11.675729
-6.907068 5.43538 -11.661466
-6.45938 4.741629 -11.455535
-10.648543 39.122598 -20.560463
-9.86819 40.586678 -20.339691
-10.240075 37.914836 -20.099961
-10.648543 39.122598 -20.560463
-8.932182 37.686225 -20.83801
-9.887238 36.44157 -20.508873
-10.240075 37.914836 -20.099961
-7.964124 29.740294 -15.678882
-8.420188 31.141941 -15.709376
-8.913971 30.014021 -14.199183
-8.022274 28.096418 -15.451094
-7.528491 29.224337 -16.961286
-7.964124 29.740294 -15.678882
-7.426926 26.735286 -15.40031
-8.022274 28.096418 -15.451094
-3.318989 3.346582 -5.548365
-3.990223 5.982034 -5.617149
-3.55171 5.13559 -5.187806
-3.349213 1.278897 -6.538102
-3.318989 3.346582 -5.548365
-5.752512 55.966742 -21.475185
-5.982287 57.382448 -20.543407
-5.155356 56.928066 -20.418667
-8.404374 51.912357 -22.310859
-7.390398 53.411349 -22.685327
-7.0148 52.092909 -22.429328
-9.13142 50.126095 -22.669351
-8.404374 51.912357 -22.310859
-8.877079 49.039231 -21.934208
-9.13142 50.126095 -22.669351
-10.322719 35.929052 -10.423098
-10.893128 36.678619 -11.294906
-10.665831 37.377226 -10.235278
-5.146196 7.009341 -7.607508
-5.591096 9.937587 -8.137605
-5.195022 8.898588 -7.565139
-6.557453 60.507253 -7.770912
-6.148476 62.251032 -7.191587
-11.157388 47.305143 -8.05764
-9.488979 48.244341 -8.832831
-11.773916 40.339243 -8.52545
-11.356493 40.011741 -9.682253
-12.037591 21.821589 -15.855158
-12.192398 23.513196 -16.442372
-11.278806 23.204853 -16.722198
-11.691429 20.023797 -15.204532
-12.037591 21.821589 -15.855158
-10.899903 13.172391 -15.268938
-11.09569 15.681119 -14.977138
-10.456339 15.093701 -15.490288
-10.829432 10.521897 -15.811934
-11.468784 11.109314 -15.298786
-10.899903 13.172391 -15.268938
-8.549657 -0.042228 -14.963926
-7.51298 -0.175714 -15.338947
-9.244085 0.904383 -14.179375
-8.801036 1.792408 -13.306017
-8.549657 -0.042228 -14.963926
-9.892186 -0.630726 -14.47463
-10.143565 1.203909 -12.81672
-9.244085 0.904383 -14.179375
-9.177552 31.878248 -20.747673
-10.365697 32.277596 -19.69601
-9.406017 33.405046 -20.769351
-7.074302 23.158578 -15.47573
-6.956554 23.920789 -14.707621
-6.714723 17.154634 -12.922592
-6.404671 17.906669 -14.531121
-6.524561 19.192594 -14.705554
-6.553794 14.920558 -11.440918
-6.714723 17.154634 -12.922592
-6.391864 12.105324 -10.014311
-6.432902 13.053475 -11.321552
-6.553794 14.920558 -11.440918
-4.619345 3.810506 -7.659705
-4.149561 2.951242 -7.304272
-6.548478 56.726232 -8.708756
-6.925498 58.701015 -8.182799
-6.902397 56.750895 -7.099801
-10.734871 26.214818 -18.265294
-11.73187 26.580295 -17.733663
-11.033129 27.898653 -18.689545
-9.586753 35.008676 -20.482305
-9.887238 36.44157 -20.508873
-8.398608 34.609329 -21.533968
-9.406017 33.405046 -20.769351
-9.586753 35.008676 -20.482305
-7.29758 25.238048 -15.020928
-7.457296 26.083222 -16.354115
-7.426926 26.735286 -15.40031
-6.956554 23.920789 -14.707621
-7.29758 25.238048 -15.020928
-4.812005 7.874904 -6.843391
-5.195022 8.898588 -7.565139
-4.315695 6.986247 -6.314724
-3.990223 5.982034 -5.617149
-4.253812 5.081684 -6.506375
-4.812005 7.874904 -6.843391
-4.315695 6.986247 -6.314724
-3.653251 2.062585 -6.775605
-4.149561 2.951242 -7.304272
-4.253812 5.081684 -6.506375
-3.653251 2.062585 -6.775605
-3.349213 1.278897 -6.538102
-7.025429 54.93101 -6.381189
-6.902397 56.750895 -7.099801
-7.381378 53.399189 -7.132409
-7.025429 54.93101 -6.381189
-7.386069 51.596348 -7.912712
-6.530067 52.97327 -8.406061
-7.381378 53.399189 -7.132409
-7.783537 50.368688 -8.70779
-7.386069 51.596348 -7.912712
-6.589627 58.591995 -19.543712
-5.815406 59.041352 -18.443976
-6.589627 58.591995 -19.543712
-5.982287 57.382448 -20.543407
-6.290133 55.006512 -22.201861
-5.752512 55.966742 -21.475185
-5.463203 54.55213 -22.077121
-6.290133 55.006512 -22.201861
-7.390398 53.411349 -22.685327
-8.225992 47.332369 -21.726699
-8.877079 49.039231 -21.934208
-7.377689 48.887056 -21.84735
-9.151567 46.08923 -21.191165
-8.225992 47.332369 -21.726699
-7.652177 45.937055 -21.104307
-9.681425 44.428051 -21.420436
-9.151567 46.08923 -21.191165
-9.514557 43.35389 -20.409529
-9.681425 44.428051 -21.420436
-8.869061 41.76125 -20.964438
-9.514557 43.35389 -20.409529
-7.932257 43.101276 -21.123682
-8.28589 40.334064 -21.053845
-9.86819 40.586678 -20.339691
-8.869061 41.76125 -20.964438
-9.666014 34.778344 -10.861475
-10.322719 35.929052 -10.423098
-9.951431 33.934407 -11.692637
-9.666014 34.778344 -10.861475
-9.584826 33.502888 -13.05075
-10.183411 34.798928 -12.840837
-9.951431 33.934407 -11.692637
-9.361441 32.027017 -13.066113
-9.59342 32.891539 -14.214313
-9.584826 33.502888 -13.05075
-8.496835 30.757213 -13.320177
-9.361441 32.027017 -13.066113
-8.913971 30.014021 -14.199183
-8.496835 30.757213 -13.320177
-6.147301 3.413655 -10.775399
-6.45938 4.741629 -11.455535
-6.491601 6.710014 -10.761135
-6.027513 11.010374 -9.156825
-5.591096 9.937587 -8.137605
-5.906621 9.14329 -9.037459
-6.391864 12.105324 -10.014311
-6.027513 11.010374 -9.156825
-5.01542 4.849505 -8.232171
-5.146196 7.009341 -7.607508
-4.619345 3.810506 -7.659705
-5.494235 5.645002 -8.623722
-5.01542 4.849505 -8.232171
-5.858586 6.739953 -9.481209
-5.906621 9.14329 -9.037459
-5.494235 5.645002 -8.623722
-5.812861 4.311853 -9.574236
-6.225247 7.810141 -9.987972
-5.858586 6.739953 -9.481209
-5.65786 2.583697 -10.556642
-5.812861 4.311853 -9.574236
-6.147301 3.413655 -10.775399
-5.65786 2.583697 -10.556642
-6.341155 63.447466 -8.085534
-6.148476 62.251032 -7.191587
-5.974751 62.875128 -9.779303
-6.341155 63.447466 -8.085534
-6.203533 60.482591 -9.379869
-6.557453 60.507253 -7.770912
-6.925498 58.701015 -8.182799
-5.509628 62.231079 -11.367808
-5.974751 62.875128 -9.779303
-5.370365 61.644781 -10.556487
-5.333944 61.092102 -12.870525
-5.509628 62.231079 -11.367808
-5.194233 60.329853 -14.737875
-5.333944 61.092102 -12.870525
-4.765531 60.238483 -14.012342
-5.43575 59.607582 -16.640377
-5.194233 60.329853 -14.737875
-5.005475 58.910004 -17.683291
-5.815406 59.041352 -18.443976
-5.43575 59.607582 -16.640377
-8.12169 49.030609 -9.309005
-6.872911 49.832349 -9.787581
-7.783537 50.368688 -8.70779
-8.578354 47.708002 -9.912622
-8.12169 49.030609 -9.309005
-9.488979 48.244341 -8.832831
-11.356123 45.806957 -8.562932
-11.157388 47.305143 -8.05764
-10.440375 45.470766 -9.83142
-11.356123 45.806957 -8.562932
-9.54861 45.011608 -10.837521
-9.053879 46.462576 -10.442547
-10.440375 45.470766 -9.83142
-10.033042 43.63298 -11.329316
-8.646546 44.62479 -11.940444
-9.54861 45.011608 -10.837521
-10.256828 42.140465 -11.563626
-10.033042 43.63298 -11.329316
-10.498497 40.666075 -11.89068
-9.372647 41.771772 -12.759293
-10.256828 42.140465 -11.563626
-11.309459 39.58078 -10.901049
-10.425279 39.212087 -12.096717
-10.498497 40.666075 -11.89068
-11.283275 38.557755 -9.888289
-11.309459 39.58078 -10.901049
-11.356493 40.011741 -9.682253
-10.712865 37.808188 -9.016481
-10.665831 37.377226 -10.235278
-11.283275 38.557755 -9.888289
-11.309305 39.506163 -7.444085
-11.773916 40.339243 -8.52545
-11.752912 40.85669 -7.300042
-10.382665 38.567284 -8.061894
-11.309305 39.506163 -7.444085
-10.712865 37.808188 -9.016481
-10.382665 38.567284 -8.061894
-12.451302 25.165927 -17.259392
-11.73187 26.580295 -17.733663
-12.451302 25.165927 -17.259392
-12.192398 23.513196 -16.442372
-11.455493 18.068388 -14.736284
-11.691429 20.023797 -15.204532
-10.888063 19.557837 -15.666736
-11.455493 18.068388 -14.736284
-11.09569 15.681119 -14.977138
-11.984042 9.075366 -15.896905
-11.468784 11.109314 -15.298786
-12.206198 6.53232 -14.888082
-11.984042 9.075366 -15.896905
-12.671679 3.851665 -13.402425
-12.206198 6.53232 -14.888082
-11.863795 5.778164 -14.356125
-13.170424 1.69204 -12.437057
-12.671679 3.851665 -13.402425
-13.61102 -0.354357 -12.163249
-13.170424 1.69204 -12.437057
-12.769872 1.051111 -12.596661
-14.157759 -2.301861 -12.680076
-13.61102 -0.354357 -12.163249
-6.471609 0.91411 -12.823984
-6.562767 2.139021 -11.675729
-6.72564 1.545565 -13.497921
-6.471609 0.91411 -12.823984
-7.10872 2.690622 -13.827487
-7.393534 3.977829 -12.211226
-6.72564 1.545565 -13.497921
-7.273717 0.552078 -14.602374
-7.51298 -0.175714 -15.338947
-7.94161 2.984341 -13.315679
-7.10872 2.690622 -13.827487
-7.273717 0.552078 -14.602374
-11.06374 -1.894282 -14.210614
-9.892186 -0.630726 -14.47463
-11.55971 -1.317577 -13.565226
-11.06374 -1.894282 -14.210614
-12.050967 -0.446867 -13.025131
-11.282924 0.53951 -12.57188
-11.55971 -1.317577 -13.565226
-12.769111 -1.64962 -13.170665
-12.492325 0.207467 -12.177319
-12.050967 -0.446867 -13.025131
-13.796951 -2.858948 -13.117318
-12.769111 -1.64962 -13.170665
-14.157759 -2.301861 -12.680076
-13.796951 -2.858948 -13.117318
-11.307709 30.96396 -19.291774
-10.365697 32.277596 -19.69601
-11.083679 29.507464 -18.916123
-11.307709 30.96396 -19.291774
-10.086681 29.141987 -19.447754
-11.033129 27.898653 -18.689545
-11.083679 29.507464 -18.916123
-6.615343 22.41209 -16.498886
-6.868991 23.839495 -16.997889
-7.074302 23.158578 -15.47573
-6.517582 20.837901 -15.645405
-6.312271 21.518817 -17.167564
-6.615343 22.41209 -16.498886
-6.524561 19.192594 -14.705554
-6.517582 20.837901 -15.645405
3 0 37 35
3 1 40 38
3 1 42 40
3 1 44 42
3 2 48 46
3 2 50 48
3 2 52 50
3 4 55 53
3 5 58 56
3 5 60 58
3 142 63 143
3 144 143 61
3 142 143 144
3 6 145 146
3 6 147 148
3 6 149 151
3 149 64 150
3 149 150 151
3 7 67 65
3 7 69 67
3 3 72 70
3 152 75 153
3 154 153 73
3 152 153 154
3 155 77 156
3 157 156 75
3 155 156 157
3 159 158 77
3 160 79 161
3 160 161 162
3 164 163 79
3 9 82 80
3 11 83 36
3 11 84 83
3 12 165 167
3 167 166 85
3 165 166 167
3 13 168 170
3 170 169 39
3 168 169 170
3 13 171 172
3 13 173 174
3 14 86 41
3 14 87 86
3 14 89 87
3 16 90 43
3 16 91 90
3 175 94 176
3 177 176 92
3 175 176 177
3 18 97 95
3 20 98 45
3 20 99 98
3 8 178 180
3 178 100 179
3 178 179 180
3 181 101 182
3 21 102 47
3 21 103 102
3 21 104 103
3 22 105 49
3 22 106 105
3 22 108 106
3 24 109 51
3 24 110 109
3 183 111 184
3 185 112 186
3 25 187 189
3 189 188 54
3 187 188 189
3 25 190 191
3 10 113 81
3 26 114 57
3 26 192 194
3 194 193 114
3 192 193 194
3 26 195 197
3 195 115 196
3 195 196 197
3 27 116 59
3 27 117 116
3 19 118 96
3 28 119 62
3 28 120 119
3 198 121 199
3 200 122 201
3 202 201 121
3 200 201 202
3 203 123 204
3 205 204 122
3 203 204 205
3 29 206 208
3 206 124 207
3 206 207 208
3 29 125 124
3 15 126 88
3 30 127 66
3 30 128 127
3 30 129 128
3 31 130 68
3 31 131 130
3 23 132 107
3 32 133 71
3 32 134 133
3 17 135 93
3 33 136 74
3 33 137 136
3 33 138 137
3 34 139 76
3 34 140 139
3 34 141 140
3 210 209 78
3 35 36 9
3 37 36 35
3 37 11 36
3 38 39 12
3 40 39 38
3 40 13 39
3 40 41 13
3 42 41 40
3 42 14 41
3 42 43 14
3 44 43 42
3 44 16 43
3 211 45 212
3 213 212 18
3 211 212 213
3 214 45 215
3 216 20 217
3 218 217 45
3 216 217 218
3 220 219 8
3 46 221 223
3 221 47 222
3 221 222 223
3 48 47 46
3 48 21 47
3 48 49 21
3 50 49 48
3 50 22 49
3 50 51 22
3 52 51 50
3 52 24 51
3 53 224 226
3 224 54 225
3 224 225 226
3 55 54 53
3 55 25 54
3 56 57 10
3 58 57 56
3 58 26 57
3 58 59 26
3 60 59 58
3 60 27 59
3 61 62 19
3 63 62 61
3 63 28 62
3 64 227 228
3 64 229 231
3 229 29 230
3 229 230 231
3 65 66 15
3 67 66 65
3 67 30 66
3 67 68 30
3 69 68 67
3 69 31 68
3 70 71 23
3 72 71 70
3 72 32 71
3 73 74 17
3 75 74 73
3 75 33 74
3 75 76 33
3 77 76 75
3 77 34 76
3 77 78 34
3 232 78 233
3 234 233 77
3 232 233 234
3 236 235 78
3 237 8 238
3 79 239 240
3 79 241 243
3 241 8 242
3 241 242 243
3 79 244 246
3 246 245 8
3 244 245 246
3 248 247 79
3 249 46 250
3 251 46 252
3 253 2 254
3 255 254 46
3 253 254 255
3 257 256 2
3 80 81 4
3 82 81 80
3 82 10 81
3 36 82 9
3 83 82 36
3 83 10 82
3 83 56 10
3 84 56 83
3 84 5 56
3 85 258 259
3 261 260 85
3 39 262 264
3 264 263 12
3 262 263 264
3 266 265 39
3 41 267 269
3 269 268 13
3 267 268 269
3 86 270 272
3 272 271 41
3 270 271 272
3 86 273 274
3 86 275 276
3 87 277 279
3 279 278 86
3 277 278 279
3 87 280 282
3 280 6 281
3 280 281 282
3 87 88 6
3 89 88 87
3 89 15 88
3 43 89 14
3 90 89 43
3 90 15 89
3 90 65 15
3 91 65 90
3 91 7 65
3 92 93 3
3 94 93 92
3 94 17 93
3 283 94 284
3 285 94 286
3 287 17 288
3 289 288 94
3 287 288 289
3 290 73 291
3 292 291 17
3 290 291 292
3 293 73 294
3 296 295 73
3 95 96 0
3 97 96 95
3 97 19 96
3 45 97 18
3 98 97 45
3 98 19 97
3 98 61 19
3 99 61 98
3 99 297 299
3 299 298 61
3 297 298 299
3 100 300 301
3 100 302 304
3 302 20 303
3 302 303 304
3 305 100 306
3 307 306 8
3 305 306 307
3 308 100 309
3 310 20 311
3 312 311 100
3 310 311 312
3 313 99 314
3 315 314 20
3 313 314 315
3 316 99 317
3 319 318 99
3 101 320 321
3 101 322 323
3 47 324 326
3 324 101 325
3 324 325 326
3 102 101 47
3 102 327 329
3 329 328 101
3 327 328 329
3 102 330 331
3 103 332 334
3 334 333 102
3 332 333 334
3 103 335 336
3 103 337 339
3 337 85 338
3 337 338 339
3 104 85 103
3 104 12 85
3 49 104 21
3 105 104 49
3 105 12 104
3 105 38 12
3 106 38 105
3 106 1 38
3 106 107 1
3 108 107 106
3 108 23 107
3 51 108 22
3 109 108 51
3 109 23 108
3 109 70 23
3 110 70 109
3 110 3 70
3 340 52 341
3 342 341 2
3 340 341 342
3 111 343 345
3 343 52 344
3 343 344 345
3 111 24 52
3 346 111 347
3 348 111 349
3 350 24 351
3 352 351 111
3 350 351 352
3 353 110 354
3 355 354 24
3 353 354 355
3 356 110 357
3 358 3 359
3 360 359 110
3 358 359 360
3 361 92 362
3 363 362 3
3 361 362 363
3 112 364 366
3 364 92 365
3 364 365 366
3 112 367 369
3 369 368 92
3 367 368 369
3 370 112 371
3 370 371 372
3 373 112 374
3 376 375 112
3 54 377 378
3 380 379 54
3 81 55 4
3 113 55 81
3 113 25 55
3 57 113 10
3 114 113 57
3 114 25 113
3 114 381 383
3 383 382 25
3 381 382 383
3 385 384 114
3 115 386 387
3 115 388 389
3 59 115 26
3 116 115 59
3 116 390 392
3 392 391 115
3 390 391 392
3 116 393 394
3 117 395 397
3 397 396 116
3 395 396 397
3 117 398 399
3 96 37 0
3 118 37 96
3 118 11 37
3 62 118 19
3 119 118 62
3 119 11 118
3 119 84 11
3 120 84 119
3 120 5 84
3 400 63 401
3 402 63 403
3 404 28 405
3 406 405 63
3 404 405 406
3 121 407 408
3 121 409 411
3 409 28 410
3 409 410 411
3 121 120 28
3 122 120 121
3 122 5 120
3 122 60 5
3 123 60 122
3 123 27 60
3 412 123 413
3 414 123 415
3 416 27 417
3 418 417 123
3 416 417 418
3 419 117 420
3 421 420 27
3 419 420 421
3 422 117 423
3 425 424 117
3 124 426 427
3 124 428 429
3 124 430 432
3 430 53 431
3 430 431 432
3 125 53 124
3 125 4 53
3 88 64 6
3 126 64 88
3 126 29 64
3 66 126 15
3 127 126 66
3 127 29 126
3 127 125 29
3 128 125 127
3 128 4 125
3 128 80 4
3 129 80 128
3 129 9 80
3 68 129 30
3 130 129 68
3 130 9 129
3 130 35 9
3 131 35 130
3 131 0 35
3 107 44 1
3 132 44 107
3 132 16 44
3 71 132 23
3 133 132 71
3 133 16 132
3 133 91 16
3 134 91 133
3 134 7 91
3 93 72 3
3 135 72 93
3 135 32 72
3 74 135 17
3 136 135 74
3 136 32 135
3 136 134 32
3 137 134 136
3 137 7 134
3 137 69 7
3 138 69 137
3 138 31 69
3 76 138 33
3 139 138 76
3 139 31 138
3 139 131 31
3 140 131 139
3 140 0 131
3 140 95 0
3 141 95 140
3 141 18 95
3 78 141 34
3 433 141 434
3 435 434 78
3 433 434 435
3 436 18 437
3 438 437 141
3 436 437 438
3 440 439 18
