ply
format ascii 1.0
element vertex 222
property float x
property float y
property float z
element face 221
property list uchar int vertex_index
end_header
-41.765694 -25.204914 1.740074
-41.725384 -30.146688 6.360803
-49.234562 -22.152147 6.529496
-36.344288 -28.03179 9.56573
-52.007648 -13.610949 2.112158
-36.929256 -32.037689 11.896011
-40.330265 -28.607071 10.563753
-44.732437 -21.58308 6.044454
-51.175117 -17.604389 5.471382
-46.648384 -18.848436 2.413824
-49.299126 -15.673337 -1.104923
-50.442596 -21.673611 2.254918
-45.896721 -26.293432 6.501505
-42.900543 -24.833933 8.900613
-38.589626 -26.357372 5.629376
-54.192444 -17.702732 3.01562
-56.491554 -14.273822 3.260583
-35.796421 -31.099609 13.320763
-42.587524 -22.9853 3.784749
-45.424683 -20.081968 4.223837
-44.121223 -22.279886 1.897543
-45.845348 -21.119244 0.189779
-43.319145 -24.281788 -0.145572
-43.856377 -28.364557 3.924355
-46.018177 -26.15296 4.090102
-43.907864 -28.226673 6.321929
-38.247601 -27.74733 10.750949
-41.798473 -26.729584 9.849752
-39.438293 -26.293213 9.273151
-40.468952 -24.968441 7.506951
-37.418484 -27.16481 7.582694
-50.068481 -22.172745 4.559387
-52.423107 -19.548794 2.496027
-51.82555 -20.042751 4.719328
-51.450245 -15.53373 4.089585
-54.130806 -15.88769 4.523612
-54.391682 -13.791141 3.043353
-55.130836 -11.206301 0.949977
-53.000172 -11.13149 0.111107
-39.48568 -31.329428 9.05929
-41.474785 -29.62558 8.776266
-38.73243 -30.409906 11.202286
-37.177387 -29.415747 12.184119
-35.260315 -29.148764 11.369709
-47.19796 -21.502069 7.173279
-50.471794 -19.858894 6.09359
-47.78495 -19.457699 5.960591
-48.385109 -17.610416 4.376067
-49.180897 -15.86909 2.546136
-50.217251 -14.150208 0.671558
-48.143711 -17.483631 0.630472
-47.380959 -19.598398 -1.424422
-48.184502 -24.195511 4.309588
-47.739704 -24.279972 6.654578
-43.448254 -27.738688 8.736282
-44.907654 -25.721003 8.509586
-46.11652 -23.581268 7.997629
-43.82888 -23.068878 7.577775
-41.453819 -23.865286 5.596951
-40.1073 -25.769709 3.632598
-53.169647 -17.878277 4.675849
-55.619671 -16.128727 3.426265
-51.045403 -11.77181 -0.992583
-39.90086 -26.480017 -0.323276
-41.252678 -25.354931 -2.274148
-42.090181 -30.303597 5.081537
-40.947108 -31.038351 6.386836
-42.790881 -29.255623 5.142579
-43.155678 -29.412531 3.863313
-42.090181 -30.303597 5.081537
-35.702088 -29.895947 12.647539
-36.486904 -30.257678 12.752441
-35.011605 -30.737879 13.215861
-34.743551 -29.762456 12.240334
-36.218851 -29.282255 11.776914
-35.702088 -29.895947 12.647539
-37.451565 -32.44437 10.60315
-36.349955 -32.803705 12.201801
-38.207468 -31.683559 10.47765
-38.729776 -32.090239 9.18479
-37.451565 -32.44437 10.60315
-46.032673 -21.275718 -1.667734
-46.613153 -20.358821 -0.617322
-45.264868 -22.036141 -0.860634
-46.640669 -20.423305 -2.485987
-46.032673 -21.275718 -1.667734
-52.170846 -20.707503 1.49762
-51.072647 -21.770024 1.391898
-54.971542 -17.780805 2.188296
-54.086874 -18.703836 1.928499
-53.307776 -18.625763 2.755823
-55.655859 -16.975529 2.574904
-54.971542 -17.780805 2.188296
-57.403106 -14.444298 2.829741
-56.967165 -15.371751 2.912582
-56.055612 -15.201275 3.343424
-57.839455 -13.383021 2.772824
-57.403106 -14.444298 2.829741
-38.604346 -26.023476 -0.877599
-37.919548 -26.325957 0.189132
-39.280254 -25.460933 -1.853035
-40.576769 -25.917474 -1.298712
-38.604346 -26.023476 -0.877599
-35.16135 -31.818367 14.069543
-36.362839 -31.568649 12.608387
-35.727767 -32.287407 13.357167
-34.390471 -31.249468 14.27814
-35.16135 -31.818367 14.069543
-35.011605 -30.737879 13.215861
-34.390471 -31.249468 14.27814
-35.727767 -32.287407 13.357167
-36.349955 -32.803705 12.201801
-44.001766 -23.617413 -1.028309
-45.264868 -22.036141 -0.860634
-44.582246 -22.700516 0.022103
-44.937277 -27.258758 4.007229
-46.198915 -26.256329 3.002343
-45.118015 -27.362128 2.91947
-44.509072 -28.581323 2.938356
-43.155678 -29.412531 3.863313
-45.118015 -27.362128 2.91947
-44.509072 -28.581323 2.938356
-55.826182 -12.719959 2.549058
-56.876117 -12.961299 2.657673
-55.441618 -14.032481 3.151968
-56.195758 -11.427539 1.50237
-55.826182 -12.719959 2.549058
-54.761259 -12.498721 1.996665
-56.47094 -9.906671 0.755146
-56.195758 -11.427539 1.50237
-55.616974 -9.583099 0.178964
-56.47094 -9.906671 0.755146
-54.551642 -9.545694 -0.240471
-55.616974 -9.583099 0.178964
-54.065504 -11.168895 0.530542
-53.466663 -9.590773 -0.756895
-54.551642 -9.545694 -0.240471
-49.599655 -14.515509 -1.876171
-48.832802 -16.656898 -2.120729
-39.827255 -31.629721 7.73608
-38.729776 -32.090239 9.18479
-40.605532 -30.738058 7.710047
-40.947108 -31.038351 6.386836
-39.827255 -31.629721 7.73608
-47.873718 -18.619428 -2.280478
-48.832802 -16.656898 -2.120729
-48.340042 -17.635867 -1.264673
-47.873718 -18.619428 -2.280478
-46.640669 -20.423305 -2.485987
-49.418774 -22.768361 2.164281
-51.072647 -21.770024 1.391898
-47.206564 -25.008035 3.081873
-46.198915 -26.256329 3.002343
-48.289727 -24.029311 3.191616
-47.206564 -25.008035 3.081873
-47.10134 -25.174236 4.199845
-49.313549 -22.934561 3.282253
-49.418774 -22.768361 2.164281
-48.289727 -24.029311 3.191616
-53.161102 -19.645094 1.618175
-52.170846 -20.707503 1.49762
-51.432851 -20.611203 2.375472
-53.161102 -19.645094 1.618175
-54.086874 -18.703836 1.928499
-56.369473 -16.188526 2.780226
-55.655859 -16.975529 2.574904
-54.906058 -16.91573 3.220943
-56.369473 -16.188526 2.780226
-56.967165 -15.371751 2.912582
-57.839455 -13.383021 2.772824
-56.876117 -12.961299 2.657673
-52.489279 -9.910933 -1.30874
-53.466663 -9.590773 -0.756895
-52.022787 -11.45165 -0.440738
-50.472794 -12.564746 -1.820001
-50.172264 -13.722573 -1.048753
-49.599655 -14.515509 -1.876171
-51.359732 -10.355224 -1.712458
-50.472794 -12.564746 -1.820001
-52.489279 -9.910933 -1.30874
-51.359732 -10.355224 -1.712458
-33.608892 -29.393175 11.956975
-34.743551 -29.762456 12.240334
-34.103266 -29.159841 10.807181
-33.608892 -29.393175 11.956975
-34.645252 -28.601354 9.905192
-35.802301 -28.590277 10.46772
-34.103266 -29.159841 10.807181
-35.197902 -28.338013 8.805075
-34.645252 -28.601354 9.905192
-35.735 -27.904523 7.813557
-36.881386 -27.5983 8.574212
-35.197902 -28.338013 8.805075
-36.32583 -27.689383 6.774921
-35.735 -27.904523 7.813557
-36.911401 -27.285663 5.798262
-38.004055 -26.761091 6.606035
-36.32583 -27.689383 6.774921
-37.631609 -27.050241 4.783237
-36.911401 -27.285663 5.798262
-38.390446 -26.756409 3.784848
-39.348463 -26.063541 4.630987
-37.631609 -27.050241 4.783237
-39.208923 -26.484218 2.728639
-38.390446 -26.756409 3.784848
-40.038121 -26.201821 1.782376
-40.936497 -25.487311 2.686336
-39.208923 -26.484218 2.728639
-39.105704 -26.839372 0.750701
-37.919548 -26.325957 0.189132
-40.833277 -25.842465 0.708399
-40.038121 -26.201821 1.782376
-39.105704 -26.839372 0.750701
-42.968533 -24.153985 -2.092598
-44.001766 -23.617413 -1.028309
-42.285911 -24.818359 -1.20986
-39.890602 -25.03188 -2.832099
-39.280254 -25.460933 -1.853035
-41.848212 -24.655783 -3.171911
-39.890602 -25.03188 -2.832099
-42.968533 -24.153985 -2.092598
-41.848212 -24.655783 -3.171911
3 0 20 18
3 0 22 20
3 1 25 23
3 3 28 26
3 3 30 28
3 1 65 66
3 1 67 69
3 67 23 68
3 67 68 69
3 2 33 31
3 4 36 34
3 4 37 36
3 4 38 37
3 5 41 39
3 70 42 71
3 72 71 17
3 70 71 72
3 73 43 74
3 75 74 42
3 73 74 75
3 5 76 77
3 5 78 80
3 78 39 79
3 78 79 80
3 7 46 44
3 9 47 19
3 9 48 47
3 9 50 48
3 81 51 82
3 83 82 21
3 81 82 83
3 85 84 51
3 12 52 24
3 12 53 52
3 6 54 40
3 13 55 27
3 13 56 55
3 13 57 56
3 14 58 29
3 14 59 58
3 11 86 87
3 15 88 90
3 90 89 32
3 88 89 90
3 15 91 92
3 8 60 45
3 16 61 35
3 16 93 95
3 95 94 61
3 93 94 95
3 16 96 97
3 10 62 49
3 98 63 99
3 100 64 101
3 102 101 63
3 100 101 102
3 103 17 104
3 105 104 5
3 103 104 105
3 106 17 107
3 109 108 17
3 110 5 111
3 18 19 7
3 20 19 18
3 20 9 19
3 20 21 9
3 22 21 20
3 22 112 114
3 114 113 21
3 112 113 114
3 23 115 117
3 115 24 116
3 115 116 117
3 25 24 23
3 25 12 24
3 26 27 6
3 28 27 26
3 28 13 27
3 28 29 13
3 30 29 28
3 30 14 29
3 23 118 119
3 23 120 121
3 31 32 11
3 33 32 31
3 33 15 32
3 34 35 8
3 36 35 34
3 36 16 35
3 36 122 124
3 124 123 16
3 122 123 124
3 37 125 127
3 127 126 36
3 125 126 127
3 37 128 129
3 37 130 131
3 38 132 134
3 134 133 37
3 132 133 134
3 38 135 136
3 138 137 10
3 39 40 1
3 41 40 39
3 41 6 40
3 17 41 5
3 42 41 17
3 42 6 41
3 42 26 6
3 43 26 42
3 43 3 26
3 39 139 140
3 39 141 143
3 141 1 142
3 141 142 143
3 44 45 2
3 46 45 44
3 46 8 45
3 19 46 7
3 47 46 19
3 47 8 46
3 47 34 8
3 48 34 47
3 48 4 34
3 48 49 4
3 50 49 48
3 50 10 49
3 21 50 9
3 51 50 21
3 51 10 50
3 51 144 146
3 146 145 10
3 144 145 146
3 148 147 51
3 149 11 150
3 24 151 152
3 52 153 155
3 155 154 24
3 153 154 155
3 52 156 158
3 156 11 157
3 156 157 158
3 52 31 11
3 53 31 52
3 53 2 31
3 40 25 1
3 54 25 40
3 54 12 25
3 27 54 6
3 55 54 27
3 55 12 54
3 55 53 12
3 56 53 55
3 56 2 53
3 56 44 2
3 57 44 56
3 57 7 44
3 29 57 13
3 58 57 29
3 58 7 57
3 58 18 7
3 59 18 58
3 59 0 18
3 32 159 161
3 161 160 11
3 159 160 161
3 163 162 32
3 45 33 2
3 60 33 45
3 60 15 33
3 35 60 8
3 61 60 35
3 61 15 60
3 61 164 166
3 166 165 15
3 164 165 166
3 168 167 61
3 170 169 16
3 49 38 4
3 62 38 49
3 62 171 173
3 173 172 38
3 171 172 173
3 174 62 175
3 176 175 10
3 174 175 176
3 177 62 178
3 180 179 62
3 181 43 182
3 183 43 184
3 185 3 186
3 187 186 43
3 185 186 187
3 188 3 189
3 190 30 191
3 192 191 3
3 190 191 192
3 193 30 194
3 195 14 196
3 197 196 30
3 195 196 197
3 198 14 199
3 200 59 201
3 202 201 14
3 200 201 202
3 203 59 204
3 205 0 206
3 207 206 59
3 205 206 207
3 63 208 209
3 63 210 212
3 210 0 211
3 210 211 212
3 63 22 0
3 64 22 63
3 64 213 215
3 215 214 22
3 213 214 215
3 216 64 217
3 218 64 219
3 221 220 64
