ply
format ascii 1.0
element vertex 789
property float x
property float y
property float z
element face 945
property list uchar int vertex_index
end_header
37.251423 -12.712255 1.762125
27.67009 20.717716 -8.98414
37.257069 6.126338 -2.433275
34.402359 -13.819792 15.268916
37.92094 -4.146653 -0.11417
37.808548 -9.842094 -11.003048
39.67791 -16.700073 -9.183805
37.369011 -12.171043 20.562794
31.96349 -24.371195 13.929749
34.787563 -23.741686 20.744196
30.477421 12.306187 -14.473207
35.476009 16.035223 -5.160883
36.544838 6.458127 -11.698964
37.85564 -2.289549 -11.758241
34.956108 0.024544 8.573642
38.186249 -13.72007 8.885702
34.915459 -0.224492 14.698614
31.303684 21.535727 1.250643
32.299099 11.214525 5.194312
38.629959 -22.96666 -2.906849
34.2155 -24.331722 5.020017
37.833416 -8.900139 0.554125
35.950508 -11.777098 -4.622769
36.201382 -15.906896 -4.155116
36.274712 -18.103045 21.392332
39.782501 -17.828428 22.035723
28.307611 16.649504 -11.288554
37.091194 13.170232 -3.726133
37.282543 7.170116 -6.565019
37.31813 2.019909 -5.604452
32.721836 7.461304 10.726675
34.188435 0.010841 11.841444
29.099529 25.240557 -1.569221
31.679636 19.921045 11.352964
30.617878 18.628092 7.754751
31.222626 12.918292 9.485579
33.726402 5.66071 6.814894
36.000229 -14.236359 11.950172
34.476185 -18.342905 7.705942
34.707371 -19.304218 11.003004
33.035709 -28.30401 13.556723
35.315926 -27.541803 9.248703
29.518814 6.293295 -15.131574
39.274979 -0.244679 -18.610394
37.397175 3.41806 -17.40279
38.963898 0.958426 -0.736332
36.612194 -2.727247 -5.172838
36.061787 -7.405707 -5.043931
38.48362 -13.378378 -10.439154
34.937206 -12.771891 18.557714
34.392845 -19.312778 14.79742
34.355141 -18.601618 18.580729
32.43021 -24.112963 18.153728
27.600107 12.509321 -16.162991
31.505856 6.580472 -15.886889
30.226212 17.695154 -5.704974
32.396603 14.284861 -8.936941
36.16819 11.651388 -8.143278
37.729492 1.985913 -11.746333
40.212105 -3.136636 -18.911737
37.793304 -6.198048 -11.555242
36.561954 -7.336711 5.078685
38.892555 -13.137632 5.53335
35.697136 -7.080197 8.410803
34.854046 -7.263097 11.414281
34.588844 -7.286143 14.504328
36.287819 -7.023806 16.997799
29.547781 21.406343 -3.381595
34.497643 19.371426 -2.197804
35.319904 15.298605 -0.395902
29.59347 24.007307 5.012836
32.427361 16.544064 3.655379
34.412712 8.865062 1.201102
36.098038 2.417217 2.692342
38.075027 -2.12248 4.716537
35.972618 -18.793644 -1.016774
35.109905 -18.56786 3.270196
36.440914 -24.140873 0.971787
41.002041 -25.286175 1.616395
32.498203 -24.395935 9.245761
38.217117 -26.670361 5.425817
33.904442 10.601248 -12.669609
34.461426 5.804395 -16.418112
39.216427 -20.005211 -6.198637
37.79142 -10.86044 1.048293
36.571587 -12.459032 -1.593563
36.299118 -14.538318 -1.231672
26.705652 19.622059 -11.873693
27.690052 18.707357 -9.989062
36.346245 9.901103 -3.111744
37.427502 7.225652 -4.47243
38.337284 4.149913 -3.841191
32.479614 11.014649 11.778325
33.136333 6.982612 11.993138
31.03068 16.652313 10.767282
31.683716 13.672667 11.368065
31.97694 10.299857 10.12795
34.967155 -14.11671 13.547049
36.837212 -16.657368 12.035273
36.138897 -16.587242 13.569386
35.33033 -28.986969 13.345965
36.483036 -28.010326 11.576088
31.598059 3.738086 -15.26308
30.948284 3.620448 -14.122584
40.062279 0.858609 -21.9849
38.280312 -1.55153 -0.247233
37.192501 -3.296651 -2.559278
37.017712 -5.866683 -2.507382
36.890682 -14.897113 -7.379041
36.425026 -12.869253 -7.55107
39.117573 -15.080252 -9.966178
35.929283 -12.392159 19.758533
35.019409 -15.701518 18.699213
35.676258 -15.310987 20.203167
35.580727 -20.929562 21.213461
34.179249 -21.123356 20.04904
33.341267 -23.947735 19.694469
31.978405 -26.769085 17.973598
32.729439 -26.748663 19.554615
27.788488 14.818347 -13.839441
26.347004 15.150165 -15.08255
28.963001 12.46345 -15.286296
29.689617 9.753199 -16.017902
31.068121 9.688739 -15.572093
32.695549 16.633108 -4.974662
33.51115 14.751905 -6.644349
35.944771 13.972311 -6.693591
37.365372 2.004303 -8.765455
37.350204 4.394684 -8.891696
37.826191 -0.171921 -11.736556
38.698433 -1.63273 -15.475822
38.824043 -3.272881 -15.43996
36.410286 -6.663434 -7.911551
36.800148 -4.655101 -8.025012
37.753548 -7.94504 -11.205801
37.551025 -3.240948 7.713146
35.97039 -7.318158 6.61712
36.938881 -3.066225 9.257648
34.335125 -0.083153 13.321684
35.62339 -3.186535 12.21011
35.464306 -3.442221 13.52153
34.527691 -7.312393 12.91118
35.591656 -3.637523 14.838923
37.052711 -3.717576 17.31241
37.555412 -7.115551 17.54636
28.337341 22.99538 -5.313637
29.935144 23.604588 0.118425
30.977213 22.041248 -1.205964
32.986149 20.547365 -0.435781
35.659649 17.563997 -1.351557
34.197208 18.268042 0.737834
31.235342 14.875592 6.598323
31.272724 17.678295 5.746715
32.077629 13.861776 4.34128
33.069408 12.873426 2.162626
33.369652 10.119284 3.108246
35.266815 5.571009 2.037718
34.142406 7.242322 4.101203
34.071484 2.644553 7.547525
35.435658 1.271064 5.704802
36.737396 -1.116202 6.803927
37.377022 -4.615616 5.137413
38.87434 -13.450888 7.245821
36.446461 -15.24568 5.063006
36.766422 -15.564549 6.955797
33.673759 -21.696035 5.88432
34.297844 -21.817797 3.96039
35.331329 -24.337946 2.994772
38.644005 -25.40202 0.848499
37.262943 -25.922577 2.795145
33.041683 -22.020962 14.364403
33.02076 -22.140926 12.124359
32.059998 -24.434576 11.508257
36.770649 -27.085094 7.315024
35.044346 10.814482 -10.175848
33.294945 12.616979 -10.880302
35.341972 8.791852 -12.035715
36.001167 4.788603 -16.954845
35.995186 3.985619 -19.893772
34.470558 4.135471 -18.956339
36.818958 -21.535328 -2.396418
37.035439 -20.139359 -4.0214
38.972008 -21.588955 -4.588786
37.868256 -6.616656 0.065679
36.940483 -8.25279 -2.324663
36.79493 -10.388721 -1.907354
36.07119 -13.88121 -4.393094
37.444977 -16.831499 -7.113338
36.85202 -15.059792 21.265821
38.463421 -14.9176 21.832422
37.959103 -17.905718 22.060492
37.288086 -20.742611 21.624266
26.886332 17.239792 -12.722716
29.344143 14.553937 -12.805605
37.315578 14.981781 -4.823212
37.353172 12.308207 -6.158988
37.087624 10.329251 -5.126994
37.562031 4.454411 -6.194005
37.195869 -0.301162 -8.580881
40.310604 -11.457884 -13.241087
39.891117 -9.880522 -13.928093
33.206017 3.729436 9.577749
34.430542 0.018486 10.268043
33.082203 3.468525 11.223002
33.426743 3.205045 12.628389
34.195702 3.01417 13.825665
29.196835 26.991236 -0.344436
29.306284 25.185959 1.543524
30.272385 22.201868 8.368979
30.71751 19.376917 9.727003
30.835968 15.835388 8.798045
31.559601 12.10739 7.447624
33.115173 8.52019 6.150678
32.255901 9.553681 8.195984
33.009586 6.701592 8.901613
37.180191 -14.085625 10.449857
37.092926 -16.055614 8.686193
37.170296 -16.447155 10.389269
34.525566 -18.845638 9.324577
33.222218 -21.634222 7.961207
31.83073 -26.606125 13.655817
32.345257 -26.583441 11.279235
34.049683 -27.937119 11.325089
27.556446 9.057828 -16.200045
28.782984 6.319245 -14.427378
37.893761 2.266605 -14.654287
36.929161 4.476476 -14.288302
38.548302 1.64706 -18.054113
38.909573 2.056397 -21.459011
38.544506 3.389216 -1.63335
38.311836 1.682168 -3.037392
37.373043 -0.720811 -2.516389
36.376991 -5.142056 -5.279419
36.196575 -8.79151 -7.824046
35.934399 -9.591898 -4.825341
36.11372 -10.87817 -7.693898
38.014626 -11.623178 -10.73736
40.965534 -12.923698 -12.59958
34.330288 -13.260898 17.005241
35.40435 -16.46875 15.236856
34.960423 -16.099203 16.99003
34.226143 -18.983536 16.724667
33.049812 -21.669554 16.457607
35.069641 -18.311237 20.297016
33.326324 -21.3141 18.419088
32.077721 -24.246075 16.180725
31.710428 -26.613556 15.948761
32.640686 -28.692738 15.530283
34.708229 -29.937634 14.845416
26.43865 12.303856 -17.020348
28.62417 9.296917 -16.221727
30.41531 6.400534 -15.642268
32.38221 3.792488 -16.304249
28.650665 19.109524 -7.044086
29.511555 17.187527 -8.245875
31.230209 15.873586 -7.175761
34.337811 12.959027 -8.434595
36.058899 9.047418 -9.609233
36.973598 9.79283 -7.312898
36.703014 6.884084 -9.063777
37.323551 4.259026 -11.690244
38.405331 0.267181 -15.120062
39.762135 -1.731076 -18.992582
36.787209 -0.320848 -5.194146
36.996193 -2.422422 -8.22987
37.910915 -4.291293 -11.729471
39.605717 -8.315281 -14.463257
39.37989 -6.686682 -15.021838
39.078484 -5.040942 -15.403267
40.800961 -4.598161 -18.617178
38.712543 -10.288801 3.444047
38.235863 -12.870313 3.672142
38.047638 -10.754247 5.035054
37.144478 -11.233806 6.467703
36.078316 -11.370681 7.919032
36.179184 -3.051563 10.847006
35.312462 -7.145986 10.002233
35.082848 -11.57706 9.364073
34.232754 -11.406707 11.023375
33.743469 -11.133652 12.826876
33.631264 -10.758472 14.640927
36.101418 -3.658756 16.236588
35.150055 -7.15399 15.910731
34.189411 -10.393126 16.334452
35.127914 -9.979588 17.511799
36.407021 -9.772723 18.378107
28.066895 22.458439 -8.180344
28.346874 21.02265 -6.05547
29.829468 19.496727 -4.336629
32.532829 18.543465 -3.665824
29.240219 23.365551 -2.533984
32.013474 20.339029 -2.481628
35.247356 17.7624 -3.761664
36.614117 16.554056 -3.097788
36.54229 14.511722 -2.079707
35.347286 11.379539 -1.5815
29.389698 26.549902 3.284819
30.057184 22.757494 3.095883
30.016743 21.355602 6.490283
30.801687 20.160706 4.428136
32.317215 19.067717 2.556937
33.794682 15.709353 1.612721
34.130035 12.265594 0.122661
35.747616 7.406534 -0.685721
36.987198 4.169877 -0.02856
38.332863 1.516796 1.031431
38.665035 -0.602618 2.045754
34.659142 4.136881 4.774718
37.3904 0.15233 3.871625
38.100861 -3.392518 2.171713
37.755608 -5.81652 2.445136
37.916405 -8.243082 2.848273
36.124237 -15.692572 0.402545
36.112751 -15.399381 2.840987
35.595566 -18.808529 1.106062
36.019176 -21.981174 -0.208768
34.715862 -18.294483 5.485206
35.167854 -21.976639 1.84916
37.510944 -23.731821 -0.994473
39.979099 -24.570879 -0.899504
34.685612 -19.569769 12.791629
33.070412 -21.871229 10.060486
33.234394 -24.353977 7.085675
33.341446 -26.516998 8.960835
34.567993 -26.375784 6.835527
35.906792 -26.207912 4.823243
39.662525 -26.085964 3.47083
30.332861 15.597597 -9.945995
31.363556 13.932541 -11.75694
32.237034 11.821773 -13.535998
35.700886 6.499593 -14.176832
34.204918 8.158524 -14.344394
32.683056 9.182007 -14.860806
32.921726 6.367413 -16.070795
33.256233 3.899309 -17.583895
33.827728 2.139112 -19.59907
36.12923 -17.39917 -2.698704
37.244911 -18.485077 -5.646346
39.457081 -18.389151 -7.710606
27.680071 19.712536 -9.486601
27.526913 20.325546 -10.600024
27.516931 21.330725 -10.097563
33.003366 10.7419 12.198217
32.732815 12.602421 12.160443
32.334865 13.93143 11.955312
31.964748 15.366506 11.799892
32.732815 12.602421 12.160443
32.081665 12.343658 11.573195
32.334865 13.93143 11.955312
37.203163 -28.323732 12.396762
36.581947 -29.114238 12.916698
32.479444 2.316893 -15.587595
32.683419 2.557293 -16.368664
41.140554 -16.071655 -9.99514
40.860386 -15.261744 -10.386327
39.397741 -15.890162 -9.574991
36.628124 3.849588 -21.931389
36.773487 3.580506 -20.289791
35.843841 3.782241 -21.457992
36.628124 3.849588 -21.931389
39.621927 -13.655716 21.419041
38.702473 -13.592028 21.403495
38.870802 -17.867073 22.048108
39.11735 -16.46197 21.997786
40.029049 -16.423325 21.985402
41.841078 -10.644699 -14.293879
42.176792 -11.233118 -13.737202
33.694904 4.906218 12.784859
33.281538 5.093828 12.310764
33.5497 6.795001 12.467234
34.079384 4.81078 13.383498
33.811222 3.109608 13.227027
33.694904 4.906218 12.784859
29.47852 27.734062 0.350562
30.217699 28.193379 -0.946773
29.533244 26.831423 1.294542
29.251559 26.088597 0.599544
29.47852 27.734062 0.350562
31.198573 19.648981 10.539983
31.045815 21.046647 9.85733
31.526878 21.318711 10.670311
37.121431 -27.472209 10.740393
38.298708 -27.039632 10.956794
30.415976 3.565896 -13.717904
31.634906 2.040011 -14.395473
39.665194 2.671825 -23.054465
39.485926 1.457503 -21.721955
40.241547 2.072931 -23.317409
38.880394 2.827263 -22.967025
39.665194 2.671825 -23.054465
32.581551 -28.903228 16.479333
32.309545 -27.730911 16.75194
32.25041 -27.941401 17.70099
33.615322 -29.525676 16.136899
33.674458 -29.315186 15.18785
32.581551 -28.903228 16.479333
26.493628 13.954887 -16.432842
25.867077 15.275308 -15.892621
26.973555 13.829743 -15.622771
27.019379 12.406588 -16.59167
25.9129 13.852154 -16.86152
26.493628 13.954887 -16.432842
41.085718 -2.337696 -20.267221
40.860734 -1.634915 -20.307643
39.98712 -2.433856 -18.95216
41.155453 -8.452479 -15.404215
39.748417 -9.097901 -14.195675
41.298153 -9.2351 -15.136633
40.43635 -6.300941 -16.572955
40.756769 -6.974757 -16.189407
40.285646 -5.478071 -16.76367
39.229187 -5.863812 -15.212553
40.43635 -6.300941 -16.572955
41.146885 -5.25668 -18.370625
39.939723 -4.819552 -17.010222
40.285646 -5.478071 -16.76367
36.603977 -2.023022 16.482945
35.949652 -1.941007 16.046254
37.711171 -8.539174 17.969841
36.981217 -8.444137 17.962233
38.285366 -7.210587 17.553967
37.08149 -9.807552 18.602288
37.711171 -8.539174 17.969841
28.459796 23.336271 -7.893192
29.500127 23.619239 -9.321886
28.599785 22.618377 -6.830756
28.206885 21.740544 -7.117907
28.459796 23.336271 -7.893192
29.169874 24.303054 -2.051602
29.319946 25.055952 -3.183522
29.249601 25.993455 -2.701141
29.491584 25.278605 4.148828
29.791432 27.095337 4.132886
29.893318 25.824039 4.996895
41.668532 -24.706684 0.793756
40.489514 -24.764606 0.409809
39.823023 -25.344098 1.232447
42.653782 -23.921009 1.503432
41.668532 -24.706684 0.793756
33.792433 3.516998 -19.633777
33.863395 4.01739 -18.270117
34.399595 3.635079 -20.319999
34.07818 2.6369 -20.641365
33.541981 3.01921 -18.591482
33.792433 3.516998 -19.633777
40.980295 -16.435666 21.890884
40.029049 -16.423325 21.985402
27.034712 20.782897 -11.542339
27.246398 20.933998 -12.768352
27.197852 19.164708 -10.931377
27.034712 20.782897 -11.542339
27.526913 20.325546 -10.600024
33.331726 8.725881 12.305623
32.807974 8.998631 11.885732
33.003366 10.7419 12.198217
33.5497 6.795001 12.467234
33.331726 8.725881 12.305623
31.63823 16.856329 11.4995
31.355158 18.286679 11.060123
31.962708 18.490695 11.792341
31.357198 15.16249 11.067673
31.63823 16.856329 11.4995
31.964748 15.366506 11.799892
37.779516 -27.835411 11.511824
35.906683 -28.498647 12.461026
37.203163 -28.323732 12.396762
38.298708 -27.039632 10.956794
37.779516 -27.835411 11.511824
32.154556 2.258075 -15.017347
31.273172 3.679267 -14.692832
32.479444 2.316893 -15.587595
31.634906 2.040011 -14.395473
32.154556 2.258075 -15.017347
40.556359 0.224077 -21.965491
39.668629 0.306965 -20.297647
40.162709 -0.327566 -20.278239
40.998571 1.709176 -23.181283
40.556359 0.224077 -21.965491
40.241547 2.072931 -23.317409
40.998571 1.709176 -23.181283
40.456511 -14.670075 -10.887519
40.139534 -13.819138 -11.124008
38.800596 -14.229315 -10.202666
40.456511 -14.670075 -10.887519
40.860386 -15.261744 -10.386327
32.625927 -27.93119 18.491499
32.25041 -27.941401 17.70099
32.353922 -26.758874 18.764106
27.067746 14.984256 -14.460995
26.165982 16.428676 -14.807341
26.886724 16.262766 -14.185787
37.873069 -2.162464 17.2485
37.079624 -2.052432 17.020855
37.771004 -3.734155 17.675479
37.873069 -2.162464 17.2485
37.388558 -5.38727 17.518173
36.670265 -5.370691 17.155105
37.771004 -3.734155 17.675479
38.022354 -5.433142 17.792454
36.921616 -7.069679 17.27208
37.388558 -5.38727 17.518173
38.841837 -5.533702 17.830542
38.022354 -5.433142 17.792454
38.285366 -7.210587 17.553967
38.841837 -5.533702 17.830542
29.078557 24.389398 -6.146489
28.595019 23.604742 -6.459839
28.525576 23.953999 -4.949668
29.078557 24.389398 -6.146489
29.130797 23.15948 -3.983648
28.942561 22.200862 -4.347616
28.525576 23.953999 -4.949668
29.821635 24.522238 5.944935
29.893318 25.824039 4.996895
37.924053 -26.498966 7.74378
36.043287 -27.313448 8.281864
37.196692 -26.727321 8.710619
38.547072 -26.100265 6.837652
37.924053 -26.498966 7.74378
39.270305 -25.892898 5.893049
37.493883 -26.877727 6.37042
38.547072 -26.100265 6.837652
39.882671 -25.577647 5.004887
39.270305 -25.892898 5.893049
36.776477 3.981998 -18.820327
36.699171 4.103332 -17.178818
37.474481 3.296726 -19.0443
35.998176 4.387111 -18.424308
36.776477 3.981998 -18.820327
36.773487 3.580506 -20.289791
35.081527 3.857168 -20.989276
35.232872 4.060545 -19.425055
35.843841 3.782241 -21.457992
34.399595 3.635079 -20.319999
35.081527 3.857168 -20.989276
37.896772 -13.663124 21.120195
37.110516 -13.615417 20.914307
38.155268 -12.218749 20.768681
37.65772 -14.988696 21.549121
37.896772 -13.663124 21.120195
38.702473 -13.592028 21.403495
39.369509 -14.967911 21.883751
39.621927 -13.655716 21.419041
38.211262 -16.411659 21.946457
39.369509 -14.967911 21.883751
39.11735 -16.46197 21.997786
26.607436 19.874773 -12.969399
27.246398 20.933998 -12.768352
26.697776 18.683639 -13.393911
26.607436 19.874773 -12.969399
26.795992 18.430926 -12.298205
26.435646 17.473489 -13.627425
26.697776 18.683639 -13.393911
27.33741 16.029069 -13.281078
26.886724 16.262766 -14.185787
26.435646 17.473489 -13.627425
41.631335 -9.856018 -14.637383
40.10086 -10.669203 -13.58459
41.841078 -10.644699 -14.293879
41.298153 -9.2351 -15.136633
41.631335 -9.856018 -14.637383
29.650378 26.755067 -2.180338
29.249601 25.993455 -2.701141
29.699031 27.630406 -1.567946
30.217699 28.193379 -0.946773
29.148182 26.115896 -0.956828
29.650378 26.755067 -2.180338
29.699031 27.630406 -1.567946
30.823253 22.459122 9.178318
30.768828 23.804322 8.361002
30.494948 20.789392 9.047991
30.823253 22.459122 9.178318
31.045815 21.046647 9.85733
35.904755 -27.435606 10.614894
35.26636 -27.973723 11.450589
37.121431 -27.472209 10.740393
36.537876 -27.237948 9.576701
34.682805 -27.739461 10.286896
35.904755 -27.435606 10.614894
37.196692 -26.727321 8.710619
36.537876 -27.237948 9.576701
26.950525 9.038128 -16.062779
26.450346 10.573457 -16.913306
27.563794 7.668836 -15.176446
26.950525 9.038128 -16.062779
28.169715 7.688536 -15.313712
28.192624 6.293395 -14.225618
27.563794 7.668836 -15.176446
29.333326 4.915294 -13.870302
29.865634 4.969847 -14.274981
30.415976 3.565896 -13.717904
28.192624 6.293395 -14.225618
29.333326 4.915294 -13.870302
38.230681 2.615895 -21.072411
37.474481 3.296726 -19.0443
38.153374 2.737229 -19.4309
38.230681 2.615895 -21.072411
38.880394 2.827263 -22.967025
40.077058 -22.469782 -3.594388
39.946867 -23.149462 -2.7115
42.504257 -11.966025 -13.416448
42.176792 -11.233118 -13.737202
40.638069 -12.190791 -12.920333
41.380491 -13.591798 -12.20422
39.724577 -13.151038 -11.519367
40.139534 -13.819138 -11.124008
42.834335 -12.48209 -12.773782
41.380491 -13.591798 -12.20422
42.504257 -11.966025 -13.416448
42.834335 -12.48209 -12.773782
32.336629 21.27421 11.202476
31.526878 21.318711 10.670311
32.603687 19.905767 11.785834
32.336629 21.27421 11.202476
31.962708 18.490695 11.792341
32.603687 19.905767 11.785834
36.270897 -29.589571 13.666424
36.581947 -29.114238 12.916698
35.019279 -29.462301 14.09569
26.072545 16.574921 -15.851357
26.165982 16.428676 -14.807341
26.072545 16.574921 -15.851357
25.867077 15.275308 -15.892621
25.650182 13.780036 -17.825386
25.9129 13.852154 -16.86152
25.891448 12.196471 -17.323458
25.650182 13.780036 -17.825386
26.997548 10.680842 -16.610197
26.450346 10.573457 -16.913306
25.891448 12.196471 -17.323458
33.075495 2.584494 -16.889248
32.683419 2.557293 -16.368664
31.990134 3.765287 -15.783665
40.406287 -1.070765 -20.469333
40.162709 -0.327566 -20.278239
39.518557 -0.987878 -18.801488
40.406287 -1.070765 -20.469333
40.860734 -1.634915 -20.307643
40.869682 -7.789057 -15.910117
41.155453 -8.452479 -15.404215
39.492804 -7.500981 -14.742548
40.869682 -7.789057 -15.910117
40.756769 -6.974757 -16.189407
42.372599 -4.023648 -19.39437
41.146885 -5.25668 -18.370625
41.904643 -3.512188 -19.86102
42.372599 -4.023648 -19.39437
41.610214 -2.781426 -20.008299
40.506533 -3.867399 -18.764457
41.904643 -3.512188 -19.86102
41.085718 -2.337696 -20.267221
41.610214 -2.781426 -20.008299
34.666123 4.672051 13.705589
34.079384 4.81078 13.383498
34.76619 2.946845 14.251468
34.666123 4.672051 13.705589
35.126069 1.327514 14.687942
34.55558 1.394839 14.262139
34.76619 2.946845 14.251468
35.356673 -0.223876 15.277268
35.126069 1.327514 14.687942
35.694771 -1.930391 15.347422
35.253557 -1.931007 14.768769
35.356673 -0.223876 15.277268
35.846537 -3.64814 15.537755
35.694771 -1.930391 15.347422
35.949652 -1.941007 16.046254
36.577065 -3.688166 16.774499
36.603977 -2.023022 16.482945
37.079624 -2.052432 17.020855
36.842621 -11.11727 19.292501
36.168152 -11.082441 19.06832
37.08149 -9.807552 18.602288
37.562485 -11.006712 19.694631
36.649147 -12.281601 20.160663
36.842621 -11.11727 19.292501
38.330744 -11.08209 19.758164
37.562485 -11.006712 19.694631
38.155268 -12.218749 20.768681
38.330744 -11.08209 19.758164
28.389117 22.226609 -10.033575
27.516931 21.330725 -10.097563
28.587519 23.09697 -9.631677
29.500127 23.619239 -9.321886
27.868492 21.588077 -8.582242
28.389117 22.226609 -10.033575
28.587519 23.09697 -9.631677
28.342107 22.009015 -5.684553
28.599785 22.618377 -6.830756
28.595019 23.604742 -6.459839
28.977016 24.139084 -3.559842
29.319946 25.055952 -3.183522
29.394 22.385947 -2.957789
29.130797 23.15948 -3.983648
28.977016 24.139084 -3.559842
30.114361 28.089194 2.919974
29.791432 27.095337 4.132886
29.574951 27.513395 2.16519
30.114361 28.089194 2.919974
29.347991 25.86793 2.414172
29.533244 26.831423 1.294542
29.574951 27.513395 2.16519
30.161092 23.619518 7.623006
30.768828 23.804322 8.361002
30.033271 23.196385 6.683658
30.161092 23.619518 7.623006
30.144564 21.778735 7.429631
29.805107 22.681455 5.751559
29.821635 24.522238 5.944935
30.033271 23.196385 6.683658
39.38736 -23.532042 -1.755312
39.946867 -23.149462 -2.7115
38.070452 -23.349241 -1.950661
40.621437 -23.951572 -1.707827
39.38736 -23.532042 -1.755312
38.745022 -24.15135 -0.946989
41.853481 -23.605784 -1.173508
40.621437 -23.951572 -1.707827
41.157061 -24.349036 -0.464193
39.311552 -24.986449 -0.025502
40.489514 -24.764606 0.409809
41.853481 -23.605784 -1.173508
41.157061 -24.349036 -0.464193
40.605375 -25.285448 4.027393
38.939821 -26.378163 4.448323
39.882671 -25.577647 5.004887
41.29813 -24.876049 3.181018
40.605375 -25.285448 4.027393
41.967888 -24.476154 2.253801
40.332283 -25.68607 2.543613
41.29813 -24.876049 3.181018
42.653782 -23.921009 1.503432
41.967888 -24.476154 2.253801
40.869488 -17.783074 21.7238
40.980295 -16.435666 21.890884
39.561575 -19.151351 21.595069
40.869488 -17.783074 21.7238
38.314368 -20.608443 21.38934
38.535294 -19.285519 21.829994
39.561575 -19.151351 21.595069
37.012487 -22.084422 21.291801
38.314368 -20.608443 21.38934
35.762226 -23.583959 20.851765
36.037824 -22.242148 21.184231
37.012487 -22.084422 21.291801
34.528793 -25.162242 20.820586
35.762226 -23.583959 20.851765
33.499731 -26.665731 20.225795
33.758501 -25.245175 20.149406
34.528793 -25.162242 20.820586
32.909927 -28.108946 19.464934
33.499731 -26.665731 20.225795
32.625927 -27.93119 18.491499
32.909927 -28.108946 19.464934
34.511215 -30.497272 15.693702
33.615322 -29.525676 16.136899
35.811008 -30.501067 14.170567
34.511215 -30.497272 15.693702
36.270897 -29.589571 13.666424
35.811008 -30.501067 14.170567
33.798254 1.757806 -18.536659
33.075495 2.584494 -16.889248
33.104969 2.9658 -17.951659
33.817196 2.334728 -21.923744
34.07818 2.6369 -20.641365
33.93963 1.481291 -20.872447
33.817196 2.334728 -21.923744
33.798254 1.757806 -18.536659
33.93963 1.481291 -20.872447
40.248083 -21.780929 -4.435357
38.800984 -22.277808 -3.747818
40.077058 -22.469782 -3.594388
40.370649 -20.999189 -5.276092
40.248083 -21.780929 -4.435357
40.492859 -20.207318 -6.081017
39.094217 -20.797083 -5.393712
40.370649 -20.999189 -5.276092
40.580561 -19.433561 -6.888149
40.492859 -20.207318 -6.081017
40.700888 -18.625532 -7.644134
39.336754 -19.197181 -6.954622
40.580561 -19.433561 -6.888149
40.867193 -17.799405 -8.453802
40.700888 -18.625532 -7.644134
40.977608 -16.954866 -9.190401
39.567495 -17.544612 -8.447205
40.867193 -17.799405 -8.453802
41.140554 -16.071655 -9.99514
40.977608 -16.954866 -9.190401
3 0 86 84
3 1 339 341
3 339 88 340
3 339 340 341
3 2 91 89
3 343 342 92
3 344 95 345
3 346 92 347
3 348 347 95
3 346 347 348
3 3 99 97
3 350 349 100
3 352 351 102
3 4 107 105
3 6 110 108
3 6 353 355
3 355 354 110
3 353 354 355
3 7 113 111
3 9 116 114
3 9 118 116
3 10 121 119
3 10 123 121
3 11 126 124
3 13 129 127
3 13 131 129
3 5 134 132
3 14 137 135
3 16 140 138
3 16 142 140
3 17 148 146
3 17 150 148
3 18 153 151
3 18 155 153
3 18 157 155
3 14 160 158
3 14 135 160
3 15 164 162
3 20 167 165
3 20 169 167
3 8 172 170
3 12 176 174
3 356 178 357
3 359 358 178
3 19 182 180
3 21 185 183
3 23 186 85
3 23 187 186
3 360 189 361
3 25 362 364
3 362 190 363
3 362 363 364
3 25 191 190
3 26 192 87
3 26 193 192
3 27 196 194
3 29 197 90
3 29 198 197
3 366 365 199
3 30 203 201
3 367 204 368
3 369 368 93
3 367 368 369
3 370 205 371
3 372 371 204
3 370 371 372
3 373 206 374
3 375 207 376
3 377 376 206
3 375 376 377
3 33 378 380
3 378 209 379
3 378 379 380
3 35 210 94
3 35 211 210
3 35 213 211
3 30 214 96
3 30 201 214
3 37 217 215
3 39 218 98
3 39 219 218
3 40 222 220
3 382 381 101
3 42 224 223
3 384 383 103
3 43 227 225
3 385 228 386
3 387 386 104
3 385 386 387
3 389 388 228
3 45 231 229
3 47 232 106
3 47 233 232
3 22 234 184
3 48 235 109
3 48 236 235
3 48 237 236
3 49 240 238
3 51 241 112
3 51 242 241
3 24 243 188
3 52 244 115
3 52 245 244
3 52 246 245
3 390 247 391
3 392 391 117
3 390 391 392
3 393 248 394
3 395 394 247
3 393 394 395
3 53 396 398
3 398 397 120
3 396 397 398
3 53 399 401
3 399 249 400
3 399 400 401
3 53 250 249
3 54 251 122
3 54 252 251
3 55 255 253
3 57 256 125
3 57 257 256
3 28 258 195
3 58 259 128
3 58 260 259
3 58 261 260
3 59 262 130
3 59 402 404
3 404 403 262
3 402 403 404
3 46 263 230
3 60 264 133
3 60 265 264
3 405 266 406
3 407 406 200
3 405 406 407
3 408 267 409
3 410 268 411
3 412 411 267
3 410 411 412
3 413 269 414
3 415 414 268
3 413 414 415
3 61 272 270
3 63 273 136
3 63 274 273
3 31 275 202
3 64 276 139
3 64 277 276
3 64 278 277
3 65 279 141
3 65 280 279
3 416 281 417
3 66 282 143
3 66 283 282
3 66 284 283
3 418 285 419
3 420 419 144
3 418 419 420
3 422 421 285
3 423 286 424
3 425 287 426
3 427 426 286
3 425 426 427
3 67 288 145
3 67 289 288
3 32 428 430
3 428 290 429
3 428 429 430
3 68 291 147
3 68 292 291
3 68 293 292
3 69 294 149
3 69 295 294
3 70 431 433
3 431 296 432
3 431 432 433
3 70 297 296
3 34 298 208
3 71 299 152
3 71 300 299
3 71 301 300
3 72 302 154
3 72 303 302
3 72 304 303
3 73 305 156
3 73 306 305
3 36 307 212
3 74 308 159
3 74 309 308
3 74 310 309
3 61 311 161
3 61 270 311
3 62 313 271
3 76 314 163
3 76 315 314
3 38 316 216
3 77 317 166
3 77 318 317
3 77 319 318
3 78 434 436
3 436 435 168
3 434 435 436
3 78 437 438
3 50 320 239
3 79 321 171
3 79 322 321
3 41 323 221
3 80 324 173
3 80 325 324
3 80 326 325
3 56 327 254
3 81 328 175
3 81 329 328
3 44 330 226
3 82 331 177
3 82 332 331
3 82 333 332
3 439 334 440
3 441 440 179
3 439 440 441
3 442 335 443
3 444 443 334
3 442 443 444
3 75 336 312
3 83 337 181
3 83 338 337
3 84 85 21
3 86 85 84
3 86 23 85
3 445 25 446
3 447 87 448
3 88 449 451
3 449 87 450
3 449 450 451
3 88 26 87
3 89 90 27
3 91 90 89
3 91 29 90
3 92 93 30
3 452 93 453
3 454 453 92
3 452 453 454
3 456 455 93
3 457 94 458
3 459 458 33
3 457 458 459
3 95 460 462
3 460 94 461
3 460 461 462
3 95 35 94
3 95 96 35
3 92 96 95
3 92 30 96
3 97 98 37
3 99 98 97
3 99 39 98
3 100 101 40
3 463 101 464
3 465 464 100
3 463 464 465
3 467 466 101
3 102 103 42
3 468 103 469
3 470 469 102
3 468 469 470
3 472 471 103
3 473 104 474
3 475 474 43
3 473 474 475
3 476 104 477
3 479 478 104
3 105 106 45
3 107 106 105
3 107 47 106
3 108 109 22
3 110 109 108
3 110 48 109
3 110 480 482
3 482 481 48
3 480 481 482
3 484 483 110
3 111 112 49
3 113 112 111
3 113 51 112
3 114 115 24
3 116 115 114
3 116 52 115
3 116 117 52
3 118 117 116
3 118 485 487
3 487 486 117
3 485 486 487
3 119 488 490
3 488 120 489
3 488 489 490
3 121 120 119
3 121 53 120
3 121 122 53
3 123 122 121
3 123 54 122
3 124 125 55
3 126 125 124
3 126 57 125
3 127 128 28
3 129 128 127
3 129 58 128
3 129 130 58
3 131 130 129
3 131 59 130
3 132 133 46
3 134 133 132
3 134 60 133
3 135 136 61
3 137 136 135
3 137 63 136
3 138 139 31
3 140 139 138
3 140 64 139
3 140 141 64
3 142 141 140
3 142 65 141
3 491 143 492
3 493 143 494
3 495 66 496
3 497 496 143
3 495 496 497
3 498 144 499
3 500 499 66
3 498 499 500
3 501 144 502
3 504 503 144
3 505 145 506
3 507 145 508
3 509 67 510
3 511 510 145
3 509 510 511
3 146 147 32
3 148 147 146
3 148 68 147
3 148 149 68
3 150 149 148
3 150 69 149
3 512 70 513
3 151 152 34
3 153 152 151
3 153 71 152
3 153 154 71
3 155 154 153
3 155 72 154
3 155 156 72
3 157 156 155
3 157 73 156
3 158 159 36
3 160 159 158
3 160 74 159
3 160 161 74
3 135 161 160
3 135 61 161
3 162 163 62
3 164 163 162
3 164 76 163
3 165 166 38
3 167 166 165
3 167 77 166
3 167 168 77
3 169 168 167
3 169 78 168
3 170 171 50
3 172 171 170
3 172 79 171
3 514 173 515
3 516 515 41
3 514 515 516
3 517 173 518
3 519 80 520
3 521 520 173
3 519 520 521
3 523 522 80
3 174 175 56
3 176 175 174
3 176 81 175
3 524 177 525
3 526 525 44
3 524 525 526
3 178 527 529
3 527 177 528
3 527 528 529
3 178 82 177
3 178 179 82
3 530 179 531
3 532 531 178
3 530 531 532
3 534 533 179
3 180 181 75
3 182 181 180
3 182 83 181
3 183 184 4
3 185 184 183
3 185 22 184
3 85 185 21
3 186 185 85
3 186 22 185
3 186 108 22
3 187 108 186
3 187 6 108
3 535 188 536
3 537 536 7
3 535 536 537
3 189 538 540
3 538 188 539
3 538 539 540
3 189 24 188
3 541 189 542
3 190 543 545
3 543 189 544
3 543 544 545
3 190 24 189
3 190 114 24
3 191 114 190
3 191 9 114
3 87 546 547
3 192 548 550
3 550 549 87
3 548 549 550
3 192 551 552
3 192 553 555
3 553 119 554
3 553 554 555
3 193 119 192
3 193 10 119
3 194 195 11
3 196 195 194
3 196 28 195
3 90 196 27
3 197 196 90
3 197 28 196
3 197 127 28
3 198 127 197
3 198 13 127
3 199 200 5
3 556 200 557
3 558 557 199
3 556 557 558
3 560 559 200
3 201 202 14
3 203 202 201
3 203 31 202
3 93 203 30
3 204 203 93
3 204 31 203
3 204 138 31
3 205 138 204
3 205 16 138
3 561 32 562
3 206 563 564
3 206 565 567
3 565 32 566
3 565 566 567
3 206 146 32
3 207 146 206
3 207 17 146
3 568 208 569
3 209 570 572
3 570 208 571
3 570 571 572
3 209 34 208
3 94 209 33
3 210 209 94
3 210 34 209
3 210 151 34
3 211 151 210
3 211 18 151
3 211 212 18
3 213 212 211
3 213 36 212
3 96 213 35
3 214 213 96
3 214 36 213
3 214 158 36
3 201 158 214
3 201 14 158
3 215 216 15
3 217 216 215
3 217 38 216
3 98 217 37
3 218 217 98
3 218 38 217
3 218 165 38
3 219 165 218
3 219 20 165
3 220 221 8
3 222 221 220
3 222 41 221
3 101 222 40
3 573 222 574
3 575 574 101
3 573 574 575
3 576 41 577
3 578 577 222
3 576 577 578
3 580 579 41
3 223 581 582
3 224 583 585
3 585 584 223
3 583 584 585
3 224 586 587
3 103 224 42
3 588 224 589
3 590 589 103
3 588 589 590
3 592 591 224
3 225 226 12
3 227 226 225
3 227 44 226
3 104 227 43
3 228 227 104
3 228 44 227
3 228 593 595
3 595 594 44
3 593 594 595
3 597 596 228
3 599 598 19
3 229 230 2
3 231 230 229
3 231 46 230
3 106 231 45
3 232 231 106
3 232 46 231
3 232 132 46
3 233 132 232
3 233 5 132
3 184 107 4
3 234 107 184
3 234 47 107
3 109 234 22
3 235 234 109
3 235 47 234
3 235 233 47
3 236 233 235
3 236 5 233
3 236 199 5
3 237 199 236
3 237 600 602
3 602 601 199
3 600 601 602
3 603 237 604
3 605 604 48
3 603 604 605
3 606 237 607
3 609 608 237
3 610 33 611
3 612 33 613
3 615 614 33
3 238 239 3
3 240 239 238
3 240 50 239
3 112 240 49
3 241 240 112
3 241 50 240
3 241 170 50
3 242 170 241
3 242 8 170
3 188 113 7
3 243 113 188
3 243 51 113
3 115 243 24
3 244 243 115
3 244 51 243
3 244 242 51
3 245 242 244
3 245 8 242
3 245 220 8
3 246 220 245
3 246 40 220
3 117 246 52
3 247 246 117
3 247 40 246
3 247 100 40
3 248 100 247
3 248 616 618
3 618 617 100
3 616 617 618
3 120 619 620
3 622 621 120
3 249 623 624
3 249 625 626
3 249 627 629
3 627 223 628
3 627 628 629
3 250 223 249
3 250 42 223
3 122 250 53
3 251 250 122
3 251 42 250
3 251 102 42
3 252 102 251
3 252 630 632
3 632 631 102
3 630 631 632
3 253 254 1
3 255 254 253
3 255 56 254
3 125 255 55
3 256 255 125
3 256 56 255
3 256 174 56
3 257 174 256
3 257 12 174
3 195 126 11
3 258 126 195
3 258 57 126
3 128 258 28
3 259 258 128
3 259 57 258
3 259 257 57
3 260 257 259
3 260 12 257
3 260 225 12
3 261 225 260
3 261 43 225
3 130 261 58
3 262 261 130
3 262 43 261
3 262 633 635
3 635 634 43
3 633 634 635
3 637 636 262
3 230 91 2
3 263 91 230
3 263 29 91
3 133 263 46
3 264 263 133
3 264 29 263
3 264 198 29
3 265 198 264
3 265 13 198
3 200 134 5
3 266 134 200
3 266 60 134
3 638 266 639
3 267 640 642
3 640 266 641
3 640 641 642
3 267 60 266
3 267 265 60
3 268 265 267
3 268 13 265
3 268 131 13
3 269 131 268
3 269 59 131
3 643 269 644
3 645 269 646
3 647 59 648
3 649 648 269
3 647 648 649
3 651 650 59
3 270 271 0
3 272 271 270
3 272 62 271
3 136 272 61
3 273 272 136
3 273 62 272
3 273 162 62
3 274 162 273
3 274 15 162
3 202 137 14
3 275 137 202
3 275 63 137
3 139 275 31
3 276 275 139
3 276 63 275
3 276 274 63
3 277 274 276
3 277 15 274
3 277 215 15
3 278 215 277
3 278 37 215
3 141 278 64
3 279 278 141
3 279 37 278
3 279 97 37
3 280 97 279
3 280 3 97
3 652 205 653
3 654 205 655
3 656 16 657
3 658 657 205
3 656 657 658
3 659 16 660
3 661 142 662
3 663 662 16
3 661 662 663
3 281 664 666
3 664 142 665
3 664 665 666
3 281 65 142
3 143 667 669
3 667 281 668
3 667 668 669
3 282 281 143
3 282 65 281
3 282 280 65
3 283 280 282
3 283 3 280
3 283 238 3
3 284 238 283
3 284 49 238
3 144 284 66
3 285 284 144
3 285 49 284
3 285 111 49
3 670 111 671
3 672 671 285
3 670 671 672
3 673 7 674
3 675 674 111
3 673 674 675
3 676 7 677
3 679 678 7
3 680 1 681
3 286 682 683
3 286 684 686
3 684 1 685
3 684 685 686
3 286 253 1
3 287 253 286
3 287 55 253
3 145 687 689
3 687 287 688
3 687 688 689
3 288 287 145
3 288 55 287
3 288 124 55
3 289 124 288
3 289 11 124
3 290 690 691
3 290 692 694
3 692 67 693
3 692 693 694
3 147 290 32
3 291 290 147
3 291 67 290
3 291 289 67
3 292 289 291
3 292 11 289
3 292 194 11
3 293 194 292
3 293 27 194
3 149 293 68
3 294 293 149
3 294 27 293
3 294 89 27
3 295 89 294
3 295 2 89
3 296 695 696
3 296 697 698
3 296 699 701
3 699 207 700
3 699 700 701
3 297 207 296
3 297 17 207
3 208 702 703
3 298 704 706
3 706 705 208
3 704 705 706
3 298 707 709
3 707 70 708
3 707 708 709
3 152 298 34
3 299 298 152
3 299 70 298
3 299 297 70
3 300 297 299
3 300 17 297
3 300 150 17
3 301 150 300
3 301 69 150
3 154 301 71
3 302 301 154
3 302 69 301
3 302 295 69
3 303 295 302
3 303 2 295
3 303 229 2
3 304 229 303
3 304 45 229
3 156 304 72
3 305 304 156
3 305 45 304
3 305 105 45
3 306 105 305
3 306 4 105
3 212 157 18
3 307 157 212
3 307 73 157
3 159 307 36
3 308 307 159
3 308 73 307
3 308 306 73
3 309 306 308
3 309 4 306
3 309 183 4
3 310 183 309
3 310 21 183
3 161 310 74
3 311 310 161
3 311 21 310
3 311 84 21
3 270 84 311
3 270 0 84
3 271 312 0
3 313 312 271
3 313 75 312
3 163 313 62
3 314 313 163
3 314 75 313
3 314 180 75
3 315 180 314
3 315 19 180
3 216 164 15
3 316 164 216
3 316 76 164
3 166 316 38
3 317 316 166
3 317 76 316
3 317 315 76
3 318 315 317
3 318 19 315
3 318 710 712
3 712 711 19
3 710 711 712
3 319 713 715
3 715 714 318
3 713 714 715
3 319 716 717
3 168 319 77
3 718 319 719
3 720 719 168
3 718 719 720
3 722 721 319
3 239 99 3
3 320 99 239
3 320 39 99
3 171 320 50
3 321 320 171
3 321 39 320
3 321 219 39
3 322 219 321
3 322 20 219
3 221 172 8
3 323 172 221
3 323 79 172
3 173 323 41
3 324 323 173
3 324 79 323
3 324 322 79
3 325 322 324
3 325 20 322
3 325 169 20
3 326 169 325
3 326 78 169
3 723 326 724
3 725 724 80
3 723 724 725
3 726 326 727
3 728 78 729
3 730 729 326
3 728 729 730
3 732 731 78
3 733 25 734
3 735 25 736
3 737 191 738
3 739 738 25
3 737 738 739
3 740 191 741
3 742 9 743
3 744 743 191
3 742 743 744
3 745 9 746
3 747 118 748
3 749 748 9
3 747 748 749
3 750 118 751
3 753 752 118
3 754 248 755
3 756 248 757
3 759 758 248
3 254 88 1
3 327 88 254
3 327 26 88
3 175 327 56
3 328 327 175
3 328 26 327
3 328 193 26
3 329 193 328
3 329 10 193
3 226 176 12
3 330 176 226
3 330 81 176
3 177 330 44
3 331 330 177
3 331 81 330
3 331 329 81
3 332 329 331
3 332 10 329
3 332 123 10
3 333 123 332
3 333 54 123
3 179 333 82
3 334 333 179
3 334 54 333
3 334 252 54
3 335 252 334
3 335 760 762
3 762 761 252
3 760 761 762
3 763 335 764
3 765 335 766
3 768 767 335
3 312 86 0
3 336 86 312
3 336 23 86
3 181 336 75
3 337 336 181
3 337 23 336
3 337 187 23
3 338 187 337
3 338 6 187
3 769 182 770
3 771 770 19
3 769 770 771
3 772 182 773
3 774 83 775
3 776 775 182
3 774 775 776
3 777 83 778
3 779 338 780
3 781 780 83
3 779 780 781
3 782 338 783
3 784 6 785
3 786 785 338
3 784 785 786
3 788 787 6
