ply
format ascii 1.0
element vertex 450
property float x
property float y
property float z
element face 478
property list uchar int vertex_index
end_header
7.188937 56.350758 -10.928152
5.464002 33.989296 -21.724279
10.321595 14.639826 -16.572701
6.892338 20.982344 -13.370844
7.077578 45.952354 -16.809587
8.762087 42.806091 -20.754354
7.090416 30.010288 -24.341557
6.698389 1.296168 -10.648562
5.399967 17.276627 -21.216257
11.18086 21.10931 -15.445384
6.838099 62.678093 -7.446486
8.989766 55.42276 -4.638281
11.396982 50.111393 -8.512766
10.628734 45.264954 -12.085709
7.966302 51.366402 -14.214073
9.072016 48.325127 -20.637333
5.533392 26.681355 -17.942659
6.62318 20.041058 -17.661413
4.476878 25.713068 -23.517899
5.241596 23.464329 -25.515015
4.362687 32.132572 -26.111988
10.86459 5.988641 -14.663248
13.577243 5.755097 -14.754209
6.230219 56.658863 -17.725309
7.897255 27.138809 -14.240202
5.485424 34.024837 -16.647404
8.294917 39.717537 -14.784831
6.128155 40.357647 -19.674503
5.534717 50.591831 -20.487614
4.973102 45.099144 -22.014971
4.680457 39.398701 -24.603062
7.858774 37.08865 -22.620502
12.374718 34.481667 -18.55699
11.035445 28.450836 -18.135845
7.457227 13.660306 -10.742586
7.564851 11.652743 -13.48842
8.379488 8.882819 -14.918859
7.52738 15.508287 -21.209393
8.297449 22.578047 -21.79356
6.688409 59.294563 -9.132227
8.832225 59.806347 -5.905683
9.614665 56.356518 -7.850319
10.189734 52.606438 -6.289548
9.820325 53.514717 -10.002401
9.362786 51.114262 -11.603834
7.652769 53.872101 -12.560137
3.977631 2.963841 -6.522731
5.537584 6.565652 -6.885068
6.570859 30.219349 -19.732925
5.837429 26.556934 -20.808891
4.853947 30.089634 -23.034882
4.04431 28.909519 -25.458019
4.237978 33.290047 -24.486725
10.435072 10.610041 -16.04295
12.218946 6.034332 -14.747877
11.760419 10.322163 -15.381328
8.343641 30.199688 -13.84746
5.713829 30.42547 -15.694392
6.030969 33.829445 -14.91879
8.091536 45.993225 -14.577528
9.586245 42.568245 -13.671618
8.001602 43.066917 -16.032101
7.797781 40.058674 -17.176781
6.675941 43.12199 -18.18429
6.775411 55.953602 -20.113234
6.091496 53.718819 -19.371656
6.333982 53.070301 -21.247879
8.953547 45.524006 -20.373272
6.046619 46.839573 -21.991461
5.860577 44.278019 -22.933674
4.727109 42.543762 -23.486439
5.649213 41.519295 -24.06534
5.567691 38.337555 -24.929127
8.246448 40.077507 -21.673023
7.25294 17.789661 -12.105475
5.897327 18.845209 -19.667896
7.174833 16.165567 -15.639819
6.637319 15.079761 -17.236031
7.772591 10.354208 -14.439891
6.81179 13.696118 -18.292885
7.866469 12.574066 -18.388885
6.140386 16.186598 -21.838013
5.667903 26.563858 -25.884735
6.474266 22.552259 -24.796486
7.727376 26.20068 -23.130013
9.606066 25.868338 -19.687258
9.387998 29.478552 -20.749592
10.468275 18.245848 -16.279554
11.562145 14.305102 -14.872122
11.20706 47.715599 -10.344604
8.585553 48.658531 -13.060349
7.651462 48.548584 -15.591748
8.974787 51.48576 -21.152943
11.180008 41.412552 -19.577618
6.239247 2.898973 -9.296571
6.174016 23.58275 -16.111691
7.017128 20.680605 -15.388596
6.322618 23.543125 -18.34107
5.496568 22.86372 -20.99762
4.570196 21.57102 -23.152088
4.972344 20.425375 -24.234055
4.388097 24.446512 -25.320017
4.537591 27.608969 -26.237305
5.133145 30.874836 -26.390768
11.334913 1.588045 -12.987038
12.742286 -1.378442 -13.189003
6.033868 61.996746 -10.385254
5.768665 59.266289 -12.505371
6.309841 56.767006 -14.220335
6.071037 58.880974 -15.722609
7.551348 24.375422 -11.878833
7.451643 23.96731 -14.090899
5.932748 26.953608 -16.079401
5.37648 30.256104 -17.5581
6.982705 33.926624 -18.734243
6.982364 40.413399 -13.286385
5.700781 37.380573 -14.338054
6.775567 36.990814 -15.781433
7.208237 37.10656 -18.191189
5.751932 37.26038 -20.813421
6.953758 54.187599 -16.060711
6.54959 51.164379 -17.597012
5.927559 48.265705 -18.455067
6.296879 49.633026 -21.577061
5.241771 47.662952 -21.01441
5.363113 45.72839 -19.399803
4.885686 43.127445 -21.056879
4.514398 40.167637 -22.640659
4.401575 36.916996 -23.847
4.569835 35.928001 -25.563148
5.404895 34.733696 -25.876419
7.485074 33.622517 -23.597557
10.758703 38.719074 -19.58827
10.248242 35.974659 -19.993826
9.802335 32.860817 -20.373672
11.66895 31.658142 -18.337646
6.680346 9.450212 -9.078448
6.985382 7.925649 -10.180345
7.462686 17.093222 -13.797958
7.552302 12.708878 -12.246017
7.31907 6.273083 -11.302726
7.809371 5.033328 -12.350467
8.662755 3.803946 -12.942932
9.987 2.597948 -13.143001
9.42697 7.312232 -15.005582
9.163492 11.805414 -17.390842
9.070899 15.390592 -19.072796
5.991888 19.327045 -24.065556
7.55916 18.889538 -22.594555
9.19104 19.023212 -19.285925
9.89024 22.325418 -18.173458
11.021948 25.04015 -16.971233
4.682377 5.61045 -6.069415
3.893164 3.4705 -5.739807
4.59791 6.117109 -5.286492
5.462353 7.411355 -6.250584
4.757607 4.764747 -6.7039
4.682377 5.61045 -6.069415
8.596024 31.883642 -13.623019
8.852227 30.149786 -12.651946
9.10461 31.83374 -12.427504
7.439688 33.698521 -14.158683
7.187305 32.014567 -14.383125
8.596024 31.883642 -13.623019
7.604205 53.755483 -21.201794
6.554697 54.511951 -20.680557
7.82492 55.197134 -20.634471
5.976388 -0.311311 -12.311881
5.87479 -0.118968 -11.210043
6.907563 0.914918 -11.478736
5.976388 -0.311311 -12.311881
7.072639 19.386003 -12.73816
6.953601 18.045707 -11.321644
6.7733 19.642048 -11.954328
11.565521 19.442574 -14.712371
11.209229 18.010842 -15.129456
10.824568 19.677579 -15.862469
7.42171 62.70042 -5.812342
7.473928 63.761612 -6.578659
8.635333 56.938923 -3.983273
8.556563 59.130717 -4.616974
8.910995 57.614553 -5.271982
9.166742 55.184738 -3.666745
8.635333 56.938923 -3.983273
8.576548 53.713665 -4.421471
9.166742 55.184738 -3.666745
9.706957 49.877419 -7.369006
9.103333 51.124941 -6.257397
10.793358 51.358915 -7.401157
9.998891 48.741827 -8.356799
9.706957 49.877419 -7.369006
11.302021 48.913496 -9.428685
9.903931 47.54393 -9.272718
9.998891 48.741827 -8.356799
5.992252 3.854922 -8.734686
5.686646 1.168295 -9.385206
5.439651 2.124244 -8.823321
11.774547 3.97831 -13.841352
12.009709 1.778012 -13.003248
11.099751 3.788343 -13.825143
13.874957 3.841133 -13.860038
13.195809 3.980751 -13.856872
12.898094 5.894715 -14.751043
14.620906 3.807411 -13.851933
13.874957 3.841133 -13.860038
12.417791 12.066678 -15.033338
12.430591 13.946013 -14.448449
6.287928 61.348543 -11.974354
6.767095 62.36854 -10.748021
6.155327 59.983314 -13.034413
5.901267 60.631518 -11.445312
6.287928 61.348543 -11.974354
6.306513 59.790657 -14.643031
5.919851 59.073632 -14.11399
6.155327 59.983314 -13.034413
7.724302 25.757115 -13.059518
7.945963 25.796332 -11.804686
8.118917 27.178026 -12.985371
13.546019 -2.854253 -13.472662
13.479224 -1.283268 -12.912961
9.624751 43.932438 -11.872559
9.832798 45.148453 -11.003854
11.935917 39.14002 -19.829095
10.969356 40.065813 -19.582944
12.14657 40.486759 -19.823769
11.31148 35.228163 -19.275408
11.585993 36.5091 -19.560741
12.649231 35.762604 -18.842323
7.068786 11.555259 -9.910517
6.807583 11.996764 -9.227343
7.196024 14.10181 -10.059412
11.87041 27.83259 -17.282288
11.863661 26.127247 -16.699981
11.028696 26.745493 -17.553539
12.19774 20.836692 -14.597375
11.859509 22.352296 -15.223893
3.682128 1.168007 -6.429051
3.893164 3.4705 -5.739807
3.944573 0.510648 -7.300285
3.682128 1.168007 -6.429051
4.338782 2.070922 -7.125678
3.944573 0.510648 -7.300285
5.118759 3.871828 -7.306847
4.338782 2.070922 -7.125678
4.757607 4.764747 -6.7039
5.64142 5.688261 -7.528934
5.222595 2.994438 -7.950712
5.118759 3.871828 -7.306847
8.34211 28.708465 -12.788999
8.852227 30.149786 -12.651946
8.120448 28.669248 -14.043831
8.118917 27.178026 -12.985371
8.34211 28.708465 -12.788999
13.333559 34.653759 -19.318055
12.649231 35.762604 -18.842323
13.289209 33.504237 -18.578041
13.333559 34.653759 -19.318055
7.093881 16.166488 -10.740856
6.953601 18.045707 -11.321644
7.355083 15.724984 -11.424031
7.196024 14.10181 -10.059412
7.093881 16.166488 -10.740856
11.756163 16.04047 -14.425739
11.01521 16.275475 -15.575838
11.209229 18.010842 -15.129456
12.430591 13.946013 -14.448449
11.756163 16.04047 -14.425739
11.565521 19.442574 -14.712371
12.19774 20.836692 -14.597375
8.418774 61.264548 -5.04194
7.42171 62.70042 -5.812342
7.835162 61.24222 -6.676084
8.418774 61.264548 -5.04194
8.556563 59.130717 -4.616974
9.176531 52.305504 -5.247104
8.576548 53.713665 -4.421471
9.58975 54.014599 -5.463914
9.176531 52.305504 -5.247104
9.103333 51.124941 -6.257397
10.121961 46.373775 -10.133302
9.903931 47.54393 -9.272718
10.917897 46.490277 -11.215156
9.832798 45.148453 -11.003854
10.121961 46.373775 -10.133302
10.0712 51.669251 -21.689442
8.924608 52.963213 -21.154325
10.058235 50.264641 -21.965519
10.0712 51.669251 -21.689442
10.106849 48.684325 -21.707714
9.023401 49.905444 -20.895138
10.058235 50.264641 -21.965519
10.225624 47.449974 -21.109499
10.106849 48.684325 -21.707714
10.16639 46.049413 -20.977469
9.012781 46.924566 -20.505302
10.225624 47.449974 -21.109499
10.24861 44.771918 -20.228714
10.16639 46.049413 -20.977469
10.15288 43.41296 -20.419255
8.857817 44.165048 -20.563813
10.24861 44.771918 -20.228714
11.36184 42.71619 -19.830887
9.971048 42.109322 -20.165986
10.15288 43.41296 -20.419255
11.94982 41.631208 -20.632653
11.36184 42.71619 -19.830887
12.14657 40.486759 -19.823769
11.94982 41.631208 -20.632653
5.645219 0.682435 -10.534047
5.686646 1.168295 -9.385206
6.468818 2.09757 -9.972566
5.87479 -0.118968 -11.210043
5.645219 0.682435 -10.534047
12.0386 0.104801 -13.08802
11.937034 -1.421841 -13.517739
11.233348 0.061402 -13.416756
12.713395 0.294768 -13.10423
12.0386 0.104801 -13.08802
12.009709 1.778012 -13.003248
13.479224 -1.283268 -12.912961
12.713395 0.294768 -13.10423
12.451725 4.001156 -13.883667
11.774547 3.97831 -13.841352
11.541768 6.011487 -14.705562
12.451725 4.001156 -13.883667
13.195809 3.980751 -13.856872
12.516929 10.075208 -15.287941
11.661282 12.313633 -15.126725
12.417791 12.066678 -15.033338
13.425341 7.791675 -14.974382
12.668831 8.03863 -15.067768
12.516929 10.075208 -15.287941
14.390359 5.58303 -14.743408
13.425341 7.791675 -14.974382
14.620906 3.807411 -13.851933
14.390359 5.58303 -14.743408
7.092083 63.438648 -8.093791
7.473928 63.761612 -6.578659
6.689967 63.097974 -9.563175
6.767095 62.36854 -10.748021
6.435983 62.337419 -8.91587
7.092083 63.438648 -8.093791
6.689967 63.097974 -9.563175
6.969027 59.055273 -16.133771
6.306513 59.790657 -14.643031
6.628493 58.496055 -17.232193
6.969027 59.055273 -16.133771
6.708085 57.385 -18.233543
6.150628 57.769919 -16.723959
6.628493 58.496055 -17.232193
6.980681 57.03237 -19.427505
6.502815 56.306232 -18.919272
6.708085 57.385 -18.233543
7.964677 56.345703 -20.028774
6.980681 57.03237 -19.427505
7.82492 55.197134 -20.634471
7.964677 56.345703 -20.028774
6.795027 21.214319 -12.451624
6.7733 19.642048 -11.954328
6.83088 24.739268 -11.112767
7.945963 25.796332 -11.804686
6.726796 23.238278 -10.882663
6.83088 24.739268 -11.112767
7.124532 22.910857 -11.705618
6.726796 23.238278 -10.882663
7.07468 22.706802 -12.811651
7.124532 22.910857 -11.705618
7.501495 24.171366 -12.984866
7.17199 22.474827 -13.730871
6.795027 21.214319 -12.451624
7.07468 22.706802 -12.811651
12.636661 -2.729257 -13.919031
11.937034 -1.421841 -13.517739
12.636661 -2.729257 -13.919031
13.546019 -2.854253 -13.472662
9.103507 42.584083 -12.665514
9.624751 43.932438 -11.872559
10.107489 43.9166 -12.878664
7.801566 41.50666 -12.472897
9.103507 42.584083 -12.665514
8.284304 41.490822 -13.479001
7.425304 40.22698 -12.384996
7.801566 41.50666 -12.472897
7.748214 38.678318 -13.013706
7.425304 40.22698 -12.384996
7.107423 37.161905 -13.539541
7.748214 38.678318 -13.013706
6.341572 38.896986 -13.812219
7.274594 35.474085 -13.868315
7.107423 37.161905 -13.539541
5.865875 35.605009 -14.628422
7.439688 33.698521 -14.158683
7.274594 35.474085 -13.868315
7.654384 52.27803 -21.200411
7.604205 53.755483 -21.201794
8.924608 52.963213 -21.154325
11.841223 37.881307 -19.357962
11.935917 39.14002 -19.829095
10.503473 37.346867 -19.791048
11.841223 37.881307 -19.357962
11.585993 36.5091 -19.560741
12.936325 32.092474 -18.468369
12.021834 33.069904 -18.447318
13.289209 33.504237 -18.578041
12.587826 30.828074 -17.894796
12.936325 32.092474 -18.468369
12.271073 29.224421 -17.793895
11.352197 30.054489 -18.236745
12.587826 30.828074 -17.894796
11.87041 27.83259 -17.282288
12.271073 29.224421 -17.793895
5.65768 9.327087 -6.812399
5.462353 7.411355 -6.250584
5.953696 8.733422 -7.407392
5.65768 9.327087 -6.812399
5.64142 5.688261 -7.528934
5.953696 8.733422 -7.407392
6.525076 10.175702 -8.504082
6.807583 11.996764 -9.227343
6.212801 7.130541 -8.625624
6.525076 10.175702 -8.504082
6.459796 6.174593 -9.18751
5.992252 3.854922 -8.734686
6.212801 7.130541 -8.625624
7.217903 3.403376 -11.805818
6.907563 0.914918 -11.478736
7.008729 3.784625 -10.975644
7.463054 2.783498 -12.329688
7.217903 3.403376 -11.805818
7.56422 5.653206 -11.826597
7.967824 2.443366 -12.921882
7.463054 2.783498 -12.329688
8.394516 1.828674 -13.218115
7.967824 2.443366 -12.921882
8.236063 4.418637 -12.6467
9.119114 1.549863 -13.387643
8.394516 1.828674 -13.218115
9.781236 0.946864 -13.487678
9.119114 1.549863 -13.387643
9.324877 3.200947 -13.042967
10.559392 0.566354 -13.494737
9.781236 0.946864 -13.487678
10.660957 2.092996 -13.06502
11.233348 0.061402 -13.416756
10.559392 0.566354 -13.494737
11.780054 24.317716 -15.986818
11.859509 22.352296 -15.223893
11.101404 23.07473 -16.208309
11.780054 24.317716 -15.986818
11.863661 26.127247 -16.699981
3 0 41 39
3 0 43 41
3 0 45 43
3 152 46 153
3 152 153 154
3 155 47 156
3 157 156 46
3 155 156 157
3 1 50 48
3 1 52 50
3 2 55 53
3 158 56 159
3 158 159 160
3 161 58 162
3 163 162 56
3 161 162 163
3 4 61 59
3 4 63 61
3 164 66 165
3 166 165 64
3 164 165 166
3 5 69 67
3 5 71 69
3 5 73 71
3 7 167 168
3 7 169 170
3 3 171 173
3 171 74 172
3 171 172 173
3 8 77 75
3 8 79 77
3 8 81 79
3 6 84 82
3 6 86 84
3 9 174 176
3 176 175 87
3 174 175 176
3 10 177 178
3 11 179 181
3 181 180 40
3 179 180 181
3 11 182 183
3 11 184 185
3 12 186 188
3 188 187 42
3 186 187 188
3 12 189 190
3 12 191 193
3 191 89 192
3 191 192 193
3 14 90 44
3 14 91 90
3 194 94 195
3 194 195 196
3 16 97 95
3 18 98 49
3 18 99 98
3 18 101 99
3 20 102 51
3 20 103 102
3 21 197 199
3 199 198 104
3 197 198 199
3 22 200 202
3 202 201 54
3 200 201 202
3 22 203 204
3 206 205 88
3 207 106 208
3 209 107 210
3 211 210 106
3 209 210 211
3 212 109 213
3 214 213 107
3 212 213 214
3 24 215 217
3 215 110 216
3 215 216 217
3 24 111 110
3 24 112 111
3 25 113 57
3 25 114 113
3 219 218 105
3 13 220 221
3 26 115 60
3 26 116 115
3 26 117 116
3 27 118 62
3 27 119 118
3 23 120 108
3 28 121 65
3 28 122 121
3 15 123 92
3 29 124 68
3 29 125 124
3 29 126 125
3 30 127 70
3 30 128 127
3 30 129 128
3 31 130 72
3 31 131 130
3 222 132 223
3 224 223 93
3 222 223 224
3 32 225 227
3 225 133 226
3 225 226 227
3 32 134 133
3 32 135 134
3 34 228 230
3 228 136 229
3 228 229 230
3 34 137 136
3 17 138 96
3 35 139 76
3 35 140 139
3 35 141 140
3 36 142 78
3 36 143 142
3 36 144 143
3 37 145 80
3 37 146 145
3 19 147 100
3 38 148 83
3 38 149 148
3 38 150 149
3 33 151 85
3 33 231 233
3 233 232 151
3 231 232 233
3 235 234 9
3 39 40 10
3 41 40 39
3 41 11 40
3 41 42 11
3 43 42 41
3 43 12 42
3 43 44 12
3 45 44 43
3 45 14 44
3 46 236 237
3 46 238 239
3 46 240 241
3 47 242 244
3 244 243 46
3 242 243 244
3 47 245 247
3 245 246 247
3 48 49 16
3 50 49 48
3 50 18 49
3 50 51 18
3 52 51 50
3 52 20 51
3 53 54 21
3 55 54 53
3 55 22 54
3 56 248 249
3 56 250 252
3 250 24 251
3 250 251 252
3 56 57 24
3 58 57 56
3 58 25 57
3 59 60 13
3 61 60 59
3 61 26 60
3 61 62 26
3 63 62 61
3 63 27 62
3 64 65 23
3 66 65 64
3 66 28 65
3 67 68 15
3 69 68 67
3 69 29 68
3 69 70 29
3 71 70 69
3 71 30 70
3 71 72 30
3 73 72 71
3 73 31 72
3 253 32 254
3 256 255 32
3 74 257 258
3 74 259 261
3 259 34 260
3 259 260 261
3 75 76 17
3 77 76 75
3 77 35 76
3 77 78 35
3 79 78 77
3 79 36 78
3 79 80 36
3 81 80 79
3 81 37 80
3 82 83 19
3 84 83 82
3 84 38 83
3 84 85 38
3 86 85 84
3 86 33 85
3 87 88 2
3 262 88 263
3 264 263 87
3 262 263 264
3 266 265 88
3 268 267 9
3 40 269 271
3 271 270 10
3 269 270 271
3 273 272 40
3 42 274 276
3 276 275 11
3 274 275 276
3 278 277 42
3 89 279 280
3 89 281 283
3 281 13 282
3 281 282 283
3 44 89 12
3 90 89 44
3 90 13 89
3 90 59 13
3 91 59 90
3 91 4 59
3 284 92 285
3 286 92 287
3 288 15 289
3 290 289 92
3 288 289 290
3 291 15 292
3 293 67 294
3 295 294 15
3 293 294 295
3 296 67 297
3 298 5 299
3 300 299 67
3 298 299 300
3 301 93 302
3 303 302 5
3 301 302 303
3 304 93 305
3 307 306 93
3 94 308 309
3 94 310 312
3 310 7 311
3 310 311 312
3 95 96 3
3 97 96 95
3 97 17 96
3 49 97 16
3 98 97 49
3 98 17 97
3 98 75 17
3 99 75 98
3 99 8 75
3 99 100 8
3 101 100 99
3 101 19 100
3 51 101 18
3 102 101 51
3 102 19 101
3 102 82 19
3 103 82 102
3 103 6 82
3 104 313 315
3 313 105 314
3 313 314 315
3 316 105 317
3 318 317 104
3 316 317 318
3 320 319 105
3 54 321 323
3 323 322 21
3 321 322 323
3 325 324 54
3 88 55 2
3 326 55 327
3 328 327 88
3 326 327 328
3 329 22 330
3 331 330 55
3 329 330 331
3 332 22 333
3 335 334 22
3 336 10 337
3 106 338 339
3 106 340 342
3 340 10 341
3 340 341 342
3 106 39 10
3 107 39 106
3 107 0 39
3 107 108 0
3 109 108 107
3 109 23 108
3 343 109 344
3 345 109 346
3 347 23 348
3 349 348 109
3 347 348 349
3 350 64 351
3 352 351 23
3 350 351 352
3 353 64 354
3 356 355 64
3 357 3 358
3 110 359 360
3 110 361 362
3 110 363 364
3 111 365 367
3 367 366 110
3 365 366 367
3 111 368 370
3 368 3 369
3 368 369 370
3 111 95 3
3 112 95 111
3 112 16 95
3 57 112 24
3 113 112 57
3 113 16 112
3 113 48 16
3 114 48 113
3 114 1 48
3 105 371 372
3 374 373 105
3 60 375 377
3 377 376 13
3 375 376 377
3 115 378 380
3 380 379 60
3 378 379 380
3 115 381 382
3 115 383 384
3 116 385 387
3 387 386 115
3 385 386 387
3 116 388 389
3 116 390 392
3 390 58 391
3 390 391 392
3 117 58 116
3 117 25 58
3 62 117 26
3 118 117 62
3 118 25 117
3 118 114 25
3 119 114 118
3 119 1 114
3 108 45 0
3 120 45 108
3 120 14 45
3 65 120 23
3 121 120 65
3 121 14 120
3 121 91 14
3 122 91 121
3 122 4 91
3 92 393 395
3 393 66 394
3 393 394 395
3 123 66 92
3 123 28 66
3 68 123 15
3 124 123 68
3 124 28 123
3 124 122 28
3 125 122 124
3 125 4 122
3 125 63 4
3 126 63 125
3 126 27 63
3 70 126 29
3 127 126 70
3 127 27 126
3 127 119 27
3 128 119 127
3 128 1 119
3 128 52 1
3 129 52 128
3 129 20 52
3 72 129 30
3 130 129 72
3 130 20 129
3 130 103 20
3 131 103 130
3 131 6 103
3 93 73 5
3 132 73 93
3 132 31 73
3 396 132 397
3 133 398 400
3 398 132 399
3 398 399 400
3 133 31 132
3 133 131 31
3 134 131 133
3 134 6 131
3 134 86 6
3 135 86 134
3 135 33 86
3 401 135 402
3 403 402 32
3 401 402 403
3 404 135 405
3 406 33 407
3 408 407 135
3 406 407 408
3 410 409 33
3 411 47 412
3 413 47 414
3 416 415 47
3 136 417 418
3 136 419 420
3 136 421 423
3 421 94 422
3 421 422 423
3 137 94 136
3 137 7 94
3 96 74 3
3 138 74 96
3 138 34 74
3 76 138 17
3 139 138 76
3 139 34 138
3 139 137 34
3 140 137 139
3 140 7 137
3 140 424 426
3 426 425 7
3 424 425 426
3 141 427 429
3 429 428 140
3 427 428 429
3 141 430 431
3 78 141 35
3 142 141 78
3 142 432 434
3 434 433 141
3 432 433 434
3 142 435 436
3 143 437 439
3 439 438 142
3 437 438 439
3 143 440 441
3 143 442 444
3 442 104 443
3 442 443 444
3 144 104 143
3 144 21 104
3 80 144 36
3 145 144 80
3 145 21 144
3 145 53 21
3 146 53 145
3 146 2 53
3 100 81 8
3 147 81 100
3 147 37 81
3 83 147 19
3 148 147 83
3 148 37 147
3 148 146 37
3 149 146 148
3 149 2 146
3 149 87 2
3 150 87 149
3 150 9 87
3 85 150 38
3 151 150 85
3 151 9 150
3 151 445 447
3 447 446 9
3 445 446 447
3 449 448 151
