ply
format ascii 1.0
element vertex 559
property float x
property float y
property float z
element face 680
property list uchar int vertex_index
end_header
3.023768 -33.548767 65.385971
8.053519 -9.088896 65.811821
8.11939 -26.83263 49.849087
7.454965 -39.161076 60.482628
11.01602 -35.252949 52.60783
7.082922 -30.401142 56.993004
7.630838 -40.330959 70.268639
5.442293 -25.949726 72.709213
5.656686 -21.254053 66.930786
17.308121 -42.978802 48.781555
16.827049 -33.013077 44.380013
15.181745 -23.188187 44.570572
6.228053 -18.673248 58.734779
6.636966 -15.288655 50.796516
12.664023 -10.809328 47.181431
4.251626 -38.099537 62.478699
4.705538 -35.902863 57.851357
5.317163 -32.088043 61.590199
2.798186 -34.979935 69.249008
4.362988 -39.615528 72.39669
3.981369 -39.868202 67.048233
7.419711 -40.118843 65.117233
7.378785 -19.898296 71.694557
16.471128 -42.794014 53.568604
9.089613 -31.452627 50.926369
14.131447 -33.88525 48.752892
13.156494 -29.713562 47.875862
16.100018 -28.221069 43.903084
12.362117 -25.112522 47.77491
4.834252 -14.746068 66.411438
6.200343 -19.565067 63.153687
5.862614 -13.74085 62.568226
5.714422 -10.15917 55.078026
10.181572 -13.186102 49.67622
12.528541 -38.747398 59.778278
14.008367 -38.003601 55.729431
8.478331 -37.017609 56.404663
5.471026 -33.674839 53.567677
5.657956 -28.593273 52.940418
9.047506 -6.709792 62.400452
8.519397 -39.225037 75.062134
12.407103 -39.466904 64.050568
3.173887 -29.397146 69.45752
4.410014 -27.239346 66.33918
4.966739 -23.403507 70.260933
5.801723 -16.914289 69.251488
7.519353 -11.081141 68.515137
17.197769 -42.094883 43.891281
16.144051 -37.943466 51.497627
17.893019 -37.95771 46.756645
18.277908 -37.250271 41.541748
17.875273 -31.949741 39.624752
17.089008 -26.441624 39.430111
15.989978 -20.899603 40.72514
5.901457 -25.844818 62.300529
7.29443 -24.617811 57.943287
6.768761 -23.190599 54.182056
7.426966 -12.436743 58.107666
4.967446 -17.496407 54.295948
7.880935 -21.232418 50.640617
11.199038 -19.264517 48.251934
13.512354 -17.07336 45.123329
14.406202 -14.354887 42.104809
3.801281 -35.92477 64.106911
4.686882 -35.26931 62.009819
3.986497 -32.779312 63.508667
2.516461 -34.280018 67.516296
2.800666 -37.829811 68.236893
3.238815 -37.151161 65.923729
4.143373 -39.056236 64.662567
8.531757 -29.186157 50.33783
11.220255 -30.534231 49.491497
10.803388 -28.222469 49.220558
12.805791 -27.452076 47.786037
10.379827 -25.958317 48.943748
6.418632 -11.983731 66.163506
5.092627 -14.205917 64.436447
7.206695 -11.466281 64.250664
9.987507 -38.684731 60.102623
10.598501 -37.83622 58.141979
7.841397 -38.117096 58.415974
5.853395 -33.205204 57.38039
4.904597 -34.659096 55.7187
5.532309 -32.024315 55.195374
5.317296 -31.090698 53.11972
6.313505 -29.501547 54.795288
5.649796 -40.642662 71.504539
6.174304 -39.571037 74.105682
7.745511 -40.016285 72.951065
9.894773 -39.53611 69.268295
7.451379 -39.758121 62.626484
9.745137 -39.426277 64.545403
9.896858 -39.160767 62.219341
12.531555 -39.147972 61.922791
4.041415 -27.568335 71.34758
4.036204 -26.391565 70.071175
5.076699 -24.631905 71.70182
8.166025 -16.992847 69.964821
6.63989 -18.318836 70.416229
7.22049 -15.220779 69.401497
6.347278 -13.833842 68.88929
4.977887 -28.362061 72.070206
3.721928 -30.127014 70.783203
17.456079 -42.739506 46.249615
12.480148 -36.436138 54.180992
15.074626 -37.846691 53.638222
13.852335 -36.099106 52.107231
15.576085 -33.456146 46.633476
16.487974 -35.645363 47.862434
17.470306 -35.356422 45.547596
18.39185 -37.702702 44.141914
18.168776 -34.962074 43.036182
18.196165 -34.570641 40.519524
17.759933 -32.546032 41.992401
15.652548 -25.798895 44.02079
16.914928 -27.385508 41.636444
16.446949 -24.807926 41.985359
16.525358 -23.7073 40.022606
15.966888 -22.084652 42.611919
5.099489 -24.489681 66.859924
5.167719 -26.553772 64.28334
5.868736 -23.779148 65.061783
6.402808 -19.120884 61.027424
7.664338 -22.061899 61.049927
7.852567 -21.47711 58.687305
6.975611 -23.947079 55.94231
7.140212 -20.74074 56.374176
8.572713 -9.506188 60.254017
8.11704 -8.790935 58.49337
5.479324 -12.641908 52.861732
5.144118 -13.984697 54.142384
5.255841 -16.469641 52.058006
5.8502 -19.501635 52.096058
6.912442 -18.543758 50.249847
9.510626 -20.220282 49.402718
8.619528 -17.410892 49.207836
11.678999 -12.010616 48.60677
11.773182 -15.159747 47.235203
12.976572 -13.982466 46.050488
14.220505 -15.716845 43.572323
13.695529 -12.615732 44.657021
5.214864 -39.217354 61.177788
5.365904 -38.280113 58.797447
4.481194 -37.222904 60.133373
5.434013 -34.387131 59.753857
6.616569 -31.336056 59.472618
3.699888 -35.704117 70.008545
4.233966 -38.062275 72.082741
3.118184 -38.172504 70.488358
3.884625 -40.12727 69.770218
5.558572 -40.822906 68.576195
7.4942 -40.390514 67.65551
5.503798 -40.457085 65.985214
5.388893 -39.915791 63.468773
6.53096 -22.923315 72.780807
16.971821 -42.987747 51.204296
9.918894 -33.539993 51.609364
12.589125 -34.492531 50.746067
11.794291 -32.614807 49.931133
13.478777 -31.939388 47.922169
14.997685 -31.299259 45.800007
16.324524 -30.696182 43.741375
14.850054 -28.96492 45.974102
14.404782 -26.645838 46.003105
13.955763 -24.242985 46.242004
4.868504 -17.900877 66.621674
6.006277 -20.257126 65.231537
4.639122 -17.284761 64.610001
4.847692 -16.697073 62.700512
5.189653 -16.201431 60.693806
5.968885 -8.953373 53.92234
6.877619 -11.795161 52.020561
8.346254 -14.263446 50.241596
8.453199 -10.884916 51.412971
14.564374 -40.164337 59.197975
15.048793 -40.108841 56.952148
13.178772 -38.353989 57.73988
11.311493 -36.981445 56.24419
9.574774 -36.134159 54.416931
5.743011 -37.059513 56.651581
6.573066 -35.929939 54.641418
8.123601 -34.727718 52.957909
7.030881 -32.645901 52.000359
6.437722 -30.193619 51.438946
6.317373 -27.64245 51.251759
8.717275 -7.970211 64.00071
9.827993 -39.526398 66.904701
12.375842 -39.782799 66.117966
14.34949 -40.618896 61.308266
2.769986 -31.326059 67.215492
3.537805 -30.230942 65.60643
3.551524 -28.28923 67.889297
4.521725 -25.404026 68.496033
5.218678 -22.473984 68.530037
6.036922 -21.590044 71.348
5.663028 -20.246815 69.709206
5.248289 -18.89349 68.211975
5.123814 -15.764921 67.897301
5.988189 -12.762002 67.76326
7.546694 -10.024508 67.309517
8.960454 -8.491136 68.546219
9.03062 -7.272847 67.392914
3.695169 -32.78854 70.013977
2.802032 -32.026546 69.155052
16.254234 -41.283318 41.881645
15.710258 -40.219109 54.739063
16.441387 -40.377216 52.563408
17.232487 -40.509716 50.307762
15.195096 -35.867851 50.053581
17.088705 -37.969837 49.172443
17.948971 -40.535156 47.777546
18.274418 -40.33503 45.226646
18.040123 -39.830051 42.710846
17.144644 -38.980782 40.633675
17.337894 -36.511341 39.490303
17.248878 -33.945034 38.44796
16.928629 -31.204712 37.545177
17.24576 -29.972479 41.526062
17.406832 -29.246006 39.198235
16.62009 -28.290197 37.399311
15.707173 -22.597082 38.457771
4.71849 -29.552746 63.80674
6.043762 -28.853333 61.919628
7.0295 -28.140829 59.674122
6.873602 -22.972549 63.154808
6.87605 -25.163647 60.273094
7.222895 -27.343988 57.3036
6.421359 -26.649143 55.270775
6.013097 -25.914988 53.502296
6.595413 -25.076509 51.784416
8.229886 -10.494484 62.18058
6.98961 -13.194461 60.497948
5.778896 -15.58324 58.5401
6.52585 -11.507054 56.179451
5.698049 -15.057994 56.181232
5.566641 -18.091816 56.577557
6.052471 -20.20731 54.371967
6.962412 -22.21665 52.300621
8.090915 -24.130878 50.300812
10.088962 -23.164583 49.419048
11.924847 -22.212683 48.233494
13.464844 -21.257063 46.808231
10.283976 -16.257267 48.255798
12.506952 -18.277122 46.761253
14.607988 -20.149372 45.035965
15.205597 -18.916336 43.129921
15.239367 -17.644377 41.342743
8.855408 -39.915056 70.91969
8.912745 -39.757719 72.260903
7.688174 -40.173622 71.609852
8.762806 -39.933535 69.768467
9.987376 -39.517632 70.419517
8.855408 -39.915056 70.91969
8.009733 -14.625974 69.105397
7.693257 -16.106813 69.683159
8.482501 -15.512007 69.387058
7.646839 -13.842448 69.13776
8.009733 -14.625974 69.105397
5.21009 -27.155893 72.38971
5.840569 -27.541746 72.571427
6.072773 -26.335578 72.89093
16.762484 -43.839205 48.058819
16.813822 -43.994065 49.206655
17.3821 -42.859154 47.515585
16.836464 -43.719557 46.792848
16.762484 -43.839205 48.058819
8.243942 -6.907418 59.14873
8.406928 -7.230705 59.797935
12.941199 -10.373152 46.325777
13.456952 -11.276353 45.063572
13.179776 -11.71253 45.919226
16.324535 -43.938144 52.809286
16.139739 -43.868061 54.035069
16.721474 -42.89088 52.38645
16.574882 -44.035011 51.627133
16.324535 -43.938144 52.809286
6.566296 -8.46798 53.425125
6.959942 -7.204105 54.552351
7.020663 -9.888875 52.474235
6.423252 -10.374267 52.971451
6.566296 -8.46798 53.425125
7.808453 -9.433752 52.17044
7.665409 -11.340039 51.716766
7.020663 -9.888875 52.474235
4.937335 -38.88323 73.371159
4.872825 -38.106603 73.214184
4.298477 -38.838901 72.239716
7.926825 -38.584656 75.384178
6.754279 -38.757656 74.905952
7.346851 -39.398037 74.583908
9.255343 -38.831929 75.630638
7.926825 -38.584656 75.384178
9.940556 -39.655781 75.257343
10.676502 -39.262673 75.825847
9.255343 -38.831929 75.630638
13.09786 -40.696852 64.586644
13.08223 -40.854799 65.620342
12.391472 -39.624851 65.084267
13.234371 -40.379455 63.690586
13.09786 -40.696852 64.586644
9.727491 -7.093928 68.649982
9.901849 -7.838344 68.803368
9.762574 -6.484783 68.07333
8.995537 -7.881991 67.969566
9.727491 -7.093928 68.649982
9.507252 -5.659459 67.669213
9.762574 -6.484783 68.07333
4.283734 -31.844944 70.389106
4.259106 -33.268402 69.807026
16.006079 -42.549862 43.616823
16.435464 -43.044047 44.542295
16.726002 -41.689101 42.886463
15.534312 -42.14408 42.612005
16.006079 -42.549862 43.616823
16.657192 -25.92519 38.574754
16.422733 -26.849477 37.559354
16.854549 -27.36591 38.414711
15.617327 -20.323045 39.960288
15.475924 -21.171785 38.826603
15.848575 -21.748342 39.591456
6.120136 -10.833112 55.628738
6.935227 -9.666208 56.660881
6.529513 -8.992266 56.110169
14.465153 -15.341529 40.990919
14.881735 -16.986274 40.609886
14.822785 -15.999632 41.723776
14.146112 -13.919818 41.331124
14.465153 -15.341529 40.990919
16.213403 -42.670693 54.722332
16.139739 -43.868061 54.035069
9.066097 -39.854222 73.3844
9.45304 -39.458597 74.439934
8.132454 -39.620661 74.006599
9.066097 -39.854222 73.3844
8.912745 -39.757719 72.260903
11.193058 -39.916578 69.750419
9.987376 -39.517632 70.419517
11.16596 -39.760031 68.714599
11.193058 -39.916578 69.750419
7.210233 -13.148979 68.881656
6.783884 -14.527311 69.145394
7.646839 -13.842448 69.13776
7.79627 -11.772629 68.69458
6.933315 -12.457491 68.702213
7.210233 -13.148979 68.881656
5.621652 -28.747208 71.827118
5.840569 -27.541746 72.571427
4.925094 -29.631704 71.417221
5.621652 -28.747208 71.827118
4.349908 -29.244537 71.426704
4.297114 -30.514181 70.773719
4.925094 -29.631704 71.417221
16.564619 -43.366358 45.721463
16.836464 -43.719557 46.792848
17.326924 -42.417195 45.070448
16.435464 -43.044047 44.542295
16.564619 -43.366358 45.721463
8.634764 -7.588331 60.678259
8.810109 -8.10799 61.327235
8.87216 -6.190133 61.751476
8.344876 -9.148561 59.373694
8.634764 -7.588331 60.678259
8.406928 -7.230705 59.797935
13.744149 -12.177164 43.848931
14.099485 -13.046741 42.572825
14.050866 -13.485309 43.380915
13.744149 -12.177164 43.848931
13.456952 -11.276353 45.063572
3.966927 -36.883196 71.045643
4.653239 -37.433765 71.083675
4.386201 -36.254686 70.046577
6.891573 -23.631553 73.191833
5.986626 -24.436521 72.74501
6.34724 -25.144759 73.156036
7.357154 -22.186429 72.909667
6.891573 -23.631553 73.191833
7.781066 -20.673919 72.366543
6.954873 -21.410805 72.237682
7.357154 -22.186429 72.909667
8.202961 -19.309307 71.4566
7.781066 -20.673919 72.366543
8.596581 -17.856583 70.591732
7.772405 -18.445571 70.829689
8.202961 -19.309307 71.4566
8.832026 -16.530537 69.415405
8.596581 -17.856583 70.591732
9.262581 -17.394272 70.042316
8.482501 -15.512007 69.387058
8.832026 -16.530537 69.415405
6.34724 -25.144759 73.156036
6.072773 -26.335578 72.89093
16.645672 -43.998537 50.418026
16.574882 -44.035011 51.627133
17.139971 -42.983275 49.992925
16.813822 -43.994065 49.206655
16.645672 -43.998537 50.418026
6.404523 -8.38299 55.645224
6.529513 -8.992266 56.110169
6.531754 -7.780091 55.06738
6.959942 -7.204105 54.552351
5.841653 -9.556271 54.500183
6.404523 -8.38299 55.645224
6.531754 -7.780091 55.06738
8.490913 -9.079871 51.564079
7.808453 -9.433752 52.17044
9.20831 -10.338004 50.948734
8.490913 -9.079871 51.564079
10.072497 -11.488597 50.080359
9.317386 -12.035509 50.544595
9.20831 -10.338004 50.948734
10.82121 -10.900854 49.545633
10.930286 -12.598359 49.141495
10.072497 -11.488597 50.080359
11.371763 -10.441695 48.8396
10.82121 -10.900854 49.545633
11.864275 -9.841051 48.126931
12.171511 -11.409972 47.894101
11.371763 -10.441695 48.8396
12.272944 -9.508897 47.425305
11.864275 -9.841051 48.126931
14.806584 -40.136589 58.075062
15.234402 -41.252292 57.593283
14.992193 -41.28004 58.716196
8.983725 -6.931795 65.004971
8.385397 -8.529554 64.906265
8.651846 -7.491138 65.910527
8.72312 -6.094373 64.427689
8.983725 -6.931795 65.004971
8.888236 -5.464164 63.62756
8.88239 -7.340001 63.200581
8.72312 -6.094373 64.427689
8.458795 -4.924993 63.121289
8.888236 -5.464164 63.62756
8.87216 -6.190133 61.751476
8.458795 -4.924993 63.121289
5.136528 -37.640486 72.513714
4.653239 -37.433765 71.083675
5.136528 -37.640486 72.513714
4.872825 -38.106603 73.214184
5.842994 -38.860985 74.225654
4.937335 -38.88323 73.371159
5.268646 -39.593283 73.251186
5.842994 -38.860985 74.225654
6.754279 -38.757656 74.905952
9.940556 -39.655781 75.257343
9.45304 -39.458597 74.439934
11.13257 -39.755175 67.532803
11.16596 -39.760031 68.714599
9.861383 -39.531254 68.086498
12.406495 -39.883375 67.139435
11.13257 -39.755175 67.532803
11.101917 -39.654598 66.511334
12.953271 -41.125229 66.531155
12.406495 -39.883375 67.139435
12.953271 -41.125229 66.531155
13.08223 -40.854799 65.620342
13.296596 -40.219989 62.626698
13.234371 -40.379455 63.690586
12.469329 -39.307438 62.986679
14.205564 -40.955451 62.319435
13.296596 -40.219989 62.626698
13.440523 -39.883434 61.615528
14.347727 -42.164005 61.741627
14.205564 -40.955451 62.319435
14.619432 -41.798542 60.791487
14.347727 -42.164005 61.741627
14.726874 -41.571263 59.736341
14.619432 -41.798542 60.791487
14.456932 -40.391616 60.253121
14.992193 -41.28004 58.716196
14.726874 -41.571263 59.736341
8.360015 -10.465746 68.589562
7.79627 -11.772629 68.69458
9.080566 -9.170744 68.605102
9.901849 -7.838344 68.803368
8.239904 -9.786138 68.530678
8.360015 -10.465746 68.589562
9.080566 -9.170744 68.605102
9.140397 -6.583113 66.701073
8.651846 -7.491138 65.910527
8.54207 -8.180872 66.602367
9.140397 -6.583113 66.701073
9.507252 -5.659459 67.669213
4.261465 -34.726191 69.80431
4.386201 -36.254686 70.046577
4.947777 -35.27676 69.842343
3.697528 -34.246328 70.011261
4.261465 -34.726191 69.80431
4.259106 -33.268402 69.807026
3.708549 -31.457777 70.39859
4.283734 -31.844944 70.389106
4.297114 -30.514181 70.773719
14.87456 -41.553444 42.012886
15.534312 -42.14408 42.612005
15.530526 -40.674223 41.222008
14.150852 -40.944349 41.353248
14.87456 -41.553444 42.012886
15.502236 -41.328106 56.414104
15.234402 -41.252292 57.593283
15.832968 -41.38324 55.307562
15.502236 -41.328106 56.414104
15.379525 -40.163975 55.845606
16.090693 -41.506562 54.153834
16.213403 -42.670693 54.722332
15.832968 -41.38324 55.307562
15.975731 -39.522955 40.598022
15.530526 -40.674223 41.222008
16.699439 -40.13205 41.25766
16.326935 -38.46113 39.966339
15.975731 -39.522955 40.598022
16.423561 -37.22641 39.394653
16.326935 -38.46113 39.966339
17.241269 -37.746061 40.061989
16.415295 -36.053488 38.929018
16.423561 -37.22641 39.394653
16.370787 -34.770334 38.407847
16.415295 -36.053488 38.929018
17.293386 -35.228188 38.969132
16.278757 -33.462105 37.90119
16.370787 -34.770334 38.407847
16.118632 -32.091944 37.449798
16.278757 -33.462105 37.90119
17.088754 -32.574873 37.996569
15.986176 -30.710851 37.075258
16.118632 -32.091944 37.449798
15.831907 -29.253594 37.002325
15.986176 -30.710851 37.075258
16.77436 -29.747454 37.472244
15.739828 -27.814046 36.960194
15.831907 -29.253594 37.002325
15.739828 -27.814046 36.960194
16.422733 -26.849477 37.559354
16.375367 -24.558028 38.871002
16.657192 -25.92519 38.574754
16.807183 -25.074462 39.726359
15.966275 -24.002919 38.088584
16.375367 -24.558028 38.871002
16.116266 -23.152191 39.240189
15.121008 -23.504255 37.698002
15.966275 -24.002919 38.088584
14.949617 -22.062788 38.086537
15.121008 -23.504255 37.698002
14.949617 -22.062788 38.086537
15.475924 -21.171785 38.826603
7.730822 -8.308149 57.817841
8.243942 -6.907418 59.14873
7.321445 -10.148995 57.33641
7.730822 -8.308149 57.817841
6.935227 -9.666208 56.660881
15.242021 -18.695432 40.269089
15.617327 -20.323045 39.960288
15.614673 -19.27199 41.033941
15.242021 -18.695432 40.269089
14.881735 -16.986274 40.609886
14.146112 -13.919818 41.331124
14.099485 -13.046741 42.572825
12.55012 -9.072721 46.569651
12.941199 -10.373152 46.325777
12.272944 -9.508897 47.425305
3 0 65 63
3 0 68 66
3 0 63 68
3 2 72 70
3 2 74 72
3 1 77 75
3 3 80 78
3 5 83 81
3 5 85 83
3 6 88 86
3 6 247 249
3 249 248 88
3 247 248 249
3 6 250 252
3 250 89 251
3 250 251 252
3 3 92 90
3 3 78 92
3 7 96 94
3 253 99 254
3 255 254 97
3 253 254 255
3 257 256 99
3 7 258 260
3 258 101 259
3 258 259 260
3 7 94 101
3 9 261 262
3 9 263 265
3 263 103 264
3 263 264 265
3 4 106 104
3 10 109 107
3 10 111 109
3 10 113 111
3 11 116 114
3 11 118 116
3 8 121 119
3 12 124 122
3 12 126 124
3 266 128 267
3 13 131 129
3 13 133 131
3 13 135 133
3 14 138 136
3 14 140 138
3 14 268 270
3 270 269 140
3 268 269 270
3 15 143 141
3 17 144 64
3 17 145 144
3 18 148 146
3 20 149 67
3 20 150 149
3 20 152 150
3 15 153 69
3 15 141 153
3 23 271 272
3 23 273 275
3 273 155 274
3 273 274 275
3 24 158 156
3 26 159 71
3 26 160 159
3 26 162 160
3 28 163 73
3 28 164 163
3 29 167 165
3 31 168 76
3 31 169 168
3 276 170 277
3 278 171 279
3 280 279 170
3 278 279 280
3 281 173 282
3 283 282 171
3 281 282 283
3 34 176 174
3 36 177 79
3 36 178 177
3 16 179 142
3 37 180 82
3 37 181 180
3 37 182 181
3 38 183 84
3 38 184 183
3 19 284 286
3 286 285 147
3 284 285 286
3 40 287 289
3 289 288 87
3 287 288 289
3 40 290 291
3 40 292 294
3 292 293 294
3 21 186 151
3 41 187 91
3 41 295 297
3 297 296 187
3 295 296 297
3 41 298 299
3 34 188 93
3 34 174 188
3 42 191 189
3 44 192 95
3 44 193 192
3 22 194 154
3 45 195 98
3 45 196 195
3 45 197 196
3 46 198 100
3 46 199 198
3 300 200 301
3 302 201 303
3 304 303 200
3 302 303 304
3 306 305 201
3 307 202 308
3 42 203 102
3 42 189 203
3 47 309 310
3 47 311 313
3 311 204 312
3 311 312 313
3 35 205 175
3 48 206 105
3 48 207 206
3 25 208 157
3 49 209 108
3 49 210 209
3 49 211 210
3 50 212 110
3 50 213 212
3 50 214 213
3 51 215 112
3 51 216 215
3 27 217 161
3 52 218 115
3 52 219 218
3 52 314 316
3 316 315 219
3 314 315 316
3 53 220 117
3 53 317 319
3 319 318 220
3 317 318 319
3 43 221 190
3 54 222 120
3 54 223 222
3 30 224 166
3 55 225 123
3 55 226 225
3 55 227 226
3 56 228 125
3 56 229 228
3 39 230 185
3 57 231 127
3 57 232 231
3 32 320 322
3 320 233 321
3 320 321 322
3 58 234 130
3 58 235 234
3 58 236 235
3 59 237 132
3 59 238 237
3 59 239 238
3 60 240 134
3 60 241 240
3 33 242 172
3 61 243 137
3 61 244 243
3 61 245 244
3 62 246 139
3 62 323 325
3 325 324 246
3 323 324 325
3 62 326 327
3 63 64 15
3 65 64 63
3 65 17 64
3 66 67 18
3 68 67 66
3 68 20 67
3 68 69 20
3 63 69 68
3 63 15 69
3 328 23 329
3 70 71 24
3 72 71 70
3 72 26 71
3 72 73 26
3 74 73 72
3 74 28 73
3 75 76 29
3 77 76 75
3 77 31 76
3 78 79 34
3 80 79 78
3 80 36 79
3 81 82 16
3 83 82 81
3 83 37 82
3 83 84 37
3 85 84 83
3 85 38 84
3 86 87 19
3 88 87 86
3 88 40 87
3 88 330 332
3 332 331 40
3 330 331 332
3 334 333 88
3 89 335 336
3 89 337 338
3 90 91 21
3 92 91 90
3 92 41 91
3 92 93 41
3 78 93 92
3 78 34 93
3 94 95 42
3 96 95 94
3 96 44 95
3 97 98 22
3 99 98 97
3 99 45 98
3 99 100 45
3 339 100 340
3 341 340 99
3 339 340 341
3 342 46 343
3 344 343 100
3 342 343 344
3 101 345 346
3 101 347 348
3 101 349 351
3 349 102 350
3 349 350 351
3 94 102 101
3 94 42 102
3 103 352 353
3 103 354 356
3 354 47 355
3 354 355 356
3 104 105 35
3 106 105 104
3 106 48 105
3 107 108 25
3 109 108 107
3 109 49 108
3 109 110 49
3 111 110 109
3 111 50 110
3 111 112 50
3 113 112 111
3 113 51 112
3 114 115 27
3 116 115 114
3 116 52 115
3 116 117 52
3 118 117 116
3 118 53 117
3 119 120 43
3 121 120 119
3 121 54 120
3 122 123 30
3 124 123 122
3 124 55 123
3 124 125 55
3 126 125 124
3 126 56 125
3 357 127 358
3 359 358 39
3 357 358 359
3 128 360 362
3 360 127 361
3 360 361 362
3 128 57 127
3 129 130 32
3 131 130 129
3 131 58 130
3 131 132 58
3 133 132 131
3 133 59 132
3 133 134 59
3 135 134 133
3 135 60 134
3 136 137 33
3 138 137 136
3 138 61 137
3 138 139 61
3 140 139 138
3 140 62 139
3 140 363 365
3 365 364 62
3 363 364 365
3 367 366 140
3 141 142 3
3 143 142 141
3 143 16 142
3 64 143 15
3 144 143 64
3 144 16 143
3 144 81 16
3 145 81 144
3 145 5 81
3 146 368 370
3 368 147 369
3 368 369 370
3 148 147 146
3 148 19 147
3 67 148 18
3 149 148 67
3 149 19 148
3 149 86 19
3 150 86 149
3 150 6 86
3 150 151 6
3 152 151 150
3 152 21 151
3 69 152 20
3 153 152 69
3 153 21 152
3 153 90 21
3 141 90 153
3 141 3 90
3 371 154 372
3 373 372 7
3 371 372 373
3 374 154 375
3 376 22 377
3 378 377 154
3 376 377 378
3 379 22 380
3 381 97 382
3 383 382 22
3 381 382 383
3 384 97 385
3 384 385 386
3 388 387 97
3 389 7 390
3 155 391 392
3 155 393 395
3 393 9 394
3 393 394 395
3 156 157 4
3 158 157 156
3 158 25 157
3 71 158 24
3 159 158 71
3 159 25 158
3 159 107 25
3 160 107 159
3 160 10 107
3 160 161 10
3 162 161 160
3 162 27 161
3 73 162 26
3 163 162 73
3 163 27 162
3 163 114 27
3 164 114 163
3 164 11 114
3 165 166 8
3 167 166 165
3 167 30 166
3 76 167 29
3 168 167 76
3 168 30 167
3 168 122 30
3 169 122 168
3 169 12 122
3 396 32 397
3 170 398 399
3 170 400 402
3 400 32 401
3 400 401 402
3 170 129 32
3 171 129 170
3 171 13 129
3 171 172 13
3 173 172 171
3 173 33 172
3 403 173 404
3 405 173 406
3 407 33 408
3 409 408 173
3 407 408 409
3 410 136 411
3 412 411 33
3 410 411 412
3 413 136 414
3 415 14 416
3 417 416 136
3 415 416 417
3 419 418 14
3 174 420 422
3 420 175 421
3 420 421 422
3 176 175 174
3 176 35 175
3 79 176 34
3 177 176 79
3 177 35 176
3 177 104 35
3 178 104 177
3 178 4 104
3 142 80 3
3 179 80 142
3 179 36 80
3 82 179 16
3 180 179 82
3 180 36 179
3 180 178 36
3 181 178 180
3 181 4 178
3 181 156 4
3 182 156 181
3 182 24 156
3 84 182 37
3 183 182 84
3 183 24 182
3 183 70 24
3 184 70 183
3 184 2 70
3 423 185 424
3 425 424 1
3 423 424 425
3 426 185 427
3 428 39 429
3 430 429 185
3 428 429 430
3 431 39 432
3 434 433 39
3 147 435 436
3 438 437 147
3 87 439 441
3 441 440 19
3 439 440 441
3 443 442 87
3 445 444 40
3 151 89 6
3 186 89 151
3 186 446 448
3 448 447 89
3 446 447 448
3 91 186 21
3 187 186 91
3 187 449 451
3 451 450 186
3 449 450 451
3 187 452 453
3 455 454 187
3 93 456 458
3 458 457 41
3 456 457 458
3 188 459 461
3 461 460 93
3 459 460 461
3 188 462 463
3 188 464 465
3 174 466 468
3 468 467 188
3 466 467 468
3 174 469 470
3 189 190 0
3 191 190 189
3 191 43 190
3 95 191 42
3 192 191 95
3 192 43 191
3 192 119 43
3 193 119 192
3 193 8 119
3 154 96 7
3 194 96 154
3 194 44 96
3 98 194 22
3 195 194 98
3 195 44 194
3 195 193 44
3 196 193 195
3 196 8 193
3 196 165 8
3 197 165 196
3 197 29 165
3 100 197 45
3 198 197 100
3 198 29 197
3 198 75 29
3 199 75 198
3 199 1 75
3 471 46 472
3 200 473 474
3 200 475 477
3 475 46 476
3 475 476 477
3 200 199 46
3 201 199 200
3 201 1 199
3 201 478 480
3 480 479 1
3 478 479 480
3 482 481 201
3 483 146 484
3 483 484 485
3 202 486 488
3 486 146 487
3 486 487 488
3 202 18 146
3 102 489 491
3 489 202 490
3 489 490 491
3 203 202 102
3 203 18 202
3 203 66 18
3 189 66 203
3 189 0 66
3 204 492 493
3 204 494 496
3 494 495 496
3 175 497 498
3 205 499 501
3 501 500 175
3 499 500 501
3 205 502 504
3 502 23 503
3 502 503 504
3 105 205 35
3 206 205 105
3 206 23 205
3 206 155 23
3 207 155 206
3 207 9 155
3 157 106 4
3 208 106 157
3 208 48 106
3 108 208 25
3 209 208 108
3 209 48 208
3 209 207 48
3 210 207 209
3 210 9 207
3 210 103 9
3 211 103 210
3 211 47 103
3 110 211 49
3 212 211 110
3 212 47 211
3 212 204 47
3 213 204 212
3 213 505 507
3 507 506 204
3 505 506 507
3 213 508 509
3 214 510 512
3 512 511 213
3 510 511 512
3 214 513 514
3 112 214 50
3 215 214 112
3 215 515 517
3 517 516 214
3 515 516 517
3 215 518 519
3 216 520 522
3 522 521 215
3 520 521 522
3 216 523 524
3 161 113 10
3 217 113 161
3 217 51 113
3 115 217 27
3 218 217 115
3 218 51 217
3 218 216 51
3 219 216 218
3 219 525 527
3 527 526 216
3 525 526 527
3 219 528 529
3 531 530 219
3 117 532 534
3 534 533 52
3 532 533 534
3 220 535 537
3 537 536 117
3 535 536 537
3 220 538 539
3 220 540 541
3 543 542 220
3 190 65 0
3 221 65 190
3 221 17 65
3 120 221 43
3 222 221 120
3 222 17 221
3 222 145 17
3 223 145 222
3 223 5 145
3 166 121 8
3 224 121 166
3 224 54 121
3 123 224 30
3 225 224 123
3 225 54 224
3 225 223 54
3 226 223 225
3 226 5 223
3 226 85 5
3 227 85 226
3 227 38 85
3 125 227 55
3 228 227 125
3 228 38 227
3 228 184 38
3 229 184 228
3 229 2 184
3 185 77 1
3 230 77 185
3 230 31 77
3 127 230 39
3 231 230 127
3 231 31 230
3 231 169 31
3 232 169 231
3 232 12 169
3 544 128 545
3 233 546 548
3 546 128 547
3 546 547 548
3 233 57 128
3 130 233 32
3 234 233 130
3 234 57 233
3 234 232 57
3 235 232 234
3 235 12 232
3 235 126 12
3 236 126 235
3 236 56 126
3 132 236 58
3 237 236 132
3 237 56 236
3 237 229 56
3 238 229 237
3 238 2 229
3 238 74 2
3 239 74 238
3 239 28 74
3 134 239 59
3 240 239 134
3 240 28 239
3 240 164 28
3 241 164 240
3 241 11 164
3 172 135 13
3 242 135 172
3 242 60 135
3 137 242 33
3 243 242 137
3 243 60 242
3 243 241 60
3 244 241 243
3 244 11 241
3 244 118 11
3 245 118 244
3 245 53 118
3 139 245 61
3 246 245 139
3 246 53 245
3 246 549 551
3 551 550 53
3 549 550 551
3 553 552 246
3 555 554 62
3 558 557 14
3 556 557 558
