ply
format ascii 1.0
element vertex 356
property float x
property float y
property float z
element face 377
property list uchar int vertex_index
end_header
13.235356 -77.615211 3.935838
15.028676 -93.245316 5.345376
14.148265 -86.735428 5.326889
13.607079 -69.85096 4.855626
7.467683 -76.748688 13.268069
17.129889 -69.586716 10.757395
25.370823 -65.773735 6.770793
15.318662 -82.607666 3.521816
9.303273 -86.63591 -2.152495
6.942643 -81.824097 1.222996
5.517215 -80.097343 10.089118
13.666918 -64.94709 8.916052
21.792517 -68.610626 8.070506
13.736104 -98.422623 4.72303
18.055714 -95.311172 -1.847944
13.551805 -90.157272 5.096627
14.20892 -91.396156 -2.304151
10.166368 -90.510269 0.017028
11.683062 -73.644707 6.71654
4.687854 -75.582359 6.275498
5.18889 -69.451881 8.565474
7.662585 -91.463661 5.955753
8.805176 -87.036789 8.270885
12.715975 -82.897232 10.420881
14.351248 -79.525986 11.187271
6.249587 -67.290207 12.239198
11.339453 -71.953651 14.796367
15.090848 -75.851242 11.087767
18.1675 -73.271744 7.588457
22.515503 -70.101219 4.47341
14.567821 -80.066322 3.735574
11.53992 -81.933472 1.168362
10.567863 -79.703842 2.660654
14.795484 -95.917496 5.571429
16.619144 -96.985397 2.021325
17.071976 -94.138535 1.922864
13.153905 -88.880547 5.301359
12.824226 -89.669823 2.03176
11.863696 -88.302528 2.372102
12.437319 -71.468018 6.249794
8.42621 -71.565369 7.546232
9.161593 -69.097687 6.964497
8.013021 -89.280228 6.537319
5.879979 -85.604538 7.642018
6.575374 -78.491135 11.514464
9.184733 -81.813171 10.584661
10.431349 -80.320236 12.15397
13.96454 -81.135765 10.853485
11.259763 -78.632912 13.631826
15.089912 -67.305359 9.752262
11.935061 -67.965698 11.798449
14.25828 -70.237633 13.101332
14.051874 -74.356606 14.21255
16.390041 -72.720505 12.129425
16.407406 -74.419754 9.761813
18.418472 -72.002335 9.78805
23.7544 -67.594887 7.271758
22.719219 -70.03318 6.657103
24.686413 -68.479568 5.745751
24.713118 -68.073891 3.766616
26.451294 -66.053551 5.222423
16.380558 -99.466896 -6.275008
10.930002 -93.049789 -4.615716
13.778654 -93.189072 -4.630778
15.081311 -84.801254 4.163527
12.38904 -86.217987 1.26099
12.246796 -84.322433 0.011377
8.067522 -83.88736 -1.018684
15.5603 -68.498352 3.276548
10.611067 -67.227676 5.371516
4.447532 -74.830223 12.687479
17.014278 -64.617943 8.116076
18.102867 -66.974243 8.130757
19.489902 -69.200897 9.170259
20.445694 -66.67247 7.300873
22.287424 -66.041481 6.980902
23.766058 -64.679222 7.041788
15.008357 -99.618942 1.048248
17.08848 -98.347588 -2.173337
17.776999 -97.035767 -5.891261
14.21924 -91.19043 4.924362
16.214819 -91.665565 1.485798
14.593358 -90.366867 1.524795
12.124449 -90.976837 -1.682239
9.37027 -88.70256 -0.465391
7.617827 -91.390221 -2.494796
11.799826 -75.433273 4.888944
8.731161 -76.73584 4.551662
7.892489 -74.301537 6.445817
4.674175 -72.539093 7.780322
11.717026 -97.260933 7.497571
11.921354 -94.963905 7.093977
11.435378 -92.774323 6.229304
10.99284 -90.946426 6.447468
10.980218 -89.403969 7.108703
12.217295 -87.540497 8.335517
7.617091 -83.473167 8.963877
10.656855 -84.758163 9.857283
14.188024 -85.270576 8.430216
15.488108 -83.210312 7.709748
15.771139 -81.00248 7.569533
15.499397 -79.070297 7.434721
5.824967 -71.798691 13.527641
10.09444 -65.708649 10.432497
8.531029 -69.421753 13.225763
8.81565 -74.280266 14.823871
12.296191 -76.517288 14.656458
14.654266 -77.824844 11.311036
14.743533 -77.152184 7.336391
14.058062 -75.535202 7.839879
14.954791 -73.583878 7.246197
16.367382 -72.257027 5.30223
20.411945 -70.972191 7.994306
20.131992 -71.808128 5.722185
18.314758 -70.803513 3.79654
20.944294 -69.065285 2.700394
16.74585 -92.647301 -2.136941
16.779602 -94.179886 -5.217992
5.623171 -78.839783 3.64022
4.931826 -85.277039 8.386045
5.432544 -86.926823 7.239176
16.547626 -99.837445 -7.993314
16.585254 -98.915233 -7.742476
10.731815 -94.068611 -5.550992
9.533552 -93.769195 -5.497307
5.656966 -82.487122 0.026498
6.219406 -83.518753 -1.094342
7.505083 -82.855728 0.102156
14.310078 -67.146263 3.397005
17.000981 -67.797016 2.621841
3.748857 -74.174644 13.581809
3.91385 -75.941223 12.50572
18.283162 -64.806454 7.992026
17.937432 -64.917168 9.289517
18.827457 -65.984604 7.999366
17.558573 -65.796093 8.123416
18.283162 -64.806454 7.992026
19.99887 -65.833718 7.584424
19.27428 -66.823357 7.715815
18.827457 -65.984604 7.999366
22.530875 -64.963715 7.453524
21.857948 -65.468518 7.338384
23.270192 -64.282585 7.483967
23.026741 -65.360352 7.011345
22.530875 -64.963715 7.453524
14.372231 -99.020782 2.885639
13.690495 -100.062466 2.428348
13.054368 -99.464306 4.265739
9.543813 -91.426712 -1.840072
10.522854 -91.659996 -2.689706
11.145409 -90.743553 -0.832605
6.479594 -91.332012 -4.191323
7.15576 -90.292477 -2.981825
7.045402 -92.222733 -4.373931
6.479594 -91.332012 -4.191323
4.175442 -69.804501 8.191618
3.918085 -71.348107 7.799042
4.931532 -70.995487 8.172898
8.499409 -66.946849 6.660011
9.62033 -65.87558 5.716926
10.101814 -96.620605 7.560983
10.386788 -97.312908 8.506728
10.203978 -95.472092 7.359186
11.81919 -96.112419 7.295774
10.101814 -96.620605 7.560983
7.809648 -92.789364 6.034744
6.289153 -91.300865 6.381151
9.548982 -92.118992 6.092529
9.696045 -93.444695 6.17152
7.809648 -92.789364 6.034744
6.567153 -81.785255 9.526497
5.95064 -82.82534 9.13158
4.900702 -81.137428 9.6942
4.967759 -68.712688 12.889469
5.783015 -67.15366 13.126801
6.037277 -69.544449 12.883419
4.755448 -70.966931 13.53369
4.967759 -68.712688 12.889469
11.880679 -65.327869 9.674274
11.62569 -64.9394 11.052253
13.411929 -64.558621 10.294031
24.201076 -67.452572 2.904909
25.648963 -66.689671 3.490692
15.26835 -94.554764 -6.145861
15.279128 -93.684479 -4.924385
13.767876 -94.059357 -5.852254
16.64029 -94.984432 -6.940715
15.26835 -94.554764 -6.145861
7.998484 -87.915322 -2.810674
7.370331 -86.361358 -2.543389
6.323847 -89.856384 6.396043
6.289153 -91.300865 6.381151
6.499066 -88.764668 6.686827
7.837803 -90.371944 6.246536
6.323847 -89.856384 6.396043
6.9465 -87.442383 7.089669
6.499066 -88.764668 6.686827
5.432544 -86.926823 7.239176
7.760052 -66.267216 12.440936
5.783015 -67.15366 13.126801
26.518051 -65.6795 4.218596
25.648963 -66.689671 3.490692
25.582206 -67.063721 4.49452
16.338217 -100.309098 -6.515207
15.886021 -100.052555 -4.663851
16.338217 -100.309098 -6.515207
16.547626 -99.837445 -7.993314
12.156141 -94.138252 -5.558523
12.354328 -93.11943 -4.623247
10.731815 -94.068611 -5.550992
13.767876 -94.059357 -5.852254
12.156141 -94.138252 -5.558523
3.923367 -76.013294 5.141942
3.872832 -74.460125 6.380207
6.752455 -84.987083 -1.976484
7.370331 -86.361358 -2.543389
8.685398 -85.261635 -1.585589
6.752455 -84.987083 -1.976484
6.219406 -83.518753 -1.094342
11.835461 -66.510925 4.444489
13.085684 -67.863014 4.324032
14.310078 -67.146263 3.397005
9.62033 -65.87558 5.716926
11.835461 -66.510925 4.444489
4.66055 -79.732056 11.402579
4.900702 -81.137428 9.6942
4.448691 -78.574783 11.206539
4.66055 -79.732056 11.402579
4.977771 -77.771679 11.919213
6.046295 -79.294239 10.801791
4.448691 -78.574783 11.206539
5.511453 -76.660679 12.100971
4.977771 -77.771679 11.919213
3.91385 -75.941223 12.50572
15.013309 -64.703617 10.052924
13.411929 -64.558621 10.294031
16.686988 -64.539043 9.652936
17.937432 -64.917168 9.289517
15.340598 -64.782516 8.516064
15.013309 -64.703617 10.052924
16.686988 -64.539043 9.652936
20.937083 -65.784012 7.498369
19.99887 -65.833718 7.584424
21.366559 -66.356976 7.140887
20.937083 -65.784012 7.498369
21.857948 -65.468518 7.338384
14.44653 -100.58004 0.594671
13.690495 -100.062466 2.428348
15.199921 -100.128578 -1.002223
14.44653 -100.58004 0.594671
16.239982 -99.492901 -2.613015
15.199921 -100.128578 -1.002223
16.048419 -98.983265 -0.562545
16.734519 -98.907242 -4.224172
15.886021 -100.052555 -4.663851
16.239982 -99.492901 -2.613015
17.283475 -97.699669 -7.550603
16.585254 -98.915233 -7.742476
17.078778 -98.251332 -6.083134
9.925631 -92.696472 -4.156444
11.527226 -92.013313 -3.148977
10.522854 -91.659996 -2.689706
9.533552 -93.769195 -5.497307
9.925631 -92.696472 -4.156444
8.031982 -88.948646 -1.967122
9.336772 -87.669235 -1.308943
7.998484 -87.915322 -2.810674
8.494048 -90.046391 -1.480093
8.031982 -88.948646 -1.967122
7.15576 -90.292477 -2.981825
8.269543 -91.866688 -3.095984
9.543813 -91.426712 -1.840072
8.892098 -90.950245 -1.238884
8.269543 -91.866688 -3.095984
7.045402 -92.222733 -4.373931
3.865993 -72.938492 7.132619
3.872832 -74.460125 6.380207
4.681014 -74.060726 7.02791
3.865993 -72.938492 7.132619
3.918085 -71.348107 7.799042
7.774672 -67.881855 7.456501
9.88633 -68.162681 6.168006
8.499409 -66.946849 6.660011
5.78832 -68.058952 8.256989
7.175242 -69.274784 7.764985
7.774672 -67.881855 7.456501
4.521726 -68.116512 8.29236
5.78832 -68.058952 8.256989
4.175442 -69.804501 8.191618
4.521726 -68.116512 8.29236
12.223937 -98.955303 5.882711
13.054368 -99.464306 4.265739
11.214399 -98.374459 7.269982
10.386788 -97.312908 8.506728
12.726565 -97.841778 6.1103
12.223937 -98.955303 5.882711
11.214399 -98.374459 7.269982
9.939033 -94.539486 6.603856
10.203978 -95.472092 7.359186
11.678366 -93.869114 6.66164
9.939033 -94.539486 6.603856
9.696045 -93.444695 6.17152
5.082083 -83.891026 8.47065
4.931826 -85.277039 8.386045
6.748535 -84.538853 8.302948
5.082083 -83.891026 8.47065
5.95064 -82.82534 9.13158
4.066731 -72.482697 13.113609
3.748857 -74.174644 13.581809
5.136249 -73.314457 13.10756
4.066731 -72.482697 13.113609
4.755448 -70.966931 13.53369
9.682479 -65.476437 11.537586
11.62569 -64.9394 11.052253
8.172014 -66.499428 11.335847
7.760052 -66.267216 12.440936
9.682479 -65.476437 11.537586
19.692978 -68.080483 2.333765
17.000981 -67.797016 2.621841
18.252297 -68.781818 2.988471
22.316664 -67.948269 2.371798
22.828706 -68.569588 3.233505
24.201076 -67.452572 2.904909
19.692978 -68.080483 2.333765
22.316664 -67.948269 2.371798
23.469526 -63.421728 7.739898
23.270192 -64.282585 7.483967
24.148905 -63.652553 7.177706
23.469526 -63.421728 7.739898
24.951287 -64.19981 7.042208
24.568441 -65.226478 6.906291
24.148905 -63.652553 7.177706
25.847646 -64.488837 6.661515
24.951287 -64.19981 7.042208
26.387881 -64.628744 5.88733
25.911059 -65.913643 5.996608
25.847646 -64.488837 6.661515
27.058706 -64.571123 5.078397
26.387881 -64.628744 5.88733
26.518051 -65.6795 4.218596
27.058706 -64.571123 5.078397
17.138988 -96.412373 -7.27735
17.278301 -95.607827 -5.554626
16.64029 -94.984432 -6.940715
17.283475 -97.699669 -7.550603
17.138988 -96.412373 -7.27735
4.391025 -77.642006 3.824304
5.155513 -77.211071 4.957859
3.923367 -76.013294 5.141942
4.568889 -79.40384 2.507818
4.391025 -77.642006 3.824304
5.228625 -80.895996 1.299206
6.282907 -80.33194 2.431608
4.568889 -79.40384 2.507818
5.656966 -82.487122 0.026498
5.228625 -80.895996 1.299206
3 0 32 30
3 1 35 33
3 2 38 36
3 3 41 39
3 119 43 120
3 4 46 44
3 4 48 46
3 5 51 49
3 5 53 51
3 5 55 53
3 6 58 56
3 6 60 58
3 122 121 61
3 124 123 62
3 7 66 64
3 9 67 31
3 9 125 127
3 127 126 67
3 125 126 127
3 129 128 68
3 130 70 131
3 132 71 133
3 134 72 135
3 136 135 71
3 134 135 136
3 137 74 138
3 139 138 72
3 137 138 139
3 140 75 141
3 142 76 143
3 144 143 75
3 142 143 144
3 13 145 147
3 145 77 146
3 145 146 147
3 14 78 34
3 14 79 78
3 15 82 80
3 17 83 37
3 17 148 150
3 150 149 83
3 148 149 150
3 8 84 65
3 151 85 152
3 154 153 85
3 18 88 86
3 20 89 40
3 20 155 157
3 157 156 89
3 155 156 157
3 159 158 69
3 160 90 161
3 162 91 163
3 164 163 90
3 162 163 164
3 21 165 166
3 21 167 169
3 167 92 168
3 167 168 169
3 21 93 92
3 22 94 42
3 22 95 94
3 10 170 172
3 170 96 171
3 170 171 172
3 23 97 45
3 23 98 97
3 23 99 98
3 24 100 47
3 24 101 100
3 25 173 174
3 25 175 177
3 175 102 176
3 175 176 177
3 11 178 180
3 178 103 179
3 178 179 180
3 26 104 50
3 26 105 104
3 26 106 105
3 27 107 52
3 27 108 107
3 27 109 108
3 28 110 54
3 28 111 110
3 12 112 73
3 29 113 57
3 29 114 113
3 29 115 114
3 182 181 59
3 16 116 81
3 183 117 184
3 185 184 63
3 183 184 185
3 187 186 117
3 19 118 87
3 30 31 7
3 32 31 30
3 32 9 31
3 33 34 13
3 35 34 33
3 35 14 34
3 36 37 15
3 38 37 36
3 38 17 37
3 189 188 8
3 39 40 18
3 41 40 39
3 41 20 40
3 190 21 191
3 192 42 193
3 194 193 21
3 192 193 194
3 43 195 197
3 195 42 196
3 195 196 197
3 43 22 42
3 44 45 10
3 46 45 44
3 46 23 45
3 46 47 23
3 48 47 46
3 48 24 47
3 198 25 199
3 49 50 11
3 51 50 49
3 51 26 50
3 51 52 26
3 53 52 51
3 53 27 52
3 53 54 27
3 55 54 53
3 55 28 54
3 56 57 12
3 58 57 56
3 58 29 57
3 58 59 29
3 60 59 58
3 60 200 202
3 202 201 59
3 200 201 202
3 61 203 204
3 206 205 61
3 62 63 16
3 207 63 208
3 209 208 62
3 207 208 209
3 211 210 63
3 213 212 19
3 64 65 2
3 66 65 64
3 66 8 65
3 31 66 7
3 67 66 31
3 67 8 66
3 67 214 216
3 216 215 8
3 214 215 216
3 218 217 67
3 68 69 3
3 219 69 220
3 221 220 68
3 219 220 221
3 223 222 69
3 224 10 225
3 226 10 227
3 228 44 229
3 230 229 10
3 228 229 230
3 70 231 233
3 231 44 232
3 231 232 233
3 70 4 44
3 234 11 235
3 71 236 237
3 71 238 240
3 238 11 239
3 238 239 240
3 71 49 11
3 72 49 71
3 72 5 49
3 72 73 5
3 74 73 72
3 74 12 73
3 241 74 242
3 75 243 245
3 243 74 244
3 243 244 245
3 75 12 74
3 75 56 12
3 76 56 75
3 76 6 56
3 77 246 247
3 77 248 249
3 34 77 13
3 78 77 34
3 78 250 252
3 252 251 77
3 250 251 252
3 78 253 255
3 253 61 254
3 253 254 255
3 79 61 78
3 79 256 258
3 258 257 61
3 256 257 258
3 80 81 1
3 82 81 80
3 82 16 81
3 37 82 15
3 83 82 37
3 83 16 82
3 83 62 16
3 259 62 260
3 261 260 83
3 259 260 261
3 263 262 62
3 65 38 2
3 84 38 65
3 84 17 38
3 264 84 265
3 266 265 8
3 264 265 266
3 85 267 269
3 267 84 268
3 267 268 269
3 85 17 84
3 85 270 272
3 272 271 17
3 270 271 272
3 274 273 85
3 86 87 0
3 88 87 86
3 88 19 87
3 40 88 18
3 89 88 40
3 89 19 88
3 89 275 277
3 277 276 19
3 275 276 277
3 279 278 89
3 69 41 3
3 280 41 281
3 282 281 69
3 280 281 282
3 283 20 284
3 285 284 41
3 283 284 285
3 286 20 287
3 289 288 20
3 290 13 291
3 90 292 293
3 90 294 296
3 294 13 295
3 294 295 296
3 90 33 13
3 91 33 90
3 91 1 33
3 297 91 298
3 92 299 301
3 299 91 300
3 299 300 301
3 92 1 91
3 92 80 1
3 93 80 92
3 93 15 80
3 42 93 21
3 94 93 42
3 94 15 93
3 94 36 15
3 95 36 94
3 95 2 36
3 302 43 303
3 96 304 306
3 304 43 305
3 304 305 306
3 96 22 43
3 45 96 10
3 97 96 45
3 97 22 96
3 97 95 22
3 98 95 97
3 98 2 95
3 98 64 2
3 99 64 98
3 99 7 64
3 47 99 23
3 100 99 47
3 100 7 99
3 100 30 7
3 101 30 100
3 101 0 30
3 307 70 308
3 102 309 311
3 309 70 310
3 309 310 311
3 102 4 70
3 103 312 313
3 103 314 316
3 314 25 315
3 314 315 316
3 50 103 11
3 104 103 50
3 104 25 103
3 104 102 25
3 105 102 104
3 105 4 102
3 105 48 4
3 106 48 105
3 106 24 48
3 52 106 26
3 107 106 52
3 107 24 106
3 107 101 24
3 108 101 107
3 108 0 101
3 108 86 0
3 109 86 108
3 109 18 86
3 54 109 27
3 110 109 54
3 110 18 109
3 110 39 18
3 111 39 110
3 111 3 39
3 73 55 5
3 112 55 73
3 112 28 55
3 57 112 12
3 113 112 57
3 113 28 112
3 113 111 28
3 114 111 113
3 114 3 111
3 114 68 3
3 115 68 114
3 115 317 319
3 319 318 68
3 317 318 319
3 59 115 29
3 320 115 321
3 322 321 59
3 320 321 322
3 324 323 115
3 325 76 326
3 327 76 328
3 329 6 330
3 331 330 76
3 329 330 331
3 332 6 333
3 334 60 335
3 336 335 6
3 334 335 336
3 337 60 338
3 340 339 60
3 81 35 1
3 116 35 81
3 116 14 35
3 63 116 16
3 117 116 63
3 117 14 116
3 117 79 14
3 341 79 342
3 343 342 117
3 341 342 343
3 345 344 79
3 87 32 0
3 118 32 87
3 118 9 32
3 346 118 347
3 348 347 19
3 346 347 348
3 349 118 350
3 351 9 352
3 353 352 118
3 351 352 353
3 355 354 9
