ply
format ascii 1.0
element vertex 991
property float x
property float y
property float z
element face 1289
property list uchar int vertex_index
end_header
56.69334 -38.591518 27.92651
33.917034 -37.559376 38.363075
47.915131 -42.798462 37.500347
43.138824 -29.697422 21.654692
58.209145 -26.415277 28.041006
57.730572 -31.454559 45.114914
53.817329 -44.483452 29.14986
37.40834 -45.673759 35.343483
54.272839 -26.595343 38.802906
50.673309 -32.051563 42.469643
53.344368 -44.655167 38.637737
46.543926 -34.646843 27.620752
45.716278 -37.116386 18.006275
56.978539 -35.994038 18.358755
63.588562 -37.880352 19.383446
38.330471 -31.738758 38.074699
45.2047 -36.290752 42.173988
40.83556 -39.99934 35.988777
42.894363 -22.018707 19.050335
50.908318 -21.811922 17.226109
50.305691 -25.820166 25.092615
52.68681 -31.734577 32.52702
56.44696 -23.53665 31.66399
60.720924 -27.016895 36.642014
59.484642 -35.158802 36.713608
52.493732 -38.935524 45.875561
56.571617 -39.528732 37.583557
61.213844 -39.795494 27.031488
57.733112 -44.077576 20.629002
36.586109 -33.874916 19.5443
48.801365 -28.439678 38.058971
47.143845 -30.527374 39.216045
50.682213 -37.74609 28.609674
50.558567 -37.744308 23.566555
56.6026 -37.861469 22.693111
61.368202 -36.104515 18.423664
60.975548 -37.446259 22.936466
35.958282 -34.551353 38.049942
40.025368 -36.533894 38.058174
37.188393 -38.758812 36.101715
56.611279 -23.603487 24.771109
54.00119 -23.590832 22.465584
54.080482 -26.463327 27.264444
51.373253 -29.367809 28.32139
55.64389 -28.710968 30.268768
53.237144 -21.167419 32.860584
56.821705 -28.256519 43.320118
58.634937 -25.744043 39.234062
59.9217 -28.348475 41.7346
58.745502 -30.677505 38.535652
59.03651 -32.982029 40.838184
46.384094 -39.196533 39.856316
48.70319 -37.513874 44.286339
49.944603 -40.82753 41.528912
52.12262 -44.37495 34.062805
54.21413 -42.480995 38.896935
54.65992 -41.371822 32.852928
59.686615 -40.548195 32.482399
57.266407 -42.117676 26.530903
60.015991 -42.793388 22.760571
56.391735 -44.332695 25.303387
43.210747 -25.666943 21.334839
38.52853 -27.298355 22.121296
39.379772 -31.832172 22.269016
34.661827 -41.396912 35.562634
58.451637 -23.330301 27.230719
51.220459 -23.546013 34.801201
50.161663 -25.813461 36.882851
52.628075 -29.348324 41.033527
54.422394 -31.553562 45.451679
49.404018 -46.553658 36.863892
50.810284 -44.129803 39.103283
52.522705 -47.447361 37.594776
54.745331 -48.335918 30.681217
53.978004 -47.633282 27.242594
32.522415 -29.113718 17.428383
44.183563 -31.364038 25.577078
41.981506 -34.881813 23.200933
45.524269 -36.974346 23.424244
51.164177 -36.743935 18.215433
63.006054 -33.974983 15.245578
64.635941 -36.812794 15.509459
62.422432 -40.272266 15.725635
44.214928 -32.363384 40.159798
41.770916 -34.255428 40.169449
43.08033 -38.271587 38.929466
44.76823 -41.11731 36.249004
38.802242 -42.675697 34.665367
42.72831 -44.462669 35.287663
46.399242 -45.782307 36.162708
46.825615 -21.757479 18.510269
46.996948 -25.350113 20.115431
55.03933 -21.165478 18.057621
50.482208 -24.303661 20.455389
46.957504 -27.550838 22.636566
47.456116 -29.649612 26.939915
49.106747 -33.3675 30.515335
52.647087 -36.52961 32.549667
56.515736 -21.30373 29.331989
59.797375 -24.490025 29.707623
55.553272 -24.947256 35.133892
59.586914 -25.270975 34.149376
60.33083 -27.075924 31.641163
57.4562 -29.297806 34.430916
55.076214 -33.793293 35.786999
57.828041 -37.322865 32.739117
47.544277 -33.835503 43.99157
51.205639 -35.239006 47.438725
54.910316 -36.088306 47.376801
53.239037 -43.271385 43.145031
54.87611 -40.007252 43.748188
56.547356 -36.180298 42.530571
59.873177 -37.408173 37.079494
62.446869 -38.035042 32.713593
62.545074 -37.701759 27.703037
62.74353 -39.089233 22.803991
61.147224 -41.460262 18.978388
53.402222 -45.645962 23.503283
54.904804 -44.573891 19.065849
38.606152 -22.929516 20.311314
34.381977 -29.262623 21.03945
36.212486 -32.688046 15.15066
40.767673 -36.593452 18.041519
40.802177 -34.69104 12.752123
46.251312 -28.012884 37.645145
45.51606 -29.049139 38.110992
53.678169 -38.46838 28.224812
53.523293 -38.406929 25.55863
56.505257 -38.41787 25.254353
59.022835 -37.537506 22.740511
59.216064 -38.068584 25.430145
34.997917 -36.222801 38.233711
36.915539 -36.914307 37.570538
35.514484 -38.040245 36.857944
57.149498 -25.312933 26.679569
55.263783 -24.980536 26.117893
56.172035 -26.581324 27.614475
54.853951 -27.88348 28.406219
56.953808 -27.632359 29.245813
57.606102 -29.402395 44.710583
58.778454 -27.895481 42.830307
59.033348 -29.825672 43.54018
59.694984 -30.637787 41.684418
58.553322 -31.926584 42.973228
47.126457 -40.873684 38.569695
48.228668 -39.805649 40.661877
48.774452 -41.80471 39.527287
52.513863 -44.572685 31.357574
52.979057 -42.661076 33.570763
53.811279 -42.503494 30.555851
55.852924 -41.407459 29.745886
55.508057 -42.988316 27.756378
57.25367 -43.595318 25.858484
55.374104 -44.595142 27.397518
42.989681 -28.020666 20.672476
40.88509 -28.588955 21.575079
41.195808 -30.534962 22.139978
57.889301 -21.410816 25.537352
57.401348 -21.251911 27.080866
49.802368 -30.39851 40.20145
50.687767 -29.207561 39.565575
51.820213 -30.816904 41.738792
53.809071 -30.318426 43.235382
52.558449 -32.02211 44.035004
50.779953 -47.025558 37.25692
54.51701 -48.276527 32.981117
55.329845 -49.575417 29.078274
45.207172 -32.99118 26.66222
44.210857 -34.615814 25.297316
45.83659 -35.921387 25.744558
53.549335 -37.198997 20.891541
50.778973 -37.371494 20.951218
54.011665 -36.414646 18.381542
57.799549 -34.810261 16.175734
60.296246 -34.538902 16.650925
63.070507 -36.701492 19.042793
63.553154 -36.011395 17.055
63.964855 -37.385376 17.224339
63.917847 -38.728416 15.361528
63.403492 -38.954369 17.237755
41.281979 -32.050495 38.65955
40.00721 -32.911541 38.794643
40.306171 -38.508228 36.977863
41.572929 -37.502178 38.315979
42.013371 -39.123711 37.290031
43.835369 -39.511375 37.558239
42.909218 -40.507332 35.986099
35.879208 -43.540813 35.015636
36.691216 -41.94228 34.925007
38.013161 -44.196587 34.719524
41.838894 -46.058487 35.839615
43.834923 -46.779385 36.425461
44.574604 -45.340118 35.81498
45.717693 -47.405647 36.983627
47.623901 -47.867851 37.391762
51.104095 -19.647898 17.473017
48.932625 -19.619892 18.035307
48.874767 -21.847683 17.864553
47.057549 -23.369114 19.761066
48.855621 -23.198051 19.171656
56.738384 -20.494137 19.108749
52.084923 -24.741299 23.795551
52.305958 -23.769423 21.294161
50.282143 -25.335238 22.3251
48.647682 -26.254065 21.029408
48.681873 -26.467707 23.66247
46.989967 -28.123407 25.057896
48.873688 -27.614202 25.917582
52.075294 -30.74342 30.160873
50.061241 -31.099039 29.48407
50.735798 -32.630913 31.63508
50.540615 -35.04314 31.960056
51.954994 -34.148869 33.41996
54.865623 -21.240456 31.149586
56.498138 -22.517115 30.383331
58.138786 -23.307474 29.444113
58.237366 -23.952026 30.917673
52.689095 -25.447964 36.648994
53.322235 -24.481022 35.004238
54.859779 -25.42346 37.045753
60.168262 -25.918087 38.348488
59.168213 -25.281319 36.807938
60.643166 -25.85223 35.472256
60.792381 -25.873753 32.863647
60.872242 -27.009399 33.976536
59.186951 -28.102667 32.949047
59.569355 -28.09992 35.386967
58.100227 -33.151501 38.108143
56.828564 -32.07494 36.988026
57.141113 -34.794807 36.473869
55.924507 -36.209488 34.813862
58.765198 -36.411839 34.777119
44.207687 -34.346413 42.423622
45.924351 -33.093361 42.173691
45.909142 -35.053249 43.992592
50.547119 -37.91993 45.335876
49.776085 -36.60796 46.50634
51.818169 -37.151924 47.519676
53.216042 -35.812134 48.184036
53.815113 -37.723473 47.510529
52.283363 -44.539257 39.466408
51.718334 -43.801491 41.532429
53.398781 -44.16555 41.128246
54.869209 -40.862251 38.20509
54.725372 -41.600029 41.202614
54.938526 -39.524136 40.636189
55.822151 -38.108025 43.395805
56.216869 -37.844475 39.85006
57.691246 -36.555305 39.321564
58.610767 -38.867485 37.241982
60.608959 -40.303387 29.836178
61.620247 -39.663429 32.773163
62.426331 -39.186855 30.439798
62.649208 -37.818737 30.499258
62.844463 -38.735893 27.47868
62.963593 -38.257282 25.217409
62.041889 -39.513859 24.714703
59.113232 -43.888042 21.337708
60.747272 -42.219933 20.622393
59.588268 -43.021885 19.441454
59.916626 -42.178886 17.590565
53.300823 -47.889957 26.063232
53.396362 -46.52874 25.495489
52.68911 -46.917732 24.164984
53.167591 -45.524254 20.135799
53.431297 -44.650768 18.290609
55.167431 -43.780727 17.354008
43.065601 -19.837919 18.462847
41.174248 -20.088539 19.883678
40.535088 -22.468496 19.430111
36.834953 -30.992565 21.790997
36.322746 -28.49176 21.919273
35.236122 -31.785397 20.51075
34.388222 -31.776718 18.585821
36.022629 -33.704666 17.25028
43.383602 -36.887009 20.8125
41.224022 -36.103935 20.910206
43.131187 -36.993816 17.918522
46.934654 -27.009472 37.15374
47.916443 -29.468922 38.664829
48.873859 -31.530222 40.837635
48.29781 -36.414474 28.4034
47.952934 -37.118984 26.005432
50.601334 -38.025166 26.003738
53.520245 -37.930367 23.167154
56.623486 -36.954185 20.446283
59.504448 -35.73048 18.514114
59.031597 -36.825218 20.362423
60.893372 -36.897602 20.514444
62.5938 -37.274586 21.122696
37.063957 -32.996376 38.033653
39.011513 -34.21909 38.439598
38.000011 -35.623241 37.926643
38.69886 -37.623695 36.876659
38.937386 -39.469017 35.928188
39.42292 -46.638103 35.980659
53.237507 -19.780514 16.839077
57.120625 -21.836588 22.658628
55.813515 -21.773388 21.695009
55.352684 -23.481716 23.663345
53.720592 -24.580053 25.121077
52.189678 -26.04953 26.436264
50.830181 -27.689005 26.829004
52.829437 -27.882605 27.656673
53.512768 -29.180111 29.260733
54.17878 -30.243967 31.15593
54.702282 -22.45307 32.070244
55.785095 -27.727917 41.006462
56.496727 -26.100439 39.219917
57.87077 -26.872471 41.348827
59.660015 -26.713934 40.77734
60.42046 -27.460531 39.4925
59.794075 -28.631552 38.008003
59.98996 -29.505825 40.109413
59.372429 -31.772974 39.873753
59.411316 -34.148876 38.882301
45.791859 -37.82008 41.055878
46.926506 -36.911884 43.29821
47.727013 -38.266537 41.96032
49.570465 -38.728889 42.796295
51.297279 -39.883068 43.607433
52.707325 -44.513386 36.587811
53.945953 -43.783844 39.173576
53.17334 -43.195789 36.604527
53.822975 -41.708977 35.858364
55.68919 -40.478874 35.238865
58.311779 -40.273628 35.195568
57.141968 -40.738781 32.469772
58.242981 -40.805454 29.428284
58.960571 -40.92804 26.205021
60.125099 -41.08622 24.132467
58.764519 -42.774899 24.664904
58.375721 -43.919716 23.688103
57.086864 -44.369251 22.835291
43.195259 -23.501244 20.829155
40.709766 -24.156401 21.091831
40.842468 -26.328491 21.869877
38.783554 -29.709024 22.065964
37.786999 -33.106823 21.358326
48.718357 -35.950436 15.604418
45.946598 -36.230797 15.142566
34.008526 -39.367363 36.717346
57.879265 -21.716427 24.020725
57.80901 -23.748804 26.003546
58.987171 -25.097485 27.209167
50.745934 -24.614071 35.894081
52.201832 -26.531597 37.887554
49.573421 -27.114208 37.636494
51.528679 -27.682577 38.819431
53.508705 -27.977077 40.04784
54.614738 -28.931559 42.504871
55.685509 -29.700146 44.590935
56.248009 -31.268757 45.93998
48.471855 -44.584904 36.858974
49.340824 -43.45953 38.418411
49.928761 -44.988659 37.282997
51.200298 -45.423882 37.612511
52.570911 -45.849953 37.581841
53.231018 -46.20052 36.353706
52.946198 -46.497704 34.467094
53.036438 -46.716957 32.269493
53.597649 -46.568653 30.143055
54.315968 -46.479057 28.402164
54.635426 -48.198734 28.946613
54.231712 -48.899792 27.631968
43.426048 -30.045864 24.079319
41.847115 -31.825378 23.702011
42.859467 -33.149124 24.704441
43.625599 -35.999126 23.368748
45.609768 -37.392677 20.743969
47.926491 -37.593178 23.469563
48.065746 -37.594383 20.708973
48.34005 -36.974773 18.137381
62.142365 -35.008591 16.696747
64.290283 -35.108837 15.435806
44.07193 -30.231121 38.164097
42.682304 -31.222601 38.420521
42.813484 -33.23946 40.37492
43.469921 -35.417511 41.348171
41.100662 -35.404556 39.289001
42.761124 -36.365902 39.819382
44.315865 -37.311337 40.431633
44.714165 -38.725586 39.348373
45.549187 -39.950359 37.973671
46.429249 -42.094593 36.947754
35.775444 -40.019112 35.6315
37.691296 -40.663277 35.339344
39.649666 -41.268467 35.143776
39.91571 -45.102886 35.138126
40.789928 -43.339252 34.78624
41.791645 -41.836876 35.112988
43.718983 -42.671764 35.350967
45.572426 -43.644115 35.943352
47.059975 -44.222557 36.430599
47.996399 -46.218208 36.520294
49.303627 -48.102623 37.801167
44.904236 -19.764175 18.023106
46.864677 -19.647516 18.07205
44.815502 -21.739445 18.878269
45.147011 -23.368755 20.473278
45.126129 -25.531788 20.661018
44.988258 -27.680532 20.053129
52.99482 -21.805851 17.252071
54.240807 -21.884979 20.786823
52.591164 -22.348272 19.904522
50.770527 -23.031641 19.171501
48.819111 -24.940872 19.988087
46.943718 -27.180521 20.1359
45.084362 -28.773911 21.854849
45.224426 -28.902445 24.448734
45.709393 -30.403559 26.238621
46.600227 -32.057587 27.722464
49.411507 -29.380487 27.620382
48.244926 -31.427414 28.641541
47.722443 -33.949291 29.161072
49.273914 -35.841614 30.235748
51.633045 -37.344105 30.594158
54.360279 -38.08189 30.408331
34.032333 -34.317913 38.985928
33.187294 -36.077213 39.417229
57.033691 -19.854441 28.334177
57.617531 -22.410402 28.395245
59.343201 -24.041479 28.331608
59.973957 -25.554302 28.58075
52.107769 -22.509846 33.74189
54.060356 -23.632416 33.365986
56.145416 -24.516308 33.213474
57.072712 -25.418068 37.317924
57.760216 -25.182964 35.036224
58.034992 -24.771393 32.84066
59.692482 -24.979935 31.739712
60.538269 -25.807993 30.508448
59.303997 -26.976999 29.785358
58.183006 -28.054428 30.954159
56.753479 -29.259424 32.346687
55.109932 -30.584204 33.2873
57.865131 -29.756836 36.683685
55.892956 -31.104696 35.453411
53.697563 -32.67321 34.433624
53.70937 -35.337975 34.394707
55.057117 -37.241425 32.852959
56.976318 -38.080162 30.503
45.954327 -31.529215 39.653667
47.539062 -32.525978 41.367485
49.21077 -33.11972 43.309177
47.797108 -35.842625 45.360832
49.234093 -34.466515 45.918816
50.97047 -33.441853 45.207695
52.835285 -33.744083 46.877571
54.634773 -33.883961 47.314484
56.081085 -33.79921 46.440414
50.21946 -42.881306 40.596886
51.406719 -42.303764 42.705971
52.787254 -41.484875 44.499908
54.443306 -43.174965 41.676865
54.324512 -42.05814 43.700027
54.103283 -39.946068 45.685585
55.309406 -38.169323 46.014915
55.965149 -36.259201 45.49342
57.007404 -34.090248 44.197762
57.544811 -34.481335 41.444328
59.065529 -35.475353 39.210823
60.752422 -36.004559 37.212673
60.326355 -39.575371 35.094597
61.694355 -37.981743 34.992241
61.3578 -36.500496 34.910683
61.023262 -37.067165 32.530754
60.556293 -37.616173 30.313107
60.059517 -38.095112 27.695812
61.756836 -37.579376 25.296217
62.711975 -37.813637 23.107307
63.166584 -38.544182 21.017107
61.316357 -40.786629 22.347187
62.207996 -40.22065 20.774149
62.770924 -39.561565 19.123312
61.603931 -40.594135 17.294373
60.56319 -41.571369 16.1831
54.511589 -45.658714 26.740711
54.67802 -44.829865 24.654358
55.387432 -44.796398 22.204821
52.633156 -46.000935 22.153717
54.174011 -45.303375 21.310513
56.198456 -44.481812 19.95927
56.770851 -43.740383 17.922298
39.340649 -20.474274 21.154415
36.736889 -23.426233 20.959335
38.422825 -25.185883 21.350491
36.27166 -25.982838 21.479628
34.270023 -26.582798 20.896976
33.090416 -29.469229 19.375254
34.314201 -31.05691 16.541988
40.542339 -33.574608 22.797573
39.319935 -34.906738 21.063532
38.484169 -35.526146 18.629526
43.235943 -36.298649 14.977324
40.562733 -35.988121 15.255341
38.18927 -35.171604 15.958409
38.441208 -33.914436 13.597738
44.635292 -28.26952 37.97427
45.143303 -27.764868 38.019732
57.630762 -19.961779 27.01577
57.967495 -20.185265 26.15849
39.168841 -32.32515 38.434671
39.812828 -31.791866 38.369026
38.974458 -31.205474 38.009054
44.54908 -47.621775 37.5793
43.560469 -47.37846 37.174381
45.490465 -47.934906 37.858383
44.776308 -47.092516 36.704544
44.54908 -47.621775 37.5793
46.451908 -48.19043 38.153568
45.490465 -47.934906 37.858383
57.483959 -20.406775 19.726361
57.981516 -19.905386 18.728055
58.070692 -43.801285 19.564366
58.99827 -43.273439 18.970591
58.66069 -43.54973 20.035228
52.592613 -47.498524 24.460617
52.994967 -47.403845 25.114108
52.89847 -47.984636 25.409741
52.411209 -44.674463 17.932266
52.760967 -45.197567 18.668
53.315597 -44.181753 17.600972
52.411209 -44.674463 17.932266
46.261727 -26.253578 37.416776
46.706568 -25.640028 37.539078
54.360361 -18.666826 17.730601
53.33264 -18.670572 18.00069
53.617052 -20.527539 32.492434
53.415087 -20.015372 33.244202
53.969713 -21.810244 32.465414
54.349621 -21.170364 32.097263
53.617052 -20.527539 32.492434
48.989784 -35.272822 14.377431
50.503969 -35.15227 14.576568
58.594566 -20.721483 23.699062
58.551948 -20.98796 22.897754
50.453798 -25.213766 36.388466
50.008268 -23.882675 36.061304
49.716133 -24.48237 36.555689
49.187393 -27.776943 37.847732
48.603807 -26.440311 37.326102
48.217779 -27.103046 37.53734
53.837485 -47.114897 35.784353
53.628189 -47.089392 36.632805
53.695075 -47.263489 34.841047
53.088608 -46.349112 35.4104
53.837485 -47.114897 35.784353
54.226203 -49.582094 27.662033
54.780778 -49.237605 28.355121
54.77527 -49.919907 28.385185
53.811544 -49.091873 26.974169
54.226203 -49.582094 27.662033
32.581551 -28.903228 16.479333
32.25041 -27.941401 17.70099
33.615322 -29.525676 16.136899
32.581551 -28.903228 16.479333
51.395834 -36.176218 17.07778
49.98377 -36.291637 17.038754
49.752114 -36.859354 18.176407
63.387575 -33.493234 14.398606
62.087317 -33.725426 15.015146
63.875002 -34.117859 14.508423
63.387575 -33.493234 14.398606
64.832459 -36.338325 14.663977
64.659629 -35.486347 14.62715
64.463112 -35.960815 15.472632
64.432175 -37.352838 14.674523
64.832459 -36.338325 14.663977
62.607136 -39.85285 14.868803
63.354844 -39.080925 14.68675
63.17014 -39.500341 15.543582
61.722447 -40.404488 15.262038
62.607136 -39.85285 14.868803
41.830719 -30.453314 38.085325
42.564974 -29.913061 38.075458
40.633682 -46.240579 36.133661
39.669315 -45.870494 35.559393
40.387287 -47.008188 36.554928
49.156782 -48.621559 38.800967
48.463764 -47.985237 37.596464
48.316919 -48.504173 38.596264
49.930849 -48.717875 39.023398
49.156782 -48.621559 38.800967
46.096262 -18.860889 18.564878
45.233925 -18.849637 18.657474
55.248974 -20.468907 17.386356
56.309023 -20.425206 17.653565
54.017075 -21.485664 17.654846
54.226719 -20.789093 16.983581
55.248974 -20.468907 17.386356
33.348419 -34.414037 39.771479
33.914203 -33.520513 39.731607
32.925899 -35.293688 39.987129
33.609814 -35.197563 39.201578
33.348419 -34.414037 39.771479
56.56159 -19.758937 29.409978
56.051969 -20.544545 29.897182
56.774713 -20.579086 28.833083
56.820568 -19.034292 28.911072
56.56159 -19.758937 29.409978
51.664114 -23.027929 34.271546
51.574122 -21.68861 34.280527
51.130466 -22.206694 34.810182
59.699635 -42.17683 16.468103
60.239908 -41.875127 16.886833
59.376352 -42.480588 17.171836
59.863775 -41.589176 15.890096
59.699635 -42.17683 16.468103
52.328205 -46.186575 21.591658
52.317274 -46.579456 22.507272
56.206543 -43.194149 16.886435
55.180537 -43.120012 16.657654
36.563137 -31.876272 14.323189
35.613994 -31.060704 15.018853
35.263343 -31.872478 15.846324
44.789537 -35.542866 13.865379
44.591271 -36.264723 15.059945
46.144865 -35.50894 13.948
40.682455 -35.33958 14.003732
42.036101 -35.455337 13.864487
42.155822 -34.806797 12.612878
45.510929 -27.246741 37.786808
45.920056 -26.755284 37.662479
45.883686 -28.531011 37.878068
45.510929 -27.246741 37.786808
45.143303 -27.764868 38.019732
52.780743 -20.502392 33.52211
53.415087 -20.015372 33.244202
58.211472 -20.264717 25.386733
58.599585 -20.568677 24.457375
57.645325 -21.331364 26.309109
58.211472 -20.264717 25.386733
57.967495 -20.185265 26.15849
49.309974 -25.12771 36.818497
49.716133 -24.48237 36.555689
50.720695 -47.658283 37.819134
50.091985 -46.789608 37.060406
50.032728 -47.422333 37.62262
51.529649 -47.811897 37.918524
50.720695 -47.658283 37.819134
52.401026 -48.022799 38.087452
51.651329 -47.236459 37.425848
51.529649 -47.811897 37.918524
55.173052 -48.952354 33.178967
54.48048 -48.152901 34.098059
55.271082 -48.993355 31.901315
55.173052 -48.952354 33.178967
55.385243 -49.02305 30.751365
54.63117 -48.306223 31.831167
55.271082 -48.993355 31.901315
55.677499 -49.6428 29.949894
55.037588 -48.955668 29.879745
55.385243 -49.02305 30.751365
55.310961 -50.261787 29.236993
55.677499 -49.6428 29.949894
54.77527 -49.919907 28.385185
55.310961 -50.261787 29.236993
32.625927 -27.93119 18.491499
32.25041 -27.941401 17.70099
54.385858 -35.861469 17.144742
52.962114 -36.026114 17.061688
52.587921 -36.57929 18.298488
56.279801 -35.059276 16.041838
54.385858 -35.861469 17.144742
55.905607 -35.612454 17.278638
58.234965 -34.276167 15.123188
56.279801 -35.059276 16.041838
59.484064 -34.143064 15.480224
58.234965 -34.276167 15.123188
60.732412 -34.007385 15.71782
59.484064 -34.143064 15.480224
59.047897 -34.674582 16.413329
61.65115 -34.256943 15.948252
62.087317 -33.725426 15.015146
60.732412 -34.007385 15.71782
40.450212 -31.361342 38.301479
41.130556 -30.867261 38.20484
40.644594 -32.481018 38.727097
40.450212 -31.361342 38.301479
39.812828 -31.791866 38.369026
42.562455 -47.018011 36.881459
41.595274 -46.71838 36.484406
42.836909 -46.418936 36.132538
42.562455 -47.018011 36.881459
43.560469 -47.37846 37.174381
47.405012 -48.421532 38.357636
46.670797 -47.636749 37.187694
46.451908 -48.19043 38.153568
48.316919 -48.504173 38.596264
47.405012 -48.421532 38.357636
50.01836 -19.633895 17.754162
50.085825 -18.629418 18.830714
51.17156 -18.643421 18.549569
57.15855 -20.089535 18.17913
57.981516 -19.905386 18.728055
55.888857 -20.829808 18.583185
56.309023 -20.425206 17.653565
57.15855 -20.089535 18.17913
55.226913 -20.512908 30.805981
54.817358 -19.900048 31.350189
56.043171 -21.151238 30.422853
55.226913 -20.512908 30.805981
55.68188 -21.878785 30.766458
56.506937 -21.910423 29.85766
56.051969 -20.544545 29.897182
56.043171 -21.151238 30.422853
59.162449 -42.85194 18.045147
59.752447 -42.600386 18.51601
58.99827 -43.273439 18.970591
59.376352 -42.480588 17.171836
59.162449 -42.85194 18.045147
52.629114 -45.63431 19.590595
52.595422 -45.948234 20.582698
53.299444 -45.087511 19.213204
52.629114 -45.63431 19.590595
52.760967 -45.197567 18.668
54.183664 -43.746733 17.132672
54.299364 -44.215747 17.822308
53.315597 -44.181753 17.600972
55.180537 -43.120012 16.657654
54.183664 -43.746733 17.132672
42.119924 -19.963229 19.173262
42.562591 -18.963923 20.083607
43.508268 -18.838614 19.373191
42.40484 -33.890398 11.529799
42.155822 -34.806797 12.612878
41.07159 -33.765941 11.649822
42.40484 -33.890398 11.529799
47.284424 -26.387943 37.084725
46.706568 -25.640028 37.539078
47.868009 -27.724575 37.606355
48.217779 -27.103046 37.53734
47.284424 -26.387943 37.084725
46.592983 -27.511178 37.399442
46.261727 -26.253578 37.416776
45.920056 -26.755284 37.662479
39.174095 -47.247451 36.635599
38.41563 -46.155931 35.662071
38.166805 -46.765279 36.317011
40.256645 -47.628114 37.220432
39.174095 -47.247451 36.635599
40.387287 -47.008188 36.554928
40.256645 -47.628114 37.220432
52.265934 -18.604264 18.31766
51.17156 -18.643421 18.549569
52.170801 -19.714206 17.156047
52.265934 -18.604264 18.31766
53.33264 -18.670572 18.00069
56.46707 -21.804988 22.176818
57.021524 -21.046401 21.019491
57.675079 -21.078001 21.5013
54.431292 -20.564057 31.636934
54.817358 -19.900048 31.350189
54.783952 -21.846763 31.609915
54.431292 -20.564057 31.636934
54.349621 -21.170364 32.097263
47.603904 -35.413002 14.146505
47.332477 -36.090617 15.373492
48.989784 -35.272822 14.377431
46.144865 -35.50894 13.948
47.603904 -35.413002 14.146505
33.375841 -39.178901 37.563229
33.96278 -38.463369 37.540211
33.330095 -38.274908 38.386093
33.533358 -40.161257 36.834415
33.375841 -39.178901 37.563229
33.860008 -41.176032 36.257059
34.335177 -40.382137 36.13999
33.533358 -40.161257 36.834415
34.283808 -42.125515 35.725071
33.860008 -41.176032 36.257059
34.892498 -43.197465 35.451572
35.270517 -42.468863 35.289135
34.283808 -42.125515 35.725071
35.536312 -44.280506 35.244509
34.892498 -43.197465 35.451572
36.300878 -45.346979 35.408432
36.643774 -44.607286 35.179559
35.536312 -44.280506 35.244509
37.127895 -46.426509 35.93412
36.300878 -45.346979 35.408432
38.166805 -46.765279 36.317011
37.127895 -46.426509 35.93412
58.172629 -21.04804 22.216706
57.675079 -21.078001 21.5013
57.499945 -21.776508 23.339676
58.172629 -21.04804 22.216706
58.551948 -20.98796 22.897754
57.884283 -21.563621 24.779038
58.594566 -20.721483 23.699062
58.599585 -20.568677 24.457375
50.648497 -22.741408 35.147262
51.130466 -22.206694 34.810182
50.411234 -23.275437 35.693703
50.008268 -23.882675 36.061304
50.983196 -24.080042 35.347641
50.648497 -22.741408 35.147262
50.411234 -23.275437 35.693703
49.015854 -25.778084 37.195318
48.603807 -26.440311 37.326102
49.867542 -26.463835 37.259673
49.309974 -25.12771 36.818497
49.015854 -25.778084 37.195318
53.267376 -48.330588 37.636747
52.401026 -48.022799 38.087452
53.274033 -47.712812 37.25334
53.267376 -48.330588 37.636747
53.298136 -46.914108 37.246872
52.546808 -46.648657 37.588308
53.274033 -47.712812 37.25334
52.900965 -46.025236 36.967773
53.298136 -46.914108 37.246872
53.628189 -47.089392 36.632805
53.731604 -47.387116 33.724106
53.695075 -47.263489 34.841047
54.48048 -48.152901 34.098059
53.3461 -48.586956 26.189801
53.766267 -48.394875 26.8476
53.811544 -49.091873 26.974169
52.89847 -47.984636 25.409741
53.3461 -48.586956 26.189801
50.172924 -35.779469 15.772272
48.529203 -36.462604 16.8709
49.98377 -36.291637 17.038754
50.503969 -35.15227 14.576568
50.172924 -35.779469 15.772272
51.395834 -36.176218 17.07778
52.962114 -36.026114 17.061688
64.517117 -34.684786 14.603537
63.875002 -34.117859 14.508423
63.648168 -34.54191 15.340692
64.517117 -34.684786 14.603537
64.659629 -35.486347 14.62715
64.073128 -38.310649 14.600557
64.432175 -37.352838 14.674523
64.276894 -37.770605 15.435493
64.073128 -38.310649 14.600557
63.354844 -39.080925 14.68675
43.259787 -29.417321 37.947246
43.913227 -28.860512 38.000822
43.377117 -30.726861 38.292309
43.259787 -29.417321 37.947246
42.564974 -29.913061 38.075458
41.982141 -31.636548 38.540036
41.830719 -30.453314 38.085325
41.130556 -30.867261 38.20484
40.877302 -45.580686 35.488871
40.633682 -46.240579 36.133661
41.595274 -46.71838 36.484406
49.982532 -48.196815 38.091257
50.032728 -47.422333 37.62262
49.353822 -47.328141 37.332529
49.982532 -48.196815 38.091257
49.930849 -48.717875 39.023398
44.314608 -18.886509 18.877345
43.508268 -18.838614 19.373191
43.984918 -19.801047 18.242976
44.314608 -18.886509 18.877345
45.233925 -18.849637 18.657474
49.05605 -18.676752 18.773307
50.085825 -18.629418 18.830714
48.022075 -18.690564 18.791678
49.05605 -18.676752 18.773307
47.898651 -19.633704 18.053679
47.076482 -18.802559 18.58935
48.022075 -18.690564 18.791678
45.884456 -19.705846 18.047578
46.096262 -18.860889 18.564878
47.076482 -18.802559 18.58935
54.348062 -19.776425 16.777085
54.360361 -18.666826 17.730601
53.116163 -20.793183 17.045574
54.348062 -19.776425 16.777085
54.226719 -20.789093 16.983581
56.27595 -21.133762 20.401879
57.483959 -20.406775 19.726361
57.021524 -21.046401 21.019491
38.104182 -30.835189 38.437574
38.974458 -31.205474 38.009054
37.366783 -31.425536 38.402727
38.104182 -30.835189 38.437574
36.733526 -32.054345 38.382204
37.697214 -32.367567 38.054176
37.366783 -31.425536 38.402727
36.085949 -32.783907 38.414555
36.733526 -32.054345 38.382204
35.533111 -33.561396 38.422699
36.511119 -33.773865 38.041798
36.085949 -32.783907 38.414555
34.570137 -33.444676 38.890692
33.914203 -33.520513 39.731607
34.995307 -34.434633 38.517935
35.533111 -33.561396 38.422699
34.570137 -33.444676 38.890692
32.512834 -36.267183 40.215722
32.925899 -35.293688 39.987129
32.812397 -36.989126 39.714343
32.512834 -36.267183 40.215722
33.177267 -37.730207 39.187266
33.552164 -36.818295 38.890152
32.812397 -36.989126 39.714343
33.330095 -38.274908 38.386093
33.177267 -37.730207 39.187266
57.276107 -18.460111 28.360658
56.820568 -19.034292 28.911072
57.446934 -19.263044 27.642426
57.276107 -18.460111 28.360658
57.217519 -20.553176 27.707521
57.630762 -19.961779 27.01577
57.446934 -19.263044 27.642426
52.216055 -21.173606 33.962763
51.574122 -21.68861 34.280527
52.672456 -21.838632 33.301237
52.780743 -20.502392 33.52211
52.216055 -21.173606 33.962763
44.793995 -29.64013 38.137545
44.635292 -28.26952 37.97427
43.913227 -28.860512 38.000822
60.792825 -41.054039 15.49077
61.722447 -40.404488 15.262038
61.492811 -40.921818 15.954368
60.792825 -41.054039 15.49077
59.863775 -41.589176 15.890096
52.345251 -47.037855 23.512906
52.592613 -47.498524 24.460617
52.661133 -46.459333 23.159351
52.345251 -47.037855 23.512906
52.317274 -46.579456 22.507272
52.900374 -45.762594 21.144758
52.328205 -46.186575 21.591658
52.595422 -45.948234 20.582698
57.303364 -44.003403 19.229499
58.070692 -43.801285 19.564366
56.965784 -44.279694 20.294136
57.589562 -43.632689 18.211013
57.303364 -44.003403 19.229499
56.484654 -44.111097 18.940784
57.803465 -43.261337 17.337702
57.589562 -43.632689 18.211013
57.008253 -43.173977 17.17058
55.969141 -43.760555 17.638153
56.206543 -43.194149 16.886435
57.803465 -43.261337 17.337702
57.008253 -43.173977 17.17058
41.565361 -18.913129 20.647778
42.562591 -18.963923 20.083607
40.648561 -19.105996 21.283146
41.565361 -18.913129 20.647778
40.257448 -20.281407 20.519047
39.561575 -19.151351 21.595069
40.648561 -19.105996 21.283146
38.314368 -20.608443 21.38934
39.561575 -19.151351 21.595069
37.012487 -22.084422 21.291801
38.314368 -20.608443 21.38934
38.038769 -21.950254 21.056875
35.762226 -23.583959 20.851765
37.012487 -22.084422 21.291801
34.528793 -25.162242 20.820586
35.762226 -23.583959 20.851765
35.503456 -25.004516 20.928155
33.499731 -26.665731 20.225795
34.528793 -25.162242 20.820586
32.909927 -28.108946 19.464934
33.499731 -26.665731 20.225795
33.680219 -28.026013 20.136115
32.806415 -29.291473 18.401819
32.625927 -27.93119 18.491499
32.909927 -28.108946 19.464934
34.511215 -30.497272 15.693702
33.615322 -29.525676 16.136899
33.418308 -30.085314 16.985186
35.811008 -30.501067 14.170567
34.511215 -30.497272 15.693702
35.613994 -31.060704 15.018853
43.372705 -35.610602 13.725478
44.789537 -35.542866 13.865379
41.899338 -36.143385 15.116332
43.372705 -35.610602 13.725478
42.036101 -35.455337 13.864487
39.891106 -33.37764 12.072629
39.621693 -34.302738 13.17493
41.07159 -33.765941 11.649822
38.767708 -33.007791 12.663288
39.891106 -33.37764 12.072629
37.653347 -32.394596 13.439749
37.326847 -33.301241 14.374199
38.767708 -33.007791 12.663288
36.563137 -31.876272 14.323189
37.653347 -32.394596 13.439749
3 498 125 499
3 0 128 126
3 0 130 128
3 1 133 131
3 4 136 134
3 4 138 136
3 5 141 139
3 5 143 141
3 2 146 144
3 6 149 147
3 6 151 149
3 6 153 151
3 3 156 154
3 500 158 501
3 9 161 159
3 9 163 161
3 11 169 167
3 13 172 170
3 13 173 172
3 13 174 173
3 14 177 175
3 14 179 177
3 15 502 504
3 502 181 503
3 502 503 504
3 17 184 182
3 17 186 184
3 7 189 187
3 505 191 506
3 507 193 508
3 509 508 191
3 507 508 509
3 511 510 193
3 19 197 195
3 19 199 197
3 512 200 513
3 20 203 201
3 20 205 203
3 20 207 205
3 21 210 208
3 21 212 210
3 22 214 213
3 22 216 214
3 8 219 217
3 23 222 220
3 23 224 222
3 23 226 224
3 24 229 227
3 24 231 229
3 16 234 232
3 25 237 235
3 25 239 237
3 10 242 240
3 26 245 243
3 26 247 245
3 26 249 247
3 27 252 250
3 27 254 252
3 27 256 254
3 28 259 257
3 28 514 516
3 516 515 259
3 514 515 516
3 517 263 518
3 519 518 261
3 517 518 519
3 520 265 521
3 523 522 265
3 18 269 267
3 29 272 270
3 29 274 272
3 12 277 275
3 524 278 525
3 31 279 124
3 31 280 279
3 32 283 281
3 34 284 127
3 34 285 284
3 34 287 285
3 36 288 129
3 36 289 288
3 37 292 290
3 39 293 132
3 39 294 293
3 526 296 527
3 40 299 297
3 42 300 135
3 42 301 300
3 42 303 301
3 44 304 137
3 44 305 304
3 45 528 529
3 45 530 532
3 530 306 531
3 530 531 532
3 46 309 307
3 48 310 140
3 48 311 310
3 48 313 311
3 50 314 142
3 50 315 314
3 51 318 316
3 53 319 145
3 53 320 319
3 54 323 321
3 56 324 148
3 56 325 324
3 56 327 325
3 58 328 150
3 58 329 328
3 58 331 329
3 60 332 152
3 60 333 332
3 61 336 334
3 63 337 155
3 63 338 337
3 534 533 339
3 535 342 536
3 65 343 157
3 65 344 343
3 67 537 539
3 537 345 538
3 537 538 539
3 67 346 345
3 30 540 542
3 540 347 541
3 540 541 542
3 68 348 160
3 68 349 348
3 68 350 349
3 69 351 162
3 69 352 351
3 70 355 353
3 72 356 164
3 72 357 356
3 543 358 544
3 545 359 546
3 547 546 358
3 545 546 547
3 73 360 165
3 73 361 360
3 73 363 361
3 548 364 549
3 550 549 166
3 548 549 550
3 552 551 364
3 75 553 554
3 75 555 556
3 76 367 365
3 78 368 168
3 78 369 368
3 33 370 282
3 79 371 171
3 79 372 371
3 79 557 559
3 559 558 372
3 557 558 559
3 80 560 561
3 80 562 563
3 35 373 286
3 81 374 176
3 81 564 566
3 566 565 374
3 564 565 566
3 81 567 568
3 82 569 571
3 571 570 178
3 569 570 571
3 82 572 573
3 574 376 575
3 84 377 180
3 84 378 377
3 38 379 291
3 85 380 183
3 85 381 380
3 85 382 381
3 86 383 185
3 86 384 383
3 64 385 341
3 87 386 188
3 87 387 386
3 576 388 577
3 578 577 295
3 576 577 578
3 88 389 190
3 88 390 389
3 88 391 390
3 89 392 192
3 89 393 392
3 89 394 393
3 579 395 580
3 581 580 194
3 579 580 581
3 583 582 395
3 584 396 585
3 90 397 196
3 90 398 397
3 90 399 398
3 91 400 198
3 91 401 400
3 92 586 587
3 92 588 590
3 588 402 589
3 588 589 590
3 41 403 298
3 93 404 202
3 93 405 404
3 93 406 405
3 94 407 204
3 94 408 407
3 94 409 408
3 95 410 206
3 95 411 410
3 43 412 302
3 96 413 209
3 96 414 413
3 96 415 414
3 97 416 211
3 97 417 416
3 591 418 592
3 593 419 594
3 595 594 418
3 593 594 595
3 98 596 597
3 98 598 600
3 598 420 599
3 598 599 600
3 98 421 420
3 99 422 215
3 99 423 422
3 66 601 603
3 601 424 602
3 601 602 603
3 100 425 218
3 100 426 425
3 47 427 308
3 101 428 221
3 101 429 428
3 101 430 429
3 102 431 223
3 102 432 431
3 102 433 432
3 103 434 225
3 103 435 434
3 49 436 312
3 104 437 228
3 104 438 437
3 104 439 438
3 105 440 230
3 105 441 440
3 83 442 375
3 106 443 233
3 106 444 443
3 52 445 317
3 107 446 236
3 107 447 446
3 107 448 447
3 108 449 238
3 108 450 449
3 71 451 354
3 109 452 241
3 109 453 452
3 55 454 322
3 110 455 244
3 110 456 455
3 110 457 456
3 111 458 246
3 111 459 458
3 111 460 459
3 112 461 248
3 112 462 461
3 57 463 326
3 113 464 251
3 113 465 464
3 113 466 465
3 114 467 253
3 114 468 467
3 114 469 468
3 115 470 255
3 115 471 470
3 59 472 330
3 116 473 258
3 116 474 473
3 116 475 474
3 604 476 605
3 606 605 260
3 604 605 606
3 608 607 476
3 74 477 362
3 117 478 262
3 117 479 478
3 609 480 610
3 118 481 264
3 118 482 481
3 118 483 482
3 612 611 266
3 119 484 268
3 119 485 484
3 62 486 335
3 120 487 271
3 120 488 487
3 120 489 488
3 121 490 273
3 121 613 615
3 615 614 490
3 613 614 615
3 77 491 366
3 122 492 276
3 122 493 492
3 616 494 617
3 618 617 340
3 616 617 618
3 123 619 621
3 619 495 620
3 619 620 621
3 123 496 495
3 123 497 496
3 622 124 623
3 125 624 626
3 624 124 625
3 624 625 626
3 125 31 124
3 126 127 32
3 128 127 126
3 128 34 127
3 128 129 34
3 130 129 128
3 130 36 129
3 131 132 37
3 133 132 131
3 133 39 132
3 134 135 40
3 136 135 134
3 136 42 135
3 136 137 42
3 138 137 136
3 138 44 137
3 627 45 628
3 139 140 46
3 141 140 139
3 141 48 140
3 141 142 48
3 143 142 141
3 143 50 142
3 144 145 51
3 146 145 144
3 146 53 145
3 147 148 54
3 149 148 147
3 149 56 148
3 149 150 56
3 151 150 149
3 151 58 150
3 151 152 58
3 153 152 151
3 153 60 152
3 154 155 61
3 156 155 154
3 156 63 155
3 629 157 630
3 158 631 633
3 631 157 632
3 631 632 633
3 158 65 157
3 634 67 635
3 159 160 30
3 161 160 159
3 161 68 160
3 161 162 68
3 163 162 161
3 163 69 162
3 636 164 637
3 638 637 70
3 636 637 638
3 639 164 640
3 641 72 642
3 643 642 164
3 641 642 643
3 644 165 645
3 646 165 647
3 648 73 649
3 650 649 165
3 648 649 650
3 651 166 652
3 653 652 73
3 651 652 653
3 654 166 655
3 657 656 166
3 658 75 659
3 167 168 76
3 169 168 167
3 169 78 168
3 170 171 33
3 172 171 170
3 172 79 171
3 172 660 662
3 662 661 79
3 660 661 662
3 173 663 665
3 665 664 172
3 663 664 665
3 173 666 667
3 173 668 669
3 174 670 672
3 672 671 173
3 670 671 672
3 174 673 675
3 673 80 674
3 673 674 675
3 175 176 35
3 177 176 175
3 177 81 176
3 177 178 81
3 179 178 177
3 179 82 178
3 676 180 677
3 181 678 680
3 678 180 679
3 678 679 680
3 181 84 180
3 182 183 38
3 184 183 182
3 184 85 183
3 184 185 85
3 186 185 184
3 186 86 185
3 187 188 64
3 189 188 187
3 189 87 188
3 681 190 682
3 191 683 685
3 683 190 684
3 683 684 685
3 191 88 190
3 191 192 88
3 193 192 191
3 193 89 192
3 193 194 89
3 686 194 687
3 688 687 193
3 686 687 688
3 690 689 194
3 195 691 693
3 691 196 692
3 691 692 693
3 197 196 195
3 197 90 196
3 197 198 90
3 199 198 197
3 199 91 198
3 200 694 695
3 200 696 698
3 696 92 697
3 696 697 698
3 201 202 41
3 203 202 201
3 203 93 202
3 203 204 93
3 205 204 203
3 205 94 204
3 205 206 94
3 207 206 205
3 207 95 206
3 208 209 43
3 210 209 208
3 210 96 209
3 210 211 96
3 212 211 210
3 212 97 211
3 213 699 700
3 214 701 703
3 703 702 213
3 701 702 703
3 214 704 706
3 704 98 705
3 704 705 706
3 214 215 98
3 216 215 214
3 216 99 215
3 217 218 66
3 219 218 217
3 219 100 218
3 220 221 47
3 222 221 220
3 222 101 221
3 222 223 101
3 224 223 222
3 224 102 223
3 224 225 102
3 226 225 224
3 226 103 225
3 227 228 49
3 229 228 227
3 229 104 228
3 229 230 104
3 231 230 229
3 231 105 230
3 232 233 83
3 234 233 232
3 234 106 233
3 235 236 52
3 237 236 235
3 237 107 236
3 237 238 107
3 239 238 237
3 239 108 238
3 240 241 71
3 242 241 240
3 242 109 241
3 243 244 55
3 245 244 243
3 245 110 244
3 245 246 110
3 247 246 245
3 247 111 246
3 247 248 111
3 249 248 247
3 249 112 248
3 250 251 57
3 252 251 250
3 252 113 251
3 252 253 113
3 254 253 252
3 254 114 253
3 254 255 114
3 256 255 254
3 256 115 255
3 257 258 59
3 259 258 257
3 259 116 258
3 259 260 116
3 707 260 708
3 709 708 259
3 707 708 709
3 711 710 260
3 261 262 74
3 263 262 261
3 263 117 262
3 712 264 713
3 265 714 716
3 714 264 715
3 714 715 716
3 265 118 264
3 265 266 118
3 717 266 718
3 719 718 265
3 717 718 719
3 721 720 266
3 267 722 724
3 722 268 723
3 722 723 724
3 269 268 267
3 269 119 268
3 270 271 62
3 272 271 270
3 272 120 271
3 272 273 120
3 274 273 272
3 274 121 273
3 275 276 77
3 277 276 275
3 277 122 276
3 725 123 726
3 728 727 123
3 278 729 730
3 278 731 733
3 731 30 732
3 731 732 733
3 124 734 736
3 734 278 735
3 734 735 736
3 279 278 124
3 279 30 278
3 279 159 30
3 280 159 279
3 280 9 159
3 281 282 11
3 283 282 281
3 283 33 282
3 127 283 32
3 284 283 127
3 284 33 283
3 284 170 33
3 285 170 284
3 285 13 170
3 285 286 13
3 287 286 285
3 287 35 286
3 129 287 34
3 288 287 129
3 288 35 287
3 288 175 35
3 289 175 288
3 289 14 175
3 290 291 15
3 292 291 290
3 292 38 291
3 132 292 37
3 293 292 132
3 293 38 292
3 293 182 38
3 294 182 293
3 294 17 182
3 737 295 738
3 739 738 7
3 737 738 739
3 740 295 741
3 743 742 295
3 744 195 745
3 296 746 748
3 746 195 747
3 746 747 748
3 296 19 195
3 297 749 751
3 749 298 750
3 749 750 751
3 299 298 297
3 299 41 298
3 135 299 40
3 300 299 135
3 300 41 299
3 300 201 41
3 301 201 300
3 301 20 201
3 301 302 20
3 303 302 301
3 303 43 302
3 137 303 42
3 304 303 137
3 304 43 303
3 304 208 43
3 305 208 304
3 305 21 208
3 752 213 753
3 306 754 756
3 754 213 755
3 754 755 756
3 306 22 213
3 307 308 8
3 309 308 307
3 309 47 308
3 140 309 46
3 310 309 140
3 310 47 309
3 310 220 47
3 311 220 310
3 311 23 220
3 311 312 23
3 313 312 311
3 313 49 312
3 142 313 48
3 314 313 142
3 314 49 313
3 314 227 49
3 315 227 314
3 315 24 227
3 316 317 16
3 318 317 316
3 318 52 317
3 145 318 51
3 319 318 145
3 319 52 318
3 319 235 52
3 320 235 319
3 320 25 235
3 321 322 10
3 323 322 321
3 323 55 322
3 148 323 54
3 324 323 148
3 324 55 323
3 324 243 55
3 325 243 324
3 325 26 243
3 325 326 26
3 327 326 325
3 327 57 326
3 150 327 56
3 328 327 150
3 328 57 327
3 328 250 57
3 329 250 328
3 329 27 250
3 329 330 27
3 331 330 329
3 331 59 330
3 152 331 58
3 332 331 152
3 332 59 331
3 332 257 59
3 333 257 332
3 333 28 257
3 334 335 18
3 336 335 334
3 336 62 335
3 155 336 61
3 337 336 155
3 337 62 336
3 337 270 62
3 338 270 337
3 338 29 270
3 339 340 12
3 757 340 758
3 759 758 339
3 757 758 759
3 761 760 340
3 762 341 763
3 764 763 1
3 762 763 764
3 765 341 766
3 767 64 768
3 769 768 341
3 767 768 769
3 770 64 771
3 772 187 773
3 774 773 64
3 772 773 774
3 775 187 776
3 777 7 778
3 779 778 187
3 777 778 779
3 780 7 781
3 783 782 7
3 784 297 785
3 342 786 788
3 786 297 787
3 786 787 788
3 342 40 297
3 157 789 791
3 789 342 790
3 789 790 791
3 343 342 157
3 343 40 342
3 343 134 40
3 344 134 343
3 344 4 134
3 792 66 793
3 345 794 795
3 345 796 798
3 796 66 797
3 796 797 798
3 345 217 66
3 346 217 345
3 346 8 217
3 347 799 800
3 347 801 803
3 801 67 802
3 801 802 803
3 160 347 30
3 348 347 160
3 348 67 347
3 348 346 67
3 349 346 348
3 349 8 346
3 349 307 8
3 350 307 349
3 350 46 307
3 162 350 68
3 351 350 162
3 351 46 350
3 351 139 46
3 352 139 351
3 352 5 139
3 353 354 2
3 355 354 353
3 355 71 354
3 164 355 70
3 356 355 164
3 356 71 355
3 356 240 71
3 357 240 356
3 357 10 240
3 804 72 805
3 806 72 807
3 808 357 809
3 810 809 72
3 808 809 810
3 358 811 813
3 811 357 812
3 811 812 813
3 358 10 357
3 358 321 10
3 359 321 358
3 359 54 321
3 165 814 816
3 814 359 815
3 814 815 816
3 360 359 165
3 360 54 359
3 360 147 54
3 361 147 360
3 361 6 147
3 361 362 6
3 363 362 361
3 363 74 362
3 166 363 73
3 364 363 166
3 364 74 363
3 364 261 74
3 817 261 818
3 819 818 364
3 817 818 819
3 821 820 261
3 365 366 3
3 367 366 365
3 367 77 366
3 168 367 76
3 368 367 168
3 368 77 367
3 368 275 77
3 369 275 368
3 369 12 275
3 282 169 11
3 370 169 282
3 370 78 169
3 171 370 33
3 371 370 171
3 371 78 370
3 371 369 78
3 372 369 371
3 372 12 369
3 372 339 12
3 822 339 823
3 824 823 372
3 822 823 824
3 826 825 339
3 828 827 79
3 286 174 13
3 373 174 286
3 373 80 174
3 176 373 35
3 374 373 176
3 374 80 373
3 374 829 831
3 831 830 80
3 829 830 831
3 833 832 374
3 178 834 836
3 836 835 81
3 834 835 836
3 838 837 178
3 839 375 840
3 376 841 843
3 841 375 842
3 841 842 843
3 376 83 375
3 180 844 846
3 844 376 845
3 844 845 846
3 377 376 180
3 377 83 376
3 377 232 83
3 378 232 377
3 378 16 232
3 291 181 15
3 379 181 291
3 379 84 181
3 183 379 38
3 380 379 183
3 380 84 379
3 380 378 84
3 381 378 380
3 381 16 378
3 381 316 16
3 382 316 381
3 382 51 316
3 185 382 85
3 383 382 185
3 383 51 382
3 383 144 51
3 384 144 383
3 384 2 144
3 341 133 1
3 385 133 341
3 385 39 133
3 188 385 64
3 386 385 188
3 386 39 385
3 386 294 39
3 387 294 386
3 387 17 294
3 295 189 7
3 388 189 295
3 388 87 189
3 190 847 849
3 847 388 848
3 847 848 849
3 389 388 190
3 389 87 388
3 389 387 87
3 390 387 389
3 390 17 387
3 390 186 17
3 391 186 390
3 391 86 186
3 192 391 88
3 392 391 192
3 392 86 391
3 392 384 86
3 393 384 392
3 393 2 384
3 393 353 2
3 394 353 393
3 394 70 353
3 194 394 89
3 395 394 194
3 395 70 394
3 395 850 852
3 852 851 70
3 850 851 852
3 854 853 395
3 855 267 856
3 396 857 859
3 857 267 858
3 857 858 859
3 396 18 267
3 196 860 861
3 397 862 864
3 864 863 196
3 862 863 864
3 397 865 866
3 397 867 869
3 867 396 868
3 867 868 869
3 398 396 397
3 398 18 396
3 398 334 18
3 399 334 398
3 399 61 334
3 198 399 90
3 400 399 198
3 400 61 399
3 400 154 61
3 401 154 400
3 401 3 154
3 870 296 871
3 402 872 874
3 872 296 873
3 872 873 874
3 402 19 296
3 298 875 877
3 875 200 876
3 875 876 877
3 403 200 298
3 403 92 200
3 202 403 41
3 404 403 202
3 404 92 403
3 404 402 92
3 405 402 404
3 405 19 402
3 405 199 19
3 406 199 405
3 406 91 199
3 204 406 93
3 407 406 204
3 407 91 406
3 407 401 91
3 408 401 407
3 408 3 401
3 408 365 3
3 409 365 408
3 409 76 365
3 206 409 94
3 410 409 206
3 410 76 409
3 410 167 76
3 411 167 410
3 411 11 167
3 302 207 20
3 412 207 302
3 412 95 207
3 209 412 43
3 413 412 209
3 413 95 412
3 413 411 95
3 414 411 413
3 414 11 411
3 414 281 11
3 415 281 414
3 415 32 281
3 211 415 96
3 416 415 211
3 416 32 415
3 416 126 32
3 417 126 416
3 417 0 126
3 878 15 879
3 880 15 881
3 882 290 883
3 884 883 15
3 882 883 884
3 885 290 886
3 887 37 888
3 889 888 290
3 887 888 889
3 418 890 891
3 418 892 894
3 892 37 893
3 892 893 894
3 418 131 37
3 419 131 418
3 419 1 131
3 895 419 896
3 897 419 898
3 899 1 900
3 901 900 419
3 899 900 901
3 903 902 1
3 420 904 905
3 420 906 907
3 420 908 910
3 908 158 909
3 908 909 910
3 421 158 420
3 421 65 158
3 215 421 98
3 422 421 215
3 422 65 421
3 422 344 65
3 423 344 422
3 423 4 344
3 424 911 912
3 424 913 915
3 913 45 914
3 913 914 915
3 218 424 66
3 425 424 218
3 425 45 424
3 425 306 45
3 426 306 425
3 426 22 306
3 308 219 8
3 427 219 308
3 427 100 219
3 221 427 47
3 428 427 221
3 428 100 427
3 428 426 100
3 429 426 428
3 429 22 426
3 429 216 22
3 430 216 429
3 430 99 216
3 223 430 101
3 431 430 223
3 431 99 430
3 431 423 99
3 432 423 431
3 432 4 423
3 432 138 4
3 433 138 432
3 433 44 138
3 225 433 102
3 434 433 225
3 434 44 433
3 434 305 44
3 435 305 434
3 435 21 305
3 312 226 23
3 436 226 312
3 436 103 226
3 228 436 49
3 437 436 228
3 437 103 436
3 437 435 103
3 438 435 437
3 438 21 435
3 438 212 21
3 439 212 438
3 439 97 212
3 230 439 104
3 440 439 230
3 440 97 439
3 440 417 97
3 441 417 440
3 441 0 417
3 375 916 918
3 916 125 917
3 916 917 918
3 442 125 375
3 442 31 125
3 233 442 83
3 443 442 233
3 443 31 442
3 443 280 31
3 444 280 443
3 444 9 280
3 317 234 16
3 445 234 317
3 445 106 234
3 236 445 52
3 446 445 236
3 446 106 445
3 446 444 106
3 447 444 446
3 447 9 444
3 447 163 9
3 448 163 447
3 448 69 163
3 238 448 107
3 449 448 238
3 449 69 448
3 449 352 69
3 450 352 449
3 450 5 352
3 354 146 2
3 451 146 354
3 451 53 146
3 241 451 71
3 452 451 241
3 452 53 451
3 452 320 53
3 453 320 452
3 453 25 320
3 322 242 10
3 454 242 322
3 454 109 242
3 244 454 55
3 455 454 244
3 455 109 454
3 455 453 109
3 456 453 455
3 456 25 453
3 456 239 25
3 457 239 456
3 457 108 239
3 246 457 110
3 458 457 246
3 458 108 457
3 458 450 108
3 459 450 458
3 459 5 450
3 459 143 5
3 460 143 459
3 460 50 143
3 248 460 111
3 461 460 248
3 461 50 460
3 461 315 50
3 462 315 461
3 462 24 315
3 326 249 26
3 463 249 326
3 463 112 249
3 251 463 57
3 464 463 251
3 464 112 463
3 464 462 112
3 465 462 464
3 465 24 462
3 465 231 24
3 466 231 465
3 466 105 231
3 253 466 113
3 467 466 253
3 467 105 466
3 467 441 105
3 468 441 467
3 468 0 441
3 468 130 0
3 469 130 468
3 469 36 130
3 255 469 114
3 470 469 255
3 470 36 469
3 470 289 36
3 471 289 470
3 471 14 289
3 330 256 27
3 472 256 330
3 472 115 256
3 258 472 59
3 473 472 258
3 473 115 472
3 473 471 115
3 474 471 473
3 474 14 471
3 474 179 14
3 475 179 474
3 475 82 179
3 260 475 116
3 476 475 260
3 476 82 475
3 476 919 921
3 921 920 82
3 919 920 921
3 923 922 476
3 362 153 6
3 477 153 362
3 477 60 153
3 262 477 74
3 478 477 262
3 478 60 477
3 478 333 60
3 479 333 478
3 479 28 333
3 924 263 925
3 480 926 928
3 926 263 927
3 926 927 928
3 480 117 263
3 264 929 931
3 929 480 930
3 929 930 931
3 481 480 264
3 481 117 480
3 481 479 117
3 482 479 481
3 482 28 479
3 482 932 934
3 934 933 28
3 932 933 934
3 483 935 937
3 937 936 482
3 935 936 937
3 483 938 939
3 266 483 118
3 940 483 941
3 942 941 266
3 940 941 942
3 944 943 483
3 268 945 946
3 484 947 949
3 949 948 268
3 947 948 949
3 484 950 951
3 484 952 953
3 485 954 956
3 956 955 484
3 954 955 956
3 485 957 958
3 335 269 18
3 486 269 335
3 486 119 269
3 271 486 62
3 487 486 271
3 487 119 486
3 487 485 119
3 488 485 487
3 488 959 961
3 961 960 485
3 959 960 961
3 488 962 963
3 489 964 966
3 966 965 488
3 964 965 966
3 489 967 969
3 967 75 968
3 967 968 969
3 273 489 120
3 490 489 273
3 490 75 489
3 490 970 972
3 972 971 75
3 970 971 972
3 975 974 490
3 973 974 975
3 366 156 3
3 491 156 366
3 491 63 156
3 276 491 77
3 492 491 276
3 492 63 491
3 492 338 63
3 493 338 492
3 493 29 338
3 340 277 12
3 494 277 340
3 494 122 277
3 976 494 977
3 495 978 980
3 978 494 979
3 978 979 980
3 495 122 494
3 495 493 122
3 496 493 495
3 496 29 493
3 496 274 29
3 497 274 496
3 497 121 274
3 981 497 982
3 983 982 123
3 981 982 983
3 984 497 985
3 986 121 987
3 988 987 497
3 986 987 988
3 990 989 121
