ply
format ascii 1.0
element vertex 527
property float x
property float y
property float z
element face 631
property list uchar int vertex_index
end_header
32.233452 19.472685 47.819622
25.001312 0.22698 46.46093
38.189064 1.239062 48.063766
38.712078 16.006809 38.799934
25.883656 15.534025 42.759014
27.09197 24.786987 39.419785
32.927982 27.941507 44.365597
37.694775 24.266035 38.068844
39.631126 21.129885 46.466625
30.882137 9.031348 50.899872
37.300407 9.90555 55.842175
30.883862 0.303239 48.370781
39.986675 19.290058 32.024673
32.792542 10.790332 31.196598
38.930523 9.568589 46.578194
37.59893 3.879847 37.6036
29.537327 17.083895 44.952553
25.672781 20.04714 41.165459
28.930075 22.14253 44.231514
29.813074 26.432714 42.332527
32.009499 23.801746 47.009296
35.716049 25.141949 46.91753
35.468468 20.669329 48.525143
24.065027 4.436522 47.082287
27.306921 8.132163 46.678162
27.782267 4.504841 49.258892
29.522898 3.747548 53.013458
27.866779 -0.885467 47.539742
39.937862 20.831179 39.233547
40.865883 22.526661 35.225063
37.538685 18.546803 35.555542
34.891224 16.446589 31.749811
35.51545 13.611949 35.044235
38.226624 4.613628 54.587868
39.653637 10.665075 51.999748
40.578278 5.573825 50.725883
26.244892 -6.441262 44.568195
36.488853 27.538336 42.7286
37.391754 22.293522 42.495457
42.191471 18.910946 42.495022
42.271255 1.80854 47.22575
29.173151 12.494644 46.355003
32.125267 14.376673 49.398907
35.11261 14.926643 51.712898
33.550575 9.451687 54.880608
33.877605 3.987911 55.547985
34.461292 1.199031 48.992176
29.844477 -5.676723 44.623619
33.245583 -3.946266 44.137585
33.076061 13.908754 27.471045
39.533714 15.895287 50.885258
41.904106 14.958244 46.859795
39.615135 12.77924 42.98587
39.968208 4.887565 45.159386
37.691387 7.186373 42.123672
37.015011 10.032104 38.588158
34.872707 6.954746 35.020901
35.073273 3.81203 30.949909
30.96578 18.319218 46.376472
28.937841 19.686834 44.552315
30.166607 20.883251 46.112011
30.382013 23.098635 45.672462
31.659893 21.629713 47.634666
33.474922 22.411846 48.274956
33.557034 20.311359 48.688129
24.467377 2.415619 47.024384
26.175238 4.423132 47.492332
26.227657 2.429679 47.73922
27.247662 1.840461 49.076866
26.463684 -0.342381 46.77824
39.922508 18.40295 39.207512
39.136459 19.540867 37.42881
37.809418 17.172672 37.391575
36.227348 16.055698 35.562943
36.959717 14.60981 36.906471
37.872276 2.906103 51.38689
40.057369 5.070428 52.980843
39.870071 2.910118 50.632484
23.399122 17.655937 42.28455
26.337595 22.407084 40.425621
24.094799 21.949615 39.898384
25.07328 24.209686 38.809364
31.188686 27.446127 43.713722
33.743896 28.700104 42.238411
34.90152 28.231192 44.016243
37.105961 22.947029 46.475666
36.757259 24.283001 44.913364
38.507401 21.643711 44.568825
40.167671 20.753309 42.598156
41.403603 20.279444 44.55864
29.145168 8.460951 48.63731
28.497869 10.078346 46.601166
30.277798 10.73878 48.623795
30.596167 13.30575 47.980061
31.817236 11.604774 50.471088
33.061161 12.140186 52.456409
32.269592 9.139193 53.120789
30.240351 1.332998 51.292652
31.162909 3.290257 54.565063
32.094505 2.102066 52.148682
34.087528 2.66516 52.680023
32.606728 0.893605 48.829292
28.185574 -6.22663 44.554256
35.206642 -3.789247 43.87809
41.035652 20.832834 33.888653
33.440804 13.890231 31.456848
33.643867 15.235501 29.682392
32.515507 12.276049 29.38084
32.638863 10.786735 27.196741
32.422569 9.043155 29.061352
36.193272 12.615404 54.221924
37.057465 15.440987 51.615227
38.29435 13.013461 53.620522
39.223743 10.072782 49.196095
40.680939 12.775554 49.306831
40.311714 12.146076 46.777306
41.027477 14.007428 44.896347
39.465462 11.087272 44.544281
41.438469 4.124799 46.794312
38.928032 2.767399 38.789795
38.651901 4.506874 41.007317
37.444462 5.691295 39.79438
37.316006 8.640751 40.464188
36.473747 7.139249 38.345592
35.800861 8.71408 36.683117
36.163643 5.368015 36.547295
27.916241 16.130945 43.647209
25.702637 17.742691 41.945141
27.53805 18.5151 42.966503
27.453466 20.819942 42.475513
28.027868 23.508213 41.941872
28.550724 25.458023 40.853935
29.415277 24.382694 43.523586
30.851883 25.321583 44.803036
32.424335 26.274921 45.910027
34.175579 27.160065 46.194595
33.966297 24.826799 47.604515
35.383526 22.889561 47.838436
37.528488 21.097095 47.978329
24.831772 8.181979 45.823792
25.791916 6.243482 46.661736
27.788294 6.36732 48.216805
29.3974 6.624177 50.320869
30.548269 6.363673 52.40559
28.635162 4.106033 51.127289
28.288227 1.083788 50.348572
29.421398 -0.419105 48.077259
38.362175 22.39291 38.498592
39.26207 23.381004 36.49575
39.706367 21.871746 37.213726
39.452187 20.619484 35.482887
38.545998 19.384094 33.729443
37.213387 18.195866 31.73695
36.326488 17.500639 33.758858
34.83205 15.143053 33.603958
34.012581 12.457707 33.055275
38.073112 7.101279 56.267067
38.983223 10.405489 54.534649
39.271568 7.593022 54.358234
39.620262 7.864711 51.599693
39.363735 7.445544 48.806679
39.74287 1.152987 36.697655
38.216095 2.413939 35.677223
23.787857 -2.568441 45.932434
25.329473 -3.024731 45.125309
23.504749 19.84795 41.08876
37.030872 25.942862 40.367851
36.196636 26.701172 45.016285
36.796272 25.337793 42.936741
37.048515 23.284931 40.231468
38.817253 21.288416 40.587738
41.191139 19.990812 40.785255
40.641426 17.310963 40.729778
39.392754 -0.610768 44.759365
40.294975 1.117989 47.735992
25.565098 13.63945 43.671703
26.246302 9.87247 45.250439
27.168915 11.844266 44.977848
27.646896 13.946114 44.419853
29.242203 14.81987 45.758156
30.95253 15.822848 47.047646
32.620708 16.949051 48.323269
34.053646 17.336329 49.513969
33.594482 14.871 51.000023
34.58849 12.638508 53.856377
35.269222 9.840284 56.04261
31.692577 6.220506 54.602959
33.278999 6.294074 56.402374
35.85321 6.798823 56.948647
36.243626 4.700461 55.666515
36.065342 2.942979 52.325298
36.260139 1.39882 48.579109
27.005405 -3.403572 45.16132
28.671824 -3.193112 45.527317
29.978626 -2.454436 45.521248
31.46818 -4.844292 44.433941
31.675714 -1.566982 45.523155
33.602882 -1.011337 45.597191
35.48624 -0.84172 45.294186
37.283085 -0.72549 44.981392
35.767292 17.405504 29.830395
35.721668 18.031982 49.501911
37.838104 18.643536 49.27837
40.112465 18.852825 48.40757
40.08041 13.211566 51.878742
41.524021 15.697243 48.999077
41.96582 18.617086 46.583504
42.421604 17.364483 44.939125
41.041664 15.999214 42.829861
39.420635 14.522342 40.628262
41.152592 3.562558 49.197899
40.130856 5.354066 47.905235
38.972557 6.664854 46.339722
40.073799 3.818419 42.459049
38.618706 5.786266 43.706985
38.31002 8.48959 44.273418
38.396786 9.917045 42.409786
38.219864 11.4676 40.86927
37.928333 13.064778 38.504017
36.438118 11.624582 36.544029
34.987659 10.474307 34.922779
33.65781 8.818113 33.131935
36.33004 3.706382 34.615421
34.549828 5.127886 33.213402
33.114933 6.922404 31.101812
33.793129 5.472736 28.874002
24.734344 1.3213 46.742657
23.826655 1.145692 47.140406
24.093622 0.051372 46.858679
24.641389 16.594981 42.521782
23.550927 16.602946 42.893826
24.793194 15.541989 43.131057
26.364047 25.32008 38.310112
25.354702 25.03143 38.004902
26.082625 24.498337 39.114575
27.305824 25.562855 38.811154
26.364047 25.32008 38.310112
32.438531 28.27212 43.136799
31.568883 28.024431 42.810862
32.058334 27.693817 44.039659
33.335939 28.320805 43.302004
32.846488 28.651419 42.073206
32.438531 28.27212 43.136799
38.116817 24.576617 37.022247
37.492535 25.211565 38.002312
41.369979 20.018783 32.455921
41.894468 20.790171 33.387911
40.511163 20.061446 32.956663
40.797222 19.434386 31.476437
41.369979 20.018783 32.455921
39.282018 18.979283 31.026634
40.797222 19.434386 31.476437
23.220197 4.516023 47.858053
23.381958 3.446805 47.547214
23.818227 5.502448 46.958289
23.220197 4.516023 47.858053
24.928472 5.340002 46.872011
24.681672 6.405928 46.748013
23.818227 5.502448 46.958289
41.435536 0.293192 36.566248
40.713463 0.904233 37.503561
40.371332 0.688998 35.829785
41.435536 0.293192 36.566248
23.526615 -3.991937 46.302402
23.234318 -2.634156 46.937201
24.18139 -4.456537 45.634686
23.526615 -3.991937 46.302402
23.070651 22.197723 40.404659
23.547007 23.221393 39.864494
29.414294 26.803788 40.984592
28.783119 26.316443 40.245296
29.181899 25.945369 41.593231
36.607351 27.856685 41.268969
35.922214 28.30672 42.296185
36.759862 26.740599 41.548226
36.87836 27.058948 40.088594
36.607351 27.856685 41.268969
40.659344 -0.382846 44.875895
40.682098 -1.770259 44.340238
25.20671 12.667315 44.226198
24.592789 13.714478 44.274361
32.356882 -4.395279 44.285763
32.445199 -5.742572 44.858271
33.3339 -5.293558 44.710093
36.306917 -2.253694 44.484293
35.346441 -2.315484 44.586138
36.167118 -3.727458 43.776245
37.20534 -2.19558 44.327896
36.384663 -0.783605 45.137789
36.306917 -2.253694 44.484293
38.312407 -1.985309 44.311905
37.20534 -2.19558 44.327896
40.845733 23.310723 35.021587
40.043827 23.737894 35.656931
40.063976 22.953833 35.860406
33.85445 15.247912 27.648789
34.138353 15.911285 28.754462
33.359964 14.572128 28.576718
33.628204 14.791997 26.626061
34.406593 16.131155 26.803805
33.85445 15.247912 27.648789
33.30847 13.369018 26.460449
33.628204 14.791997 26.626061
33.239077 10.17642 26.272979
32.929966 9.217524 27.089594
40.331274 3.008544 41.404204
41.429474 3.094345 42.262647
37.752626 2.541569 34.238075
37.273067 3.060161 35.146322
38.695654 1.895348 34.768976
34.81155 4.469958 32.081656
35.792406 3.872143 32.956129
36.054129 3.214215 31.824382
23.583133 2.436354 47.518263
23.826655 1.145692 47.140406
24.266202 3.42607 47.053336
23.381958 3.446805 47.547214
23.583133 2.436354 47.518263
22.574061 17.795253 43.160159
23.550927 16.602946 42.893826
22.42614 18.987468 42.347546
22.574061 17.795253 43.160159
24.036248 24.351428 39.319985
23.547007 23.221393 39.864494
24.584039 23.07965 39.353874
24.350832 25.172042 38.288894
24.036248 24.351428 39.319985
24.632254 25.993786 37.484432
24.350832 25.172042 38.288894
25.354702 25.03143 38.004902
30.79093 27.801553 42.378225
30.103124 27.294846 41.687627
30.50088 26.939421 43.023124
30.79093 27.801553 42.378225
31.568883 28.024431 42.810862
32.919193 29.163355 41.265324
32.846488 28.651419 42.073206
33.720577 29.186892 41.400616
32.919193 29.163355 41.265324
34.549736 28.887604 42.051091
33.720577 29.186892 41.400616
35.128548 28.653148 42.940007
34.549736 28.887604 42.051091
34.322708 28.465648 43.127327
35.695186 27.884764 43.372422
35.922214 28.30672 42.296185
35.128548 28.653148 42.940007
28.067065 -7.676516 45.115562
27.215233 -6.333946 44.561226
27.096725 -7.783832 45.122532
29.048783 -7.350596 45.165308
28.067065 -7.676516 45.115562
29.878235 -7.075643 45.19999
29.015026 -5.951676 44.588938
29.048783 -7.350596 45.165308
34.289681 -5.163726 44.666534
33.3339 -5.293558 44.710093
35.27021 -5.085216 44.536787
34.226112 -3.867757 44.007838
34.289681 -5.163726 44.666534
36.308457 -4.964803 44.620392
35.27021 -5.085216 44.536787
36.167118 -3.727458 43.776245
36.308457 -4.964803 44.620392
41.807856 21.880472 33.855135
41.722971 22.727386 34.52334
40.950767 21.679747 34.556858
41.807856 21.880472 33.855135
41.894468 20.790171 33.387911
32.821819 8.345735 28.021899
32.929966 9.217524 27.089594
32.530716 9.914945 28.129047
42.587786 3.482362 46.349661
41.854862 2.96667 47.010031
43.004179 2.324232 46.56538
41.670803 3.909448 45.635454
42.587786 3.482362 46.349661
40.935672 4.290831 44.817991
40.703339 4.506182 45.976849
41.670803 3.909448 45.635454
38.789967 3.637136 39.898556
39.620325 3.352772 40.678337
39.758391 2.483034 39.569576
36.71181 3.022898 30.864354
36.054129 3.214215 31.824382
35.792738 3.496203 29.834924
36.71181 3.022898 30.864354
24.2016 7.375177 46.329041
23.760473 8.43157 46.349282
25.311844 7.212731 46.242764
24.2016 7.375177 46.329041
24.681672 6.405928 46.748013
40.306044 1.711439 38.549631
39.758391 2.483034 39.569576
39.335451 1.960193 37.743725
40.306044 1.711439 38.549631
40.713463 0.904233 37.503561
39.607945 1.319475 35.319569
38.979483 1.783463 36.187439
40.371332 0.688998 35.829785
38.695654 1.895348 34.768976
39.607945 1.319475 35.319569
23.486894 -1.346338 46.594431
23.234318 -2.634156 46.937201
24.394585 -1.17073 46.196682
24.093622 0.051372 46.858679
23.486894 -1.346338 46.594431
24.952199 -4.684681 45.231123
24.558665 -2.796586 45.528872
24.18139 -4.456537 45.634686
25.409908 -6.392947 44.952566
25.787183 -4.732997 44.846752
24.952199 -4.684681 45.231123
26.137611 -7.89868 45.188271
25.409908 -6.392947 44.952566
25.302626 -7.850364 45.572642
27.096725 -7.783832 45.122532
26.137611 -7.89868 45.188271
22.478954 20.083474 41.749651
22.42614 18.987468 42.347546
23.451935 18.751944 41.686655
22.775626 21.14689 40.999847
23.799774 20.898783 40.493572
23.070651 22.197723 40.404659
22.478954 20.083474 41.749651
22.775626 21.14689 40.999847
28.035201 25.898373 39.528228
27.305824 25.562855 38.811154
27.821347 25.122505 40.13686
28.035201 25.898373 39.528228
28.783119 26.316443 40.245296
29.414294 26.803788 40.984592
30.103124 27.294846 41.687627
37.160584 26.049979 39.151815
36.87836 27.058948 40.088594
37.362824 25.104449 39.218348
37.492535 25.211565 38.002312
37.160584 26.049979 39.151815
41.110455 0.481533 46.364208
39.843864 0.25361 46.247679
40.659344 -0.382846 44.875895
42.098594 0.826809 46.109087
41.283115 1.463264 47.480871
41.110455 0.481533 46.364208
43.357175 1.321341 46.276642
42.098594 0.826809 46.109087
43.004179 2.324232 46.56538
43.357175 1.321341 46.276642
24.633915 14.594702 43.587402
24.592789 13.714478 44.274361
25.724377 14.586737 43.215359
24.793194 15.541989 43.131057
24.633915 14.594702 43.587402
24.293698 9.192794 45.673899
23.760473 8.43157 46.349282
25.000962 10.038039 45.387223
24.293698 9.192794 45.673899
25.539037 9.027224 45.537115
25.547312 10.783825 45.015566
25.000962 10.038039 45.387223
26.008618 11.769723 44.879271
25.547312 10.783825 45.015566
26.707608 10.858368 45.114143
26.367006 12.741858 44.324776
25.20671 12.667315 44.226198
26.008618 11.769723 44.879271
30.765221 -6.621932 45.126342
29.878235 -7.075643 45.19999
31.577072 -6.205717 45.031503
32.445199 -5.742572 44.858271
30.656329 -5.260508 44.52878
30.765221 -6.621932 45.126342
31.577072 -6.205717 45.031503
39.367241 -1.927948 44.200891
38.337919 -0.668129 44.870379
38.312407 -1.985309 44.311905
40.682098 -1.770259 44.340238
39.367241 -1.927948 44.200891
38.900465 24.134101 36.235701
38.116817 24.576617 37.022247
38.478423 23.823519 37.282297
38.900465 24.134101 36.235701
40.043827 23.737894 35.656931
40.845733 23.310723 35.021587
41.722971 22.727386 34.52334
37.895375 18.432187 30.882773
39.282018 18.979283 31.026634
38.600031 18.742962 31.880812
37.172327 18.037005 29.929495
37.895375 18.432187 30.882773
36.490339 17.800685 30.783673
36.531681 17.927624 29.019281
37.172327 18.037005 29.929495
35.200065 16.996287 28.828463
34.705579 16.320502 29.756394
34.138353 15.911285 28.754462
36.531681 17.927624 29.019281
35.200065 16.996287 28.828463
33.089871 11.808009 26.323297
33.30847 13.369018 26.460449
32.857462 12.347745 27.333893
33.089871 11.808009 26.323297
33.239077 10.17642 26.272979
40.988468 3.756258 43.467823
41.429474 3.094345 42.262647
40.021003 4.352992 43.809218
40.935672 4.290831 44.817991
40.988468 3.756258 43.467823
39.36285 4.162647 41.733183
40.331274 3.008544 41.404204
39.620325 3.352772 40.678337
36.682513 3.161391 33.657139
37.752626 2.541569 34.238075
35.439934 4.417134 33.914411
36.682513 3.161391 33.657139
35.792406 3.872143 32.956129
33.507099 6.560525 27.928224
32.821819 8.345735 28.021899
33.107849 7.257945 28.967677
35.152666 4.326556 28.796971
34.433201 4.642383 29.911956
35.792738 3.496203 29.834924
34.610092 5.084558 27.761939
35.152666 4.326556 28.796971
35.969629 3.938378 27.684908
33.507099 6.560525 27.928224
34.610092 5.084558 27.761939
3 0 60 58
3 0 62 60
3 0 64 62
3 1 226 228
3 226 65 227
3 226 227 228
3 1 67 65
3 1 69 67
3 3 72 70
3 3 74 72
3 2 77 75
3 4 229 231
3 229 78 230
3 229 230 231
3 5 81 79
3 5 232 234
3 234 233 81
3 232 233 234
3 5 235 236
3 6 237 239
3 239 238 82
3 237 238 239
3 6 240 242
3 240 83 241
3 240 241 242
3 6 84 83
3 8 87 85
3 8 89 87
3 9 92 90
3 9 94 92
3 9 96 94
3 11 99 97
3 11 101 99
3 7 243 244
3 12 245 247
3 247 246 104
3 245 246 247
3 12 248 249
3 12 250 251
3 13 107 105
3 13 109 107
3 10 112 110
3 14 115 113
3 14 117 115
3 15 121 119
3 15 123 121
3 15 125 123
3 16 128 126
3 18 129 59
3 18 130 129
3 18 132 130
3 20 133 61
3 20 134 133
3 20 136 134
3 22 137 63
3 22 138 137
3 23 252 253
3 23 254 255
3 23 256 258
3 256 140 257
3 256 257 258
3 25 141 66
3 25 142 141
3 25 144 142
3 27 145 68
3 27 146 145
3 28 149 147
3 30 150 71
3 30 151 150
3 30 153 151
3 32 154 73
3 32 155 154
3 33 158 156
3 35 159 76
3 35 160 159
3 259 161 260
3 262 261 161
3 263 163 264
3 266 265 163
3 17 165 127
3 268 267 80
3 19 269 271
3 271 270 131
3 269 270 271
3 37 272 273
3 37 274 276
3 274 166 275
3 274 275 276
3 21 167 135
3 38 168 86
3 38 169 168
3 38 170 169
3 39 171 88
3 39 172 171
3 278 277 173
3 279 175 280
3 24 176 139
3 41 177 91
3 41 178 177
3 41 179 178
3 42 180 93
3 42 181 180
3 42 183 181
3 44 184 95
3 44 185 184
3 26 186 143
3 45 187 98
3 45 188 187
3 45 189 188
3 46 190 100
3 46 191 190
3 36 192 164
3 47 193 102
3 47 194 193
3 48 281 283
3 281 195 282
3 281 282 283
3 48 196 195
3 48 197 196
3 284 198 285
3 286 285 103
3 284 285 286
3 287 199 288
3 289 288 198
3 287 288 289
3 291 290 199
3 29 292 294
3 294 293 148
3 292 293 294
3 31 200 152
3 49 295 297
3 297 296 106
3 295 296 297
3 49 298 300
3 298 299 300
3 49 301 302
3 304 303 108
3 43 201 182
3 50 202 111
3 50 203 202
3 34 204 157
3 51 205 114
3 51 206 205
3 51 207 206
3 52 208 116
3 52 209 208
3 40 210 174
3 53 211 118
3 53 212 211
3 305 213 306
3 54 214 120
3 54 215 214
3 54 216 215
3 55 217 122
3 55 218 217
3 55 219 218
3 56 220 124
3 56 221 220
3 307 222 308
3 309 308 162
3 307 308 309
3 57 310 312
3 310 223 311
3 310 311 312
3 57 224 223
3 57 225 224
3 58 59 16
3 60 59 58
3 60 18 59
3 60 61 18
3 62 61 60
3 62 20 61
3 62 63 20
3 64 63 62
3 64 22 63
3 65 313 314
3 65 315 317
3 315 23 316
3 315 316 317
3 65 66 23
3 67 66 65
3 67 25 66
3 67 68 25
3 69 68 67
3 69 27 68
3 70 71 28
3 72 71 70
3 72 30 71
3 72 73 30
3 74 73 72
3 74 32 73
3 75 76 33
3 77 76 75
3 77 35 76
3 78 318 319
3 78 320 321
3 79 80 17
3 81 80 79
3 81 322 324
3 324 323 80
3 322 323 324
3 81 325 326
3 329 328 81
3 327 328 329
3 82 330 332
3 332 331 19
3 330 331 332
3 334 333 82
3 83 335 336
3 83 337 338
3 83 339 340
3 84 341 343
3 343 342 83
3 341 342 343
3 84 344 346
3 344 37 345
3 344 345 346
3 85 86 21
3 87 86 85
3 87 38 86
3 87 88 38
3 89 88 87
3 89 39 88
3 90 91 24
3 92 91 90
3 92 41 91
3 92 93 41
3 94 93 92
3 94 42 93
3 94 95 42
3 96 95 94
3 96 44 95
3 97 98 26
3 99 98 97
3 99 45 98
3 99 100 45
3 101 100 99
3 101 46 100
3 347 102 348
3 349 348 36
3 347 348 349
3 350 102 351
3 352 47 353
3 354 353 102
3 352 353 354
3 355 48 356
3 357 103 358
3 359 358 48
3 357 358 359
3 360 103 361
3 363 362 103
3 104 364 366
3 366 365 29
3 364 365 366
3 368 367 104
3 105 106 31
3 107 106 105
3 107 49 106
3 107 108 49
3 109 108 107
3 109 369 371
3 371 370 108
3 369 370 371
3 110 111 43
3 112 111 110
3 112 50 111
3 113 114 34
3 115 114 113
3 115 51 114
3 115 116 51
3 117 116 115
3 117 52 116
3 372 118 373
3 374 373 40
3 372 373 374
3 375 118 376
3 377 53 378
3 379 378 118
3 377 378 379
3 119 380 382
3 380 120 381
3 380 381 382
3 121 120 119
3 121 54 120
3 121 122 54
3 123 122 121
3 123 55 122
3 123 124 55
3 125 124 123
3 125 56 124
3 383 57 384
3 386 385 57
3 126 127 4
3 128 127 126
3 128 17 127
3 59 128 16
3 129 128 59
3 129 17 128
3 129 79 17
3 130 79 129
3 130 5 79
3 130 131 5
3 132 131 130
3 132 19 131
3 61 132 18
3 133 132 61
3 133 19 132
3 133 82 19
3 134 82 133
3 134 6 82
3 134 135 6
3 136 135 134
3 136 21 135
3 63 136 20
3 137 136 63
3 137 21 136
3 137 85 21
3 138 85 137
3 138 8 85
3 387 139 388
3 140 389 391
3 389 139 390
3 389 390 391
3 140 24 139
3 66 140 23
3 141 140 66
3 141 24 140
3 141 90 24
3 142 90 141
3 142 9 90
3 142 143 9
3 144 143 142
3 144 26 143
3 68 144 25
3 145 144 68
3 145 26 144
3 145 97 26
3 146 97 145
3 146 11 97
3 147 148 7
3 149 148 147
3 149 29 148
3 71 149 28
3 150 149 71
3 150 29 149
3 150 104 29
3 151 104 150
3 151 12 104
3 151 152 12
3 153 152 151
3 153 31 152
3 73 153 30
3 154 153 73
3 154 31 153
3 154 105 31
3 155 105 154
3 155 13 105
3 156 157 10
3 158 157 156
3 158 34 157
3 76 158 33
3 159 158 76
3 159 34 158
3 159 113 34
3 160 113 159
3 160 14 113
3 392 119 393
3 161 394 396
3 394 119 395
3 394 395 396
3 161 15 119
3 161 162 15
3 397 162 398
3 399 398 161
3 397 398 399
3 401 400 162
3 163 402 403
3 163 404 406
3 404 1 405
3 404 405 406
3 163 164 1
3 407 164 408
3 409 408 163
3 407 408 409
3 410 36 411
3 412 411 164
3 410 411 412
3 413 36 414
3 413 414 415
3 417 416 36
3 127 78 4
3 165 78 127
3 165 418 420
3 420 419 78
3 418 419 420
3 80 165 17
3 421 165 422
3 423 422 80
3 421 422 423
3 425 424 165
3 131 426 428
3 428 427 5
3 426 427 428
3 430 429 131
3 432 431 19
3 166 433 434
3 166 435 437
3 435 7 436
3 435 436 437
3 135 84 6
3 167 84 135
3 167 37 84
3 86 167 21
3 168 167 86
3 168 37 167
3 168 166 37
3 169 166 168
3 169 7 166
3 169 147 7
3 170 147 169
3 170 28 147
3 88 170 38
3 171 170 88
3 171 28 170
3 171 70 28
3 172 70 171
3 172 3 70
3 173 174 2
3 438 174 439
3 440 439 173
3 438 439 440
3 441 40 442
3 443 442 174
3 441 442 443
3 444 40 445
3 447 446 40
3 175 448 449
3 175 450 452
3 450 4 451
3 450 451 452
3 139 453 454
3 176 455 457
3 457 456 139
3 455 456 457
3 176 458 459
3 91 176 24
3 177 176 91
3 177 460 462
3 462 461 176
3 460 461 462
3 177 463 465
3 463 175 464
3 463 464 465
3 178 175 177
3 178 4 175
3 178 126 4
3 179 126 178
3 179 16 126
3 93 179 41
3 180 179 93
3 180 16 179
3 180 58 16
3 181 58 180
3 181 0 58
3 181 182 0
3 183 182 181
3 183 43 182
3 95 183 42
3 184 183 95
3 184 43 183
3 184 110 43
3 185 110 184
3 185 10 110
3 143 96 9
3 186 96 143
3 186 44 96
3 98 186 26
3 187 186 98
3 187 44 186
3 187 185 44
3 188 185 187
3 188 10 185
3 188 156 10
3 189 156 188
3 189 33 156
3 100 189 45
3 190 189 100
3 190 33 189
3 190 75 33
3 191 75 190
3 191 2 75
3 164 69 1
3 192 69 164
3 192 27 69
3 102 192 36
3 193 192 102
3 193 27 192
3 193 146 27
3 194 146 193
3 194 11 146
3 466 47 467
3 195 468 469
3 195 470 472
3 470 47 471
3 470 471 472
3 195 194 47
3 196 194 195
3 196 11 194
3 196 101 11
3 197 101 196
3 197 46 101
3 103 197 48
3 198 197 103
3 198 46 197
3 198 191 46
3 199 191 198
3 199 2 191
3 199 173 2
3 473 173 474
3 475 474 199
3 473 474 475
3 477 476 173
3 148 478 480
3 480 479 7
3 478 479 480
3 482 481 148
3 484 483 29
3 152 485 487
3 487 486 12
3 485 486 487
3 200 488 490
3 490 489 152
3 488 489 490
3 200 491 492
3 106 200 31
3 493 200 494
3 495 494 106
3 493 494 495
3 497 496 200
3 108 498 500
3 500 499 49
3 498 499 500
3 502 501 108
3 182 64 0
3 201 64 182
3 201 22 64
3 111 201 43
3 202 201 111
3 202 22 201
3 202 138 22
3 203 138 202
3 203 8 138
3 157 112 10
3 204 112 157
3 204 50 112
3 114 204 34
3 205 204 114
3 205 50 204
3 205 203 50
3 206 203 205
3 206 8 203
3 206 89 8
3 207 89 206
3 207 39 89
3 116 207 51
3 208 207 116
3 208 39 207
3 208 172 39
3 209 172 208
3 209 3 172
3 174 77 2
3 210 77 174
3 210 35 77
3 118 210 40
3 211 210 118
3 211 35 210
3 211 160 35
3 212 160 211
3 212 14 160
3 213 503 504
3 213 505 507
3 505 53 506
3 505 506 507
3 120 508 510
3 508 213 509
3 508 509 510
3 214 213 120
3 214 53 213
3 214 212 53
3 215 212 214
3 215 14 212
3 215 117 14
3 216 117 215
3 216 52 117
3 122 216 54
3 217 216 122
3 217 52 216
3 217 209 52
3 218 209 217
3 218 3 209
3 218 74 3
3 219 74 218
3 219 32 74
3 124 219 55
3 220 219 124
3 220 32 219
3 220 155 32
3 221 155 220
3 221 13 155
3 162 125 15
3 222 125 162
3 222 56 125
3 511 222 512
3 223 513 515
3 513 222 514
3 513 514 515
3 223 56 222
3 223 221 56
3 224 221 223
3 224 13 221
3 224 109 13
3 225 109 224
3 225 516 518
3 518 517 109
3 516 517 518
3 519 225 520
3 521 520 57
3 519 520 521
3 522 225 523
3 522 523 524
3 526 525 225
