ply
format ascii 1.0
element vertex 383
property float x
property float y
property float z
element face 385
property list uchar int vertex_index
end_header
-3.60428 9.386588 -3.540346
-5.983317 35.818943 -8.364401
-7.059842 39.154003 12.290562
-6.576902 16.799185 -10.435022
-6.485689 39.848305 0.621262
-5.691165 24.12101 -5.540183
-8.457907 28.612375 -14.168689
-4.765079 13.210726 -6.370365
-5.650826 30.247211 -7.882162
-6.475286 32.15575 -3.885198
-5.358499 40.036598 6.319225
-5.862971 34.756718 4.945694
-6.354407 35.043419 10.147
-5.42885 34.406414 15.711813
-10.095421 36.627659 -9.36347
-7.404674 31.772104 -10.94982
-6.398424 26.341745 -10.686016
-8.930643 40.08186 -5.462418
-5.244197 38.646637 -4.277614
-7.308939 42.877605 -1.941736
-9.025025 42.098717 2.409574
-11.555132 40.037537 7.267921
-2.029539 11.675822 -1.72049
-5.50245 33.903679 0.205432
-13.990229 39.140629 13.140203
-10.025582 34.957664 17.002804
-6.585158 23.255596 -13.440509
-6.105325 20.433876 -8.439998
-4.146109 11.323946 -4.908275
-4.222945 7.771042 -5.25659
-3.265876 5.892573 -4.110703
-5.435994 33.186005 -8.422265
-6.189452 31.231207 -5.926506
-5.701996 34.270039 -6.584495
-6.049898 39.914692 9.497015
-5.307262 37.69088 8.368523
-5.030596 37.750252 11.408073
-5.930295 34.892319 12.969749
-5.176805 37.279701 14.45997
-8.069222 36.104164 -8.749527
-8.782013 34.326241 -10.240225
-7.032004 33.660675 -9.675804
-5.991155 31.068293 -9.970119
-6.834613 18.440559 -13.097025
-6.512755 13.972407 -10.133677
-10.669119 41.657417 -4.110937
-7.919409 41.941883 -3.895295
-9.643923 42.907112 -2.240667
-8.746072 43.998421 1.649192
-10.66918 42.753433 3.534191
-10.553991 40.666836 4.631537
-12.36418 42.050331 5.678816
-11.288301 40.023609 -6.218678
-5.795777 39.815277 -1.856791
-7.02436 36.317867 -2.157781
-6.882254 36.594608 0.168381
-4.580106 32.943272 7.270152
-3.129061 32.948082 4.789358
-7.26721 25.890112 -14.067123
-6.206758 25.207867 -8.282418
-6.458808 23.399191 -9.648058
-5.93713 22.290949 -7.042705
-5.071156 19.115612 -6.187108
-5.554389 15.085055 -8.288926
-5.639922 11.826834 -8.095236
-4.873887 9.779466 -6.65174
-6.255168 27.138947 -6.771563
-5.919345 28.005152 -4.933742
-5.025469 29.121216 -3.482562
-4.014797 30.417721 -2.097156
-5.948551 39.623459 3.207788
-5.88624 37.110481 2.769408
-5.487296 37.586445 5.571172
-6.284387 34.985447 7.477633
-5.704526 32.691376 9.480336
-6.61792 32.316433 11.561516
-9.352847 32.638367 -11.902549
-7.623635 30.098759 -12.410677
-6.604635 27.457306 -12.416105
-6.529734 29.175104 -11.131859
-5.679797 28.16423 -9.338655
-7.200667 38.099148 -7.143666
-5.12534 37.221581 -6.70281
-5.93835 40.135048 -5.638399
-5.58745 41.656349 -3.441817
-5.472794 42.368122 -0.958047
-9.14242 43.750877 -0.442006
-7.100895 43.350513 0.335938
-6.977184 41.83094 1.551777
-8.07306 40.398922 3.976594
-8.499285 39.819763 6.895686
-9.329721 39.428265 9.74288
-9.43502 38.145851 -7.454295
-2.931273 10.546921 -2.735233
-6.495248 35.50325 -4.451978
-5.967818 33.077366 -1.888762
-5.311533 34.392799 2.493365
-2.507376 32.563927 2.162481
-12.859415 39.706768 10.188917
-10.898697 38.392872 12.454933
-14.474586 38.274128 16.358232
-12.030622 36.859169 15.030802
-8.325439 37.1591 14.892392
-6.634631 35.593964 17.13541
-6.820654 21.731174 -14.976727
-6.938144 20.17877 -12.049178
-6.604274 24.596306 -11.892521
-6.637028 21.674547 -10.921216
-6.240789 18.622135 -9.501531
-5.439267 17.173504 -7.413651
-4.425633 15.687174 -5.571959
-2.597939 5.712953 -2.996393
-2.005435 7.134135 -2.181495
-11.014383 43.135813 -2.672645
-10.156521 42.282264 -3.175802
-11.526981 42.510965 -3.60778
-11.072838 43.568523 4.296261
-10.248913 43.878019 3.291936
-11.920338 43.216972 5.368574
-11.51668 42.401882 4.606504
-11.072838 43.568523 4.296261
-11.526981 42.510965 -3.60778
-11.814101 42.009681 -4.807211
-4.515085 23.09843 -4.783595
-5.137985 22.619108 -5.267572
-2.953987 32.194295 7.155769
-3.679866 32.01757 8.39211
-7.964124 29.740294 -15.678882
-8.913971 30.014021 -14.199183
-8.022274 28.096418 -15.451094
-7.964124 29.740294 -15.678882
-7.862559 27.251244 -14.117906
-7.426926 26.735286 -15.40031
-8.022274 28.096418 -15.451094
-5.137985 22.619108 -5.267572
-5.260967 21.704078 -6.018833
-5.814147 23.205979 -6.291444
-3.990223 5.982034 -5.617149
-3.55171 5.13559 -5.187806
-6.000021 33.198929 14.8708
-6.250744 33.441882 13.499769
-5.679572 34.649366 14.340781
-5.584102 32.901916 16.117103
-6.000021 33.198929 14.8708
-10.322719 35.929052 -10.423098
-10.665831 37.377226 -10.235278
-5.591096 9.937587 -8.137605
-5.195022 8.898588 -7.565139
-9.925413 44.27607 0.341523
-10.259429 43.902542 -0.649687
-4.25849 32.840066 -0.004073
-4.491174 32.42691 -1.05117
-5.735134 33.490522 -0.841665
-1.56814 31.8767 3.193152
-2.818218 32.756005 3.475919
-1.878983 32.068777 4.50659
-1.56118 31.522627 1.9012
-1.56814 31.8767 3.193152
-13.424822 39.423699 11.66456
-13.704943 40.813768 10.865015
-14.27035 40.530699 12.340658
-14.294047 37.852682 17.94824
-14.371844 39.394795 17.296782
-11.028102 35.908417 16.016803
-12.578832 36.180264 16.384849
-11.576312 35.229511 17.370849
-6.702906 22.493385 -14.208618
-7.074302 23.158578 -15.47573
-6.956554 23.920789 -14.707621
-4.095115 16.811756 -5.146762
-4.748394 17.401393 -5.879533
-4.417876 18.525975 -5.454337
-3.921977 14.844455 -4.818937
-4.095115 16.811756 -5.146762
-2.461911 3.93351 -3.413062
-2.139163 3.954057 -2.76088
-3.073176 4.196355 -4.614863
-3.55171 5.13559 -5.187806
-3.74441 6.831808 -4.683647
-6.714723 17.154634 -12.922592
-6.524561 19.192594 -14.705554
-6.553794 14.920558 -11.440918
-6.714723 17.154634 -12.922592
-6.673684 16.206483 -11.615351
-6.391864 12.105324 -10.014311
-6.553794 14.920558 -11.440918
-9.287359 44.500513 2.349436
-9.727239 44.399842 1.387122
-9.707626 43.375927 2.591692
-9.287359 44.500513 2.349436
-10.248913 43.878019 3.291936
-12.123691 41.192778 -5.861081
-11.752912 40.85669 -7.300042
-10.97871 40.840513 -5.164808
-12.123691 41.192778 -5.861081
-11.814101 42.009681 -4.807211
-2.228465 32.1967 5.915372
-3.854583 32.945677 6.029755
-2.953987 32.194295 7.155769
-1.878983 32.068777 4.50659
-2.228465 32.1967 5.915372
-14.368177 40.287936 14.031568
-14.27035 40.530699 12.340658
-10.842931 33.965321 18.176746
-11.576312 35.229511 17.370849
-9.338425 34.16996 18.044963
-10.842931 33.965321 18.176746
-7.29758 25.238048 -15.020928
-7.426926 26.735286 -15.40031
-6.926184 24.572854 -13.753816
-6.956554 23.920789 -14.707621
-7.29758 25.238048 -15.020928
-4.827981 20.116409 -5.591035
-5.504143 20.70328 -6.614907
-5.260967 21.704078 -6.018833
-4.417876 18.525975 -5.454337
-4.827981 20.116409 -5.591035
-1.714533 9.991153 -1.427953
-1.615309 12.32205 -1.018638
-4.812005 7.874904 -6.843391
-5.195022 8.898588 -7.565139
-5.256905 10.80315 -7.373488
-4.315695 6.986247 -6.314724
-4.548416 8.775254 -5.954165
-3.990223 5.982034 -5.617149
-4.812005 7.874904 -6.843391
-4.315695 6.986247 -6.314724
-5.402431 26.141741 -5.414169
-5.120429 24.632773 -4.798479
-5.973166 25.629978 -6.155873
-5.234519 26.574844 -4.495259
-5.402431 26.141741 -5.414169
-6.087257 27.572049 -5.852652
-4.540038 27.219062 -4.105709
-5.234519 26.574844 -4.495259
-4.093101 27.777094 -3.380119
-4.540038 27.219062 -4.105709
-5.472407 28.563184 -4.208152
-3.415372 28.428721 -2.851168
-4.093101 27.777094 -3.380119
-2.910036 29.076973 -2.158465
-3.415372 28.428721 -2.851168
-4.520133 29.769469 -2.789859
-2.438139 29.757544 -1.382763
-2.910036 29.076973 -2.158465
-4.242076 31.891621 9.497203
-3.679866 32.01757 8.39211
-5.142316 32.817324 8.375244
-5.172745 31.619802 10.475448
-4.242076 31.891621 9.497203
-5.629442 31.432331 11.516038
-5.172745 31.619802 10.475448
-6.161223 32.503905 10.520926
-6.287875 31.036861 12.391913
-5.629442 31.432331 11.516038
-6.594556 32.153939 12.795652
-6.274107 33.604376 12.265632
-6.250744 33.441882 13.499769
-6.287875 31.036861 12.391913
-6.594556 32.153939 12.795652
-9.666014 34.778344 -10.861475
-10.322719 35.929052 -10.423098
-9.438717 35.47695 -9.801848
-9.951431 33.934407 -11.692637
-9.666014 34.778344 -10.861475
-9.06743 33.482304 -11.071387
-9.584826 33.502888 -13.05075
-9.951431 33.934407 -11.692637
-9.361441 32.027017 -13.066113
-9.584826 33.502888 -13.05075
-8.496835 30.757213 -13.320177
-9.361441 32.027017 -13.066113
-8.488241 31.368563 -12.156613
-8.040771 29.355567 -13.289683
-8.913971 30.014021 -14.199183
-8.496835 30.757213 -13.320177
-6.027513 11.010374 -9.156825
-6.076339 12.899621 -9.114456
-5.591096 9.937587 -8.137605
-6.391864 12.105324 -10.014311
-6.027513 11.010374 -9.156825
-10.510181 43.48066 -1.549018
-11.014383 43.135813 -2.672645
-9.393171 43.328995 -1.341337
-10.510181 43.48066 -1.549018
-10.259429 43.902542 -0.649687
-8.944246 43.874649 0.603593
-9.925413 44.27607 0.341523
-9.727239 44.399842 1.387122
-10.712865 37.808188 -9.016481
-10.665831 37.377226 -10.235278
-11.309305 39.506163 -7.444085
-11.752912 40.85669 -7.300042
-10.382665 38.567284 -8.061894
-11.309305 39.506163 -7.444085
-10.36166 39.08473 -6.836486
-9.76522 37.386755 -8.408883
-10.712865 37.808188 -9.016481
-10.382665 38.567284 -8.061894
-3.174797 12.274328 -3.400574
-3.267777 9.966755 -3.13779
-3.5113 11.694161 -3.803131
-2.72081 12.649932 -2.958846
-3.174797 12.274328 -3.400574
-2.269942 13.214382 -2.451475
-2.480406 11.111372 -2.227861
-2.72081 12.649932 -2.958846
-1.715279 13.730909 -1.849655
-2.269942 13.214382 -2.451475
-1.615309 12.32205 -1.018638
-1.715279 13.730909 -1.849655
-4.515085 23.09843 -4.783595
-5.120429 24.632773 -4.798479
-3.514664 31.097087 -1.155367
-4.991307 31.747543 -1.992959
-4.491174 32.42691 -1.05117
-2.438139 29.757544 -1.382763
-3.514664 31.097087 -1.155367
-2.760953 32.17019 0.974452
-4.25849 32.840066 -0.004073
-4.004913 33.233803 1.183957
-2.760953 32.17019 0.974452
-1.56118 31.522627 1.9012
-12.632149 43.394074 6.637493
-11.920338 43.216972 5.368574
-13.058386 42.007171 7.072282
-12.632149 43.394074 6.637493
-12.653862 41.000774 7.866834
-11.959656 41.043934 6.473369
-13.058386 42.007171 7.072282
-13.306003 40.83539 9.327333
-13.704943 40.813768 10.865015
-12.207273 39.872152 8.728419
-12.653862 41.000774 7.866834
-13.306003 40.83539 9.327333
-14.610355 39.854685 15.640583
-14.371844 39.394795 17.296782
-14.232408 38.707378 14.749218
-14.368177 40.287936 14.031568
-14.610355 39.854685 15.640583
-13.800814 36.887743 17.048564
-14.294047 37.852682 17.94824
-13.252604 37.566648 15.694517
-13.800814 36.887743 17.048564
-12.578832 36.180264 16.384849
-7.64295 34.48811 18.111266
-8.330106 35.275814 17.069107
-9.338425 34.16996 18.044963
-6.197192 34.530461 17.909546
-7.64295 34.48811 18.111266
-5.594302 33.936685 17.197747
-6.03174 35.000189 16.423611
-6.197192 34.530461 17.909546
-5.584102 32.901916 16.117103
-5.594302 33.936685 17.197747
-6.615343 22.41209 -16.498886
-7.074302 23.158578 -15.47573
-6.517582 20.837901 -15.645405
-6.615343 22.41209 -16.498886
-6.827634 20.085867 -14.036876
-6.524561 19.192594 -14.705554
-6.517582 20.837901 -15.645405
-3.782215 12.66284 -4.487095
-4.285871 13.50556 -5.240117
-3.921977 14.844455 -4.818937
-3.5113 11.694161 -3.803131
-3.875195 10.355267 -4.22431
-3.782215 12.66284 -4.487095
-1.842911 4.664648 -2.353431
-2.139163 3.954057 -2.76088
-2.301687 6.423544 -2.588944
-1.702481 7.72031 -1.658456
-2.017487 9.404979 -1.950992
-1.714533 9.991153 -1.427953
-1.586619 5.292861 -1.824933
-1.702481 7.72031 -1.658456
-1.842911 4.664648 -2.353431
-1.586619 5.292861 -1.824933
-2.795879 4.02332 -3.970217
-2.931908 5.802763 -3.553548
-2.461911 3.93351 -3.413062
-3.073176 4.196355 -4.614863
-2.795879 4.02332 -3.970217
3 0 30 28
3 1 33 31
3 2 36 34
3 2 38 36
3 1 41 39
3 1 31 41
3 3 44 43
3 113 47 114
3 115 114 45
3 113 114 115
3 116 49 117
3 118 51 119
3 120 119 49
3 118 119 120
3 121 45 122
3 5 123 124
3 4 55 53
3 126 125 56
3 6 127 128
3 6 129 130
3 6 131 133
3 131 58 132
3 131 132 133
3 5 61 59
3 5 134 136
3 136 135 61
3 134 135 136
3 7 65 63
3 138 137 29
3 8 67 66
3 9 68 32
3 9 69 68
3 10 72 70
3 12 73 35
3 12 74 73
3 12 75 74
3 13 139 141
3 141 140 37
3 139 140 141
3 13 142 143
3 14 144 145
3 15 76 40
3 15 77 76
3 15 79 77
3 8 80 42
3 8 66 80
3 147 146 64
3 17 83 81
3 19 84 46
3 19 85 84
3 148 86 149
3 20 87 48
3 20 88 87
3 20 89 88
3 21 90 50
3 21 91 90
3 17 92 52
3 17 81 92
3 18 94 82
3 23 95 54
3 23 150 152
3 152 151 95
3 150 151 152
3 11 96 71
3 153 97 154
3 155 154 57
3 153 154 155
3 157 156 97
3 24 158 160
3 158 98 159
3 158 159 160
3 24 99 98
3 161 100 162
3 25 163 165
3 163 101 164
3 163 164 165
3 25 102 101
3 25 103 102
3 26 166 168
3 166 104 167
3 166 167 168
3 26 105 104
3 16 106 78
3 27 107 60
3 27 108 107
3 27 109 108
3 169 110 170
3 171 170 62
3 169 170 171
3 173 172 110
3 22 112 93
3 175 174 111
3 28 29 7
3 30 29 28
3 30 176 178
3 178 177 29
3 176 177 178
3 31 32 8
3 33 32 31
3 33 9 32
3 34 35 10
3 36 35 34
3 36 12 35
3 36 37 12
3 38 37 36
3 38 13 37
3 39 40 14
3 41 40 39
3 41 15 40
3 41 42 15
3 31 42 41
3 31 8 42
3 43 179 180
3 44 181 183
3 183 182 43
3 181 182 183
3 44 184 185
3 45 46 17
3 47 46 45
3 47 19 46
3 186 48 187
3 49 188 190
3 188 48 189
3 188 189 190
3 49 20 48
3 49 50 20
3 51 50 49
3 51 21 50
3 191 52 192
3 45 193 195
3 193 52 194
3 193 194 195
3 45 17 52
3 53 54 18
3 55 54 53
3 55 23 54
3 56 57 11
3 196 57 197
3 198 197 56
3 196 197 198
3 200 199 57
3 201 24 202
3 203 25 204
3 206 205 25
3 58 207 208
3 58 209 211
3 209 26 210
3 209 210 211
3 59 60 16
3 61 60 59
3 61 27 60
3 61 62 27
3 212 62 213
3 214 213 61
3 212 213 214
3 216 215 62
3 218 217 22
3 63 64 3
3 65 64 63
3 65 219 221
3 221 220 64
3 219 220 221
3 29 65 7
3 222 65 223
3 224 223 29
3 222 223 224
3 226 225 65
3 66 227 229
3 229 228 5
3 227 228 229
3 67 230 232
3 232 231 66
3 230 231 232
3 67 233 234
3 32 67 8
3 68 67 32
3 68 235 237
3 237 236 67
3 235 236 237
3 68 238 239
3 69 240 242
3 242 241 68
3 240 241 242
3 69 243 244
3 70 71 4
3 72 71 70
3 72 11 71
3 35 72 10
3 73 72 35
3 73 11 72
3 73 56 11
3 74 56 73
3 74 245 247
3 247 246 56
3 245 246 247
3 74 248 249
3 75 250 252
3 252 251 74
3 250 251 252
3 75 253 254
3 37 75 12
3 255 75 256
3 257 256 37
3 255 256 257
3 259 258 75
3 40 260 262
3 262 261 14
3 260 261 262
3 76 263 265
3 265 264 40
3 263 264 265
3 76 266 267
3 76 268 269
3 77 270 272
3 272 271 76
3 270 271 272
3 77 273 275
3 273 6 274
3 273 274 275
3 77 78 6
3 79 78 77
3 79 16 78
3 42 79 15
3 80 79 42
3 80 16 79
3 80 59 16
3 66 59 80
3 66 5 59
3 64 44 3
3 276 44 277
3 278 277 64
3 276 277 278
3 280 279 44
3 81 82 1
3 83 82 81
3 83 18 82
3 46 83 17
3 84 83 46
3 84 18 83
3 84 53 18
3 85 53 84
3 85 4 53
3 281 47 282
3 86 283 285
3 283 47 284
3 283 284 285
3 86 19 47
3 48 286 288
3 286 86 287
3 286 287 288
3 87 86 48
3 87 19 86
3 87 85 19
3 88 85 87
3 88 4 85
3 88 70 4
3 89 70 88
3 89 10 70
3 50 89 20
3 90 89 50
3 90 10 89
3 90 34 10
3 91 34 90
3 91 2 34
3 289 14 290
3 52 291 292
3 92 293 295
3 295 294 52
3 293 294 295
3 92 296 298
3 296 14 297
3 296 297 298
3 92 39 14
3 81 39 92
3 81 1 39
3 299 93 300
3 301 300 0
3 299 300 301
3 302 93 303
3 304 22 305
3 306 305 93
3 304 305 306
3 307 22 308
3 310 309 22
3 312 311 5
3 82 33 1
3 94 33 82
3 94 9 33
3 54 94 18
3 95 94 54
3 95 9 94
3 95 69 9
3 313 69 314
3 315 314 95
3 313 314 315
3 317 316 69
3 71 55 4
3 96 55 71
3 96 23 55
3 57 96 11
3 97 96 57
3 97 23 96
3 97 318 320
3 320 319 23
3 318 319 320
3 322 321 97
3 323 51 324
3 325 51 326
3 327 21 328
3 329 328 51
3 327 328 329
3 98 330 331
3 98 332 334
3 332 21 333
3 332 333 334
3 98 91 21
3 99 91 98
3 99 2 91
3 100 335 336
3 100 337 339
3 337 24 338
3 337 338 339
3 340 100 341
3 101 342 344
3 342 100 343
3 342 343 344
3 101 24 100
3 101 99 24
3 102 99 101
3 102 2 99
3 102 38 2
3 103 38 102
3 103 13 38
3 345 103 346
3 347 346 25
3 345 346 347
3 348 103 349
3 350 13 351
3 352 351 103
3 350 351 352
3 354 353 13
3 104 355 356
3 104 357 358
3 104 359 361
3 359 43 360
3 359 360 361
3 105 43 104
3 105 3 43
3 78 58 6
3 106 58 78
3 106 26 58
3 60 106 16
3 107 106 60
3 107 26 106
3 107 105 26
3 108 105 107
3 108 3 105
3 108 63 3
3 109 63 108
3 109 7 63
3 62 109 27
3 110 109 62
3 110 7 109
3 110 28 7
3 362 28 363
3 364 363 110
3 362 363 364
3 365 0 366
3 367 366 28
3 365 366 367
3 93 111 0
3 112 111 93
3 112 368 370
3 370 369 111
3 368 369 370
3 371 112 372
3 373 372 22
3 371 372 373
3 374 112 375
3 377 376 112
3 111 30 0
3 378 30 379
3 380 379 111
3 378 379 380
3 382 381 30
