ply
format ascii 1.0
element vertex 425
property float x
property float y
property float z
element face 462
property list uchar int vertex_index
end_header
-5.768526 16.687021 23.434734
-8.194005 5.416205 37.057507
-11.640224 25.575525 32.920212
-4.539658 12.858805 31.143457
-2.779626 31.091867 9.514069
-6.623576 28.482319 17.465118
-12.950579 31.731289 22.057941
-8.316103 22.684345 27.534973
-11.741622 14.553088 34.491673
-10.53779 8.611588 42.520447
-2.46651 18.563824 20.555225
-1.146242 12.535101 23.435093
-6.069181 9.606306 34.961891
-5.95783 29.757288 13.222311
-9.424948 31.876724 31.507166
-13.026278 29.490143 27.828304
-10.89393 27.223972 24.337814
-13.456266 22.976309 28.931528
-10.651285 18.343622 30.738251
-13.504004 19.546743 33.839245
-11.502684 12.930357 42.03437
-10.659686 21.735323 37.592648
-6.235804 14.971738 26.79372
-5.020587 10.594688 26.547459
-6.449614 8.72714 29.362341
-4.205615 24.320942 16.965622
-6.649451 22.476517 20.131496
-7.058576 31.626163 21.012814
-5.825004 26.499912 22.980295
-5.151166 20.680656 25.163624
-6.36161 18.450796 29.809347
-8.56423 14.173434 32.77813
-9.992527 10.562483 35.690681
-12.452918 16.081553 38.162476
-11.473658 11.632311 38.701576
-11.064533 7.023634 38.915344
-11.391756 3.287629 42.144958
-4.349102 17.647909 22.070221
-1.640345 15.639727 22.085964
-3.510896 14.864416 23.481115
-6.973989 7.672578 36.101101
-4.995209 6.626577 35.909019
-10.02469 28.874109 31.983801
-11.313421 30.939968 29.729031
-12.331825 27.666737 30.386423
-13.583925 26.214657 28.312641
-13.473915 24.273243 31.165783
-13.70974 21.269552 31.398457
-12.925476 22.590811 33.500782
-4.946169 13.948242 28.751194
-6.491312 11.843119 28.065395
-5.27788 10.826849 29.718466
-6.777761 29.105799 15.215256
-5.05633 27.0322 15.001272
-6.314831 26.24976 16.722446
-5.594468 23.456259 18.440964
-6.872736 25.518362 18.594181
-11.660281 32.972977 19.350687
-8.651268 33.382256 19.087122
-10.551374 31.154896 21.001268
-9.71807 24.904869 25.792288
-7.80805 27.420395 24.298777
-6.818228 24.97716 25.664637
-5.198435 23.705978 24.116652
-6.3366 22.506695 27.039967
-5.311095 20.03808 27.869818
-7.49596 20.752926 28.745708
-11.349785 16.249863 32.607784
-9.292602 16.268084 31.689022
-9.993925 14.228841 33.360481
-9.340381 12.250645 34.246246
-10.456355 12.626957 35.11261
-10.346752 19.886652 39.672066
-11.613868 18.790451 38.006145
-11.343828 16.976751 40.03698
-11.291853 10.63544 42.220901
-11.854634 12.100959 40.258984
-11.089905 10.073204 40.786327
-10.50992 9.605736 39.027962
-10.57754 7.761223 40.823895
-11.274237 5.150889 40.581169
-10.749049 6.007685 42.543625
-4.907346 7.385163 27.989727
-2.633955 8.325595 26.823984
-5.08092 11.283733 33.22982
-4.459009 9.5418 31.754358
-4.714891 8.118784 33.88916
-4.640964 30.548229 11.47056
-6.571192 31.991444 14.029788
-5.739354 31.397419 16.522394
-8.320153 34.782753 30.446466
-10.810039 33.870171 28.947704
-12.598763 32.547974 27.164021
-13.437535 30.702068 24.971395
-12.063944 29.394903 23.235891
-13.147711 27.878881 25.583141
-12.527381 25.03157 26.319162
-11.30644 22.446365 27.702541
-9.622649 20.53175 29.125269
-12.329682 20.401453 29.623577
-12.966135 18.429768 31.799154
-12.992846 16.727535 34.110542
-11.075442 15.274707 42.034389
-10.832907 11.492476 43.904839
-10.293561 9.269607 43.913765
-9.299147 3.247479 37.878887
-8.142144 32.853157 33.195793
-9.578851 26.410915 34.507942
-10.979309 23.690245 35.309502
-9.494781 24.600571 36.826256
-6.661882 15.838124 24.938084
-5.447118 13.694031 25.037813
-6.550386 12.73863 26.357996
-6.233893 9.631739 27.76733
-6.092797 6.399295 29.128046
-5.196017 7.62997 30.771763
-3.465846 21.542456 18.881357
-4.865964 20.581602 20.235779
-6.206521 19.633846 21.685659
-5.759754 33.466957 18.683681
-5.373385 30.527546 19.428013
-8.956469 29.429295 22.734402
-6.32146 29.298859 22.230782
-5.692804 27.437855 20.052704
-6.111995 24.481613 21.145977
-6.740267 21.524271 22.564381
-6.856584 18.644415 23.875446
-5.777636 17.832047 25.842575
-4.806732 17.102406 28.196844
-5.222069 15.824041 30.700846
-8.409666 18.609074 30.21113
-7.488097 16.374538 31.308285
-6.177767 13.97125 32.574947
-7.374336 11.880375 33.996113
-8.378633 9.976503 35.165562
-9.418309 8.199292 36.260742
-12.185311 20.782398 35.882771
-12.795929 17.936016 36.202148
-12.73171 15.18707 36.210892
-12.10066 14.365831 40.047478
-12.359964 13.553083 38.262581
-11.739368 13.060443 36.585548
-10.60634 11.135934 36.952827
-10.618793 8.807543 37.272327
-10.530302 6.063844 37.431633
-11.026495 4.190625 38.732769
-11.444551 2.346281 40.338127
-11.051537 1.568397 44.064232
-2.825781 11.655122 25.189146
-7.012539 4.98059 37.227461
-6.402531 6.108777 36.749258
-7.583997 6.544391 36.579304
-2.053748 31.268593 8.277727
-2.953987 32.194295 7.155769
-3.679866 32.01757 8.39211
-1.701785 29.936057 9.472831
-2.053748 31.268593 8.277727
-2.188404 29.792948 10.569925
-1.701785 29.936057 9.472831
-13.295289 33.051174 21.442564
-13.184853 32.654618 23.078457
-12.30543 32.352133 20.704314
-12.65014 33.672018 20.088937
-13.295289 33.051174 21.442564
-10.73215 17.413663 40.912414
-10.84529 18.431702 39.854523
-10.233612 18.868613 40.729957
-3.840469 4.367333 28.690048
-3.759658 6.093395 28.087255
-4.988157 5.659101 28.59252
-1.690959 17.317715 20.403221
-1.865309 18.82674 19.764465
-0.92206 12.651062 22.403632
-1.169111 14.203375 21.729067
-1.393293 14.087414 22.760528
-0.880539 10.864373 22.964971
-0.92206 12.651062 22.403632
-4.732708 5.722301 35.339591
-4.790275 4.98865 36.325985
-6.000021 33.198929 14.8708
-6.250744 33.441882 13.499769
-5.584102 32.901916 16.117103
-6.155273 31.694432 15.276091
-6.000021 33.198929 14.8708
-10.209155 10.894638 44.775391
-10.666974 11.96047 44.933617
-9.939481 9.783204 44.779854
-10.563234 10.381042 43.909302
-10.209155 10.894638 44.775391
-9.817957 8.377532 44.808004
-9.939481 9.783204 44.779854
-8.751376 1.697708 38.516039
-9.651018 2.319848 38.449055
-8.34323 33.452622 34.082377
-7.788432 34.338564 32.82074
-8.906184 26.913239 35.114307
-9.088564 28.082396 34.054998
-8.864148 26.008067 36.273465
-9.536816 25.505743 35.667099
-8.906184 26.913239 35.114307
-4.796185 6.953444 31.690655
-4.827513 8.585885 31.263061
-4.427682 7.90936 32.181953
-4.717289 28.826494 13.314632
-4.058857 29.221964 12.438756
-5.299397 30.152758 12.346436
-3.358916 24.652386 16.16117
-3.784274 26.008015 15.178995
-4.630973 25.676571 15.983447
-2.952208 23.23167 17.089208
-3.358916 24.652386 16.16117
-3.83573 22.931699 17.92349
-2.582324 21.842427 18.047076
-2.952208 23.23167 17.089208
-11.457073 1.95978 42.085358
-11.48347 1.489106 41.181942
-11.418154 2.816955 41.241543
-10.980117 0.863384 44.99469
-10.899072 2.043452 45.062313
-11.224178 -0.36749 44.862406
-11.295599 0.337522 43.931948
-10.980117 0.863384 44.99469
-1.764767 8.711373 25.958174
-1.688437 6.94592 26.731849
-5.413141 5.585776 36.653217
-5.984599 7.149577 36.00506
-6.402531 6.108777 36.749258
-4.790275 4.98865 36.325985
-5.413141 5.585776 36.653217
-12.393662 34.237167 18.544791
-12.65014 33.672018 20.088937
-10.842931 33.965321 18.176746
-11.576312 35.229511 17.370849
-12.393662 34.237167 18.544791
-10.155774 33.177616 19.218905
-9.338425 34.16996 18.044963
-10.842931 33.965321 18.176746
-2.622962 6.563612 27.504384
-3.770651 7.855379 27.406855
-3.759658 6.093395 28.087255
-1.688437 6.94592 26.731849
-2.622962 6.563612 27.504384
-1.277877 15.855666 21.168591
-1.690959 17.317715 20.403221
-2.053427 17.101776 21.320594
-1.277877 15.855666 21.168591
-1.169111 14.203375 21.729067
-4.555623 7.197852 33.249353
-4.427682 7.90936 32.181953
-4.58695 8.830292 32.821759
-4.592549 6.468404 34.329662
-4.85505 7.37268 34.89909
-4.732708 5.722301 35.339591
-4.555623 7.197852 33.249353
-4.592549 6.468404 34.329662
-4.242076 31.891621 9.497203
-3.679866 32.01757 8.39211
-5.172745 31.619802 10.475448
-3.710295 30.820048 10.492314
-4.242076 31.891621 9.497203
-5.629442 31.432331 11.516038
-5.172745 31.619802 10.475448
-6.287875 31.036861 12.391913
-5.299397 30.152758 12.346436
-5.629442 31.432331 11.516038
-6.594556 32.153939 12.795652
-6.250744 33.441882 13.499769
-6.264511 30.874366 13.62605
-6.287875 31.036861 12.391913
-6.594556 32.153939 12.795652
-8.98412 35.757009 28.835034
-7.576254 36.30494 29.460746
-10.229063 35.300719 28.085653
-8.98412 35.757009 28.835034
-9.565096 34.326462 29.697085
-11.461863 34.589502 27.4718
-10.229063 35.300719 28.085653
-12.356225 33.928404 26.579958
-11.461863 34.589502 27.4718
-11.704401 33.209073 28.055863
-13.008945 33.06296 25.631498
-12.356225 33.928404 26.579958
-13.428332 32.140007 24.535184
-13.008945 33.06296 25.631498
-13.018149 31.625021 26.067708
-13.194057 31.216679 23.514668
-13.184853 32.654618 23.078457
-13.428332 32.140007 24.535184
-10.612333 15.701309 42.982484
-10.597957 16.562641 41.911119
-10.995052 14.522315 43.017881
-10.612333 15.701309 42.982484
-11.208673 13.35014 43.017871
-11.289063 14.102532 42.03438
-10.995052 14.522315 43.017881
-10.873785 12.631199 43.953106
-10.666974 11.96047 44.933617
-11.167796 12.211417 42.969605
-11.208673 13.35014 43.017871
-10.873785 12.631199 43.953106
-10.332993 7.992787 44.017071
-10.455108 7.663778 43.320412
-10.415675 8.940597 43.217106
-10.332993 7.992787 44.017071
-9.817957 8.377532 44.808004
-8.16984 2.747952 38.111902
-7.61727 3.832314 37.701212
-8.746576 4.331842 37.468197
-8.16984 2.747952 38.111902
-8.751376 1.697708 38.516039
-7.877437 35.303362 31.446076
-7.576254 36.30494 29.460746
-8.231148 33.817955 31.82113
-7.877437 35.303362 31.446076
-7.788432 34.338564 32.82074
-8.138197 31.83751 34.236807
-8.34323 33.452622 34.082377
-8.37021 31.303517 33.398924
-8.138197 31.83751 34.236807
-9.011613 30.8153 32.554611
-8.783546 32.364941 32.35148
-8.37021 31.303517 33.398924
-9.311483 29.313993 32.792928
-9.724819 30.375417 31.745483
-9.011613 30.8153 32.554611
-9.80177 27.642512 33.245871
-9.311483 29.313993 32.792928
-9.088564 28.082396 34.054998
-8.901293 25.091076 37.396553
-8.864148 26.008067 36.273465
-9.491141 23.711348 37.966103
-8.901293 25.091076 37.396553
-10.073594 22.278725 38.349299
-10.077234 23.167947 37.209452
-9.491141 23.711348 37.966103
-9.917127 21.354389 39.389008
-10.503219 20.810988 38.632357
-10.073594 22.278725 38.349299
-9.751831 20.330634 40.500534
-9.917127 21.354389 39.389008
-10.233612 18.868613 40.729957
-9.751831 20.330634 40.500534
-5.580883 5.166167 29.161679
-4.988157 5.659101 28.59252
-5.500072 6.892229 28.558886
-5.096644 5.9722 31.351806
-4.796185 6.953444 31.690655
-5.698798 6.555178 30.661618
-5.096644 5.9722 31.351806
-6.325596 7.103763 29.956907
-5.822816 8.178555 30.067052
-5.698798 6.555178 30.661618
-6.147188 5.939841 29.83976
-6.271206 7.563218 29.245193
-6.325596 7.103763 29.956907
-6.183478 4.779632 29.69498
-6.147188 5.939841 29.83976
-5.580883 5.166167 29.161679
-6.183478 4.779632 29.69498
-7.012539 4.98059 37.227461
-7.61727 3.832314 37.701212
-3.119074 29.521128 11.548171
-2.188404 29.792948 10.569925
-3.710295 30.820048 10.492314
-3.119074 29.521128 11.548171
-4.058857 29.221964 12.438756
-4.26654 27.46395 14.204112
-4.717289 28.826494 13.314632
-5.50708 28.394744 14.111791
-4.26654 27.46395 14.204112
-3.784274 26.008015 15.178995
-2.364977 20.316056 18.927531
-2.582324 21.842427 18.047076
-2.966178 20.05314 19.718291
-1.865309 18.82674 19.764465
-2.364977 20.316056 18.927531
-7.64295 34.48811 18.111266
-9.338425 34.16996 18.044963
-6.197192 34.530461 17.909546
-7.64295 34.48811 18.111266
-7.205511 33.424606 18.885402
-5.594302 33.936685 17.197747
-6.197192 34.530461 17.909546
-5.749554 32.432188 17.603037
-5.584102 32.901916 16.117103
-5.594302 33.936685 17.197747
-11.209635 16.125729 41.035685
-10.73215 17.413663 40.912414
-10.597957 16.562641 41.911119
-10.514693 2.791421 38.875996
-9.651018 2.319848 38.449055
-10.162821 3.719052 38.305828
-10.723721 1.869249 39.678674
-10.514693 2.791421 38.875996
-11.235523 3.268453 39.535448
-11.197026 1.002876 40.291647
-10.723721 1.869249 39.678674
-11.197026 1.002876 40.291647
-11.48347 1.489106 41.181942
-10.560737 6.361826 43.332001
-10.64342 7.309636 42.532036
-10.455108 7.663778 43.320412
-10.799547 5.026677 43.370592
-10.560737 6.361826 43.332001
-11.120901 3.666649 43.171259
-11.070403 4.647657 42.344291
-10.799547 5.026677 43.370592
-10.950792 2.807033 44.130895
-10.899072 2.043452 45.062313
-11.221647 2.428013 43.104595
-11.120901 3.666649 43.171259
-10.950792 2.807033 44.130895
-11.286963 1.100164 43.044995
-11.457073 1.95978 42.085358
-11.221647 2.428013 43.104595
-11.286963 1.100164 43.044995
-11.295599 0.337522 43.931948
-1.86068 10.376137 25.140756
-2.729868 9.990358 26.006565
-1.764767 8.711373 25.958174
-1.020911 10.816126 24.263729
-1.986012 12.095111 24.31212
-1.86068 10.376137 25.140756
-0.880539 10.864373 22.964971
-1.020911 10.816126 24.263729
3 0 39 37
3 1 149 151
3 151 150 40
3 149 150 151
3 2 44 42
3 2 46 44
3 2 48 46
3 3 51 49
3 4 152 154
3 152 153 154
3 4 155 156
3 4 157 158
3 5 54 52
3 5 56 54
3 6 159 160
3 6 161 163
3 161 57 162
3 161 162 163
3 6 59 57
3 7 62 60
3 7 64 62
3 7 66 64
3 8 69 67
3 8 71 69
3 164 74 165
3 166 165 72
3 164 165 166
3 9 77 75
3 9 79 77
3 9 81 79
3 169 168 82
3 167 168 169
3 10 170 171
3 11 172 174
3 174 173 38
3 172 173 174
3 11 175 176
3 12 86 84
3 178 177 41
3 179 88 180
3 181 89 182
3 183 182 88
3 181 182 183
3 14 91 90
3 15 92 43
3 15 93 92
3 15 95 93
3 17 96 45
3 17 97 96
3 17 99 97
3 19 100 47
3 19 101 100
3 184 103 185
3 186 104 187
3 188 187 103
3 186 187 188
3 190 189 104
3 192 191 105
3 193 106 194
3 195 107 196
3 197 109 198
3 199 198 107
3 197 198 199
3 22 112 110
3 24 113 50
3 24 114 113
3 200 115 201
3 202 201 85
3 200 201 202
3 13 203 205
3 205 204 87
3 203 204 205
3 25 206 208
3 208 207 53
3 206 207 208
3 25 209 210
3 25 211 213
3 211 116 212
3 211 212 213
3 26 117 55
3 26 118 117
3 27 119 58
3 27 120 119
3 16 121 94
3 28 122 61
3 28 123 122
3 28 124 123
3 29 125 63
3 29 126 125
3 29 127 126
3 30 128 65
3 30 129 128
3 18 130 98
3 31 131 68
3 31 132 131
3 31 133 132
3 32 134 70
3 32 135 134
3 21 136 108
3 33 137 73
3 33 138 137
3 20 139 102
3 34 140 76
3 34 141 140
3 34 142 141
3 35 143 78
3 35 144 143
3 35 145 144
3 36 146 80
3 36 214 216
3 216 215 146
3 214 215 216
3 217 147 218
3 221 220 147
3 219 220 221
3 23 148 111
3 223 222 83
3 37 38 10
3 39 38 37
3 39 11 38
3 40 41 12
3 224 41 225
3 226 225 40
3 224 225 226
3 228 227 41
3 42 43 14
3 44 43 42
3 44 15 43
3 44 45 15
3 46 45 44
3 46 17 45
3 46 47 17
3 48 47 46
3 48 19 47
3 49 50 22
3 51 50 49
3 51 24 50
3 52 53 13
3 54 53 52
3 54 25 53
3 54 55 25
3 56 55 54
3 56 26 55
3 57 229 230
3 57 231 233
3 231 232 233
3 57 234 236
3 234 58 235
3 234 235 236
3 59 58 57
3 59 27 58
3 60 61 16
3 62 61 60
3 62 28 61
3 62 63 28
3 64 63 62
3 64 29 63
3 64 65 29
3 66 65 64
3 66 30 65
3 67 68 18
3 69 68 67
3 69 31 68
3 69 70 31
3 71 70 69
3 71 32 70
3 72 73 21
3 74 73 72
3 74 33 73
3 75 76 20
3 77 76 75
3 77 34 76
3 77 78 34
3 79 78 77
3 79 35 78
3 79 80 35
3 81 80 79
3 81 36 80
3 82 83 23
3 237 83 238
3 239 238 82
3 237 238 239
3 241 240 83
3 38 242 244
3 244 243 10
3 242 243 244
3 246 245 38
3 84 85 3
3 86 85 84
3 86 247 249
3 249 248 85
3 247 248 249
3 41 86 12
3 250 86 251
3 252 251 41
3 250 251 252
3 254 253 86
3 255 4 256
3 257 87 258
3 259 258 4
3 257 258 259
3 260 87 261
3 262 13 263
3 264 263 87
3 262 263 264
3 88 265 266
3 88 267 269
3 267 13 268
3 267 268 269
3 88 52 13
3 89 52 88
3 89 5 52
3 90 270 271
3 91 272 274
3 274 273 90
3 272 273 274
3 91 275 276
3 43 91 14
3 92 91 43
3 92 277 279
3 279 278 91
3 277 278 279
3 92 280 281
3 93 282 284
3 284 283 92
3 282 283 284
3 93 285 287
3 285 6 286
3 285 286 287
3 93 94 6
3 95 94 93
3 95 16 94
3 45 95 15
3 96 95 45
3 96 16 95
3 96 60 16
3 97 60 96
3 97 7 60
3 97 98 7
3 99 98 97
3 99 18 98
3 47 99 17
3 100 99 47
3 100 18 99
3 100 67 18
3 101 67 100
3 101 8 67
3 288 102 289
3 290 102 291
3 292 20 293
3 294 293 102
3 292 293 294
3 103 295 296
3 103 297 299
3 297 20 298
3 297 298 299
3 103 75 20
3 104 75 103
3 104 9 75
3 104 300 302
3 302 301 9
3 300 301 302
3 304 303 104
3 105 305 307
3 307 306 1
3 305 306 307
3 309 308 105
3 310 90 311
3 106 312 314
3 312 90 313
3 312 313 314
3 106 14 90
3 315 106 316
3 317 106 318
3 319 14 320
3 321 320 106
3 319 320 321
3 322 42 323
3 324 323 14
3 322 323 324
3 107 325 327
3 325 42 326
3 325 326 327
3 107 2 42
3 107 108 2
3 109 108 107
3 109 21 108
3 328 109 329
3 330 109 331
3 332 21 333
3 334 333 109
3 332 333 334
3 335 72 336
3 337 336 21
3 335 336 337
3 338 72 339
3 341 340 72
3 110 111 0
3 112 111 110
3 112 23 111
3 50 112 22
3 113 112 50
3 113 23 112
3 113 82 23
3 114 82 113
3 114 342 344
3 344 343 82
3 342 343 344
3 85 51 3
3 115 51 85
3 115 24 51
3 345 115 346
3 347 115 348
3 349 24 350
3 351 350 115
3 349 350 351
3 352 114 353
3 354 353 24
3 352 353 354
3 355 114 356
3 358 357 114
3 360 359 1
3 87 361 363
3 363 362 4
3 361 362 363
3 365 364 87
3 53 366 368
3 368 367 13
3 366 367 368
3 370 369 53
3 116 371 372
3 116 373 375
3 373 10 374
3 373 374 375
3 55 116 25
3 117 116 55
3 117 10 116
3 117 37 10
3 118 37 117
3 118 0 37
3 58 376 377
3 119 378 380
3 380 379 58
3 378 379 380
3 119 381 382
3 119 383 385
3 383 89 384
3 383 384 385
3 120 89 119
3 120 5 89
3 94 59 6
3 121 59 94
3 121 27 59
3 61 121 16
3 122 121 61
3 122 27 121
3 122 120 27
3 123 120 122
3 123 5 120
3 123 56 5
3 124 56 123
3 124 26 56
3 63 124 28
3 125 124 63
3 125 26 124
3 125 118 26
3 126 118 125
3 126 0 118
3 126 110 0
3 127 110 126
3 127 22 110
3 65 127 29
3 128 127 65
3 128 22 127
3 128 49 22
3 129 49 128
3 129 3 49
3 98 66 7
3 130 66 98
3 130 30 66
3 68 130 18
3 131 130 68
3 131 30 130
3 131 129 30
3 132 129 131
3 132 3 129
3 132 84 3
3 133 84 132
3 133 12 84
3 70 133 31
3 134 133 70
3 134 12 133
3 134 40 12
3 135 40 134
3 135 1 40
3 108 48 2
3 136 48 108
3 136 19 48
3 73 136 21
3 137 136 73
3 137 19 136
3 137 101 19
3 138 101 137
3 138 8 101
3 102 386 388
3 386 74 387
3 386 387 388
3 139 74 102
3 139 33 74
3 76 139 20
3 140 139 76
3 140 33 139
3 140 138 33
3 141 138 140
3 141 8 138
3 141 71 8
3 142 71 141
3 142 32 71
3 78 142 34
3 143 142 78
3 143 32 142
3 143 135 32
3 144 135 143
3 144 1 135
3 144 105 1
3 145 105 144
3 145 389 391
3 391 390 105
3 389 390 391
3 80 145 35
3 146 145 80
3 146 392 394
3 394 393 145
3 392 393 394
3 146 395 396
3 398 397 146
3 399 81 400
3 401 400 9
3 399 400 401
3 402 81 403
3 404 36 405
3 406 405 81
3 404 405 406
3 147 407 408
3 147 409 411
3 409 36 410
3 409 410 411
3 147 412 414
3 414 413 36
3 412 413 414
3 416 415 147
3 111 39 0
3 148 39 111
3 148 11 39
3 83 148 23
3 417 148 418
3 419 418 83
3 417 418 419
3 420 11 421
3 422 421 148
3 420 421 422
3 424 423 11
