ply
format ascii 1.0
element vertex 584
property float x
property float y
property float z
element face 632
property list uchar int vertex_index
end_header
-4.028991 -33.391834 30.69511
-9.795679 -46.759651 6.500587
-14.750725 -40.801239 -2.385997
-5.26377 -50.59306 18.583326
-14.933123 -54.549263 8.208758
-8.352841 -34.538475 27.362255
-7.061361 -43.547092 21.300028
-4.748836 -43.056004 27.392467
-6.202605 -37.728905 5.675078
-11.595513 -44.216808 1.511055
-8.95419 -44.131187 31.109156
0.110153 -42.916618 11.657537
-7.445327 -49.956974 11.231554
-7.751993 -33.938442 29.462849
-8.305262 -38.933559 27.515797
-4.286877 -38.150776 29.012634
-7.002425 -41.9692 6.149228
-11.003385 -41.298145 4.529824
-10.449237 -45.906456 3.859542
-13.410245 -43.169647 32.394413
-8.196896 -49.307201 29.258453
-7.487905 -47.434731 20.348064
-7.830801 -47.102413 16.546379
-5.943797 -50.484032 14.189089
-10.868327 -51.293648 5.708243
-14.146353 -50.736561 3.924859
-19.509716 -54.557434 5.67555
-4.239314 -35.203491 25.155752
-2.709745 -39.881645 22.068213
-7.693164 -39.346348 24.727268
-8.357718 -43.503895 24.566639
-4.473133 -47.130241 23.704632
-7.172885 -34.728779 8.003675
-11.757154 -34.758514 5.49685
-11.659967 -37.679497 4.984018
-12.775848 -42.353886 -0.549208
-16.306124 -49.353485 1.281651
-17.032368 -47.486794 -1.470079
-8.396687 -36.894989 34.70723
-5.11358 -38.681686 32.173698
-4.893023 -44.258595 30.808578
-4.424457 -49.444962 28.02232
-1.318481 -34.906837 7.328418
-0.961613 -40.046822 6.567375
-5.150363 -43.984222 8.922153
-2.995545 -43.418537 17.227797
-5.74298 -45.792194 12.812441
-8.640003 -48.564785 8.790149
-8.44182 -53.135387 7.204516
-5.382632 -33.577827 29.469275
-5.817363 -36.033257 28.861027
-4.099001 -35.648441 29.759396
-8.640378 -44.334854 6.942333
-10.017035 -44.175457 6.014117
-10.061708 -46.420605 5.151874
-4.945802 -48.328865 19.127815
-6.140639 -48.715797 17.227554
-5.456363 -50.539684 16.259375
-12.934255 -52.981121 7.152411
-15.036158 -53.039368 6.048959
-17.41663 -54.755554 6.733613
-7.139553 -31.709295 27.356915
-5.022584 -32.078007 26.366673
-6.506831 -34.759659 26.124929
-5.994651 -37.262264 24.893229
-8.099754 -36.984299 26.177734
-6.514691 -40.864723 27.101276
-8.529086 -41.204376 26.144657
-6.625625 -43.10791 25.84227
-6.340349 -45.182129 23.901934
-4.843699 -45.446514 25.860729
-6.711339 -35.964001 6.492511
-9.314655 -36.138298 6.241135
-8.817421 -37.652439 5.295338
-12.660873 -43.659718 3.841371
-13.069478 -41.266193 3.84216
-13.708542 -43.396721 2.761723
-14.632785 -42.919239 1.605427
-12.15708 -43.319931 0.455297
-18.491207 -52.09243 3.794696
-15.35733 -50.036598 2.658578
-19.612717 -51.57373 2.194347
-16.586039 -46.06501 -2.650343
-11.306074 -43.434914 31.316015
-10.693874 -40.111523 33.100883
-8.97901 -40.568718 32.2052
-7.026376 -37.700974 32.939423
-6.950764 -41.395844 31.956913
-4.90623 -41.471073 31.573765
-6.726052 -44.355946 31.283197
-5.903574 -49.696285 29.194019
-4.804592 -50.937469 25.213741
1.024316 -38.936974 7.748592
0.219186 -41.75898 8.725488
-2.493901 -42.232979 7.771314
-1.923988 -43.468056 9.883685
-5.116025 -41.627312 21.689476
-2.422841 -41.814846 19.721619
-4.999029 -43.570763 19.479313
-8.388979 -48.701866 14.186139
-6.708421 -46.499245 14.778482
-8.370799 -47.936909 12.626249
-7.968637 -47.088249 11.103209
-8.071974 -49.342258 9.939191
-7.530115 -50.728935 7.154109
-6.981977 -51.609886 8.28746
-14.763186 -36.694107 4.612017
-8.596869 -31.060495 29.755747
-8.845981 -34.252544 28.656647
-8.917302 -36.745815 27.534403
-8.063439 -36.524574 28.584225
-6.204692 -38.523216 28.116461
-4.483179 -40.55727 28.263418
-6.371614 -39.839386 5.678613
-8.652903 -39.458759 5.02767
-8.929214 -41.542324 5.246764
-11.375154 -43.826477 4.928807
-10.961772 -45.019257 2.618808
-13.420102 -46.180698 30.636267
-11.011063 -46.295586 29.925716
-8.60248 -46.496696 30.020855
-10.425264 -49.017025 29.160757
-8.294191 -45.682514 20.887936
-7.07743 -45.42522 19.017315
-8.200706 -47.575745 18.405987
-7.610988 -49.105423 15.736948
-6.699543 -50.383125 12.647474
-6.531708 -52.616737 9.545365
-6.373904 -53.245369 11.332567
-8.938016 -49.042198 5.0238
-10.146426 -48.907604 3.814812
-12.649389 -51.166729 4.926527
-17.075275 -52.574409 5.051675
-21.042089 -54.281708 4.41911
-3.584342 -29.125225 26.46406
-2.374702 -32.453102 25.437618
-1.294474 -35.483337 23.939915
-0.60891 -37.969246 22.181004
-3.351044 -37.606312 23.821552
-5.370631 -39.536407 23.471638
-7.319866 -41.528301 23.106937
-8.908582 -39.140343 26.233301
-8.7643 -41.494129 24.622736
-8.531148 -43.642536 22.926487
-8.166579 -45.699402 22.64481
-5.756416 -46.808296 21.775961
-4.26362 -48.689747 21.230946
-13.353539 -40.249767 -4.211755
-16.584576 -40.457733 -3.383177
-7.675963 -32.905243 9.079626
-9.473954 -34.496216 7.135736
-11.973284 -36.420879 5.586122
-14.562444 -38.009632 4.554103
-11.296382 -39.345459 4.442278
-13.816607 -39.320747 3.981086
-16.065916 -39.703247 3.708274
-15.610509 -42.480488 0.529431
-13.568672 -41.453362 -1.521753
-11.195305 -48.358982 2.791348
-11.903865 -47.613716 1.732832
-12.327497 -46.657223 0.61728
-20.469189 -50.982822 0.543849
-16.92956 -48.657825 -0.126858
-12.571817 -45.517773 -0.571027
-12.492261 -44.187691 -1.674407
-12.41489 -42.705505 -2.600853
-12.689284 -41.419819 -3.442506
-12.125315 -40.400139 34.666367
-8.850167 -37.751503 36.754749
-5.880244 -36.151257 38.399193
-6.183538 -35.097969 35.745094
-5.462939 -35.519371 33.188572
-4.169677 -35.987446 31.512884
-4.045773 -38.55669 30.759766
-4.021407 -41.073296 30.018
-4.120619 -43.832966 29.267065
-6.363896 -46.8554 30.331615
-4.659324 -47.002251 29.776714
-4.290376 -46.480949 27.9195
-4.236397 -48.539993 25.890926
-4.245432 -49.971127 23.175907
-5.685439 -33.694866 9.917329
-4.498056 -34.672043 7.75093
-3.722926 -36.31863 6.299981
-0.510439 -37.23539 6.274196
-3.437806 -38.540825 5.912566
-4.274271 -40.912777 6.407252
-5.735112 -42.972935 7.280688
-7.960126 -45.120747 8.123269
-0.159949 -40.093884 19.886904
-0.286454 -41.912605 17.237177
-0.989057 -43.326557 14.676903
-5.459282 -45.122025 17.041172
-3.987634 -44.650352 14.930079
-2.600427 -44.136169 12.482012
-5.148108 -44.962456 10.829981
-7.70673 -46.103531 9.514291
-9.210055 -47.717121 7.565997
-8.14178 -49.897194 6.101468
-9.670908 -52.056995 6.571622
-11.236376 -53.743378 8.265598
-7.290739 -54.231438 7.637951
-4.705812 -33.484831 30.082192
-4.930575 -32.231763 29.819978
-4.253754 -32.138767 30.432896
-6.065892 -51.833817 17.214593
-6.162188 -51.807129 16.052617
-5.360067 -50.566372 17.42135
-16.690512 -41.522602 -1.880561
-15.767812 -41.515501 -1.425493
-7.746197 -33.123885 27.359585
-7.847456 -31.529342 27.962602
-8.4541 -32.943933 27.965272
-20.804842 -52.786554 2.497461
-19.051962 -51.83308 2.994522
-20.244087 -53.045904 3.297636
0.164669 -42.337799 10.191512
0.657835 -41.151886 9.75922
0.603318 -41.730705 11.225244
-15.963638 -36.748831 4.244612
-15.847416 -37.563633 4.420097
-8.174431 -32.499468 29.609298
-7.776891 -31.045381 29.960836
-7.354453 -32.484355 29.814386
-12.960093 -47.725836 29.93527
-13.844814 -47.790508 30.54727
-11.755573 -47.783279 29.579994
-12.215583 -46.238142 30.280991
-12.960093 -47.725836 29.93527
-11.462674 -49.143999 29.197515
-10.718163 -47.656306 29.543236
-11.755573 -47.783279 29.579994
-4.699394 -28.943337 26.835286
-4.110583 -27.447826 26.804113
-14.539197 -40.457887 -5.552497
-13.830493 -39.691519 -4.673267
-14.062244 -41.016136 -5.090986
-14.309143 -40.347787 3.561665
-13.443043 -40.29347 3.911623
-13.935579 -41.32051 3.492202
-15.433798 -40.539037 3.425259
-14.941261 -39.511997 3.84468
-14.309143 -40.347787 3.561665
-16.261075 -40.600189 3.06031
-15.433798 -40.539037 3.425259
-21.355918 -52.040504 -0.259363
-21.428062 -52.2372 0.705448
-16.980964 -48.07231 -0.798468
-18.851833 -49.387968 -0.671444
-18.903238 -48.802453 -1.343055
-14.133777 -43.658222 -3.194522
-14.500464 -44.385258 -2.625598
-16.219352 -45.337975 -3.219266
-14.270974 -43.015379 -3.615348
-12.552087 -42.062662 -3.021679
-14.133777 -43.658222 -3.194522
-13.93973 -42.277126 -4.123909
-14.270974 -43.015379 -3.615348
-12.76778 -41.784893 33.53039
-13.413071 -42.031008 34.397946
-14.055536 -43.415762 33.261969
-5.456971 -50.854064 22.676603
-4.525012 -50.454298 24.194824
-5.736552 -51.337235 23.695519
-5.037917 -50.583012 21.782459
-5.456971 -50.854064 22.676603
-5.215615 -33.050012 10.685936
-6.071185 -32.618792 10.342079
-2.908269 -34.78944 7.539674
-3.846221 -34.168037 8.530207
-2.256433 -34.285435 8.318952
-6.766492 -54.774847 8.244093
-6.911224 -53.424087 8.591658
-6.386976 -53.967496 9.1978
-11.035415 -34.102535 4.859989
-10.444792 -33.81111 6.222638
-19.499852 -41.172612 -3.455494
-18.581942 -41.286375 -2.911168
-17.502485 -40.34397 -3.927503
-6.169773 -32.304047 29.8176
-4.930575 -32.231763 29.819978
-6.567312 -33.758134 29.466062
-7.354453 -32.484355 29.814386
-6.169773 -32.304047 29.8176
-5.961384 -51.940202 14.884974
-6.205101 -51.912377 13.849832
-5.70008 -50.511858 15.224232
-5.961384 -51.940202 14.884974
-6.162188 -51.807129 16.052617
-7.385889 -30.0797 27.795017
-7.847456 -31.529342 27.962602
-6.476999 -30.235373 27.281714
-7.385889 -30.0797 27.795017
-6.081069 -31.893651 26.861794
-5.418515 -30.419728 26.786592
-6.476999 -30.235373 27.281714
-14.255111 -42.385774 2.951983
-13.935579 -41.32051 3.492202
-13.38901 -42.331457 3.301941
-14.170663 -43.15798 2.183575
-14.717232 -42.147033 2.373835
-14.255111 -42.385774 2.951983
-18.733795 -48.30645 -2.099139
-18.903238 -48.802453 -1.343055
-18.510631 -47.595558 -2.689271
-16.809204 -46.775902 -2.060211
-18.733795 -48.30645 -2.099139
-18.177677 -47.053619 -3.353519
-18.510631 -47.595558 -2.689271
-16.219352 -45.337975 -3.219266
-18.177677 -47.053619 -3.353519
-7.164469 -50.578423 28.21381
-7.050235 -49.501743 29.226236
-8.31113 -50.383881 28.246027
-6.094349 -50.55258 27.875841
-7.164469 -50.578423 28.21381
-5.354791 -50.426918 27.289991
-5.164015 -49.570623 28.60817
-6.094349 -50.55258 27.875841
-5.544859 -51.173172 25.885702
-4.614524 -50.191215 26.61803
-5.354791 -50.426918 27.289991
-6.376406 -51.548468 24.368894
-5.544859 -51.173172 25.885702
-5.736552 -51.337235 23.695519
-6.376406 -51.548468 24.368894
-0.744873 -34.310438 8.337661
-2.256433 -34.285435 8.318952
1.0604 -39.740883 9.270772
1.122939 -38.247124 8.976983
0.621751 -40.347977 8.23704
1.0604 -39.740883 9.270772
0.657835 -41.151886 9.75922
-14.277874 -35.980137 4.054341
-12.774858 -35.012341 4.496758
-13.26017 -35.72631 5.054434
-14.277874 -35.980137 4.054341
-15.963638 -36.748831 4.244612
-17.198673 -55.635813 7.653956
-15.881219 -55.394623 8.388763
-8.229246 -29.687938 30.127669
-7.776891 -31.045381 29.960836
-8.563151 -29.653541 29.636128
-8.229246 -29.687938 30.127669
-8.576114 -31.204943 29.162018
-8.563151 -29.653541 29.636128
-8.70067 -32.800967 28.612468
-8.576114 -31.204943 29.162018
-8.721425 -32.65652 29.206197
-8.599411 -34.39551 28.009451
-8.4541 -32.943933 27.965272
-8.70067 -32.800967 28.612468
-14.253993 -44.763058 32.280455
-14.055536 -43.415762 33.261969
-14.258922 -46.268583 31.401381
-13.844814 -47.790508 30.54727
-13.415173 -44.675173 31.51534
-14.253993 -44.763058 32.280455
-14.258922 -46.268583 31.401381
-11.104938 -50.539299 28.74907
-11.462674 -49.143999 29.197515
-10.306761 -50.381991 28.405204
-11.104938 -50.539299 28.74907
-9.192577 -50.527079 28.454052
-9.31108 -49.162113 29.209605
-10.306761 -50.381991 28.405204
-8.31113 -50.383881 28.246027
-9.192577 -50.527079 28.454052
0.419984 -42.263977 12.851779
0.603318 -41.730705 11.225244
-6.308075 -54.281813 10.0914
-6.386976 -53.967496 9.1978
-6.452806 -52.931053 10.438966
-6.420154 -53.293045 12.42157
-6.15885 -51.8647 12.760828
-6.205101 -51.912377 13.849832
-5.975525 -54.558975 11.076623
-6.420154 -53.293045 12.42157
-6.308075 -54.281813 10.0914
-5.975525 -54.558975 11.076623
-21.519528 -54.140543 3.609843
-20.244087 -53.045904 3.297636
-19.766648 -53.187069 4.106903
-18.440426 -55.738958 6.916383
-16.174876 -54.652408 7.471185
-17.198673 -55.635813 7.653956
-19.538988 -55.682384 6.430549
-18.440426 -55.738958 6.916383
-20.585531 -55.583325 5.901518
-18.463173 -54.656494 6.204581
-19.538988 -55.682384 6.430549
-21.314141 -55.611425 5.221241
-20.585531 -55.583325 5.901518
-22.080327 -55.473562 4.593021
-20.275903 -54.419571 5.04733
-21.314141 -55.611425 5.221241
-22.404031 -55.511438 3.742332
-22.080327 -55.473562 4.593021
-23.442269 -56.703293 3.916243
-21.519528 -54.140543 3.609843
-22.404031 -55.511438 3.742332
-2.794377 -27.529613 26.46891
-4.110583 -27.447826 26.804113
-2.331889 -29.200215 25.935637
-1.541924 -27.604603 25.940487
-2.794377 -27.529613 26.46891
-4.303463 -30.601616 26.415366
-4.699394 -28.943337 26.835286
-5.418515 -30.419728 26.786592
-1.72707 -30.864153 25.422417
-2.331889 -29.200215 25.935637
-2.979522 -30.789164 25.950839
-1.443852 -32.507534 24.694077
-1.72707 -30.864153 25.422417
-0.903738 -34.022651 23.945225
-1.443852 -32.507534 24.694077
-1.834588 -33.96822 24.688766
-0.637829 -35.595736 22.900925
-0.903738 -34.022651 23.945225
-0.951692 -36.726292 23.06046
-0.295047 -36.83869 22.02147
-0.637829 -35.595736 22.900925
-15.446011 -39.795502 -4.258978
-14.969057 -40.35375 -3.797466
-13.830493 -39.691519 -4.673267
-17.502485 -40.34397 -3.927503
-15.446011 -39.795502 -4.258978
-4.071324 -32.364188 31.294026
-4.253754 -32.138767 30.432896
-8.404196 -32.884474 8.014025
-7.773056 -31.855743 8.840445
-9.303192 -33.67996 7.04208
-8.404196 -32.884474 8.014025
-8.574959 -33.700729 8.107681
-10.615554 -34.627365 6.316293
-10.444792 -33.81111 6.222638
-9.303192 -33.67996 7.04208
-15.747045 -38.221395 4.39114
-15.847416 -37.563633 4.420097
-14.662815 -37.35187 4.58306
-16.498781 -39.068203 3.968226
-15.747045 -38.221395 4.39114
-15.31418 -38.85644 4.131188
-16.956455 -39.920292 3.470261
-16.498781 -39.068203 3.968226
-16.956455 -39.920292 3.470261
-16.261075 -40.600189 3.06031
-15.54451 -42.208185 2.008887
-14.717232 -42.147033 2.373835
-16.033372 -41.98881 1.470889
-15.54451 -42.208185 2.008887
-15.121647 -42.699863 1.067429
-16.751161 -42.103285 1.07357
-16.033372 -41.98881 1.470889
-16.197704 -42.355125 0.032221
-16.751161 -42.103285 1.07357
-15.176785 -41.841562 -0.993371
-16.197704 -42.355125 0.032221
-14.58959 -41.966925 -0.496161
-14.159698 -41.127301 -1.953875
-15.767812 -41.515501 -1.425493
-15.176785 -41.841562 -0.993371
-20.999826 -52.532653 1.530696
-20.804842 -52.786554 2.497461
-20.040953 -51.278276 1.369098
-20.999826 -52.532653 1.530696
-21.428062 -52.2372 0.705448
-20.621648 -50.550466 -0.33609
-21.355918 -52.040504 -0.259363
-18.699374 -49.820324 0.208496
-20.621648 -50.550466 -0.33609
-18.851833 -49.387968 -0.671444
-14.271857 -41.6921 -4.508534
-13.021411 -40.834793 -3.82713
-13.93973 -42.277126 -4.123909
-14.062244 -41.016136 -5.090986
-14.271857 -41.6921 -4.508534
-4.437609 -33.316935 31.805135
-4.071324 -32.364188 31.294026
-12.382077 -40.950992 35.606904
-13.413071 -42.031008 34.397946
-10.562693 -39.881914 36.509306
-12.382077 -40.950992 35.606904
-8.92512 -38.557596 37.553497
-10.562693 -39.881914 36.509306
-10.487741 -39.075821 35.710558
-7.282653 -37.684929 38.521608
-8.92512 -38.557596 37.553497
-5.797691 -36.884806 39.34383
-7.282653 -37.684929 38.521608
-7.365206 -36.95138 37.576971
-5.349348 -35.583481 39.695124
-5.266795 -36.31703 40.639761
-5.797691 -36.884806 39.34383
-5.329946 -35.091572 38.470022
-5.349348 -35.583481 39.695124
-5.481592 -34.564928 37.142973
-5.329946 -35.091572 38.470022
-6.031891 -35.624613 37.072143
-5.762061 -34.195718 35.749263
-5.481592 -34.564928 37.142973
-5.401762 -34.406419 34.471002
-5.762061 -34.195718 35.749263
-5.823239 -35.30867 34.466833
-5.154583 -34.380703 33.051867
-5.401762 -34.406419 34.471002
-4.507952 -34.61474 32.214022
-5.154583 -34.380703 33.051867
-4.816308 -35.753408 32.350728
-4.099334 -34.68964 31.103997
-4.437609 -33.316935 31.805135
-4.507952 -34.61474 32.214022
-5.047011 -49.942322 20.809978
-4.254526 -49.330437 22.203426
-5.037917 -50.583012 21.782459
-5.547086 -50.893979 19.486168
-4.763695 -49.641403 19.907136
-5.047011 -49.942322 20.809978
-6.361233 -52.198458 17.901989
-5.547086 -50.893979 19.486168
-6.065892 -51.833817 17.214593
-6.361233 -52.198458 17.901989
-7.066447 -32.223981 9.923227
-7.773056 -31.855743 8.840445
-6.680701 -33.300055 9.498477
-7.066447 -32.223981 9.923227
-6.071185 -32.618792 10.342079
-4.439913 -33.679449 9.613407
-5.215615 -33.050012 10.685936
-5.091748 -34.183454 8.834129
-4.439913 -33.679449 9.613407
-3.846221 -34.168037 8.530207
-0.176289 -35.352745 7.681636
-0.744873 -34.310438 8.337661
0.995109 -37.367813 7.891723
1.122939 -38.247124 8.976983
0.227732 -36.517021 7.154524
0.995109 -37.367813 7.891723
0.256939 -38.086182 7.011394
-0.91446 -36.071114 6.801307
-0.176289 -35.352745 7.681636
0.227732 -36.517021 7.154524
-0.093345 -37.923806 20.845817
-0.295047 -36.83869 22.02147
0.131135 -38.986125 19.698767
-0.093345 -37.923806 20.845817
-0.384429 -39.031565 21.033954
0.27083 -40.002045 18.323658
0.131135 -38.986125 19.698767
0.207577 -40.911406 16.998794
0.27083 -40.002045 18.323658
-0.223201 -41.003245 18.562041
0.221681 -41.761971 15.641599
0.207577 -40.911406 16.998794
-0.12962 -42.468947 14.361462
0.221681 -41.761971 15.641599
-0.637755 -42.619581 15.95704
-0.439452 -43.121588 13.16722
0.419984 -42.263977 12.851779
-0.12962 -42.468947 14.361462
-7.74119 -55.243919 8.012363
-6.766492 -54.774847 8.244093
-8.498428 -54.610247 8.04864
-7.74119 -55.243919 8.012363
-9.073969 -54.062221 7.831922
-7.86628 -53.683413 7.421233
-8.498428 -54.610247 8.04864
-10.471247 -54.366217 8.362463
-9.839098 -53.439383 7.735057
-9.073969 -54.062221 7.831922
-12.157015 -54.590893 8.816909
-10.471247 -54.366217 8.362463
-14.005389 -54.993836 8.788488
-13.08475 -54.146321 8.237178
-12.157015 -54.590893 8.816909
-15.881219 -55.394623 8.388763
-14.005389 -54.993836 8.788488
-11.035415 -34.102535 4.859989
-12.774858 -35.012341 4.496758
-17.607437 -41.350849 -2.37915
-16.690512 -41.522602 -1.880561
-15.66765 -40.629486 -2.884587
-17.607437 -41.350849 -2.37915
-18.581942 -41.286375 -2.911168
3 0 202 204
3 202 49 203
3 202 203 204
3 0 51 49
3 1 54 52
3 3 57 55
3 3 205 207
3 207 206 57
3 205 206 207
3 2 208 209
3 4 60 58
3 5 210 212
3 210 61 211
3 210 211 212
3 5 63 61
3 5 65 63
3 7 68 66
3 7 70 68
3 8 73 71
3 9 76 74
3 9 78 76
3 213 81 214
3 215 214 79
3 213 214 215
3 10 85 83
3 10 87 85
3 10 89 87
3 11 216 218
3 216 93 217
3 216 217 218
3 11 95 93
3 6 98 96
3 12 101 99
3 12 103 101
3 12 105 103
3 220 219 106
3 13 221 223
3 221 107 222
3 221 222 223
3 13 108 107
3 13 110 108
3 15 111 50
3 15 112 111
3 16 115 113
3 18 116 53
3 18 117 116
3 224 118 225
3 226 119 227
3 228 227 118
3 226 227 228
3 229 121 230
3 231 230 119
3 229 230 231
3 21 124 122
3 23 125 56
3 23 126 125
3 23 128 126
3 24 131 129
3 26 132 59
3 26 133 132
3 232 134 233
3 27 135 62
3 27 136 135
3 27 138 136
3 29 139 64
3 29 140 139
3 14 141 109
3 30 142 67
3 30 143 142
3 30 144 143
3 31 145 69
3 31 146 145
3 236 235 147
3 234 235 236
3 32 150 149
3 34 151 72
3 34 152 151
3 17 153 114
3 237 154 238
3 239 238 75
3 237 238 239
3 240 155 241
3 242 241 154
3 240 241 242
3 244 243 155
3 35 156 77
3 35 157 156
3 25 158 130
3 36 159 80
3 36 160 159
3 245 161 246
3 37 247 249
3 247 162 248
3 247 248 249
3 37 163 162
3 37 164 163
3 250 165 251
3 252 251 82
3 250 251 252
3 253 166 254
3 255 254 165
3 253 254 255
3 257 256 166
3 19 258 260
3 258 167 259
3 258 259 260
3 38 168 84
3 38 169 168
3 38 170 169
3 39 171 86
3 39 172 171
3 39 173 172
3 40 174 88
3 40 175 174
3 20 176 120
3 41 177 90
3 41 178 177
3 41 179 178
3 261 180 262
3 263 262 91
3 261 262 263
3 265 264 180
3 266 181 267
3 42 268 270
3 268 182 269
3 268 269 270
3 42 183 182
3 43 184 92
3 43 185 184
3 43 186 185
3 44 187 94
3 44 188 187
3 28 189 137
3 45 190 97
3 45 191 190
3 22 192 123
3 46 193 100
3 46 194 193
3 46 195 194
3 47 196 102
3 47 197 196
3 47 198 197
3 48 199 104
3 48 200 199
3 271 201 272
3 273 272 127
3 271 272 273
3 33 274 275
3 278 277 148
3 276 277 278
3 49 279 280
3 49 281 283
3 281 13 282
3 281 282 283
3 49 50 13
3 51 50 49
3 51 15 50
3 52 53 16
3 54 53 52
3 54 18 53
3 55 56 21
3 57 56 55
3 57 23 56
3 57 284 286
3 286 285 23
3 284 285 286
3 288 287 57
3 58 59 24
3 60 59 58
3 60 26 59
3 61 289 290
3 61 291 292
3 61 293 295
3 293 62 294
3 293 294 295
3 63 62 61
3 63 27 62
3 63 64 27
3 65 64 63
3 65 29 64
3 66 67 14
3 68 67 66
3 68 30 67
3 68 69 30
3 70 69 68
3 70 31 69
3 71 72 32
3 73 72 71
3 73 34 72
3 74 75 17
3 76 75 74
3 76 296 298
3 298 297 75
3 296 297 298
3 76 299 301
3 299 77 300
3 299 300 301
3 78 77 76
3 78 35 77
3 79 80 25
3 81 80 79
3 81 36 80
3 302 37 303
3 304 82 305
3 306 305 37
3 304 305 306
3 307 82 308
3 310 309 82
3 83 84 19
3 85 84 83
3 85 38 84
3 85 86 38
3 87 86 85
3 87 39 86
3 87 88 39
3 89 88 87
3 89 40 88
3 311 90 312
3 313 312 20
3 311 312 313
3 314 90 315
3 316 41 317
3 318 317 90
3 316 317 318
3 319 91 320
3 321 320 41
3 319 320 321
3 322 91 323
3 325 324 91
3 326 42 327
3 328 92 329
3 93 330 332
3 330 92 331
3 330 331 332
3 93 43 92
3 93 94 43
3 95 94 93
3 95 44 94
3 96 97 28
3 98 97 96
3 98 45 97
3 99 100 22
3 101 100 99
3 101 46 100
3 101 102 46
3 103 102 101
3 103 47 102
3 103 104 47
3 105 104 103
3 105 48 104
3 106 333 335
3 335 334 33
3 333 334 335
3 337 336 106
3 339 338 4
3 107 340 341
3 107 342 343
3 107 344 345
3 108 346 348
3 348 347 107
3 346 347 348
3 108 349 351
3 349 5 350
3 349 350 351
3 108 109 5
3 110 109 108
3 110 14 109
3 50 110 13
3 111 110 50
3 111 14 110
3 111 66 14
3 112 66 111
3 112 7 66
3 113 114 8
3 115 114 113
3 115 17 114
3 53 115 16
3 116 115 53
3 116 17 115
3 116 74 17
3 117 74 116
3 117 9 74
3 352 19 353
3 118 354 355
3 118 356 358
3 356 19 357
3 356 357 358
3 118 83 19
3 119 83 118
3 119 10 83
3 119 120 10
3 121 120 119
3 121 20 120
3 359 121 360
3 361 121 362
3 363 20 364
3 365 364 121
3 363 364 365
3 367 366 20
3 368 11 369
3 122 123 6
3 124 123 122
3 124 22 123
3 56 124 21
3 125 124 56
3 125 22 124
3 125 99 22
3 126 99 125
3 126 12 99
3 126 127 12
3 128 127 126
3 128 370 372
3 372 371 127
3 370 371 372
3 373 128 374
3 375 374 23
3 373 374 375
3 376 128 377
3 379 378 128
3 129 130 1
3 131 130 129
3 131 25 130
3 59 131 24
3 132 131 59
3 132 25 131
3 132 79 25
3 133 79 132
3 133 380 382
3 382 381 79
3 380 381 382
3 383 60 384
3 385 384 4
3 383 384 385
3 386 60 387
3 388 26 389
3 390 389 60
3 388 389 390
3 391 26 392
3 393 133 394
3 395 394 26
3 393 394 395
3 396 133 397
3 396 397 398
3 400 399 133
3 134 401 402
3 134 403 405
3 403 404 405
3 62 406 408
3 406 134 407
3 406 407 408
3 135 134 62
3 135 409 411
3 411 410 134
3 409 410 411
3 135 412 413
3 136 414 416
3 416 415 135
3 414 415 416
3 136 417 418
3 136 419 421
3 419 137 420
3 419 420 421
3 138 137 136
3 138 28 137
3 64 138 27
3 139 138 64
3 139 28 138
3 139 96 28
3 140 96 139
3 140 6 96
3 109 65 5
3 141 65 109
3 141 29 65
3 67 141 14
3 142 141 67
3 142 29 141
3 142 140 29
3 143 140 142
3 143 6 140
3 143 122 6
3 144 122 143
3 144 21 122
3 69 144 30
3 145 144 69
3 145 21 144
3 145 55 21
3 146 55 145
3 146 3 55
3 147 148 2
3 422 148 423
3 424 423 147
3 422 423 424
3 426 425 148
3 427 0 428
3 149 429 430
3 150 431 433
3 433 432 149
3 431 432 433
3 150 434 436
3 434 33 435
3 434 435 436
3 72 150 32
3 151 150 72
3 151 33 150
3 151 106 33
3 152 106 151
3 152 437 439
3 439 438 106
3 437 438 439
3 114 73 8
3 153 73 114
3 153 34 73
3 75 153 17
3 154 153 75
3 154 34 153
3 154 152 34
3 155 152 154
3 155 440 442
3 442 441 152
3 440 441 442
3 155 443 444
3 446 445 155
3 77 447 448
3 156 449 451
3 451 450 77
3 449 450 451
3 156 452 453
3 156 454 455
3 157 456 458
3 458 457 156
3 456 457 458
3 157 459 461
3 459 2 460
3 459 460 461
3 130 54 1
3 158 54 130
3 158 18 54
3 80 158 25
3 159 158 80
3 159 18 158
3 159 117 18
3 160 117 159
3 160 9 117
3 462 81 463
3 161 464 466
3 464 81 465
3 464 465 466
3 161 36 81
3 467 161 468
3 162 469 471
3 469 161 470
3 469 470 471
3 162 36 161
3 162 160 36
3 163 160 162
3 163 9 160
3 163 78 9
3 164 78 163
3 164 35 78
3 82 164 37
3 165 164 82
3 165 35 164
3 165 157 35
3 166 157 165
3 166 2 157
3 166 147 2
3 472 147 473
3 474 473 166
3 472 473 474
3 476 475 147
3 477 0 478
3 167 479 480
3 167 481 482
3 84 167 19
3 168 167 84
3 168 483 485
3 485 484 167
3 483 484 485
3 168 486 487
3 169 488 490
3 490 489 168
3 488 489 490
3 169 491 493
3 491 492 493
3 169 494 495
3 170 496 498
3 498 497 169
3 496 497 498
3 170 499 500
3 86 170 38
3 171 170 86
3 171 501 503
3 503 502 170
3 501 502 503
3 171 504 505
3 172 506 508
3 508 507 171
3 506 507 508
3 172 509 511
3 509 0 510
3 509 510 511
3 172 51 0
3 173 51 172
3 173 15 51
3 88 173 39
3 174 173 88
3 174 15 173
3 174 112 15
3 175 112 174
3 175 7 112
3 120 89 10
3 176 89 120
3 176 40 89
3 90 176 20
3 177 176 90
3 177 40 176
3 177 175 40
3 178 175 177
3 178 7 175
3 178 70 7
3 179 70 178
3 179 31 70
3 91 179 41
3 180 179 91
3 180 31 179
3 180 146 31
3 512 146 513
3 514 513 180
3 512 513 514
3 515 3 516
3 517 516 146
3 515 516 517
3 518 3 519
3 521 520 3
3 522 149 523
3 181 524 526
3 524 149 525
3 524 525 526
3 181 32 149
3 527 181 528
3 182 529 531
3 529 181 530
3 529 530 531
3 182 32 181
3 182 71 32
3 183 71 182
3 183 8 71
3 532 42 533
3 92 534 535
3 184 536 538
3 538 537 92
3 536 537 538
3 184 539 541
3 539 42 540
3 539 540 541
3 184 183 42
3 185 183 184
3 185 8 183
3 185 113 8
3 186 113 185
3 186 16 113
3 94 186 43
3 187 186 94
3 187 16 186
3 187 52 16
3 188 52 187
3 188 1 52
3 137 542 543
3 189 544 546
3 546 545 137
3 544 545 546
3 189 547 548
3 97 189 28
3 190 189 97
3 190 549 551
3 551 550 189
3 549 550 551
3 190 552 553
3 191 554 556
3 556 555 190
3 554 555 556
3 191 557 559
3 557 11 558
3 557 558 559
3 123 98 6
3 192 98 123
3 192 45 98
3 100 192 22
3 193 192 100
3 193 45 192
3 193 191 45
3 194 191 193
3 194 11 191
3 194 95 11
3 195 95 194
3 195 44 95
3 102 195 46
3 196 195 102
3 196 44 195
3 196 188 44
3 197 188 196
3 197 1 188
3 197 129 1
3 198 129 197
3 198 24 129
3 104 198 47
3 199 198 104
3 199 24 198
3 199 58 24
3 200 58 199
3 200 4 58
3 127 105 12
3 201 105 127
3 201 48 105
3 560 201 561
3 562 201 563
3 564 48 565
3 566 565 201
3 564 565 566
3 567 200 568
3 569 568 48
3 567 568 569
3 570 200 571
3 572 4 573
3 574 573 200
3 572 573 574
3 576 575 4
3 578 577 33
3 148 579 581
3 581 580 2
3 579 580 581
3 583 582 148
