ply
format ascii 1.0
element vertex 875
property float x
property float y
property float z
element face 1058
property list uchar int vertex_index
end_header
-59.627186 -55.768318 -1.635956
-53.71516 -18.292202 -26.573938
-53.619293 -39.217815 -7.17691
-58.999268 -37.838055 -16.180948
-58.855488 -18.945715 -15.983023
-44.8904 -63.680519 10.138412
-48.557873 -48.148144 4.303329
-38.992455 -0.463291 -39.144894
-55.087341 -28.390991 -12.361149
-51.050335 -62.125587 -1.743114
-55.32476 -27.06673 -18.925732
-63.187725 -44.865444 -2.63783
-59.000099 -46.140907 -8.691803
-62.168213 -37.854225 -11.059941
-65.222855 -26.411383 -15.468557
-62.148335 -15.364879 -21.152939
-42.030552 -64.84874 5.567373
-53.320324 -61.120544 5.68445
-50.04525 -57.764935 8.768138
-57.188637 -53.303886 2.279256
-53.162243 -44.824245 -1.267159
-53.900379 -9.409183 -23.429428
-56.884613 -6.224857 -28.569927
-47.859859 3.189851 -34.284328
-55.940441 -60.362267 -1.863035
-54.031548 -61.770191 -4.49541
-55.14209 -56.161236 -4.363381
-54.316059 -21.759945 -22.583277
-58.556042 -42.188232 -5.164642
-62.389641 -41.106823 -6.99797
-57.947701 -38.635876 -9.5488
-57.490471 -23.603649 -14.727025
-62.245953 -26.60495 -12.978946
-63.761566 -21.52096 -14.687823
-63.70713 -20.462566 -17.154694
-62.743416 -15.937302 -16.853395
-44.412872 -64.043991 7.598989
-47.33231 -60.899334 4.863179
-49.408012 -63.557453 8.133918
-44.673332 -53.590202 8.535325
-48.607841 -53.103996 5.738
-53.468292 -56.30592 5.871509
-52.780842 -50.840206 2.827708
-56.311241 -48.401035 0.764503
-51.606224 -46.66787 1.635298
-52.01162 -4.162314 -25.390812
-57.775158 -5.931183 -25.488342
-55.888344 -0.656282 -27.638378
-36.933983 6.205673 -36.128273
-42.893211 8.061566 -37.081295
-42.341991 1.440822 -34.936363
-46.04295 -2.713521 -32.998856
-57.50605 -42.135765 -11.891284
-48.990089 -35.497757 -7.938992
-54.063316 -34.086441 -10.568876
-49.595623 -30.009266 -10.88723
-51.345787 -25.30267 -13.420316
-53.58717 -20.885601 -15.784513
-34.375221 4.035792 -38.831215
-45.02549 -63.580223 -1.205492
-49.573261 -64.66188 -4.097743
-57.697094 -32.379631 -17.583988
-62.877636 -50.154663 -1.940704
-58.902687 -49.91436 -4.843462
-62.47953 -44.797829 -5.768701
-61.973274 -42.092113 -9.932951
-61.677868 -37.707264 -13.715405
-59.265175 -32.626087 -12.645547
-63.526283 -32.13689 -13.829608
-62.648399 -32.306969 -17.424116
-61.433796 -26.875546 -18.165131
-58.869701 -20.588184 -19.944979
-58.032879 -16.979538 -24.437569
-45.095924 -61.270283 1.751221
-51.578857 -59.672791 1.626923
-57.491547 -59.653454 2.598877
-43.858566 -60.968605 12.123556
-40.73304 -53.596809 13.097618
-44.939415 -57.821705 11.67314
-49.680305 -62.362144 11.316851
-54.443737 -61.761883 9.395622
-58.016071 -59.597145 6.211515
-61.230225 -55.049274 1.870542
-61.186218 -49.219841 0.301028
-58.484093 -45.71944 -1.972584
-53.501854 -41.907185 -3.783401
-48.58252 -38.686699 -4.468672
-52.409088 -16.41449 -17.647961
-56.188549 -14.372104 -19.580133
-59.594433 -10.665468 -21.23505
-59.914513 -9.925563 -24.406265
-54.817421 -11.829863 -26.156748
-52.333111 3.614508 -30.825359
-52.893211 -1.833451 -31.99555
-49.509186 -7.417151 -29.176632
-49.560993 -14.123388 -30.041616
-57.50338 -58.230629 -1.586437
-55.78878 -58.408009 -3.245482
-57.289619 -55.797157 -2.955782
-54.645893 -20.130905 -24.871958
-56.113251 -40.972988 -6.322395
-58.159229 -40.643116 -7.370801
-55.771858 -38.887405 -8.341559
-58.619972 -21.097698 -15.546763
-60.950401 -22.531225 -14.61584
-61.527943 -19.846331 -15.068323
-63.486134 -18.769789 -15.304916
-61.13512 -17.662048 -16.021702
-42.931385 -64.400871 10.11644
-44.814083 -63.959145 8.997962
-46.781471 -63.272514 7.671468
-47.235241 -63.820854 9.282104
-46.576431 -50.968449 6.585202
-48.369637 -50.5481 4.767664
-50.606689 -52.171234 4.138764
-50.376106 -49.587032 3.456741
-52.321831 -48.700382 2.392852
-50.210308 -47.569263 3.122931
-54.275402 -2.071511 -26.412292
-53.022358 -0.075098 -27.484959
-37.537598 2.29272 -37.039768
-39.487785 3.303199 -35.169205
-40.224789 0.045097 -36.521858
-42.500069 -0.958507 -36.43858
-58.252216 -40.010254 -14.212947
-55.959175 -43.457054 -14.491803
-57.285713 -41.331596 -16.30784
-47.331676 -33.181293 -7.704506
-49.118088 -32.787777 -9.575425
-47.671391 -30.491192 -9.267134
-48.926636 -25.636459 -12.038636
-50.000095 -23.354359 -13.569208
-52.539417 -22.934174 -14.865625
-51.108624 -21.401371 -14.774178
-33.81942 8.54778 -38.612671
-48.055393 -62.664612 -1.560635
-47.63903 -64.048416 -2.655689
-50.475399 -63.740398 -2.909318
-56.268909 -29.784359 -17.501215
-54.437653 -33.43293 -17.335047
-52.967915 -30.474873 -18.473003
-63.554024 -47.310387 -2.282583
-62.869343 -47.280952 -3.851894
-63.648762 -44.629162 -4.048348
-62.163841 -39.775848 -9.174649
-63.089874 -41.340553 -8.578758
-62.567272 -39.947128 -10.47398
-61.429405 -40.184181 -11.730342
-62.663502 -37.681297 -12.349599
-54.522392 -30.950979 -11.81325
-56.672955 -33.324802 -11.778137
-57.58506 -29.892727 -12.603642
-64.776901 -26.36557 -13.622211
-63.539867 -29.02486 -13.205206
-64.821487 -29.157856 -14.732096
-63.623493 -32.018852 -15.604799
-64.261337 -29.42066 -16.75304
-62.451149 -29.41363 -17.819614
-63.832661 -26.758759 -17.230064
-62.882141 -17.536676 -18.896811
-61.426674 -20.386524 -18.632576
-60.737091 -17.888693 -21.263775
-58.545921 -18.686996 -22.696346
-60.450653 -16.43981 -23.366817
-41.037689 -65.310776 4.501797
-42.109859 -63.193825 2.367079
-42.903648 -62.639153 3.809734
-50.427723 -60.770447 5.277799
-49.227959 -59.837017 3.201306
-52.292072 -59.777721 3.571342
-54.566975 -59.5867 1.905272
-55.318859 -60.25478 4.011856
-47.221321 -55.782837 8.139881
-44.920326 -56.041222 9.875586
-47.775795 -57.973125 10.566363
-47.645031 -59.826336 11.834691
-50.442276 -59.938934 11.13089
-52.199585 -62.336597 10.710682
-52.603844 -59.815742 9.496183
-55.269737 -55.162823 3.881546
-55.814014 -57.985645 6.073642
-57.481514 -56.437531 4.03054
-59.411182 -57.610725 4.404885
-59.540325 -54.196037 2.271684
-61.529652 -52.057518 1.212875
-59.363201 -51.254841 1.295794
-54.896538 -46.586185 -0.169361
-57.585426 -47.146183 -0.395337
-55.821949 -45.451183 -1.693144
-56.217297 -43.665287 -2.948487
-53.591522 -43.457935 -2.441876
-48.933739 -39.677467 -2.776467
-50.358105 -16.741425 -16.34082
-50.678993 -8.335402 -23.10947
-51.89193 -10.830729 -21.89146
-52.864174 -13.041303 -20.438168
-55.011742 -11.80975 -21.64077
-57.9263 -12.715334 -20.453999
-56.982674 -10.177607 -22.627272
-58.255432 -5.491216 -26.943127
-59.433815 -7.747807 -24.851082
-58.380493 -8.297015 -26.547327
-57.676655 -11.050058 -26.024414
-55.763996 -9.115165 -27.640808
-45.313843 5.616426 -36.123596
-45.169762 8.484137 -34.821938
-48.062904 6.491298 -34.744293
-49.348694 5.580949 -31.763773
-50.80917 3.916928 -33.480389
-53.339317 1.56266 -32.114281
-50.410675 0.792599 -33.435966
-45.594555 -5.506593 -33.337437
-47.804649 -4.946039 -31.174015
-46.899235 -8.329395 -31.080658
-48.544613 -10.816462 -28.819103
-58.522331 -47.427467 -6.642962
-55.746655 -50.090305 -6.059531
-56.423054 -48.340847 -8.181724
-53.786407 -61.764271 -1.619383
-53.000202 -63.025604 -2.995679
-54.832775 -61.198677 -3.380623
-54.452492 -59.132679 -4.505189
-54.560467 -24.245163 -20.855318
-61.233032 -43.236656 -3.64459
-62.868275 -42.76091 -4.536904
-60.525318 -41.738068 -5.935381
-60.284679 -40.116661 -8.359995
-60.265759 -38.255531 -10.351379
-56.177074 -26.088587 -13.325018
-58.491791 -27.43816 -12.506634
-59.823265 -25.111694 -13.553268
-63.176678 -24.111649 -13.77284
-64.869972 -23.627722 -14.779965
-64.639328 -23.562723 -16.134411
-64.59922 -20.822807 -15.549748
-63.962055 -17.746489 -16.797611
-63.141151 -14.969612 -18.838184
-43.315311 -64.409805 6.513299
-44.078201 -62.369362 5.000385
-45.720081 -62.549477 6.160899
-48.491035 -62.185738 6.430405
-51.275719 -62.45155 6.880547
-44.882072 -51.189217 8.447995
-46.564049 -53.527527 7.091667
-49.199837 -55.565193 6.836287
-51.764294 -57.277782 7.17978
-50.962078 -54.767883 5.765261
-53.135426 -53.733776 3.941873
-55.082561 -51.989723 2.497474
-56.918964 -50.508869 1.36761
-54.637413 -49.538349 1.937491
-53.866386 -47.657814 1.225139
-52.439476 -45.768257 0.190142
-52.900776 -6.710122 -24.852749
-55.942616 -7.618857 -24.636972
-55.102539 -4.789478 -25.99667
-56.883736 -3.265902 -26.836193
-57.274426 -3.144355 -28.427176
-37.859486 10.162798 -37.08976
-40.660332 10.534163 -36.682026
-39.941433 7.21565 -36.330891
-42.55249 4.6035 -35.745968
-45.153809 2.709222 -34.425617
-47.12014 0.131182 -33.44286
-44.735023 0.11526 -34.430145
-44.039993 -3.079358 -34.907806
-57.879639 -44.119549 -9.704687
-55.165668 -45.308441 -11.786914
-51.26606 -37.536037 -7.673468
-53.69973 -37.000496 -8.871716
-51.300537 -34.955875 -9.426674
-51.684376 -31.975891 -10.857885
-52.149994 -29.25816 -11.923787
-48.149189 -27.962936 -10.416914
-50.2714 -27.595211 -11.800594
-52.955547 -26.92425 -12.809341
-54.25761 -24.538786 -14.203092
-55.341896 -22.112316 -15.490339
-56.397614 -20.007954 -16.023497
-35.42725 5.158891 -37.692158
-36.792637 1.757337 -39.415565
-52.164955 -63.568077 -4.242422
-50.660301 -63.753376 -5.308558
-58.93935 -35.408451 -17.451691
-57.251953 -38.578663 -17.363781
-56.238548 -36.18314 -17.249029
-61.532684 -53.16214 -1.858747
-59.649651 -52.714622 -3.338216
-61.374836 -50.201759 -3.605715
-60.815826 -47.268734 -5.150586
-60.652893 -45.388657 -7.450864
-63.417553 -42.840778 -6.083808
-62.195961 -43.398491 -7.933861
-60.399731 -43.969032 -8.851357
-59.853809 -42.144207 -10.766565
-59.85862 -39.973335 -12.979111
-60.336201 -37.711205 -14.995691
-56.004894 -36.353626 -10.249456
-58.385475 -35.848225 -11.419827
-60.983177 -35.465233 -11.789215
-60.69223 -29.239742 -12.89284
-61.739342 -32.276802 -13.016065
-62.890106 -34.900356 -12.438574
-62.828896 -35.024811 -14.098854
-61.900688 -34.977039 -15.680344
-60.936829 -35.304382 -17.164885
-60.505371 -32.182045 -18.029348
-59.635834 -29.449024 -17.668217
-58.439507 -27.094437 -18.389584
-62.745911 -23.934326 -17.719696
-60.098675 -24.229202 -18.882078
-57.386902 -24.194729 -19.740107
-56.490459 -21.083487 -21.279709
-56.377991 -19.491436 -23.635328
-55.608898 -17.521763 -24.996326
-41.830124 -64.186295 0.763388
-44.830063 -62.383278 0.151013
-48.019901 -60.832935 -0.226478
-45.894745 -60.873096 3.283656
-48.315948 -60.127922 1.353784
-51.284698 -60.325916 -0.309841
-54.161507 -60.163231 -0.021634
-56.745766 -59.972633 0.327368
-58.933727 -58.623463 0.368701
-45.399372 -63.022217 11.596243
-42.527409 -53.559692 10.412519
-42.286224 -55.790733 11.54976
-42.133446 -57.581116 12.708652
-44.703728 -59.324211 12.191259
-46.866192 -61.556732 11.74908
-47.531445 -63.766102 10.904024
-50.082333 -64.323715 10.103719
-52.402222 -64.11676 9.2352
-54.498077 -62.683998 7.710356
-54.261421 -59.146645 7.550988
-56.256325 -60.820698 7.51597
-56.569683 -61.378468 5.963332
-58.538361 -60.200623 4.753913
-59.948524 -58.332836 2.901359
-61.223072 -55.668221 0.120057
-62.347858 -52.77018 -0.090566
-62.904411 -49.71143 -0.513608
-62.590553 -47.239891 -1.105333
-58.732964 -48.819664 0.531275
-60.212025 -47.405972 -0.652271
-61.108826 -45.426228 -2.155126
-58.787182 -43.592552 -3.320401
-56.064995 -42.071564 -4.716053
-53.4953 -40.810081 -5.587298
-50.173103 -44.503731 1.032805
-50.604187 -43.865074 -0.251142
-51.001656 -42.863037 -1.506308
-51.03849 -41.556053 -2.798706
-50.811573 -40.444061 -4.385799
-50.873379 -39.239067 -6.095226
-48.540531 -37.228783 -6.176355
-47.002663 -34.927284 -5.844321
-53.311718 -18.701122 -16.257076
-55.753937 -17.984692 -16.712629
-51.168922 -13.986432 -18.940334
-54.443916 -15.665787 -18.626637
-57.848186 -16.934742 -17.320919
-59.586082 -15.298927 -17.976522
-61.278572 -13.451221 -18.871796
-61.935699 -12.20225 -20.351055
-58.765602 -8.405978 -23.482864
-60.542114 -9.57089 -22.469473
-61.21767 -12.24597 -22.238007
-59.234978 -13.180374 -23.73308
-56.645161 -14.017874 -24.592125
-53.738686 -15.101069 -25.01199
-51.301353 1.616983 -28.869808
-54.215961 1.307805 -29.630096
-55.442219 -0.778441 -30.122662
-54.915291 -4.109216 -30.427738
-49.092171 -2.246668 -32.191597
-51.337818 -4.648133 -30.748068
-53.191673 -6.913253 -29.088062
-51.76479 -9.703453 -27.728064
-50.933647 -13.034451 -26.663532
-51.503197 -16.463408 -27.812922
-56.666023 -52.860542 -4.420463
-53.966026 -53.513176 -5.991959
-53.914592 -19.670192 -26.962073
-54.379959 -20.589544 -26.111083
-54.180526 -19.211554 -25.722948
-53.642259 -18.56109 -27.814704
-53.914592 -19.670192 -26.962073
-48.463755 -49.348122 4.535496
-47.701776 -49.54915 5.391011
-47.795895 -48.349173 5.158844
-51.251465 -0.044045 -26.937014
-51.933182 -1.020973 -26.756889
-40.243212 -1.303773 -38.873322
-40.859379 -1.049579 -37.561803
-39.608622 -0.209097 -37.833376
-39.682839 -1.552407 -40.107726
-40.243212 -1.303773 -38.873322
-47.187296 -30.633911 -8.185426
-47.501534 -31.836242 -8.48582
-47.017438 -31.978961 -7.404111
-49.652968 -22.307899 -13.30561
-49.119335 -23.364629 -12.630629
-50.207232 -21.331404 -13.908095
-50.55436 -22.377865 -14.171693
-49.652968 -22.307899 -13.30561
-42.035658 -66.318272 5.701441
-42.430502 -65.957226 6.275763
-41.534121 -65.079758 5.034585
-41.539226 -66.54929 5.168653
-42.035658 -66.318272 5.701441
-46.632566 -8.46779 -32.782925
-46.246895 -6.917994 -32.209047
-45.980227 -7.056389 -33.911314
-47.320334 -9.945687 -31.668965
-46.632566 -8.46779 -32.782925
-54.489186 -56.771862 -5.111229
-54.144386 -58.257584 -5.182133
-54.797291 -57.646957 -4.434285
-53.486734 -23.484139 -22.8889
-53.608939 -24.726748 -22.024921
-54.438263 -23.002554 -21.719297
-43.806004 -65.145195 7.909589
-43.66477 -64.645577 8.454032
-43.864092 -64.226898 7.056144
-43.257223 -65.328102 7.366744
-43.806004 -65.145195 7.909589
-45.279685 -49.913666 8.286327
-44.75355 -50.098488 9.491646
-50.991477 -5.01902 -24.511198
-50.516417 -3.872614 -24.64166
-52.456198 -5.436218 -25.12178
-51.436054 -6.292924 -24.242166
-50.991477 -5.01902 -24.511198
-43.663059 -3.331816 -36.459201
-43.270031 -2.018933 -35.673193
-42.893097 -2.27139 -37.224588
-44.685894 -4.349113 -35.768226
-43.663059 -3.331816 -36.459201
-55.736114 -45.317512 -14.552154
-56.713082 -44.178353 -15.780738
-47.827399 -26.86103 -10.24622
-47.579788 -27.973802 -9.503508
-34.976503 2.739034 -39.974243
-36.185211 1.599807 -40.266418
-35.583929 2.896564 -39.12339
-44.97464 -64.16042 -1.781949
-43.58201 -64.315601 -0.967857
-48.472416 -65.014816 -3.815453
-47.505301 -64.708084 -3.094426
-48.606145 -64.355148 -3.376716
-49.031508 -64.94223 -4.49263
-48.472416 -65.014816 -3.815453
-50.941307 -63.13126 -5.795001
-51.693779 -62.911198 -5.32689
-49.88845 -63.807032 -5.625458
-50.941307 -63.13126 -5.795001
-54.360565 -35.469455 -17.734716
-53.430563 -34.078242 -18.21315
-40.88888 -65.244416 1.995138
-40.776009 -65.82235 1.116788
-43.601439 -61.847564 12.364477
-42.667568 -60.974913 12.882054
-44.628969 -61.995411 11.8599
-44.371842 -62.87437 12.10082
-43.601439 -61.847564 12.364477
-40.06511 -53.709496 14.449118
-40.89712 -52.844986 14.378779
-40.340754 -54.651268 13.381062
-40.06511 -53.709496 14.449118
-43.60037 -53.574947 9.473922
-42.931185 -52.476333 10.428953
-44.004147 -52.491588 9.490356
-49.682312 -43.449555 1.27248
-49.686229 -43.716244 1.902931
-49.897854 -43.130226 0.630507
-50.388645 -44.184403 0.390831
-49.682312 -43.449555 1.27248
-50.081316 -41.799816 -1.384893
-50.116363 -42.268493 -0.647335
-50.099733 -41.146324 -2.031093
-51.020073 -42.209545 -2.152507
-50.081316 -41.799816 -1.384893
-46.973005 -34.488283 -4.621644
-47.069837 -35.708235 -4.926362
-46.794985 -33.726608 -5.524107
-46.973005 -34.488283 -4.621644
-50.635157 -12.774233 -19.451575
-50.3836 -13.012626 -18.180848
-42.907674 9.343031 -35.744715
-41.791235 10.57933 -35.54508
-41.776771 9.297864 -36.88166
-44.454273 9.016509 -32.802626
-45.517138 7.709373 -33.318036
-50.469961 3.504188 -29.859202
-48.977753 4.487408 -30.328409
-50.840902 4.597729 -31.294566
-51.817232 2.615746 -29.847583
-49.954082 2.505425 -28.881426
-50.469961 3.504188 -29.859202
-50.760929 -15.254262 -30.544744
-51.732031 -16.424272 -29.430397
-50.532095 -15.293398 -28.927269
-54.138061 -52.483673 -7.183194
-54.856341 -51.801741 -6.025745
-55.028376 -50.772238 -7.216981
-54.014925 -54.373329 -6.966345
-54.138061 -52.483673 -7.183194
-57.632757 -40.27111 -17.931089
-56.608572 -39.163515 -17.739133
-53.936847 -21.56587 -25.023768
-53.77193 -22.38039 -23.879428
-54.480976 -20.945425 -23.727618
-53.936847 -21.56587 -25.023768
-54.379959 -20.589544 -26.111083
-42.924026 -64.824016 9.712758
-42.307935 -65.149646 10.449962
-43.865375 -64.603154 9.153519
-42.924026 -64.824016 9.712758
-43.872734 -64.180008 9.557201
-44.613478 -64.001568 8.298476
-43.66477 -64.645577 8.454032
-43.865375 -64.603154 9.153519
-46.805173 -49.759325 6.29978
-46.126865 -49.803282 7.354931
-47.473034 -50.758274 5.676433
-46.805173 -49.759325 6.29978
-47.701776 -49.54915 5.391011
-51.427813 -3.06458 -25.709816
-50.516417 -3.872614 -24.64166
-52.559704 -2.019179 -26.220556
-53.143511 -3.116913 -25.901552
-51.427813 -3.06458 -25.709816
-53.64888 -1.073305 -26.948625
-52.559704 -2.019179 -26.220556
-51.933182 -1.020973 -26.756889
-41.997019 -1.551381 -37.520164
-41.362429 -0.456705 -36.480219
-40.859379 -1.049579 -37.561803
-42.893097 -2.27139 -37.224588
-41.997019 -1.551381 -37.520164
-57.376351 -43.115623 -16.688756
-56.713082 -44.178353 -15.780738
-56.622444 -42.394325 -15.399821
-48.582605 -24.505679 -11.865343
-48.216122 -25.697792 -11.057081
-49.463366 -24.495409 -12.803922
-48.582605 -24.505679 -11.865343
-49.119335 -23.364629 -12.630629
-32.900061 9.810349 -39.05912
-33.76305 10.671592 -38.768333
-33.125688 7.629509 -38.615978
-32.900061 9.810349 -39.05912
-33.403589 5.373514 -38.725251
-34.097321 6.291786 -38.721943
-33.125688 7.629509 -38.615978
-33.849611 3.543244 -39.308893
-33.403589 5.373514 -38.725251
-53.379402 -61.919605 -4.920316
-53.854208 -60.907858 -5.143494
-52.695694 -32.599213 -18.782128
-53.430563 -34.078242 -18.21315
-53.702784 -31.953902 -17.904025
-41.099957 -67.000137 4.684435
-41.539226 -66.54929 5.168653
-40.492663 -65.806656 3.864343
-41.099957 -67.000137 4.684435
-41.573774 -64.252301 3.434438
-41.028748 -64.748181 2.796984
-40.492663 -65.806656 3.864343
-42.841616 -60.106583 12.663803
-42.667568 -60.974913 12.882054
-41.329284 -52.55372 13.026866
-40.89712 -52.844986 14.378779
-48.758969 -38.986892 -1.747785
-49.047358 -40.207031 -2.019973
-48.389686 -38.586271 -2.55078
-48.758969 -38.986892 -1.747785
-48.214077 -38.090887 -3.396882
-48.75813 -39.182083 -3.622569
-48.389686 -38.586271 -2.55078
-47.859766 -37.587942 -4.238538
-48.214077 -38.090887 -3.396882
-49.973658 -15.757075 -15.39215
-49.824728 -16.852825 -15.256251
-50.177578 -15.610606 -16.620804
-49.973658 -15.757075 -15.39215
-51.203069 -15.447139 -17.274375
-51.383596 -16.577958 -16.994391
-50.177578 -15.610606 -16.620804
-49.980091 -8.782504 -21.943351
-49.821075 -7.629829 -22.05918
-50.586559 -10.030167 -21.334345
-49.980091 -8.782504 -21.943351
-51.285461 -9.583066 -22.500465
-50.996661 -11.196381 -20.927138
-50.586559 -10.030167 -21.334345
-52.378052 -11.936016 -21.164814
-51.482782 -12.301668 -20.200492
-50.996661 -11.196381 -20.927138
-46.963709 6.712953 -33.279213
-45.517138 7.709373 -33.318036
-46.616333 7.487718 -34.783116
-48.705799 6.036124 -33.254033
-47.606604 6.257779 -31.788953
-46.963709 6.712953 -33.279213
-48.143023 -11.18922 -30.538187
-47.721924 -9.572928 -29.94988
-47.320334 -9.945687 -31.668965
-48.651212 -12.842683 -31.149444
-49.052803 -12.469925 -29.43036
-48.143023 -11.18922 -30.538187
-49.899702 -14.059553 -31.741847
-48.651212 -12.842683 -31.149444
-55.366575 -49.897509 -8.278077
-55.028376 -50.772238 -7.216981
-56.084854 -49.215576 -7.120628
-54.06468 -59.589102 -5.148383
-53.854208 -60.907858 -5.143494
-54.24202 -60.451435 -4.500299
-54.06468 -59.589102 -5.148383
-54.144386 -58.257584 -5.182133
-53.634158 -25.947912 -20.86802
-54.016304 -27.358695 -19.903227
-54.942614 -25.655946 -19.890525
-53.634158 -25.947912 -20.86802
-53.608939 -24.726748 -22.024921
-53.486734 -23.484139 -22.8889
-53.77193 -22.38039 -23.879428
-43.072882 -65.737759 6.748726
-43.257223 -65.328102 7.366744
-42.672932 -64.629273 6.040336
-42.430502 -65.957226 6.275763
-43.072882 -65.737759 6.748726
-44.108517 -51.291096 9.446691
-44.75355 -50.098488 9.491646
-44.777702 -52.389709 8.49166
-44.004147 -52.491588 9.490356
-44.108517 -51.291096 9.446691
-45.729252 -51.078833 7.516599
-45.279685 -49.913666 8.286327
-46.126865 -49.803282 7.354931
-50.325163 -7.105564 -23.370527
-49.821075 -7.629829 -22.05918
-51.789884 -7.522762 -23.98111
-50.325163 -7.105564 -23.370527
-51.436054 -6.292924 -24.242166
-39.259909 10.348481 -36.885893
-39.80414 12.200093 -36.502365
-38.403717 12.01441 -36.706232
-45.463175 -5.56273 -34.983042
-44.817274 -4.292975 -34.122622
-44.685894 -4.349113 -35.768226
-45.980227 -7.056389 -33.911314
-45.463175 -5.56273 -34.983042
-57.045844 -45.623703 -9.83204
-57.606074 -46.634382 -9.325598
-58.439869 -45.130228 -9.198245
-55.688858 -46.218149 -10.873153
-57.045844 -45.623703 -9.83204
-56.522653 -44.713995 -10.7458
-55.35556 -47.200375 -11.873266
-55.688858 -46.218149 -10.873153
-55.339361 -46.243206 -13.19971
-55.562421 -44.382748 -13.139359
-55.736114 -45.317512 -14.552154
-55.35556 -47.200375 -11.873266
-55.339361 -46.243206 -13.19971
-47.340889 -29.237931 -8.928618
-47.187296 -30.633911 -8.185426
-47.91029 -29.227064 -9.842024
-47.340889 -29.237931 -8.928618
-47.579788 -27.973802 -9.503508
-48.537913 -26.799698 -11.227775
-47.827399 -26.86103 -10.24622
-48.216122 -25.697792 -11.057081
-42.452618 -64.688759 10.932127
-42.307935 -65.149646 10.449962
-43.08744 -64.082296 10.593715
-42.452618 -64.688759 10.932127
-44.066948 -63.72212 10.604701
-43.910893 -64.040695 10.127426
-43.08744 -64.082296 10.593715
-48.242184 -47.275284 5.107964
-47.795895 -48.349173 5.158844
-48.624499 -47.074148 4.336906
-48.242184 -47.275284 5.107964
-37.077976 11.949298 -37.52873
-38.403717 12.01441 -36.706232
-36.567458 9.828436 -37.414965
-37.077976 11.949298 -37.52873
-36.104706 7.849873 -36.934221
-37.396734 8.184235 -36.609016
-36.567458 9.828436 -37.414965
-34.547425 9.020927 -38.17642
-33.76305 10.671592 -38.768333
-35.35134 7.326482 -37.716164
-34.547425 9.020927 -38.17642
-34.623335 6.853336 -38.152414
-36.180616 5.682282 -36.910215
-36.104706 7.849873 -36.934221
-35.35134 7.326482 -37.716164
-37.334665 0.611609 -40.428049
-38.434574 -0.498704 -40.292714
-37.892546 0.647023 -39.28023
-37.334665 0.611609 -40.428049
-36.185211 1.599807 -40.266418
-34.976503 2.739034 -39.974243
-33.849611 3.543244 -39.308893
-46.28141 -64.394516 -2.507048
-44.97464 -64.16042 -1.781949
-46.33226 -63.814319 -1.930591
-46.28141 -64.394516 -2.507048
-47.505301 -64.708084 -3.094426
-52.446106 -62.818548 -4.793822
-53.098252 -62.669134 -4.368916
-53.379402 -61.919605 -4.920316
-51.412628 -63.660727 -4.77549
-52.446106 -62.818548 -4.793822
-51.693779 -62.911198 -5.32689
-49.575027 -64.487978 -5.098038
-49.031508 -64.94223 -4.49263
-50.116781 -64.207628 -4.70315
-49.575027 -64.487978 -5.098038
-49.88845 -63.807032 -5.625458
-56.101869 -37.965754 -17.681757
-56.608572 -39.163515 -17.739133
-56.74525 -37.380902 -17.306405
-55.261013 -36.844561 -17.691707
-55.3381 -34.808035 -17.292038
-54.360565 -35.469455 -17.734716
-56.101869 -37.965754 -17.681757
-55.261013 -36.844561 -17.691707
-52.837881 -29.062766 -19.676862
-54.146338 -28.770801 -18.699368
-54.016304 -27.358695 -19.903227
-52.499466 -31.012604 -19.838497
-52.837881 -29.062766 -19.676862
-52.695694 -32.599213 -18.782128
-52.499466 -31.012604 -19.838497
-41.984327 -64.618638 0.016583
-40.776009 -65.82235 1.116788
-43.427807 -63.883259 -0.221052
-43.58201 -64.315601 -0.967857
-41.984327 -64.618638 0.016583
-41.969991 -63.69006 1.565233
-40.88888 -65.244416 1.995138
-41.028748 -64.748181 2.796984
-44.321434 -63.392969 11.333616
-44.371842 -62.87437 12.10082
-45.144886 -63.351368 10.867328
-44.066948 -63.72212 10.604701
-44.321434 -63.392969 11.333616
-42.226469 -52.535162 11.684316
-42.931185 -52.476333 10.428953
-41.630224 -53.57825 11.755069
-41.329284 -52.55372 13.026866
-42.226469 -52.535162 11.684316
-41.117345 -55.74823 12.607132
-40.340754 -54.651268 13.381062
-41.509632 -54.693771 12.323689
-41.040957 -56.643422 13.186578
-41.117345 -55.74823 12.607132
-42.209835 -56.685924 12.129206
-40.910406 -57.636021 13.616906
-41.040957 -56.643422 13.186578
-41.979056 -58.412838 12.956351
-40.910406 -57.636021 13.616906
-43.264196 -59.284385 12.697655
-41.979056 -58.412838 12.956351
-43.418587 -58.452663 12.449956
-44.281147 -60.146408 12.157408
-42.841616 -60.106583 12.663803
-43.264196 -59.284385 12.697655
-49.450716 -46.784708 3.746707
-49.38409 -47.858704 3.71313
-48.624499 -47.074148 4.336906
-49.872587 -46.432117 2.864457
-49.450716 -46.784708 3.746707
-50.570545 -45.98142 2.12064
-50.908266 -47.118567 2.379115
-49.872587 -46.432117 2.864457
-49.853984 -44.899351 1.819393
-49.686229 -43.716244 1.902931
-50.889663 -45.585801 1.334051
-50.570545 -45.98142 2.12064
-49.853984 -44.899351 1.819393
-49.917629 -42.769512 -0.019752
-49.897854 -43.130226 0.630507
-50.802921 -43.364055 -0.878725
-49.917629 -42.769512 -0.019752
-50.116363 -42.268493 -0.647335
-49.986114 -40.61676 -2.787586
-50.099733 -41.146324 -2.031093
-49.047358 -40.207031 -2.019973
-47.838772 -36.858984 -5.092379
-48.561526 -37.957741 -5.322513
-47.859766 -37.587942 -4.238538
-47.771597 -36.078034 -6.010338
-47.838772 -36.858984 -5.092379
-47.069837 -35.708235 -4.926362
-46.959491 -32.853612 -6.454199
-47.167169 -34.054288 -6.774413
-46.794985 -33.726608 -5.524107
-47.017438 -31.978961 -7.404111
-46.959491 -32.853612 -6.454199
-50.26404 -20.333277 -14.152194
-50.207232 -21.331404 -13.908095
-51.067599 -20.25404 -15.061097
-50.26404 -20.333277 -14.152194
-52.306871 -19.996155 -15.566265
-52.347897 -21.143486 -15.279345
-51.067599 -20.25404 -15.061097
-50.692339 -17.924067 -15.844418
-49.824728 -16.852825 -15.256251
-52.169145 -18.903916 -15.802547
-50.692339 -17.924067 -15.844418
-51.834912 -17.721274 -16.298948
-53.449444 -19.793362 -16.020795
-52.306871 -19.996155 -15.566265
-52.169145 -18.903916 -15.802547
-50.582987 -14.23311 -17.920561
-50.3836 -13.012626 -18.180848
-51.789005 -15.200461 -18.294148
-51.203069 -15.447139 -17.274375
-50.582987 -14.23311 -17.920561
-52.016548 -13.513867 -19.689251
-50.635157 -12.774233 -19.451575
-51.482782 -12.301668 -20.200492
-41.060432 12.162392 -35.087569
-39.80414 12.200093 -36.502365
-41.060432 12.162392 -35.087569
-41.791235 10.57933 -35.54508
-44.04595 9.554317 -34.615036
-42.907674 9.343031 -35.744715
-44.031486 8.272851 -35.951617
-44.04595 9.554317 -34.615036
-44.454273 9.016509 -32.802626
-47.807669 5.581501 -30.176212
-47.606604 6.257779 -31.788953
-47.807669 5.581501 -30.176212
-48.977753 4.487408 -30.328409
-49.776201 1.864916 -27.44069
-49.954082 2.505425 -28.881426
-50.390963 0.801996 -27.629438
-49.776201 1.864916 -27.44069
-52.161856 0.770943 -28.177383
-51.251465 -0.044045 -26.937014
-50.390963 0.801996 -27.629438
-52.536278 -17.646693 -28.434196
-53.642259 -18.56109 -27.814704
-52.609178 -17.377805 -27.19343
-52.536278 -17.646693 -28.434196
-51.732031 -16.424272 -29.430397
-50.760929 -15.254262 -30.544744
-49.899702 -14.059553 -31.741847
-39.682839 -1.552407 -40.107726
-38.434574 -0.498704 -40.292714
-53.901153 -55.447832 -5.925518
-54.489186 -56.771862 -5.111229
-54.554058 -54.837206 -5.17767
-53.901153 -55.447832 -5.925518
-54.014925 -54.373329 -6.966345
-56.317551 -47.734352 -9.070558
-57.711576 -47.240877 -8.436764
-57.606074 -46.634382 -9.325598
-56.103693 -49.355455 -9.274981
-56.317551 -47.734352 -9.070558
-55.366575 -49.897509 -8.278077
-56.103693 -49.355455 -9.274981
-57.649637 -41.647577 -17.403119
-57.268833 -39.955129 -16.835811
-57.632757 -40.27111 -17.931089
-57.376351 -43.115623 -16.688756
-57.649637 -41.647577 -17.403119
3 0 98 96
3 1 383 385
3 385 384 99
3 383 384 385
3 1 386 387
3 2 102 100
3 4 105 103
3 4 107 105
3 5 109 108
3 5 111 109
3 6 388 390
3 388 113 389
3 388 389 390
3 6 115 113
3 6 117 115
3 391 119 392
3 7 122 120
3 7 393 395
3 395 394 122
3 393 394 395
3 7 396 397
3 3 126 124
3 398 129 399
3 400 399 127
3 398 399 400
3 401 131 402
3 403 133 404
3 405 404 131
3 403 404 405
3 9 137 135
3 10 140 138
3 11 143 141
3 13 146 144
3 13 148 146
3 8 151 149
3 14 154 152
3 14 156 154
3 14 158 156
3 15 161 159
3 15 163 161
3 16 406 407
3 16 408 410
3 408 164 409
3 408 409 410
3 16 166 164
3 17 169 167
3 17 171 169
3 18 174 172
3 18 176 174
3 18 178 176
3 19 181 179
3 19 183 181
3 19 185 183
3 20 188 186
3 20 190 188
3 21 194 193
3 21 196 194
3 21 198 196
3 22 201 199
3 22 203 201
3 23 206 204
3 23 208 206
3 23 210 208
3 411 213 412
3 413 412 211
3 411 412 413
3 415 414 213
3 12 217 215
3 24 220 218
3 26 221 97
3 26 416 418
3 418 417 221
3 416 417 418
3 27 419 421
3 421 420 222
3 419 420 421
3 28 225 223
3 30 226 101
3 30 227 226
3 31 230 228
3 33 231 104
3 33 232 231
3 33 234 232
3 35 235 106
3 35 236 235
3 36 422 423
3 36 424 426
3 424 237 425
3 424 425 426
3 36 239 237
3 38 240 110
3 38 241 240
3 427 242 428
3 40 243 112
3 40 244 243
3 40 246 244
3 42 247 114
3 42 248 247
3 42 250 248
3 44 251 116
3 44 252 251
3 45 429 430
3 45 431 433
3 431 253 432
3 431 432 433
3 45 255 253
3 47 256 118
3 47 257 256
3 48 260 258
3 50 261 121
3 50 262 261
3 50 264 262
3 434 265 435
3 436 435 123
3 434 435 436
3 438 437 265
3 52 267 266
3 440 439 125
3 53 270 268
3 55 271 128
3 55 272 271
3 441 273 442
3 56 274 130
3 56 275 274
3 56 276 275
3 57 277 132
3 57 278 277
3 58 279 134
3 58 280 279
3 58 443 445
3 445 444 280
3 443 444 445
3 59 446 447
3 60 448 450
3 450 449 136
3 448 449 450
3 60 451 452
3 25 281 219
3 453 282 454
3 456 455 282
3 61 285 283
3 458 457 139
3 62 288 286
3 64 289 142
3 64 290 289
3 29 291 224
3 65 292 145
3 65 293 292
3 65 294 293
3 66 295 147
3 66 296 295
3 54 297 269
3 67 298 150
3 67 299 298
3 32 300 229
3 68 301 153
3 68 302 301
3 68 303 302
3 69 304 155
3 69 305 304
3 69 306 305
3 70 307 157
3 70 308 307
3 34 309 233
3 71 310 160
3 71 311 310
3 71 312 311
3 72 313 162
3 72 314 313
3 459 315 460
3 73 316 165
3 73 317 316
3 37 318 238
3 74 319 168
3 74 320 319
3 74 321 320
3 75 322 170
3 75 323 322
3 76 461 462
3 76 463 465
3 463 324 464
3 463 464 465
3 77 466 467
3 77 468 469
3 39 470 472
3 470 325 471
3 470 471 472
3 78 326 173
3 78 327 326
3 78 328 327
3 79 329 175
3 79 330 329
3 79 331 330
3 80 332 177
3 80 333 332
3 41 334 245
3 81 335 180
3 81 336 335
3 81 337 336
3 82 338 182
3 82 339 338
3 82 340 339
3 83 341 184
3 83 342 341
3 43 343 249
3 84 344 187
3 84 345 344
3 84 346 345
3 85 347 189
3 85 348 347
3 473 349 474
3 475 350 476
3 477 476 349
3 475 476 477
3 478 351 479
3 480 352 481
3 482 481 351
3 480 481 482
3 86 353 191
3 86 354 353
3 86 355 354
3 483 356 484
3 486 485 356
3 87 357 192
3 87 358 357
3 487 359 488
3 88 360 195
3 88 361 360
3 88 362 361
3 89 363 197
3 89 364 363
3 46 365 254
3 90 366 200
3 90 367 366
3 90 368 367
3 91 369 202
3 91 370 369
3 49 489 491
3 491 490 259
3 489 490 491
3 493 492 205
3 92 494 496
3 496 495 207
3 494 495 496
3 92 497 499
3 497 371 498
3 497 498 499
3 92 372 371
3 93 373 209
3 93 374 373
3 51 375 263
3 94 376 212
3 94 377 376
3 94 378 377
3 95 379 214
3 95 380 379
3 95 500 502
3 502 501 380
3 500 501 502
3 63 381 287
3 503 382 504
3 505 504 216
3 503 504 505
3 507 506 382
3 509 508 284
3 96 97 24
3 98 97 96
3 98 26 97
3 99 510 512
3 512 511 27
3 510 511 512
3 514 513 99
3 100 101 28
3 102 101 100
3 102 30 101
3 103 104 31
3 105 104 103
3 105 33 104
3 105 106 33
3 107 106 105
3 107 35 106
3 108 515 516
3 109 517 519
3 519 518 108
3 517 518 519
3 109 520 522
3 520 36 521
3 520 521 522
3 109 110 36
3 111 110 109
3 111 38 110
3 523 112 524
3 113 525 527
3 525 112 526
3 525 526 527
3 113 40 112
3 113 114 40
3 115 114 113
3 115 42 114
3 115 116 42
3 117 116 115
3 117 44 116
3 528 45 529
3 530 118 531
3 532 531 45
3 530 531 532
3 119 533 535
3 533 118 534
3 533 534 535
3 119 47 118
3 120 121 48
3 122 121 120
3 122 50 121
3 122 123 50
3 536 123 537
3 538 537 122
3 536 537 538
3 540 539 123
3 124 125 52
3 126 125 124
3 126 541 543
3 543 542 125
3 541 542 543
3 127 128 53
3 129 128 127
3 129 55 128
3 544 130 545
3 131 546 548
3 546 130 547
3 546 547 548
3 131 56 130
3 131 132 56
3 133 132 131
3 133 57 132
3 549 134 550
3 551 134 552
3 553 58 554
3 555 554 134
3 553 554 555
3 557 556 58
3 135 136 59
3 137 136 135
3 137 60 136
3 559 558 25
3 138 139 61
3 140 139 138
3 140 560 562
3 562 561 139
3 560 561 562
3 141 142 62
3 143 142 141
3 143 64 142
3 144 145 29
3 146 145 144
3 146 65 145
3 146 147 65
3 148 147 146
3 148 66 147
3 149 150 54
3 151 150 149
3 151 67 150
3 152 153 32
3 154 153 152
3 154 68 153
3 154 155 68
3 156 155 154
3 156 69 155
3 156 157 69
3 158 157 156
3 158 70 157
3 159 160 34
3 161 160 159
3 161 71 160
3 161 162 71
3 163 162 161
3 163 72 162
3 164 563 564
3 164 565 566
3 164 567 569
3 567 165 568
3 567 568 569
3 166 165 164
3 166 73 165
3 167 168 37
3 169 168 167
3 169 74 168
3 169 170 74
3 171 170 169
3 171 75 170
3 570 76 571
3 572 77 573
3 172 173 39
3 174 173 172
3 174 78 173
3 174 175 78
3 176 175 174
3 176 79 175
3 176 177 79
3 178 177 176
3 178 80 177
3 179 180 41
3 181 180 179
3 181 81 180
3 181 182 81
3 183 182 181
3 183 82 182
3 183 184 82
3 185 184 183
3 185 83 184
3 186 187 43
3 188 187 186
3 188 84 187
3 188 189 84
3 190 189 188
3 190 85 189
3 574 191 575
3 576 191 577
3 578 86 579
3 580 579 191
3 578 579 580
3 582 581 86
3 583 192 584
3 585 192 586
3 587 87 588
3 589 588 192
3 587 588 589
3 193 590 591
3 194 592 594
3 594 593 193
3 592 593 594
3 194 595 596
3 194 597 599
3 597 195 598
3 597 598 599
3 196 195 194
3 196 88 195
3 196 197 88
3 198 197 196
3 198 89 197
3 199 200 46
3 201 200 199
3 201 90 200
3 201 202 90
3 203 202 201
3 203 91 202
3 204 205 49
3 206 205 204
3 206 600 602
3 602 601 205
3 600 601 602
3 206 603 605
3 603 207 604
3 603 604 605
3 208 207 206
3 208 92 207
3 208 209 92
3 210 209 208
3 210 93 209
3 211 212 51
3 213 212 211
3 213 94 212
3 213 214 94
3 606 214 607
3 608 607 213
3 606 607 608
3 609 95 610
3 611 610 214
3 609 610 611
3 613 612 95
3 215 216 63
3 217 216 215
3 217 614 616
3 616 615 216
3 614 615 616
3 218 219 9
3 220 219 218
3 220 25 219
3 97 220 24
3 221 220 97
3 221 25 220
3 221 617 619
3 619 618 25
3 617 618 619
3 621 620 221
3 222 622 624
3 624 623 10
3 622 623 624
3 626 625 222
3 628 627 27
3 223 224 11
3 225 224 223
3 225 29 224
3 101 225 28
3 226 225 101
3 226 29 225
3 226 144 29
3 227 144 226
3 227 13 144
3 228 229 8
3 230 229 228
3 230 32 229
3 104 230 31
3 231 230 104
3 231 32 230
3 231 152 32
3 232 152 231
3 232 14 152
3 232 233 14
3 234 233 232
3 234 34 233
3 106 234 33
3 235 234 106
3 235 34 234
3 235 159 34
3 236 159 235
3 236 15 159
3 237 629 630
3 237 631 633
3 631 16 632
3 631 632 633
3 237 238 16
3 239 238 237
3 239 37 238
3 110 239 36
3 240 239 110
3 240 37 239
3 240 167 37
3 241 167 240
3 241 17 167
3 242 634 635
3 242 636 638
3 636 39 637
3 636 637 638
3 112 639 641
3 639 242 640
3 639 640 641
3 243 242 112
3 243 39 242
3 243 172 39
3 244 172 243
3 244 18 172
3 244 245 18
3 246 245 244
3 246 41 245
3 114 246 40
3 247 246 114
3 247 41 246
3 247 179 41
3 248 179 247
3 248 19 179
3 248 249 19
3 250 249 248
3 250 43 249
3 116 250 42
3 251 250 116
3 251 43 250
3 251 186 43
3 252 186 251
3 252 20 186
3 642 193 643
3 253 644 646
3 644 193 645
3 644 645 646
3 253 21 193
3 253 254 21
3 255 254 253
3 255 46 254
3 118 255 45
3 256 255 118
3 256 46 255
3 256 199 46
3 257 199 256
3 257 22 199
3 258 647 649
3 647 259 648
3 647 648 649
3 260 259 258
3 260 49 259
3 121 260 48
3 261 260 121
3 261 49 260
3 261 204 49
3 262 204 261
3 262 23 204
3 262 263 23
3 264 263 262
3 264 51 263
3 123 264 50
3 265 264 123
3 265 51 264
3 265 211 51
3 650 211 651
3 652 651 265
3 650 651 652
3 654 653 211
3 266 655 657
3 657 656 12
3 655 656 657
3 267 658 660
3 660 659 266
3 658 659 660
3 267 661 662
3 125 267 52
3 663 267 664
3 665 664 125
3 663 664 665
3 667 666 267
3 268 269 2
3 270 269 268
3 270 54 269
3 128 270 53
3 271 270 128
3 271 54 270
3 271 149 54
3 272 149 271
3 272 8 149
3 668 129 669
3 273 670 672
3 670 129 671
3 670 671 672
3 273 55 129
3 130 673 675
3 673 273 674
3 673 674 675
3 274 273 130
3 274 55 273
3 274 272 55
3 275 272 274
3 275 8 272
3 275 228 8
3 276 228 275
3 276 31 228
3 132 276 56
3 277 276 132
3 277 31 276
3 277 103 31
3 278 103 277
3 278 4 103
3 676 108 677
3 678 108 679
3 680 5 681
3 682 681 108
3 680 681 682
3 683 6 684
3 686 685 6
3 687 258 688
3 689 258 690
3 691 48 692
3 693 692 258
3 691 692 693
3 134 694 695
3 279 696 698
3 698 697 134
3 696 697 698
3 279 699 701
3 699 48 700
3 699 700 701
3 279 120 48
3 280 120 279
3 280 7 120
3 280 702 704
3 704 703 7
3 702 703 704
3 706 705 280
3 708 707 58
3 136 709 711
3 711 710 59
3 709 710 711
3 713 712 136
3 219 137 9
3 281 137 219
3 281 60 137
3 714 281 715
3 716 715 25
3 714 715 716
3 282 717 719
3 717 281 718
3 717 718 719
3 282 60 281
3 282 720 722
3 722 721 60
3 720 721 722
3 724 723 282
3 283 284 3
3 285 284 283
3 285 725 727
3 727 726 284
3 725 726 727
3 139 285 61
3 728 285 729
3 730 729 139
3 728 729 730
3 732 731 285
3 733 140 734
3 735 734 10
3 733 734 735
3 736 140 737
3 739 738 140
3 286 287 0
3 288 287 286
3 288 63 287
3 142 288 62
3 289 288 142
3 289 63 288
3 289 215 63
3 290 215 289
3 290 12 215
3 224 143 11
3 291 143 224
3 291 64 143
3 145 291 29
3 292 291 145
3 292 64 291
3 292 290 64
3 293 290 292
3 293 12 290
3 293 266 12
3 294 266 293
3 294 52 266
3 147 294 65
3 295 294 147
3 295 52 294
3 295 124 52
3 296 124 295
3 296 3 124
3 269 102 2
3 297 102 269
3 297 30 102
3 150 297 54
3 298 297 150
3 298 30 297
3 298 227 30
3 299 227 298
3 299 13 227
3 229 151 8
3 300 151 229
3 300 67 151
3 153 300 32
3 301 300 153
3 301 67 300
3 301 299 67
3 302 299 301
3 302 13 299
3 302 148 13
3 303 148 302
3 303 66 148
3 155 303 68
3 304 303 155
3 304 66 303
3 304 296 66
3 305 296 304
3 305 3 296
3 305 283 3
3 306 283 305
3 306 61 283
3 157 306 69
3 307 306 157
3 307 61 306
3 307 138 61
3 308 138 307
3 308 10 138
3 233 158 14
3 309 158 233
3 309 70 158
3 160 309 34
3 310 309 160
3 310 70 309
3 310 308 70
3 311 308 310
3 311 10 308
3 311 222 10
3 312 222 311
3 312 27 222
3 162 312 71
3 313 312 162
3 313 27 312
3 313 99 27
3 314 99 313
3 314 1 99
3 315 740 741
3 315 742 744
3 742 59 743
3 742 743 744
3 165 745 747
3 745 315 746
3 745 746 747
3 316 315 165
3 316 59 315
3 316 135 59
3 317 135 316
3 317 9 135
3 238 166 16
3 318 166 238
3 318 73 166
3 168 318 37
3 319 318 168
3 319 73 318
3 319 317 73
3 320 317 319
3 320 9 317
3 320 218 9
3 321 218 320
3 321 24 218
3 170 321 74
3 322 321 170
3 322 24 321
3 322 96 24
3 323 96 322
3 323 0 96
3 324 748 749
3 324 750 752
3 750 5 751
3 750 751 752
3 325 753 754
3 325 755 757
3 755 77 756
3 755 756 757
3 173 325 39
3 326 325 173
3 326 77 325
3 326 758 760
3 760 759 77
3 758 759 760
3 327 761 763
3 763 762 326
3 761 762 763
3 327 764 765
3 327 766 767
3 328 768 770
3 770 769 327
3 768 769 770
3 328 771 773
3 771 76 772
3 771 772 773
3 175 328 78
3 329 328 175
3 329 76 328
3 329 324 76
3 330 324 329
3 330 5 324
3 330 111 5
3 331 111 330
3 331 38 111
3 177 331 79
3 332 331 177
3 332 38 331
3 332 241 38
3 333 241 332
3 333 17 241
3 245 178 18
3 334 178 245
3 334 80 178
3 180 334 41
3 335 334 180
3 335 80 334
3 335 333 80
3 336 333 335
3 336 17 333
3 336 171 17
3 337 171 336
3 337 75 171
3 182 337 81
3 338 337 182
3 338 75 337
3 338 323 75
3 339 323 338
3 339 0 323
3 339 286 0
3 340 286 339
3 340 62 286
3 184 340 82
3 341 340 184
3 341 62 340
3 341 141 62
3 342 141 341
3 342 11 141
3 249 185 19
3 343 185 249
3 343 83 185
3 187 343 43
3 344 343 187
3 344 83 343
3 344 342 83
3 345 342 344
3 345 11 342
3 345 223 11
3 346 223 345
3 346 28 223
3 189 346 84
3 347 346 189
3 347 28 346
3 347 100 28
3 348 100 347
3 348 2 100
3 774 117 775
3 776 775 6
3 774 775 776
3 777 117 778
3 779 44 780
3 781 780 117
3 779 780 781
3 349 782 783
3 349 784 786
3 784 44 785
3 784 785 786
3 349 252 44
3 350 252 349
3 350 20 252
3 787 350 788
3 351 789 791
3 789 350 790
3 789 790 791
3 351 20 350
3 351 190 20
3 352 190 351
3 352 85 190
3 191 792 794
3 792 352 793
3 792 793 794
3 353 352 191
3 353 85 352
3 353 348 85
3 354 348 353
3 354 2 348
3 354 268 2
3 355 268 354
3 355 53 268
3 795 355 796
3 797 796 86
3 795 796 797
3 356 798 800
3 798 355 799
3 798 799 800
3 356 53 355
3 356 127 53
3 801 127 802
3 803 802 356
3 801 802 803
3 805 804 127
3 806 133 807
3 808 133 809
3 810 57 811
3 812 811 133
3 810 811 812
3 192 813 814
3 357 815 817
3 817 816 192
3 815 816 817
3 357 818 820
3 818 57 819
3 818 819 820
3 357 278 57
3 358 278 357
3 358 4 278
3 359 821 822
3 359 823 825
3 823 87 824
3 823 824 825
3 195 826 828
3 826 359 827
3 826 827 828
3 360 359 195
3 360 87 359
3 360 358 87
3 361 358 360
3 361 4 358
3 361 107 4
3 362 107 361
3 362 35 107
3 197 362 88
3 363 362 197
3 363 35 362
3 363 236 35
3 364 236 363
3 364 15 236
3 254 198 21
3 365 198 254
3 365 89 198
3 200 365 46
3 366 365 200
3 366 89 365
3 366 364 89
3 367 364 366
3 367 15 364
3 367 163 15
3 368 163 367
3 368 72 163
3 202 368 90
3 369 368 202
3 369 72 368
3 369 314 72
3 370 314 369
3 370 1 314
3 259 829 830
3 832 831 259
3 205 833 835
3 835 834 49
3 833 834 835
3 837 836 205
3 207 838 839
3 841 840 207
3 371 842 843
3 371 844 845
3 371 846 848
3 846 119 847
3 846 847 848
3 372 119 371
3 372 47 119
3 209 372 92
3 373 372 209
3 373 47 372
3 373 257 47
3 374 257 373
3 374 22 257
3 263 210 23
3 375 210 263
3 375 93 210
3 212 375 51
3 376 375 212
3 376 93 375
3 376 374 93
3 377 374 376
3 377 22 374
3 377 203 22
3 378 203 377
3 378 91 203
3 214 378 94
3 379 378 214
3 379 91 378
3 379 370 91
3 380 370 379
3 380 1 370
3 380 849 851
3 851 850 1
3 849 850 851
3 853 852 380
3 855 854 95
3 857 856 7
3 287 98 0
3 381 98 287
3 381 26 98
3 216 381 63
3 382 381 216
3 382 26 381
3 382 858 860
3 860 859 26
3 858 859 860
3 862 861 382
3 863 217 864
3 865 864 12
3 863 864 865
3 866 217 867
3 869 868 217
3 284 126 3
3 870 126 871
3 872 871 284
3 870 871 872
3 874 873 126
