ply
format ascii 1.0
element vertex 490
property float x
property float y
property float z
element face 558
property list uchar int vertex_index
end_header
-37.617817 15.983973 9.296717
-48.916451 7.188503 0.984808
-43.13512 6.900004 17.789194
-53.876141 21.509762 16.586216
-37.152431 14.875299 22.522825
-49.166145 14.207332 21.731756
-43.093102 21.159389 19.149242
-32.91227 21.730965 12.089628
-43.156158 10.983821 5.160161
-48.47279 8.823462 8.430058
-52.551647 14.522585 8.127852
-47.053368 19.329491 10.684053
-35.705162 19.921453 23.120224
-40.043968 18.083967 20.716038
-37.769886 22.750319 20.607407
-38.312107 9.97243 11.7297
-34.978878 5.682446 13.818651
-34.918083 12.864141 12.687803
-32.062309 15.15832 13.086179
-35.72683 18.811146 11.452027
-45.780262 9.075721 2.44272
-46.311581 7.981203 13.976893
-52.670391 18.124966 20.28418
-53.223305 14.8576 15.484935
-53.766785 17.598095 15.359789
-49.330376 15.591098 10.190866
-52.609497 20.86821 12.402182
-40.320095 9.838281 21.623768
-45.351772 11.344587 19.137766
-42.979347 13.79048 23.014973
-46.817608 17.158154 21.201618
-49.218731 21.487064 18.094269
-29.50951 17.246256 11.629996
-40.914959 7.597862 10.18736
-40.030205 13.187793 7.314317
-40.612125 4.769467 20.673725
-36.324425 8.746473 23.116312
-33.918427 14.409207 24.786842
-51.207264 8.732786 1.827467
-48.861031 12.42978 15.012323
-50.901012 12.203337 8.253088
-49.960106 11.739165 1.49038
-47.582855 13.422795 2.918113
-44.496178 14.786621 5.447773
-42.45026 17.255033 8.305095
-40.006214 21.121655 9.790361
-37.121838 24.182705 9.278366
-36.620327 21.40855 21.744074
-37.867268 12.92565 10.420093
-36.577583 11.282892 12.242773
-36.239418 14.618874 11.142032
-35.091686 15.914352 11.896269
-36.748047 17.39991 10.562056
-46.071053 6.571349 4.27968
-47.264286 8.261168 1.457233
-44.922661 5.231303 16.311716
-46.335533 5.635968 14.214907
-44.859352 7.526024 15.987432
-53.348614 20.098454 18.648113
-54.250893 17.970667 17.981724
-54.336243 19.688278 16.525051
-53.192451 19.484247 14.208873
-54.214893 21.129551 14.240657
-38.608807 12.287506 22.721109
-41.463631 11.854261 22.500717
-39.96434 14.24453 22.423262
-41.659031 19.486088 19.840744
-43.370811 17.430916 20.531485
-44.99263 19.312077 19.502554
-48.182304 19.193928 19.567753
-46.243965 21.235497 18.612453
-33.525448 6.795695 13.584132
-32.28093 18.653158 12.820337
-30.657904 16.248423 12.603895
-30.800436 19.842724 12.489661
-43.476662 8.301413 6.658302
-41.935814 6.373578 9.133229
-42.315308 9.41273 7.88473
-40.896229 10.553644 8.952618
-41.591927 12.064686 6.291853
-39.383553 4.045689 22.092703
-38.302971 6.541402 21.885069
-36.846825 5.873279 23.175863
-48.630074 6.296651 9.017117
-50.067162 6.895506 6.174009
-51.94104 7.409442 3.221986
-49.671345 8.747262 5.252554
-47.159508 12.811697 20.438128
-47.277321 12.152894 17.525341
-49.203735 13.790683 18.524073
-53.769196 14.610392 11.913009
-52.33083 13.450022 11.84711
-52.684181 13.350189 8.227218
-51.171486 12.144524 4.434138
-51.547272 13.460907 4.425408
-49.015373 12.73324 2.046688
-50.457645 14.133639 4.607461
-47.917259 17.343164 11.35186
-47.133736 14.798981 7.15067
-45.720188 16.020618 8.809191
-43.320702 15.780029 7.262995
-44.739384 17.983782 9.469205
-42.50116 21.704275 8.745501
-40.831348 23.4363 8.416739
-38.633369 22.739502 9.747254
-36.05899 17.401346 22.628763
-38.503044 16.641951 21.724865
-37.378868 18.964817 21.641125
-38.619873 20.25584 20.536154
-40.114124 21.640848 19.662016
-38.125484 6.746042 12.55657
-36.712292 8.061399 13.254608
-35.036182 9.301527 13.517939
-33.373817 10.556368 13.395436
-32.016613 11.552217 13.121588
-33.509277 14.051458 13.038083
-33.727707 17.211306 12.537475
-34.383102 20.27713 12.030938
-44.553825 7.279261 5.376073
-44.450134 9.963708 3.739939
-48.494453 4.224435 12.662897
-47.502998 5.946814 11.847685
-47.332142 8.347899 11.405313
-51.272572 16.054823 21.656231
-51.527996 15.161189 19.08469
-53.435448 16.424173 18.775854
-54.174641 16.004723 15.571057
-53.187584 15.705478 12.199835
-51.09771 14.974963 8.611353
-51.685272 16.834728 13.090179
-50.729134 18.798115 12.862765
-50.012138 20.438709 11.651292
-41.729763 8.446434 19.697428
-43.784512 9.273795 18.226843
-42.8881 10.330004 20.574635
-44.532703 11.85293 21.85811
-46.225182 13.375333 22.867147
-41.643089 15.841318 21.549599
-44.731781 15.386194 22.453447
-48.159611 15.443338 22.968063
-50.038666 17.507662 21.540838
-50.998009 19.702768 19.422972
-51.939587 21.700762 17.689707
-30.866222 12.513311 12.422589
-39.701088 8.769543 11.075876
-39.362122 11.707189 9.709053
-38.692402 14.519117 8.22804
-44.277042 4.25061 18.026016
-41.84745 5.725362 19.12056
-39.968086 7.349864 20.691517
-38.201569 9.259347 22.277456
-36.521111 11.956614 23.078754
-34.816948 8.241866 24.285686
-34.763527 11.534939 23.98983
-35.1437 14.771564 23.406868
-34.659027 17.434385 24.169003
-52.290222 7.293725 0.659956
-50.618427 8.173806 0.007216
-45.765099 10.005644 16.478092
-47.281414 10.405711 14.445641
-48.417702 10.843596 11.587339
-50.962391 13.90063 15.344996
-50.075726 12.310634 11.858009
-49.090229 10.894239 8.366369
-50.092186 10.567294 4.745746
-50.460308 10.367909 1.284161
-49.210835 9.496821 0.230059
-47.944031 10.758187 0.874526
-46.556744 11.574377 1.973
-44.849129 12.399816 3.03195
-48.768135 14.361242 5.464603
-45.815632 14.023712 4.042981
-42.956856 13.332685 3.995501
-41.637745 14.372766 5.345936
-40.678459 15.550482 6.770471
-39.842308 16.88649 8.166105
-47.178993 23.712557 18.343939
-50.035507 23.802847 17.090843
-52.42157 23.633953 15.553769
-53.681984 23.244442 13.648216
-53.5989 22.530704 11.275793
-51.820812 21.871326 9.71093
-49.020485 21.385357 8.875697
-46.228561 20.710091 8.628939
-43.732395 19.894875 8.512662
-41.334755 19.124662 9.064577
-38.832848 18.554218 9.731524
-37.797352 20.134785 10.698835
-36.423096 21.721661 10.949014
-34.915749 23.176174 10.781332
-48.317589 6.548533 2.216001
-49.175663 6.049702 1.897738
-48.090368 7.724835 1.221021
-47.491506 7.084865 2.452214
-48.317589 6.548533 2.216001
-32.555172 5.804989 12.854304
-33.159058 5.235571 13.174296
-32.921563 7.365113 13.264139
-32.172342 22.412826 11.829921
-31.116425 21.468705 12.029937
-31.856353 20.786845 12.289644
-38.81234 3.759063 22.863025
-40.553364 3.284504 22.5826
-37.543976 4.672859 23.404605
-38.115189 4.959484 22.634283
-38.81234 3.759063 22.863025
-41.487609 24.463102 7.597443
-42.199489 23.669774 7.981796
-40.175684 24.152839 8.127838
-41.487609 24.463102 7.597443
-47.871524 4.00444 13.906104
-49.315963 3.68515 13.405245
-34.954977 3.809154 14.189875
-35.691826 5.106784 13.75392
-29.742935 15.358821 11.517962
-30.317132 14.859905 12.004911
-30.083707 16.747339 12.116945
-29.448355 15.782224 10.828965
-29.742935 15.358821 11.517962
-29.171375 17.652891 10.930834
-29.448355 15.782224 10.828965
-40.568842 5.887884 10.67989
-41.079269 5.275742 10.152825
-41.425387 6.98572 9.660294
-40.028239 6.542136 10.972931
-40.568842 5.887884 10.67989
-40.308024 8.183703 10.631618
-39.421303 7.127976 11.417189
-40.028239 6.542136 10.972931
-45.456623 3.617688 18.676786
-45.624231 3.727816 17.612093
-42.026791 4.128265 20.292256
-41.607183 3.855465 21.099817
-41.229788 5.247414 19.897143
-42.644453 4.606212 19.515673
-42.026791 4.128265 20.292256
-34.297161 7.977474 25.001571
-35.226661 6.760433 24.431044
-34.340977 12.972073 24.388336
-34.192231 11.284581 24.68978
-33.76968 12.721716 25.088285
-45.994959 24.345509 17.728113
-45.65823 23.569055 18.480487
-50.134335 24.457484 15.780081
-48.794611 24.275113 16.54177
-51.327366 24.373037 15.011544
-51.228538 23.7184 16.322306
-50.134335 24.457484 15.780081
-53.459303 23.88789 12.076148
-52.920105 24.189229 13.192466
-53.417761 23.531021 10.889937
-53.640442 22.887573 12.462004
-53.459303 23.88789 12.076148
-51.275499 22.270546 8.541975
-52.306427 22.630233 9.006482
-49.875336 22.027561 8.124358
-50.420648 21.628341 9.293314
-51.275499 22.270546 8.541975
-45.652195 21.487396 8.293111
-47.052949 21.660656 8.042177
-44.404112 21.079788 8.234972
-44.980478 20.302483 8.570801
-45.652195 21.487396 8.293111
-36.376375 21.860586 22.692024
-36.162745 20.665002 22.432149
-35.918793 21.117038 23.380099
-36.797315 22.654991 22.085124
-36.376375 21.860586 22.692024
-37.372095 23.325876 21.51679
-37.195107 22.079435 21.17574
-36.797315 22.654991 22.085124
-46.89489 6.239955 3.863437
-46.31987 5.361001 5.511937
-46.66767 7.416258 2.868456
-46.89489 6.239955 3.863437
-47.491506 7.084865 2.452214
-45.629097 5.433635 15.263312
-46.792064 4.710206 14.682109
-46.085628 4.507874 15.730513
-33.594313 4.765042 13.664031
-34.321027 4.208417 13.781291
-34.252163 6.239071 13.701391
-33.594313 4.765042 13.664031
-33.159058 5.235571 13.174296
-30.187247 20.405853 12.013141
-29.541784 19.107619 11.583309
-30.154973 18.54449 12.059829
-30.187247 20.405853 12.013141
-31.116425 21.468705 12.029937
-42.706238 7.337496 7.895765
-42.557865 5.802167 8.688289
-43.328289 6.766085 7.450826
-40.992897 3.493576 21.809306
-40.553364 3.284504 22.5826
-39.997839 4.407578 21.383214
-41.607183 3.855465 21.099817
-40.992897 3.493576 21.809306
-33.738577 14.154322 25.645536
-33.76968 12.721716 25.088285
-34.048838 15.779575 25.40246
-33.738577 14.154322 25.645536
-49.882973 5.691248 8.044421
-49.101547 5.430322 9.521031
-50.601517 5.990676 6.622866
-49.882973 5.691248 8.044421
-49.348618 6.596078 7.595563
-51.546404 6.462198 5.272649
-50.601517 5.990676 6.622866
-51.004101 7.152474 4.697997
-52.483343 6.719166 3.796638
-51.546404 6.462198 5.272649
-43.034396 22.803762 8.146178
-43.788494 21.984488 8.351392
-41.666254 22.570287 8.58112
-43.034396 22.803762 8.146178
-42.199489 23.669774 7.981796
-39.076695 23.80444 8.793096
-39.732359 23.087901 9.081996
-40.175684 24.152839 8.127838
-38.320929 24.526042 8.558652
-37.877603 23.461104 9.51281
-39.076695 23.80444 8.793096
-37.265129 5.638583 13.122879
-38.01372 4.948434 13.04337
-36.558533 6.296261 13.471898
-37.265129 5.638583 13.122879
-37.418888 7.403721 12.905589
-35.845585 6.871923 13.53663
-35.691826 5.106784 13.75392
-36.558533 6.296261 13.471898
-32.845747 9.24545 13.169791
-32.921563 7.365113 13.264139
-33.449632 8.676032 13.489784
-32.695215 11.054293 13.258512
-32.167145 9.743374 13.032867
-32.845747 9.24545 13.169791
-45.458261 5.587279 5.915197
-46.31987 5.361001 5.511937
-44.699647 5.941235 6.463394
-45.458261 5.587279 5.915197
-45.312439 6.925305 4.827877
-43.866871 6.255009 6.809711
-44.699647 5.941235 6.463394
-44.015243 7.790337 6.017188
-43.328289 6.766085 7.450826
-43.866871 6.255009 6.809711
-49.843137 3.894041 12.077246
-49.315963 3.68515 13.405245
-49.033737 4.394215 11.343921
-49.843137 3.894041 12.077246
-47.414993 4.930201 13.438902
-47.871524 4.00444 13.906104
-46.792064 4.710206 14.682109
-48.53801 5.255404 10.936315
-49.033737 4.394215 11.343921
-47.998725 5.085624 12.255291
-48.066536 6.121733 10.432401
-49.101547 5.430322 9.521031
-48.53801 5.255404 10.936315
-49.834162 6.755837 0.814592
-49.175663 6.049702 1.897738
-34.954977 3.809154 14.189875
-34.321027 4.208417 13.781291
-31.71352 10.122595 12.58243
-32.167145 9.743374 13.032867
-31.138324 10.603143 12.232931
-31.71352 10.122595 12.58243
-31.441418 12.032764 12.772088
-30.834781 11.026849 11.714997
-31.138324 10.603143 12.232931
-30.421291 12.992349 11.914258
-30.762063 14.380867 12.513242
-30.317132 14.859905 12.004911
-30.834781 11.026849 11.714997
-30.421291 12.992349 11.914258
-29.203649 19.514254 10.884147
-29.171375 17.652891 10.930834
-29.541784 19.107619 11.583309
-41.888483 4.8308 10.087601
-42.557865 5.802167 8.688289
-41.888483 4.8308 10.087601
-41.079269 5.275742 10.152825
-38.633501 6.116226 12.157536
-38.01372 4.948434 13.04337
-38.913286 7.757793 11.816223
-38.633501 6.116226 12.157536
-39.421303 7.127976 11.417189
-45.94704 4.218163 16.754943
-46.085628 4.507874 15.730513
-44.599851 4.740956 17.168866
-45.94704 4.218163 16.754943
-45.624231 3.727816 17.612093
-43.859249 3.868836 18.968401
-45.456623 3.617688 18.676786
-43.062246 4.987986 18.573288
-43.859249 3.868836 18.968401
-42.644453 4.606212 19.515673
-36.2416 5.57614 23.876133
-37.543976 4.672859 23.404605
-35.831886 7.057573 23.730774
-36.2416 5.57614 23.876133
-35.226661 6.760433 24.431044
-34.218941 9.638045 24.837708
-34.297161 7.977474 25.001571
-34.790238 9.888402 24.137758
-34.218941 9.638045 24.837708
-34.192231 11.284581 24.68978
-34.419138 17.292164 25.09354
-34.288727 15.921796 24.477922
-34.048838 15.779575 25.40246
-34.926916 18.794494 24.586073
-34.419138 17.292164 25.09354
-35.449984 20.038027 24.061684
-35.182095 18.677919 23.644613
-34.926916 18.794494 24.586073
-35.918793 21.117038 23.380099
-35.449984 20.038027 24.061684
-52.950454 6.909854 2.612393
-52.483343 6.719166 3.796638
-53.125045 6.851996 1.331378
-52.950454 6.909854 2.612393
-52.115631 7.351584 1.940971
-52.541065 6.496749 0.78615
-53.125045 6.851996 1.331378
-51.521048 6.808448 0.652166
-52.541065 6.496749 0.78615
-50.68515 7.248489 0.325796
-51.521048 6.808448 0.652166
-51.454324 7.733766 0.333586
-49.767439 7.681154 0.496012
-49.834162 6.755837 0.814592
-50.68515 7.248489 0.325796
-38.091322 24.329949 21.132859
-37.372095 23.325876 21.51679
-38.443329 23.648784 20.234464
-38.091322 24.329949 21.132859
-38.764765 25.228414 20.759916
-39.615448 23.094048 19.761769
-38.942005 22.195583 20.134712
-38.443329 23.648784 20.234464
-40.747482 22.598673 19.311999
-39.615448 23.094048 19.761769
-42.236971 22.357944 19.055612
-41.603613 21.400118 19.405629
-40.747482 22.598673 19.311999
-43.615284 22.292471 18.883139
-42.236971 22.357944 19.055612
-45.190716 22.330524 18.614744
-44.668534 21.197443 18.880848
-43.615284 22.292471 18.883139
-46.711479 22.474027 18.478196
-45.190716 22.330524 18.614744
-45.65823 23.569055 18.480487
-47.366354 24.229968 17.168318
-45.994959 24.345509 17.728113
-48.60725 23.757702 17.717391
-47.366354 24.229968 17.168318
-48.794611 24.275113 16.54177
-52.289898 24.383985 14.145242
-51.327366 24.373037 15.011544
-53.051777 23.439197 14.600993
-52.289898 24.383985 14.145242
-52.920105 24.189229 13.192466
-53.195471 22.959922 9.788913
-53.417761 23.531021 10.889937
-52.709856 22.201015 10.493361
-53.195471 22.959922 9.788913
-52.306427 22.630233 9.006482
-48.448912 21.998289 8.165555
-49.875336 22.027561 8.124358
-47.624523 21.047724 8.752318
-48.448912 21.998289 8.165555
-47.052949 21.660656 8.042177
-43.116777 20.799575 8.629082
-44.404112 21.079788 8.234972
-43.788494 21.984488 8.351392
-37.660488 25.215439 8.243873
-38.320929 24.526042 8.558652
-36.384844 24.862372 9.006332
-37.660488 25.215439 8.243873
-35.281799 24.359106 9.757815
-36.018794 23.67944 10.029849
-36.384844 24.862372 9.006332
-34.164041 23.90633 10.580016
-35.281799 24.359106 9.757815
-33.162302 23.183726 11.234164
-33.914009 22.45357 11.43548
-34.164041 23.90633 10.580016
-32.172342 22.412826 11.829921
-33.162302 23.183726 11.234164
3 0 50 48
3 0 52 50
3 1 190 191
3 1 192 194
3 192 54 193
3 192 193 194
3 2 57 55
3 3 60 58
3 3 62 60
3 4 65 63
3 6 68 66
3 6 70 68
3 197 196 71
3 195 196 197
3 7 74 72
3 7 198 200
3 200 199 74
3 198 199 200
3 8 77 75
3 8 79 77
3 201 80 202
3 203 82 204
3 205 204 80
3 203 204 205
3 9 84 83
3 9 86 84
3 5 89 87
3 10 92 90
3 10 94 92
3 10 96 94
3 11 99 97
3 11 101 99
3 206 103 207
3 209 208 103
3 12 107 105
3 14 108 47
3 14 109 108
3 15 111 110
3 17 112 49
3 17 113 112
3 17 115 113
3 19 116 51
3 19 117 116
3 20 118 53
3 20 119 118
3 210 120 211
3 21 121 56
3 21 122 121
3 22 125 123
3 24 126 59
3 24 127 126
3 24 129 127
3 26 130 61
3 26 131 130
3 27 134 132
3 29 135 64
3 29 136 135
3 13 137 106
3 30 138 67
3 30 139 138
3 30 140 139
3 31 141 69
3 31 142 141
3 16 212 213
3 18 143 114
3 32 214 216
3 216 215 73
3 214 215 216
3 32 217 218
3 32 219 220
3 33 221 223
3 223 222 76
3 221 222 223
3 33 224 225
3 33 226 228
3 226 144 227
3 226 227 228
3 34 145 78
3 34 146 145
3 229 147 230
3 35 231 232
3 35 233 235
3 233 148 234
3 233 234 235
3 35 149 148
3 36 150 81
3 36 151 150
3 236 152 237
3 37 238 240
3 238 153 239
3 238 239 240
3 37 154 153
3 37 155 154
3 38 156 85
3 38 157 156
3 28 158 133
3 39 159 88
3 39 160 159
3 23 161 124
3 40 162 91
3 40 163 162
3 40 164 163
3 41 165 93
3 41 166 165
3 41 167 166
3 42 168 95
3 42 169 168
3 25 170 128
3 43 171 98
3 43 172 171
3 43 173 172
3 44 174 100
3 44 175 174
3 241 176 242
3 243 177 244
3 245 178 246
3 247 246 177
3 245 246 247
3 248 179 249
3 250 180 251
3 252 251 179
3 250 251 252
3 253 181 254
3 255 182 256
3 257 256 181
3 255 256 257
3 258 183 259
3 260 184 261
3 262 261 183
3 260 261 262
3 45 185 102
3 45 186 185
3 45 187 186
3 46 188 104
3 46 189 188
3 263 47 264
3 265 264 12
3 263 264 265
3 266 47 267
3 268 14 269
3 270 269 47
3 268 269 270
3 48 49 15
3 50 49 48
3 50 17 49
3 50 51 17
3 52 51 50
3 52 19 51
3 271 53 272
3 54 273 275
3 273 53 274
3 273 274 275
3 54 20 53
3 55 276 278
3 276 56 277
3 276 277 278
3 57 56 55
3 57 21 56
3 58 59 22
3 60 59 58
3 60 24 59
3 60 61 24
3 62 61 60
3 62 26 61
3 63 64 27
3 65 64 63
3 65 29 64
3 66 67 13
3 68 67 66
3 68 30 67
3 68 69 30
3 70 69 68
3 70 31 69
3 71 279 281
3 281 280 16
3 279 280 281
3 283 282 71
3 72 73 18
3 74 73 72
3 74 32 73
3 74 284 286
3 286 285 32
3 284 285 286
3 288 287 74
3 75 289 291
3 289 76 290
3 289 290 291
3 77 76 75
3 77 33 76
3 77 78 33
3 79 78 77
3 79 34 78
3 80 292 293
3 80 294 296
3 294 35 295
3 294 295 296
3 80 81 35
3 82 81 80
3 82 36 81
3 297 37 298
3 300 299 37
3 83 301 302
3 84 303 305
3 305 304 83
3 303 304 305
3 84 306 307
3 84 308 310
3 308 85 309
3 308 309 310
3 86 85 84
3 86 38 85
3 87 88 28
3 89 88 87
3 89 39 88
3 90 91 23
3 92 91 90
3 92 40 91
3 92 93 40
3 94 93 92
3 94 41 93
3 94 95 41
3 96 95 94
3 96 42 95
3 97 98 25
3 99 98 97
3 99 43 98
3 99 100 43
3 101 100 99
3 101 44 100
3 311 102 312
3 103 313 315
3 313 102 314
3 313 314 315
3 103 45 102
3 103 104 45
3 316 104 317
3 318 317 103
3 316 317 318
3 319 46 320
3 321 320 104
3 319 320 321
3 105 106 4
3 107 106 105
3 107 13 106
3 47 107 12
3 108 107 47
3 108 13 107
3 108 66 13
3 109 66 108
3 109 6 66
3 110 322 323
3 111 324 326
3 326 325 110
3 324 325 326
3 111 327 329
3 327 16 328
3 327 328 329
3 49 111 15
3 112 111 49
3 112 16 111
3 112 71 16
3 113 71 112
3 113 330 332
3 332 331 71
3 330 331 332
3 113 333 335
3 333 114 334
3 333 334 335
3 115 114 113
3 115 18 114
3 51 115 17
3 116 115 51
3 116 18 115
3 116 72 18
3 117 72 116
3 117 7 72
3 53 336 337
3 118 338 340
3 340 339 53
3 338 339 340
3 118 341 342
3 118 343 345
3 343 75 344
3 343 344 345
3 119 75 118
3 119 8 75
3 120 346 347
3 120 348 349
3 56 350 352
3 350 120 351
3 350 351 352
3 121 120 56
3 121 353 355
3 355 354 120
3 353 354 355
3 121 356 358
3 356 83 357
3 356 357 358
3 122 83 121
3 122 9 83
3 123 124 5
3 125 124 123
3 125 23 124
3 59 125 22
3 126 125 59
3 126 23 125
3 126 90 23
3 127 90 126
3 127 10 90
3 127 128 10
3 129 128 127
3 129 25 128
3 61 129 24
3 130 129 61
3 130 25 129
3 130 97 25
3 131 97 130
3 131 11 97
3 359 1 360
3 132 133 2
3 134 133 132
3 134 28 133
3 64 134 27
3 135 134 64
3 135 28 134
3 135 87 28
3 136 87 135
3 136 5 87
3 106 65 4
3 137 65 106
3 137 29 65
3 67 137 13
3 138 137 67
3 138 29 137
3 138 136 29
3 139 136 138
3 139 5 136
3 139 123 5
3 140 123 139
3 140 22 123
3 69 140 30
3 141 140 69
3 141 22 140
3 141 58 22
3 142 58 141
3 142 3 58
3 362 361 16
3 114 363 364
3 143 365 367
3 367 366 114
3 365 366 367
3 143 368 369
3 73 143 18
3 370 143 371
3 372 371 73
3 370 371 372
3 374 373 143
3 377 376 32
3 375 376 377
3 76 378 379
3 381 380 76
3 382 110 383
3 144 384 386
3 384 110 385
3 384 385 386
3 144 15 110
3 78 144 33
3 145 144 78
3 145 15 144
3 145 48 15
3 146 48 145
3 146 0 48
3 387 55 388
3 147 389 391
3 389 55 390
3 389 390 391
3 147 2 55
3 392 147 393
3 148 394 396
3 394 147 395
3 394 395 396
3 148 2 147
3 148 132 2
3 149 132 148
3 149 27 132
3 81 149 35
3 150 149 81
3 150 27 149
3 150 63 27
3 151 63 150
3 151 4 63
3 397 82 398
3 152 399 401
3 399 82 400
3 399 400 401
3 152 36 82
3 402 152 403
3 153 404 406
3 404 152 405
3 404 405 406
3 153 36 152
3 153 151 36
3 154 151 153
3 154 4 151
3 154 105 4
3 155 105 154
3 155 12 105
3 407 155 408
3 409 408 37
3 407 408 409
3 410 155 411
3 412 12 413
3 414 413 155
3 412 413 414
3 416 415 12
3 85 417 418
3 156 419 421
3 421 420 85
3 419 420 421
3 156 422 423
3 156 424 425
3 157 426 428
3 428 427 156
3 426 427 428
3 157 429 431
3 429 1 430
3 429 430 431
3 133 57 2
3 158 57 133
3 158 21 57
3 88 158 28
3 159 158 88
3 159 21 158
3 159 122 21
3 160 122 159
3 160 9 122
3 124 89 5
3 161 89 124
3 161 39 89
3 91 161 23
3 162 161 91
3 162 39 161
3 162 160 39
3 163 160 162
3 163 9 160
3 163 86 9
3 164 86 163
3 164 38 86
3 93 164 40
3 165 164 93
3 165 38 164
3 165 157 38
3 166 157 165
3 166 1 157
3 166 54 1
3 167 54 166
3 167 20 54
3 95 167 41
3 168 167 95
3 168 20 167
3 168 119 20
3 169 119 168
3 169 8 119
3 128 96 10
3 170 96 128
3 170 42 96
3 98 170 25
3 171 170 98
3 171 42 170
3 171 169 42
3 172 169 171
3 172 8 169
3 172 79 8
3 173 79 172
3 173 34 79
3 100 173 43
3 174 173 100
3 174 34 173
3 174 146 34
3 175 146 174
3 175 0 146
3 432 14 433
3 434 14 435
3 434 435 436
3 437 109 438
3 439 438 14
3 437 438 439
3 440 109 441
3 442 6 443
3 444 443 109
3 442 443 444
3 445 6 446
3 447 70 448
3 449 448 6
3 447 448 449
3 176 450 452
3 450 70 451
3 450 451 452
3 176 31 70
3 453 176 454
3 177 455 457
3 455 176 456
3 455 456 457
3 177 31 176
3 177 142 31
3 178 142 177
3 178 3 142
3 458 178 459
3 179 460 462
3 460 178 461
3 460 461 462
3 179 3 178
3 179 62 3
3 180 62 179
3 180 26 62
3 463 180 464
3 181 465 467
3 465 180 466
3 465 466 467
3 181 26 180
3 181 131 26
3 182 131 181
3 182 11 131
3 468 182 469
3 183 470 472
3 470 182 471
3 470 471 472
3 183 11 182
3 183 101 11
3 184 101 183
3 184 44 101
3 102 473 475
3 473 184 474
3 473 474 475
3 185 184 102
3 185 44 184
3 185 175 44
3 186 175 185
3 186 0 175
3 186 52 0
3 187 52 186
3 187 19 52
3 104 187 45
3 188 187 104
3 188 19 187
3 188 117 19
3 189 117 188
3 189 7 117
3 476 46 477
3 478 46 479
3 480 189 481
3 482 481 46
3 480 481 482
3 483 189 484
3 485 7 486
3 487 486 189
3 485 486 487
3 489 488 7
