ply
format ascii 1.0
element vertex 498
property float x
property float y
property float z
element face 563
property list uchar int vertex_index
end_header
13.801961 -18.488409 38.336372
11.554716 2.192503 39.787445
5.607928 -9.605791 33.165382
14.806818 -40.065128 40.56237
6.142211 -34.636986 34.78635
15.043724 -30.21699 36.605339
6.026608 -37.61301 42.180779
6.819295 -28.316742 40.774132
7.124483 -21.061678 29.066259
10.835054 -7.920424 41.76918
5.583264 -14.188802 39.81649
4.897418 -2.29095 39.759438
7.558995 2.635338 31.319635
4.164752 -23.411373 33.712097
14.534843 -24.411427 36.938232
10.802422 -29.426693 38.12965
10.659883 -23.635408 37.791199
10.096345 -3.129025 42.093811
7.604302 -5.473042 41.20575
7.410974 0.167195 40.571327
6.039622 -36.195122 39.060951
3.905677 -11.541026 36.171486
4.238538 -18.755922 37.664177
4.146766 -16.743227 32.555729
5.141089 -27.403616 27.060902
8.826586 -27.877625 29.54096
15.492696 -35.595634 38.367733
10.559736 -38.668831 40.897663
11.235343 -34.522102 39.494041
6.582352 -33.493282 42.045265
4.404518 -32.055908 40.253483
7.097998 -8.170417 31.439411
7.842326 -15.351828 31.686325
5.007092 -14.131757 29.441278
12.55008 -12.714411 39.541145
9.847215 -16.417694 38.694347
8.557506 -10.759912 40.096424
5.188143 -8.255511 39.897968
3.852668 -5.384466 35.20446
4.613907 4.19711 38.321842
4.317952 0.582419 34.122047
7.080443 -3.465083 33.017586
5.513035 -1.98273 30.300812
13.056381 -9.219022 43.926434
6.83591 -21.442423 39.630852
4.671599 -25.652538 39.079849
5.305349 -29.844629 34.859596
7.306752 -22.08186 31.516657
5.52351 -28.366512 30.526867
14.192062 -21.528494 37.715302
12.586028 -24.016739 37.049297
12.341959 -21.015123 37.737389
10.906637 -0.495972 41.08622
8.917459 -1.659309 41.124992
9.589915 1.116685 39.875404
6.517789 -35.108582 37.031826
8.20834 -36.753532 36.311501
3.779182 -10.540455 33.779839
3.797659 -14.12134 34.224422
4.883963 -13.307486 32.806316
15.308635 -32.979176 37.35442
13.379995 -35.007153 38.63554
13.012815 -32.470707 37.699604
8.74621 -28.997818 39.577461
8.705046 -31.645288 40.131706
6.592914 -31.080286 41.436394
4.757632 -32.796288 41.948715
4.968474 -30.252941 41.440918
6.078486 -11.241883 30.477829
11.675848 -10.194361 40.860054
10.579882 -11.696163 39.515106
9.792036 -9.306208 40.938648
5.976048 -3.820576 40.895798
6.263921 -6.846975 41.028347
4.966122 -5.303725 40.022285
4.643613 -6.728548 37.728676
4.612487 -3.877479 37.522099
6.230606 5.411662 38.739063
4.722194 3.583104 33.496082
6.0532 1.723312 32.654133
5.451907 -1.298678 33.153664
7.463584 -0.331924 32.196079
7.201868 -2.66493 31.547195
6.8754 0.440739 30.619656
13.792768 -11.738596 43.04084
13.218374 -9.936975 45.470123
8.077417 -38.029823 41.675968
7.70143 -15.389093 39.4128
8.380291 -18.946842 39.042576
6.341784 -17.687359 39.698814
4.159947 -20.980282 35.689758
4.242105 -22.038898 38.553993
4.672196 -24.318943 36.608208
5.192704 -27.945271 37.145592
4.918723 -26.691936 34.337059
7.752614 -18.151335 30.405645
7.752931 -18.763103 31.717743
8.239692 -21.492502 30.457546
9.004637 -31.069647 29.816494
8.227464 -28.142319 30.640509
4.493215 -31.066101 30.330933
14.859566 -27.337896 36.521076
12.862493 -29.774984 36.945187
12.784979 -26.951263 36.805206
10.791536 -26.599773 37.818741
8.891539 -26.157108 39.004055
10.395768 -5.629438 41.953064
9.259569 -6.802368 41.330185
8.836915 -4.24349 41.508152
7.372404 -2.658 41.253258
5.76481 -0.894868 40.816933
6.518426 3.457487 29.685144
5.496459 -37.100788 40.850525
4.305024 -12.806902 38.689728
4.660764 -16.451019 39.170128
4.266735 -15.227504 36.830078
3.872168 -17.726166 34.809975
3.843172 -20.19075 32.9412
6.150819 -24.154293 27.983313
8.077958 -24.527563 29.240032
7.453873 -27.657074 28.118835
9.943151 4.119969 38.729351
15.509227 -37.941479 39.299004
12.751604 -39.316032 40.480461
13.364612 -37.260433 39.347839
11.093197 -36.630028 39.986916
8.769802 -36.215782 41.154827
10.949496 -32.016571 38.780415
8.958393 -34.090179 40.669861
6.347853 -35.71806 42.466583
4.817207 -35.225105 41.962116
4.851312 -34.361214 39.860992
5.334813 -33.358215 37.61095
7.372288 -8.859313 32.71566
7.237811 -12.561487 32.740108
7.517627 -11.845035 31.604053
7.020042 -14.762651 30.390467
6.014417 -17.664087 29.186991
3.642758 -17.213184 28.403875
3.76088 -23.92186 27.163044
13.198481 -15.593491 38.846279
11.91381 -17.460611 38.234581
11.267657 -14.551493 38.725304
9.191313 -13.46503 39.159294
7.125116 -12.422012 39.779011
8.028215 -8.236399 41.048328
6.730293 -9.616488 40.384018
5.295816 -11.034472 39.708687
4.337017 -9.758878 38.079533
3.784772 -8.523983 35.497223
4.070495 -7.422671 33.570087
8.004206 3.20384 39.311909
5.816956 2.197037 40.052605
4.552657 0.950882 39.35701
4.859492 5.546727 35.494843
4.788167 2.369272 36.590675
4.746832 -0.859173 37.215237
3.996661 -2.36851 34.684395
4.649973 -4.225413 33.397297
6.375155 -6.464149 33.318542
7.439682 -5.688488 32.306019
6.361461 -5.089555 30.980173
4.743787 1.16972 29.437717
16.225376 -25.408756 37.719398
15.244675 -19.746487 39.195435
14.524104 -16.328171 39.877029
13.886022 -13.484749 40.557438
13.096334 -10.892079 41.668812
12.258448 -8.496127 42.573402
12.322098 -6.885444 44.453033
11.602423 -6.293255 42.983574
11.00181 -3.85272 43.2146
11.753713 -1.205001 42.528339
12.670172 1.410456 41.275551
10.36796 -19.968037 38.274647
8.731038 -22.645491 38.823708
7.021114 -24.922052 39.943565
5.004575 -20.040382 39.605785
5.258197 -23.483252 39.966228
5.265706 -26.986053 40.644604
4.622361 -29.230076 39.674522
5.023737 -30.895824 37.783371
5.361316 -32.46109 35.076286
6.474905 -16.015804 32.426582
5.554001 -19.435429 31.912613
4.727657 -22.756226 31.626385
8.450851 -24.864508 30.642406
6.491905 -25.2957 31.046417
4.424955 -25.849747 31.807215
4.363638 -28.824265 32.157921
4.503557 -31.734177 32.51049
13.158178 -40.671272 41.244196
14.150852 -40.944349 41.353248
6.879134 -35.563469 34.483234
7.066923 -35.799267 35.605973
6.33 -34.872784 35.909088
6.141927 -35.758039 33.736344
6.879134 -35.563469 34.483234
6.806097 2.179325 31.986884
6.197514 3.14207 32.296198
6.950411 3.598083 31.628949
12.941199 -10.373152 46.325777
13.456952 -11.276353 45.063572
5.968421 -38.587317 41.674644
6.993825 -38.795723 41.422239
7.052013 -37.821416 41.928373
8.051753 -31.103658 29.996911
8.60363 -32.60074 29.708148
6.868523 -36.968145 38.587336
6.596941 -37.420979 39.482123
5.76804 -36.647955 39.955738
8.911398 -37.759302 36.037493
8.610038 -37.676696 35.065067
2.889445 -18.787926 27.915901
2.286491 -17.00465 28.016434
4.314916 -18.988462 28.201767
2.889445 -18.787926 27.915901
2.948506 -22.142263 27.295485
4.373977 -22.3428 27.581352
8.146178 4.775472 38.738449
8.973679 3.661905 39.02063
9.115651 5.233536 38.44717
4.895645 5.956817 34.013312
4.868809 6.979817 34.858913
4.854588 -3.215956 30.202494
5.278801 -4.769368 30.542175
5.937248 -3.536142 30.640493
4.365564 2.620102 28.965643
5.631106 2.313604 29.561431
5.252883 3.763985 29.089357
16.657192 -25.92519 38.574754
16.422733 -26.849477 37.559354
15.617327 -20.323045 39.960288
15.475924 -21.171785 38.826603
14.465153 -15.341529 40.990919
14.881735 -16.986274 40.609886
14.146112 -13.919818 41.331124
14.205063 -14.90646 40.217233
14.465153 -15.341529 40.990919
11.891259 -5.639069 44.59678
11.896404 -5.935364 45.371616
11.531422 -5.342974 43.862051
11.96226 -6.589349 43.718303
11.891259 -5.639069 44.59678
11.231115 -4.122707 43.977564
11.302117 -5.072987 43.099087
11.531422 -5.342974 43.862051
12.344196 -0.141232 42.869337
11.884805 -1.484339 43.396112
12.802426 1.166497 42.242943
12.211942 0.102727 41.901945
12.344196 -0.141232 42.869337
9.92016 -39.699188 41.3118
11.016094 -40.022789 41.103199
11.65567 -38.992431 40.689062
4.295096 -32.878305 31.584447
4.498386 -31.400139 31.420711
4.289925 -32.544267 30.494669
4.671998 -33.146696 32.633295
4.295096 -32.878305 31.584447
7.912198 -36.621742 35.24581
7.363065 -35.931057 36.671664
7.066923 -35.799267 35.605973
8.610038 -37.676696 35.065067
7.912198 -36.621742 35.24581
5.912879 -29.07517 27.096743
4.630946 -29.01869 26.690201
5.662713 -9.388416 30.449893
6.588242 -9.70615 30.95862
6.172469 -7.852684 30.930684
4.988474 -10.887211 30.07827
5.662713 -9.388416 30.449893
4.452777 -12.332148 29.559995
5.542789 -12.68682 29.959553
4.988474 -10.887211 30.07827
6.404915 6.995564 38.112772
7.259378 5.879383 38.452026
5.561753 6.359412 37.880293
6.404915 6.995564 38.112772
4.753404 5.752136 37.671683
5.422256 4.804386 38.530452
5.561753 6.359412 37.880293
5.532011 4.071966 32.717173
4.826996 4.975005 33.013931
5.387697 2.653208 33.075108
5.532011 4.071966 32.717173
6.197514 3.14207 32.296198
13.744149 -12.177164 43.848931
14.099485 -13.046741 42.572825
13.505571 -10.837785 44.255482
13.744149 -12.177164 43.848931
13.456952 -11.276353 45.063572
7.578394 -39.044231 41.762051
8.819553 -39.363735 41.372898
9.318576 -38.349327 41.286816
7.578394 -39.044231 41.762051
6.993825 -38.795723 41.422239
7.663166 -29.639994 30.408918
8.616051 -29.605983 30.228502
8.051753 -31.103658 29.996911
6.311189 -29.752091 30.352097
6.875487 -28.254416 30.583688
7.663166 -29.639994 30.408918
5.796042 -31.101885 30.254131
5.008363 -29.716307 30.4289
6.311189 -29.752091 30.352097
4.988174 -32.465784 29.877866
5.796042 -31.101885 30.254131
4.289925 -32.544267 30.494669
4.988174 -32.465784 29.877866
7.582733 4.075282 30.835506
6.950411 3.598083 31.628949
7.062449 4.486357 30.01826
7.038711 3.046412 30.502389
7.582733 4.075282 30.835506
6.371989 4.850401 29.160014
7.062449 4.486357 30.01826
5.252883 3.763985 29.089357
6.371989 4.850401 29.160014
6.022982 -37.940804 40.257946
6.288056 -38.196915 40.923073
5.761534 -37.356899 41.515652
6.022982 -37.940804 40.257946
6.596941 -37.420979 39.482123
7.952882 -37.24735 37.21261
6.868523 -36.968145 38.587336
7.123981 -36.474327 37.686226
7.952882 -37.24735 37.21261
8.911398 -37.759302 36.037493
7.069271 -29.201898 27.625709
6.297481 -27.530345 27.589869
5.912879 -29.07517 27.096743
8.07104 -29.291224 28.282567
7.069271 -29.201898 27.625709
8.757397 -29.4015 28.993629
8.14023 -27.76735 28.829898
8.07104 -29.291224 28.282567
8.846422 -30.997511 29.131397
8.915612 -29.473636 29.678727
8.757397 -29.4015 28.993629
9.11911 -32.588691 29.239729
8.846422 -30.997511 29.131397
8.60363 -32.60074 29.708148
9.11911 -32.588691 29.239729
10.830727 4.629482 38.765291
10.748933 3.156236 39.258398
11.636509 3.665749 39.294338
9.99287 5.648489 38.231903
10.830727 4.629482 38.765291
9.115651 5.233536 38.44717
9.99287 5.648489 38.231903
3.575551 -13.82855 29.09256
4.452777 -12.332148 29.559995
2.893384 -15.369263 28.573858
2.286491 -17.00465 28.016434
4.324925 -15.67247 28.922576
3.575551 -13.82855 29.09256
2.893384 -15.369263 28.573858
5.500746 -19.213914 28.593325
4.828588 -17.438635 28.795433
4.314916 -18.988462 28.201767
6.055779 -20.912709 28.532959
6.56945 -19.362882 29.126625
5.500746 -19.213914 28.593325
5.568947 -22.459017 27.991487
6.637651 -22.607985 28.524786
6.055779 -20.912709 28.532959
4.95585 -24.038076 27.573178
5.568947 -22.459017 27.991487
4.373977 -22.3428 27.581352
2.41247 -23.856451 26.791104
2.948506 -22.142263 27.295485
2.922911 -25.641889 26.755249
2.41247 -23.856451 26.791104
3.613016 -27.382766 26.704178
4.450984 -25.662738 27.111973
2.922911 -25.641889 26.755249
4.630946 -29.01869 26.690201
3.613016 -27.382766 26.704178
7.117406 4.307751 39.025486
8.146178 4.775472 38.738449
7.259378 5.879383 38.452026
4.876196 6.426944 36.258183
4.868809 6.979817 34.858913
4.7367 4.871918 36.908343
4.753404 5.752136 37.671683
4.876196 6.426944 36.258183
4.790843 4.564915 34.495463
4.895645 5.956817 34.013312
4.826996 4.975005 33.013931
5.804201 -6.312252 30.701065
6.172469 -7.852684 30.930684
6.729729 -6.629986 31.209792
5.804201 -6.312252 30.701065
5.278801 -4.769368 30.542175
3.185329 1.450988 28.933316
4.365564 2.620102 28.965643
3.768935 -0.053661 29.426671
3.185329 1.450988 28.933316
4.153558 -1.629887 29.858218
5.128411 -0.406505 29.869264
3.768935 -0.053661 29.426671
4.854588 -3.215956 30.202494
4.153558 -1.629887 29.858218
15.530526 -40.674223 41.222008
14.150852 -40.944349 41.353248
15.975731 -39.522955 40.598022
15.530526 -40.674223 41.222008
16.326935 -38.46113 39.966339
15.158022 -39.003304 39.930687
15.975731 -39.522955 40.598022
16.423561 -37.22641 39.394653
16.326935 -38.46113 39.966339
16.415295 -36.053488 38.929018
15.500961 -36.768557 38.833368
16.423561 -37.22641 39.394653
16.370787 -34.770334 38.407847
16.415295 -36.053488 38.929018
16.278757 -33.462105 37.90119
15.400666 -34.287405 37.861076
16.370787 -34.770334 38.407847
16.118632 -32.091944 37.449798
16.278757 -33.462105 37.90119
15.986176 -30.710851 37.075258
15.176179 -31.598083 36.979879
16.118632 -32.091944 37.449798
15.831907 -29.253594 37.002325
15.986176 -30.710851 37.075258
15.739828 -27.814046 36.960194
14.951645 -28.777443 36.563208
15.831907 -29.253594 37.002325
15.542471 -26.373326 37.120237
15.739828 -27.814046 36.960194
16.422733 -26.849477 37.559354
16.375367 -24.558028 38.871002
16.657192 -25.92519 38.574754
15.966275 -24.002919 38.088584
16.375367 -24.558028 38.871002
15.121008 -23.504255 37.698002
15.380109 -24.910092 37.328815
15.966275 -24.002919 38.088584
14.949617 -22.062788 38.086537
14.363453 -22.96996 37.326767
15.121008 -23.504255 37.698002
14.718369 -20.63749 38.455369
14.949617 -22.062788 38.086537
15.475924 -21.171785 38.826603
15.242021 -18.695432 40.269089
15.617327 -20.323045 39.960288
14.88439 -18.037329 39.536232
15.242021 -18.695432 40.269089
14.881735 -16.986274 40.609886
13.839395 -12.611673 41.799139
14.146112 -13.919818 41.331124
14.099485 -13.046741 42.572825
12.55012 -9.072721 46.569651
12.941199 -10.373152 46.325777
12.781037 -8.727421 45.778349
12.55012 -9.072721 46.569651
12.70004 -8.368445 45.006505
13.137377 -9.577998 44.698279
12.781037 -8.727421 45.778349
12.332899 -7.201655 45.269804
11.896404 -5.935364 45.371616
12.689239 -8.052233 44.189734
12.70004 -8.368445 45.006505
12.332899 -7.201655 45.269804
11.508854 -2.808199 43.739243
11.231115 -4.122707 43.977564
11.377762 -2.52886 42.87147
11.508854 -2.808199 43.739243
11.884805 -1.484339 43.396112
12.946825 2.673632 41.753691
12.802426 1.166497 42.242943
12.805026 2.956247 40.737982
12.946825 2.673632 41.753691
12.247298 3.34727 39.993929
12.112444 1.801479 40.531498
12.805026 2.956247 40.737982
11.636509 3.665749 39.294338
12.247298 3.34727 39.993929
12.130572 -40.296724 41.203242
13.158178 -40.671272 41.244196
13.779211 -39.69058 40.521416
12.130572 -40.296724 41.203242
11.016094 -40.022789 41.103199
9.92016 -39.699188 41.3118
8.819553 -39.363735 41.372898
5.968421 -38.587317 41.674644
6.288056 -38.196915 40.923073
5.100878 -33.510153 33.916193
4.932436 -32.097634 33.793388
4.671998 -33.146696 32.633295
5.491326 -34.598101 33.771225
5.751764 -33.549038 34.931318
5.100878 -33.510153 33.916193
6.141927 -35.758039 33.736344
5.491326 -34.598101 33.771225
3 0 51 49
3 1 54 52
3 3 191 192
3 4 193 195
3 195 194 55
3 193 194 195
3 4 196 197
3 2 59 57
3 5 62 60
3 7 65 63
3 7 67 65
3 9 71 69
3 11 74 72
3 11 76 74
3 12 198 200
3 198 79 199
3 198 199 200
3 12 81 79
3 12 83 81
3 201 85 202
3 6 203 205
3 205 204 86
3 203 204 205
3 10 89 87
3 13 92 90
3 13 94 92
3 8 97 95
3 207 206 98
3 14 103 101
3 16 104 50
3 16 105 104
3 17 108 106
3 19 109 53
3 19 110 109
3 20 208 210
3 210 209 112
3 208 209 210
3 212 211 56
3 21 115 113
3 23 116 58
3 23 117 116
3 24 120 118
3 26 124 122
3 28 125 61
3 28 126 125
3 15 127 102
3 29 128 64
3 29 129 128
3 29 130 129
3 30 131 66
3 30 132 131
3 31 135 133
3 33 136 68
3 33 137 136
3 213 138 214
3 216 215 138
3 217 139 218
3 34 142 140
3 36 143 70
3 36 144 143
3 18 145 107
3 37 146 73
3 37 147 146
3 37 148 147
3 38 149 75
3 38 150 149
3 219 151 220
3 221 220 121
3 219 220 221
3 39 152 77
3 39 153 152
3 222 154 223
3 40 155 78
3 40 156 155
3 40 157 156
3 41 158 80
3 41 159 158
3 41 160 159
3 42 161 82
3 42 224 226
3 226 225 161
3 224 225 226
3 227 162 228
3 229 228 111
3 227 228 229
3 230 163 231
3 232 164 233
3 234 165 235
3 236 166 237
3 238 237 165
3 236 237 238
3 43 167 84
3 43 168 167
3 239 169 240
3 241 170 242
3 243 242 169
3 241 242 243
3 244 171 245
3 246 245 170
3 244 245 246
3 247 172 248
3 249 173 250
3 251 250 172
3 249 250 251
3 27 252 254
3 254 253 123
3 252 253 254
3 35 174 141
3 44 175 88
3 44 176 175
3 22 177 114
3 45 178 91
3 45 179 178
3 45 180 179
3 46 181 93
3 46 182 181
3 32 183 134
3 47 184 96
3 47 185 184
3 25 186 119
3 48 187 99
3 48 188 187
3 48 189 188
3 255 190 256
3 257 256 100
3 255 256 257
3 259 258 190
3 49 50 14
3 51 50 49
3 51 16 50
3 52 53 17
3 54 53 52
3 54 19 53
3 55 56 20
3 260 56 261
3 262 261 55
3 260 261 262
3 264 263 56
3 57 58 21
3 59 58 57
3 59 23 58
3 266 265 24
3 60 61 26
3 62 61 60
3 62 28 61
3 63 64 15
3 65 64 63
3 65 29 64
3 65 66 29
3 67 66 65
3 67 30 66
3 267 68 268
3 269 268 31
3 267 268 269
3 270 68 271
3 272 33 273
3 274 273 68
3 272 273 274
3 69 70 34
3 71 70 69
3 71 36 70
3 72 73 18
3 74 73 72
3 74 37 73
3 74 75 37
3 76 75 74
3 76 38 75
3 275 77 276
3 277 77 278
3 279 39 280
3 281 280 77
3 279 280 281
3 282 78 283
3 79 284 286
3 284 78 285
3 284 285 286
3 79 40 78
3 79 80 40
3 81 80 79
3 81 41 80
3 81 82 41
3 83 82 81
3 83 42 82
3 287 84 288
3 85 289 291
3 289 84 290
3 289 290 291
3 85 43 84
3 86 292 294
3 294 293 27
3 292 293 294
3 296 295 86
3 87 88 35
3 89 88 87
3 89 44 88
3 90 91 22
3 92 91 90
3 92 45 91
3 92 93 45
3 94 93 92
3 94 46 93
3 95 96 32
3 97 96 95
3 97 47 96
3 98 99 25
3 297 99 298
3 299 298 98
3 297 298 299
3 300 48 301
3 302 301 99
3 300 301 302
3 303 100 304
3 305 304 48
3 303 304 305
3 306 100 307
3 309 308 100
3 101 102 5
3 103 102 101
3 103 15 102
3 50 103 14
3 104 103 50
3 104 15 103
3 104 63 15
3 105 63 104
3 105 7 63
3 106 107 9
3 108 107 106
3 108 18 107
3 53 108 17
3 109 108 53
3 109 18 108
3 109 72 18
3 110 72 109
3 110 11 72
3 310 12 311
3 312 111 313
3 314 313 12
3 312 313 314
3 315 111 316
3 318 317 111
3 112 319 321
3 321 320 6
3 319 320 321
3 323 322 112
3 56 324 326
3 326 325 20
3 324 325 326
3 328 327 56
3 113 114 10
3 115 114 113
3 115 22 114
3 58 115 21
3 116 115 58
3 116 22 115
3 116 90 22
3 117 90 116
3 117 13 90
3 118 119 8
3 120 119 118
3 120 25 119
3 329 120 330
3 331 330 24
3 329 330 331
3 332 120 333
3 334 25 335
3 336 335 120
3 334 335 336
3 337 98 338
3 339 338 25
3 337 338 339
3 340 98 341
3 343 342 98
3 344 121 345
3 346 345 1
3 344 345 346
3 347 121 348
3 350 349 121
3 122 123 3
3 124 123 122
3 124 27 123
3 61 124 26
3 125 124 61
3 125 27 124
3 125 86 27
3 126 86 125
3 126 6 86
3 102 62 5
3 127 62 102
3 127 28 62
3 64 127 15
3 128 127 64
3 128 28 127
3 128 126 28
3 129 126 128
3 129 6 126
3 129 112 6
3 130 112 129
3 130 20 112
3 66 130 29
3 131 130 66
3 131 20 130
3 131 55 20
3 132 55 131
3 132 4 55
3 133 134 2
3 135 134 133
3 135 32 134
3 68 135 31
3 136 135 68
3 136 32 135
3 136 95 32
3 137 95 136
3 137 8 95
3 351 33 352
3 138 353 354
3 138 355 357
3 355 33 356
3 355 356 357
3 138 137 33
3 358 137 359
3 360 359 138
3 358 359 360
3 361 8 362
3 363 362 137
3 361 362 363
3 364 118 365
3 366 365 8
3 364 365 366
3 139 367 369
3 367 118 368
3 367 368 369
3 139 24 118
3 370 139 371
3 372 139 373
3 374 24 375
3 376 375 139
3 374 375 376
3 378 377 24
3 140 141 0
3 142 141 140
3 142 35 141
3 70 142 34
3 143 142 70
3 143 35 142
3 143 87 35
3 144 87 143
3 144 10 87
3 107 71 9
3 145 71 107
3 145 36 71
3 73 145 18
3 146 145 73
3 146 36 145
3 146 144 36
3 147 144 146
3 147 10 144
3 147 113 10
3 148 113 147
3 148 21 113
3 75 148 37
3 149 148 75
3 149 21 148
3 149 57 21
3 150 57 149
3 150 2 57
3 121 54 1
3 151 54 121
3 151 19 54
3 77 379 381
3 379 151 380
3 379 380 381
3 152 151 77
3 152 19 151
3 152 110 19
3 153 110 152
3 153 11 110
3 154 382 383
3 154 384 386
3 384 39 385
3 384 385 386
3 78 387 389
3 387 154 388
3 387 388 389
3 155 154 78
3 155 39 154
3 155 153 39
3 156 153 155
3 156 11 153
3 156 76 11
3 157 76 156
3 157 38 76
3 80 157 40
3 158 157 80
3 158 38 157
3 158 150 38
3 159 150 158
3 159 2 150
3 159 133 2
3 160 133 159
3 160 31 133
3 82 160 41
3 161 160 82
3 161 31 160
3 161 390 392
3 392 391 31
3 390 391 392
3 394 393 161
3 111 83 12
3 162 83 111
3 162 42 83
3 395 162 396
3 397 162 398
3 399 42 400
3 401 400 162
3 399 400 401
3 403 402 42
3 404 3 405
3 406 3 407
3 408 122 409
3 410 409 3
3 408 409 410
3 411 122 412
3 413 26 414
3 415 414 122
3 413 414 415
3 416 26 417
3 418 60 419
3 420 419 26
3 418 419 420
3 421 60 422
3 423 5 424
3 425 424 60
3 423 424 425
3 426 5 427
3 428 101 429
3 430 429 5
3 428 429 430
3 163 431 433
3 431 101 432
3 431 432 433
3 163 14 101
3 434 163 435
3 436 163 437
3 438 14 439
3 440 439 163
3 438 439 440
3 441 49 442
3 443 442 14
3 441 442 443
3 164 444 446
3 444 49 445
3 444 445 446
3 164 0 49
3 447 164 448
3 165 449 451
3 449 164 450
3 449 450 451
3 165 0 164
3 165 140 0
3 166 140 165
3 166 34 140
3 84 452 454
3 452 166 453
3 452 453 454
3 167 166 84
3 167 34 166
3 167 69 34
3 168 69 167
3 168 9 69
3 455 85 456
3 457 85 458
3 459 43 460
3 461 460 85
3 459 460 461
3 169 462 463
3 169 464 466
3 464 43 465
3 464 465 466
3 169 168 43
3 170 168 169
3 170 9 168
3 170 106 9
3 171 106 170
3 171 17 106
3 467 171 468
3 172 469 471
3 469 171 470
3 469 470 471
3 172 17 171
3 172 52 17
3 173 52 172
3 173 1 52
3 472 173 473
3 474 173 475
3 476 1 477
3 478 477 173
3 476 477 478
3 480 479 1
3 123 481 483
3 483 482 3
3 481 482 483
3 485 484 123
3 487 486 27
3 489 488 6
3 141 51 0
3 174 51 141
3 174 16 51
3 88 174 35
3 175 174 88
3 175 16 174
3 175 105 16
3 176 105 175
3 176 7 105
3 114 89 10
3 177 89 114
3 177 44 89
3 91 177 22
3 178 177 91
3 178 44 177
3 178 176 44
3 179 176 178
3 179 7 176
3 179 67 7
3 180 67 179
3 180 30 67
3 93 180 45
3 181 180 93
3 181 30 180
3 181 132 30
3 182 132 181
3 182 4 132
3 134 59 2
3 183 59 134
3 183 23 59
3 96 183 32
3 184 183 96
3 184 23 183
3 184 117 23
3 185 117 184
3 185 13 117
3 119 97 8
3 186 97 119
3 186 47 97
3 99 186 25
3 187 186 99
3 187 47 186
3 187 185 47
3 188 185 187
3 188 13 185
3 188 94 13
3 189 94 188
3 189 46 94
3 100 189 48
3 190 189 100
3 190 46 189
3 190 182 46
3 490 182 491
3 492 491 190
3 490 491 492
3 493 4 494
3 495 494 182
3 493 494 495
3 497 496 4
