ply
format ascii 1.0
element vertex 587
property float x
property float y
property float z
element face 696
property list uchar int vertex_index
end_header
34.369789 -74.14724 -12.413482
34.467781 -9.653102 -36.609001
35.303898 -31.479889 -23.724619
30.1875 -64.278915 -9.018667
41.551674 -47.4039 -20.242638
33.600655 -52.820213 -7.623862
29.769165 -46.064838 -15.481395
37.866383 -37.741016 -14.503969
40.78896 -63.881264 -12.676365
42.325546 -50.285313 -12.50753
38.757153 -62.301727 -17.891563
37.702061 -18.980694 -28.092236
40.308167 -27.333654 -22.59985
28.937153 -71.024643 -12.089827
31.992279 -54.816692 -15.727597
34.930233 -40.255112 -21.859554
44.038601 -35.087078 -20.654581
36.384132 -45.389187 -11.105113
39.256775 -68.891823 -14.283346
39.830334 -63.308228 -15.610944
35.674397 -68.282097 -14.26078
33.502167 -17.58572 -30.18684
36.284985 -15.25131 -33.001293
38.667667 -15.008448 -27.847061
26.237677 -71.39978 -4.703074
26.603161 -74.738655 -6.539982
28.632229 -67.906281 -9.882444
29.26231 -64.137695 -14.105614
27.986225 -60.64814 -13.294191
31.727077 -38.509319 -20.029337
29.296741 -42.629303 -19.255444
32.22514 -35.59671 -23.625219
37.790798 -34.543236 -23.575653
37.258121 -29.890711 -25.968481
41.319218 -48.927025 -16.297382
43.04221 -41.928352 -17.629601
41.832722 -40.786827 -20.947077
32.15686 -59.103111 -8.157833
29.803873 -55.290894 -12.795703
33.08894 -50.356617 -12.238401
34.776985 -42.587536 -15.922663
37.349922 -34.952141 -19.242279
40.411739 -57.260059 -11.881823
40.441509 -56.151001 -16.148046
41.151806 -54.478615 -19.421425
43.761223 -14.426361 -25.926281
37.798668 -26.833172 -21.527674
35.048023 -20.71101 -24.792171
37.927956 -24.832968 -26.189579
39.809837 -22.127996 -25.352922
40.890587 -17.703529 -23.403248
42.678917 -23.515232 -20.96265
28.832905 -77.164337 -8.003278
31.453243 -73.107559 -13.27744
32.508179 -66.393677 -14.983408
35.803009 -57.777905 -16.059523
37.662285 -50.46603 -18.82053
28.193579 -51.619495 -15.678797
32.905849 -46.884583 -18.066601
38.883648 -44.23328 -21.658413
40.50843 -38.191204 -22.398067
41.782082 -31.870911 -20.814358
36.676365 -71.465141 -12.851857
37.290558 -68.545113 -13.990026
34.897617 -71.093369 -12.79066
33.436417 -11.523063 -34.520878
34.165508 -14.094083 -33.195087
35.535576 -12.405432 -34.988487
36.698772 -12.066901 -32.531879
35.780739 -9.058645 -34.430634
29.973658 -65.697449 -5.72982
26.698792 -68.948349 -3.803364
28.987986 -68.110573 -6.25614
28.42868 -70.072258 -7.138322
29.185528 -66.225571 -9.601797
28.339731 -64.548172 -11.834894
28.948664 -62.684364 -11.291132
33.378731 -35.111992 -21.94408
31.23592 -36.557117 -22.046391
33.306507 -33.237862 -23.921862
34.551636 -32.699501 -25.114634
35.52021 -30.323895 -25.468588
41.717705 -48.262791 -18.55703
42.037376 -45.394016 -16.883625
41.961784 -44.738739 -18.872372
42.427124 -41.384438 -19.476284
41.53006 -43.986916 -20.492779
31.650568 -56.5424 -5.742208
31.244114 -59.817528 -5.619853
32.893906 -56.111012 -7.964144
32.672108 -54.962486 -10.423549
33.869926 -51.946907 -9.920649
37.324299 -41.631145 -12.950096
36.028286 -44.178288 -13.546778
37.014397 -40.309258 -15.469287
35.994179 -38.774654 -17.729876
37.92189 -36.377678 -16.88559
42.592484 -66.718185 -14.708961
42.291832 -63.960106 -12.495765
41.04248 -60.760101 -10.891481
41.358089 -57.419537 -10.559628
39.993492 -60.562 -11.916032
39.786087 -63.486397 -17.228428
40.199013 -59.981712 -16.004959
40.757729 -59.491955 -17.724625
41.14669 -55.444763 -18.00436
40.180737 -58.398132 -18.76783
37.508316 -28.143169 -19.554127
35.812851 -18.001675 -29.204418
34.115665 -19.247725 -27.830746
36.437981 -19.586918 -26.458218
37.443039 -22.287796 -24.598057
38.228386 -21.546247 -26.644333
39.085487 -23.820353 -26.718786
39.257484 -20.392321 -26.917553
38.895508 -12.281081 -27.357395
39.566837 -15.980753 -25.438066
40.511597 -13.681608 -25.643438
42.068005 -15.725215 -24.197283
28.634741 -72.931091 -9.19694
27.621832 -76.067825 -7.372096
29.315821 -74.010017 -10.059526
30.323505 -75.164009 -10.662142
29.933945 -72.169449 -13.118154
31.634174 -70.067352 -14.652087
29.578894 -69.225204 -14.309053
30.640697 -59.445976 -14.818802
32.460606 -60.585655 -14.906833
34.028389 -56.093098 -15.224185
37.121593 -53.797901 -17.230829
35.161095 -52.000294 -16.330561
29.27261 -50.309853 -14.087161
28.286907 -53.519897 -14.196991
28.218328 -48.513603 -15.439554
31.55183 -41.461136 -20.849697
30.461679 -45.0116 -18.771969
33.753922 -43.606514 -19.981691
36.251068 -45.399712 -19.5718
37.131531 -42.316391 -21.276617
39.580807 -41.338493 -22.457354
38.076321 -39.328373 -22.574898
39.234596 -31.264414 -23.097412
40.248505 -33.376934 -22.178448
40.760509 -29.816654 -21.340149
42.425766 -27.823399 -20.226812
41.236584 -25.458271 -21.193382
45.070538 -31.878235 -20.596096
35.025917 -49.055279 -9.307297
35.721615 -46.129955 -8.820355
36.718781 -42.621178 -10.632914
40.977501 -66.223068 -14.287718
39.697426 -63.516956 -13.597384
39.729675 -66.07399 -15.285319
38.20784 -66.029892 -16.118477
36.906841 -65.585915 -16.322857
32.7118 -14.947113 -30.962292
34.923706 -16.490774 -31.61311
37.07782 -17.18639 -30.525091
38.711372 -17.475986 -28.373398
37.798779 -14.910255 -30.560764
37.631493 -11.831261 -29.880825
26.316748 -73.079544 -5.814671
28.190313 -71.480316 -8.116645
28.505665 -69.634369 -10.788616
28.591654 -67.962814 -13.192453
28.064096 -66.477318 -12.20218
28.181799 -62.523895 -13.691363
29.072607 -58.069885 -14.878607
30.56221 -42.252228 -17.647556
28.76322 -44.247643 -17.251347
29.862141 -40.243729 -19.718433
30.555691 -38.890526 -21.621838
32.968231 -38.081272 -22.905148
36.335896 -37.249409 -23.273548
34.82169 -35.115414 -24.296518
37.141273 -32.361416 -24.660429
39.083374 -28.837116 -24.462429
41.427696 -49.604404 -14.172689
43.692249 -46.617332 -13.402029
42.464783 -46.048553 -14.820491
43.913216 -42.882233 -16.154333
44.62011 -38.612705 -18.781216
43.606583 -38.319237 -19.896832
42.715832 -37.661369 -20.878071
32.715721 -9.033513 -35.972637
30.715353 -62.952141 -5.635864
31.213831 -61.868645 -8.536604
30.226755 -60.188721 -10.927958
31.479557 -57.556587 -10.734507
31.257198 -52.647186 -12.666609
31.438366 -48.167336 -14.021672
34.830086 -47.938591 -11.645946
33.782787 -46.360126 -13.815649
32.081131 -44.296349 -15.885979
33.035595 -40.727093 -18.084942
34.600712 -37.093258 -19.973291
36.273186 -33.336845 -21.521688
42.814125 -54.431049 -11.00087
41.004005 -53.792126 -11.967085
39.651909 -60.103413 -13.786844
40.121475 -56.842854 -14.054865
40.404686 -53.164795 -14.072185
40.8162 -52.480202 -16.194265
41.448822 -51.785259 -18.19873
41.657555 -50.839386 -19.958103
32.325249 -6.677382 -37.279209
38.232258 -32.182533 -18.406071
38.001167 -30.716267 -20.7181
37.213306 -29.34399 -23.058325
36.66795 -23.37767 -22.658005
37.758842 -25.811926 -23.982096
36.731133 -28.257559 -25.362556
37.862099 -27.326899 -26.660992
39.334248 -26.220327 -25.731964
40.139088 -24.557323 -23.824306
39.405037 -18.355511 -26.092976
40.100079 -20.034876 -23.935873
40.728939 -22.56592 -22.335979
41.843353 -20.308575 -22.062212
43.404823 -18.425209 -22.859564
31.236322 -75.693558 -10.864592
32.992321 -73.476646 -12.678823
33.377575 -70.660118 -13.825766
34.290699 -67.385406 -15.011963
35.836926 -63.483551 -16.034714
30.699091 -65.475235 -14.532451
34.107674 -61.999073 -15.270002
37.307758 -59.84742 -17.288445
38.49308 -56.011543 -18.376108
39.654221 -52.318909 -19.448288
40.059917 -48.929806 -20.551632
28.787176 -58.403759 -12.718546
28.198141 -56.292309 -14.538038
29.711559 -53.587574 -15.97217
28.446354 -46.758137 -17.11742
29.832287 -49.051323 -17.134396
32.490639 -50.6035 -16.733444
35.560558 -48.436707 -17.819929
38.093544 -47.225761 -20.328646
40.370178 -45.725376 -21.436583
40.973976 -42.839031 -21.998947
41.337044 -39.737404 -21.78521
42.124596 -36.748047 -21.240143
39.274841 -36.30101 -23.065443
41.324257 -35.209824 -21.780575
43.068237 -33.784859 -20.531223
43.746632 -30.196564 -20.195116
35.523077 -72.80619 -12.63267
36.05117 -73.359573 -13.125492
34.897882 -74.700623 -12.906304
32.625612 -54.681307 -6.683035
31.780105 -54.838394 -5.747568
32.755149 -52.9773 -6.688395
40.329437 -11.899623 -26.957547
39.703553 -12.981345 -26.500417
39.521393 -11.199359 -27.814526
41.231144 -12.943196 -26.279179
40.329437 -11.899623 -26.957547
43.891052 -49.089871 -12.883864
43.238573 -50.834927 -12.201073
45.214905 -33.873593 -20.890284
44.574196 -35.291348 -20.511333
44.554569 -33.482656 -20.625338
45.730874 -32.269171 -20.861041
45.214905 -33.873593 -20.890284
34.919912 -46.348869 -7.982894
34.974567 -47.884754 -8.020834
36.153256 -41.329315 -10.680225
35.941693 -42.98712 -9.725656
36.923123 -40.797869 -11.525599
36.153256 -41.329315 -10.680225
40.278874 -69.133415 -14.866554
38.812781 -70.593441 -14.187444
40.117138 -67.557446 -14.285532
41.139236 -67.799038 -14.86874
40.278874 -69.133415 -14.866554
32.375465 -13.597796 -31.35593
30.974888 -14.483289 -31.109437
37.250671 -10.248337 -30.949105
37.165132 -11.949081 -31.206352
36.784311 -10.366157 -32.274631
38.066744 -10.344507 -29.812458
37.250671 -10.248337 -30.949105
24.643065 -71.800202 -4.508865
24.873623 -70.574486 -4.05901
26.468235 -70.174065 -4.253219
24.756477 -72.459541 -5.438143
24.643065 -71.800202 -4.508865
26.277213 -72.239662 -5.258872
24.796012 -73.299423 -5.993942
24.756477 -72.459541 -5.438143
44.418478 -40.690235 -17.746529
44.853981 -41.167175 -17.008895
43.477713 -42.405293 -16.891967
43.83116 -40.270528 -18.205409
45.207428 -39.032411 -18.322336
44.418478 -40.690235 -17.746529
32.080906 -7.923934 -34.695833
32.228056 -9.297986 -34.256042
32.64238 -6.059029 -38.162859
32.340088 -5.260198 -37.623726
33.055977 -7.020372 -37.717867
32.64238 -6.059029 -38.162859
37.532339 -30.958045 -18.195619
38.06858 -32.909069 -17.373618
32.656988 -18.459091 -29.755572
31.977092 -17.07797 -30.171664
33.821461 -20.856178 -25.809866
33.355282 -20.124536 -27.329153
34.581844 -19.979368 -26.311459
34.420679 -21.618893 -24.197216
33.821461 -20.856178 -25.809866
35.857986 -22.04434 -23.725088
35.230643 -22.952222 -23.130133
34.420679 -21.618893 -24.197216
44.201263 -15.370952 -25.634701
44.023063 -17.370376 -24.101343
43.583023 -16.425785 -24.392922
25.291873 -76.178883 -6.452233
24.916851 -75.122379 -6.439773
26.915817 -78.159981 -7.54532
26.310281 -77.611725 -7.229729
28.227369 -76.616081 -7.687687
27.534515 -78.720047 -7.772087
25.617428 -79.71569 -7.314129
26.915817 -78.159981 -7.54532
29.260388 -77.60931 -8.042763
27.534515 -78.720047 -7.772087
43.473067 -24.909052 -20.791521
43.346491 -27.063136 -20.423602
42.552341 -25.669315 -20.594731
43.543037 -22.854472 -21.394777
43.473067 -24.909052 -20.791521
45.100568 -45.805433 -14.304683
44.401676 -45.206331 -14.360682
37.522576 -71.8801 -13.471699
36.05117 -73.359573 -13.125492
37.96657 -70.178482 -13.567602
38.812781 -70.593441 -14.187444
37.522576 -71.8801 -13.471699
33.800962 -12.808573 -33.857983
33.10232 -13.171281 -32.472327
32.737774 -11.885771 -33.135222
36.325294 -8.862029 -33.224009
36.784311 -10.366157 -32.274631
36.239756 -10.562773 -33.481257
28.336225 -67.322899 -4.766592
27.195661 -67.497818 -3.823223
28.833094 -65.872368 -4.786451
30.385739 -56.543291 -5.433254
31.780105 -54.838394 -5.747568
30.226138 -58.144304 -5.153866
30.385739 -56.543291 -5.433254
31.447341 -58.179964 -5.681031
30.022911 -59.781868 -5.092689
30.226138 -58.144304 -5.153866
43.363432 -66.486156 -14.637225
42.962592 -68.047225 -15.477869
43.213106 -65.107117 -13.530627
43.363432 -66.486156 -14.637225
42.442158 -65.339146 -13.602363
43.061234 -63.512884 -12.514215
43.982507 -64.659895 -13.549076
43.213106 -65.107117 -13.530627
42.512802 -62.30028 -11.655031
43.061234 -63.512884 -12.514215
41.888126 -60.700277 -10.852889
42.512802 -62.30028 -11.655031
41.667156 -62.360104 -11.693623
42.133817 -59.090122 -10.528303
41.888126 -60.700277 -10.852889
41.200284 -59.089819 -10.725555
42.291622 -57.41984 -10.362376
42.133817 -59.090122 -10.528303
36.125241 -27.407431 -19.723972
37.170368 -28.938363 -18.769647
36.588594 -26.547569 -20.303127
36.125241 -27.407431 -19.723972
36.73377 -25.89257 -21.2899
37.653492 -27.488171 -20.5409
36.588594 -26.547569 -20.303127
42.009348 -13.964999 -25.556102
41.289801 -14.703412 -24.920361
41.231144 -12.943196 -26.279179
42.855957 -13.315572 -26.420601
42.914614 -15.075788 -25.061782
42.009348 -13.964999 -25.556102
46.120316 -30.491455 -21.437776
45.730874 -32.269171 -20.861041
45.445611 -30.064852 -20.944775
46.120316 -30.491455 -21.437776
33.914088 -51.229883 -7.422588
32.755149 -52.9773 -6.688395
34.626718 -49.347416 -8.264305
34.313286 -50.937746 -8.46558
33.914088 -51.229883 -7.422588
35.373766 -47.592617 -9.063826
34.626718 -49.347416 -8.264305
34.974567 -47.884754 -8.020834
35.443109 -44.741509 -8.819377
34.919912 -46.348869 -7.982894
34.641407 -44.960422 -7.981916
36.220198 -44.375567 -9.726634
35.443109 -44.741509 -8.819377
35.941693 -42.98712 -9.725656
37.225881 -40.302853 -12.68419
37.02154 -42.126161 -11.791505
36.923123 -40.797869 -11.525599
37.496924 -38.357788 -13.461126
37.595341 -39.686081 -13.727032
37.225881 -40.302853 -12.68419
41.946728 -68.046596 -15.079362
42.962592 -68.047225 -15.477869
41.784993 -66.470627 -14.49834
41.946728 -68.046596 -15.079362
41.139236 -67.799038 -14.86874
31.581908 -15.758666 -30.55939
30.974888 -14.483289 -31.109437
33.106983 -16.266416 -30.574566
31.977092 -17.07797 -30.171664
31.581908 -15.758666 -30.55939
33.438654 -14.520598 -32.07869
32.375465 -13.597796 -31.35593
33.10232 -13.171281 -32.472327
38.698752 -10.569418 -28.550743
38.2635 -12.056171 -28.61911
38.066744 -10.344507 -29.812458
39.521393 -11.199359 -27.814526
38.698752 -10.569418 -28.550743
25.041012 -69.221206 -3.517893
27.195661 -67.497818 -3.823223
25.041012 -69.221206 -3.517893
24.873623 -70.574486 -4.05901
24.773644 -74.292824 -6.077117
24.796012 -73.299423 -5.993942
26.459955 -73.909099 -6.177326
24.916851 -75.122379 -6.439773
24.773644 -74.292824 -6.077117
43.787943 -44.921942 -15.069913
44.401676 -45.206331 -14.360682
43.078516 -46.332943 -14.11126
44.512159 -43.338781 -15.736833
43.787943 -44.921942 -15.069913
43.188999 -44.465393 -15.487412
45.379931 -41.878668 -16.810435
44.512159 -43.338781 -15.736833
45.379931 -41.878668 -16.810435
44.853981 -41.167175 -17.008895
46.066071 -37.516554 -19.351281
45.207428 -39.032411 -18.322336
45.397982 -37.224493 -19.364434
46.066071 -37.516554 -19.351281
44.891219 -37.077759 -19.922241
45.397982 -37.224493 -19.364434
44.113346 -38.465971 -19.339024
44.358187 -36.907427 -20.132459
44.891219 -37.077759 -19.922241
43.912812 -36.578493 -20.623078
44.358187 -36.907427 -20.132459
43.161208 -37.990303 -20.387451
43.377217 -36.374223 -20.766326
44.574196 -35.291348 -20.511333
43.912812 -36.578493 -20.623078
32.588404 -10.542761 -33.530163
32.737774 -11.885771 -33.135222
33.076069 -10.278288 -35.246758
32.588404 -10.542761 -33.530163
32.228056 -9.297986 -34.256042
29.859791 -61.377713 -4.894295
30.022911 -59.781868 -5.092689
29.59541 -62.945019 -4.9023
29.859791 -61.377713 -4.894295
30.979734 -61.384834 -5.627859
29.203941 -64.499714 -4.739473
29.59541 -62.945019 -4.9023
30.344506 -64.324795 -5.682842
28.833094 -65.872368 -4.786451
29.203941 -64.499714 -4.739473
43.005455 -56.281189 -10.839008
42.291622 -57.41984 -10.362376
43.733473 -54.786945 -11.059629
43.005455 -56.281189 -10.839008
42.086107 -55.925293 -10.780249
44.409467 -53.554834 -11.785281
43.733473 -54.786945 -11.059629
43.482862 -52.907795 -11.447744
44.409467 -53.554834 -11.785281
42.577803 -52.588334 -11.930851
43.482862 -52.907795 -11.447744
41.909065 -54.111587 -11.483978
41.664776 -52.038719 -12.237308
43.238573 -50.834927 -12.201073
42.577803 -52.588334 -11.930851
33.935625 -75.63678 -12.049442
34.897882 -74.700623 -12.906304
31.977129 -5.49933 -36.07782
32.340088 -5.260198 -37.623726
31.88567 -6.745869 -35.349119
31.977129 -5.49933 -36.07782
32.520485 -7.855447 -36.625923
32.080906 -7.923934 -34.695833
31.88567 -6.745869 -35.349119
33.251213 -8.198438 -37.064581
32.520485 -7.855447 -36.625923
33.055977 -7.020372 -37.717867
34.127243 -8.508233 -37.382763
33.591751 -9.343307 -36.290819
33.251213 -8.198438 -37.064581
34.904342 -8.013241 -36.268234
34.127243 -8.508233 -37.382763
35.560822 -7.716012 -35.179051
35.12426 -9.355874 -35.519818
34.904342 -8.013241 -36.268234
36.285209 -7.520064 -34.352536
35.560822 -7.716012 -35.179051
36.325294 -8.862029 -33.224009
36.285209 -7.520064 -34.352536
43.88765 -13.45979 -27.484579
42.855957 -13.315572 -26.420601
44.674397 -14.762291 -27.236418
43.88765 -13.45979 -27.484579
44.201263 -15.370952 -25.634701
44.674397 -14.762291 -27.236418
37.40415 -36.439255 -14.478309
37.496924 -38.357788 -13.461126
37.885643 -35.688311 -15.422567
37.40415 -36.439255 -14.478309
37.913396 -35.006642 -16.613378
37.894137 -37.059347 -15.694779
37.885643 -35.688311 -15.422567
38.077074 -34.280106 -17.645831
37.913396 -35.006642 -16.613378
38.06858 -32.909069 -17.373618
37.870287 -30.162851 -18.980099
37.532339 -30.958045 -18.195619
37.170368 -28.938363 -18.769647
32.963738 -19.290093 -28.577526
32.656988 -18.459091 -29.755572
33.808916 -18.416722 -29.008793
32.963738 -19.290093 -28.577526
33.355282 -20.124536 -27.329153
36.168411 -24.16482 -21.855066
35.230643 -22.952222 -23.130133
37.233309 -25.105421 -22.09284
36.73377 -25.89257 -21.2899
36.168411 -24.16482 -21.855066
43.905991 -20.309461 -22.343234
43.543037 -22.854472 -21.394777
43.04187 -20.97022 -21.911107
43.905991 -20.309461 -22.343234
44.023063 -17.370376 -24.101343
33.385313 -75.314316 -11.567905
33.935625 -75.63678 -12.049442
25.801209 -76.843468 -6.86829
25.291873 -76.178883 -6.452233
27.112496 -75.40324 -6.956039
25.801209 -76.843468 -6.86829
26.310281 -77.611725 -7.229729
30.005688 -76.609146 -9.372194
29.260388 -77.60931 -8.042763
29.578205 -76.164173 -9.33271
30.462097 -76.87392 -9.47342
30.005688 -76.609146 -9.372194
30.779913 -75.428783 -10.763367
30.930602 -77.387184 -9.618264
30.462097 -76.87392 -9.47342
31.81858 -76.087475 -10.79346
30.930602 -77.387184 -9.618264
32.696579 -74.979019 -11.700575
31.81858 -76.087475 -10.79346
32.114322 -74.585102 -11.771707
33.681055 -73.811943 -12.546152
33.385313 -75.314316 -11.567905
32.696579 -74.979019 -11.700575
44.783658 -29.224016 -20.744284
45.445611 -30.064852 -20.944775
44.408585 -31.037399 -20.395606
44.006924 -28.249718 -20.407754
43.086199 -29.009981 -20.210964
43.346491 -27.063136 -20.423602
44.783658 -29.224016 -20.744284
44.006924 -28.249718 -20.407754
44.574404 -47.25588 -13.331114
43.891052 -49.089871 -12.883864
43.008898 -48.451323 -12.95478
44.574404 -47.25588 -13.331114
45.100568 -45.805433 -14.304683
3 0 247 249
3 247 62 248
3 247 248 249
3 0 64 62
3 1 67 65
3 1 69 67
3 3 72 70
3 3 74 72
3 3 76 74
3 2 79 77
3 2 81 79
3 4 84 82
3 4 86 84
3 5 250 252
3 250 87 251
3 250 251 252
3 5 89 87
3 5 91 89
3 7 94 92
3 7 96 94
3 8 98 97
3 8 99 98
3 8 101 99
3 10 104 102
3 10 106 104
3 11 110 108
3 11 112 110
3 11 114 112
3 253 117 254
3 255 254 115
3 253 254 255
3 257 256 117
3 13 121 119
3 13 123 121
3 13 125 123
3 14 128 126
3 14 130 128
3 6 133 131
3 15 136 134
3 15 138 136
3 15 140 138
3 12 143 141
3 12 145 143
3 9 258 259
3 16 260 261
3 16 262 264
3 262 146 263
3 262 263 264
3 265 148 266
3 267 149 268
3 270 269 149
3 18 271 272
3 18 273 275
3 273 150 274
3 273 274 275
3 18 152 150
3 20 153 63
3 20 154 153
3 276 155 277
3 22 156 66
3 22 157 156
3 22 159 157
3 278 160 279
3 280 279 68
3 278 279 280
3 282 281 160
3 24 283 285
3 285 284 71
3 283 284 285
3 24 286 287
3 24 288 290
3 288 161 289
3 288 289 290
3 26 162 73
3 26 163 162
3 26 165 163
3 28 166 75
3 28 167 166
3 29 170 168
3 31 171 78
3 31 172 171
3 31 174 172
3 33 175 80
3 33 176 175
3 34 179 177
3 35 180 83
3 35 291 293
3 293 292 180
3 291 292 293
3 35 294 296
3 294 181 295
3 294 295 296
3 36 182 85
3 36 183 182
3 297 184 298
3 37 185 88
3 37 186 185
3 37 188 186
3 39 189 90
3 39 190 189
3 17 191 147
3 40 192 93
3 40 193 192
3 40 194 193
3 41 195 95
3 41 196 195
3 42 197 100
3 42 198 197
3 19 199 151
3 43 200 103
3 43 201 200
3 43 202 201
3 44 203 105
3 44 204 203
3 299 205 300
3 302 301 205
3 303 206 304
3 46 207 107
3 46 208 207
3 21 305 306
3 47 307 309
3 309 308 109
3 307 308 309
3 47 310 311
3 47 312 314
3 312 209 313
3 312 313 314
3 48 210 111
3 48 211 210
3 48 212 211
3 49 213 113
3 49 214 213
3 23 215 158
3 50 216 116
3 50 217 216
3 50 218 217
3 45 219 118
3 45 315 317
3 317 316 219
3 315 316 317
3 25 318 319
3 52 320 322
3 322 321 120
3 320 321 322
3 52 323 325
3 323 324 325
3 52 326 327
3 53 220 122
3 53 221 220
3 53 222 221
3 54 223 124
3 54 224 223
3 27 225 164
3 55 226 127
3 55 227 226
3 55 228 227
3 56 229 129
3 56 230 229
3 38 231 187
3 57 232 132
3 57 233 232
3 30 234 169
3 58 235 135
3 58 236 235
3 58 237 236
3 59 238 137
3 59 239 238
3 59 240 239
3 60 241 139
3 60 242 241
3 32 243 173
3 61 244 142
3 61 245 244
3 61 246 245
3 51 328 330
3 330 329 144
3 328 329 330
3 51 331 332
3 334 333 178
3 62 335 336
3 62 337 339
3 337 18 338
3 337 338 339
3 62 63 18
3 64 63 62
3 64 20 63
3 65 340 342
3 340 66 341
3 340 341 342
3 67 66 65
3 67 22 66
3 67 68 22
3 69 68 67
3 69 343 345
3 345 344 68
3 343 344 345
3 70 346 348
3 346 71 347
3 346 347 348
3 72 71 70
3 72 24 71
3 72 73 24
3 74 73 72
3 74 26 73
3 74 75 26
3 76 75 74
3 76 28 75
3 77 78 29
3 79 78 77
3 79 31 78
3 79 80 31
3 81 80 79
3 81 33 80
3 82 83 34
3 84 83 82
3 84 35 83
3 84 85 35
3 86 85 84
3 86 36 85
3 87 349 350
3 87 351 352
3 87 353 355
3 353 88 354
3 353 354 355
3 89 88 87
3 89 37 88
3 89 90 37
3 91 90 89
3 91 39 90
3 92 93 17
3 94 93 92
3 94 40 93
3 94 95 40
3 96 95 94
3 96 41 95
3 97 356 357
3 98 358 360
3 360 359 97
3 358 359 360
3 98 361 363
3 361 362 363
3 98 364 365
3 99 366 368
3 368 367 98
3 366 367 368
3 99 369 370
3 99 371 373
3 371 100 372
3 371 372 373
3 101 100 99
3 101 42 100
3 102 103 19
3 104 103 102
3 104 43 103
3 104 105 43
3 106 105 104
3 106 44 105
3 374 107 375
3 376 107 377
3 378 46 379
3 380 379 107
3 378 379 380
3 108 109 21
3 110 109 108
3 110 47 109
3 110 111 47
3 112 111 110
3 112 48 111
3 112 113 48
3 114 113 112
3 114 49 113
3 115 116 23
3 117 116 115
3 117 50 116
3 117 118 50
3 381 118 382
3 383 382 117
3 381 382 383
3 384 45 385
3 386 385 118
3 384 385 386
3 119 120 25
3 121 120 119
3 121 52 120
3 121 122 52
3 123 122 121
3 123 53 122
3 123 124 53
3 125 124 123
3 125 54 124
3 126 127 27
3 128 127 126
3 128 55 127
3 128 129 55
3 130 129 128
3 130 56 129
3 131 132 38
3 133 132 131
3 133 57 132
3 134 135 30
3 136 135 134
3 136 58 135
3 136 137 58
3 138 137 136
3 138 59 137
3 138 139 59
3 140 139 138
3 140 60 139
3 141 142 32
3 143 142 141
3 143 61 142
3 143 144 61
3 145 144 143
3 145 51 144
3 146 387 388
3 146 389 390
3 391 5 392
3 393 147 394
3 395 394 5
3 393 394 395
3 148 396 398
3 396 147 397
3 396 397 398
3 148 17 147
3 399 148 400
3 399 400 401
3 149 402 404
3 402 148 403
3 402 403 404
3 149 17 148
3 149 92 17
3 405 92 406
3 407 406 149
3 405 406 407
3 408 7 409
3 410 409 92
3 408 409 410
3 411 97 412
3 150 413 415
3 413 97 414
3 413 414 415
3 150 8 97
3 150 151 8
3 152 151 150
3 152 19 151
3 63 152 18
3 153 152 63
3 153 19 152
3 153 102 19
3 154 102 153
3 154 10 102
3 155 416 417
3 155 418 420
3 418 21 419
3 418 419 420
3 66 421 423
3 421 155 422
3 421 422 423
3 156 155 66
3 156 21 155
3 156 108 21
3 157 108 156
3 157 11 108
3 157 158 11
3 159 158 157
3 159 23 158
3 68 159 22
3 160 159 68
3 160 23 159
3 160 115 23
3 424 115 425
3 426 425 160
3 424 425 426
3 428 427 115
3 71 429 430
3 432 431 71
3 161 433 434
3 161 435 437
3 435 25 436
3 435 436 437
3 73 161 24
3 162 161 73
3 162 25 161
3 162 119 25
3 163 119 162
3 163 13 119
3 163 164 13
3 165 164 163
3 165 27 164
3 75 165 26
3 166 165 75
3 166 27 165
3 166 126 27
3 167 126 166
3 167 14 126
3 168 169 6
3 170 169 168
3 170 30 169
3 78 170 29
3 171 170 78
3 171 30 170
3 171 134 30
3 172 134 171
3 172 15 134
3 172 173 15
3 174 173 172
3 174 32 173
3 80 174 31
3 175 174 80
3 175 32 174
3 175 141 32
3 176 141 175
3 176 12 141
3 177 178 9
3 179 178 177
3 179 438 440
3 440 439 178
3 438 439 440
3 83 179 34
3 180 179 83
3 180 441 443
3 443 442 179
3 441 442 443
3 180 444 445
3 447 446 180
3 181 448 449
3 181 450 451
3 85 181 35
3 182 181 85
3 182 452 454
3 454 453 181
3 452 453 454
3 182 455 456
3 183 457 459
3 459 458 182
3 457 458 459
3 183 460 462
3 460 16 461
3 460 461 462
3 463 65 464
3 184 465 467
3 465 65 466
3 465 466 467
3 184 1 65
3 88 468 469
3 185 470 472
3 472 471 88
3 470 471 472
3 185 473 474
3 185 475 477
3 475 70 476
3 475 476 477
3 186 70 185
3 186 3 70
3 186 187 3
3 188 187 186
3 188 38 187
3 90 188 37
3 189 188 90
3 189 38 188
3 189 131 38
3 190 131 189
3 190 6 131
3 147 91 5
3 191 91 147
3 191 39 91
3 93 191 17
3 192 191 93
3 192 39 191
3 192 190 39
3 193 190 192
3 193 6 190
3 193 168 6
3 194 168 193
3 194 29 168
3 95 194 40
3 195 194 95
3 195 29 194
3 195 77 29
3 196 77 195
3 196 2 77
3 100 478 479
3 197 480 482
3 482 481 100
3 480 481 482
3 197 483 484
3 197 485 486
3 198 487 489
3 489 488 197
3 487 488 489
3 198 490 492
3 490 9 491
3 490 491 492
3 151 101 8
3 199 101 151
3 199 42 101
3 103 199 19
3 200 199 103
3 200 42 199
3 200 198 42
3 201 198 200
3 201 9 198
3 201 177 9
3 202 177 201
3 202 34 177
3 105 202 43
3 203 202 105
3 203 34 202
3 203 82 34
3 204 82 203
3 204 4 82
3 493 0 494
3 205 495 496
3 205 497 498
3 205 499 501
3 499 184 500
3 499 500 501
3 502 184 503
3 504 503 205
3 502 503 504
3 505 1 506
3 507 506 184
3 505 506 507
3 508 1 509
3 510 69 511
3 512 511 1
3 510 511 512
3 513 69 514
3 516 515 69
3 517 45 518
3 519 45 520
3 522 521 45
3 523 7 524
3 525 7 526
3 527 96 528
3 529 528 7
3 527 528 529
3 206 530 532
3 530 96 531
3 530 531 532
3 206 41 96
3 107 533 535
3 533 206 534
3 533 534 535
3 207 206 107
3 207 41 206
3 207 196 41
3 208 196 207
3 208 2 196
3 109 536 538
3 538 537 21
3 536 537 538
3 540 539 109
3 209 541 542
3 209 543 545
3 543 46 544
3 543 544 545
3 111 209 47
3 210 209 111
3 210 46 209
3 210 208 46
3 211 208 210
3 211 2 208
3 211 81 2
3 212 81 211
3 212 33 81
3 113 212 48
3 213 212 113
3 213 33 212
3 213 176 33
3 214 176 213
3 214 12 176
3 158 114 11
3 215 114 158
3 215 49 114
3 116 215 23
3 216 215 116
3 216 49 215
3 216 214 49
3 217 214 216
3 217 12 214
3 217 145 12
3 218 145 217
3 218 51 145
3 118 218 50
3 219 218 118
3 219 51 218
3 219 546 548
3 548 547 51
3 546 547 548
3 550 549 219
3 551 0 552
3 120 553 555
3 555 554 25
3 553 554 555
3 557 556 120
3 122 558 560
3 560 559 52
3 558 559 560
3 220 561 563
3 563 562 122
3 561 562 563
3 220 564 565
3 220 566 567
3 221 568 570
3 570 569 220
3 568 569 570
3 221 571 573
3 571 0 572
3 571 572 573
3 221 64 0
3 222 64 221
3 222 20 64
3 124 222 53
3 223 222 124
3 223 20 222
3 223 154 20
3 224 154 223
3 224 10 154
3 164 125 13
3 225 125 164
3 225 54 125
3 127 225 27
3 226 225 127
3 226 54 225
3 226 224 54
3 227 224 226
3 227 10 224
3 227 106 10
3 228 106 227
3 228 44 106
3 129 228 55
3 229 228 129
3 229 44 228
3 229 204 44
3 230 204 229
3 230 4 204
3 187 76 3
3 231 76 187
3 231 28 76
3 132 231 38
3 232 231 132
3 232 28 231
3 232 167 28
3 233 167 232
3 233 14 167
3 169 133 6
3 234 133 169
3 234 57 133
3 135 234 30
3 235 234 135
3 235 57 234
3 235 233 57
3 236 233 235
3 236 14 233
3 236 130 14
3 237 130 236
3 237 56 130
3 137 237 58
3 238 237 137
3 238 56 237
3 238 230 56
3 239 230 238
3 239 4 230
3 239 86 4
3 240 86 239
3 240 36 86
3 139 240 59
3 241 240 139
3 241 36 240
3 241 183 36
3 242 183 241
3 242 16 183
3 173 140 15
3 243 140 173
3 243 60 140
3 142 243 32
3 244 243 142
3 244 60 243
3 244 242 60
3 245 242 244
3 245 16 242
3 245 146 16
3 246 146 245
3 246 574 576
3 576 575 146
3 574 575 576
3 144 246 61
3 577 246 578
3 579 578 144
3 577 578 579
3 581 580 246
3 178 582 584
3 584 583 9
3 582 583 584
3 586 585 178
