ply
format ascii 1.0
element vertex 315
property float x
property float y
property float z
element face 326
property list uchar int vertex_index
end_header
7.839471 13.586693 26.373804
5.928751 20.626627 29.557781
7.998702 25.086208 19.928623
9.983629 30.566931 22.23172
5.147712 10.241297 35.562145
3.424354 28.442627 12.126421
10.164424 21.698242 28.856945
7.566835 26.133148 26.117764
9.181605 17.10165 32.480156
4.346715 15.498799 23.057041
7.315619 30.757492 17.064713
6.669356 26.432779 15.542048
5.161083 11.900381 29.939838
4.931798 6.366906 32.53178
7.750915 8.349077 29.213902
5.411971 17.050037 26.94347
8.057911 19.826124 23.467056
5.938604 23.129004 24.432867
5.796569 29.037094 21.744015
7.330254 34.534969 18.82744
8.28815 6.347104 38.164989
8.740886 11.894293 35.352703
5.757331 15.489017 32.528969
5.345452 21.126087 19.413677
0.47469 30.269581 8.033401
11.580545 24.210108 27.050125
5.813312 11.534037 25.987011
6.330117 14.612886 24.490107
6.365322 33.640209 15.526401
8.457397 31.393433 14.569763
7.114993 13.015411 28.458645
6.878774 10.268456 29.789999
7.82355 11.016558 27.870916
5.974075 8.896505 27.389139
5.744158 18.853247 28.13031
5.764454 20.120922 25.769207
5.822238 22.012386 27.169641
8.712866 28.424414 24.084003
6.102262 28.044643 24.261349
6.882276 30.508831 22.696789
5.9334 32.120792 20.545385
8.520098 32.662922 20.725899
10.586581 9.765384 36.35413
10.823853 12.343661 35.038025
7.313565 19.084539 31.266827
6.87403 16.73354 33.179016
5.782812 18.113781 31.088314
5.669752 16.299915 29.647949
8.097873 22.523785 21.723841
7.355406 20.410255 21.16383
7.524453 23.001129 19.346771
5.174065 27.370182 13.776278
3.790369 24.745274 15.912829
1.699246 25.832561 14.35803
1.527377 29.505976 10.286199
6.579225 8.579466 37.486481
4.8929 7.307162 37.021523
6.341827 4.560828 31.938263
7.638458 21.530996 29.59557
6.518806 23.569836 28.181391
9.01413 23.936285 27.542286
10.43947 26.225903 25.35664
11.476184 28.518534 23.726187
10.968657 15.094061 33.811741
11.464813 17.47591 32.023556
9.623559 19.373632 30.608282
7.820009 27.928228 18.533575
8.067709 25.683151 17.61499
8.450303 28.520855 16.281801
7.772878 29.071985 13.825949
6.480028 29.838617 11.727125
5.221996 11.13531 32.747711
4.878126 8.412906 34.222984
5.170527 9.159343 31.381027
6.640803 7.418739 30.976767
7.606471 5.515226 30.351376
6.225553 6.243315 28.634884
7.334825 15.529305 26.979437
8.045267 16.80755 24.975159
6.786159 18.611105 25.371359
6.748421 21.511553 23.699757
6.646387 24.204372 22.025574
5.85055 25.08453 25.771341
5.958711 26.092999 23.055788
6.583671 26.934917 20.655979
6.198499 29.873047 19.251625
5.832428 33.039494 17.981033
10.042589 7.177008 37.734455
8.545568 9.125292 36.825024
6.731178 11.430118 35.910194
8.825438 14.526922 34.262932
6.721906 14.238672 34.685719
5.540005 12.94299 34.063957
5.552321 13.732683 31.174053
5.270545 14.509745 28.419994
6.992498 17.622757 22.918766
5.108976 18.410894 21.348156
5.813169 23.818972 17.51054
3.019845 22.049723 17.877949
6.745893 34.012102 14.213332
6.419507 35.393433 15.024559
11.717021 12.831397 35.25996
11.64319 11.553372 35.816122
1.94176 27.574744 12.264333
1.079206 26.26971 13.380138
2.5618 27.137594 13.242225
2.475866 28.974302 11.20631
0.993271 28.106418 11.344223
1.94176 27.574744 12.264333
6.197514 3.14207 32.296198
6.950411 3.598083 31.628949
11.611862 26.440286 25.430664
11.010008 25.218006 26.203383
12.1824 25.432389 26.277407
12.130219 27.586602 24.615437
10.957827 27.372218 24.541413
11.611862 26.440286 25.430664
12.364478 17.940551 32.310402
12.165333 16.759847 33.092686
9.893992 20.535937 29.732613
10.764467 19.543654 30.528694
11.034899 20.705959 29.653025
2.712738 14.520853 23.165663
3.928288 14.004922 23.868565
3.022846 15.989696 22.416638
2.712738 14.520853 23.165663
8.179305 30.514159 12.919191
8.115137 30.232709 14.197856
8.521564 31.674883 13.291098
7.532879 30.897475 11.869779
7.126453 29.455301 12.776537
8.179305 30.514159 12.919191
7.358479 31.168733 10.740976
7.532879 30.897475 11.869779
4.660089 7.824821 27.41809
4.414803 9.163992 26.757086
7.028635 35.205916 17.799906
6.279722 34.458178 17.376702
6.581341 33.787231 18.404236
11.034555 7.650635 37.753931
10.880446 6.158002 38.267843
3.962919 20.223125 19.679524
3.844682 18.865529 20.646763
5.227214 19.76849 20.380916
1.908208 22.455157 17.098554
3.405107 23.397498 16.895389
2.293471 23.802932 16.115994
1.815546 20.977267 18.038094
1.908208 22.455157 17.098554
0.175043 28.625895 7.801352
0.205018 28.642781 9.062712
0.250347 30.192685 6.647481
0.175043 28.625895 7.801352
8.146178 4.775472 38.738449
9.115651 5.233536 38.44717
4.895645 5.956817 34.013312
4.868809 6.979817 34.858913
4.904962 7.389906 33.377382
12.043457 23.177828 27.985027
10.872485 22.954175 27.953535
11.335396 21.921895 28.888436
12.588665 24.625761 27.320422
12.043457 23.177828 27.985027
12.1824 25.432389 26.277407
12.588665 24.625761 27.320422
11.335396 21.921895 28.888436
11.034899 20.705959 29.653025
4.661587 12.022541 25.33355
4.334421 10.482758 26.056022
4.919989 13.561965 24.585097
4.661587 12.022541 25.33355
6.071715 13.073462 25.238559
5.338416 15.055843 23.773574
3.928288 14.004922 23.868565
4.919989 13.561965 24.585097
7.791931 32.888714 13.735014
7.411359 32.516821 15.048082
6.745893 34.012102 14.213332
8.521564 31.674883 13.291098
7.791931 32.888714 13.735014
4.334421 10.482758 26.056022
4.414803 9.163992 26.757086
5.893693 10.215271 26.688075
11.524554 10.264233 36.474175
11.306552 8.944823 37.063768
10.705217 11.054523 35.696078
11.524554 10.264233 36.474175
11.64319 11.553372 35.816122
1.247909 24.346576 15.338594
2.293471 23.802932 16.115994
2.744808 25.288917 15.13543
0.877161 24.585836 14.237803
1.247909 24.346576 15.338594
0.877161 24.585836 14.237803
1.079206 26.26971 13.380138
0.731361 28.260978 10.189111
0.993271 28.106418 11.344223
1.001033 29.887778 9.1598
0.205018 28.642781 9.062712
0.731361 28.260978 10.189111
6.404915 6.995564 38.112772
7.259378 5.879383 38.452026
7.433687 7.463285 37.825735
5.561753 6.359412 37.880293
6.404915 6.995564 38.112772
5.736063 7.943314 37.254002
4.753404 5.752136 37.671683
5.561753 6.359412 37.880293
5.532011 4.071966 32.717173
4.826996 4.975005 33.013931
5.636812 5.463867 32.235022
5.532011 4.071966 32.717173
6.197514 3.14207 32.296198
11.917255 15.568923 33.986778
11.789423 14.206596 34.646818
11.216735 16.284985 32.917648
11.917255 15.568923 33.986778
12.165333 16.759847 33.092686
11.685094 18.594793 31.236331
12.364478 17.940551 32.310402
10.544186 18.424771 31.315919
11.685094 18.594793 31.236331
10.764467 19.543654 30.528694
5.877733 30.249069 10.762073
4.349896 29.551074 10.961721
4.952191 29.140622 11.926773
5.877733 30.249069 10.762073
7.358479 31.168733 10.740976
7.582733 4.075282 30.835506
6.950411 3.598083 31.628949
6.974149 5.038027 31.144819
7.062449 4.486357 30.01826
7.582733 4.075282 30.835506
6.371989 4.850401 29.160014
7.062449 4.486357 30.01826
6.916012 5.879271 29.49313
5.106446 5.156899 28.564227
5.252883 3.763985 29.089357
6.371989 4.850401 29.160014
4.785827 6.498226 28.040963
6.099814 7.56991 28.012011
4.660089 7.824821 27.41809
5.106446 5.156899 28.564227
4.785827 6.498226 28.040963
6.546169 34.758536 16.149386
6.098875 33.339851 16.753717
6.279722 34.458178 17.376702
6.419507 35.393433 15.024559
6.546169 34.758536 16.149386
9.99287 5.648489 38.231903
10.830727 4.629482 38.765291
10.880446 6.158002 38.267843
9.16537 6.762056 37.949722
9.115651 5.233536 38.44717
9.99287 5.648489 38.231903
10.314585 8.471196 37.044292
11.034555 7.650635 37.753931
11.306552 8.944823 37.063768
10.896255 13.718861 34.424883
11.717021 12.831397 35.25996
11.789423 14.206596 34.646818
3.403977 17.445743 21.562195
3.022846 15.989696 22.416638
4.727845 16.954846 22.202599
3.403977 17.445743 21.562195
3.844682 18.865529 20.646763
2.800116 20.684943 18.911659
3.962919 20.223125 19.679524
4.182648 21.587905 18.645813
2.800116 20.684943 18.911659
1.815546 20.977267 18.038094
3.401408 30.082749 10.04161
2.475866 28.974302 11.20631
4.349896 29.551074 10.961721
2.751389 30.480451 8.987709
3.401408 30.082749 10.04161
2.225045 30.862254 7.861309
1.001033 29.887778 9.1598
2.751389 30.480451 8.987709
1.59051 31.147303 6.6689
2.225045 30.862254 7.861309
1.366166 31.070407 5.282979
0.250347 30.192685 6.647481
1.59051 31.147303 6.6689
8.146178 4.775472 38.738449
7.259378 5.879383 38.452026
4.876196 6.426944 36.258183
4.885513 7.860034 35.622253
4.868809 6.979817 34.858913
4.753404 5.752136 37.671683
4.876196 6.426944 36.258183
4.895645 5.956817 34.013312
4.826996 4.975005 33.013931
12.759587 28.640534 24.446289
12.130219 27.586602 24.615437
12.405937 29.369794 23.336686
12.759587 28.640534 24.446289
11.65966 30.393992 22.589453
10.729907 29.542732 22.978953
12.405937 29.369794 23.336686
11.116638 31.122391 21.566823
11.65966 30.393992 22.589453
10.384873 32.170386 20.813913
9.251864 31.614927 21.478809
11.116638 31.122391 21.566823
9.907799 33.014212 19.812301
10.384873 32.170386 20.813913
9.312876 33.950235 18.863072
7.925176 33.598945 19.776669
9.907799 33.014212 19.812301
8.992176 34.662386 17.890774
9.312876 33.950235 18.863072
8.690556 35.333332 16.863239
7.028635 35.205916 17.799906
8.992176 34.662386 17.890774
3 0 27 26
3 100 99 28
3 0 32 30
3 0 26 32
3 1 36 34
3 3 39 37
3 3 41 39
3 101 43 102
3 1 46 44
3 1 34 46
3 2 50 48
3 5 53 51
3 5 103 105
3 105 104 53
3 103 104 105
3 5 106 108
3 106 54 107
3 106 107 108
3 4 56 55
3 110 109 57
3 6 60 58
3 111 61 112
3 113 112 25
3 111 112 113
3 114 62 115
3 116 115 61
3 114 115 116
3 117 64 118
3 6 119 121
3 119 65 120
3 119 120 121
3 6 58 65
3 9 122 123
3 9 124 125
3 10 68 66
3 126 69 127
3 128 127 29
3 126 127 128
3 129 70 130
3 131 130 69
3 129 130 131
3 133 132 70
3 12 73 71
3 14 74 31
3 14 75 74
3 14 76 75
3 135 134 33
3 15 79 77
3 17 80 35
3 17 81 80
3 7 82 59
3 18 83 38
3 18 84 83
3 18 85 84
3 19 86 40
3 19 136 138
3 138 137 86
3 136 137 138
3 139 87 140
3 21 88 42
3 21 89 88
3 8 90 63
3 22 91 45
3 22 92 91
3 22 93 92
3 15 94 47
3 15 77 94
3 16 95 78
3 23 96 49
3 23 141 143
3 143 142 96
3 141 142 143
3 11 97 67
3 144 98 145
3 146 145 52
3 144 145 146
3 148 147 98
3 24 149 150
3 24 151 152
3 20 153 154
3 13 155 157
3 157 156 72
3 155 156 157
3 158 25 159
3 160 159 6
3 158 159 160
3 161 25 162
3 164 163 25
3 165 6 166
3 26 167 168
3 27 169 171
3 171 170 26
3 169 170 171
3 27 172 174
3 172 9 173
3 172 173 174
3 28 29 10
3 175 29 176
3 177 176 28
3 175 176 177
3 179 178 29
3 30 31 12
3 32 31 30
3 32 14 31
3 32 33 14
3 26 33 32
3 26 180 182
3 182 181 33
3 180 181 182
3 34 35 15
3 36 35 34
3 36 17 35
3 37 38 7
3 39 38 37
3 39 18 38
3 39 40 18
3 41 40 39
3 41 19 40
3 183 42 184
3 43 185 187
3 185 42 186
3 185 186 187
3 43 21 42
3 44 45 8
3 46 45 44
3 46 22 45
3 46 47 22
3 34 47 46
3 34 15 47
3 48 49 16
3 50 49 48
3 50 23 49
3 51 52 11
3 53 52 51
3 53 188 190
3 190 189 52
3 188 189 190
3 53 191 192
3 194 193 53
3 54 195 196
3 54 197 199
3 197 24 198
3 197 198 199
3 55 200 202
3 202 201 20
3 200 201 202
3 56 203 205
3 205 204 55
3 203 204 205
3 56 206 207
3 57 208 210
3 210 209 13
3 208 209 210
3 212 211 57
3 58 59 1
3 60 59 58
3 60 7 59
3 25 60 6
3 61 60 25
3 61 7 60
3 61 37 7
3 62 37 61
3 62 3 37
3 213 63 214
3 64 215 217
3 215 63 216
3 215 216 217
3 64 8 63
3 218 64 219
3 65 220 222
3 220 64 221
3 220 221 222
3 65 8 64
3 65 44 8
3 58 44 65
3 58 1 44
3 66 67 2
3 68 67 66
3 68 11 67
3 29 68 10
3 69 68 29
3 69 11 68
3 69 51 11
3 70 51 69
3 70 5 51
3 70 223 225
3 225 224 5
3 223 224 225
3 227 226 70
3 71 72 4
3 73 72 71
3 73 13 72
3 31 73 12
3 74 73 31
3 74 13 73
3 74 57 13
3 75 57 74
3 75 228 230
3 230 229 57
3 228 229 230
3 75 231 232
3 76 233 235
3 235 234 75
3 233 234 235
3 76 236 238
3 236 237 238
3 33 76 14
3 239 76 240
3 241 240 33
3 239 240 241
3 243 242 76
3 77 78 0
3 79 78 77
3 79 16 78
3 35 79 15
3 80 79 35
3 80 16 79
3 80 48 16
3 81 48 80
3 81 2 48
3 59 36 1
3 82 36 59
3 82 17 36
3 38 82 7
3 83 82 38
3 83 17 82
3 83 81 17
3 84 81 83
3 84 2 81
3 84 66 2
3 85 66 84
3 85 10 66
3 40 85 18
3 86 85 40
3 86 10 85
3 86 28 10
3 244 28 245
3 246 245 86
3 244 245 246
3 248 247 28
3 87 249 251
3 249 250 251
3 87 252 254
3 252 20 253
3 252 253 254
3 42 255 257
3 255 87 256
3 255 256 257
3 88 87 42
3 88 20 87
3 88 55 20
3 89 55 88
3 89 4 55
3 63 258 260
3 258 43 259
3 258 259 260
3 90 43 63
3 90 21 43
3 45 90 8
3 91 90 45
3 91 21 90
3 91 89 21
3 92 89 91
3 92 4 89
3 92 71 4
3 93 71 92
3 93 12 71
3 47 93 22
3 94 93 47
3 94 12 93
3 94 30 12
3 77 30 94
3 77 0 30
3 78 27 0
3 95 27 78
3 95 9 27
3 49 95 16
3 96 95 49
3 96 9 95
3 96 261 263
3 263 262 9
3 261 262 263
3 265 264 96
3 67 50 2
3 97 50 67
3 97 23 50
3 52 97 11
3 98 97 52
3 98 23 97
3 98 266 268
3 268 267 23
3 266 267 268
3 270 269 98
3 271 54 272
3 273 272 5
3 271 272 273
3 274 54 275
3 276 24 277
3 278 277 54
3 276 277 278
3 279 24 280
3 283 282 24
3 281 282 283
3 285 284 20
3 72 56 4
3 286 56 287
3 288 287 72
3 286 287 288
3 290 289 56
3 292 291 13
3 293 62 294
3 295 62 296
3 297 3 298
3 299 298 62
3 297 298 299
3 300 3 301
3 302 41 303
3 304 303 3
3 302 303 304
3 305 41 306
3 307 19 308
3 309 308 41
3 307 308 309
3 310 19 311
3 314 313 19
3 312 313 314
